<?xml version="1.0" encoding="UTF-8" standalone="no"?>
<!DOCTYPE svg PUBLIC "-//W3C//DTD SVG 1.1//EN"
 "http://www.w3.org/Graphics/SVG/1.1/DTD/svg11.dtd">
<!-- Generated by graphviz version 2.36.0 (20140111.2315)
 -->
<!-- Title: game_engine.gameRepresentation.evaluatables.parameters.ParameterFactory.getClassFromString Pages: 1 -->
<svg width="1016pt" height="87pt"
 viewBox="0.00 0.00 1016.00 87.00" xmlns="http://www.w3.org/2000/svg" xmlns:xlink="http://www.w3.org/1999/xlink">
<g id="graph0" class="graph" transform="scale(1 1) rotate(0) translate(4 83)">
<title>game_engine.gameRepresentation.evaluatables.parameters.ParameterFactory.getClassFromString</title>
<polygon fill="white" stroke="none" points="-4,4 -4,-83 1012,-83 1012,4 -4,4"/>
<!-- Node1 -->
<g id="node1" class="node"><title>Node1</title>
<polygon fill="#bfbfbf" stroke="black" points="0.5,-24 0.5,-54 311.5,-54 311.5,-24 0.5,-24"/>
<text text-anchor="start" x="8.5" y="-42" font-family="Helvetica,sans-Serif" font-size="10.00">game_engine.gameRepresentation.evaluatables.parameters.</text>
<text text-anchor="middle" x="156" y="-31" font-family="Helvetica,sans-Serif" font-size="10.00">ParameterFactory.getClassFromString</text>
</g>
<!-- Node2 -->
<g id="node2" class="node"><title>Node2</title>
<g id="a_node2"><a xlink:href="../../dd/d6a/classgame__engine_1_1game_representation_1_1evaluatables_1_1parameters_1_1_parameter_factory.html#a516bc9685d045578c9765d9134d0e545" target="_top" xlink:title="game_engine.gameRepresentation.evaluatables.parameters.\lParameterFactory.getObjectOfInterestIdentifier">
<polygon fill="white" stroke="black" points="348.5,-49 348.5,-79 659.5,-79 659.5,-49 348.5,-49"/>
<text text-anchor="start" x="356.5" y="-67" font-family="Helvetica,sans-Serif" font-size="10.00">game_engine.gameRepresentation.evaluatables.parameters.</text>
<text text-anchor="middle" x="504" y="-56" font-family="Helvetica,sans-Serif" font-size="10.00">ParameterFactory.getObjectOfInterestIdentifier</text>
</a>
</g>
</g>
<!-- Node1&#45;&gt;Node2 -->
<g id="edge1" class="edge"><title>Node1&#45;&gt;Node2</title>
<path fill="none" stroke="midnightblue" d="M321.599,-50.893C330.532,-51.5384 339.494,-52.186 348.391,-52.8289"/>
<polygon fill="midnightblue" stroke="midnightblue" points="321.758,-47.3955 311.532,-50.1656 321.254,-54.3773 321.758,-47.3955"/>
</g>
<!-- Node4 -->
<g id="node4" class="node"><title>Node4</title>
<g id="a_node4"><a xlink:href="../../dd/d6a/classgame__engine_1_1game_representation_1_1evaluatables_1_1parameters_1_1_parameter_factory.html#aadbb9ba76094157fa03ddbcc6fb916a4" target="_top" xlink:title="game_engine.gameRepresentation.evaluatables.parameters.\lParameterFactory.getParameter">
<polygon fill="white" stroke="black" points="348.5,-0 348.5,-30 659.5,-30 659.5,-0 348.5,-0"/>
<text text-anchor="start" x="356.5" y="-18" font-family="Helvetica,sans-Serif" font-size="10.00">game_engine.gameRepresentation.evaluatables.parameters.</text>
<text text-anchor="middle" x="504" y="-7" font-family="Helvetica,sans-Serif" font-size="10.00">ParameterFactory.getParameter</text>
</a>
</g>
</g>
<!-- Node1&#45;&gt;Node4 -->
<g id="edge3" class="edge"><title>Node1&#45;&gt;Node4</title>
<path fill="none" stroke="midnightblue" d="M321.599,-27.5827C330.532,-26.9631 339.494,-26.3414 348.391,-25.7243"/>
<polygon fill="midnightblue" stroke="midnightblue" points="321.266,-24.0973 311.532,-28.281 321.75,-31.0806 321.266,-24.0973"/>
</g>
<!-- Node3 -->
<g id="node3" class="node"><title>Node3</title>
<g id="a_node3"><a xlink:href="../../dd/d6a/classgame__engine_1_1game_representation_1_1evaluatables_1_1parameters_1_1_parameter_factory.html#af45fff29e556946bf5104a25d6f26fa7" target="_top" xlink:title="game_engine.gameRepresentation.evaluatables.parameters.\lParameterFactory.createParameter">
<polygon fill="white" stroke="black" points="696.5,-24 696.5,-54 1007.5,-54 1007.5,-24 696.5,-24"/>
<text text-anchor="start" x="704.5" y="-42" font-family="Helvetica,sans-Serif" font-size="10.00">game_engine.gameRepresentation.evaluatables.parameters.</text>
<text text-anchor="middle" x="852" y="-31" font-family="Helvetica,sans-Serif" font-size="10.00">ParameterFactory.createParameter</text>
</a>
</g>
</g>
<!-- Node2&#45;&gt;Node3 -->
<g id="edge2" class="edge"><title>Node2&#45;&gt;Node3</title>
<path fill="none" stroke="midnightblue" d="M669.599,-52.107C678.532,-51.4616 687.494,-50.814 696.391,-50.1711"/>
<polygon fill="midnightblue" stroke="midnightblue" points="669.254,-48.6227 659.532,-52.8344 669.758,-55.6045 669.254,-48.6227"/>
</g>
<!-- Node4&#45;&gt;Node3 -->
<g id="edge4" class="edge"><title>Node4&#45;&gt;Node3</title>
<path fill="none" stroke="midnightblue" d="M669.599,-26.4173C678.532,-27.0369 687.494,-27.6586 696.391,-28.2757"/>
<polygon fill="midnightblue" stroke="midnightblue" points="669.75,-22.9194 659.532,-25.719 669.266,-29.9027 669.75,-22.9194"/>
</g>
</g>
</svg>
