<?xml version="1.0" encoding="UTF-8" standalone="no"?>
<!DOCTYPE svg PUBLIC "-//W3C//DTD SVG 1.1//EN"
 "http://www.w3.org/Graphics/SVG/1.1/DTD/svg11.dtd">
<!-- Generated by graphviz version 2.36.0 (20140111.2315)
 -->
<!-- Title: editor.ElementDropDownControl.initialize Pages: 1 -->
<svg width="672pt" height="87pt"
 viewBox="0.00 0.00 672.00 87.00" xmlns="http://www.w3.org/2000/svg" xmlns:xlink="http://www.w3.org/1999/xlink">
<g id="graph0" class="graph" transform="scale(1 1) rotate(0) translate(4 83)">
<title>editor.ElementDropDownControl.initialize</title>
<polygon fill="white" stroke="none" points="-4,4 -4,-83 668,-83 668,4 -4,4"/>
<!-- Node1 -->
<g id="node1" class="node"><title>Node1</title>
<polygon fill="#bfbfbf" stroke="black" points="0,-29.5 0,-48.5 212,-48.5 212,-29.5 0,-29.5"/>
<text text-anchor="middle" x="106" y="-36.5" font-family="Helvetica,sans-Serif" font-size="10.00">editor.ElementDropDownControl.initialize</text>
</g>
<!-- Node2 -->
<g id="node2" class="node"><title>Node2</title>
<g id="a_node2"><a xlink:href="../../dd/d94/classeditor_1_1_element_drop_down_control.html#ae3b3e4ed7a8101eff599445abd06c915" target="_top" xlink:title="editor.ElementDropDownControl.init\lListView">
<polygon fill="white" stroke="black" points="248,-49 248,-79 436,-79 436,-49 248,-49"/>
<text text-anchor="start" x="256" y="-67" font-family="Helvetica,sans-Serif" font-size="10.00">editor.ElementDropDownControl.init</text>
<text text-anchor="middle" x="342" y="-56" font-family="Helvetica,sans-Serif" font-size="10.00">ListView</text>
</a>
</g>
</g>
<!-- Node1&#45;&gt;Node2 -->
<g id="edge1" class="edge"><title>Node1&#45;&gt;Node2</title>
<path fill="none" stroke="midnightblue" d="M196.133,-48.5227C209.748,-49.9773 223.897,-51.489 237.784,-52.9727"/>
<polygon fill="midnightblue" stroke="midnightblue" points="237.523,-56.4646 247.838,-54.0468 238.267,-49.5042 237.523,-56.4646"/>
</g>
<!-- Node3 -->
<g id="node3" class="node"><title>Node3</title>
<g id="a_node3"><a xlink:href="../../dd/d94/classeditor_1_1_element_drop_down_control.html#afedc880ac6e572a10c199adc14153dee" target="_top" xlink:title="editor.ElementDropDownControl.init\lNewElementButton">
<polygon fill="white" stroke="black" points="248,-0 248,-30 436,-30 436,-0 248,-0"/>
<text text-anchor="start" x="256" y="-18" font-family="Helvetica,sans-Serif" font-size="10.00">editor.ElementDropDownControl.init</text>
<text text-anchor="middle" x="342" y="-7" font-family="Helvetica,sans-Serif" font-size="10.00">NewElementButton</text>
</a>
</g>
</g>
<!-- Node1&#45;&gt;Node3 -->
<g id="edge2" class="edge"><title>Node1&#45;&gt;Node3</title>
<path fill="none" stroke="midnightblue" d="M199.819,-29.4801C212.304,-28.1996 225.173,-26.8797 237.823,-25.5822"/>
<polygon fill="midnightblue" stroke="midnightblue" points="238.32,-29.0498 247.91,-24.5477 237.605,-22.0863 238.32,-29.0498"/>
</g>
<!-- Node4 -->
<g id="node4" class="node"><title>Node4</title>
<g id="a_node4"><a xlink:href="../../dd/d94/classeditor_1_1_element_drop_down_control.html#a3e05aadbe1f394f751682e817e8d6f7c" target="_top" xlink:title="editor.ElementDropDownControl.add\lElement">
<polygon fill="white" stroke="black" points="472.5,-0 472.5,-30 663.5,-30 663.5,-0 472.5,-0"/>
<text text-anchor="start" x="480.5" y="-18" font-family="Helvetica,sans-Serif" font-size="10.00">editor.ElementDropDownControl.add</text>
<text text-anchor="middle" x="568" y="-7" font-family="Helvetica,sans-Serif" font-size="10.00">Element</text>
</a>
</g>
</g>
<!-- Node3&#45;&gt;Node4 -->
<g id="edge3" class="edge"><title>Node3&#45;&gt;Node4</title>
<path fill="none" stroke="midnightblue" d="M436.05,-15C444.69,-15 453.484,-15 462.22,-15"/>
<polygon fill="midnightblue" stroke="midnightblue" points="462.435,-18.5001 472.435,-15 462.435,-11.5001 462.435,-18.5001"/>
</g>
</g>
</svg>
