<?xml version="1.0" encoding="UTF-8" standalone="no"?>
<!DOCTYPE svg PUBLIC "-//W3C//DTD SVG 1.1//EN"
 "http://www.w3.org/Graphics/SVG/1.1/DTD/svg11.dtd">
<!-- Generated by graphviz version 2.36.0 (20140111.2315)
 -->
<!-- Title: engine.computers.Computer.checkComputingCondition Pages: 1 -->
<svg width="386pt" height="60pt"
 viewBox="0.00 0.00 386.00 60.00" xmlns="http://www.w3.org/2000/svg" xmlns:xlink="http://www.w3.org/1999/xlink">
<g id="graph0" class="graph" transform="scale(1 1) rotate(0) translate(4 56)">
<title>engine.computers.Computer.checkComputingCondition</title>
<polygon fill="white" stroke="none" points="-4,4 -4,-56 382,-56 382,4 -4,4"/>
<!-- Node1 -->
<g id="node1" class="node"><title>Node1</title>
<polygon fill="#bfbfbf" stroke="black" points="0.5,-11 0.5,-41 185.5,-41 185.5,-11 0.5,-11"/>
<text text-anchor="start" x="8.5" y="-29" font-family="Helvetica,sans-Serif" font-size="10.00">engine.computers.Computer.check</text>
<text text-anchor="middle" x="93" y="-18" font-family="Helvetica,sans-Serif" font-size="10.00">ComputingCondition</text>
</g>
<!-- Node2 -->
<g id="node2" class="node"><title>Node2</title>
<g id="a_node2"><a xlink:href="../../d7/d4d/classengine_1_1computers_1_1_computer.html#a7960d4ea62e9c726dc130ca64efae1f0" target="_top" xlink:title="engine.computers.Computer\l\&lt; DrawableGameElement,\l DrawableGameElement \&gt;::\lcompute">
<polygon fill="white" stroke="black" points="222.5,-0 222.5,-52 377.5,-52 377.5,-0 222.5,-0"/>
<text text-anchor="start" x="230.5" y="-40" font-family="Helvetica,sans-Serif" font-size="10.00">engine.computers.Computer</text>
<text text-anchor="start" x="230.5" y="-29" font-family="Helvetica,sans-Serif" font-size="10.00">&lt; DrawableGameElement,</text>
<text text-anchor="start" x="230.5" y="-18" font-family="Helvetica,sans-Serif" font-size="10.00"> DrawableGameElement &gt;::</text>
<text text-anchor="middle" x="300" y="-7" font-family="Helvetica,sans-Serif" font-size="10.00">compute</text>
</a>
</g>
</g>
<!-- Node1&#45;&gt;Node2 -->
<g id="edge1" class="edge"><title>Node1&#45;&gt;Node2</title>
<path fill="none" stroke="midnightblue" d="M195.796,-26C204.748,-26 213.706,-26 222.399,-26"/>
<polygon fill="midnightblue" stroke="midnightblue" points="195.707,-22.5001 185.707,-26 195.707,-29.5001 195.707,-22.5001"/>
</g>
</g>
</svg>
