<?xml version="1.0" encoding="UTF-8" standalone="no"?>
<!DOCTYPE svg PUBLIC "-//W3C//DTD SVG 1.1//EN"
 "http://www.w3.org/Graphics/SVG/1.1/DTD/svg11.dtd">
<!-- Generated by graphviz version 2.36.0 (20140111.2315)
 -->
<!-- Title: game_engine.visuals.TerrainGrid.renderTerrain Pages: 1 -->
<svg width="968pt" height="146pt"
 viewBox="0.00 0.00 968.00 146.00" xmlns="http://www.w3.org/2000/svg" xmlns:xlink="http://www.w3.org/1999/xlink">
<g id="graph0" class="graph" transform="scale(1 1) rotate(0) translate(4 142)">
<title>game_engine.visuals.TerrainGrid.renderTerrain</title>
<polygon fill="white" stroke="none" points="-4,4 -4,-142 964,-142 964,4 -4,4"/>
<!-- Node1 -->
<g id="node1" class="node"><title>Node1</title>
<polygon fill="#bfbfbf" stroke="black" points="0,-54 0,-84 152,-84 152,-54 0,-54"/>
<text text-anchor="start" x="8" y="-72" font-family="Helvetica,sans-Serif" font-size="10.00">game_engine.visuals.Terrain</text>
<text text-anchor="middle" x="76" y="-61" font-family="Helvetica,sans-Serif" font-size="10.00">Grid.renderTerrain</text>
</g>
<!-- Node2 -->
<g id="node2" class="node"><title>Node2</title>
<g id="a_node2"><a xlink:href="../../db/d72/classgame__engine_1_1game_representation_1_1state_representation_1_1game_element_1_1_drawable_game_element_state.html#aee8bfec62e290495514e4a54b9072757" target="_top" xlink:title="game_engine.gameRepresentation.state\lRepresentation.gameElement.DrawableGame\lElementState.setSpritesheet">
<polygon fill="white" stroke="black" points="188,-48.5 188,-89.5 424,-89.5 424,-48.5 188,-48.5"/>
<text text-anchor="start" x="196" y="-77.5" font-family="Helvetica,sans-Serif" font-size="10.00">game_engine.gameRepresentation.state</text>
<text text-anchor="start" x="196" y="-66.5" font-family="Helvetica,sans-Serif" font-size="10.00">Representation.gameElement.DrawableGame</text>
<text text-anchor="middle" x="306" y="-55.5" font-family="Helvetica,sans-Serif" font-size="10.00">ElementState.setSpritesheet</text>
</a>
</g>
</g>
<!-- Node1&#45;&gt;Node2 -->
<g id="edge1" class="edge"><title>Node1&#45;&gt;Node2</title>
<path fill="none" stroke="midnightblue" d="M152.288,-69C160.492,-69 168.999,-69 177.61,-69"/>
<polygon fill="midnightblue" stroke="midnightblue" points="177.755,-72.5001 187.754,-69 177.754,-65.5001 177.755,-72.5001"/>
</g>
<!-- Node3 -->
<g id="node3" class="node"><title>Node3</title>
<g id="a_node3"><a xlink:href="../../de/d86/classgame__engine_1_1visuals_1_1_dimension.html#a4d803b0b96a4432a77516cf17c413617" target="_top" xlink:title="game_engine.visuals.Dimension.get\lHeight">
<polygon fill="white" stroke="black" points="481,-108 481,-138 671,-138 671,-108 481,-108"/>
<text text-anchor="start" x="489" y="-126" font-family="Helvetica,sans-Serif" font-size="10.00">game_engine.visuals.Dimension.get</text>
<text text-anchor="middle" x="576" y="-115" font-family="Helvetica,sans-Serif" font-size="10.00">Height</text>
</a>
</g>
</g>
<!-- Node2&#45;&gt;Node3 -->
<g id="edge2" class="edge"><title>Node2&#45;&gt;Node3</title>
<path fill="none" stroke="midnightblue" d="M409.084,-89.5691C435.854,-94.9632 464.43,-100.721 490.189,-105.911"/>
<polygon fill="midnightblue" stroke="midnightblue" points="489.793,-109.402 500.287,-107.946 491.176,-102.54 489.793,-109.402"/>
</g>
<!-- Node4 -->
<g id="node4" class="node"><title>Node4</title>
<g id="a_node4"><a xlink:href="../../dc/d2d/classgame__engine_1_1game_representation_1_1state_representation_1_1game_element_1_1_game_element_state.html#aa40f5f12d9fa1ea430b6da56c002338d" target="_top" xlink:title="game_engine.gameRepresentation.state\lRepresentation.gameElement.GameElement\lState.getNumericalAttribute">
<polygon fill="white" stroke="black" points="460.5,-48.5 460.5,-89.5 691.5,-89.5 691.5,-48.5 460.5,-48.5"/>
<text text-anchor="start" x="468.5" y="-77.5" font-family="Helvetica,sans-Serif" font-size="10.00">game_engine.gameRepresentation.state</text>
<text text-anchor="start" x="468.5" y="-66.5" font-family="Helvetica,sans-Serif" font-size="10.00">Representation.gameElement.GameElement</text>
<text text-anchor="middle" x="576" y="-55.5" font-family="Helvetica,sans-Serif" font-size="10.00">State.getNumericalAttribute</text>
</a>
</g>
</g>
<!-- Node2&#45;&gt;Node4 -->
<g id="edge3" class="edge"><title>Node2&#45;&gt;Node4</title>
<path fill="none" stroke="midnightblue" d="M424.159,-69C432.764,-69 441.463,-69 450.111,-69"/>
<polygon fill="midnightblue" stroke="midnightblue" points="450.232,-72.5001 460.232,-69 450.232,-65.5001 450.232,-72.5001"/>
</g>
<!-- Node6 -->
<g id="node6" class="node"><title>Node6</title>
<g id="a_node6"><a xlink:href="../../de/d86/classgame__engine_1_1visuals_1_1_dimension.html#a30a627da15298901fc10675636958c8e" target="_top" xlink:title="game_engine.visuals.Dimension.get\lWidth">
<polygon fill="white" stroke="black" points="481,-0 481,-30 671,-30 671,-0 481,-0"/>
<text text-anchor="start" x="489" y="-18" font-family="Helvetica,sans-Serif" font-size="10.00">game_engine.visuals.Dimension.get</text>
<text text-anchor="middle" x="576" y="-7" font-family="Helvetica,sans-Serif" font-size="10.00">Width</text>
</a>
</g>
</g>
<!-- Node2&#45;&gt;Node6 -->
<g id="edge5" class="edge"><title>Node2&#45;&gt;Node6</title>
<path fill="none" stroke="midnightblue" d="M409.084,-48.4309C435.854,-43.0368 464.43,-37.2791 490.189,-32.0888"/>
<polygon fill="midnightblue" stroke="midnightblue" points="491.176,-35.4604 500.287,-30.0541 489.793,-28.5983 491.176,-35.4604"/>
</g>
<!-- Node5 -->
<g id="node5" class="node"><title>Node5</title>
<g id="a_node5"><a xlink:href="../../dc/d2d/classgame__engine_1_1game_representation_1_1state_representation_1_1game_element_1_1_game_element_state.html#a92d017656dffc9e74dabe8f016ffacd8" target="_top" xlink:title="game_engine.gameRepresentation.state\lRepresentation.gameElement.GameElement\lState.getAttribute">
<polygon fill="white" stroke="black" points="728.5,-48.5 728.5,-89.5 959.5,-89.5 959.5,-48.5 728.5,-48.5"/>
<text text-anchor="start" x="736.5" y="-77.5" font-family="Helvetica,sans-Serif" font-size="10.00">game_engine.gameRepresentation.state</text>
<text text-anchor="start" x="736.5" y="-66.5" font-family="Helvetica,sans-Serif" font-size="10.00">Representation.gameElement.GameElement</text>
<text text-anchor="middle" x="844" y="-55.5" font-family="Helvetica,sans-Serif" font-size="10.00">State.getAttribute</text>
</a>
</g>
</g>
<!-- Node4&#45;&gt;Node5 -->
<g id="edge4" class="edge"><title>Node4&#45;&gt;Node5</title>
<path fill="none" stroke="midnightblue" d="M691.738,-69C700.429,-69 709.227,-69 717.978,-69"/>
<polygon fill="midnightblue" stroke="midnightblue" points="718.221,-72.5001 728.221,-69 718.221,-65.5001 718.221,-72.5001"/>
</g>
</g>
</svg>
