<?xml version="1.0" encoding="UTF-8" standalone="no"?>
<!DOCTYPE svg PUBLIC "-//W3C//DTD SVG 1.1//EN"
 "http://www.w3.org/Graphics/SVG/1.1/DTD/svg11.dtd">
<!-- Generated by graphviz version 2.36.0 (20140111.2315)
 -->
<!-- Title: game_engine.visuals.TerrainGrid.renderTerrain Pages: 1 -->
<svg width="432pt" height="48pt"
 viewBox="0.00 0.00 432.00 48.00" xmlns="http://www.w3.org/2000/svg" xmlns:xlink="http://www.w3.org/1999/xlink">
<g id="graph0" class="graph" transform="scale(1 1) rotate(0) translate(4 44)">
<title>game_engine.visuals.TerrainGrid.renderTerrain</title>
<polygon fill="white" stroke="none" points="-4,4 -4,-44 428,-44 428,4 -4,4"/>
<!-- Node1 -->
<g id="node1" class="node"><title>Node1</title>
<polygon fill="#bfbfbf" stroke="black" points="0,-5 0,-35 152,-35 152,-5 0,-5"/>
<text text-anchor="start" x="8" y="-23" font-family="Helvetica,sans-Serif" font-size="10.00">game_engine.visuals.Terrain</text>
<text text-anchor="middle" x="76" y="-12" font-family="Helvetica,sans-Serif" font-size="10.00">Grid.renderTerrain</text>
</g>
<!-- Node2 -->
<g id="node2" class="node"><title>Node2</title>
<g id="a_node2"><a xlink:href="../../db/d72/classgame__engine_1_1game_representation_1_1state_representation_1_1game_element_1_1_drawable_game_element_state.html#aee8bfec62e290495514e4a54b9072757" target="_top" xlink:title="game_engine.gameRepresentation.state\lRepresentation.gameElement.DrawableGame\lElementState.setSpritesheet">
<polygon fill="white" stroke="black" points="188,0.5 188,-40.5 424,-40.5 424,0.5 188,0.5"/>
<text text-anchor="start" x="196" y="-28.5" font-family="Helvetica,sans-Serif" font-size="10.00">game_engine.gameRepresentation.state</text>
<text text-anchor="start" x="196" y="-17.5" font-family="Helvetica,sans-Serif" font-size="10.00">Representation.gameElement.DrawableGame</text>
<text text-anchor="middle" x="306" y="-6.5" font-family="Helvetica,sans-Serif" font-size="10.00">ElementState.setSpritesheet</text>
</a>
</g>
</g>
<!-- Node1&#45;&gt;Node2 -->
<g id="edge1" class="edge"><title>Node1&#45;&gt;Node2</title>
<path fill="none" stroke="midnightblue" d="M152.288,-20C160.492,-20 168.999,-20 177.61,-20"/>
<polygon fill="midnightblue" stroke="midnightblue" points="177.755,-23.5001 187.754,-20 177.754,-16.5001 177.755,-23.5001"/>
</g>
</g>
</svg>
