<?xml version="1.0" encoding="UTF-8" standalone="no"?>
<!DOCTYPE svg PUBLIC "-//W3C//DTD SVG 1.1//EN"
 "http://www.w3.org/Graphics/SVG/1.1/DTD/svg11.dtd">
<!-- Generated by graphviz version 2.36.0 (20140111.2315)
 -->
<!-- Title: engine.Engine.play Pages: 1 -->
<!--zoomable 177 -->
<svg id="main" version="1.1" xmlns="http://www.w3.org/2000/svg" xmlns:xlink="http://www.w3.org/1999/xlink" xml:space="preserve" onload="init(evt)">
<style type="text/css"><![CDATA[
.edge:hover path { stroke: red; }
.edge:hover polygon { stroke: red; fill: red; }
]]></style>
<script type="text/javascript"><![CDATA[
var edges = document.getElementsByTagName('g');
if (edges && edges.length) {
  for (var i=0;i<edges.length;i++) {
    if (edges[i].id.substr(0,4)=='edge') {
      edges[i].setAttribute('class','edge');
    }
  }
}
]]></script>
        <defs>
                <circle id="rim" cx="0" cy="0" r="7"/>
                <circle id="rim2" cx="0" cy="0" r="3.5"/>
                <g id="zoomPlus">
                        <use xlink:href="#rim" fill="#404040">
                                <set attributeName="fill" to="#808080" begin="zoomplus.mouseover" end="zoomplus.mouseout"/>
                        </use>
                        <path d="M-4,0h8M0,-4v8" fill="none" stroke="white" stroke-width="1.5" pointer-events="none"/>
                </g>
                <g id="zoomMin">
                        <use xlink:href="#rim" fill="#404040">
                                <set attributeName="fill" to="#808080" begin="zoomminus.mouseover" end="zoomminus.mouseout"/>
                        </use>
                        <path d="M-4,0h8" fill="none" stroke="white" stroke-width="1.5" pointer-events="none"/>
                </g>
                <g id="dirArrow">
                        <path fill="none" stroke="white" stroke-width="1.5" d="M0,-3.0v7 M-2.5,-0.5L0,-3.0L2.5,-0.5"/>
                </g>
               <g id="resetDef">
                       <use xlink:href="#rim2" fill="#404040">
                               <set attributeName="fill" to="#808080" begin="reset.mouseover" end="reset.mouseout"/>
                       </use>
               </g>
        </defs>

<script type="text/javascript">
var viewWidth = 1516;
var viewHeight = 177;
var sectionId = 'dynsection-9';
</script>
<script xlink:href="../../svgpan.js"/>
<svg id="graph" class="graph">
<g id="viewport">
<title>engine.Engine.play</title>
<polygon fill="white" stroke="none" points="-4,4 -4,-173 1512,-173 1512,4 -4,4"/>
<!-- Node1 -->
<g id="node1" class="node"><title>Node1</title>
<polygon fill="#bfbfbf" stroke="black" points="0.5,-38.5 0.5,-57.5 107.5,-57.5 107.5,-38.5 0.5,-38.5"/>
<text text-anchor="middle" x="54" y="-45.5" font-family="Helvetica,sans-Serif" font-size="10.00">engine.Engine.play</text>
</g>
<!-- Node2 -->
<g id="node2" class="node"><title>Node2</title>
<g id="a_node2"><a xlink:href="../../d8/dd1/classview_1_1runner_1_1_game_runner_pane_controller.html#a33080887fd34cc2aceb57b2b4c424ad9" target="_top" xlink:title="view.runner.GameRunnerPane\lController.setLevel">
<polygon fill="white" stroke="black" points="144,-77 144,-107 302,-107 302,-77 144,-77"/>
<text text-anchor="start" x="152" y="-95" font-family="Helvetica,sans-Serif" font-size="10.00">view.runner.GameRunnerPane</text>
<text text-anchor="middle" x="223" y="-84" font-family="Helvetica,sans-Serif" font-size="10.00">Controller.setLevel</text>
</a>
</g>
</g>
<!-- Node1&#45;&gt;Node2 -->
<g id="edge1" class="edge"><title>Node1&#45;&gt;Node2</title>
<path fill="none" stroke="midnightblue" d="M100.915,-60.0974C120.666,-65.3013 143.963,-71.4395 164.82,-76.9346"/>
<polygon fill="midnightblue" stroke="midnightblue" points="101.798,-56.7107 91.2365,-57.5473 100.015,-63.4797 101.798,-56.7107"/>
</g>
<!-- Node12 -->
<g id="node12" class="node"><title>Node12</title>
<g id="a_node12"><a xlink:href="../../d6/d00/classapplication_1_1_pong.html#aacfcba740564585303fb8097744d21a5" target="_top" xlink:title="application.Pong.start">
<polygon fill="white" stroke="black" points="162.5,-38.5 162.5,-57.5 283.5,-57.5 283.5,-38.5 162.5,-38.5"/>
<text text-anchor="middle" x="223" y="-45.5" font-family="Helvetica,sans-Serif" font-size="10.00">application.Pong.start</text>
</a>
</g>
</g>
<!-- Node1&#45;&gt;Node12 -->
<g id="edge11" class="edge"><title>Node1&#45;&gt;Node12</title>
<path fill="none" stroke="midnightblue" d="M118.181,-48C132.629,-48 147.941,-48 162.24,-48"/>
<polygon fill="midnightblue" stroke="midnightblue" points="117.84,-44.5001 107.84,-48 117.84,-51.5001 117.84,-44.5001"/>
</g>
<!-- Node13 -->
<g id="node13" class="node"><title>Node13</title>
<g id="a_node13"><a xlink:href="../../d0/daf/classapplication_1_1_r_p_g.html#a6b8f1624ae2607c67f4e8cda49b544e9" target="_top" xlink:title="application.RPG.start">
<polygon fill="white" stroke="black" points="165,-0.5 165,-19.5 281,-19.5 281,-0.5 165,-0.5"/>
<text text-anchor="middle" x="223" y="-7.5" font-family="Helvetica,sans-Serif" font-size="10.00">application.RPG.start</text>
</a>
</g>
</g>
<!-- Node1&#45;&gt;Node13 -->
<g id="edge12" class="edge"><title>Node1&#45;&gt;Node13</title>
<path fill="none" stroke="midnightblue" d="M106.965,-36.1757C130.509,-30.8184 157.974,-24.5689 180.162,-19.5201"/>
<polygon fill="midnightblue" stroke="midnightblue" points="106.115,-32.7794 97.1412,-38.411 107.668,-39.6049 106.115,-32.7794"/>
</g>
<!-- Node3 -->
<g id="node3" class="node"><title>Node3</title>
<g id="a_node3"><a xlink:href="../../d4/d65/classview_1_1editor_1_1_tab_view_controller.html#a937f892f003cf82b7ba2f114b6dfff8a" target="_top" xlink:title="view.editor.TabViewController.start\lLevel">
<polygon fill="white" stroke="black" points="338,-101 338,-131 516,-131 516,-101 338,-101"/>
<text text-anchor="start" x="346" y="-119" font-family="Helvetica,sans-Serif" font-size="10.00">view.editor.TabViewController.start</text>
<text text-anchor="middle" x="427" y="-108" font-family="Helvetica,sans-Serif" font-size="10.00">Level</text>
</a>
</g>
</g>
<!-- Node2&#45;&gt;Node3 -->
<g id="edge2" class="edge"><title>Node2&#45;&gt;Node3</title>
<path fill="none" stroke="midnightblue" d="M312.299,-102.491C320.724,-103.492 329.268,-104.507 337.693,-105.508"/>
<polygon fill="midnightblue" stroke="midnightblue" points="312.442,-98.9834 302.098,-101.279 311.616,-105.934 312.442,-98.9834"/>
</g>
<!-- Node10 -->
<g id="node10" class="node"><title>Node10</title>
<g id="a_node10"><a xlink:href="../../d6/d9c/classview_1_1runner_1_1_runner_screen.html#a8c51b0b9ed278502aca7eb7703986123" target="_top" xlink:title="view.runner.RunnerScreen.play\lLevel">
<polygon fill="white" stroke="black" points="346,-52 346,-82 508,-82 508,-52 346,-52"/>
<text text-anchor="start" x="354" y="-70" font-family="Helvetica,sans-Serif" font-size="10.00">view.runner.RunnerScreen.play</text>
<text text-anchor="middle" x="427" y="-59" font-family="Helvetica,sans-Serif" font-size="10.00">Level</text>
</a>
</g>
</g>
<!-- Node2&#45;&gt;Node10 -->
<g id="edge9" class="edge"><title>Node2&#45;&gt;Node10</title>
<path fill="none" stroke="midnightblue" d="M312.259,-81.0768C323.405,-79.6974 334.761,-78.2919 345.773,-76.9291"/>
<polygon fill="midnightblue" stroke="midnightblue" points="311.593,-77.6325 302.098,-82.3343 312.453,-84.5795 311.593,-77.6325"/>
</g>
<!-- Node4 -->
<g id="node4" class="node"><title>Node4</title>
<g id="a_node4"><a xlink:href="../../d4/d65/classview_1_1editor_1_1_tab_view_controller.html#a3e431a0733f1d2409d3f0a863e0279e8" target="_top" xlink:title="view.editor.TabViewController.set\lLevel">
<polygon fill="white" stroke="black" points="552,-139 552,-169 722,-169 722,-139 552,-139"/>
<text text-anchor="start" x="560" y="-157" font-family="Helvetica,sans-Serif" font-size="10.00">view.editor.TabViewController.set</text>
<text text-anchor="middle" x="637" y="-146" font-family="Helvetica,sans-Serif" font-size="10.00">Level</text>
</a>
</g>
</g>
<!-- Node3&#45;&gt;Node4 -->
<g id="edge3" class="edge"><title>Node3&#45;&gt;Node4</title>
<path fill="none" stroke="midnightblue" d="M520.347,-132.871C531.46,-134.901 542.753,-136.964 553.709,-138.966"/>
<polygon fill="midnightblue" stroke="midnightblue" points="520.673,-129.373 510.207,-131.019 519.415,-136.259 520.673,-129.373"/>
</g>
<!-- Node9 -->
<g id="node9" class="node"><title>Node9</title>
<g id="a_node9"><a xlink:href="../../d4/d65/classview_1_1editor_1_1_tab_view_controller.html#a82e1e1f1eb84d1c30bde3a246304473e" target="_top" xlink:title="view.editor.TabViewController.init">
<polygon fill="white" stroke="black" points="552,-100.5 552,-119.5 722,-119.5 722,-100.5 552,-100.5"/>
<text text-anchor="middle" x="637" y="-107.5" font-family="Helvetica,sans-Serif" font-size="10.00">view.editor.TabViewController.init</text>
</a>
</g>
</g>
<!-- Node3&#45;&gt;Node9 -->
<g id="edge8" class="edge"><title>Node3&#45;&gt;Node9</title>
<path fill="none" stroke="midnightblue" d="M526.259,-113.166C534.852,-112.918 543.497,-112.668 551.958,-112.424"/>
<polygon fill="midnightblue" stroke="midnightblue" points="526.106,-109.668 516.211,-113.455 526.308,-116.666 526.106,-109.668"/>
</g>
<!-- Node5 -->
<g id="node5" class="node"><title>Node5</title>
<g id="a_node5"><a xlink:href="../../d0/db5/classview_1_1editor_1_1_editor_screen.html#ac0c89f6996b8d53ff24c1093072716f8" target="_top" xlink:title="view.editor.EditorScreen.create\lNewTab">
<polygon fill="white" stroke="black" points="758,-139 758,-169 922,-169 922,-139 758,-139"/>
<text text-anchor="start" x="766" y="-157" font-family="Helvetica,sans-Serif" font-size="10.00">view.editor.EditorScreen.create</text>
<text text-anchor="middle" x="840" y="-146" font-family="Helvetica,sans-Serif" font-size="10.00">NewTab</text>
</a>
</g>
</g>
<!-- Node4&#45;&gt;Node5 -->
<g id="edge4" class="edge"><title>Node4&#45;&gt;Node5</title>
<path fill="none" stroke="midnightblue" d="M732.121,-154C740.714,-154 749.369,-154 757.834,-154"/>
<polygon fill="midnightblue" stroke="midnightblue" points="732.078,-150.5 722.077,-154 732.077,-157.5 732.078,-150.5"/>
</g>
<!-- Node6 -->
<g id="node6" class="node"><title>Node6</title>
<g id="a_node6"><a xlink:href="../../d0/db5/classview_1_1editor_1_1_editor_screen.html#ad3d33bc95534e6b677a83a2f01be9286" target="_top" xlink:title="view.editor.EditorScreen.launchTab">
<polygon fill="white" stroke="black" points="958.5,-144.5 958.5,-163.5 1139.5,-163.5 1139.5,-144.5 958.5,-144.5"/>
<text text-anchor="middle" x="1049" y="-151.5" font-family="Helvetica,sans-Serif" font-size="10.00">view.editor.EditorScreen.launchTab</text>
</a>
</g>
</g>
<!-- Node5&#45;&gt;Node6 -->
<g id="edge5" class="edge"><title>Node5&#45;&gt;Node6</title>
<path fill="none" stroke="midnightblue" d="M932.335,-154C941.012,-154 949.804,-154 958.464,-154"/>
<polygon fill="midnightblue" stroke="midnightblue" points="932.218,-150.5 922.218,-154 932.218,-157.5 932.218,-150.5"/>
</g>
<!-- Node7 -->
<g id="node7" class="node"><title>Node7</title>
<g id="a_node7"><a xlink:href="../../d0/db5/classview_1_1editor_1_1_editor_screen.html#aaad5f29799d14174213c2f06f6156890" target="_top" xlink:title="view.editor.EditorScreen.init\lProjectExplorer">
<polygon fill="white" stroke="black" points="1176,-139 1176,-169 1324,-169 1324,-139 1176,-139"/>
<text text-anchor="start" x="1184" y="-157" font-family="Helvetica,sans-Serif" font-size="10.00">view.editor.EditorScreen.init</text>
<text text-anchor="middle" x="1250" y="-146" font-family="Helvetica,sans-Serif" font-size="10.00">ProjectExplorer</text>
</a>
</g>
</g>
<!-- Node6&#45;&gt;Node7 -->
<g id="edge6" class="edge"><title>Node6&#45;&gt;Node7</title>
<path fill="none" stroke="midnightblue" d="M1149.62,-154C1158.5,-154 1167.39,-154 1175.98,-154"/>
<polygon fill="midnightblue" stroke="midnightblue" points="1149.6,-150.5 1139.6,-154 1149.6,-157.5 1149.6,-150.5"/>
</g>
<!-- Node8 -->
<g id="node8" class="node"><title>Node8</title>
<g id="a_node8"><a xlink:href="../../d0/db5/classview_1_1editor_1_1_editor_screen.html#aba6c32908c25fa4f755a312e92860c02" target="_top" xlink:title="view.editor.EditorScreen.init">
<polygon fill="white" stroke="black" points="1360,-144.5 1360,-163.5 1508,-163.5 1508,-144.5 1360,-144.5"/>
<text text-anchor="middle" x="1434" y="-151.5" font-family="Helvetica,sans-Serif" font-size="10.00">view.editor.EditorScreen.init</text>
</a>
</g>
</g>
<!-- Node7&#45;&gt;Node8 -->
<g id="edge7" class="edge"><title>Node7&#45;&gt;Node8</title>
<path fill="none" stroke="midnightblue" d="M1334.52,-154C1342.99,-154 1351.56,-154 1359.91,-154"/>
<polygon fill="midnightblue" stroke="midnightblue" points="1334.24,-150.5 1324.24,-154 1334.24,-157.5 1334.24,-150.5"/>
</g>
<!-- Node11 -->
<g id="node11" class="node"><title>Node11</title>
<g id="a_node11"><a xlink:href="../../d6/d9c/classview_1_1runner_1_1_runner_screen.html#af16493da3cec6d50fb47e41e96fac8ed" target="_top" xlink:title="view.runner.RunnerScreen.init">
<polygon fill="white" stroke="black" points="558.5,-57.5 558.5,-76.5 715.5,-76.5 715.5,-57.5 558.5,-57.5"/>
<text text-anchor="middle" x="637" y="-64.5" font-family="Helvetica,sans-Serif" font-size="10.00">view.runner.RunnerScreen.init</text>
</a>
</g>
</g>
<!-- Node10&#45;&gt;Node11 -->
<g id="edge10" class="edge"><title>Node10&#45;&gt;Node11</title>
<path fill="none" stroke="midnightblue" d="M518.253,-67C531.6,-67 545.255,-67 558.317,-67"/>
<polygon fill="midnightblue" stroke="midnightblue" points="518.121,-63.5001 508.121,-67 518.121,-70.5001 518.121,-63.5001"/>
</g>
</g>
</svg>
        <g id="navigator" transform="translate(0 0)" fill="#404254">
                <rect fill="#f2f5e9" fill-opacity="0.5" stroke="#606060" stroke-width=".5" x="0" y="0" width="60" height="60"/>
                <use id="zoomplus" xlink:href="#zoomPlus" x="17" y="9" onmousedown="handleZoom(evt,'in')"/>
                <use id="zoomminus" xlink:href="#zoomMin" x="42" y="9" onmousedown="handleZoom(evt,'out')"/>
                <use id="reset" xlink:href="#resetDef" x="30" y="36" onmousedown="handleReset()"/>
                <g id="arrowUp" xlink:href="#dirArrow" transform="translate(30 24)" onmousedown="handlePan(0,-1)">
                  <use xlink:href="#rim" fill="#404040">
                        <set attributeName="fill" to="#808080" begin="arrowUp.mouseover" end="arrowUp.mouseout"/>
                  </use>
                  <path fill="none" stroke="white" stroke-width="1.5" d="M0,-3.0v7 M-2.5,-0.5L0,-3.0L2.5,-0.5"/>
                </g>
                <g id="arrowRight" xlink:href="#dirArrow" transform="rotate(90) translate(36 -43)" onmousedown="handlePan(1,0)">
                  <use xlink:href="#rim" fill="#404040">
                        <set attributeName="fill" to="#808080" begin="arrowRight.mouseover" end="arrowRight.mouseout"/>
                  </use>
                  <path fill="none" stroke="white" stroke-width="1.5" d="M0,-3.0v7 M-2.5,-0.5L0,-3.0L2.5,-0.5"/>
                </g>
                <g id="arrowDown" xlink:href="#dirArrow" transform="rotate(180) translate(-30 -48)" onmousedown="handlePan(0,1)">
                  <use xlink:href="#rim" fill="#404040">
                        <set attributeName="fill" to="#808080" begin="arrowDown.mouseover" end="arrowDown.mouseout"/>
                  </use>
                  <path fill="none" stroke="white" stroke-width="1.5" d="M0,-3.0v7 M-2.5,-0.5L0,-3.0L2.5,-0.5"/>
                </g>
                <g id="arrowLeft" xlink:href="#dirArrow" transform="rotate(270) translate(-36 17)" onmousedown="handlePan(-1,0)">
                  <use xlink:href="#rim" fill="#404040">
                        <set attributeName="fill" to="#808080" begin="arrowLeft.mouseover" end="arrowLeft.mouseout"/>
                  </use>
                  <path fill="none" stroke="white" stroke-width="1.5" d="M0,-3.0v7 M-2.5,-0.5L0,-3.0L2.5,-0.5"/>
                </g>
        </g>
        <svg viewBox="0 0 15 15" width="100%" height="30px" preserveAspectRatio="xMaxYMin meet">
         <g id="arrow_out" transform="scale(0.3 0.3)">
          <a xlink:href="classengine_1_1_engine_a6f77d24003db212911a1e73420361bc9_icgraph_org.svg" target="_base">
           <rect id="button" ry="5" rx="5" y="6" x="6" height="38" width="38"
                fill="#f2f5e9" fill-opacity="0.5" stroke="#606060" stroke-width="1.0"/>
           <path id="arrow"
             d="M 11.500037,31.436501 C 11.940474,20.09759 22.043105,11.32322 32.158766,21.979434 L 37.068811,17.246167 C 37.068811,17.246167 37.088388,32 37.088388,32 L 22.160133,31.978069 C 22.160133,31.978069 26.997745,27.140456 26.997745,27.140456 C 18.528582,18.264221 13.291696,25.230495 11.500037,31.436501 z"
             style="fill:#404040;"/>
          </a>
         </g>
        </svg>
</svg>
