<?xml version="1.0" encoding="UTF-8" standalone="no"?>
<!DOCTYPE svg PUBLIC "-//W3C//DTD SVG 1.1//EN"
 "http://www.w3.org/Graphics/SVG/1.1/DTD/svg11.dtd">
<!-- Generated by graphviz version 2.36.0 (20140111.2315)
 -->
<!-- Title: engine.Engine.update Pages: 1 -->
<svg width="522pt" height="93pt"
 viewBox="0.00 0.00 522.00 92.64" xmlns="http://www.w3.org/2000/svg" xmlns:xlink="http://www.w3.org/1999/xlink">
<g id="graph0" class="graph" transform="scale(1 1) rotate(0) translate(4 88.6407)">
<title>engine.Engine.update</title>
<polygon fill="white" stroke="none" points="-4,4 -4,-88.6407 518,-88.6407 518,4 -4,4"/>
<!-- Node1 -->
<g id="node1" class="node"><title>Node1</title>
<polygon fill="#bfbfbf" stroke="black" points="0.5,-44.5 0.5,-63.5 121.5,-63.5 121.5,-44.5 0.5,-44.5"/>
<text text-anchor="middle" x="61" y="-51.5" font-family="Helvetica,sans-Serif" font-size="10.00">engine.Engine.update</text>
</g>
<!-- Node2 -->
<g id="node2" class="node"><title>Node2</title>
<g id="a_node2"><a xlink:href="../../d5/d29/classengine_1_1users_1_1_participant.html#a4b89f6e9603c4bcfc4c7b341fff8ab9e" target="_top" xlink:title="engine.users.Participant.get\lAttributes">
<polygon fill="white" stroke="black" points="364,-39 364,-69 514,-69 514,-39 364,-39"/>
<text text-anchor="start" x="372" y="-57" font-family="Helvetica,sans-Serif" font-size="10.00">engine.users.Participant.get</text>
<text text-anchor="middle" x="439" y="-46" font-family="Helvetica,sans-Serif" font-size="10.00">Attributes</text>
</a>
</g>
</g>
<!-- Node1&#45;&gt;Node2 -->
<g id="edge1" class="edge"><title>Node1&#45;&gt;Node2</title>
<path fill="none" stroke="midnightblue" d="M92.3364,-63.6114C111.049,-69.0301 135.663,-75.2502 158,-78 232.989,-87.2316 252.88,-86.0997 328,-78 341.762,-76.5162 356.326,-74.0169 370.197,-71.1775"/>
<polygon fill="midnightblue" stroke="midnightblue" points="371.101,-74.5638 380.153,-69.0595 369.644,-67.717 371.101,-74.5638"/>
</g>
<!-- Node3 -->
<g id="node3" class="node"><title>Node3</title>
<g id="a_node3"><a xlink:href="../../d2/d87/classengine_1_1state_managing_1_1_game_loop.html#a12036cd3e0006802cefce29f467bdd9f" target="_top" xlink:title="engine.stateManaging.Game\lLoop.stop">
<polygon fill="white" stroke="black" points="165.5,-39 165.5,-69 320.5,-69 320.5,-39 165.5,-39"/>
<text text-anchor="start" x="173.5" y="-57" font-family="Helvetica,sans-Serif" font-size="10.00">engine.stateManaging.Game</text>
<text text-anchor="middle" x="243" y="-46" font-family="Helvetica,sans-Serif" font-size="10.00">Loop.stop</text>
</a>
</g>
</g>
<!-- Node1&#45;&gt;Node3 -->
<g id="edge2" class="edge"><title>Node1&#45;&gt;Node3</title>
<path fill="none" stroke="midnightblue" d="M121.937,-54C132.586,-54 143.869,-54 155.089,-54"/>
<polygon fill="midnightblue" stroke="midnightblue" points="155.354,-57.5001 165.354,-54 155.354,-50.5001 155.354,-57.5001"/>
</g>
<!-- Node4 -->
<g id="node4" class="node"><title>Node4</title>
<g id="a_node4"><a xlink:href="../../dc/de2/classengine_1_1_engine.html#ac366da9d72a098c59e5c5c2bac25d8b3" target="_top" xlink:title="engine.Engine.updateObservers">
<polygon fill="white" stroke="black" points="158,-0.5 158,-19.5 328,-19.5 328,-0.5 158,-0.5"/>
<text text-anchor="middle" x="243" y="-7.5" font-family="Helvetica,sans-Serif" font-size="10.00">engine.Engine.updateObservers</text>
</a>
</g>
</g>
<!-- Node1&#45;&gt;Node4 -->
<g id="edge3" class="edge"><title>Node1&#45;&gt;Node4</title>
<path fill="none" stroke="midnightblue" d="M99.8199,-44.4409C117.485,-40.0028 138.807,-34.6839 158,-30 168.816,-27.3605 180.425,-24.5693 191.458,-21.9365"/>
<polygon fill="midnightblue" stroke="midnightblue" points="192.472,-25.2932 201.389,-19.5721 190.85,-18.4836 192.472,-25.2932"/>
</g>
<!-- Node4&#45;&gt;Node2 -->
<g id="edge4" class="edge"><title>Node4&#45;&gt;Node2</title>
<path fill="none" stroke="midnightblue" d="M286.095,-19.5473C308.23,-24.5676 336.052,-30.8777 361.817,-36.7215"/>
<polygon fill="midnightblue" stroke="midnightblue" points="361.049,-40.136 371.575,-38.9346 362.597,-33.3094 361.049,-40.136"/>
</g>
</g>
</svg>
