<?xml version="1.0" encoding="UTF-8" standalone="no"?>
<!DOCTYPE svg PUBLIC "-//W3C//DTD SVG 1.1//EN"
 "http://www.w3.org/Graphics/SVG/1.1/DTD/svg11.dtd">
<!-- Generated by graphviz version 2.36.0 (20140111.2315)
 -->
<!-- Title: engine.Engine.setAnimationEnabled Pages: 1 -->
<svg width="488pt" height="38pt"
 viewBox="0.00 0.00 488.00 38.00" xmlns="http://www.w3.org/2000/svg" xmlns:xlink="http://www.w3.org/1999/xlink">
<g id="graph0" class="graph" transform="scale(1 1) rotate(0) translate(4 34)">
<title>engine.Engine.setAnimationEnabled</title>
<polygon fill="white" stroke="none" points="-4,4 -4,-34 484,-34 484,4 -4,4"/>
<!-- Node1 -->
<g id="node1" class="node"><title>Node1</title>
<polygon fill="#bfbfbf" stroke="black" points="0.5,-0 0.5,-30 151.5,-30 151.5,-0 0.5,-0"/>
<text text-anchor="start" x="8.5" y="-18" font-family="Helvetica,sans-Serif" font-size="10.00">engine.Engine.setAnimation</text>
<text text-anchor="middle" x="76" y="-7" font-family="Helvetica,sans-Serif" font-size="10.00">Enabled</text>
</g>
<!-- Node2 -->
<g id="node2" class="node"><title>Node2</title>
<g id="a_node2"><a xlink:href="../../d0/daf/classapplication_1_1_r_p_g.html#a57d0a7b674624b53b138a951b30f865d" target="_top" xlink:title="application.RPG.hardCode\lAGame">
<polygon fill="white" stroke="black" points="188,-0 188,-30 328,-30 328,-0 188,-0"/>
<text text-anchor="start" x="196" y="-18" font-family="Helvetica,sans-Serif" font-size="10.00">application.RPG.hardCode</text>
<text text-anchor="middle" x="258" y="-7" font-family="Helvetica,sans-Serif" font-size="10.00">AGame</text>
</a>
</g>
</g>
<!-- Node1&#45;&gt;Node2 -->
<g id="edge1" class="edge"><title>Node1&#45;&gt;Node2</title>
<path fill="none" stroke="midnightblue" d="M161.701,-15C170.424,-15 179.213,-15 187.739,-15"/>
<polygon fill="midnightblue" stroke="midnightblue" points="161.512,-11.5001 151.512,-15 161.512,-18.5001 161.512,-11.5001"/>
</g>
<!-- Node3 -->
<g id="node3" class="node"><title>Node3</title>
<g id="a_node3"><a xlink:href="../../d0/daf/classapplication_1_1_r_p_g.html#a6b8f1624ae2607c67f4e8cda49b544e9" target="_top" xlink:title="application.RPG.start">
<polygon fill="white" stroke="black" points="364,-5.5 364,-24.5 480,-24.5 480,-5.5 364,-5.5"/>
<text text-anchor="middle" x="422" y="-12.5" font-family="Helvetica,sans-Serif" font-size="10.00">application.RPG.start</text>
</a>
</g>
</g>
<!-- Node2&#45;&gt;Node3 -->
<g id="edge2" class="edge"><title>Node2&#45;&gt;Node3</title>
<path fill="none" stroke="midnightblue" d="M338.245,-15C346.855,-15 355.492,-15 363.766,-15"/>
<polygon fill="midnightblue" stroke="midnightblue" points="338.173,-11.5001 328.172,-15 338.172,-18.5001 338.173,-11.5001"/>
</g>
</g>
</svg>
