<?xml version="1.0" encoding="UTF-8" standalone="no"?>
<!DOCTYPE svg PUBLIC "-//W3C//DTD SVG 1.1//EN"
 "http://www.w3.org/Graphics/SVG/1.1/DTD/svg11.dtd">
<!-- Generated by graphviz version 2.36.0 (20140111.2315)
 -->
<!-- Title: model.sprite.SpriteImageLoader.loadTeamColorMask Pages: 1 -->
<svg width="542pt" height="38pt"
 viewBox="0.00 0.00 542.00 38.00" xmlns="http://www.w3.org/2000/svg" xmlns:xlink="http://www.w3.org/1999/xlink">
<g id="graph0" class="graph" transform="scale(1 1) rotate(0) translate(4 34)">
<title>model.sprite.SpriteImageLoader.loadTeamColorMask</title>
<polygon fill="white" stroke="none" points="-4,4 -4,-34 538,-34 538,4 -4,4"/>
<!-- Node1 -->
<g id="node1" class="node"><title>Node1</title>
<polygon fill="#bfbfbf" stroke="black" points="0.5,-0 0.5,-30 147.5,-30 147.5,-0 0.5,-0"/>
<text text-anchor="start" x="8.5" y="-18" font-family="Helvetica,sans-Serif" font-size="10.00">model.sprite.SpriteImage</text>
<text text-anchor="middle" x="74" y="-7" font-family="Helvetica,sans-Serif" font-size="10.00">Loader.loadTeamColorMask</text>
</g>
<!-- Node2 -->
<g id="node2" class="node"><title>Node2</title>
<g id="a_node2"><a xlink:href="../../d1/d5c/classmodel_1_1sprite_1_1_sprite_image_container.html#a6f0600404dbb67cab50a7b300e51b916" target="_top" xlink:title="model.sprite.SpriteImage\lContainer.locateColorMask">
<polygon fill="white" stroke="black" points="184,-0 184,-30 328,-30 328,-0 184,-0"/>
<text text-anchor="start" x="192" y="-18" font-family="Helvetica,sans-Serif" font-size="10.00">model.sprite.SpriteImage</text>
<text text-anchor="middle" x="256" y="-7" font-family="Helvetica,sans-Serif" font-size="10.00">Container.locateColorMask</text>
</a>
</g>
</g>
<!-- Node1&#45;&gt;Node2 -->
<g id="edge1" class="edge"><title>Node1&#45;&gt;Node2</title>
<path fill="none" stroke="midnightblue" d="M157.818,-15C166.494,-15 175.259,-15 183.789,-15"/>
<polygon fill="midnightblue" stroke="midnightblue" points="157.694,-11.5001 147.694,-15 157.694,-18.5001 157.694,-11.5001"/>
</g>
<!-- Node3 -->
<g id="node3" class="node"><title>Node3</title>
<g id="a_node3"><a xlink:href="../../d1/d5c/classmodel_1_1sprite_1_1_sprite_image_container.html#aa9e7e4d96f9ed90dcfd992c05d9da2a6" target="_top" xlink:title="model.sprite.SpriteImage\lContainer.SpriteImageContainer">
<polygon fill="white" stroke="black" points="364,-0 364,-30 534,-30 534,-0 364,-0"/>
<text text-anchor="start" x="372" y="-18" font-family="Helvetica,sans-Serif" font-size="10.00">model.sprite.SpriteImage</text>
<text text-anchor="middle" x="449" y="-7" font-family="Helvetica,sans-Serif" font-size="10.00">Container.SpriteImageContainer</text>
</a>
</g>
</g>
<!-- Node2&#45;&gt;Node3 -->
<g id="edge2" class="edge"><title>Node2&#45;&gt;Node3</title>
<path fill="none" stroke="midnightblue" d="M338.351,-15C346.814,-15 355.428,-15 363.921,-15"/>
<polygon fill="midnightblue" stroke="midnightblue" points="338.121,-11.5001 328.121,-15 338.121,-18.5001 338.121,-11.5001"/>
</g>
</g>
</svg>
