<?xml version="1.0" encoding="UTF-8" standalone="no"?>
<!DOCTYPE svg PUBLIC "-//W3C//DTD SVG 1.1//EN"
 "http://www.w3.org/Graphics/SVG/1.1/DTD/svg11.dtd">
<!-- Generated by graphviz version 2.36.0 (20140111.2315)
 -->
<!-- Title: view.editor.wizards.WidgetWizard Pages: 1 -->
<!--zoomable 339 -->
<svg id="main" version="1.1" xmlns="http://www.w3.org/2000/svg" xmlns:xlink="http://www.w3.org/1999/xlink" xml:space="preserve" onload="init(evt)">
<style type="text/css"><![CDATA[
.edge:hover path { stroke: red; }
.edge:hover polygon { stroke: red; fill: red; }
]]></style>
<script type="text/javascript"><![CDATA[
var edges = document.getElementsByTagName('g');
if (edges && edges.length) {
  for (var i=0;i<edges.length;i++) {
    if (edges[i].id.substr(0,4)=='edge') {
      edges[i].setAttribute('class','edge');
    }
  }
}
]]></script>
        <defs>
                <circle id="rim" cx="0" cy="0" r="7"/>
                <circle id="rim2" cx="0" cy="0" r="3.5"/>
                <g id="zoomPlus">
                        <use xlink:href="#rim" fill="#404040">
                                <set attributeName="fill" to="#808080" begin="zoomplus.mouseover" end="zoomplus.mouseout"/>
                        </use>
                        <path d="M-4,0h8M0,-4v8" fill="none" stroke="white" stroke-width="1.5" pointer-events="none"/>
                </g>
                <g id="zoomMin">
                        <use xlink:href="#rim" fill="#404040">
                                <set attributeName="fill" to="#808080" begin="zoomminus.mouseover" end="zoomminus.mouseout"/>
                        </use>
                        <path d="M-4,0h8" fill="none" stroke="white" stroke-width="1.5" pointer-events="none"/>
                </g>
                <g id="dirArrow">
                        <path fill="none" stroke="white" stroke-width="1.5" d="M0,-3.0v7 M-2.5,-0.5L0,-3.0L2.5,-0.5"/>
                </g>
               <g id="resetDef">
                       <use xlink:href="#rim2" fill="#404040">
                               <set attributeName="fill" to="#808080" begin="reset.mouseover" end="reset.mouseout"/>
                       </use>
               </g>
        </defs>

<script type="text/javascript">
var viewWidth = 1016;
var viewHeight = 339;
var sectionId = 'dynsection-1';
</script>
<script xlink:href="../../svgpan.js"/>
<svg id="graph" class="graph">
<g id="viewport">
<title>view.editor.wizards.WidgetWizard</title>
<polygon fill="white" stroke="none" points="-4,4 -4,-335 1012,-335 1012,4 -4,4"/>
<!-- Node1 -->
<g id="node1" class="node"><title>Node1</title>
<polygon fill="#bfbfbf" stroke="black" points="868,-90 868,-120 1008,-120 1008,-90 868,-90"/>
<text text-anchor="start" x="876" y="-108" font-family="Helvetica,sans-Serif" font-size="10.00">view.editor.wizards.Widget</text>
<text text-anchor="middle" x="938" y="-97" font-family="Helvetica,sans-Serif" font-size="10.00">Wizard</text>
</g>
<!-- Node2 -->
<g id="node2" class="node"><title>Node2</title>
<g id="a_node2"><a xlink:href="../../d7/d40/classview_1_1editor_1_1wizards_1_1_wizard.html" target="_top" xlink:title="view.editor.wizards.Wizard">
<polygon fill="white" stroke="black" points="556.5,-191.5 556.5,-210.5 695.5,-210.5 695.5,-191.5 556.5,-191.5"/>
<text text-anchor="middle" x="626" y="-198.5" font-family="Helvetica,sans-Serif" font-size="10.00">view.editor.wizards.Wizard</text>
</a>
</g>
</g>
<!-- Node2&#45;&gt;Node1 -->
<g id="edge1" class="edge"><title>Node2&#45;&gt;Node1</title>
<path fill="none" stroke="midnightblue" d="M705.735,-200.185C749.619,-197.356 804.439,-189.801 850,-171 878.566,-159.212 906.026,-135.678 922.207,-120.135"/>
<polygon fill="midnightblue" stroke="midnightblue" points="705.47,-196.694 695.688,-200.763 705.873,-203.683 705.47,-196.694"/>
</g>
<!-- Node3 -->
<g id="node3" class="node"><title>Node3</title>
<g id="a_node3"><a xlink:href="../../d5/d13/interfaceview_1_1gui_1_1_g_u_i_controller.html" target="_top" xlink:title="view.gui.GUIController">
<polygon fill="white" stroke="black" points="284,-311.5 284,-330.5 404,-330.5 404,-311.5 284,-311.5"/>
<text text-anchor="middle" x="344" y="-318.5" font-family="Helvetica,sans-Serif" font-size="10.00">view.gui.GUIController</text>
</a>
</g>
</g>
<!-- Node3&#45;&gt;Node2 -->
<g id="edge2" class="edge"><title>Node3&#45;&gt;Node2</title>
<path fill="none" stroke="midnightblue" d="M414.377,-316.756C452.564,-312.16 499.809,-302.646 538,-283 573.253,-264.866 604.331,-228.145 617.84,-210.667"/>
<polygon fill="midnightblue" stroke="midnightblue" points="413.919,-313.285 404.37,-317.874 414.697,-320.242 413.919,-313.285"/>
</g>
<!-- Node4 -->
<g id="node4" class="node"><title>Node4</title>
<g id="a_node4"><a xlink:href="../../dc/d48/classmodel_1_1data_1_1_wizard_data.html" target="_top" xlink:title="model.data.WizardData">
<polygon fill="white" stroke="black" points="279.5,-273.5 279.5,-292.5 408.5,-292.5 408.5,-273.5 279.5,-273.5"/>
<text text-anchor="middle" x="344" y="-280.5" font-family="Helvetica,sans-Serif" font-size="10.00">model.data.WizardData</text>
</a>
</g>
</g>
<!-- Node4&#45;&gt;Node2 -->
<g id="edge3" class="edge"><title>Node4&#45;&gt;Node2</title>
<path fill="none" stroke="#9a32cd" stroke-dasharray="5,2" d="M418.802,-273.331C455.294,-267.334 499.627,-258.2 538,-245 564.089,-236.025 592.226,-220.641 609.226,-210.648"/>
<polygon fill="#9a32cd" stroke="#9a32cd" points="418.052,-269.907 408.729,-274.941 419.156,-276.819 418.052,-269.907"/>
<text text-anchor="middle" x="492" y="-271" font-family="Helvetica,sans-Serif" font-size="10.00"> myUserInput</text>
</g>
<!-- Node5 -->
<g id="node5" class="node"><title>Node5</title>
<g id="a_node5"><a xlink:href="../../d6/d26/enummodel_1_1data_1_1_wizard_type.html" target="_top" xlink:title="model.data.WizardType">
<polygon fill="white" stroke="black" points="20.5,-311.5 20.5,-330.5 147.5,-330.5 147.5,-311.5 20.5,-311.5"/>
<text text-anchor="middle" x="84" y="-318.5" font-family="Helvetica,sans-Serif" font-size="10.00">model.data.WizardType</text>
</a>
</g>
</g>
<!-- Node5&#45;&gt;Node4 -->
<g id="edge4" class="edge"><title>Node5&#45;&gt;Node4</title>
<path fill="none" stroke="#9a32cd" stroke-dasharray="5,2" d="M157.63,-310.39C184.179,-306.504 214.451,-302.064 242,-298 254.101,-296.215 267.016,-294.303 279.427,-292.461"/>
<polygon fill="#9a32cd" stroke="#9a32cd" points="157.038,-306.94 147.65,-311.851 158.052,-313.866 157.038,-306.94"/>
<text text-anchor="middle" x="214" y="-309" font-family="Helvetica,sans-Serif" font-size="10.00"> myType</text>
</g>
<!-- Node6 -->
<g id="node6" class="node"><title>Node6</title>
<polygon fill="white" stroke="#bfbfbf" points="0,-273.5 0,-292.5 168,-292.5 168,-273.5 0,-273.5"/>
<text text-anchor="middle" x="84" y="-280.5" font-family="Helvetica,sans-Serif" font-size="10.00">List&lt; model.data.WizardData &gt;</text>
</g>
<!-- Node6&#45;&gt;Node4 -->
<g id="edge5" class="edge"><title>Node6&#45;&gt;Node4</title>
<path fill="none" stroke="#9a32cd" stroke-dasharray="5,2" d="M178.338,-283C211.875,-283 248.901,-283 279.336,-283"/>
<polygon fill="#9a32cd" stroke="#9a32cd" points="178.053,-279.5 168.053,-283 178.053,-286.5 178.053,-279.5"/>
<text text-anchor="middle" x="214" y="-286" font-family="Helvetica,sans-Serif" font-size="10.00"> myWizards</text>
</g>
<!-- Node7 -->
<g id="node7" class="node"><title>Node7</title>
<polygon fill="white" stroke="#bfbfbf" points="3.5,-224 3.5,-254 164.5,-254 164.5,-224 3.5,-224"/>
<text text-anchor="start" x="11.5" y="-242" font-family="Helvetica,sans-Serif" font-size="10.00">Map&lt; model.data.WizardData</text>
<text text-anchor="middle" x="84" y="-231" font-family="Helvetica,sans-Serif" font-size="10.00">Type, String &gt;</text>
</g>
<!-- Node7&#45;&gt;Node4 -->
<g id="edge6" class="edge"><title>Node7&#45;&gt;Node4</title>
<path fill="none" stroke="#9a32cd" stroke-dasharray="5,2" d="M174.417,-254.249C211.836,-260.631 254.175,-267.852 287.063,-273.46"/>
<polygon fill="#9a32cd" stroke="#9a32cd" points="174.96,-250.792 164.514,-252.56 173.783,-257.692 174.96,-250.792"/>
<text text-anchor="middle" x="214" y="-268" font-family="Helvetica,sans-Serif" font-size="10.00"> myData</text>
</g>
<!-- Node8 -->
<g id="node8" class="node"><title>Node8</title>
<polygon fill="white" stroke="#bfbfbf" points="321.5,-235.5 321.5,-254.5 366.5,-254.5 366.5,-235.5 321.5,-235.5"/>
<text text-anchor="middle" x="344" y="-242.5" font-family="Helvetica,sans-Serif" font-size="10.00">Stage</text>
</g>
<!-- Node8&#45;&gt;Node2 -->
<g id="edge7" class="edge"><title>Node8&#45;&gt;Node2</title>
<path fill="none" stroke="#9a32cd" stroke-dasharray="5,2" d="M376.754,-240.443C415.029,-234.901 481.282,-225.15 538,-216 548.592,-214.291 559.896,-212.396 570.731,-210.543"/>
<polygon fill="#9a32cd" stroke="#9a32cd" points="376.129,-236.997 366.732,-241.891 377.129,-243.925 376.129,-236.997"/>
<text text-anchor="middle" x="492" y="-233" font-family="Helvetica,sans-Serif" font-size="10.00"> myStage</text>
</g>
<!-- Node9 -->
<g id="node9" class="node"><title>Node9</title>
<polygon fill="white" stroke="#bfbfbf" points="260.5,-186 260.5,-216 427.5,-216 427.5,-186 260.5,-186"/>
<text text-anchor="start" x="268.5" y="-204" font-family="Helvetica,sans-Serif" font-size="10.00">Consumer&lt; model.data.Wizard</text>
<text text-anchor="middle" x="344" y="-193" font-family="Helvetica,sans-Serif" font-size="10.00">Data &gt;</text>
</g>
<!-- Node9&#45;&gt;Node2 -->
<g id="edge8" class="edge"><title>Node9&#45;&gt;Node2</title>
<path fill="none" stroke="#9a32cd" stroke-dasharray="5,2" d="M438.102,-201C476.777,-201 520.852,-201 556.483,-201"/>
<polygon fill="#9a32cd" stroke="#9a32cd" points="437.873,-197.5 427.873,-201 437.873,-204.5 437.873,-197.5"/>
<text text-anchor="middle" x="492" y="-204" font-family="Helvetica,sans-Serif" font-size="10.00"> mySaveConsumer</text>
</g>
<!-- Node10 -->
<g id="node10" class="node"><title>Node10</title>
<polygon fill="white" stroke="#bfbfbf" points="319.5,-147.5 319.5,-166.5 368.5,-166.5 368.5,-147.5 319.5,-147.5"/>
<text text-anchor="middle" x="344" y="-154.5" font-family="Helvetica,sans-Serif" font-size="10.00">Button</text>
</g>
<!-- Node10&#45;&gt;Node2 -->
<g id="edge9" class="edge"><title>Node10&#45;&gt;Node2</title>
<path fill="none" stroke="#9a32cd" stroke-dasharray="5,2" d="M378.95,-161.875C417.526,-167.467 482.352,-177.023 538,-186 548.592,-187.709 559.896,-189.604 570.731,-191.457"/>
<polygon fill="#9a32cd" stroke="#9a32cd" points="379.193,-158.374 368.796,-160.407 378.192,-165.302 379.193,-158.374"/>
<text text-anchor="middle" x="492" y="-189" font-family="Helvetica,sans-Serif" font-size="10.00"> save</text>
</g>
<!-- Node11 -->
<g id="node11" class="node"><title>Node11</title>
<polygon fill="white" stroke="#bfbfbf" points="313.5,-109.5 313.5,-128.5 374.5,-128.5 374.5,-109.5 313.5,-109.5"/>
<text text-anchor="middle" x="344" y="-116.5" font-family="Helvetica,sans-Serif" font-size="10.00">SplitPane</text>
</g>
<!-- Node11&#45;&gt;Node2 -->
<g id="edge10" class="edge"><title>Node11&#45;&gt;Node2</title>
<path fill="none" stroke="#9a32cd" stroke-dasharray="5,2" d="M384.737,-118.94C426.035,-120.63 491.073,-128.36 538,-158 549.273,-165.12 544.98,-174.493 556,-182 561.648,-185.847 568.054,-188.919 574.631,-191.369"/>
<polygon fill="#9a32cd" stroke="#9a32cd" points="384.622,-115.435 374.519,-118.626 384.407,-122.432 384.622,-115.435"/>
<text text-anchor="middle" x="492" y="-161" font-family="Helvetica,sans-Serif" font-size="10.00"> root</text>
</g>
<!-- Node12 -->
<g id="node12" class="node"><title>Node12</title>
<polygon fill="white" stroke="#bfbfbf" points="326.5,-71.5 326.5,-90.5 361.5,-90.5 361.5,-71.5 326.5,-71.5"/>
<text text-anchor="middle" x="344" y="-78.5" font-family="Helvetica,sans-Serif" font-size="10.00">Text</text>
</g>
<!-- Node12&#45;&gt;Node2 -->
<g id="edge11" class="edge"><title>Node12&#45;&gt;Node2</title>
<path fill="none" stroke="#9a32cd" stroke-dasharray="5,2" d="M371.844,-76.7491C413.087,-71.8536 492.073,-69.2023 538,-111 562.076,-132.911 533.217,-158.747 556,-182 559.739,-185.816 564.169,-188.887 568.952,-191.354"/>
<polygon fill="#9a32cd" stroke="#9a32cd" points="371.197,-73.3041 361.742,-78.0852 372.115,-80.2437 371.197,-73.3041"/>
<text text-anchor="middle" x="492" y="-114" font-family="Helvetica,sans-Serif" font-size="10.00"> errorMessage</text>
</g>
<!-- Node13 -->
<g id="node13" class="node"><title>Node13</title>
<polygon fill="white" stroke="#bfbfbf" points="605.5,-153.5 605.5,-172.5 646.5,-172.5 646.5,-153.5 605.5,-153.5"/>
<text text-anchor="middle" x="626" y="-160.5" font-family="Helvetica,sans-Serif" font-size="10.00">VBox</text>
</g>
<!-- Node13&#45;&gt;Node1 -->
<g id="edge12" class="edge"><title>Node13&#45;&gt;Node1</title>
<path fill="none" stroke="#9a32cd" stroke-dasharray="5,2" d="M656.704,-161.233C699.771,-158.231 781.855,-150.847 850,-135 866.34,-131.2 883.912,-125.471 898.956,-120.034"/>
<polygon fill="#9a32cd" stroke="#9a32cd" points="656.373,-157.748 646.628,-161.905 656.838,-164.732 656.373,-157.748"/>
<text text-anchor="middle" x="782" y="-159" font-family="Helvetica,sans-Serif" font-size="10.00"> arguments</text>
</g>
<!-- Node14 -->
<g id="node14" class="node"><title>Node14</title>
<polygon fill="white" stroke="#bfbfbf" points="584,-115.5 584,-134.5 668,-134.5 668,-115.5 584,-115.5"/>
<text text-anchor="middle" x="626" y="-122.5" font-family="Helvetica,sans-Serif" font-size="10.00">List&lt; String &gt;</text>
</g>
<!-- Node14&#45;&gt;Node1 -->
<g id="edge13" class="edge"><title>Node14&#45;&gt;Node1</title>
<path fill="none" stroke="#9a32cd" stroke-dasharray="5,2" d="M678.444,-121.681C730.213,-118.341 810.39,-113.168 867.73,-109.469"/>
<polygon fill="#9a32cd" stroke="#9a32cd" points="677.919,-118.208 668.166,-122.344 678.37,-125.193 677.919,-118.208"/>
<text text-anchor="middle" x="782" y="-123" font-family="Helvetica,sans-Serif" font-size="10.00"> myGlobalNumberAttributes</text>
</g>
<!-- Node15 -->
<g id="node15" class="node"><title>Node15</title>
<polygon fill="white" stroke="#bfbfbf" points="566,-76.5 566,-95.5 686,-95.5 686,-76.5 566,-76.5"/>
<text text-anchor="middle" x="626" y="-83.5" font-family="Helvetica,sans-Serif" font-size="10.00">ComboBox&lt; String &gt;</text>
</g>
<!-- Node15&#45;&gt;Node1 -->
<g id="edge14" class="edge"><title>Node15&#45;&gt;Node1</title>
<path fill="none" stroke="#9a32cd" stroke-dasharray="5,2" d="M696.429,-80.8515C740.56,-78.6952 798.817,-77.9102 850,-84 860.955,-85.3034 872.525,-87.4991 883.527,-89.992"/>
<polygon fill="#9a32cd" stroke="#9a32cd" points="696.186,-77.3593 686.383,-81.3778 696.553,-84.3497 696.186,-77.3593"/>
<text text-anchor="middle" x="782" y="-98" font-family="Helvetica,sans-Serif" font-size="10.00"> displayerTag</text>
<text text-anchor="middle" x="782" y="-87" font-family="Helvetica,sans-Serif" font-size="10.00">attribute</text>
</g>
<!-- Node16 -->
<g id="node16" class="node"><title>Node16</title>
<polygon fill="white" stroke="#bfbfbf" points="584,-38.5 584,-57.5 668,-57.5 668,-38.5 584,-38.5"/>
<text text-anchor="middle" x="626" y="-45.5" font-family="Helvetica,sans-Serif" font-size="10.00">Set&lt; String &gt;</text>
</g>
<!-- Node16&#45;&gt;Node1 -->
<g id="edge15" class="edge"><title>Node16&#45;&gt;Node1</title>
<path fill="none" stroke="#9a32cd" stroke-dasharray="5,2" d="M678.67,-46.8066C724.417,-46.9542 792.638,-50.138 850,-65 871.242,-70.5037 893.709,-80.9665 910.49,-89.811"/>
<polygon fill="#9a32cd" stroke="#9a32cd" points="678.398,-43.3069 668.404,-46.8233 678.41,-50.3069 678.398,-43.3069"/>
<text text-anchor="middle" x="782" y="-68" font-family="Helvetica,sans-Serif" font-size="10.00"> allAttributes</text>
</g>
<!-- Node17 -->
<g id="node17" class="node"><title>Node17</title>
<polygon fill="white" stroke="#bfbfbf" points="578.5,-0.5 578.5,-19.5 673.5,-19.5 673.5,-0.5 578.5,-0.5"/>
<text text-anchor="middle" x="626" y="-7.5" font-family="Helvetica,sans-Serif" font-size="10.00">List&lt; TextField &gt;</text>
</g>
<!-- Node17&#45;&gt;Node1 -->
<g id="edge16" class="edge"><title>Node17&#45;&gt;Node1</title>
<path fill="none" stroke="#9a32cd" stroke-dasharray="5,2" d="M683.948,-6.93554C730.391,-6.50189 796.776,-10.6819 850,-33 880.375,-45.7372 908.351,-72.7646 923.995,-89.8409"/>
<polygon fill="#9a32cd" stroke="#9a32cd" points="683.707,-3.43902 673.768,-7.10725 683.825,-10.438 683.707,-3.43902"/>
<text text-anchor="middle" x="782" y="-36" font-family="Helvetica,sans-Serif" font-size="10.00"> argFields</text>
</g>
</g>
</svg>
        <g id="navigator" transform="translate(0 0)" fill="#404254">
                <rect fill="#f2f5e9" fill-opacity="0.5" stroke="#606060" stroke-width=".5" x="0" y="0" width="60" height="60"/>
                <use id="zoomplus" xlink:href="#zoomPlus" x="17" y="9" onmousedown="handleZoom(evt,'in')"/>
                <use id="zoomminus" xlink:href="#zoomMin" x="42" y="9" onmousedown="handleZoom(evt,'out')"/>
                <use id="reset" xlink:href="#resetDef" x="30" y="36" onmousedown="handleReset()"/>
                <g id="arrowUp" xlink:href="#dirArrow" transform="translate(30 24)" onmousedown="handlePan(0,-1)">
                  <use xlink:href="#rim" fill="#404040">
                        <set attributeName="fill" to="#808080" begin="arrowUp.mouseover" end="arrowUp.mouseout"/>
                  </use>
                  <path fill="none" stroke="white" stroke-width="1.5" d="M0,-3.0v7 M-2.5,-0.5L0,-3.0L2.5,-0.5"/>
                </g>
                <g id="arrowRight" xlink:href="#dirArrow" transform="rotate(90) translate(36 -43)" onmousedown="handlePan(1,0)">
                  <use xlink:href="#rim" fill="#404040">
                        <set attributeName="fill" to="#808080" begin="arrowRight.mouseover" end="arrowRight.mouseout"/>
                  </use>
                  <path fill="none" stroke="white" stroke-width="1.5" d="M0,-3.0v7 M-2.5,-0.5L0,-3.0L2.5,-0.5"/>
                </g>
                <g id="arrowDown" xlink:href="#dirArrow" transform="rotate(180) translate(-30 -48)" onmousedown="handlePan(0,1)">
                  <use xlink:href="#rim" fill="#404040">
                        <set attributeName="fill" to="#808080" begin="arrowDown.mouseover" end="arrowDown.mouseout"/>
                  </use>
                  <path fill="none" stroke="white" stroke-width="1.5" d="M0,-3.0v7 M-2.5,-0.5L0,-3.0L2.5,-0.5"/>
                </g>
                <g id="arrowLeft" xlink:href="#dirArrow" transform="rotate(270) translate(-36 17)" onmousedown="handlePan(-1,0)">
                  <use xlink:href="#rim" fill="#404040">
                        <set attributeName="fill" to="#808080" begin="arrowLeft.mouseover" end="arrowLeft.mouseout"/>
                  </use>
                  <path fill="none" stroke="white" stroke-width="1.5" d="M0,-3.0v7 M-2.5,-0.5L0,-3.0L2.5,-0.5"/>
                </g>
        </g>
        <svg viewBox="0 0 15 15" width="100%" height="30px" preserveAspectRatio="xMaxYMin meet">
         <g id="arrow_out" transform="scale(0.3 0.3)">
          <a xlink:href="classview_1_1editor_1_1wizards_1_1_widget_wizard__coll__graph_org.svg" target="_base">
           <rect id="button" ry="5" rx="5" y="6" x="6" height="38" width="38"
                fill="#f2f5e9" fill-opacity="0.5" stroke="#606060" stroke-width="1.0"/>
           <path id="arrow"
             d="M 11.500037,31.436501 C 11.940474,20.09759 22.043105,11.32322 32.158766,21.979434 L 37.068811,17.246167 C 37.068811,17.246167 37.088388,32 37.088388,32 L 22.160133,31.978069 C 22.160133,31.978069 26.997745,27.140456 26.997745,27.140456 C 18.528582,18.264221 13.291696,25.230495 11.500037,31.436501 z"
             style="fill:#404040;"/>
          </a>
         </g>
        </svg>
</svg>
