<?xml version="1.0" encoding="UTF-8" standalone="no"?>
<!DOCTYPE svg PUBLIC "-//W3C//DTD SVG 1.1//EN"
 "http://www.w3.org/Graphics/SVG/1.1/DTD/svg11.dtd">
<!-- Generated by graphviz version 2.36.0 (20140111.2315)
 -->
<!-- Title: game_engine.visuals.VisualManager.addMiniMap Pages: 1 -->
<svg width="722pt" height="101pt"
 viewBox="0.00 0.00 722.00 101.00" xmlns="http://www.w3.org/2000/svg" xmlns:xlink="http://www.w3.org/1999/xlink">
<g id="graph0" class="graph" transform="scale(1 1) rotate(0) translate(4 97)">
<title>game_engine.visuals.VisualManager.addMiniMap</title>
<polygon fill="white" stroke="none" points="-4,4 -4,-97 718,-97 718,4 -4,4"/>
<!-- Node1 -->
<g id="node1" class="node"><title>Node1</title>
<polygon fill="#bfbfbf" stroke="black" points="0.5,-38 0.5,-68 149.5,-68 149.5,-38 0.5,-38"/>
<text text-anchor="start" x="8.5" y="-56" font-family="Helvetica,sans-Serif" font-size="10.00">game_engine.visuals.Visual</text>
<text text-anchor="middle" x="75" y="-45" font-family="Helvetica,sans-Serif" font-size="10.00">Manager.addMiniMap</text>
</g>
<!-- Node2 -->
<g id="node2" class="node"><title>Node2</title>
<g id="a_node2"><a xlink:href="../../d1/d3a/classgame__engine_1_1_engine.html#a33096e19a0dd6c4541ade6bdfcf092c4" target="_top" xlink:title="game_engine.Engine.select\lLevel">
<polygon fill="white" stroke="black" points="188.5,-63 188.5,-93 337.5,-93 337.5,-63 188.5,-63"/>
<text text-anchor="start" x="196.5" y="-81" font-family="Helvetica,sans-Serif" font-size="10.00">game_engine.Engine.select</text>
<text text-anchor="middle" x="263" y="-70" font-family="Helvetica,sans-Serif" font-size="10.00">Level</text>
</a>
</g>
</g>
<!-- Node1&#45;&gt;Node2 -->
<g id="edge1" class="edge"><title>Node1&#45;&gt;Node2</title>
<path fill="none" stroke="midnightblue" d="M159.493,-64.2222C169.135,-65.5182 178.915,-66.8327 188.413,-68.1092"/>
<polygon fill="midnightblue" stroke="midnightblue" points="159.889,-60.744 149.512,-62.8807 158.957,-67.6817 159.889,-60.744"/>
</g>
<!-- Node3 -->
<g id="node3" class="node"><title>Node3</title>
<g id="a_node3"><a xlink:href="../../d1/d3a/classgame__engine_1_1_engine.html#ae864f59e5ead7ef5b675a70ed813e75f" target="_top" xlink:title="game_engine.Engine.update\lGameLoop">
<polygon fill="white" stroke="black" points="186,-14 186,-44 340,-44 340,-14 186,-14"/>
<text text-anchor="start" x="194" y="-32" font-family="Helvetica,sans-Serif" font-size="10.00">game_engine.Engine.update</text>
<text text-anchor="middle" x="263" y="-21" font-family="Helvetica,sans-Serif" font-size="10.00">GameLoop</text>
</a>
</g>
</g>
<!-- Node1&#45;&gt;Node3 -->
<g id="edge2" class="edge"><title>Node1&#45;&gt;Node3</title>
<path fill="none" stroke="midnightblue" d="M159.71,-42.1986C168.457,-41.07 177.315,-39.9271 185.969,-38.8104"/>
<polygon fill="midnightblue" stroke="midnightblue" points="158.982,-38.7635 149.512,-43.5146 159.878,-45.706 158.982,-38.7635"/>
</g>
<!-- Node4 -->
<g id="node4" class="node"><title>Node4</title>
<g id="a_node4"><a xlink:href="../../d1/d3a/classgame__engine_1_1_engine.html#a66b9572272f4556e51893ee93c719196" target="_top" xlink:title="game_engine.Engine.play">
<polygon fill="white" stroke="black" points="383,-38.5 383,-57.5 523,-57.5 523,-38.5 383,-38.5"/>
<text text-anchor="middle" x="453" y="-45.5" font-family="Helvetica,sans-Serif" font-size="10.00">game_engine.Engine.play</text>
</a>
</g>
</g>
<!-- Node3&#45;&gt;Node4 -->
<g id="edge3" class="edge"><title>Node3&#45;&gt;Node4</title>
<path fill="none" stroke="midnightblue" d="M350.218,-37.7135C361.194,-38.8228 372.312,-39.9465 382.969,-41.0235"/>
<polygon fill="midnightblue" stroke="midnightblue" points="350.497,-34.224 340.196,-36.7006 349.793,-41.1885 350.497,-34.224"/>
</g>
<!-- Node6 -->
<g id="node6" class="node"><title>Node6</title>
<g id="a_node6"><a xlink:href="../../d1/d3a/classgame__engine_1_1_engine.html#aae1f63d0e4f4a2a5c36e886c658b6656" target="_top" xlink:title="game_engine.Engine.update">
<polygon fill="white" stroke="black" points="376,-0.5 376,-19.5 530,-19.5 530,-0.5 376,-0.5"/>
<text text-anchor="middle" x="453" y="-7.5" font-family="Helvetica,sans-Serif" font-size="10.00">game_engine.Engine.update</text>
</a>
</g>
</g>
<!-- Node3&#45;&gt;Node6 -->
<g id="edge5" class="edge"><title>Node3&#45;&gt;Node6</title>
<path fill="none" stroke="midnightblue" d="M350.146,-20.2938C358.67,-19.4323 367.281,-18.562 375.696,-17.7116"/>
<polygon fill="midnightblue" stroke="midnightblue" points="349.793,-16.8115 340.196,-21.2994 350.497,-23.776 349.793,-16.8115"/>
</g>
<!-- Node5 -->
<g id="node5" class="node"><title>Node5</title>
<g id="a_node5"><a xlink:href="../../d1/dcc/classapplication_1_1_shitty_main.html#af8b91a9a9eb3ba2c8a66baee2bed773b" target="_top" xlink:title="application.ShittyMain.start">
<polygon fill="white" stroke="black" points="566.5,-38.5 566.5,-57.5 713.5,-57.5 713.5,-38.5 566.5,-38.5"/>
<text text-anchor="middle" x="640" y="-45.5" font-family="Helvetica,sans-Serif" font-size="10.00">application.ShittyMain.start</text>
</a>
</g>
</g>
<!-- Node4&#45;&gt;Node5 -->
<g id="edge4" class="edge"><title>Node4&#45;&gt;Node5</title>
<path fill="none" stroke="midnightblue" d="M533.481,-48C544.356,-48 555.476,-48 566.223,-48"/>
<polygon fill="midnightblue" stroke="midnightblue" points="533.15,-44.5001 523.15,-48 533.15,-51.5001 533.15,-44.5001"/>
</g>
</g>
</svg>
