<?xml version="1.0" encoding="UTF-8" standalone="no"?>
<!DOCTYPE svg PUBLIC "-//W3C//DTD SVG 1.1//EN"
 "http://www.w3.org/Graphics/SVG/1.1/DTD/svg11.dtd">
<!-- Generated by graphviz version 2.36.0 (20140111.2315)
 -->
<!-- Title: game_engine.visuals.VisualManager.getScrollingScene Pages: 1 -->
<svg width="544pt" height="66pt"
 viewBox="0.00 0.00 544.00 66.00" xmlns="http://www.w3.org/2000/svg" xmlns:xlink="http://www.w3.org/1999/xlink">
<g id="graph0" class="graph" transform="scale(1 1) rotate(0) translate(4 62)">
<title>game_engine.visuals.VisualManager.getScrollingScene</title>
<polygon fill="white" stroke="none" points="-4,4 -4,-62 540,-62 540,4 -4,4"/>
<!-- Node1 -->
<g id="node1" class="node"><title>Node1</title>
<polygon fill="#bfbfbf" stroke="black" points="0.5,-14 0.5,-44 149.5,-44 149.5,-14 0.5,-14"/>
<text text-anchor="start" x="8.5" y="-32" font-family="Helvetica,sans-Serif" font-size="10.00">game_engine.visuals.Visual</text>
<text text-anchor="middle" x="75" y="-21" font-family="Helvetica,sans-Serif" font-size="10.00">Manager.getScrollingScene</text>
</g>
<!-- Node2 -->
<g id="node2" class="node"><title>Node2</title>
<g id="a_node2"><a xlink:href="../../d1/d3a/classgame__engine_1_1_engine.html#abf010c93cd851fe082f559ac2ea49fdd" target="_top" xlink:title="game_engine.Engine.Engine">
<polygon fill="white" stroke="black" points="193,-38.5 193,-57.5 345,-57.5 345,-38.5 193,-38.5"/>
<text text-anchor="middle" x="269" y="-45.5" font-family="Helvetica,sans-Serif" font-size="10.00">game_engine.Engine.Engine</text>
</a>
</g>
</g>
<!-- Node1&#45;&gt;Node2 -->
<g id="edge1" class="edge"><title>Node1&#45;&gt;Node2</title>
<path fill="none" stroke="midnightblue" d="M159.743,-37.2871C170.783,-38.3796 182.043,-39.4938 192.926,-40.5708"/>
<polygon fill="midnightblue" stroke="midnightblue" points="159.979,-33.7934 149.683,-36.2916 159.29,-40.7594 159.979,-33.7934"/>
</g>
<!-- Node3 -->
<g id="node3" class="node"><title>Node3</title>
<g id="a_node3"><a xlink:href="../../d1/d3a/classgame__engine_1_1_engine.html#a1099aa47328171e240058d11ad4acba6" target="_top" xlink:title="game_engine.Engine.getScene">
<polygon fill="white" stroke="black" points="186,-0.5 186,-19.5 352,-19.5 352,-0.5 186,-0.5"/>
<text text-anchor="middle" x="269" y="-7.5" font-family="Helvetica,sans-Serif" font-size="10.00">game_engine.Engine.getScene</text>
</a>
</g>
</g>
<!-- Node1&#45;&gt;Node3 -->
<g id="edge2" class="edge"><title>Node1&#45;&gt;Node3</title>
<path fill="none" stroke="midnightblue" d="M159.773,-20.7099C168.436,-19.8527 177.234,-18.9821 185.878,-18.1266"/>
<polygon fill="midnightblue" stroke="midnightblue" points="159.29,-17.2406 149.683,-21.7084 159.979,-24.2066 159.29,-17.2406"/>
</g>
<!-- Node4 -->
<g id="node4" class="node"><title>Node4</title>
<g id="a_node4"><a xlink:href="../../d1/dcc/classapplication_1_1_shitty_main.html#af8b91a9a9eb3ba2c8a66baee2bed773b" target="_top" xlink:title="application.ShittyMain.start">
<polygon fill="white" stroke="black" points="388.5,-0.5 388.5,-19.5 535.5,-19.5 535.5,-0.5 388.5,-0.5"/>
<text text-anchor="middle" x="462" y="-7.5" font-family="Helvetica,sans-Serif" font-size="10.00">application.ShittyMain.start</text>
</a>
</g>
</g>
<!-- Node3&#45;&gt;Node4 -->
<g id="edge3" class="edge"><title>Node3&#45;&gt;Node4</title>
<path fill="none" stroke="midnightblue" d="M362.313,-10C371.033,-10 379.789,-10 388.289,-10"/>
<polygon fill="midnightblue" stroke="midnightblue" points="362.11,-6.5001 352.11,-10 362.11,-13.5001 362.11,-6.5001"/>
</g>
</g>
</svg>
