<?xml version="1.0" encoding="UTF-8" standalone="no"?>
<!DOCTYPE svg PUBLIC "-//W3C//DTD SVG 1.1//EN"
 "http://www.w3.org/Graphics/SVG/1.1/DTD/svg11.dtd">
<!-- Generated by graphviz version 2.36.0 (20140111.2315)
 -->
<!-- Title: game_engine.visuals.AnimationPlayer.AnimationPlayer Pages: 1 -->
<svg width="404pt" height="136pt"
 viewBox="0.00 0.00 404.00 136.00" xmlns="http://www.w3.org/2000/svg" xmlns:xlink="http://www.w3.org/1999/xlink">
<g id="graph0" class="graph" transform="scale(1 1) rotate(0) translate(4 132)">
<title>game_engine.visuals.AnimationPlayer.AnimationPlayer</title>
<polygon fill="white" stroke="none" points="-4,4 -4,-132 400,-132 400,4 -4,4"/>
<!-- Node1 -->
<g id="node1" class="node"><title>Node1</title>
<polygon fill="#bfbfbf" stroke="black" points="0.5,-49 0.5,-79 169.5,-79 169.5,-49 0.5,-49"/>
<text text-anchor="start" x="8.5" y="-67" font-family="Helvetica,sans-Serif" font-size="10.00">game_engine.visuals.Animation</text>
<text text-anchor="middle" x="85" y="-56" font-family="Helvetica,sans-Serif" font-size="10.00">Player.AnimationPlayer</text>
</g>
<!-- Node2 -->
<g id="node2" class="node"><title>Node2</title>
<g id="a_node2"><a xlink:href="../../de/d86/classgame__engine_1_1visuals_1_1_dimension.html#a4d803b0b96a4432a77516cf17c413617" target="_top" xlink:title="game_engine.visuals.Dimension.get\lHeight">
<polygon fill="white" stroke="black" points="206,-98 206,-128 396,-128 396,-98 206,-98"/>
<text text-anchor="start" x="214" y="-116" font-family="Helvetica,sans-Serif" font-size="10.00">game_engine.visuals.Dimension.get</text>
<text text-anchor="middle" x="301" y="-105" font-family="Helvetica,sans-Serif" font-size="10.00">Height</text>
</a>
</g>
</g>
<!-- Node1&#45;&gt;Node2 -->
<g id="edge1" class="edge"><title>Node1&#45;&gt;Node2</title>
<path fill="none" stroke="midnightblue" d="M151.661,-79.0346C174.668,-84.3024 200.687,-90.2601 224.438,-95.6984"/>
<polygon fill="midnightblue" stroke="midnightblue" points="223.934,-99.1735 234.463,-97.9938 225.496,-92.3501 223.934,-99.1735"/>
</g>
<!-- Node3 -->
<g id="node3" class="node"><title>Node3</title>
<g id="a_node3"><a xlink:href="../../d7/d49/classgame__engine_1_1visuals_1_1_animation_player.html#a53b0eb15c11c2649b64e6c94a96f21e2" target="_top" xlink:title="game_engine.visuals.Animation\lPlayer.getImageBounds">
<polygon fill="white" stroke="black" points="216.5,-49 216.5,-79 385.5,-79 385.5,-49 216.5,-49"/>
<text text-anchor="start" x="224.5" y="-67" font-family="Helvetica,sans-Serif" font-size="10.00">game_engine.visuals.Animation</text>
<text text-anchor="middle" x="301" y="-56" font-family="Helvetica,sans-Serif" font-size="10.00">Player.getImageBounds</text>
</a>
</g>
</g>
<!-- Node1&#45;&gt;Node3 -->
<g id="edge2" class="edge"><title>Node1&#45;&gt;Node3</title>
<path fill="none" stroke="midnightblue" d="M169.657,-64C181.655,-64 194.064,-64 206.241,-64"/>
<polygon fill="midnightblue" stroke="midnightblue" points="206.401,-67.5001 216.401,-64 206.401,-60.5001 206.401,-67.5001"/>
</g>
<!-- Node4 -->
<g id="node4" class="node"><title>Node4</title>
<g id="a_node4"><a xlink:href="../../de/d86/classgame__engine_1_1visuals_1_1_dimension.html#a30a627da15298901fc10675636958c8e" target="_top" xlink:title="game_engine.visuals.Dimension.get\lWidth">
<polygon fill="white" stroke="black" points="206,-0 206,-30 396,-30 396,-0 206,-0"/>
<text text-anchor="start" x="214" y="-18" font-family="Helvetica,sans-Serif" font-size="10.00">game_engine.visuals.Dimension.get</text>
<text text-anchor="middle" x="301" y="-7" font-family="Helvetica,sans-Serif" font-size="10.00">Width</text>
</a>
</g>
</g>
<!-- Node1&#45;&gt;Node4 -->
<g id="edge3" class="edge"><title>Node1&#45;&gt;Node4</title>
<path fill="none" stroke="midnightblue" d="M151.661,-48.9654C174.668,-43.6976 200.687,-37.7399 224.438,-32.3016"/>
<polygon fill="midnightblue" stroke="midnightblue" points="225.496,-35.6499 234.463,-30.0062 223.934,-28.8265 225.496,-35.6499"/>
</g>
</g>
</svg>
