<?xml version="1.0" encoding="UTF-8" standalone="no"?>
<!DOCTYPE svg PUBLIC "-//W3C//DTD SVG 1.1//EN"
 "http://www.w3.org/Graphics/SVG/1.1/DTD/svg11.dtd">
<!-- Generated by graphviz version 2.36.0 (20140111.2315)
 -->
<!-- Title: game_engine.visuals.AnimationPlayer.getViewport Pages: 1 -->
<svg width="404pt" height="87pt"
 viewBox="0.00 0.00 404.00 87.00" xmlns="http://www.w3.org/2000/svg" xmlns:xlink="http://www.w3.org/1999/xlink">
<g id="graph0" class="graph" transform="scale(1 1) rotate(0) translate(4 83)">
<title>game_engine.visuals.AnimationPlayer.getViewport</title>
<polygon fill="white" stroke="none" points="-4,4 -4,-83 400,-83 400,4 -4,4"/>
<!-- Node1 -->
<g id="node1" class="node"><title>Node1</title>
<polygon fill="#bfbfbf" stroke="black" points="0.5,-24 0.5,-54 169.5,-54 169.5,-24 0.5,-24"/>
<text text-anchor="start" x="8.5" y="-42" font-family="Helvetica,sans-Serif" font-size="10.00">game_engine.visuals.Animation</text>
<text text-anchor="middle" x="85" y="-31" font-family="Helvetica,sans-Serif" font-size="10.00">Player.getViewport</text>
</g>
<!-- Node2 -->
<g id="node2" class="node"><title>Node2</title>
<g id="a_node2"><a xlink:href="../../de/d86/classgame__engine_1_1visuals_1_1_dimension.html#a4d803b0b96a4432a77516cf17c413617" target="_top" xlink:title="game_engine.visuals.Dimension.get\lHeight">
<polygon fill="white" stroke="black" points="206,-49 206,-79 396,-79 396,-49 206,-49"/>
<text text-anchor="start" x="214" y="-67" font-family="Helvetica,sans-Serif" font-size="10.00">game_engine.visuals.Dimension.get</text>
<text text-anchor="middle" x="301" y="-56" font-family="Helvetica,sans-Serif" font-size="10.00">Height</text>
</a>
</g>
</g>
<!-- Node1&#45;&gt;Node2 -->
<g id="edge1" class="edge"><title>Node1&#45;&gt;Node2</title>
<path fill="none" stroke="midnightblue" d="M169.657,-48.7731C178.167,-49.7672 186.885,-50.7856 195.579,-51.8013"/>
<polygon fill="midnightblue" stroke="midnightblue" points="195.423,-55.3067 205.761,-52.9908 196.235,-48.354 195.423,-55.3067"/>
</g>
<!-- Node3 -->
<g id="node3" class="node"><title>Node3</title>
<g id="a_node3"><a xlink:href="../../de/d86/classgame__engine_1_1visuals_1_1_dimension.html#a30a627da15298901fc10675636958c8e" target="_top" xlink:title="game_engine.visuals.Dimension.get\lWidth">
<polygon fill="white" stroke="black" points="206,-0 206,-30 396,-30 396,-0 206,-0"/>
<text text-anchor="start" x="214" y="-18" font-family="Helvetica,sans-Serif" font-size="10.00">game_engine.visuals.Dimension.get</text>
<text text-anchor="middle" x="301" y="-7" font-family="Helvetica,sans-Serif" font-size="10.00">Width</text>
</a>
</g>
</g>
<!-- Node1&#45;&gt;Node3 -->
<g id="edge2" class="edge"><title>Node1&#45;&gt;Node3</title>
<path fill="none" stroke="midnightblue" d="M169.657,-29.6179C178.167,-28.6635 186.885,-27.6858 195.579,-26.7108"/>
<polygon fill="midnightblue" stroke="midnightblue" points="196.214,-30.1616 205.761,-25.5688 195.433,-23.2052 196.214,-30.1616"/>
</g>
</g>
</svg>
