<?xml version="1.0" encoding="UTF-8" standalone="no"?>
<!DOCTYPE svg PUBLIC "-//W3C//DTD SVG 1.1//EN"
 "http://www.w3.org/Graphics/SVG/1.1/DTD/svg11.dtd">
<!-- Generated by graphviz version 2.36.0 (20140111.2315)
 -->
<!-- Title: resources.processing.SpriteSheetCreationUtility Pages: 1 -->
<svg width="156pt" height="108pt"
 viewBox="0.00 0.00 156.00 108.00" xmlns="http://www.w3.org/2000/svg" xmlns:xlink="http://www.w3.org/1999/xlink">
<g id="graph0" class="graph" transform="scale(1 1) rotate(0) translate(4 104)">
<title>resources.processing.SpriteSheetCreationUtility</title>
<polygon fill="white" stroke="none" points="-4,4 -4,-104 152,-104 152,4 -4,4"/>
<!-- Node1 -->
<g id="node1" class="node"><title>Node1</title>
<polygon fill="#bfbfbf" stroke="black" points="-1,-1 -1,-31 149,-31 149,-1 -1,-1"/>
<text text-anchor="start" x="7" y="-19" font-family="Helvetica,sans-Serif" font-size="10.00">resources.processing.Sprite</text>
<text text-anchor="middle" x="74" y="-8" font-family="Helvetica,sans-Serif" font-size="10.00">SheetCreationUtility</text>
</g>
<!-- Node2 -->
<g id="node2" class="node"><title>Node2</title>
<polygon fill="white" stroke="#bfbfbf" points="33,-80.5 33,-99.5 115,-99.5 115,-80.5 33,-80.5"/>
<text text-anchor="middle" x="74" y="-87.5" font-family="Helvetica,sans-Serif" font-size="10.00">FilenameFilter</text>
</g>
<!-- Node2&#45;&gt;Node1 -->
<g id="edge1" class="edge"><title>Node2&#45;&gt;Node1</title>
<path fill="none" stroke="#9a32cd" stroke-dasharray="5,2" d="M74,-70.0846C74,-57.9148 74,-42.3538 74,-31.2316"/>
<polygon fill="#9a32cd" stroke="#9a32cd" points="70.5001,-70.4579 74,-80.4579 77.5001,-70.4579 70.5001,-70.4579"/>
<text text-anchor="middle" x="108" y="-53.5" font-family="Helvetica,sans-Serif" font-size="10.00"> IMAGE_FILTER</text>
</g>
</g>
</svg>
