<?xml version="1.0" encoding="UTF-8" standalone="no"?>
<!DOCTYPE svg PUBLIC "-//W3C//DTD SVG 1.1//EN"
 "http://www.w3.org/Graphics/SVG/1.1/DTD/svg11.dtd">
<!-- Generated by graphviz version 2.36.0 (20140111.2315)
 -->
<!-- Title: engine.gameRepresentation.evaluatables.evaluators.NotCollision&lt; A, B &gt; Pages: 1 -->
<svg width="674pt" height="87pt"
 viewBox="0.00 0.00 674.00 87.00" xmlns="http://www.w3.org/2000/svg" xmlns:xlink="http://www.w3.org/1999/xlink">
<g id="graph0" class="graph" transform="scale(1 1) rotate(0) translate(4 83)">
<title>engine.gameRepresentation.evaluatables.evaluators.NotCollision&lt; A, B &gt;</title>
<polygon fill="white" stroke="none" points="-4,4 -4,-83 670,-83 670,4 -4,4"/>
<!-- Node1 -->
<g id="node1" class="node"><title>Node1</title>
<polygon fill="#bfbfbf" stroke="black" points="394,-24 394,-54 666,-54 666,-24 394,-24"/>
<text text-anchor="start" x="402" y="-42" font-family="Helvetica,sans-Serif" font-size="10.00">engine.gameRepresentation.evaluatables.evaluators.</text>
<text text-anchor="middle" x="530" y="-31" font-family="Helvetica,sans-Serif" font-size="10.00">NotCollision&lt; A, B &gt;</text>
</g>
<!-- Node2 -->
<g id="node2" class="node"><title>Node2</title>
<g id="a_node2"><a xlink:href="../../dc/d0e/classengine_1_1game_representation_1_1evaluatables_1_1evaluators_1_1_evaluator.html" target="_top" xlink:title="engine.gameRepresentation.evaluatables.evaluators.\lEvaluator\&lt; A, B, Boolean \&gt;">
<polygon fill="white" stroke="black" points="0,-49 0,-79 272,-79 272,-49 0,-49"/>
<text text-anchor="start" x="8" y="-67" font-family="Helvetica,sans-Serif" font-size="10.00">engine.gameRepresentation.evaluatables.evaluators.</text>
<text text-anchor="middle" x="136" y="-56" font-family="Helvetica,sans-Serif" font-size="10.00">Evaluator&lt; A, B, Boolean &gt;</text>
</a>
</g>
</g>
<!-- Node2&#45;&gt;Node1 -->
<g id="edge1" class="edge"><title>Node2&#45;&gt;Node1</title>
<path fill="none" stroke="midnightblue" d="M282.385,-54.728C318.824,-52.4041 357.768,-49.9204 393.694,-47.6292"/>
<polygon fill="midnightblue" stroke="midnightblue" points="281.935,-51.2495 272.179,-55.3789 282.381,-58.2353 281.935,-51.2495"/>
</g>
<!-- Node3 -->
<g id="node3" class="node"><title>Node3</title>
<g id="a_node3"><a xlink:href="../../dc/d0e/classengine_1_1game_representation_1_1evaluatables_1_1evaluators_1_1_evaluator.html" target="_top" xlink:title="engine.gameRepresentation.evaluatables.evaluators.\lEvaluator\&lt;?,?,?\&gt;">
<polygon fill="white" stroke="black" points="0,-0 0,-30 272,-30 272,-0 0,-0"/>
<text text-anchor="start" x="8" y="-18" font-family="Helvetica,sans-Serif" font-size="10.00">engine.gameRepresentation.evaluatables.evaluators.</text>
<text text-anchor="middle" x="136" y="-7" font-family="Helvetica,sans-Serif" font-size="10.00">Evaluator&lt;?,?,?&gt;</text>
</a>
</g>
</g>
<!-- Node3&#45;&gt;Node1 -->
<g id="edge2" class="edge"><title>Node3&#45;&gt;Node1</title>
<path fill="none" stroke="#9a32cd" stroke-dasharray="5,2" d="M282.385,-23.9011C318.824,-26.1321 357.768,-28.5164 393.694,-30.716"/>
<polygon fill="#9a32cd" stroke="#9a32cd" points="282.374,-20.394 272.179,-23.2762 281.946,-27.3809 282.374,-20.394"/>
<text text-anchor="middle" x="333" y="-32" font-family="Helvetica,sans-Serif" font-size="10.00"> collisionEvaluator</text>
</g>
</g>
</svg>
