<?xml version="1.0" encoding="UTF-8" standalone="no"?>
<!DOCTYPE svg PUBLIC "-//W3C//DTD SVG 1.1//EN"
 "http://www.w3.org/Graphics/SVG/1.1/DTD/svg11.dtd">
<!-- Generated by graphviz version 2.36.0 (20140111.2315)
 -->
<!-- Title: model.state.DescribableState.updateDescription Pages: 1 -->
<svg width="804pt" height="38pt"
 viewBox="0.00 0.00 804.00 38.00" xmlns="http://www.w3.org/2000/svg" xmlns:xlink="http://www.w3.org/1999/xlink">
<g id="graph0" class="graph" transform="scale(1 1) rotate(0) translate(4 34)">
<title>model.state.DescribableState.updateDescription</title>
<polygon fill="white" stroke="none" points="-4,4 -4,-34 800,-34 800,4 -4,4"/>
<!-- Node1 -->
<g id="node1" class="node"><title>Node1</title>
<polygon fill="#bfbfbf" stroke="black" points="0.5,-0 0.5,-30 197.5,-30 197.5,-0 0.5,-0"/>
<text text-anchor="start" x="8.5" y="-18" font-family="Helvetica,sans-Serif" font-size="10.00">model.state.DescribableState.update</text>
<text text-anchor="middle" x="99" y="-7" font-family="Helvetica,sans-Serif" font-size="10.00">Description</text>
</g>
<!-- Node2 -->
<g id="node2" class="node"><title>Node2</title>
<g id="a_node2"><a xlink:href="../../de/d21/classmodel_1_1_main_model.html#a7b4313b612f46386bde3a982728e69d5" target="_top" xlink:title="model.MainModel.updateDescribable\lState">
<polygon fill="white" stroke="black" points="234,-0 234,-30 428,-30 428,-0 234,-0"/>
<text text-anchor="start" x="242" y="-18" font-family="Helvetica,sans-Serif" font-size="10.00">model.MainModel.updateDescribable</text>
<text text-anchor="middle" x="331" y="-7" font-family="Helvetica,sans-Serif" font-size="10.00">State</text>
</a>
</g>
</g>
<!-- Node1&#45;&gt;Node2 -->
<g id="edge1" class="edge"><title>Node1&#45;&gt;Node2</title>
<path fill="none" stroke="midnightblue" d="M207.714,-15C216.412,-15 225.167,-15 233.776,-15"/>
<polygon fill="midnightblue" stroke="midnightblue" points="207.541,-11.5001 197.541,-15 207.541,-18.5001 207.541,-11.5001"/>
</g>
<!-- Node3 -->
<g id="node3" class="node"><title>Node3</title>
<g id="a_node3"><a xlink:href="../../d0/db5/classview_1_1editor_1_1_editor_screen.html#a47de3e6af78c842ca02d2ace8085c21a" target="_top" xlink:title="view.editor.EditorScreen.init\lInfoBox">
<polygon fill="white" stroke="black" points="464,-0 464,-30 612,-30 612,-0 464,-0"/>
<text text-anchor="start" x="472" y="-18" font-family="Helvetica,sans-Serif" font-size="10.00">view.editor.EditorScreen.init</text>
<text text-anchor="middle" x="538" y="-7" font-family="Helvetica,sans-Serif" font-size="10.00">InfoBox</text>
</a>
</g>
</g>
<!-- Node2&#45;&gt;Node3 -->
<g id="edge2" class="edge"><title>Node2&#45;&gt;Node3</title>
<path fill="none" stroke="midnightblue" d="M438.304,-15C446.912,-15 455.484,-15 463.777,-15"/>
<polygon fill="midnightblue" stroke="midnightblue" points="438.197,-11.5001 428.197,-15 438.197,-18.5001 438.197,-11.5001"/>
</g>
<!-- Node4 -->
<g id="node4" class="node"><title>Node4</title>
<g id="a_node4"><a xlink:href="../../d0/db5/classview_1_1editor_1_1_editor_screen.html#aba6c32908c25fa4f755a312e92860c02" target="_top" xlink:title="view.editor.EditorScreen.init">
<polygon fill="white" stroke="black" points="648,-5.5 648,-24.5 796,-24.5 796,-5.5 648,-5.5"/>
<text text-anchor="middle" x="722" y="-12.5" font-family="Helvetica,sans-Serif" font-size="10.00">view.editor.EditorScreen.init</text>
</a>
</g>
</g>
<!-- Node3&#45;&gt;Node4 -->
<g id="edge3" class="edge"><title>Node3&#45;&gt;Node4</title>
<path fill="none" stroke="midnightblue" d="M622.516,-15C630.992,-15 639.556,-15 647.91,-15"/>
<polygon fill="midnightblue" stroke="midnightblue" points="622.24,-11.5001 612.24,-15 622.24,-18.5001 622.24,-11.5001"/>
</g>
</g>
</svg>
