<?xml version="1.0" encoding="UTF-8" standalone="no"?>
<!DOCTYPE svg PUBLIC "-//W3C//DTD SVG 1.1//EN"
 "http://www.w3.org/Graphics/SVG/1.1/DTD/svg11.dtd">
<!-- Generated by graphviz version 2.36.0 (20140111.2315)
 -->
<!-- Title: editor.wizards.DrawableGameElementWizard Pages: 1 -->
<svg width="928pt" height="620pt"
 viewBox="0.00 0.00 928.00 620.00" xmlns="http://www.w3.org/2000/svg" xmlns:xlink="http://www.w3.org/1999/xlink">
<g id="graph0" class="graph" transform="scale(1 1) rotate(0) translate(4 616)">
<title>editor.wizards.DrawableGameElementWizard</title>
<polygon fill="white" stroke="none" points="-4,4 -4,-616 924,-616 924,4 -4,4"/>
<!-- Node1 -->
<g id="node1" class="node"><title>Node1</title>
<polygon fill="#bfbfbf" stroke="black" points="762,-198 762,-228 920,-228 920,-198 762,-198"/>
<text text-anchor="start" x="770" y="-216" font-family="Helvetica,sans-Serif" font-size="10.00">editor.wizards.DrawableGame</text>
<text text-anchor="middle" x="841" y="-205" font-family="Helvetica,sans-Serif" font-size="10.00">ElementWizard</text>
</g>
<!-- Node2 -->
<g id="node2" class="node"><title>Node2</title>
<g id="a_node2"><a xlink:href="../../d9/d24/classeditor_1_1wizards_1_1_wizard.html" target="_top" xlink:title="editor.wizards.Wizard">
<polygon fill="white" stroke="black" points="517,-446.5 517,-465.5 633,-465.5 633,-446.5 517,-446.5"/>
<text text-anchor="middle" x="575" y="-453.5" font-family="Helvetica,sans-Serif" font-size="10.00">editor.wizards.Wizard</text>
</a>
</g>
</g>
<!-- Node2&#45;&gt;Node1 -->
<g id="edge1" class="edge"><title>Node2&#45;&gt;Node1</title>
<path fill="none" stroke="midnightblue" d="M605.121,-441.703C640.606,-423.341 701.122,-388.916 744,-348 783.324,-310.475 816.909,-254.775 831.796,-228.19"/>
<polygon fill="midnightblue" stroke="midnightblue" points="603.132,-438.788 595.812,-446.447 606.311,-445.025 603.132,-438.788"/>
</g>
<!-- Node3 -->
<g id="node3" class="node"><title>Node3</title>
<g id="a_node3"><a xlink:href="../../d7/d84/interfaceview_1_1_g_u_i_controller.html" target="_top" xlink:title="view.GUIController">
<polygon fill="white" stroke="black" points="257.5,-592.5 257.5,-611.5 360.5,-611.5 360.5,-592.5 257.5,-592.5"/>
<text text-anchor="middle" x="309" y="-599.5" font-family="Helvetica,sans-Serif" font-size="10.00">view.GUIController</text>
</a>
</g>
</g>
<!-- Node3&#45;&gt;Node2 -->
<g id="edge2" class="edge"><title>Node3&#45;&gt;Node2</title>
<path fill="none" stroke="midnightblue" d="M370.928,-599.958C408.334,-596.231 455.835,-586.856 492,-564 531.802,-538.846 559.462,-487.077 569.659,-465.632"/>
<polygon fill="midnightblue" stroke="midnightblue" points="370.315,-596.498 360.663,-600.866 370.932,-603.471 370.315,-596.498"/>
</g>
<!-- Node4 -->
<g id="node4" class="node"><title>Node4</title>
<polygon fill="white" stroke="#bfbfbf" points="286.5,-554.5 286.5,-573.5 331.5,-573.5 331.5,-554.5 286.5,-554.5"/>
<text text-anchor="middle" x="309" y="-561.5" font-family="Helvetica,sans-Serif" font-size="10.00">Stage</text>
</g>
<!-- Node4&#45;&gt;Node2 -->
<g id="edge3" class="edge"><title>Node4&#45;&gt;Node2</title>
<path fill="none" stroke="#9a32cd" stroke-dasharray="5,2" d="M342.014,-560.15C379.463,-554.743 442.621,-542.777 492,-519 521.115,-504.981 549.827,-479.53 564.308,-465.654"/>
<polygon fill="#9a32cd" stroke="#9a32cd" points="341.144,-556.736 331.713,-561.564 342.097,-563.671 341.144,-556.736"/>
<text text-anchor="middle" x="446" y="-552" font-family="Helvetica,sans-Serif" font-size="10.00"> myStage</text>
</g>
<!-- Node5 -->
<g id="node5" class="node"><title>Node5</title>
<polygon fill="white" stroke="#bfbfbf" points="236,-505 236,-535 382,-535 382,-505 236,-505"/>
<text text-anchor="start" x="244" y="-523" font-family="Helvetica,sans-Serif" font-size="10.00">Consumer&lt; editor.wizards.</text>
<text text-anchor="middle" x="309" y="-512" font-family="Helvetica,sans-Serif" font-size="10.00">WizardData &gt;</text>
</g>
<!-- Node5&#45;&gt;Node2 -->
<g id="edge4" class="edge"><title>Node5&#45;&gt;Node2</title>
<path fill="none" stroke="#9a32cd" stroke-dasharray="5,2" d="M392.286,-506.139C423.703,-500.217 459.718,-492.662 492,-484 511.324,-478.815 532.702,-471.46 548.784,-465.589"/>
<polygon fill="#9a32cd" stroke="#9a32cd" points="391.449,-502.735 382.257,-508.004 392.729,-509.617 391.449,-502.735"/>
<text text-anchor="middle" x="446" y="-507" font-family="Helvetica,sans-Serif" font-size="10.00"> mySaveConsumer</text>
</g>
<!-- Node6 -->
<g id="node6" class="node"><title>Node6</title>
<g id="a_node6"><a xlink:href="../../dc/d23/classeditor_1_1wizards_1_1_wizard_data.html" target="_top" xlink:title="editor.wizards.WizardData">
<polygon fill="white" stroke="black" points="239,-466.5 239,-485.5 379,-485.5 379,-466.5 239,-466.5"/>
<text text-anchor="middle" x="309" y="-473.5" font-family="Helvetica,sans-Serif" font-size="10.00">editor.wizards.WizardData</text>
</a>
</g>
</g>
<!-- Node6&#45;&gt;Node2 -->
<g id="edge5" class="edge"><title>Node6&#45;&gt;Node2</title>
<path fill="none" stroke="#9a32cd" stroke-dasharray="5,2" d="M389.019,-470.014C430.175,-466.896 479.569,-463.154 516.96,-460.321"/>
<polygon fill="#9a32cd" stroke="#9a32cd" points="388.725,-466.526 379.018,-470.771 389.254,-473.506 388.725,-466.526"/>
<text text-anchor="middle" x="446" y="-472" font-family="Helvetica,sans-Serif" font-size="10.00"> userInput</text>
</g>
<!-- Node7 -->
<g id="node7" class="node"><title>Node7</title>
<polygon fill="white" stroke="#bfbfbf" points="0,-483 0,-513 144,-513 144,-483 0,-483"/>
<text text-anchor="start" x="8" y="-501" font-family="Helvetica,sans-Serif" font-size="10.00">List&lt; editor.wizards.Wizard</text>
<text text-anchor="middle" x="72" y="-490" font-family="Helvetica,sans-Serif" font-size="10.00">Data &gt;</text>
</g>
<!-- Node7&#45;&gt;Node6 -->
<g id="edge6" class="edge"><title>Node7&#45;&gt;Node6</title>
<path fill="none" stroke="#9a32cd" stroke-dasharray="5,2" d="M154.145,-490.403C181.686,-487.825 212.182,-484.97 238.711,-482.487"/>
<polygon fill="#9a32cd" stroke="#9a32cd" points="153.776,-486.923 144.145,-491.34 154.428,-493.892 153.776,-486.923"/>
<text text-anchor="middle" x="190" y="-492" font-family="Helvetica,sans-Serif" font-size="10.00"> myWizards</text>
</g>
<!-- Node8 -->
<g id="node8" class="node"><title>Node8</title>
<polygon fill="white" stroke="#bfbfbf" points="11,-444.5 11,-463.5 133,-463.5 133,-444.5 11,-444.5"/>
<text text-anchor="middle" x="72" y="-451.5" font-family="Helvetica,sans-Serif" font-size="10.00">Map&lt; String, String &gt;</text>
</g>
<!-- Node8&#45;&gt;Node6 -->
<g id="edge7" class="edge"><title>Node8&#45;&gt;Node6</title>
<path fill="none" stroke="#9a32cd" stroke-dasharray="5,2" d="M143.254,-460.577C173.471,-463.406 208.689,-466.703 238.789,-469.521"/>
<polygon fill="#9a32cd" stroke="#9a32cd" points="143.496,-457.084 133.213,-459.637 142.843,-464.054 143.496,-457.084"/>
<text text-anchor="middle" x="190" y="-470" font-family="Helvetica,sans-Serif" font-size="10.00"> myData</text>
</g>
<!-- Node9 -->
<g id="node9" class="node"><title>Node9</title>
<polygon fill="white" stroke="#bfbfbf" points="284.5,-428.5 284.5,-447.5 333.5,-447.5 333.5,-428.5 284.5,-428.5"/>
<text text-anchor="middle" x="309" y="-435.5" font-family="Helvetica,sans-Serif" font-size="10.00">Button</text>
</g>
<!-- Node9&#45;&gt;Node1 -->
<g id="edge18" class="edge"><title>Node9&#45;&gt;Node1</title>
<path fill="none" stroke="#9a32cd" stroke-dasharray="5,2" d="M344.122,-435.877C357.385,-433.437 371.808,-428.562 382,-419 400.449,-401.691 381.016,-381.721 400,-365 516.951,-261.991 604.145,-365.768 744,-297 778.58,-279.997 810.502,-247.301 827.405,-228.1"/>
<polygon fill="#9a32cd" stroke="#9a32cd" points="343.237,-432.468 333.836,-437.356 344.233,-439.397 343.237,-432.468"/>
<text text-anchor="middle" x="575" y="-359" font-family="Helvetica,sans-Serif" font-size="10.00"> image</text>
<text text-anchor="middle" x="575" y="-348" font-family="Helvetica,sans-Serif" font-size="10.00">stringAttribute</text>
<text text-anchor="middle" x="575" y="-337" font-family="Helvetica,sans-Serif" font-size="10.00">trigger</text>
<text text-anchor="middle" x="575" y="-326" font-family="Helvetica,sans-Serif" font-size="10.00">numberAttribute</text>
</g>
<!-- Node9&#45;&gt;Node2 -->
<g id="edge8" class="edge"><title>Node9&#45;&gt;Node2</title>
<path fill="none" stroke="#9a32cd" stroke-dasharray="5,2" d="M343.746,-437.261C380.349,-436.805 440.458,-437.061 492,-442 502.782,-443.033 514.285,-444.663 525.16,-446.45"/>
<polygon fill="#9a32cd" stroke="#9a32cd" points="343.571,-433.763 333.624,-437.413 343.676,-440.763 343.571,-433.763"/>
<text text-anchor="middle" x="446" y="-445" font-family="Helvetica,sans-Serif" font-size="10.00"> save</text>
</g>
<!-- Node10 -->
<g id="node10" class="node"><title>Node10</title>
<polygon fill="white" stroke="#bfbfbf" points="278.5,-390.5 278.5,-409.5 339.5,-409.5 339.5,-390.5 278.5,-390.5"/>
<text text-anchor="middle" x="309" y="-397.5" font-family="Helvetica,sans-Serif" font-size="10.00">SplitPane</text>
</g>
<!-- Node10&#45;&gt;Node2 -->
<g id="edge9" class="edge"><title>Node10&#45;&gt;Node2</title>
<path fill="none" stroke="#9a32cd" stroke-dasharray="5,2" d="M350.192,-402.11C387.446,-404.761 444.165,-410.574 492,-423 513.982,-428.71 537.954,-438.848 554.268,-446.385"/>
<polygon fill="#9a32cd" stroke="#9a32cd" points="349.966,-398.587 339.756,-401.414 349.501,-405.572 349.966,-398.587"/>
<text text-anchor="middle" x="446" y="-426" font-family="Helvetica,sans-Serif" font-size="10.00"> root</text>
</g>
<!-- Node11 -->
<g id="node11" class="node"><title>Node11</title>
<polygon fill="white" stroke="#bfbfbf" points="291.5,-352.5 291.5,-371.5 326.5,-371.5 326.5,-352.5 291.5,-352.5"/>
<text text-anchor="middle" x="309" y="-359.5" font-family="Helvetica,sans-Serif" font-size="10.00">Text</text>
</g>
<!-- Node11&#45;&gt;Node2 -->
<g id="edge10" class="edge"><title>Node11&#45;&gt;Node2</title>
<path fill="none" stroke="#9a32cd" stroke-dasharray="5,2" d="M336.902,-362.566C373.467,-364.213 440.228,-370.381 492,-393 521.612,-405.937 550.122,-431.828 564.439,-446.06"/>
<polygon fill="#9a32cd" stroke="#9a32cd" points="336.695,-359.056 326.573,-362.186 336.438,-366.051 336.695,-359.056"/>
<text text-anchor="middle" x="446" y="-396" font-family="Helvetica,sans-Serif" font-size="10.00"> errorMessage</text>
</g>
<!-- Node12 -->
<g id="node12" class="node"><title>Node12</title>
<g id="a_node12"><a xlink:href="../../d5/de7/classeditor_1_1wizards_1_1_grid_lines.html" target="_top" xlink:title="editor.wizards.GridLines">
<polygon fill="white" stroke="black" points="510.5,-278.5 510.5,-297.5 639.5,-297.5 639.5,-278.5 510.5,-278.5"/>
<text text-anchor="middle" x="575" y="-285.5" font-family="Helvetica,sans-Serif" font-size="10.00">editor.wizards.GridLines</text>
</a>
</g>
</g>
<!-- Node12&#45;&gt;Node1 -->
<g id="edge11" class="edge"><title>Node12&#45;&gt;Node1</title>
<path fill="none" stroke="#9a32cd" stroke-dasharray="5,2" d="M650.074,-282.343C679.784,-278.698 714.019,-272.734 744,-263 770.095,-254.527 797.65,-239.456 816.512,-228.068"/>
<polygon fill="#9a32cd" stroke="#9a32cd" points="649.299,-278.91 639.769,-283.538 650.106,-285.863 649.299,-278.91"/>
<text text-anchor="middle" x="701" y="-285" font-family="Helvetica,sans-Serif" font-size="10.00"> gridLines</text>
</g>
<!-- Node13 -->
<g id="node13" class="node"><title>Node13</title>
<polygon fill="white" stroke="#bfbfbf" points="286,-255.5 286,-274.5 332,-274.5 332,-255.5 286,-255.5"/>
<text text-anchor="middle" x="309" y="-262.5" font-family="Helvetica,sans-Serif" font-size="10.00">Group</text>
</g>
<!-- Node13&#45;&gt;Node1 -->
<g id="edge19" class="edge"><title>Node13&#45;&gt;Node1</title>
<path fill="none" stroke="#9a32cd" stroke-dasharray="5,2" d="M342.408,-262.375C414.6,-256.448 594.099,-241.272 744,-225 749.844,-224.366 755.885,-223.68 761.959,-222.97"/>
<polygon fill="#9a32cd" stroke="#9a32cd" points="341.838,-258.91 332.157,-263.214 342.409,-265.887 341.838,-258.91"/>
<text text-anchor="middle" x="575" y="-251" font-family="Helvetica,sans-Serif" font-size="10.00"> spritesheet</text>
</g>
<!-- Node13&#45;&gt;Node12 -->
<g id="edge12" class="edge"><title>Node13&#45;&gt;Node12</title>
<path fill="none" stroke="midnightblue" d="M342.165,-267.802C383.787,-271.428 457.249,-277.828 510.341,-282.454"/>
<polygon fill="midnightblue" stroke="midnightblue" points="342.32,-264.303 332.054,-266.921 341.713,-271.276 342.32,-264.303"/>
</g>
<!-- Node14 -->
<g id="node14" class="node"><title>Node14</title>
<polygon fill="white" stroke="#bfbfbf" points="543,-193.5 543,-212.5 607,-212.5 607,-193.5 543,-193.5"/>
<text text-anchor="middle" x="575" y="-200.5" font-family="Helvetica,sans-Serif" font-size="10.00">CheckBox</text>
</g>
<!-- Node14&#45;&gt;Node1 -->
<g id="edge13" class="edge"><title>Node14&#45;&gt;Node1</title>
<path fill="none" stroke="#9a32cd" stroke-dasharray="5,2" d="M617.394,-204.568C656,-206.03 714.589,-208.25 761.971,-210.044"/>
<polygon fill="#9a32cd" stroke="#9a32cd" points="617.186,-201.058 607.06,-204.177 616.921,-208.053 617.186,-201.058"/>
<text text-anchor="middle" x="701" y="-213" font-family="Helvetica,sans-Serif" font-size="10.00"> animationRepeat</text>
</g>
<!-- Node15 -->
<g id="node15" class="node"><title>Node15</title>
<polygon fill="white" stroke="#bfbfbf" points="542,-155.5 542,-174.5 608,-174.5 608,-155.5 542,-155.5"/>
<text text-anchor="middle" x="575" y="-162.5" font-family="Helvetica,sans-Serif" font-size="10.00">ScrollPane</text>
</g>
<!-- Node15&#45;&gt;Node1 -->
<g id="edge14" class="edge"><title>Node15&#45;&gt;Node1</title>
<path fill="none" stroke="#9a32cd" stroke-dasharray="5,2" d="M618.36,-171.137C652.399,-176.229 701.389,-183.922 744,-192 753.638,-193.827 763.79,-195.893 773.738,-197.998"/>
<polygon fill="#9a32cd" stroke="#9a32cd" points="618.706,-167.65 608.3,-169.642 617.677,-174.574 618.706,-167.65"/>
<text text-anchor="middle" x="701" y="-195" font-family="Helvetica,sans-Serif" font-size="10.00"> imageScroll</text>
</g>
<!-- Node16 -->
<g id="node16" class="node"><title>Node16</title>
<polygon fill="white" stroke="#bfbfbf" points="547,-82.5 547,-101.5 603,-101.5 603,-82.5 547,-82.5"/>
<text text-anchor="middle" x="575" y="-89.5" font-family="Helvetica,sans-Serif" font-size="10.00">TextField</text>
</g>
<!-- Node16&#45;&gt;Node1 -->
<g id="edge15" class="edge"><title>Node16&#45;&gt;Node1</title>
<path fill="none" stroke="#9a32cd" stroke-dasharray="5,2" d="M613.621,-88.1103C649.124,-86.1104 702.892,-87.5025 744,-108 784.893,-128.39 816.817,-174.145 831.38,-197.956"/>
<polygon fill="#9a32cd" stroke="#9a32cd" points="612.961,-84.6472 603.224,-88.8224 613.439,-91.6308 612.961,-84.6472"/>
<text text-anchor="middle" x="701" y="-166" font-family="Helvetica,sans-Serif" font-size="10.00"> startFrame</text>
<text text-anchor="middle" x="701" y="-155" font-family="Helvetica,sans-Serif" font-size="10.00">numRows</text>
<text text-anchor="middle" x="701" y="-144" font-family="Helvetica,sans-Serif" font-size="10.00">stopFrame</text>
<text text-anchor="middle" x="701" y="-133" font-family="Helvetica,sans-Serif" font-size="10.00">frameWidthText</text>
<text text-anchor="middle" x="701" y="-122" font-family="Helvetica,sans-Serif" font-size="10.00">name</text>
<text text-anchor="middle" x="701" y="-111" font-family="Helvetica,sans-Serif" font-size="10.00">frameHeightText</text>
</g>
<!-- Node17 -->
<g id="node17" class="node"><title>Node17</title>
<polygon fill="white" stroke="#bfbfbf" points="541,-44.5 541,-63.5 609,-63.5 609,-44.5 541,-44.5"/>
<text text-anchor="middle" x="575" y="-51.5" font-family="Helvetica,sans-Serif" font-size="10.00">ImageView</text>
</g>
<!-- Node17&#45;&gt;Node1 -->
<g id="edge16" class="edge"><title>Node17&#45;&gt;Node1</title>
<path fill="none" stroke="#9a32cd" stroke-dasharray="5,2" d="M619.349,-49.7409C655.263,-48.3096 706.336,-51.2982 744,-74 792.729,-103.371 822.734,-168.051 834.409,-197.658"/>
<polygon fill="#9a32cd" stroke="#9a32cd" points="618.985,-46.2552 609.184,-50.2793 619.356,-53.2454 618.985,-46.2552"/>
<text text-anchor="middle" x="701" y="-77" font-family="Helvetica,sans-Serif" font-size="10.00"> imageView</text>
</g>
<!-- Node18 -->
<g id="node18" class="node"><title>Node18</title>
<polygon fill="white" stroke="#bfbfbf" points="553,-0.5 553,-19.5 597,-19.5 597,-0.5 553,-0.5"/>
<text text-anchor="middle" x="575" y="-7.5" font-family="Helvetica,sans-Serif" font-size="10.00">Slider</text>
</g>
<!-- Node18&#45;&gt;Node1 -->
<g id="edge17" class="edge"><title>Node18&#45;&gt;Node1</title>
<path fill="none" stroke="#9a32cd" stroke-dasharray="5,2" d="M607.209,-4.37244C643.349,0.375511 703.136,2.58989 744,-25 805.81,-66.7317 830.014,-160.914 837.342,-197.788"/>
<polygon fill="#9a32cd" stroke="#9a32cd" points="606.629,-0.91988 597.239,-5.82632 607.639,-7.84662 606.629,-0.91988"/>
<text text-anchor="middle" x="701" y="-39" font-family="Helvetica,sans-Serif" font-size="10.00"> frameWidth</text>
<text text-anchor="middle" x="701" y="-28" font-family="Helvetica,sans-Serif" font-size="10.00">frameHeight</text>
</g>
</g>
</svg>
