<?xml version="1.0" encoding="UTF-8" standalone="no"?>
<!DOCTYPE svg PUBLIC "-//W3C//DTD SVG 1.1//EN"
 "http://www.w3.org/Graphics/SVG/1.1/DTD/svg11.dtd">
<!-- Generated by graphviz version 2.36.0 (20140111.2315)
 -->
<!-- Title: game_engine.gameRepresentation.DrawableGameElement Pages: 1 -->
<!--zoomable 169 -->
<svg id="main" version="1.1" xmlns="http://www.w3.org/2000/svg" xmlns:xlink="http://www.w3.org/1999/xlink" xml:space="preserve" onload="init(evt)">
<style type="text/css"><![CDATA[
.edge:hover path { stroke: red; }
.edge:hover polygon { stroke: red; fill: red; }
]]></style>
<script type="text/javascript"><![CDATA[
var edges = document.getElementsByTagName('g');
if (edges && edges.length) {
  for (var i=0;i<edges.length;i++) {
    if (edges[i].id.substr(0,4)=='edge') {
      edges[i].setAttribute('class','edge');
    }
  }
}
]]></script>
        <defs>
                <circle id="rim" cx="0" cy="0" r="7"/>
                <circle id="rim2" cx="0" cy="0" r="3.5"/>
                <g id="zoomPlus">
                        <use xlink:href="#rim" fill="#404040">
                                <set attributeName="fill" to="#808080" begin="zoomplus.mouseover" end="zoomplus.mouseout"/>
                        </use>
                        <path d="M-4,0h8M0,-4v8" fill="none" stroke="white" stroke-width="1.5" pointer-events="none"/>
                </g>
                <g id="zoomMin">
                        <use xlink:href="#rim" fill="#404040">
                                <set attributeName="fill" to="#808080" begin="zoomminus.mouseover" end="zoomminus.mouseout"/>
                        </use>
                        <path d="M-4,0h8" fill="none" stroke="white" stroke-width="1.5" pointer-events="none"/>
                </g>
                <g id="dirArrow">
                        <path fill="none" stroke="white" stroke-width="1.5" d="M0,-3.0v7 M-2.5,-0.5L0,-3.0L2.5,-0.5"/>
                </g>
               <g id="resetDef">
                       <use xlink:href="#rim2" fill="#404040">
                               <set attributeName="fill" to="#808080" begin="reset.mouseover" end="reset.mouseout"/>
                       </use>
               </g>
        </defs>

<script type="text/javascript">
var viewWidth = 980;
var viewHeight = 169;
var sectionId = 'dynsection-1';
</script>
<script xlink:href="../../svgpan.js"/>
<svg id="graph" class="graph">
<g id="viewport">
<title>game_engine.gameRepresentation.DrawableGameElement</title>
<polygon fill="white" stroke="none" points="-4,4 -4,-165 976,-165 976,4 -4,4"/>
<!-- Node1 -->
<g id="node1" class="node"><title>Node1</title>
<polygon fill="#bfbfbf" stroke="black" points="784,-44 784,-74 972,-74 972,-44 784,-44"/>
<text text-anchor="start" x="792" y="-62" font-family="Helvetica,sans-Serif" font-size="10.00">game_engine.gameRepresentation.</text>
<text text-anchor="middle" x="878" y="-51" font-family="Helvetica,sans-Serif" font-size="10.00">DrawableGameElement</text>
</g>
<!-- Node2 -->
<g id="node2" class="node"><title>Node2</title>
<g id="a_node2"><a xlink:href="../../df/dff/classgame__engine_1_1game_representation_1_1_game_element.html" target="_top" xlink:title="game_engine.gameRepresentation.\lGameElement">
<polygon fill="white" stroke="black" points="454,-98 454,-128 642,-128 642,-98 454,-98"/>
<text text-anchor="start" x="462" y="-116" font-family="Helvetica,sans-Serif" font-size="10.00">game_engine.gameRepresentation.</text>
<text text-anchor="middle" x="548" y="-105" font-family="Helvetica,sans-Serif" font-size="10.00">GameElement</text>
</a>
</g>
</g>
<!-- Node2&#45;&gt;Node1 -->
<g id="edge1" class="edge"><title>Node2&#45;&gt;Node1</title>
<path fill="none" stroke="midnightblue" d="M650.347,-96.3148C693.623,-89.1902 743.748,-80.9378 785.84,-74.0081"/>
<polygon fill="midnightblue" stroke="midnightblue" points="649.665,-92.8799 640.366,-97.958 650.802,-99.7869 649.665,-92.8799"/>
</g>
<!-- Node3 -->
<g id="node3" class="node"><title>Node3</title>
<polygon fill="white" stroke="#bfbfbf" points="92.5,-141.5 92.5,-160.5 225.5,-160.5 225.5,-141.5 92.5,-141.5"/>
<text text-anchor="middle" x="159" y="-148.5" font-family="Helvetica,sans-Serif" font-size="10.00">Map&lt; String, Number &gt;</text>
</g>
<!-- Node3&#45;&gt;Node2 -->
<g id="edge2" class="edge"><title>Node3&#45;&gt;Node2</title>
<path fill="none" stroke="#9a32cd" stroke-dasharray="5,2" d="M235.718,-145.63C290.784,-141.485 367.094,-135.245 434,-128 440.493,-127.297 447.189,-126.526 453.929,-125.716"/>
<polygon fill="#9a32cd" stroke="#9a32cd" points="235.401,-142.144 225.69,-146.38 235.923,-149.125 235.401,-142.144"/>
<text text-anchor="middle" x="385" y="-141" font-family="Helvetica,sans-Serif" font-size="10.00"> numericalAttributes</text>
</g>
<!-- Node4 -->
<g id="node4" class="node"><title>Node4</title>
<polygon fill="white" stroke="#bfbfbf" points="98,-103.5 98,-122.5 220,-122.5 220,-103.5 98,-103.5"/>
<text text-anchor="middle" x="159" y="-110.5" font-family="Helvetica,sans-Serif" font-size="10.00">Map&lt; String, String &gt;</text>
</g>
<!-- Node4&#45;&gt;Node2 -->
<g id="edge3" class="edge"><title>Node4&#45;&gt;Node2</title>
<path fill="none" stroke="#9a32cd" stroke-dasharray="5,2" d="M230.229,-113C292.913,-113 385.169,-113 453.972,-113"/>
<polygon fill="#9a32cd" stroke="#9a32cd" points="230.044,-109.5 220.044,-113 230.044,-116.5 230.044,-109.5"/>
<text text-anchor="middle" x="385" y="-116" font-family="Helvetica,sans-Serif" font-size="10.00"> textualAttributes</text>
</g>
<!-- Node5 -->
<g id="node5" class="node"><title>Node5</title>
<polygon fill="white" stroke="#bfbfbf" points="0.5,-54 0.5,-84 317.5,-84 317.5,-54 0.5,-54"/>
<text text-anchor="start" x="8.5" y="-72" font-family="Helvetica,sans-Serif" font-size="10.00">Map&lt; game_engine.gameRepresentation.conditions.</text>
<text text-anchor="middle" x="159" y="-61" font-family="Helvetica,sans-Serif" font-size="10.00">Condition, game_engine.gameRepresentation.actions.Action &gt;</text>
</g>
<!-- Node5&#45;&gt;Node2 -->
<g id="edge4" class="edge"><title>Node5&#45;&gt;Node2</title>
<path fill="none" stroke="#9a32cd" stroke-dasharray="5,2" d="M318.753,-85.0801C356.545,-89.1078 396.72,-93.5536 434,-98 440.485,-98.7734 447.175,-99.5967 453.911,-100.444"/>
<polygon fill="#9a32cd" stroke="#9a32cd" points="318.996,-81.5863 308.682,-84.0106 318.257,-88.5472 318.996,-81.5863"/>
<text text-anchor="middle" x="385" y="-101" font-family="Helvetica,sans-Serif" font-size="10.00"> ifThisThenThat</text>
</g>
<!-- Node6 -->
<g id="node6" class="node"><title>Node6</title>
<polygon fill="white" stroke="#bfbfbf" points="452.5,-38.5 452.5,-79.5 643.5,-79.5 643.5,-38.5 452.5,-38.5"/>
<text text-anchor="start" x="460.5" y="-67.5" font-family="Helvetica,sans-Serif" font-size="10.00">Map&lt; String, List&lt;</text>
<text text-anchor="start" x="460.5" y="-56.5" font-family="Helvetica,sans-Serif" font-size="10.00"> game_engine.gameRepresentation.</text>
<text text-anchor="middle" x="548" y="-45.5" font-family="Helvetica,sans-Serif" font-size="10.00">GameElement &gt; &gt;</text>
</g>
<!-- Node6&#45;&gt;Node1 -->
<g id="edge5" class="edge"><title>Node6&#45;&gt;Node1</title>
<path fill="none" stroke="#9a32cd" stroke-dasharray="5,2" d="M654.058,-59C695.751,-59 743.307,-59 783.757,-59"/>
<polygon fill="#9a32cd" stroke="#9a32cd" points="653.871,-55.5001 643.871,-59 653.871,-62.5001 653.871,-55.5001"/>
<text text-anchor="middle" x="714" y="-62" font-family="Helvetica,sans-Serif" font-size="10.00"> interactingElements</text>
</g>
<!-- Node7 -->
<g id="node7" class="node"><title>Node7</title>
<polygon fill="white" stroke="#bfbfbf" points="527,-0.5 527,-19.5 569,-19.5 569,-0.5 527,-0.5"/>
<text text-anchor="middle" x="548" y="-7.5" font-family="Helvetica,sans-Serif" font-size="10.00">Node</text>
</g>
<!-- Node7&#45;&gt;Node1 -->
<g id="edge6" class="edge"><title>Node7&#45;&gt;Node1</title>
<path fill="none" stroke="#9a32cd" stroke-dasharray="5,2" d="M578.93,-14.4713C624.871,-21.3343 714.696,-34.7533 783.783,-45.0743"/>
<polygon fill="#9a32cd" stroke="#9a32cd" points="579.432,-11.0074 569.024,-12.9914 578.397,-17.9306 579.432,-11.0074"/>
<text text-anchor="middle" x="714" y="-45" font-family="Helvetica,sans-Serif" font-size="10.00"> visualRepresentation</text>
</g>
</g>
</svg>
        <g id="navigator" transform="translate(0 0)" fill="#404254">
                <rect fill="#f2f5e9" fill-opacity="0.5" stroke="#606060" stroke-width=".5" x="0" y="0" width="60" height="60"/>
                <use id="zoomplus" xlink:href="#zoomPlus" x="17" y="9" onmousedown="handleZoom(evt,'in')"/>
                <use id="zoomminus" xlink:href="#zoomMin" x="42" y="9" onmousedown="handleZoom(evt,'out')"/>
                <use id="reset" xlink:href="#resetDef" x="30" y="36" onmousedown="handleReset()"/>
                <g id="arrowUp" xlink:href="#dirArrow" transform="translate(30 24)" onmousedown="handlePan(0,-1)">
                  <use xlink:href="#rim" fill="#404040">
                        <set attributeName="fill" to="#808080" begin="arrowUp.mouseover" end="arrowUp.mouseout"/>
                  </use>
                  <path fill="none" stroke="white" stroke-width="1.5" d="M0,-3.0v7 M-2.5,-0.5L0,-3.0L2.5,-0.5"/>
                </g>
                <g id="arrowRight" xlink:href="#dirArrow" transform="rotate(90) translate(36 -43)" onmousedown="handlePan(1,0)">
                  <use xlink:href="#rim" fill="#404040">
                        <set attributeName="fill" to="#808080" begin="arrowRight.mouseover" end="arrowRight.mouseout"/>
                  </use>
                  <path fill="none" stroke="white" stroke-width="1.5" d="M0,-3.0v7 M-2.5,-0.5L0,-3.0L2.5,-0.5"/>
                </g>
                <g id="arrowDown" xlink:href="#dirArrow" transform="rotate(180) translate(-30 -48)" onmousedown="handlePan(0,1)">
                  <use xlink:href="#rim" fill="#404040">
                        <set attributeName="fill" to="#808080" begin="arrowDown.mouseover" end="arrowDown.mouseout"/>
                  </use>
                  <path fill="none" stroke="white" stroke-width="1.5" d="M0,-3.0v7 M-2.5,-0.5L0,-3.0L2.5,-0.5"/>
                </g>
                <g id="arrowLeft" xlink:href="#dirArrow" transform="rotate(270) translate(-36 17)" onmousedown="handlePan(-1,0)">
                  <use xlink:href="#rim" fill="#404040">
                        <set attributeName="fill" to="#808080" begin="arrowLeft.mouseover" end="arrowLeft.mouseout"/>
                  </use>
                  <path fill="none" stroke="white" stroke-width="1.5" d="M0,-3.0v7 M-2.5,-0.5L0,-3.0L2.5,-0.5"/>
                </g>
        </g>
        <svg viewBox="0 0 15 15" width="100%" height="30px" preserveAspectRatio="xMaxYMin meet">
         <g id="arrow_out" transform="scale(0.3 0.3)">
          <a xlink:href="classgame__engine_1_1game_representation_1_1_drawable_game_element__coll__graph_org.svg" target="_base">
           <rect id="button" ry="5" rx="5" y="6" x="6" height="38" width="38"
                fill="#f2f5e9" fill-opacity="0.5" stroke="#606060" stroke-width="1.0"/>
           <path id="arrow"
             d="M 11.500037,31.436501 C 11.940474,20.09759 22.043105,11.32322 32.158766,21.979434 L 37.068811,17.246167 C 37.068811,17.246167 37.088388,32 37.088388,32 L 22.160133,31.978069 C 22.160133,31.978069 26.997745,27.140456 26.997745,27.140456 C 18.528582,18.264221 13.291696,25.230495 11.500037,31.436501 z"
             style="fill:#404040;"/>
          </a>
         </g>
        </svg>
</svg>
