<?xml version="1.0" encoding="UTF-8" standalone="no"?>
<!DOCTYPE svg PUBLIC "-//W3C//DTD SVG 1.1//EN"
 "http://www.w3.org/Graphics/SVG/1.1/DTD/svg11.dtd">
<!-- Generated by graphviz version 2.36.0 (20140111.2315)
 -->
<!-- Title: gamemodel.MainModel.createGameElement Pages: 1 -->
<svg width="1190pt" height="267pt"
 viewBox="0.00 0.00 1190.00 267.00" xmlns="http://www.w3.org/2000/svg" xmlns:xlink="http://www.w3.org/1999/xlink">
<g id="graph0" class="graph" transform="scale(1 1) rotate(0) translate(4 263)">
<title>gamemodel.MainModel.createGameElement</title>
<polygon fill="white" stroke="none" points="-4,4 -4,-263 1186,-263 1186,4 -4,4"/>
<!-- Node1 -->
<g id="node1" class="node"><title>Node1</title>
<polygon fill="#bfbfbf" stroke="black" points="0,-120 0,-150 162,-150 162,-120 0,-120"/>
<text text-anchor="start" x="8" y="-138" font-family="Helvetica,sans-Serif" font-size="10.00">gamemodel.MainModel.create</text>
<text text-anchor="middle" x="81" y="-127" font-family="Helvetica,sans-Serif" font-size="10.00">GameElement</text>
</g>
<!-- Node2 -->
<g id="node2" class="node"><title>Node2</title>
<g id="a_node2"><a xlink:href="../../d9/d7e/classgamemodel_1_1_game_universe.html#a5a7439742e3044ba7dcc44655c23ae6f" target="_top" xlink:title="gamemodel.GameUniverse.add\lGameElementState">
<polygon fill="white" stroke="black" points="232,-169 232,-199 402,-199 402,-169 232,-169"/>
<text text-anchor="start" x="240" y="-187" font-family="Helvetica,sans-Serif" font-size="10.00">gamemodel.GameUniverse.add</text>
<text text-anchor="middle" x="317" y="-176" font-family="Helvetica,sans-Serif" font-size="10.00">GameElementState</text>
</a>
</g>
</g>
<!-- Node1&#45;&gt;Node2 -->
<g id="edge1" class="edge"><title>Node1&#45;&gt;Node2</title>
<path fill="none" stroke="midnightblue" d="M153.798,-150.035C179.291,-155.373 208.168,-161.42 234.418,-166.917"/>
<polygon fill="midnightblue" stroke="midnightblue" points="233.833,-170.37 244.338,-168.994 235.267,-163.518 233.833,-170.37"/>
</g>
<!-- Node3 -->
<g id="node3" class="node"><title>Node3</title>
<g id="a_node3"><a xlink:href="../../db/dca/classgamemodel_1_1_game_element_state_factory.html#a2cad37bd23d0a26fa40f0a1400e45797" target="_top" xlink:title="gamemodel.GameElementState\lFactory.createGameElementState">
<polygon fill="white" stroke="black" points="227.5,-120 227.5,-150 406.5,-150 406.5,-120 227.5,-120"/>
<text text-anchor="start" x="235.5" y="-138" font-family="Helvetica,sans-Serif" font-size="10.00">gamemodel.GameElementState</text>
<text text-anchor="middle" x="317" y="-127" font-family="Helvetica,sans-Serif" font-size="10.00">Factory.createGameElementState</text>
</a>
</g>
</g>
<!-- Node1&#45;&gt;Node3 -->
<g id="edge2" class="edge"><title>Node1&#45;&gt;Node3</title>
<path fill="none" stroke="midnightblue" d="M162.202,-135C179.951,-135 198.958,-135 217.345,-135"/>
<polygon fill="midnightblue" stroke="midnightblue" points="217.485,-138.5 227.484,-135 217.484,-131.5 217.485,-138.5"/>
</g>
<!-- Node11 -->
<g id="node11" class="node"><title>Node11</title>
<g id="a_node11"><a xlink:href="../../df/ddb/classgame__engine_1_1game_representation_1_1state_representation_1_1_game_state.html#a5db4a89800dd1f66ba1ef5d2a151eadb" target="_top" xlink:title="game_engine.gameRepresentation.state\lRepresentation.GameState.getGameUniverse">
<polygon fill="white" stroke="black" points="198.5,-71 198.5,-101 435.5,-101 435.5,-71 198.5,-71"/>
<text text-anchor="start" x="206.5" y="-89" font-family="Helvetica,sans-Serif" font-size="10.00">game_engine.gameRepresentation.state</text>
<text text-anchor="middle" x="317" y="-78" font-family="Helvetica,sans-Serif" font-size="10.00">Representation.GameState.getGameUniverse</text>
</a>
</g>
</g>
<!-- Node1&#45;&gt;Node11 -->
<g id="edge11" class="edge"><title>Node1&#45;&gt;Node11</title>
<path fill="none" stroke="midnightblue" d="M153.798,-119.965C179.291,-114.627 208.168,-108.58 234.418,-103.083"/>
<polygon fill="midnightblue" stroke="midnightblue" points="235.267,-106.482 244.338,-101.006 233.833,-99.6301 235.267,-106.482"/>
</g>
<!-- Node4 -->
<g id="node4" class="node"><title>Node4</title>
<g id="a_node4"><a xlink:href="../../db/dca/classgamemodel_1_1_game_element_state_factory.html#acf405e34a91de5c2e41557ac7dcc6a0f" target="_top" xlink:title="gamemodel.GameElementState\lFactory.addEssentials">
<polygon fill="white" stroke="black" points="472.5,-120 472.5,-150 645.5,-150 645.5,-120 472.5,-120"/>
<text text-anchor="start" x="480.5" y="-138" font-family="Helvetica,sans-Serif" font-size="10.00">gamemodel.GameElementState</text>
<text text-anchor="middle" x="559" y="-127" font-family="Helvetica,sans-Serif" font-size="10.00">Factory.addEssentials</text>
</a>
</g>
</g>
<!-- Node3&#45;&gt;Node4 -->
<g id="edge3" class="edge"><title>Node3&#45;&gt;Node4</title>
<path fill="none" stroke="midnightblue" d="M406.685,-135C424.824,-135 443.99,-135 462.36,-135"/>
<polygon fill="midnightblue" stroke="midnightblue" points="462.473,-138.5 472.473,-135 462.473,-131.5 462.473,-138.5"/>
</g>
<!-- Node5 -->
<g id="node5" class="node"><title>Node5</title>
<g id="a_node5"><a xlink:href="../../dc/d2d/classgame__engine_1_1game_representation_1_1state_representation_1_1game_element_1_1_game_element_state.html#a28dcf503bb7ba9dbadf61dbec9ee5e57" target="_top" xlink:title="game_engine.gameRepresentation.state\lRepresentation.gameElement.GameElement\lState.addAction">
<polygon fill="white" stroke="black" points="682.5,-217.5 682.5,-258.5 913.5,-258.5 913.5,-217.5 682.5,-217.5"/>
<text text-anchor="start" x="690.5" y="-246.5" font-family="Helvetica,sans-Serif" font-size="10.00">game_engine.gameRepresentation.state</text>
<text text-anchor="start" x="690.5" y="-235.5" font-family="Helvetica,sans-Serif" font-size="10.00">Representation.gameElement.GameElement</text>
<text text-anchor="middle" x="798" y="-224.5" font-family="Helvetica,sans-Serif" font-size="10.00">State.addAction</text>
</a>
</g>
</g>
<!-- Node4&#45;&gt;Node5 -->
<g id="edge4" class="edge"><title>Node4&#45;&gt;Node5</title>
<path fill="none" stroke="midnightblue" d="M581.051,-150.143C604.619,-166.474 644.444,-192.246 682,-208 687.302,-210.224 692.813,-212.32 698.424,-214.288"/>
<polygon fill="midnightblue" stroke="midnightblue" points="697.348,-217.619 707.942,-217.481 699.574,-210.982 697.348,-217.619"/>
</g>
<!-- Node6 -->
<g id="node6" class="node"><title>Node6</title>
<g id="a_node6"><a xlink:href="../../dc/d23/classeditor_1_1wizards_1_1_wizard_data.html#a1844ff95a1b35b150c25bc4d74d33578" target="_top" xlink:title="editor.wizards.WizardData.get\lValueByKey">
<polygon fill="white" stroke="black" points="719,-169 719,-199 877,-199 877,-169 719,-169"/>
<text text-anchor="start" x="727" y="-187" font-family="Helvetica,sans-Serif" font-size="10.00">editor.wizards.WizardData.get</text>
<text text-anchor="middle" x="798" y="-176" font-family="Helvetica,sans-Serif" font-size="10.00">ValueByKey</text>
</a>
</g>
</g>
<!-- Node4&#45;&gt;Node6 -->
<g id="edge5" class="edge"><title>Node4&#45;&gt;Node6</title>
<path fill="none" stroke="midnightblue" d="M632.718,-150.035C658.539,-155.373 687.785,-161.42 714.372,-166.917"/>
<polygon fill="midnightblue" stroke="midnightblue" points="713.918,-170.397 724.419,-168.994 715.335,-163.542 713.918,-170.397"/>
</g>
<!-- Node7 -->
<g id="node7" class="node"><title>Node7</title>
<g id="a_node7"><a xlink:href="../../dc/d23/classeditor_1_1wizards_1_1_wizard_data.html#a5d032318071e955a952e4cc73bf35751" target="_top" xlink:title="editor.wizards.WizardData.get\lWizardDataByType">
<polygon fill="white" stroke="black" points="719,-120 719,-150 877,-150 877,-120 719,-120"/>
<text text-anchor="start" x="727" y="-138" font-family="Helvetica,sans-Serif" font-size="10.00">editor.wizards.WizardData.get</text>
<text text-anchor="middle" x="798" y="-127" font-family="Helvetica,sans-Serif" font-size="10.00">WizardDataByType</text>
</a>
</g>
</g>
<!-- Node4&#45;&gt;Node7 -->
<g id="edge6" class="edge"><title>Node4&#45;&gt;Node7</title>
<path fill="none" stroke="midnightblue" d="M645.562,-135C666.072,-135 688.012,-135 708.646,-135"/>
<polygon fill="midnightblue" stroke="midnightblue" points="708.658,-138.5 718.658,-135 708.658,-131.5 708.658,-138.5"/>
</g>
<!-- Node8 -->
<g id="node8" class="node"><title>Node8</title>
<g id="a_node8"><a xlink:href="../../dc/d2d/classgame__engine_1_1game_representation_1_1state_representation_1_1game_element_1_1_game_element_state.html#af2c070dd27e2d8a3c515ef55a317aa38" target="_top" xlink:title="game_engine.gameRepresentation.state\lRepresentation.gameElement.GameElement\lState.setNumericalAttribute">
<polygon fill="white" stroke="black" points="682.5,-60.5 682.5,-101.5 913.5,-101.5 913.5,-60.5 682.5,-60.5"/>
<text text-anchor="start" x="690.5" y="-89.5" font-family="Helvetica,sans-Serif" font-size="10.00">game_engine.gameRepresentation.state</text>
<text text-anchor="start" x="690.5" y="-78.5" font-family="Helvetica,sans-Serif" font-size="10.00">Representation.gameElement.GameElement</text>
<text text-anchor="middle" x="798" y="-67.5" font-family="Helvetica,sans-Serif" font-size="10.00">State.setNumericalAttribute</text>
</a>
</g>
</g>
<!-- Node4&#45;&gt;Node8 -->
<g id="edge7" class="edge"><title>Node4&#45;&gt;Node8</title>
<path fill="none" stroke="midnightblue" d="M626.018,-119.958C648.047,-114.939 673.109,-109.228 697.125,-103.756"/>
<polygon fill="midnightblue" stroke="midnightblue" points="698.008,-107.145 706.981,-101.511 696.453,-100.32 698.008,-107.145"/>
</g>
<!-- Node10 -->
<g id="node10" class="node"><title>Node10</title>
<g id="a_node10"><a xlink:href="../../dc/d2d/classgame__engine_1_1game_representation_1_1state_representation_1_1game_element_1_1_game_element_state.html#a6053376d69396e84a45bcfe2cd44ce1a" target="_top" xlink:title="game_engine.gameRepresentation.state\lRepresentation.gameElement.GameElement\lState.setTextualAttribute">
<polygon fill="white" stroke="black" points="682.5,-0.5 682.5,-41.5 913.5,-41.5 913.5,-0.5 682.5,-0.5"/>
<text text-anchor="start" x="690.5" y="-29.5" font-family="Helvetica,sans-Serif" font-size="10.00">game_engine.gameRepresentation.state</text>
<text text-anchor="start" x="690.5" y="-18.5" font-family="Helvetica,sans-Serif" font-size="10.00">Representation.gameElement.GameElement</text>
<text text-anchor="middle" x="798" y="-7.5" font-family="Helvetica,sans-Serif" font-size="10.00">State.setTextualAttribute</text>
</a>
</g>
</g>
<!-- Node4&#45;&gt;Node10 -->
<g id="edge9" class="edge"><title>Node4&#45;&gt;Node10</title>
<path fill="none" stroke="midnightblue" d="M577.794,-119.747C600.532,-100.995 641.779,-69.4016 682,-51 686.631,-48.8814 691.437,-46.8925 696.343,-45.028"/>
<polygon fill="midnightblue" stroke="midnightblue" points="697.656,-48.2753 705.879,-41.5942 695.284,-41.6893 697.656,-48.2753"/>
</g>
<!-- Node9 -->
<g id="node9" class="node"><title>Node9</title>
<g id="a_node9"><a xlink:href="../../dc/d2d/classgame__engine_1_1game_representation_1_1state_representation_1_1game_element_1_1_game_element_state.html#a1544cb353263227e008ae84f12deda9a" target="_top" xlink:title="game_engine.gameRepresentation.state\lRepresentation.gameElement.GameElement\lState.addAttribute">
<polygon fill="white" stroke="black" points="950.5,-30.5 950.5,-71.5 1181.5,-71.5 1181.5,-30.5 950.5,-30.5"/>
<text text-anchor="start" x="958.5" y="-59.5" font-family="Helvetica,sans-Serif" font-size="10.00">game_engine.gameRepresentation.state</text>
<text text-anchor="start" x="958.5" y="-48.5" font-family="Helvetica,sans-Serif" font-size="10.00">Representation.gameElement.GameElement</text>
<text text-anchor="middle" x="1066" y="-37.5" font-family="Helvetica,sans-Serif" font-size="10.00">State.addAttribute</text>
</a>
</g>
</g>
<!-- Node8&#45;&gt;Node9 -->
<g id="edge8" class="edge"><title>Node8&#45;&gt;Node9</title>
<path fill="none" stroke="midnightblue" d="M913.738,-68.0596C922.524,-67.0687 931.418,-66.0656 940.264,-65.068"/>
<polygon fill="midnightblue" stroke="midnightblue" points="940.677,-68.5437 950.221,-63.945 939.892,-61.5878 940.677,-68.5437"/>
</g>
<!-- Node10&#45;&gt;Node9 -->
<g id="edge10" class="edge"><title>Node10&#45;&gt;Node9</title>
<path fill="none" stroke="midnightblue" d="M913.738,-33.9404C922.524,-34.9313 931.418,-35.9344 940.264,-36.932"/>
<polygon fill="midnightblue" stroke="midnightblue" points="939.892,-40.4122 950.221,-38.055 940.677,-33.4563 939.892,-40.4122"/>
</g>
</g>
</svg>
