<?xml version="1.0" encoding="UTF-8" standalone="no"?>
<!DOCTYPE svg PUBLIC "-//W3C//DTD SVG 1.1//EN"
 "http://www.w3.org/Graphics/SVG/1.1/DTD/svg11.dtd">
<!-- Generated by graphviz version 2.36.0 (20140111.2315)
 -->
<!-- Title: engine.stateManaging.GameElementManager.findAllElementsOfType Pages: 1 -->
<svg width="416pt" height="48pt"
 viewBox="0.00 0.00 416.00 48.00" xmlns="http://www.w3.org/2000/svg" xmlns:xlink="http://www.w3.org/1999/xlink">
<g id="graph0" class="graph" transform="scale(1 1) rotate(0) translate(4 44)">
<title>engine.stateManaging.GameElementManager.findAllElementsOfType</title>
<polygon fill="white" stroke="none" points="-4,4 -4,-44 412,-44 412,4 -4,4"/>
<!-- Node1 -->
<g id="node1" class="node"><title>Node1</title>
<polygon fill="#bfbfbf" stroke="black" points="0,0.5 0,-40.5 174,-40.5 174,0.5 0,0.5"/>
<text text-anchor="start" x="8" y="-28.5" font-family="Helvetica,sans-Serif" font-size="10.00">engine.stateManaging.Game</text>
<text text-anchor="start" x="8" y="-17.5" font-family="Helvetica,sans-Serif" font-size="10.00">ElementManager.findAllElements</text>
<text text-anchor="middle" x="87" y="-6.5" font-family="Helvetica,sans-Serif" font-size="10.00">OfType</text>
</g>
<!-- Node2 -->
<g id="node2" class="node"><title>Node2</title>
<g id="a_node2"><a xlink:href="../../db/d6f/classengine_1_1game_representation_1_1rendered_representation_1_1_level.html#a08df8c7314ec79159bd08080849dd2f7" target="_top" xlink:title="engine.gameRepresentation.rendered\lRepresentation.Level.getUnits">
<polygon fill="white" stroke="black" points="210,-5 210,-35 408,-35 408,-5 210,-5"/>
<text text-anchor="start" x="218" y="-23" font-family="Helvetica,sans-Serif" font-size="10.00">engine.gameRepresentation.rendered</text>
<text text-anchor="middle" x="309" y="-12" font-family="Helvetica,sans-Serif" font-size="10.00">Representation.Level.getUnits</text>
</a>
</g>
</g>
<!-- Node1&#45;&gt;Node2 -->
<g id="edge1" class="edge"><title>Node1&#45;&gt;Node2</title>
<path fill="none" stroke="midnightblue" d="M174.003,-20C182.405,-20 191.004,-20 199.589,-20"/>
<polygon fill="midnightblue" stroke="midnightblue" points="199.649,-23.5001 209.649,-20 199.649,-16.5001 199.649,-23.5001"/>
</g>
</g>
</svg>
