<?xml version="1.0" encoding="UTF-8" standalone="no"?>
<!DOCTYPE svg PUBLIC "-//W3C//DTD SVG 1.1//EN"
 "http://www.w3.org/Graphics/SVG/1.1/DTD/svg11.dtd">
<!-- Generated by graphviz version 2.36.0 (20140111.2315)
 -->
<!-- Title: engine.stateManaging.GameElementManager.clearSelectedElementsOfTarget Pages: 1 -->
<!--zoomable 136 -->
<svg id="main" version="1.1" xmlns="http://www.w3.org/2000/svg" xmlns:xlink="http://www.w3.org/1999/xlink" xml:space="preserve" onload="init(evt)">
<style type="text/css"><![CDATA[
.edge:hover path { stroke: red; }
.edge:hover polygon { stroke: red; fill: red; }
]]></style>
<script type="text/javascript"><![CDATA[
var edges = document.getElementsByTagName('g');
if (edges && edges.length) {
  for (var i=0;i<edges.length;i++) {
    if (edges[i].id.substr(0,4)=='edge') {
      edges[i].setAttribute('class','edge');
    }
  }
}
]]></script>
        <defs>
                <circle id="rim" cx="0" cy="0" r="7"/>
                <circle id="rim2" cx="0" cy="0" r="3.5"/>
                <g id="zoomPlus">
                        <use xlink:href="#rim" fill="#404040">
                                <set attributeName="fill" to="#808080" begin="zoomplus.mouseover" end="zoomplus.mouseout"/>
                        </use>
                        <path d="M-4,0h8M0,-4v8" fill="none" stroke="white" stroke-width="1.5" pointer-events="none"/>
                </g>
                <g id="zoomMin">
                        <use xlink:href="#rim" fill="#404040">
                                <set attributeName="fill" to="#808080" begin="zoomminus.mouseover" end="zoomminus.mouseout"/>
                        </use>
                        <path d="M-4,0h8" fill="none" stroke="white" stroke-width="1.5" pointer-events="none"/>
                </g>
                <g id="dirArrow">
                        <path fill="none" stroke="white" stroke-width="1.5" d="M0,-3.0v7 M-2.5,-0.5L0,-3.0L2.5,-0.5"/>
                </g>
               <g id="resetDef">
                       <use xlink:href="#rim2" fill="#404040">
                               <set attributeName="fill" to="#808080" begin="reset.mouseover" end="reset.mouseout"/>
                       </use>
               </g>
        </defs>

<script type="text/javascript">
var viewWidth = 656;
var viewHeight = 136;
var sectionId = 'dynsection-8';
</script>
<script xlink:href="../../svgpan.js"/>
<svg id="graph" class="graph">
<g id="viewport">
<title>engine.stateManaging.GameElementManager.clearSelectedElementsOfTarget</title>
<polygon fill="white" stroke="none" points="-4,4 -4,-132 652,-132 652,4 -4,4"/>
<!-- Node1 -->
<g id="node1" class="node"><title>Node1</title>
<polygon fill="#bfbfbf" stroke="black" points="0.5,-43.5 0.5,-84.5 211.5,-84.5 211.5,-43.5 0.5,-43.5"/>
<text text-anchor="start" x="8.5" y="-72.5" font-family="Helvetica,sans-Serif" font-size="10.00">engine.stateManaging.Game</text>
<text text-anchor="start" x="8.5" y="-61.5" font-family="Helvetica,sans-Serif" font-size="10.00">ElementManager.clearSelectedElements</text>
<text text-anchor="middle" x="106" y="-50.5" font-family="Helvetica,sans-Serif" font-size="10.00">OfTarget</text>
</g>
<!-- Node2 -->
<g id="node2" class="node"><title>Node2</title>
<g id="a_node2"><a xlink:href="../../dd/dd8/classengine_1_1state_managing_1_1_game_element_manager.html#ade9eef1c34b814ef2308ff85d33e8895" target="_top" xlink:title="engine.stateManaging.Game\lElementManager.filterSelectedUnits">
<polygon fill="white" stroke="black" points="255,-98 255,-128 443,-128 443,-98 255,-98"/>
<text text-anchor="start" x="263" y="-116" font-family="Helvetica,sans-Serif" font-size="10.00">engine.stateManaging.Game</text>
<text text-anchor="middle" x="349" y="-105" font-family="Helvetica,sans-Serif" font-size="10.00">ElementManager.filterSelectedUnits</text>
</a>
</g>
</g>
<!-- Node1&#45;&gt;Node2 -->
<g id="edge1" class="edge"><title>Node1&#45;&gt;Node2</title>
<path fill="none" stroke="midnightblue" d="M208.158,-84.5674C226.852,-88.3683 246.184,-92.2988 264.29,-95.9801"/>
<polygon fill="midnightblue" stroke="midnightblue" points="263.714,-99.4345 274.211,-97.9972 265.109,-92.5749 263.714,-99.4345"/>
</g>
<!-- Node3 -->
<g id="node3" class="node"><title>Node3</title>
<g id="a_node3"><a xlink:href="../../dd/dd8/classengine_1_1state_managing_1_1_game_element_manager.html#a2431d89fa3d884ecd98b31badcea4ea8" target="_top" xlink:title="engine.stateManaging.Game\lElementManager.filterTeamIDElements">
<polygon fill="white" stroke="black" points="248,-49 248,-79 450,-79 450,-49 248,-49"/>
<text text-anchor="start" x="256" y="-67" font-family="Helvetica,sans-Serif" font-size="10.00">engine.stateManaging.Game</text>
<text text-anchor="middle" x="349" y="-56" font-family="Helvetica,sans-Serif" font-size="10.00">ElementManager.filterTeamIDElements</text>
</a>
</g>
</g>
<!-- Node1&#45;&gt;Node3 -->
<g id="edge2" class="edge"><title>Node1&#45;&gt;Node3</title>
<path fill="none" stroke="midnightblue" d="M211.655,-64C220.237,-64 228.929,-64 237.551,-64"/>
<polygon fill="midnightblue" stroke="midnightblue" points="237.631,-67.5001 247.631,-64 237.631,-60.5001 237.631,-67.5001"/>
</g>
<!-- Node5 -->
<g id="node5" class="node"><title>Node5</title>
<g id="a_node5"><a xlink:href="../../db/d6f/classengine_1_1game_representation_1_1rendered_representation_1_1_level.html#a08df8c7314ec79159bd08080849dd2f7" target="_top" xlink:title="engine.gameRepresentation.rendered\lRepresentation.Level.getUnits">
<polygon fill="white" stroke="black" points="250,-0 250,-30 448,-30 448,-0 250,-0"/>
<text text-anchor="start" x="258" y="-18" font-family="Helvetica,sans-Serif" font-size="10.00">engine.gameRepresentation.rendered</text>
<text text-anchor="middle" x="349" y="-7" font-family="Helvetica,sans-Serif" font-size="10.00">Representation.Level.getUnits</text>
</a>
</g>
</g>
<!-- Node1&#45;&gt;Node5 -->
<g id="edge4" class="edge"><title>Node1&#45;&gt;Node5</title>
<path fill="none" stroke="midnightblue" d="M208.158,-43.4326C226.852,-39.6317 246.184,-35.7012 264.29,-32.0199"/>
<polygon fill="midnightblue" stroke="midnightblue" points="265.109,-35.4251 274.211,-30.0028 263.714,-28.5655 265.109,-35.4251"/>
</g>
<!-- Node4 -->
<g id="node4" class="node"><title>Node4</title>
<g id="a_node4"><a xlink:href="../../d5/d29/classengine_1_1users_1_1_participant.html#abda8825e8c4e6b4b4340e23b65f0b685" target="_top" xlink:title="engine.users.Participant.check\lSameTeam">
<polygon fill="white" stroke="black" points="486,-49 486,-79 648,-79 648,-49 486,-49"/>
<text text-anchor="start" x="494" y="-67" font-family="Helvetica,sans-Serif" font-size="10.00">engine.users.Participant.check</text>
<text text-anchor="middle" x="567" y="-56" font-family="Helvetica,sans-Serif" font-size="10.00">SameTeam</text>
</a>
</g>
</g>
<!-- Node3&#45;&gt;Node4 -->
<g id="edge3" class="edge"><title>Node3&#45;&gt;Node4</title>
<path fill="none" stroke="midnightblue" d="M450.096,-64C458.648,-64 467.266,-64 475.734,-64"/>
<polygon fill="midnightblue" stroke="midnightblue" points="475.975,-67.5001 485.975,-64 475.975,-60.5001 475.975,-67.5001"/>
</g>
</g>
</svg>
        <g id="navigator" transform="translate(0 0)" fill="#404254">
                <rect fill="#f2f5e9" fill-opacity="0.5" stroke="#606060" stroke-width=".5" x="0" y="0" width="60" height="60"/>
                <use id="zoomplus" xlink:href="#zoomPlus" x="17" y="9" onmousedown="handleZoom(evt,'in')"/>
                <use id="zoomminus" xlink:href="#zoomMin" x="42" y="9" onmousedown="handleZoom(evt,'out')"/>
                <use id="reset" xlink:href="#resetDef" x="30" y="36" onmousedown="handleReset()"/>
                <g id="arrowUp" xlink:href="#dirArrow" transform="translate(30 24)" onmousedown="handlePan(0,-1)">
                  <use xlink:href="#rim" fill="#404040">
                        <set attributeName="fill" to="#808080" begin="arrowUp.mouseover" end="arrowUp.mouseout"/>
                  </use>
                  <path fill="none" stroke="white" stroke-width="1.5" d="M0,-3.0v7 M-2.5,-0.5L0,-3.0L2.5,-0.5"/>
                </g>
                <g id="arrowRight" xlink:href="#dirArrow" transform="rotate(90) translate(36 -43)" onmousedown="handlePan(1,0)">
                  <use xlink:href="#rim" fill="#404040">
                        <set attributeName="fill" to="#808080" begin="arrowRight.mouseover" end="arrowRight.mouseout"/>
                  </use>
                  <path fill="none" stroke="white" stroke-width="1.5" d="M0,-3.0v7 M-2.5,-0.5L0,-3.0L2.5,-0.5"/>
                </g>
                <g id="arrowDown" xlink:href="#dirArrow" transform="rotate(180) translate(-30 -48)" onmousedown="handlePan(0,1)">
                  <use xlink:href="#rim" fill="#404040">
                        <set attributeName="fill" to="#808080" begin="arrowDown.mouseover" end="arrowDown.mouseout"/>
                  </use>
                  <path fill="none" stroke="white" stroke-width="1.5" d="M0,-3.0v7 M-2.5,-0.5L0,-3.0L2.5,-0.5"/>
                </g>
                <g id="arrowLeft" xlink:href="#dirArrow" transform="rotate(270) translate(-36 17)" onmousedown="handlePan(-1,0)">
                  <use xlink:href="#rim" fill="#404040">
                        <set attributeName="fill" to="#808080" begin="arrowLeft.mouseover" end="arrowLeft.mouseout"/>
                  </use>
                  <path fill="none" stroke="white" stroke-width="1.5" d="M0,-3.0v7 M-2.5,-0.5L0,-3.0L2.5,-0.5"/>
                </g>
        </g>
        <svg viewBox="0 0 15 15" width="100%" height="30px" preserveAspectRatio="xMaxYMin meet">
         <g id="arrow_out" transform="scale(0.3 0.3)">
          <a xlink:href="classengine_1_1state_managing_1_1_game_element_manager_acde24ae5cddaad1207be2d6d37bf4a26_cgraph_org.svg" target="_base">
           <rect id="button" ry="5" rx="5" y="6" x="6" height="38" width="38"
                fill="#f2f5e9" fill-opacity="0.5" stroke="#606060" stroke-width="1.0"/>
           <path id="arrow"
             d="M 11.500037,31.436501 C 11.940474,20.09759 22.043105,11.32322 32.158766,21.979434 L 37.068811,17.246167 C 37.068811,17.246167 37.088388,32 37.088388,32 L 22.160133,31.978069 C 22.160133,31.978069 26.997745,27.140456 26.997745,27.140456 C 18.528582,18.264221 13.291696,25.230495 11.500037,31.436501 z"
             style="fill:#404040;"/>
          </a>
         </g>
        </svg>
</svg>
