<?xml version="1.0" encoding="UTF-8" standalone="no"?>
<!DOCTYPE svg PUBLIC "-//W3C//DTD SVG 1.1//EN"
 "http://www.w3.org/Graphics/SVG/1.1/DTD/svg11.dtd">
<!-- Generated by graphviz version 2.36.0 (20140111.2315)
 -->
<!-- Title: engine.stateManaging.GameElementManager.setLevel Pages: 1 -->
<svg width="398pt" height="38pt"
 viewBox="0.00 0.00 398.00 38.00" xmlns="http://www.w3.org/2000/svg" xmlns:xlink="http://www.w3.org/1999/xlink">
<g id="graph0" class="graph" transform="scale(1 1) rotate(0) translate(4 34)">
<title>engine.stateManaging.GameElementManager.setLevel</title>
<polygon fill="white" stroke="none" points="-4,4 -4,-34 394,-34 394,4 -4,4"/>
<!-- Node1 -->
<g id="node1" class="node"><title>Node1</title>
<polygon fill="#bfbfbf" stroke="black" points="0.5,-0 0.5,-30 155.5,-30 155.5,-0 0.5,-0"/>
<text text-anchor="start" x="8.5" y="-18" font-family="Helvetica,sans-Serif" font-size="10.00">engine.stateManaging.Game</text>
<text text-anchor="middle" x="78" y="-7" font-family="Helvetica,sans-Serif" font-size="10.00">ElementManager.setLevel</text>
</g>
<!-- Node2 -->
<g id="node2" class="node"><title>Node2</title>
<g id="a_node2"><a xlink:href="../../db/d6f/classengine_1_1game_representation_1_1rendered_representation_1_1_level.html#abae834e918ce75412b697a241fa4821b" target="_top" xlink:title="engine.gameRepresentation.rendered\lRepresentation.Level.getGrid">
<polygon fill="white" stroke="black" points="192,-0 192,-30 390,-30 390,-0 192,-0"/>
<text text-anchor="start" x="200" y="-18" font-family="Helvetica,sans-Serif" font-size="10.00">engine.gameRepresentation.rendered</text>
<text text-anchor="middle" x="291" y="-7" font-family="Helvetica,sans-Serif" font-size="10.00">Representation.Level.getGrid</text>
</a>
</g>
</g>
<!-- Node1&#45;&gt;Node2 -->
<g id="edge1" class="edge"><title>Node1&#45;&gt;Node2</title>
<path fill="none" stroke="midnightblue" d="M155.773,-15C164.157,-15 172.804,-15 181.478,-15"/>
<polygon fill="midnightblue" stroke="midnightblue" points="181.658,-18.5001 191.658,-15 181.658,-11.5001 181.658,-18.5001"/>
</g>
</g>
</svg>
