<?xml version="1.0" encoding="UTF-8" standalone="no"?>
<!DOCTYPE svg PUBLIC "-//W3C//DTD SVG 1.1//EN"
 "http://www.w3.org/Graphics/SVG/1.1/DTD/svg11.dtd">
<!-- Generated by graphviz version 2.36.0 (20140111.2315)
 -->
<!-- Title: engine.stateManaging.GameElementManager.filterTeamIDElements Pages: 1 -->
<!--zoomable 220 -->
<svg id="main" version="1.1" xmlns="http://www.w3.org/2000/svg" xmlns:xlink="http://www.w3.org/1999/xlink" xml:space="preserve" onload="init(evt)">
<style type="text/css"><![CDATA[
.edge:hover path { stroke: red; }
.edge:hover polygon { stroke: red; fill: red; }
]]></style>
<script type="text/javascript"><![CDATA[
var edges = document.getElementsByTagName('g');
if (edges && edges.length) {
  for (var i=0;i<edges.length;i++) {
    if (edges[i].id.substr(0,4)=='edge') {
      edges[i].setAttribute('class','edge');
    }
  }
}
]]></script>
        <defs>
                <circle id="rim" cx="0" cy="0" r="7"/>
                <circle id="rim2" cx="0" cy="0" r="3.5"/>
                <g id="zoomPlus">
                        <use xlink:href="#rim" fill="#404040">
                                <set attributeName="fill" to="#808080" begin="zoomplus.mouseover" end="zoomplus.mouseout"/>
                        </use>
                        <path d="M-4,0h8M0,-4v8" fill="none" stroke="white" stroke-width="1.5" pointer-events="none"/>
                </g>
                <g id="zoomMin">
                        <use xlink:href="#rim" fill="#404040">
                                <set attributeName="fill" to="#808080" begin="zoomminus.mouseover" end="zoomminus.mouseout"/>
                        </use>
                        <path d="M-4,0h8" fill="none" stroke="white" stroke-width="1.5" pointer-events="none"/>
                </g>
                <g id="dirArrow">
                        <path fill="none" stroke="white" stroke-width="1.5" d="M0,-3.0v7 M-2.5,-0.5L0,-3.0L2.5,-0.5"/>
                </g>
               <g id="resetDef">
                       <use xlink:href="#rim2" fill="#404040">
                               <set attributeName="fill" to="#808080" begin="reset.mouseover" end="reset.mouseout"/>
                       </use>
               </g>
        </defs>

<script type="text/javascript">
var viewWidth = 946;
var viewHeight = 220;
var sectionId = 'dynsection-17';
</script>
<script xlink:href="../../svgpan.js"/>
<svg id="graph" class="graph">
<g id="viewport">
<title>engine.stateManaging.GameElementManager.filterTeamIDElements</title>
<polygon fill="white" stroke="none" points="-4,4 -4,-216 942,-216 942,4 -4,4"/>
<!-- Node1 -->
<g id="node1" class="node"><title>Node1</title>
<polygon fill="#bfbfbf" stroke="black" points="0,-102 0,-132 202,-132 202,-102 0,-102"/>
<text text-anchor="start" x="8" y="-120" font-family="Helvetica,sans-Serif" font-size="10.00">engine.stateManaging.Game</text>
<text text-anchor="middle" x="101" y="-109" font-family="Helvetica,sans-Serif" font-size="10.00">ElementManager.filterTeamIDElements</text>
</g>
<!-- Node2 -->
<g id="node2" class="node"><title>Node2</title>
<g id="a_node2"><a xlink:href="../../dd/dd8/classengine_1_1state_managing_1_1_game_element_manager.html#acde24ae5cddaad1207be2d6d37bf4a26" target="_top" xlink:title="engine.stateManaging.Game\lElementManager.clearSelectedElements\lOfTarget">
<polygon fill="white" stroke="black" points="239.5,-170.5 239.5,-211.5 450.5,-211.5 450.5,-170.5 239.5,-170.5"/>
<text text-anchor="start" x="247.5" y="-199.5" font-family="Helvetica,sans-Serif" font-size="10.00">engine.stateManaging.Game</text>
<text text-anchor="start" x="247.5" y="-188.5" font-family="Helvetica,sans-Serif" font-size="10.00">ElementManager.clearSelectedElements</text>
<text text-anchor="middle" x="345" y="-177.5" font-family="Helvetica,sans-Serif" font-size="10.00">OfTarget</text>
</a>
</g>
</g>
<!-- Node1&#45;&gt;Node2 -->
<g id="edge1" class="edge"><title>Node1&#45;&gt;Node2</title>
<path fill="none" stroke="midnightblue" d="M160.881,-135.005C195.928,-145.722 240.515,-159.356 276.917,-170.487"/>
<polygon fill="midnightblue" stroke="midnightblue" points="161.85,-131.641 151.264,-132.064 159.803,-138.335 161.85,-131.641"/>
</g>
<!-- Node3 -->
<g id="node3" class="node"><title>Node3</title>
<g id="a_node3"><a xlink:href="../../dd/dd8/classengine_1_1state_managing_1_1_game_element_manager.html#af2b27c63c8557bc1b84990cd1e266f9f" target="_top" xlink:title="engine.stateManaging.Game\lElementManager.setSelectedUnit\lCommand">
<polygon fill="white" stroke="black" points="498.5,-121.5 498.5,-162.5 675.5,-162.5 675.5,-121.5 498.5,-121.5"/>
<text text-anchor="start" x="506.5" y="-150.5" font-family="Helvetica,sans-Serif" font-size="10.00">engine.stateManaging.Game</text>
<text text-anchor="start" x="506.5" y="-139.5" font-family="Helvetica,sans-Serif" font-size="10.00">ElementManager.setSelectedUnit</text>
<text text-anchor="middle" x="587" y="-128.5" font-family="Helvetica,sans-Serif" font-size="10.00">Command</text>
</a>
</g>
</g>
<!-- Node1&#45;&gt;Node3 -->
<g id="edge9" class="edge"><title>Node1&#45;&gt;Node3</title>
<path fill="none" stroke="midnightblue" d="M212.428,-122.704C299.134,-127.183 418.218,-133.334 498.428,-137.477"/>
<polygon fill="midnightblue" stroke="midnightblue" points="212.452,-119.201 202.285,-122.18 212.091,-126.191 212.452,-119.201"/>
</g>
<!-- Node5 -->
<g id="node5" class="node"><title>Node5</title>
<g id="a_node5"><a xlink:href="../../dd/dd8/classengine_1_1state_managing_1_1_game_element_manager.html#a04ca8235fa56ebe7fcf7f4e6e28e7867" target="_top" xlink:title="engine.stateManaging.Game\lElementManager.notifyButtonClicked">
<polygon fill="white" stroke="black" points="248.5,-24 248.5,-54 441.5,-54 441.5,-24 248.5,-24"/>
<text text-anchor="start" x="256.5" y="-42" font-family="Helvetica,sans-Serif" font-size="10.00">engine.stateManaging.Game</text>
<text text-anchor="middle" x="345" y="-31" font-family="Helvetica,sans-Serif" font-size="10.00">ElementManager.notifyButtonClicked</text>
</a>
</g>
</g>
<!-- Node1&#45;&gt;Node5 -->
<g id="edge4" class="edge"><title>Node1&#45;&gt;Node5</title>
<path fill="none" stroke="midnightblue" d="M144.919,-97.9705C171.384,-86.7377 206.229,-72.8389 238,-63 248.454,-59.7626 259.612,-56.7602 270.619,-54.0525"/>
<polygon fill="midnightblue" stroke="midnightblue" points="143.383,-94.8208 135.569,-101.976 146.14,-101.255 143.383,-94.8208"/>
</g>
<!-- Node8 -->
<g id="node8" class="node"><title>Node8</title>
<g id="a_node8"><a xlink:href="../../dd/dd8/classengine_1_1state_managing_1_1_game_element_manager.html#a8a3b50a820c049092610132275d5a133" target="_top" xlink:title="engine.stateManaging.Game\lElementManager.notifySelectedElements\lOfTarget">
<polygon fill="white" stroke="black" points="238,-72.5 238,-113.5 452,-113.5 452,-72.5 238,-72.5"/>
<text text-anchor="start" x="246" y="-101.5" font-family="Helvetica,sans-Serif" font-size="10.00">engine.stateManaging.Game</text>
<text text-anchor="start" x="246" y="-90.5" font-family="Helvetica,sans-Serif" font-size="10.00">ElementManager.notifySelectedElements</text>
<text text-anchor="middle" x="345" y="-79.5" font-family="Helvetica,sans-Serif" font-size="10.00">OfTarget</text>
</a>
</g>
</g>
<!-- Node1&#45;&gt;Node8 -->
<g id="edge7" class="edge"><title>Node1&#45;&gt;Node8</title>
<path fill="none" stroke="midnightblue" d="M212.382,-106.053C220.785,-105.22 229.257,-104.379 237.634,-103.549"/>
<polygon fill="midnightblue" stroke="midnightblue" points="211.783,-102.595 202.178,-107.065 212.474,-109.561 211.783,-102.595"/>
</g>
<!-- Node2&#45;&gt;Node3 -->
<g id="edge2" class="edge"><title>Node2&#45;&gt;Node3</title>
<path fill="none" stroke="midnightblue" d="M456.861,-168.366C470.819,-165.516 484.942,-162.633 498.47,-159.871"/>
<polygon fill="midnightblue" stroke="midnightblue" points="455.836,-165.003 446.738,-170.433 457.236,-171.861 455.836,-165.003"/>
</g>
<!-- Node4 -->
<g id="node4" class="node"><title>Node4</title>
<g id="a_node4"><a xlink:href="../../de/db7/classengine_1_1_u_i_1_1_runner_input_manager.html#a4709ebdf2608218227aab4d9af9ca2ca" target="_top" xlink:title="engine.UI.RunnerInputManager.secondary\lClickOccurred">
<polygon fill="white" stroke="black" points="722.5,-127 722.5,-157 937.5,-157 937.5,-127 722.5,-127"/>
<text text-anchor="start" x="730.5" y="-145" font-family="Helvetica,sans-Serif" font-size="10.00">engine.UI.RunnerInputManager.secondary</text>
<text text-anchor="middle" x="830" y="-134" font-family="Helvetica,sans-Serif" font-size="10.00">ClickOccurred</text>
</a>
</g>
</g>
<!-- Node3&#45;&gt;Node4 -->
<g id="edge3" class="edge"><title>Node3&#45;&gt;Node4</title>
<path fill="none" stroke="midnightblue" d="M686.036,-142C697.912,-142 710.091,-142 722.088,-142"/>
<polygon fill="midnightblue" stroke="midnightblue" points="685.688,-138.5 675.688,-142 685.688,-145.5 685.688,-138.5"/>
</g>
<!-- Node6 -->
<g id="node6" class="node"><title>Node6</title>
<g id="a_node6"><a xlink:href="../../de/db7/classengine_1_1_u_i_1_1_runner_input_manager.html#aed338dcfef23593dc29149fe5fb7bce9" target="_top" xlink:title="engine.UI.RunnerInputManager.key\lPressed">
<polygon fill="white" stroke="black" points="496,-49 496,-79 678,-79 678,-49 496,-49"/>
<text text-anchor="start" x="504" y="-67" font-family="Helvetica,sans-Serif" font-size="10.00">engine.UI.RunnerInputManager.key</text>
<text text-anchor="middle" x="587" y="-56" font-family="Helvetica,sans-Serif" font-size="10.00">Pressed</text>
</a>
</g>
</g>
<!-- Node5&#45;&gt;Node6 -->
<g id="edge5" class="edge"><title>Node5&#45;&gt;Node6</title>
<path fill="none" stroke="midnightblue" d="M451.686,-50.009C466.42,-51.5438 481.446,-53.1089 495.858,-54.6102"/>
<polygon fill="midnightblue" stroke="midnightblue" points="451.853,-46.5075 441.544,-48.9525 451.127,-53.4698 451.853,-46.5075"/>
</g>
<!-- Node7 -->
<g id="node7" class="node"><title>Node7</title>
<g id="a_node7"><a xlink:href="../../de/db7/classengine_1_1_u_i_1_1_runner_input_manager.html#ae0fb6ff58423e4a0f464e6c2a65fb437" target="_top" xlink:title="engine.UI.RunnerInputManager.screen\lButtonClicked">
<polygon fill="white" stroke="black" points="488,-0 488,-30 686,-30 686,-0 488,-0"/>
<text text-anchor="start" x="496" y="-18" font-family="Helvetica,sans-Serif" font-size="10.00">engine.UI.RunnerInputManager.screen</text>
<text text-anchor="middle" x="587" y="-7" font-family="Helvetica,sans-Serif" font-size="10.00">ButtonClicked</text>
</a>
</g>
</g>
<!-- Node5&#45;&gt;Node7 -->
<g id="edge6" class="edge"><title>Node5&#45;&gt;Node7</title>
<path fill="none" stroke="midnightblue" d="M451.562,-28.4438C463.556,-27.2444 475.746,-26.0254 487.642,-24.8358"/>
<polygon fill="midnightblue" stroke="midnightblue" points="451.146,-24.9678 441.544,-29.4456 451.843,-31.9331 451.146,-24.9678"/>
</g>
<!-- Node8&#45;&gt;Node3 -->
<g id="edge8" class="edge"><title>Node8&#45;&gt;Node3</title>
<path fill="none" stroke="midnightblue" d="M456.861,-115.634C470.819,-118.484 484.942,-121.367 498.47,-124.129"/>
<polygon fill="midnightblue" stroke="midnightblue" points="457.236,-112.139 446.738,-113.567 455.836,-118.997 457.236,-112.139"/>
</g>
</g>
</svg>
        <g id="navigator" transform="translate(0 0)" fill="#404254">
                <rect fill="#f2f5e9" fill-opacity="0.5" stroke="#606060" stroke-width=".5" x="0" y="0" width="60" height="60"/>
                <use id="zoomplus" xlink:href="#zoomPlus" x="17" y="9" onmousedown="handleZoom(evt,'in')"/>
                <use id="zoomminus" xlink:href="#zoomMin" x="42" y="9" onmousedown="handleZoom(evt,'out')"/>
                <use id="reset" xlink:href="#resetDef" x="30" y="36" onmousedown="handleReset()"/>
                <g id="arrowUp" xlink:href="#dirArrow" transform="translate(30 24)" onmousedown="handlePan(0,-1)">
                  <use xlink:href="#rim" fill="#404040">
                        <set attributeName="fill" to="#808080" begin="arrowUp.mouseover" end="arrowUp.mouseout"/>
                  </use>
                  <path fill="none" stroke="white" stroke-width="1.5" d="M0,-3.0v7 M-2.5,-0.5L0,-3.0L2.5,-0.5"/>
                </g>
                <g id="arrowRight" xlink:href="#dirArrow" transform="rotate(90) translate(36 -43)" onmousedown="handlePan(1,0)">
                  <use xlink:href="#rim" fill="#404040">
                        <set attributeName="fill" to="#808080" begin="arrowRight.mouseover" end="arrowRight.mouseout"/>
                  </use>
                  <path fill="none" stroke="white" stroke-width="1.5" d="M0,-3.0v7 M-2.5,-0.5L0,-3.0L2.5,-0.5"/>
                </g>
                <g id="arrowDown" xlink:href="#dirArrow" transform="rotate(180) translate(-30 -48)" onmousedown="handlePan(0,1)">
                  <use xlink:href="#rim" fill="#404040">
                        <set attributeName="fill" to="#808080" begin="arrowDown.mouseover" end="arrowDown.mouseout"/>
                  </use>
                  <path fill="none" stroke="white" stroke-width="1.5" d="M0,-3.0v7 M-2.5,-0.5L0,-3.0L2.5,-0.5"/>
                </g>
                <g id="arrowLeft" xlink:href="#dirArrow" transform="rotate(270) translate(-36 17)" onmousedown="handlePan(-1,0)">
                  <use xlink:href="#rim" fill="#404040">
                        <set attributeName="fill" to="#808080" begin="arrowLeft.mouseover" end="arrowLeft.mouseout"/>
                  </use>
                  <path fill="none" stroke="white" stroke-width="1.5" d="M0,-3.0v7 M-2.5,-0.5L0,-3.0L2.5,-0.5"/>
                </g>
        </g>
        <svg viewBox="0 0 15 15" width="100%" height="30px" preserveAspectRatio="xMaxYMin meet">
         <g id="arrow_out" transform="scale(0.3 0.3)">
          <a xlink:href="classengine_1_1state_managing_1_1_game_element_manager_a2431d89fa3d884ecd98b31badcea4ea8_icgraph_org.svg" target="_base">
           <rect id="button" ry="5" rx="5" y="6" x="6" height="38" width="38"
                fill="#f2f5e9" fill-opacity="0.5" stroke="#606060" stroke-width="1.0"/>
           <path id="arrow"
             d="M 11.500037,31.436501 C 11.940474,20.09759 22.043105,11.32322 32.158766,21.979434 L 37.068811,17.246167 C 37.068811,17.246167 37.088388,32 37.088388,32 L 22.160133,31.978069 C 22.160133,31.978069 26.997745,27.140456 26.997745,27.140456 C 18.528582,18.264221 13.291696,25.230495 11.500037,31.436501 z"
             style="fill:#404040;"/>
          </a>
         </g>
        </svg>
</svg>
