<?xml version="1.0" encoding="UTF-8" standalone="no"?>
<!DOCTYPE svg PUBLIC "-//W3C//DTD SVG 1.1//EN"
 "http://www.w3.org/Graphics/SVG/1.1/DTD/svg11.dtd">
<!-- Generated by graphviz version 2.36.0 (20140111.2315)
 -->
<!-- Title: engine.stateManaging.GameElementManager.selectSingleUnit Pages: 1 -->
<!--zoomable 163 -->
<svg id="main" version="1.1" xmlns="http://www.w3.org/2000/svg" xmlns:xlink="http://www.w3.org/1999/xlink" xml:space="preserve" onload="init(evt)">
<style type="text/css"><![CDATA[
.edge:hover path { stroke: red; }
.edge:hover polygon { stroke: red; fill: red; }
]]></style>
<script type="text/javascript"><![CDATA[
var edges = document.getElementsByTagName('g');
if (edges && edges.length) {
  for (var i=0;i<edges.length;i++) {
    if (edges[i].id.substr(0,4)=='edge') {
      edges[i].setAttribute('class','edge');
    }
  }
}
]]></script>
        <defs>
                <circle id="rim" cx="0" cy="0" r="7"/>
                <circle id="rim2" cx="0" cy="0" r="3.5"/>
                <g id="zoomPlus">
                        <use xlink:href="#rim" fill="#404040">
                                <set attributeName="fill" to="#808080" begin="zoomplus.mouseover" end="zoomplus.mouseout"/>
                        </use>
                        <path d="M-4,0h8M0,-4v8" fill="none" stroke="white" stroke-width="1.5" pointer-events="none"/>
                </g>
                <g id="zoomMin">
                        <use xlink:href="#rim" fill="#404040">
                                <set attributeName="fill" to="#808080" begin="zoomminus.mouseover" end="zoomminus.mouseout"/>
                        </use>
                        <path d="M-4,0h8" fill="none" stroke="white" stroke-width="1.5" pointer-events="none"/>
                </g>
                <g id="dirArrow">
                        <path fill="none" stroke="white" stroke-width="1.5" d="M0,-3.0v7 M-2.5,-0.5L0,-3.0L2.5,-0.5"/>
                </g>
               <g id="resetDef">
                       <use xlink:href="#rim2" fill="#404040">
                               <set attributeName="fill" to="#808080" begin="reset.mouseover" end="reset.mouseout"/>
                       </use>
               </g>
        </defs>

<script type="text/javascript">
var viewWidth = 1094;
var viewHeight = 163;
var sectionId = 'dynsection-28';
</script>
<script xlink:href="../../svgpan.js"/>
<svg id="graph" class="graph">
<g id="viewport">
<title>engine.stateManaging.GameElementManager.selectSingleUnit</title>
<polygon fill="white" stroke="none" points="-4,4 -4,-159 1090,-159 1090,4 -4,4"/>
<!-- Node1 -->
<g id="node1" class="node"><title>Node1</title>
<polygon fill="#bfbfbf" stroke="black" points="0,-49 0,-79 178,-79 178,-49 0,-49"/>
<text text-anchor="start" x="8" y="-67" font-family="Helvetica,sans-Serif" font-size="10.00">engine.stateManaging.Game</text>
<text text-anchor="middle" x="89" y="-56" font-family="Helvetica,sans-Serif" font-size="10.00">ElementManager.selectSingleUnit</text>
</g>
<!-- Node2 -->
<g id="node2" class="node"><title>Node2</title>
<g id="a_node2"><a xlink:href="../../dd/dd8/classengine_1_1state_managing_1_1_game_element_manager.html#a2383f0a605117bbc67d1c4b077b7174c" target="_top" xlink:title="engine.stateManaging.Game\lElementManager.checkOnTeam">
<polygon fill="white" stroke="black" points="229.5,-98 229.5,-128 396.5,-128 396.5,-98 229.5,-98"/>
<text text-anchor="start" x="237.5" y="-116" font-family="Helvetica,sans-Serif" font-size="10.00">engine.stateManaging.Game</text>
<text text-anchor="middle" x="313" y="-105" font-family="Helvetica,sans-Serif" font-size="10.00">ElementManager.checkOnTeam</text>
</a>
</g>
</g>
<!-- Node1&#45;&gt;Node2 -->
<g id="edge1" class="edge"><title>Node1&#45;&gt;Node2</title>
<path fill="none" stroke="midnightblue" d="M158.116,-79.0346C182.089,-84.3259 209.215,-90.3133 233.943,-95.7712"/>
<polygon fill="midnightblue" stroke="midnightblue" points="233.493,-99.2561 244.013,-97.9938 235.002,-92.4207 233.493,-99.2561"/>
</g>
<!-- Node7 -->
<g id="node7" class="node"><title>Node7</title>
<g id="a_node7"><a xlink:href="../../dd/dd8/classengine_1_1state_managing_1_1_game_element_manager.html#aea7cca17969dfa8b91702eaf0be7a49a" target="_top" xlink:title="engine.stateManaging.Game\lElementManager.contains">
<polygon fill="white" stroke="black" points="235.5,-49 235.5,-79 390.5,-79 390.5,-49 235.5,-49"/>
<text text-anchor="start" x="243.5" y="-67" font-family="Helvetica,sans-Serif" font-size="10.00">engine.stateManaging.Game</text>
<text text-anchor="middle" x="313" y="-56" font-family="Helvetica,sans-Serif" font-size="10.00">ElementManager.contains</text>
</a>
</g>
</g>
<!-- Node1&#45;&gt;Node7 -->
<g id="edge6" class="edge"><title>Node1&#45;&gt;Node7</title>
<path fill="none" stroke="midnightblue" d="M178.059,-64C193.551,-64 209.665,-64 225.124,-64"/>
<polygon fill="midnightblue" stroke="midnightblue" points="225.175,-67.5001 235.175,-64 225.175,-60.5001 225.175,-67.5001"/>
</g>
<!-- Node8 -->
<g id="node8" class="node"><title>Node8</title>
<g id="a_node8"><a xlink:href="../../db/d6f/classengine_1_1game_representation_1_1rendered_representation_1_1_level.html#a08df8c7314ec79159bd08080849dd2f7" target="_top" xlink:title="engine.gameRepresentation.rendered\lRepresentation.Level.getUnits">
<polygon fill="white" stroke="black" points="214,-0 214,-30 412,-30 412,-0 214,-0"/>
<text text-anchor="start" x="222" y="-18" font-family="Helvetica,sans-Serif" font-size="10.00">engine.gameRepresentation.rendered</text>
<text text-anchor="middle" x="313" y="-7" font-family="Helvetica,sans-Serif" font-size="10.00">Representation.Level.getUnits</text>
</a>
</g>
</g>
<!-- Node1&#45;&gt;Node8 -->
<g id="edge7" class="edge"><title>Node1&#45;&gt;Node8</title>
<path fill="none" stroke="midnightblue" d="M158.116,-48.9654C182.089,-43.6741 209.215,-37.6867 233.943,-32.2288"/>
<polygon fill="midnightblue" stroke="midnightblue" points="235.002,-35.5793 244.013,-30.0062 233.493,-28.7439 235.002,-35.5793"/>
</g>
<!-- Node3 -->
<g id="node3" class="node"><title>Node3</title>
<g id="a_node3"><a xlink:href="../../d5/d29/classengine_1_1users_1_1_participant.html#abda8825e8c4e6b4b4340e23b65f0b685" target="_top" xlink:title="engine.users.Participant.check\lSameTeam">
<polygon fill="white" stroke="black" points="481,-125 481,-155 643,-155 643,-125 481,-125"/>
<text text-anchor="start" x="489" y="-143" font-family="Helvetica,sans-Serif" font-size="10.00">engine.users.Participant.check</text>
<text text-anchor="middle" x="562" y="-132" font-family="Helvetica,sans-Serif" font-size="10.00">SameTeam</text>
</a>
</g>
</g>
<!-- Node2&#45;&gt;Node3 -->
<g id="edge2" class="edge"><title>Node2&#45;&gt;Node3</title>
<path fill="none" stroke="midnightblue" d="M396.591,-122.028C420.274,-124.617 446.221,-127.453 470.361,-130.092"/>
<polygon fill="midnightblue" stroke="midnightblue" points="470.263,-133.602 480.584,-131.21 471.024,-126.644 470.263,-133.602"/>
</g>
<!-- Node4 -->
<g id="node4" class="node"><title>Node4</title>
<g id="a_node4"><a xlink:href="../../d4/de2/classengine_1_1game_representation_1_1rendered_representation_1_1_game_element.html#a0e5df2ee82fed90f049282832babf477" target="_top" xlink:title="engine.gameRepresentation.rendered\lRepresentation.GameElement.getNumerical\lAttribute">
<polygon fill="white" stroke="black" points="448,-65.5 448,-106.5 676,-106.5 676,-65.5 448,-65.5"/>
<text text-anchor="start" x="456" y="-94.5" font-family="Helvetica,sans-Serif" font-size="10.00">engine.gameRepresentation.rendered</text>
<text text-anchor="start" x="456" y="-83.5" font-family="Helvetica,sans-Serif" font-size="10.00">Representation.GameElement.getNumerical</text>
<text text-anchor="middle" x="562" y="-72.5" font-family="Helvetica,sans-Serif" font-size="10.00">Attribute</text>
</a>
</g>
</g>
<!-- Node2&#45;&gt;Node4 -->
<g id="edge3" class="edge"><title>Node2&#45;&gt;Node4</title>
<path fill="none" stroke="midnightblue" d="M396.591,-103.972C409.795,-102.529 423.702,-101.008 437.607,-99.4883"/>
<polygon fill="midnightblue" stroke="midnightblue" points="438.161,-102.949 447.722,-98.3827 437.4,-95.9901 438.161,-102.949"/>
</g>
<!-- Node5 -->
<g id="node5" class="node"><title>Node5</title>
<g id="a_node5"><a xlink:href="../../da/dc5/classmodel_1_1state_1_1gameelement_1_1_attribute_container.html#a5f0e6026d1877c9e4f04fe389163970c" target="_top" xlink:title="model.state.gameelement.\lAttributeContainer.getNumerical\lAttribute">
<polygon fill="white" stroke="black" points="712,-65.5 712,-106.5 884,-106.5 884,-65.5 712,-65.5"/>
<text text-anchor="start" x="720" y="-94.5" font-family="Helvetica,sans-Serif" font-size="10.00">model.state.gameelement.</text>
<text text-anchor="start" x="720" y="-83.5" font-family="Helvetica,sans-Serif" font-size="10.00">AttributeContainer.getNumerical</text>
<text text-anchor="middle" x="798" y="-72.5" font-family="Helvetica,sans-Serif" font-size="10.00">Attribute</text>
</a>
</g>
</g>
<!-- Node4&#45;&gt;Node5 -->
<g id="edge4" class="edge"><title>Node4&#45;&gt;Node5</title>
<path fill="none" stroke="midnightblue" d="M676.23,-86C684.773,-86 693.342,-86 701.756,-86"/>
<polygon fill="midnightblue" stroke="midnightblue" points="701.929,-89.5001 711.929,-86 701.929,-82.5001 701.929,-89.5001"/>
</g>
<!-- Node6 -->
<g id="node6" class="node"><title>Node6</title>
<g id="a_node6"><a xlink:href="../../da/dc5/classmodel_1_1state_1_1gameelement_1_1_attribute_container.html#a59a08ce23cf989feca0a78b2642364d4" target="_top" xlink:title="model.state.gameelement.\lAttributeContainer.getAttribute">
<polygon fill="white" stroke="black" points="920.5,-71 920.5,-101 1085.5,-101 1085.5,-71 920.5,-71"/>
<text text-anchor="start" x="928.5" y="-89" font-family="Helvetica,sans-Serif" font-size="10.00">model.state.gameelement.</text>
<text text-anchor="middle" x="1003" y="-78" font-family="Helvetica,sans-Serif" font-size="10.00">AttributeContainer.getAttribute</text>
</a>
</g>
</g>
<!-- Node5&#45;&gt;Node6 -->
<g id="edge5" class="edge"><title>Node5&#45;&gt;Node6</title>
<path fill="none" stroke="midnightblue" d="M884.208,-86C892.786,-86 901.524,-86 910.168,-86"/>
<polygon fill="midnightblue" stroke="midnightblue" points="910.256,-89.5001 920.256,-86 910.256,-82.5001 910.256,-89.5001"/>
</g>
</g>
</svg>
        <g id="navigator" transform="translate(0 0)" fill="#404254">
                <rect fill="#f2f5e9" fill-opacity="0.5" stroke="#606060" stroke-width=".5" x="0" y="0" width="60" height="60"/>
                <use id="zoomplus" xlink:href="#zoomPlus" x="17" y="9" onmousedown="handleZoom(evt,'in')"/>
                <use id="zoomminus" xlink:href="#zoomMin" x="42" y="9" onmousedown="handleZoom(evt,'out')"/>
                <use id="reset" xlink:href="#resetDef" x="30" y="36" onmousedown="handleReset()"/>
                <g id="arrowUp" xlink:href="#dirArrow" transform="translate(30 24)" onmousedown="handlePan(0,-1)">
                  <use xlink:href="#rim" fill="#404040">
                        <set attributeName="fill" to="#808080" begin="arrowUp.mouseover" end="arrowUp.mouseout"/>
                  </use>
                  <path fill="none" stroke="white" stroke-width="1.5" d="M0,-3.0v7 M-2.5,-0.5L0,-3.0L2.5,-0.5"/>
                </g>
                <g id="arrowRight" xlink:href="#dirArrow" transform="rotate(90) translate(36 -43)" onmousedown="handlePan(1,0)">
                  <use xlink:href="#rim" fill="#404040">
                        <set attributeName="fill" to="#808080" begin="arrowRight.mouseover" end="arrowRight.mouseout"/>
                  </use>
                  <path fill="none" stroke="white" stroke-width="1.5" d="M0,-3.0v7 M-2.5,-0.5L0,-3.0L2.5,-0.5"/>
                </g>
                <g id="arrowDown" xlink:href="#dirArrow" transform="rotate(180) translate(-30 -48)" onmousedown="handlePan(0,1)">
                  <use xlink:href="#rim" fill="#404040">
                        <set attributeName="fill" to="#808080" begin="arrowDown.mouseover" end="arrowDown.mouseout"/>
                  </use>
                  <path fill="none" stroke="white" stroke-width="1.5" d="M0,-3.0v7 M-2.5,-0.5L0,-3.0L2.5,-0.5"/>
                </g>
                <g id="arrowLeft" xlink:href="#dirArrow" transform="rotate(270) translate(-36 17)" onmousedown="handlePan(-1,0)">
                  <use xlink:href="#rim" fill="#404040">
                        <set attributeName="fill" to="#808080" begin="arrowLeft.mouseover" end="arrowLeft.mouseout"/>
                  </use>
                  <path fill="none" stroke="white" stroke-width="1.5" d="M0,-3.0v7 M-2.5,-0.5L0,-3.0L2.5,-0.5"/>
                </g>
        </g>
        <svg viewBox="0 0 15 15" width="100%" height="30px" preserveAspectRatio="xMaxYMin meet">
         <g id="arrow_out" transform="scale(0.3 0.3)">
          <a xlink:href="classengine_1_1state_managing_1_1_game_element_manager_ad49f94c118b947e6ac565560bf3ca14f_cgraph_org.svg" target="_base">
           <rect id="button" ry="5" rx="5" y="6" x="6" height="38" width="38"
                fill="#f2f5e9" fill-opacity="0.5" stroke="#606060" stroke-width="1.0"/>
           <path id="arrow"
             d="M 11.500037,31.436501 C 11.940474,20.09759 22.043105,11.32322 32.158766,21.979434 L 37.068811,17.246167 C 37.068811,17.246167 37.088388,32 37.088388,32 L 22.160133,31.978069 C 22.160133,31.978069 26.997745,27.140456 26.997745,27.140456 C 18.528582,18.264221 13.291696,25.230495 11.500037,31.436501 z"
             style="fill:#404040;"/>
          </a>
         </g>
        </svg>
</svg>
