<?xml version="1.0" encoding="UTF-8" standalone="no"?>
<!DOCTYPE svg PUBLIC "-//W3C//DTD SVG 1.1//EN"
 "http://www.w3.org/Graphics/SVG/1.1/DTD/svg11.dtd">
<!-- Generated by graphviz version 2.36.0 (20140111.2315)
 -->
<!-- Title: engine.stateManaging.GameElementManager.addGameElementToLevel Pages: 1 -->
<!--zoomable 190 -->
<svg id="main" version="1.1" xmlns="http://www.w3.org/2000/svg" xmlns:xlink="http://www.w3.org/1999/xlink" xml:space="preserve" onload="init(evt)">
<style type="text/css"><![CDATA[
.edge:hover path { stroke: red; }
.edge:hover polygon { stroke: red; fill: red; }
]]></style>
<script type="text/javascript"><![CDATA[
var edges = document.getElementsByTagName('g');
if (edges && edges.length) {
  for (var i=0;i<edges.length;i++) {
    if (edges[i].id.substr(0,4)=='edge') {
      edges[i].setAttribute('class','edge');
    }
  }
}
]]></script>
        <defs>
                <circle id="rim" cx="0" cy="0" r="7"/>
                <circle id="rim2" cx="0" cy="0" r="3.5"/>
                <g id="zoomPlus">
                        <use xlink:href="#rim" fill="#404040">
                                <set attributeName="fill" to="#808080" begin="zoomplus.mouseover" end="zoomplus.mouseout"/>
                        </use>
                        <path d="M-4,0h8M0,-4v8" fill="none" stroke="white" stroke-width="1.5" pointer-events="none"/>
                </g>
                <g id="zoomMin">
                        <use xlink:href="#rim" fill="#404040">
                                <set attributeName="fill" to="#808080" begin="zoomminus.mouseover" end="zoomminus.mouseout"/>
                        </use>
                        <path d="M-4,0h8" fill="none" stroke="white" stroke-width="1.5" pointer-events="none"/>
                </g>
                <g id="dirArrow">
                        <path fill="none" stroke="white" stroke-width="1.5" d="M0,-3.0v7 M-2.5,-0.5L0,-3.0L2.5,-0.5"/>
                </g>
               <g id="resetDef">
                       <use xlink:href="#rim2" fill="#404040">
                               <set attributeName="fill" to="#808080" begin="reset.mouseover" end="reset.mouseout"/>
                       </use>
               </g>
        </defs>

<script type="text/javascript">
var viewWidth = 1392;
var viewHeight = 190;
var sectionId = 'dynsection-3';
</script>
<script xlink:href="../../svgpan.js"/>
<svg id="graph" class="graph">
<g id="viewport">
<title>engine.stateManaging.GameElementManager.addGameElementToLevel</title>
<polygon fill="white" stroke="none" points="-4,4 -4,-186 1388,-186 1388,4 -4,4"/>
<!-- Node1 -->
<g id="node1" class="node"><title>Node1</title>
<polygon fill="#bfbfbf" stroke="black" points="0,-81 0,-111 222,-111 222,-81 0,-81"/>
<text text-anchor="start" x="8" y="-99" font-family="Helvetica,sans-Serif" font-size="10.00">engine.stateManaging.Game</text>
<text text-anchor="middle" x="111" y="-88" font-family="Helvetica,sans-Serif" font-size="10.00">ElementManager.addGameElementToLevel</text>
</g>
<!-- Node2 -->
<g id="node2" class="node"><title>Node2</title>
<g id="a_node2"><a xlink:href="../../db/d6f/classengine_1_1game_representation_1_1rendered_representation_1_1_level.html#aceb77eb949f1374332f14ce488cef1fa" target="_top" xlink:title="engine.gameRepresentation.rendered\lRepresentation.Level.addElement">
<polygon fill="white" stroke="black" points="258,-108 258,-138 456,-138 456,-108 258,-108"/>
<text text-anchor="start" x="266" y="-126" font-family="Helvetica,sans-Serif" font-size="10.00">engine.gameRepresentation.rendered</text>
<text text-anchor="middle" x="357" y="-115" font-family="Helvetica,sans-Serif" font-size="10.00">Representation.Level.addElement</text>
</a>
</g>
</g>
<!-- Node1&#45;&gt;Node2 -->
<g id="edge1" class="edge"><title>Node1&#45;&gt;Node2</title>
<path fill="none" stroke="midnightblue" d="M222.221,-108.197C230.754,-109.141 239.364,-110.094 247.883,-111.036"/>
<polygon fill="midnightblue" stroke="midnightblue" points="247.507,-114.516 257.831,-112.137 248.277,-107.558 247.507,-114.516"/>
</g>
<!-- Node5 -->
<g id="node5" class="node"><title>Node5</title>
<g id="a_node5"><a xlink:href="../../dc/d91/classengine_1_1element_factories_1_1_game_element_factory.html#ad0246a0ea244eefb16445b38c4b61ddf" target="_top" xlink:title="engine.elementFactories.\lGameElementFactory.createGame\lElement">
<polygon fill="white" stroke="black" points="266,-48.5 266,-89.5 448,-89.5 448,-48.5 266,-48.5"/>
<text text-anchor="start" x="274" y="-77.5" font-family="Helvetica,sans-Serif" font-size="10.00">engine.elementFactories.</text>
<text text-anchor="start" x="274" y="-66.5" font-family="Helvetica,sans-Serif" font-size="10.00">GameElementFactory.createGame</text>
<text text-anchor="middle" x="357" y="-55.5" font-family="Helvetica,sans-Serif" font-size="10.00">Element</text>
</a>
</g>
</g>
<!-- Node1&#45;&gt;Node5 -->
<g id="edge4" class="edge"><title>Node1&#45;&gt;Node5</title>
<path fill="none" stroke="midnightblue" d="M222.221,-83.8034C233.341,-82.5729 244.593,-81.3279 255.602,-80.1097"/>
<polygon fill="midnightblue" stroke="midnightblue" points="256.079,-83.5783 265.633,-78.9996 255.309,-76.6208 256.079,-83.5783"/>
</g>
<!-- Node3 -->
<g id="node3" class="node"><title>Node3</title>
<g id="a_node3"><a xlink:href="../../d2/de7/classmodel_1_1state_1_1_level_state.html#a7e393da870d4eeaa9a00c0eadf82279f" target="_top" xlink:title="model.state.LevelState.addGoal">
<polygon fill="white" stroke="black" points="514.5,-162.5 514.5,-181.5 685.5,-181.5 685.5,-162.5 514.5,-162.5"/>
<text text-anchor="middle" x="600" y="-169.5" font-family="Helvetica,sans-Serif" font-size="10.00">model.state.LevelState.addGoal</text>
</a>
</g>
</g>
<!-- Node2&#45;&gt;Node3 -->
<g id="edge2" class="edge"><title>Node2&#45;&gt;Node3</title>
<path fill="none" stroke="midnightblue" d="M425.747,-138.052C446.936,-142.655 470.417,-147.648 492,-152 506.374,-154.898 521.865,-157.877 536.475,-160.621"/>
<polygon fill="midnightblue" stroke="midnightblue" points="535.951,-164.084 546.424,-162.48 537.237,-157.203 535.951,-164.084"/>
</g>
<!-- Node4 -->
<g id="node4" class="node"><title>Node4</title>
<g id="a_node4"><a xlink:href="../../d4/de2/classengine_1_1game_representation_1_1rendered_representation_1_1_game_element.html#ad35ba4ef33132a56c60cb3864163d810" target="_top" xlink:title="engine.gameRepresentation.rendered\lRepresentation.GameElement.register\lAsChild">
<polygon fill="white" stroke="black" points="500,-102.5 500,-143.5 700,-143.5 700,-102.5 500,-102.5"/>
<text text-anchor="start" x="508" y="-131.5" font-family="Helvetica,sans-Serif" font-size="10.00">engine.gameRepresentation.rendered</text>
<text text-anchor="start" x="508" y="-120.5" font-family="Helvetica,sans-Serif" font-size="10.00">Representation.GameElement.register</text>
<text text-anchor="middle" x="600" y="-109.5" font-family="Helvetica,sans-Serif" font-size="10.00">AsChild</text>
</a>
</g>
</g>
<!-- Node2&#45;&gt;Node4 -->
<g id="edge3" class="edge"><title>Node2&#45;&gt;Node4</title>
<path fill="none" stroke="midnightblue" d="M456.024,-123C467.099,-123 478.436,-123 489.644,-123"/>
<polygon fill="midnightblue" stroke="midnightblue" points="489.889,-126.5 499.889,-123 489.889,-119.5 489.889,-126.5"/>
</g>
<!-- Node6 -->
<g id="node6" class="node"><title>Node6</title>
<g id="a_node6"><a xlink:href="../../de/dda/classmodel_1_1_game_universe.html#a1f73ac2abb4ee79349e9201ec19b4ab5" target="_top" xlink:title="model.GameUniverse.getGame\lElementState">
<polygon fill="white" stroke="black" points="515.5,-54 515.5,-84 684.5,-84 684.5,-54 515.5,-54"/>
<text text-anchor="start" x="523.5" y="-72" font-family="Helvetica,sans-Serif" font-size="10.00">model.GameUniverse.getGame</text>
<text text-anchor="middle" x="600" y="-61" font-family="Helvetica,sans-Serif" font-size="10.00">ElementState</text>
</a>
</g>
</g>
<!-- Node5&#45;&gt;Node6 -->
<g id="edge5" class="edge"><title>Node5&#45;&gt;Node6</title>
<path fill="none" stroke="midnightblue" d="M448.082,-69C466.781,-69 486.526,-69 505.35,-69"/>
<polygon fill="midnightblue" stroke="midnightblue" points="505.399,-72.5001 515.399,-69 505.399,-65.5001 505.399,-72.5001"/>
</g>
<!-- Node8 -->
<g id="node8" class="node"><title>Node8</title>
<g id="a_node8"><a xlink:href="../../d4/de2/classengine_1_1game_representation_1_1rendered_representation_1_1_game_element.html#ab00622dd7923aa9115154156e15451ae" target="_top" xlink:title="engine.gameRepresentation.rendered\lRepresentation.GameElement.setPosition">
<polygon fill="white" stroke="black" points="492,-5 492,-35 708,-35 708,-5 492,-5"/>
<text text-anchor="start" x="500" y="-23" font-family="Helvetica,sans-Serif" font-size="10.00">engine.gameRepresentation.rendered</text>
<text text-anchor="middle" x="600" y="-12" font-family="Helvetica,sans-Serif" font-size="10.00">Representation.GameElement.setPosition</text>
</a>
</g>
</g>
<!-- Node5&#45;&gt;Node8 -->
<g id="edge7" class="edge"><title>Node5&#45;&gt;Node8</title>
<path fill="none" stroke="midnightblue" d="M448.082,-50.6845C470.111,-46.2057 493.591,-41.4318 515.306,-37.0166"/>
<polygon fill="midnightblue" stroke="midnightblue" points="516.046,-40.4379 525.148,-35.0156 514.651,-33.5783 516.046,-40.4379"/>
</g>
<!-- Node7 -->
<g id="node7" class="node"><title>Node7</title>
<g id="a_node7"><a xlink:href="../../d6/dea/classutil_1_1_deep_copy.html#a2e316cf2fbb29f638582d531f13f2f25" target="_top" xlink:title="util.DeepCopy.deepCopy">
<polygon fill="white" stroke="black" points="791.5,-59.5 791.5,-78.5 924.5,-78.5 924.5,-59.5 791.5,-59.5"/>
<text text-anchor="middle" x="858" y="-66.5" font-family="Helvetica,sans-Serif" font-size="10.00">util.DeepCopy.deepCopy</text>
</a>
</g>
</g>
<!-- Node6&#45;&gt;Node7 -->
<g id="edge6" class="edge"><title>Node6&#45;&gt;Node7</title>
<path fill="none" stroke="midnightblue" d="M684.824,-69C715.874,-69 750.876,-69 781.174,-69"/>
<polygon fill="midnightblue" stroke="midnightblue" points="781.256,-72.5001 791.255,-69 781.255,-65.5001 781.256,-72.5001"/>
</g>
<!-- Node9 -->
<g id="node9" class="node"><title>Node9</title>
<g id="a_node9"><a xlink:href="../../d4/de2/classengine_1_1game_representation_1_1rendered_representation_1_1_game_element.html#a5a426090456bba2adf4993b5b3fb0ffd" target="_top" xlink:title="engine.gameRepresentation.rendered\lRepresentation.GameElement.setNumerical\lAttribute">
<polygon fill="white" stroke="black" points="744.5,0.5 744.5,-40.5 971.5,-40.5 971.5,0.5 744.5,0.5"/>
<text text-anchor="start" x="752.5" y="-28.5" font-family="Helvetica,sans-Serif" font-size="10.00">engine.gameRepresentation.rendered</text>
<text text-anchor="start" x="752.5" y="-17.5" font-family="Helvetica,sans-Serif" font-size="10.00">Representation.GameElement.setNumerical</text>
<text text-anchor="middle" x="858" y="-6.5" font-family="Helvetica,sans-Serif" font-size="10.00">Attribute</text>
</a>
</g>
</g>
<!-- Node8&#45;&gt;Node9 -->
<g id="edge8" class="edge"><title>Node8&#45;&gt;Node9</title>
<path fill="none" stroke="midnightblue" d="M708.084,-20C716.651,-20 725.347,-20 734.013,-20"/>
<polygon fill="midnightblue" stroke="midnightblue" points="734.162,-23.5001 744.162,-20 734.162,-16.5001 734.162,-23.5001"/>
</g>
<!-- Node10 -->
<g id="node10" class="node"><title>Node10</title>
<g id="a_node10"><a xlink:href="../../da/dc5/classmodel_1_1state_1_1gameelement_1_1_attribute_container.html#a168d6e922a93b11894753a0598c02cf7" target="_top" xlink:title="model.state.gameelement.\lAttributeContainer.setNumerical\lAttribute">
<polygon fill="white" stroke="black" points="1008.5,0.5 1008.5,-40.5 1179.5,-40.5 1179.5,0.5 1008.5,0.5"/>
<text text-anchor="start" x="1016.5" y="-28.5" font-family="Helvetica,sans-Serif" font-size="10.00">model.state.gameelement.</text>
<text text-anchor="start" x="1016.5" y="-17.5" font-family="Helvetica,sans-Serif" font-size="10.00">AttributeContainer.setNumerical</text>
<text text-anchor="middle" x="1094" y="-6.5" font-family="Helvetica,sans-Serif" font-size="10.00">Attribute</text>
</a>
</g>
</g>
<!-- Node9&#45;&gt;Node10 -->
<g id="edge9" class="edge"><title>Node9&#45;&gt;Node10</title>
<path fill="none" stroke="midnightblue" d="M971.545,-20C980.465,-20 989.42,-20 998.202,-20"/>
<polygon fill="midnightblue" stroke="midnightblue" points="998.419,-23.5001 1008.42,-20 998.419,-16.5001 998.419,-23.5001"/>
</g>
<!-- Node11 -->
<g id="node11" class="node"><title>Node11</title>
<g id="a_node11"><a xlink:href="../../da/dc5/classmodel_1_1state_1_1gameelement_1_1_attribute_container.html#a03dd9ed123fc97bfc8bce5528b488333" target="_top" xlink:title="model.state.gameelement.\lAttributeContainer.addAttribute">
<polygon fill="white" stroke="black" points="1216.5,-5 1216.5,-35 1383.5,-35 1383.5,-5 1216.5,-5"/>
<text text-anchor="start" x="1224.5" y="-23" font-family="Helvetica,sans-Serif" font-size="10.00">model.state.gameelement.</text>
<text text-anchor="middle" x="1300" y="-12" font-family="Helvetica,sans-Serif" font-size="10.00">AttributeContainer.addAttribute</text>
</a>
</g>
</g>
<!-- Node10&#45;&gt;Node11 -->
<g id="edge10" class="edge"><title>Node10&#45;&gt;Node11</title>
<path fill="none" stroke="midnightblue" d="M1179.74,-20C1188.57,-20 1197.58,-20 1206.49,-20"/>
<polygon fill="midnightblue" stroke="midnightblue" points="1206.49,-23.5001 1216.49,-20 1206.49,-16.5001 1206.49,-23.5001"/>
</g>
</g>
</svg>
        <g id="navigator" transform="translate(0 0)" fill="#404254">
                <rect fill="#f2f5e9" fill-opacity="0.5" stroke="#606060" stroke-width=".5" x="0" y="0" width="60" height="60"/>
                <use id="zoomplus" xlink:href="#zoomPlus" x="17" y="9" onmousedown="handleZoom(evt,'in')"/>
                <use id="zoomminus" xlink:href="#zoomMin" x="42" y="9" onmousedown="handleZoom(evt,'out')"/>
                <use id="reset" xlink:href="#resetDef" x="30" y="36" onmousedown="handleReset()"/>
                <g id="arrowUp" xlink:href="#dirArrow" transform="translate(30 24)" onmousedown="handlePan(0,-1)">
                  <use xlink:href="#rim" fill="#404040">
                        <set attributeName="fill" to="#808080" begin="arrowUp.mouseover" end="arrowUp.mouseout"/>
                  </use>
                  <path fill="none" stroke="white" stroke-width="1.5" d="M0,-3.0v7 M-2.5,-0.5L0,-3.0L2.5,-0.5"/>
                </g>
                <g id="arrowRight" xlink:href="#dirArrow" transform="rotate(90) translate(36 -43)" onmousedown="handlePan(1,0)">
                  <use xlink:href="#rim" fill="#404040">
                        <set attributeName="fill" to="#808080" begin="arrowRight.mouseover" end="arrowRight.mouseout"/>
                  </use>
                  <path fill="none" stroke="white" stroke-width="1.5" d="M0,-3.0v7 M-2.5,-0.5L0,-3.0L2.5,-0.5"/>
                </g>
                <g id="arrowDown" xlink:href="#dirArrow" transform="rotate(180) translate(-30 -48)" onmousedown="handlePan(0,1)">
                  <use xlink:href="#rim" fill="#404040">
                        <set attributeName="fill" to="#808080" begin="arrowDown.mouseover" end="arrowDown.mouseout"/>
                  </use>
                  <path fill="none" stroke="white" stroke-width="1.5" d="M0,-3.0v7 M-2.5,-0.5L0,-3.0L2.5,-0.5"/>
                </g>
                <g id="arrowLeft" xlink:href="#dirArrow" transform="rotate(270) translate(-36 17)" onmousedown="handlePan(-1,0)">
                  <use xlink:href="#rim" fill="#404040">
                        <set attributeName="fill" to="#808080" begin="arrowLeft.mouseover" end="arrowLeft.mouseout"/>
                  </use>
                  <path fill="none" stroke="white" stroke-width="1.5" d="M0,-3.0v7 M-2.5,-0.5L0,-3.0L2.5,-0.5"/>
                </g>
        </g>
        <svg viewBox="0 0 15 15" width="100%" height="30px" preserveAspectRatio="xMaxYMin meet">
         <g id="arrow_out" transform="scale(0.3 0.3)">
          <a xlink:href="classengine_1_1state_managing_1_1_game_element_manager_afd73b1e02bd85b7edad0828041e7fafa_cgraph_org.svg" target="_base">
           <rect id="button" ry="5" rx="5" y="6" x="6" height="38" width="38"
                fill="#f2f5e9" fill-opacity="0.5" stroke="#606060" stroke-width="1.0"/>
           <path id="arrow"
             d="M 11.500037,31.436501 C 11.940474,20.09759 22.043105,11.32322 32.158766,21.979434 L 37.068811,17.246167 C 37.068811,17.246167 37.088388,32 37.088388,32 L 22.160133,31.978069 C 22.160133,31.978069 26.997745,27.140456 26.997745,27.140456 C 18.528582,18.264221 13.291696,25.230495 11.500037,31.436501 z"
             style="fill:#404040;"/>
          </a>
         </g>
        </svg>
</svg>
