<?xml version="1.0" encoding="UTF-8" standalone="no"?>
<!DOCTYPE svg PUBLIC "-//W3C//DTD SVG 1.1//EN"
 "http://www.w3.org/Graphics/SVG/1.1/DTD/svg11.dtd">
<!-- Generated by graphviz version 2.36.0 (20140111.2315)
 -->
<!-- Title: engine.stateManaging.GameElementManager.filterSelectedUnits Pages: 1 -->
<svg width="932pt" height="220pt"
 viewBox="0.00 0.00 932.00 220.00" xmlns="http://www.w3.org/2000/svg" xmlns:xlink="http://www.w3.org/1999/xlink">
<g id="graph0" class="graph" transform="scale(1 1) rotate(0) translate(4 216)">
<title>engine.stateManaging.GameElementManager.filterSelectedUnits</title>
<polygon fill="white" stroke="none" points="-4,4 -4,-216 928,-216 928,4 -4,4"/>
<!-- Node1 -->
<g id="node1" class="node"><title>Node1</title>
<polygon fill="#bfbfbf" stroke="black" points="0,-102 0,-132 188,-132 188,-102 0,-102"/>
<text text-anchor="start" x="8" y="-120" font-family="Helvetica,sans-Serif" font-size="10.00">engine.stateManaging.Game</text>
<text text-anchor="middle" x="94" y="-109" font-family="Helvetica,sans-Serif" font-size="10.00">ElementManager.filterSelectedUnits</text>
</g>
<!-- Node2 -->
<g id="node2" class="node"><title>Node2</title>
<g id="a_node2"><a xlink:href="../../dd/dd8/classengine_1_1state_managing_1_1_game_element_manager.html#acde24ae5cddaad1207be2d6d37bf4a26" target="_top" xlink:title="engine.stateManaging.Game\lElementManager.clearSelectedElements\lOfTarget">
<polygon fill="white" stroke="black" points="225.5,-170.5 225.5,-211.5 436.5,-211.5 436.5,-170.5 225.5,-170.5"/>
<text text-anchor="start" x="233.5" y="-199.5" font-family="Helvetica,sans-Serif" font-size="10.00">engine.stateManaging.Game</text>
<text text-anchor="start" x="233.5" y="-188.5" font-family="Helvetica,sans-Serif" font-size="10.00">ElementManager.clearSelectedElements</text>
<text text-anchor="middle" x="331" y="-177.5" font-family="Helvetica,sans-Serif" font-size="10.00">OfTarget</text>
</a>
</g>
</g>
<!-- Node1&#45;&gt;Node2 -->
<g id="edge1" class="edge"><title>Node1&#45;&gt;Node2</title>
<path fill="none" stroke="midnightblue" d="M152.615,-135.143C186.581,-145.838 229.659,-159.403 264.858,-170.487"/>
<polygon fill="midnightblue" stroke="midnightblue" points="153.429,-131.729 142.839,-132.064 151.326,-138.406 153.429,-131.729"/>
</g>
<!-- Node3 -->
<g id="node3" class="node"><title>Node3</title>
<g id="a_node3"><a xlink:href="../../dd/dd8/classengine_1_1state_managing_1_1_game_element_manager.html#af2b27c63c8557bc1b84990cd1e266f9f" target="_top" xlink:title="engine.stateManaging.Game\lElementManager.setSelectedUnit\lCommand">
<polygon fill="white" stroke="black" points="484.5,-121.5 484.5,-162.5 661.5,-162.5 661.5,-121.5 484.5,-121.5"/>
<text text-anchor="start" x="492.5" y="-150.5" font-family="Helvetica,sans-Serif" font-size="10.00">engine.stateManaging.Game</text>
<text text-anchor="start" x="492.5" y="-139.5" font-family="Helvetica,sans-Serif" font-size="10.00">ElementManager.setSelectedUnit</text>
<text text-anchor="middle" x="573" y="-128.5" font-family="Helvetica,sans-Serif" font-size="10.00">Command</text>
</a>
</g>
</g>
<!-- Node1&#45;&gt;Node3 -->
<g id="edge9" class="edge"><title>Node1&#45;&gt;Node3</title>
<path fill="none" stroke="midnightblue" d="M198.34,-122.416C283.725,-126.891 403.614,-133.175 484.362,-137.407"/>
<polygon fill="midnightblue" stroke="midnightblue" points="198.272,-118.908 188.103,-121.88 197.906,-125.898 198.272,-118.908"/>
</g>
<!-- Node5 -->
<g id="node5" class="node"><title>Node5</title>
<g id="a_node5"><a xlink:href="../../dd/dd8/classengine_1_1state_managing_1_1_game_element_manager.html#a04ca8235fa56ebe7fcf7f4e6e28e7867" target="_top" xlink:title="engine.stateManaging.Game\lElementManager.notifyButtonClicked">
<polygon fill="white" stroke="black" points="234.5,-24 234.5,-54 427.5,-54 427.5,-24 234.5,-24"/>
<text text-anchor="start" x="242.5" y="-42" font-family="Helvetica,sans-Serif" font-size="10.00">engine.stateManaging.Game</text>
<text text-anchor="middle" x="331" y="-31" font-family="Helvetica,sans-Serif" font-size="10.00">ElementManager.notifyButtonClicked</text>
</a>
</g>
</g>
<!-- Node1&#45;&gt;Node5 -->
<g id="edge4" class="edge"><title>Node1&#45;&gt;Node5</title>
<path fill="none" stroke="midnightblue" d="M135.94,-97.7104C160.966,-86.4636 193.857,-72.6406 224,-63 234.244,-59.7237 245.181,-56.7165 255.995,-54.0211"/>
<polygon fill="midnightblue" stroke="midnightblue" points="134.414,-94.5593 126.756,-101.881 137.308,-100.933 134.414,-94.5593"/>
</g>
<!-- Node8 -->
<g id="node8" class="node"><title>Node8</title>
<g id="a_node8"><a xlink:href="../../dd/dd8/classengine_1_1state_managing_1_1_game_element_manager.html#a8a3b50a820c049092610132275d5a133" target="_top" xlink:title="engine.stateManaging.Game\lElementManager.notifySelectedElements\lOfTarget">
<polygon fill="white" stroke="black" points="224,-72.5 224,-113.5 438,-113.5 438,-72.5 224,-72.5"/>
<text text-anchor="start" x="232" y="-101.5" font-family="Helvetica,sans-Serif" font-size="10.00">engine.stateManaging.Game</text>
<text text-anchor="start" x="232" y="-90.5" font-family="Helvetica,sans-Serif" font-size="10.00">ElementManager.notifySelectedElements</text>
<text text-anchor="middle" x="331" y="-79.5" font-family="Helvetica,sans-Serif" font-size="10.00">OfTarget</text>
</a>
</g>
</g>
<!-- Node1&#45;&gt;Node8 -->
<g id="edge7" class="edge"><title>Node1&#45;&gt;Node8</title>
<path fill="none" stroke="midnightblue" d="M198.4,-106.44C206.799,-105.582 215.295,-104.715 223.714,-103.855"/>
<polygon fill="midnightblue" stroke="midnightblue" points="197.808,-102.982 188.216,-107.48 198.52,-109.946 197.808,-102.982"/>
</g>
<!-- Node2&#45;&gt;Node3 -->
<g id="edge2" class="edge"><title>Node2&#45;&gt;Node3</title>
<path fill="none" stroke="midnightblue" d="M442.861,-168.366C456.819,-165.516 470.942,-162.633 484.47,-159.871"/>
<polygon fill="midnightblue" stroke="midnightblue" points="441.836,-165.003 432.738,-170.433 443.236,-171.861 441.836,-165.003"/>
</g>
<!-- Node4 -->
<g id="node4" class="node"><title>Node4</title>
<g id="a_node4"><a xlink:href="../../de/db7/classengine_1_1_u_i_1_1_runner_input_manager.html#a4709ebdf2608218227aab4d9af9ca2ca" target="_top" xlink:title="engine.UI.RunnerInputManager.secondary\lClickOccurred">
<polygon fill="white" stroke="black" points="708.5,-127 708.5,-157 923.5,-157 923.5,-127 708.5,-127"/>
<text text-anchor="start" x="716.5" y="-145" font-family="Helvetica,sans-Serif" font-size="10.00">engine.UI.RunnerInputManager.secondary</text>
<text text-anchor="middle" x="816" y="-134" font-family="Helvetica,sans-Serif" font-size="10.00">ClickOccurred</text>
</a>
</g>
</g>
<!-- Node3&#45;&gt;Node4 -->
<g id="edge3" class="edge"><title>Node3&#45;&gt;Node4</title>
<path fill="none" stroke="midnightblue" d="M672.036,-142C683.912,-142 696.091,-142 708.088,-142"/>
<polygon fill="midnightblue" stroke="midnightblue" points="671.688,-138.5 661.688,-142 671.688,-145.5 671.688,-138.5"/>
</g>
<!-- Node6 -->
<g id="node6" class="node"><title>Node6</title>
<g id="a_node6"><a xlink:href="../../de/db7/classengine_1_1_u_i_1_1_runner_input_manager.html#aed338dcfef23593dc29149fe5fb7bce9" target="_top" xlink:title="engine.UI.RunnerInputManager.key\lPressed">
<polygon fill="white" stroke="black" points="482,-49 482,-79 664,-79 664,-49 482,-49"/>
<text text-anchor="start" x="490" y="-67" font-family="Helvetica,sans-Serif" font-size="10.00">engine.UI.RunnerInputManager.key</text>
<text text-anchor="middle" x="573" y="-56" font-family="Helvetica,sans-Serif" font-size="10.00">Pressed</text>
</a>
</g>
</g>
<!-- Node5&#45;&gt;Node6 -->
<g id="edge5" class="edge"><title>Node5&#45;&gt;Node6</title>
<path fill="none" stroke="midnightblue" d="M437.686,-50.009C452.42,-51.5438 467.446,-53.1089 481.858,-54.6102"/>
<polygon fill="midnightblue" stroke="midnightblue" points="437.853,-46.5075 427.544,-48.9525 437.127,-53.4698 437.853,-46.5075"/>
</g>
<!-- Node7 -->
<g id="node7" class="node"><title>Node7</title>
<g id="a_node7"><a xlink:href="../../de/db7/classengine_1_1_u_i_1_1_runner_input_manager.html#ae0fb6ff58423e4a0f464e6c2a65fb437" target="_top" xlink:title="engine.UI.RunnerInputManager.screen\lButtonClicked">
<polygon fill="white" stroke="black" points="474,-0 474,-30 672,-30 672,-0 474,-0"/>
<text text-anchor="start" x="482" y="-18" font-family="Helvetica,sans-Serif" font-size="10.00">engine.UI.RunnerInputManager.screen</text>
<text text-anchor="middle" x="573" y="-7" font-family="Helvetica,sans-Serif" font-size="10.00">ButtonClicked</text>
</a>
</g>
</g>
<!-- Node5&#45;&gt;Node7 -->
<g id="edge6" class="edge"><title>Node5&#45;&gt;Node7</title>
<path fill="none" stroke="midnightblue" d="M437.562,-28.4438C449.556,-27.2444 461.746,-26.0254 473.642,-24.8358"/>
<polygon fill="midnightblue" stroke="midnightblue" points="437.146,-24.9678 427.544,-29.4456 437.843,-31.9331 437.146,-24.9678"/>
</g>
<!-- Node8&#45;&gt;Node3 -->
<g id="edge8" class="edge"><title>Node8&#45;&gt;Node3</title>
<path fill="none" stroke="midnightblue" d="M442.861,-115.634C456.819,-118.484 470.942,-121.367 484.47,-124.129"/>
<polygon fill="midnightblue" stroke="midnightblue" points="443.236,-112.139 432.738,-113.567 441.836,-118.997 443.236,-112.139"/>
</g>
</g>
</svg>
