<?xml version="1.0" encoding="UTF-8" standalone="no"?>
<!DOCTYPE svg PUBLIC "-//W3C//DTD SVG 1.1//EN"
 "http://www.w3.org/Graphics/SVG/1.1/DTD/svg11.dtd">
<!-- Generated by graphviz version 2.36.0 (20140111.2315)
 -->
<!-- Title: view.editor.DescribableInfoBoxController.setText Pages: 1 -->
<svg width="740pt" height="87pt"
 viewBox="0.00 0.00 740.00 87.00" xmlns="http://www.w3.org/2000/svg" xmlns:xlink="http://www.w3.org/1999/xlink">
<g id="graph0" class="graph" transform="scale(1 1) rotate(0) translate(4 83)">
<title>view.editor.DescribableInfoBoxController.setText</title>
<polygon fill="white" stroke="none" points="-4,4 -4,-83 736,-83 736,4 -4,4"/>
<!-- Node1 -->
<g id="node1" class="node"><title>Node1</title>
<polygon fill="#bfbfbf" stroke="black" points="0.5,-24 0.5,-54 143.5,-54 143.5,-24 0.5,-24"/>
<text text-anchor="start" x="8.5" y="-42" font-family="Helvetica,sans-Serif" font-size="10.00">view.editor.DescribableInfo</text>
<text text-anchor="middle" x="72" y="-31" font-family="Helvetica,sans-Serif" font-size="10.00">BoxController.setText</text>
</g>
<!-- Node2 -->
<g id="node2" class="node"><title>Node2</title>
<g id="a_node2"><a xlink:href="../../d0/db5/classview_1_1editor_1_1_editor_screen.html#a5f5fb5168dd6e42923a567640bbab58f" target="_top" xlink:title="view.editor.EditorScreen.update\lInfoBox">
<polygon fill="white" stroke="black" points="180.5,-24 180.5,-54 347.5,-54 347.5,-24 180.5,-24"/>
<text text-anchor="start" x="188.5" y="-42" font-family="Helvetica,sans-Serif" font-size="10.00">view.editor.EditorScreen.update</text>
<text text-anchor="middle" x="264" y="-31" font-family="Helvetica,sans-Serif" font-size="10.00">InfoBox</text>
</a>
</g>
</g>
<!-- Node1&#45;&gt;Node2 -->
<g id="edge1" class="edge"><title>Node1&#45;&gt;Node2</title>
<path fill="none" stroke="midnightblue" d="M153.92,-39C162.663,-39 171.569,-39 180.332,-39"/>
<polygon fill="midnightblue" stroke="midnightblue" points="153.749,-35.5001 143.749,-39 153.749,-42.5001 153.749,-35.5001"/>
</g>
<!-- Node3 -->
<g id="node3" class="node"><title>Node3</title>
<g id="a_node3"><a xlink:href="../../d0/db5/classview_1_1editor_1_1_editor_screen.html#aaad5f29799d14174213c2f06f6156890" target="_top" xlink:title="view.editor.EditorScreen.init\lProjectExplorer">
<polygon fill="white" stroke="black" points="392,-49 392,-79 540,-79 540,-49 392,-49"/>
<text text-anchor="start" x="400" y="-67" font-family="Helvetica,sans-Serif" font-size="10.00">view.editor.EditorScreen.init</text>
<text text-anchor="middle" x="466" y="-56" font-family="Helvetica,sans-Serif" font-size="10.00">ProjectExplorer</text>
</a>
</g>
</g>
<!-- Node2&#45;&gt;Node3 -->
<g id="edge2" class="edge"><title>Node2&#45;&gt;Node3</title>
<path fill="none" stroke="midnightblue" d="M357.587,-50.5734C369.119,-52.0149 380.783,-53.4729 391.962,-54.8702"/>
<polygon fill="midnightblue" stroke="midnightblue" points="357.859,-47.0803 347.502,-49.3128 356.991,-54.0262 357.859,-47.0803"/>
</g>
<!-- Node5 -->
<g id="node5" class="node"><title>Node5</title>
<g id="a_node5"><a xlink:href="../../d0/db5/classview_1_1editor_1_1_editor_screen.html#a46b5e664f69da1947e605de4336f09cf" target="_top" xlink:title="view.editor.EditorScreen.model\lUpdate">
<polygon fill="white" stroke="black" points="384,-0 384,-30 548,-30 548,-0 384,-0"/>
<text text-anchor="start" x="392" y="-18" font-family="Helvetica,sans-Serif" font-size="10.00">view.editor.EditorScreen.model</text>
<text text-anchor="middle" x="466" y="-7" font-family="Helvetica,sans-Serif" font-size="10.00">Update</text>
</a>
</g>
</g>
<!-- Node2&#45;&gt;Node5 -->
<g id="edge4" class="edge"><title>Node2&#45;&gt;Node5</title>
<path fill="none" stroke="midnightblue" d="M357.452,-27.9058C366.307,-26.8431 375.242,-25.7709 383.977,-24.7228"/>
<polygon fill="midnightblue" stroke="midnightblue" points="357.014,-24.4331 347.502,-29.0997 357.848,-31.3832 357.014,-24.4331"/>
</g>
<!-- Node4 -->
<g id="node4" class="node"><title>Node4</title>
<g id="a_node4"><a xlink:href="../../d0/db5/classview_1_1editor_1_1_editor_screen.html#aba6c32908c25fa4f755a312e92860c02" target="_top" xlink:title="view.editor.EditorScreen.init">
<polygon fill="white" stroke="black" points="584,-54.5 584,-73.5 732,-73.5 732,-54.5 584,-54.5"/>
<text text-anchor="middle" x="658" y="-61.5" font-family="Helvetica,sans-Serif" font-size="10.00">view.editor.EditorScreen.init</text>
</a>
</g>
</g>
<!-- Node3&#45;&gt;Node4 -->
<g id="edge3" class="edge"><title>Node3&#45;&gt;Node4</title>
<path fill="none" stroke="midnightblue" d="M550.354,-64C561.512,-64 572.886,-64 583.85,-64"/>
<polygon fill="midnightblue" stroke="midnightblue" points="550.187,-60.5001 540.187,-64 550.187,-67.5001 550.187,-60.5001"/>
</g>
</g>
</svg>
