<?xml version="1.0" encoding="UTF-8" standalone="no"?>
<!DOCTYPE svg PUBLIC "-//W3C//DTD SVG 1.1//EN"
 "http://www.w3.org/Graphics/SVG/1.1/DTD/svg11.dtd">
<!-- Generated by graphviz version 2.36.0 (20140111.2315)
 -->
<!-- Title: view.editor.DescribableInfoBoxController.initLabelInputSwitching Pages: 1 -->
<svg width="380pt" height="38pt"
 viewBox="0.00 0.00 380.00 38.00" xmlns="http://www.w3.org/2000/svg" xmlns:xlink="http://www.w3.org/1999/xlink">
<g id="graph0" class="graph" transform="scale(1 1) rotate(0) translate(4 34)">
<title>view.editor.DescribableInfoBoxController.initLabelInputSwitching</title>
<polygon fill="white" stroke="none" points="-4,4 -4,-34 376,-34 376,4 -4,4"/>
<!-- Node1 -->
<g id="node1" class="node"><title>Node1</title>
<polygon fill="#bfbfbf" stroke="black" points="0,-0 0,-30 192,-30 192,-0 0,-0"/>
<text text-anchor="start" x="8" y="-18" font-family="Helvetica,sans-Serif" font-size="10.00">view.editor.DescribableInfo</text>
<text text-anchor="middle" x="96" y="-7" font-family="Helvetica,sans-Serif" font-size="10.00">BoxController.initLabelInputSwitching</text>
</g>
<!-- Node2 -->
<g id="node2" class="node"><title>Node2</title>
<g id="a_node2"><a xlink:href="../../d7/d60/classview_1_1editor_1_1_describable_info_box_controller.html#a814d3e2c7a2cab4e50908c2730dd1dfe" target="_top" xlink:title="view.editor.DescribableInfo\lBoxController.initialize">
<polygon fill="white" stroke="black" points="228.5,-0 228.5,-30 371.5,-30 371.5,-0 228.5,-0"/>
<text text-anchor="start" x="236.5" y="-18" font-family="Helvetica,sans-Serif" font-size="10.00">view.editor.DescribableInfo</text>
<text text-anchor="middle" x="300" y="-7" font-family="Helvetica,sans-Serif" font-size="10.00">BoxController.initialize</text>
</a>
</g>
</g>
<!-- Node1&#45;&gt;Node2 -->
<g id="edge1" class="edge"><title>Node1&#45;&gt;Node2</title>
<path fill="none" stroke="midnightblue" d="M202.085,-15C210.94,-15 219.753,-15 228.25,-15"/>
<polygon fill="midnightblue" stroke="midnightblue" points="202.085,-11.5001 192.085,-15 202.085,-18.5001 202.085,-11.5001"/>
</g>
</g>
</svg>
