<?xml version="1.0" encoding="UTF-8" standalone="no"?>
<!DOCTYPE svg PUBLIC "-//W3C//DTD SVG 1.1//EN"
 "http://www.w3.org/Graphics/SVG/1.1/DTD/svg11.dtd">
<!-- Generated by graphviz version 2.36.0 (20140111.2315)
 -->
<!-- Title: engine.gameRepresentation.evaluatables.evaluators.SubtractionAssignment.evaluate Pages: 1 -->
<svg width="842pt" height="87pt"
 viewBox="0.00 0.00 842.00 87.00" xmlns="http://www.w3.org/2000/svg" xmlns:xlink="http://www.w3.org/1999/xlink">
<g id="graph0" class="graph" transform="scale(1 1) rotate(0) translate(4 83)">
<title>engine.gameRepresentation.evaluatables.evaluators.SubtractionAssignment.evaluate</title>
<polygon fill="white" stroke="none" points="-4,4 -4,-83 838,-83 838,4 -4,4"/>
<!-- Node1 -->
<g id="node1" class="node"><title>Node1</title>
<polygon fill="#bfbfbf" stroke="black" points="0,-24 0,-54 272,-54 272,-24 0,-24"/>
<text text-anchor="start" x="8" y="-42" font-family="Helvetica,sans-Serif" font-size="10.00">engine.gameRepresentation.evaluatables.evaluators.</text>
<text text-anchor="middle" x="136" y="-31" font-family="Helvetica,sans-Serif" font-size="10.00">SubtractionAssignment.evaluate</text>
</g>
<!-- Node2 -->
<g id="node2" class="node"><title>Node2</title>
<g id="a_node2"><a xlink:href="../../dc/d0e/classengine_1_1game_representation_1_1evaluatables_1_1evaluators_1_1_evaluator.html#afcf78344c3a811aa49ad70496490302c" target="_top" xlink:title="engine.gameRepresentation.evaluatables.evaluators.\lEvaluator\&lt; A, B, Number \&gt;::setParameter1Value">
<polygon fill="white" stroke="black" points="308,-24 308,-54 580,-54 580,-24 308,-24"/>
<text text-anchor="start" x="316" y="-42" font-family="Helvetica,sans-Serif" font-size="10.00">engine.gameRepresentation.evaluatables.evaluators.</text>
<text text-anchor="middle" x="444" y="-31" font-family="Helvetica,sans-Serif" font-size="10.00">Evaluator&lt; A, B, Number &gt;::setParameter1Value</text>
</a>
</g>
</g>
<!-- Node1&#45;&gt;Node2 -->
<g id="edge1" class="edge"><title>Node1&#45;&gt;Node2</title>
<path fill="none" stroke="midnightblue" d="M272.107,-39C280.622,-39 289.213,-39 297.771,-39"/>
<polygon fill="midnightblue" stroke="midnightblue" points="297.796,-42.5001 307.796,-39 297.796,-35.5001 297.796,-42.5001"/>
</g>
<!-- Node3 -->
<g id="node3" class="node"><title>Node3</title>
<g id="a_node3"><a xlink:href="../../dc/d45/classengine_1_1game_representation_1_1evaluatables_1_1_evaluatable.html#adc7b45f8d2e3e37c49a8e9be70643079" target="_top" xlink:title="engine.gameRepresentation.evaluatables.\lEvaluatable.setValue">
<polygon fill="white" stroke="black" points="616,-49 616,-79 834,-79 834,-49 616,-49"/>
<text text-anchor="start" x="624" y="-67" font-family="Helvetica,sans-Serif" font-size="10.00">engine.gameRepresentation.evaluatables.</text>
<text text-anchor="middle" x="725" y="-56" font-family="Helvetica,sans-Serif" font-size="10.00">Evaluatable.setValue</text>
</a>
</g>
</g>
<!-- Node2&#45;&gt;Node3 -->
<g id="edge2" class="edge"><title>Node2&#45;&gt;Node3</title>
<path fill="none" stroke="midnightblue" d="M580.005,-51.0972C588.509,-51.8593 597.036,-52.6233 605.458,-53.378"/>
<polygon fill="midnightblue" stroke="midnightblue" points="605.399,-56.8866 615.671,-54.2931 606.023,-49.9145 605.399,-56.8866"/>
</g>
<!-- Node4 -->
<g id="node4" class="node"><title>Node4</title>
<g id="a_node4"><a xlink:href="../../dc/d45/classengine_1_1game_representation_1_1evaluatables_1_1_evaluatable.html#a808c0c93a03ff8ea3ab0f53edf675931" target="_top" xlink:title="engine.gameRepresentation.evaluatables.\lEvaluatable.getType">
<polygon fill="white" stroke="black" points="616,-0 616,-30 834,-30 834,-0 616,-0"/>
<text text-anchor="start" x="624" y="-18" font-family="Helvetica,sans-Serif" font-size="10.00">engine.gameRepresentation.evaluatables.</text>
<text text-anchor="middle" x="725" y="-7" font-family="Helvetica,sans-Serif" font-size="10.00">Evaluatable.getType</text>
</a>
</g>
</g>
<!-- Node2&#45;&gt;Node4 -->
<g id="edge3" class="edge"><title>Node2&#45;&gt;Node4</title>
<path fill="none" stroke="midnightblue" d="M580.005,-27.3867C588.509,-26.6551 597.036,-25.9216 605.458,-25.1972"/>
<polygon fill="midnightblue" stroke="midnightblue" points="606.008,-28.6629 615.671,-24.3186 605.408,-21.6886 606.008,-28.6629"/>
</g>
</g>
</svg>
