<?xml version="1.0" encoding="UTF-8" standalone="no"?>
<!DOCTYPE svg PUBLIC "-//W3C//DTD SVG 1.1//EN"
 "http://www.w3.org/Graphics/SVG/1.1/DTD/svg11.dtd">
<!-- Generated by graphviz version 2.36.0 (20140111.2315)
 -->
<!-- Title: engine.UI.InputManager.primaryClickReleaseOccurred Pages: 1 -->
<svg width="518pt" height="38pt"
 viewBox="0.00 0.00 518.00 38.00" xmlns="http://www.w3.org/2000/svg" xmlns:xlink="http://www.w3.org/1999/xlink">
<g id="graph0" class="graph" transform="scale(1 1) rotate(0) translate(4 34)">
<title>engine.UI.InputManager.primaryClickReleaseOccurred</title>
<polygon fill="white" stroke="none" points="-4,4 -4,-34 514,-34 514,4 -4,4"/>
<!-- Node1 -->
<g id="node1" class="node"><title>Node1</title>
<polygon fill="#bfbfbf" stroke="black" points="0,-0 0,-30 170,-30 170,-0 0,-0"/>
<text text-anchor="start" x="8" y="-18" font-family="Helvetica,sans-Serif" font-size="10.00">engine.UI.InputManager.primary</text>
<text text-anchor="middle" x="85" y="-7" font-family="Helvetica,sans-Serif" font-size="10.00">ClickReleaseOccurred</text>
</g>
<!-- Node2 -->
<g id="node2" class="node"><title>Node2</title>
<g id="a_node2"><a xlink:href="../../de/d79/classengine_1_1visuals_1_1_scrollable_pane.html#a84c7589cc61d150a9b33e4603bbac25a" target="_top" xlink:title="engine.visuals.Scrollable\lPane.initializeHandlers">
<polygon fill="white" stroke="black" points="206,-0 206,-30 340,-30 340,-0 206,-0"/>
<text text-anchor="start" x="214" y="-18" font-family="Helvetica,sans-Serif" font-size="10.00">engine.visuals.Scrollable</text>
<text text-anchor="middle" x="273" y="-7" font-family="Helvetica,sans-Serif" font-size="10.00">Pane.initializeHandlers</text>
</a>
</g>
</g>
<!-- Node1&#45;&gt;Node2 -->
<g id="edge1" class="edge"><title>Node1&#45;&gt;Node2</title>
<path fill="none" stroke="midnightblue" d="M180.205,-15C188.89,-15 197.561,-15 205.914,-15"/>
<polygon fill="midnightblue" stroke="midnightblue" points="180.021,-11.5001 170.021,-15 180.021,-18.5001 180.021,-11.5001"/>
</g>
<!-- Node3 -->
<g id="node3" class="node"><title>Node3</title>
<g id="a_node3"><a xlink:href="../../de/d79/classengine_1_1visuals_1_1_scrollable_pane.html#a160609c946e14e2b92b2a0fa98d8e488" target="_top" xlink:title="engine.visuals.Scrollable\lPane.ScrollablePane">
<polygon fill="white" stroke="black" points="376,-0 376,-30 510,-30 510,-0 376,-0"/>
<text text-anchor="start" x="384" y="-18" font-family="Helvetica,sans-Serif" font-size="10.00">engine.visuals.Scrollable</text>
<text text-anchor="middle" x="443" y="-7" font-family="Helvetica,sans-Serif" font-size="10.00">Pane.ScrollablePane</text>
</a>
</g>
</g>
<!-- Node2&#45;&gt;Node3 -->
<g id="edge2" class="edge"><title>Node2&#45;&gt;Node3</title>
<path fill="none" stroke="midnightblue" d="M350.595,-15C359.013,-15 367.532,-15 375.809,-15"/>
<polygon fill="midnightblue" stroke="midnightblue" points="350.398,-11.5001 340.398,-15 350.398,-18.5001 350.398,-11.5001"/>
</g>
</g>
</svg>
