<?xml version="1.0" encoding="UTF-8" standalone="no"?>
<!DOCTYPE svg PUBLIC "-//W3C//DTD SVG 1.1//EN"
 "http://www.w3.org/Graphics/SVG/1.1/DTD/svg11.dtd">
<!-- Generated by graphviz version 2.36.0 (20140111.2315)
 -->
<!-- Title: editor.wizards.GameElementWizard.initialize Pages: 1 -->
<svg width="980pt" height="260pt"
 viewBox="0.00 0.00 980.00 260.00" xmlns="http://www.w3.org/2000/svg" xmlns:xlink="http://www.w3.org/1999/xlink">
<g id="graph0" class="graph" transform="scale(1 1) rotate(0) translate(4 256)">
<title>editor.wizards.GameElementWizard.initialize</title>
<polygon fill="white" stroke="none" points="-4,4 -4,-256 976,-256 976,4 -4,4"/>
<!-- Node1 -->
<g id="node1" class="node"><title>Node1</title>
<polygon fill="#bfbfbf" stroke="black" points="0,-73 0,-103 154,-103 154,-73 0,-73"/>
<text text-anchor="start" x="8" y="-91" font-family="Helvetica,sans-Serif" font-size="10.00">editor.wizards.GameElement</text>
<text text-anchor="middle" x="77" y="-80" font-family="Helvetica,sans-Serif" font-size="10.00">Wizard.initialize</text>
</g>
<!-- Node2 -->
<g id="node2" class="node"><title>Node2</title>
<g id="a_node2"><a xlink:href="../../d0/d1b/classeditor_1_1wizards_1_1_game_element_wizard.html#a36d16948cedf3264544e469103e9cb5b" target="_top" xlink:title="editor.wizards.GameElement\lWizard.launchNumberAttributeEditor">
<polygon fill="white" stroke="black" points="190.5,-122 190.5,-152 381.5,-152 381.5,-122 190.5,-122"/>
<text text-anchor="start" x="198.5" y="-140" font-family="Helvetica,sans-Serif" font-size="10.00">editor.wizards.GameElement</text>
<text text-anchor="middle" x="286" y="-129" font-family="Helvetica,sans-Serif" font-size="10.00">Wizard.launchNumberAttributeEditor</text>
</a>
</g>
</g>
<!-- Node1&#45;&gt;Node2 -->
<g id="edge1" class="edge"><title>Node1&#45;&gt;Node2</title>
<path fill="none" stroke="midnightblue" d="M141.514,-103.035C163.668,-108.279 188.711,-114.207 211.602,-119.626"/>
<polygon fill="midnightblue" stroke="midnightblue" points="211.069,-123.096 221.607,-121.994 212.682,-116.284 211.069,-123.096"/>
</g>
<!-- Node12 -->
<g id="node12" class="node"><title>Node12</title>
<g id="a_node12"><a xlink:href="../../d0/d1b/classeditor_1_1wizards_1_1_game_element_wizard.html#a4b1d74e8098e7e3c7365c5da226fd046" target="_top" xlink:title="editor.wizards.GameElement\lWizard.launchStringAttributeEditor">
<polygon fill="white" stroke="black" points="195.5,-73 195.5,-103 376.5,-103 376.5,-73 195.5,-73"/>
<text text-anchor="start" x="203.5" y="-91" font-family="Helvetica,sans-Serif" font-size="10.00">editor.wizards.GameElement</text>
<text text-anchor="middle" x="286" y="-80" font-family="Helvetica,sans-Serif" font-size="10.00">Wizard.launchStringAttributeEditor</text>
</a>
</g>
</g>
<!-- Node1&#45;&gt;Node12 -->
<g id="edge11" class="edge"><title>Node1&#45;&gt;Node12</title>
<path fill="none" stroke="midnightblue" d="M154.197,-88C164.226,-88 174.624,-88 184.975,-88"/>
<polygon fill="midnightblue" stroke="midnightblue" points="185.296,-91.5001 195.296,-88 185.296,-84.5001 185.296,-91.5001"/>
</g>
<!-- Node13 -->
<g id="node13" class="node"><title>Node13</title>
<g id="a_node13"><a xlink:href="../../d0/d1b/classeditor_1_1wizards_1_1_game_element_wizard.html#ae40410b2e2c9ae8e176922013ead90d2" target="_top" xlink:title="editor.wizards.GameElement\lWizard.launchTriggerEditor">
<polygon fill="white" stroke="black" points="209,-24 209,-54 363,-54 363,-24 209,-24"/>
<text text-anchor="start" x="217" y="-42" font-family="Helvetica,sans-Serif" font-size="10.00">editor.wizards.GameElement</text>
<text text-anchor="middle" x="286" y="-31" font-family="Helvetica,sans-Serif" font-size="10.00">Wizard.launchTriggerEditor</text>
</a>
</g>
</g>
<!-- Node1&#45;&gt;Node13 -->
<g id="edge13" class="edge"><title>Node1&#45;&gt;Node13</title>
<path fill="none" stroke="midnightblue" d="M141.514,-72.9654C163.668,-67.7211 188.711,-61.7931 211.602,-56.3745"/>
<polygon fill="midnightblue" stroke="midnightblue" points="212.682,-59.7156 221.607,-54.0062 211.069,-52.9039 212.682,-59.7156"/>
</g>
<!-- Node3 -->
<g id="node3" class="node"><title>Node3</title>
<g id="a_node3"><a xlink:href="../../d0/d1b/classeditor_1_1wizards_1_1_game_element_wizard.html#a9f86dd25fe1908a497cc076771e5bcec" target="_top" xlink:title="editor.wizards.GameElement\lWizard.launchNestedWizard">
<polygon fill="white" stroke="black" points="418,-73 418,-103 572,-103 572,-73 418,-73"/>
<text text-anchor="start" x="426" y="-91" font-family="Helvetica,sans-Serif" font-size="10.00">editor.wizards.GameElement</text>
<text text-anchor="middle" x="495" y="-80" font-family="Helvetica,sans-Serif" font-size="10.00">Wizard.launchNestedWizard</text>
</a>
</g>
</g>
<!-- Node2&#45;&gt;Node3 -->
<g id="edge2" class="edge"><title>Node2&#45;&gt;Node3</title>
<path fill="none" stroke="midnightblue" d="M350.514,-121.965C372.668,-116.721 397.711,-110.793 420.602,-105.374"/>
<polygon fill="midnightblue" stroke="midnightblue" points="421.682,-108.716 430.607,-103.006 420.069,-101.904 421.682,-108.716"/>
</g>
<!-- Node4 -->
<g id="node4" class="node"><title>Node4</title>
<g id="a_node4"><a xlink:href="../../dc/d5a/classview_1_1_wizard_utility.html#a7df411758a1fe47f34f7372db53355bf" target="_top" xlink:title="view.WizardUtility.loadWizard">
<polygon fill="white" stroke="black" points="608.5,-161.5 608.5,-180.5 759.5,-180.5 759.5,-161.5 608.5,-161.5"/>
<text text-anchor="middle" x="684" y="-168.5" font-family="Helvetica,sans-Serif" font-size="10.00">view.WizardUtility.loadWizard</text>
</a>
</g>
</g>
<!-- Node3&#45;&gt;Node4 -->
<g id="edge3" class="edge"><title>Node3&#45;&gt;Node4</title>
<path fill="none" stroke="midnightblue" d="M529.864,-103.031C564.638,-118.465 618.298,-142.282 651.991,-157.237"/>
<polygon fill="midnightblue" stroke="midnightblue" points="650.788,-160.532 661.348,-161.39 653.628,-154.134 650.788,-160.532"/>
</g>
<!-- Node8 -->
<g id="node8" class="node"><title>Node8</title>
<g id="a_node8"><a xlink:href="../../d9/d24/classeditor_1_1wizards_1_1_wizard.html#af31efa889b2f50d468bc0014d295cab5" target="_top" xlink:title="editor.wizards.Wizard.add\lWizardData">
<polygon fill="white" stroke="black" points="615.5,-98 615.5,-128 752.5,-128 752.5,-98 615.5,-98"/>
<text text-anchor="start" x="623.5" y="-116" font-family="Helvetica,sans-Serif" font-size="10.00">editor.wizards.Wizard.add</text>
<text text-anchor="middle" x="684" y="-105" font-family="Helvetica,sans-Serif" font-size="10.00">WizardData</text>
</a>
</g>
</g>
<!-- Node3&#45;&gt;Node8 -->
<g id="edge7" class="edge"><title>Node3&#45;&gt;Node8</title>
<path fill="none" stroke="midnightblue" d="M572.06,-98.1685C583.053,-99.6382 594.38,-101.152 605.403,-102.626"/>
<polygon fill="midnightblue" stroke="midnightblue" points="605.047,-106.11 615.423,-103.966 605.975,-99.1713 605.047,-106.11"/>
</g>
<!-- Node10 -->
<g id="node10" class="node"><title>Node10</title>
<g id="a_node10"><a xlink:href="../../d9/d24/classeditor_1_1wizards_1_1_wizard.html#a900163c75d7ec227b98fe35c9afa7505" target="_top" xlink:title="editor.wizards.Wizard.get\lStage">
<polygon fill="white" stroke="black" points="616.5,-49 616.5,-79 751.5,-79 751.5,-49 616.5,-49"/>
<text text-anchor="start" x="624.5" y="-67" font-family="Helvetica,sans-Serif" font-size="10.00">editor.wizards.Wizard.get</text>
<text text-anchor="middle" x="684" y="-56" font-family="Helvetica,sans-Serif" font-size="10.00">Stage</text>
</a>
</g>
</g>
<!-- Node3&#45;&gt;Node10 -->
<g id="edge9" class="edge"><title>Node3&#45;&gt;Node10</title>
<path fill="none" stroke="midnightblue" d="M572.06,-78.2383C583.286,-76.7976 594.859,-75.3122 606.101,-73.8693"/>
<polygon fill="midnightblue" stroke="midnightblue" points="606.841,-77.3033 616.314,-72.5587 605.949,-70.3602 606.841,-77.3033"/>
</g>
<!-- Node11 -->
<g id="node11" class="node"><title>Node11</title>
<g id="a_node11"><a xlink:href="../../d9/d24/classeditor_1_1wizards_1_1_wizard.html#a000a0be1e53ca727dc03770e6269db9c" target="_top" xlink:title="editor.wizards.Wizard.set\lSubmit">
<polygon fill="white" stroke="black" points="617,-0 617,-30 751,-30 751,-0 617,-0"/>
<text text-anchor="start" x="625" y="-18" font-family="Helvetica,sans-Serif" font-size="10.00">editor.wizards.Wizard.set</text>
<text text-anchor="middle" x="684" y="-7" font-family="Helvetica,sans-Serif" font-size="10.00">Submit</text>
</a>
</g>
</g>
<!-- Node3&#45;&gt;Node11 -->
<g id="edge10" class="edge"><title>Node3&#45;&gt;Node11</title>
<path fill="none" stroke="midnightblue" d="M527.986,-72.9601C550.194,-62.7772 580.599,-49.3467 608,-39 613.116,-37.0682 618.464,-35.1541 623.847,-33.2994"/>
<polygon fill="midnightblue" stroke="midnightblue" points="625.174,-36.5457 633.532,-30.0341 622.938,-29.9126 625.174,-36.5457"/>
</g>
<!-- Node5 -->
<g id="node5" class="node"><title>Node5</title>
<g id="a_node5"><a xlink:href="../../de/d50/classview_1_1_g_u_i_load_style_utility.html#a3f0bdbc7239563c54aa365afd86f620d" target="_top" xlink:title="view.GUILoadStyleUtility.generate\lGUIPane">
<polygon fill="white" stroke="black" points="796,-222 796,-252 972,-252 972,-222 796,-222"/>
<text text-anchor="start" x="804" y="-240" font-family="Helvetica,sans-Serif" font-size="10.00">view.GUILoadStyleUtility.generate</text>
<text text-anchor="middle" x="884" y="-229" font-family="Helvetica,sans-Serif" font-size="10.00">GUIPane</text>
</a>
</g>
</g>
<!-- Node4&#45;&gt;Node5 -->
<g id="edge4" class="edge"><title>Node4&#45;&gt;Node5</title>
<path fill="none" stroke="midnightblue" d="M709.505,-180.646C731.876,-189.309 765.938,-202.144 796,-212 803.164,-214.349 810.699,-216.696 818.214,-218.958"/>
<polygon fill="midnightblue" stroke="midnightblue" points="817.465,-222.387 828.048,-221.877 819.457,-215.676 817.465,-222.387"/>
</g>
<!-- Node6 -->
<g id="node6" class="node"><title>Node6</title>
<g id="a_node6"><a xlink:href="../../d9/d24/classeditor_1_1wizards_1_1_wizard.html#a72e3a81c25878fea0201a98307c78622" target="_top" xlink:title="editor.wizards.Wizard.getRoot">
<polygon fill="white" stroke="black" points="806,-183.5 806,-202.5 962,-202.5 962,-183.5 806,-183.5"/>
<text text-anchor="middle" x="884" y="-190.5" font-family="Helvetica,sans-Serif" font-size="10.00">editor.wizards.Wizard.getRoot</text>
</a>
</g>
</g>
<!-- Node4&#45;&gt;Node6 -->
<g id="edge5" class="edge"><title>Node4&#45;&gt;Node6</title>
<path fill="none" stroke="midnightblue" d="M759.573,-179.286C771.392,-180.599 783.706,-181.967 795.783,-183.309"/>
<polygon fill="midnightblue" stroke="midnightblue" points="795.53,-186.803 805.856,-184.428 796.303,-179.845 795.53,-186.803"/>
</g>
<!-- Node7 -->
<g id="node7" class="node"><title>Node7</title>
<g id="a_node7"><a xlink:href="../../d9/d24/classeditor_1_1wizards_1_1_wizard.html#ae8a3ae83055f5b39fbafec5ea3a379eb" target="_top" xlink:title="editor.wizards.Wizard.set\lStage">
<polygon fill="white" stroke="black" points="817,-134 817,-164 951,-164 951,-134 817,-134"/>
<text text-anchor="start" x="825" y="-152" font-family="Helvetica,sans-Serif" font-size="10.00">editor.wizards.Wizard.set</text>
<text text-anchor="middle" x="884" y="-141" font-family="Helvetica,sans-Serif" font-size="10.00">Stage</text>
</a>
</g>
</g>
<!-- Node4&#45;&gt;Node7 -->
<g id="edge6" class="edge"><title>Node4&#45;&gt;Node7</title>
<path fill="none" stroke="midnightblue" d="M759.573,-162.714C775.04,-160.996 791.356,-159.183 806.878,-157.458"/>
<polygon fill="midnightblue" stroke="midnightblue" points="807.394,-160.922 816.946,-156.339 806.621,-153.965 807.394,-160.922"/>
</g>
<!-- Node9 -->
<g id="node9" class="node"><title>Node9</title>
<g id="a_node9"><a xlink:href="../../dc/d23/classeditor_1_1wizards_1_1_wizard_data.html#a9ed51c8306bf2b085361341f8ec95c35" target="_top" xlink:title="editor.wizards.WizardData.add\lWizardData">
<polygon fill="white" stroke="black" points="803.5,-85 803.5,-115 964.5,-115 964.5,-85 803.5,-85"/>
<text text-anchor="start" x="811.5" y="-103" font-family="Helvetica,sans-Serif" font-size="10.00">editor.wizards.WizardData.add</text>
<text text-anchor="middle" x="884" y="-92" font-family="Helvetica,sans-Serif" font-size="10.00">WizardData</text>
</a>
</g>
</g>
<!-- Node8&#45;&gt;Node9 -->
<g id="edge8" class="edge"><title>Node8&#45;&gt;Node9</title>
<path fill="none" stroke="midnightblue" d="M752.587,-108.562C765.621,-107.707 779.465,-106.798 793.078,-105.904"/>
<polygon fill="midnightblue" stroke="midnightblue" points="793.677,-109.372 803.426,-105.225 793.219,-102.387 793.677,-109.372"/>
</g>
<!-- Node12&#45;&gt;Node3 -->
<g id="edge12" class="edge"><title>Node12&#45;&gt;Node3</title>
<path fill="none" stroke="midnightblue" d="M376.589,-88C386.915,-88 397.429,-88 407.709,-88"/>
<polygon fill="midnightblue" stroke="midnightblue" points="407.897,-91.5001 417.897,-88 407.897,-84.5001 407.897,-91.5001"/>
</g>
<!-- Node13&#45;&gt;Node3 -->
<g id="edge14" class="edge"><title>Node13&#45;&gt;Node3</title>
<path fill="none" stroke="midnightblue" d="M350.514,-54.0346C372.668,-59.2789 397.711,-65.2069 420.602,-70.6255"/>
<polygon fill="midnightblue" stroke="midnightblue" points="420.069,-74.0961 430.607,-72.9938 421.682,-67.2844 420.069,-74.0961"/>
</g>
</g>
</svg>
