<?xml version="1.0" encoding="UTF-8" standalone="no"?>
<!DOCTYPE svg PUBLIC "-//W3C//DTD SVG 1.1//EN"
 "http://www.w3.org/Graphics/SVG/1.1/DTD/svg11.dtd">
<!-- Generated by graphviz version 2.36.0 (20140111.2315)
 -->
<!-- Title: editor.wizards.GameElementWizard.launchStringAttributeEditor Pages: 1 -->
<!--zoomable 175 -->
<svg id="main" version="1.1" xmlns="http://www.w3.org/2000/svg" xmlns:xlink="http://www.w3.org/1999/xlink" xml:space="preserve" onload="init(evt)">
<style type="text/css"><![CDATA[
.edge:hover path { stroke: red; }
.edge:hover polygon { stroke: red; fill: red; }
]]></style>
<script type="text/javascript"><![CDATA[
var edges = document.getElementsByTagName('g');
if (edges && edges.length) {
  for (var i=0;i<edges.length;i++) {
    if (edges[i].id.substr(0,4)=='edge') {
      edges[i].setAttribute('class','edge');
    }
  }
}
]]></script>
        <defs>
                <circle id="rim" cx="0" cy="0" r="7"/>
                <circle id="rim2" cx="0" cy="0" r="3.5"/>
                <g id="zoomPlus">
                        <use xlink:href="#rim" fill="#404040">
                                <set attributeName="fill" to="#808080" begin="zoomplus.mouseover" end="zoomplus.mouseout"/>
                        </use>
                        <path d="M-4,0h8M0,-4v8" fill="none" stroke="white" stroke-width="1.5" pointer-events="none"/>
                </g>
                <g id="zoomMin">
                        <use xlink:href="#rim" fill="#404040">
                                <set attributeName="fill" to="#808080" begin="zoomminus.mouseover" end="zoomminus.mouseout"/>
                        </use>
                        <path d="M-4,0h8" fill="none" stroke="white" stroke-width="1.5" pointer-events="none"/>
                </g>
                <g id="dirArrow">
                        <path fill="none" stroke="white" stroke-width="1.5" d="M0,-3.0v7 M-2.5,-0.5L0,-3.0L2.5,-0.5"/>
                </g>
               <g id="resetDef">
                       <use xlink:href="#rim2" fill="#404040">
                               <set attributeName="fill" to="#808080" begin="reset.mouseover" end="reset.mouseout"/>
                       </use>
               </g>
        </defs>

<script type="text/javascript">
var viewWidth = 780;
var viewHeight = 175;
var sectionId = 'dynsection-7';
</script>
<script xlink:href="../../svgpan.js"/>
<svg id="graph" class="graph">
<g id="viewport">
<title>editor.wizards.GameElementWizard.launchStringAttributeEditor</title>
<polygon fill="white" stroke="none" points="-4,4 -4,-171 776,-171 776,4 -4,4"/>
<!-- Node1 -->
<g id="node1" class="node"><title>Node1</title>
<polygon fill="#bfbfbf" stroke="black" points="0.5,-66 0.5,-96 181.5,-96 181.5,-66 0.5,-66"/>
<text text-anchor="start" x="8.5" y="-84" font-family="Helvetica,sans-Serif" font-size="10.00">editor.wizards.GameElement</text>
<text text-anchor="middle" x="91" y="-73" font-family="Helvetica,sans-Serif" font-size="10.00">Wizard.launchStringAttributeEditor</text>
</g>
<!-- Node2 -->
<g id="node2" class="node"><title>Node2</title>
<g id="a_node2"><a xlink:href="../../d0/d1b/classeditor_1_1wizards_1_1_game_element_wizard.html#a9f86dd25fe1908a497cc076771e5bcec" target="_top" xlink:title="editor.wizards.GameElement\lWizard.launchNestedWizard">
<polygon fill="white" stroke="black" points="218,-66 218,-96 372,-96 372,-66 218,-66"/>
<text text-anchor="start" x="226" y="-84" font-family="Helvetica,sans-Serif" font-size="10.00">editor.wizards.GameElement</text>
<text text-anchor="middle" x="295" y="-73" font-family="Helvetica,sans-Serif" font-size="10.00">Wizard.launchNestedWizard</text>
</a>
</g>
</g>
<!-- Node1&#45;&gt;Node2 -->
<g id="edge1" class="edge"><title>Node1&#45;&gt;Node2</title>
<path fill="none" stroke="midnightblue" d="M181.777,-81C190.41,-81 199.155,-81 207.753,-81"/>
<polygon fill="midnightblue" stroke="midnightblue" points="207.765,-84.5001 217.765,-81 207.765,-77.5001 207.765,-84.5001"/>
</g>
<!-- Node3 -->
<g id="node3" class="node"><title>Node3</title>
<g id="a_node3"><a xlink:href="../../d9/d24/classeditor_1_1wizards_1_1_wizard.html#af31efa889b2f50d468bc0014d295cab5" target="_top" xlink:title="editor.wizards.Wizard.add\lWizardData">
<polygon fill="white" stroke="black" points="415.5,-137 415.5,-167 552.5,-167 552.5,-137 415.5,-137"/>
<text text-anchor="start" x="423.5" y="-155" font-family="Helvetica,sans-Serif" font-size="10.00">editor.wizards.Wizard.add</text>
<text text-anchor="middle" x="484" y="-144" font-family="Helvetica,sans-Serif" font-size="10.00">WizardData</text>
</a>
</g>
</g>
<!-- Node2&#45;&gt;Node3 -->
<g id="edge2" class="edge"><title>Node2&#45;&gt;Node3</title>
<path fill="none" stroke="midnightblue" d="M331.069,-96.1204C353.025,-105.408 381.99,-117.336 408,-127 413.91,-129.196 420.114,-131.409 426.317,-133.562"/>
<polygon fill="midnightblue" stroke="midnightblue" points="425.424,-136.956 436.019,-136.885 427.692,-130.333 425.424,-136.956"/>
</g>
<!-- Node5 -->
<g id="node5" class="node"><title>Node5</title>
<g id="a_node5"><a xlink:href="../../d9/d24/classeditor_1_1wizards_1_1_wizard.html#a900163c75d7ec227b98fe35c9afa7505" target="_top" xlink:title="editor.wizards.Wizard.get\lStage">
<polygon fill="white" stroke="black" points="416.5,-88 416.5,-118 551.5,-118 551.5,-88 416.5,-88"/>
<text text-anchor="start" x="424.5" y="-106" font-family="Helvetica,sans-Serif" font-size="10.00">editor.wizards.Wizard.get</text>
<text text-anchor="middle" x="484" y="-95" font-family="Helvetica,sans-Serif" font-size="10.00">Stage</text>
</a>
</g>
</g>
<!-- Node2&#45;&gt;Node5 -->
<g id="edge4" class="edge"><title>Node2&#45;&gt;Node5</title>
<path fill="none" stroke="midnightblue" d="M372.06,-89.9482C383.286,-91.2689 394.859,-92.6305 406.101,-93.9531"/>
<polygon fill="midnightblue" stroke="midnightblue" points="405.973,-97.4621 416.314,-95.1545 406.791,-90.51 405.973,-97.4621"/>
</g>
<!-- Node6 -->
<g id="node6" class="node"><title>Node6</title>
<g id="a_node6"><a xlink:href="../../dc/d5a/classview_1_1_wizard_utility.html#a7df411758a1fe47f34f7372db53355bf" target="_top" xlink:title="view.WizardUtility.loadWizard">
<polygon fill="white" stroke="black" points="408.5,-49.5 408.5,-68.5 559.5,-68.5 559.5,-49.5 408.5,-49.5"/>
<text text-anchor="middle" x="484" y="-56.5" font-family="Helvetica,sans-Serif" font-size="10.00">view.WizardUtility.loadWizard</text>
</a>
</g>
</g>
<!-- Node2&#45;&gt;Node6 -->
<g id="edge5" class="edge"><title>Node2&#45;&gt;Node6</title>
<path fill="none" stroke="midnightblue" d="M372.06,-72.0518C380.636,-71.0428 389.415,-70.01 398.094,-68.9889"/>
<polygon fill="midnightblue" stroke="midnightblue" points="398.697,-72.4423 408.219,-67.7977 397.879,-65.4902 398.697,-72.4423"/>
</g>
<!-- Node10 -->
<g id="node10" class="node"><title>Node10</title>
<g id="a_node10"><a xlink:href="../../d9/d24/classeditor_1_1wizards_1_1_wizard.html#a000a0be1e53ca727dc03770e6269db9c" target="_top" xlink:title="editor.wizards.Wizard.set\lSubmit">
<polygon fill="white" stroke="black" points="417,-0 417,-30 551,-30 551,-0 417,-0"/>
<text text-anchor="start" x="425" y="-18" font-family="Helvetica,sans-Serif" font-size="10.00">editor.wizards.Wizard.set</text>
<text text-anchor="middle" x="484" y="-7" font-family="Helvetica,sans-Serif" font-size="10.00">Submit</text>
</a>
</g>
</g>
<!-- Node2&#45;&gt;Node10 -->
<g id="edge9" class="edge"><title>Node2&#45;&gt;Node10</title>
<path fill="none" stroke="midnightblue" d="M336.334,-65.9124C357.599,-58.0395 384.154,-48.3371 408,-40 414.268,-37.8088 420.844,-35.5529 427.39,-33.3352"/>
<polygon fill="midnightblue" stroke="midnightblue" points="428.559,-36.6348 436.918,-30.1252 426.324,-30.0012 428.559,-36.6348"/>
</g>
<!-- Node4 -->
<g id="node4" class="node"><title>Node4</title>
<g id="a_node4"><a xlink:href="../../dc/d23/classeditor_1_1wizards_1_1_wizard_data.html#a9ed51c8306bf2b085361341f8ec95c35" target="_top" xlink:title="editor.wizards.WizardData.add\lWizardData">
<polygon fill="white" stroke="black" points="603.5,-137 603.5,-167 764.5,-167 764.5,-137 603.5,-137"/>
<text text-anchor="start" x="611.5" y="-155" font-family="Helvetica,sans-Serif" font-size="10.00">editor.wizards.WizardData.add</text>
<text text-anchor="middle" x="684" y="-144" font-family="Helvetica,sans-Serif" font-size="10.00">WizardData</text>
</a>
</g>
</g>
<!-- Node3&#45;&gt;Node4 -->
<g id="edge3" class="edge"><title>Node3&#45;&gt;Node4</title>
<path fill="none" stroke="midnightblue" d="M552.587,-152C565.621,-152 579.465,-152 593.078,-152"/>
<polygon fill="midnightblue" stroke="midnightblue" points="593.426,-155.5 603.426,-152 593.426,-148.5 593.426,-155.5"/>
</g>
<!-- Node7 -->
<g id="node7" class="node"><title>Node7</title>
<g id="a_node7"><a xlink:href="../../de/d50/classview_1_1_g_u_i_load_style_utility.html#a3f0bdbc7239563c54aa365afd86f620d" target="_top" xlink:title="view.GUILoadStyleUtility.generate\lGUIPane">
<polygon fill="white" stroke="black" points="596,-88 596,-118 772,-118 772,-88 596,-88"/>
<text text-anchor="start" x="604" y="-106" font-family="Helvetica,sans-Serif" font-size="10.00">view.GUILoadStyleUtility.generate</text>
<text text-anchor="middle" x="684" y="-95" font-family="Helvetica,sans-Serif" font-size="10.00">GUIPane</text>
</a>
</g>
</g>
<!-- Node6&#45;&gt;Node7 -->
<g id="edge6" class="edge"><title>Node6&#45;&gt;Node7</title>
<path fill="none" stroke="midnightblue" d="M527.963,-68.5473C550.554,-73.5676 578.95,-79.8777 605.247,-85.7215"/>
<polygon fill="midnightblue" stroke="midnightblue" points="604.685,-89.1819 615.206,-87.9346 606.203,-82.3486 604.685,-89.1819"/>
</g>
<!-- Node8 -->
<g id="node8" class="node"><title>Node8</title>
<g id="a_node8"><a xlink:href="../../d9/d24/classeditor_1_1wizards_1_1_wizard.html#a72e3a81c25878fea0201a98307c78622" target="_top" xlink:title="editor.wizards.Wizard.getRoot">
<polygon fill="white" stroke="black" points="606,-49.5 606,-68.5 762,-68.5 762,-49.5 606,-49.5"/>
<text text-anchor="middle" x="684" y="-56.5" font-family="Helvetica,sans-Serif" font-size="10.00">editor.wizards.Wizard.getRoot</text>
</a>
</g>
</g>
<!-- Node6&#45;&gt;Node8 -->
<g id="edge7" class="edge"><title>Node6&#45;&gt;Node8</title>
<path fill="none" stroke="midnightblue" d="M559.573,-59C571.392,-59 583.706,-59 595.783,-59"/>
<polygon fill="midnightblue" stroke="midnightblue" points="595.856,-62.5001 605.856,-59 595.856,-55.5001 595.856,-62.5001"/>
</g>
<!-- Node9 -->
<g id="node9" class="node"><title>Node9</title>
<g id="a_node9"><a xlink:href="../../d9/d24/classeditor_1_1wizards_1_1_wizard.html#ae8a3ae83055f5b39fbafec5ea3a379eb" target="_top" xlink:title="editor.wizards.Wizard.set\lStage">
<polygon fill="white" stroke="black" points="617,-0 617,-30 751,-30 751,-0 617,-0"/>
<text text-anchor="start" x="625" y="-18" font-family="Helvetica,sans-Serif" font-size="10.00">editor.wizards.Wizard.set</text>
<text text-anchor="middle" x="684" y="-7" font-family="Helvetica,sans-Serif" font-size="10.00">Stage</text>
</a>
</g>
</g>
<!-- Node6&#45;&gt;Node9 -->
<g id="edge8" class="edge"><title>Node6&#45;&gt;Node9</title>
<path fill="none" stroke="midnightblue" d="M527.963,-49.4527C550.957,-44.3428 579.966,-37.8965 606.653,-31.9659"/>
<polygon fill="midnightblue" stroke="midnightblue" points="607.748,-35.3081 616.751,-29.7221 606.229,-28.4748 607.748,-35.3081"/>
</g>
</g>
</svg>
        <g id="navigator" transform="translate(0 0)" fill="#404254">
                <rect fill="#f2f5e9" fill-opacity="0.5" stroke="#606060" stroke-width=".5" x="0" y="0" width="60" height="60"/>
                <use id="zoomplus" xlink:href="#zoomPlus" x="17" y="9" onmousedown="handleZoom(evt,'in')"/>
                <use id="zoomminus" xlink:href="#zoomMin" x="42" y="9" onmousedown="handleZoom(evt,'out')"/>
                <use id="reset" xlink:href="#resetDef" x="30" y="36" onmousedown="handleReset()"/>
                <g id="arrowUp" xlink:href="#dirArrow" transform="translate(30 24)" onmousedown="handlePan(0,-1)">
                  <use xlink:href="#rim" fill="#404040">
                        <set attributeName="fill" to="#808080" begin="arrowUp.mouseover" end="arrowUp.mouseout"/>
                  </use>
                  <path fill="none" stroke="white" stroke-width="1.5" d="M0,-3.0v7 M-2.5,-0.5L0,-3.0L2.5,-0.5"/>
                </g>
                <g id="arrowRight" xlink:href="#dirArrow" transform="rotate(90) translate(36 -43)" onmousedown="handlePan(1,0)">
                  <use xlink:href="#rim" fill="#404040">
                        <set attributeName="fill" to="#808080" begin="arrowRight.mouseover" end="arrowRight.mouseout"/>
                  </use>
                  <path fill="none" stroke="white" stroke-width="1.5" d="M0,-3.0v7 M-2.5,-0.5L0,-3.0L2.5,-0.5"/>
                </g>
                <g id="arrowDown" xlink:href="#dirArrow" transform="rotate(180) translate(-30 -48)" onmousedown="handlePan(0,1)">
                  <use xlink:href="#rim" fill="#404040">
                        <set attributeName="fill" to="#808080" begin="arrowDown.mouseover" end="arrowDown.mouseout"/>
                  </use>
                  <path fill="none" stroke="white" stroke-width="1.5" d="M0,-3.0v7 M-2.5,-0.5L0,-3.0L2.5,-0.5"/>
                </g>
                <g id="arrowLeft" xlink:href="#dirArrow" transform="rotate(270) translate(-36 17)" onmousedown="handlePan(-1,0)">
                  <use xlink:href="#rim" fill="#404040">
                        <set attributeName="fill" to="#808080" begin="arrowLeft.mouseover" end="arrowLeft.mouseout"/>
                  </use>
                  <path fill="none" stroke="white" stroke-width="1.5" d="M0,-3.0v7 M-2.5,-0.5L0,-3.0L2.5,-0.5"/>
                </g>
        </g>
        <svg viewBox="0 0 15 15" width="100%" height="30px" preserveAspectRatio="xMaxYMin meet">
         <g id="arrow_out" transform="scale(0.3 0.3)">
          <a xlink:href="classeditor_1_1wizards_1_1_game_element_wizard_a4b1d74e8098e7e3c7365c5da226fd046_cgraph_org.svg" target="_base">
           <rect id="button" ry="5" rx="5" y="6" x="6" height="38" width="38"
                fill="#f2f5e9" fill-opacity="0.5" stroke="#606060" stroke-width="1.0"/>
           <path id="arrow"
             d="M 11.500037,31.436501 C 11.940474,20.09759 22.043105,11.32322 32.158766,21.979434 L 37.068811,17.246167 C 37.068811,17.246167 37.088388,32 37.088388,32 L 22.160133,31.978069 C 22.160133,31.978069 26.997745,27.140456 26.997745,27.140456 C 18.528582,18.264221 13.291696,25.230495 11.500037,31.436501 z"
             style="fill:#404040;"/>
          </a>
         </g>
        </svg>
</svg>
