<?xml version="1.0" encoding="UTF-8" standalone="no"?>
<!DOCTYPE svg PUBLIC "-//W3C//DTD SVG 1.1//EN"
 "http://www.w3.org/Graphics/SVG/1.1/DTD/svg11.dtd">
<!-- Generated by graphviz version 2.36.0 (20140111.2315)
 -->
<!-- Title: view.editor.ElementAccordionController.addStringAttributes Pages: 1 -->
<svg width="606pt" height="109pt"
 viewBox="0.00 0.00 606.00 109.00" xmlns="http://www.w3.org/2000/svg" xmlns:xlink="http://www.w3.org/1999/xlink">
<g id="graph0" class="graph" transform="scale(1 1) rotate(0) translate(4 105)">
<title>view.editor.ElementAccordionController.addStringAttributes</title>
<polygon fill="white" stroke="none" points="-4,4 -4,-105 602,-105 602,4 -4,4"/>
<!-- Node1 -->
<g id="node1" class="node"><title>Node1</title>
<polygon fill="#bfbfbf" stroke="black" points="0.5,-35 0.5,-65 159.5,-65 159.5,-35 0.5,-35"/>
<text text-anchor="start" x="8.5" y="-53" font-family="Helvetica,sans-Serif" font-size="10.00">view.editor.ElementAccordion</text>
<text text-anchor="middle" x="80" y="-42" font-family="Helvetica,sans-Serif" font-size="10.00">Controller.addStringAttributes</text>
</g>
<!-- Node2 -->
<g id="node2" class="node"><title>Node2</title>
<g id="a_node2"><a xlink:href="../../d9/dfb/classview_1_1editor_1_1_element_accordion_controller.html#a71bb33e7588f335fc2ebc1346924ad2d" target="_top" xlink:title="view.editor.ElementAccordion\lController.openDrawableGameElement\lWizard">
<polygon fill="white" stroke="black" points="199.5,-59.5 199.5,-100.5 402.5,-100.5 402.5,-59.5 199.5,-59.5"/>
<text text-anchor="start" x="207.5" y="-88.5" font-family="Helvetica,sans-Serif" font-size="10.00">view.editor.ElementAccordion</text>
<text text-anchor="start" x="207.5" y="-77.5" font-family="Helvetica,sans-Serif" font-size="10.00">Controller.openDrawableGameElement</text>
<text text-anchor="middle" x="301" y="-66.5" font-family="Helvetica,sans-Serif" font-size="10.00">Wizard</text>
</a>
</g>
</g>
<!-- Node1&#45;&gt;Node2 -->
<g id="edge1" class="edge"><title>Node1&#45;&gt;Node2</title>
<path fill="none" stroke="midnightblue" d="M169.823,-62.1675C179.576,-63.5036 189.556,-64.8707 199.439,-66.2245"/>
<polygon fill="midnightblue" stroke="midnightblue" points="170.137,-58.678 159.755,-60.7883 169.187,-65.6132 170.137,-58.678"/>
</g>
<!-- Node4 -->
<g id="node4" class="node"><title>Node4</title>
<g id="a_node4"><a xlink:href="../../d9/dfb/classview_1_1editor_1_1_element_accordion_controller.html#a8564fdf017fa6f25e3e663cf076e0c04" target="_top" xlink:title="view.editor.ElementAccordion\lController.openSelectableGameElement\lWizard">
<polygon fill="white" stroke="black" points="196.5,0.5 196.5,-40.5 405.5,-40.5 405.5,0.5 196.5,0.5"/>
<text text-anchor="start" x="204.5" y="-28.5" font-family="Helvetica,sans-Serif" font-size="10.00">view.editor.ElementAccordion</text>
<text text-anchor="start" x="204.5" y="-17.5" font-family="Helvetica,sans-Serif" font-size="10.00">Controller.openSelectableGameElement</text>
<text text-anchor="middle" x="301" y="-6.5" font-family="Helvetica,sans-Serif" font-size="10.00">Wizard</text>
</a>
</g>
</g>
<!-- Node1&#45;&gt;Node4 -->
<g id="edge3" class="edge"><title>Node1&#45;&gt;Node4</title>
<path fill="none" stroke="midnightblue" d="M169.902,-37.8217C178.629,-36.6262 187.537,-35.406 196.393,-34.1928"/>
<polygon fill="midnightblue" stroke="midnightblue" points="169.187,-34.3868 159.755,-39.2117 170.137,-41.322 169.187,-34.3868"/>
</g>
<!-- Node3 -->
<g id="node3" class="node"><title>Node3</title>
<g id="a_node3"><a xlink:href="../../d9/dfb/classview_1_1editor_1_1_element_accordion_controller.html#af80453486ff349552dab988fb64397c0" target="_top" xlink:title="view.editor.ElementAccordion\lController.init">
<polygon fill="white" stroke="black" points="442,-35 442,-65 598,-65 598,-35 442,-35"/>
<text text-anchor="start" x="450" y="-53" font-family="Helvetica,sans-Serif" font-size="10.00">view.editor.ElementAccordion</text>
<text text-anchor="middle" x="520" y="-42" font-family="Helvetica,sans-Serif" font-size="10.00">Controller.init</text>
</a>
</g>
</g>
<!-- Node2&#45;&gt;Node3 -->
<g id="edge2" class="edge"><title>Node2&#45;&gt;Node3</title>
<path fill="none" stroke="midnightblue" d="M412.472,-64.7274C422.389,-63.3564 432.283,-61.9885 441.825,-60.6694"/>
<polygon fill="midnightblue" stroke="midnightblue" points="411.986,-61.2612 402.56,-66.0978 412.945,-68.1952 411.986,-61.2612"/>
</g>
<!-- Node4&#45;&gt;Node3 -->
<g id="edge4" class="edge"><title>Node4&#45;&gt;Node3</title>
<path fill="none" stroke="midnightblue" d="M415.75,-35.7258C424.616,-36.9515 433.434,-38.1707 441.969,-39.3505"/>
<polygon fill="midnightblue" stroke="midnightblue" points="416.118,-32.2435 405.733,-34.341 415.16,-39.1776 416.118,-32.2435"/>
</g>
</g>
</svg>
