<?xml version="1.0" encoding="UTF-8" standalone="no"?>
<!DOCTYPE svg PUBLIC "-//W3C//DTD SVG 1.1//EN"
 "http://www.w3.org/Graphics/SVG/1.1/DTD/svg11.dtd">
<!-- Generated by graphviz version 2.36.0 (20140111.2315)
 -->
<!-- Title: view.editor.ElementAccordionController.modelUpdate Pages: 1 -->
<svg width="586pt" height="175pt"
 viewBox="0.00 0.00 586.00 175.00" xmlns="http://www.w3.org/2000/svg" xmlns:xlink="http://www.w3.org/1999/xlink">
<g id="graph0" class="graph" transform="scale(1 1) rotate(0) translate(4 171)">
<title>view.editor.ElementAccordionController.modelUpdate</title>
<polygon fill="white" stroke="none" points="-4,4 -4,-171 582,-171 582,4 -4,4"/>
<!-- Node1 -->
<g id="node1" class="node"><title>Node1</title>
<polygon fill="#bfbfbf" stroke="black" points="0,-71 0,-101 156,-101 156,-71 0,-71"/>
<text text-anchor="start" x="8" y="-89" font-family="Helvetica,sans-Serif" font-size="10.00">view.editor.ElementAccordion</text>
<text text-anchor="middle" x="78" y="-78" font-family="Helvetica,sans-Serif" font-size="10.00">Controller.modelUpdate</text>
</g>
<!-- Node2 -->
<g id="node2" class="node"><title>Node2</title>
<g id="a_node2"><a xlink:href="../../de/dda/classmodel_1_1_game_universe.html#ae55bff5ebd307949b81d7cce069f0423" target="_top" xlink:title="model.GameUniverse.getDrawable\lGameElementStates">
<polygon fill="white" stroke="black" points="196,-137 196,-167 380,-167 380,-137 196,-137"/>
<text text-anchor="start" x="204" y="-155" font-family="Helvetica,sans-Serif" font-size="10.00">model.GameUniverse.getDrawable</text>
<text text-anchor="middle" x="288" y="-144" font-family="Helvetica,sans-Serif" font-size="10.00">GameElementStates</text>
</a>
</g>
</g>
<!-- Node1&#45;&gt;Node2 -->
<g id="edge1" class="edge"><title>Node1&#45;&gt;Node2</title>
<path fill="none" stroke="midnightblue" d="M117.665,-101.014C139.354,-109.187 167,-119.193 192,-127 199.956,-129.485 208.338,-131.932 216.691,-134.265"/>
<polygon fill="midnightblue" stroke="midnightblue" points="215.888,-137.674 226.458,-136.948 217.742,-130.924 215.888,-137.674"/>
</g>
<!-- Node3 -->
<g id="node3" class="node"><title>Node3</title>
<g id="a_node3"><a xlink:href="../../de/d21/classmodel_1_1_main_model.html#aa9afa0072f15587d9ef2b6fd4eb564da" target="_top" xlink:title="model.MainModel.getGameUniverse">
<polygon fill="white" stroke="black" points="192.5,-98.5 192.5,-117.5 383.5,-117.5 383.5,-98.5 192.5,-98.5"/>
<text text-anchor="middle" x="288" y="-105.5" font-family="Helvetica,sans-Serif" font-size="10.00">model.MainModel.getGameUniverse</text>
</a>
</g>
</g>
<!-- Node1&#45;&gt;Node3 -->
<g id="edge2" class="edge"><title>Node1&#45;&gt;Node3</title>
<path fill="none" stroke="midnightblue" d="M156.156,-94.1607C166.128,-95.2154 176.453,-96.3075 186.729,-97.3945"/>
<polygon fill="midnightblue" stroke="midnightblue" points="186.662,-100.907 196.975,-98.4781 187.399,-93.9456 186.662,-100.907"/>
</g>
<!-- Node5 -->
<g id="node5" class="node"><title>Node5</title>
<g id="a_node5"><a xlink:href="../../de/dda/classmodel_1_1_game_universe.html#a058797c0ccdf5a6ed5d3b1f53654f9a0" target="_top" xlink:title="model.GameUniverse.getSelectable\lGameElementStates">
<polygon fill="white" stroke="black" points="193,-49 193,-79 383,-79 383,-49 193,-49"/>
<text text-anchor="start" x="201" y="-67" font-family="Helvetica,sans-Serif" font-size="10.00">model.GameUniverse.getSelectable</text>
<text text-anchor="middle" x="288" y="-56" font-family="Helvetica,sans-Serif" font-size="10.00">GameElementStates</text>
</a>
</g>
</g>
<!-- Node1&#45;&gt;Node5 -->
<g id="edge4" class="edge"><title>Node1&#45;&gt;Node5</title>
<path fill="none" stroke="midnightblue" d="M156.156,-77.8393C164.808,-76.9241 173.726,-75.9809 182.648,-75.0372"/>
<polygon fill="midnightblue" stroke="midnightblue" points="183.132,-78.5057 192.708,-73.9732 182.396,-71.5445 183.132,-78.5057"/>
</g>
<!-- Node6 -->
<g id="node6" class="node"><title>Node6</title>
<g id="a_node6"><a xlink:href="../../d9/dfb/classview_1_1editor_1_1_element_accordion_controller.html#a3acac29c31a0e3f5fbb47468910627b2" target="_top" xlink:title="view.editor.ElementAccordion\lController.updateList">
<polygon fill="white" stroke="black" points="210,-0 210,-30 366,-30 366,-0 210,-0"/>
<text text-anchor="start" x="218" y="-18" font-family="Helvetica,sans-Serif" font-size="10.00">view.editor.ElementAccordion</text>
<text text-anchor="middle" x="288" y="-7" font-family="Helvetica,sans-Serif" font-size="10.00">Controller.updateList</text>
</a>
</g>
</g>
<!-- Node1&#45;&gt;Node6 -->
<g id="edge5" class="edge"><title>Node1&#45;&gt;Node6</title>
<path fill="none" stroke="midnightblue" d="M111.644,-70.9246C133.956,-60.994 164.376,-48.179 192,-39 198.508,-36.8376 205.322,-34.761 212.184,-32.797"/>
<polygon fill="midnightblue" stroke="midnightblue" points="213.544,-36.0517 222.243,-30.003 211.671,-29.3071 213.544,-36.0517"/>
</g>
<!-- Node4 -->
<g id="node4" class="node"><title>Node4</title>
<g id="a_node4"><a xlink:href="../../d6/d8b/classmodel_1_1state_1_1_game_state.html#ada7cc6194ba1f8235db868e033be6922" target="_top" xlink:title="model.state.GameState.get\lGameUniverse">
<polygon fill="white" stroke="black" points="423,-93 423,-123 575,-123 575,-93 423,-93"/>
<text text-anchor="start" x="431" y="-111" font-family="Helvetica,sans-Serif" font-size="10.00">model.state.GameState.get</text>
<text text-anchor="middle" x="499" y="-100" font-family="Helvetica,sans-Serif" font-size="10.00">GameUniverse</text>
</a>
</g>
</g>
<!-- Node3&#45;&gt;Node4 -->
<g id="edge3" class="edge"><title>Node3&#45;&gt;Node4</title>
<path fill="none" stroke="midnightblue" d="M383.716,-108C393.313,-108 403.022,-108 412.513,-108"/>
<polygon fill="midnightblue" stroke="midnightblue" points="412.712,-111.5 422.712,-108 412.712,-104.5 412.712,-111.5"/>
</g>
<!-- Node7 -->
<g id="node7" class="node"><title>Node7</title>
<g id="a_node7"><a xlink:href="../../dc/d2d/classview_1_1editor_1_1_element_drop_down_controller.html#afa22d98097f1d41668280259887af5a3" target="_top" xlink:title="view.editor.ElementDropDown\lController.addElement">
<polygon fill="white" stroke="black" points="420,-0 420,-30 578,-30 578,-0 420,-0"/>
<text text-anchor="start" x="428" y="-18" font-family="Helvetica,sans-Serif" font-size="10.00">view.editor.ElementDropDown</text>
<text text-anchor="middle" x="499" y="-7" font-family="Helvetica,sans-Serif" font-size="10.00">Controller.addElement</text>
</a>
</g>
</g>
<!-- Node6&#45;&gt;Node7 -->
<g id="edge6" class="edge"><title>Node6&#45;&gt;Node7</title>
<path fill="none" stroke="midnightblue" d="M366.23,-15C380.266,-15 395.007,-15 409.341,-15"/>
<polygon fill="midnightblue" stroke="midnightblue" points="409.691,-18.5001 419.691,-15 409.691,-11.5001 409.691,-18.5001"/>
</g>
</g>
</svg>
