<?xml version="1.0" encoding="UTF-8" standalone="no"?>
<!DOCTYPE svg PUBLIC "-//W3C//DTD SVG 1.1//EN"
 "http://www.w3.org/Graphics/SVG/1.1/DTD/svg11.dtd">
<!-- Generated by graphviz version 2.36.0 (20140111.2315)
 -->
<!-- Title: view.editor.ElementAccordionController.editorChooseDrawableElement Pages: 1 -->
<svg width="556pt" height="48pt"
 viewBox="0.00 0.00 556.00 48.00" xmlns="http://www.w3.org/2000/svg" xmlns:xlink="http://www.w3.org/1999/xlink">
<g id="graph0" class="graph" transform="scale(1 1) rotate(0) translate(4 44)">
<title>view.editor.ElementAccordionController.editorChooseDrawableElement</title>
<polygon fill="white" stroke="none" points="-4,4 -4,-44 552,-44 552,4 -4,4"/>
<!-- Node1 -->
<g id="node1" class="node"><title>Node1</title>
<polygon fill="#bfbfbf" stroke="black" points="0.5,0.5 0.5,-40.5 173.5,-40.5 173.5,0.5 0.5,0.5"/>
<text text-anchor="start" x="8.5" y="-28.5" font-family="Helvetica,sans-Serif" font-size="10.00">view.editor.ElementAccordion</text>
<text text-anchor="start" x="8.5" y="-17.5" font-family="Helvetica,sans-Serif" font-size="10.00">Controller.editorChooseDrawable</text>
<text text-anchor="middle" x="87" y="-6.5" font-family="Helvetica,sans-Serif" font-size="10.00">Element</text>
</g>
<!-- Node2 -->
<g id="node2" class="node"><title>Node2</title>
<g id="a_node2"><a xlink:href="../../de/d21/classmodel_1_1_main_model.html#a10b881974c2cb51d6340030a675a99d2" target="_top" xlink:title="model.MainModel.setEditor\lChosenDrawable">
<polygon fill="white" stroke="black" points="210,-5 210,-35 356,-35 356,-5 210,-5"/>
<text text-anchor="start" x="218" y="-23" font-family="Helvetica,sans-Serif" font-size="10.00">model.MainModel.setEditor</text>
<text text-anchor="middle" x="283" y="-12" font-family="Helvetica,sans-Serif" font-size="10.00">ChosenDrawable</text>
</a>
</g>
</g>
<!-- Node1&#45;&gt;Node2 -->
<g id="edge1" class="edge"><title>Node1&#45;&gt;Node2</title>
<path fill="none" stroke="midnightblue" d="M173.656,-20C182.338,-20 191.142,-20 199.787,-20"/>
<polygon fill="midnightblue" stroke="midnightblue" points="199.843,-23.5001 209.843,-20 199.843,-16.5001 199.843,-23.5001"/>
</g>
<!-- Node3 -->
<g id="node3" class="node"><title>Node3</title>
<g id="a_node3"><a xlink:href="../../de/d21/classmodel_1_1_main_model.html#a58d6f9df9c5c1cfbc336ef4425165040" target="_top" xlink:title="model.MainModel.clearEditor\lChosen">
<polygon fill="white" stroke="black" points="392.5,-5 392.5,-35 547.5,-35 547.5,-5 392.5,-5"/>
<text text-anchor="start" x="400.5" y="-23" font-family="Helvetica,sans-Serif" font-size="10.00">model.MainModel.clearEditor</text>
<text text-anchor="middle" x="470" y="-12" font-family="Helvetica,sans-Serif" font-size="10.00">Chosen</text>
</a>
</g>
</g>
<!-- Node2&#45;&gt;Node3 -->
<g id="edge2" class="edge"><title>Node2&#45;&gt;Node3</title>
<path fill="none" stroke="midnightblue" d="M356.056,-20C364.587,-20 373.363,-20 382.073,-20"/>
<polygon fill="midnightblue" stroke="midnightblue" points="382.249,-23.5001 392.249,-20 382.249,-16.5001 382.249,-23.5001"/>
</g>
</g>
</svg>
