<?xml version="1.0" encoding="UTF-8" standalone="no"?>
<!DOCTYPE svg PUBLIC "-//W3C//DTD SVG 1.1//EN"
 "http://www.w3.org/Graphics/SVG/1.1/DTD/svg11.dtd">
<!-- Generated by graphviz version 2.36.0 (20140111.2315)
 -->
<!-- Title: view.editor.ElementAccordionController.addStringAttributes Pages: 1 -->
<svg width="590pt" height="126pt"
 viewBox="0.00 0.00 590.00 126.00" xmlns="http://www.w3.org/2000/svg" xmlns:xlink="http://www.w3.org/1999/xlink">
<g id="graph0" class="graph" transform="scale(1 1) rotate(0) translate(4 122)">
<title>view.editor.ElementAccordionController.addStringAttributes</title>
<polygon fill="white" stroke="none" points="-4,4 -4,-122 586,-122 586,4 -4,4"/>
<!-- Node1 -->
<g id="node1" class="node"><title>Node1</title>
<polygon fill="#bfbfbf" stroke="black" points="0.5,-44 0.5,-74 159.5,-74 159.5,-44 0.5,-44"/>
<text text-anchor="start" x="8.5" y="-62" font-family="Helvetica,sans-Serif" font-size="10.00">view.editor.ElementAccordion</text>
<text text-anchor="middle" x="80" y="-51" font-family="Helvetica,sans-Serif" font-size="10.00">Controller.addStringAttributes</text>
</g>
<!-- Node2 -->
<g id="node2" class="node"><title>Node2</title>
<g id="a_node2"><a xlink:href="../../d7/d92/classview_1_1editor_1_1wizards_1_1_game_element_wizard.html#a03fc79965e6b6d0f7a9865542a141f79" target="_top" xlink:title="view.editor.wizards.Game\lElementWizard.attachStringAttributes">
<polygon fill="white" stroke="black" points="196.5,-88 196.5,-118 393.5,-118 393.5,-88 196.5,-88"/>
<text text-anchor="start" x="204.5" y="-106" font-family="Helvetica,sans-Serif" font-size="10.00">view.editor.wizards.Game</text>
<text text-anchor="middle" x="295" y="-95" font-family="Helvetica,sans-Serif" font-size="10.00">ElementWizard.attachStringAttributes</text>
</a>
</g>
</g>
<!-- Node1&#45;&gt;Node2 -->
<g id="edge1" class="edge"><title>Node1&#45;&gt;Node2</title>
<path fill="none" stroke="midnightblue" d="M153.707,-74.0192C172.282,-77.8564 192.388,-82.0097 211.419,-85.9411"/>
<polygon fill="midnightblue" stroke="midnightblue" points="210.758,-89.3783 221.26,-87.9738 212.174,-82.5231 210.758,-89.3783"/>
</g>
<!-- Node3 -->
<g id="node3" class="node"><title>Node3</title>
<g id="a_node3"><a xlink:href="../../de/d21/classmodel_1_1_main_model.html#aa9afa0072f15587d9ef2b6fd4eb564da" target="_top" xlink:title="model.MainModel.getGameUniverse">
<polygon fill="white" stroke="black" points="199.5,-49.5 199.5,-68.5 390.5,-68.5 390.5,-49.5 199.5,-49.5"/>
<text text-anchor="middle" x="295" y="-56.5" font-family="Helvetica,sans-Serif" font-size="10.00">model.MainModel.getGameUniverse</text>
</a>
</g>
</g>
<!-- Node1&#45;&gt;Node3 -->
<g id="edge2" class="edge"><title>Node1&#45;&gt;Node3</title>
<path fill="none" stroke="midnightblue" d="M159.708,-59C169.295,-59 179.205,-59 189.097,-59"/>
<polygon fill="midnightblue" stroke="midnightblue" points="189.384,-62.5001 199.384,-59 189.384,-55.5001 189.384,-62.5001"/>
</g>
<!-- Node5 -->
<g id="node5" class="node"><title>Node5</title>
<g id="a_node5"><a xlink:href="../../de/dda/classmodel_1_1_game_universe.html#a476517cd9082f708749da1c047fbbfef" target="_top" xlink:title="model.GameUniverse.getString\lAttributes">
<polygon fill="white" stroke="black" points="211,-0 211,-30 379,-30 379,-0 211,-0"/>
<text text-anchor="start" x="219" y="-18" font-family="Helvetica,sans-Serif" font-size="10.00">model.GameUniverse.getString</text>
<text text-anchor="middle" x="295" y="-7" font-family="Helvetica,sans-Serif" font-size="10.00">Attributes</text>
</a>
</g>
</g>
<!-- Node1&#45;&gt;Node5 -->
<g id="edge4" class="edge"><title>Node1&#45;&gt;Node5</title>
<path fill="none" stroke="midnightblue" d="M153.707,-43.9808C172.282,-40.1436 192.388,-35.9903 211.419,-32.0589"/>
<polygon fill="midnightblue" stroke="midnightblue" points="212.174,-35.4769 221.26,-30.0262 210.758,-28.6217 212.174,-35.4769"/>
</g>
<!-- Node4 -->
<g id="node4" class="node"><title>Node4</title>
<g id="a_node4"><a xlink:href="../../d6/d8b/classmodel_1_1state_1_1_game_state.html#ada7cc6194ba1f8235db868e033be6922" target="_top" xlink:title="model.state.GameState.get\lGameUniverse">
<polygon fill="white" stroke="black" points="430,-44 430,-74 582,-74 582,-44 430,-44"/>
<text text-anchor="start" x="438" y="-62" font-family="Helvetica,sans-Serif" font-size="10.00">model.state.GameState.get</text>
<text text-anchor="middle" x="506" y="-51" font-family="Helvetica,sans-Serif" font-size="10.00">GameUniverse</text>
</a>
</g>
</g>
<!-- Node3&#45;&gt;Node4 -->
<g id="edge3" class="edge"><title>Node3&#45;&gt;Node4</title>
<path fill="none" stroke="midnightblue" d="M390.716,-59C400.313,-59 410.022,-59 419.513,-59"/>
<polygon fill="midnightblue" stroke="midnightblue" points="419.712,-62.5001 429.712,-59 419.712,-55.5001 419.712,-62.5001"/>
</g>
</g>
</svg>
