<?xml version="1.0" encoding="UTF-8" standalone="no"?>
<!DOCTYPE svg PUBLIC "-//W3C//DTD SVG 1.1//EN"
 "http://www.w3.org/Graphics/SVG/1.1/DTD/svg11.dtd">
<!-- Generated by graphviz version 2.36.0 (20140111.2315)
 -->
<!-- Title: engine.users.Participant Pages: 1 -->
<svg width="702pt" height="171pt"
 viewBox="0.00 0.00 702.00 171.00" xmlns="http://www.w3.org/2000/svg" xmlns:xlink="http://www.w3.org/1999/xlink">
<g id="graph0" class="graph" transform="scale(1 1) rotate(0) translate(4 167)">
<title>engine.users.Participant</title>
<polygon fill="white" stroke="none" points="-4,4 -4,-167 698,-167 698,4 -4,4"/>
<!-- Node1 -->
<g id="node1" class="node"><title>Node1</title>
<polygon fill="#bfbfbf" stroke="black" points="562.5,-105.5 562.5,-124.5 693.5,-124.5 693.5,-105.5 562.5,-105.5"/>
<text text-anchor="middle" x="628" y="-112.5" font-family="Helvetica,sans-Serif" font-size="10.00">engine.users.Participant</text>
</g>
<!-- Node2 -->
<g id="node2" class="node"><title>Node2</title>
<g id="a_node2"><a xlink:href="../../df/d74/interfaceutil_1_1_j_s_o_nable.html" target="_top" xlink:title="util.JSONable">
<polygon fill="white" stroke="black" points="363,-143.5 363,-162.5 441,-162.5 441,-143.5 363,-143.5"/>
<text text-anchor="middle" x="402" y="-150.5" font-family="Helvetica,sans-Serif" font-size="10.00">util.JSONable</text>
</a>
</g>
</g>
<!-- Node2&#45;&gt;Node1 -->
<g id="edge1" class="edge"><title>Node2&#45;&gt;Node1</title>
<path fill="none" stroke="midnightblue" d="M451.262,-144.813C486.376,-138.856 534.019,-130.774 570.841,-124.527"/>
<polygon fill="midnightblue" stroke="midnightblue" points="450.526,-141.387 441.252,-146.511 451.697,-148.289 450.526,-141.387"/>
</g>
<!-- Node3 -->
<g id="node3" class="node"><title>Node3</title>
<polygon fill="white" stroke="#bfbfbf" points="52.5,-102.5 52.5,-121.5 123.5,-121.5 123.5,-102.5 52.5,-102.5"/>
<text text-anchor="middle" x="88" y="-109.5" font-family="Helvetica,sans-Serif" font-size="10.00">Serializable</text>
</g>
<!-- Node3&#45;&gt;Node1 -->
<g id="edge2" class="edge"><title>Node3&#45;&gt;Node1</title>
<path fill="none" stroke="midnightblue" d="M134.063,-112.251C229.445,-112.783 452.02,-114.024 562.469,-114.64"/>
<polygon fill="midnightblue" stroke="midnightblue" points="133.905,-108.75 123.885,-112.195 133.865,-115.75 133.905,-108.75"/>
</g>
<!-- Node4 -->
<g id="node4" class="node"><title>Node4</title>
<g id="a_node4"><a xlink:href="../../da/dc5/classmodel_1_1state_1_1gameelement_1_1_attribute_container.html" target="_top" xlink:title="model.state.gameelement.\lAttributeContainer">
<polygon fill="white" stroke="black" points="328,-52 328,-82 476,-82 476,-52 328,-52"/>
<text text-anchor="start" x="336" y="-70" font-family="Helvetica,sans-Serif" font-size="10.00">model.state.gameelement.</text>
<text text-anchor="middle" x="402" y="-59" font-family="Helvetica,sans-Serif" font-size="10.00">AttributeContainer</text>
</a>
</g>
</g>
<!-- Node3&#45;&gt;Node4 -->
<g id="edge4" class="edge"><title>Node3&#45;&gt;Node4</title>
<path fill="none" stroke="midnightblue" d="M133.565,-105.572C184.214,-98.2673 267.65,-86.2331 327.871,-77.5474"/>
<polygon fill="midnightblue" stroke="midnightblue" points="132.979,-102.121 123.582,-107.012 133.979,-109.049 132.979,-102.121"/>
</g>
<!-- Node4&#45;&gt;Node1 -->
<g id="edge3" class="edge"><title>Node4&#45;&gt;Node1</title>
<path fill="none" stroke="#9a32cd" stroke-dasharray="5,2" d="M486.064,-78.6934C505.187,-81.8986 525.376,-85.6958 544,-90 562.328,-94.236 582.547,-100.296 598.439,-105.388"/>
<polygon fill="#9a32cd" stroke="#9a32cd" points="486.609,-75.2361 476.174,-77.0716 485.476,-82.1438 486.609,-75.2361"/>
<text text-anchor="middle" x="519" y="-93" font-family="Helvetica,sans-Serif" font-size="10.00"> attributes</text>
</g>
<!-- Node5 -->
<g id="node5" class="node"><title>Node5</title>
<polygon fill="white" stroke="#bfbfbf" points="0,-49 0,-79 176,-79 176,-49 0,-49"/>
<text text-anchor="start" x="8" y="-67" font-family="Helvetica,sans-Serif" font-size="10.00">Set&lt; model.state.gameelement.</text>
<text text-anchor="middle" x="88" y="-56" font-family="Helvetica,sans-Serif" font-size="10.00">Attribute&lt; String &gt; &gt;</text>
</g>
<!-- Node5&#45;&gt;Node4 -->
<g id="edge5" class="edge"><title>Node5&#45;&gt;Node4</title>
<path fill="none" stroke="#9a32cd" stroke-dasharray="5,2" d="M186.296,-64.0742C224.821,-64.1992 269.499,-64.4633 310,-65 315.846,-65.0775 321.904,-65.1743 327.989,-65.2833"/>
<polygon fill="#9a32cd" stroke="#9a32cd" points="186.134,-60.5738 176.124,-64.0439 186.113,-67.5737 186.134,-60.5738"/>
<text text-anchor="middle" x="252" y="-68" font-family="Helvetica,sans-Serif" font-size="10.00"> myTextualAttributes</text>
</g>
<!-- Node6 -->
<g id="node6" class="node"><title>Node6</title>
<polygon fill="white" stroke="#bfbfbf" points="0,-0 0,-30 176,-30 176,-0 0,-0"/>
<text text-anchor="start" x="8" y="-18" font-family="Helvetica,sans-Serif" font-size="10.00">Set&lt; model.state.gameelement.</text>
<text text-anchor="middle" x="88" y="-7" font-family="Helvetica,sans-Serif" font-size="10.00">Attribute&lt; Number &gt; &gt;</text>
</g>
<!-- Node6&#45;&gt;Node4 -->
<g id="edge6" class="edge"><title>Node6&#45;&gt;Node4</title>
<path fill="none" stroke="#9a32cd" stroke-dasharray="5,2" d="M186.389,-29.8297C224.925,-35.8529 269.589,-43.0267 310,-50 315.702,-50.9839 321.599,-52.0272 327.525,-53.0938"/>
<polygon fill="#9a32cd" stroke="#9a32cd" points="186.632,-26.3253 176.212,-28.2435 185.554,-33.2418 186.632,-26.3253"/>
<text text-anchor="middle" x="252" y="-53" font-family="Helvetica,sans-Serif" font-size="10.00"> myNumericalAttributes</text>
</g>
</g>
</svg>
