<?xml version="1.0" encoding="UTF-8" standalone="no"?>
<!DOCTYPE svg PUBLIC "-//W3C//DTD SVG 1.1//EN"
 "http://www.w3.org/Graphics/SVG/1.1/DTD/svg11.dtd">
<!-- Generated by graphviz version 2.36.0 (20140111.2315)
 -->
<!-- Title: engine.stateManaging.GameLoop.pause Pages: 1 -->
<svg width="382pt" height="77pt"
 viewBox="0.00 0.00 382.00 77.00" xmlns="http://www.w3.org/2000/svg" xmlns:xlink="http://www.w3.org/1999/xlink">
<g id="graph0" class="graph" transform="scale(1 1) rotate(0) translate(4 73)">
<title>engine.stateManaging.GameLoop.pause</title>
<polygon fill="white" stroke="none" points="-4,4 -4,-73 378,-73 378,4 -4,4"/>
<!-- Node1 -->
<g id="node1" class="node"><title>Node1</title>
<polygon fill="#bfbfbf" stroke="black" points="0.5,-17 0.5,-47 155.5,-47 155.5,-17 0.5,-17"/>
<text text-anchor="start" x="8.5" y="-35" font-family="Helvetica,sans-Serif" font-size="10.00">engine.stateManaging.Game</text>
<text text-anchor="middle" x="78" y="-24" font-family="Helvetica,sans-Serif" font-size="10.00">Loop.pause</text>
</g>
<!-- Node2 -->
<g id="node2" class="node"><title>Node2</title>
<g id="a_node2"><a xlink:href="../../de/db7/classengine_1_1_u_i_1_1_runner_input_manager.html#aed338dcfef23593dc29149fe5fb7bce9" target="_top" xlink:title="engine.UI.RunnerInputManager.key\lPressed">
<polygon fill="white" stroke="black" points="192,-39 192,-69 374,-69 374,-39 192,-39"/>
<text text-anchor="start" x="200" y="-57" font-family="Helvetica,sans-Serif" font-size="10.00">engine.UI.RunnerInputManager.key</text>
<text text-anchor="middle" x="283" y="-46" font-family="Helvetica,sans-Serif" font-size="10.00">Pressed</text>
</a>
</g>
</g>
<!-- Node1&#45;&gt;Node2 -->
<g id="edge1" class="edge"><title>Node1&#45;&gt;Node2</title>
<path fill="none" stroke="midnightblue" d="M165.79,-41.4058C174.416,-42.3406 183.187,-43.2912 191.846,-44.2296"/>
<polygon fill="midnightblue" stroke="midnightblue" points="166.065,-37.9152 155.746,-40.3173 165.31,-44.8744 166.065,-37.9152"/>
</g>
<!-- Node3 -->
<g id="node3" class="node"><title>Node3</title>
<g id="a_node3"><a xlink:href="../../dc/de2/classengine_1_1_engine.html#aa437b9a03f0e4cff821fc419a9d17e8f" target="_top" xlink:title="engine.Engine.pause">
<polygon fill="white" stroke="black" points="225,-0.5 225,-19.5 341,-19.5 341,-0.5 225,-0.5"/>
<text text-anchor="middle" x="283" y="-7.5" font-family="Helvetica,sans-Serif" font-size="10.00">engine.Engine.pause</text>
</a>
</g>
</g>
<!-- Node1&#45;&gt;Node3 -->
<g id="edge2" class="edge"><title>Node1&#45;&gt;Node3</title>
<path fill="none" stroke="midnightblue" d="M165.774,-22.5959C185.72,-20.4342 206.442,-18.1885 224.769,-16.2023"/>
<polygon fill="midnightblue" stroke="midnightblue" points="165.31,-19.1256 155.746,-23.6827 166.065,-26.0848 165.31,-19.1256"/>
</g>
</g>
</svg>
