<?xml version="1.0" encoding="UTF-8" standalone="no"?>
<!DOCTYPE svg PUBLIC "-//W3C//DTD SVG 1.1//EN"
 "http://www.w3.org/Graphics/SVG/1.1/DTD/svg11.dtd">
<!-- Generated by graphviz version 2.36.0 (20140111.2315)
 -->
<!-- Title: engine.computers.pathingComputers.PathingComputer.determineCost Pages: 1 -->
<!--zoomable 48 -->
<svg id="main" version="1.1" xmlns="http://www.w3.org/2000/svg" xmlns:xlink="http://www.w3.org/1999/xlink" xml:space="preserve" onload="init(evt)">
<style type="text/css"><![CDATA[
.edge:hover path { stroke: red; }
.edge:hover polygon { stroke: red; fill: red; }
]]></style>
<script type="text/javascript"><![CDATA[
var edges = document.getElementsByTagName('g');
if (edges && edges.length) {
  for (var i=0;i<edges.length;i++) {
    if (edges[i].id.substr(0,4)=='edge') {
      edges[i].setAttribute('class','edge');
    }
  }
}
]]></script>
        <defs>
                <circle id="rim" cx="0" cy="0" r="7"/>
                <circle id="rim2" cx="0" cy="0" r="3.5"/>
                <g id="zoomPlus">
                        <use xlink:href="#rim" fill="#404040">
                                <set attributeName="fill" to="#808080" begin="zoomplus.mouseover" end="zoomplus.mouseout"/>
                        </use>
                        <path d="M-4,0h8M0,-4v8" fill="none" stroke="white" stroke-width="1.5" pointer-events="none"/>
                </g>
                <g id="zoomMin">
                        <use xlink:href="#rim" fill="#404040">
                                <set attributeName="fill" to="#808080" begin="zoomminus.mouseover" end="zoomminus.mouseout"/>
                        </use>
                        <path d="M-4,0h8" fill="none" stroke="white" stroke-width="1.5" pointer-events="none"/>
                </g>
                <g id="dirArrow">
                        <path fill="none" stroke="white" stroke-width="1.5" d="M0,-3.0v7 M-2.5,-0.5L0,-3.0L2.5,-0.5"/>
                </g>
               <g id="resetDef">
                       <use xlink:href="#rim2" fill="#404040">
                               <set attributeName="fill" to="#808080" begin="reset.mouseover" end="reset.mouseout"/>
                       </use>
               </g>
        </defs>

<script type="text/javascript">
var viewWidth = 1196;
var viewHeight = 48;
var sectionId = 'dynsection-4';
</script>
<script xlink:href="../../svgpan.js"/>
<svg id="graph" class="graph">
<g id="viewport">
<title>engine.computers.pathingComputers.PathingComputer.determineCost</title>
<polygon fill="white" stroke="none" points="-4,4 -4,-44 1192,-44 1192,4 -4,4"/>
<!-- Node1 -->
<g id="node1" class="node"><title>Node1</title>
<polygon fill="#bfbfbf" stroke="black" points="0,-5 0,-35 230,-35 230,-5 0,-5"/>
<text text-anchor="start" x="8" y="-23" font-family="Helvetica,sans-Serif" font-size="10.00">engine.computers.pathing</text>
<text text-anchor="middle" x="115" y="-12" font-family="Helvetica,sans-Serif" font-size="10.00">Computers.PathingComputer.determineCost</text>
</g>
<!-- Node2 -->
<g id="node2" class="node"><title>Node2</title>
<g id="a_node2"><a xlink:href="../../db/d9b/classengine_1_1computers_1_1pathing_computers_1_1_pathing_computer.html#a70bbf9c10b2b1b5a3a1ac0b038048429" target="_top" xlink:title="engine.computers.pathing\lComputers.PathingComputer.computePath">
<polygon fill="white" stroke="black" points="266,-5 266,-35 488,-35 488,-5 266,-5"/>
<text text-anchor="start" x="274" y="-23" font-family="Helvetica,sans-Serif" font-size="10.00">engine.computers.pathing</text>
<text text-anchor="middle" x="377" y="-12" font-family="Helvetica,sans-Serif" font-size="10.00">Computers.PathingComputer.computePath</text>
</a>
</g>
</g>
<!-- Node1&#45;&gt;Node2 -->
<g id="edge1" class="edge"><title>Node1&#45;&gt;Node2</title>
<path fill="none" stroke="midnightblue" d="M240.089,-20C248.671,-20 257.287,-20 265.788,-20"/>
<polygon fill="midnightblue" stroke="midnightblue" points="240.04,-16.5001 230.04,-20 240.04,-23.5001 240.04,-16.5001"/>
</g>
<!-- Node3 -->
<g id="node3" class="node"><title>Node3</title>
<g id="a_node3"><a xlink:href="../../db/d9b/classengine_1_1computers_1_1pathing_computers_1_1_pathing_computer.html#ad6c08d3abbb8b266ae32fd7cf01d3b3c" target="_top" xlink:title="engine.computers.pathing\lComputers.PathingComputer.findPath">
<polygon fill="white" stroke="black" points="524.5,-5 524.5,-35 721.5,-35 721.5,-5 524.5,-5"/>
<text text-anchor="start" x="532.5" y="-23" font-family="Helvetica,sans-Serif" font-size="10.00">engine.computers.pathing</text>
<text text-anchor="middle" x="623" y="-12" font-family="Helvetica,sans-Serif" font-size="10.00">Computers.PathingComputer.findPath</text>
</a>
</g>
</g>
<!-- Node2&#45;&gt;Node3 -->
<g id="edge2" class="edge"><title>Node2&#45;&gt;Node3</title>
<path fill="none" stroke="midnightblue" d="M498.371,-20C507.029,-20 515.699,-20 524.205,-20"/>
<polygon fill="midnightblue" stroke="midnightblue" points="498.221,-16.5001 488.221,-20 498.221,-23.5001 498.221,-16.5001"/>
</g>
<!-- Node4 -->
<g id="node4" class="node"><title>Node4</title>
<g id="a_node4"><a xlink:href="../../dd/dd8/classengine_1_1state_managing_1_1_game_element_manager.html#af2b27c63c8557bc1b84990cd1e266f9f" target="_top" xlink:title="engine.stateManaging.Game\lElementManager.setSelectedUnit\lCommand">
<polygon fill="white" stroke="black" points="758.5,0.5 758.5,-40.5 935.5,-40.5 935.5,0.5 758.5,0.5"/>
<text text-anchor="start" x="766.5" y="-28.5" font-family="Helvetica,sans-Serif" font-size="10.00">engine.stateManaging.Game</text>
<text text-anchor="start" x="766.5" y="-17.5" font-family="Helvetica,sans-Serif" font-size="10.00">ElementManager.setSelectedUnit</text>
<text text-anchor="middle" x="847" y="-6.5" font-family="Helvetica,sans-Serif" font-size="10.00">Command</text>
</a>
</g>
</g>
<!-- Node3&#45;&gt;Node4 -->
<g id="edge3" class="edge"><title>Node3&#45;&gt;Node4</title>
<path fill="none" stroke="midnightblue" d="M731.752,-20C740.68,-20 749.637,-20 758.39,-20"/>
<polygon fill="midnightblue" stroke="midnightblue" points="731.696,-16.5001 721.695,-20 731.695,-23.5001 731.696,-16.5001"/>
</g>
<!-- Node5 -->
<g id="node5" class="node"><title>Node5</title>
<g id="a_node5"><a xlink:href="../../de/db7/classengine_1_1_u_i_1_1_runner_input_manager.html#a4709ebdf2608218227aab4d9af9ca2ca" target="_top" xlink:title="engine.UI.RunnerInputManager.secondary\lClickOccurred">
<polygon fill="white" stroke="black" points="972.5,-5 972.5,-35 1187.5,-35 1187.5,-5 972.5,-5"/>
<text text-anchor="start" x="980.5" y="-23" font-family="Helvetica,sans-Serif" font-size="10.00">engine.UI.RunnerInputManager.secondary</text>
<text text-anchor="middle" x="1080" y="-12" font-family="Helvetica,sans-Serif" font-size="10.00">ClickOccurred</text>
</a>
</g>
</g>
<!-- Node4&#45;&gt;Node5 -->
<g id="edge4" class="edge"><title>Node4&#45;&gt;Node5</title>
<path fill="none" stroke="midnightblue" d="M945.872,-20C954.636,-20 963.538,-20 972.371,-20"/>
<polygon fill="midnightblue" stroke="midnightblue" points="945.661,-16.5001 935.661,-20 945.661,-23.5001 945.661,-16.5001"/>
</g>
</g>
</svg>
        <g id="navigator" transform="translate(0 0)" fill="#404254">
                <rect fill="#f2f5e9" fill-opacity="0.5" stroke="#606060" stroke-width=".5" x="0" y="0" width="60" height="60"/>
                <use id="zoomplus" xlink:href="#zoomPlus" x="17" y="9" onmousedown="handleZoom(evt,'in')"/>
                <use id="zoomminus" xlink:href="#zoomMin" x="42" y="9" onmousedown="handleZoom(evt,'out')"/>
                <use id="reset" xlink:href="#resetDef" x="30" y="36" onmousedown="handleReset()"/>
                <g id="arrowUp" xlink:href="#dirArrow" transform="translate(30 24)" onmousedown="handlePan(0,-1)">
                  <use xlink:href="#rim" fill="#404040">
                        <set attributeName="fill" to="#808080" begin="arrowUp.mouseover" end="arrowUp.mouseout"/>
                  </use>
                  <path fill="none" stroke="white" stroke-width="1.5" d="M0,-3.0v7 M-2.5,-0.5L0,-3.0L2.5,-0.5"/>
                </g>
                <g id="arrowRight" xlink:href="#dirArrow" transform="rotate(90) translate(36 -43)" onmousedown="handlePan(1,0)">
                  <use xlink:href="#rim" fill="#404040">
                        <set attributeName="fill" to="#808080" begin="arrowRight.mouseover" end="arrowRight.mouseout"/>
                  </use>
                  <path fill="none" stroke="white" stroke-width="1.5" d="M0,-3.0v7 M-2.5,-0.5L0,-3.0L2.5,-0.5"/>
                </g>
                <g id="arrowDown" xlink:href="#dirArrow" transform="rotate(180) translate(-30 -48)" onmousedown="handlePan(0,1)">
                  <use xlink:href="#rim" fill="#404040">
                        <set attributeName="fill" to="#808080" begin="arrowDown.mouseover" end="arrowDown.mouseout"/>
                  </use>
                  <path fill="none" stroke="white" stroke-width="1.5" d="M0,-3.0v7 M-2.5,-0.5L0,-3.0L2.5,-0.5"/>
                </g>
                <g id="arrowLeft" xlink:href="#dirArrow" transform="rotate(270) translate(-36 17)" onmousedown="handlePan(-1,0)">
                  <use xlink:href="#rim" fill="#404040">
                        <set attributeName="fill" to="#808080" begin="arrowLeft.mouseover" end="arrowLeft.mouseout"/>
                  </use>
                  <path fill="none" stroke="white" stroke-width="1.5" d="M0,-3.0v7 M-2.5,-0.5L0,-3.0L2.5,-0.5"/>
                </g>
        </g>
        <svg viewBox="0 0 15 15" width="100%" height="30px" preserveAspectRatio="xMaxYMin meet">
         <g id="arrow_out" transform="scale(0.3 0.3)">
          <a xlink:href="classengine_1_1computers_1_1pathing_computers_1_1_pathing_computer_a10ed6acf17a9bbc27166cda9155fb152_icgraph_org.svg" target="_base">
           <rect id="button" ry="5" rx="5" y="6" x="6" height="38" width="38"
                fill="#f2f5e9" fill-opacity="0.5" stroke="#606060" stroke-width="1.0"/>
           <path id="arrow"
             d="M 11.500037,31.436501 C 11.940474,20.09759 22.043105,11.32322 32.158766,21.979434 L 37.068811,17.246167 C 37.068811,17.246167 37.088388,32 37.088388,32 L 22.160133,31.978069 C 22.160133,31.978069 26.997745,27.140456 26.997745,27.140456 C 18.528582,18.264221 13.291696,25.230495 11.500037,31.436501 z"
             style="fill:#404040;"/>
          </a>
         </g>
        </svg>
</svg>
