<?xml version="1.0" encoding="UTF-8" standalone="no"?>
<!DOCTYPE svg PUBLIC "-//W3C//DTD SVG 1.1//EN"
 "http://www.w3.org/Graphics/SVG/1.1/DTD/svg11.dtd">
<!-- Generated by graphviz version 2.36.0 (20140111.2315)
 -->
<!-- Title: engine.computers.pathingComputers.PathingComputer.determineHeuristic Pages: 1 -->
<svg width="396pt" height="87pt"
 viewBox="0.00 0.00 396.00 87.00" xmlns="http://www.w3.org/2000/svg" xmlns:xlink="http://www.w3.org/1999/xlink">
<g id="graph0" class="graph" transform="scale(1 1) rotate(0) translate(4 83)">
<title>engine.computers.pathingComputers.PathingComputer.determineHeuristic</title>
<polygon fill="white" stroke="none" points="-4,4 -4,-83 392,-83 392,4 -4,4"/>
<!-- Node1 -->
<g id="node1" class="node"><title>Node1</title>
<polygon fill="#bfbfbf" stroke="black" points="0,-18.5 0,-59.5 208,-59.5 208,-18.5 0,-18.5"/>
<text text-anchor="start" x="8" y="-47.5" font-family="Helvetica,sans-Serif" font-size="10.00">engine.computers.pathing</text>
<text text-anchor="start" x="8" y="-36.5" font-family="Helvetica,sans-Serif" font-size="10.00">Computers.PathingComputer.determine</text>
<text text-anchor="middle" x="104" y="-25.5" font-family="Helvetica,sans-Serif" font-size="10.00">Heuristic</text>
</g>
<!-- Node2 -->
<g id="node2" class="node"><title>Node2</title>
<g id="a_node2"><a xlink:href="../../d1/d19/classengine_1_1computers_1_1pathing_computers_1_1_location.html#a6b17f88aada14c904238ef52e51cf5e9" target="_top" xlink:title="engine.computers.pathing\lComputers.Location.getX">
<polygon fill="white" stroke="black" points="244.5,-49 244.5,-79 387.5,-79 387.5,-49 244.5,-49"/>
<text text-anchor="start" x="252.5" y="-67" font-family="Helvetica,sans-Serif" font-size="10.00">engine.computers.pathing</text>
<text text-anchor="middle" x="316" y="-56" font-family="Helvetica,sans-Serif" font-size="10.00">Computers.Location.getX</text>
</a>
</g>
</g>
<!-- Node1&#45;&gt;Node2 -->
<g id="edge1" class="edge"><title>Node1&#45;&gt;Node2</title>
<path fill="none" stroke="midnightblue" d="M208.154,-51.2803C216.952,-52.3276 225.766,-53.3769 234.351,-54.3989"/>
<polygon fill="midnightblue" stroke="midnightblue" points="233.965,-57.8776 244.308,-55.5843 234.792,-50.9267 233.965,-57.8776"/>
</g>
<!-- Node3 -->
<g id="node3" class="node"><title>Node3</title>
<g id="a_node3"><a xlink:href="../../d1/d19/classengine_1_1computers_1_1pathing_computers_1_1_location.html#ac4dc59386dde16b5784bfdaa27dbcbf4" target="_top" xlink:title="engine.computers.pathing\lComputers.Location.getY">
<polygon fill="white" stroke="black" points="244.5,-0 244.5,-30 387.5,-30 387.5,-0 244.5,-0"/>
<text text-anchor="start" x="252.5" y="-18" font-family="Helvetica,sans-Serif" font-size="10.00">engine.computers.pathing</text>
<text text-anchor="middle" x="316" y="-7" font-family="Helvetica,sans-Serif" font-size="10.00">Computers.Location.getY</text>
</a>
</g>
</g>
<!-- Node1&#45;&gt;Node3 -->
<g id="edge2" class="edge"><title>Node1&#45;&gt;Node3</title>
<path fill="none" stroke="midnightblue" d="M208.154,-27.2109C216.952,-26.2055 225.766,-25.1981 234.351,-24.217"/>
<polygon fill="midnightblue" stroke="midnightblue" points="234.77,-27.692 244.308,-23.079 233.976,-20.7372 234.77,-27.692"/>
</g>
</g>
</svg>
