<?xml version="1.0" encoding="UTF-8" standalone="no"?>
<!DOCTYPE svg PUBLIC "-//W3C//DTD SVG 1.1//EN"
 "http://www.w3.org/Graphics/SVG/1.1/DTD/svg11.dtd">
<!-- Generated by graphviz version 2.36.0 (20140111.2315)
 -->
<!-- Title: engine.computers.pathingComputers.PathingComputer.reconstructPath Pages: 1 -->
<svg width="638pt" height="87pt"
 viewBox="0.00 0.00 638.00 87.00" xmlns="http://www.w3.org/2000/svg" xmlns:xlink="http://www.w3.org/1999/xlink">
<g id="graph0" class="graph" transform="scale(1 1) rotate(0) translate(4 83)">
<title>engine.computers.pathingComputers.PathingComputer.reconstructPath</title>
<polygon fill="white" stroke="none" points="-4,4 -4,-83 634,-83 634,4 -4,4"/>
<!-- Node1 -->
<g id="node1" class="node"><title>Node1</title>
<polygon fill="#bfbfbf" stroke="black" points="0,-24 0,-54 234,-54 234,-24 0,-24"/>
<text text-anchor="start" x="8" y="-42" font-family="Helvetica,sans-Serif" font-size="10.00">engine.computers.pathing</text>
<text text-anchor="middle" x="117" y="-31" font-family="Helvetica,sans-Serif" font-size="10.00">Computers.PathingComputer.reconstructPath</text>
</g>
<!-- Node2 -->
<g id="node2" class="node"><title>Node2</title>
<g id="a_node2"><a xlink:href="../../d5/d97/classengine_1_1computers_1_1pathing_computers_1_1_map_grid.html#a16990bcc2998fd65f99e5fc5c4f20f99" target="_top" xlink:title="engine.computers.pathing\lComputers.MapGrid.getNeighbors\lForXYCoordinate">
<polygon fill="white" stroke="black" points="270,-18.5 270,-59.5 450,-59.5 450,-18.5 270,-18.5"/>
<text text-anchor="start" x="278" y="-47.5" font-family="Helvetica,sans-Serif" font-size="10.00">engine.computers.pathing</text>
<text text-anchor="start" x="278" y="-36.5" font-family="Helvetica,sans-Serif" font-size="10.00">Computers.MapGrid.getNeighbors</text>
<text text-anchor="middle" x="360" y="-25.5" font-family="Helvetica,sans-Serif" font-size="10.00">ForXYCoordinate</text>
</a>
</g>
</g>
<!-- Node1&#45;&gt;Node2 -->
<g id="edge1" class="edge"><title>Node1&#45;&gt;Node2</title>
<path fill="none" stroke="midnightblue" d="M234.264,-39C242.736,-39 251.236,-39 259.596,-39"/>
<polygon fill="midnightblue" stroke="midnightblue" points="259.713,-42.5001 269.713,-39 259.713,-35.5001 259.713,-42.5001"/>
</g>
<!-- Node3 -->
<g id="node3" class="node"><title>Node3</title>
<g id="a_node3"><a xlink:href="../../d1/d19/classengine_1_1computers_1_1pathing_computers_1_1_location.html#a6b17f88aada14c904238ef52e51cf5e9" target="_top" xlink:title="engine.computers.pathing\lComputers.Location.getX">
<polygon fill="white" stroke="black" points="486.5,-49 486.5,-79 629.5,-79 629.5,-49 486.5,-49"/>
<text text-anchor="start" x="494.5" y="-67" font-family="Helvetica,sans-Serif" font-size="10.00">engine.computers.pathing</text>
<text text-anchor="middle" x="558" y="-56" font-family="Helvetica,sans-Serif" font-size="10.00">Computers.Location.getX</text>
</a>
</g>
</g>
<!-- Node2&#45;&gt;Node3 -->
<g id="edge2" class="edge"><title>Node2&#45;&gt;Node3</title>
<path fill="none" stroke="midnightblue" d="M450.11,-50.3661C458.833,-51.4786 467.649,-52.6032 476.281,-53.7043"/>
<polygon fill="midnightblue" stroke="midnightblue" points="475.951,-57.1903 486.313,-54.9838 476.836,-50.2466 475.951,-57.1903"/>
</g>
<!-- Node4 -->
<g id="node4" class="node"><title>Node4</title>
<g id="a_node4"><a xlink:href="../../d1/d19/classengine_1_1computers_1_1pathing_computers_1_1_location.html#ac4dc59386dde16b5784bfdaa27dbcbf4" target="_top" xlink:title="engine.computers.pathing\lComputers.Location.getY">
<polygon fill="white" stroke="black" points="486.5,-0 486.5,-30 629.5,-30 629.5,-0 486.5,-0"/>
<text text-anchor="start" x="494.5" y="-18" font-family="Helvetica,sans-Serif" font-size="10.00">engine.computers.pathing</text>
<text text-anchor="middle" x="558" y="-7" font-family="Helvetica,sans-Serif" font-size="10.00">Computers.Location.getY</text>
</a>
</g>
</g>
<!-- Node2&#45;&gt;Node4 -->
<g id="edge3" class="edge"><title>Node2&#45;&gt;Node4</title>
<path fill="none" stroke="midnightblue" d="M450.11,-28.0885C458.833,-27.0205 467.649,-25.9409 476.281,-24.8839"/>
<polygon fill="midnightblue" stroke="midnightblue" points="476.813,-28.3451 486.313,-23.6555 475.962,-21.397 476.813,-28.3451"/>
</g>
</g>
</svg>
