<?xml version="1.0" encoding="UTF-8" standalone="no"?>
<!DOCTYPE svg PUBLIC "-//W3C//DTD SVG 1.1//EN"
 "http://www.w3.org/Graphics/SVG/1.1/DTD/svg11.dtd">
<!-- Generated by graphviz version 2.36.0 (20140111.2315)
 -->
<!-- Title: engine.computers.pathingComputers.PathingComputer.reconstructPath Pages: 1 -->
<svg width="1200pt" height="48pt"
 viewBox="0.00 0.00 1200.00 48.00" xmlns="http://www.w3.org/2000/svg" xmlns:xlink="http://www.w3.org/1999/xlink">
<g id="graph0" class="graph" transform="scale(1 1) rotate(0) translate(4 44)">
<title>engine.computers.pathingComputers.PathingComputer.reconstructPath</title>
<polygon fill="white" stroke="none" points="-4,4 -4,-44 1196,-44 1196,4 -4,4"/>
<!-- Node1 -->
<g id="node1" class="node"><title>Node1</title>
<polygon fill="#bfbfbf" stroke="black" points="0,-5 0,-35 234,-35 234,-5 0,-5"/>
<text text-anchor="start" x="8" y="-23" font-family="Helvetica,sans-Serif" font-size="10.00">engine.computers.pathing</text>
<text text-anchor="middle" x="117" y="-12" font-family="Helvetica,sans-Serif" font-size="10.00">Computers.PathingComputer.reconstructPath</text>
</g>
<!-- Node2 -->
<g id="node2" class="node"><title>Node2</title>
<g id="a_node2"><a xlink:href="../../db/d9b/classengine_1_1computers_1_1pathing_computers_1_1_pathing_computer.html#a70bbf9c10b2b1b5a3a1ac0b038048429" target="_top" xlink:title="engine.computers.pathing\lComputers.PathingComputer.computePath">
<polygon fill="white" stroke="black" points="270,-5 270,-35 492,-35 492,-5 270,-5"/>
<text text-anchor="start" x="278" y="-23" font-family="Helvetica,sans-Serif" font-size="10.00">engine.computers.pathing</text>
<text text-anchor="middle" x="381" y="-12" font-family="Helvetica,sans-Serif" font-size="10.00">Computers.PathingComputer.computePath</text>
</a>
</g>
</g>
<!-- Node1&#45;&gt;Node2 -->
<g id="edge1" class="edge"><title>Node1&#45;&gt;Node2</title>
<path fill="none" stroke="midnightblue" d="M244.139,-20C252.743,-20 261.375,-20 269.886,-20"/>
<polygon fill="midnightblue" stroke="midnightblue" points="244.061,-16.5001 234.061,-20 244.061,-23.5001 244.061,-16.5001"/>
</g>
<!-- Node3 -->
<g id="node3" class="node"><title>Node3</title>
<g id="a_node3"><a xlink:href="../../db/d9b/classengine_1_1computers_1_1pathing_computers_1_1_pathing_computer.html#ad6c08d3abbb8b266ae32fd7cf01d3b3c" target="_top" xlink:title="engine.computers.pathing\lComputers.PathingComputer.findPath">
<polygon fill="white" stroke="black" points="528.5,-5 528.5,-35 725.5,-35 725.5,-5 528.5,-5"/>
<text text-anchor="start" x="536.5" y="-23" font-family="Helvetica,sans-Serif" font-size="10.00">engine.computers.pathing</text>
<text text-anchor="middle" x="627" y="-12" font-family="Helvetica,sans-Serif" font-size="10.00">Computers.PathingComputer.findPath</text>
</a>
</g>
</g>
<!-- Node2&#45;&gt;Node3 -->
<g id="edge2" class="edge"><title>Node2&#45;&gt;Node3</title>
<path fill="none" stroke="midnightblue" d="M502.371,-20C511.029,-20 519.699,-20 528.205,-20"/>
<polygon fill="midnightblue" stroke="midnightblue" points="502.221,-16.5001 492.221,-20 502.221,-23.5001 502.221,-16.5001"/>
</g>
<!-- Node4 -->
<g id="node4" class="node"><title>Node4</title>
<g id="a_node4"><a xlink:href="../../dd/dd8/classengine_1_1state_managing_1_1_game_element_manager.html#af2b27c63c8557bc1b84990cd1e266f9f" target="_top" xlink:title="engine.stateManaging.Game\lElementManager.setSelectedUnit\lCommand">
<polygon fill="white" stroke="black" points="762.5,0.5 762.5,-40.5 939.5,-40.5 939.5,0.5 762.5,0.5"/>
<text text-anchor="start" x="770.5" y="-28.5" font-family="Helvetica,sans-Serif" font-size="10.00">engine.stateManaging.Game</text>
<text text-anchor="start" x="770.5" y="-17.5" font-family="Helvetica,sans-Serif" font-size="10.00">ElementManager.setSelectedUnit</text>
<text text-anchor="middle" x="851" y="-6.5" font-family="Helvetica,sans-Serif" font-size="10.00">Command</text>
</a>
</g>
</g>
<!-- Node3&#45;&gt;Node4 -->
<g id="edge3" class="edge"><title>Node3&#45;&gt;Node4</title>
<path fill="none" stroke="midnightblue" d="M735.752,-20C744.68,-20 753.637,-20 762.39,-20"/>
<polygon fill="midnightblue" stroke="midnightblue" points="735.696,-16.5001 725.695,-20 735.695,-23.5001 735.696,-16.5001"/>
</g>
<!-- Node5 -->
<g id="node5" class="node"><title>Node5</title>
<g id="a_node5"><a xlink:href="../../de/db7/classengine_1_1_u_i_1_1_runner_input_manager.html#a4709ebdf2608218227aab4d9af9ca2ca" target="_top" xlink:title="engine.UI.RunnerInputManager.secondary\lClickOccurred">
<polygon fill="white" stroke="black" points="976.5,-5 976.5,-35 1191.5,-35 1191.5,-5 976.5,-5"/>
<text text-anchor="start" x="984.5" y="-23" font-family="Helvetica,sans-Serif" font-size="10.00">engine.UI.RunnerInputManager.secondary</text>
<text text-anchor="middle" x="1084" y="-12" font-family="Helvetica,sans-Serif" font-size="10.00">ClickOccurred</text>
</a>
</g>
</g>
<!-- Node4&#45;&gt;Node5 -->
<g id="edge4" class="edge"><title>Node4&#45;&gt;Node5</title>
<path fill="none" stroke="midnightblue" d="M949.872,-20C958.636,-20 967.538,-20 976.371,-20"/>
<polygon fill="midnightblue" stroke="midnightblue" points="949.661,-16.5001 939.661,-20 949.661,-23.5001 949.661,-16.5001"/>
</g>
</g>
</svg>
