<?xml version="1.0" encoding="UTF-8" standalone="no"?>
<!DOCTYPE svg PUBLIC "-//W3C//DTD SVG 1.1//EN"
 "http://www.w3.org/Graphics/SVG/1.1/DTD/svg11.dtd">
<!-- Generated by graphviz version 2.36.0 (20140111.2315)
 -->
<!-- Title: util.SaveLoadUtility.saveImage Pages: 1 -->
<svg width="332pt" height="77pt"
 viewBox="0.00 0.00 332.00 77.00" xmlns="http://www.w3.org/2000/svg" xmlns:xlink="http://www.w3.org/1999/xlink">
<g id="graph0" class="graph" transform="scale(1 1) rotate(0) translate(4 73)">
<title>util.SaveLoadUtility.saveImage</title>
<polygon fill="white" stroke="none" points="-4,4 -4,-73 328,-73 328,4 -4,4"/>
<!-- Node1 -->
<g id="node1" class="node"><title>Node1</title>
<polygon fill="#bfbfbf" stroke="black" points="0,-22 0,-52 132,-52 132,-22 0,-22"/>
<text text-anchor="start" x="8" y="-40" font-family="Helvetica,sans-Serif" font-size="10.00">util.SaveLoadUtility.save</text>
<text text-anchor="middle" x="66" y="-29" font-family="Helvetica,sans-Serif" font-size="10.00">Image</text>
</g>
<!-- Node2 -->
<g id="node2" class="node"><title>Node2</title>
<g id="a_node2"><a xlink:href="../../d3/d14/classutil_1_1_save_load_utility.html#a45324a0a42802150f23edb0fe9340aa2" target="_top" xlink:title="util.SaveLoadUtility.obtainFile">
<polygon fill="white" stroke="black" points="168.5,-49.5 168.5,-68.5 323.5,-68.5 323.5,-49.5 168.5,-49.5"/>
<text text-anchor="middle" x="246" y="-56.5" font-family="Helvetica,sans-Serif" font-size="10.00">util.SaveLoadUtility.obtainFile</text>
</a>
</g>
</g>
<!-- Node1&#45;&gt;Node2 -->
<g id="edge1" class="edge"><title>Node1&#45;&gt;Node2</title>
<path fill="none" stroke="midnightblue" d="M132.018,-45.0359C140.604,-46.0972 149.513,-47.1982 158.39,-48.2953"/>
<polygon fill="midnightblue" stroke="midnightblue" points="158.026,-51.7769 168.38,-49.5301 158.884,-44.8298 158.026,-51.7769"/>
</g>
<!-- Node3 -->
<g id="node3" class="node"><title>Node3</title>
<g id="a_node3"><a xlink:href="../../d3/d14/classutil_1_1_save_load_utility.html#a7dd5135de57549be59b6af1d5828e2a1" target="_top" xlink:title="util.SaveLoadUtility.pre\lProcess">
<polygon fill="white" stroke="black" points="183.5,-0 183.5,-30 308.5,-30 308.5,-0 183.5,-0"/>
<text text-anchor="start" x="191.5" y="-18" font-family="Helvetica,sans-Serif" font-size="10.00">util.SaveLoadUtility.pre</text>
<text text-anchor="middle" x="246" y="-7" font-family="Helvetica,sans-Serif" font-size="10.00">Process</text>
</a>
</g>
</g>
<!-- Node1&#45;&gt;Node3 -->
<g id="edge2" class="edge"><title>Node1&#45;&gt;Node3</title>
<path fill="none" stroke="midnightblue" d="M132.018,-28.9641C145.392,-27.3111 159.548,-25.5615 173.148,-23.8806"/>
<polygon fill="midnightblue" stroke="midnightblue" points="173.923,-27.3116 183.418,-22.6113 173.064,-20.3644 173.923,-27.3116"/>
</g>
</g>
</svg>
