<?xml version="1.0" encoding="UTF-8" standalone="no"?>
<!DOCTYPE svg PUBLIC "-//W3C//DTD SVG 1.1//EN"
 "http://www.w3.org/Graphics/SVG/1.1/DTD/svg11.dtd">
<!-- Generated by graphviz version 2.36.0 (20140111.2315)
 -->
<!-- Title: game_engine.visuals.ScrollableBackground Pages: 1 -->
<svg width="174pt" height="96pt"
 viewBox="0.00 0.00 174.00 96.00" xmlns="http://www.w3.org/2000/svg" xmlns:xlink="http://www.w3.org/1999/xlink">
<g id="graph0" class="graph" transform="scale(1 1) rotate(0) translate(4 92)">
<title>game_engine.visuals.ScrollableBackground</title>
<polygon fill="white" stroke="none" points="-4,4 -4,-92 170,-92 170,4 -4,4"/>
<!-- Node1 -->
<g id="node1" class="node"><title>Node1</title>
<polygon fill="#bfbfbf" stroke="black" points="-0.5,-1 -0.5,-31 166.5,-31 166.5,-1 -0.5,-1"/>
<text text-anchor="start" x="7.5" y="-19" font-family="Helvetica,sans-Serif" font-size="10.00">game_engine.visuals.Scrollable</text>
<text text-anchor="middle" x="83" y="-8" font-family="Helvetica,sans-Serif" font-size="10.00">Background</text>
</g>
<!-- Node2 -->
<g id="node2" class="node"><title>Node2</title>
<polygon fill="white" stroke="#bfbfbf" points="29,-68.5 29,-87.5 69,-87.5 69,-68.5 29,-68.5"/>
<text text-anchor="middle" x="49" y="-75.5" font-family="Helvetica,sans-Serif" font-size="10.00">Pane</text>
</g>
<!-- Node2&#45;&gt;Node1 -->
<g id="edge1" class="edge"><title>Node2&#45;&gt;Node1</title>
<path fill="none" stroke="midnightblue" d="M58.8981,-59.5327C64.0133,-50.5059 70.1744,-39.6335 74.9869,-31.1408"/>
<polygon fill="midnightblue" stroke="midnightblue" points="55.7565,-57.9777 53.8714,-68.4035 61.8466,-61.4288 55.7565,-57.9777"/>
</g>
<!-- Node3 -->
<g id="node3" class="node"><title>Node3</title>
<polygon fill="white" stroke="#bfbfbf" points="87,-68.5 87,-87.5 147,-87.5 147,-68.5 87,-68.5"/>
<text text-anchor="middle" x="117" y="-75.5" font-family="Helvetica,sans-Serif" font-size="10.00">Observer</text>
</g>
<!-- Node3&#45;&gt;Node1 -->
<g id="edge2" class="edge"><title>Node3&#45;&gt;Node1</title>
<path fill="none" stroke="midnightblue" d="M107.102,-59.5327C101.987,-50.5059 95.8256,-39.6335 91.0131,-31.1408"/>
<polygon fill="midnightblue" stroke="midnightblue" points="104.153,-61.4288 112.129,-68.4035 110.244,-57.9777 104.153,-61.4288"/>
</g>
</g>
</svg>
