<?xml version="1.0" encoding="UTF-8" standalone="no"?>
<!DOCTYPE svg PUBLIC "-//W3C//DTD SVG 1.1//EN"
 "http://www.w3.org/Graphics/SVG/1.1/DTD/svg11.dtd">
<!-- Generated by graphviz version 2.36.0 (20140111.2315)
 -->
<!-- Title: view.editor.wizards.Grid Pages: 1 -->
<svg width="235pt" height="108pt"
 viewBox="0.00 0.00 235.00 108.00" xmlns="http://www.w3.org/2000/svg" xmlns:xlink="http://www.w3.org/1999/xlink">
<g id="graph0" class="graph" transform="scale(1 1) rotate(0) translate(4 104)">
<title>view.editor.wizards.Grid</title>
<polygon fill="white" stroke="none" points="-4,4 -4,-104 231,-104 231,4 -4,4"/>
<!-- Node1 -->
<g id="node1" class="node"><title>Node1</title>
<polygon fill="#bfbfbf" stroke="black" points="20.5,-0.5 20.5,-19.5 147.5,-19.5 147.5,-0.5 20.5,-0.5"/>
<text text-anchor="middle" x="84" y="-7.5" font-family="Helvetica,sans-Serif" font-size="10.00">view.editor.wizards.Grid</text>
</g>
<!-- Node2 -->
<g id="node2" class="node"><title>Node2</title>
<polygon fill="white" stroke="#bfbfbf" points="0,-74.5 0,-93.5 46,-93.5 46,-74.5 0,-74.5"/>
<text text-anchor="middle" x="23" y="-81.5" font-family="Helvetica,sans-Serif" font-size="10.00">Group</text>
</g>
<!-- Node2&#45;&gt;Node1 -->
<g id="edge1" class="edge"><title>Node2&#45;&gt;Node1</title>
<path fill="none" stroke="midnightblue" d="M36.8295,-66.6767C49.2392,-52.0292 66.9635,-31.1086 76.7724,-19.531"/>
<polygon fill="midnightblue" stroke="midnightblue" points="34.0308,-64.5656 30.237,-74.4579 39.3717,-69.0905 34.0308,-64.5656"/>
</g>
<!-- Node3 -->
<g id="node3" class="node"><title>Node3</title>
<polygon fill="white" stroke="#bfbfbf" points="64.5,-69 64.5,-99 227.5,-99 227.5,-69 64.5,-69"/>
<text text-anchor="start" x="72.5" y="-87" font-family="Helvetica,sans-Serif" font-size="10.00">List&lt; List&lt; view.editor.wizards.</text>
<text text-anchor="middle" x="146" y="-76" font-family="Helvetica,sans-Serif" font-size="10.00">Grid.Frame &gt; &gt;</text>
</g>
<!-- Node3&#45;&gt;Node1 -->
<g id="edge2" class="edge"><title>Node3&#45;&gt;Node1</title>
<path fill="none" stroke="#9a32cd" stroke-dasharray="5,2" d="M127.103,-61.0551C115.138,-47.1605 100.32,-29.952 91.5424,-19.7589"/>
<polygon fill="#9a32cd" stroke="#9a32cd" points="124.573,-63.4812 133.751,-68.7751 129.878,-58.9136 124.573,-63.4812"/>
<text text-anchor="middle" x="143" y="-41.5" font-family="Helvetica,sans-Serif" font-size="10.00"> frameCols</text>
</g>
</g>
</svg>
