<?xml version="1.0" encoding="UTF-8" standalone="no"?>
<!DOCTYPE svg PUBLIC "-//W3C//DTD SVG 1.1//EN"
 "http://www.w3.org/Graphics/SVG/1.1/DTD/svg11.dtd">
<!-- Generated by graphviz version 2.36.0 (20140111.2315)
 -->
<!-- Title: engine.elementFactories.VisualizerFactory.setAnimationEnabled Pages: 1 -->
<svg width="686pt" height="48pt"
 viewBox="0.00 0.00 686.00 48.00" xmlns="http://www.w3.org/2000/svg" xmlns:xlink="http://www.w3.org/1999/xlink">
<g id="graph0" class="graph" transform="scale(1 1) rotate(0) translate(4 44)">
<title>engine.elementFactories.VisualizerFactory.setAnimationEnabled</title>
<polygon fill="white" stroke="none" points="-4,4 -4,-44 682,-44 682,4 -4,4"/>
<!-- Node1 -->
<g id="node1" class="node"><title>Node1</title>
<polygon fill="#bfbfbf" stroke="black" points="0,0.5 0,-40.5 162,-40.5 162,0.5 0,0.5"/>
<text text-anchor="start" x="8" y="-28.5" font-family="Helvetica,sans-Serif" font-size="10.00">engine.elementFactories.</text>
<text text-anchor="start" x="8" y="-17.5" font-family="Helvetica,sans-Serif" font-size="10.00">VisualizerFactory.setAnimation</text>
<text text-anchor="middle" x="81" y="-6.5" font-family="Helvetica,sans-Serif" font-size="10.00">Enabled</text>
</g>
<!-- Node2 -->
<g id="node2" class="node"><title>Node2</title>
<g id="a_node2"><a xlink:href="../../dc/de2/classengine_1_1_engine.html#a2496ea675542c41737143df1f8c2ed41" target="_top" xlink:title="engine.Engine.setAnimation\lEnabled">
<polygon fill="white" stroke="black" points="198.5,-5 198.5,-35 349.5,-35 349.5,-5 198.5,-5"/>
<text text-anchor="start" x="206.5" y="-23" font-family="Helvetica,sans-Serif" font-size="10.00">engine.Engine.setAnimation</text>
<text text-anchor="middle" x="274" y="-12" font-family="Helvetica,sans-Serif" font-size="10.00">Enabled</text>
</a>
</g>
</g>
<!-- Node1&#45;&gt;Node2 -->
<g id="edge1" class="edge"><title>Node1&#45;&gt;Node2</title>
<path fill="none" stroke="midnightblue" d="M172.31,-20C180.984,-20 189.715,-20 198.216,-20"/>
<polygon fill="midnightblue" stroke="midnightblue" points="172.171,-16.5001 162.171,-20 172.171,-23.5001 172.171,-16.5001"/>
</g>
<!-- Node3 -->
<g id="node3" class="node"><title>Node3</title>
<g id="a_node3"><a xlink:href="../../d0/daf/classapplication_1_1_r_p_g.html#a57d0a7b674624b53b138a951b30f865d" target="_top" xlink:title="application.RPG.hardCode\lAGame">
<polygon fill="white" stroke="black" points="386,-5 386,-35 526,-35 526,-5 386,-5"/>
<text text-anchor="start" x="394" y="-23" font-family="Helvetica,sans-Serif" font-size="10.00">application.RPG.hardCode</text>
<text text-anchor="middle" x="456" y="-12" font-family="Helvetica,sans-Serif" font-size="10.00">AGame</text>
</a>
</g>
</g>
<!-- Node2&#45;&gt;Node3 -->
<g id="edge2" class="edge"><title>Node2&#45;&gt;Node3</title>
<path fill="none" stroke="midnightblue" d="M359.701,-20C368.424,-20 377.213,-20 385.739,-20"/>
<polygon fill="midnightblue" stroke="midnightblue" points="359.512,-16.5001 349.512,-20 359.512,-23.5001 359.512,-16.5001"/>
</g>
<!-- Node4 -->
<g id="node4" class="node"><title>Node4</title>
<g id="a_node4"><a xlink:href="../../d0/daf/classapplication_1_1_r_p_g.html#a6b8f1624ae2607c67f4e8cda49b544e9" target="_top" xlink:title="application.RPG.start">
<polygon fill="white" stroke="black" points="562,-10.5 562,-29.5 678,-29.5 678,-10.5 562,-10.5"/>
<text text-anchor="middle" x="620" y="-17.5" font-family="Helvetica,sans-Serif" font-size="10.00">application.RPG.start</text>
</a>
</g>
</g>
<!-- Node3&#45;&gt;Node4 -->
<g id="edge3" class="edge"><title>Node3&#45;&gt;Node4</title>
<path fill="none" stroke="midnightblue" d="M536.245,-20C544.855,-20 553.492,-20 561.766,-20"/>
<polygon fill="midnightblue" stroke="midnightblue" points="536.173,-16.5001 526.172,-20 536.172,-23.5001 536.173,-16.5001"/>
</g>
</g>
</svg>
