<?xml version="1.0" encoding="UTF-8" standalone="no"?>
<!DOCTYPE svg PUBLIC "-//W3C//DTD SVG 1.1//EN"
 "http://www.w3.org/Graphics/SVG/1.1/DTD/svg11.dtd">
<!-- Generated by graphviz version 2.36.0 (20140111.2315)
 -->
<!-- Title: view.GUIContainer.attachChildContainers Pages: 1 -->
<svg width="894pt" height="77pt"
 viewBox="0.00 0.00 894.00 77.00" xmlns="http://www.w3.org/2000/svg" xmlns:xlink="http://www.w3.org/1999/xlink">
<g id="graph0" class="graph" transform="scale(1 1) rotate(0) translate(4 73)">
<title>view.GUIContainer.attachChildContainers</title>
<polygon fill="white" stroke="none" points="-4,4 -4,-73 890,-73 890,4 -4,4"/>
<!-- Node1 -->
<g id="node1" class="node"><title>Node1</title>
<polygon fill="#bfbfbf" stroke="black" points="0,-17 0,-47 136,-47 136,-17 0,-17"/>
<text text-anchor="start" x="8" y="-35" font-family="Helvetica,sans-Serif" font-size="10.00">view.GUIContainer.attach</text>
<text text-anchor="middle" x="68" y="-24" font-family="Helvetica,sans-Serif" font-size="10.00">ChildContainers</text>
</g>
<!-- Node2 -->
<g id="node2" class="node"><title>Node2</title>
<g id="a_node2"><a xlink:href="../../dc/d5c/classeditor_1_1_editor_screen.html#a9fec11d30bd430472af8e052596c4c89" target="_top" xlink:title="editor.EditorScreen.create\lNewTab">
<polygon fill="white" stroke="black" points="187,-39 187,-69 329,-69 329,-39 187,-39"/>
<text text-anchor="start" x="195" y="-57" font-family="Helvetica,sans-Serif" font-size="10.00">editor.EditorScreen.create</text>
<text text-anchor="middle" x="258" y="-46" font-family="Helvetica,sans-Serif" font-size="10.00">NewTab</text>
</a>
</g>
</g>
<!-- Node1&#45;&gt;Node2 -->
<g id="edge1" class="edge"><title>Node1&#45;&gt;Node2</title>
<path fill="none" stroke="midnightblue" d="M146.23,-41.0376C159.654,-42.6084 173.549,-44.2344 186.772,-45.7819"/>
<polygon fill="midnightblue" stroke="midnightblue" points="146.415,-37.5354 136.076,-39.8493 145.602,-44.488 146.415,-37.5354"/>
</g>
<!-- Node6 -->
<g id="node6" class="node"><title>Node6</title>
<g id="a_node6"><a xlink:href="../../df/d32/classeditor_1_1_tab_view_controller.html#a46bcc191941b2566fdf904e816cae486" target="_top" xlink:title="editor.TabViewController.initialize">
<polygon fill="white" stroke="black" points="172.5,-0.5 172.5,-19.5 343.5,-19.5 343.5,-0.5 172.5,-0.5"/>
<text text-anchor="middle" x="258" y="-7.5" font-family="Helvetica,sans-Serif" font-size="10.00">editor.TabViewController.initialize</text>
</a>
</g>
</g>
<!-- Node1&#45;&gt;Node6 -->
<g id="edge5" class="edge"><title>Node1&#45;&gt;Node6</title>
<path fill="none" stroke="midnightblue" d="M146.154,-22.9713C155.931,-21.8273 165.958,-20.6538 175.795,-19.5027"/>
<polygon fill="midnightblue" stroke="midnightblue" points="145.602,-19.512 136.076,-24.1507 146.415,-26.4646 145.602,-19.512"/>
</g>
<!-- Node3 -->
<g id="node3" class="node"><title>Node3</title>
<g id="a_node3"><a xlink:href="../../dc/d5c/classeditor_1_1_editor_screen.html#a6507f3b4db362b2b3110e33019e3abf8" target="_top" xlink:title="editor.EditorScreen.launchTab">
<polygon fill="white" stroke="black" points="380,-44.5 380,-63.5 538,-63.5 538,-44.5 380,-44.5"/>
<text text-anchor="middle" x="459" y="-51.5" font-family="Helvetica,sans-Serif" font-size="10.00">editor.EditorScreen.launchTab</text>
</a>
</g>
</g>
<!-- Node2&#45;&gt;Node3 -->
<g id="edge2" class="edge"><title>Node2&#45;&gt;Node3</title>
<path fill="none" stroke="midnightblue" d="M339.242,-54C352.571,-54 366.379,-54 379.66,-54"/>
<polygon fill="midnightblue" stroke="midnightblue" points="339.16,-50.5001 329.16,-54 339.16,-57.5001 339.16,-50.5001"/>
</g>
<!-- Node4 -->
<g id="node4" class="node"><title>Node4</title>
<g id="a_node4"><a xlink:href="../../dc/d5c/classeditor_1_1_editor_screen.html#a6e24378bdf2713de4dbc530d63d5782e" target="_top" xlink:title="editor.EditorScreen.init\lProjectExplorer">
<polygon fill="white" stroke="black" points="574.5,-39 574.5,-69 699.5,-69 699.5,-39 574.5,-39"/>
<text text-anchor="start" x="582.5" y="-57" font-family="Helvetica,sans-Serif" font-size="10.00">editor.EditorScreen.init</text>
<text text-anchor="middle" x="637" y="-46" font-family="Helvetica,sans-Serif" font-size="10.00">ProjectExplorer</text>
</a>
</g>
</g>
<!-- Node3&#45;&gt;Node4 -->
<g id="edge3" class="edge"><title>Node3&#45;&gt;Node4</title>
<path fill="none" stroke="midnightblue" d="M548.485,-54C557.243,-54 565.995,-54 574.394,-54"/>
<polygon fill="midnightblue" stroke="midnightblue" points="548.221,-50.5001 538.221,-54 548.221,-57.5001 548.221,-50.5001"/>
</g>
<!-- Node5 -->
<g id="node5" class="node"><title>Node5</title>
<g id="a_node5"><a xlink:href="../../dc/d5c/classeditor_1_1_editor_screen.html#ace4f22524f30894bd2856236d2a1600a" target="_top" xlink:title="editor.EditorScreen.initialize">
<polygon fill="white" stroke="black" points="736.5,-44.5 736.5,-63.5 885.5,-63.5 885.5,-44.5 736.5,-44.5"/>
<text text-anchor="middle" x="811" y="-51.5" font-family="Helvetica,sans-Serif" font-size="10.00">editor.EditorScreen.initialize</text>
</a>
</g>
</g>
<!-- Node4&#45;&gt;Node5 -->
<g id="edge4" class="edge"><title>Node4&#45;&gt;Node5</title>
<path fill="none" stroke="midnightblue" d="M709.835,-54C718.644,-54 727.658,-54 736.491,-54"/>
<polygon fill="midnightblue" stroke="midnightblue" points="709.61,-50.5001 699.61,-54 709.61,-57.5001 709.61,-50.5001"/>
</g>
</g>
</svg>
