<?xml version="1.0" encoding="UTF-8" standalone="no"?>
<!DOCTYPE svg PUBLIC "-//W3C//DTD SVG 1.1//EN"
 "http://www.w3.org/Graphics/SVG/1.1/DTD/svg11.dtd">
<!-- Generated by graphviz version 2.36.0 (20140111.2315)
 -->
<!-- Title: view.GUIContainer.clearChildContainers Pages: 1 -->
<svg width="856pt" height="38pt"
 viewBox="0.00 0.00 856.00 38.00" xmlns="http://www.w3.org/2000/svg" xmlns:xlink="http://www.w3.org/1999/xlink">
<g id="graph0" class="graph" transform="scale(1 1) rotate(0) translate(4 34)">
<title>view.GUIContainer.clearChildContainers</title>
<polygon fill="white" stroke="none" points="-4,4 -4,-34 852,-34 852,4 -4,4"/>
<!-- Node1 -->
<g id="node1" class="node"><title>Node1</title>
<polygon fill="#bfbfbf" stroke="black" points="0,-0 0,-30 152,-30 152,-0 0,-0"/>
<text text-anchor="start" x="8" y="-18" font-family="Helvetica,sans-Serif" font-size="10.00">view.GUIContainer.clearChild</text>
<text text-anchor="middle" x="76" y="-7" font-family="Helvetica,sans-Serif" font-size="10.00">Containers</text>
</g>
<!-- Node2 -->
<g id="node2" class="node"><title>Node2</title>
<g id="a_node2"><a xlink:href="../../dc/d5c/classeditor_1_1_editor_screen.html#a9fec11d30bd430472af8e052596c4c89" target="_top" xlink:title="editor.EditorScreen.create\lNewTab">
<polygon fill="white" stroke="black" points="188,-0 188,-30 330,-30 330,-0 188,-0"/>
<text text-anchor="start" x="196" y="-18" font-family="Helvetica,sans-Serif" font-size="10.00">editor.EditorScreen.create</text>
<text text-anchor="middle" x="259" y="-7" font-family="Helvetica,sans-Serif" font-size="10.00">NewTab</text>
</a>
</g>
</g>
<!-- Node1&#45;&gt;Node2 -->
<g id="edge1" class="edge"><title>Node1&#45;&gt;Node2</title>
<path fill="none" stroke="midnightblue" d="M162.253,-15C170.867,-15 179.546,-15 187.974,-15"/>
<polygon fill="midnightblue" stroke="midnightblue" points="162.188,-11.5001 152.188,-15 162.188,-18.5001 162.188,-11.5001"/>
</g>
<!-- Node3 -->
<g id="node3" class="node"><title>Node3</title>
<g id="a_node3"><a xlink:href="../../dc/d5c/classeditor_1_1_editor_screen.html#a6507f3b4db362b2b3110e33019e3abf8" target="_top" xlink:title="editor.EditorScreen.launchTab">
<polygon fill="white" stroke="black" points="366,-5.5 366,-24.5 524,-24.5 524,-5.5 366,-5.5"/>
<text text-anchor="middle" x="445" y="-12.5" font-family="Helvetica,sans-Serif" font-size="10.00">editor.EditorScreen.launchTab</text>
</a>
</g>
</g>
<!-- Node2&#45;&gt;Node3 -->
<g id="edge2" class="edge"><title>Node2&#45;&gt;Node3</title>
<path fill="none" stroke="midnightblue" d="M340.321,-15C348.782,-15 357.376,-15 365.812,-15"/>
<polygon fill="midnightblue" stroke="midnightblue" points="340.087,-11.5001 330.087,-15 340.087,-18.5001 340.087,-11.5001"/>
</g>
<!-- Node4 -->
<g id="node4" class="node"><title>Node4</title>
<g id="a_node4"><a xlink:href="../../dc/d5c/classeditor_1_1_editor_screen.html#a6e24378bdf2713de4dbc530d63d5782e" target="_top" xlink:title="editor.EditorScreen.init\lProjectExplorer">
<polygon fill="white" stroke="black" points="560.5,-0 560.5,-30 685.5,-30 685.5,-0 560.5,-0"/>
<text text-anchor="start" x="568.5" y="-18" font-family="Helvetica,sans-Serif" font-size="10.00">editor.EditorScreen.init</text>
<text text-anchor="middle" x="623" y="-7" font-family="Helvetica,sans-Serif" font-size="10.00">ProjectExplorer</text>
</a>
</g>
</g>
<!-- Node3&#45;&gt;Node4 -->
<g id="edge3" class="edge"><title>Node3&#45;&gt;Node4</title>
<path fill="none" stroke="midnightblue" d="M534.485,-15C543.243,-15 551.995,-15 560.394,-15"/>
<polygon fill="midnightblue" stroke="midnightblue" points="534.221,-11.5001 524.221,-15 534.221,-18.5001 534.221,-11.5001"/>
</g>
<!-- Node5 -->
<g id="node5" class="node"><title>Node5</title>
<g id="a_node5"><a xlink:href="../../dc/d5c/classeditor_1_1_editor_screen.html#a85668e9b3fd80cec58fa6b207854e588" target="_top" xlink:title="editor.EditorScreen.init">
<polygon fill="white" stroke="black" points="722.5,-5.5 722.5,-24.5 847.5,-24.5 847.5,-5.5 722.5,-5.5"/>
<text text-anchor="middle" x="785" y="-12.5" font-family="Helvetica,sans-Serif" font-size="10.00">editor.EditorScreen.init</text>
</a>
</g>
</g>
<!-- Node4&#45;&gt;Node5 -->
<g id="edge4" class="edge"><title>Node4&#45;&gt;Node5</title>
<path fill="none" stroke="midnightblue" d="M696.061,-15C704.822,-15 713.712,-15 722.304,-15"/>
<polygon fill="midnightblue" stroke="midnightblue" points="695.86,-11.5001 685.86,-15 695.86,-18.5001 695.86,-11.5001"/>
</g>
</g>
</svg>
