<?xml version="1.0" encoding="UTF-8" standalone="no"?>
<!DOCTYPE svg PUBLIC "-//W3C//DTD SVG 1.1//EN"
 "http://www.w3.org/Graphics/SVG/1.1/DTD/svg11.dtd">
<!-- Generated by graphviz version 2.36.0 (20140111.2315)
 -->
<!-- Title: view.GUIContainer.checkAndCreateChildContainers Pages: 1 -->
<!--zoomable 161 -->
<svg id="main" version="1.1" xmlns="http://www.w3.org/2000/svg" xmlns:xlink="http://www.w3.org/1999/xlink" xml:space="preserve" onload="init(evt)">
<style type="text/css"><![CDATA[
.edge:hover path { stroke: red; }
.edge:hover polygon { stroke: red; fill: red; }
]]></style>
<script type="text/javascript"><![CDATA[
var edges = document.getElementsByTagName('g');
if (edges && edges.length) {
  for (var i=0;i<edges.length;i++) {
    if (edges[i].id.substr(0,4)=='edge') {
      edges[i].setAttribute('class','edge');
    }
  }
}
]]></script>
        <defs>
                <circle id="rim" cx="0" cy="0" r="7"/>
                <circle id="rim2" cx="0" cy="0" r="3.5"/>
                <g id="zoomPlus">
                        <use xlink:href="#rim" fill="#404040">
                                <set attributeName="fill" to="#808080" begin="zoomplus.mouseover" end="zoomplus.mouseout"/>
                        </use>
                        <path d="M-4,0h8M0,-4v8" fill="none" stroke="white" stroke-width="1.5" pointer-events="none"/>
                </g>
                <g id="zoomMin">
                        <use xlink:href="#rim" fill="#404040">
                                <set attributeName="fill" to="#808080" begin="zoomminus.mouseover" end="zoomminus.mouseout"/>
                        </use>
                        <path d="M-4,0h8" fill="none" stroke="white" stroke-width="1.5" pointer-events="none"/>
                </g>
                <g id="dirArrow">
                        <path fill="none" stroke="white" stroke-width="1.5" d="M0,-3.0v7 M-2.5,-0.5L0,-3.0L2.5,-0.5"/>
                </g>
               <g id="resetDef">
                       <use xlink:href="#rim2" fill="#404040">
                               <set attributeName="fill" to="#808080" begin="reset.mouseover" end="reset.mouseout"/>
                       </use>
               </g>
        </defs>

<script type="text/javascript">
var viewWidth = 1098;
var viewHeight = 161;
var sectionId = 'dynsection-4';
</script>
<script xlink:href="../../svgpan.js"/>
<svg id="graph" class="graph">
<g id="viewport">
<title>view.GUIContainer.checkAndCreateChildContainers</title>
<polygon fill="white" stroke="none" points="-4,4 -4,-157 1094,-157 1094,4 -4,4"/>
<!-- Node1 -->
<g id="node1" class="node"><title>Node1</title>
<polygon fill="#bfbfbf" stroke="black" points="0,-74 0,-104 152,-104 152,-74 0,-74"/>
<text text-anchor="start" x="8" y="-92" font-family="Helvetica,sans-Serif" font-size="10.00">view.GUIContainer.checkAnd</text>
<text text-anchor="middle" x="76" y="-81" font-family="Helvetica,sans-Serif" font-size="10.00">CreateChildContainers</text>
</g>
<!-- Node2 -->
<g id="node2" class="node"><title>Node2</title>
<g id="a_node2"><a xlink:href="../../d1/d44/classview_1_1_g_u_i_container.html#a7aa392baf45ec2412eeb12b9a3688853" target="_top" xlink:title="view.GUIContainer.attach\lChildContainers">
<polygon fill="white" stroke="black" points="196,-74 196,-104 332,-104 332,-74 196,-74"/>
<text text-anchor="start" x="204" y="-92" font-family="Helvetica,sans-Serif" font-size="10.00">view.GUIContainer.attach</text>
<text text-anchor="middle" x="264" y="-81" font-family="Helvetica,sans-Serif" font-size="10.00">ChildContainers</text>
</a>
</g>
</g>
<!-- Node1&#45;&gt;Node2 -->
<g id="edge1" class="edge"><title>Node1&#45;&gt;Node2</title>
<path fill="none" stroke="midnightblue" d="M162.406,-89C173.676,-89 185.096,-89 195.998,-89"/>
<polygon fill="midnightblue" stroke="midnightblue" points="162.117,-85.5001 152.117,-89 162.117,-92.5001 162.117,-85.5001"/>
</g>
<!-- Node8 -->
<g id="node8" class="node"><title>Node8</title>
<g id="a_node8"><a xlink:href="../../d1/d44/classview_1_1_g_u_i_container.html#ac2239dbd9a7c8627c3051f0c9f34e032" target="_top" xlink:title="view.GUIContainer.clearChild\lContainers">
<polygon fill="white" stroke="black" points="188,-123 188,-153 340,-153 340,-123 188,-123"/>
<text text-anchor="start" x="196" y="-141" font-family="Helvetica,sans-Serif" font-size="10.00">view.GUIContainer.clearChild</text>
<text text-anchor="middle" x="264" y="-130" font-family="Helvetica,sans-Serif" font-size="10.00">Containers</text>
</a>
</g>
</g>
<!-- Node1&#45;&gt;Node8 -->
<g id="edge7" class="edge"><title>Node1&#45;&gt;Node8</title>
<path fill="none" stroke="midnightblue" d="M143.895,-106.623C164.244,-111.984 186.408,-117.823 206.038,-122.994"/>
<polygon fill="midnightblue" stroke="midnightblue" points="144.632,-103.198 134.07,-104.035 142.849,-109.967 144.632,-103.198"/>
</g>
<!-- Node9 -->
<g id="node9" class="node"><title>Node9</title>
<g id="a_node9"><a xlink:href="../../d1/d44/classview_1_1_g_u_i_container.html#a68d9f4c62e3412c4af3f5aecfacd801d" target="_top" xlink:title="view.GUIContainer.update">
<polygon fill="white" stroke="black" points="194.5,-35.5 194.5,-54.5 333.5,-54.5 333.5,-35.5 194.5,-35.5"/>
<text text-anchor="middle" x="264" y="-42.5" font-family="Helvetica,sans-Serif" font-size="10.00">view.GUIContainer.update</text>
</a>
</g>
</g>
<!-- Node1&#45;&gt;Node9 -->
<g id="edge9" class="edge"><title>Node1&#45;&gt;Node9</title>
<path fill="none" stroke="midnightblue" d="M150.539,-71.6036C175.16,-65.7794 201.685,-59.5046 222.788,-54.5124"/>
<polygon fill="midnightblue" stroke="midnightblue" points="149.416,-68.2726 140.49,-73.9808 151.028,-75.0846 149.416,-68.2726"/>
</g>
<!-- Node3 -->
<g id="node3" class="node"><title>Node3</title>
<g id="a_node3"><a xlink:href="../../dc/d5c/classeditor_1_1_editor_screen.html#a9fec11d30bd430472af8e052596c4c89" target="_top" xlink:title="editor.EditorScreen.create\lNewTab">
<polygon fill="white" stroke="black" points="391,-120 391,-150 533,-150 533,-120 391,-120"/>
<text text-anchor="start" x="399" y="-138" font-family="Helvetica,sans-Serif" font-size="10.00">editor.EditorScreen.create</text>
<text text-anchor="middle" x="462" y="-127" font-family="Helvetica,sans-Serif" font-size="10.00">NewTab</text>
</a>
</g>
</g>
<!-- Node2&#45;&gt;Node3 -->
<g id="edge2" class="edge"><title>Node2&#45;&gt;Node3</title>
<path fill="none" stroke="midnightblue" d="M339.024,-106.373C358.109,-110.852 378.487,-115.635 397.013,-119.983"/>
<polygon fill="midnightblue" stroke="midnightblue" points="339.713,-102.94 329.178,-104.062 338.113,-109.754 339.713,-102.94"/>
</g>
<!-- Node7 -->
<g id="node7" class="node"><title>Node7</title>
<g id="a_node7"><a xlink:href="../../df/d32/classeditor_1_1_tab_view_controller.html#a46bcc191941b2566fdf904e816cae486" target="_top" xlink:title="editor.TabViewController.initialize">
<polygon fill="white" stroke="black" points="376.5,-79.5 376.5,-98.5 547.5,-98.5 547.5,-79.5 376.5,-79.5"/>
<text text-anchor="middle" x="462" y="-86.5" font-family="Helvetica,sans-Serif" font-size="10.00">editor.TabViewController.initialize</text>
</a>
</g>
</g>
<!-- Node2&#45;&gt;Node7 -->
<g id="edge6" class="edge"><title>Node2&#45;&gt;Node7</title>
<path fill="none" stroke="midnightblue" d="M342.292,-89C353.439,-89 364.96,-89 376.243,-89"/>
<polygon fill="midnightblue" stroke="midnightblue" points="342.178,-85.5001 332.178,-89 342.178,-92.5001 342.178,-85.5001"/>
</g>
<!-- Node4 -->
<g id="node4" class="node"><title>Node4</title>
<g id="a_node4"><a xlink:href="../../dc/d5c/classeditor_1_1_editor_screen.html#a6507f3b4db362b2b3110e33019e3abf8" target="_top" xlink:title="editor.EditorScreen.launchTab">
<polygon fill="white" stroke="black" points="584,-125.5 584,-144.5 742,-144.5 742,-125.5 584,-125.5"/>
<text text-anchor="middle" x="663" y="-132.5" font-family="Helvetica,sans-Serif" font-size="10.00">editor.EditorScreen.launchTab</text>
</a>
</g>
</g>
<!-- Node3&#45;&gt;Node4 -->
<g id="edge3" class="edge"><title>Node3&#45;&gt;Node4</title>
<path fill="none" stroke="midnightblue" d="M543.242,-135C556.571,-135 570.379,-135 583.66,-135"/>
<polygon fill="midnightblue" stroke="midnightblue" points="543.16,-131.5 533.16,-135 543.16,-138.5 543.16,-131.5"/>
</g>
<!-- Node5 -->
<g id="node5" class="node"><title>Node5</title>
<g id="a_node5"><a xlink:href="../../dc/d5c/classeditor_1_1_editor_screen.html#a6e24378bdf2713de4dbc530d63d5782e" target="_top" xlink:title="editor.EditorScreen.init\lProjectExplorer">
<polygon fill="white" stroke="black" points="778.5,-120 778.5,-150 903.5,-150 903.5,-120 778.5,-120"/>
<text text-anchor="start" x="786.5" y="-138" font-family="Helvetica,sans-Serif" font-size="10.00">editor.EditorScreen.init</text>
<text text-anchor="middle" x="841" y="-127" font-family="Helvetica,sans-Serif" font-size="10.00">ProjectExplorer</text>
</a>
</g>
</g>
<!-- Node4&#45;&gt;Node5 -->
<g id="edge4" class="edge"><title>Node4&#45;&gt;Node5</title>
<path fill="none" stroke="midnightblue" d="M752.485,-135C761.243,-135 769.995,-135 778.394,-135"/>
<polygon fill="midnightblue" stroke="midnightblue" points="752.221,-131.5 742.221,-135 752.221,-138.5 752.221,-131.5"/>
</g>
<!-- Node6 -->
<g id="node6" class="node"><title>Node6</title>
<g id="a_node6"><a xlink:href="../../dc/d5c/classeditor_1_1_editor_screen.html#ace4f22524f30894bd2856236d2a1600a" target="_top" xlink:title="editor.EditorScreen.initialize">
<polygon fill="white" stroke="black" points="940.5,-125.5 940.5,-144.5 1089.5,-144.5 1089.5,-125.5 940.5,-125.5"/>
<text text-anchor="middle" x="1015" y="-132.5" font-family="Helvetica,sans-Serif" font-size="10.00">editor.EditorScreen.initialize</text>
</a>
</g>
</g>
<!-- Node5&#45;&gt;Node6 -->
<g id="edge5" class="edge"><title>Node5&#45;&gt;Node6</title>
<path fill="none" stroke="midnightblue" d="M913.835,-135C922.644,-135 931.658,-135 940.491,-135"/>
<polygon fill="midnightblue" stroke="midnightblue" points="913.61,-131.5 903.61,-135 913.61,-138.5 913.61,-131.5"/>
</g>
<!-- Node8&#45;&gt;Node3 -->
<g id="edge8" class="edge"><title>Node8&#45;&gt;Node3</title>
<path fill="none" stroke="midnightblue" d="M350.446,-136.692C363.927,-136.486 377.729,-136.275 390.81,-136.074"/>
<polygon fill="midnightblue" stroke="midnightblue" points="350.163,-133.196 340.218,-136.849 350.271,-140.195 350.163,-133.196"/>
</g>
<!-- Node10 -->
<g id="node10" class="node"><title>Node10</title>
<g id="a_node10"><a xlink:href="../../d1/d75/classview_1_1_main_view.html#ae3323ce0c06f6bec70ad15398d343061" target="_top" xlink:title="view.MainView.launchScreen">
<polygon fill="white" stroke="black" points="386.5,-38.5 386.5,-57.5 537.5,-57.5 537.5,-38.5 386.5,-38.5"/>
<text text-anchor="middle" x="462" y="-45.5" font-family="Helvetica,sans-Serif" font-size="10.00">view.MainView.launchScreen</text>
</a>
</g>
</g>
<!-- Node9&#45;&gt;Node10 -->
<g id="edge10" class="edge"><title>Node9&#45;&gt;Node10</title>
<path fill="none" stroke="midnightblue" d="M343.711,-46.2048C357.822,-46.4207 372.489,-46.6452 386.477,-46.8593"/>
<polygon fill="midnightblue" stroke="midnightblue" points="343.604,-42.7028 333.551,-46.0493 343.497,-49.702 343.604,-42.7028"/>
</g>
<!-- Node11 -->
<g id="node11" class="node"><title>Node11</title>
<g id="a_node11"><a xlink:href="../../d1/d75/classview_1_1_main_view.html#adb47407f31bbdbe19a645db736bb0fea" target="_top" xlink:title="view.MainView.update">
<polygon fill="white" stroke="black" points="402.5,-0.5 402.5,-19.5 521.5,-19.5 521.5,-0.5 402.5,-0.5"/>
<text text-anchor="middle" x="462" y="-7.5" font-family="Helvetica,sans-Serif" font-size="10.00">view.MainView.update</text>
</a>
</g>
</g>
<!-- Node9&#45;&gt;Node11 -->
<g id="edge11" class="edge"><title>Node9&#45;&gt;Node11</title>
<path fill="none" stroke="midnightblue" d="M328.294,-33.6974C353.926,-29.1204 383.195,-23.8938 407.712,-19.5158"/>
<polygon fill="midnightblue" stroke="midnightblue" points="327.528,-30.2788 318.299,-35.4823 328.759,-37.1698 327.528,-30.2788"/>
</g>
</g>
</svg>
        <g id="navigator" transform="translate(0 0)" fill="#404254">
                <rect fill="#f2f5e9" fill-opacity="0.5" stroke="#606060" stroke-width=".5" x="0" y="0" width="60" height="60"/>
                <use id="zoomplus" xlink:href="#zoomPlus" x="17" y="9" onmousedown="handleZoom(evt,'in')"/>
                <use id="zoomminus" xlink:href="#zoomMin" x="42" y="9" onmousedown="handleZoom(evt,'out')"/>
                <use id="reset" xlink:href="#resetDef" x="30" y="36" onmousedown="handleReset()"/>
                <g id="arrowUp" xlink:href="#dirArrow" transform="translate(30 24)" onmousedown="handlePan(0,-1)">
                  <use xlink:href="#rim" fill="#404040">
                        <set attributeName="fill" to="#808080" begin="arrowUp.mouseover" end="arrowUp.mouseout"/>
                  </use>
                  <path fill="none" stroke="white" stroke-width="1.5" d="M0,-3.0v7 M-2.5,-0.5L0,-3.0L2.5,-0.5"/>
                </g>
                <g id="arrowRight" xlink:href="#dirArrow" transform="rotate(90) translate(36 -43)" onmousedown="handlePan(1,0)">
                  <use xlink:href="#rim" fill="#404040">
                        <set attributeName="fill" to="#808080" begin="arrowRight.mouseover" end="arrowRight.mouseout"/>
                  </use>
                  <path fill="none" stroke="white" stroke-width="1.5" d="M0,-3.0v7 M-2.5,-0.5L0,-3.0L2.5,-0.5"/>
                </g>
                <g id="arrowDown" xlink:href="#dirArrow" transform="rotate(180) translate(-30 -48)" onmousedown="handlePan(0,1)">
                  <use xlink:href="#rim" fill="#404040">
                        <set attributeName="fill" to="#808080" begin="arrowDown.mouseover" end="arrowDown.mouseout"/>
                  </use>
                  <path fill="none" stroke="white" stroke-width="1.5" d="M0,-3.0v7 M-2.5,-0.5L0,-3.0L2.5,-0.5"/>
                </g>
                <g id="arrowLeft" xlink:href="#dirArrow" transform="rotate(270) translate(-36 17)" onmousedown="handlePan(-1,0)">
                  <use xlink:href="#rim" fill="#404040">
                        <set attributeName="fill" to="#808080" begin="arrowLeft.mouseover" end="arrowLeft.mouseout"/>
                  </use>
                  <path fill="none" stroke="white" stroke-width="1.5" d="M0,-3.0v7 M-2.5,-0.5L0,-3.0L2.5,-0.5"/>
                </g>
        </g>
        <svg viewBox="0 0 15 15" width="100%" height="30px" preserveAspectRatio="xMaxYMin meet">
         <g id="arrow_out" transform="scale(0.3 0.3)">
          <a xlink:href="classview_1_1_g_u_i_container_a390a61994c9bd9344de5e5f08523ca99_icgraph_org.svg" target="_base">
           <rect id="button" ry="5" rx="5" y="6" x="6" height="38" width="38"
                fill="#f2f5e9" fill-opacity="0.5" stroke="#606060" stroke-width="1.0"/>
           <path id="arrow"
             d="M 11.500037,31.436501 C 11.940474,20.09759 22.043105,11.32322 32.158766,21.979434 L 37.068811,17.246167 C 37.068811,17.246167 37.088388,32 37.088388,32 L 22.160133,31.978069 C 22.160133,31.978069 26.997745,27.140456 26.997745,27.140456 C 18.528582,18.264221 13.291696,25.230495 11.500037,31.436501 z"
             style="fill:#404040;"/>
          </a>
         </g>
        </svg>
</svg>
