<?xml version="1.0" encoding="UTF-8" standalone="no"?>
<!DOCTYPE svg PUBLIC "-//W3C//DTD SVG 1.1//EN"
 "http://www.w3.org/Graphics/SVG/1.1/DTD/svg11.dtd">
<!-- Generated by graphviz version 2.36.0 (20140111.2315)
 -->
<!-- Title: game_engine.elementFactories.GameElementFactory.createDrawableGameElement Pages: 1 -->
<svg width="730pt" height="97pt"
 viewBox="0.00 0.00 730.00 97.00" xmlns="http://www.w3.org/2000/svg" xmlns:xlink="http://www.w3.org/1999/xlink">
<g id="graph0" class="graph" transform="scale(1 1) rotate(0) translate(4 93)">
<title>game_engine.elementFactories.GameElementFactory.createDrawableGameElement</title>
<polygon fill="white" stroke="none" points="-4,4 -4,-93 726,-93 726,4 -4,4"/>
<!-- Node1 -->
<g id="node1" class="node"><title>Node1</title>
<polygon fill="#bfbfbf" stroke="black" points="0.5,-26.5 0.5,-67.5 197.5,-67.5 197.5,-26.5 0.5,-26.5"/>
<text text-anchor="start" x="8.5" y="-55.5" font-family="Helvetica,sans-Serif" font-size="10.00">game_engine.elementFactories.</text>
<text text-anchor="start" x="8.5" y="-44.5" font-family="Helvetica,sans-Serif" font-size="10.00">GameElementFactory.createDrawable</text>
<text text-anchor="middle" x="99" y="-33.5" font-family="Helvetica,sans-Serif" font-size="10.00">GameElement</text>
</g>
<!-- Node2 -->
<g id="node2" class="node"><title>Node2</title>
<g id="a_node2"><a xlink:href="../../dd/d79/classgame__engine_1_1element_factories_1_1_game_element_factory.html#a295099355a2fc0bc11f4dc9ddad26e62" target="_top" xlink:title="game_engine.elementFactories.\lGameElementFactory.generateActions">
<polygon fill="white" stroke="black" points="234,-32 234,-62 434,-62 434,-32 234,-32"/>
<text text-anchor="start" x="242" y="-50" font-family="Helvetica,sans-Serif" font-size="10.00">game_engine.elementFactories.</text>
<text text-anchor="middle" x="334" y="-39" font-family="Helvetica,sans-Serif" font-size="10.00">GameElementFactory.generateActions</text>
</a>
</g>
</g>
<!-- Node1&#45;&gt;Node2 -->
<g id="edge1" class="edge"><title>Node1&#45;&gt;Node2</title>
<path fill="none" stroke="midnightblue" d="M197.8,-47C206.393,-47 215.126,-47 223.804,-47"/>
<polygon fill="midnightblue" stroke="midnightblue" points="223.955,-50.5001 233.955,-47 223.955,-43.5001 223.955,-50.5001"/>
</g>
<!-- Node3 -->
<g id="node3" class="node"><title>Node3</title>
<g id="a_node3"><a xlink:href="../../de/d30/classgame__engine_1_1game_representation_1_1evaluatables_1_1_evaluatable_factory.html#a484c6d658daa65a01626c7992a8b0012" target="_top" xlink:title="game_engine.gameRepresentation.evaluatables.\lEvaluatableFactory.generateEvaluatables">
<polygon fill="white" stroke="black" points="470.5,-59 470.5,-89 721.5,-89 721.5,-59 470.5,-59"/>
<text text-anchor="start" x="478.5" y="-77" font-family="Helvetica,sans-Serif" font-size="10.00">game_engine.gameRepresentation.evaluatables.</text>
<text text-anchor="middle" x="596" y="-66" font-family="Helvetica,sans-Serif" font-size="10.00">EvaluatableFactory.generateEvaluatables</text>
</a>
</g>
</g>
<!-- Node2&#45;&gt;Node3 -->
<g id="edge2" class="edge"><title>Node2&#45;&gt;Node3</title>
<path fill="none" stroke="midnightblue" d="M434.037,-57.2846C442.691,-58.1833 451.539,-59.1022 460.416,-60.024"/>
<polygon fill="midnightblue" stroke="midnightblue" points="460.134,-63.5134 470.442,-61.0652 460.857,-56.5509 460.134,-63.5134"/>
</g>
<!-- Node4 -->
<g id="node4" class="node"><title>Node4</title>
<g id="a_node4"><a xlink:href="../../dc/d2d/classgame__engine_1_1game_representation_1_1state_representation_1_1game_element_1_1_game_element_state.html#ac26f9a9b011c70114ec507f720613294" target="_top" xlink:title="game_engine.gameRepresentation.state\lRepresentation.gameElement.GameElement\lState.getActions">
<polygon fill="white" stroke="black" points="480.5,0.5 480.5,-40.5 711.5,-40.5 711.5,0.5 480.5,0.5"/>
<text text-anchor="start" x="488.5" y="-28.5" font-family="Helvetica,sans-Serif" font-size="10.00">game_engine.gameRepresentation.state</text>
<text text-anchor="start" x="488.5" y="-17.5" font-family="Helvetica,sans-Serif" font-size="10.00">Representation.gameElement.GameElement</text>
<text text-anchor="middle" x="596" y="-6.5" font-family="Helvetica,sans-Serif" font-size="10.00">State.getActions</text>
</a>
</g>
</g>
<!-- Node2&#45;&gt;Node4 -->
<g id="edge3" class="edge"><title>Node2&#45;&gt;Node4</title>
<path fill="none" stroke="midnightblue" d="M434.037,-36.7154C445.809,-35.4929 457.94,-34.2331 470.014,-32.9793"/>
<polygon fill="midnightblue" stroke="midnightblue" points="470.549,-36.4427 480.134,-31.9284 469.826,-29.4801 470.549,-36.4427"/>
</g>
</g>
</svg>
