<?xml version="1.0" encoding="UTF-8" standalone="no"?>
<!DOCTYPE svg PUBLIC "-//W3C//DTD SVG 1.1//EN"
 "http://www.w3.org/Graphics/SVG/1.1/DTD/svg11.dtd">
<!-- Generated by graphviz version 2.36.0 (20140111.2315)
 -->
<!-- Title: game_engine.elementFactories.GameElementFactory.createSelectableGameElement Pages: 1 -->
<svg width="1244pt" height="158pt"
 viewBox="0.00 0.00 1244.00 158.00" xmlns="http://www.w3.org/2000/svg" xmlns:xlink="http://www.w3.org/1999/xlink">
<g id="graph0" class="graph" transform="scale(1 1) rotate(0) translate(4 154)">
<title>game_engine.elementFactories.GameElementFactory.createSelectableGameElement</title>
<polygon fill="white" stroke="none" points="-4,4 -4,-154 1240,-154 1240,4 -4,4"/>
<!-- Node1 -->
<g id="node1" class="node"><title>Node1</title>
<polygon fill="#bfbfbf" stroke="black" points="0.5,-83.5 0.5,-124.5 203.5,-124.5 203.5,-83.5 0.5,-83.5"/>
<text text-anchor="start" x="8.5" y="-112.5" font-family="Helvetica,sans-Serif" font-size="10.00">game_engine.elementFactories.</text>
<text text-anchor="start" x="8.5" y="-101.5" font-family="Helvetica,sans-Serif" font-size="10.00">GameElementFactory.createSelectable</text>
<text text-anchor="middle" x="102" y="-90.5" font-family="Helvetica,sans-Serif" font-size="10.00">GameElement</text>
</g>
<!-- Node2 -->
<g id="node2" class="node"><title>Node2</title>
<g id="a_node2"><a xlink:href="../../dd/de3/classgame__engine_1_1state_managing_1_1_game_element_manager.html#afc8ebb6556a5ffce190b5b60f263778b" target="_top" xlink:title="game_engine.stateManaging.\lGameElementManager.addSelectable\lGameElementToLevel">
<polygon fill="white" stroke="black" points="468,-109.5 468,-150.5 666,-150.5 666,-109.5 468,-109.5"/>
<text text-anchor="start" x="476" y="-138.5" font-family="Helvetica,sans-Serif" font-size="10.00">game_engine.stateManaging.</text>
<text text-anchor="start" x="476" y="-127.5" font-family="Helvetica,sans-Serif" font-size="10.00">GameElementManager.addSelectable</text>
<text text-anchor="middle" x="567" y="-116.5" font-family="Helvetica,sans-Serif" font-size="10.00">GameElementToLevel</text>
</a>
</g>
</g>
<!-- Node1&#45;&gt;Node2 -->
<g id="edge1" class="edge"><title>Node1&#45;&gt;Node2</title>
<path fill="none" stroke="midnightblue" d="M214.008,-110.234C291.324,-114.575 393.499,-120.313 467.839,-124.488"/>
<polygon fill="midnightblue" stroke="midnightblue" points="213.93,-106.724 203.75,-109.658 213.538,-113.713 213.93,-106.724"/>
</g>
<!-- Node4 -->
<g id="node4" class="node"><title>Node4</title>
<g id="a_node4"><a xlink:href="../../d6/dcb/classgame__engine_1_1element_factories_1_1_level_factory.html#a0a49888d8e6e5464af76b11af7b324d3" target="_top" xlink:title="game_engine.elementFactories.\lLevelFactory.generateUnitEelements">
<polygon fill="white" stroke="black" points="240.5,-66 240.5,-96 431.5,-96 431.5,-66 240.5,-66"/>
<text text-anchor="start" x="248.5" y="-84" font-family="Helvetica,sans-Serif" font-size="10.00">game_engine.elementFactories.</text>
<text text-anchor="middle" x="336" y="-73" font-family="Helvetica,sans-Serif" font-size="10.00">LevelFactory.generateUnitEelements</text>
</a>
</g>
</g>
<!-- Node1&#45;&gt;Node4 -->
<g id="edge3" class="edge"><title>Node1&#45;&gt;Node4</title>
<path fill="none" stroke="midnightblue" d="M213.717,-93.0238C222.573,-92.1458 231.471,-91.2637 240.202,-90.3981"/>
<polygon fill="midnightblue" stroke="midnightblue" points="213.352,-89.5426 203.746,-94.0122 214.043,-96.5085 213.352,-89.5426"/>
</g>
<!-- Node3 -->
<g id="node3" class="node"><title>Node3</title>
<g id="a_node3"><a xlink:href="../../dd/de3/classgame__engine_1_1state_managing_1_1_game_element_manager.html#a57d7eca6f7e470da027067ad2d4a249a" target="_top" xlink:title="game_engine.stateManaging.\lGameElementManager.main">
<polygon fill="white" stroke="black" points="702.5,-113 702.5,-143 861.5,-143 861.5,-113 702.5,-113"/>
<text text-anchor="start" x="710.5" y="-131" font-family="Helvetica,sans-Serif" font-size="10.00">game_engine.stateManaging.</text>
<text text-anchor="middle" x="782" y="-120" font-family="Helvetica,sans-Serif" font-size="10.00">GameElementManager.main</text>
</a>
</g>
</g>
<!-- Node2&#45;&gt;Node3 -->
<g id="edge2" class="edge"><title>Node2&#45;&gt;Node3</title>
<path fill="none" stroke="midnightblue" d="M676.33,-128.983C685.064,-128.901 693.781,-128.819 702.248,-128.739"/>
<polygon fill="midnightblue" stroke="midnightblue" points="676.05,-125.485 666.083,-129.079 676.116,-132.485 676.05,-125.485"/>
</g>
<!-- Node5 -->
<g id="node5" class="node"><title>Node5</title>
<g id="a_node5"><a xlink:href="../../d6/dcb/classgame__engine_1_1element_factories_1_1_level_factory.html#a7acb6c6aec6cc26a07124942af2efadc" target="_top" xlink:title="game_engine.elementFactories.\lLevelFactory.createLevel">
<polygon fill="white" stroke="black" points="482,-61 482,-91 652,-91 652,-61 482,-61"/>
<text text-anchor="start" x="490" y="-79" font-family="Helvetica,sans-Serif" font-size="10.00">game_engine.elementFactories.</text>
<text text-anchor="middle" x="567" y="-68" font-family="Helvetica,sans-Serif" font-size="10.00">LevelFactory.createLevel</text>
</a>
</g>
</g>
<!-- Node4&#45;&gt;Node5 -->
<g id="edge4" class="edge"><title>Node4&#45;&gt;Node5</title>
<path fill="none" stroke="midnightblue" d="M441.977,-78.7079C455.351,-78.4159 468.899,-78.1201 481.885,-77.8366"/>
<polygon fill="midnightblue" stroke="midnightblue" points="441.717,-75.2127 431.796,-78.9302 441.87,-82.211 441.717,-75.2127"/>
</g>
<!-- Node5&#45;&gt;Node3 -->
<g id="edge10" class="edge"><title>Node5&#45;&gt;Node3</title>
<path fill="none" stroke="midnightblue" d="M639.396,-93.4299C665.373,-99.7718 694.487,-106.88 719.53,-112.993"/>
<polygon fill="midnightblue" stroke="midnightblue" points="640.153,-90.0121 629.608,-91.0406 638.493,-96.8124 640.153,-90.0121"/>
</g>
<!-- Node6 -->
<g id="node6" class="node"><title>Node6</title>
<g id="a_node6"><a xlink:href="../../d1/d3a/classgame__engine_1_1_engine.html#a33096e19a0dd6c4541ade6bdfcf092c4" target="_top" xlink:title="game_engine.Engine.select\lLevel">
<polygon fill="white" stroke="black" points="707.5,-63 707.5,-93 856.5,-93 856.5,-63 707.5,-63"/>
<text text-anchor="start" x="715.5" y="-81" font-family="Helvetica,sans-Serif" font-size="10.00">game_engine.Engine.select</text>
<text text-anchor="middle" x="782" y="-70" font-family="Helvetica,sans-Serif" font-size="10.00">Level</text>
</a>
</g>
</g>
<!-- Node5&#45;&gt;Node6 -->
<g id="edge5" class="edge"><title>Node5&#45;&gt;Node6</title>
<path fill="none" stroke="midnightblue" d="M662.534,-76.8876C677.582,-77.0289 692.952,-77.1733 707.423,-77.3091"/>
<polygon fill="midnightblue" stroke="midnightblue" points="662.216,-73.3846 652.183,-76.7905 662.15,-80.3843 662.216,-73.3846"/>
</g>
<!-- Node7 -->
<g id="node7" class="node"><title>Node7</title>
<g id="a_node7"><a xlink:href="../../d1/d3a/classgame__engine_1_1_engine.html#ae864f59e5ead7ef5b675a70ed813e75f" target="_top" xlink:title="game_engine.Engine.update\lGameLoop">
<polygon fill="white" stroke="black" points="705,-14 705,-44 859,-44 859,-14 705,-14"/>
<text text-anchor="start" x="713" y="-32" font-family="Helvetica,sans-Serif" font-size="10.00">game_engine.Engine.update</text>
<text text-anchor="middle" x="782" y="-21" font-family="Helvetica,sans-Serif" font-size="10.00">GameLoop</text>
</a>
</g>
</g>
<!-- Node5&#45;&gt;Node7 -->
<g id="edge6" class="edge"><title>Node5&#45;&gt;Node7</title>
<path fill="none" stroke="midnightblue" d="M645.932,-58.8038C667.892,-53.9581 691.602,-48.7264 712.935,-44.019"/>
<polygon fill="midnightblue" stroke="midnightblue" points="644.991,-55.4271 635.98,-60.9997 646.499,-62.2627 644.991,-55.4271"/>
</g>
<!-- Node8 -->
<g id="node8" class="node"><title>Node8</title>
<g id="a_node8"><a xlink:href="../../d1/d3a/classgame__engine_1_1_engine.html#a66b9572272f4556e51893ee93c719196" target="_top" xlink:title="game_engine.Engine.play">
<polygon fill="white" stroke="black" points="905,-38.5 905,-57.5 1045,-57.5 1045,-38.5 905,-38.5"/>
<text text-anchor="middle" x="975" y="-45.5" font-family="Helvetica,sans-Serif" font-size="10.00">game_engine.Engine.play</text>
</a>
</g>
</g>
<!-- Node7&#45;&gt;Node8 -->
<g id="edge7" class="edge"><title>Node7&#45;&gt;Node8</title>
<path fill="none" stroke="midnightblue" d="M869.017,-37.5566C880.973,-38.746 893.13,-39.9553 904.727,-41.109"/>
<polygon fill="midnightblue" stroke="midnightblue" points="869.334,-34.0711 859.037,-36.5639 868.641,-41.0367 869.334,-34.0711"/>
</g>
<!-- Node10 -->
<g id="node10" class="node"><title>Node10</title>
<g id="a_node10"><a xlink:href="../../d1/d3a/classgame__engine_1_1_engine.html#aae1f63d0e4f4a2a5c36e886c658b6656" target="_top" xlink:title="game_engine.Engine.update">
<polygon fill="white" stroke="black" points="898,-0.5 898,-19.5 1052,-19.5 1052,-0.5 898,-0.5"/>
<text text-anchor="middle" x="975" y="-7.5" font-family="Helvetica,sans-Serif" font-size="10.00">game_engine.Engine.update</text>
</a>
</g>
</g>
<!-- Node7&#45;&gt;Node10 -->
<g id="edge9" class="edge"><title>Node7&#45;&gt;Node10</title>
<path fill="none" stroke="midnightblue" d="M869.014,-20.4436C878.649,-19.4851 888.415,-18.5137 897.913,-17.5689"/>
<polygon fill="midnightblue" stroke="midnightblue" points="868.641,-16.9633 859.037,-21.4361 869.334,-23.9289 868.641,-16.9633"/>
</g>
<!-- Node9 -->
<g id="node9" class="node"><title>Node9</title>
<g id="a_node9"><a xlink:href="../../d1/dcc/classapplication_1_1_shitty_main.html#af8b91a9a9eb3ba2c8a66baee2bed773b" target="_top" xlink:title="application.ShittyMain.start">
<polygon fill="white" stroke="black" points="1088.5,-38.5 1088.5,-57.5 1235.5,-57.5 1235.5,-38.5 1088.5,-38.5"/>
<text text-anchor="middle" x="1162" y="-45.5" font-family="Helvetica,sans-Serif" font-size="10.00">application.ShittyMain.start</text>
</a>
</g>
</g>
<!-- Node8&#45;&gt;Node9 -->
<g id="edge8" class="edge"><title>Node8&#45;&gt;Node9</title>
<path fill="none" stroke="midnightblue" d="M1055.48,-48C1066.36,-48 1077.48,-48 1088.22,-48"/>
<polygon fill="midnightblue" stroke="midnightblue" points="1055.15,-44.5001 1045.15,-48 1055.15,-51.5001 1055.15,-44.5001"/>
</g>
</g>
</svg>
