<?xml version="1.0" encoding="UTF-8" standalone="no"?>
<!DOCTYPE svg PUBLIC "-//W3C//DTD SVG 1.1//EN"
 "http://www.w3.org/Graphics/SVG/1.1/DTD/svg11.dtd">
<!-- Generated by graphviz version 2.36.0 (20140111.2315)
 -->
<!-- Title: view.editor.TabViewController.recreateWizardData Pages: 1 -->
<svg width="682pt" height="87pt"
 viewBox="0.00 0.00 682.00 87.00" xmlns="http://www.w3.org/2000/svg" xmlns:xlink="http://www.w3.org/1999/xlink">
<g id="graph0" class="graph" transform="scale(1 1) rotate(0) translate(4 83)">
<title>view.editor.TabViewController.recreateWizardData</title>
<polygon fill="white" stroke="none" points="-4,4 -4,-83 678,-83 678,4 -4,4"/>
<!-- Node1 -->
<g id="node1" class="node"><title>Node1</title>
<polygon fill="#bfbfbf" stroke="black" points="0,-24 0,-54 196,-54 196,-24 0,-24"/>
<text text-anchor="start" x="8" y="-42" font-family="Helvetica,sans-Serif" font-size="10.00">view.editor.TabViewController.recreate</text>
<text text-anchor="middle" x="98" y="-31" font-family="Helvetica,sans-Serif" font-size="10.00">WizardData</text>
</g>
<!-- Node2 -->
<g id="node2" class="node"><title>Node2</title>
<g id="a_node2"><a xlink:href="../../dc/d48/classmodel_1_1data_1_1_wizard_data.html#a9cc5ffae61bf745c8aad40f05ee31ab4" target="_top" xlink:title="model.data.WizardData.add\lDataPair">
<polygon fill="white" stroke="black" points="252,-49 252,-79 402,-79 402,-49 252,-49"/>
<text text-anchor="start" x="260" y="-67" font-family="Helvetica,sans-Serif" font-size="10.00">model.data.WizardData.add</text>
<text text-anchor="middle" x="327" y="-56" font-family="Helvetica,sans-Serif" font-size="10.00">DataPair</text>
</a>
</g>
</g>
<!-- Node1&#45;&gt;Node2 -->
<g id="edge1" class="edge"><title>Node1&#45;&gt;Node2</title>
<path fill="none" stroke="midnightblue" d="M196.256,-49.711C211.411,-51.3801 226.96,-53.0925 241.793,-54.7261"/>
<polygon fill="midnightblue" stroke="midnightblue" points="241.611,-58.2271 251.934,-55.8429 242.377,-51.2692 241.611,-58.2271"/>
</g>
<!-- Node3 -->
<g id="node3" class="node"><title>Node3</title>
<g id="a_node3"><a xlink:href="../../d4/d65/classview_1_1editor_1_1_tab_view_controller.html#a6b44fe417ec28ee3ba038c3ef8ec0221" target="_top" xlink:title="view.editor.TabViewController.extract\lParamString">
<polygon fill="white" stroke="black" points="232.5,-0 232.5,-30 421.5,-30 421.5,-0 232.5,-0"/>
<text text-anchor="start" x="240.5" y="-18" font-family="Helvetica,sans-Serif" font-size="10.00">view.editor.TabViewController.extract</text>
<text text-anchor="middle" x="327" y="-7" font-family="Helvetica,sans-Serif" font-size="10.00">ParamString</text>
</a>
</g>
</g>
<!-- Node1&#45;&gt;Node3 -->
<g id="edge2" class="edge"><title>Node1&#45;&gt;Node3</title>
<path fill="none" stroke="midnightblue" d="M196.256,-28.7174C204.819,-27.8121 213.507,-26.8935 222.122,-25.9827"/>
<polygon fill="midnightblue" stroke="midnightblue" points="222.611,-29.4506 232.188,-24.9185 221.875,-22.4894 222.611,-29.4506"/>
</g>
<!-- Node4 -->
<g id="node4" class="node"><title>Node4</title>
<g id="a_node4"><a xlink:href="../../d4/d65/classview_1_1editor_1_1_tab_view_controller.html#a2fdb8e36f124e6195361d48a4dc7cfc1" target="_top" xlink:title="view.editor.TabViewController.removeEnds">
<polygon fill="white" stroke="black" points="458.5,-5.5 458.5,-24.5 673.5,-24.5 673.5,-5.5 458.5,-5.5"/>
<text text-anchor="middle" x="566" y="-12.5" font-family="Helvetica,sans-Serif" font-size="10.00">view.editor.TabViewController.removeEnds</text>
</a>
</g>
</g>
<!-- Node3&#45;&gt;Node4 -->
<g id="edge3" class="edge"><title>Node3&#45;&gt;Node4</title>
<path fill="none" stroke="midnightblue" d="M421.669,-15C430.411,-15 439.343,-15 448.261,-15"/>
<polygon fill="midnightblue" stroke="midnightblue" points="448.313,-18.5001 458.313,-15 448.313,-11.5001 448.313,-18.5001"/>
</g>
</g>
</svg>
