<?xml version="1.0" encoding="UTF-8" standalone="no"?>
<!DOCTYPE svg PUBLIC "-//W3C//DTD SVG 1.1//EN"
 "http://www.w3.org/Graphics/SVG/1.1/DTD/svg11.dtd">
<!-- Generated by graphviz version 2.36.0 (20140111.2315)
 -->
<!-- Title: view.editor.TabViewController.createInternalConsumer Pages: 1 -->
<!--zoomable 178 -->
<svg id="main" version="1.1" xmlns="http://www.w3.org/2000/svg" xmlns:xlink="http://www.w3.org/1999/xlink" xml:space="preserve" onload="init(evt)">
<style type="text/css"><![CDATA[
.edge:hover path { stroke: red; }
.edge:hover polygon { stroke: red; fill: red; }
]]></style>
<script type="text/javascript"><![CDATA[
var edges = document.getElementsByTagName('g');
if (edges && edges.length) {
  for (var i=0;i<edges.length;i++) {
    if (edges[i].id.substr(0,4)=='edge') {
      edges[i].setAttribute('class','edge');
    }
  }
}
]]></script>
        <defs>
                <circle id="rim" cx="0" cy="0" r="7"/>
                <circle id="rim2" cx="0" cy="0" r="3.5"/>
                <g id="zoomPlus">
                        <use xlink:href="#rim" fill="#404040">
                                <set attributeName="fill" to="#808080" begin="zoomplus.mouseover" end="zoomplus.mouseout"/>
                        </use>
                        <path d="M-4,0h8M0,-4v8" fill="none" stroke="white" stroke-width="1.5" pointer-events="none"/>
                </g>
                <g id="zoomMin">
                        <use xlink:href="#rim" fill="#404040">
                                <set attributeName="fill" to="#808080" begin="zoomminus.mouseover" end="zoomminus.mouseout"/>
                        </use>
                        <path d="M-4,0h8" fill="none" stroke="white" stroke-width="1.5" pointer-events="none"/>
                </g>
                <g id="dirArrow">
                        <path fill="none" stroke="white" stroke-width="1.5" d="M0,-3.0v7 M-2.5,-0.5L0,-3.0L2.5,-0.5"/>
                </g>
               <g id="resetDef">
                       <use xlink:href="#rim2" fill="#404040">
                               <set attributeName="fill" to="#808080" begin="reset.mouseover" end="reset.mouseout"/>
                       </use>
               </g>
        </defs>

<script type="text/javascript">
var viewWidth = 628;
var viewHeight = 178;
var sectionId = 'dynsection-4';
</script>
<script xlink:href="../../svgpan.js"/>
<svg id="graph" class="graph">
<g id="viewport">
<title>view.editor.TabViewController.createInternalConsumer</title>
<polygon fill="white" stroke="none" points="-4,4 -4,-174 624,-174 624,4 -4,4"/>
<!-- Node1 -->
<g id="node1" class="node"><title>Node1</title>
<polygon fill="#bfbfbf" stroke="black" points="0,-96 0,-126 186,-126 186,-96 0,-96"/>
<text text-anchor="start" x="8" y="-114" font-family="Helvetica,sans-Serif" font-size="10.00">view.editor.TabViewController.create</text>
<text text-anchor="middle" x="93" y="-103" font-family="Helvetica,sans-Serif" font-size="10.00">InternalConsumer</text>
</g>
<!-- Node2 -->
<g id="node2" class="node"><title>Node2</title>
<g id="a_node2"><a xlink:href="../../d7/d40/classview_1_1editor_1_1wizards_1_1_wizard.html#af04694bcdb4842048f357e2e05097440" target="_top" xlink:title="view.editor.wizards.Wizard.close\lStage">
<polygon fill="white" stroke="black" points="233.5,-140 233.5,-170 400.5,-170 400.5,-140 233.5,-140"/>
<text text-anchor="start" x="241.5" y="-158" font-family="Helvetica,sans-Serif" font-size="10.00">view.editor.wizards.Wizard.close</text>
<text text-anchor="middle" x="317" y="-147" font-family="Helvetica,sans-Serif" font-size="10.00">Stage</text>
</a>
</g>
</g>
<!-- Node1&#45;&gt;Node2 -->
<g id="edge1" class="edge"><title>Node1&#45;&gt;Node2</title>
<path fill="none" stroke="midnightblue" d="M169.779,-126.019C189.228,-129.874 210.287,-134.048 230.203,-137.995"/>
<polygon fill="midnightblue" stroke="midnightblue" points="229.696,-141.463 240.186,-139.974 231.057,-134.596 229.696,-141.463"/>
</g>
<!-- Node3 -->
<g id="node3" class="node"><title>Node3</title>
<g id="a_node3"><a xlink:href="../../d2/de7/classmodel_1_1state_1_1_level_state.html#a0eb901df6408563a86cbb88b7298120a" target="_top" xlink:title="model.state.LevelState.get\lGoals">
<polygon fill="white" stroke="black" points="460.5,-98 460.5,-128 607.5,-128 607.5,-98 460.5,-98"/>
<text text-anchor="start" x="468.5" y="-116" font-family="Helvetica,sans-Serif" font-size="10.00">model.state.LevelState.get</text>
<text text-anchor="middle" x="534" y="-105" font-family="Helvetica,sans-Serif" font-size="10.00">Goals</text>
</a>
</g>
</g>
<!-- Node1&#45;&gt;Node3 -->
<g id="edge2" class="edge"><title>Node1&#45;&gt;Node3</title>
<path fill="none" stroke="midnightblue" d="M186.029,-111.419C263.951,-111.774 374.671,-112.279 449.932,-112.622"/>
<polygon fill="midnightblue" stroke="midnightblue" points="450.293,-116.123 460.309,-112.669 450.325,-109.123 450.293,-116.123"/>
</g>
<!-- Node4 -->
<g id="node4" class="node"><title>Node4</title>
<g id="a_node4"><a xlink:href="../../d4/d65/classview_1_1editor_1_1_tab_view_controller.html#a4b5b7c17de5afbd39803d744e2de380a" target="_top" xlink:title="view.editor.TabViewController.update\lLevelTriggersView">
<polygon fill="white" stroke="black" points="222.5,-50 222.5,-80 411.5,-80 411.5,-50 222.5,-50"/>
<text text-anchor="start" x="230.5" y="-68" font-family="Helvetica,sans-Serif" font-size="10.00">view.editor.TabViewController.update</text>
<text text-anchor="middle" x="317" y="-57" font-family="Helvetica,sans-Serif" font-size="10.00">LevelTriggersView</text>
</a>
</g>
</g>
<!-- Node1&#45;&gt;Node4 -->
<g id="edge3" class="edge"><title>Node1&#45;&gt;Node4</title>
<path fill="none" stroke="midnightblue" d="M166.691,-95.9379C188.075,-91.507 211.62,-86.6282 233.567,-82.0807"/>
<polygon fill="midnightblue" stroke="midnightblue" points="234.443,-85.4736 243.525,-80.0174 233.023,-78.6192 234.443,-85.4736"/>
</g>
<!-- Node4&#45;&gt;Node3 -->
<g id="edge4" class="edge"><title>Node4&#45;&gt;Node3</title>
<path fill="none" stroke="midnightblue" d="M385.437,-80.0558C407.751,-85.0373 432.751,-90.6188 455.742,-95.7517"/>
<polygon fill="midnightblue" stroke="midnightblue" points="455.279,-99.2345 465.802,-97.9976 456.805,-92.4027 455.279,-99.2345"/>
</g>
<!-- Node5 -->
<g id="node5" class="node"><title>Node5</title>
<g id="a_node5"><a xlink:href="../../d4/d65/classview_1_1editor_1_1_tab_view_controller.html#a42e1f2d600b9509d77b5535d075b5130" target="_top" xlink:title="view.editor.TabViewController.get\lByClassName">
<polygon fill="white" stroke="black" points="448.5,-49 448.5,-79 619.5,-79 619.5,-49 448.5,-49"/>
<text text-anchor="start" x="456.5" y="-67" font-family="Helvetica,sans-Serif" font-size="10.00">view.editor.TabViewController.get</text>
<text text-anchor="middle" x="534" y="-56" font-family="Helvetica,sans-Serif" font-size="10.00">ByClassName</text>
</a>
</g>
</g>
<!-- Node4&#45;&gt;Node5 -->
<g id="edge5" class="edge"><title>Node4&#45;&gt;Node5</title>
<path fill="none" stroke="midnightblue" d="M411.677,-64.5643C420.461,-64.5234 429.37,-64.482 438.165,-64.4411"/>
<polygon fill="midnightblue" stroke="midnightblue" points="438.438,-67.94 448.422,-64.3934 438.405,-60.94 438.438,-67.94"/>
</g>
<!-- Node6 -->
<g id="node6" class="node"><title>Node6</title>
<g id="a_node6"><a xlink:href="../../da/d87/classview_1_1editor_1_1_level_triggers_view_controller.html#a1bb769102f0b8963979f9f043c4700cd" target="_top" xlink:title="view.editor.LevelTriggers\lViewController.updateTriggerList">
<polygon fill="white" stroke="black" points="449.5,-0 449.5,-30 618.5,-30 618.5,-0 449.5,-0"/>
<text text-anchor="start" x="457.5" y="-18" font-family="Helvetica,sans-Serif" font-size="10.00">view.editor.LevelTriggers</text>
<text text-anchor="middle" x="534" y="-7" font-family="Helvetica,sans-Serif" font-size="10.00">ViewController.updateTriggerList</text>
</a>
</g>
</g>
<!-- Node4&#45;&gt;Node6 -->
<g id="edge6" class="edge"><title>Node4&#45;&gt;Node6</title>
<path fill="none" stroke="midnightblue" d="M382.507,-49.9984C406.315,-44.4616 433.492,-38.1415 458.139,-32.4095"/>
<polygon fill="midnightblue" stroke="midnightblue" points="459.22,-35.7516 468.167,-30.0774 457.634,-28.9336 459.22,-35.7516"/>
</g>
</g>
</svg>
        <g id="navigator" transform="translate(0 0)" fill="#404254">
                <rect fill="#f2f5e9" fill-opacity="0.5" stroke="#606060" stroke-width=".5" x="0" y="0" width="60" height="60"/>
                <use id="zoomplus" xlink:href="#zoomPlus" x="17" y="9" onmousedown="handleZoom(evt,'in')"/>
                <use id="zoomminus" xlink:href="#zoomMin" x="42" y="9" onmousedown="handleZoom(evt,'out')"/>
                <use id="reset" xlink:href="#resetDef" x="30" y="36" onmousedown="handleReset()"/>
                <g id="arrowUp" xlink:href="#dirArrow" transform="translate(30 24)" onmousedown="handlePan(0,-1)">
                  <use xlink:href="#rim" fill="#404040">
                        <set attributeName="fill" to="#808080" begin="arrowUp.mouseover" end="arrowUp.mouseout"/>
                  </use>
                  <path fill="none" stroke="white" stroke-width="1.5" d="M0,-3.0v7 M-2.5,-0.5L0,-3.0L2.5,-0.5"/>
                </g>
                <g id="arrowRight" xlink:href="#dirArrow" transform="rotate(90) translate(36 -43)" onmousedown="handlePan(1,0)">
                  <use xlink:href="#rim" fill="#404040">
                        <set attributeName="fill" to="#808080" begin="arrowRight.mouseover" end="arrowRight.mouseout"/>
                  </use>
                  <path fill="none" stroke="white" stroke-width="1.5" d="M0,-3.0v7 M-2.5,-0.5L0,-3.0L2.5,-0.5"/>
                </g>
                <g id="arrowDown" xlink:href="#dirArrow" transform="rotate(180) translate(-30 -48)" onmousedown="handlePan(0,1)">
                  <use xlink:href="#rim" fill="#404040">
                        <set attributeName="fill" to="#808080" begin="arrowDown.mouseover" end="arrowDown.mouseout"/>
                  </use>
                  <path fill="none" stroke="white" stroke-width="1.5" d="M0,-3.0v7 M-2.5,-0.5L0,-3.0L2.5,-0.5"/>
                </g>
                <g id="arrowLeft" xlink:href="#dirArrow" transform="rotate(270) translate(-36 17)" onmousedown="handlePan(-1,0)">
                  <use xlink:href="#rim" fill="#404040">
                        <set attributeName="fill" to="#808080" begin="arrowLeft.mouseover" end="arrowLeft.mouseout"/>
                  </use>
                  <path fill="none" stroke="white" stroke-width="1.5" d="M0,-3.0v7 M-2.5,-0.5L0,-3.0L2.5,-0.5"/>
                </g>
        </g>
        <svg viewBox="0 0 15 15" width="100%" height="30px" preserveAspectRatio="xMaxYMin meet">
         <g id="arrow_out" transform="scale(0.3 0.3)">
          <a xlink:href="classview_1_1editor_1_1_tab_view_controller_a8cb6adfbffdd06b96f8c068a79737ac8_cgraph_org.svg" target="_base">
           <rect id="button" ry="5" rx="5" y="6" x="6" height="38" width="38"
                fill="#f2f5e9" fill-opacity="0.5" stroke="#606060" stroke-width="1.0"/>
           <path id="arrow"
             d="M 11.500037,31.436501 C 11.940474,20.09759 22.043105,11.32322 32.158766,21.979434 L 37.068811,17.246167 C 37.068811,17.246167 37.088388,32 37.088388,32 L 22.160133,31.978069 C 22.160133,31.978069 26.997745,27.140456 26.997745,27.140456 C 18.528582,18.264221 13.291696,25.230495 11.500037,31.436501 z"
             style="fill:#404040;"/>
          </a>
         </g>
        </svg>
</svg>
