<?xml version="1.0" encoding="UTF-8" standalone="no"?>
<!DOCTYPE svg PUBLIC "-//W3C//DTD SVG 1.1//EN"
 "http://www.w3.org/Graphics/SVG/1.1/DTD/svg11.dtd">
<!-- Generated by graphviz version 2.36.0 (20140111.2315)
 -->
<!-- Title: view.editor.TabViewController.modifyGoals Pages: 1 -->
<svg width="906pt" height="508pt"
 viewBox="0.00 0.00 906.00 508.00" xmlns="http://www.w3.org/2000/svg" xmlns:xlink="http://www.w3.org/1999/xlink">
<g id="graph0" class="graph" transform="scale(1 1) rotate(0) translate(4 504)">
<title>view.editor.TabViewController.modifyGoals</title>
<polygon fill="white" stroke="none" points="-4,4 -4,-504 902,-504 902,4 -4,4"/>
<!-- Node1 -->
<g id="node1" class="node"><title>Node1</title>
<polygon fill="#bfbfbf" stroke="black" points="0,-237 0,-267 188,-267 188,-237 0,-237"/>
<text text-anchor="start" x="8" y="-255" font-family="Helvetica,sans-Serif" font-size="10.00">view.editor.TabViewController.modify</text>
<text text-anchor="middle" x="94" y="-244" font-family="Helvetica,sans-Serif" font-size="10.00">Goals</text>
</g>
<!-- Node2 -->
<g id="node2" class="node"><title>Node2</title>
<g id="a_node2"><a xlink:href="../../d4/d65/classview_1_1editor_1_1_tab_view_controller.html#a8cb6adfbffdd06b96f8c068a79737ac8" target="_top" xlink:title="view.editor.TabViewController.create\lInternalConsumer">
<polygon fill="white" stroke="black" points="229,-413 229,-443 415,-443 415,-413 229,-413"/>
<text text-anchor="start" x="237" y="-431" font-family="Helvetica,sans-Serif" font-size="10.00">view.editor.TabViewController.create</text>
<text text-anchor="middle" x="322" y="-420" font-family="Helvetica,sans-Serif" font-size="10.00">InternalConsumer</text>
</a>
</g>
</g>
<!-- Node1&#45;&gt;Node2 -->
<g id="edge1" class="edge"><title>Node1&#45;&gt;Node2</title>
<path fill="none" stroke="midnightblue" d="M111.623,-267.195C135.735,-288.996 182.115,-330.042 224,-362 245.064,-378.072 269.766,-394.851 288.97,-407.469"/>
<polygon fill="midnightblue" stroke="midnightblue" points="287.088,-410.42 297.374,-412.956 290.915,-404.559 287.088,-410.42"/>
</g>
<!-- Node5 -->
<g id="node5" class="node"><title>Node5</title>
<g id="a_node5"><a xlink:href="../../d4/d65/classview_1_1editor_1_1_tab_view_controller.html#a4b5b7c17de5afbd39803d744e2de380a" target="_top" xlink:title="view.editor.TabViewController.update\lLevelTriggersView">
<polygon fill="white" stroke="black" points="456.5,-382 456.5,-412 645.5,-412 645.5,-382 456.5,-382"/>
<text text-anchor="start" x="464.5" y="-400" font-family="Helvetica,sans-Serif" font-size="10.00">view.editor.TabViewController.update</text>
<text text-anchor="middle" x="551" y="-389" font-family="Helvetica,sans-Serif" font-size="10.00">LevelTriggersView</text>
</a>
</g>
</g>
<!-- Node1&#45;&gt;Node5 -->
<g id="edge23" class="edge"><title>Node1&#45;&gt;Node5</title>
<path fill="none" stroke="midnightblue" d="M132.58,-267.026C158.188,-277.079 192.95,-290.365 224,-301 326.013,-335.942 352.322,-342.36 456,-372 464.494,-374.428 473.441,-376.908 482.302,-379.317"/>
<polygon fill="midnightblue" stroke="midnightblue" points="481.675,-382.773 492.242,-382 483.499,-376.015 481.675,-382.773"/>
</g>
<!-- Node8 -->
<g id="node8" class="node"><title>Node8</title>
<g id="a_node8"><a xlink:href="../../d7/d40/classview_1_1editor_1_1wizards_1_1_wizard.html#af62c5e88670b925cde0a2a277a544bb5" target="_top" xlink:title="view.editor.wizards.Wizard.launch\lForEdit">
<polygon fill="white" stroke="black" points="235.5,-262 235.5,-292 408.5,-292 408.5,-262 235.5,-262"/>
<text text-anchor="start" x="243.5" y="-280" font-family="Helvetica,sans-Serif" font-size="10.00">view.editor.wizards.Wizard.launch</text>
<text text-anchor="middle" x="322" y="-269" font-family="Helvetica,sans-Serif" font-size="10.00">ForEdit</text>
</a>
</g>
</g>
<!-- Node1&#45;&gt;Node8 -->
<g id="edge8" class="edge"><title>Node1&#45;&gt;Node8</title>
<path fill="none" stroke="midnightblue" d="M188.228,-262.313C200.387,-263.658 212.861,-265.038 225.063,-266.388"/>
<polygon fill="midnightblue" stroke="midnightblue" points="224.913,-269.892 235.237,-267.513 225.682,-262.935 224.913,-269.892"/>
</g>
<!-- Node9 -->
<g id="node9" class="node"><title>Node9</title>
<g id="a_node9"><a xlink:href="../../d2/d33/classview_1_1editor_1_1wizards_1_1_wizard_utility.html#acece70a3dea98cde832a608d4aff204d" target="_top" xlink:title="view.editor.wizards.Wizard\lUtility.loadWizard">
<polygon fill="white" stroke="black" points="252.5,-213 252.5,-243 391.5,-243 391.5,-213 252.5,-213"/>
<text text-anchor="start" x="260.5" y="-231" font-family="Helvetica,sans-Serif" font-size="10.00">view.editor.wizards.Wizard</text>
<text text-anchor="middle" x="322" y="-220" font-family="Helvetica,sans-Serif" font-size="10.00">Utility.loadWizard</text>
</a>
</g>
</g>
<!-- Node1&#45;&gt;Node9 -->
<g id="edge9" class="edge"><title>Node1&#45;&gt;Node9</title>
<path fill="none" stroke="midnightblue" d="M188.228,-242.1C206.117,-240.2 224.688,-238.228 242.072,-236.382"/>
<polygon fill="midnightblue" stroke="midnightblue" points="242.582,-239.847 252.157,-235.311 241.843,-232.886 242.582,-239.847"/>
</g>
<!-- Node18 -->
<g id="node18" class="node"><title>Node18</title>
<g id="a_node18"><a xlink:href="../../d4/d65/classview_1_1editor_1_1_tab_view_controller.html#acc48d19a50394e25978315d5bca8fa6a" target="_top" xlink:title="view.editor.TabViewController.recreate\lWizardData">
<polygon fill="white" stroke="black" points="224,-96 224,-126 420,-126 420,-96 224,-96"/>
<text text-anchor="start" x="232" y="-114" font-family="Helvetica,sans-Serif" font-size="10.00">view.editor.TabViewController.recreate</text>
<text text-anchor="middle" x="322" y="-103" font-family="Helvetica,sans-Serif" font-size="10.00">WizardData</text>
</a>
</g>
</g>
<!-- Node1&#45;&gt;Node18 -->
<g id="edge18" class="edge"><title>Node1&#45;&gt;Node18</title>
<path fill="none" stroke="midnightblue" d="M119.186,-236.911C159.859,-211.535 242.003,-160.285 287.96,-131.613"/>
<polygon fill="midnightblue" stroke="midnightblue" points="290.015,-134.457 296.646,-126.194 286.309,-128.518 290.015,-134.457"/>
</g>
<!-- Node22 -->
<g id="node22" class="node"><title>Node22</title>
<g id="a_node22"><a xlink:href="../../d7/d40/classview_1_1editor_1_1wizards_1_1_wizard.html#ac0ea3bff75d232a7c87af57bc5bbd623" target="_top" xlink:title="view.editor.wizards.Wizard.set\lSubmit">
<polygon fill="white" stroke="black" points="243.5,-47 243.5,-77 400.5,-77 400.5,-47 243.5,-47"/>
<text text-anchor="start" x="251.5" y="-65" font-family="Helvetica,sans-Serif" font-size="10.00">view.editor.wizards.Wizard.set</text>
<text text-anchor="middle" x="322" y="-54" font-family="Helvetica,sans-Serif" font-size="10.00">Submit</text>
</a>
</g>
</g>
<!-- Node1&#45;&gt;Node22 -->
<g id="edge22" class="edge"><title>Node1&#45;&gt;Node22</title>
<path fill="none" stroke="midnightblue" d="M102.281,-236.863C118.931,-203.934 163.102,-125.583 224,-86 227.168,-83.9407 230.499,-82.0582 233.943,-80.3371"/>
<polygon fill="midnightblue" stroke="midnightblue" points="235.593,-83.433 243.286,-76.1482 232.73,-77.0455 235.593,-83.433"/>
</g>
<!-- Node3 -->
<g id="node3" class="node"><title>Node3</title>
<g id="a_node3"><a xlink:href="../../d7/d40/classview_1_1editor_1_1wizards_1_1_wizard.html#af04694bcdb4842048f357e2e05097440" target="_top" xlink:title="view.editor.wizards.Wizard.close\lStage">
<polygon fill="white" stroke="black" points="467.5,-470 467.5,-500 634.5,-500 634.5,-470 467.5,-470"/>
<text text-anchor="start" x="475.5" y="-488" font-family="Helvetica,sans-Serif" font-size="10.00">view.editor.wizards.Wizard.close</text>
<text text-anchor="middle" x="551" y="-477" font-family="Helvetica,sans-Serif" font-size="10.00">Stage</text>
</a>
</g>
</g>
<!-- Node2&#45;&gt;Node3 -->
<g id="edge2" class="edge"><title>Node2&#45;&gt;Node3</title>
<path fill="none" stroke="midnightblue" d="M382.939,-443.051C412.807,-450.551 449.097,-459.663 480.213,-467.476"/>
<polygon fill="midnightblue" stroke="midnightblue" points="479.568,-470.923 490.12,-469.964 481.273,-464.134 479.568,-470.923"/>
</g>
<!-- Node4 -->
<g id="node4" class="node"><title>Node4</title>
<g id="a_node4"><a xlink:href="../../d2/de7/classmodel_1_1state_1_1_level_state.html#a0eb901df6408563a86cbb88b7298120a" target="_top" xlink:title="model.state.LevelState.get\lGoals">
<polygon fill="white" stroke="black" points="716.5,-431 716.5,-461 863.5,-461 863.5,-431 716.5,-431"/>
<text text-anchor="start" x="724.5" y="-449" font-family="Helvetica,sans-Serif" font-size="10.00">model.state.LevelState.get</text>
<text text-anchor="middle" x="790" y="-438" font-family="Helvetica,sans-Serif" font-size="10.00">Goals</text>
</a>
</g>
</g>
<!-- Node2&#45;&gt;Node4 -->
<g id="edge3" class="edge"><title>Node2&#45;&gt;Node4</title>
<path fill="none" stroke="midnightblue" d="M415.067,-431.556C499.771,-434.828 624.28,-439.637 705.989,-442.794"/>
<polygon fill="midnightblue" stroke="midnightblue" points="706.104,-446.301 716.231,-443.189 706.374,-439.306 706.104,-446.301"/>
</g>
<!-- Node2&#45;&gt;Node5 -->
<g id="edge4" class="edge"><title>Node2&#45;&gt;Node5</title>
<path fill="none" stroke="midnightblue" d="M415.002,-415.436C425.34,-414.024 435.925,-412.579 446.397,-411.148"/>
<polygon fill="midnightblue" stroke="midnightblue" points="446.956,-414.605 456.39,-409.784 446.008,-407.669 446.956,-414.605"/>
</g>
<!-- Node5&#45;&gt;Node4 -->
<g id="edge5" class="edge"><title>Node5&#45;&gt;Node4</title>
<path fill="none" stroke="midnightblue" d="M624.718,-412.035C650.539,-417.373 679.785,-423.42 706.372,-428.917"/>
<polygon fill="midnightblue" stroke="midnightblue" points="705.918,-432.397 716.419,-430.994 707.335,-425.542 705.918,-432.397"/>
</g>
<!-- Node6 -->
<g id="node6" class="node"><title>Node6</title>
<g id="a_node6"><a xlink:href="../../d4/d65/classview_1_1editor_1_1_tab_view_controller.html#a42e1f2d600b9509d77b5535d075b5130" target="_top" xlink:title="view.editor.TabViewController.get\lByClassName">
<polygon fill="white" stroke="black" points="704.5,-382 704.5,-412 875.5,-412 875.5,-382 704.5,-382"/>
<text text-anchor="start" x="712.5" y="-400" font-family="Helvetica,sans-Serif" font-size="10.00">view.editor.TabViewController.get</text>
<text text-anchor="middle" x="790" y="-389" font-family="Helvetica,sans-Serif" font-size="10.00">ByClassName</text>
</a>
</g>
</g>
<!-- Node5&#45;&gt;Node6 -->
<g id="edge6" class="edge"><title>Node5&#45;&gt;Node6</title>
<path fill="none" stroke="midnightblue" d="M645.669,-397C661.589,-397 678.136,-397 694.088,-397"/>
<polygon fill="midnightblue" stroke="midnightblue" points="694.473,-400.5 704.473,-397 694.473,-393.5 694.473,-400.5"/>
</g>
<!-- Node7 -->
<g id="node7" class="node"><title>Node7</title>
<g id="a_node7"><a xlink:href="../../da/d87/classview_1_1editor_1_1_level_triggers_view_controller.html#a1bb769102f0b8963979f9f043c4700cd" target="_top" xlink:title="view.editor.LevelTriggers\lViewController.updateTriggerList">
<polygon fill="white" stroke="black" points="705.5,-333 705.5,-363 874.5,-363 874.5,-333 705.5,-333"/>
<text text-anchor="start" x="713.5" y="-351" font-family="Helvetica,sans-Serif" font-size="10.00">view.editor.LevelTriggers</text>
<text text-anchor="middle" x="790" y="-340" font-family="Helvetica,sans-Serif" font-size="10.00">ViewController.updateTriggerList</text>
</a>
</g>
</g>
<!-- Node5&#45;&gt;Node7 -->
<g id="edge7" class="edge"><title>Node5&#45;&gt;Node7</title>
<path fill="none" stroke="midnightblue" d="M624.718,-381.965C650.539,-376.627 679.785,-370.58 706.372,-365.083"/>
<polygon fill="midnightblue" stroke="midnightblue" points="707.335,-368.458 716.419,-363.006 705.918,-361.603 707.335,-368.458"/>
</g>
<!-- Node10 -->
<g id="node10" class="node"><title>Node10</title>
<g id="a_node10"><a xlink:href="../../de/d50/classview_1_1_g_u_i_load_style_utility.html#ad5c2539d920db1e4cec593d49cbf28bc" target="_top" xlink:title="view.GUILoadStyleUtility.get\lInstance">
<polygon fill="white" stroke="black" points="477,-333 477,-363 625,-363 625,-333 477,-333"/>
<text text-anchor="start" x="485" y="-351" font-family="Helvetica,sans-Serif" font-size="10.00">view.GUILoadStyleUtility.get</text>
<text text-anchor="middle" x="551" y="-340" font-family="Helvetica,sans-Serif" font-size="10.00">Instance</text>
</a>
</g>
</g>
<!-- Node9&#45;&gt;Node10 -->
<g id="edge10" class="edge"><title>Node9&#45;&gt;Node10</title>
<path fill="none" stroke="midnightblue" d="M391.675,-237.893C401.866,-241.494 411.712,-246.379 420,-253 447.334,-274.835 428.75,-301.06 456,-323 459.574,-325.878 463.448,-328.426 467.519,-330.683"/>
<polygon fill="midnightblue" stroke="midnightblue" points="466.182,-333.925 476.703,-335.171 469.256,-327.636 466.182,-333.925"/>
</g>
<!-- Node12 -->
<g id="node12" class="node"><title>Node12</title>
<g id="a_node12"><a xlink:href="../../de/d50/classview_1_1_g_u_i_load_style_utility.html#a3f0bdbc7239563c54aa365afd86f620d" target="_top" xlink:title="view.GUILoadStyleUtility.generate\lGUIPane">
<polygon fill="white" stroke="black" points="463,-284 463,-314 639,-314 639,-284 463,-284"/>
<text text-anchor="start" x="471" y="-302" font-family="Helvetica,sans-Serif" font-size="10.00">view.GUILoadStyleUtility.generate</text>
<text text-anchor="middle" x="551" y="-291" font-family="Helvetica,sans-Serif" font-size="10.00">GUIPane</text>
</a>
</g>
</g>
<!-- Node9&#45;&gt;Node12 -->
<g id="edge12" class="edge"><title>Node9&#45;&gt;Node12</title>
<path fill="none" stroke="midnightblue" d="M391.355,-243.076C401.112,-245.958 410.913,-249.263 420,-253 437.131,-260.045 438.896,-266.889 456,-274 461.884,-276.446 468.075,-278.714 474.356,-280.804"/>
<polygon fill="midnightblue" stroke="midnightblue" points="473.678,-284.26 484.268,-283.94 475.79,-277.587 473.678,-284.26"/>
</g>
<!-- Node13 -->
<g id="node13" class="node"><title>Node13</title>
<g id="a_node13"><a xlink:href="../../d8/d35/enumview_1_1gui_1_1_g_u_i_pane_path.html#a21483b76823df7d547e7c451c9877b65" target="_top" xlink:title="view.gui.GUIPanePath.get\lFilePath">
<polygon fill="white" stroke="black" points="482.5,-235 482.5,-265 619.5,-265 619.5,-235 482.5,-235"/>
<text text-anchor="start" x="490.5" y="-253" font-family="Helvetica,sans-Serif" font-size="10.00">view.gui.GUIPanePath.get</text>
<text text-anchor="middle" x="551" y="-242" font-family="Helvetica,sans-Serif" font-size="10.00">FilePath</text>
</a>
</g>
</g>
<!-- Node9&#45;&gt;Node13 -->
<g id="edge13" class="edge"><title>Node9&#45;&gt;Node13</title>
<path fill="none" stroke="midnightblue" d="M391.724,-234.66C417.068,-237.117 445.959,-239.917 472.06,-242.446"/>
<polygon fill="midnightblue" stroke="midnightblue" points="472,-245.957 482.291,-243.438 472.676,-238.99 472,-245.957"/>
</g>
<!-- Node14 -->
<g id="node14" class="node"><title>Node14</title>
<g id="a_node14"><a xlink:href="../../d7/d40/classview_1_1editor_1_1wizards_1_1_wizard.html#acf4e507283b52e3f07d0178de8a95900" target="_top" xlink:title="view.editor.wizards.Wizard.getRoot">
<polygon fill="white" stroke="black" points="461.5,-196.5 461.5,-215.5 640.5,-215.5 640.5,-196.5 461.5,-196.5"/>
<text text-anchor="middle" x="551" y="-203.5" font-family="Helvetica,sans-Serif" font-size="10.00">view.editor.wizards.Wizard.getRoot</text>
</a>
</g>
</g>
<!-- Node9&#45;&gt;Node14 -->
<g id="edge14" class="edge"><title>Node9&#45;&gt;Node14</title>
<path fill="none" stroke="midnightblue" d="M391.724,-221.34C410.478,-219.522 431.174,-217.516 451.245,-215.571"/>
<polygon fill="midnightblue" stroke="midnightblue" points="451.736,-219.04 461.352,-214.591 451.061,-212.072 451.736,-219.04"/>
</g>
<!-- Node15 -->
<g id="node15" class="node"><title>Node15</title>
<g id="a_node15"><a xlink:href="../../de/d50/classview_1_1_g_u_i_load_style_utility.html#ad8a679308f5305b82d32661a86f96690" target="_top" xlink:title="view.GUILoadStyleUtility.add\lScene">
<polygon fill="white" stroke="black" points="476,-147 476,-177 626,-177 626,-147 476,-147"/>
<text text-anchor="start" x="484" y="-165" font-family="Helvetica,sans-Serif" font-size="10.00">view.GUILoadStyleUtility.add</text>
<text text-anchor="middle" x="551" y="-154" font-family="Helvetica,sans-Serif" font-size="10.00">Scene</text>
</a>
</g>
</g>
<!-- Node9&#45;&gt;Node15 -->
<g id="edge15" class="edge"><title>Node9&#45;&gt;Node15</title>
<path fill="none" stroke="midnightblue" d="M370.263,-212.938C395.614,-204.984 427.433,-195.199 456,-187 464.432,-184.58 473.313,-182.113 482.113,-179.717"/>
<polygon fill="midnightblue" stroke="midnightblue" points="483.246,-183.037 491.986,-177.049 481.419,-176.279 483.246,-183.037"/>
</g>
<!-- Node17 -->
<g id="node17" class="node"><title>Node17</title>
<g id="a_node17"><a xlink:href="../../d7/d40/classview_1_1editor_1_1wizards_1_1_wizard.html#abb231f895d1f01a0406555641eebedc5" target="_top" xlink:title="view.editor.wizards.Wizard.set\lStage">
<polygon fill="white" stroke="black" points="472.5,-98 472.5,-128 629.5,-128 629.5,-98 472.5,-98"/>
<text text-anchor="start" x="480.5" y="-116" font-family="Helvetica,sans-Serif" font-size="10.00">view.editor.wizards.Wizard.set</text>
<text text-anchor="middle" x="551" y="-105" font-family="Helvetica,sans-Serif" font-size="10.00">Stage</text>
</a>
</g>
</g>
<!-- Node9&#45;&gt;Node17 -->
<g id="edge17" class="edge"><title>Node9&#45;&gt;Node17</title>
<path fill="none" stroke="midnightblue" d="M340.705,-212.842C365.099,-192.702 411.14,-157.304 456,-137 460.582,-134.926 465.374,-133.01 470.264,-131.242"/>
<polygon fill="midnightblue" stroke="midnightblue" points="471.413,-134.548 479.761,-128.024 469.167,-127.919 471.413,-134.548"/>
</g>
<!-- Node11 -->
<g id="node11" class="node"><title>Node11</title>
<g id="a_node11"><a xlink:href="../../de/d50/classview_1_1_g_u_i_load_style_utility.html#aec297413dba8a98a536fdd9792d27860" target="_top" xlink:title="view.GUILoadStyleUtility.\lGUILoadStyleUtility">
<polygon fill="white" stroke="black" points="724,-284 724,-314 856,-314 856,-284 724,-284"/>
<text text-anchor="start" x="732" y="-302" font-family="Helvetica,sans-Serif" font-size="10.00">view.GUILoadStyleUtility.</text>
<text text-anchor="middle" x="790" y="-291" font-family="Helvetica,sans-Serif" font-size="10.00">GUILoadStyleUtility</text>
</a>
</g>
</g>
<!-- Node10&#45;&gt;Node11 -->
<g id="edge11" class="edge"><title>Node10&#45;&gt;Node11</title>
<path fill="none" stroke="midnightblue" d="M624.718,-332.965C652.957,-327.127 685.294,-320.441 713.768,-314.554"/>
<polygon fill="midnightblue" stroke="midnightblue" points="714.581,-317.96 723.665,-312.508 713.164,-311.105 714.581,-317.96"/>
</g>
<!-- Node16 -->
<g id="node16" class="node"><title>Node16</title>
<g id="a_node16"><a xlink:href="../../de/d50/classview_1_1_g_u_i_load_style_utility.html#a9540b620f62a09da8127367e897d5129" target="_top" xlink:title="view.GUILoadStyleUtility.attach\lStyles">
<polygon fill="white" stroke="black" points="708.5,-147 708.5,-177 871.5,-177 871.5,-147 708.5,-147"/>
<text text-anchor="start" x="716.5" y="-165" font-family="Helvetica,sans-Serif" font-size="10.00">view.GUILoadStyleUtility.attach</text>
<text text-anchor="middle" x="790" y="-154" font-family="Helvetica,sans-Serif" font-size="10.00">Styles</text>
</a>
</g>
</g>
<!-- Node15&#45;&gt;Node16 -->
<g id="edge16" class="edge"><title>Node15&#45;&gt;Node16</title>
<path fill="none" stroke="midnightblue" d="M626.013,-162C648.831,-162 674.222,-162 698.042,-162"/>
<polygon fill="midnightblue" stroke="midnightblue" points="698.142,-165.5 708.142,-162 698.142,-158.5 698.142,-165.5"/>
</g>
<!-- Node19 -->
<g id="node19" class="node"><title>Node19</title>
<g id="a_node19"><a xlink:href="../../dc/d48/classmodel_1_1data_1_1_wizard_data.html#a9cc5ffae61bf745c8aad40f05ee31ab4" target="_top" xlink:title="model.data.WizardData.add\lDataPair">
<polygon fill="white" stroke="black" points="476,-49 476,-79 626,-79 626,-49 476,-49"/>
<text text-anchor="start" x="484" y="-67" font-family="Helvetica,sans-Serif" font-size="10.00">model.data.WizardData.add</text>
<text text-anchor="middle" x="551" y="-56" font-family="Helvetica,sans-Serif" font-size="10.00">DataPair</text>
</a>
</g>
</g>
<!-- Node18&#45;&gt;Node19 -->
<g id="edge19" class="edge"><title>Node18&#45;&gt;Node19</title>
<path fill="none" stroke="midnightblue" d="M395.448,-95.9997C418.382,-91.2513 443.9,-85.9678 467.485,-81.0846"/>
<polygon fill="midnightblue" stroke="midnightblue" points="468.379,-84.4739 477.461,-79.019 466.959,-77.6193 468.379,-84.4739"/>
</g>
<!-- Node20 -->
<g id="node20" class="node"><title>Node20</title>
<g id="a_node20"><a xlink:href="../../d4/d65/classview_1_1editor_1_1_tab_view_controller.html#a6b44fe417ec28ee3ba038c3ef8ec0221" target="_top" xlink:title="view.editor.TabViewController.extract\lParamString">
<polygon fill="white" stroke="black" points="456.5,-0 456.5,-30 645.5,-30 645.5,-0 456.5,-0"/>
<text text-anchor="start" x="464.5" y="-18" font-family="Helvetica,sans-Serif" font-size="10.00">view.editor.TabViewController.extract</text>
<text text-anchor="middle" x="551" y="-7" font-family="Helvetica,sans-Serif" font-size="10.00">ParamString</text>
</a>
</g>
</g>
<!-- Node18&#45;&gt;Node20 -->
<g id="edge20" class="edge"><title>Node18&#45;&gt;Node20</title>
<path fill="none" stroke="midnightblue" d="M401.247,-95.8405C407.843,-93.0895 414.199,-89.8395 420,-86 441.941,-71.4768 434.042,-53.4983 456,-39 458.438,-37.3904 460.977,-35.8887 463.592,-34.4878"/>
<polygon fill="midnightblue" stroke="midnightblue" points="465.236,-37.5809 472.741,-30.102 462.21,-31.2686 465.236,-37.5809"/>
</g>
<!-- Node21 -->
<g id="node21" class="node"><title>Node21</title>
<g id="a_node21"><a xlink:href="../../d4/d65/classview_1_1editor_1_1_tab_view_controller.html#a2fdb8e36f124e6195361d48a4dc7cfc1" target="_top" xlink:title="view.editor.TabViewController.removeEnds">
<polygon fill="white" stroke="black" points="682.5,-5.5 682.5,-24.5 897.5,-24.5 897.5,-5.5 682.5,-5.5"/>
<text text-anchor="middle" x="790" y="-12.5" font-family="Helvetica,sans-Serif" font-size="10.00">view.editor.TabViewController.removeEnds</text>
</a>
</g>
</g>
<!-- Node20&#45;&gt;Node21 -->
<g id="edge21" class="edge"><title>Node20&#45;&gt;Node21</title>
<path fill="none" stroke="midnightblue" d="M645.669,-15C654.411,-15 663.343,-15 672.261,-15"/>
<polygon fill="midnightblue" stroke="midnightblue" points="672.313,-18.5001 682.313,-15 672.313,-11.5001 672.313,-18.5001"/>
</g>
</g>
</svg>
