<?xml version="1.0" encoding="UTF-8" standalone="no"?>
<!DOCTYPE svg PUBLIC "-//W3C//DTD SVG 1.1//EN"
 "http://www.w3.org/Graphics/SVG/1.1/DTD/svg11.dtd">
<!-- Generated by graphviz version 2.36.0 (20140111.2315)
 -->
<!-- Title: view.editor.TabViewController.isLevel Pages: 1 -->
<svg width="568pt" height="82pt"
 viewBox="0.00 0.00 568.00 82.00" xmlns="http://www.w3.org/2000/svg" xmlns:xlink="http://www.w3.org/1999/xlink">
<g id="graph0" class="graph" transform="scale(1 1) rotate(0) translate(4 78)">
<title>view.editor.TabViewController.isLevel</title>
<polygon fill="white" stroke="none" points="-4,4 -4,-78 564,-78 564,4 -4,4"/>
<!-- Node1 -->
<g id="node1" class="node"><title>Node1</title>
<polygon fill="#bfbfbf" stroke="black" points="0.5,-22 0.5,-52 163.5,-52 163.5,-22 0.5,-22"/>
<text text-anchor="start" x="8.5" y="-40" font-family="Helvetica,sans-Serif" font-size="10.00">view.editor.TabViewController.is</text>
<text text-anchor="middle" x="82" y="-29" font-family="Helvetica,sans-Serif" font-size="10.00">Level</text>
</g>
<!-- Node2 -->
<g id="node2" class="node"><title>Node2</title>
<g id="a_node2"><a xlink:href="../../d0/d5f/classmodel_1_1state_1_1_level_identifier.html#a6fe1f55885e5fc0a7f35f423ad5b7533" target="_top" xlink:title="model.state.LevelIdentifier.equals">
<polygon fill="white" stroke="black" points="200.5,-49.5 200.5,-68.5 377.5,-68.5 377.5,-49.5 200.5,-49.5"/>
<text text-anchor="middle" x="289" y="-56.5" font-family="Helvetica,sans-Serif" font-size="10.00">model.state.LevelIdentifier.equals</text>
</a>
</g>
</g>
<!-- Node1&#45;&gt;Node2 -->
<g id="edge1" class="edge"><title>Node1&#45;&gt;Node2</title>
<path fill="none" stroke="midnightblue" d="M163.727,-45.6634C172.438,-46.5982 181.368,-47.5566 190.251,-48.5099"/>
<polygon fill="midnightblue" stroke="midnightblue" points="189.929,-51.9953 200.246,-49.5825 190.676,-45.0353 189.929,-51.9953"/>
</g>
<!-- Node4 -->
<g id="node4" class="node"><title>Node4</title>
<g id="a_node4"><a xlink:href="../../d2/de7/classmodel_1_1state_1_1_level_state.html#a3e96e406cee034b7971a9cd043b53aa9" target="_top" xlink:title="model.state.LevelState.get\lIdentifier">
<polygon fill="white" stroke="black" points="215.5,-0 215.5,-30 362.5,-30 362.5,-0 215.5,-0"/>
<text text-anchor="start" x="223.5" y="-18" font-family="Helvetica,sans-Serif" font-size="10.00">model.state.LevelState.get</text>
<text text-anchor="middle" x="289" y="-7" font-family="Helvetica,sans-Serif" font-size="10.00">Identifier</text>
</a>
</g>
</g>
<!-- Node1&#45;&gt;Node4 -->
<g id="edge3" class="edge"><title>Node1&#45;&gt;Node4</title>
<path fill="none" stroke="midnightblue" d="M163.727,-28.3366C177.299,-26.8802 191.404,-25.3664 205.031,-23.904"/>
<polygon fill="midnightblue" stroke="midnightblue" points="205.772,-27.3446 215.341,-22.7975 205.025,-20.3846 205.772,-27.3446"/>
</g>
<!-- Node3 -->
<g id="node3" class="node"><title>Node3</title>
<g id="a_node3"><a xlink:href="../../d0/d5f/classmodel_1_1state_1_1_level_identifier.html#a768df1c5878d2273ef19f6d9a7aa5aad" target="_top" xlink:title="model.state.LevelIdentifier.\lLevelIdentifier">
<polygon fill="white" stroke="black" points="414,-44 414,-74 560,-74 560,-44 414,-44"/>
<text text-anchor="start" x="422" y="-62" font-family="Helvetica,sans-Serif" font-size="10.00">model.state.LevelIdentifier.</text>
<text text-anchor="middle" x="487" y="-51" font-family="Helvetica,sans-Serif" font-size="10.00">LevelIdentifier</text>
</a>
</g>
</g>
<!-- Node2&#45;&gt;Node3 -->
<g id="edge2" class="edge"><title>Node2&#45;&gt;Node3</title>
<path fill="none" stroke="midnightblue" d="M377.681,-59C386.399,-59 395.227,-59 403.885,-59"/>
<polygon fill="midnightblue" stroke="midnightblue" points="403.954,-62.5001 413.954,-59 403.954,-55.5001 403.954,-62.5001"/>
</g>
</g>
</svg>
