<?xml version="1.0" encoding="UTF-8" standalone="no"?>
<!DOCTYPE svg PUBLIC "-//W3C//DTD SVG 1.1//EN"
 "http://www.w3.org/Graphics/SVG/1.1/DTD/svg11.dtd">
<!-- Generated by graphviz version 2.36.0 (20140111.2315)
 -->
<!-- Title: view.GUILoadStyleUtility.generateGUIPane Pages: 1 -->
<!--zoomable 523 -->
<svg id="main" version="1.1" xmlns="http://www.w3.org/2000/svg" xmlns:xlink="http://www.w3.org/1999/xlink" xml:space="preserve" onload="init(evt)">
<style type="text/css"><![CDATA[
.edge:hover path { stroke: red; }
.edge:hover polygon { stroke: red; fill: red; }
]]></style>
<script type="text/javascript"><![CDATA[
var edges = document.getElementsByTagName('g');
if (edges && edges.length) {
  for (var i=0;i<edges.length;i++) {
    if (edges[i].id.substr(0,4)=='edge') {
      edges[i].setAttribute('class','edge');
    }
  }
}
]]></script>
        <defs>
                <circle id="rim" cx="0" cy="0" r="7"/>
                <circle id="rim2" cx="0" cy="0" r="3.5"/>
                <g id="zoomPlus">
                        <use xlink:href="#rim" fill="#404040">
                                <set attributeName="fill" to="#808080" begin="zoomplus.mouseover" end="zoomplus.mouseout"/>
                        </use>
                        <path d="M-4,0h8M0,-4v8" fill="none" stroke="white" stroke-width="1.5" pointer-events="none"/>
                </g>
                <g id="zoomMin">
                        <use xlink:href="#rim" fill="#404040">
                                <set attributeName="fill" to="#808080" begin="zoomminus.mouseover" end="zoomminus.mouseout"/>
                        </use>
                        <path d="M-4,0h8" fill="none" stroke="white" stroke-width="1.5" pointer-events="none"/>
                </g>
                <g id="dirArrow">
                        <path fill="none" stroke="white" stroke-width="1.5" d="M0,-3.0v7 M-2.5,-0.5L0,-3.0L2.5,-0.5"/>
                </g>
               <g id="resetDef">
                       <use xlink:href="#rim2" fill="#404040">
                               <set attributeName="fill" to="#808080" begin="reset.mouseover" end="reset.mouseout"/>
                       </use>
               </g>
        </defs>

<script type="text/javascript">
var viewWidth = 1446;
var viewHeight = 523;
var sectionId = 'dynsection-3';
</script>
<script xlink:href="../../svgpan.js"/>
<svg id="graph" class="graph">
<g id="viewport">
<title>view.GUILoadStyleUtility.generateGUIPane</title>
<polygon fill="white" stroke="none" points="-4,4 -4,-519 1442,-519 1442,4 -4,4"/>
<!-- Node1 -->
<g id="node1" class="node"><title>Node1</title>
<polygon fill="#bfbfbf" stroke="black" points="0,-411 0,-441 176,-441 176,-411 0,-411"/>
<text text-anchor="start" x="8" y="-429" font-family="Helvetica,sans-Serif" font-size="10.00">view.GUILoadStyleUtility.generate</text>
<text text-anchor="middle" x="88" y="-418" font-family="Helvetica,sans-Serif" font-size="10.00">GUIPane</text>
</g>
<!-- Node2 -->
<g id="node2" class="node"><title>Node2</title>
<g id="a_node2"><a xlink:href="../../dc/d5c/classeditor_1_1_editor_screen.html#a9fec11d30bd430472af8e052596c4c89" target="_top" xlink:title="editor.EditorScreen.create\lNewTab">
<polygon fill="white" stroke="black" points="217,-470 217,-500 359,-500 359,-470 217,-470"/>
<text text-anchor="start" x="225" y="-488" font-family="Helvetica,sans-Serif" font-size="10.00">editor.EditorScreen.create</text>
<text text-anchor="middle" x="288" y="-477" font-family="Helvetica,sans-Serif" font-size="10.00">NewTab</text>
</a>
</g>
</g>
<!-- Node1&#45;&gt;Node2 -->
<g id="edge1" class="edge"><title>Node1&#45;&gt;Node2</title>
<path fill="none" stroke="midnightblue" d="M149.143,-443.921C177.105,-452.254 209.983,-462.05 236.616,-469.987"/>
<polygon fill="midnightblue" stroke="midnightblue" points="150.059,-440.542 139.476,-441.041 148.06,-447.251 150.059,-440.542"/>
</g>
<!-- Node6 -->
<g id="node6" class="node"><title>Node6</title>
<g id="a_node6"><a xlink:href="../../d1/d75/classview_1_1_main_view.html#ae3323ce0c06f6bec70ad15398d343061" target="_top" xlink:title="view.MainView.launchScreen">
<polygon fill="white" stroke="black" points="212.5,-416.5 212.5,-435.5 363.5,-435.5 363.5,-416.5 212.5,-416.5"/>
<text text-anchor="middle" x="288" y="-423.5" font-family="Helvetica,sans-Serif" font-size="10.00">view.MainView.launchScreen</text>
</a>
</g>
</g>
<!-- Node1&#45;&gt;Node6 -->
<g id="edge5" class="edge"><title>Node1&#45;&gt;Node6</title>
<path fill="none" stroke="midnightblue" d="M186.329,-426C195.034,-426 203.756,-426 212.226,-426"/>
<polygon fill="midnightblue" stroke="midnightblue" points="186.134,-422.5 176.134,-426 186.134,-429.5 186.134,-422.5"/>
</g>
<!-- Node7 -->
<g id="node7" class="node"><title>Node7</title>
<g id="a_node7"><a xlink:href="../../dc/d5a/classview_1_1_wizard_utility.html#a7df411758a1fe47f34f7372db53355bf" target="_top" xlink:title="view.WizardUtility.loadWizard">
<polygon fill="white" stroke="black" points="212.5,-348.5 212.5,-367.5 363.5,-367.5 363.5,-348.5 212.5,-348.5"/>
<text text-anchor="middle" x="288" y="-355.5" font-family="Helvetica,sans-Serif" font-size="10.00">view.WizardUtility.loadWizard</text>
</a>
</g>
</g>
<!-- Node1&#45;&gt;Node7 -->
<g id="edge6" class="edge"><title>Node1&#45;&gt;Node7</title>
<path fill="none" stroke="midnightblue" d="M142.727,-407.548C180.294,-394.646 228.946,-377.938 259.058,-367.596"/>
<polygon fill="midnightblue" stroke="midnightblue" points="141.264,-404.35 132.943,-410.909 143.537,-410.971 141.264,-404.35"/>
</g>
<!-- Node3 -->
<g id="node3" class="node"><title>Node3</title>
<g id="a_node3"><a xlink:href="../../dc/d5c/classeditor_1_1_editor_screen.html#a6507f3b4db362b2b3110e33019e3abf8" target="_top" xlink:title="editor.EditorScreen.launchTab">
<polygon fill="white" stroke="black" points="424,-490.5 424,-509.5 582,-509.5 582,-490.5 424,-490.5"/>
<text text-anchor="middle" x="503" y="-497.5" font-family="Helvetica,sans-Serif" font-size="10.00">editor.EditorScreen.launchTab</text>
</a>
</g>
</g>
<!-- Node2&#45;&gt;Node3 -->
<g id="edge2" class="edge"><title>Node2&#45;&gt;Node3</title>
<path fill="none" stroke="midnightblue" d="M369.147,-490.644C387.045,-491.905 406.002,-493.24 423.819,-494.494"/>
<polygon fill="midnightblue" stroke="midnightblue" points="369.26,-487.144 359.039,-489.932 368.769,-494.126 369.26,-487.144"/>
</g>
<!-- Node4 -->
<g id="node4" class="node"><title>Node4</title>
<g id="a_node4"><a xlink:href="../../dc/d5c/classeditor_1_1_editor_screen.html#a6e24378bdf2713de4dbc530d63d5782e" target="_top" xlink:title="editor.EditorScreen.init\lProjectExplorer">
<polygon fill="white" stroke="black" points="687.5,-485 687.5,-515 812.5,-515 812.5,-485 687.5,-485"/>
<text text-anchor="start" x="695.5" y="-503" font-family="Helvetica,sans-Serif" font-size="10.00">editor.EditorScreen.init</text>
<text text-anchor="middle" x="750" y="-492" font-family="Helvetica,sans-Serif" font-size="10.00">ProjectExplorer</text>
</a>
</g>
</g>
<!-- Node3&#45;&gt;Node4 -->
<g id="edge3" class="edge"><title>Node3&#45;&gt;Node4</title>
<path fill="none" stroke="midnightblue" d="M592.302,-500C623.829,-500 658.641,-500 687.429,-500"/>
<polygon fill="midnightblue" stroke="midnightblue" points="592.193,-496.5 582.193,-500 592.193,-503.5 592.193,-496.5"/>
</g>
<!-- Node5 -->
<g id="node5" class="node"><title>Node5</title>
<g id="a_node5"><a xlink:href="../../dc/d5c/classeditor_1_1_editor_screen.html#a85668e9b3fd80cec58fa6b207854e588" target="_top" xlink:title="editor.EditorScreen.init">
<polygon fill="white" stroke="black" points="921.5,-490.5 921.5,-509.5 1046.5,-509.5 1046.5,-490.5 921.5,-490.5"/>
<text text-anchor="middle" x="984" y="-497.5" font-family="Helvetica,sans-Serif" font-size="10.00">editor.EditorScreen.init</text>
</a>
</g>
</g>
<!-- Node4&#45;&gt;Node5 -->
<g id="edge4" class="edge"><title>Node4&#45;&gt;Node5</title>
<path fill="none" stroke="midnightblue" d="M822.605,-500C854.138,-500 890.827,-500 921.15,-500"/>
<polygon fill="midnightblue" stroke="midnightblue" points="822.563,-496.5 812.563,-500 822.563,-503.5 822.563,-496.5"/>
</g>
<!-- Node8 -->
<g id="node8" class="node"><title>Node8</title>
<g id="a_node8"><a xlink:href="../../d1/d74/classeditor_1_1_editor_menu_bar_controller.html#a2d9698f478e5ca6464fa390bf1eb3a05" target="_top" xlink:title="editor.EditorMenuBarController.on\lNewLevelClick">
<polygon fill="white" stroke="black" points="414,-441 414,-471 592,-471 592,-441 414,-441"/>
<text text-anchor="start" x="422" y="-459" font-family="Helvetica,sans-Serif" font-size="10.00">editor.EditorMenuBarController.on</text>
<text text-anchor="middle" x="503" y="-448" font-family="Helvetica,sans-Serif" font-size="10.00">NewLevelClick</text>
</a>
</g>
</g>
<!-- Node7&#45;&gt;Node8 -->
<g id="edge7" class="edge"><title>Node7&#45;&gt;Node8</title>
<path fill="none" stroke="midnightblue" d="M312.237,-373.103C327.069,-382.762 346.692,-395.577 364,-407 380.049,-417.592 382.396,-423.261 400,-431 408.679,-434.815 418.041,-438.112 427.45,-440.944"/>
<polygon fill="midnightblue" stroke="midnightblue" points="313.976,-370.058 303.685,-367.537 310.157,-375.925 313.976,-370.058"/>
</g>
<!-- Node11 -->
<g id="node11" class="node"><title>Node11</title>
<g id="a_node11"><a xlink:href="../../d1/d74/classeditor_1_1_editor_menu_bar_controller.html#a3537dbc6abb354eba1673ec6ab94e7fa" target="_top" xlink:title="editor.EditorMenuBarController.on\lNewCampaignClick">
<polygon fill="white" stroke="black" points="414,-392 414,-422 592,-422 592,-392 414,-392"/>
<text text-anchor="start" x="422" y="-410" font-family="Helvetica,sans-Serif" font-size="10.00">editor.EditorMenuBarController.on</text>
<text text-anchor="middle" x="503" y="-399" font-family="Helvetica,sans-Serif" font-size="10.00">NewCampaignClick</text>
</a>
</g>
</g>
<!-- Node7&#45;&gt;Node11 -->
<g id="edge10" class="edge"><title>Node7&#45;&gt;Node11</title>
<path fill="none" stroke="midnightblue" d="M340.208,-369.78C369.108,-376.429 405.524,-384.806 436.486,-391.929"/>
<polygon fill="midnightblue" stroke="midnightblue" points="340.851,-366.337 330.321,-367.506 339.282,-373.159 340.851,-366.337"/>
</g>
<!-- Node12 -->
<g id="node12" class="node"><title>Node12</title>
<g id="a_node12"><a xlink:href="../../d4/dcd/classeditor_1_1_element_accordion_controller.html#ad10a71c849382067fbb1f4140841ab0d" target="_top" xlink:title="editor.ElementAccordionController.open\lGameElementWizard">
<polygon fill="white" stroke="black" points="400,-343 400,-373 606,-373 606,-343 400,-343"/>
<text text-anchor="start" x="408" y="-361" font-family="Helvetica,sans-Serif" font-size="10.00">editor.ElementAccordionController.open</text>
<text text-anchor="middle" x="503" y="-350" font-family="Helvetica,sans-Serif" font-size="10.00">GameElementWizard</text>
</a>
</g>
</g>
<!-- Node7&#45;&gt;Node12 -->
<g id="edge12" class="edge"><title>Node7&#45;&gt;Node12</title>
<path fill="none" stroke="midnightblue" d="M374.003,-358C382.461,-358 391.106,-358 399.715,-358"/>
<polygon fill="midnightblue" stroke="midnightblue" points="373.796,-354.5 363.796,-358 373.796,-361.5 373.796,-354.5"/>
</g>
<!-- Node17 -->
<g id="node17" class="node"><title>Node17</title>
<g id="a_node17"><a xlink:href="../../df/d32/classeditor_1_1_tab_view_controller.html#a07885d5b594264a4359221e99b50c6cf" target="_top" xlink:title="editor.TabViewController.launch\lNestedWizard">
<polygon fill="white" stroke="black" points="421,-294 421,-324 585,-324 585,-294 421,-294"/>
<text text-anchor="start" x="429" y="-312" font-family="Helvetica,sans-Serif" font-size="10.00">editor.TabViewController.launch</text>
<text text-anchor="middle" x="503" y="-301" font-family="Helvetica,sans-Serif" font-size="10.00">NestedWizard</text>
</a>
</g>
</g>
<!-- Node7&#45;&gt;Node17 -->
<g id="edge18" class="edge"><title>Node7&#45;&gt;Node17</title>
<path fill="none" stroke="midnightblue" d="M340.208,-346.22C369.108,-339.571 405.524,-331.194 436.486,-324.071"/>
<polygon fill="midnightblue" stroke="midnightblue" points="339.282,-342.841 330.321,-348.494 340.851,-349.663 339.282,-342.841"/>
</g>
<!-- Node19 -->
<g id="node19" class="node"><title>Node19</title>
<g id="a_node19"><a xlink:href="../../df/d00/classeditor_1_1wizards_1_1_drawable_game_element_wizard.html#a849fae12a564cb486dcbf52e25e30333" target="_top" xlink:title="editor.wizards.DrawableGame\lElementWizard.launchNestedWizard">
<polygon fill="white" stroke="black" points="409,-223 409,-253 597,-253 597,-223 409,-223"/>
<text text-anchor="start" x="417" y="-241" font-family="Helvetica,sans-Serif" font-size="10.00">editor.wizards.DrawableGame</text>
<text text-anchor="middle" x="503" y="-230" font-family="Helvetica,sans-Serif" font-size="10.00">ElementWizard.launchNestedWizard</text>
</a>
</g>
</g>
<!-- Node7&#45;&gt;Node19 -->
<g id="edge20" class="edge"><title>Node7&#45;&gt;Node19</title>
<path fill="none" stroke="midnightblue" d="M310.102,-342.409C331.958,-326.629 367.413,-302.05 400,-284 420.732,-272.517 444.869,-261.531 464.457,-253.177"/>
<polygon fill="midnightblue" stroke="midnightblue" points="307.911,-339.675 301.886,-348.39 312.03,-345.334 307.911,-339.675"/>
</g>
<!-- Node24 -->
<g id="node24" class="node"><title>Node24</title>
<g id="a_node24"><a xlink:href="../../d0/d1b/classeditor_1_1wizards_1_1_game_element_wizard.html#a9f86dd25fe1908a497cc076771e5bcec" target="_top" xlink:title="editor.wizards.GameElement\lWizard.launchNestedWizard">
<polygon fill="white" stroke="black" points="426,-74 426,-104 580,-104 580,-74 426,-74"/>
<text text-anchor="start" x="434" y="-92" font-family="Helvetica,sans-Serif" font-size="10.00">editor.wizards.GameElement</text>
<text text-anchor="middle" x="503" y="-81" font-family="Helvetica,sans-Serif" font-size="10.00">Wizard.launchNestedWizard</text>
</a>
</g>
</g>
<!-- Node7&#45;&gt;Node24 -->
<g id="edge27" class="edge"><title>Node7&#45;&gt;Node24</title>
<path fill="none" stroke="midnightblue" d="M302.341,-340.16C322.988,-312.644 364.055,-258.29 400,-213 431.539,-173.261 469.787,-127.353 489.265,-104.132"/>
<polygon fill="midnightblue" stroke="midnightblue" points="299.354,-338.309 296.159,-348.41 304.956,-342.507 299.354,-338.309"/>
</g>
<!-- Node9 -->
<g id="node9" class="node"><title>Node9</title>
<g id="a_node9"><a xlink:href="../../d1/d74/classeditor_1_1_editor_menu_bar_controller.html#a4263ec1503bc67c1ee7293d6fa303ab0" target="_top" xlink:title="editor.EditorMenuBarController.init\lFileMenu">
<polygon fill="white" stroke="black" points="660,-425 660,-455 840,-455 840,-425 660,-425"/>
<text text-anchor="start" x="668" y="-443" font-family="Helvetica,sans-Serif" font-size="10.00">editor.EditorMenuBarController.init</text>
<text text-anchor="middle" x="750" y="-432" font-family="Helvetica,sans-Serif" font-size="10.00">FileMenu</text>
</a>
</g>
</g>
<!-- Node8&#45;&gt;Node9 -->
<g id="edge8" class="edge"><title>Node8&#45;&gt;Node9</title>
<path fill="none" stroke="midnightblue" d="M602.237,-449.585C621.195,-448.346 640.96,-447.056 659.618,-445.837"/>
<polygon fill="midnightblue" stroke="midnightblue" points="601.855,-446.102 592.104,-450.246 602.311,-453.087 601.855,-446.102"/>
</g>
<!-- Node10 -->
<g id="node10" class="node"><title>Node10</title>
<g id="a_node10"><a xlink:href="../../d1/d74/classeditor_1_1_editor_menu_bar_controller.html#a5e27bce310879b43b5726c8b90f98743" target="_top" xlink:title="editor.EditorMenuBarController.init">
<polygon fill="white" stroke="black" points="894,-430.5 894,-449.5 1074,-449.5 1074,-430.5 894,-430.5"/>
<text text-anchor="middle" x="984" y="-437.5" font-family="Helvetica,sans-Serif" font-size="10.00">editor.EditorMenuBarController.init</text>
</a>
</g>
</g>
<!-- Node9&#45;&gt;Node10 -->
<g id="edge9" class="edge"><title>Node9&#45;&gt;Node10</title>
<path fill="none" stroke="midnightblue" d="M850.034,-440C864.58,-440 879.49,-440 893.821,-440"/>
<polygon fill="midnightblue" stroke="midnightblue" points="850.034,-436.5 840.034,-440 850.034,-443.5 850.034,-436.5"/>
</g>
<!-- Node11&#45;&gt;Node9 -->
<g id="edge11" class="edge"><title>Node11&#45;&gt;Node9</title>
<path fill="none" stroke="midnightblue" d="M602.237,-420.232C621.195,-422.785 640.96,-425.448 659.618,-427.961"/>
<polygon fill="midnightblue" stroke="midnightblue" points="602.482,-416.733 592.104,-418.867 601.548,-423.671 602.482,-416.733"/>
</g>
<!-- Node13 -->
<g id="node13" class="node"><title>Node13</title>
<g id="a_node13"><a xlink:href="../../d4/dcd/classeditor_1_1_element_accordion_controller.html#a57a1b43f70896bbf2e27373594ba8810" target="_top" xlink:title="editor.ElementAccordionController.update\lItems">
<polygon fill="white" stroke="black" points="642,-354 642,-384 858,-384 858,-354 642,-354"/>
<text text-anchor="start" x="650" y="-372" font-family="Helvetica,sans-Serif" font-size="10.00">editor.ElementAccordionController.update</text>
<text text-anchor="middle" x="750" y="-361" font-family="Helvetica,sans-Serif" font-size="10.00">Items</text>
</a>
</g>
</g>
<!-- Node12&#45;&gt;Node13 -->
<g id="edge13" class="edge"><title>Node12&#45;&gt;Node13</title>
<path fill="none" stroke="midnightblue" d="M616.15,-363.035C624.723,-363.42 633.364,-363.808 641.903,-364.192"/>
<polygon fill="midnightblue" stroke="midnightblue" points="616.275,-359.537 606.128,-362.585 615.961,-366.53 616.275,-359.537"/>
</g>
<!-- Node14 -->
<g id="node14" class="node"><title>Node14</title>
<g id="a_node14"><a xlink:href="../../dc/d5c/classeditor_1_1_editor_screen.html#a575ccd70c0dcc7565df86cc590de47ba" target="_top" xlink:title="editor.EditorScreen.update\lAccordion">
<polygon fill="white" stroke="black" points="911.5,-354 911.5,-384 1056.5,-384 1056.5,-354 911.5,-354"/>
<text text-anchor="start" x="919.5" y="-372" font-family="Helvetica,sans-Serif" font-size="10.00">editor.EditorScreen.update</text>
<text text-anchor="middle" x="984" y="-361" font-family="Helvetica,sans-Serif" font-size="10.00">Accordion</text>
</a>
</g>
</g>
<!-- Node13&#45;&gt;Node14 -->
<g id="edge14" class="edge"><title>Node13&#45;&gt;Node14</title>
<path fill="none" stroke="midnightblue" d="M868.341,-369C883.041,-369 897.712,-369 911.41,-369"/>
<polygon fill="midnightblue" stroke="midnightblue" points="868.172,-365.5 858.172,-369 868.172,-372.5 868.172,-365.5"/>
</g>
<!-- Node15 -->
<g id="node15" class="node"><title>Node15</title>
<g id="a_node15"><a xlink:href="../../dc/d5c/classeditor_1_1_editor_screen.html#ae17f78235329632f2090fdfb7b358a66" target="_top" xlink:title="editor.EditorScreen.update">
<polygon fill="white" stroke="black" points="1110.5,-359.5 1110.5,-378.5 1255.5,-378.5 1255.5,-359.5 1110.5,-359.5"/>
<text text-anchor="middle" x="1183" y="-366.5" font-family="Helvetica,sans-Serif" font-size="10.00">editor.EditorScreen.update</text>
</a>
</g>
</g>
<!-- Node14&#45;&gt;Node15 -->
<g id="edge15" class="edge"><title>Node14&#45;&gt;Node15</title>
<path fill="none" stroke="midnightblue" d="M1067.05,-369C1081.43,-369 1096.3,-369 1110.37,-369"/>
<polygon fill="midnightblue" stroke="midnightblue" points="1066.68,-365.5 1056.68,-369 1066.68,-372.5 1066.68,-365.5"/>
</g>
<!-- Node16 -->
<g id="node16" class="node"><title>Node16</title>
<g id="a_node16"><a xlink:href="../../dc/d5c/classeditor_1_1_editor_screen.html#a13378a8f469be9b38ba16457a64b7e9a" target="_top" xlink:title="editor.EditorScreen.update\lTabViewControllers">
<polygon fill="white" stroke="black" points="1292.5,-354 1292.5,-384 1437.5,-384 1437.5,-354 1292.5,-354"/>
<text text-anchor="start" x="1300.5" y="-372" font-family="Helvetica,sans-Serif" font-size="10.00">editor.EditorScreen.update</text>
<text text-anchor="middle" x="1365" y="-361" font-family="Helvetica,sans-Serif" font-size="10.00">TabViewControllers</text>
</a>
</g>
</g>
<!-- Node15&#45;&gt;Node16 -->
<g id="edge16" class="edge"><title>Node15&#45;&gt;Node16</title>
<path fill="none" stroke="midnightblue" d="M1265.92,-362.274C1274.72,-362.221 1283.63,-362.255 1292.29,-362.376"/>
<polygon fill="midnightblue" stroke="midnightblue" points="1265.62,-358.777 1255.66,-362.376 1265.69,-365.777 1265.62,-358.777"/>
</g>
<!-- Node16&#45;&gt;Node15 -->
<g id="edge17" class="edge"><title>Node16&#45;&gt;Node15</title>
<path fill="none" stroke="midnightblue" d="M1282.03,-375.726C1273.23,-375.779 1264.33,-375.745 1255.66,-375.624"/>
<polygon fill="midnightblue" stroke="midnightblue" points="1282.33,-379.223 1292.29,-375.624 1282.26,-372.224 1282.33,-379.223"/>
</g>
<!-- Node18 -->
<g id="node18" class="node"><title>Node18</title>
<g id="a_node18"><a xlink:href="../../df/d32/classeditor_1_1_tab_view_controller.html#ab01a2a957a5ee640a54b8115be502388" target="_top" xlink:title="editor.TabViewController.init">
<polygon fill="white" stroke="black" points="676.5,-315.5 676.5,-334.5 823.5,-334.5 823.5,-315.5 676.5,-315.5"/>
<text text-anchor="middle" x="750" y="-322.5" font-family="Helvetica,sans-Serif" font-size="10.00">editor.TabViewController.init</text>
</a>
</g>
</g>
<!-- Node17&#45;&gt;Node18 -->
<g id="edge19" class="edge"><title>Node17&#45;&gt;Node18</title>
<path fill="none" stroke="midnightblue" d="M595.356,-314.966C622.047,-316.709 650.852,-318.59 676.227,-320.247"/>
<polygon fill="midnightblue" stroke="midnightblue" points="595.448,-311.465 585.241,-314.306 594.992,-318.45 595.448,-311.465"/>
</g>
<!-- Node20 -->
<g id="node20" class="node"><title>Node20</title>
<g id="a_node20"><a xlink:href="../../df/d00/classeditor_1_1wizards_1_1_drawable_game_element_wizard.html#ab5f0bfe1cf0d3a5f7c22dcb96414396f" target="_top" xlink:title="editor.wizards.DrawableGame\lElementWizard.launchNumberAttribute\lEditor">
<polygon fill="white" stroke="black" points="648.5,-255.5 648.5,-296.5 851.5,-296.5 851.5,-255.5 648.5,-255.5"/>
<text text-anchor="start" x="656.5" y="-284.5" font-family="Helvetica,sans-Serif" font-size="10.00">editor.wizards.DrawableGame</text>
<text text-anchor="start" x="656.5" y="-273.5" font-family="Helvetica,sans-Serif" font-size="10.00">ElementWizard.launchNumberAttribute</text>
<text text-anchor="middle" x="750" y="-262.5" font-family="Helvetica,sans-Serif" font-size="10.00">Editor</text>
</a>
</g>
</g>
<!-- Node19&#45;&gt;Node20 -->
<g id="edge21" class="edge"><title>Node19&#45;&gt;Node20</title>
<path fill="none" stroke="midnightblue" d="M607.542,-254.06C620.999,-256.147 634.77,-258.283 648.182,-260.363"/>
<polygon fill="midnightblue" stroke="midnightblue" points="607.741,-250.549 597.323,-252.475 606.668,-257.466 607.741,-250.549"/>
</g>
<!-- Node22 -->
<g id="node22" class="node"><title>Node22</title>
<g id="a_node22"><a xlink:href="../../df/d00/classeditor_1_1wizards_1_1_drawable_game_element_wizard.html#a2b8f941d2303d331160cab825f9843c8" target="_top" xlink:title="editor.wizards.DrawableGame\lElementWizard.launchStringAttribute\lEditor">
<polygon fill="white" stroke="black" points="653.5,-195.5 653.5,-236.5 846.5,-236.5 846.5,-195.5 653.5,-195.5"/>
<text text-anchor="start" x="661.5" y="-224.5" font-family="Helvetica,sans-Serif" font-size="10.00">editor.wizards.DrawableGame</text>
<text text-anchor="start" x="661.5" y="-213.5" font-family="Helvetica,sans-Serif" font-size="10.00">ElementWizard.launchStringAttribute</text>
<text text-anchor="middle" x="750" y="-202.5" font-family="Helvetica,sans-Serif" font-size="10.00">Editor</text>
</a>
</g>
</g>
<!-- Node19&#45;&gt;Node22 -->
<g id="edge23" class="edge"><title>Node19&#45;&gt;Node22</title>
<path fill="none" stroke="midnightblue" d="M607.317,-228.723C622.63,-227.347 638.354,-225.936 653.498,-224.576"/>
<polygon fill="midnightblue" stroke="midnightblue" points="606.97,-225.24 597.323,-229.62 607.596,-232.212 606.97,-225.24"/>
</g>
<!-- Node23 -->
<g id="node23" class="node"><title>Node23</title>
<g id="a_node23"><a xlink:href="../../df/d00/classeditor_1_1wizards_1_1_drawable_game_element_wizard.html#a90f6d823fb35bc06074b361e109caebd" target="_top" xlink:title="editor.wizards.DrawableGame\lElementWizard.launchTriggerEditor">
<polygon fill="white" stroke="black" points="659,-147 659,-177 841,-177 841,-147 659,-147"/>
<text text-anchor="start" x="667" y="-165" font-family="Helvetica,sans-Serif" font-size="10.00">editor.wizards.DrawableGame</text>
<text text-anchor="middle" x="750" y="-154" font-family="Helvetica,sans-Serif" font-size="10.00">ElementWizard.launchTriggerEditor</text>
</a>
</g>
</g>
<!-- Node19&#45;&gt;Node23 -->
<g id="edge25" class="edge"><title>Node19&#45;&gt;Node23</title>
<path fill="none" stroke="midnightblue" d="M549.295,-219.103C575.967,-208.438 610.54,-195.405 642,-186 652.762,-182.783 664.246,-179.774 675.549,-177.048"/>
<polygon fill="midnightblue" stroke="midnightblue" points="547.811,-215.927 539.847,-222.913 550.43,-222.419 547.811,-215.927"/>
</g>
<!-- Node21 -->
<g id="node21" class="node"><title>Node21</title>
<g id="a_node21"><a xlink:href="../../df/d00/classeditor_1_1wizards_1_1_drawable_game_element_wizard.html#a7a37e4c518775da5c3d49fb7b1a7ff85" target="_top" xlink:title="editor.wizards.DrawableGame\lElementWizard.initialize">
<polygon fill="white" stroke="black" points="905,-201 905,-231 1063,-231 1063,-201 905,-201"/>
<text text-anchor="start" x="913" y="-219" font-family="Helvetica,sans-Serif" font-size="10.00">editor.wizards.DrawableGame</text>
<text text-anchor="middle" x="984" y="-208" font-family="Helvetica,sans-Serif" font-size="10.00">ElementWizard.initialize</text>
</a>
</g>
</g>
<!-- Node20&#45;&gt;Node21 -->
<g id="edge22" class="edge"><title>Node20&#45;&gt;Node21</title>
<path fill="none" stroke="midnightblue" d="M840.428,-252.872C868.747,-245.548 899.299,-237.647 924.829,-231.044"/>
<polygon fill="midnightblue" stroke="midnightblue" points="839.322,-249.543 830.517,-255.435 841.074,-256.32 839.322,-249.543"/>
</g>
<!-- Node22&#45;&gt;Node21 -->
<g id="edge24" class="edge"><title>Node22&#45;&gt;Node21</title>
<path fill="none" stroke="midnightblue" d="M856.736,-216C872.924,-216 889.381,-216 904.832,-216"/>
<polygon fill="midnightblue" stroke="midnightblue" points="856.703,-212.5 846.703,-216 856.703,-219.5 856.703,-212.5"/>
</g>
<!-- Node23&#45;&gt;Node21 -->
<g id="edge26" class="edge"><title>Node23&#45;&gt;Node21</title>
<path fill="none" stroke="midnightblue" d="M828.54,-179.249C838.46,-181.498 848.473,-183.788 858,-186 878.544,-190.769 900.954,-196.105 921.052,-200.94"/>
<polygon fill="midnightblue" stroke="midnightblue" points="829.199,-175.81 818.673,-177.019 827.656,-182.637 829.199,-175.81"/>
</g>
<!-- Node25 -->
<g id="node25" class="node"><title>Node25</title>
<g id="a_node25"><a xlink:href="../../d0/d1b/classeditor_1_1wizards_1_1_game_element_wizard.html#a36d16948cedf3264544e469103e9cb5b" target="_top" xlink:title="editor.wizards.GameElement\lWizard.launchNumberAttributeEditor">
<polygon fill="white" stroke="black" points="654.5,-98 654.5,-128 845.5,-128 845.5,-98 654.5,-98"/>
<text text-anchor="start" x="662.5" y="-116" font-family="Helvetica,sans-Serif" font-size="10.00">editor.wizards.GameElement</text>
<text text-anchor="middle" x="750" y="-105" font-family="Helvetica,sans-Serif" font-size="10.00">Wizard.launchNumberAttributeEditor</text>
</a>
</g>
</g>
<!-- Node24&#45;&gt;Node25 -->
<g id="edge28" class="edge"><title>Node24&#45;&gt;Node25</title>
<path fill="none" stroke="midnightblue" d="M590.219,-97.4459C610.949,-99.4766 633.203,-101.657 654.296,-103.723"/>
<polygon fill="midnightblue" stroke="midnightblue" points="590.47,-93.9539 580.177,-96.4622 589.788,-100.921 590.47,-93.9539"/>
</g>
<!-- Node27 -->
<g id="node27" class="node"><title>Node27</title>
<g id="a_node27"><a xlink:href="../../d0/d1b/classeditor_1_1wizards_1_1_game_element_wizard.html#a4b1d74e8098e7e3c7365c5da226fd046" target="_top" xlink:title="editor.wizards.GameElement\lWizard.launchStringAttributeEditor">
<polygon fill="white" stroke="black" points="659.5,-49 659.5,-79 840.5,-79 840.5,-49 659.5,-49"/>
<text text-anchor="start" x="667.5" y="-67" font-family="Helvetica,sans-Serif" font-size="10.00">editor.wizards.GameElement</text>
<text text-anchor="middle" x="750" y="-56" font-family="Helvetica,sans-Serif" font-size="10.00">Wizard.launchStringAttributeEditor</text>
</a>
</g>
</g>
<!-- Node24&#45;&gt;Node27 -->
<g id="edge30" class="edge"><title>Node24&#45;&gt;Node27</title>
<path fill="none" stroke="midnightblue" d="M590.287,-80.1952C612.587,-77.9197 636.646,-75.4647 659.124,-73.171"/>
<polygon fill="midnightblue" stroke="midnightblue" points="589.77,-76.7297 580.177,-81.2269 590.48,-83.6936 589.77,-76.7297"/>
</g>
<!-- Node28 -->
<g id="node28" class="node"><title>Node28</title>
<g id="a_node28"><a xlink:href="../../d0/d1b/classeditor_1_1wizards_1_1_game_element_wizard.html#ae40410b2e2c9ae8e176922013ead90d2" target="_top" xlink:title="editor.wizards.GameElement\lWizard.launchTriggerEditor">
<polygon fill="white" stroke="black" points="673,-0 673,-30 827,-30 827,-0 673,-0"/>
<text text-anchor="start" x="681" y="-18" font-family="Helvetica,sans-Serif" font-size="10.00">editor.wizards.GameElement</text>
<text text-anchor="middle" x="750" y="-7" font-family="Helvetica,sans-Serif" font-size="10.00">Wizard.launchTriggerEditor</text>
</a>
</g>
</g>
<!-- Node24&#45;&gt;Node28 -->
<g id="edge32" class="edge"><title>Node24&#45;&gt;Node28</title>
<path fill="none" stroke="midnightblue" d="M551.04,-70.2753C577.495,-60.1715 611.283,-47.9703 642,-39 652.965,-35.798 664.668,-32.7785 676.16,-30.032"/>
<polygon fill="midnightblue" stroke="midnightblue" points="549.719,-67.0334 541.645,-73.893 552.234,-73.5658 549.719,-67.0334"/>
</g>
<!-- Node26 -->
<g id="node26" class="node"><title>Node26</title>
<g id="a_node26"><a xlink:href="../../d0/d1b/classeditor_1_1wizards_1_1_game_element_wizard.html#a30d75eef840bd76d5d98533b084a341c" target="_top" xlink:title="editor.wizards.GameElement\lWizard.initialize">
<polygon fill="white" stroke="black" points="907,-49 907,-79 1061,-79 1061,-49 907,-49"/>
<text text-anchor="start" x="915" y="-67" font-family="Helvetica,sans-Serif" font-size="10.00">editor.wizards.GameElement</text>
<text text-anchor="middle" x="984" y="-56" font-family="Helvetica,sans-Serif" font-size="10.00">Wizard.initialize</text>
</a>
</g>
</g>
<!-- Node25&#45;&gt;Node26 -->
<g id="edge29" class="edge"><title>Node25&#45;&gt;Node26</title>
<path fill="none" stroke="midnightblue" d="M832.023,-95.8873C858.058,-90.3885 886.687,-84.342 911.95,-79.0062"/>
<polygon fill="midnightblue" stroke="midnightblue" points="831.245,-92.4744 822.184,-97.9654 832.692,-99.3233 831.245,-92.4744"/>
</g>
<!-- Node27&#45;&gt;Node26 -->
<g id="edge31" class="edge"><title>Node27&#45;&gt;Node26</title>
<path fill="none" stroke="midnightblue" d="M850.742,-64C869.497,-64 888.831,-64 906.73,-64"/>
<polygon fill="midnightblue" stroke="midnightblue" points="850.697,-60.5001 840.697,-64 850.697,-67.5001 850.697,-60.5001"/>
</g>
<!-- Node28&#45;&gt;Node26 -->
<g id="edge33" class="edge"><title>Node28&#45;&gt;Node26</title>
<path fill="none" stroke="midnightblue" d="M832.023,-32.1127C858.058,-37.6115 886.687,-43.658 911.95,-48.9938"/>
<polygon fill="midnightblue" stroke="midnightblue" points="832.692,-28.6767 822.184,-30.0346 831.245,-35.5256 832.692,-28.6767"/>
</g>
</g>
</svg>
        <g id="navigator" transform="translate(0 0)" fill="#404254">
                <rect fill="#f2f5e9" fill-opacity="0.5" stroke="#606060" stroke-width=".5" x="0" y="0" width="60" height="60"/>
                <use id="zoomplus" xlink:href="#zoomPlus" x="17" y="9" onmousedown="handleZoom(evt,'in')"/>
                <use id="zoomminus" xlink:href="#zoomMin" x="42" y="9" onmousedown="handleZoom(evt,'out')"/>
                <use id="reset" xlink:href="#resetDef" x="30" y="36" onmousedown="handleReset()"/>
                <g id="arrowUp" xlink:href="#dirArrow" transform="translate(30 24)" onmousedown="handlePan(0,-1)">
                  <use xlink:href="#rim" fill="#404040">
                        <set attributeName="fill" to="#808080" begin="arrowUp.mouseover" end="arrowUp.mouseout"/>
                  </use>
                  <path fill="none" stroke="white" stroke-width="1.5" d="M0,-3.0v7 M-2.5,-0.5L0,-3.0L2.5,-0.5"/>
                </g>
                <g id="arrowRight" xlink:href="#dirArrow" transform="rotate(90) translate(36 -43)" onmousedown="handlePan(1,0)">
                  <use xlink:href="#rim" fill="#404040">
                        <set attributeName="fill" to="#808080" begin="arrowRight.mouseover" end="arrowRight.mouseout"/>
                  </use>
                  <path fill="none" stroke="white" stroke-width="1.5" d="M0,-3.0v7 M-2.5,-0.5L0,-3.0L2.5,-0.5"/>
                </g>
                <g id="arrowDown" xlink:href="#dirArrow" transform="rotate(180) translate(-30 -48)" onmousedown="handlePan(0,1)">
                  <use xlink:href="#rim" fill="#404040">
                        <set attributeName="fill" to="#808080" begin="arrowDown.mouseover" end="arrowDown.mouseout"/>
                  </use>
                  <path fill="none" stroke="white" stroke-width="1.5" d="M0,-3.0v7 M-2.5,-0.5L0,-3.0L2.5,-0.5"/>
                </g>
                <g id="arrowLeft" xlink:href="#dirArrow" transform="rotate(270) translate(-36 17)" onmousedown="handlePan(-1,0)">
                  <use xlink:href="#rim" fill="#404040">
                        <set attributeName="fill" to="#808080" begin="arrowLeft.mouseover" end="arrowLeft.mouseout"/>
                  </use>
                  <path fill="none" stroke="white" stroke-width="1.5" d="M0,-3.0v7 M-2.5,-0.5L0,-3.0L2.5,-0.5"/>
                </g>
        </g>
        <svg viewBox="0 0 15 15" width="100%" height="30px" preserveAspectRatio="xMaxYMin meet">
         <g id="arrow_out" transform="scale(0.3 0.3)">
          <a xlink:href="classview_1_1_g_u_i_load_style_utility_a3f0bdbc7239563c54aa365afd86f620d_icgraph_org.svg" target="_base">
           <rect id="button" ry="5" rx="5" y="6" x="6" height="38" width="38"
                fill="#f2f5e9" fill-opacity="0.5" stroke="#606060" stroke-width="1.0"/>
           <path id="arrow"
             d="M 11.500037,31.436501 C 11.940474,20.09759 22.043105,11.32322 32.158766,21.979434 L 37.068811,17.246167 C 37.068811,17.246167 37.088388,32 37.088388,32 L 22.160133,31.978069 C 22.160133,31.978069 26.997745,27.140456 26.997745,27.140456 C 18.528582,18.264221 13.291696,25.230495 11.500037,31.436501 z"
             style="fill:#404040;"/>
          </a>
         </g>
        </svg>
</svg>
