<?xml version="1.0" encoding="UTF-8" standalone="no"?>
<!DOCTYPE svg PUBLIC "-//W3C//DTD SVG 1.1//EN"
 "http://www.w3.org/Graphics/SVG/1.1/DTD/svg11.dtd">
<!-- Generated by graphviz version 2.36.0 (20140111.2315)
 -->
<!-- Title: editor.EditorScreen.updateProjectExplorer Pages: 1 -->
<svg width="586pt" height="170pt"
 viewBox="0.00 0.00 586.00 170.00" xmlns="http://www.w3.org/2000/svg" xmlns:xlink="http://www.w3.org/1999/xlink">
<g id="graph0" class="graph" transform="scale(1 1) rotate(0) translate(4 166)">
<title>editor.EditorScreen.updateProjectExplorer</title>
<polygon fill="white" stroke="none" points="-4,4 -4,-166 582,-166 582,4 -4,4"/>
<!-- Node1 -->
<g id="node1" class="node"><title>Node1</title>
<polygon fill="#bfbfbf" stroke="black" points="0.5,-66 0.5,-96 145.5,-96 145.5,-66 0.5,-66"/>
<text text-anchor="start" x="8.5" y="-84" font-family="Helvetica,sans-Serif" font-size="10.00">editor.EditorScreen.update</text>
<text text-anchor="middle" x="73" y="-73" font-family="Helvetica,sans-Serif" font-size="10.00">ProjectExplorer</text>
</g>
<!-- Node2 -->
<g id="node2" class="node"><title>Node2</title>
<g id="a_node2"><a xlink:href="../../df/ddb/classgame__engine_1_1game_representation_1_1state_representation_1_1_game_state.html#a6f29506b70f4a31135a03b9b011af828" target="_top" xlink:title="game_engine.gameRepresentation.state\lRepresentation.GameState.getCampaigns">
<polygon fill="white" stroke="black" points="183,-132 183,-162 403,-162 403,-132 183,-132"/>
<text text-anchor="start" x="191" y="-150" font-family="Helvetica,sans-Serif" font-size="10.00">game_engine.gameRepresentation.state</text>
<text text-anchor="middle" x="293" y="-139" font-family="Helvetica,sans-Serif" font-size="10.00">Representation.GameState.getCampaigns</text>
</a>
</g>
</g>
<!-- Node1&#45;&gt;Node2 -->
<g id="edge1" class="edge"><title>Node1&#45;&gt;Node2</title>
<path fill="none" stroke="midnightblue" d="M110.058,-96.1335C130.846,-104.492 157.616,-114.64 182,-122 190.743,-124.639 199.951,-127.146 209.164,-129.482"/>
<polygon fill="midnightblue" stroke="midnightblue" points="208.594,-132.946 219.142,-131.947 210.273,-126.151 208.594,-132.946"/>
</g>
<!-- Node3 -->
<g id="node3" class="node"><title>Node3</title>
<g id="a_node3"><a xlink:href="../../da/d8d/classgamemodel_1_1_main_model.html#a4b668db5374774a4f3af7230e274df26" target="_top" xlink:title="gamemodel.MainModel.getCurrentGame">
<polygon fill="white" stroke="black" points="187,-93.5 187,-112.5 399,-112.5 399,-93.5 187,-93.5"/>
<text text-anchor="middle" x="293" y="-100.5" font-family="Helvetica,sans-Serif" font-size="10.00">gamemodel.MainModel.getCurrentGame</text>
</a>
</g>
</g>
<!-- Node1&#45;&gt;Node3 -->
<g id="edge2" class="edge"><title>Node1&#45;&gt;Node3</title>
<path fill="none" stroke="midnightblue" d="M145.683,-88.2341C159.065,-89.5845 173.299,-91.021 187.434,-92.4475"/>
<polygon fill="midnightblue" stroke="midnightblue" points="187.395,-95.9612 197.696,-93.4831 188.098,-88.9966 187.395,-95.9612"/>
</g>
<!-- Node4 -->
<g id="node4" class="node"><title>Node4</title>
<g id="a_node4"><a xlink:href="../../da/d2f/classgame__engine_1_1game_representation_1_1state_representation_1_1_describable_state.html#a9f8b1e677c899d1ab9af302a9f4854f3" target="_top" xlink:title="game_engine.gameRepresentation.state\lRepresentation.DescribableState.getName">
<polygon fill="white" stroke="black" points="182,-44 182,-74 404,-74 404,-44 182,-44"/>
<text text-anchor="start" x="190" y="-62" font-family="Helvetica,sans-Serif" font-size="10.00">game_engine.gameRepresentation.state</text>
<text text-anchor="middle" x="293" y="-51" font-family="Helvetica,sans-Serif" font-size="10.00">Representation.DescribableState.getName</text>
</a>
</g>
</g>
<!-- Node1&#45;&gt;Node4 -->
<g id="edge3" class="edge"><title>Node1&#45;&gt;Node4</title>
<path fill="none" stroke="midnightblue" d="M145.683,-73.7659C154.159,-72.9106 162.977,-72.0207 171.895,-71.1207"/>
<polygon fill="midnightblue" stroke="midnightblue" points="172.395,-74.5881 181.993,-70.1016 171.692,-67.6234 172.395,-74.5881"/>
</g>
<!-- Node5 -->
<g id="node5" class="node"><title>Node5</title>
<g id="a_node5"><a xlink:href="../../d8/d0e/classeditor_1_1_project_explorer_controller.html#aaeb41fd72e4664431285b2b28e9c39ed" target="_top" xlink:title="editor.ProjectExplorerController.update">
<polygon fill="white" stroke="black" points="192.5,-5.5 192.5,-24.5 393.5,-24.5 393.5,-5.5 192.5,-5.5"/>
<text text-anchor="middle" x="293" y="-12.5" font-family="Helvetica,sans-Serif" font-size="10.00">editor.ProjectExplorerController.update</text>
</a>
</g>
</g>
<!-- Node1&#45;&gt;Node5 -->
<g id="edge4" class="edge"><title>Node1&#45;&gt;Node5</title>
<path fill="none" stroke="midnightblue" d="M104.514,-65.8374C125.781,-55.8121 155.06,-43.076 182,-35 192.857,-31.7452 204.485,-28.9347 215.966,-26.5351"/>
<polygon fill="midnightblue" stroke="midnightblue" points="216.875,-29.9228 225.995,-24.5312 215.503,-23.0584 216.875,-29.9228"/>
</g>
<!-- Node6 -->
<g id="node6" class="node"><title>Node6</title>
<g id="a_node6"><a xlink:href="../../d3/dd8/classeditor_1_1_project_explorer_tree_item.html#ac6e7629dec19bbe5e3b3957b944a8ba5" target="_top" xlink:title="editor.ProjectExplorerTree\lItem.setAction">
<polygon fill="white" stroke="black" points="440,-0 440,-30 578,-30 578,-0 440,-0"/>
<text text-anchor="start" x="448" y="-18" font-family="Helvetica,sans-Serif" font-size="10.00">editor.ProjectExplorerTree</text>
<text text-anchor="middle" x="509" y="-7" font-family="Helvetica,sans-Serif" font-size="10.00">Item.setAction</text>
</a>
</g>
</g>
<!-- Node5&#45;&gt;Node6 -->
<g id="edge5" class="edge"><title>Node5&#45;&gt;Node6</title>
<path fill="none" stroke="midnightblue" d="M393.795,-15C405.847,-15 418.021,-15 429.702,-15"/>
<polygon fill="midnightblue" stroke="midnightblue" points="429.826,-18.5001 439.825,-15 429.825,-11.5001 429.826,-18.5001"/>
</g>
</g>
</svg>
