<?xml version="1.0" encoding="UTF-8" standalone="no"?>
<!DOCTYPE svg PUBLIC "-//W3C//DTD SVG 1.1//EN"
 "http://www.w3.org/Graphics/SVG/1.1/DTD/svg11.dtd">
<!-- Generated by graphviz version 2.36.0 (20140111.2315)
 -->
<!-- Title: editor.EditorScreen.loadWizard Pages: 1 -->
<svg width="498pt" height="87pt"
 viewBox="0.00 0.00 498.00 87.00" xmlns="http://www.w3.org/2000/svg" xmlns:xlink="http://www.w3.org/1999/xlink">
<g id="graph0" class="graph" transform="scale(1 1) rotate(0) translate(4 83)">
<title>editor.EditorScreen.loadWizard</title>
<polygon fill="white" stroke="none" points="-4,4 -4,-83 494,-83 494,4 -4,4"/>
<!-- Node1 -->
<g id="node1" class="node"><title>Node1</title>
<polygon fill="#bfbfbf" stroke="black" points="0.5,-24 0.5,-54 131.5,-54 131.5,-24 0.5,-24"/>
<text text-anchor="start" x="8.5" y="-42" font-family="Helvetica,sans-Serif" font-size="10.00">editor.EditorScreen.load</text>
<text text-anchor="middle" x="66" y="-31" font-family="Helvetica,sans-Serif" font-size="10.00">Wizard</text>
</g>
<!-- Node2 -->
<g id="node2" class="node"><title>Node2</title>
<g id="a_node2"><a xlink:href="../../dc/d5c/classeditor_1_1_editor_screen.html#a9d2750eb19eeba62360576825c264ae8" target="_top" xlink:title="editor.EditorScreen.open\lGameElementWizard">
<polygon fill="white" stroke="black" points="168.5,-49 168.5,-79 303.5,-79 303.5,-49 168.5,-49"/>
<text text-anchor="start" x="176.5" y="-67" font-family="Helvetica,sans-Serif" font-size="10.00">editor.EditorScreen.open</text>
<text text-anchor="middle" x="236" y="-56" font-family="Helvetica,sans-Serif" font-size="10.00">GameElementWizard</text>
</a>
</g>
</g>
<!-- Node1&#45;&gt;Node2 -->
<g id="edge1" class="edge"><title>Node1&#45;&gt;Node2</title>
<path fill="none" stroke="midnightblue" d="M142.108,-50.1768C150.829,-51.4746 159.679,-52.7915 168.277,-54.0709"/>
<polygon fill="midnightblue" stroke="midnightblue" points="142.359,-46.6757 131.953,-48.6657 141.329,-53.5995 142.359,-46.6757"/>
</g>
<!-- Node4 -->
<g id="node4" class="node"><title>Node4</title>
<g id="a_node4"><a xlink:href="../../dc/d5c/classeditor_1_1_editor_screen.html#a7e25f02e5b970538d8e14c98b1ce7a94" target="_top" xlink:title="editor.EditorScreen.open\lTerrainWizard">
<polygon fill="white" stroke="black" points="168.5,-0 168.5,-30 303.5,-30 303.5,-0 168.5,-0"/>
<text text-anchor="start" x="176.5" y="-18" font-family="Helvetica,sans-Serif" font-size="10.00">editor.EditorScreen.open</text>
<text text-anchor="middle" x="236" y="-7" font-family="Helvetica,sans-Serif" font-size="10.00">TerrainWizard</text>
</a>
</g>
</g>
<!-- Node1&#45;&gt;Node4 -->
<g id="edge3" class="edge"><title>Node1&#45;&gt;Node4</title>
<path fill="none" stroke="midnightblue" d="M142.108,-28.2702C150.829,-27.0244 159.679,-25.7601 168.277,-24.5319"/>
<polygon fill="midnightblue" stroke="midnightblue" points="141.358,-24.8419 131.953,-29.721 142.348,-31.7715 141.358,-24.8419"/>
</g>
<!-- Node3 -->
<g id="node3" class="node"><title>Node3</title>
<g id="a_node3"><a xlink:href="../../dc/d5c/classeditor_1_1_editor_screen.html#ace4f22524f30894bd2856236d2a1600a" target="_top" xlink:title="editor.EditorScreen.initialize">
<polygon fill="white" stroke="black" points="340.5,-29.5 340.5,-48.5 489.5,-48.5 489.5,-29.5 340.5,-29.5"/>
<text text-anchor="middle" x="415" y="-36.5" font-family="Helvetica,sans-Serif" font-size="10.00">editor.EditorScreen.initialize</text>
</a>
</g>
</g>
<!-- Node2&#45;&gt;Node3 -->
<g id="edge2" class="edge"><title>Node2&#45;&gt;Node3</title>
<path fill="none" stroke="midnightblue" d="M313.626,-53.1771C324.57,-51.6313 335.761,-50.0507 346.513,-48.532"/>
<polygon fill="midnightblue" stroke="midnightblue" points="313.076,-49.72 303.664,-54.5842 314.055,-56.6512 313.076,-49.72"/>
</g>
<!-- Node4&#45;&gt;Node3 -->
<g id="edge4" class="edge"><title>Node4&#45;&gt;Node3</title>
<path fill="none" stroke="midnightblue" d="M313.621,-25.3893C323.667,-26.7515 333.922,-28.1419 343.853,-29.4886"/>
<polygon fill="midnightblue" stroke="midnightblue" points="314.044,-21.9146 303.664,-24.0392 313.103,-28.8512 314.044,-21.9146"/>
</g>
</g>
</svg>
