<?xml version="1.0" encoding="UTF-8" standalone="no"?>
<!DOCTYPE svg PUBLIC "-//W3C//DTD SVG 1.1//EN"
 "http://www.w3.org/Graphics/SVG/1.1/DTD/svg11.dtd">
<!-- Generated by graphviz version 2.36.0 (20140111.2315)
 -->
<!-- Title: engine.gameRepresentation.renderedRepresentation.SelectableGameElement.getAbilityDescriptionMap Pages: 1 -->
<svg width="880pt" height="48pt"
 viewBox="0.00 0.00 880.00 48.00" xmlns="http://www.w3.org/2000/svg" xmlns:xlink="http://www.w3.org/1999/xlink">
<g id="graph0" class="graph" transform="scale(1 1) rotate(0) translate(4 44)">
<title>engine.gameRepresentation.renderedRepresentation.SelectableGameElement.getAbilityDescriptionMap</title>
<polygon fill="white" stroke="none" points="-4,4 -4,-44 876,-44 876,4 -4,4"/>
<!-- Node1 -->
<g id="node1" class="node"><title>Node1</title>
<polygon fill="#bfbfbf" stroke="black" points="0,0.5 0,-40.5 230,-40.5 230,0.5 0,0.5"/>
<text text-anchor="start" x="8" y="-28.5" font-family="Helvetica,sans-Serif" font-size="10.00">engine.gameRepresentation.rendered</text>
<text text-anchor="start" x="8" y="-17.5" font-family="Helvetica,sans-Serif" font-size="10.00">Representation.SelectableGameElement.get</text>
<text text-anchor="middle" x="115" y="-6.5" font-family="Helvetica,sans-Serif" font-size="10.00">AbilityDescriptionMap</text>
</g>
<!-- Node2 -->
<g id="node2" class="node"><title>Node2</title>
<g id="a_node2"><a xlink:href="../../d4/de2/classengine_1_1game_representation_1_1rendered_representation_1_1_game_element.html#a3c4a3ab7e6ea901d89f2cd9b2e75b98b" target="_top" xlink:title="engine.gameRepresentation.rendered\lRepresentation.GameElement.getTextual\lAttribute">
<polygon fill="white" stroke="black" points="266,0.5 266,-40.5 478,-40.5 478,0.5 266,0.5"/>
<text text-anchor="start" x="274" y="-28.5" font-family="Helvetica,sans-Serif" font-size="10.00">engine.gameRepresentation.rendered</text>
<text text-anchor="start" x="274" y="-17.5" font-family="Helvetica,sans-Serif" font-size="10.00">Representation.GameElement.getTextual</text>
<text text-anchor="middle" x="372" y="-6.5" font-family="Helvetica,sans-Serif" font-size="10.00">Attribute</text>
</a>
</g>
</g>
<!-- Node1&#45;&gt;Node2 -->
<g id="edge1" class="edge"><title>Node1&#45;&gt;Node2</title>
<path fill="none" stroke="midnightblue" d="M230.075,-20C238.653,-20 247.313,-20 255.897,-20"/>
<polygon fill="midnightblue" stroke="midnightblue" points="255.93,-23.5001 265.93,-20 255.93,-16.5001 255.93,-23.5001"/>
</g>
<!-- Node3 -->
<g id="node3" class="node"><title>Node3</title>
<g id="a_node3"><a xlink:href="../../da/dc5/classmodel_1_1state_1_1gameelement_1_1_attribute_container.html#a8a042f15b78a8ff954168334572f49ff" target="_top" xlink:title="model.state.gameelement.\lAttributeContainer.getTextual\lAttribute">
<polygon fill="white" stroke="black" points="514,0.5 514,-40.5 670,-40.5 670,0.5 514,0.5"/>
<text text-anchor="start" x="522" y="-28.5" font-family="Helvetica,sans-Serif" font-size="10.00">model.state.gameelement.</text>
<text text-anchor="start" x="522" y="-17.5" font-family="Helvetica,sans-Serif" font-size="10.00">AttributeContainer.getTextual</text>
<text text-anchor="middle" x="592" y="-6.5" font-family="Helvetica,sans-Serif" font-size="10.00">Attribute</text>
</a>
</g>
</g>
<!-- Node2&#45;&gt;Node3 -->
<g id="edge2" class="edge"><title>Node2&#45;&gt;Node3</title>
<path fill="none" stroke="midnightblue" d="M478.169,-20C486.683,-20 495.229,-20 503.598,-20"/>
<polygon fill="midnightblue" stroke="midnightblue" points="503.705,-23.5001 513.705,-20 503.705,-16.5001 503.705,-23.5001"/>
</g>
<!-- Node4 -->
<g id="node4" class="node"><title>Node4</title>
<g id="a_node4"><a xlink:href="../../da/dc5/classmodel_1_1state_1_1gameelement_1_1_attribute_container.html#a59a08ce23cf989feca0a78b2642364d4" target="_top" xlink:title="model.state.gameelement.\lAttributeContainer.getAttribute">
<polygon fill="white" stroke="black" points="706.5,-5 706.5,-35 871.5,-35 871.5,-5 706.5,-5"/>
<text text-anchor="start" x="714.5" y="-23" font-family="Helvetica,sans-Serif" font-size="10.00">model.state.gameelement.</text>
<text text-anchor="middle" x="789" y="-12" font-family="Helvetica,sans-Serif" font-size="10.00">AttributeContainer.getAttribute</text>
</a>
</g>
</g>
<!-- Node3&#45;&gt;Node4 -->
<g id="edge3" class="edge"><title>Node3&#45;&gt;Node4</title>
<path fill="none" stroke="midnightblue" d="M670.069,-20C678.639,-20 687.429,-20 696.159,-20"/>
<polygon fill="midnightblue" stroke="midnightblue" points="696.362,-23.5001 706.362,-20 696.362,-16.5001 696.362,-23.5001"/>
</g>
</g>
</svg>
