<?xml version="1.0" encoding="UTF-8" standalone="no"?>
<!DOCTYPE svg PUBLIC "-//W3C//DTD SVG 1.1//EN"
 "http://www.w3.org/Graphics/SVG/1.1/DTD/svg11.dtd">
<!-- Generated by graphviz version 2.36.0 (20140111.2315)
 -->
<!-- Title: engine.gameRepresentation.renderedRepresentation.SelectableGameElement.updateSelfDueToInteractingElementsSubset Pages: 1 -->
<svg width="538pt" height="48pt"
 viewBox="0.00 0.00 538.00 48.00" xmlns="http://www.w3.org/2000/svg" xmlns:xlink="http://www.w3.org/1999/xlink">
<g id="graph0" class="graph" transform="scale(1 1) rotate(0) translate(4 44)">
<title>engine.gameRepresentation.renderedRepresentation.SelectableGameElement.updateSelfDueToInteractingElementsSubset</title>
<polygon fill="white" stroke="none" points="-4,4 -4,-44 534,-44 534,4 -4,4"/>
<!-- Node1 -->
<g id="node1" class="node"><title>Node1</title>
<polygon fill="#bfbfbf" stroke="black" points="0,0.5 0,-40.5 248,-40.5 248,0.5 0,0.5"/>
<text text-anchor="start" x="8" y="-28.5" font-family="Helvetica,sans-Serif" font-size="10.00">engine.gameRepresentation.rendered</text>
<text text-anchor="start" x="8" y="-17.5" font-family="Helvetica,sans-Serif" font-size="10.00">Representation.SelectableGameElement.update</text>
<text text-anchor="middle" x="124" y="-6.5" font-family="Helvetica,sans-Serif" font-size="10.00">SelfDueToInteractingElementsSubset</text>
</g>
<!-- Node2 -->
<g id="node2" class="node"><title>Node2</title>
<g id="a_node2"><a xlink:href="../../d4/de2/classengine_1_1game_representation_1_1rendered_representation_1_1_game_element.html#a6a9b0abdfedbd0aa9953ba3c57060f2c" target="_top" xlink:title="engine.gameRepresentation.rendered\lRepresentation.GameElement.getActionsOfType">
<polygon fill="white" stroke="black" points="284,-5 284,-35 530,-35 530,-5 284,-5"/>
<text text-anchor="start" x="292" y="-23" font-family="Helvetica,sans-Serif" font-size="10.00">engine.gameRepresentation.rendered</text>
<text text-anchor="middle" x="407" y="-12" font-family="Helvetica,sans-Serif" font-size="10.00">Representation.GameElement.getActionsOfType</text>
</a>
</g>
</g>
<!-- Node1&#45;&gt;Node2 -->
<g id="edge1" class="edge"><title>Node1&#45;&gt;Node2</title>
<path fill="none" stroke="midnightblue" d="M248.251,-20C256.638,-20 265.108,-20 273.539,-20"/>
<polygon fill="midnightblue" stroke="midnightblue" points="273.797,-23.5001 283.797,-20 273.797,-16.5001 273.797,-23.5001"/>
</g>
</g>
</svg>
