<?xml version="1.0" encoding="UTF-8" standalone="no"?>
<!DOCTYPE svg PUBLIC "-//W3C//DTD SVG 1.1//EN"
 "http://www.w3.org/Graphics/SVG/1.1/DTD/svg11.dtd">
<!-- Generated by graphviz version 2.36.0 (20140111.2315)
 -->
<!-- Title: engine.gameRepresentation.renderedRepresentation.SelectableGameElement.addInteractingElement Pages: 1 -->
<svg width="772pt" height="48pt"
 viewBox="0.00 0.00 772.00 48.00" xmlns="http://www.w3.org/2000/svg" xmlns:xlink="http://www.w3.org/1999/xlink">
<g id="graph0" class="graph" transform="scale(1 1) rotate(0) translate(4 44)">
<title>engine.gameRepresentation.renderedRepresentation.SelectableGameElement.addInteractingElement</title>
<polygon fill="white" stroke="none" points="-4,4 -4,-44 768,-44 768,4 -4,4"/>
<!-- Node1 -->
<g id="node1" class="node"><title>Node1</title>
<polygon fill="#bfbfbf" stroke="black" points="0,0.5 0,-40.5 232,-40.5 232,0.5 0,0.5"/>
<text text-anchor="start" x="8" y="-28.5" font-family="Helvetica,sans-Serif" font-size="10.00">engine.gameRepresentation.rendered</text>
<text text-anchor="start" x="8" y="-17.5" font-family="Helvetica,sans-Serif" font-size="10.00">Representation.SelectableGameElement.add</text>
<text text-anchor="middle" x="116" y="-6.5" font-family="Helvetica,sans-Serif" font-size="10.00">InteractingElement</text>
</g>
<!-- Node2 -->
<g id="node2" class="node"><title>Node2</title>
<g id="a_node2"><a xlink:href="../../d4/d68/classengine_1_1game_representation_1_1rendered_representation_1_1_selectable_game_element.html#a4f5dd9159da2b802775a8a4035b5b6aa" target="_top" xlink:title="engine.gameRepresentation.rendered\lRepresentation.SelectableGameElement.add\lInteractingElements">
<polygon fill="white" stroke="black" points="268,0.5 268,-40.5 500,-40.5 500,0.5 268,0.5"/>
<text text-anchor="start" x="276" y="-28.5" font-family="Helvetica,sans-Serif" font-size="10.00">engine.gameRepresentation.rendered</text>
<text text-anchor="start" x="276" y="-17.5" font-family="Helvetica,sans-Serif" font-size="10.00">Representation.SelectableGameElement.add</text>
<text text-anchor="middle" x="384" y="-6.5" font-family="Helvetica,sans-Serif" font-size="10.00">InteractingElements</text>
</a>
</g>
</g>
<!-- Node1&#45;&gt;Node2 -->
<g id="edge1" class="edge"><title>Node1&#45;&gt;Node2</title>
<path fill="none" stroke="midnightblue" d="M242.391,-20C250.832,-20 259.314,-20 267.7,-20"/>
<polygon fill="midnightblue" stroke="midnightblue" points="242.124,-16.5001 232.124,-20 242.124,-23.5001 242.124,-16.5001"/>
</g>
<!-- Node3 -->
<g id="node3" class="node"><title>Node3</title>
<g id="a_node3"><a xlink:href="../../d5/d99/classengine_1_1computers_1_1bounds_computers_1_1_vision_computer.html#ae85cf42e1ad35a6635ead58b048fb688" target="_top" xlink:title="engine.computers.boundsComputers.\lVisionComputer.givePrimaryObjectElements">
<polygon fill="white" stroke="black" points="536.5,-5 536.5,-35 763.5,-35 763.5,-5 536.5,-5"/>
<text text-anchor="start" x="544.5" y="-23" font-family="Helvetica,sans-Serif" font-size="10.00">engine.computers.boundsComputers.</text>
<text text-anchor="middle" x="650" y="-12" font-family="Helvetica,sans-Serif" font-size="10.00">VisionComputer.givePrimaryObjectElements</text>
</a>
</g>
</g>
<!-- Node2&#45;&gt;Node3 -->
<g id="edge2" class="edge"><title>Node2&#45;&gt;Node3</title>
<path fill="none" stroke="midnightblue" d="M510.263,-20C519.006,-20 527.789,-20 536.457,-20"/>
<polygon fill="midnightblue" stroke="midnightblue" points="510.026,-16.5001 500.026,-20 510.026,-23.5001 510.026,-16.5001"/>
</g>
</g>
</svg>
