<?xml version="1.0" encoding="UTF-8" standalone="no"?>
<!DOCTYPE svg PUBLIC "-//W3C//DTD SVG 1.1//EN"
 "http://www.w3.org/Graphics/SVG/1.1/DTD/svg11.dtd">
<!-- Generated by graphviz version 2.36.0 (20140111.2315)
 -->
<!-- Title: engine.gameRepresentation.renderedRepresentation.SelectableGameElement.update Pages: 1 -->
<!--zoomable 230 -->
<svg id="main" version="1.1" xmlns="http://www.w3.org/2000/svg" xmlns:xlink="http://www.w3.org/1999/xlink" xml:space="preserve" onload="init(evt)">
<style type="text/css"><![CDATA[
.edge:hover path { stroke: red; }
.edge:hover polygon { stroke: red; fill: red; }
]]></style>
<script type="text/javascript"><![CDATA[
var edges = document.getElementsByTagName('g');
if (edges && edges.length) {
  for (var i=0;i<edges.length;i++) {
    if (edges[i].id.substr(0,4)=='edge') {
      edges[i].setAttribute('class','edge');
    }
  }
}
]]></script>
        <defs>
                <circle id="rim" cx="0" cy="0" r="7"/>
                <circle id="rim2" cx="0" cy="0" r="3.5"/>
                <g id="zoomPlus">
                        <use xlink:href="#rim" fill="#404040">
                                <set attributeName="fill" to="#808080" begin="zoomplus.mouseover" end="zoomplus.mouseout"/>
                        </use>
                        <path d="M-4,0h8M0,-4v8" fill="none" stroke="white" stroke-width="1.5" pointer-events="none"/>
                </g>
                <g id="zoomMin">
                        <use xlink:href="#rim" fill="#404040">
                                <set attributeName="fill" to="#808080" begin="zoomminus.mouseover" end="zoomminus.mouseout"/>
                        </use>
                        <path d="M-4,0h8" fill="none" stroke="white" stroke-width="1.5" pointer-events="none"/>
                </g>
                <g id="dirArrow">
                        <path fill="none" stroke="white" stroke-width="1.5" d="M0,-3.0v7 M-2.5,-0.5L0,-3.0L2.5,-0.5"/>
                </g>
               <g id="resetDef">
                       <use xlink:href="#rim2" fill="#404040">
                               <set attributeName="fill" to="#808080" begin="reset.mouseover" end="reset.mouseout"/>
                       </use>
               </g>
        </defs>

<script type="text/javascript">
var viewWidth = 1106;
var viewHeight = 230;
var sectionId = 'dynsection-14';
</script>
<script xlink:href="../../svgpan.js"/>
<svg id="graph" class="graph">
<g id="viewport">
<title>engine.gameRepresentation.renderedRepresentation.SelectableGameElement.update</title>
<polygon fill="white" stroke="none" points="-4,4 -4,-226 1102,-226 1102,4 -4,4"/>
<!-- Node1 -->
<g id="node1" class="node"><title>Node1</title>
<polygon fill="#bfbfbf" stroke="black" points="0,-96 0,-126 248,-126 248,-96 0,-96"/>
<text text-anchor="start" x="8" y="-114" font-family="Helvetica,sans-Serif" font-size="10.00">engine.gameRepresentation.rendered</text>
<text text-anchor="middle" x="124" y="-103" font-family="Helvetica,sans-Serif" font-size="10.00">Representation.SelectableGameElement.update</text>
</g>
<!-- Node2 -->
<g id="node2" class="node"><title>Node2</title>
<g id="a_node2"><a xlink:href="../../d4/d68/classengine_1_1game_representation_1_1rendered_representation_1_1_selectable_game_element.html#a39d7b03e1469f1674ad64b90a529f32d" target="_top" xlink:title="engine.gameRepresentation.rendered\lRepresentation.SelectableGameElement.update\lSelfDueToCollisions">
<polygon fill="white" stroke="black" points="284,-180.5 284,-221.5 532,-221.5 532,-180.5 284,-180.5"/>
<text text-anchor="start" x="292" y="-209.5" font-family="Helvetica,sans-Serif" font-size="10.00">engine.gameRepresentation.rendered</text>
<text text-anchor="start" x="292" y="-198.5" font-family="Helvetica,sans-Serif" font-size="10.00">Representation.SelectableGameElement.update</text>
<text text-anchor="middle" x="408" y="-187.5" font-family="Helvetica,sans-Serif" font-size="10.00">SelfDueToCollisions</text>
</a>
</g>
</g>
<!-- Node1&#45;&gt;Node2 -->
<g id="edge1" class="edge"><title>Node1&#45;&gt;Node2</title>
<path fill="none" stroke="midnightblue" d="M162.193,-126.106C194.167,-138.777 241.681,-156.858 284,-170 292.649,-172.686 301.693,-175.309 310.783,-177.82"/>
<polygon fill="midnightblue" stroke="midnightblue" points="310.08,-181.256 320.647,-180.498 311.914,-174.5 310.08,-181.256"/>
</g>
<!-- Node5 -->
<g id="node5" class="node"><title>Node5</title>
<g id="a_node5"><a xlink:href="../../d4/d68/classengine_1_1game_representation_1_1rendered_representation_1_1_selectable_game_element.html#a72c30c939c2ba0213e0ada7f65ee26a6" target="_top" xlink:title="engine.gameRepresentation.rendered\lRepresentation.SelectableGameElement.update\lSelfDueToCurrentObjective">
<polygon fill="white" stroke="black" points="284,-60.5 284,-101.5 532,-101.5 532,-60.5 284,-60.5"/>
<text text-anchor="start" x="292" y="-89.5" font-family="Helvetica,sans-Serif" font-size="10.00">engine.gameRepresentation.rendered</text>
<text text-anchor="start" x="292" y="-78.5" font-family="Helvetica,sans-Serif" font-size="10.00">Representation.SelectableGameElement.update</text>
<text text-anchor="middle" x="408" y="-67.5" font-family="Helvetica,sans-Serif" font-size="10.00">SelfDueToCurrentObjective</text>
</a>
</g>
</g>
<!-- Node1&#45;&gt;Node5 -->
<g id="edge4" class="edge"><title>Node1&#45;&gt;Node5</title>
<path fill="none" stroke="midnightblue" d="M248.279,-97.8852C256.603,-96.9997 265.011,-96.1053 273.383,-95.2145"/>
<polygon fill="midnightblue" stroke="midnightblue" points="273.998,-98.669 283.571,-94.1307 273.257,-91.7083 273.998,-98.669"/>
</g>
<!-- Node7 -->
<g id="node7" class="node"><title>Node7</title>
<g id="a_node7"><a xlink:href="../../d4/d68/classengine_1_1game_representation_1_1rendered_representation_1_1_selectable_game_element.html#afa218eaeadf5fd1365b674368f561f07" target="_top" xlink:title="engine.gameRepresentation.rendered\lRepresentation.SelectableGameElement.update\lSelfDueToFocusedElement">
<polygon fill="white" stroke="black" points="284,-0.5 284,-41.5 532,-41.5 532,-0.5 284,-0.5"/>
<text text-anchor="start" x="292" y="-29.5" font-family="Helvetica,sans-Serif" font-size="10.00">engine.gameRepresentation.rendered</text>
<text text-anchor="start" x="292" y="-18.5" font-family="Helvetica,sans-Serif" font-size="10.00">Representation.SelectableGameElement.update</text>
<text text-anchor="middle" x="408" y="-7.5" font-family="Helvetica,sans-Serif" font-size="10.00">SelfDueToFocusedElement</text>
</a>
</g>
</g>
<!-- Node1&#45;&gt;Node7 -->
<g id="edge7" class="edge"><title>Node1&#45;&gt;Node7</title>
<path fill="none" stroke="midnightblue" d="M161.19,-95.9011C193.136,-82.9216 241.157,-64.2545 284,-51 291.613,-48.6446 299.538,-46.3546 307.532,-44.1587"/>
<polygon fill="midnightblue" stroke="midnightblue" points="308.555,-47.508 317.302,-41.5289 306.735,-40.7486 308.555,-47.508"/>
</g>
<!-- Node8 -->
<g id="node8" class="node"><title>Node8</title>
<g id="a_node8"><a xlink:href="../../d4/d68/classengine_1_1game_representation_1_1rendered_representation_1_1_selectable_game_element.html#a116c8ade676b946a795df6457d1be412" target="_top" xlink:title="engine.gameRepresentation.rendered\lRepresentation.SelectableGameElement.update\lSelfDueToVisions">
<polygon fill="white" stroke="black" points="284,-120.5 284,-161.5 532,-161.5 532,-120.5 284,-120.5"/>
<text text-anchor="start" x="292" y="-149.5" font-family="Helvetica,sans-Serif" font-size="10.00">engine.gameRepresentation.rendered</text>
<text text-anchor="start" x="292" y="-138.5" font-family="Helvetica,sans-Serif" font-size="10.00">Representation.SelectableGameElement.update</text>
<text text-anchor="middle" x="408" y="-127.5" font-family="Helvetica,sans-Serif" font-size="10.00">SelfDueToVisions</text>
</a>
</g>
</g>
<!-- Node1&#45;&gt;Node8 -->
<g id="edge9" class="edge"><title>Node1&#45;&gt;Node8</title>
<path fill="none" stroke="midnightblue" d="M248.279,-124.115C256.603,-125 265.011,-125.895 273.383,-126.785"/>
<polygon fill="midnightblue" stroke="midnightblue" points="273.257,-130.292 283.571,-127.869 273.998,-123.331 273.257,-130.292"/>
</g>
<!-- Node3 -->
<g id="node3" class="node"><title>Node3</title>
<g id="a_node3"><a xlink:href="../../d4/d68/classengine_1_1game_representation_1_1rendered_representation_1_1_selectable_game_element.html#aa83a50257484b566d42a28060a19caef" target="_top" xlink:title="engine.gameRepresentation.rendered\lRepresentation.SelectableGameElement.update\lSelfDueToInteractingElementsSubset">
<polygon fill="white" stroke="black" points="568,-120.5 568,-161.5 816,-161.5 816,-120.5 568,-120.5"/>
<text text-anchor="start" x="576" y="-149.5" font-family="Helvetica,sans-Serif" font-size="10.00">engine.gameRepresentation.rendered</text>
<text text-anchor="start" x="576" y="-138.5" font-family="Helvetica,sans-Serif" font-size="10.00">Representation.SelectableGameElement.update</text>
<text text-anchor="middle" x="692" y="-127.5" font-family="Helvetica,sans-Serif" font-size="10.00">SelfDueToInteractingElementsSubset</text>
</a>
</g>
</g>
<!-- Node2&#45;&gt;Node3 -->
<g id="edge2" class="edge"><title>Node2&#45;&gt;Node3</title>
<path fill="none" stroke="midnightblue" d="M505.654,-180.435C531.102,-175.021 558.696,-169.15 584.624,-163.633"/>
<polygon fill="midnightblue" stroke="midnightblue" points="585.42,-167.042 594.472,-161.538 583.963,-160.196 585.42,-167.042"/>
</g>
<!-- Node4 -->
<g id="node4" class="node"><title>Node4</title>
<g id="a_node4"><a xlink:href="../../d4/de2/classengine_1_1game_representation_1_1rendered_representation_1_1_game_element.html#a6a9b0abdfedbd0aa9953ba3c57060f2c" target="_top" xlink:title="engine.gameRepresentation.rendered\lRepresentation.GameElement.getActionsOfType">
<polygon fill="white" stroke="black" points="852,-96 852,-126 1098,-126 1098,-96 852,-96"/>
<text text-anchor="start" x="860" y="-114" font-family="Helvetica,sans-Serif" font-size="10.00">engine.gameRepresentation.rendered</text>
<text text-anchor="middle" x="975" y="-103" font-family="Helvetica,sans-Serif" font-size="10.00">Representation.GameElement.getActionsOfType</text>
</a>
</g>
</g>
<!-- Node3&#45;&gt;Node4 -->
<g id="edge3" class="edge"><title>Node3&#45;&gt;Node4</title>
<path fill="none" stroke="midnightblue" d="M816.251,-127.842C824.73,-126.936 833.294,-126.022 841.817,-125.112"/>
<polygon fill="midnightblue" stroke="midnightblue" points="842.225,-128.589 851.797,-124.047 841.481,-121.628 842.225,-128.589"/>
</g>
<!-- Node6 -->
<g id="node6" class="node"><title>Node6</title>
<g id="a_node6"><a xlink:href="../../d4/de2/classengine_1_1game_representation_1_1rendered_representation_1_1_game_element.html#aca36032ddc11c84e73d3b131dbaf19fa" target="_top" xlink:title="engine.gameRepresentation.rendered\lRepresentation.GameElement.executeAll\lActions">
<polygon fill="white" stroke="black" points="585.5,-60.5 585.5,-101.5 798.5,-101.5 798.5,-60.5 585.5,-60.5"/>
<text text-anchor="start" x="593.5" y="-89.5" font-family="Helvetica,sans-Serif" font-size="10.00">engine.gameRepresentation.rendered</text>
<text text-anchor="start" x="593.5" y="-78.5" font-family="Helvetica,sans-Serif" font-size="10.00">Representation.GameElement.executeAll</text>
<text text-anchor="middle" x="692" y="-67.5" font-family="Helvetica,sans-Serif" font-size="10.00">Actions</text>
</a>
</g>
</g>
<!-- Node5&#45;&gt;Node6 -->
<g id="edge5" class="edge"><title>Node5&#45;&gt;Node6</title>
<path fill="none" stroke="midnightblue" d="M532.279,-81C546.471,-81 560.906,-81 574.998,-81"/>
<polygon fill="midnightblue" stroke="midnightblue" points="575.189,-84.5001 585.189,-81 575.189,-77.5001 575.189,-84.5001"/>
</g>
<!-- Node6&#45;&gt;Node4 -->
<g id="edge6" class="edge"><title>Node6&#45;&gt;Node4</title>
<path fill="none" stroke="midnightblue" d="M798.834,-92.299C812.865,-93.7969 827.388,-95.3474 841.794,-96.8855"/>
<polygon fill="midnightblue" stroke="midnightblue" points="841.426,-100.366 851.741,-97.9475 842.17,-93.4056 841.426,-100.366"/>
</g>
<!-- Node7&#45;&gt;Node6 -->
<g id="edge8" class="edge"><title>Node7&#45;&gt;Node6</title>
<path fill="none" stroke="midnightblue" d="M505.654,-41.5647C531.102,-46.9791 558.696,-52.8502 584.624,-58.3669"/>
<polygon fill="midnightblue" stroke="midnightblue" points="583.963,-61.8044 594.472,-60.4622 585.42,-54.9577 583.963,-61.8044"/>
</g>
<!-- Node8&#45;&gt;Node3 -->
<g id="edge10" class="edge"><title>Node8&#45;&gt;Node3</title>
<path fill="none" stroke="midnightblue" d="M532.279,-141C540.603,-141 549.011,-141 557.383,-141"/>
<polygon fill="midnightblue" stroke="midnightblue" points="557.571,-144.5 567.571,-141 557.571,-137.5 557.571,-144.5"/>
</g>
</g>
</svg>
        <g id="navigator" transform="translate(0 0)" fill="#404254">
                <rect fill="#f2f5e9" fill-opacity="0.5" stroke="#606060" stroke-width=".5" x="0" y="0" width="60" height="60"/>
                <use id="zoomplus" xlink:href="#zoomPlus" x="17" y="9" onmousedown="handleZoom(evt,'in')"/>
                <use id="zoomminus" xlink:href="#zoomMin" x="42" y="9" onmousedown="handleZoom(evt,'out')"/>
                <use id="reset" xlink:href="#resetDef" x="30" y="36" onmousedown="handleReset()"/>
                <g id="arrowUp" xlink:href="#dirArrow" transform="translate(30 24)" onmousedown="handlePan(0,-1)">
                  <use xlink:href="#rim" fill="#404040">
                        <set attributeName="fill" to="#808080" begin="arrowUp.mouseover" end="arrowUp.mouseout"/>
                  </use>
                  <path fill="none" stroke="white" stroke-width="1.5" d="M0,-3.0v7 M-2.5,-0.5L0,-3.0L2.5,-0.5"/>
                </g>
                <g id="arrowRight" xlink:href="#dirArrow" transform="rotate(90) translate(36 -43)" onmousedown="handlePan(1,0)">
                  <use xlink:href="#rim" fill="#404040">
                        <set attributeName="fill" to="#808080" begin="arrowRight.mouseover" end="arrowRight.mouseout"/>
                  </use>
                  <path fill="none" stroke="white" stroke-width="1.5" d="M0,-3.0v7 M-2.5,-0.5L0,-3.0L2.5,-0.5"/>
                </g>
                <g id="arrowDown" xlink:href="#dirArrow" transform="rotate(180) translate(-30 -48)" onmousedown="handlePan(0,1)">
                  <use xlink:href="#rim" fill="#404040">
                        <set attributeName="fill" to="#808080" begin="arrowDown.mouseover" end="arrowDown.mouseout"/>
                  </use>
                  <path fill="none" stroke="white" stroke-width="1.5" d="M0,-3.0v7 M-2.5,-0.5L0,-3.0L2.5,-0.5"/>
                </g>
                <g id="arrowLeft" xlink:href="#dirArrow" transform="rotate(270) translate(-36 17)" onmousedown="handlePan(-1,0)">
                  <use xlink:href="#rim" fill="#404040">
                        <set attributeName="fill" to="#808080" begin="arrowLeft.mouseover" end="arrowLeft.mouseout"/>
                  </use>
                  <path fill="none" stroke="white" stroke-width="1.5" d="M0,-3.0v7 M-2.5,-0.5L0,-3.0L2.5,-0.5"/>
                </g>
        </g>
        <svg viewBox="0 0 15 15" width="100%" height="30px" preserveAspectRatio="xMaxYMin meet">
         <g id="arrow_out" transform="scale(0.3 0.3)">
          <a xlink:href="classengine_1_1game_representation_1_1rendered_representation_1_1_selectable_game_element_a46215dbadf498dce44f271c6988437d4_cgraph_org.svg" target="_base">
           <rect id="button" ry="5" rx="5" y="6" x="6" height="38" width="38"
                fill="#f2f5e9" fill-opacity="0.5" stroke="#606060" stroke-width="1.0"/>
           <path id="arrow"
             d="M 11.500037,31.436501 C 11.940474,20.09759 22.043105,11.32322 32.158766,21.979434 L 37.068811,17.246167 C 37.068811,17.246167 37.088388,32 37.088388,32 L 22.160133,31.978069 C 22.160133,31.978069 26.997745,27.140456 26.997745,27.140456 C 18.528582,18.264221 13.291696,25.230495 11.500037,31.436501 z"
             style="fill:#404040;"/>
          </a>
         </g>
        </svg>
</svg>
