<?xml version="1.0" encoding="UTF-8" standalone="no"?>
<!DOCTYPE svg PUBLIC "-//W3C//DTD SVG 1.1//EN"
 "http://www.w3.org/Graphics/SVG/1.1/DTD/svg11.dtd">
<!-- Generated by graphviz version 2.36.0 (20140111.2315)
 -->
<!-- Title: engine.gameRepresentation.renderedRepresentation.SelectableGameElement.executeAllButtonActions Pages: 1 -->
<svg width="792pt" height="48pt"
 viewBox="0.00 0.00 792.00 48.00" xmlns="http://www.w3.org/2000/svg" xmlns:xlink="http://www.w3.org/1999/xlink">
<g id="graph0" class="graph" transform="scale(1 1) rotate(0) translate(4 44)">
<title>engine.gameRepresentation.renderedRepresentation.SelectableGameElement.executeAllButtonActions</title>
<polygon fill="white" stroke="none" points="-4,4 -4,-44 788,-44 788,4 -4,4"/>
<!-- Node1 -->
<g id="node1" class="node"><title>Node1</title>
<polygon fill="#bfbfbf" stroke="black" points="0,0.5 0,-40.5 252,-40.5 252,0.5 0,0.5"/>
<text text-anchor="start" x="8" y="-28.5" font-family="Helvetica,sans-Serif" font-size="10.00">engine.gameRepresentation.rendered</text>
<text text-anchor="start" x="8" y="-17.5" font-family="Helvetica,sans-Serif" font-size="10.00">Representation.SelectableGameElement.execute</text>
<text text-anchor="middle" x="126" y="-6.5" font-family="Helvetica,sans-Serif" font-size="10.00">AllButtonActions</text>
</g>
<!-- Node2 -->
<g id="node2" class="node"><title>Node2</title>
<g id="a_node2"><a xlink:href="../../d4/de2/classengine_1_1game_representation_1_1rendered_representation_1_1_game_element.html#aca36032ddc11c84e73d3b131dbaf19fa" target="_top" xlink:title="engine.gameRepresentation.rendered\lRepresentation.GameElement.executeAll\lActions">
<polygon fill="white" stroke="black" points="288.5,0.5 288.5,-40.5 501.5,-40.5 501.5,0.5 288.5,0.5"/>
<text text-anchor="start" x="296.5" y="-28.5" font-family="Helvetica,sans-Serif" font-size="10.00">engine.gameRepresentation.rendered</text>
<text text-anchor="start" x="296.5" y="-17.5" font-family="Helvetica,sans-Serif" font-size="10.00">Representation.GameElement.executeAll</text>
<text text-anchor="middle" x="395" y="-6.5" font-family="Helvetica,sans-Serif" font-size="10.00">Actions</text>
</a>
</g>
</g>
<!-- Node1&#45;&gt;Node2 -->
<g id="edge1" class="edge"><title>Node1&#45;&gt;Node2</title>
<path fill="none" stroke="midnightblue" d="M252.291,-20C260.958,-20 269.672,-20 278.285,-20"/>
<polygon fill="midnightblue" stroke="midnightblue" points="278.341,-23.5001 288.34,-20 278.34,-16.5001 278.341,-23.5001"/>
</g>
<!-- Node3 -->
<g id="node3" class="node"><title>Node3</title>
<g id="a_node3"><a xlink:href="../../d4/de2/classengine_1_1game_representation_1_1rendered_representation_1_1_game_element.html#a6a9b0abdfedbd0aa9953ba3c57060f2c" target="_top" xlink:title="engine.gameRepresentation.rendered\lRepresentation.GameElement.getActionsOfType">
<polygon fill="white" stroke="black" points="538,-5 538,-35 784,-35 784,-5 538,-5"/>
<text text-anchor="start" x="546" y="-23" font-family="Helvetica,sans-Serif" font-size="10.00">engine.gameRepresentation.rendered</text>
<text text-anchor="middle" x="661" y="-12" font-family="Helvetica,sans-Serif" font-size="10.00">Representation.GameElement.getActionsOfType</text>
</a>
</g>
</g>
<!-- Node2&#45;&gt;Node3 -->
<g id="edge2" class="edge"><title>Node2&#45;&gt;Node3</title>
<path fill="none" stroke="midnightblue" d="M501.858,-20C510.312,-20 518.916,-20 527.522,-20"/>
<polygon fill="midnightblue" stroke="midnightblue" points="527.618,-23.5001 537.618,-20 527.618,-16.5001 527.618,-23.5001"/>
</g>
</g>
</svg>
