<?xml version="1.0" encoding="UTF-8" standalone="no"?>
<!DOCTYPE svg PUBLIC "-//W3C//DTD SVG 1.1//EN"
 "http://www.w3.org/Graphics/SVG/1.1/DTD/svg11.dtd">
<!-- Generated by graphviz version 2.36.0 (20140111.2315)
 -->
<!-- Title: game_engine.gameRepresentation.stateRepresentation.GameState.getGameUniverse Pages: 1 -->
<svg width="1498pt" height="185pt"
 viewBox="0.00 0.00 1498.00 185.00" xmlns="http://www.w3.org/2000/svg" xmlns:xlink="http://www.w3.org/1999/xlink">
<g id="graph0" class="graph" transform="scale(1 1) rotate(0) translate(4 181)">
<title>game_engine.gameRepresentation.stateRepresentation.GameState.getGameUniverse</title>
<polygon fill="white" stroke="none" points="-4,4 -4,-181 1494,-181 1494,4 -4,4"/>
<!-- Node1 -->
<g id="node1" class="node"><title>Node1</title>
<polygon fill="#bfbfbf" stroke="black" points="0.5,-73 0.5,-103 237.5,-103 237.5,-73 0.5,-73"/>
<text text-anchor="start" x="8.5" y="-91" font-family="Helvetica,sans-Serif" font-size="10.00">game_engine.gameRepresentation.state</text>
<text text-anchor="middle" x="119" y="-80" font-family="Helvetica,sans-Serif" font-size="10.00">Representation.GameState.getGameUniverse</text>
</g>
<!-- Node2 -->
<g id="node2" class="node"><title>Node2</title>
<g id="a_node2"><a xlink:href="../../da/d8d/classgamemodel_1_1_main_model.html#ab48b88224f859ea7929254b479cce14d" target="_top" xlink:title="gamemodel.MainModel.create\lDrawableGameElement">
<polygon fill="white" stroke="black" points="281,-147 281,-177 443,-177 443,-147 281,-147"/>
<text text-anchor="start" x="289" y="-165" font-family="Helvetica,sans-Serif" font-size="10.00">gamemodel.MainModel.create</text>
<text text-anchor="middle" x="362" y="-154" font-family="Helvetica,sans-Serif" font-size="10.00">DrawableGameElement</text>
</a>
</g>
</g>
<!-- Node1&#45;&gt;Node2 -->
<g id="edge1" class="edge"><title>Node1&#45;&gt;Node2</title>
<path fill="none" stroke="midnightblue" d="M175.67,-106.131C204.884,-115.539 241.309,-127.104 274,-137 284.83,-140.278 296.45,-143.69 307.559,-146.901"/>
<polygon fill="midnightblue" stroke="midnightblue" points="176.646,-102.768 166.055,-103.028 174.497,-109.43 176.646,-102.768"/>
</g>
<!-- Node8 -->
<g id="node8" class="node"><title>Node8</title>
<g id="a_node8"><a xlink:href="../../da/d8d/classgamemodel_1_1_main_model.html#ab4aa75f69ec7ec4822f7b7d285ea7a55" target="_top" xlink:title="gamemodel.MainModel.create\lGameElement">
<polygon fill="white" stroke="black" points="281,-98 281,-128 443,-128 443,-98 281,-98"/>
<text text-anchor="start" x="289" y="-116" font-family="Helvetica,sans-Serif" font-size="10.00">gamemodel.MainModel.create</text>
<text text-anchor="middle" x="362" y="-105" font-family="Helvetica,sans-Serif" font-size="10.00">GameElement</text>
</a>
</g>
</g>
<!-- Node1&#45;&gt;Node8 -->
<g id="edge8" class="edge"><title>Node1&#45;&gt;Node8</title>
<path fill="none" stroke="midnightblue" d="M247.924,-101.27C259.068,-102.426 270.128,-103.573 280.719,-104.672"/>
<polygon fill="midnightblue" stroke="midnightblue" points="247.984,-97.7576 237.676,-100.207 247.261,-104.72 247.984,-97.7576"/>
</g>
<!-- Node9 -->
<g id="node9" class="node"><title>Node9</title>
<g id="a_node9"><a xlink:href="../../da/d8d/classgamemodel_1_1_main_model.html#ab0baf80ab9787c3b7afaf931939a3ed3" target="_top" xlink:title="gamemodel.MainModel.create\lSelectableGameElement">
<polygon fill="white" stroke="black" points="281,-49 281,-79 443,-79 443,-49 281,-49"/>
<text text-anchor="start" x="289" y="-67" font-family="Helvetica,sans-Serif" font-size="10.00">gamemodel.MainModel.create</text>
<text text-anchor="middle" x="362" y="-56" font-family="Helvetica,sans-Serif" font-size="10.00">SelectableGameElement</text>
</a>
</g>
</g>
<!-- Node1&#45;&gt;Node9 -->
<g id="edge9" class="edge"><title>Node1&#45;&gt;Node9</title>
<path fill="none" stroke="midnightblue" d="M247.924,-75.2607C259.068,-74.1509 270.128,-73.0495 280.719,-71.9948"/>
<polygon fill="midnightblue" stroke="midnightblue" points="247.28,-71.8074 237.676,-76.2812 247.974,-78.773 247.28,-71.8074"/>
</g>
<!-- Node10 -->
<g id="node10" class="node"><title>Node10</title>
<g id="a_node10"><a xlink:href="../../da/d8d/classgamemodel_1_1_main_model.html#a53f66be5755c649b3422db0c4ed01c2e" target="_top" xlink:title="gamemodel.MainModel.getGame\lUniverse">
<polygon fill="white" stroke="black" points="274,-0 274,-30 450,-30 450,-0 274,-0"/>
<text text-anchor="start" x="282" y="-18" font-family="Helvetica,sans-Serif" font-size="10.00">gamemodel.MainModel.getGame</text>
<text text-anchor="middle" x="362" y="-7" font-family="Helvetica,sans-Serif" font-size="10.00">Universe</text>
</a>
</g>
</g>
<!-- Node1&#45;&gt;Node10 -->
<g id="edge10" class="edge"><title>Node1&#45;&gt;Node10</title>
<path fill="none" stroke="midnightblue" d="M175.304,-69.83C204.561,-60.3631 241.136,-48.7573 274,-39 284.064,-36.0121 294.819,-32.9443 305.214,-30.043"/>
<polygon fill="midnightblue" stroke="midnightblue" points="174.11,-66.5376 165.678,-72.9528 176.27,-73.196 174.11,-66.5376"/>
</g>
<!-- Node3 -->
<g id="node3" class="node"><title>Node3</title>
<g id="a_node3"><a xlink:href="../../d4/dcd/classeditor_1_1_element_accordion_controller.html#ad10a71c849382067fbb1f4140841ab0d" target="_top" xlink:title="editor.ElementAccordionController.open\lGameElementWizard">
<polygon fill="white" stroke="black" points="486,-138 486,-168 692,-168 692,-138 486,-138"/>
<text text-anchor="start" x="494" y="-156" font-family="Helvetica,sans-Serif" font-size="10.00">editor.ElementAccordionController.open</text>
<text text-anchor="middle" x="589" y="-145" font-family="Helvetica,sans-Serif" font-size="10.00">GameElementWizard</text>
</a>
</g>
</g>
<!-- Node2&#45;&gt;Node3 -->
<g id="edge2" class="edge"><title>Node2&#45;&gt;Node3</title>
<path fill="none" stroke="midnightblue" d="M453.382,-158.385C464.024,-157.959 474.94,-157.522 485.73,-157.091"/>
<polygon fill="midnightblue" stroke="midnightblue" points="453.129,-154.892 443.277,-158.789 453.409,-161.886 453.129,-154.892"/>
</g>
<!-- Node4 -->
<g id="node4" class="node"><title>Node4</title>
<g id="a_node4"><a xlink:href="../../d4/dcd/classeditor_1_1_element_accordion_controller.html#a57a1b43f70896bbf2e27373594ba8810" target="_top" xlink:title="editor.ElementAccordionController.update\lItems">
<polygon fill="white" stroke="black" points="728,-122 728,-152 944,-152 944,-122 728,-122"/>
<text text-anchor="start" x="736" y="-140" font-family="Helvetica,sans-Serif" font-size="10.00">editor.ElementAccordionController.update</text>
<text text-anchor="middle" x="836" y="-129" font-family="Helvetica,sans-Serif" font-size="10.00">Items</text>
</a>
</g>
</g>
<!-- Node3&#45;&gt;Node4 -->
<g id="edge3" class="edge"><title>Node3&#45;&gt;Node4</title>
<path fill="none" stroke="midnightblue" d="M702.15,-145.676C710.723,-145.116 719.364,-144.552 727.903,-143.994"/>
<polygon fill="midnightblue" stroke="midnightblue" points="701.879,-142.186 692.128,-146.33 702.335,-149.171 701.879,-142.186"/>
</g>
<!-- Node5 -->
<g id="node5" class="node"><title>Node5</title>
<g id="a_node5"><a xlink:href="../../dc/d5c/classeditor_1_1_editor_screen.html#a575ccd70c0dcc7565df86cc590de47ba" target="_top" xlink:title="editor.EditorScreen.update\lAccordion">
<polygon fill="white" stroke="black" points="980.5,-96 980.5,-126 1125.5,-126 1125.5,-96 980.5,-96"/>
<text text-anchor="start" x="988.5" y="-114" font-family="Helvetica,sans-Serif" font-size="10.00">editor.EditorScreen.update</text>
<text text-anchor="middle" x="1053" y="-103" font-family="Helvetica,sans-Serif" font-size="10.00">Accordion</text>
</a>
</g>
</g>
<!-- Node4&#45;&gt;Node5 -->
<g id="edge4" class="edge"><title>Node4&#45;&gt;Node5</title>
<path fill="none" stroke="midnightblue" d="M954.268,-122.819C963.177,-121.741 971.996,-120.675 980.476,-119.649"/>
<polygon fill="midnightblue" stroke="midnightblue" points="953.693,-119.363 944.185,-124.038 954.533,-126.312 953.693,-119.363"/>
</g>
<!-- Node6 -->
<g id="node6" class="node"><title>Node6</title>
<g id="a_node6"><a xlink:href="../../dc/d5c/classeditor_1_1_editor_screen.html#ae17f78235329632f2090fdfb7b358a66" target="_top" xlink:title="editor.EditorScreen.update">
<polygon fill="white" stroke="black" points="1162.5,-101.5 1162.5,-120.5 1307.5,-120.5 1307.5,-101.5 1162.5,-101.5"/>
<text text-anchor="middle" x="1235" y="-108.5" font-family="Helvetica,sans-Serif" font-size="10.00">editor.EditorScreen.update</text>
</a>
</g>
</g>
<!-- Node5&#45;&gt;Node6 -->
<g id="edge5" class="edge"><title>Node5&#45;&gt;Node6</title>
<path fill="none" stroke="midnightblue" d="M1135.92,-111C1144.72,-111 1153.63,-111 1162.29,-111"/>
<polygon fill="midnightblue" stroke="midnightblue" points="1135.66,-107.5 1125.66,-111 1135.66,-114.5 1135.66,-107.5"/>
</g>
<!-- Node7 -->
<g id="node7" class="node"><title>Node7</title>
<g id="a_node7"><a xlink:href="../../dc/d5c/classeditor_1_1_editor_screen.html#a13378a8f469be9b38ba16457a64b7e9a" target="_top" xlink:title="editor.EditorScreen.update\lTabViewControllers">
<polygon fill="white" stroke="black" points="1344.5,-96 1344.5,-126 1489.5,-126 1489.5,-96 1344.5,-96"/>
<text text-anchor="start" x="1352.5" y="-114" font-family="Helvetica,sans-Serif" font-size="10.00">editor.EditorScreen.update</text>
<text text-anchor="middle" x="1417" y="-103" font-family="Helvetica,sans-Serif" font-size="10.00">TabViewControllers</text>
</a>
</g>
</g>
<!-- Node6&#45;&gt;Node7 -->
<g id="edge6" class="edge"><title>Node6&#45;&gt;Node7</title>
<path fill="none" stroke="midnightblue" d="M1317.92,-104.274C1326.72,-104.221 1335.63,-104.255 1344.29,-104.376"/>
<polygon fill="midnightblue" stroke="midnightblue" points="1317.62,-100.777 1307.66,-104.376 1317.69,-107.777 1317.62,-100.777"/>
</g>
<!-- Node7&#45;&gt;Node6 -->
<g id="edge7" class="edge"><title>Node7&#45;&gt;Node6</title>
<path fill="none" stroke="midnightblue" d="M1334.03,-117.726C1325.23,-117.779 1316.33,-117.745 1307.66,-117.624"/>
<polygon fill="midnightblue" stroke="midnightblue" points="1334.33,-121.223 1344.29,-117.624 1334.26,-114.224 1334.33,-121.223"/>
</g>
<!-- Node10&#45;&gt;Node5 -->
<g id="edge11" class="edge"><title>Node10&#45;&gt;Node5</title>
<path fill="none" stroke="midnightblue" d="M460.455,-30.2194C469.091,-31.5179 477.701,-32.7946 486,-34 663.632,-59.8001 873.021,-87.6091 980.463,-101.689"/>
<polygon fill="midnightblue" stroke="midnightblue" points="460.733,-26.7218 450.322,-28.6878 459.687,-33.6431 460.733,-26.7218"/>
</g>
<!-- Node11 -->
<g id="node11" class="node"><title>Node11</title>
<g id="a_node11"><a xlink:href="../../d1/d3a/classgame__engine_1_1_engine.html#abf010c93cd851fe082f559ac2ea49fdd" target="_top" xlink:title="game_engine.Engine.Engine">
<polygon fill="white" stroke="black" points="513,-5.5 513,-24.5 665,-24.5 665,-5.5 513,-5.5"/>
<text text-anchor="middle" x="589" y="-12.5" font-family="Helvetica,sans-Serif" font-size="10.00">game_engine.Engine.Engine</text>
</a>
</g>
</g>
<!-- Node10&#45;&gt;Node11 -->
<g id="edge12" class="edge"><title>Node10&#45;&gt;Node11</title>
<path fill="none" stroke="midnightblue" d="M460.549,-15C478.054,-15 496.05,-15 512.802,-15"/>
<polygon fill="midnightblue" stroke="midnightblue" points="460.313,-11.5001 450.313,-15 460.313,-18.5001 460.313,-11.5001"/>
</g>
</g>
</svg>
