<?xml version="1.0" encoding="UTF-8" standalone="no"?>
<!DOCTYPE svg PUBLIC "-//W3C//DTD SVG 1.1//EN"
 "http://www.w3.org/Graphics/SVG/1.1/DTD/svg11.dtd">
<!-- Generated by graphviz version 2.36.0 (20140111.2315)
 -->
<!-- Title: game_engine.gameRepresentation.stateRepresentation.GameState.getCampaign Pages: 1 -->
<svg width="1110pt" height="234pt"
 viewBox="0.00 0.00 1110.00 234.00" xmlns="http://www.w3.org/2000/svg" xmlns:xlink="http://www.w3.org/1999/xlink">
<g id="graph0" class="graph" transform="scale(1 1) rotate(0) translate(4 230)">
<title>game_engine.gameRepresentation.stateRepresentation.GameState.getCampaign</title>
<polygon fill="white" stroke="none" points="-4,4 -4,-230 1106,-230 1106,4 -4,4"/>
<!-- Node1 -->
<g id="node1" class="node"><title>Node1</title>
<polygon fill="#bfbfbf" stroke="black" points="0.5,-86 0.5,-116 215.5,-116 215.5,-86 0.5,-86"/>
<text text-anchor="start" x="8.5" y="-104" font-family="Helvetica,sans-Serif" font-size="10.00">game_engine.gameRepresentation.state</text>
<text text-anchor="middle" x="108" y="-93" font-family="Helvetica,sans-Serif" font-size="10.00">Representation.GameState.getCampaign</text>
</g>
<!-- Node2 -->
<g id="node2" class="node"><title>Node2</title>
<g id="a_node2"><a xlink:href="../../da/d8d/classgamemodel_1_1_main_model.html#a8f7ba6a09d6f83d64c441f15a445ac90" target="_top" xlink:title="gamemodel.MainModel.create\lLevel">
<polygon fill="white" stroke="black" points="273,-147 273,-177 435,-177 435,-147 273,-147"/>
<text text-anchor="start" x="281" y="-165" font-family="Helvetica,sans-Serif" font-size="10.00">gamemodel.MainModel.create</text>
<text text-anchor="middle" x="354" y="-154" font-family="Helvetica,sans-Serif" font-size="10.00">Level</text>
</a>
</g>
</g>
<!-- Node1&#45;&gt;Node2 -->
<g id="edge1" class="edge"><title>Node1&#45;&gt;Node2</title>
<path fill="none" stroke="midnightblue" d="M178.939,-118.485C214.92,-127.48 258.336,-138.334 292.807,-146.952"/>
<polygon fill="midnightblue" stroke="midnightblue" points="179.552,-115.03 169.002,-116 177.854,-121.821 179.552,-115.03"/>
</g>
<!-- Node8 -->
<g id="node8" class="node"><title>Node8</title>
<g id="a_node8"><a xlink:href="../../da/d8d/classgamemodel_1_1_main_model.html#a03ee385be5a20c1b4d78297d1d530ca4" target="_top" xlink:title="gamemodel.MainModel.getDescribable\lState">
<polygon fill="white" stroke="black" points="252.5,-86 252.5,-116 455.5,-116 455.5,-86 252.5,-86"/>
<text text-anchor="start" x="260.5" y="-104" font-family="Helvetica,sans-Serif" font-size="10.00">gamemodel.MainModel.getDescribable</text>
<text text-anchor="middle" x="354" y="-93" font-family="Helvetica,sans-Serif" font-size="10.00">State</text>
</a>
</g>
</g>
<!-- Node1&#45;&gt;Node8 -->
<g id="edge7" class="edge"><title>Node1&#45;&gt;Node8</title>
<path fill="none" stroke="midnightblue" d="M225.697,-101C234.603,-101 243.548,-101 252.34,-101"/>
<polygon fill="midnightblue" stroke="midnightblue" points="225.667,-97.5001 215.667,-101 225.667,-104.5 225.667,-97.5001"/>
</g>
<!-- Node16 -->
<g id="node16" class="node"><title>Node16</title>
<g id="a_node16"><a xlink:href="../../da/d8d/classgamemodel_1_1_main_model.html#ad0c8f208e75957efd1ded5caa6fdbaff" target="_top" xlink:title="gamemodel.MainModel.setCurrent\lLevel">
<polygon fill="white" stroke="black" points="263,-13 263,-43 445,-43 445,-13 263,-13"/>
<text text-anchor="start" x="271" y="-31" font-family="Helvetica,sans-Serif" font-size="10.00">gamemodel.MainModel.setCurrent</text>
<text text-anchor="middle" x="354" y="-20" font-family="Helvetica,sans-Serif" font-size="10.00">Level</text>
</a>
</g>
</g>
<!-- Node1&#45;&gt;Node16 -->
<g id="edge17" class="edge"><title>Node1&#45;&gt;Node16</title>
<path fill="none" stroke="midnightblue" d="M168.887,-83.083C209.999,-70.783 263.946,-54.6433 302.804,-43.0176"/>
<polygon fill="midnightblue" stroke="midnightblue" points="167.838,-79.7434 159.261,-85.9629 169.845,-86.4497 167.838,-79.7434"/>
</g>
<!-- Node3 -->
<g id="node3" class="node"><title>Node3</title>
<g id="a_node3"><a xlink:href="../../d1/dcc/classapplication_1_1_shitty_main.html#a2421ffa1f3b59fae50faa3fb14704767" target="_top" xlink:title="application.ShittyMain.hard\lCodeAGame">
<polygon fill="white" stroke="black" points="508,-147 508,-177 654,-177 654,-147 508,-147"/>
<text text-anchor="start" x="516" y="-165" font-family="Helvetica,sans-Serif" font-size="10.00">application.ShittyMain.hard</text>
<text text-anchor="middle" x="581" y="-154" font-family="Helvetica,sans-Serif" font-size="10.00">CodeAGame</text>
</a>
</g>
</g>
<!-- Node2&#45;&gt;Node3 -->
<g id="edge2" class="edge"><title>Node2&#45;&gt;Node3</title>
<path fill="none" stroke="midnightblue" d="M445.398,-162C466.212,-162 488.077,-162 507.989,-162"/>
<polygon fill="midnightblue" stroke="midnightblue" points="445.277,-158.5 435.277,-162 445.277,-165.5 445.277,-158.5"/>
</g>
<!-- Node5 -->
<g id="node5" class="node"><title>Node5</title>
<g id="a_node5"><a xlink:href="../../d1/d74/classeditor_1_1_editor_menu_bar_controller.html#a2d9698f478e5ca6464fa390bf1eb3a05" target="_top" xlink:title="editor.EditorMenuBarController.on\lNewLevelClick">
<polygon fill="white" stroke="black" points="492,-196 492,-226 670,-226 670,-196 492,-196"/>
<text text-anchor="start" x="500" y="-214" font-family="Helvetica,sans-Serif" font-size="10.00">editor.EditorMenuBarController.on</text>
<text text-anchor="middle" x="581" y="-203" font-family="Helvetica,sans-Serif" font-size="10.00">NewLevelClick</text>
</a>
</g>
</g>
<!-- Node2&#45;&gt;Node5 -->
<g id="edge4" class="edge"><title>Node2&#45;&gt;Node5</title>
<path fill="none" stroke="midnightblue" d="M433.912,-179.185C459.073,-184.665 486.701,-190.682 511.094,-195.994"/>
<polygon fill="midnightblue" stroke="midnightblue" points="434.552,-175.743 424.037,-177.035 433.063,-182.582 434.552,-175.743"/>
</g>
<!-- Node4 -->
<g id="node4" class="node"><title>Node4</title>
<g id="a_node4"><a xlink:href="../../d1/dcc/classapplication_1_1_shitty_main.html#af8b91a9a9eb3ba2c8a66baee2bed773b" target="_top" xlink:title="application.ShittyMain.start">
<polygon fill="white" stroke="black" points="722.5,-152.5 722.5,-171.5 869.5,-171.5 869.5,-152.5 722.5,-152.5"/>
<text text-anchor="middle" x="796" y="-159.5" font-family="Helvetica,sans-Serif" font-size="10.00">application.ShittyMain.start</text>
</a>
</g>
</g>
<!-- Node3&#45;&gt;Node4 -->
<g id="edge3" class="edge"><title>Node3&#45;&gt;Node4</title>
<path fill="none" stroke="midnightblue" d="M664.288,-162C683.387,-162 703.582,-162 722.237,-162"/>
<polygon fill="midnightblue" stroke="midnightblue" points="664.112,-158.5 654.112,-162 664.112,-165.5 664.112,-158.5"/>
</g>
<!-- Node6 -->
<g id="node6" class="node"><title>Node6</title>
<g id="a_node6"><a xlink:href="../../d1/d74/classeditor_1_1_editor_menu_bar_controller.html#a4263ec1503bc67c1ee7293d6fa303ab0" target="_top" xlink:title="editor.EditorMenuBarController.init\lFileMenu">
<polygon fill="white" stroke="black" points="706,-196 706,-226 886,-226 886,-196 706,-196"/>
<text text-anchor="start" x="714" y="-214" font-family="Helvetica,sans-Serif" font-size="10.00">editor.EditorMenuBarController.init</text>
<text text-anchor="middle" x="796" y="-203" font-family="Helvetica,sans-Serif" font-size="10.00">FileMenu</text>
</a>
</g>
</g>
<!-- Node5&#45;&gt;Node6 -->
<g id="edge5" class="edge"><title>Node5&#45;&gt;Node6</title>
<path fill="none" stroke="midnightblue" d="M680.179,-211C688.742,-211 697.378,-211 705.863,-211"/>
<polygon fill="midnightblue" stroke="midnightblue" points="680.173,-207.5 670.173,-211 680.173,-214.5 680.173,-207.5"/>
</g>
<!-- Node7 -->
<g id="node7" class="node"><title>Node7</title>
<g id="a_node7"><a xlink:href="../../d1/d74/classeditor_1_1_editor_menu_bar_controller.html#a5e27bce310879b43b5726c8b90f98743" target="_top" xlink:title="editor.EditorMenuBarController.init">
<polygon fill="white" stroke="black" points="922,-201.5 922,-220.5 1102,-220.5 1102,-201.5 922,-201.5"/>
<text text-anchor="middle" x="1012" y="-208.5" font-family="Helvetica,sans-Serif" font-size="10.00">editor.EditorMenuBarController.init</text>
</a>
</g>
</g>
<!-- Node6&#45;&gt;Node7 -->
<g id="edge6" class="edge"><title>Node6&#45;&gt;Node7</title>
<path fill="none" stroke="midnightblue" d="M896.23,-211C904.807,-211 913.45,-211 921.939,-211"/>
<polygon fill="midnightblue" stroke="midnightblue" points="896.206,-207.5 886.206,-211 896.206,-214.5 896.206,-207.5"/>
</g>
<!-- Node9 -->
<g id="node9" class="node"><title>Node9</title>
<g id="a_node9"><a xlink:href="../../dc/d5c/classeditor_1_1_editor_screen.html#a9280fc6d569014016e800182e893f540" target="_top" xlink:title="editor.EditorScreen.update\lInfoBox">
<polygon fill="white" stroke="black" points="508.5,-49 508.5,-79 653.5,-79 653.5,-49 508.5,-49"/>
<text text-anchor="start" x="516.5" y="-67" font-family="Helvetica,sans-Serif" font-size="10.00">editor.EditorScreen.update</text>
<text text-anchor="middle" x="581" y="-56" font-family="Helvetica,sans-Serif" font-size="10.00">InfoBox</text>
</a>
</g>
</g>
<!-- Node8&#45;&gt;Node9 -->
<g id="edge8" class="edge"><title>Node8&#45;&gt;Node9</title>
<path fill="none" stroke="midnightblue" d="M456.702,-84.2757C474.091,-81.4162 491.827,-78.4995 508.229,-75.8024"/>
<polygon fill="midnightblue" stroke="midnightblue" points="455.816,-80.8743 446.516,-85.9507 456.952,-87.7816 455.816,-80.8743"/>
</g>
<!-- Node14 -->
<g id="node14" class="node"><title>Node14</title>
<g id="a_node14"><a xlink:href="../../da/d8d/classgamemodel_1_1_main_model.html#a9b40fc83b22f84a534387757117483d9" target="_top" xlink:title="gamemodel.MainModel.update\lDescribableState">
<polygon fill="white" stroke="black" points="498.5,-98 498.5,-128 663.5,-128 663.5,-98 498.5,-98"/>
<text text-anchor="start" x="506.5" y="-116" font-family="Helvetica,sans-Serif" font-size="10.00">gamemodel.MainModel.update</text>
<text text-anchor="middle" x="581" y="-105" font-family="Helvetica,sans-Serif" font-size="10.00">DescribableState</text>
</a>
</g>
</g>
<!-- Node8&#45;&gt;Node14 -->
<g id="edge14" class="edge"><title>Node8&#45;&gt;Node14</title>
<path fill="none" stroke="midnightblue" d="M465.722,-106.905C476.704,-107.491 487.709,-108.078 498.317,-108.644"/>
<polygon fill="midnightblue" stroke="midnightblue" points="465.827,-103.406 455.654,-106.368 465.454,-110.396 465.827,-103.406"/>
</g>
<!-- Node10 -->
<g id="node10" class="node"><title>Node10</title>
<g id="a_node10"><a xlink:href="../../dc/d5c/classeditor_1_1_editor_screen.html#a6e24378bdf2713de4dbc530d63d5782e" target="_top" xlink:title="editor.EditorScreen.init\lProjectExplorer">
<polygon fill="white" stroke="black" points="733.5,-49 733.5,-79 858.5,-79 858.5,-49 733.5,-49"/>
<text text-anchor="start" x="741.5" y="-67" font-family="Helvetica,sans-Serif" font-size="10.00">editor.EditorScreen.init</text>
<text text-anchor="middle" x="796" y="-56" font-family="Helvetica,sans-Serif" font-size="10.00">ProjectExplorer</text>
</a>
</g>
</g>
<!-- Node9&#45;&gt;Node10 -->
<g id="edge9" class="edge"><title>Node9&#45;&gt;Node10</title>
<path fill="none" stroke="midnightblue" d="M663.659,-64C686.781,-64 711.558,-64 733.291,-64"/>
<polygon fill="midnightblue" stroke="midnightblue" points="663.518,-60.5001 653.518,-64 663.518,-67.5001 663.518,-60.5001"/>
</g>
<!-- Node12 -->
<g id="node12" class="node"><title>Node12</title>
<g id="a_node12"><a xlink:href="../../dc/d5c/classeditor_1_1_editor_screen.html#ae17f78235329632f2090fdfb7b358a66" target="_top" xlink:title="editor.EditorScreen.update">
<polygon fill="white" stroke="black" points="723.5,-10.5 723.5,-29.5 868.5,-29.5 868.5,-10.5 723.5,-10.5"/>
<text text-anchor="middle" x="796" y="-17.5" font-family="Helvetica,sans-Serif" font-size="10.00">editor.EditorScreen.update</text>
</a>
</g>
</g>
<!-- Node9&#45;&gt;Node12 -->
<g id="edge11" class="edge"><title>Node9&#45;&gt;Node12</title>
<path fill="none" stroke="midnightblue" d="M663.598,-47.144C692.443,-41.1856 723.869,-34.6938 748.753,-29.5533"/>
<polygon fill="midnightblue" stroke="midnightblue" points="662.604,-43.7755 653.518,-49.2262 664.02,-50.6308 662.604,-43.7755"/>
</g>
<!-- Node11 -->
<g id="node11" class="node"><title>Node11</title>
<g id="a_node11"><a xlink:href="../../dc/d5c/classeditor_1_1_editor_screen.html#a85668e9b3fd80cec58fa6b207854e588" target="_top" xlink:title="editor.EditorScreen.init">
<polygon fill="white" stroke="black" points="949.5,-78.5 949.5,-97.5 1074.5,-97.5 1074.5,-78.5 949.5,-78.5"/>
<text text-anchor="middle" x="1012" y="-85.5" font-family="Helvetica,sans-Serif" font-size="10.00">editor.EditorScreen.init</text>
</a>
</g>
</g>
<!-- Node10&#45;&gt;Node11 -->
<g id="edge10" class="edge"><title>Node10&#45;&gt;Node11</title>
<path fill="none" stroke="midnightblue" d="M868.839,-72.0567C894.984,-74.9889 924.28,-78.2744 949.454,-81.0976"/>
<polygon fill="midnightblue" stroke="midnightblue" points="868.938,-68.546 858.611,-70.9096 868.158,-75.5024 868.938,-68.546"/>
</g>
<!-- Node13 -->
<g id="node13" class="node"><title>Node13</title>
<g id="a_node13"><a xlink:href="../../dc/d5c/classeditor_1_1_editor_screen.html#a13378a8f469be9b38ba16457a64b7e9a" target="_top" xlink:title="editor.EditorScreen.update\lTabViewControllers">
<polygon fill="white" stroke="black" points="939.5,-5 939.5,-35 1084.5,-35 1084.5,-5 939.5,-5"/>
<text text-anchor="start" x="947.5" y="-23" font-family="Helvetica,sans-Serif" font-size="10.00">editor.EditorScreen.update</text>
<text text-anchor="middle" x="1012" y="-12" font-family="Helvetica,sans-Serif" font-size="10.00">TabViewControllers</text>
</a>
</g>
</g>
<!-- Node12&#45;&gt;Node13 -->
<g id="edge12" class="edge"><title>Node12&#45;&gt;Node13</title>
<path fill="none" stroke="midnightblue" d="M878.818,-13.419C898.685,-13.1478 919.78,-13.203 939.146,-13.5846"/>
<polygon fill="midnightblue" stroke="midnightblue" points="878.496,-9.92376 868.556,-13.5905 878.614,-16.9228 878.496,-9.92376"/>
</g>
<!-- Node13&#45;&gt;Node12 -->
<g id="edge13" class="edge"><title>Node13&#45;&gt;Node12</title>
<path fill="none" stroke="midnightblue" d="M928.877,-26.5852C908.998,-26.853 887.905,-26.7944 868.556,-26.4095"/>
<polygon fill="midnightblue" stroke="midnightblue" points="929.206,-30.0803 939.146,-26.4154 929.09,-23.0813 929.206,-30.0803"/>
</g>
<!-- Node15 -->
<g id="node15" class="node"><title>Node15</title>
<g id="a_node15"><a xlink:href="../../dc/d5c/classeditor_1_1_editor_screen.html#aa416e3307314f0a75c95d2ad2e08a4ae" target="_top" xlink:title="editor.EditorScreen.init\lInfoBox">
<polygon fill="white" stroke="black" points="733.5,-98 733.5,-128 858.5,-128 858.5,-98 733.5,-98"/>
<text text-anchor="start" x="741.5" y="-116" font-family="Helvetica,sans-Serif" font-size="10.00">editor.EditorScreen.init</text>
<text text-anchor="middle" x="796" y="-105" font-family="Helvetica,sans-Serif" font-size="10.00">InfoBox</text>
</a>
</g>
</g>
<!-- Node14&#45;&gt;Node15 -->
<g id="edge15" class="edge"><title>Node14&#45;&gt;Node15</title>
<path fill="none" stroke="midnightblue" d="M673.852,-113C693.947,-113 714.751,-113 733.329,-113"/>
<polygon fill="midnightblue" stroke="midnightblue" points="673.742,-109.5 663.742,-113 673.742,-116.5 673.742,-109.5"/>
</g>
<!-- Node15&#45;&gt;Node11 -->
<g id="edge16" class="edge"><title>Node15&#45;&gt;Node11</title>
<path fill="none" stroke="midnightblue" d="M868.839,-104.608C894.984,-101.553 924.28,-98.1308 949.454,-95.19"/>
<polygon fill="midnightblue" stroke="midnightblue" points="868.137,-101.166 858.611,-105.803 868.949,-108.118 868.137,-101.166"/>
</g>
<!-- Node17 -->
<g id="node17" class="node"><title>Node17</title>
<g id="a_node17"><a xlink:href="../../d1/d3a/classgame__engine_1_1_engine.html#a33096e19a0dd6c4541ade6bdfcf092c4" target="_top" xlink:title="game_engine.Engine.select\lLevel">
<polygon fill="white" stroke="black" points="506.5,-0 506.5,-30 655.5,-30 655.5,-0 506.5,-0"/>
<text text-anchor="start" x="514.5" y="-18" font-family="Helvetica,sans-Serif" font-size="10.00">game_engine.Engine.select</text>
<text text-anchor="middle" x="581" y="-7" font-family="Helvetica,sans-Serif" font-size="10.00">Level</text>
</a>
</g>
</g>
<!-- Node16&#45;&gt;Node17 -->
<g id="edge18" class="edge"><title>Node16&#45;&gt;Node17</title>
<path fill="none" stroke="midnightblue" d="M455.278,-22.2062C472.457,-21.2136 490.021,-20.1988 506.341,-19.2558"/>
<polygon fill="midnightblue" stroke="midnightblue" points="455.001,-18.7162 445.22,-22.7873 455.405,-25.7046 455.001,-18.7162"/>
</g>
</g>
</svg>
