<?xml version="1.0" encoding="UTF-8" standalone="no"?>
<!DOCTYPE svg PUBLIC "-//W3C//DTD SVG 1.1//EN"
 "http://www.w3.org/Graphics/SVG/1.1/DTD/svg11.dtd">
<!-- Generated by graphviz version 2.36.0 (20140111.2315)
 -->
<!-- Title: engine.elementFactories.LevelFactory.generateTerrainElements Pages: 1 -->
<svg width="664pt" height="48pt"
 viewBox="0.00 0.00 664.00 48.00" xmlns="http://www.w3.org/2000/svg" xmlns:xlink="http://www.w3.org/1999/xlink">
<g id="graph0" class="graph" transform="scale(1 1) rotate(0) translate(4 44)">
<title>engine.elementFactories.LevelFactory.generateTerrainElements</title>
<polygon fill="white" stroke="none" points="-4,4 -4,-44 660,-44 660,4 -4,4"/>
<!-- Node1 -->
<g id="node1" class="node"><title>Node1</title>
<polygon fill="#bfbfbf" stroke="black" points="0,0.5 0,-40.5 152,-40.5 152,0.5 0,0.5"/>
<text text-anchor="start" x="8" y="-28.5" font-family="Helvetica,sans-Serif" font-size="10.00">engine.elementFactories.</text>
<text text-anchor="start" x="8" y="-17.5" font-family="Helvetica,sans-Serif" font-size="10.00">LevelFactory.generateTerrain</text>
<text text-anchor="middle" x="76" y="-6.5" font-family="Helvetica,sans-Serif" font-size="10.00">Elements</text>
</g>
<!-- Node2 -->
<g id="node2" class="node"><title>Node2</title>
<g id="a_node2"><a xlink:href="../../d1/df7/classengine_1_1element_factories_1_1_level_factory.html#a0558c33c2ce1c757e3464d18c84db2e7" target="_top" xlink:title="engine.elementFactories.\lLevelFactory.createLevel">
<polygon fill="white" stroke="black" points="188.5,-5 188.5,-35 325.5,-35 325.5,-5 188.5,-5"/>
<text text-anchor="start" x="196.5" y="-23" font-family="Helvetica,sans-Serif" font-size="10.00">engine.elementFactories.</text>
<text text-anchor="middle" x="257" y="-12" font-family="Helvetica,sans-Serif" font-size="10.00">LevelFactory.createLevel</text>
</a>
</g>
</g>
<!-- Node1&#45;&gt;Node2 -->
<g id="edge1" class="edge"><title>Node1&#45;&gt;Node2</title>
<path fill="none" stroke="midnightblue" d="M162.37,-20C171.127,-20 179.938,-20 188.464,-20"/>
<polygon fill="midnightblue" stroke="midnightblue" points="162.134,-16.5001 152.134,-20 162.134,-23.5001 162.134,-16.5001"/>
</g>
<!-- Node3 -->
<g id="node3" class="node"><title>Node3</title>
<g id="a_node3"><a xlink:href="../../dc/de2/classengine_1_1_engine.html#a3c93d3ffede59b58f39d796d016effe4" target="_top" xlink:title="engine.Engine.instantiate\lManagers">
<polygon fill="white" stroke="black" points="362,-5 362,-35 500,-35 500,-5 362,-5"/>
<text text-anchor="start" x="370" y="-23" font-family="Helvetica,sans-Serif" font-size="10.00">engine.Engine.instantiate</text>
<text text-anchor="middle" x="431" y="-12" font-family="Helvetica,sans-Serif" font-size="10.00">Managers</text>
</a>
</g>
</g>
<!-- Node2&#45;&gt;Node3 -->
<g id="edge2" class="edge"><title>Node2&#45;&gt;Node3</title>
<path fill="none" stroke="midnightblue" d="M336.054,-20C344.696,-20 353.446,-20 361.952,-20"/>
<polygon fill="midnightblue" stroke="midnightblue" points="335.979,-16.5001 325.979,-20 335.979,-23.5001 335.979,-16.5001"/>
</g>
<!-- Node4 -->
<g id="node4" class="node"><title>Node4</title>
<g id="a_node4"><a xlink:href="../../dc/de2/classengine_1_1_engine.html#a707225a32896b370f131105ef1c644e2" target="_top" xlink:title="engine.Engine.Engine">
<polygon fill="white" stroke="black" points="536.5,-10.5 536.5,-29.5 655.5,-29.5 655.5,-10.5 536.5,-10.5"/>
<text text-anchor="middle" x="596" y="-17.5" font-family="Helvetica,sans-Serif" font-size="10.00">engine.Engine.Engine</text>
</a>
</g>
</g>
<!-- Node3&#45;&gt;Node4 -->
<g id="edge3" class="edge"><title>Node3&#45;&gt;Node4</title>
<path fill="none" stroke="midnightblue" d="M510.41,-20C519.163,-20 527.962,-20 536.405,-20"/>
<polygon fill="midnightblue" stroke="midnightblue" points="510.182,-16.5001 500.182,-20 510.182,-23.5001 510.182,-16.5001"/>
</g>
</g>
</svg>
