<?xml version="1.0" encoding="UTF-8" standalone="no"?>
<!DOCTYPE svg PUBLIC "-//W3C//DTD SVG 1.1//EN"
 "http://www.w3.org/Graphics/SVG/1.1/DTD/svg11.dtd">
<!-- Generated by graphviz version 2.36.0 (20140111.2315)
 -->
<!-- Title: engine.elementFactories.LevelFactory.generateUnitEelements Pages: 1 -->
<!--zoomable 137 -->
<svg id="main" version="1.1" xmlns="http://www.w3.org/2000/svg" xmlns:xlink="http://www.w3.org/1999/xlink" xml:space="preserve" onload="init(evt)">
<style type="text/css"><![CDATA[
.edge:hover path { stroke: red; }
.edge:hover polygon { stroke: red; fill: red; }
]]></style>
<script type="text/javascript"><![CDATA[
var edges = document.getElementsByTagName('g');
if (edges && edges.length) {
  for (var i=0;i<edges.length;i++) {
    if (edges[i].id.substr(0,4)=='edge') {
      edges[i].setAttribute('class','edge');
    }
  }
}
]]></script>
        <defs>
                <circle id="rim" cx="0" cy="0" r="7"/>
                <circle id="rim2" cx="0" cy="0" r="3.5"/>
                <g id="zoomPlus">
                        <use xlink:href="#rim" fill="#404040">
                                <set attributeName="fill" to="#808080" begin="zoomplus.mouseover" end="zoomplus.mouseout"/>
                        </use>
                        <path d="M-4,0h8M0,-4v8" fill="none" stroke="white" stroke-width="1.5" pointer-events="none"/>
                </g>
                <g id="zoomMin">
                        <use xlink:href="#rim" fill="#404040">
                                <set attributeName="fill" to="#808080" begin="zoomminus.mouseover" end="zoomminus.mouseout"/>
                        </use>
                        <path d="M-4,0h8" fill="none" stroke="white" stroke-width="1.5" pointer-events="none"/>
                </g>
                <g id="dirArrow">
                        <path fill="none" stroke="white" stroke-width="1.5" d="M0,-3.0v7 M-2.5,-0.5L0,-3.0L2.5,-0.5"/>
                </g>
               <g id="resetDef">
                       <use xlink:href="#rim2" fill="#404040">
                               <set attributeName="fill" to="#808080" begin="reset.mouseover" end="reset.mouseout"/>
                       </use>
               </g>
        </defs>

<script type="text/javascript">
var viewWidth = 1368;
var viewHeight = 137;
var sectionId = 'dynsection-8';
</script>
<script xlink:href="../../svgpan.js"/>
<svg id="graph" class="graph">
<g id="viewport">
<title>engine.elementFactories.LevelFactory.generateUnitEelements</title>
<polygon fill="white" stroke="none" points="-4,4 -4,-133 1364,-133 1364,4 -4,4"/>
<!-- Node1 -->
<g id="node1" class="node"><title>Node1</title>
<polygon fill="#bfbfbf" stroke="black" points="0.5,-55 0.5,-85 191.5,-85 191.5,-55 0.5,-55"/>
<text text-anchor="start" x="8.5" y="-73" font-family="Helvetica,sans-Serif" font-size="10.00">engine.elementFactories.</text>
<text text-anchor="middle" x="96" y="-62" font-family="Helvetica,sans-Serif" font-size="10.00">LevelFactory.generateUnitEelements</text>
</g>
<!-- Node2 -->
<g id="node2" class="node"><title>Node2</title>
<g id="a_node2"><a xlink:href="../../dc/d91/classengine_1_1element_factories_1_1_game_element_factory.html#aa4d47650f1e725a2ce809737d9234faf" target="_top" xlink:title="engine.elementFactories.\lGameElementFactory.createSelectable\lGameElement">
<polygon fill="white" stroke="black" points="228.5,-49.5 228.5,-90.5 431.5,-90.5 431.5,-49.5 228.5,-49.5"/>
<text text-anchor="start" x="236.5" y="-78.5" font-family="Helvetica,sans-Serif" font-size="10.00">engine.elementFactories.</text>
<text text-anchor="start" x="236.5" y="-67.5" font-family="Helvetica,sans-Serif" font-size="10.00">GameElementFactory.createSelectable</text>
<text text-anchor="middle" x="330" y="-56.5" font-family="Helvetica,sans-Serif" font-size="10.00">GameElement</text>
</a>
</g>
</g>
<!-- Node1&#45;&gt;Node2 -->
<g id="edge1" class="edge"><title>Node1&#45;&gt;Node2</title>
<path fill="none" stroke="midnightblue" d="M191.698,-70C200.343,-70 209.152,-70 217.923,-70"/>
<polygon fill="midnightblue" stroke="midnightblue" points="218.19,-73.5001 228.19,-70 218.19,-66.5001 218.19,-73.5001"/>
</g>
<!-- Node3 -->
<g id="node3" class="node"><title>Node3</title>
<g id="a_node3"><a xlink:href="../../de/dda/classmodel_1_1_game_universe.html#ab56912d95674b4c9a7f6cd04fefc5aa5" target="_top" xlink:title="model.GameUniverse.getSelectable\lGameElementState">
<polygon fill="white" stroke="black" points="481,-99 481,-129 671,-129 671,-99 481,-99"/>
<text text-anchor="start" x="489" y="-117" font-family="Helvetica,sans-Serif" font-size="10.00">model.GameUniverse.getSelectable</text>
<text text-anchor="middle" x="576" y="-106" font-family="Helvetica,sans-Serif" font-size="10.00">GameElementState</text>
</a>
</g>
</g>
<!-- Node2&#45;&gt;Node3 -->
<g id="edge2" class="edge"><title>Node2&#45;&gt;Node3</title>
<path fill="none" stroke="midnightblue" d="M431.653,-88.1505C448.177,-91.1303 465.24,-94.2073 481.579,-97.1536"/>
<polygon fill="midnightblue" stroke="midnightblue" points="481.185,-100.639 491.648,-98.9692 482.427,-93.7501 481.185,-100.639"/>
</g>
<!-- Node5 -->
<g id="node5" class="node"><title>Node5</title>
<g id="a_node5"><a xlink:href="../../da/dc5/classmodel_1_1state_1_1gameelement_1_1_attribute_container.html#a168d6e922a93b11894753a0598c02cf7" target="_top" xlink:title="model.state.gameelement.\lAttributeContainer.setNumerical\lAttribute">
<polygon fill="white" stroke="black" points="984.5,-24.5 984.5,-65.5 1155.5,-65.5 1155.5,-24.5 984.5,-24.5"/>
<text text-anchor="start" x="992.5" y="-53.5" font-family="Helvetica,sans-Serif" font-size="10.00">model.state.gameelement.</text>
<text text-anchor="start" x="992.5" y="-42.5" font-family="Helvetica,sans-Serif" font-size="10.00">AttributeContainer.setNumerical</text>
<text text-anchor="middle" x="1070" y="-31.5" font-family="Helvetica,sans-Serif" font-size="10.00">Attribute</text>
</a>
</g>
</g>
<!-- Node2&#45;&gt;Node5 -->
<g id="edge4" class="edge"><title>Node2&#45;&gt;Node5</title>
<path fill="none" stroke="midnightblue" d="M431.736,-67.0097C553.898,-63.3199 766.061,-56.7077 948,-50 956.549,-49.6848 965.437,-49.3435 974.34,-48.9924"/>
<polygon fill="midnightblue" stroke="midnightblue" points="974.528,-52.4878 984.381,-48.5926 974.25,-45.4933 974.528,-52.4878"/>
</g>
<!-- Node7 -->
<g id="node7" class="node"><title>Node7</title>
<g id="a_node7"><a xlink:href="../../d4/de2/classengine_1_1game_representation_1_1rendered_representation_1_1_game_element.html#ab00622dd7923aa9115154156e15451ae" target="_top" xlink:title="engine.gameRepresentation.rendered\lRepresentation.GameElement.setPosition">
<polygon fill="white" stroke="black" points="468,-9 468,-39 684,-39 684,-9 468,-9"/>
<text text-anchor="start" x="476" y="-27" font-family="Helvetica,sans-Serif" font-size="10.00">engine.gameRepresentation.rendered</text>
<text text-anchor="middle" x="576" y="-16" font-family="Helvetica,sans-Serif" font-size="10.00">Representation.GameElement.setPosition</text>
</a>
</g>
</g>
<!-- Node2&#45;&gt;Node7 -->
<g id="edge6" class="edge"><title>Node2&#45;&gt;Node7</title>
<path fill="none" stroke="midnightblue" d="M431.653,-51.0245C449.321,-47.6937 467.605,-44.2466 484.961,-40.9747"/>
<polygon fill="midnightblue" stroke="midnightblue" points="485.882,-44.3627 495.06,-39.0706 484.585,-37.4839 485.882,-44.3627"/>
</g>
<!-- Node4 -->
<g id="node4" class="node"><title>Node4</title>
<g id="a_node4"><a xlink:href="../../d6/dea/classutil_1_1_deep_copy.html#a2e316cf2fbb29f638582d531f13f2f25" target="_top" xlink:title="util.DeepCopy.deepCopy">
<polygon fill="white" stroke="black" points="767.5,-104.5 767.5,-123.5 900.5,-123.5 900.5,-104.5 767.5,-104.5"/>
<text text-anchor="middle" x="834" y="-111.5" font-family="Helvetica,sans-Serif" font-size="10.00">util.DeepCopy.deepCopy</text>
</a>
</g>
</g>
<!-- Node3&#45;&gt;Node4 -->
<g id="edge3" class="edge"><title>Node3&#45;&gt;Node4</title>
<path fill="none" stroke="midnightblue" d="M671.234,-114C699.552,-114 730.243,-114 757.206,-114"/>
<polygon fill="midnightblue" stroke="midnightblue" points="757.344,-117.5 767.344,-114 757.344,-110.5 757.344,-117.5"/>
</g>
<!-- Node6 -->
<g id="node6" class="node"><title>Node6</title>
<g id="a_node6"><a xlink:href="../../da/dc5/classmodel_1_1state_1_1gameelement_1_1_attribute_container.html#a03dd9ed123fc97bfc8bce5528b488333" target="_top" xlink:title="model.state.gameelement.\lAttributeContainer.addAttribute">
<polygon fill="white" stroke="black" points="1192.5,-30 1192.5,-60 1359.5,-60 1359.5,-30 1192.5,-30"/>
<text text-anchor="start" x="1200.5" y="-48" font-family="Helvetica,sans-Serif" font-size="10.00">model.state.gameelement.</text>
<text text-anchor="middle" x="1276" y="-37" font-family="Helvetica,sans-Serif" font-size="10.00">AttributeContainer.addAttribute</text>
</a>
</g>
</g>
<!-- Node5&#45;&gt;Node6 -->
<g id="edge5" class="edge"><title>Node5&#45;&gt;Node6</title>
<path fill="none" stroke="midnightblue" d="M1155.74,-45C1164.57,-45 1173.58,-45 1182.49,-45"/>
<polygon fill="midnightblue" stroke="midnightblue" points="1182.49,-48.5001 1192.49,-45 1182.49,-41.5001 1182.49,-48.5001"/>
</g>
<!-- Node8 -->
<g id="node8" class="node"><title>Node8</title>
<g id="a_node8"><a xlink:href="../../d4/de2/classengine_1_1game_representation_1_1rendered_representation_1_1_game_element.html#a5a426090456bba2adf4993b5b3fb0ffd" target="_top" xlink:title="engine.gameRepresentation.rendered\lRepresentation.GameElement.setNumerical\lAttribute">
<polygon fill="white" stroke="black" points="720.5,-0.5 720.5,-41.5 947.5,-41.5 947.5,-0.5 720.5,-0.5"/>
<text text-anchor="start" x="728.5" y="-29.5" font-family="Helvetica,sans-Serif" font-size="10.00">engine.gameRepresentation.rendered</text>
<text text-anchor="start" x="728.5" y="-18.5" font-family="Helvetica,sans-Serif" font-size="10.00">Representation.GameElement.setNumerical</text>
<text text-anchor="middle" x="834" y="-7.5" font-family="Helvetica,sans-Serif" font-size="10.00">Attribute</text>
</a>
</g>
</g>
<!-- Node7&#45;&gt;Node8 -->
<g id="edge7" class="edge"><title>Node7&#45;&gt;Node8</title>
<path fill="none" stroke="midnightblue" d="M684.084,-22.7451C692.651,-22.6447 701.347,-22.5428 710.013,-22.4413"/>
<polygon fill="midnightblue" stroke="midnightblue" points="710.203,-25.9394 720.162,-22.3223 710.121,-18.9398 710.203,-25.9394"/>
</g>
<!-- Node8&#45;&gt;Node5 -->
<g id="edge8" class="edge"><title>Node8&#45;&gt;Node5</title>
<path fill="none" stroke="midnightblue" d="M947.545,-32.5431C956.465,-33.458 965.42,-34.3764 974.202,-35.2771"/>
<polygon fill="midnightblue" stroke="midnightblue" points="974.114,-38.7863 984.419,-36.325 974.828,-31.8229 974.114,-38.7863"/>
</g>
</g>
</svg>
        <g id="navigator" transform="translate(0 0)" fill="#404254">
                <rect fill="#f2f5e9" fill-opacity="0.5" stroke="#606060" stroke-width=".5" x="0" y="0" width="60" height="60"/>
                <use id="zoomplus" xlink:href="#zoomPlus" x="17" y="9" onmousedown="handleZoom(evt,'in')"/>
                <use id="zoomminus" xlink:href="#zoomMin" x="42" y="9" onmousedown="handleZoom(evt,'out')"/>
                <use id="reset" xlink:href="#resetDef" x="30" y="36" onmousedown="handleReset()"/>
                <g id="arrowUp" xlink:href="#dirArrow" transform="translate(30 24)" onmousedown="handlePan(0,-1)">
                  <use xlink:href="#rim" fill="#404040">
                        <set attributeName="fill" to="#808080" begin="arrowUp.mouseover" end="arrowUp.mouseout"/>
                  </use>
                  <path fill="none" stroke="white" stroke-width="1.5" d="M0,-3.0v7 M-2.5,-0.5L0,-3.0L2.5,-0.5"/>
                </g>
                <g id="arrowRight" xlink:href="#dirArrow" transform="rotate(90) translate(36 -43)" onmousedown="handlePan(1,0)">
                  <use xlink:href="#rim" fill="#404040">
                        <set attributeName="fill" to="#808080" begin="arrowRight.mouseover" end="arrowRight.mouseout"/>
                  </use>
                  <path fill="none" stroke="white" stroke-width="1.5" d="M0,-3.0v7 M-2.5,-0.5L0,-3.0L2.5,-0.5"/>
                </g>
                <g id="arrowDown" xlink:href="#dirArrow" transform="rotate(180) translate(-30 -48)" onmousedown="handlePan(0,1)">
                  <use xlink:href="#rim" fill="#404040">
                        <set attributeName="fill" to="#808080" begin="arrowDown.mouseover" end="arrowDown.mouseout"/>
                  </use>
                  <path fill="none" stroke="white" stroke-width="1.5" d="M0,-3.0v7 M-2.5,-0.5L0,-3.0L2.5,-0.5"/>
                </g>
                <g id="arrowLeft" xlink:href="#dirArrow" transform="rotate(270) translate(-36 17)" onmousedown="handlePan(-1,0)">
                  <use xlink:href="#rim" fill="#404040">
                        <set attributeName="fill" to="#808080" begin="arrowLeft.mouseover" end="arrowLeft.mouseout"/>
                  </use>
                  <path fill="none" stroke="white" stroke-width="1.5" d="M0,-3.0v7 M-2.5,-0.5L0,-3.0L2.5,-0.5"/>
                </g>
        </g>
        <svg viewBox="0 0 15 15" width="100%" height="30px" preserveAspectRatio="xMaxYMin meet">
         <g id="arrow_out" transform="scale(0.3 0.3)">
          <a xlink:href="classengine_1_1element_factories_1_1_level_factory_af508251aa34348c7205910e614e85927_cgraph_org.svg" target="_base">
           <rect id="button" ry="5" rx="5" y="6" x="6" height="38" width="38"
                fill="#f2f5e9" fill-opacity="0.5" stroke="#606060" stroke-width="1.0"/>
           <path id="arrow"
             d="M 11.500037,31.436501 C 11.940474,20.09759 22.043105,11.32322 32.158766,21.979434 L 37.068811,17.246167 C 37.068811,17.246167 37.088388,32 37.088388,32 L 22.160133,31.978069 C 22.160133,31.978069 26.997745,27.140456 26.997745,27.140456 C 18.528582,18.264221 13.291696,25.230495 11.500037,31.436501 z"
             style="fill:#404040;"/>
          </a>
         </g>
        </svg>
</svg>
