<?xml version="1.0" encoding="UTF-8" standalone="no"?>
<!DOCTYPE svg PUBLIC "-//W3C//DTD SVG 1.1//EN"
 "http://www.w3.org/Graphics/SVG/1.1/DTD/svg11.dtd">
<!-- Generated by graphviz version 2.36.0 (20140111.2315)
 -->
<!-- Title: view.editor.wizards.AnimationWizard.loadGlobalValues Pages: 1 -->
<svg width="568pt" height="87pt"
 viewBox="0.00 0.00 568.00 87.00" xmlns="http://www.w3.org/2000/svg" xmlns:xlink="http://www.w3.org/1999/xlink">
<g id="graph0" class="graph" transform="scale(1 1) rotate(0) translate(4 83)">
<title>view.editor.wizards.AnimationWizard.loadGlobalValues</title>
<polygon fill="white" stroke="none" points="-4,4 -4,-83 564,-83 564,4 -4,4"/>
<!-- Node1 -->
<g id="node1" class="node"><title>Node1</title>
<polygon fill="#bfbfbf" stroke="black" points="0,-24 0,-54 156,-54 156,-24 0,-24"/>
<text text-anchor="start" x="8" y="-42" font-family="Helvetica,sans-Serif" font-size="10.00">view.editor.wizards.Animation</text>
<text text-anchor="middle" x="78" y="-31" font-family="Helvetica,sans-Serif" font-size="10.00">Wizard.loadGlobalValues</text>
</g>
<!-- Node2 -->
<g id="node2" class="node"><title>Node2</title>
<g id="a_node2"><a xlink:href="../../d3/d91/classview_1_1editor_1_1wizards_1_1_animation_wizard.html#ad161613cc1692edd29c5da1d6914f920" target="_top" xlink:title="view.editor.wizards.Animation\lWizard.loadImage">
<polygon fill="white" stroke="black" points="192,-24 192,-54 348,-54 348,-24 192,-24"/>
<text text-anchor="start" x="200" y="-42" font-family="Helvetica,sans-Serif" font-size="10.00">view.editor.wizards.Animation</text>
<text text-anchor="middle" x="270" y="-31" font-family="Helvetica,sans-Serif" font-size="10.00">Wizard.loadImage</text>
</a>
</g>
</g>
<!-- Node1&#45;&gt;Node2 -->
<g id="edge1" class="edge"><title>Node1&#45;&gt;Node2</title>
<path fill="none" stroke="midnightblue" d="M156.006,-39C164.509,-39 173.211,-39 181.827,-39"/>
<polygon fill="midnightblue" stroke="midnightblue" points="181.884,-42.5001 191.884,-39 181.884,-35.5001 181.884,-42.5001"/>
</g>
<!-- Node3 -->
<g id="node3" class="node"><title>Node3</title>
<g id="a_node3"><a xlink:href="../../d3/d91/classview_1_1editor_1_1wizards_1_1_animation_wizard.html#a77dbe9233002a379cf9824154144833c" target="_top" xlink:title="view.editor.wizards.Animation\lWizard.addImage">
<polygon fill="white" stroke="black" points="394,-49 394,-79 550,-79 550,-49 394,-49"/>
<text text-anchor="start" x="402" y="-67" font-family="Helvetica,sans-Serif" font-size="10.00">view.editor.wizards.Animation</text>
<text text-anchor="middle" x="472" y="-56" font-family="Helvetica,sans-Serif" font-size="10.00">Wizard.addImage</text>
</a>
</g>
</g>
<!-- Node2&#45;&gt;Node3 -->
<g id="edge2" class="edge"><title>Node2&#45;&gt;Node3</title>
<path fill="none" stroke="midnightblue" d="M348.039,-48.6299C359.614,-50.0768 371.623,-51.5778 383.399,-53.0498"/>
<polygon fill="midnightblue" stroke="midnightblue" points="383.313,-56.5663 393.67,-54.3338 384.182,-49.6204 383.313,-56.5663"/>
</g>
<!-- Node4 -->
<g id="node4" class="node"><title>Node4</title>
<g id="a_node4"><a xlink:href="../../d7/d40/classview_1_1editor_1_1wizards_1_1_wizard.html#a52c0d50f4a78361541be6627971a9384" target="_top" xlink:title="view.editor.wizards.Wizard.display\lErrorMessage">
<polygon fill="white" stroke="black" points="384.5,-0 384.5,-30 559.5,-30 559.5,-0 384.5,-0"/>
<text text-anchor="start" x="392.5" y="-18" font-family="Helvetica,sans-Serif" font-size="10.00">view.editor.wizards.Wizard.display</text>
<text text-anchor="middle" x="472" y="-7" font-family="Helvetica,sans-Serif" font-size="10.00">ErrorMessage</text>
</a>
</g>
</g>
<!-- Node2&#45;&gt;Node4 -->
<g id="edge3" class="edge"><title>Node2&#45;&gt;Node4</title>
<path fill="none" stroke="midnightblue" d="M348.039,-29.7553C356.674,-28.7191 365.55,-27.654 374.391,-26.5931"/>
<polygon fill="midnightblue" stroke="midnightblue" points="374.831,-30.0655 384.343,-25.3989 373.997,-23.1154 374.831,-30.0655"/>
</g>
</g>
</svg>
