<?xml version="1.0" encoding="UTF-8" standalone="no"?>
<!DOCTYPE svg PUBLIC "-//W3C//DTD SVG 1.1//EN"
 "http://www.w3.org/Graphics/SVG/1.1/DTD/svg11.dtd">
<!-- Generated by graphviz version 2.36.0 (20140111.2315)
 -->
<!-- Title: editor.wizards.TerrainWizard Pages: 1 -->
<svg width="1114pt" height="552pt"
 viewBox="0.00 0.00 1114.00 551.71" xmlns="http://www.w3.org/2000/svg" xmlns:xlink="http://www.w3.org/1999/xlink">
<g id="graph0" class="graph" transform="scale(1 1) rotate(0) translate(4 547.706)">
<title>editor.wizards.TerrainWizard</title>
<polygon fill="white" stroke="none" points="-4,4 -4,-547.706 1110,-547.706 1110,4 -4,4"/>
<!-- Node1 -->
<g id="node1" class="node"><title>Node1</title>
<polygon fill="#bfbfbf" stroke="black" points="958,-203.008 958,-222.008 1106,-222.008 1106,-203.008 958,-203.008"/>
<text text-anchor="middle" x="1032" y="-210.008" font-family="Helvetica,sans-Serif" font-size="10.00">editor.wizards.TerrainWizard</text>
</g>
<!-- Node2 -->
<g id="node2" class="node"><title>Node2</title>
<g id="a_node2"><a xlink:href="../../df/d00/classeditor_1_1wizards_1_1_drawable_game_element_wizard.html" target="_top" xlink:title="editor.wizards.DrawableGame\lElementWizard">
<polygon fill="white" stroke="black" points="762,-197.508 762,-227.508 920,-227.508 920,-197.508 762,-197.508"/>
<text text-anchor="start" x="770" y="-215.508" font-family="Helvetica,sans-Serif" font-size="10.00">editor.wizards.DrawableGame</text>
<text text-anchor="middle" x="841" y="-204.508" font-family="Helvetica,sans-Serif" font-size="10.00">ElementWizard</text>
</a>
</g>
</g>
<!-- Node2&#45;&gt;Node1 -->
<g id="edge1" class="edge"><title>Node2&#45;&gt;Node1</title>
<path fill="none" stroke="midnightblue" d="M930.257,-212.508C939.536,-212.508 948.895,-212.508 957.975,-212.508"/>
<polygon fill="midnightblue" stroke="midnightblue" points="930.238,-209.008 920.238,-212.508 930.238,-216.008 930.238,-209.008"/>
</g>
<!-- Node3 -->
<g id="node3" class="node"><title>Node3</title>
<g id="a_node3"><a xlink:href="../../d9/d24/classeditor_1_1wizards_1_1_wizard.html" target="_top" xlink:title="editor.wizards.Wizard">
<polygon fill="white" stroke="black" points="517,-329.008 517,-348.008 633,-348.008 633,-329.008 517,-329.008"/>
<text text-anchor="middle" x="575" y="-336.008" font-family="Helvetica,sans-Serif" font-size="10.00">editor.wizards.Wizard</text>
</a>
</g>
</g>
<!-- Node3&#45;&gt;Node2 -->
<g id="edge2" class="edge"><title>Node3&#45;&gt;Node2</title>
<path fill="none" stroke="midnightblue" d="M605.599,-324.382C655.761,-300.44 757.028,-252.108 808.47,-227.557"/>
<polygon fill="midnightblue" stroke="midnightblue" points="603.795,-321.364 596.277,-328.83 606.81,-327.682 603.795,-321.364"/>
</g>
<!-- Node4 -->
<g id="node4" class="node"><title>Node4</title>
<g id="a_node4"><a xlink:href="../../d7/d84/interfaceview_1_1_g_u_i_controller.html" target="_top" xlink:title="view.GUIController">
<polygon fill="white" stroke="black" points="257.5,-367.008 257.5,-386.008 360.5,-386.008 360.5,-367.008 257.5,-367.008"/>
<text text-anchor="middle" x="309" y="-374.008" font-family="Helvetica,sans-Serif" font-size="10.00">view.GUIController</text>
</a>
</g>
</g>
<!-- Node4&#45;&gt;Node3 -->
<g id="edge3" class="edge"><title>Node4&#45;&gt;Node3</title>
<path fill="none" stroke="midnightblue" d="M370.886,-369.665C406.3,-365.473 451.751,-359.728 492,-353.508 502.441,-351.895 513.595,-349.982 524.206,-348.071"/>
<polygon fill="midnightblue" stroke="midnightblue" points="370.231,-366.218 360.707,-370.86 371.047,-373.17 370.231,-366.218"/>
</g>
<!-- Node5 -->
<g id="node5" class="node"><title>Node5</title>
<polygon fill="white" stroke="#bfbfbf" points="286.5,-329.008 286.5,-348.008 331.5,-348.008 331.5,-329.008 286.5,-329.008"/>
<text text-anchor="middle" x="309" y="-336.008" font-family="Helvetica,sans-Serif" font-size="10.00">Stage</text>
</g>
<!-- Node5&#45;&gt;Node3 -->
<g id="edge4" class="edge"><title>Node5&#45;&gt;Node3</title>
<path fill="none" stroke="#9a32cd" stroke-dasharray="5,2" d="M341.823,-338.508C385.119,-338.508 463.316,-338.508 516.9,-338.508"/>
<polygon fill="#9a32cd" stroke="#9a32cd" points="341.604,-335.008 331.604,-338.508 341.604,-342.008 341.604,-335.008"/>
<text text-anchor="middle" x="446" y="-341.508" font-family="Helvetica,sans-Serif" font-size="10.00"> myStage</text>
</g>
<!-- Node6 -->
<g id="node6" class="node"><title>Node6</title>
<polygon fill="white" stroke="#bfbfbf" points="236,-279.508 236,-309.508 382,-309.508 382,-279.508 236,-279.508"/>
<text text-anchor="start" x="244" y="-297.508" font-family="Helvetica,sans-Serif" font-size="10.00">Consumer&lt; editor.wizards.</text>
<text text-anchor="middle" x="309" y="-286.508" font-family="Helvetica,sans-Serif" font-size="10.00">WizardData &gt;</text>
</g>
<!-- Node6&#45;&gt;Node3 -->
<g id="edge5" class="edge"><title>Node6&#45;&gt;Node3</title>
<path fill="none" stroke="#9a32cd" stroke-dasharray="5,2" d="M392.223,-307.2C423.488,-312.134 459.416,-317.933 492,-323.508 501.986,-325.217 512.641,-327.112 522.854,-328.965"/>
<polygon fill="#9a32cd" stroke="#9a32cd" points="392.669,-303.727 382.246,-305.63 391.581,-310.642 392.669,-303.727"/>
<text text-anchor="middle" x="446" y="-326.508" font-family="Helvetica,sans-Serif" font-size="10.00"> mySaveConsumer</text>
</g>
<!-- Node7 -->
<g id="node7" class="node"><title>Node7</title>
<g id="a_node7"><a xlink:href="../../dc/d23/classeditor_1_1wizards_1_1_wizard_data.html" target="_top" xlink:title="editor.wizards.WizardData">
<polygon fill="white" stroke="black" points="239,-241.008 239,-260.008 379,-260.008 379,-241.008 239,-241.008"/>
<text text-anchor="middle" x="309" y="-248.008" font-family="Helvetica,sans-Serif" font-size="10.00">editor.wizards.WizardData</text>
</a>
</g>
</g>
<!-- Node7&#45;&gt;Node3 -->
<g id="edge6" class="edge"><title>Node7&#45;&gt;Node3</title>
<path fill="none" stroke="#9a32cd" stroke-dasharray="5,2" d="M375.416,-262.106C410.621,-269.391 454.41,-280.151 492,-294.508 516.45,-303.847 542.793,-318.986 558.841,-328.845"/>
<polygon fill="#9a32cd" stroke="#9a32cd" points="375.751,-258.603 365.256,-260.05 374.363,-265.464 375.751,-258.603"/>
<text text-anchor="middle" x="446" y="-297.508" font-family="Helvetica,sans-Serif" font-size="10.00"> userInput</text>
</g>
<!-- Node8 -->
<g id="node8" class="node"><title>Node8</title>
<polygon fill="white" stroke="#bfbfbf" points="0,-257.508 0,-287.508 144,-287.508 144,-257.508 0,-257.508"/>
<text text-anchor="start" x="8" y="-275.508" font-family="Helvetica,sans-Serif" font-size="10.00">List&lt; editor.wizards.Wizard</text>
<text text-anchor="middle" x="72" y="-264.508" font-family="Helvetica,sans-Serif" font-size="10.00">Data &gt;</text>
</g>
<!-- Node8&#45;&gt;Node7 -->
<g id="edge7" class="edge"><title>Node8&#45;&gt;Node7</title>
<path fill="none" stroke="#9a32cd" stroke-dasharray="5,2" d="M154.145,-264.912C181.686,-262.333 212.182,-259.478 238.711,-256.995"/>
<polygon fill="#9a32cd" stroke="#9a32cd" points="153.776,-261.431 144.145,-265.848 154.428,-268.4 153.776,-261.431"/>
<text text-anchor="middle" x="190" y="-267.508" font-family="Helvetica,sans-Serif" font-size="10.00"> myWizards</text>
</g>
<!-- Node9 -->
<g id="node9" class="node"><title>Node9</title>
<polygon fill="white" stroke="#bfbfbf" points="11,-219.008 11,-238.008 133,-238.008 133,-219.008 11,-219.008"/>
<text text-anchor="middle" x="72" y="-226.008" font-family="Helvetica,sans-Serif" font-size="10.00">Map&lt; String, String &gt;</text>
</g>
<!-- Node9&#45;&gt;Node7 -->
<g id="edge8" class="edge"><title>Node9&#45;&gt;Node7</title>
<path fill="none" stroke="#9a32cd" stroke-dasharray="5,2" d="M143.254,-235.085C173.471,-237.914 208.689,-241.211 238.789,-244.029"/>
<polygon fill="#9a32cd" stroke="#9a32cd" points="143.496,-231.592 133.213,-234.145 142.843,-238.562 143.496,-231.592"/>
<text text-anchor="middle" x="190" y="-244.508" font-family="Helvetica,sans-Serif" font-size="10.00"> myData</text>
</g>
<!-- Node10 -->
<g id="node10" class="node"><title>Node10</title>
<polygon fill="white" stroke="#bfbfbf" points="284.5,-488.008 284.5,-507.008 333.5,-507.008 333.5,-488.008 284.5,-488.008"/>
<text text-anchor="middle" x="309" y="-495.008" font-family="Helvetica,sans-Serif" font-size="10.00">Button</text>
</g>
<!-- Node10&#45;&gt;Node1 -->
<g id="edge22" class="edge"><title>Node10&#45;&gt;Node1</title>
<path fill="none" stroke="#9a32cd" stroke-dasharray="5,2" d="M343.476,-509.56C404.405,-529.556 536.66,-563.956 640,-527.508 825.377,-462.125 987.554,-267.516 1023.57,-222.072"/>
<polygon fill="#9a32cd" stroke="#9a32cd" points="344.231,-506.121 333.637,-506.251 342,-512.756 344.231,-506.121"/>
<text text-anchor="middle" x="701" y="-523.508" font-family="Helvetica,sans-Serif" font-size="10.00"> image</text>
</g>
<!-- Node10&#45;&gt;Node2 -->
<g id="edge19" class="edge"><title>Node10&#45;&gt;Node2</title>
<path fill="none" stroke="#9a32cd" stroke-dasharray="5,2" d="M343.875,-498.186C380.821,-498.171 441.44,-495.925 492,-483.508 610.336,-454.445 652.529,-456.013 744,-375.508 792.568,-332.764 823.236,-259.28 834.792,-227.68"/>
<polygon fill="#9a32cd" stroke="#9a32cd" points="343.676,-494.685 333.658,-498.133 343.64,-501.685 343.676,-494.685"/>
<text text-anchor="middle" x="575" y="-515.508" font-family="Helvetica,sans-Serif" font-size="10.00"> image</text>
<text text-anchor="middle" x="575" y="-504.508" font-family="Helvetica,sans-Serif" font-size="10.00">stringAttribute</text>
<text text-anchor="middle" x="575" y="-493.508" font-family="Helvetica,sans-Serif" font-size="10.00">trigger</text>
<text text-anchor="middle" x="575" y="-482.508" font-family="Helvetica,sans-Serif" font-size="10.00">numberAttribute</text>
</g>
<!-- Node10&#45;&gt;Node3 -->
<g id="edge9" class="edge"><title>Node10&#45;&gt;Node3</title>
<path fill="none" stroke="#9a32cd" stroke-dasharray="5,2" d="M343.6,-487.952C360.494,-483.203 381.302,-477.442 400,-472.508 440.753,-461.756 462.979,-480.072 492,-449.508 520.689,-419.294 481.977,-388.34 510,-357.508 513.508,-353.648 517.76,-350.559 522.387,-348.087"/>
<polygon fill="#9a32cd" stroke="#9a32cd" points="342.315,-484.677 333.641,-490.76 344.216,-491.415 342.315,-484.677"/>
<text text-anchor="middle" x="446" y="-475.508" font-family="Helvetica,sans-Serif" font-size="10.00"> save</text>
</g>
<!-- Node11 -->
<g id="node11" class="node"><title>Node11</title>
<polygon fill="white" stroke="#bfbfbf" points="278.5,-405.008 278.5,-424.008 339.5,-424.008 339.5,-405.008 278.5,-405.008"/>
<text text-anchor="middle" x="309" y="-412.008" font-family="Helvetica,sans-Serif" font-size="10.00">SplitPane</text>
</g>
<!-- Node11&#45;&gt;Node3 -->
<g id="edge10" class="edge"><title>Node11&#45;&gt;Node3</title>
<path fill="none" stroke="#9a32cd" stroke-dasharray="5,2" d="M349.482,-408.37C395.298,-400.808 467.674,-387.377 492,-374.508 501.727,-369.363 500.465,-363.002 510,-357.508 516.628,-353.689 524.093,-350.576 531.522,-348.06"/>
<polygon fill="#9a32cd" stroke="#9a32cd" points="348.882,-404.921 339.574,-409.982 350.007,-411.83 348.882,-404.921"/>
<text text-anchor="middle" x="446" y="-402.508" font-family="Helvetica,sans-Serif" font-size="10.00"> root</text>
</g>
<!-- Node12 -->
<g id="node12" class="node"><title>Node12</title>
<polygon fill="white" stroke="#bfbfbf" points="291.5,-443.008 291.5,-462.008 326.5,-462.008 326.5,-443.008 291.5,-443.008"/>
<text text-anchor="middle" x="309" y="-450.008" font-family="Helvetica,sans-Serif" font-size="10.00">Text</text>
</g>
<!-- Node12&#45;&gt;Node3 -->
<g id="edge11" class="edge"><title>Node12&#45;&gt;Node3</title>
<path fill="none" stroke="#9a32cd" stroke-dasharray="5,2" d="M336.644,-448.463C384.367,-440.999 480.539,-424.876 492,-414.508 511.701,-396.686 491.053,-376.13 510,-357.508 513.968,-353.608 518.698,-350.503 523.764,-348.031"/>
<polygon fill="#9a32cd" stroke="#9a32cd" points="336.052,-445.013 326.705,-450.002 337.123,-451.931 336.052,-445.013"/>
<text text-anchor="middle" x="446" y="-441.508" font-family="Helvetica,sans-Serif" font-size="10.00"> errorMessage</text>
</g>
<!-- Node13 -->
<g id="node13" class="node"><title>Node13</title>
<g id="a_node13"><a xlink:href="../../d5/de7/classeditor_1_1wizards_1_1_grid_lines.html" target="_top" xlink:title="editor.wizards.GridLines">
<polygon fill="white" stroke="black" points="510.5,-242.008 510.5,-261.008 639.5,-261.008 639.5,-242.008 510.5,-242.008"/>
<text text-anchor="middle" x="575" y="-249.008" font-family="Helvetica,sans-Serif" font-size="10.00">editor.wizards.GridLines</text>
</a>
</g>
</g>
<!-- Node13&#45;&gt;Node2 -->
<g id="edge12" class="edge"><title>Node13&#45;&gt;Node2</title>
<path fill="none" stroke="#9a32cd" stroke-dasharray="5,2" d="M649.706,-240.62C684.646,-235.458 726.405,-229.289 761.891,-224.047"/>
<polygon fill="#9a32cd" stroke="#9a32cd" points="648.952,-237.193 639.571,-242.117 649.975,-244.118 648.952,-237.193"/>
<text text-anchor="middle" x="701" y="-242.508" font-family="Helvetica,sans-Serif" font-size="10.00"> gridLines</text>
</g>
<!-- Node14 -->
<g id="node14" class="node"><title>Node14</title>
<polygon fill="white" stroke="#bfbfbf" points="286,-203.008 286,-222.008 332,-222.008 332,-203.008 286,-203.008"/>
<text text-anchor="middle" x="309" y="-210.008" font-family="Helvetica,sans-Serif" font-size="10.00">Group</text>
</g>
<!-- Node14&#45;&gt;Node2 -->
<g id="edge20" class="edge"><title>Node14&#45;&gt;Node2</title>
<path fill="none" stroke="#9a32cd" stroke-dasharray="5,2" d="M342.325,-212.508C424.547,-212.508 643.486,-212.508 761.695,-212.508"/>
<polygon fill="#9a32cd" stroke="#9a32cd" points="342.099,-209.008 332.099,-212.508 342.099,-216.008 342.099,-209.008"/>
<text text-anchor="middle" x="575" y="-215.508" font-family="Helvetica,sans-Serif" font-size="10.00"> spritesheet</text>
</g>
<!-- Node14&#45;&gt;Node13 -->
<g id="edge13" class="edge"><title>Node14&#45;&gt;Node13</title>
<path fill="none" stroke="midnightblue" d="M342.165,-217.26C383.787,-223.408 457.249,-234.261 510.341,-242.104"/>
<polygon fill="midnightblue" stroke="midnightblue" points="342.459,-213.765 332.054,-215.766 341.436,-220.69 342.459,-213.765"/>
</g>
<!-- Node15 -->
<g id="node15" class="node"><title>Node15</title>
<polygon fill="white" stroke="#bfbfbf" points="543,-157.008 543,-176.008 607,-176.008 607,-157.008 543,-157.008"/>
<text text-anchor="middle" x="575" y="-164.008" font-family="Helvetica,sans-Serif" font-size="10.00">CheckBox</text>
</g>
<!-- Node15&#45;&gt;Node2 -->
<g id="edge14" class="edge"><title>Node15&#45;&gt;Node2</title>
<path fill="none" stroke="#9a32cd" stroke-dasharray="5,2" d="M617.229,-170.148C651.384,-173.525 701.096,-179.277 744,-187.508 758.123,-190.218 773.247,-193.82 787.215,-197.443"/>
<polygon fill="#9a32cd" stroke="#9a32cd" points="617.444,-166.652 607.154,-169.176 616.772,-173.62 617.444,-166.652"/>
<text text-anchor="middle" x="701" y="-190.508" font-family="Helvetica,sans-Serif" font-size="10.00"> animationRepeat</text>
</g>
<!-- Node16 -->
<g id="node16" class="node"><title>Node16</title>
<polygon fill="white" stroke="#bfbfbf" points="542,-119.008 542,-138.008 608,-138.008 608,-119.008 542,-119.008"/>
<text text-anchor="middle" x="575" y="-126.008" font-family="Helvetica,sans-Serif" font-size="10.00">ScrollPane</text>
</g>
<!-- Node16&#45;&gt;Node2 -->
<g id="edge15" class="edge"><title>Node16&#45;&gt;Node2</title>
<path fill="none" stroke="#9a32cd" stroke-dasharray="5,2" d="M618.251,-132.897C652.809,-137.348 702.559,-145.74 744,-160.508 770.247,-169.861 798.004,-185.619 816.884,-197.341"/>
<polygon fill="#9a32cd" stroke="#9a32cd" points="618.393,-129.388 608.04,-131.64 617.537,-136.336 618.393,-129.388"/>
<text text-anchor="middle" x="701" y="-163.508" font-family="Helvetica,sans-Serif" font-size="10.00"> imageScroll</text>
</g>
<!-- Node17 -->
<g id="node17" class="node"><title>Node17</title>
<polygon fill="white" stroke="#bfbfbf" points="547,-54.0081 547,-73.0081 603,-73.0081 603,-54.0081 547,-54.0081"/>
<text text-anchor="middle" x="575" y="-61.0081" font-family="Helvetica,sans-Serif" font-size="10.00">TextField</text>
</g>
<!-- Node17&#45;&gt;Node2 -->
<g id="edge16" class="edge"><title>Node17&#45;&gt;Node2</title>
<path fill="none" stroke="#9a32cd" stroke-dasharray="5,2" d="M613.043,-55.6566C648.899,-50.0743 703.609,-47.04 744,-69.5081 795.217,-97.9981 824.281,-166.687 835.092,-197.32"/>
<polygon fill="#9a32cd" stroke="#9a32cd" points="612.281,-52.236 603.008,-57.3622 613.454,-59.137 612.281,-52.236"/>
<text text-anchor="middle" x="701" y="-127.508" font-family="Helvetica,sans-Serif" font-size="10.00"> startFrame</text>
<text text-anchor="middle" x="701" y="-116.508" font-family="Helvetica,sans-Serif" font-size="10.00">numRows</text>
<text text-anchor="middle" x="701" y="-105.508" font-family="Helvetica,sans-Serif" font-size="10.00">stopFrame</text>
<text text-anchor="middle" x="701" y="-94.5081" font-family="Helvetica,sans-Serif" font-size="10.00">frameWidthText</text>
<text text-anchor="middle" x="701" y="-83.5081" font-family="Helvetica,sans-Serif" font-size="10.00">name</text>
<text text-anchor="middle" x="701" y="-72.5081" font-family="Helvetica,sans-Serif" font-size="10.00">frameHeightText</text>
</g>
<!-- Node18 -->
<g id="node18" class="node"><title>Node18</title>
<polygon fill="white" stroke="#bfbfbf" points="541,-1.00809 541,-20.0081 609,-20.0081 609,-1.00809 541,-1.00809"/>
<text text-anchor="middle" x="575" y="-8.00809" font-family="Helvetica,sans-Serif" font-size="10.00">ImageView</text>
</g>
<!-- Node18&#45;&gt;Node1 -->
<g id="edge21" class="edge"><title>Node18&#45;&gt;Node1</title>
<path fill="none" stroke="#9a32cd" stroke-dasharray="5,2" d="M619.336,-3.45389C653.924,0.518047 703.177,2.4178 744,-10.5081 870.051,-50.4203 988.622,-167.81 1021.82,-202.651"/>
<polygon fill="#9a32cd" stroke="#9a32cd" points="618.584,-0.020686 609.098,-4.73897 619.456,-6.96618 618.584,-0.020686"/>
<text text-anchor="middle" x="841" y="-111.508" font-family="Helvetica,sans-Serif" font-size="10.00"> spritesheet</text>
</g>
<!-- Node18&#45;&gt;Node2 -->
<g id="edge17" class="edge"><title>Node18&#45;&gt;Node2</title>
<path fill="none" stroke="#9a32cd" stroke-dasharray="5,2" d="M619.473,-7.43167C655.9,-7.04993 707.635,-11.8638 744,-37.5081 800.923,-77.6494 827.64,-162.639 836.493,-197.305"/>
<polygon fill="#9a32cd" stroke="#9a32cd" points="619.074,-3.9402 609.162,-7.68156 619.244,-10.9381 619.074,-3.9402"/>
<text text-anchor="middle" x="701" y="-40.5081" font-family="Helvetica,sans-Serif" font-size="10.00"> imageView</text>
</g>
<!-- Node19 -->
<g id="node19" class="node"><title>Node19</title>
<polygon fill="white" stroke="#bfbfbf" points="553,-367.008 553,-386.008 597,-386.008 597,-367.008 553,-367.008"/>
<text text-anchor="middle" x="575" y="-374.008" font-family="Helvetica,sans-Serif" font-size="10.00">Slider</text>
</g>
<!-- Node19&#45;&gt;Node2 -->
<g id="edge18" class="edge"><title>Node19&#45;&gt;Node2</title>
<path fill="none" stroke="#9a32cd" stroke-dasharray="5,2" d="M607.025,-369.071C617.695,-366.052 629.575,-362.165 640,-357.508 715.967,-323.572 791.652,-257.8 823.857,-227.932"/>
<polygon fill="#9a32cd" stroke="#9a32cd" points="606.001,-365.722 597.252,-371.697 607.818,-372.482 606.001,-365.722"/>
<text text-anchor="middle" x="701" y="-363.508" font-family="Helvetica,sans-Serif" font-size="10.00"> frameWidth</text>
<text text-anchor="middle" x="701" y="-352.508" font-family="Helvetica,sans-Serif" font-size="10.00">frameHeight</text>
</g>
</g>
</svg>
