<?xml version="1.0" encoding="UTF-8" standalone="no"?>
<!DOCTYPE svg PUBLIC "-//W3C//DTD SVG 1.1//EN"
 "http://www.w3.org/Graphics/SVG/1.1/DTD/svg11.dtd">
<!-- Generated by graphviz version 2.36.0 (20140111.2315)
 -->
<!-- Title: view.editor.wizards.AnimationWizard Pages: 1 -->
<!--zoomable 669 -->
<svg id="main" version="1.1" xmlns="http://www.w3.org/2000/svg" xmlns:xlink="http://www.w3.org/1999/xlink" xml:space="preserve" onload="init(evt)">
<style type="text/css"><![CDATA[
.edge:hover path { stroke: red; }
.edge:hover polygon { stroke: red; fill: red; }
]]></style>
<script type="text/javascript"><![CDATA[
var edges = document.getElementsByTagName('g');
if (edges && edges.length) {
  for (var i=0;i<edges.length;i++) {
    if (edges[i].id.substr(0,4)=='edge') {
      edges[i].setAttribute('class','edge');
    }
  }
}
]]></script>
        <defs>
                <circle id="rim" cx="0" cy="0" r="7"/>
                <circle id="rim2" cx="0" cy="0" r="3.5"/>
                <g id="zoomPlus">
                        <use xlink:href="#rim" fill="#404040">
                                <set attributeName="fill" to="#808080" begin="zoomplus.mouseover" end="zoomplus.mouseout"/>
                        </use>
                        <path d="M-4,0h8M0,-4v8" fill="none" stroke="white" stroke-width="1.5" pointer-events="none"/>
                </g>
                <g id="zoomMin">
                        <use xlink:href="#rim" fill="#404040">
                                <set attributeName="fill" to="#808080" begin="zoomminus.mouseover" end="zoomminus.mouseout"/>
                        </use>
                        <path d="M-4,0h8" fill="none" stroke="white" stroke-width="1.5" pointer-events="none"/>
                </g>
                <g id="dirArrow">
                        <path fill="none" stroke="white" stroke-width="1.5" d="M0,-3.0v7 M-2.5,-0.5L0,-3.0L2.5,-0.5"/>
                </g>
               <g id="resetDef">
                       <use xlink:href="#rim2" fill="#404040">
                               <set attributeName="fill" to="#808080" begin="reset.mouseover" end="reset.mouseout"/>
                       </use>
               </g>
        </defs>

<script type="text/javascript">
var viewWidth = 1052;
var viewHeight = 669;
var sectionId = 'dynsection-1';
</script>
<script xlink:href="../../svgpan.js"/>
<svg id="graph" class="graph">
<g id="viewport">
<title>view.editor.wizards.AnimationWizard</title>
<polygon fill="white" stroke="none" points="-4,4 -4,-665 1048,-665 1048,4 -4,4"/>
<!-- Node1 -->
<g id="node1" class="node"><title>Node1</title>
<polygon fill="#bfbfbf" stroke="black" points="888,-196 888,-226 1044,-226 1044,-196 888,-196"/>
<text text-anchor="start" x="896" y="-214" font-family="Helvetica,sans-Serif" font-size="10.00">view.editor.wizards.Animation</text>
<text text-anchor="middle" x="966" y="-203" font-family="Helvetica,sans-Serif" font-size="10.00">Wizard</text>
</g>
<!-- Node2 -->
<g id="node2" class="node"><title>Node2</title>
<g id="a_node2"><a xlink:href="../../d7/d40/classview_1_1editor_1_1wizards_1_1_wizard.html" target="_top" xlink:title="view.editor.wizards.Wizard">
<polygon fill="white" stroke="black" points="600.5,-502.5 600.5,-521.5 739.5,-521.5 739.5,-502.5 600.5,-502.5"/>
<text text-anchor="middle" x="670" y="-509.5" font-family="Helvetica,sans-Serif" font-size="10.00">view.editor.wizards.Wizard</text>
</a>
</g>
</g>
<!-- Node2&#45;&gt;Node1 -->
<g id="edge1" class="edge"><title>Node2&#45;&gt;Node1</title>
<path fill="none" stroke="midnightblue" d="M710.788,-499.003C754.615,-482.955 824.853,-451.895 870,-405 922.409,-350.561 951.171,-261.63 961.042,-226.232"/>
<polygon fill="midnightblue" stroke="midnightblue" points="709.558,-495.726 701.32,-502.387 711.914,-502.317 709.558,-495.726"/>
</g>
<!-- Node3 -->
<g id="node3" class="node"><title>Node3</title>
<g id="a_node3"><a xlink:href="../../d5/d13/interfaceview_1_1gui_1_1_g_u_i_controller.html" target="_top" xlink:title="view.gui.GUIController">
<polygon fill="white" stroke="black" points="293,-641.5 293,-660.5 413,-660.5 413,-641.5 293,-641.5"/>
<text text-anchor="middle" x="353" y="-648.5" font-family="Helvetica,sans-Serif" font-size="10.00">view.gui.GUIController</text>
</a>
</g>
</g>
<!-- Node3&#45;&gt;Node2 -->
<g id="edge2" class="edge"><title>Node3&#45;&gt;Node2</title>
<path fill="none" stroke="midnightblue" d="M423.133,-643.63C463.504,-637.321 514.501,-625.802 556,-605 600.292,-582.798 642.672,-540.459 660.354,-521.543"/>
<polygon fill="midnightblue" stroke="midnightblue" points="422.485,-640.187 413.11,-645.124 423.517,-647.111 422.485,-640.187"/>
</g>
<!-- Node4 -->
<g id="node4" class="node"><title>Node4</title>
<g id="a_node4"><a xlink:href="../../dc/d48/classmodel_1_1data_1_1_wizard_data.html" target="_top" xlink:title="model.data.WizardData">
<polygon fill="white" stroke="black" points="288.5,-603.5 288.5,-622.5 417.5,-622.5 417.5,-603.5 288.5,-603.5"/>
<text text-anchor="middle" x="353" y="-610.5" font-family="Helvetica,sans-Serif" font-size="10.00">model.data.WizardData</text>
</a>
</g>
</g>
<!-- Node4&#45;&gt;Node2 -->
<g id="edge3" class="edge"><title>Node4&#45;&gt;Node2</title>
<path fill="none" stroke="#9a32cd" stroke-dasharray="5,2" d="M410.873,-601.358C422.499,-598.949 434.648,-596.411 446,-594 494.948,-583.606 508.901,-586.9 556,-570 592.53,-556.892 632.241,-534.394 653.494,-521.612"/>
<polygon fill="#9a32cd" stroke="#9a32cd" points="409.908,-597.983 400.824,-603.435 411.325,-604.838 409.908,-597.983"/>
<text text-anchor="middle" x="510" y="-593" font-family="Helvetica,sans-Serif" font-size="10.00"> myUserInput</text>
</g>
<!-- Node5 -->
<g id="node5" class="node"><title>Node5</title>
<g id="a_node5"><a xlink:href="../../d6/d26/enummodel_1_1data_1_1_wizard_type.html" target="_top" xlink:title="model.data.WizardType">
<polygon fill="white" stroke="black" points="20.5,-641.5 20.5,-660.5 147.5,-660.5 147.5,-641.5 20.5,-641.5"/>
<text text-anchor="middle" x="84" y="-648.5" font-family="Helvetica,sans-Serif" font-size="10.00">model.data.WizardType</text>
</a>
</g>
</g>
<!-- Node5&#45;&gt;Node4 -->
<g id="edge4" class="edge"><title>Node5&#45;&gt;Node4</title>
<path fill="none" stroke="#9a32cd" stroke-dasharray="5,2" d="M157.508,-640.681C198.414,-634.859 249.052,-627.652 288.403,-622.051"/>
<polygon fill="#9a32cd" stroke="#9a32cd" points="157.007,-637.216 147.6,-642.091 157.993,-644.147 157.007,-637.216"/>
<text text-anchor="middle" x="214" y="-639" font-family="Helvetica,sans-Serif" font-size="10.00"> myType</text>
</g>
<!-- Node6 -->
<g id="node6" class="node"><title>Node6</title>
<polygon fill="white" stroke="#bfbfbf" points="0,-603.5 0,-622.5 168,-622.5 168,-603.5 0,-603.5"/>
<text text-anchor="middle" x="84" y="-610.5" font-family="Helvetica,sans-Serif" font-size="10.00">List&lt; model.data.WizardData &gt;</text>
</g>
<!-- Node6&#45;&gt;Node4 -->
<g id="edge5" class="edge"><title>Node6&#45;&gt;Node4</title>
<path fill="none" stroke="#9a32cd" stroke-dasharray="5,2" d="M178.139,-613C214.477,-613 255.218,-613 288.124,-613"/>
<polygon fill="#9a32cd" stroke="#9a32cd" points="178.017,-609.5 168.017,-613 178.017,-616.5 178.017,-609.5"/>
<text text-anchor="middle" x="214" y="-616" font-family="Helvetica,sans-Serif" font-size="10.00"> myWizards</text>
</g>
<!-- Node7 -->
<g id="node7" class="node"><title>Node7</title>
<polygon fill="white" stroke="#bfbfbf" points="3.5,-554 3.5,-584 164.5,-584 164.5,-554 3.5,-554"/>
<text text-anchor="start" x="11.5" y="-572" font-family="Helvetica,sans-Serif" font-size="10.00">Map&lt; model.data.WizardData</text>
<text text-anchor="middle" x="84" y="-561" font-family="Helvetica,sans-Serif" font-size="10.00">Type, String &gt;</text>
</g>
<!-- Node7&#45;&gt;Node4 -->
<g id="edge6" class="edge"><title>Node7&#45;&gt;Node4</title>
<path fill="none" stroke="#9a32cd" stroke-dasharray="5,2" d="M174.651,-583.774C214.131,-590.28 259.368,-597.735 294.272,-603.487"/>
<polygon fill="#9a32cd" stroke="#9a32cd" points="175.183,-580.315 164.747,-582.142 174.045,-587.221 175.183,-580.315"/>
<text text-anchor="middle" x="214" y="-596" font-family="Helvetica,sans-Serif" font-size="10.00"> myData</text>
</g>
<!-- Node8 -->
<g id="node8" class="node"><title>Node8</title>
<polygon fill="white" stroke="#bfbfbf" points="330.5,-565.5 330.5,-584.5 375.5,-584.5 375.5,-565.5 330.5,-565.5"/>
<text text-anchor="middle" x="353" y="-572.5" font-family="Helvetica,sans-Serif" font-size="10.00">Stage</text>
</g>
<!-- Node8&#45;&gt;Node2 -->
<g id="edge7" class="edge"><title>Node8&#45;&gt;Node2</title>
<path fill="none" stroke="#9a32cd" stroke-dasharray="5,2" d="M385.517,-569.967C425.353,-563.47 495.977,-551.508 556,-539 581.275,-533.733 609.525,-526.983 631.456,-521.55"/>
<polygon fill="#9a32cd" stroke="#9a32cd" points="384.915,-566.518 375.604,-571.574 386.035,-573.428 384.915,-566.518"/>
<text text-anchor="middle" x="510" y="-558" font-family="Helvetica,sans-Serif" font-size="10.00"> myStage</text>
</g>
<!-- Node9 -->
<g id="node9" class="node"><title>Node9</title>
<polygon fill="white" stroke="#bfbfbf" points="269.5,-516 269.5,-546 436.5,-546 436.5,-516 269.5,-516"/>
<text text-anchor="start" x="277.5" y="-534" font-family="Helvetica,sans-Serif" font-size="10.00">Consumer&lt; model.data.Wizard</text>
<text text-anchor="middle" x="353" y="-523" font-family="Helvetica,sans-Serif" font-size="10.00">Data &gt;</text>
</g>
<!-- Node9&#45;&gt;Node2 -->
<g id="edge8" class="edge"><title>Node9&#45;&gt;Node2</title>
<path fill="none" stroke="#9a32cd" stroke-dasharray="5,2" d="M446.775,-525.404C495.961,-522.437 555.342,-518.856 600.343,-516.141"/>
<polygon fill="#9a32cd" stroke="#9a32cd" points="446.534,-521.912 436.763,-526.008 446.955,-528.899 446.534,-521.912"/>
<text text-anchor="middle" x="510" y="-527" font-family="Helvetica,sans-Serif" font-size="10.00"> mySaveConsumer</text>
</g>
<!-- Node10 -->
<g id="node10" class="node"><title>Node10</title>
<polygon fill="white" stroke="#bfbfbf" points="328.5,-477.5 328.5,-496.5 377.5,-496.5 377.5,-477.5 328.5,-477.5"/>
<text text-anchor="middle" x="353" y="-484.5" font-family="Helvetica,sans-Serif" font-size="10.00">Button</text>
</g>
<!-- Node10&#45;&gt;Node2 -->
<g id="edge9" class="edge"><title>Node10&#45;&gt;Node2</title>
<path fill="none" stroke="#9a32cd" stroke-dasharray="5,2" d="M387.734,-489.677C438.262,-493.687 534.669,-501.339 600.384,-506.554"/>
<polygon fill="#9a32cd" stroke="#9a32cd" points="387.922,-486.181 377.676,-488.879 387.368,-493.159 387.922,-486.181"/>
<text text-anchor="middle" x="510" y="-505" font-family="Helvetica,sans-Serif" font-size="10.00"> save</text>
</g>
<!-- Node11 -->
<g id="node11" class="node"><title>Node11</title>
<polygon fill="white" stroke="#bfbfbf" points="322.5,-439.5 322.5,-458.5 383.5,-458.5 383.5,-439.5 322.5,-439.5"/>
<text text-anchor="middle" x="353" y="-446.5" font-family="Helvetica,sans-Serif" font-size="10.00">SplitPane</text>
</g>
<!-- Node11&#45;&gt;Node2 -->
<g id="edge10" class="edge"><title>Node11&#45;&gt;Node2</title>
<path fill="none" stroke="#9a32cd" stroke-dasharray="5,2" d="M393.757,-453.625C434.688,-458.732 500.186,-467.863 556,-480 584.491,-486.195 616.411,-495.454 639.04,-502.421"/>
<polygon fill="#9a32cd" stroke="#9a32cd" points="394.001,-450.129 383.649,-452.384 393.148,-457.077 394.001,-450.129"/>
<text text-anchor="middle" x="510" y="-483" font-family="Helvetica,sans-Serif" font-size="10.00"> root</text>
</g>
<!-- Node12 -->
<g id="node12" class="node"><title>Node12</title>
<polygon fill="white" stroke="#bfbfbf" points="335.5,-391.5 335.5,-410.5 370.5,-410.5 370.5,-391.5 335.5,-391.5"/>
<text text-anchor="middle" x="353" y="-398.5" font-family="Helvetica,sans-Serif" font-size="10.00">Text</text>
</g>
<!-- Node12&#45;&gt;Node1 -->
<g id="edge23" class="edge"><title>Node12&#45;&gt;Node1</title>
<path fill="none" stroke="#9a32cd" stroke-dasharray="5,2" d="M380.594,-401.424C474.124,-402.464 786.755,-401.978 870,-351 918.596,-321.241 948.095,-256.186 959.534,-226.421"/>
<polygon fill="#9a32cd" stroke="#9a32cd" points="380.586,-397.924 370.543,-401.297 380.497,-404.924 380.586,-397.924"/>
<text text-anchor="middle" x="670" y="-402" font-family="Helvetica,sans-Serif" font-size="10.00"> gridPrompt</text>
</g>
<!-- Node12&#45;&gt;Node2 -->
<g id="edge11" class="edge"><title>Node12&#45;&gt;Node2</title>
<path fill="none" stroke="#9a32cd" stroke-dasharray="5,2" d="M380.828,-404.732C420.225,-410.767 495.597,-424.435 556,-448 593.808,-462.75 634.314,-488.398 655.032,-502.327"/>
<polygon fill="#9a32cd" stroke="#9a32cd" points="381.118,-401.237 370.713,-403.231 380.09,-408.161 381.118,-401.237"/>
<text text-anchor="middle" x="510" y="-451" font-family="Helvetica,sans-Serif" font-size="10.00"> errorMessage</text>
</g>
<!-- Node13 -->
<g id="node13" class="node"><title>Node13</title>
<polygon fill="white" stroke="#bfbfbf" points="638,-335.5 638,-354.5 702,-354.5 702,-335.5 638,-335.5"/>
<text text-anchor="middle" x="670" y="-342.5" font-family="Helvetica,sans-Serif" font-size="10.00">CheckBox</text>
</g>
<!-- Node13&#45;&gt;Node1 -->
<g id="edge12" class="edge"><title>Node13&#45;&gt;Node1</title>
<path fill="none" stroke="#9a32cd" stroke-dasharray="5,2" d="M712.353,-344.487C754.347,-342.377 820.117,-334.596 870,-308 907.44,-288.039 939.196,-248.193 954.752,-226.293"/>
<polygon fill="#9a32cd" stroke="#9a32cd" points="712.058,-340.996 702.213,-344.909 712.35,-347.99 712.058,-340.996"/>
<text text-anchor="middle" x="827" y="-339" font-family="Helvetica,sans-Serif" font-size="10.00"> animationRepeat</text>
</g>
<!-- Node14 -->
<g id="node14" class="node"><title>Node14</title>
<polygon fill="white" stroke="#bfbfbf" points="574.5,-286 574.5,-316 765.5,-316 765.5,-286 574.5,-286"/>
<text text-anchor="start" x="582.5" y="-304" font-family="Helvetica,sans-Serif" font-size="10.00">ComboBox&lt; engine.visuals.element</text>
<text text-anchor="middle" x="670" y="-293" font-family="Helvetica,sans-Serif" font-size="10.00">Visuals.animations.AnimationTag &gt;</text>
</g>
<!-- Node14&#45;&gt;Node1 -->
<g id="edge13" class="edge"><title>Node14&#45;&gt;Node1</title>
<path fill="none" stroke="#9a32cd" stroke-dasharray="5,2" d="M775.631,-293.459C806.68,-289.045 840.307,-282.057 870,-271 898.701,-260.312 927.929,-240.167 946.243,-226.184"/>
<polygon fill="#9a32cd" stroke="#9a32cd" points="775.092,-290 765.649,-294.804 776.026,-296.937 775.092,-290"/>
<text text-anchor="middle" x="827" y="-296" font-family="Helvetica,sans-Serif" font-size="10.00"> animationAction</text>
</g>
<!-- Node15 -->
<g id="node15" class="node"><title>Node15</title>
<polygon fill="white" stroke="#bfbfbf" points="637,-247.5 637,-266.5 703,-266.5 703,-247.5 637,-247.5"/>
<text text-anchor="middle" x="670" y="-254.5" font-family="Helvetica,sans-Serif" font-size="10.00">ScrollPane</text>
</g>
<!-- Node15&#45;&gt;Node1 -->
<g id="edge14" class="edge"><title>Node15&#45;&gt;Node1</title>
<path fill="none" stroke="#9a32cd" stroke-dasharray="5,2" d="M713.142,-257.894C753.734,-257.952 816.661,-255.921 870,-245 890.594,-240.783 912.755,-233.049 930.489,-226.022"/>
<polygon fill="#9a32cd" stroke="#9a32cd" points="713.091,-254.394 703.071,-257.836 713.05,-261.394 713.091,-254.394"/>
<text text-anchor="middle" x="827" y="-259" font-family="Helvetica,sans-Serif" font-size="10.00"> imageScroll</text>
</g>
<!-- Node16 -->
<g id="node16" class="node"><title>Node16</title>
<polygon fill="white" stroke="#bfbfbf" points="642,-207.5 642,-226.5 698,-226.5 698,-207.5 642,-207.5"/>
<text text-anchor="middle" x="670" y="-214.5" font-family="Helvetica,sans-Serif" font-size="10.00">TextField</text>
</g>
<!-- Node16&#45;&gt;Node1 -->
<g id="edge15" class="edge"><title>Node16&#45;&gt;Node1</title>
<path fill="none" stroke="#9a32cd" stroke-dasharray="5,2" d="M708.63,-214.97C730.601,-213.876 758.863,-212.625 784,-212 818.085,-211.152 855.79,-210.843 887.925,-210.769"/>
<polygon fill="#9a32cd" stroke="#9a32cd" points="708.2,-211.487 698.39,-215.491 708.555,-218.478 708.2,-211.487"/>
<text text-anchor="middle" x="827" y="-237" font-family="Helvetica,sans-Serif" font-size="10.00"> startFrame</text>
<text text-anchor="middle" x="827" y="-226" font-family="Helvetica,sans-Serif" font-size="10.00">slownessMultiplier</text>
<text text-anchor="middle" x="827" y="-215" font-family="Helvetica,sans-Serif" font-size="10.00">stopFrame</text>
</g>
<!-- Node17 -->
<g id="node17" class="node"><title>Node17</title>
<polygon fill="white" stroke="#bfbfbf" points="636,-169.5 636,-188.5 704,-188.5 704,-169.5 636,-169.5"/>
<text text-anchor="middle" x="670" y="-176.5" font-family="Helvetica,sans-Serif" font-size="10.00">ImageView</text>
</g>
<!-- Node17&#45;&gt;Node1 -->
<g id="edge16" class="edge"><title>Node17&#45;&gt;Node1</title>
<path fill="none" stroke="#9a32cd" stroke-dasharray="5,2" d="M714.206,-181.798C754.578,-184.623 816.486,-189.498 870,-196 875.801,-196.705 881.792,-197.497 887.812,-198.34"/>
<polygon fill="#9a32cd" stroke="#9a32cd" points="714.39,-178.302 704.173,-181.107 713.909,-185.286 714.39,-178.302"/>
<text text-anchor="middle" x="827" y="-199" font-family="Helvetica,sans-Serif" font-size="10.00"> imageView</text>
</g>
<!-- Node18 -->
<g id="node18" class="node"><title>Node18</title>
<g id="a_node18"><a xlink:href="../../d9/dd9/classview_1_1editor_1_1wizards_1_1_direction_grid.html" target="_top" xlink:title="view.editor.wizards.DirectionGrid">
<polygon fill="white" stroke="black" points="585,-55.5 585,-74.5 755,-74.5 755,-55.5 585,-55.5"/>
<text text-anchor="middle" x="670" y="-62.5" font-family="Helvetica,sans-Serif" font-size="10.00">view.editor.wizards.DirectionGrid</text>
</a>
</g>
</g>
<!-- Node18&#45;&gt;Node1 -->
<g id="edge17" class="edge"><title>Node18&#45;&gt;Node1</title>
<path fill="none" stroke="#9a32cd" stroke-dasharray="5,2" d="M765.585,-57.2447C800.316,-58.3482 838.75,-64.4941 870,-82 916.59,-108.099 946.732,-167.612 958.892,-195.737"/>
<polygon fill="#9a32cd" stroke="#9a32cd" points="765.481,-53.7423 755.419,-57.0593 765.353,-60.7412 765.481,-53.7423"/>
<text text-anchor="middle" x="827" y="-85" font-family="Helvetica,sans-Serif" font-size="10.00"> directionGrid</text>
</g>
<!-- Node19 -->
<g id="node19" class="node"><title>Node19</title>
<g id="a_node19"><a xlink:href="../../de/dec/classview_1_1editor_1_1wizards_1_1_grid.html" target="_top" xlink:title="view.editor.wizards.Grid">
<polygon fill="white" stroke="black" points="289.5,-90.5 289.5,-109.5 416.5,-109.5 416.5,-90.5 289.5,-90.5"/>
<text text-anchor="middle" x="353" y="-97.5" font-family="Helvetica,sans-Serif" font-size="10.00">view.editor.wizards.Grid</text>
</a>
</g>
</g>
<!-- Node19&#45;&gt;Node18 -->
<g id="edge18" class="edge"><title>Node19&#45;&gt;Node18</title>
<path fill="none" stroke="midnightblue" d="M426.744,-91.9173C473.887,-86.6792 535.458,-79.838 584.729,-74.3634"/>
<polygon fill="midnightblue" stroke="midnightblue" points="426.163,-88.4603 416.61,-93.0433 426.936,-95.4175 426.163,-88.4603"/>
</g>
<!-- Node24 -->
<g id="node24" class="node"><title>Node24</title>
<g id="a_node24"><a xlink:href="../../de/dd2/classview_1_1editor_1_1wizards_1_1_animation_grid.html" target="_top" xlink:title="view.editor.wizards.AnimationGrid">
<polygon fill="white" stroke="black" points="582,-93.5 582,-112.5 758,-112.5 758,-93.5 582,-93.5"/>
<text text-anchor="middle" x="670" y="-100.5" font-family="Helvetica,sans-Serif" font-size="10.00">view.editor.wizards.AnimationGrid</text>
</a>
</g>
</g>
<!-- Node19&#45;&gt;Node24 -->
<g id="edge25" class="edge"><title>Node19&#45;&gt;Node24</title>
<path fill="none" stroke="midnightblue" d="M426.842,-100.694C473.029,-101.134 533.036,-101.705 581.76,-102.169"/>
<polygon fill="midnightblue" stroke="midnightblue" points="426.643,-97.1918 416.61,-100.596 426.577,-104.191 426.643,-97.1918"/>
</g>
<!-- Node20 -->
<g id="node20" class="node"><title>Node20</title>
<polygon fill="white" stroke="#bfbfbf" points="61,-128.5 61,-147.5 107,-147.5 107,-128.5 61,-128.5"/>
<text text-anchor="middle" x="84" y="-135.5" font-family="Helvetica,sans-Serif" font-size="10.00">Group</text>
</g>
<!-- Node20&#45;&gt;Node1 -->
<g id="edge27" class="edge"><title>Node20&#45;&gt;Node1</title>
<path fill="none" stroke="#9a32cd" stroke-dasharray="5,2" d="M117.328,-136.826C215.42,-133.738 518.113,-127.706 766,-160 819.58,-166.98 879.437,-183.56 919.378,-195.933"/>
<polygon fill="#9a32cd" stroke="#9a32cd" points="117.053,-133.333 107.173,-137.159 117.282,-140.329 117.053,-133.333"/>
<text text-anchor="middle" x="510" y="-156" font-family="Helvetica,sans-Serif" font-size="10.00"> spritesheet</text>
<text text-anchor="middle" x="510" y="-145" font-family="Helvetica,sans-Serif" font-size="10.00">animationDirection</text>
</g>
<!-- Node20&#45;&gt;Node19 -->
<g id="edge19" class="edge"><title>Node20&#45;&gt;Node19</title>
<path fill="none" stroke="midnightblue" d="M117.366,-133.394C159.868,-127.345 235.404,-116.594 289.29,-108.925"/>
<polygon fill="midnightblue" stroke="midnightblue" points="116.712,-129.951 107.305,-134.826 117.698,-136.881 116.712,-129.951"/>
</g>
<!-- Node21 -->
<g id="node21" class="node"><title>Node21</title>
<polygon fill="white" stroke="#bfbfbf" points="2.5,-75 2.5,-105 165.5,-105 165.5,-75 2.5,-75"/>
<text text-anchor="start" x="10.5" y="-93" font-family="Helvetica,sans-Serif" font-size="10.00">List&lt; List&lt; view.editor.wizards.</text>
<text text-anchor="middle" x="84" y="-82" font-family="Helvetica,sans-Serif" font-size="10.00">Grid.Frame &gt; &gt;</text>
</g>
<!-- Node21&#45;&gt;Node19 -->
<g id="edge20" class="edge"><title>Node21&#45;&gt;Node19</title>
<path fill="none" stroke="#9a32cd" stroke-dasharray="5,2" d="M175.888,-89.4177C197.56,-89.6001 220.608,-90.0581 242,-91 257.314,-91.6743 273.799,-92.8061 289.227,-94.0435"/>
<polygon fill="#9a32cd" stroke="#9a32cd" points="175.729,-85.9167 165.706,-89.351 175.683,-92.9165 175.729,-85.9167"/>
<text text-anchor="middle" x="214" y="-94" font-family="Helvetica,sans-Serif" font-size="10.00"> frameCols</text>
</g>
<!-- Node22 -->
<g id="node22" class="node"><title>Node22</title>
<polygon fill="white" stroke="#bfbfbf" points="260.5,-39 260.5,-69 445.5,-69 445.5,-39 260.5,-39"/>
<text text-anchor="start" x="268.5" y="-57" font-family="Helvetica,sans-Serif" font-size="10.00">List&lt; engine.visuals.element</text>
<text text-anchor="middle" x="353" y="-46" font-family="Helvetica,sans-Serif" font-size="10.00">Visuals.animations.AnimationTag &gt;</text>
</g>
<!-- Node22&#45;&gt;Node18 -->
<g id="edge21" class="edge"><title>Node22&#45;&gt;Node18</title>
<path fill="none" stroke="#9a32cd" stroke-dasharray="5,2" d="M455.83,-52.852C487.898,-52.9336 523.441,-53.4814 556,-55 565.345,-55.4359 575.112,-56.0543 584.824,-56.7724"/>
<polygon fill="#9a32cd" stroke="#9a32cd" points="455.552,-49.3518 445.548,-52.8412 455.544,-56.3518 455.552,-49.3518"/>
<text text-anchor="middle" x="510" y="-58" font-family="Helvetica,sans-Serif" font-size="10.00"> directions</text>
</g>
<!-- Node23 -->
<g id="node23" class="node"><title>Node23</title>
<polygon fill="white" stroke="#bfbfbf" points="333,-0.5 333,-19.5 373,-19.5 373,-0.5 333,-0.5"/>
<text text-anchor="middle" x="353" y="-7.5" font-family="Helvetica,sans-Serif" font-size="10.00">Paint</text>
</g>
<!-- Node23&#45;&gt;Node18 -->
<g id="edge22" class="edge"><title>Node23&#45;&gt;Node18</title>
<path fill="none" stroke="#9a32cd" stroke-dasharray="5,2" d="M383.07,-11.4699C422.797,-14.0527 495.966,-20.8683 556,-38 564.418,-40.4024 565.657,-43.3476 574,-46 585.701,-49.72 598.454,-52.8634 610.707,-55.4566"/>
<polygon fill="#9a32cd" stroke="#9a32cd" points="383.216,-7.97238 373.023,-10.8615 382.793,-14.9596 383.216,-7.97238"/>
<text text-anchor="middle" x="510" y="-41" font-family="Helvetica,sans-Serif" font-size="10.00"> FILL_COLOR</text>
</g>
<!-- Node24&#45;&gt;Node1 -->
<g id="edge24" class="edge"><title>Node24&#45;&gt;Node1</title>
<path fill="none" stroke="#9a32cd" stroke-dasharray="5,2" d="M768.728,-95.7202C802.106,-96.7319 838.847,-101.889 870,-116 908.456,-133.419 940.023,-173.697 955.218,-195.801"/>
<polygon fill="#9a32cd" stroke="#9a32cd" points="768.549,-92.2164 758.487,-95.534 768.422,-99.2153 768.549,-92.2164"/>
<text text-anchor="middle" x="827" y="-119" font-family="Helvetica,sans-Serif" font-size="10.00"> animationGrid</text>
</g>
<!-- Node25 -->
<g id="node25" class="node"><title>Node25</title>
<polygon fill="white" stroke="#bfbfbf" points="633,-17.5 633,-36.5 707,-36.5 707,-17.5 633,-17.5"/>
<text text-anchor="middle" x="670" y="-24.5" font-family="Helvetica,sans-Serif" font-size="10.00">AnchorPane</text>
</g>
<!-- Node25&#45;&gt;Node1 -->
<g id="edge26" class="edge"><title>Node25&#45;&gt;Node1</title>
<path fill="none" stroke="#9a32cd" stroke-dasharray="5,2" d="M717.413,-19.4168C760.408,-14.904 824.405,-14.8136 870,-44 926.186,-79.9664 952.565,-161.664 961.417,-195.686"/>
<polygon fill="#9a32cd" stroke="#9a32cd" points="716.753,-15.97 707.228,-20.6093 717.567,-22.9225 716.753,-15.97"/>
<text text-anchor="middle" x="827" y="-47" font-family="Helvetica,sans-Serif" font-size="10.00"> leftPane</text>
</g>
</g>
</svg>
        <g id="navigator" transform="translate(0 0)" fill="#404254">
                <rect fill="#f2f5e9" fill-opacity="0.5" stroke="#606060" stroke-width=".5" x="0" y="0" width="60" height="60"/>
                <use id="zoomplus" xlink:href="#zoomPlus" x="17" y="9" onmousedown="handleZoom(evt,'in')"/>
                <use id="zoomminus" xlink:href="#zoomMin" x="42" y="9" onmousedown="handleZoom(evt,'out')"/>
                <use id="reset" xlink:href="#resetDef" x="30" y="36" onmousedown="handleReset()"/>
                <g id="arrowUp" xlink:href="#dirArrow" transform="translate(30 24)" onmousedown="handlePan(0,-1)">
                  <use xlink:href="#rim" fill="#404040">
                        <set attributeName="fill" to="#808080" begin="arrowUp.mouseover" end="arrowUp.mouseout"/>
                  </use>
                  <path fill="none" stroke="white" stroke-width="1.5" d="M0,-3.0v7 M-2.5,-0.5L0,-3.0L2.5,-0.5"/>
                </g>
                <g id="arrowRight" xlink:href="#dirArrow" transform="rotate(90) translate(36 -43)" onmousedown="handlePan(1,0)">
                  <use xlink:href="#rim" fill="#404040">
                        <set attributeName="fill" to="#808080" begin="arrowRight.mouseover" end="arrowRight.mouseout"/>
                  </use>
                  <path fill="none" stroke="white" stroke-width="1.5" d="M0,-3.0v7 M-2.5,-0.5L0,-3.0L2.5,-0.5"/>
                </g>
                <g id="arrowDown" xlink:href="#dirArrow" transform="rotate(180) translate(-30 -48)" onmousedown="handlePan(0,1)">
                  <use xlink:href="#rim" fill="#404040">
                        <set attributeName="fill" to="#808080" begin="arrowDown.mouseover" end="arrowDown.mouseout"/>
                  </use>
                  <path fill="none" stroke="white" stroke-width="1.5" d="M0,-3.0v7 M-2.5,-0.5L0,-3.0L2.5,-0.5"/>
                </g>
                <g id="arrowLeft" xlink:href="#dirArrow" transform="rotate(270) translate(-36 17)" onmousedown="handlePan(-1,0)">
                  <use xlink:href="#rim" fill="#404040">
                        <set attributeName="fill" to="#808080" begin="arrowLeft.mouseover" end="arrowLeft.mouseout"/>
                  </use>
                  <path fill="none" stroke="white" stroke-width="1.5" d="M0,-3.0v7 M-2.5,-0.5L0,-3.0L2.5,-0.5"/>
                </g>
        </g>
        <svg viewBox="0 0 15 15" width="100%" height="30px" preserveAspectRatio="xMaxYMin meet">
         <g id="arrow_out" transform="scale(0.3 0.3)">
          <a xlink:href="classview_1_1editor_1_1wizards_1_1_animation_wizard__coll__graph_org.svg" target="_base">
           <rect id="button" ry="5" rx="5" y="6" x="6" height="38" width="38"
                fill="#f2f5e9" fill-opacity="0.5" stroke="#606060" stroke-width="1.0"/>
           <path id="arrow"
             d="M 11.500037,31.436501 C 11.940474,20.09759 22.043105,11.32322 32.158766,21.979434 L 37.068811,17.246167 C 37.068811,17.246167 37.088388,32 37.088388,32 L 22.160133,31.978069 C 22.160133,31.978069 26.997745,27.140456 26.997745,27.140456 C 18.528582,18.264221 13.291696,25.230495 11.500037,31.436501 z"
             style="fill:#404040;"/>
          </a>
         </g>
        </svg>
</svg>
