<?xml version="1.0" encoding="UTF-8" standalone="no"?>
<!DOCTYPE svg PUBLIC "-//W3C//DTD SVG 1.1//EN"
 "http://www.w3.org/Graphics/SVG/1.1/DTD/svg11.dtd">
<!-- Generated by graphviz version 2.36.0 (20140111.2315)
 -->
<!-- Title: editor.wizards.TerrainWizard.initialize Pages: 1 -->
<svg width="778pt" height="38pt"
 viewBox="0.00 0.00 778.00 38.00" xmlns="http://www.w3.org/2000/svg" xmlns:xlink="http://www.w3.org/1999/xlink">
<g id="graph0" class="graph" transform="scale(1 1) rotate(0) translate(4 34)">
<title>editor.wizards.TerrainWizard.initialize</title>
<polygon fill="white" stroke="none" points="-4,4 -4,-34 774,-34 774,4 -4,4"/>
<!-- Node1 -->
<g id="node1" class="node"><title>Node1</title>
<polygon fill="#bfbfbf" stroke="black" points="0.5,-5.5 0.5,-24.5 189.5,-24.5 189.5,-5.5 0.5,-5.5"/>
<text text-anchor="middle" x="95" y="-12.5" font-family="Helvetica,sans-Serif" font-size="10.00">editor.wizards.TerrainWizard.initialize</text>
</g>
<!-- Node2 -->
<g id="node2" class="node"><title>Node2</title>
<g id="a_node2"><a xlink:href="../../de/deb/classeditor_1_1wizards_1_1_terrain_wizard.html#a233a6a9f2a2da49a13a55412d2e51948" target="_top" xlink:title="editor.wizards.TerrainWizard.load\lImage">
<polygon fill="white" stroke="black" points="226.5,-0 226.5,-30 397.5,-30 397.5,-0 226.5,-0"/>
<text text-anchor="start" x="234.5" y="-18" font-family="Helvetica,sans-Serif" font-size="10.00">editor.wizards.TerrainWizard.load</text>
<text text-anchor="middle" x="312" y="-7" font-family="Helvetica,sans-Serif" font-size="10.00">Image</text>
</a>
</g>
</g>
<!-- Node1&#45;&gt;Node2 -->
<g id="edge1" class="edge"><title>Node1&#45;&gt;Node2</title>
<path fill="none" stroke="midnightblue" d="M189.677,-15C198.461,-15 207.37,-15 216.165,-15"/>
<polygon fill="midnightblue" stroke="midnightblue" points="216.422,-18.5001 226.422,-15 216.422,-11.5001 216.422,-18.5001"/>
</g>
<!-- Node3 -->
<g id="node3" class="node"><title>Node3</title>
<g id="a_node3"><a xlink:href="../../d9/d24/classeditor_1_1wizards_1_1_wizard.html#aa88b7fa8c660190364c8c3c06113e137" target="_top" xlink:title="editor.wizards.Wizard.add\lToData">
<polygon fill="white" stroke="black" points="434.5,-0 434.5,-30 571.5,-30 571.5,-0 434.5,-0"/>
<text text-anchor="start" x="442.5" y="-18" font-family="Helvetica,sans-Serif" font-size="10.00">editor.wizards.Wizard.add</text>
<text text-anchor="middle" x="503" y="-7" font-family="Helvetica,sans-Serif" font-size="10.00">ToData</text>
</a>
</g>
</g>
<!-- Node2&#45;&gt;Node3 -->
<g id="edge2" class="edge"><title>Node2&#45;&gt;Node3</title>
<path fill="none" stroke="midnightblue" d="M397.55,-15C406.38,-15 415.328,-15 424.079,-15"/>
<polygon fill="midnightblue" stroke="midnightblue" points="424.244,-18.5001 434.244,-15 424.244,-11.5001 424.244,-18.5001"/>
</g>
<!-- Node4 -->
<g id="node4" class="node"><title>Node4</title>
<g id="a_node4"><a xlink:href="../../dc/d23/classeditor_1_1wizards_1_1_wizard_data.html#a2de2ac096dc357a4e6951095e776809e" target="_top" xlink:title="editor.wizards.WizardData.add\lDataPair">
<polygon fill="white" stroke="black" points="608.5,-0 608.5,-30 769.5,-30 769.5,-0 608.5,-0"/>
<text text-anchor="start" x="616.5" y="-18" font-family="Helvetica,sans-Serif" font-size="10.00">editor.wizards.WizardData.add</text>
<text text-anchor="middle" x="689" y="-7" font-family="Helvetica,sans-Serif" font-size="10.00">DataPair</text>
</a>
</g>
</g>
<!-- Node3&#45;&gt;Node4 -->
<g id="edge3" class="edge"><title>Node3&#45;&gt;Node4</title>
<path fill="none" stroke="midnightblue" d="M571.731,-15C580.367,-15 589.311,-15 598.226,-15"/>
<polygon fill="midnightblue" stroke="midnightblue" points="598.263,-18.5001 608.263,-15 598.263,-11.5001 598.263,-18.5001"/>
</g>
</g>
</svg>
