<?xml version="1.0" encoding="UTF-8" standalone="no"?>
<!DOCTYPE svg PUBLIC "-//W3C//DTD SVG 1.1//EN"
 "http://www.w3.org/Graphics/SVG/1.1/DTD/svg11.dtd">
<!-- Generated by graphviz version 2.36.0 (20140111.2315)
 -->
<!-- Title: editor.wizards.TerrainWizard.updateData Pages: 1 -->
<svg width="610pt" height="38pt"
 viewBox="0.00 0.00 610.00 38.00" xmlns="http://www.w3.org/2000/svg" xmlns:xlink="http://www.w3.org/1999/xlink">
<g id="graph0" class="graph" transform="scale(1 1) rotate(0) translate(4 34)">
<title>editor.wizards.TerrainWizard.updateData</title>
<polygon fill="white" stroke="none" points="-4,4 -4,-34 606,-34 606,4 -4,4"/>
<!-- Node1 -->
<g id="node1" class="node"><title>Node1</title>
<polygon fill="#bfbfbf" stroke="black" points="0,-5.5 0,-24.5 208,-24.5 208,-5.5 0,-5.5"/>
<text text-anchor="middle" x="104" y="-12.5" font-family="Helvetica,sans-Serif" font-size="10.00">editor.wizards.TerrainWizard.updateData</text>
</g>
<!-- Node2 -->
<g id="node2" class="node"><title>Node2</title>
<g id="a_node2"><a xlink:href="../../d9/d24/classeditor_1_1wizards_1_1_wizard.html#ac990b6545e07a6e24731e434770e9aea" target="_top" xlink:title="editor.wizards.Wizard.set\lDataName">
<polygon fill="white" stroke="black" points="244,-0 244,-30 378,-30 378,-0 244,-0"/>
<text text-anchor="start" x="252" y="-18" font-family="Helvetica,sans-Serif" font-size="10.00">editor.wizards.Wizard.set</text>
<text text-anchor="middle" x="311" y="-7" font-family="Helvetica,sans-Serif" font-size="10.00">DataName</text>
</a>
</g>
</g>
<!-- Node1&#45;&gt;Node2 -->
<g id="edge1" class="edge"><title>Node1&#45;&gt;Node2</title>
<path fill="none" stroke="midnightblue" d="M208.101,-15C216.748,-15 225.391,-15 233.781,-15"/>
<polygon fill="midnightblue" stroke="midnightblue" points="233.874,-18.5001 243.874,-15 233.874,-11.5001 233.874,-18.5001"/>
</g>
<!-- Node3 -->
<g id="node3" class="node"><title>Node3</title>
<g id="a_node3"><a xlink:href="../../dc/d23/classeditor_1_1wizards_1_1_wizard_data.html#a914bf7943e77021054547fa598c32e34" target="_top" xlink:title="editor.wizards.WizardData.setName">
<polygon fill="white" stroke="black" points="414.5,-5.5 414.5,-24.5 601.5,-24.5 601.5,-5.5 414.5,-5.5"/>
<text text-anchor="middle" x="508" y="-12.5" font-family="Helvetica,sans-Serif" font-size="10.00">editor.wizards.WizardData.setName</text>
</a>
</g>
</g>
<!-- Node2&#45;&gt;Node3 -->
<g id="edge2" class="edge"><title>Node2&#45;&gt;Node3</title>
<path fill="none" stroke="midnightblue" d="M378.018,-15C386.528,-15 395.395,-15 404.321,-15"/>
<polygon fill="midnightblue" stroke="midnightblue" points="404.408,-18.5001 414.408,-15 404.408,-11.5001 404.408,-18.5001"/>
</g>
</g>
</svg>
