<?xml version="1.0" encoding="UTF-8" standalone="no"?>
<!DOCTYPE svg PUBLIC "-//W3C//DTD SVG 1.1//EN"
 "http://www.w3.org/Graphics/SVG/1.1/DTD/svg11.dtd">
<!-- Generated by graphviz version 2.36.0 (20140111.2315)
 -->
<!-- Title: gamemodel.exceptions.DescribableStateException Pages: 1 -->
<!--zoomable 185 -->
<svg id="main" version="1.1" xmlns="http://www.w3.org/2000/svg" xmlns:xlink="http://www.w3.org/1999/xlink" xml:space="preserve" onload="init(evt)">
<style type="text/css"><![CDATA[
.edge:hover path { stroke: red; }
.edge:hover polygon { stroke: red; fill: red; }
]]></style>
<script type="text/javascript"><![CDATA[
var edges = document.getElementsByTagName('g');
if (edges && edges.length) {
  for (var i=0;i<edges.length;i++) {
    if (edges[i].id.substr(0,4)=='edge') {
      edges[i].setAttribute('class','edge');
    }
  }
}
]]></script>
        <defs>
                <circle id="rim" cx="0" cy="0" r="7"/>
                <circle id="rim2" cx="0" cy="0" r="3.5"/>
                <g id="zoomPlus">
                        <use xlink:href="#rim" fill="#404040">
                                <set attributeName="fill" to="#808080" begin="zoomplus.mouseover" end="zoomplus.mouseout"/>
                        </use>
                        <path d="M-4,0h8M0,-4v8" fill="none" stroke="white" stroke-width="1.5" pointer-events="none"/>
                </g>
                <g id="zoomMin">
                        <use xlink:href="#rim" fill="#404040">
                                <set attributeName="fill" to="#808080" begin="zoomminus.mouseover" end="zoomminus.mouseout"/>
                        </use>
                        <path d="M-4,0h8" fill="none" stroke="white" stroke-width="1.5" pointer-events="none"/>
                </g>
                <g id="dirArrow">
                        <path fill="none" stroke="white" stroke-width="1.5" d="M0,-3.0v7 M-2.5,-0.5L0,-3.0L2.5,-0.5"/>
                </g>
               <g id="resetDef">
                       <use xlink:href="#rim2" fill="#404040">
                               <set attributeName="fill" to="#808080" begin="reset.mouseover" end="reset.mouseout"/>
                       </use>
               </g>
        </defs>

<script type="text/javascript">
var viewWidth = 738;
var viewHeight = 185;
var sectionId = 'dynsection-0';
</script>
<script xlink:href="../../svgpan.js"/>
<svg id="graph" class="graph">
<g id="viewport">
<title>gamemodel.exceptions.DescribableStateException</title>
<polygon fill="white" stroke="none" points="-4,4 -4,-181 734,-181 734,4 -4,4"/>
<!-- Node1 -->
<g id="node1" class="node"><title>Node1</title>
<polygon fill="#bfbfbf" stroke="black" points="100,-73 100,-103 288,-103 288,-73 100,-73"/>
<text text-anchor="start" x="108" y="-91" font-family="Helvetica,sans-Serif" font-size="10.00">gamemodel.exceptions.Describable</text>
<text text-anchor="middle" x="194" y="-80" font-family="Helvetica,sans-Serif" font-size="10.00">StateException</text>
</g>
<!-- Node3 -->
<g id="node3" class="node"><title>Node3</title>
<g id="a_node3"><a xlink:href="../../de/d88/classgamemodel_1_1exceptions_1_1_describable_state_exists_exception.html" target="_top" xlink:title="gamemodel.exceptions.Describable\lStateExistsException">
<polygon fill="white" stroke="black" points="324,-98 324,-128 512,-128 512,-98 324,-98"/>
<text text-anchor="start" x="332" y="-116" font-family="Helvetica,sans-Serif" font-size="10.00">gamemodel.exceptions.Describable</text>
<text text-anchor="middle" x="418" y="-105" font-family="Helvetica,sans-Serif" font-size="10.00">StateExistsException</text>
</a>
</g>
</g>
<!-- Node1&#45;&gt;Node3 -->
<g id="edge2" class="edge"><title>Node1&#45;&gt;Node3</title>
<path fill="none" stroke="midnightblue" d="M298.147,-99.6157C306.67,-100.575 315.255,-101.542 323.7,-102.493"/>
<polygon fill="midnightblue" stroke="midnightblue" points="298.512,-96.1347 288.183,-98.4936 297.729,-103.091 298.512,-96.1347"/>
</g>
<!-- Node6 -->
<g id="node6" class="node"><title>Node6</title>
<g id="a_node6"><a xlink:href="../../d1/dfd/classgamemodel_1_1exceptions_1_1_describable_state_not_found_exception.html" target="_top" xlink:title="gamemodel.exceptions.Describable\lStateNotFoundException">
<polygon fill="white" stroke="black" points="324,-49 324,-79 512,-79 512,-49 324,-49"/>
<text text-anchor="start" x="332" y="-67" font-family="Helvetica,sans-Serif" font-size="10.00">gamemodel.exceptions.Describable</text>
<text text-anchor="middle" x="418" y="-56" font-family="Helvetica,sans-Serif" font-size="10.00">StateNotFoundException</text>
</a>
</g>
</g>
<!-- Node1&#45;&gt;Node6 -->
<g id="edge5" class="edge"><title>Node1&#45;&gt;Node6</title>
<path fill="none" stroke="midnightblue" d="M298.147,-76.8489C306.67,-75.9275 315.255,-74.9995 323.7,-74.0865"/>
<polygon fill="midnightblue" stroke="midnightblue" points="297.749,-73.3715 288.183,-77.9262 298.501,-80.331 297.749,-73.3715"/>
</g>
<!-- Node2 -->
<g id="node2" class="node"><title>Node2</title>
<polygon fill="white" stroke="#bfbfbf" points="0.5,-78.5 0.5,-97.5 63.5,-97.5 63.5,-78.5 0.5,-78.5"/>
<text text-anchor="middle" x="32" y="-85.5" font-family="Helvetica,sans-Serif" font-size="10.00">Exception</text>
</g>
<!-- Node2&#45;&gt;Node1 -->
<g id="edge1" class="edge"><title>Node2&#45;&gt;Node1</title>
<path fill="none" stroke="midnightblue" d="M74.047,-88C82.143,-88 90.9432,-88 99.9708,-88"/>
<polygon fill="midnightblue" stroke="midnightblue" points="73.8496,-84.5001 63.8496,-88 73.8496,-91.5001 73.8496,-84.5001"/>
</g>
<!-- Node4 -->
<g id="node4" class="node"><title>Node4</title>
<g id="a_node4"><a xlink:href="../../d5/d12/classgamemodel_1_1exceptions_1_1_campaign_exists_exception.html" target="_top" xlink:title="gamemodel.exceptions.Campaign\lExistsException">
<polygon fill="white" stroke="black" points="548.5,-147 548.5,-177 729.5,-177 729.5,-147 548.5,-147"/>
<text text-anchor="start" x="556.5" y="-165" font-family="Helvetica,sans-Serif" font-size="10.00">gamemodel.exceptions.Campaign</text>
<text text-anchor="middle" x="639" y="-154" font-family="Helvetica,sans-Serif" font-size="10.00">ExistsException</text>
</a>
</g>
</g>
<!-- Node3&#45;&gt;Node4 -->
<g id="edge3" class="edge"><title>Node3&#45;&gt;Node4</title>
<path fill="none" stroke="midnightblue" d="M496.133,-130.258C520.535,-135.718 547.294,-141.705 570.932,-146.994"/>
<polygon fill="midnightblue" stroke="midnightblue" points="496.718,-126.803 486.196,-128.035 495.19,-133.634 496.718,-126.803"/>
</g>
<!-- Node5 -->
<g id="node5" class="node"><title>Node5</title>
<g id="a_node5"><a xlink:href="../../d0/dc6/classgamemodel_1_1exceptions_1_1_level_exists_exception.html" target="_top" xlink:title="gamemodel.exceptions.Level\lExistsException">
<polygon fill="white" stroke="black" points="560.5,-98 560.5,-128 717.5,-128 717.5,-98 560.5,-98"/>
<text text-anchor="start" x="568.5" y="-116" font-family="Helvetica,sans-Serif" font-size="10.00">gamemodel.exceptions.Level</text>
<text text-anchor="middle" x="639" y="-105" font-family="Helvetica,sans-Serif" font-size="10.00">ExistsException</text>
</a>
</g>
</g>
<!-- Node3&#45;&gt;Node5 -->
<g id="edge4" class="edge"><title>Node3&#45;&gt;Node5</title>
<path fill="none" stroke="midnightblue" d="M522.41,-113C535.197,-113 548.094,-113 560.402,-113"/>
<polygon fill="midnightblue" stroke="midnightblue" points="522.193,-109.5 512.193,-113 522.193,-116.5 522.193,-109.5"/>
</g>
<!-- Node7 -->
<g id="node7" class="node"><title>Node7</title>
<g id="a_node7"><a xlink:href="../../dd/d09/classgamemodel_1_1exceptions_1_1_campaign_not_found_exception.html" target="_top" xlink:title="gamemodel.exceptions.Campaign\lNotFoundException">
<polygon fill="white" stroke="black" points="548.5,-49 548.5,-79 729.5,-79 729.5,-49 548.5,-49"/>
<text text-anchor="start" x="556.5" y="-67" font-family="Helvetica,sans-Serif" font-size="10.00">gamemodel.exceptions.Campaign</text>
<text text-anchor="middle" x="639" y="-56" font-family="Helvetica,sans-Serif" font-size="10.00">NotFoundException</text>
</a>
</g>
</g>
<!-- Node6&#45;&gt;Node7 -->
<g id="edge6" class="edge"><title>Node6&#45;&gt;Node7</title>
<path fill="none" stroke="midnightblue" d="M522.361,-64C531.054,-64 539.798,-64 548.375,-64"/>
<polygon fill="midnightblue" stroke="midnightblue" points="522.193,-60.5001 512.193,-64 522.193,-67.5001 522.193,-60.5001"/>
</g>
<!-- Node8 -->
<g id="node8" class="node"><title>Node8</title>
<g id="a_node8"><a xlink:href="../../df/d98/classgamemodel_1_1exceptions_1_1_level_not_found_exception.html" target="_top" xlink:title="gamemodel.exceptions.Level\lNotFoundException">
<polygon fill="white" stroke="black" points="560.5,-0 560.5,-30 717.5,-30 717.5,-0 560.5,-0"/>
<text text-anchor="start" x="568.5" y="-18" font-family="Helvetica,sans-Serif" font-size="10.00">gamemodel.exceptions.Level</text>
<text text-anchor="middle" x="639" y="-7" font-family="Helvetica,sans-Serif" font-size="10.00">NotFoundException</text>
</a>
</g>
</g>
<!-- Node6&#45;&gt;Node8 -->
<g id="edge7" class="edge"><title>Node6&#45;&gt;Node8</title>
<path fill="none" stroke="midnightblue" d="M496.133,-46.7419C520.535,-41.282 547.294,-35.295 570.932,-30.0062"/>
<polygon fill="midnightblue" stroke="midnightblue" points="495.19,-43.3663 486.196,-48.9654 496.718,-50.1974 495.19,-43.3663"/>
</g>
</g>
</svg>
        <g id="navigator" transform="translate(0 0)" fill="#404254">
                <rect fill="#f2f5e9" fill-opacity="0.5" stroke="#606060" stroke-width=".5" x="0" y="0" width="60" height="60"/>
                <use id="zoomplus" xlink:href="#zoomPlus" x="17" y="9" onmousedown="handleZoom(evt,'in')"/>
                <use id="zoomminus" xlink:href="#zoomMin" x="42" y="9" onmousedown="handleZoom(evt,'out')"/>
                <use id="reset" xlink:href="#resetDef" x="30" y="36" onmousedown="handleReset()"/>
                <g id="arrowUp" xlink:href="#dirArrow" transform="translate(30 24)" onmousedown="handlePan(0,-1)">
                  <use xlink:href="#rim" fill="#404040">
                        <set attributeName="fill" to="#808080" begin="arrowUp.mouseover" end="arrowUp.mouseout"/>
                  </use>
                  <path fill="none" stroke="white" stroke-width="1.5" d="M0,-3.0v7 M-2.5,-0.5L0,-3.0L2.5,-0.5"/>
                </g>
                <g id="arrowRight" xlink:href="#dirArrow" transform="rotate(90) translate(36 -43)" onmousedown="handlePan(1,0)">
                  <use xlink:href="#rim" fill="#404040">
                        <set attributeName="fill" to="#808080" begin="arrowRight.mouseover" end="arrowRight.mouseout"/>
                  </use>
                  <path fill="none" stroke="white" stroke-width="1.5" d="M0,-3.0v7 M-2.5,-0.5L0,-3.0L2.5,-0.5"/>
                </g>
                <g id="arrowDown" xlink:href="#dirArrow" transform="rotate(180) translate(-30 -48)" onmousedown="handlePan(0,1)">
                  <use xlink:href="#rim" fill="#404040">
                        <set attributeName="fill" to="#808080" begin="arrowDown.mouseover" end="arrowDown.mouseout"/>
                  </use>
                  <path fill="none" stroke="white" stroke-width="1.5" d="M0,-3.0v7 M-2.5,-0.5L0,-3.0L2.5,-0.5"/>
                </g>
                <g id="arrowLeft" xlink:href="#dirArrow" transform="rotate(270) translate(-36 17)" onmousedown="handlePan(-1,0)">
                  <use xlink:href="#rim" fill="#404040">
                        <set attributeName="fill" to="#808080" begin="arrowLeft.mouseover" end="arrowLeft.mouseout"/>
                  </use>
                  <path fill="none" stroke="white" stroke-width="1.5" d="M0,-3.0v7 M-2.5,-0.5L0,-3.0L2.5,-0.5"/>
                </g>
        </g>
        <svg viewBox="0 0 15 15" width="100%" height="30px" preserveAspectRatio="xMaxYMin meet">
         <g id="arrow_out" transform="scale(0.3 0.3)">
          <a xlink:href="classgamemodel_1_1exceptions_1_1_describable_state_exception__inherit__graph_org.svg" target="_base">
           <rect id="button" ry="5" rx="5" y="6" x="6" height="38" width="38"
                fill="#f2f5e9" fill-opacity="0.5" stroke="#606060" stroke-width="1.0"/>
           <path id="arrow"
             d="M 11.500037,31.436501 C 11.940474,20.09759 22.043105,11.32322 32.158766,21.979434 L 37.068811,17.246167 C 37.068811,17.246167 37.088388,32 37.088388,32 L 22.160133,31.978069 C 22.160133,31.978069 26.997745,27.140456 26.997745,27.140456 C 18.528582,18.264221 13.291696,25.230495 11.500037,31.436501 z"
             style="fill:#404040;"/>
          </a>
         </g>
        </svg>
</svg>
