<?xml version="1.0" encoding="UTF-8" standalone="no"?>
<!DOCTYPE svg PUBLIC "-//W3C//DTD SVG 1.1//EN"
 "http://www.w3.org/Graphics/SVG/1.1/DTD/svg11.dtd">
<!-- Generated by graphviz version 2.36.0 (20140111.2315)
 -->
<!-- Title: engine.gameRepresentation.evaluatables.parameters.ParticipantValueParameter Pages: 1 -->
<svg width="674pt" height="77pt"
 viewBox="0.00 0.00 674.00 77.00" xmlns="http://www.w3.org/2000/svg" xmlns:xlink="http://www.w3.org/1999/xlink">
<g id="graph0" class="graph" transform="scale(1 1) rotate(0) translate(4 73)">
<title>engine.gameRepresentation.evaluatables.parameters.ParticipantValueParameter</title>
<polygon fill="white" stroke="none" points="-4,4 -4,-73 670,-73 670,4 -4,4"/>
<!-- Node1 -->
<g id="node1" class="node"><title>Node1</title>
<polygon fill="#bfbfbf" stroke="black" points="388,-17 388,-47 666,-47 666,-17 388,-17"/>
<text text-anchor="start" x="396" y="-35" font-family="Helvetica,sans-Serif" font-size="10.00">engine.gameRepresentation.evaluatables.parameters.</text>
<text text-anchor="middle" x="527" y="-24" font-family="Helvetica,sans-Serif" font-size="10.00">ParticipantValueParameter</text>
</g>
<!-- Node2 -->
<g id="node2" class="node"><title>Node2</title>
<g id="a_node2"><a xlink:href="../../d8/d8e/classengine_1_1game_representation_1_1evaluatables_1_1parameters_1_1_parameter.html" target="_top" xlink:title="engine.gameRepresentation.evaluatables.parameters.\lParameter\&lt; Number \&gt;">
<polygon fill="white" stroke="black" points="0,-39 0,-69 278,-69 278,-39 0,-39"/>
<text text-anchor="start" x="8" y="-57" font-family="Helvetica,sans-Serif" font-size="10.00">engine.gameRepresentation.evaluatables.parameters.</text>
<text text-anchor="middle" x="139" y="-46" font-family="Helvetica,sans-Serif" font-size="10.00">Parameter&lt; Number &gt;</text>
</a>
</g>
</g>
<!-- Node2&#45;&gt;Node1 -->
<g id="edge1" class="edge"><title>Node2&#45;&gt;Node1</title>
<path fill="none" stroke="midnightblue" d="M288.34,-45.5454C321.006,-43.6836 355.478,-41.7189 387.728,-39.8808"/>
<polygon fill="midnightblue" stroke="midnightblue" points="288.049,-42.0562 278.265,-46.1196 288.448,-49.0448 288.049,-42.0562"/>
</g>
<!-- Node3 -->
<g id="node3" class="node"><title>Node3</title>
<polygon fill="white" stroke="#bfbfbf" points="54,-0.5 54,-19.5 224,-19.5 224,-0.5 54,-0.5"/>
<text text-anchor="middle" x="139" y="-7.5" font-family="Helvetica,sans-Serif" font-size="10.00">List&lt; engine.users.Participant &gt;</text>
</g>
<!-- Node3&#45;&gt;Node1 -->
<g id="edge2" class="edge"><title>Node3&#45;&gt;Node1</title>
<path fill="none" stroke="#9a32cd" stroke-dasharray="5,2" d="M234.505,-15.3863C280.586,-18.0127 336.901,-21.2224 387.704,-24.1178"/>
<polygon fill="#9a32cd" stroke="#9a32cd" points="234.415,-11.8756 224.232,-14.8008 234.017,-18.8643 234.415,-11.8756"/>
<text text-anchor="middle" x="333" y="-26" font-family="Helvetica,sans-Serif" font-size="10.00"> myParticipants</text>
</g>
</g>
</svg>
