<?xml version="1.0" encoding="UTF-8" standalone="no"?>
<!DOCTYPE svg PUBLIC "-//W3C//DTD SVG 1.1//EN"
 "http://www.w3.org/Graphics/SVG/1.1/DTD/svg11.dtd">
<!-- Generated by graphviz version 2.36.0 (20140111.2315)
 -->
<!-- Title: engine.elementFactories.AnimatorFactory.createAnimator Pages: 1 -->
<svg width="640pt" height="136pt"
 viewBox="0.00 0.00 640.00 136.00" xmlns="http://www.w3.org/2000/svg" xmlns:xlink="http://www.w3.org/1999/xlink">
<g id="graph0" class="graph" transform="scale(1 1) rotate(0) translate(4 132)">
<title>engine.elementFactories.AnimatorFactory.createAnimator</title>
<polygon fill="white" stroke="none" points="-4,4 -4,-132 636,-132 636,4 -4,4"/>
<!-- Node1 -->
<g id="node1" class="node"><title>Node1</title>
<polygon fill="#bfbfbf" stroke="black" points="0,-24 0,-54 172,-54 172,-24 0,-24"/>
<text text-anchor="start" x="8" y="-42" font-family="Helvetica,sans-Serif" font-size="10.00">engine.elementFactories.</text>
<text text-anchor="middle" x="86" y="-31" font-family="Helvetica,sans-Serif" font-size="10.00">AnimatorFactory.createAnimator</text>
</g>
<!-- Node2 -->
<g id="node2" class="node"><title>Node2</title>
<g id="a_node2"><a xlink:href="../../de/d21/classmodel_1_1_main_model.html#ae2e58698b812253b1c8e87312897b97e" target="_top" xlink:title="model.MainModel.fetchImage\lContainer">
<polygon fill="white" stroke="black" points="239,-49 239,-79 397,-79 397,-49 239,-49"/>
<text text-anchor="start" x="247" y="-67" font-family="Helvetica,sans-Serif" font-size="10.00">model.MainModel.fetchImage</text>
<text text-anchor="middle" x="318" y="-56" font-family="Helvetica,sans-Serif" font-size="10.00">Container</text>
</a>
</g>
</g>
<!-- Node1&#45;&gt;Node2 -->
<g id="edge1" class="edge"><title>Node1&#45;&gt;Node2</title>
<path fill="none" stroke="midnightblue" d="M172.317,-48.2736C190.654,-50.2668 210.073,-52.3775 228.527,-54.3834"/>
<polygon fill="midnightblue" stroke="midnightblue" points="228.348,-57.8844 238.667,-55.4856 229.104,-50.9254 228.348,-57.8844"/>
</g>
<!-- Node6 -->
<g id="node6" class="node"><title>Node6</title>
<g id="a_node6"><a xlink:href="../../d5/d66/classengine_1_1visuals_1_1element_visuals_1_1animations_1_1_animator_state.html#acaa50348e29aa983feacc3fbce6aefcc" target="_top" xlink:title="engine.visuals.elementVisuals.animations.\lAnimatorState.getImageTag">
<polygon fill="white" stroke="black" points="208,-0 208,-30 428,-30 428,-0 208,-0"/>
<text text-anchor="start" x="216" y="-18" font-family="Helvetica,sans-Serif" font-size="10.00">engine.visuals.elementVisuals.animations.</text>
<text text-anchor="middle" x="318" y="-7" font-family="Helvetica,sans-Serif" font-size="10.00">AnimatorState.getImageTag</text>
</a>
</g>
</g>
<!-- Node1&#45;&gt;Node6 -->
<g id="edge5" class="edge"><title>Node1&#45;&gt;Node6</title>
<path fill="none" stroke="midnightblue" d="M172.317,-30.0974C180.587,-29.2345 189.076,-28.3486 197.598,-27.4593"/>
<polygon fill="midnightblue" stroke="midnightblue" points="198.023,-30.9341 207.606,-26.415 197.297,-23.9719 198.023,-30.9341"/>
</g>
<!-- Node3 -->
<g id="node3" class="node"><title>Node3</title>
<g id="a_node3"><a xlink:href="../../de/d01/classmodel_1_1sprite_1_1_sprite_image_generator.html#acc5fd25511da23fdddf26107aea74d44" target="_top" xlink:title="model.sprite.SpriteImage\lGenerator.fetchImageContainer">
<polygon fill="white" stroke="black" points="464,-98 464,-128 632,-128 632,-98 464,-98"/>
<text text-anchor="start" x="472" y="-116" font-family="Helvetica,sans-Serif" font-size="10.00">model.sprite.SpriteImage</text>
<text text-anchor="middle" x="548" y="-105" font-family="Helvetica,sans-Serif" font-size="10.00">Generator.fetchImageContainer</text>
</a>
</g>
</g>
<!-- Node2&#45;&gt;Node3 -->
<g id="edge2" class="edge"><title>Node2&#45;&gt;Node3</title>
<path fill="none" stroke="midnightblue" d="M388.957,-79.0346C413.687,-84.3494 441.685,-90.3665 467.172,-95.844"/>
<polygon fill="midnightblue" stroke="midnightblue" points="466.663,-99.3145 477.175,-97.9938 468.134,-92.4707 466.663,-99.3145"/>
</g>
<!-- Node4 -->
<g id="node4" class="node"><title>Node4</title>
<g id="a_node4"><a xlink:href="../../d1/d5c/classmodel_1_1sprite_1_1_sprite_image_container.html#aeda9017d9625cc566d6cc9a640db43e1" target="_top" xlink:title="model.sprite.SpriteImage\lContainer.getSpritesheet">
<polygon fill="white" stroke="black" points="479,-49 479,-79 617,-79 617,-49 479,-49"/>
<text text-anchor="start" x="487" y="-67" font-family="Helvetica,sans-Serif" font-size="10.00">model.sprite.SpriteImage</text>
<text text-anchor="middle" x="548" y="-56" font-family="Helvetica,sans-Serif" font-size="10.00">Container.getSpritesheet</text>
</a>
</g>
</g>
<!-- Node2&#45;&gt;Node4 -->
<g id="edge3" class="edge"><title>Node2&#45;&gt;Node4</title>
<path fill="none" stroke="midnightblue" d="M397.146,-64C420.278,-64 445.603,-64 468.742,-64"/>
<polygon fill="midnightblue" stroke="midnightblue" points="468.857,-67.5001 478.857,-64 468.857,-60.5001 468.857,-67.5001"/>
</g>
<!-- Node5 -->
<g id="node5" class="node"><title>Node5</title>
<g id="a_node5"><a xlink:href="../../d1/d5c/classmodel_1_1sprite_1_1_sprite_image_container.html#af83a0e388cc4a15338ada9ef04ba5ace" target="_top" xlink:title="model.sprite.SpriteImage\lContainer.getColorMask">
<polygon fill="white" stroke="black" points="479,-0 479,-30 617,-30 617,-0 479,-0"/>
<text text-anchor="start" x="487" y="-18" font-family="Helvetica,sans-Serif" font-size="10.00">model.sprite.SpriteImage</text>
<text text-anchor="middle" x="548" y="-7" font-family="Helvetica,sans-Serif" font-size="10.00">Container.getColorMask</text>
</a>
</g>
</g>
<!-- Node2&#45;&gt;Node5 -->
<g id="edge4" class="edge"><title>Node2&#45;&gt;Node5</title>
<path fill="none" stroke="midnightblue" d="M388.957,-48.9654C414.261,-43.5273 442.986,-37.3539 468.942,-31.7757"/>
<polygon fill="midnightblue" stroke="midnightblue" points="469.7,-35.1928 478.741,-29.6697 468.229,-28.3491 469.7,-35.1928"/>
</g>
</g>
</svg>
