<?xml version="1.0" encoding="UTF-8" standalone="no"?>
<!DOCTYPE svg PUBLIC "-//W3C//DTD SVG 1.1//EN"
 "http://www.w3.org/Graphics/SVG/1.1/DTD/svg11.dtd">
<!-- Generated by graphviz version 2.36.0 (20140111.2315)
 -->
<!-- Title: view.editor.wizards.LevelWizard.updateData Pages: 1 -->
<svg width="540pt" height="87pt"
 viewBox="0.00 0.00 540.00 87.00" xmlns="http://www.w3.org/2000/svg" xmlns:xlink="http://www.w3.org/1999/xlink">
<g id="graph0" class="graph" transform="scale(1 1) rotate(0) translate(4 83)">
<title>view.editor.wizards.LevelWizard.updateData</title>
<polygon fill="white" stroke="none" points="-4,4 -4,-83 536,-83 536,4 -4,4"/>
<!-- Node1 -->
<g id="node1" class="node"><title>Node1</title>
<polygon fill="#bfbfbf" stroke="black" points="0,-24 0,-54 132,-54 132,-24 0,-24"/>
<text text-anchor="start" x="8" y="-42" font-family="Helvetica,sans-Serif" font-size="10.00">view.editor.wizards.Level</text>
<text text-anchor="middle" x="66" y="-31" font-family="Helvetica,sans-Serif" font-size="10.00">Wizard.updateData</text>
</g>
<!-- Node2 -->
<g id="node2" class="node"><title>Node2</title>
<g id="a_node2"><a xlink:href="../../d7/d40/classview_1_1editor_1_1wizards_1_1_wizard.html#a8b5c3014ae6cff39c23e427462dc2128" target="_top" xlink:title="view.editor.wizards.Wizard.add\lToData">
<polygon fill="white" stroke="black" points="168,-49 168,-79 328,-79 328,-49 168,-49"/>
<text text-anchor="start" x="176" y="-67" font-family="Helvetica,sans-Serif" font-size="10.00">view.editor.wizards.Wizard.add</text>
<text text-anchor="middle" x="248" y="-56" font-family="Helvetica,sans-Serif" font-size="10.00">ToData</text>
</a>
</g>
</g>
<!-- Node1&#45;&gt;Node2 -->
<g id="edge1" class="edge"><title>Node1&#45;&gt;Node2</title>
<path fill="none" stroke="midnightblue" d="M132.239,-48.0609C140.555,-49.2159 149.177,-50.4134 157.789,-51.6096"/>
<polygon fill="midnightblue" stroke="midnightblue" points="157.49,-55.1015 167.876,-53.0105 158.453,-48.1681 157.49,-55.1015"/>
</g>
<!-- Node4 -->
<g id="node4" class="node"><title>Node4</title>
<g id="a_node4"><a xlink:href="../../d7/d40/classview_1_1editor_1_1wizards_1_1_wizard.html#ad224bc849cb336f4afe785c1e53c92a0" target="_top" xlink:title="view.editor.wizards.Wizard.set\lWizardType">
<polygon fill="white" stroke="black" points="169.5,-0 169.5,-30 326.5,-30 326.5,-0 169.5,-0"/>
<text text-anchor="start" x="177.5" y="-18" font-family="Helvetica,sans-Serif" font-size="10.00">view.editor.wizards.Wizard.set</text>
<text text-anchor="middle" x="248" y="-7" font-family="Helvetica,sans-Serif" font-size="10.00">WizardType</text>
</a>
</g>
</g>
<!-- Node1&#45;&gt;Node4 -->
<g id="edge3" class="edge"><title>Node1&#45;&gt;Node4</title>
<path fill="none" stroke="midnightblue" d="M132.239,-30.3015C141.105,-29.1193 150.319,-27.8908 159.498,-26.6669"/>
<polygon fill="midnightblue" stroke="midnightblue" points="159.978,-30.1341 169.427,-25.343 159.052,-23.1955 159.978,-30.1341"/>
</g>
<!-- Node3 -->
<g id="node3" class="node"><title>Node3</title>
<g id="a_node3"><a xlink:href="../../dc/d48/classmodel_1_1data_1_1_wizard_data.html#a9cc5ffae61bf745c8aad40f05ee31ab4" target="_top" xlink:title="model.data.WizardData.add\lDataPair">
<polygon fill="white" stroke="black" points="373,-49 373,-79 523,-79 523,-49 373,-49"/>
<text text-anchor="start" x="381" y="-67" font-family="Helvetica,sans-Serif" font-size="10.00">model.data.WizardData.add</text>
<text text-anchor="middle" x="448" y="-56" font-family="Helvetica,sans-Serif" font-size="10.00">DataPair</text>
</a>
</g>
</g>
<!-- Node2&#45;&gt;Node3 -->
<g id="edge2" class="edge"><title>Node2&#45;&gt;Node3</title>
<path fill="none" stroke="midnightblue" d="M328.108,-64C339.522,-64 351.304,-64 362.812,-64"/>
<polygon fill="midnightblue" stroke="midnightblue" points="362.839,-67.5001 372.839,-64 362.839,-60.5001 362.839,-67.5001"/>
</g>
<!-- Node5 -->
<g id="node5" class="node"><title>Node5</title>
<g id="a_node5"><a xlink:href="../../dc/d48/classmodel_1_1data_1_1_wizard_data.html#a1e736ec6491093474359e05d47f1650c" target="_top" xlink:title="model.data.WizardData.setType">
<polygon fill="white" stroke="black" points="364,-5.5 364,-24.5 532,-24.5 532,-5.5 364,-5.5"/>
<text text-anchor="middle" x="448" y="-12.5" font-family="Helvetica,sans-Serif" font-size="10.00">model.data.WizardData.setType</text>
</a>
</g>
</g>
<!-- Node4&#45;&gt;Node5 -->
<g id="edge4" class="edge"><title>Node4&#45;&gt;Node5</title>
<path fill="none" stroke="midnightblue" d="M326.687,-15C335.582,-15 344.718,-15 353.789,-15"/>
<polygon fill="midnightblue" stroke="midnightblue" points="353.986,-18.5001 363.986,-15 353.986,-11.5001 353.986,-18.5001"/>
</g>
</g>
</svg>
