<?xml version="1.0" encoding="UTF-8" standalone="no"?>
<!DOCTYPE svg PUBLIC "-//W3C//DTD SVG 1.1//EN"
 "http://www.w3.org/Graphics/SVG/1.1/DTD/svg11.dtd">
<!-- Generated by graphviz version 2.36.0 (20140111.2315)
 -->
<!-- Title: model.state.gameelement.traits.AttributeDisplayerState.getDisplayerTag Pages: 1 -->
<svg width="1122pt" height="109pt"
 viewBox="0.00 0.00 1122.00 109.00" xmlns="http://www.w3.org/2000/svg" xmlns:xlink="http://www.w3.org/1999/xlink">
<g id="graph0" class="graph" transform="scale(1 1) rotate(0) translate(4 105)">
<title>model.state.gameelement.traits.AttributeDisplayerState.getDisplayerTag</title>
<polygon fill="white" stroke="none" points="-4,4 -4,-105 1118,-105 1118,4 -4,4"/>
<!-- Node1 -->
<g id="node1" class="node"><title>Node1</title>
<polygon fill="#bfbfbf" stroke="black" points="0,-35 0,-65 208,-65 208,-35 0,-35"/>
<text text-anchor="start" x="8" y="-53" font-family="Helvetica,sans-Serif" font-size="10.00">model.state.gameelement.traits.</text>
<text text-anchor="middle" x="104" y="-42" font-family="Helvetica,sans-Serif" font-size="10.00">AttributeDisplayerState.getDisplayerTag</text>
</g>
<!-- Node2 -->
<g id="node2" class="node"><title>Node2</title>
<g id="a_node2"><a xlink:href="../../db/d98/classengine_1_1element_factories_1_1_attribute_displayer_factory.html#ab2d55cab0ddc260744d106e78bf47c47" target="_top" xlink:title="engine.elementFactories.\lAttributeDisplayerFactory.create\lAttributeDisplayer">
<polygon fill="white" stroke="black" points="244,-29.5 244,-70.5 414,-70.5 414,-29.5 244,-29.5"/>
<text text-anchor="start" x="252" y="-58.5" font-family="Helvetica,sans-Serif" font-size="10.00">engine.elementFactories.</text>
<text text-anchor="start" x="252" y="-47.5" font-family="Helvetica,sans-Serif" font-size="10.00">AttributeDisplayerFactory.create</text>
<text text-anchor="middle" x="329" y="-36.5" font-family="Helvetica,sans-Serif" font-size="10.00">AttributeDisplayer</text>
</a>
</g>
</g>
<!-- Node1&#45;&gt;Node2 -->
<g id="edge1" class="edge"><title>Node1&#45;&gt;Node2</title>
<path fill="none" stroke="midnightblue" d="M218.143,-50C226.777,-50 235.398,-50 243.799,-50"/>
<polygon fill="midnightblue" stroke="midnightblue" points="218.014,-46.5001 208.014,-50 218.014,-53.5001 218.014,-46.5001"/>
</g>
<!-- Node3 -->
<g id="node3" class="node"><title>Node3</title>
<g id="a_node3"><a xlink:href="../../df/df0/classengine_1_1element_factories_1_1_visualizer_factory.html#ab3af310fd8c0f30f4ab30125576112f9" target="_top" xlink:title="engine.elementFactories.\lVisualizerFactory.createVisualizer">
<polygon fill="white" stroke="black" points="450.5,-35 450.5,-65 625.5,-65 625.5,-35 450.5,-35"/>
<text text-anchor="start" x="458.5" y="-53" font-family="Helvetica,sans-Serif" font-size="10.00">engine.elementFactories.</text>
<text text-anchor="middle" x="538" y="-42" font-family="Helvetica,sans-Serif" font-size="10.00">VisualizerFactory.createVisualizer</text>
</a>
</g>
</g>
<!-- Node2&#45;&gt;Node3 -->
<g id="edge2" class="edge"><title>Node2&#45;&gt;Node3</title>
<path fill="none" stroke="midnightblue" d="M424.274,-50C432.907,-50 441.626,-50 450.188,-50"/>
<polygon fill="midnightblue" stroke="midnightblue" points="424.195,-46.5001 414.195,-50 424.195,-53.5001 424.195,-46.5001"/>
</g>
<!-- Node4 -->
<g id="node4" class="node"><title>Node4</title>
<g id="a_node4"><a xlink:href="../../dc/d91/classengine_1_1element_factories_1_1_game_element_factory.html#ae53ef87192fe373614a7215f0e3d938c" target="_top" xlink:title="engine.elementFactories.\lGameElementFactory.generateVisualizer">
<polygon fill="white" stroke="black" points="662.5,-35 662.5,-65 873.5,-65 873.5,-35 662.5,-35"/>
<text text-anchor="start" x="670.5" y="-53" font-family="Helvetica,sans-Serif" font-size="10.00">engine.elementFactories.</text>
<text text-anchor="middle" x="768" y="-42" font-family="Helvetica,sans-Serif" font-size="10.00">GameElementFactory.generateVisualizer</text>
</a>
</g>
</g>
<!-- Node3&#45;&gt;Node4 -->
<g id="edge3" class="edge"><title>Node3&#45;&gt;Node4</title>
<path fill="none" stroke="midnightblue" d="M635.709,-50C644.452,-50 653.334,-50 662.143,-50"/>
<polygon fill="midnightblue" stroke="midnightblue" points="635.522,-46.5001 625.522,-50 635.522,-53.5001 635.522,-46.5001"/>
</g>
<!-- Node5 -->
<g id="node5" class="node"><title>Node5</title>
<g id="a_node5"><a xlink:href="../../dc/d91/classengine_1_1element_factories_1_1_game_element_factory.html#a8671651ea7c0bcf7fb0de5b5552832fe" target="_top" xlink:title="engine.elementFactories.\lGameElementFactory.createDrawable\lGameElement">
<polygon fill="white" stroke="black" points="913.5,-59.5 913.5,-100.5 1110.5,-100.5 1110.5,-59.5 913.5,-59.5"/>
<text text-anchor="start" x="921.5" y="-88.5" font-family="Helvetica,sans-Serif" font-size="10.00">engine.elementFactories.</text>
<text text-anchor="start" x="921.5" y="-77.5" font-family="Helvetica,sans-Serif" font-size="10.00">GameElementFactory.createDrawable</text>
<text text-anchor="middle" x="1012" y="-66.5" font-family="Helvetica,sans-Serif" font-size="10.00">GameElement</text>
</a>
</g>
</g>
<!-- Node4&#45;&gt;Node5 -->
<g id="edge4" class="edge"><title>Node4&#45;&gt;Node5</title>
<path fill="none" stroke="midnightblue" d="M883.955,-64.2506C893.788,-65.4696 903.676,-66.6953 913.355,-67.8953"/>
<polygon fill="midnightblue" stroke="midnightblue" points="884.092,-60.7409 873.737,-62.984 883.231,-67.6877 884.092,-60.7409"/>
</g>
<!-- Node6 -->
<g id="node6" class="node"><title>Node6</title>
<g id="a_node6"><a xlink:href="../../dc/d91/classengine_1_1element_factories_1_1_game_element_factory.html#a4e478634c65c4ee64c2163fdacd09669" target="_top" xlink:title="engine.elementFactories.\lGameElementFactory.createSelectable\lGameElement">
<polygon fill="white" stroke="black" points="910.5,0.5 910.5,-40.5 1113.5,-40.5 1113.5,0.5 910.5,0.5"/>
<text text-anchor="start" x="918.5" y="-28.5" font-family="Helvetica,sans-Serif" font-size="10.00">engine.elementFactories.</text>
<text text-anchor="start" x="918.5" y="-17.5" font-family="Helvetica,sans-Serif" font-size="10.00">GameElementFactory.createSelectable</text>
<text text-anchor="middle" x="1012" y="-6.5" font-family="Helvetica,sans-Serif" font-size="10.00">GameElement</text>
</a>
</g>
</g>
<!-- Node4&#45;&gt;Node6 -->
<g id="edge5" class="edge"><title>Node4&#45;&gt;Node6</title>
<path fill="none" stroke="midnightblue" d="M883.732,-35.7771C892.61,-34.6765 901.533,-33.5703 910.31,-32.4822"/>
<polygon fill="midnightblue" stroke="midnightblue" points="883.231,-32.3123 873.737,-37.016 884.092,-39.2591 883.231,-32.3123"/>
</g>
</g>
</svg>
