<?xml version="1.0" encoding="UTF-8" standalone="no"?>
<!DOCTYPE svg PUBLIC "-//W3C//DTD SVG 1.1//EN"
 "http://www.w3.org/Graphics/SVG/1.1/DTD/svg11.dtd">
<!-- Generated by graphviz version 2.36.0 (20140111.2315)
 -->
<!-- Title: engine.visuals.elementVisuals.widgets.attributeDisplays.AttributeBarDisplayer Pages: 1 -->
<svg width="1306pt" height="186pt"
 viewBox="0.00 0.00 1306.00 186.00" xmlns="http://www.w3.org/2000/svg" xmlns:xlink="http://www.w3.org/1999/xlink">
<g id="graph0" class="graph" transform="scale(1 1) rotate(0) translate(4 182)">
<title>engine.visuals.elementVisuals.widgets.attributeDisplays.AttributeBarDisplayer</title>
<polygon fill="white" stroke="none" points="-4,4 -4,-182 1302,-182 1302,4 -4,4"/>
<!-- Node1 -->
<g id="node1" class="node"><title>Node1</title>
<polygon fill="#bfbfbf" stroke="black" points="1054,-57 1054,-87 1298,-87 1298,-57 1054,-57"/>
<text text-anchor="start" x="1062" y="-75" font-family="Helvetica,sans-Serif" font-size="10.00">engine.visuals.elementVisuals.widgets.attribute</text>
<text text-anchor="middle" x="1176" y="-64" font-family="Helvetica,sans-Serif" font-size="10.00">Displays.AttributeBarDisplayer</text>
</g>
<!-- Node2 -->
<g id="node2" class="node"><title>Node2</title>
<g id="a_node2"><a xlink:href="../../d7/df4/classengine_1_1visuals_1_1element_visuals_1_1widgets_1_1attribute_displays_1_1_attribute_displayer.html" target="_top" xlink:title="engine.visuals.elementVisuals.widgets.attribute\lDisplays.AttributeDisplayer">
<polygon fill="white" stroke="black" points="666,-84 666,-114 910,-114 910,-84 666,-84"/>
<text text-anchor="start" x="674" y="-102" font-family="Helvetica,sans-Serif" font-size="10.00">engine.visuals.elementVisuals.widgets.attribute</text>
<text text-anchor="middle" x="788" y="-91" font-family="Helvetica,sans-Serif" font-size="10.00">Displays.AttributeDisplayer</text>
</a>
</g>
</g>
<!-- Node2&#45;&gt;Node1 -->
<g id="edge1" class="edge"><title>Node2&#45;&gt;Node1</title>
<path fill="none" stroke="midnightblue" d="M920.09,-89.8305C963.333,-86.8057 1011.21,-83.4566 1053.69,-80.4852"/>
<polygon fill="midnightblue" stroke="midnightblue" points="919.805,-86.3418 910.074,-90.5311 920.294,-93.3247 919.805,-86.3418"/>
</g>
<!-- Node3 -->
<g id="node3" class="node"><title>Node3</title>
<g id="a_node3"><a xlink:href="../../d3/dc9/interfacemodel_1_1state_1_1gameelement_1_1traits_1_1_updatable.html" target="_top" xlink:title="model.state.gameelement.traits.\lUpdatable">
<polygon fill="white" stroke="black" points="342,-147 342,-177 518,-177 518,-147 342,-147"/>
<text text-anchor="start" x="350" y="-165" font-family="Helvetica,sans-Serif" font-size="10.00">model.state.gameelement.traits.</text>
<text text-anchor="middle" x="430" y="-154" font-family="Helvetica,sans-Serif" font-size="10.00">Updatable</text>
</a>
</g>
</g>
<!-- Node3&#45;&gt;Node2 -->
<g id="edge2" class="edge"><title>Node3&#45;&gt;Node2</title>
<path fill="none" stroke="midnightblue" d="M525.896,-145.207C580.747,-135.5 649.173,-123.391 702.215,-114.004"/>
<polygon fill="midnightblue" stroke="midnightblue" points="525.056,-141.801 515.819,-146.99 526.276,-148.694 525.056,-141.801"/>
</g>
<!-- Node4 -->
<g id="node4" class="node"><title>Node4</title>
<g id="a_node4"><a xlink:href="../../d8/dfe/interfaceengine_1_1visuals_1_1element_visuals_1_1widgets_1_1_widget.html" target="_top" xlink:title="engine.visuals.elementVisuals.widgets.\lWidget">
<polygon fill="white" stroke="black" points="328.5,-98 328.5,-128 531.5,-128 531.5,-98 328.5,-98"/>
<text text-anchor="start" x="336.5" y="-116" font-family="Helvetica,sans-Serif" font-size="10.00">engine.visuals.elementVisuals.widgets.</text>
<text text-anchor="middle" x="430" y="-105" font-family="Helvetica,sans-Serif" font-size="10.00">Widget</text>
</a>
</g>
</g>
<!-- Node4&#45;&gt;Node2 -->
<g id="edge3" class="edge"><title>Node4&#45;&gt;Node2</title>
<path fill="none" stroke="midnightblue" d="M541.744,-108.645C581.109,-107.097 625.618,-105.346 665.81,-103.766"/>
<polygon fill="midnightblue" stroke="midnightblue" points="541.443,-105.154 531.588,-109.044 541.718,-112.149 541.443,-105.154"/>
</g>
<!-- Node5 -->
<g id="node5" class="node"><title>Node5</title>
<g id="a_node5"><a xlink:href="../../da/dc5/classmodel_1_1state_1_1gameelement_1_1_attribute_container.html" target="_top" xlink:title="model.state.gameelement.\lAttributeContainer">
<polygon fill="white" stroke="black" points="356,-49 356,-79 504,-79 504,-49 356,-49"/>
<text text-anchor="start" x="364" y="-67" font-family="Helvetica,sans-Serif" font-size="10.00">model.state.gameelement.</text>
<text text-anchor="middle" x="430" y="-56" font-family="Helvetica,sans-Serif" font-size="10.00">AttributeContainer</text>
</a>
</g>
</g>
<!-- Node5&#45;&gt;Node2 -->
<g id="edge4" class="edge"><title>Node5&#45;&gt;Node2</title>
<path fill="none" stroke="#9a32cd" stroke-dasharray="5,2" d="M514.354,-72.1949C559.423,-76.6259 615.908,-82.1792 665.759,-87.0802"/>
<polygon fill="#9a32cd" stroke="#9a32cd" points="514.626,-68.7049 504.332,-71.2096 513.941,-75.6713 514.626,-68.7049"/>
<text text-anchor="middle" x="599" y="-88" font-family="Helvetica,sans-Serif" font-size="10.00"> attributesOfInterest</text>
</g>
<!-- Node6 -->
<g id="node6" class="node"><title>Node6</title>
<polygon fill="white" stroke="#bfbfbf" points="52.5,-98.5 52.5,-117.5 123.5,-117.5 123.5,-98.5 52.5,-98.5"/>
<text text-anchor="middle" x="88" y="-105.5" font-family="Helvetica,sans-Serif" font-size="10.00">Serializable</text>
</g>
<!-- Node6&#45;&gt;Node5 -->
<g id="edge5" class="edge"><title>Node6&#45;&gt;Node5</title>
<path fill="none" stroke="midnightblue" d="M133.855,-102.195C190.44,-94.8724 288.49,-82.1836 355.948,-73.4538"/>
<polygon fill="midnightblue" stroke="midnightblue" points="133.256,-98.7434 123.788,-103.498 134.155,-105.686 133.256,-98.7434"/>
</g>
<!-- Node7 -->
<g id="node7" class="node"><title>Node7</title>
<polygon fill="white" stroke="#bfbfbf" points="0,-49 0,-79 176,-79 176,-49 0,-49"/>
<text text-anchor="start" x="8" y="-67" font-family="Helvetica,sans-Serif" font-size="10.00">Set&lt; model.state.gameelement.</text>
<text text-anchor="middle" x="88" y="-56" font-family="Helvetica,sans-Serif" font-size="10.00">Attribute&lt; String &gt; &gt;</text>
</g>
<!-- Node7&#45;&gt;Node5 -->
<g id="edge6" class="edge"><title>Node7&#45;&gt;Node5</title>
<path fill="none" stroke="#9a32cd" stroke-dasharray="5,2" d="M186.396,-64C240.374,-64 306.377,-64 355.904,-64"/>
<polygon fill="#9a32cd" stroke="#9a32cd" points="186.117,-60.5001 176.117,-64 186.117,-67.5001 186.117,-60.5001"/>
<text text-anchor="middle" x="252" y="-67" font-family="Helvetica,sans-Serif" font-size="10.00"> myTextualAttributes</text>
</g>
<!-- Node8 -->
<g id="node8" class="node"><title>Node8</title>
<polygon fill="white" stroke="#bfbfbf" points="0,-0 0,-30 176,-30 176,-0 0,-0"/>
<text text-anchor="start" x="8" y="-18" font-family="Helvetica,sans-Serif" font-size="10.00">Set&lt; model.state.gameelement.</text>
<text text-anchor="middle" x="88" y="-7" font-family="Helvetica,sans-Serif" font-size="10.00">Attribute&lt; Number &gt; &gt;</text>
</g>
<!-- Node8&#45;&gt;Node5 -->
<g id="edge7" class="edge"><title>Node8&#45;&gt;Node5</title>
<path fill="none" stroke="#9a32cd" stroke-dasharray="5,2" d="M186.059,-28.988C240.099,-36.7761 306.274,-46.313 355.904,-53.4656"/>
<polygon fill="#9a32cd" stroke="#9a32cd" points="186.514,-25.5174 176.117,-27.5551 185.515,-32.4458 186.514,-25.5174"/>
<text text-anchor="middle" x="252" y="-50" font-family="Helvetica,sans-Serif" font-size="10.00"> myNumericalAttributes</text>
</g>
<!-- Node9 -->
<g id="node9" class="node"><title>Node9</title>
<polygon fill="white" stroke="#bfbfbf" points="407,-10.5 407,-29.5 453,-29.5 453,-10.5 407,-10.5"/>
<text text-anchor="middle" x="430" y="-17.5" font-family="Helvetica,sans-Serif" font-size="10.00">Group</text>
</g>
<!-- Node9&#45;&gt;Node2 -->
<g id="edge8" class="edge"><title>Node9&#45;&gt;Node2</title>
<path fill="none" stroke="#9a32cd" stroke-dasharray="5,2" d="M463.135,-25.9622C482.988,-29.6663 508.983,-34.5533 532,-39 583.605,-48.9697 599.425,-41.9267 648,-62 656.886,-65.6721 657.129,-70.2924 666,-74 675.302,-77.8877 685.267,-81.1905 695.338,-83.9922"/>
<polygon fill="#9a32cd" stroke="#9a32cd" points="463.551,-22.4795 453.079,-24.0891 462.269,-29.3611 463.551,-22.4795"/>
<text text-anchor="middle" x="599" y="-65" font-family="Helvetica,sans-Serif" font-size="10.00"> myGroup</text>
</g>
<!-- Node10 -->
<g id="node10" class="node"><title>Node10</title>
<polygon fill="white" stroke="#bfbfbf" points="756.5,-45.5 756.5,-64.5 819.5,-64.5 819.5,-45.5 756.5,-45.5"/>
<text text-anchor="middle" x="788" y="-52.5" font-family="Helvetica,sans-Serif" font-size="10.00">Rectangle</text>
</g>
<!-- Node10&#45;&gt;Node1 -->
<g id="edge9" class="edge"><title>Node10&#45;&gt;Node1</title>
<path fill="none" stroke="#9a32cd" stroke-dasharray="5,2" d="M830.006,-56.5365C879.016,-58.4014 963.505,-61.7072 1036,-65 1041.79,-65.2631 1047.72,-65.5384 1053.71,-65.8214"/>
<polygon fill="#9a32cd" stroke="#9a32cd" points="829.935,-53.0313 819.81,-56.1498 829.67,-60.0263 829.935,-53.0313"/>
<text text-anchor="middle" x="982" y="-68" font-family="Helvetica,sans-Serif" font-size="10.00"> myAttributeRectangle</text>
</g>
</g>
</svg>
