<?xml version="1.0" encoding="UTF-8" standalone="no"?>
<!DOCTYPE svg PUBLIC "-//W3C//DTD SVG 1.1//EN"
 "http://www.w3.org/Graphics/SVG/1.1/DTD/svg11.dtd">
<!-- Generated by graphviz version 2.36.0 (20140111.2315)
 -->
<!-- Title: game_engine.gameRepresentation.conditions.evaluators.parameters.StringAttributeParameter Pages: 1 -->
<!--zoomable 266 -->
<svg id="main" version="1.1" xmlns="http://www.w3.org/2000/svg" xmlns:xlink="http://www.w3.org/1999/xlink" xml:space="preserve" onload="init(evt)">
<style type="text/css"><![CDATA[
.edge:hover path { stroke: red; }
.edge:hover polygon { stroke: red; fill: red; }
]]></style>
<script type="text/javascript"><![CDATA[
var edges = document.getElementsByTagName('g');
if (edges && edges.length) {
  for (var i=0;i<edges.length;i++) {
    if (edges[i].id.substr(0,4)=='edge') {
      edges[i].setAttribute('class','edge');
    }
  }
}
]]></script>
        <defs>
                <circle id="rim" cx="0" cy="0" r="7"/>
                <circle id="rim2" cx="0" cy="0" r="3.5"/>
                <g id="zoomPlus">
                        <use xlink:href="#rim" fill="#404040">
                                <set attributeName="fill" to="#808080" begin="zoomplus.mouseover" end="zoomplus.mouseout"/>
                        </use>
                        <path d="M-4,0h8M0,-4v8" fill="none" stroke="white" stroke-width="1.5" pointer-events="none"/>
                </g>
                <g id="zoomMin">
                        <use xlink:href="#rim" fill="#404040">
                                <set attributeName="fill" to="#808080" begin="zoomminus.mouseover" end="zoomminus.mouseout"/>
                        </use>
                        <path d="M-4,0h8" fill="none" stroke="white" stroke-width="1.5" pointer-events="none"/>
                </g>
                <g id="dirArrow">
                        <path fill="none" stroke="white" stroke-width="1.5" d="M0,-3.0v7 M-2.5,-0.5L0,-3.0L2.5,-0.5"/>
                </g>
               <g id="resetDef">
                       <use xlink:href="#rim2" fill="#404040">
                               <set attributeName="fill" to="#808080" begin="reset.mouseover" end="reset.mouseout"/>
                       </use>
               </g>
        </defs>

<script type="text/javascript">
var viewWidth = 2720;
var viewHeight = 266;
var sectionId = 'dynsection-1';
</script>
<script xlink:href="../../svgpan.js"/>
<svg id="graph" class="graph">
<g id="viewport">
<title>game_engine.gameRepresentation.conditions.evaluators.parameters.StringAttributeParameter</title>
<polygon fill="white" stroke="none" points="-4,4 -4,-262 2716,-262 2716,4 -4,4"/>
<!-- Node1 -->
<g id="node1" class="node"><title>Node1</title>
<polygon fill="#bfbfbf" stroke="black" points="2360,-178 2360,-208 2712,-208 2712,-178 2360,-178"/>
<text text-anchor="start" x="2368" y="-196" font-family="Helvetica,sans-Serif" font-size="10.00">game_engine.gameRepresentation.conditions.evaluators.parameters.</text>
<text text-anchor="middle" x="2536" y="-185" font-family="Helvetica,sans-Serif" font-size="10.00">StringAttributeParameter</text>
</g>
<!-- Node2 -->
<g id="node2" class="node"><title>Node2</title>
<g id="a_node2"><a xlink:href="../../da/d84/classgame__engine_1_1game_representation_1_1conditions_1_1evaluators_1_1parameters_1_1_attribute_parameter.html" target="_top" xlink:title="game_engine.gameRepresentation.conditions.evaluators.parameters.\lAttributeParameter">
<polygon fill="white" stroke="black" points="1970,-178 1970,-208 2322,-208 2322,-178 1970,-178"/>
<text text-anchor="start" x="1978" y="-196" font-family="Helvetica,sans-Serif" font-size="10.00">game_engine.gameRepresentation.conditions.evaluators.parameters.</text>
<text text-anchor="middle" x="2146" y="-185" font-family="Helvetica,sans-Serif" font-size="10.00">AttributeParameter</text>
</a>
</g>
</g>
<!-- Node2&#45;&gt;Node1 -->
<g id="edge1" class="edge"><title>Node2&#45;&gt;Node1</title>
<path fill="none" stroke="midnightblue" d="M2332.5,-193C2341.58,-193 2350.68,-193 2359.73,-193"/>
<polygon fill="midnightblue" stroke="midnightblue" points="2332.27,-189.5 2322.27,-193 2332.27,-196.5 2332.27,-189.5"/>
</g>
<!-- Node3 -->
<g id="node3" class="node"><title>Node3</title>
<g id="a_node3"><a xlink:href="../../dd/dfa/interfacegame__engine_1_1game_representation_1_1conditions_1_1evaluators_1_1parameters_1_1_parameter.html" target="_top" xlink:title="game_engine.gameRepresentation.conditions.evaluators.parameters.\lParameter">
<polygon fill="white" stroke="black" points="1475,-227 1475,-257 1827,-257 1827,-227 1475,-227"/>
<text text-anchor="start" x="1483" y="-245" font-family="Helvetica,sans-Serif" font-size="10.00">game_engine.gameRepresentation.conditions.evaluators.parameters.</text>
<text text-anchor="middle" x="1651" y="-234" font-family="Helvetica,sans-Serif" font-size="10.00">Parameter</text>
</a>
</g>
</g>
<!-- Node3&#45;&gt;Node2 -->
<g id="edge2" class="edge"><title>Node3&#45;&gt;Node2</title>
<path fill="none" stroke="midnightblue" d="M1812.95,-226.003C1871.11,-220.222 1936.53,-213.72 1993.82,-208.026"/>
<polygon fill="midnightblue" stroke="midnightblue" points="1812.54,-222.527 1802.93,-226.999 1813.23,-229.492 1812.54,-222.527"/>
</g>
<!-- Node4 -->
<g id="node4" class="node"><title>Node4</title>
<g id="a_node4"><a xlink:href="../../d5/d7d/interfacegame__engine_1_1game_representation_1_1conditions_1_1evaluators_1_1parameters_1_1object515c12cec01c72e55e9ba77b44a83d78.html" target="_top" xlink:title="game_engine.gameRepresentation.conditions.evaluators.parameters.object\lIdentifiers.ObjectOfInterestIdentifier">
<polygon fill="white" stroke="black" points="1460.5,-178 1460.5,-208 1841.5,-208 1841.5,-178 1460.5,-178"/>
<text text-anchor="start" x="1468.5" y="-196" font-family="Helvetica,sans-Serif" font-size="10.00">game_engine.gameRepresentation.conditions.evaluators.parameters.object</text>
<text text-anchor="middle" x="1651" y="-185" font-family="Helvetica,sans-Serif" font-size="10.00">Identifiers.ObjectOfInterestIdentifier</text>
</a>
</g>
</g>
<!-- Node4&#45;&gt;Node2 -->
<g id="edge3" class="edge"><title>Node4&#45;&gt;Node2</title>
<path fill="none" stroke="#9a32cd" stroke-dasharray="5,2" d="M1851.98,-193C1891.04,-193 1931.72,-193 1969.9,-193"/>
<polygon fill="#9a32cd" stroke="#9a32cd" points="1851.55,-189.5 1841.55,-193 1851.55,-196.5 1851.55,-189.5"/>
<text text-anchor="middle" x="1906" y="-196" font-family="Helvetica,sans-Serif" font-size="10.00"> myObjectIdentifier</text>
</g>
<!-- Node5 -->
<g id="node5" class="node"><title>Node5</title>
<g id="a_node5"><a xlink:href="../../dd/de3/classgame__engine_1_1state_managing_1_1_game_element_manager.html" target="_top" xlink:title="game_engine.stateManaging.\lGameElementManager">
<polygon fill="white" stroke="black" points="1571.5,-129 1571.5,-159 1730.5,-159 1730.5,-129 1571.5,-129"/>
<text text-anchor="start" x="1579.5" y="-147" font-family="Helvetica,sans-Serif" font-size="10.00">game_engine.stateManaging.</text>
<text text-anchor="middle" x="1651" y="-136" font-family="Helvetica,sans-Serif" font-size="10.00">GameElementManager</text>
</a>
</g>
</g>
<!-- Node5&#45;&gt;Node2 -->
<g id="edge4" class="edge"><title>Node5&#45;&gt;Node2</title>
<path fill="none" stroke="#9a32cd" stroke-dasharray="5,2" d="M1740.83,-152.829C1811.22,-159.825 1911.16,-169.759 1994.05,-177.997"/>
<polygon fill="#9a32cd" stroke="#9a32cd" points="1740.96,-149.325 1730.66,-151.818 1740.27,-156.29 1740.96,-149.325"/>
<text text-anchor="middle" x="1906" y="-176" font-family="Helvetica,sans-Serif" font-size="10.00"> myManager</text>
</g>
<!-- Node6 -->
<g id="node6" class="node"><title>Node6</title>
<polygon fill="white" stroke="#bfbfbf" points="1234,-152.5 1234,-171.5 1294,-171.5 1294,-152.5 1234,-152.5"/>
<text text-anchor="middle" x="1264" y="-159.5" font-family="Helvetica,sans-Serif" font-size="10.00">Observer</text>
</g>
<!-- Node6&#45;&gt;Node5 -->
<g id="edge5" class="edge"><title>Node6&#45;&gt;Node5</title>
<path fill="none" stroke="midnightblue" d="M1304.49,-160.154C1367.08,-157.227 1490.29,-151.467 1571.38,-147.676"/>
<polygon fill="midnightblue" stroke="midnightblue" points="1304.08,-156.669 1294.25,-160.632 1304.41,-163.661 1304.08,-156.669"/>
</g>
<!-- Node7 -->
<g id="node7" class="node"><title>Node7</title>
<g id="a_node7"><a xlink:href="../../d5/d35/classgame__engine_1_1game_representation_1_1rendered_representation_1_1_level.html" target="_top" xlink:title="game_engine.gameRepresentation.rendered\lRepresentation.Level">
<polygon fill="white" stroke="black" points="1148.5,-103 1148.5,-133 1379.5,-133 1379.5,-103 1148.5,-103"/>
<text text-anchor="start" x="1156.5" y="-121" font-family="Helvetica,sans-Serif" font-size="10.00">game_engine.gameRepresentation.rendered</text>
<text text-anchor="middle" x="1264" y="-110" font-family="Helvetica,sans-Serif" font-size="10.00">Representation.Level</text>
</a>
</g>
</g>
<!-- Node7&#45;&gt;Node5 -->
<g id="edge6" class="edge"><title>Node7&#45;&gt;Node5</title>
<path fill="none" stroke="#9a32cd" stroke-dasharray="5,2" d="M1389.98,-126.441C1449.67,-130.471 1519.28,-135.172 1571.44,-138.695"/>
<polygon fill="#9a32cd" stroke="#9a32cd" points="1389.94,-122.93 1379.73,-125.748 1389.47,-129.914 1389.94,-122.93"/>
<text text-anchor="middle" x="1420" y="-133" font-family="Helvetica,sans-Serif" font-size="10.00"> myLevel</text>
</g>
<!-- Node8 -->
<g id="node8" class="node"><title>Node8</title>
<polygon fill="white" stroke="#bfbfbf" points="770.5,-201 770.5,-231 1029.5,-231 1029.5,-201 770.5,-201"/>
<text text-anchor="start" x="778.5" y="-219" font-family="Helvetica,sans-Serif" font-size="10.00">List&lt; game_engine.gameRepresentation.rendered</text>
<text text-anchor="middle" x="900" y="-208" font-family="Helvetica,sans-Serif" font-size="10.00">Representation.DrawableGameElement &gt;</text>
</g>
<!-- Node8&#45;&gt;Node7 -->
<g id="edge7" class="edge"><title>Node8&#45;&gt;Node7</title>
<path fill="none" stroke="#9a32cd" stroke-dasharray="5,2" d="M994.532,-198.914C1006.5,-196.422 1018.57,-193.76 1030,-191 1074.98,-180.142 1090.48,-186.083 1130,-162 1139.93,-155.946 1137.87,-148.711 1148,-143 1154.94,-139.088 1162.44,-135.787 1170.16,-133.003"/>
<polygon fill="#9a32cd" stroke="#9a32cd" points="993.607,-195.531 984.512,-200.966 995.011,-202.389 993.607,-195.531"/>
<text text-anchor="middle" x="1089" y="-190" font-family="Helvetica,sans-Serif" font-size="10.00"> myTerrain</text>
</g>
<!-- Node9 -->
<g id="node9" class="node"><title>Node9</title>
<polygon fill="white" stroke="#bfbfbf" points="770.5,-152 770.5,-182 1029.5,-182 1029.5,-152 770.5,-152"/>
<text text-anchor="start" x="778.5" y="-170" font-family="Helvetica,sans-Serif" font-size="10.00">List&lt; game_engine.gameRepresentation.rendered</text>
<text text-anchor="middle" x="900" y="-159" font-family="Helvetica,sans-Serif" font-size="10.00">Representation.SelectableGameElement &gt;</text>
</g>
<!-- Node9&#45;&gt;Node7 -->
<g id="edge8" class="edge"><title>Node9&#45;&gt;Node7</title>
<path fill="none" stroke="#9a32cd" stroke-dasharray="5,2" d="M1022.08,-150.611C1064.1,-144.923 1110.98,-138.577 1152.14,-133.006"/>
<polygon fill="#9a32cd" stroke="#9a32cd" points="1021.51,-147.156 1012.07,-151.965 1022.45,-154.092 1021.51,-147.156"/>
<text text-anchor="middle" x="1089" y="-150" font-family="Helvetica,sans-Serif" font-size="10.00"> myUnits</text>
</g>
<!-- Node10 -->
<g id="node10" class="node"><title>Node10</title>
<g id="a_node10"><a xlink:href="../../d3/d7a/classgame__engine_1_1game_representation_1_1state_representation_1_1_level_state.html" target="_top" xlink:title="game_engine.gameRepresentation.state\lRepresentation.LevelState">
<polygon fill="white" stroke="black" points="794,-103 794,-133 1006,-133 1006,-103 794,-103"/>
<text text-anchor="start" x="802" y="-121" font-family="Helvetica,sans-Serif" font-size="10.00">game_engine.gameRepresentation.state</text>
<text text-anchor="middle" x="900" y="-110" font-family="Helvetica,sans-Serif" font-size="10.00">Representation.LevelState</text>
</a>
</g>
</g>
<!-- Node10&#45;&gt;Node7 -->
<g id="edge9" class="edge"><title>Node10&#45;&gt;Node7</title>
<path fill="none" stroke="#9a32cd" stroke-dasharray="5,2" d="M1016.23,-118C1058.45,-118 1106.19,-118 1148.36,-118"/>
<polygon fill="#9a32cd" stroke="#9a32cd" points="1016.19,-114.5 1006.19,-118 1016.19,-121.5 1016.19,-114.5"/>
<text text-anchor="middle" x="1089" y="-121" font-family="Helvetica,sans-Serif" font-size="10.00"> myLevelState</text>
</g>
<!-- Node11 -->
<g id="node11" class="node"><title>Node11</title>
<g id="a_node11"><a xlink:href="../../da/d2f/classgame__engine_1_1game_representation_1_1state_representation_1_1_describable_state.html" target="_top" xlink:title="game_engine.gameRepresentation.state\lRepresentation.DescribableState">
<polygon fill="white" stroke="black" points="14,-200 14,-230 226,-230 226,-200 14,-200"/>
<text text-anchor="start" x="22" y="-218" font-family="Helvetica,sans-Serif" font-size="10.00">game_engine.gameRepresentation.state</text>
<text text-anchor="middle" x="120" y="-207" font-family="Helvetica,sans-Serif" font-size="10.00">Representation.DescribableState</text>
</a>
</g>
</g>
<!-- Node11&#45;&gt;Node10 -->
<g id="edge10" class="edge"><title>Node11&#45;&gt;Node10</title>
<path fill="none" stroke="midnightblue" d="M204.066,-231.782C332.934,-253.017 583.687,-274.679 752,-164 762.556,-157.059 759.129,-148.436 770,-142 777.449,-137.59 785.529,-133.961 793.888,-130.977"/>
<polygon fill="midnightblue" stroke="midnightblue" points="204.312,-228.274 193.868,-230.06 203.146,-235.176 204.312,-228.274"/>
</g>
<!-- Node12 -->
<g id="node12" class="node"><title>Node12</title>
<g id="a_node12"><a xlink:href="../../dd/dec/classgame__engine_1_1game_representation_1_1state_representation_1_1_campaign_state.html" target="_top" xlink:title="game_engine.gameRepresentation.state\lRepresentation.CampaignState">
<polygon fill="white" stroke="black" points="377,-157 377,-187 589,-187 589,-157 377,-157"/>
<text text-anchor="start" x="385" y="-175" font-family="Helvetica,sans-Serif" font-size="10.00">game_engine.gameRepresentation.state</text>
<text text-anchor="middle" x="483" y="-164" font-family="Helvetica,sans-Serif" font-size="10.00">Representation.CampaignState</text>
</a>
</g>
</g>
<!-- Node11&#45;&gt;Node12 -->
<g id="edge12" class="edge"><title>Node11&#45;&gt;Node12</title>
<path fill="none" stroke="midnightblue" d="M236.492,-201.243C281.529,-195.879 332.798,-189.772 376.795,-184.531"/>
<polygon fill="midnightblue" stroke="midnightblue" points="235.902,-197.789 226.387,-202.447 236.73,-204.74 235.902,-197.789"/>
</g>
<!-- Node12&#45;&gt;Node10 -->
<g id="edge11" class="edge"><title>Node12&#45;&gt;Node10</title>
<path fill="none" stroke="#9a32cd" stroke-dasharray="5,2" d="M599.307,-156.996C660.247,-149.067 734.503,-139.404 793.854,-131.682"/>
<polygon fill="#9a32cd" stroke="#9a32cd" points="598.723,-153.543 589.259,-158.304 599.627,-160.484 598.723,-153.543"/>
<text text-anchor="middle" x="705" y="-152" font-family="Helvetica,sans-Serif" font-size="10.00"> myCampaignState</text>
</g>
<!-- Node13 -->
<g id="node13" class="node"><title>Node13</title>
<polygon fill="white" stroke="#bfbfbf" points="0,-150 0,-180 240,-180 240,-150 0,-150"/>
<text text-anchor="start" x="8" y="-168" font-family="Helvetica,sans-Serif" font-size="10.00">List&lt; game_engine.gameRepresentation.state</text>
<text text-anchor="middle" x="120" y="-157" font-family="Helvetica,sans-Serif" font-size="10.00">Representation.LevelState &gt;</text>
</g>
<!-- Node13&#45;&gt;Node12 -->
<g id="edge13" class="edge"><title>Node13&#45;&gt;Node12</title>
<path fill="none" stroke="#9a32cd" stroke-dasharray="5,2" d="M250.291,-165.201C269.635,-165.373 289.342,-165.629 308,-166 330.212,-166.442 354.012,-167.125 376.658,-167.874"/>
<polygon fill="#9a32cd" stroke="#9a32cd" points="250.244,-161.701 240.216,-165.119 250.187,-168.701 250.244,-161.701"/>
<text text-anchor="middle" x="283" y="-169" font-family="Helvetica,sans-Serif" font-size="10.00"> myLevels</text>
</g>
<!-- Node14 -->
<g id="node14" class="node"><title>Node14</title>
<polygon fill="white" stroke="#bfbfbf" points="362,-97.5 362,-138.5 604,-138.5 604,-97.5 362,-97.5"/>
<text text-anchor="start" x="370" y="-126.5" font-family="Helvetica,sans-Serif" font-size="10.00">List&lt; game_engine.gameRepresentation.state</text>
<text text-anchor="start" x="370" y="-115.5" font-family="Helvetica,sans-Serif" font-size="10.00">Representation.gameElement.SelectableGame</text>
<text text-anchor="middle" x="483" y="-104.5" font-family="Helvetica,sans-Serif" font-size="10.00">ElementState &gt;</text>
</g>
<!-- Node14&#45;&gt;Node10 -->
<g id="edge14" class="edge"><title>Node14&#45;&gt;Node10</title>
<path fill="none" stroke="#9a32cd" stroke-dasharray="5,2" d="M614.335,-118C672.1,-118 739.17,-118 793.693,-118"/>
<polygon fill="#9a32cd" stroke="#9a32cd" points="614.035,-114.5 604.035,-118 614.035,-121.5 614.035,-114.5"/>
<text text-anchor="middle" x="705" y="-121" font-family="Helvetica,sans-Serif" font-size="10.00"> myUnits</text>
</g>
<!-- Node15 -->
<g id="node15" class="node"><title>Node15</title>
<polygon fill="white" stroke="#bfbfbf" points="326.5,-49 326.5,-79 639.5,-79 639.5,-49 326.5,-49"/>
<text text-anchor="start" x="334.5" y="-67" font-family="Helvetica,sans-Serif" font-size="10.00">List&lt; game_engine.gameRepresentation.state</text>
<text text-anchor="middle" x="483" y="-56" font-family="Helvetica,sans-Serif" font-size="10.00">Representation.gameElement.DrawableGameElementState &gt;</text>
</g>
<!-- Node15&#45;&gt;Node10 -->
<g id="edge15" class="edge"><title>Node15&#45;&gt;Node10</title>
<path fill="none" stroke="#9a32cd" stroke-dasharray="5,2" d="M609.435,-80.3217C668.323,-87.9842 737.722,-97.0145 793.816,-104.313"/>
<polygon fill="#9a32cd" stroke="#9a32cd" points="609.693,-76.8258 599.325,-79.0061 608.79,-83.7673 609.693,-76.8258"/>
<text text-anchor="middle" x="705" y="-101" font-family="Helvetica,sans-Serif" font-size="10.00"> myTerrains</text>
</g>
<!-- Node16 -->
<g id="node16" class="node"><title>Node16</title>
<polygon fill="white" stroke="#bfbfbf" points="348.5,-0 348.5,-30 617.5,-30 617.5,-0 348.5,-0"/>
<text text-anchor="start" x="356.5" y="-18" font-family="Helvetica,sans-Serif" font-size="10.00">List&lt; game_engine.gameRepresentation.state</text>
<text text-anchor="middle" x="483" y="-7" font-family="Helvetica,sans-Serif" font-size="10.00">Representation.gameElement.GameElementState &gt;</text>
</g>
<!-- Node16&#45;&gt;Node10 -->
<g id="edge16" class="edge"><title>Node16&#45;&gt;Node10</title>
<path fill="none" stroke="#9a32cd" stroke-dasharray="5,2" d="M604.769,-31.8327C616.716,-34.0208 628.623,-36.4119 640,-39 690.725,-50.5397 708.102,-45.0877 752,-73 762.092,-79.4166 759.591,-87.113 770,-93 777.446,-97.2113 785.479,-100.725 793.767,-103.656"/>
<polygon fill="#9a32cd" stroke="#9a32cd" points="605.194,-28.3533 594.734,-30.0427 603.964,-35.2446 605.194,-28.3533"/>
<text text-anchor="middle" x="705" y="-76" font-family="Helvetica,sans-Serif" font-size="10.00"> myGoals</text>
</g>
<!-- Node17 -->
<g id="node17" class="node"><title>Node17</title>
<polygon fill="white" stroke="#bfbfbf" points="770.5,-54 770.5,-84 1029.5,-84 1029.5,-54 770.5,-54"/>
<text text-anchor="start" x="778.5" y="-72" font-family="Helvetica,sans-Serif" font-size="10.00">List&lt; game_engine.gameRepresentation.rendered</text>
<text text-anchor="middle" x="900" y="-61" font-family="Helvetica,sans-Serif" font-size="10.00">Representation.GameElement &gt;</text>
</g>
<!-- Node17&#45;&gt;Node7 -->
<g id="edge17" class="edge"><title>Node17&#45;&gt;Node7</title>
<path fill="none" stroke="#9a32cd" stroke-dasharray="5,2" d="M1022.08,-85.3892C1064.1,-91.0774 1110.98,-97.4229 1152.14,-102.994"/>
<polygon fill="#9a32cd" stroke="#9a32cd" points="1022.45,-81.9077 1012.07,-84.0346 1021.51,-88.8444 1022.45,-81.9077"/>
<text text-anchor="middle" x="1089" y="-103" font-family="Helvetica,sans-Serif" font-size="10.00"> myGoals</text>
</g>
<!-- Node18 -->
<g id="node18" class="node"><title>Node18</title>
<polygon fill="white" stroke="#bfbfbf" points="877,-15.5 877,-34.5 923,-34.5 923,-15.5 877,-15.5"/>
<text text-anchor="middle" x="900" y="-22.5" font-family="Helvetica,sans-Serif" font-size="10.00">Group</text>
</g>
<!-- Node18&#45;&gt;Node7 -->
<g id="edge18" class="edge"><title>Node18&#45;&gt;Node7</title>
<path fill="none" stroke="#9a32cd" stroke-dasharray="5,2" d="M933.245,-28.3494C959.495,-31.4104 997.405,-36.594 1030,-44 1098.91,-59.6574 1176.74,-86.2505 1222.74,-102.931"/>
<polygon fill="#9a32cd" stroke="#9a32cd" points="933.433,-24.8484 923.103,-27.2047 932.648,-31.8043 933.433,-24.8484"/>
<text text-anchor="middle" x="1089" y="-74" font-family="Helvetica,sans-Serif" font-size="10.00"> myDisplayGroup</text>
</g>
</g>
</svg>
        <g id="navigator" transform="translate(0 0)" fill="#404254">
                <rect fill="#f2f5e9" fill-opacity="0.5" stroke="#606060" stroke-width=".5" x="0" y="0" width="60" height="60"/>
                <use id="zoomplus" xlink:href="#zoomPlus" x="17" y="9" onmousedown="handleZoom(evt,'in')"/>
                <use id="zoomminus" xlink:href="#zoomMin" x="42" y="9" onmousedown="handleZoom(evt,'out')"/>
                <use id="reset" xlink:href="#resetDef" x="30" y="36" onmousedown="handleReset()"/>
                <g id="arrowUp" xlink:href="#dirArrow" transform="translate(30 24)" onmousedown="handlePan(0,-1)">
                  <use xlink:href="#rim" fill="#404040">
                        <set attributeName="fill" to="#808080" begin="arrowUp.mouseover" end="arrowUp.mouseout"/>
                  </use>
                  <path fill="none" stroke="white" stroke-width="1.5" d="M0,-3.0v7 M-2.5,-0.5L0,-3.0L2.5,-0.5"/>
                </g>
                <g id="arrowRight" xlink:href="#dirArrow" transform="rotate(90) translate(36 -43)" onmousedown="handlePan(1,0)">
                  <use xlink:href="#rim" fill="#404040">
                        <set attributeName="fill" to="#808080" begin="arrowRight.mouseover" end="arrowRight.mouseout"/>
                  </use>
                  <path fill="none" stroke="white" stroke-width="1.5" d="M0,-3.0v7 M-2.5,-0.5L0,-3.0L2.5,-0.5"/>
                </g>
                <g id="arrowDown" xlink:href="#dirArrow" transform="rotate(180) translate(-30 -48)" onmousedown="handlePan(0,1)">
                  <use xlink:href="#rim" fill="#404040">
                        <set attributeName="fill" to="#808080" begin="arrowDown.mouseover" end="arrowDown.mouseout"/>
                  </use>
                  <path fill="none" stroke="white" stroke-width="1.5" d="M0,-3.0v7 M-2.5,-0.5L0,-3.0L2.5,-0.5"/>
                </g>
                <g id="arrowLeft" xlink:href="#dirArrow" transform="rotate(270) translate(-36 17)" onmousedown="handlePan(-1,0)">
                  <use xlink:href="#rim" fill="#404040">
                        <set attributeName="fill" to="#808080" begin="arrowLeft.mouseover" end="arrowLeft.mouseout"/>
                  </use>
                  <path fill="none" stroke="white" stroke-width="1.5" d="M0,-3.0v7 M-2.5,-0.5L0,-3.0L2.5,-0.5"/>
                </g>
        </g>
        <svg viewBox="0 0 15 15" width="100%" height="30px" preserveAspectRatio="xMaxYMin meet">
         <g id="arrow_out" transform="scale(0.3 0.3)">
          <a xlink:href="classgame__engine_1_1game_representation_1_1conditions_1_1evaluators_1_1parameters_1_1_string_attribute_parameter__coll__graph_org.svg" target="_base">
           <rect id="button" ry="5" rx="5" y="6" x="6" height="38" width="38"
                fill="#f2f5e9" fill-opacity="0.5" stroke="#606060" stroke-width="1.0"/>
           <path id="arrow"
             d="M 11.500037,31.436501 C 11.940474,20.09759 22.043105,11.32322 32.158766,21.979434 L 37.068811,17.246167 C 37.068811,17.246167 37.088388,32 37.088388,32 L 22.160133,31.978069 C 22.160133,31.978069 26.997745,27.140456 26.997745,27.140456 C 18.528582,18.264221 13.291696,25.230495 11.500037,31.436501 z"
             style="fill:#404040;"/>
          </a>
         </g>
        </svg>
</svg>
