<?xml version="1.0" encoding="UTF-8" standalone="no"?>
<!DOCTYPE svg PUBLIC "-//W3C//DTD SVG 1.1//EN"
 "http://www.w3.org/Graphics/SVG/1.1/DTD/svg11.dtd">
<!-- Generated by graphviz version 2.36.0 (20140111.2315)
 -->
<!-- Title: engine.visuals.SelectionBox.setX Pages: 1 -->
<svg width="956pt" height="128pt"
 viewBox="0.00 0.00 956.00 128.00" xmlns="http://www.w3.org/2000/svg" xmlns:xlink="http://www.w3.org/1999/xlink">
<g id="graph0" class="graph" transform="scale(1 1) rotate(0) translate(4 124)">
<title>engine.visuals.SelectionBox.setX</title>
<polygon fill="white" stroke="none" points="-4,4 -4,-124 952,-124 952,4 -4,4"/>
<!-- Node1 -->
<g id="node1" class="node"><title>Node1</title>
<polygon fill="#bfbfbf" stroke="black" points="0.5,-65 0.5,-95 131.5,-95 131.5,-65 0.5,-65"/>
<text text-anchor="start" x="8.5" y="-83" font-family="Helvetica,sans-Serif" font-size="10.00">engine.visuals.Selection</text>
<text text-anchor="middle" x="66" y="-72" font-family="Helvetica,sans-Serif" font-size="10.00">Box.setX</text>
</g>
<!-- Node2 -->
<g id="node2" class="node"><title>Node2</title>
<g id="a_node2"><a xlink:href="../../d3/d64/classengine_1_1visuals_1_1_selection_box.html#a7a9d3029e5b7d6729b0fc460a9416725" target="_top" xlink:title="engine.visuals.Selection\lBox.reactToDrag">
<polygon fill="white" stroke="black" points="168.5,-90 168.5,-120 299.5,-120 299.5,-90 168.5,-90"/>
<text text-anchor="start" x="176.5" y="-108" font-family="Helvetica,sans-Serif" font-size="10.00">engine.visuals.Selection</text>
<text text-anchor="middle" x="234" y="-97" font-family="Helvetica,sans-Serif" font-size="10.00">Box.reactToDrag</text>
</a>
</g>
</g>
<!-- Node1&#45;&gt;Node2 -->
<g id="edge1" class="edge"><title>Node1&#45;&gt;Node2</title>
<path fill="none" stroke="midnightblue" d="M141.612,-91.2367C150.499,-92.5751 159.515,-93.933 168.248,-95.2482"/>
<polygon fill="midnightblue" stroke="midnightblue" points="142.065,-87.7656 131.655,-89.7372 141.022,-94.6875 142.065,-87.7656"/>
</g>
<!-- Node4 -->
<g id="node4" class="node"><title>Node4</title>
<g id="a_node4"><a xlink:href="../../d3/d64/classengine_1_1visuals_1_1_selection_box.html#a1ef6c15fdaca99a33c3faa163a801bef" target="_top" xlink:title="engine.visuals.Selection\lBox.setLocation">
<polygon fill="white" stroke="black" points="168.5,-41 168.5,-71 299.5,-71 299.5,-41 168.5,-41"/>
<text text-anchor="start" x="176.5" y="-59" font-family="Helvetica,sans-Serif" font-size="10.00">engine.visuals.Selection</text>
<text text-anchor="middle" x="234" y="-48" font-family="Helvetica,sans-Serif" font-size="10.00">Box.setLocation</text>
</a>
</g>
</g>
<!-- Node1&#45;&gt;Node4 -->
<g id="edge3" class="edge"><title>Node1&#45;&gt;Node4</title>
<path fill="none" stroke="midnightblue" d="M141.612,-69.2128C150.499,-67.9279 159.515,-66.6243 168.248,-65.3617"/>
<polygon fill="midnightblue" stroke="midnightblue" points="141.052,-65.7573 131.655,-70.6523 142.053,-72.6852 141.052,-65.7573"/>
</g>
<!-- Node3 -->
<g id="node3" class="node"><title>Node3</title>
<g id="a_node3"><a xlink:href="../../de/db7/classengine_1_1_u_i_1_1_runner_input_manager.html#a69bebb0b08eb17978e6725587c159397" target="_top" xlink:title="engine.UI.RunnerInputManager.primary\lDragOccurred">
<polygon fill="white" stroke="black" points="336.5,-90 336.5,-120 539.5,-120 539.5,-90 336.5,-90"/>
<text text-anchor="start" x="344.5" y="-108" font-family="Helvetica,sans-Serif" font-size="10.00">engine.UI.RunnerInputManager.primary</text>
<text text-anchor="middle" x="438" y="-97" font-family="Helvetica,sans-Serif" font-size="10.00">DragOccurred</text>
</a>
</g>
</g>
<!-- Node2&#45;&gt;Node3 -->
<g id="edge2" class="edge"><title>Node2&#45;&gt;Node3</title>
<path fill="none" stroke="midnightblue" d="M310.023,-105C318.57,-105 327.383,-105 336.195,-105"/>
<polygon fill="midnightblue" stroke="midnightblue" points="309.748,-101.5 299.748,-105 309.748,-108.5 309.748,-101.5"/>
</g>
<!-- Node5 -->
<g id="node5" class="node"><title>Node5</title>
<g id="a_node5"><a xlink:href="../../d3/d64/classengine_1_1visuals_1_1_selection_box.html#ae75e9190a5a34ba4d809949a5a51e411" target="_top" xlink:title="engine.visuals.Selection\lBox.primaryClick">
<polygon fill="white" stroke="black" points="576.5,-22 576.5,-52 707.5,-52 707.5,-22 576.5,-22"/>
<text text-anchor="start" x="584.5" y="-40" font-family="Helvetica,sans-Serif" font-size="10.00">engine.visuals.Selection</text>
<text text-anchor="middle" x="642" y="-29" font-family="Helvetica,sans-Serif" font-size="10.00">Box.primaryClick</text>
</a>
</g>
</g>
<!-- Node4&#45;&gt;Node5 -->
<g id="edge4" class="edge"><title>Node4&#45;&gt;Node5</title>
<path fill="none" stroke="midnightblue" d="M309.828,-52.4982C386.325,-48.9183 503.912,-43.4154 576.45,-40.0208"/>
<polygon fill="midnightblue" stroke="midnightblue" points="309.606,-49.0046 299.781,-52.9684 309.934,-55.997 309.606,-49.0046"/>
</g>
<!-- Node7 -->
<g id="node7" class="node"><title>Node7</title>
<g id="a_node7"><a xlink:href="../../d3/d64/classengine_1_1visuals_1_1_selection_box.html#a933beff47845dede95bb8ad2f3bc2dec" target="_top" xlink:title="engine.visuals.Selection\lBox.resetBox">
<polygon fill="white" stroke="black" points="372.5,-0 372.5,-30 503.5,-30 503.5,-0 372.5,-0"/>
<text text-anchor="start" x="380.5" y="-18" font-family="Helvetica,sans-Serif" font-size="10.00">engine.visuals.Selection</text>
<text text-anchor="middle" x="438" y="-7" font-family="Helvetica,sans-Serif" font-size="10.00">Box.resetBox</text>
</a>
</g>
</g>
<!-- Node4&#45;&gt;Node7 -->
<g id="edge6" class="edge"><title>Node4&#45;&gt;Node7</title>
<path fill="none" stroke="midnightblue" d="M309.691,-40.8399C330.235,-36.67 352.341,-32.1833 372.273,-28.1378"/>
<polygon fill="midnightblue" stroke="midnightblue" points="308.852,-37.4389 299.748,-42.8582 310.244,-44.299 308.852,-37.4389"/>
</g>
<!-- Node6 -->
<g id="node6" class="node"><title>Node6</title>
<g id="a_node6"><a xlink:href="../../de/db7/classengine_1_1_u_i_1_1_runner_input_manager.html#a185ddda1d575d743ea889c24a32f8ff4" target="_top" xlink:title="engine.UI.RunnerInputManager.primary\lClickOccurred">
<polygon fill="white" stroke="black" points="744.5,-22 744.5,-52 947.5,-52 947.5,-22 744.5,-22"/>
<text text-anchor="start" x="752.5" y="-40" font-family="Helvetica,sans-Serif" font-size="10.00">engine.UI.RunnerInputManager.primary</text>
<text text-anchor="middle" x="846" y="-29" font-family="Helvetica,sans-Serif" font-size="10.00">ClickOccurred</text>
</a>
</g>
</g>
<!-- Node5&#45;&gt;Node6 -->
<g id="edge5" class="edge"><title>Node5&#45;&gt;Node6</title>
<path fill="none" stroke="midnightblue" d="M718.023,-37C726.57,-37 735.383,-37 744.195,-37"/>
<polygon fill="midnightblue" stroke="midnightblue" points="717.748,-33.5001 707.748,-37 717.748,-40.5001 717.748,-33.5001"/>
</g>
<!-- Node7&#45;&gt;Node5 -->
<g id="edge7" class="edge"><title>Node7&#45;&gt;Node5</title>
<path fill="none" stroke="midnightblue" d="M513.691,-23.1347C534.235,-25.3722 556.341,-27.7797 576.273,-29.9505"/>
<polygon fill="midnightblue" stroke="midnightblue" points="514.068,-19.6551 503.748,-22.0517 513.31,-26.6139 514.068,-19.6551"/>
</g>
</g>
</svg>
