<?xml version="1.0" encoding="UTF-8" standalone="no"?>
<!DOCTYPE svg PUBLIC "-//W3C//DTD SVG 1.1//EN"
 "http://www.w3.org/Graphics/SVG/1.1/DTD/svg11.dtd">
<!-- Generated by graphviz version 2.36.0 (20140111.2315)
 -->
<!-- Title: view.editor.EditorMenuBarController.saveGame Pages: 1 -->
<svg width="500pt" height="38pt"
 viewBox="0.00 0.00 500.00 38.00" xmlns="http://www.w3.org/2000/svg" xmlns:xlink="http://www.w3.org/1999/xlink">
<g id="graph0" class="graph" transform="scale(1 1) rotate(0) translate(4 34)">
<title>view.editor.EditorMenuBarController.saveGame</title>
<polygon fill="white" stroke="none" points="-4,4 -4,-34 496,-34 496,4 -4,4"/>
<!-- Node1 -->
<g id="node1" class="node"><title>Node1</title>
<polygon fill="#bfbfbf" stroke="black" points="0,-0 0,-30 140,-30 140,-0 0,-0"/>
<text text-anchor="start" x="8" y="-18" font-family="Helvetica,sans-Serif" font-size="10.00">view.editor.EditorMenuBar</text>
<text text-anchor="middle" x="70" y="-7" font-family="Helvetica,sans-Serif" font-size="10.00">Controller.saveGame</text>
</g>
<!-- Node2 -->
<g id="node2" class="node"><title>Node2</title>
<g id="a_node2"><a xlink:href="../../dc/d0c/classview_1_1editor_1_1_editor_menu_bar_controller.html#a56696b0f0540d2e86c3e4fe4521717a2" target="_top" xlink:title="view.editor.EditorMenuBar\lController.initFileMenu">
<polygon fill="white" stroke="black" points="176,-0 176,-30 316,-30 316,-0 176,-0"/>
<text text-anchor="start" x="184" y="-18" font-family="Helvetica,sans-Serif" font-size="10.00">view.editor.EditorMenuBar</text>
<text text-anchor="middle" x="246" y="-7" font-family="Helvetica,sans-Serif" font-size="10.00">Controller.initFileMenu</text>
</a>
</g>
</g>
<!-- Node1&#45;&gt;Node2 -->
<g id="edge1" class="edge"><title>Node1&#45;&gt;Node2</title>
<path fill="none" stroke="midnightblue" d="M150.035,-15C158.625,-15 167.319,-15 175.779,-15"/>
<polygon fill="midnightblue" stroke="midnightblue" points="150.019,-11.5001 140.019,-15 150.019,-18.5001 150.019,-11.5001"/>
</g>
<!-- Node3 -->
<g id="node3" class="node"><title>Node3</title>
<g id="a_node3"><a xlink:href="../../dc/d0c/classview_1_1editor_1_1_editor_menu_bar_controller.html#a5b101a400664af0200be8010673acb49" target="_top" xlink:title="view.editor.EditorMenuBar\lController.initMenuBar">
<polygon fill="white" stroke="black" points="352,-0 352,-30 492,-30 492,-0 352,-0"/>
<text text-anchor="start" x="360" y="-18" font-family="Helvetica,sans-Serif" font-size="10.00">view.editor.EditorMenuBar</text>
<text text-anchor="middle" x="422" y="-7" font-family="Helvetica,sans-Serif" font-size="10.00">Controller.initMenuBar</text>
</a>
</g>
</g>
<!-- Node2&#45;&gt;Node3 -->
<g id="edge2" class="edge"><title>Node2&#45;&gt;Node3</title>
<path fill="none" stroke="midnightblue" d="M326.035,-15C334.625,-15 343.319,-15 351.779,-15"/>
<polygon fill="midnightblue" stroke="midnightblue" points="326.019,-11.5001 316.019,-15 326.019,-18.5001 326.019,-11.5001"/>
</g>
</g>
</svg>
