<?xml version="1.0" encoding="UTF-8" standalone="no"?>
<!DOCTYPE svg PUBLIC "-//W3C//DTD SVG 1.1//EN"
 "http://www.w3.org/Graphics/SVG/1.1/DTD/svg11.dtd">
<!-- Generated by graphviz version 2.36.0 (20140111.2315)
 -->
<!-- Title: view.editor.EditorMenuBarController.bindTextProperties Pages: 1 -->
<!--zoomable 98 -->
<svg id="main" version="1.1" xmlns="http://www.w3.org/2000/svg" xmlns:xlink="http://www.w3.org/1999/xlink" xml:space="preserve" onload="init(evt)">
<style type="text/css"><![CDATA[
.edge:hover path { stroke: red; }
.edge:hover polygon { stroke: red; fill: red; }
]]></style>
<script type="text/javascript"><![CDATA[
var edges = document.getElementsByTagName('g');
if (edges && edges.length) {
  for (var i=0;i<edges.length;i++) {
    if (edges[i].id.substr(0,4)=='edge') {
      edges[i].setAttribute('class','edge');
    }
  }
}
]]></script>
        <defs>
                <circle id="rim" cx="0" cy="0" r="7"/>
                <circle id="rim2" cx="0" cy="0" r="3.5"/>
                <g id="zoomPlus">
                        <use xlink:href="#rim" fill="#404040">
                                <set attributeName="fill" to="#808080" begin="zoomplus.mouseover" end="zoomplus.mouseout"/>
                        </use>
                        <path d="M-4,0h8M0,-4v8" fill="none" stroke="white" stroke-width="1.5" pointer-events="none"/>
                </g>
                <g id="zoomMin">
                        <use xlink:href="#rim" fill="#404040">
                                <set attributeName="fill" to="#808080" begin="zoomminus.mouseover" end="zoomminus.mouseout"/>
                        </use>
                        <path d="M-4,0h8" fill="none" stroke="white" stroke-width="1.5" pointer-events="none"/>
                </g>
                <g id="dirArrow">
                        <path fill="none" stroke="white" stroke-width="1.5" d="M0,-3.0v7 M-2.5,-0.5L0,-3.0L2.5,-0.5"/>
                </g>
               <g id="resetDef">
                       <use xlink:href="#rim2" fill="#404040">
                               <set attributeName="fill" to="#808080" begin="reset.mouseover" end="reset.mouseout"/>
                       </use>
               </g>
        </defs>

<script type="text/javascript">
var viewWidth = 574;
var viewHeight = 98;
var sectionId = 'dynsection-2';
</script>
<script xlink:href="../../svgpan.js"/>
<svg id="graph" class="graph">
<g id="viewport">
<title>view.editor.EditorMenuBarController.bindTextProperties</title>
<polygon fill="white" stroke="none" points="-4,4 -4,-94 570,-94 570,4 -4,4"/>
<!-- Node1 -->
<g id="node1" class="node"><title>Node1</title>
<polygon fill="#bfbfbf" stroke="black" points="0.5,-27 0.5,-57 153.5,-57 153.5,-27 0.5,-27"/>
<text text-anchor="start" x="8.5" y="-45" font-family="Helvetica,sans-Serif" font-size="10.00">view.editor.EditorMenuBar</text>
<text text-anchor="middle" x="77" y="-34" font-family="Helvetica,sans-Serif" font-size="10.00">Controller.bindTextProperties</text>
</g>
<!-- Node2 -->
<g id="node2" class="node"><title>Node2</title>
<g id="a_node2"><a xlink:href="../../d4/d81/classutil_1_1multilanguage_1_1_multi_language_utility.html#a4434d82aa88c08ec97fb70994f38041c" target="_top" xlink:title="util.multilanguage.Multi\lLanguageUtility.getInstance">
<polygon fill="white" stroke="black" points="204.5,-52 204.5,-82 353.5,-82 353.5,-52 204.5,-52"/>
<text text-anchor="start" x="212.5" y="-70" font-family="Helvetica,sans-Serif" font-size="10.00">util.multilanguage.Multi</text>
<text text-anchor="middle" x="279" y="-59" font-family="Helvetica,sans-Serif" font-size="10.00">LanguageUtility.getInstance</text>
</a>
</g>
</g>
<!-- Node1&#45;&gt;Node2 -->
<g id="edge1" class="edge"><title>Node1&#45;&gt;Node2</title>
<path fill="none" stroke="midnightblue" d="M153.611,-51.4514C166.834,-53.1042 180.662,-54.8327 194.092,-56.5115"/>
<polygon fill="midnightblue" stroke="midnightblue" points="193.912,-60.0161 204.269,-57.7836 194.78,-53.0702 193.912,-60.0161"/>
</g>
<!-- Node4 -->
<g id="node4" class="node"><title>Node4</title>
<g id="a_node4"><a xlink:href="../../d4/d81/classutil_1_1multilanguage_1_1_multi_language_utility.html#a6adf3e1cb73a5cef3bc6d4a11cb1b091" target="_top" xlink:title="util.multilanguage.Multi\lLanguageUtility.getStringProperty">
<polygon fill="white" stroke="black" points="190.5,-2 190.5,-32 367.5,-32 367.5,-2 190.5,-2"/>
<text text-anchor="start" x="198.5" y="-20" font-family="Helvetica,sans-Serif" font-size="10.00">util.multilanguage.Multi</text>
<text text-anchor="middle" x="279" y="-9" font-family="Helvetica,sans-Serif" font-size="10.00">LanguageUtility.getStringProperty</text>
</a>
</g>
</g>
<!-- Node1&#45;&gt;Node4 -->
<g id="edge3" class="edge"><title>Node1&#45;&gt;Node4</title>
<path fill="none" stroke="midnightblue" d="M153.611,-32.5486C162.291,-31.4636 171.233,-30.3459 180.151,-29.2311"/>
<polygon fill="midnightblue" stroke="midnightblue" points="180.707,-32.689 190.195,-27.9756 179.838,-25.7431 180.707,-32.689"/>
</g>
<!-- Node3 -->
<g id="node3" class="node"><title>Node3</title>
<g id="a_node3"><a xlink:href="../../d4/d81/classutil_1_1multilanguage_1_1_multi_language_utility.html#a39432790595e3fc9ef3e2842299739f7" target="_top" xlink:title="util.multilanguage.Multi\lLanguageUtility.MultiLanguage\lUtility">
<polygon fill="white" stroke="black" points="404,-48.5 404,-89.5 566,-89.5 566,-48.5 404,-48.5"/>
<text text-anchor="start" x="412" y="-77.5" font-family="Helvetica,sans-Serif" font-size="10.00">util.multilanguage.Multi</text>
<text text-anchor="start" x="412" y="-66.5" font-family="Helvetica,sans-Serif" font-size="10.00">LanguageUtility.MultiLanguage</text>
<text text-anchor="middle" x="485" y="-55.5" font-family="Helvetica,sans-Serif" font-size="10.00">Utility</text>
</a>
</g>
</g>
<!-- Node2&#45;&gt;Node3 -->
<g id="edge2" class="edge"><title>Node2&#45;&gt;Node3</title>
<path fill="none" stroke="midnightblue" d="M353.649,-67.722C366.654,-67.8495 380.327,-67.9836 393.727,-68.115"/>
<polygon fill="midnightblue" stroke="midnightblue" points="393.871,-71.6164 403.904,-68.2147 393.939,-64.6168 393.871,-71.6164"/>
</g>
<!-- Node5 -->
<g id="node5" class="node"><title>Node5</title>
<g id="a_node5"><a xlink:href="../../d4/d81/classutil_1_1multilanguage_1_1_multi_language_utility.html#a596dd4d3069ea8571f1379d6d8a8471b" target="_top" xlink:title="util.multilanguage.Multi\lLanguageUtility.getProperty">
<polygon fill="white" stroke="black" points="410.5,-0 410.5,-30 559.5,-30 559.5,-0 410.5,-0"/>
<text text-anchor="start" x="418.5" y="-18" font-family="Helvetica,sans-Serif" font-size="10.00">util.multilanguage.Multi</text>
<text text-anchor="middle" x="485" y="-7" font-family="Helvetica,sans-Serif" font-size="10.00">LanguageUtility.getProperty</text>
</a>
</g>
</g>
<!-- Node4&#45;&gt;Node5 -->
<g id="edge4" class="edge"><title>Node4&#45;&gt;Node5</title>
<path fill="none" stroke="midnightblue" d="M367.698,-16.1402C378.501,-16.0343 389.521,-15.9263 400.263,-15.821"/>
<polygon fill="midnightblue" stroke="midnightblue" points="400.494,-19.3189 410.459,-15.721 400.426,-12.3193 400.494,-19.3189"/>
</g>
</g>
</svg>
        <g id="navigator" transform="translate(0 0)" fill="#404254">
                <rect fill="#f2f5e9" fill-opacity="0.5" stroke="#606060" stroke-width=".5" x="0" y="0" width="60" height="60"/>
                <use id="zoomplus" xlink:href="#zoomPlus" x="17" y="9" onmousedown="handleZoom(evt,'in')"/>
                <use id="zoomminus" xlink:href="#zoomMin" x="42" y="9" onmousedown="handleZoom(evt,'out')"/>
                <use id="reset" xlink:href="#resetDef" x="30" y="36" onmousedown="handleReset()"/>
                <g id="arrowUp" xlink:href="#dirArrow" transform="translate(30 24)" onmousedown="handlePan(0,-1)">
                  <use xlink:href="#rim" fill="#404040">
                        <set attributeName="fill" to="#808080" begin="arrowUp.mouseover" end="arrowUp.mouseout"/>
                  </use>
                  <path fill="none" stroke="white" stroke-width="1.5" d="M0,-3.0v7 M-2.5,-0.5L0,-3.0L2.5,-0.5"/>
                </g>
                <g id="arrowRight" xlink:href="#dirArrow" transform="rotate(90) translate(36 -43)" onmousedown="handlePan(1,0)">
                  <use xlink:href="#rim" fill="#404040">
                        <set attributeName="fill" to="#808080" begin="arrowRight.mouseover" end="arrowRight.mouseout"/>
                  </use>
                  <path fill="none" stroke="white" stroke-width="1.5" d="M0,-3.0v7 M-2.5,-0.5L0,-3.0L2.5,-0.5"/>
                </g>
                <g id="arrowDown" xlink:href="#dirArrow" transform="rotate(180) translate(-30 -48)" onmousedown="handlePan(0,1)">
                  <use xlink:href="#rim" fill="#404040">
                        <set attributeName="fill" to="#808080" begin="arrowDown.mouseover" end="arrowDown.mouseout"/>
                  </use>
                  <path fill="none" stroke="white" stroke-width="1.5" d="M0,-3.0v7 M-2.5,-0.5L0,-3.0L2.5,-0.5"/>
                </g>
                <g id="arrowLeft" xlink:href="#dirArrow" transform="rotate(270) translate(-36 17)" onmousedown="handlePan(-1,0)">
                  <use xlink:href="#rim" fill="#404040">
                        <set attributeName="fill" to="#808080" begin="arrowLeft.mouseover" end="arrowLeft.mouseout"/>
                  </use>
                  <path fill="none" stroke="white" stroke-width="1.5" d="M0,-3.0v7 M-2.5,-0.5L0,-3.0L2.5,-0.5"/>
                </g>
        </g>
        <svg viewBox="0 0 15 15" width="100%" height="30px" preserveAspectRatio="xMaxYMin meet">
         <g id="arrow_out" transform="scale(0.3 0.3)">
          <a xlink:href="classview_1_1editor_1_1_editor_menu_bar_controller_a7c888b888ba6067264ec096b95af5f8a_cgraph_org.svg" target="_base">
           <rect id="button" ry="5" rx="5" y="6" x="6" height="38" width="38"
                fill="#f2f5e9" fill-opacity="0.5" stroke="#606060" stroke-width="1.0"/>
           <path id="arrow"
             d="M 11.500037,31.436501 C 11.940474,20.09759 22.043105,11.32322 32.158766,21.979434 L 37.068811,17.246167 C 37.068811,17.246167 37.088388,32 37.088388,32 L 22.160133,31.978069 C 22.160133,31.978069 26.997745,27.140456 26.997745,27.140456 C 18.528582,18.264221 13.291696,25.230495 11.500037,31.436501 z"
             style="fill:#404040;"/>
          </a>
         </g>
        </svg>
</svg>
