<?xml version="1.0" encoding="UTF-8" standalone="no"?>
<!DOCTYPE svg PUBLIC "-//W3C//DTD SVG 1.1//EN"
 "http://www.w3.org/Graphics/SVG/1.1/DTD/svg11.dtd">
<!-- Generated by graphviz version 2.36.0 (20140111.2315)
 -->
<!-- Title: game_engine.Engine.Engine Pages: 1 -->
<svg width="660pt" height="136pt"
 viewBox="0.00 0.00 660.00 136.00" xmlns="http://www.w3.org/2000/svg" xmlns:xlink="http://www.w3.org/1999/xlink">
<g id="graph0" class="graph" transform="scale(1 1) rotate(0) translate(4 132)">
<title>game_engine.Engine.Engine</title>
<polygon fill="white" stroke="none" points="-4,4 -4,-132 656,-132 656,4 -4,4"/>
<!-- Node1 -->
<g id="node1" class="node"><title>Node1</title>
<polygon fill="#bfbfbf" stroke="black" points="0,-54.5 0,-73.5 152,-73.5 152,-54.5 0,-54.5"/>
<text text-anchor="middle" x="76" y="-61.5" font-family="Helvetica,sans-Serif" font-size="10.00">game_engine.Engine.Engine</text>
</g>
<!-- Node2 -->
<g id="node2" class="node"><title>Node2</title>
<g id="a_node2"><a xlink:href="../../da/d8d/classgamemodel_1_1_main_model.html#a53f66be5755c649b3422db0c4ed01c2e" target="_top" xlink:title="gamemodel.MainModel.getGame\lUniverse">
<polygon fill="white" stroke="black" points="195,-98 195,-128 371,-128 371,-98 195,-98"/>
<text text-anchor="start" x="203" y="-116" font-family="Helvetica,sans-Serif" font-size="10.00">gamemodel.MainModel.getGame</text>
<text text-anchor="middle" x="283" y="-105" font-family="Helvetica,sans-Serif" font-size="10.00">Universe</text>
</a>
</g>
</g>
<!-- Node1&#45;&gt;Node2 -->
<g id="edge1" class="edge"><title>Node1&#45;&gt;Node2</title>
<path fill="none" stroke="midnightblue" d="M117.013,-73.564C143.193,-79.8218 178.168,-88.1817 209.178,-95.5937"/>
<polygon fill="midnightblue" stroke="midnightblue" points="208.551,-99.0423 219.09,-97.963 210.178,-92.2341 208.551,-99.0423"/>
</g>
<!-- Node4 -->
<g id="node4" class="node"><title>Node4</title>
<g id="a_node4"><a xlink:href="../../de/d86/classgame__engine_1_1visuals_1_1_dimension.html#a4d803b0b96a4432a77516cf17c413617" target="_top" xlink:title="game_engine.visuals.Dimension.get\lHeight">
<polygon fill="white" stroke="black" points="188,-49 188,-79 378,-79 378,-49 188,-49"/>
<text text-anchor="start" x="196" y="-67" font-family="Helvetica,sans-Serif" font-size="10.00">game_engine.visuals.Dimension.get</text>
<text text-anchor="middle" x="283" y="-56" font-family="Helvetica,sans-Serif" font-size="10.00">Height</text>
</a>
</g>
</g>
<!-- Node1&#45;&gt;Node4 -->
<g id="edge3" class="edge"><title>Node1&#45;&gt;Node4</title>
<path fill="none" stroke="midnightblue" d="M152.17,-64C160.548,-64 169.188,-64 177.844,-64"/>
<polygon fill="midnightblue" stroke="midnightblue" points="177.998,-67.5001 187.998,-64 177.998,-60.5001 177.998,-67.5001"/>
</g>
<!-- Node5 -->
<g id="node5" class="node"><title>Node5</title>
<g id="a_node5"><a xlink:href="../../db/d53/classgame__engine_1_1visuals_1_1_visual_manager.html#afa6ca2179c0b45c2dabf0b410a44d95f" target="_top" xlink:title="game_engine.visuals.Visual\lManager.getScrollingScene">
<polygon fill="white" stroke="black" points="208.5,-0 208.5,-30 357.5,-30 357.5,-0 208.5,-0"/>
<text text-anchor="start" x="216.5" y="-18" font-family="Helvetica,sans-Serif" font-size="10.00">game_engine.visuals.Visual</text>
<text text-anchor="middle" x="283" y="-7" font-family="Helvetica,sans-Serif" font-size="10.00">Manager.getScrollingScene</text>
</a>
</g>
</g>
<!-- Node1&#45;&gt;Node5 -->
<g id="edge4" class="edge"><title>Node1&#45;&gt;Node5</title>
<path fill="none" stroke="midnightblue" d="M117.013,-54.436C143.193,-48.1782 178.168,-39.8183 209.178,-32.4063"/>
<polygon fill="midnightblue" stroke="midnightblue" points="210.178,-35.7659 219.09,-30.037 208.551,-28.9577 210.178,-35.7659"/>
</g>
<!-- Node3 -->
<g id="node3" class="node"><title>Node3</title>
<g id="a_node3"><a xlink:href="../../df/ddb/classgame__engine_1_1game_representation_1_1state_representation_1_1_game_state.html#a5db4a89800dd1f66ba1ef5d2a151eadb" target="_top" xlink:title="game_engine.gameRepresentation.state\lRepresentation.GameState.getGameUniverse">
<polygon fill="white" stroke="black" points="414.5,-98 414.5,-128 651.5,-128 651.5,-98 414.5,-98"/>
<text text-anchor="start" x="422.5" y="-116" font-family="Helvetica,sans-Serif" font-size="10.00">game_engine.gameRepresentation.state</text>
<text text-anchor="middle" x="533" y="-105" font-family="Helvetica,sans-Serif" font-size="10.00">Representation.GameState.getGameUniverse</text>
</a>
</g>
</g>
<!-- Node2&#45;&gt;Node3 -->
<g id="edge2" class="edge"><title>Node2&#45;&gt;Node3</title>
<path fill="none" stroke="midnightblue" d="M371.087,-113C381.772,-113 392.861,-113 403.992,-113"/>
<polygon fill="midnightblue" stroke="midnightblue" points="404.216,-116.5 414.216,-113 404.216,-109.5 404.216,-116.5"/>
</g>
</g>
</svg>
