<?xml version="1.0" encoding="UTF-8" standalone="no"?>
<!DOCTYPE svg PUBLIC "-//W3C//DTD SVG 1.1//EN"
 "http://www.w3.org/Graphics/SVG/1.1/DTD/svg11.dtd">
<!-- Generated by graphviz version 2.36.0 (20140111.2315)
 -->
<!-- Title: view.runner.LevelChooserController Pages: 1 -->
<svg width="458pt" height="241pt"
 viewBox="0.00 0.00 458.00 241.00" xmlns="http://www.w3.org/2000/svg" xmlns:xlink="http://www.w3.org/1999/xlink">
<g id="graph0" class="graph" transform="scale(1 1) rotate(0) translate(4 237)">
<title>view.runner.LevelChooserController</title>
<polygon fill="white" stroke="none" points="-4,4 -4,-237 454,-237 454,4 -4,4"/>
<!-- Node1 -->
<g id="node1" class="node"><title>Node1</title>
<polygon fill="#bfbfbf" stroke="black" points="312.5,-110 312.5,-140 449.5,-140 449.5,-110 312.5,-110"/>
<text text-anchor="start" x="320.5" y="-128" font-family="Helvetica,sans-Serif" font-size="10.00">view.runner.LevelChooser</text>
<text text-anchor="middle" x="381" y="-117" font-family="Helvetica,sans-Serif" font-size="10.00">Controller</text>
</g>
<!-- Node2 -->
<g id="node2" class="node"><title>Node2</title>
<g id="a_node2"><a xlink:href="../../d5/d13/interfaceview_1_1gui_1_1_g_u_i_controller.html" target="_top" xlink:title="view.gui.GUIController">
<polygon fill="white" stroke="black" points="22,-213.5 22,-232.5 142,-232.5 142,-213.5 22,-213.5"/>
<text text-anchor="middle" x="82" y="-220.5" font-family="Helvetica,sans-Serif" font-size="10.00">view.gui.GUIController</text>
</a>
</g>
</g>
<!-- Node2&#45;&gt;Node1 -->
<g id="edge1" class="edge"><title>Node2&#45;&gt;Node1</title>
<path fill="none" stroke="midnightblue" d="M152.569,-226.271C195.074,-225.759 249.607,-220.497 294,-201 325.196,-187.299 353.088,-157.992 368.171,-140.041"/>
<polygon fill="midnightblue" stroke="midnightblue" points="152.301,-222.772 142.313,-226.306 152.325,-229.772 152.301,-222.772"/>
</g>
<!-- Node3 -->
<g id="node3" class="node"><title>Node3</title>
<polygon fill="white" stroke="#bfbfbf" points="22,-175.5 22,-194.5 142,-194.5 142,-175.5 22,-175.5"/>
<text text-anchor="middle" x="82" y="-182.5" font-family="Helvetica,sans-Serif" font-size="10.00">ComboBox&lt; String &gt;</text>
</g>
<!-- Node3&#45;&gt;Node1 -->
<g id="edge2" class="edge"><title>Node3&#45;&gt;Node1</title>
<path fill="none" stroke="#9a32cd" stroke-dasharray="5,2" d="M152.254,-178.586C193.746,-173.896 247.333,-166.343 294,-155 309.98,-151.116 327.17,-145.436 341.949,-140.061"/>
<polygon fill="#9a32cd" stroke="#9a32cd" points="151.804,-175.114 142.247,-179.688 152.57,-182.072 151.804,-175.114"/>
<text text-anchor="middle" x="238" y="-189" font-family="Helvetica,sans-Serif" font-size="10.00"> campaignDropDown</text>
<text text-anchor="middle" x="238" y="-178" font-family="Helvetica,sans-Serif" font-size="10.00">levelDropDown</text>
</g>
<!-- Node4 -->
<g id="node4" class="node"><title>Node4</title>
<polygon fill="white" stroke="#bfbfbf" points="57.5,-137.5 57.5,-156.5 106.5,-156.5 106.5,-137.5 57.5,-137.5"/>
<text text-anchor="middle" x="82" y="-144.5" font-family="Helvetica,sans-Serif" font-size="10.00">Button</text>
</g>
<!-- Node4&#45;&gt;Node1 -->
<g id="edge3" class="edge"><title>Node4&#45;&gt;Node1</title>
<path fill="none" stroke="#9a32cd" stroke-dasharray="5,2" d="M116.573,-144.513C163.886,-141.008 251.217,-134.54 312.31,-130.014"/>
<polygon fill="#9a32cd" stroke="#9a32cd" points="116.267,-141.026 106.553,-145.255 116.785,-148.007 116.267,-141.026"/>
<text text-anchor="middle" x="238" y="-143" font-family="Helvetica,sans-Serif" font-size="10.00"> submitButton</text>
</g>
<!-- Node5 -->
<g id="node5" class="node"><title>Node5</title>
<polygon fill="white" stroke="#bfbfbf" points="28.5,-88 28.5,-118 135.5,-118 135.5,-88 28.5,-88"/>
<text text-anchor="start" x="36.5" y="-106" font-family="Helvetica,sans-Serif" font-size="10.00">Map&lt; String, List&lt;</text>
<text text-anchor="middle" x="82" y="-95" font-family="Helvetica,sans-Serif" font-size="10.00"> String &gt; &gt;</text>
</g>
<!-- Node5&#45;&gt;Node1 -->
<g id="edge4" class="edge"><title>Node5&#45;&gt;Node1</title>
<path fill="none" stroke="#9a32cd" stroke-dasharray="5,2" d="M145.997,-106.742C187.953,-109.342 244.301,-113.04 294,-117 299.979,-117.476 306.189,-117.999 312.412,-118.542"/>
<polygon fill="#9a32cd" stroke="#9a32cd" points="146.12,-103.243 135.924,-106.122 145.69,-110.23 146.12,-103.243"/>
<text text-anchor="middle" x="238" y="-120" font-family="Helvetica,sans-Serif" font-size="10.00"> myCampaignLevelMap</text>
</g>
<!-- Node6 -->
<g id="node6" class="node"><title>Node6</title>
<polygon fill="white" stroke="#bfbfbf" points="0.5,-39 0.5,-69 163.5,-69 163.5,-39 0.5,-39"/>
<text text-anchor="start" x="8.5" y="-57" font-family="Helvetica,sans-Serif" font-size="10.00">Consumer&lt; model.state.Level</text>
<text text-anchor="middle" x="82" y="-46" font-family="Helvetica,sans-Serif" font-size="10.00">Identifier &gt;</text>
</g>
<!-- Node6&#45;&gt;Node1 -->
<g id="edge5" class="edge"><title>Node6&#45;&gt;Node1</title>
<path fill="none" stroke="#9a32cd" stroke-dasharray="5,2" d="M173.441,-68.6252C211.014,-75.4619 254.893,-84.4384 294,-95 309.419,-99.1642 326.057,-104.712 340.553,-109.904"/>
<polygon fill="#9a32cd" stroke="#9a32cd" points="173.988,-65.1676 163.527,-66.844 172.751,-72.0573 173.988,-65.1676"/>
<text text-anchor="middle" x="238" y="-98" font-family="Helvetica,sans-Serif" font-size="10.00"> mySubmitConsumer</text>
</g>
<!-- Node7 -->
<g id="node7" class="node"><title>Node7</title>
<polygon fill="white" stroke="#bfbfbf" points="46,-0.5 46,-19.5 118,-19.5 118,-0.5 46,-0.5"/>
<text text-anchor="middle" x="82" y="-7.5" font-family="Helvetica,sans-Serif" font-size="10.00">BorderPane</text>
</g>
<!-- Node7&#45;&gt;Node1 -->
<g id="edge6" class="edge"><title>Node7&#45;&gt;Node1</title>
<path fill="none" stroke="#9a32cd" stroke-dasharray="5,2" d="M128.329,-13.8124C172.432,-18.8931 240.437,-30.4291 294,-56 322.33,-69.5249 349.657,-94.0386 365.639,-109.911"/>
<polygon fill="#9a32cd" stroke="#9a32cd" points="128.522,-10.3128 118.202,-12.711 127.765,-17.2718 128.522,-10.3128"/>
<text text-anchor="middle" x="238" y="-59" font-family="Helvetica,sans-Serif" font-size="10.00"> root</text>
</g>
</g>
</svg>
