<?xml version="1.0" encoding="UTF-8" standalone="no"?>
<!DOCTYPE svg PUBLIC "-//W3C//DTD SVG 1.1//EN"
 "http://www.w3.org/Graphics/SVG/1.1/DTD/svg11.dtd">
<!-- Generated by graphviz version 2.36.0 (20140111.2315)
 -->
<!-- Title: engine.visuals.elementVisuals.widgets.attributeDisplays.AttributeDisplayer.registerAsComponent Pages: 1 -->
<svg width="1162pt" height="109pt"
 viewBox="0.00 0.00 1162.00 109.00" xmlns="http://www.w3.org/2000/svg" xmlns:xlink="http://www.w3.org/1999/xlink">
<g id="graph0" class="graph" transform="scale(1 1) rotate(0) translate(4 105)">
<title>engine.visuals.elementVisuals.widgets.attributeDisplays.AttributeDisplayer.registerAsComponent</title>
<polygon fill="white" stroke="none" points="-4,4 -4,-105 1158,-105 1158,4 -4,4"/>
<!-- Node1 -->
<g id="node1" class="node"><title>Node1</title>
<polygon fill="#bfbfbf" stroke="black" points="0.5,-35 0.5,-65 253.5,-65 253.5,-35 0.5,-35"/>
<text text-anchor="start" x="8.5" y="-53" font-family="Helvetica,sans-Serif" font-size="10.00">engine.visuals.elementVisuals.widgets.attribute</text>
<text text-anchor="middle" x="127" y="-42" font-family="Helvetica,sans-Serif" font-size="10.00">Displays.AttributeDisplayer.registerAsComponent</text>
</g>
<!-- Node2 -->
<g id="node2" class="node"><title>Node2</title>
<g id="a_node2"><a xlink:href="../../d1/d3d/classengine_1_1visuals_1_1element_visuals_1_1_visualizer.html#a7846bbc3b79583d9271292e7ea9659c9" target="_top" xlink:title="engine.visuals.elementVisuals.\lVisualizer.addWidget">
<polygon fill="white" stroke="black" points="290,-35 290,-65 454,-65 454,-35 290,-35"/>
<text text-anchor="start" x="298" y="-53" font-family="Helvetica,sans-Serif" font-size="10.00">engine.visuals.elementVisuals.</text>
<text text-anchor="middle" x="372" y="-42" font-family="Helvetica,sans-Serif" font-size="10.00">Visualizer.addWidget</text>
</a>
</g>
</g>
<!-- Node1&#45;&gt;Node2 -->
<g id="edge1" class="edge"><title>Node1&#45;&gt;Node2</title>
<path fill="none" stroke="midnightblue" d="M263.817,-50C272.686,-50 281.451,-50 289.921,-50"/>
<polygon fill="midnightblue" stroke="midnightblue" points="263.771,-46.5001 253.771,-50 263.771,-53.5001 263.771,-46.5001"/>
</g>
<!-- Node3 -->
<g id="node3" class="node"><title>Node3</title>
<g id="a_node3"><a xlink:href="../../df/df0/classengine_1_1element_factories_1_1_visualizer_factory.html#ab3af310fd8c0f30f4ab30125576112f9" target="_top" xlink:title="engine.elementFactories.\lVisualizerFactory.createVisualizer">
<polygon fill="white" stroke="black" points="490.5,-35 490.5,-65 665.5,-65 665.5,-35 490.5,-35"/>
<text text-anchor="start" x="498.5" y="-53" font-family="Helvetica,sans-Serif" font-size="10.00">engine.elementFactories.</text>
<text text-anchor="middle" x="578" y="-42" font-family="Helvetica,sans-Serif" font-size="10.00">VisualizerFactory.createVisualizer</text>
</a>
</g>
</g>
<!-- Node2&#45;&gt;Node3 -->
<g id="edge2" class="edge"><title>Node2&#45;&gt;Node3</title>
<path fill="none" stroke="midnightblue" d="M464.322,-50C472.987,-50 481.756,-50 490.376,-50"/>
<polygon fill="midnightblue" stroke="midnightblue" points="464.212,-46.5001 454.212,-50 464.212,-53.5001 464.212,-46.5001"/>
</g>
<!-- Node4 -->
<g id="node4" class="node"><title>Node4</title>
<g id="a_node4"><a xlink:href="../../dc/d91/classengine_1_1element_factories_1_1_game_element_factory.html#ae53ef87192fe373614a7215f0e3d938c" target="_top" xlink:title="engine.elementFactories.\lGameElementFactory.generateVisualizer">
<polygon fill="white" stroke="black" points="702.5,-35 702.5,-65 913.5,-65 913.5,-35 702.5,-35"/>
<text text-anchor="start" x="710.5" y="-53" font-family="Helvetica,sans-Serif" font-size="10.00">engine.elementFactories.</text>
<text text-anchor="middle" x="808" y="-42" font-family="Helvetica,sans-Serif" font-size="10.00">GameElementFactory.generateVisualizer</text>
</a>
</g>
</g>
<!-- Node3&#45;&gt;Node4 -->
<g id="edge3" class="edge"><title>Node3&#45;&gt;Node4</title>
<path fill="none" stroke="midnightblue" d="M675.709,-50C684.452,-50 693.334,-50 702.143,-50"/>
<polygon fill="midnightblue" stroke="midnightblue" points="675.522,-46.5001 665.522,-50 675.522,-53.5001 675.522,-46.5001"/>
</g>
<!-- Node5 -->
<g id="node5" class="node"><title>Node5</title>
<g id="a_node5"><a xlink:href="../../dc/d91/classengine_1_1element_factories_1_1_game_element_factory.html#a8671651ea7c0bcf7fb0de5b5552832fe" target="_top" xlink:title="engine.elementFactories.\lGameElementFactory.createDrawable\lGameElement">
<polygon fill="white" stroke="black" points="953.5,-59.5 953.5,-100.5 1150.5,-100.5 1150.5,-59.5 953.5,-59.5"/>
<text text-anchor="start" x="961.5" y="-88.5" font-family="Helvetica,sans-Serif" font-size="10.00">engine.elementFactories.</text>
<text text-anchor="start" x="961.5" y="-77.5" font-family="Helvetica,sans-Serif" font-size="10.00">GameElementFactory.createDrawable</text>
<text text-anchor="middle" x="1052" y="-66.5" font-family="Helvetica,sans-Serif" font-size="10.00">GameElement</text>
</a>
</g>
</g>
<!-- Node4&#45;&gt;Node5 -->
<g id="edge4" class="edge"><title>Node4&#45;&gt;Node5</title>
<path fill="none" stroke="midnightblue" d="M923.955,-64.2506C933.788,-65.4696 943.676,-66.6953 953.355,-67.8953"/>
<polygon fill="midnightblue" stroke="midnightblue" points="924.092,-60.7409 913.737,-62.984 923.231,-67.6877 924.092,-60.7409"/>
</g>
<!-- Node6 -->
<g id="node6" class="node"><title>Node6</title>
<g id="a_node6"><a xlink:href="../../dc/d91/classengine_1_1element_factories_1_1_game_element_factory.html#a4e478634c65c4ee64c2163fdacd09669" target="_top" xlink:title="engine.elementFactories.\lGameElementFactory.createSelectable\lGameElement">
<polygon fill="white" stroke="black" points="950.5,0.5 950.5,-40.5 1153.5,-40.5 1153.5,0.5 950.5,0.5"/>
<text text-anchor="start" x="958.5" y="-28.5" font-family="Helvetica,sans-Serif" font-size="10.00">engine.elementFactories.</text>
<text text-anchor="start" x="958.5" y="-17.5" font-family="Helvetica,sans-Serif" font-size="10.00">GameElementFactory.createSelectable</text>
<text text-anchor="middle" x="1052" y="-6.5" font-family="Helvetica,sans-Serif" font-size="10.00">GameElement</text>
</a>
</g>
</g>
<!-- Node4&#45;&gt;Node6 -->
<g id="edge5" class="edge"><title>Node4&#45;&gt;Node6</title>
<path fill="none" stroke="midnightblue" d="M923.732,-35.7771C932.61,-34.6765 941.533,-33.5703 950.31,-32.4822"/>
<polygon fill="midnightblue" stroke="midnightblue" points="923.231,-32.3123 913.737,-37.016 924.092,-39.2591 923.231,-32.3123"/>
</g>
</g>
</svg>
