<?xml version="1.0" encoding="UTF-8" standalone="no"?>
<!DOCTYPE svg PUBLIC "-//W3C//DTD SVG 1.1//EN"
 "http://www.w3.org/Graphics/SVG/1.1/DTD/svg11.dtd">
<!-- Generated by graphviz version 2.36.0 (20140111.2315)
 -->
<!-- Title: engine.visuals.elementVisuals.widgets.attributeDisplays.AttributeDisplayer.update Pages: 1 -->
<svg width="942pt" height="93pt"
 viewBox="0.00 0.00 942.00 93.00" xmlns="http://www.w3.org/2000/svg" xmlns:xlink="http://www.w3.org/1999/xlink">
<g id="graph0" class="graph" transform="scale(1 1) rotate(0) translate(4 89)">
<title>engine.visuals.elementVisuals.widgets.attributeDisplays.AttributeDisplayer.update</title>
<polygon fill="white" stroke="none" points="-4,4 -4,-89 938,-89 938,4 -4,4"/>
<!-- Node1 -->
<g id="node1" class="node"><title>Node1</title>
<polygon fill="#bfbfbf" stroke="black" points="0,-24 0,-54 244,-54 244,-24 0,-24"/>
<text text-anchor="start" x="8" y="-42" font-family="Helvetica,sans-Serif" font-size="10.00">engine.visuals.elementVisuals.widgets.attribute</text>
<text text-anchor="middle" x="122" y="-31" font-family="Helvetica,sans-Serif" font-size="10.00">Displays.AttributeDisplayer.update</text>
</g>
<!-- Node2 -->
<g id="node2" class="node"><title>Node2</title>
<g id="a_node2"><a xlink:href="../../d7/df4/classengine_1_1visuals_1_1element_visuals_1_1widgets_1_1attribute_displays_1_1_attribute_displayer.html#ae3cc4df1c0d8e469ada844edbee1977e" target="_top" xlink:title="engine.visuals.elementVisuals.widgets.attribute\lDisplays.AttributeDisplayer.toggleOpacity">
<polygon fill="white" stroke="black" points="280,-49 280,-79 524,-79 524,-49 280,-49"/>
<text text-anchor="start" x="288" y="-67" font-family="Helvetica,sans-Serif" font-size="10.00">engine.visuals.elementVisuals.widgets.attribute</text>
<text text-anchor="middle" x="402" y="-56" font-family="Helvetica,sans-Serif" font-size="10.00">Displays.AttributeDisplayer.toggleOpacity</text>
</a>
</g>
</g>
<!-- Node1&#45;&gt;Node2 -->
<g id="edge1" class="edge"><title>Node1&#45;&gt;Node2</title>
<path fill="none" stroke="midnightblue" d="M244.126,-49.8926C252.645,-50.6587 261.254,-51.4329 269.824,-52.2036"/>
<polygon fill="midnightblue" stroke="midnightblue" points="269.585,-55.6961 279.858,-53.1059 270.212,-48.7243 269.585,-55.6961"/>
</g>
<!-- Node5 -->
<g id="node5" class="node"><title>Node5</title>
<g id="a_node5"><a xlink:href="../../d7/df4/classengine_1_1visuals_1_1element_visuals_1_1widgets_1_1attribute_displays_1_1_attribute_displayer.html#a156ad45fae9baf33d3eb390111eb3319" target="_top" xlink:title="engine.visuals.elementVisuals.widgets.attribute\lDisplays.AttributeDisplayer.updateDisplay">
<polygon fill="white" stroke="black" points="280,-0 280,-30 524,-30 524,-0 280,-0"/>
<text text-anchor="start" x="288" y="-18" font-family="Helvetica,sans-Serif" font-size="10.00">engine.visuals.elementVisuals.widgets.attribute</text>
<text text-anchor="middle" x="402" y="-7" font-family="Helvetica,sans-Serif" font-size="10.00">Displays.AttributeDisplayer.updateDisplay</text>
</a>
</g>
</g>
<!-- Node1&#45;&gt;Node5 -->
<g id="edge4" class="edge"><title>Node1&#45;&gt;Node5</title>
<path fill="none" stroke="midnightblue" d="M244.126,-28.5431C252.645,-27.8077 261.254,-27.0644 269.824,-26.3245"/>
<polygon fill="midnightblue" stroke="midnightblue" points="270.196,-29.8055 279.858,-25.4583 269.594,-22.8315 270.196,-29.8055"/>
</g>
<!-- Node3 -->
<g id="node3" class="node"><title>Node3</title>
<g id="a_node3"><a xlink:href="../../da/dc5/classmodel_1_1state_1_1gameelement_1_1_attribute_container.html#a5f0e6026d1877c9e4f04fe389163970c" target="_top" xlink:title="model.state.gameelement.\lAttributeContainer.getNumerical\lAttribute">
<polygon fill="white" stroke="black" points="560,-43.5 560,-84.5 732,-84.5 732,-43.5 560,-43.5"/>
<text text-anchor="start" x="568" y="-72.5" font-family="Helvetica,sans-Serif" font-size="10.00">model.state.gameelement.</text>
<text text-anchor="start" x="568" y="-61.5" font-family="Helvetica,sans-Serif" font-size="10.00">AttributeContainer.getNumerical</text>
<text text-anchor="middle" x="646" y="-50.5" font-family="Helvetica,sans-Serif" font-size="10.00">Attribute</text>
</a>
</g>
</g>
<!-- Node2&#45;&gt;Node3 -->
<g id="edge2" class="edge"><title>Node2&#45;&gt;Node3</title>
<path fill="none" stroke="midnightblue" d="M524.354,-64C532.906,-64 541.456,-64 549.832,-64"/>
<polygon fill="midnightblue" stroke="midnightblue" points="549.952,-67.5001 559.952,-64 549.952,-60.5001 549.952,-67.5001"/>
</g>
<!-- Node4 -->
<g id="node4" class="node"><title>Node4</title>
<g id="a_node4"><a xlink:href="../../da/dc5/classmodel_1_1state_1_1gameelement_1_1_attribute_container.html#a59a08ce23cf989feca0a78b2642364d4" target="_top" xlink:title="model.state.gameelement.\lAttributeContainer.getAttribute">
<polygon fill="white" stroke="black" points="768.5,-49 768.5,-79 933.5,-79 933.5,-49 768.5,-49"/>
<text text-anchor="start" x="776.5" y="-67" font-family="Helvetica,sans-Serif" font-size="10.00">model.state.gameelement.</text>
<text text-anchor="middle" x="851" y="-56" font-family="Helvetica,sans-Serif" font-size="10.00">AttributeContainer.getAttribute</text>
</a>
</g>
</g>
<!-- Node3&#45;&gt;Node4 -->
<g id="edge3" class="edge"><title>Node3&#45;&gt;Node4</title>
<path fill="none" stroke="midnightblue" d="M732.208,-64C740.786,-64 749.524,-64 758.168,-64"/>
<polygon fill="midnightblue" stroke="midnightblue" points="758.256,-67.5001 768.256,-64 758.256,-60.5001 758.256,-67.5001"/>
</g>
</g>
</svg>
