<?xml version="1.0" encoding="UTF-8" standalone="no"?>
<!DOCTYPE svg PUBLIC "-//W3C//DTD SVG 1.1//EN"
 "http://www.w3.org/Graphics/SVG/1.1/DTD/svg11.dtd">
<!-- Generated by graphviz version 2.36.0 (20140111.2315)
 -->
<!-- Title: model.sprite.ColorMapGenerator.colorFromLong Pages: 1 -->
<svg width="444pt" height="38pt"
 viewBox="0.00 0.00 444.00 38.00" xmlns="http://www.w3.org/2000/svg" xmlns:xlink="http://www.w3.org/1999/xlink">
<g id="graph0" class="graph" transform="scale(1 1) rotate(0) translate(4 34)">
<title>model.sprite.ColorMapGenerator.colorFromLong</title>
<polygon fill="white" stroke="none" points="-4,4 -4,-34 440,-34 440,4 -4,4"/>
<!-- Node1 -->
<g id="node1" class="node"><title>Node1</title>
<polygon fill="#bfbfbf" stroke="black" points="0.5,-0 0.5,-30 199.5,-30 199.5,-0 0.5,-0"/>
<text text-anchor="start" x="8.5" y="-18" font-family="Helvetica,sans-Serif" font-size="10.00">model.sprite.ColorMapGenerator.color</text>
<text text-anchor="middle" x="100" y="-7" font-family="Helvetica,sans-Serif" font-size="10.00">FromLong</text>
</g>
<!-- Node2 -->
<g id="node2" class="node"><title>Node2</title>
<g id="a_node2"><a xlink:href="../../d2/ddc/classmodel_1_1sprite_1_1_color_map_generator.html#a43c9cf2615c98fe34b4c8270ffaf744f" target="_top" xlink:title="model.sprite.ColorMapGenerator.color\lString">
<polygon fill="white" stroke="black" points="236.5,-0 236.5,-30 435.5,-30 435.5,-0 236.5,-0"/>
<text text-anchor="start" x="244.5" y="-18" font-family="Helvetica,sans-Serif" font-size="10.00">model.sprite.ColorMapGenerator.color</text>
<text text-anchor="middle" x="336" y="-7" font-family="Helvetica,sans-Serif" font-size="10.00">String</text>
</a>
</g>
</g>
<!-- Node1&#45;&gt;Node2 -->
<g id="edge1" class="edge"><title>Node1&#45;&gt;Node2</title>
<path fill="none" stroke="midnightblue" d="M199.559,-15C208.267,-15 217.115,-15 225.903,-15"/>
<polygon fill="midnightblue" stroke="midnightblue" points="226.18,-18.5001 236.18,-15 226.18,-11.5001 226.18,-18.5001"/>
</g>
</g>
</svg>
