<?xml version="1.0" encoding="UTF-8" standalone="no"?>
<!DOCTYPE svg PUBLIC "-//W3C//DTD SVG 1.1//EN"
 "http://www.w3.org/Graphics/SVG/1.1/DTD/svg11.dtd">
<!-- Generated by graphviz version 2.36.0 (20140111.2315)
 -->
<!-- Title: model.sprite.ColorMapGenerator.colorString Pages: 1 -->
<!--zoomable 160 -->
<svg id="main" version="1.1" xmlns="http://www.w3.org/2000/svg" xmlns:xlink="http://www.w3.org/1999/xlink" xml:space="preserve" onload="init(evt)">
<style type="text/css"><![CDATA[
.edge:hover path { stroke: red; }
.edge:hover polygon { stroke: red; fill: red; }
]]></style>
<script type="text/javascript"><![CDATA[
var edges = document.getElementsByTagName('g');
if (edges && edges.length) {
  for (var i=0;i<edges.length;i++) {
    if (edges[i].id.substr(0,4)=='edge') {
      edges[i].setAttribute('class','edge');
    }
  }
}
]]></script>
        <defs>
                <circle id="rim" cx="0" cy="0" r="7"/>
                <circle id="rim2" cx="0" cy="0" r="3.5"/>
                <g id="zoomPlus">
                        <use xlink:href="#rim" fill="#404040">
                                <set attributeName="fill" to="#808080" begin="zoomplus.mouseover" end="zoomplus.mouseout"/>
                        </use>
                        <path d="M-4,0h8M0,-4v8" fill="none" stroke="white" stroke-width="1.5" pointer-events="none"/>
                </g>
                <g id="zoomMin">
                        <use xlink:href="#rim" fill="#404040">
                                <set attributeName="fill" to="#808080" begin="zoomminus.mouseover" end="zoomminus.mouseout"/>
                        </use>
                        <path d="M-4,0h8" fill="none" stroke="white" stroke-width="1.5" pointer-events="none"/>
                </g>
                <g id="dirArrow">
                        <path fill="none" stroke="white" stroke-width="1.5" d="M0,-3.0v7 M-2.5,-0.5L0,-3.0L2.5,-0.5"/>
                </g>
               <g id="resetDef">
                       <use xlink:href="#rim2" fill="#404040">
                               <set attributeName="fill" to="#808080" begin="reset.mouseover" end="reset.mouseout"/>
                       </use>
               </g>
        </defs>

<script type="text/javascript">
var viewWidth = 1578;
var viewHeight = 160;
var sectionId = 'dynsection-3';
</script>
<script xlink:href="../../svgpan.js"/>
<svg id="graph" class="graph">
<g id="viewport">
<title>model.sprite.ColorMapGenerator.colorString</title>
<polygon fill="white" stroke="none" points="-4,4 -4,-156 1574,-156 1574,4 -4,4"/>
<!-- Node1 -->
<g id="node1" class="node"><title>Node1</title>
<polygon fill="#bfbfbf" stroke="black" points="0.5,-73 0.5,-103 199.5,-103 199.5,-73 0.5,-73"/>
<text text-anchor="start" x="8.5" y="-91" font-family="Helvetica,sans-Serif" font-size="10.00">model.sprite.ColorMapGenerator.color</text>
<text text-anchor="middle" x="100" y="-80" font-family="Helvetica,sans-Serif" font-size="10.00">String</text>
</g>
<!-- Node2 -->
<g id="node2" class="node"><title>Node2</title>
<g id="a_node2"><a xlink:href="../../d2/ddc/classmodel_1_1sprite_1_1_color_map_generator.html#aaf99b936de9ed452a5ff8b3469f760f5" target="_top" xlink:title="model.sprite.ColorMapGenerator.color\lFromLong">
<polygon fill="white" stroke="black" points="236.5,-73 236.5,-103 435.5,-103 435.5,-73 236.5,-73"/>
<text text-anchor="start" x="244.5" y="-91" font-family="Helvetica,sans-Serif" font-size="10.00">model.sprite.ColorMapGenerator.color</text>
<text text-anchor="middle" x="336" y="-80" font-family="Helvetica,sans-Serif" font-size="10.00">FromLong</text>
</a>
</g>
</g>
<!-- Node1&#45;&gt;Node2 -->
<g id="edge1" class="edge"><title>Node1&#45;&gt;Node2</title>
<path fill="none" stroke="midnightblue" d="M209.834,-88C218.621,-88 227.469,-88 236.18,-88"/>
<polygon fill="midnightblue" stroke="midnightblue" points="209.559,-84.5001 199.559,-88 209.559,-91.5001 209.559,-84.5001"/>
</g>
<!-- Node3 -->
<g id="node3" class="node"><title>Node3</title>
<g id="a_node3"><a xlink:href="../../d1/d5c/classmodel_1_1sprite_1_1_sprite_image_container.html#a10904679268f292c7dbae2bbaab8f201" target="_top" xlink:title="model.sprite.SpriteImage\lContainer.getColorMask">
<polygon fill="white" stroke="black" points="513,-122 513,-152 651,-152 651,-122 513,-122"/>
<text text-anchor="start" x="521" y="-140" font-family="Helvetica,sans-Serif" font-size="10.00">model.sprite.SpriteImage</text>
<text text-anchor="middle" x="582" y="-129" font-family="Helvetica,sans-Serif" font-size="10.00">Container.getColorMask</text>
</a>
</g>
</g>
<!-- Node2&#45;&gt;Node3 -->
<g id="edge2" class="edge"><title>Node2&#45;&gt;Node3</title>
<path fill="none" stroke="midnightblue" d="M421.832,-105.036C451.622,-111.018 484.681,-117.657 512.917,-123.328"/>
<polygon fill="midnightblue" stroke="midnightblue" points="422.36,-101.572 411.866,-103.035 420.981,-108.435 422.36,-101.572"/>
</g>
<!-- Node4 -->
<g id="node4" class="node"><title>Node4</title>
<g id="a_node4"><a xlink:href="../../d9/d50/classengine_1_1visuals_1_1element_visuals_1_1animations_1_1_animator.html#afd11ffb328792a8baa9013eb5a20d7a4" target="_top" xlink:title="engine.visuals.elementVisuals.animations.\lAnimator.setColorMasking">
<polygon fill="white" stroke="black" points="472,-73 472,-103 692,-103 692,-73 472,-73"/>
<text text-anchor="start" x="480" y="-91" font-family="Helvetica,sans-Serif" font-size="10.00">engine.visuals.elementVisuals.animations.</text>
<text text-anchor="middle" x="582" y="-80" font-family="Helvetica,sans-Serif" font-size="10.00">Animator.setColorMasking</text>
</a>
</g>
</g>
<!-- Node2&#45;&gt;Node4 -->
<g id="edge3" class="edge"><title>Node2&#45;&gt;Node4</title>
<path fill="none" stroke="midnightblue" d="M445.647,-88C454.301,-88 463.046,-88 471.704,-88"/>
<polygon fill="midnightblue" stroke="midnightblue" points="445.541,-84.5001 435.541,-88 445.541,-91.5001 445.541,-84.5001"/>
</g>
<!-- Node6 -->
<g id="node6" class="node"><title>Node6</title>
<g id="a_node6"><a xlink:href="../../d2/de9/classengine_1_1visuals_1_1_mini_map.html#ab71afb73b6d6dad2354c8f92c38e56e7" target="_top" xlink:title="engine.visuals.MiniMap.set\lUnitColor">
<polygon fill="white" stroke="black" points="510,-24 510,-54 654,-54 654,-24 510,-24"/>
<text text-anchor="start" x="518" y="-42" font-family="Helvetica,sans-Serif" font-size="10.00">engine.visuals.MiniMap.set</text>
<text text-anchor="middle" x="582" y="-31" font-family="Helvetica,sans-Serif" font-size="10.00">UnitColor</text>
</a>
</g>
</g>
<!-- Node2&#45;&gt;Node6 -->
<g id="edge5" class="edge"><title>Node2&#45;&gt;Node6</title>
<path fill="none" stroke="midnightblue" d="M421.856,-70.9593C450.486,-65.2097 482.134,-58.8542 509.616,-53.3352"/>
<polygon fill="midnightblue" stroke="midnightblue" points="420.981,-67.5649 411.866,-72.9654 422.36,-74.4279 420.981,-67.5649"/>
</g>
<!-- Node5 -->
<g id="node5" class="node"><title>Node5</title>
<g id="a_node5"><a xlink:href="../../d9/d50/classengine_1_1visuals_1_1element_visuals_1_1animations_1_1_animator.html#a3a40c5c16960e8afd0cf952c1e4213a6" target="_top" xlink:title="engine.visuals.elementVisuals.animations.\lAnimator.Animator">
<polygon fill="white" stroke="black" points="728,-73 728,-103 948,-103 948,-73 728,-73"/>
<text text-anchor="start" x="736" y="-91" font-family="Helvetica,sans-Serif" font-size="10.00">engine.visuals.elementVisuals.animations.</text>
<text text-anchor="middle" x="838" y="-80" font-family="Helvetica,sans-Serif" font-size="10.00">Animator.Animator</text>
</a>
</g>
</g>
<!-- Node4&#45;&gt;Node5 -->
<g id="edge4" class="edge"><title>Node4&#45;&gt;Node5</title>
<path fill="none" stroke="midnightblue" d="M702.217,-88C710.783,-88 719.396,-88 727.899,-88"/>
<polygon fill="midnightblue" stroke="midnightblue" points="702.193,-84.5001 692.193,-88 702.193,-91.5001 702.193,-84.5001"/>
</g>
<!-- Node7 -->
<g id="node7" class="node"><title>Node7</title>
<g id="a_node7"><a xlink:href="../../d2/de9/classengine_1_1visuals_1_1_mini_map.html#aaf0c6d66cb481c4cb5507bf38acbd68b" target="_top" xlink:title="engine.visuals.MiniMap.move\lUnits">
<polygon fill="white" stroke="black" points="760,-24 760,-54 916,-54 916,-24 760,-24"/>
<text text-anchor="start" x="768" y="-42" font-family="Helvetica,sans-Serif" font-size="10.00">engine.visuals.MiniMap.move</text>
<text text-anchor="middle" x="838" y="-31" font-family="Helvetica,sans-Serif" font-size="10.00">Units</text>
</a>
</g>
</g>
<!-- Node6&#45;&gt;Node7 -->
<g id="edge6" class="edge"><title>Node6&#45;&gt;Node7</title>
<path fill="none" stroke="midnightblue" d="M664.288,-39C694.855,-39 729.498,-39 759.692,-39"/>
<polygon fill="midnightblue" stroke="midnightblue" points="664.091,-35.5001 654.091,-39 664.091,-42.5001 664.091,-35.5001"/>
</g>
<!-- Node8 -->
<g id="node8" class="node"><title>Node8</title>
<g id="a_node8"><a xlink:href="../../d2/de9/classengine_1_1visuals_1_1_mini_map.html#aa9c49ec7b002d6b193e07a42771b9a1d" target="_top" xlink:title="engine.visuals.MiniMap.update\lMiniMap">
<polygon fill="white" stroke="black" points="984.5,-24 984.5,-54 1147.5,-54 1147.5,-24 984.5,-24"/>
<text text-anchor="start" x="992.5" y="-42" font-family="Helvetica,sans-Serif" font-size="10.00">engine.visuals.MiniMap.update</text>
<text text-anchor="middle" x="1066" y="-31" font-family="Helvetica,sans-Serif" font-size="10.00">MiniMap</text>
</a>
</g>
</g>
<!-- Node7&#45;&gt;Node8 -->
<g id="edge7" class="edge"><title>Node7&#45;&gt;Node8</title>
<path fill="none" stroke="midnightblue" d="M926.323,-39C945.413,-39 965.536,-39 984.351,-39"/>
<polygon fill="midnightblue" stroke="midnightblue" points="926.144,-35.5001 916.144,-39 926.144,-42.5001 926.144,-35.5001"/>
</g>
<!-- Node9 -->
<g id="node9" class="node"><title>Node9</title>
<g id="a_node9"><a xlink:href="../../d3/d61/classengine_1_1visuals_1_1_visual_manager.html#a5bd2adc4f3bb17dd5ed51909689d8f91" target="_top" xlink:title="engine.visuals.VisualManager.update">
<polygon fill="white" stroke="black" points="1184,-29.5 1184,-48.5 1378,-48.5 1378,-29.5 1184,-29.5"/>
<text text-anchor="middle" x="1281" y="-36.5" font-family="Helvetica,sans-Serif" font-size="10.00">engine.visuals.VisualManager.update</text>
</a>
</g>
</g>
<!-- Node8&#45;&gt;Node9 -->
<g id="edge8" class="edge"><title>Node8&#45;&gt;Node9</title>
<path fill="none" stroke="midnightblue" d="M1157.66,-39C1166.36,-39 1175.21,-39 1183.96,-39"/>
<polygon fill="midnightblue" stroke="midnightblue" points="1157.53,-35.5001 1147.53,-39 1157.53,-42.5001 1157.53,-35.5001"/>
</g>
<!-- Node10 -->
<g id="node10" class="node"><title>Node10</title>
<g id="a_node10"><a xlink:href="../../d2/d87/classengine_1_1state_managing_1_1_game_loop.html#a6b4981af45d656d6bfffa3a6ad9b0b9d" target="_top" xlink:title="engine.stateManaging.Game\lLoop.updateEditor">
<polygon fill="white" stroke="black" points="1414.5,-49 1414.5,-79 1569.5,-79 1569.5,-49 1414.5,-49"/>
<text text-anchor="start" x="1422.5" y="-67" font-family="Helvetica,sans-Serif" font-size="10.00">engine.stateManaging.Game</text>
<text text-anchor="middle" x="1492" y="-56" font-family="Helvetica,sans-Serif" font-size="10.00">Loop.updateEditor</text>
</a>
</g>
</g>
<!-- Node9&#45;&gt;Node10 -->
<g id="edge9" class="edge"><title>Node9&#45;&gt;Node10</title>
<path fill="none" stroke="midnightblue" d="M1371.84,-49.7469C1386.01,-51.4413 1400.54,-53.1795 1414.37,-54.8337"/>
<polygon fill="midnightblue" stroke="midnightblue" points="1371.96,-46.2353 1361.61,-48.5227 1371.12,-53.1858 1371.96,-46.2353"/>
</g>
<!-- Node11 -->
<g id="node11" class="node"><title>Node11</title>
<g id="a_node11"><a xlink:href="../../d2/d87/classengine_1_1state_managing_1_1_game_loop.html#ab3cf1b000f90849c5389fbd90b147602" target="_top" xlink:title="engine.stateManaging.Game\lLoop.updateRunner">
<polygon fill="white" stroke="black" points="1414.5,-0 1414.5,-30 1569.5,-30 1569.5,-0 1414.5,-0"/>
<text text-anchor="start" x="1422.5" y="-18" font-family="Helvetica,sans-Serif" font-size="10.00">engine.stateManaging.Game</text>
<text text-anchor="middle" x="1492" y="-7" font-family="Helvetica,sans-Serif" font-size="10.00">Loop.updateRunner</text>
</a>
</g>
</g>
<!-- Node9&#45;&gt;Node11 -->
<g id="edge10" class="edge"><title>Node9&#45;&gt;Node11</title>
<path fill="none" stroke="midnightblue" d="M1374.91,-28.3309C1388.08,-26.8186 1401.5,-25.2779 1414.31,-23.8062"/>
<polygon fill="midnightblue" stroke="midnightblue" points="1374.44,-24.862 1364.9,-29.4801 1375.24,-31.8163 1374.44,-24.862"/>
</g>
</g>
</svg>
        <g id="navigator" transform="translate(0 0)" fill="#404254">
                <rect fill="#f2f5e9" fill-opacity="0.5" stroke="#606060" stroke-width=".5" x="0" y="0" width="60" height="60"/>
                <use id="zoomplus" xlink:href="#zoomPlus" x="17" y="9" onmousedown="handleZoom(evt,'in')"/>
                <use id="zoomminus" xlink:href="#zoomMin" x="42" y="9" onmousedown="handleZoom(evt,'out')"/>
                <use id="reset" xlink:href="#resetDef" x="30" y="36" onmousedown="handleReset()"/>
                <g id="arrowUp" xlink:href="#dirArrow" transform="translate(30 24)" onmousedown="handlePan(0,-1)">
                  <use xlink:href="#rim" fill="#404040">
                        <set attributeName="fill" to="#808080" begin="arrowUp.mouseover" end="arrowUp.mouseout"/>
                  </use>
                  <path fill="none" stroke="white" stroke-width="1.5" d="M0,-3.0v7 M-2.5,-0.5L0,-3.0L2.5,-0.5"/>
                </g>
                <g id="arrowRight" xlink:href="#dirArrow" transform="rotate(90) translate(36 -43)" onmousedown="handlePan(1,0)">
                  <use xlink:href="#rim" fill="#404040">
                        <set attributeName="fill" to="#808080" begin="arrowRight.mouseover" end="arrowRight.mouseout"/>
                  </use>
                  <path fill="none" stroke="white" stroke-width="1.5" d="M0,-3.0v7 M-2.5,-0.5L0,-3.0L2.5,-0.5"/>
                </g>
                <g id="arrowDown" xlink:href="#dirArrow" transform="rotate(180) translate(-30 -48)" onmousedown="handlePan(0,1)">
                  <use xlink:href="#rim" fill="#404040">
                        <set attributeName="fill" to="#808080" begin="arrowDown.mouseover" end="arrowDown.mouseout"/>
                  </use>
                  <path fill="none" stroke="white" stroke-width="1.5" d="M0,-3.0v7 M-2.5,-0.5L0,-3.0L2.5,-0.5"/>
                </g>
                <g id="arrowLeft" xlink:href="#dirArrow" transform="rotate(270) translate(-36 17)" onmousedown="handlePan(-1,0)">
                  <use xlink:href="#rim" fill="#404040">
                        <set attributeName="fill" to="#808080" begin="arrowLeft.mouseover" end="arrowLeft.mouseout"/>
                  </use>
                  <path fill="none" stroke="white" stroke-width="1.5" d="M0,-3.0v7 M-2.5,-0.5L0,-3.0L2.5,-0.5"/>
                </g>
        </g>
        <svg viewBox="0 0 15 15" width="100%" height="30px" preserveAspectRatio="xMaxYMin meet">
         <g id="arrow_out" transform="scale(0.3 0.3)">
          <a xlink:href="classmodel_1_1sprite_1_1_color_map_generator_a43c9cf2615c98fe34b4c8270ffaf744f_icgraph_org.svg" target="_base">
           <rect id="button" ry="5" rx="5" y="6" x="6" height="38" width="38"
                fill="#f2f5e9" fill-opacity="0.5" stroke="#606060" stroke-width="1.0"/>
           <path id="arrow"
             d="M 11.500037,31.436501 C 11.940474,20.09759 22.043105,11.32322 32.158766,21.979434 L 37.068811,17.246167 C 37.068811,17.246167 37.088388,32 37.088388,32 L 22.160133,31.978069 C 22.160133,31.978069 26.997745,27.140456 26.997745,27.140456 C 18.528582,18.264221 13.291696,25.230495 11.500037,31.436501 z"
             style="fill:#404040;"/>
          </a>
         </g>
        </svg>
</svg>
