<?xml version="1.0" encoding="UTF-8" standalone="no"?>
<!DOCTYPE svg PUBLIC "-//W3C//DTD SVG 1.1//EN"
 "http://www.w3.org/Graphics/SVG/1.1/DTD/svg11.dtd">
<!-- Generated by graphviz version 2.36.0 (20140111.2315)
 -->
<!-- Title: model.sprite.ColorMapGenerator.populateColorMaskMap Pages: 1 -->
<svg width="654pt" height="38pt"
 viewBox="0.00 0.00 654.00 38.00" xmlns="http://www.w3.org/2000/svg" xmlns:xlink="http://www.w3.org/1999/xlink">
<g id="graph0" class="graph" transform="scale(1 1) rotate(0) translate(4 34)">
<title>model.sprite.ColorMapGenerator.populateColorMaskMap</title>
<polygon fill="white" stroke="none" points="-4,4 -4,-34 650,-34 650,4 -4,4"/>
<!-- Node1 -->
<g id="node1" class="node"><title>Node1</title>
<polygon fill="#bfbfbf" stroke="black" points="0,-0 0,-30 218,-30 218,-0 0,-0"/>
<text text-anchor="start" x="8" y="-18" font-family="Helvetica,sans-Serif" font-size="10.00">model.sprite.ColorMapGenerator.populate</text>
<text text-anchor="middle" x="109" y="-7" font-family="Helvetica,sans-Serif" font-size="10.00">ColorMaskMap</text>
</g>
<!-- Node2 -->
<g id="node2" class="node"><title>Node2</title>
<g id="a_node2"><a xlink:href="../../de/d01/classmodel_1_1sprite_1_1_sprite_image_generator.html#a6ee40edaf9ebe2dacf23997966e79b62" target="_top" xlink:title="model.sprite.SpriteImage\lGenerator.populateColorMaskMap">
<polygon fill="white" stroke="black" points="254.5,-0 254.5,-30 433.5,-30 433.5,-0 254.5,-0"/>
<text text-anchor="start" x="262.5" y="-18" font-family="Helvetica,sans-Serif" font-size="10.00">model.sprite.SpriteImage</text>
<text text-anchor="middle" x="344" y="-7" font-family="Helvetica,sans-Serif" font-size="10.00">Generator.populateColorMaskMap</text>
</a>
</g>
</g>
<!-- Node1&#45;&gt;Node2 -->
<g id="edge1" class="edge"><title>Node1&#45;&gt;Node2</title>
<path fill="none" stroke="midnightblue" d="M228.458,-15C237.103,-15 245.734,-15 254.16,-15"/>
<polygon fill="midnightblue" stroke="midnightblue" points="228.315,-11.5001 218.315,-15 228.315,-18.5001 228.315,-11.5001"/>
</g>
<!-- Node3 -->
<g id="node3" class="node"><title>Node3</title>
<g id="a_node3"><a xlink:href="../../de/d01/classmodel_1_1sprite_1_1_sprite_image_generator.html#a886c77ae933649c2d57866a0cbe6c4f0" target="_top" xlink:title="model.sprite.SpriteImage\lGenerator.SpriteImageGenerator">
<polygon fill="white" stroke="black" points="470.5,-0 470.5,-30 645.5,-30 645.5,-0 470.5,-0"/>
<text text-anchor="start" x="478.5" y="-18" font-family="Helvetica,sans-Serif" font-size="10.00">model.sprite.SpriteImage</text>
<text text-anchor="middle" x="558" y="-7" font-family="Helvetica,sans-Serif" font-size="10.00">Generator.SpriteImageGenerator</text>
</a>
</g>
</g>
<!-- Node2&#45;&gt;Node3 -->
<g id="edge2" class="edge"><title>Node2&#45;&gt;Node3</title>
<path fill="none" stroke="midnightblue" d="M443.694,-15C452.603,-15 461.581,-15 470.375,-15"/>
<polygon fill="midnightblue" stroke="midnightblue" points="443.679,-11.5001 433.679,-15 443.679,-18.5001 443.679,-11.5001"/>
</g>
</g>
</svg>
