<?xml version="1.0" encoding="UTF-8" standalone="no"?>
<!DOCTYPE svg PUBLIC "-//W3C//DTD SVG 1.1//EN"
 "http://www.w3.org/Graphics/SVG/1.1/DTD/svg11.dtd">
<!-- Generated by graphviz version 2.36.0 (20140111.2315)
 -->
<!-- Title: engine.visuals.VisualManager.attachInputManager Pages: 1 -->
<svg width="1010pt" height="87pt"
 viewBox="0.00 0.00 1010.00 87.00" xmlns="http://www.w3.org/2000/svg" xmlns:xlink="http://www.w3.org/1999/xlink">
<g id="graph0" class="graph" transform="scale(1 1) rotate(0) translate(4 83)">
<title>engine.visuals.VisualManager.attachInputManager</title>
<polygon fill="white" stroke="none" points="-4,4 -4,-83 1006,-83 1006,4 -4,4"/>
<!-- Node1 -->
<g id="node1" class="node"><title>Node1</title>
<polygon fill="#bfbfbf" stroke="black" points="0.5,-24 0.5,-54 191.5,-54 191.5,-24 0.5,-24"/>
<text text-anchor="start" x="8.5" y="-42" font-family="Helvetica,sans-Serif" font-size="10.00">engine.visuals.VisualManager.attach</text>
<text text-anchor="middle" x="96" y="-31" font-family="Helvetica,sans-Serif" font-size="10.00">InputManager</text>
</g>
<!-- Node2 -->
<g id="node2" class="node"><title>Node2</title>
<g id="a_node2"><a xlink:href="../../dc/de2/classengine_1_1_engine.html#a59df1204b83c43cbc3c5dd5a19fa3127" target="_top" xlink:title="engine.Engine.initialize\lVisualManager">
<polygon fill="white" stroke="black" points="249.5,-47 249.5,-77 374.5,-77 374.5,-47 249.5,-47"/>
<text text-anchor="start" x="257.5" y="-65" font-family="Helvetica,sans-Serif" font-size="10.00">engine.Engine.initialize</text>
<text text-anchor="middle" x="312" y="-54" font-family="Helvetica,sans-Serif" font-size="10.00">VisualManager</text>
</a>
</g>
</g>
<!-- Node1&#45;&gt;Node2 -->
<g id="edge1" class="edge"><title>Node1&#45;&gt;Node2</title>
<path fill="none" stroke="midnightblue" d="M201.922,-50.2766C218.215,-52.0278 234.574,-53.786 249.484,-55.3885"/>
<polygon fill="midnightblue" stroke="midnightblue" points="202.115,-46.7773 191.798,-49.1886 201.367,-53.7372 202.115,-46.7773"/>
</g>
<!-- Node5 -->
<g id="node5" class="node"><title>Node5</title>
<g id="a_node5"><a xlink:href="../../dc/de2/classengine_1_1_engine.html#a8c5992eb0d36b8c389af374c6115b4f1" target="_top" xlink:title="engine.Engine.setInputManager">
<polygon fill="white" stroke="black" points="228,-7.5 228,-26.5 396,-26.5 396,-7.5 228,-7.5"/>
<text text-anchor="middle" x="312" y="-14.5" font-family="Helvetica,sans-Serif" font-size="10.00">engine.Engine.setInputManager</text>
</a>
</g>
</g>
<!-- Node1&#45;&gt;Node5 -->
<g id="edge4" class="edge"><title>Node1&#45;&gt;Node5</title>
<path fill="none" stroke="midnightblue" d="M201.927,-28.2131C210.574,-27.3242 219.238,-26.4334 227.695,-25.564"/>
<polygon fill="midnightblue" stroke="midnightblue" points="201.388,-24.75 191.798,-29.2544 202.104,-31.7133 201.388,-24.75"/>
</g>
<!-- Node3 -->
<g id="node3" class="node"><title>Node3</title>
<g id="a_node3"><a xlink:href="../../dc/de2/classengine_1_1_engine.html#af201d1d894a31f20aa1e05f674d4584b" target="_top" xlink:title="engine.Engine.instantiate\lManagers">
<polygon fill="white" stroke="black" points="442,-49 442,-79 580,-79 580,-49 442,-49"/>
<text text-anchor="start" x="450" y="-67" font-family="Helvetica,sans-Serif" font-size="10.00">engine.Engine.instantiate</text>
<text text-anchor="middle" x="511" y="-56" font-family="Helvetica,sans-Serif" font-size="10.00">Managers</text>
</a>
</g>
</g>
<!-- Node2&#45;&gt;Node3 -->
<g id="edge2" class="edge"><title>Node2&#45;&gt;Node3</title>
<path fill="none" stroke="midnightblue" d="M384.703,-62.728C403.319,-62.9169 423.318,-63.12 441.751,-63.3071"/>
<polygon fill="midnightblue" stroke="midnightblue" points="384.557,-59.2264 374.522,-62.6246 384.486,-66.226 384.557,-59.2264"/>
</g>
<!-- Node4 -->
<g id="node4" class="node"><title>Node4</title>
<g id="a_node4"><a xlink:href="../../dc/de2/classengine_1_1_engine.html#a707225a32896b370f131105ef1c644e2" target="_top" xlink:title="engine.Engine.Engine">
<polygon fill="white" stroke="black" points="651.5,-54.5 651.5,-73.5 770.5,-73.5 770.5,-54.5 651.5,-54.5"/>
<text text-anchor="middle" x="711" y="-61.5" font-family="Helvetica,sans-Serif" font-size="10.00">engine.Engine.Engine</text>
</a>
</g>
</g>
<!-- Node3&#45;&gt;Node4 -->
<g id="edge3" class="edge"><title>Node3&#45;&gt;Node4</title>
<path fill="none" stroke="midnightblue" d="M590.32,-64C610.644,-64 632.185,-64 651.307,-64"/>
<polygon fill="midnightblue" stroke="midnightblue" points="590.14,-60.5001 580.14,-64 590.14,-67.5001 590.14,-60.5001"/>
</g>
<!-- Node6 -->
<g id="node6" class="node"><title>Node6</title>
<g id="a_node6"><a xlink:href="../../d8/dd1/classview_1_1runner_1_1_game_runner_pane_controller.html#a056877358884449e42bff08934bde122" target="_top" xlink:title="view.runner.GameRunnerPane\lController.setInputManager">
<polygon fill="white" stroke="black" points="432,-0 432,-30 590,-30 590,-0 432,-0"/>
<text text-anchor="start" x="440" y="-18" font-family="Helvetica,sans-Serif" font-size="10.00">view.runner.GameRunnerPane</text>
<text text-anchor="middle" x="511" y="-7" font-family="Helvetica,sans-Serif" font-size="10.00">Controller.setInputManager</text>
</a>
</g>
</g>
<!-- Node5&#45;&gt;Node6 -->
<g id="edge5" class="edge"><title>Node5&#45;&gt;Node6</title>
<path fill="none" stroke="midnightblue" d="M406.517,-16.0506C414.96,-15.9649 423.451,-15.8787 431.742,-15.7945"/>
<polygon fill="midnightblue" stroke="midnightblue" points="406.224,-12.5533 396.26,-16.1547 406.295,-19.5529 406.224,-12.5533"/>
</g>
<!-- Node7 -->
<g id="node7" class="node"><title>Node7</title>
<g id="a_node7"><a xlink:href="../../d4/d65/classview_1_1editor_1_1_tab_view_controller.html#aa19ba9b7a9b0762bce74364ef219fabc" target="_top" xlink:title="view.editor.TabViewController.init\lToggle">
<polygon fill="white" stroke="black" points="626,-0 626,-30 796,-30 796,-0 626,-0"/>
<text text-anchor="start" x="634" y="-18" font-family="Helvetica,sans-Serif" font-size="10.00">view.editor.TabViewController.init</text>
<text text-anchor="middle" x="711" y="-7" font-family="Helvetica,sans-Serif" font-size="10.00">Toggle</text>
</a>
</g>
</g>
<!-- Node6&#45;&gt;Node7 -->
<g id="edge6" class="edge"><title>Node6&#45;&gt;Node7</title>
<path fill="none" stroke="midnightblue" d="M600.463,-15C608.887,-15 617.414,-15 625.797,-15"/>
<polygon fill="midnightblue" stroke="midnightblue" points="600.255,-11.5001 590.255,-15 600.255,-18.5001 600.255,-11.5001"/>
</g>
<!-- Node8 -->
<g id="node8" class="node"><title>Node8</title>
<g id="a_node8"><a xlink:href="../../d4/d65/classview_1_1editor_1_1_tab_view_controller.html#a82e1e1f1eb84d1c30bde3a246304473e" target="_top" xlink:title="view.editor.TabViewController.init">
<polygon fill="white" stroke="black" points="832,-5.5 832,-24.5 1002,-24.5 1002,-5.5 832,-5.5"/>
<text text-anchor="middle" x="917" y="-12.5" font-family="Helvetica,sans-Serif" font-size="10.00">view.editor.TabViewController.init</text>
</a>
</g>
</g>
<!-- Node7&#45;&gt;Node8 -->
<g id="edge7" class="edge"><title>Node7&#45;&gt;Node8</title>
<path fill="none" stroke="midnightblue" d="M806.402,-15C814.847,-15 823.361,-15 831.712,-15"/>
<polygon fill="midnightblue" stroke="midnightblue" points="806.152,-11.5001 796.152,-15 806.152,-18.5001 806.152,-11.5001"/>
</g>
</g>
</svg>
