<?xml version="1.0" encoding="UTF-8" standalone="no"?>
<!DOCTYPE svg PUBLIC "-//W3C//DTD SVG 1.1//EN"
 "http://www.w3.org/Graphics/SVG/1.1/DTD/svg11.dtd">
<!-- Generated by graphviz version 2.36.0 (20140111.2315)
 -->
<!-- Title: engine.visuals.VisualManager.attachInputManager Pages: 1 -->
<svg width="1010pt" height="82pt"
 viewBox="0.00 0.00 1010.00 82.00" xmlns="http://www.w3.org/2000/svg" xmlns:xlink="http://www.w3.org/1999/xlink">
<g id="graph0" class="graph" transform="scale(1 1) rotate(0) translate(4 78)">
<title>engine.visuals.VisualManager.attachInputManager</title>
<polygon fill="white" stroke="none" points="-4,4 -4,-78 1006,-78 1006,4 -4,4"/>
<!-- Node1 -->
<g id="node1" class="node"><title>Node1</title>
<polygon fill="#bfbfbf" stroke="black" points="0.5,-22 0.5,-52 191.5,-52 191.5,-22 0.5,-22"/>
<text text-anchor="start" x="8.5" y="-40" font-family="Helvetica,sans-Serif" font-size="10.00">engine.visuals.VisualManager.attach</text>
<text text-anchor="middle" x="96" y="-29" font-family="Helvetica,sans-Serif" font-size="10.00">InputManager</text>
</g>
<!-- Node2 -->
<g id="node2" class="node"><title>Node2</title>
<g id="a_node2"><a xlink:href="../../dc/de2/classengine_1_1_engine.html#a3c93d3ffede59b58f39d796d016effe4" target="_top" xlink:title="engine.Engine.instantiate\lManagers">
<polygon fill="white" stroke="black" points="243,-44 243,-74 381,-74 381,-44 243,-44"/>
<text text-anchor="start" x="251" y="-62" font-family="Helvetica,sans-Serif" font-size="10.00">engine.Engine.instantiate</text>
<text text-anchor="middle" x="312" y="-51" font-family="Helvetica,sans-Serif" font-size="10.00">Managers</text>
</a>
</g>
</g>
<!-- Node1&#45;&gt;Node2 -->
<g id="edge1" class="edge"><title>Node1&#45;&gt;Node2</title>
<path fill="none" stroke="midnightblue" d="M201.922,-47.7863C215.854,-49.2187 229.834,-50.6559 242.916,-52.0007"/>
<polygon fill="midnightblue" stroke="midnightblue" points="202.104,-44.2867 191.798,-46.7456 201.388,-51.25 202.104,-44.2867"/>
</g>
<!-- Node4 -->
<g id="node4" class="node"><title>Node4</title>
<g id="a_node4"><a xlink:href="../../dc/de2/classengine_1_1_engine.html#a8c5992eb0d36b8c389af374c6115b4f1" target="_top" xlink:title="engine.Engine.setInputManager">
<polygon fill="white" stroke="black" points="228,-5.5 228,-24.5 396,-24.5 396,-5.5 228,-5.5"/>
<text text-anchor="middle" x="312" y="-12.5" font-family="Helvetica,sans-Serif" font-size="10.00">engine.Engine.setInputManager</text>
</a>
</g>
</g>
<!-- Node1&#45;&gt;Node4 -->
<g id="edge3" class="edge"><title>Node1&#45;&gt;Node4</title>
<path fill="none" stroke="midnightblue" d="M201.927,-26.2131C210.574,-25.3242 219.238,-24.4334 227.695,-23.564"/>
<polygon fill="midnightblue" stroke="midnightblue" points="201.388,-22.75 191.798,-27.2544 202.104,-29.7133 201.388,-22.75"/>
</g>
<!-- Node3 -->
<g id="node3" class="node"><title>Node3</title>
<g id="a_node3"><a xlink:href="../../dc/de2/classengine_1_1_engine.html#a707225a32896b370f131105ef1c644e2" target="_top" xlink:title="engine.Engine.Engine">
<polygon fill="white" stroke="black" points="451.5,-49.5 451.5,-68.5 570.5,-68.5 570.5,-49.5 451.5,-49.5"/>
<text text-anchor="middle" x="511" y="-56.5" font-family="Helvetica,sans-Serif" font-size="10.00">engine.Engine.Engine</text>
</a>
</g>
</g>
<!-- Node2&#45;&gt;Node3 -->
<g id="edge2" class="edge"><title>Node2&#45;&gt;Node3</title>
<path fill="none" stroke="midnightblue" d="M391.141,-59C411.241,-59 432.524,-59 451.44,-59"/>
<polygon fill="midnightblue" stroke="midnightblue" points="391.072,-55.5001 381.072,-59 391.072,-62.5001 391.072,-55.5001"/>
</g>
<!-- Node5 -->
<g id="node5" class="node"><title>Node5</title>
<g id="a_node5"><a xlink:href="../../d8/dd1/classview_1_1runner_1_1_game_runner_pane_controller.html#a056877358884449e42bff08934bde122" target="_top" xlink:title="view.runner.GameRunnerPane\lController.setInputManager">
<polygon fill="white" stroke="black" points="432,-0 432,-30 590,-30 590,-0 432,-0"/>
<text text-anchor="start" x="440" y="-18" font-family="Helvetica,sans-Serif" font-size="10.00">view.runner.GameRunnerPane</text>
<text text-anchor="middle" x="511" y="-7" font-family="Helvetica,sans-Serif" font-size="10.00">Controller.setInputManager</text>
</a>
</g>
</g>
<!-- Node4&#45;&gt;Node5 -->
<g id="edge4" class="edge"><title>Node4&#45;&gt;Node5</title>
<path fill="none" stroke="midnightblue" d="M406.517,-15C414.96,-15 423.451,-15 431.742,-15"/>
<polygon fill="midnightblue" stroke="midnightblue" points="406.26,-11.5001 396.26,-15 406.26,-18.5001 406.26,-11.5001"/>
</g>
<!-- Node6 -->
<g id="node6" class="node"><title>Node6</title>
<g id="a_node6"><a xlink:href="../../d4/d65/classview_1_1editor_1_1_tab_view_controller.html#aa19ba9b7a9b0762bce74364ef219fabc" target="_top" xlink:title="view.editor.TabViewController.init\lToggle">
<polygon fill="white" stroke="black" points="626,-0 626,-30 796,-30 796,-0 626,-0"/>
<text text-anchor="start" x="634" y="-18" font-family="Helvetica,sans-Serif" font-size="10.00">view.editor.TabViewController.init</text>
<text text-anchor="middle" x="711" y="-7" font-family="Helvetica,sans-Serif" font-size="10.00">Toggle</text>
</a>
</g>
</g>
<!-- Node5&#45;&gt;Node6 -->
<g id="edge5" class="edge"><title>Node5&#45;&gt;Node6</title>
<path fill="none" stroke="midnightblue" d="M600.463,-15C608.887,-15 617.414,-15 625.797,-15"/>
<polygon fill="midnightblue" stroke="midnightblue" points="600.255,-11.5001 590.255,-15 600.255,-18.5001 600.255,-11.5001"/>
</g>
<!-- Node7 -->
<g id="node7" class="node"><title>Node7</title>
<g id="a_node7"><a xlink:href="../../d4/d65/classview_1_1editor_1_1_tab_view_controller.html#a82e1e1f1eb84d1c30bde3a246304473e" target="_top" xlink:title="view.editor.TabViewController.init">
<polygon fill="white" stroke="black" points="832,-5.5 832,-24.5 1002,-24.5 1002,-5.5 832,-5.5"/>
<text text-anchor="middle" x="917" y="-12.5" font-family="Helvetica,sans-Serif" font-size="10.00">view.editor.TabViewController.init</text>
</a>
</g>
</g>
<!-- Node6&#45;&gt;Node7 -->
<g id="edge6" class="edge"><title>Node6&#45;&gt;Node7</title>
<path fill="none" stroke="midnightblue" d="M806.402,-15C814.847,-15 823.361,-15 831.712,-15"/>
<polygon fill="midnightblue" stroke="midnightblue" points="806.152,-11.5001 796.152,-15 806.152,-18.5001 806.152,-11.5001"/>
</g>
</g>
</svg>
