<?xml version="1.0" encoding="UTF-8" standalone="no"?>
<!DOCTYPE svg PUBLIC "-//W3C//DTD SVG 1.1//EN"
 "http://www.w3.org/Graphics/SVG/1.1/DTD/svg11.dtd">
<!-- Generated by graphviz version 2.36.0 (20140111.2315)
 -->
<!-- Title: engine.visuals.VisualManager.attachParticipantManager Pages: 1 -->
<svg width="370pt" height="38pt"
 viewBox="0.00 0.00 370.00 38.00" xmlns="http://www.w3.org/2000/svg" xmlns:xlink="http://www.w3.org/1999/xlink">
<g id="graph0" class="graph" transform="scale(1 1) rotate(0) translate(4 34)">
<title>engine.visuals.VisualManager.attachParticipantManager</title>
<polygon fill="white" stroke="none" points="-4,4 -4,-34 366,-34 366,4 -4,4"/>
<!-- Node1 -->
<g id="node1" class="node"><title>Node1</title>
<polygon fill="#bfbfbf" stroke="black" points="0.5,-0 0.5,-30 191.5,-30 191.5,-0 0.5,-0"/>
<text text-anchor="start" x="8.5" y="-18" font-family="Helvetica,sans-Serif" font-size="10.00">engine.visuals.VisualManager.attach</text>
<text text-anchor="middle" x="96" y="-7" font-family="Helvetica,sans-Serif" font-size="10.00">ParticipantManager</text>
</g>
<!-- Node2 -->
<g id="node2" class="node"><title>Node2</title>
<g id="a_node2"><a xlink:href="../../de/d79/classengine_1_1visuals_1_1_scrollable_pane.html#a57a571960cb6334b284c20c5ac9d7380" target="_top" xlink:title="engine.visuals.Scrollable\lPane.addToScene">
<polygon fill="white" stroke="black" points="228,-0 228,-30 362,-30 362,-0 228,-0"/>
<text text-anchor="start" x="236" y="-18" font-family="Helvetica,sans-Serif" font-size="10.00">engine.visuals.Scrollable</text>
<text text-anchor="middle" x="295" y="-7" font-family="Helvetica,sans-Serif" font-size="10.00">Pane.addToScene</text>
</a>
</g>
</g>
<!-- Node1&#45;&gt;Node2 -->
<g id="edge1" class="edge"><title>Node1&#45;&gt;Node2</title>
<path fill="none" stroke="midnightblue" d="M191.749,-15C200.439,-15 209.167,-15 217.664,-15"/>
<polygon fill="midnightblue" stroke="midnightblue" points="217.895,-18.5001 227.895,-15 217.894,-11.5001 217.895,-18.5001"/>
</g>
</g>
</svg>
