<?xml version="1.0" encoding="UTF-8" standalone="no"?>
<!DOCTYPE svg PUBLIC "-//W3C//DTD SVG 1.1//EN"
 "http://www.w3.org/Graphics/SVG/1.1/DTD/svg11.dtd">
<!-- Generated by graphviz version 2.36.0 (20140111.2315)
 -->
<!-- Title: game_engine.gameRepresentation.stateRepresentation.LevelState Pages: 1 -->
<svg width="218pt" height="164pt"
 viewBox="0.00 0.00 218.00 164.00" xmlns="http://www.w3.org/2000/svg" xmlns:xlink="http://www.w3.org/1999/xlink">
<g id="graph0" class="graph" transform="scale(1 1) rotate(0) translate(4 160)">
<title>game_engine.gameRepresentation.stateRepresentation.LevelState</title>
<polygon fill="white" stroke="none" points="-4,4 -4,-160 214,-160 214,4 -4,4"/>
<!-- Node1 -->
<g id="node1" class="node"><title>Node1</title>
<polygon fill="#bfbfbf" stroke="black" points="-1,-1 -1,-31 211,-31 211,-1 -1,-1"/>
<text text-anchor="start" x="7" y="-19" font-family="Helvetica,sans-Serif" font-size="10.00">game_engine.gameRepresentation.state</text>
<text text-anchor="middle" x="105" y="-8" font-family="Helvetica,sans-Serif" font-size="10.00">Representation.LevelState</text>
</g>
<!-- Node2 -->
<g id="node2" class="node"><title>Node2</title>
<g id="a_node2"><a xlink:href="../../da/d2f/classgame__engine_1_1game_representation_1_1state_representation_1_1_describable_state.html" target="_top" xlink:title="game_engine.gameRepresentation.state\lRepresentation.DescribableState">
<polygon fill="white" stroke="black" points="-1,-69 -1,-99 211,-99 211,-69 -1,-69"/>
<text text-anchor="start" x="7" y="-87" font-family="Helvetica,sans-Serif" font-size="10.00">game_engine.gameRepresentation.state</text>
<text text-anchor="middle" x="105" y="-76" font-family="Helvetica,sans-Serif" font-size="10.00">Representation.DescribableState</text>
</a>
</g>
</g>
<!-- Node2&#45;&gt;Node1 -->
<g id="edge1" class="edge"><title>Node2&#45;&gt;Node1</title>
<path fill="none" stroke="midnightblue" d="M105,-58.5322C105,-49.3606 105,-39.2449 105,-31.2931"/>
<polygon fill="midnightblue" stroke="midnightblue" points="101.5,-58.6789 105,-68.679 108.5,-58.679 101.5,-58.6789"/>
</g>
<!-- Node3 -->
<g id="node3" class="node"><title>Node3</title>
<g id="a_node3"><a xlink:href="../../df/d74/interfaceutil_1_1_j_s_o_nable.html" target="_top" xlink:title="util.JSONable">
<polygon fill="white" stroke="black" points="66,-136.5 66,-155.5 144,-155.5 144,-136.5 66,-136.5"/>
<text text-anchor="middle" x="105" y="-143.5" font-family="Helvetica,sans-Serif" font-size="10.00">util.JSONable</text>
</a>
</g>
</g>
<!-- Node3&#45;&gt;Node2 -->
<g id="edge2" class="edge"><title>Node3&#45;&gt;Node2</title>
<path fill="none" stroke="midnightblue" d="M105,-126.371C105,-117.585 105,-107.272 105,-99.1408"/>
<polygon fill="midnightblue" stroke="midnightblue" points="101.5,-126.403 105,-136.403 108.5,-126.403 101.5,-126.403"/>
</g>
</g>
</svg>
