<?xml version="1.0" encoding="UTF-8" standalone="no"?>
<!DOCTYPE svg PUBLIC "-//W3C//DTD SVG 1.1//EN"
 "http://www.w3.org/Graphics/SVG/1.1/DTD/svg11.dtd">
<!-- Generated by graphviz version 2.36.0 (20140111.2315)
 -->
<!-- Title: engine.gameRepresentation.evaluatables.evaluators.Bounce.evaluate Pages: 1 -->
<svg width="1262pt" height="137pt"
 viewBox="0.00 0.00 1262.00 137.00" xmlns="http://www.w3.org/2000/svg" xmlns:xlink="http://www.w3.org/1999/xlink">
<g id="graph0" class="graph" transform="scale(1 1) rotate(0) translate(4 133)">
<title>engine.gameRepresentation.evaluatables.evaluators.Bounce.evaluate</title>
<polygon fill="white" stroke="none" points="-4,4 -4,-133 1258,-133 1258,4 -4,4"/>
<!-- Node1 -->
<g id="node1" class="node"><title>Node1</title>
<polygon fill="#bfbfbf" stroke="black" points="0,-55 0,-85 272,-85 272,-55 0,-55"/>
<text text-anchor="start" x="8" y="-73" font-family="Helvetica,sans-Serif" font-size="10.00">engine.gameRepresentation.evaluatables.evaluators.</text>
<text text-anchor="middle" x="136" y="-62" font-family="Helvetica,sans-Serif" font-size="10.00">Bounce.evaluate</text>
</g>
<!-- Node2 -->
<g id="node2" class="node"><title>Node2</title>
<g id="a_node2"><a xlink:href="../../d7/db1/classengine_1_1game_representation_1_1evaluatables_1_1evaluators_1_1_bounce.html#aebb1d86f1f04e5370f255b34ef8769b8" target="_top" xlink:title="engine.gameRepresentation.evaluatables.evaluators.\lBounce.getCenter">
<polygon fill="white" stroke="black" points="308,-99 308,-129 580,-129 580,-99 308,-99"/>
<text text-anchor="start" x="316" y="-117" font-family="Helvetica,sans-Serif" font-size="10.00">engine.gameRepresentation.evaluatables.evaluators.</text>
<text text-anchor="middle" x="444" y="-106" font-family="Helvetica,sans-Serif" font-size="10.00">Bounce.getCenter</text>
</a>
</g>
</g>
<!-- Node1&#45;&gt;Node2 -->
<g id="edge1" class="edge"><title>Node1&#45;&gt;Node2</title>
<path fill="none" stroke="midnightblue" d="M241.452,-85.0192C269.485,-89.0501 299.943,-93.4297 328.489,-97.5344"/>
<polygon fill="midnightblue" stroke="midnightblue" points="328.103,-101.015 338.5,-98.9738 329.1,-94.0861 328.103,-101.015"/>
</g>
<!-- Node3 -->
<g id="node3" class="node"><title>Node3</title>
<g id="a_node3"><a xlink:href="../../d4/de2/classengine_1_1game_representation_1_1rendered_representation_1_1_game_element.html#a0e5df2ee82fed90f049282832babf477" target="_top" xlink:title="engine.gameRepresentation.rendered\lRepresentation.GameElement.getNumerical\lAttribute">
<polygon fill="white" stroke="black" points="616,-76.5 616,-117.5 844,-117.5 844,-76.5 616,-76.5"/>
<text text-anchor="start" x="624" y="-105.5" font-family="Helvetica,sans-Serif" font-size="10.00">engine.gameRepresentation.rendered</text>
<text text-anchor="start" x="624" y="-94.5" font-family="Helvetica,sans-Serif" font-size="10.00">Representation.GameElement.getNumerical</text>
<text text-anchor="middle" x="730" y="-83.5" font-family="Helvetica,sans-Serif" font-size="10.00">Attribute</text>
</a>
</g>
</g>
<!-- Node1&#45;&gt;Node3 -->
<g id="edge5" class="edge"><title>Node1&#45;&gt;Node3</title>
<path fill="none" stroke="midnightblue" d="M272.232,-76.0411C359.965,-79.9761 476.753,-85.2441 580,-90 588.367,-90.3854 596.998,-90.7852 605.693,-91.1895"/>
<polygon fill="midnightblue" stroke="midnightblue" points="605.766,-94.6966 615.918,-91.6657 606.092,-87.7042 605.766,-94.6966"/>
</g>
<!-- Node6 -->
<g id="node6" class="node"><title>Node6</title>
<g id="a_node6"><a xlink:href="../../d4/de2/classengine_1_1game_representation_1_1rendered_representation_1_1_game_element.html#a5a426090456bba2adf4993b5b3fb0ffd" target="_top" xlink:title="engine.gameRepresentation.rendered\lRepresentation.GameElement.setNumerical\lAttribute">
<polygon fill="white" stroke="black" points="330.5,-0.5 330.5,-41.5 557.5,-41.5 557.5,-0.5 330.5,-0.5"/>
<text text-anchor="start" x="338.5" y="-29.5" font-family="Helvetica,sans-Serif" font-size="10.00">engine.gameRepresentation.rendered</text>
<text text-anchor="start" x="338.5" y="-18.5" font-family="Helvetica,sans-Serif" font-size="10.00">Representation.GameElement.setNumerical</text>
<text text-anchor="middle" x="444" y="-7.5" font-family="Helvetica,sans-Serif" font-size="10.00">Attribute</text>
</a>
</g>
</g>
<!-- Node1&#45;&gt;Node6 -->
<g id="edge6" class="edge"><title>Node1&#45;&gt;Node6</title>
<path fill="none" stroke="midnightblue" d="M230.89,-54.9654C259.143,-50.4411 290.575,-45.408 320.4,-40.632"/>
<polygon fill="midnightblue" stroke="midnightblue" points="321.125,-44.0605 330.446,-39.0233 320.019,-37.1486 321.125,-44.0605"/>
</g>
<!-- Node2&#45;&gt;Node3 -->
<g id="edge2" class="edge"><title>Node2&#45;&gt;Node3</title>
<path fill="none" stroke="midnightblue" d="M580.346,-105.898C588.776,-105.394 597.238,-104.887 605.611,-104.386"/>
<polygon fill="midnightblue" stroke="midnightblue" points="606.001,-107.869 615.774,-103.778 605.582,-100.881 606.001,-107.869"/>
</g>
<!-- Node4 -->
<g id="node4" class="node"><title>Node4</title>
<g id="a_node4"><a xlink:href="../../da/dc5/classmodel_1_1state_1_1gameelement_1_1_attribute_container.html#a5f0e6026d1877c9e4f04fe389163970c" target="_top" xlink:title="model.state.gameelement.\lAttributeContainer.getNumerical\lAttribute">
<polygon fill="white" stroke="black" points="880,-76.5 880,-117.5 1052,-117.5 1052,-76.5 880,-76.5"/>
<text text-anchor="start" x="888" y="-105.5" font-family="Helvetica,sans-Serif" font-size="10.00">model.state.gameelement.</text>
<text text-anchor="start" x="888" y="-94.5" font-family="Helvetica,sans-Serif" font-size="10.00">AttributeContainer.getNumerical</text>
<text text-anchor="middle" x="966" y="-83.5" font-family="Helvetica,sans-Serif" font-size="10.00">Attribute</text>
</a>
</g>
</g>
<!-- Node3&#45;&gt;Node4 -->
<g id="edge3" class="edge"><title>Node3&#45;&gt;Node4</title>
<path fill="none" stroke="midnightblue" d="M844.23,-97C852.773,-97 861.342,-97 869.756,-97"/>
<polygon fill="midnightblue" stroke="midnightblue" points="869.929,-100.5 879.929,-97 869.929,-93.5001 869.929,-100.5"/>
</g>
<!-- Node5 -->
<g id="node5" class="node"><title>Node5</title>
<g id="a_node5"><a xlink:href="../../da/dc5/classmodel_1_1state_1_1gameelement_1_1_attribute_container.html#a59a08ce23cf989feca0a78b2642364d4" target="_top" xlink:title="model.state.gameelement.\lAttributeContainer.getAttribute">
<polygon fill="white" stroke="black" points="1088.5,-82 1088.5,-112 1253.5,-112 1253.5,-82 1088.5,-82"/>
<text text-anchor="start" x="1096.5" y="-100" font-family="Helvetica,sans-Serif" font-size="10.00">model.state.gameelement.</text>
<text text-anchor="middle" x="1171" y="-89" font-family="Helvetica,sans-Serif" font-size="10.00">AttributeContainer.getAttribute</text>
</a>
</g>
</g>
<!-- Node4&#45;&gt;Node5 -->
<g id="edge4" class="edge"><title>Node4&#45;&gt;Node5</title>
<path fill="none" stroke="midnightblue" d="M1052.21,-97C1060.79,-97 1069.52,-97 1078.17,-97"/>
<polygon fill="midnightblue" stroke="midnightblue" points="1078.26,-100.5 1088.26,-97 1078.26,-93.5001 1078.26,-100.5"/>
</g>
<!-- Node7 -->
<g id="node7" class="node"><title>Node7</title>
<g id="a_node7"><a xlink:href="../../da/dc5/classmodel_1_1state_1_1gameelement_1_1_attribute_container.html#a168d6e922a93b11894753a0598c02cf7" target="_top" xlink:title="model.state.gameelement.\lAttributeContainer.setNumerical\lAttribute">
<polygon fill="white" stroke="black" points="644.5,-0.5 644.5,-41.5 815.5,-41.5 815.5,-0.5 644.5,-0.5"/>
<text text-anchor="start" x="652.5" y="-29.5" font-family="Helvetica,sans-Serif" font-size="10.00">model.state.gameelement.</text>
<text text-anchor="start" x="652.5" y="-18.5" font-family="Helvetica,sans-Serif" font-size="10.00">AttributeContainer.setNumerical</text>
<text text-anchor="middle" x="730" y="-7.5" font-family="Helvetica,sans-Serif" font-size="10.00">Attribute</text>
</a>
</g>
</g>
<!-- Node6&#45;&gt;Node7 -->
<g id="edge7" class="edge"><title>Node6&#45;&gt;Node7</title>
<path fill="none" stroke="midnightblue" d="M557.652,-21C582.969,-21 609.587,-21 634.095,-21"/>
<polygon fill="midnightblue" stroke="midnightblue" points="634.096,-24.5001 644.096,-21 634.096,-17.5001 634.096,-24.5001"/>
</g>
<!-- Node8 -->
<g id="node8" class="node"><title>Node8</title>
<g id="a_node8"><a xlink:href="../../da/dc5/classmodel_1_1state_1_1gameelement_1_1_attribute_container.html#a03dd9ed123fc97bfc8bce5528b488333" target="_top" xlink:title="model.state.gameelement.\lAttributeContainer.addAttribute">
<polygon fill="white" stroke="black" points="882.5,-6 882.5,-36 1049.5,-36 1049.5,-6 882.5,-6"/>
<text text-anchor="start" x="890.5" y="-24" font-family="Helvetica,sans-Serif" font-size="10.00">model.state.gameelement.</text>
<text text-anchor="middle" x="966" y="-13" font-family="Helvetica,sans-Serif" font-size="10.00">AttributeContainer.addAttribute</text>
</a>
</g>
</g>
<!-- Node7&#45;&gt;Node8 -->
<g id="edge8" class="edge"><title>Node7&#45;&gt;Node8</title>
<path fill="none" stroke="midnightblue" d="M815.81,-21C834.13,-21 853.591,-21 872.198,-21"/>
<polygon fill="midnightblue" stroke="midnightblue" points="872.435,-24.5001 882.435,-21 872.435,-17.5001 872.435,-24.5001"/>
</g>
</g>
</svg>
