<?xml version="1.0" encoding="UTF-8" standalone="no"?>
<!DOCTYPE svg PUBLIC "-//W3C//DTD SVG 1.1//EN"
 "http://www.w3.org/Graphics/SVG/1.1/DTD/svg11.dtd">
<!-- Generated by graphviz version 2.36.0 (20140111.2315)
 -->
<!-- Title: engine.gameRepresentation.evaluatables.actions.CheckAttributeCreateObjectAction.evaluate Pages: 1 -->
<!--zoomable 224 -->
<svg id="main" version="1.1" xmlns="http://www.w3.org/2000/svg" xmlns:xlink="http://www.w3.org/1999/xlink" xml:space="preserve" onload="init(evt)">
<style type="text/css"><![CDATA[
.edge:hover path { stroke: red; }
.edge:hover polygon { stroke: red; fill: red; }
]]></style>
<script type="text/javascript"><![CDATA[
var edges = document.getElementsByTagName('g');
if (edges && edges.length) {
  for (var i=0;i<edges.length;i++) {
    if (edges[i].id.substr(0,4)=='edge') {
      edges[i].setAttribute('class','edge');
    }
  }
}
]]></script>
        <defs>
                <circle id="rim" cx="0" cy="0" r="7"/>
                <circle id="rim2" cx="0" cy="0" r="3.5"/>
                <g id="zoomPlus">
                        <use xlink:href="#rim" fill="#404040">
                                <set attributeName="fill" to="#808080" begin="zoomplus.mouseover" end="zoomplus.mouseout"/>
                        </use>
                        <path d="M-4,0h8M0,-4v8" fill="none" stroke="white" stroke-width="1.5" pointer-events="none"/>
                </g>
                <g id="zoomMin">
                        <use xlink:href="#rim" fill="#404040">
                                <set attributeName="fill" to="#808080" begin="zoomminus.mouseover" end="zoomminus.mouseout"/>
                        </use>
                        <path d="M-4,0h8" fill="none" stroke="white" stroke-width="1.5" pointer-events="none"/>
                </g>
                <g id="dirArrow">
                        <path fill="none" stroke="white" stroke-width="1.5" d="M0,-3.0v7 M-2.5,-0.5L0,-3.0L2.5,-0.5"/>
                </g>
               <g id="resetDef">
                       <use xlink:href="#rim2" fill="#404040">
                               <set attributeName="fill" to="#808080" begin="reset.mouseover" end="reset.mouseout"/>
                       </use>
               </g>
        </defs>

<script type="text/javascript">
var viewWidth = 1490;
var viewHeight = 224;
var sectionId = 'dynsection-2';
</script>
<script xlink:href="../../svgpan.js"/>
<svg id="graph" class="graph">
<g id="viewport">
<title>engine.gameRepresentation.evaluatables.actions.CheckAttributeCreateObjectAction.evaluate</title>
<polygon fill="white" stroke="none" points="-4,4 -4,-220 1486,-220 1486,4 -4,4"/>
<!-- Node1 -->
<g id="node1" class="node"><title>Node1</title>
<polygon fill="#bfbfbf" stroke="black" points="0,-88 0,-118 256,-118 256,-88 0,-88"/>
<text text-anchor="start" x="8" y="-106" font-family="Helvetica,sans-Serif" font-size="10.00">engine.gameRepresentation.evaluatables.actions.</text>
<text text-anchor="middle" x="128" y="-95" font-family="Helvetica,sans-Serif" font-size="10.00">CheckAttributeCreateObjectAction.evaluate</text>
</g>
<!-- Node2 -->
<g id="node2" class="node"><title>Node2</title>
<g id="a_node2"><a xlink:href="../../dc/d45/classengine_1_1game_representation_1_1evaluatables_1_1_evaluatable.html#ace515f33eb0a68fe5fa4e290a6288135" target="_top" xlink:title="engine.gameRepresentation.evaluatables.\lEvaluatable.evaluate">
<polygon fill="white" stroke="black" points="319,-186 319,-216 537,-216 537,-186 319,-186"/>
<text text-anchor="start" x="327" y="-204" font-family="Helvetica,sans-Serif" font-size="10.00">engine.gameRepresentation.evaluatables.</text>
<text text-anchor="middle" x="428" y="-193" font-family="Helvetica,sans-Serif" font-size="10.00">Evaluatable.evaluate</text>
</a>
</g>
</g>
<!-- Node1&#45;&gt;Node2 -->
<g id="edge1" class="edge"><title>Node1&#45;&gt;Node2</title>
<path fill="none" stroke="midnightblue" d="M157.052,-118.046C188.911,-134.538 242.859,-160.686 292,-176 301.036,-178.816 310.517,-181.36 320.087,-183.648"/>
<polygon fill="midnightblue" stroke="midnightblue" points="319.548,-187.115 330.077,-185.941 321.114,-180.293 319.548,-187.115"/>
</g>
<!-- Node3 -->
<g id="node3" class="node"><title>Node3</title>
<g id="a_node3"><a xlink:href="../../dc/d0e/classengine_1_1game_representation_1_1evaluatables_1_1evaluators_1_1_evaluator.html#ae07c4224989cf8f4acc417b6486064ad" target="_top" xlink:title="engine.gameRepresentation.evaluatables.evaluators.\lEvaluator.evaluate">
<polygon fill="white" stroke="black" points="292,-137 292,-167 564,-167 564,-137 292,-137"/>
<text text-anchor="start" x="300" y="-155" font-family="Helvetica,sans-Serif" font-size="10.00">engine.gameRepresentation.evaluatables.evaluators.</text>
<text text-anchor="middle" x="428" y="-144" font-family="Helvetica,sans-Serif" font-size="10.00">Evaluator.evaluate</text>
</a>
</g>
</g>
<!-- Node1&#45;&gt;Node3 -->
<g id="edge2" class="edge"><title>Node1&#45;&gt;Node3</title>
<path fill="none" stroke="midnightblue" d="M220.435,-118.035C253.759,-123.514 291.622,-129.74 325.749,-135.351"/>
<polygon fill="midnightblue" stroke="midnightblue" points="325.302,-138.825 335.738,-136.994 326.438,-131.918 325.302,-138.825"/>
</g>
<!-- Node4 -->
<g id="node4" class="node"><title>Node4</title>
<g id="a_node4"><a xlink:href="../../d5/dee/classengine_1_1game_representation_1_1evaluatables_1_1actions_1_1_action.html#a2ae6faaa18cfb1c06d7305023cfed0c5" target="_top" xlink:title="engine.gameRepresentation.evaluatables.actions.\lAction.executeActionIfTimerExpired">
<polygon fill="white" stroke="black" points="300,-88 300,-118 556,-118 556,-88 300,-88"/>
<text text-anchor="start" x="308" y="-106" font-family="Helvetica,sans-Serif" font-size="10.00">engine.gameRepresentation.evaluatables.actions.</text>
<text text-anchor="middle" x="428" y="-95" font-family="Helvetica,sans-Serif" font-size="10.00">Action.executeActionIfTimerExpired</text>
</a>
</g>
</g>
<!-- Node1&#45;&gt;Node4 -->
<g id="edge3" class="edge"><title>Node1&#45;&gt;Node4</title>
<path fill="none" stroke="midnightblue" d="M256.243,-103C267.265,-103 278.449,-103 289.547,-103"/>
<polygon fill="midnightblue" stroke="midnightblue" points="289.708,-106.5 299.708,-103 289.708,-99.5001 289.708,-106.5"/>
</g>
<!-- Node7 -->
<g id="node7" class="node"><title>Node7</title>
<g id="a_node7"><a xlink:href="../../d4/de2/classengine_1_1game_representation_1_1rendered_representation_1_1_game_element.html#a5a426090456bba2adf4993b5b3fb0ffd" target="_top" xlink:title="engine.gameRepresentation.rendered\lRepresentation.GameElement.setNumerical\lAttribute">
<polygon fill="white" stroke="black" points="842.5,-60.5 842.5,-101.5 1069.5,-101.5 1069.5,-60.5 842.5,-60.5"/>
<text text-anchor="start" x="850.5" y="-89.5" font-family="Helvetica,sans-Serif" font-size="10.00">engine.gameRepresentation.rendered</text>
<text text-anchor="start" x="850.5" y="-78.5" font-family="Helvetica,sans-Serif" font-size="10.00">Representation.GameElement.setNumerical</text>
<text text-anchor="middle" x="956" y="-67.5" font-family="Helvetica,sans-Serif" font-size="10.00">Attribute</text>
</a>
</g>
</g>
<!-- Node1&#45;&gt;Node7 -->
<g id="edge10" class="edge"><title>Node1&#45;&gt;Node7</title>
<path fill="none" stroke="midnightblue" d="M210.806,-87.9626C236.681,-83.8769 265.452,-80.0241 292,-78 480.061,-63.6619 698.999,-68.9075 832.242,-74.5411"/>
<polygon fill="midnightblue" stroke="midnightblue" points="832.338,-78.0484 842.479,-74.9819 832.639,-71.0549 832.338,-78.0484"/>
</g>
<!-- Node10 -->
<g id="node10" class="node"><title>Node10</title>
<g id="a_node10"><a xlink:href="../../d1/dd2/classengine_1_1game_representation_1_1evaluatables_1_1_element_pair.html#a47e0d766466b3ff994e4e6f0b55cfcf9" target="_top" xlink:title="engine.gameRepresentation.evaluatables.\lElementPair.getActor">
<polygon fill="white" stroke="black" points="319,-0 319,-30 537,-30 537,-0 319,-0"/>
<text text-anchor="start" x="327" y="-18" font-family="Helvetica,sans-Serif" font-size="10.00">engine.gameRepresentation.evaluatables.</text>
<text text-anchor="middle" x="428" y="-7" font-family="Helvetica,sans-Serif" font-size="10.00">ElementPair.getActor</text>
</a>
</g>
</g>
<!-- Node1&#45;&gt;Node10 -->
<g id="edge9" class="edge"><title>Node1&#45;&gt;Node10</title>
<path fill="none" stroke="midnightblue" d="M167.099,-87.9386C199.859,-75.3519 248.559,-57.5042 292,-45 307.859,-40.4352 324.933,-36.159 341.428,-32.3455"/>
<polygon fill="midnightblue" stroke="midnightblue" points="342.631,-35.6614 351.607,-30.0324 341.08,-28.8354 342.631,-35.6614"/>
</g>
<!-- Node5 -->
<g id="node5" class="node"><title>Node5</title>
<g id="a_node5"><a xlink:href="../../d4/de2/classengine_1_1game_representation_1_1rendered_representation_1_1_game_element.html#a47e759a32242cc483aa1e0be7ae7a2a6" target="_top" xlink:title="engine.gameRepresentation.rendered\lRepresentation.GameElement.getTimer">
<polygon fill="white" stroke="black" points="600,-137 600,-167 806,-167 806,-137 600,-137"/>
<text text-anchor="start" x="608" y="-155" font-family="Helvetica,sans-Serif" font-size="10.00">engine.gameRepresentation.rendered</text>
<text text-anchor="middle" x="703" y="-144" font-family="Helvetica,sans-Serif" font-size="10.00">Representation.GameElement.getTimer</text>
</a>
</g>
</g>
<!-- Node4&#45;&gt;Node5 -->
<g id="edge4" class="edge"><title>Node4&#45;&gt;Node5</title>
<path fill="none" stroke="midnightblue" d="M512.764,-118.035C543.031,-123.467 577.384,-129.633 608.437,-135.207"/>
<polygon fill="midnightblue" stroke="midnightblue" points="607.933,-138.672 618.394,-136.994 609.17,-131.782 607.933,-138.672"/>
</g>
<!-- Node6 -->
<g id="node6" class="node"><title>Node6</title>
<g id="a_node6"><a xlink:href="../../d4/de2/classengine_1_1game_representation_1_1rendered_representation_1_1_game_element.html#a5b821d5a3095962eb09ef3e6f35eb48a" target="_top" xlink:title="engine.gameRepresentation.rendered\lRepresentation.GameElement.setTimer">
<polygon fill="white" stroke="black" points="600,-88 600,-118 806,-118 806,-88 600,-88"/>
<text text-anchor="start" x="608" y="-106" font-family="Helvetica,sans-Serif" font-size="10.00">engine.gameRepresentation.rendered</text>
<text text-anchor="middle" x="703" y="-95" font-family="Helvetica,sans-Serif" font-size="10.00">Representation.GameElement.setTimer</text>
</a>
</g>
</g>
<!-- Node4&#45;&gt;Node6 -->
<g id="edge5" class="edge"><title>Node4&#45;&gt;Node6</title>
<path fill="none" stroke="midnightblue" d="M556.308,-103C567.483,-103 578.741,-103 589.779,-103"/>
<polygon fill="midnightblue" stroke="midnightblue" points="589.847,-106.5 599.847,-103 589.847,-99.5001 589.847,-106.5"/>
</g>
<!-- Node6&#45;&gt;Node7 -->
<g id="edge6" class="edge"><title>Node6&#45;&gt;Node7</title>
<path fill="none" stroke="midnightblue" d="M806.091,-94.0518C814.676,-93.2993 823.412,-92.5336 832.131,-91.7694"/>
<polygon fill="midnightblue" stroke="midnightblue" points="832.692,-95.2337 842.349,-90.8738 832.081,-88.2604 832.692,-95.2337"/>
</g>
<!-- Node8 -->
<g id="node8" class="node"><title>Node8</title>
<g id="a_node8"><a xlink:href="../../da/dc5/classmodel_1_1state_1_1gameelement_1_1_attribute_container.html#a168d6e922a93b11894753a0598c02cf7" target="_top" xlink:title="model.state.gameelement.\lAttributeContainer.setNumerical\lAttribute">
<polygon fill="white" stroke="black" points="1106.5,-60.5 1106.5,-101.5 1277.5,-101.5 1277.5,-60.5 1106.5,-60.5"/>
<text text-anchor="start" x="1114.5" y="-89.5" font-family="Helvetica,sans-Serif" font-size="10.00">model.state.gameelement.</text>
<text text-anchor="start" x="1114.5" y="-78.5" font-family="Helvetica,sans-Serif" font-size="10.00">AttributeContainer.setNumerical</text>
<text text-anchor="middle" x="1192" y="-67.5" font-family="Helvetica,sans-Serif" font-size="10.00">Attribute</text>
</a>
</g>
</g>
<!-- Node7&#45;&gt;Node8 -->
<g id="edge7" class="edge"><title>Node7&#45;&gt;Node8</title>
<path fill="none" stroke="midnightblue" d="M1069.54,-81C1078.47,-81 1087.42,-81 1096.2,-81"/>
<polygon fill="midnightblue" stroke="midnightblue" points="1096.42,-84.5001 1106.42,-81 1096.42,-77.5001 1096.42,-84.5001"/>
</g>
<!-- Node9 -->
<g id="node9" class="node"><title>Node9</title>
<g id="a_node9"><a xlink:href="../../da/dc5/classmodel_1_1state_1_1gameelement_1_1_attribute_container.html#a03dd9ed123fc97bfc8bce5528b488333" target="_top" xlink:title="model.state.gameelement.\lAttributeContainer.addAttribute">
<polygon fill="white" stroke="black" points="1314.5,-66 1314.5,-96 1481.5,-96 1481.5,-66 1314.5,-66"/>
<text text-anchor="start" x="1322.5" y="-84" font-family="Helvetica,sans-Serif" font-size="10.00">model.state.gameelement.</text>
<text text-anchor="middle" x="1398" y="-73" font-family="Helvetica,sans-Serif" font-size="10.00">AttributeContainer.addAttribute</text>
</a>
</g>
</g>
<!-- Node8&#45;&gt;Node9 -->
<g id="edge8" class="edge"><title>Node8&#45;&gt;Node9</title>
<path fill="none" stroke="midnightblue" d="M1277.74,-81C1286.57,-81 1295.58,-81 1304.49,-81"/>
<polygon fill="midnightblue" stroke="midnightblue" points="1304.49,-84.5001 1314.49,-81 1304.49,-77.5001 1304.49,-84.5001"/>
</g>
</g>
</svg>
        <g id="navigator" transform="translate(0 0)" fill="#404254">
                <rect fill="#f2f5e9" fill-opacity="0.5" stroke="#606060" stroke-width=".5" x="0" y="0" width="60" height="60"/>
                <use id="zoomplus" xlink:href="#zoomPlus" x="17" y="9" onmousedown="handleZoom(evt,'in')"/>
                <use id="zoomminus" xlink:href="#zoomMin" x="42" y="9" onmousedown="handleZoom(evt,'out')"/>
                <use id="reset" xlink:href="#resetDef" x="30" y="36" onmousedown="handleReset()"/>
                <g id="arrowUp" xlink:href="#dirArrow" transform="translate(30 24)" onmousedown="handlePan(0,-1)">
                  <use xlink:href="#rim" fill="#404040">
                        <set attributeName="fill" to="#808080" begin="arrowUp.mouseover" end="arrowUp.mouseout"/>
                  </use>
                  <path fill="none" stroke="white" stroke-width="1.5" d="M0,-3.0v7 M-2.5,-0.5L0,-3.0L2.5,-0.5"/>
                </g>
                <g id="arrowRight" xlink:href="#dirArrow" transform="rotate(90) translate(36 -43)" onmousedown="handlePan(1,0)">
                  <use xlink:href="#rim" fill="#404040">
                        <set attributeName="fill" to="#808080" begin="arrowRight.mouseover" end="arrowRight.mouseout"/>
                  </use>
                  <path fill="none" stroke="white" stroke-width="1.5" d="M0,-3.0v7 M-2.5,-0.5L0,-3.0L2.5,-0.5"/>
                </g>
                <g id="arrowDown" xlink:href="#dirArrow" transform="rotate(180) translate(-30 -48)" onmousedown="handlePan(0,1)">
                  <use xlink:href="#rim" fill="#404040">
                        <set attributeName="fill" to="#808080" begin="arrowDown.mouseover" end="arrowDown.mouseout"/>
                  </use>
                  <path fill="none" stroke="white" stroke-width="1.5" d="M0,-3.0v7 M-2.5,-0.5L0,-3.0L2.5,-0.5"/>
                </g>
                <g id="arrowLeft" xlink:href="#dirArrow" transform="rotate(270) translate(-36 17)" onmousedown="handlePan(-1,0)">
                  <use xlink:href="#rim" fill="#404040">
                        <set attributeName="fill" to="#808080" begin="arrowLeft.mouseover" end="arrowLeft.mouseout"/>
                  </use>
                  <path fill="none" stroke="white" stroke-width="1.5" d="M0,-3.0v7 M-2.5,-0.5L0,-3.0L2.5,-0.5"/>
                </g>
        </g>
        <svg viewBox="0 0 15 15" width="100%" height="30px" preserveAspectRatio="xMaxYMin meet">
         <g id="arrow_out" transform="scale(0.3 0.3)">
          <a xlink:href="classengine_1_1game_representation_1_1evaluatables_1_1actions_1_1_check_attribute_create_object_action_a7748525bf0dd7b5ddc38f978020dd2aa_cgraph_org.svg" target="_base">
           <rect id="button" ry="5" rx="5" y="6" x="6" height="38" width="38"
                fill="#f2f5e9" fill-opacity="0.5" stroke="#606060" stroke-width="1.0"/>
           <path id="arrow"
             d="M 11.500037,31.436501 C 11.940474,20.09759 22.043105,11.32322 32.158766,21.979434 L 37.068811,17.246167 C 37.068811,17.246167 37.088388,32 37.088388,32 L 22.160133,31.978069 C 22.160133,31.978069 26.997745,27.140456 26.997745,27.140456 C 18.528582,18.264221 13.291696,25.230495 11.500037,31.436501 z"
             style="fill:#404040;"/>
          </a>
         </g>
        </svg>
</svg>
