<?xml version="1.0" encoding="UTF-8" standalone="no"?>
<!DOCTYPE svg PUBLIC "-//W3C//DTD SVG 1.1//EN"
 "http://www.w3.org/Graphics/SVG/1.1/DTD/svg11.dtd">
<!-- Generated by graphviz version 2.36.0 (20140111.2315)
 -->
<!-- Title: game_engine.visuals.ScrollablePane Pages: 1 -->
<svg width="1382pt" height="344pt"
 viewBox="0.00 0.00 1382.00 344.20" xmlns="http://www.w3.org/2000/svg" xmlns:xlink="http://www.w3.org/1999/xlink">
<g id="graph0" class="graph" transform="scale(1 1) rotate(0) translate(4 340.203)">
<title>game_engine.visuals.ScrollablePane</title>
<polygon fill="white" stroke="none" points="-4,4 -4,-340.203 1378,-340.203 1378,4 -4,4"/>
<!-- Node1 -->
<g id="node1" class="node"><title>Node1</title>
<polygon fill="#bfbfbf" stroke="black" points="1184,-228.703 1184,-247.703 1374,-247.703 1374,-228.703 1184,-228.703"/>
<text text-anchor="middle" x="1279" y="-235.703" font-family="Helvetica,sans-Serif" font-size="10.00">game_engine.visuals.ScrollablePane</text>
</g>
<!-- Node2 -->
<g id="node2" class="node"><title>Node2</title>
<polygon fill="white" stroke="#bfbfbf" points="641,-272.703 641,-291.703 681,-291.703 681,-272.703 641,-272.703"/>
<text text-anchor="middle" x="661" y="-279.703" font-family="Helvetica,sans-Serif" font-size="10.00">Pane</text>
</g>
<!-- Node2&#45;&gt;Node1 -->
<g id="edge1" class="edge"><title>Node2&#45;&gt;Node1</title>
<path fill="none" stroke="midnightblue" d="M691.255,-281.126C768.787,-278.129 985.934,-268.798 1166,-252.203 1179.46,-250.962 1193.81,-249.373 1207.58,-247.714"/>
<polygon fill="midnightblue" stroke="midnightblue" points="691.119,-277.629 681.26,-281.507 691.386,-284.624 691.119,-277.629"/>
</g>
<!-- Node3 -->
<g id="node3" class="node"><title>Node3</title>
<g id="a_node3"><a xlink:href="../../da/d4a/classgame__engine_1_1visuals_1_1_scrollable_background.html" target="_top" xlink:title="game_engine.visuals.Scrollable\lBackground">
<polygon fill="white" stroke="black" points="894.5,-305.203 894.5,-335.203 1061.5,-335.203 1061.5,-305.203 894.5,-305.203"/>
<text text-anchor="start" x="902.5" y="-323.203" font-family="Helvetica,sans-Serif" font-size="10.00">game_engine.visuals.Scrollable</text>
<text text-anchor="middle" x="978" y="-312.203" font-family="Helvetica,sans-Serif" font-size="10.00">Background</text>
</a>
</g>
</g>
<!-- Node2&#45;&gt;Node3 -->
<g id="edge3" class="edge"><title>Node2&#45;&gt;Node3</title>
<path fill="none" stroke="midnightblue" d="M691.361,-285.745C737.183,-291.273 827.368,-302.152 894.2,-310.214"/>
<polygon fill="midnightblue" stroke="midnightblue" points="691.578,-282.246 681.23,-284.523 690.739,-289.195 691.578,-282.246"/>
</g>
<!-- Node3&#45;&gt;Node1 -->
<g id="edge2" class="edge"><title>Node3&#45;&gt;Node1</title>
<path fill="none" stroke="#9a32cd" stroke-dasharray="5,2" d="M1071.76,-310.471C1102.2,-305.921 1135.92,-299.406 1166,-290.203 1201.26,-279.416 1239.7,-259.651 1261.13,-247.841"/>
<polygon fill="#9a32cd" stroke="#9a32cd" points="1070.97,-307.048 1061.58,-311.94 1071.97,-313.976 1070.97,-307.048"/>
<text text-anchor="middle" x="1123" y="-312.203" font-family="Helvetica,sans-Serif" font-size="10.00"> myBackground</text>
</g>
<!-- Node4 -->
<g id="node4" class="node"><title>Node4</title>
<polygon fill="white" stroke="#bfbfbf" points="8,-291.703 8,-310.703 68,-310.703 68,-291.703 8,-291.703"/>
<text text-anchor="middle" x="38" y="-298.703" font-family="Helvetica,sans-Serif" font-size="10.00">Observer</text>
</g>
<!-- Node4&#45;&gt;Node3 -->
<g id="edge4" class="edge"><title>Node4&#45;&gt;Node3</title>
<path fill="none" stroke="midnightblue" d="M78.4072,-302.001C219.263,-304.854 699.737,-314.587 894.249,-318.527"/>
<polygon fill="midnightblue" stroke="midnightblue" points="78.1699,-298.496 68.1011,-301.792 78.0281,-305.494 78.1699,-298.496"/>
</g>
<!-- Node5 -->
<g id="node5" class="node"><title>Node5</title>
<g id="a_node5"><a xlink:href="../../dc/d95/classgame__engine_1_1visuals_1_1_selection_box.html" target="_top" xlink:title="game_engine.visuals.SelectionBox">
<polygon fill="white" stroke="black" points="178,-228.703 178,-247.703 360,-247.703 360,-228.703 178,-228.703"/>
<text text-anchor="middle" x="269" y="-235.703" font-family="Helvetica,sans-Serif" font-size="10.00">game_engine.visuals.SelectionBox</text>
</a>
</g>
</g>
<!-- Node4&#45;&gt;Node5 -->
<g id="edge7" class="edge"><title>Node4&#45;&gt;Node5</title>
<path fill="none" stroke="midnightblue" d="M78.5269,-292.463C102.254,-287.034 132.979,-279.684 160,-272.203 187.091,-264.702 217.615,-254.972 239.284,-247.844"/>
<polygon fill="midnightblue" stroke="midnightblue" points="77.4653,-289.114 68.4877,-294.741 79.0143,-295.941 77.4653,-289.114"/>
</g>
<!-- Node5&#45;&gt;Node1 -->
<g id="edge5" class="edge"><title>Node5&#45;&gt;Node1</title>
<path fill="none" stroke="#9a32cd" stroke-dasharray="5,2" d="M370.597,-238.203C565.881,-238.203 993.8,-238.203 1183.84,-238.203"/>
<polygon fill="#9a32cd" stroke="#9a32cd" points="370.34,-234.703 360.34,-238.203 370.34,-241.703 370.34,-234.703"/>
<text text-anchor="middle" x="818" y="-241.203" font-family="Helvetica,sans-Serif" font-size="10.00"> mySelectionBox</text>
</g>
<!-- Node6 -->
<g id="node6" class="node"><title>Node6</title>
<polygon fill="white" stroke="#bfbfbf" points="2.5,-114.703 2.5,-133.703 73.5,-133.703 73.5,-114.703 2.5,-114.703"/>
<text text-anchor="middle" x="38" y="-121.703" font-family="Helvetica,sans-Serif" font-size="10.00">Observable</text>
</g>
<!-- Node6&#45;&gt;Node5 -->
<g id="edge6" class="edge"><title>Node6&#45;&gt;Node5</title>
<path fill="none" stroke="midnightblue" d="M67.1956,-138.239C114.43,-161.753 208.341,-208.504 248.763,-228.626"/>
<polygon fill="midnightblue" stroke="midnightblue" points="68.6424,-135.05 58.1305,-133.726 65.5228,-141.316 68.6424,-135.05"/>
</g>
<!-- Node9 -->
<g id="node9" class="node"><title>Node9</title>
<g id="a_node9"><a xlink:href="../../df/d88/classgame__engine_1_1_u_i_1_1_input_manager.html" target="_top" xlink:title="game_engine.UI.InputManager">
<polygon fill="white" stroke="black" points="896,-140.703 896,-159.703 1060,-159.703 1060,-140.703 896,-140.703"/>
<text text-anchor="middle" x="978" y="-147.703" font-family="Helvetica,sans-Serif" font-size="10.00">game_engine.UI.InputManager</text>
</a>
</g>
</g>
<!-- Node6&#45;&gt;Node9 -->
<g id="edge11" class="edge"><title>Node6&#45;&gt;Node9</title>
<path fill="none" stroke="midnightblue" d="M83.9697,-123.549C195.477,-122.168 493.655,-119.941 742,-131.203 793.214,-133.525 850.567,-138.123 895.793,-142.214"/>
<polygon fill="midnightblue" stroke="midnightblue" points="83.7237,-120.052 73.7693,-123.68 83.8133,-127.052 83.7237,-120.052"/>
</g>
<!-- Node11 -->
<g id="node11" class="node"><title>Node11</title>
<g id="a_node11"><a xlink:href="../../df/d1f/classgame__engine_1_1_u_i_1_1_mouse_manager.html" target="_top" xlink:title="game_engine.UI.MouseManager">
<polygon fill="white" stroke="black" points="183.5,-162.703 183.5,-181.703 354.5,-181.703 354.5,-162.703 183.5,-162.703"/>
<text text-anchor="middle" x="269" y="-169.703" font-family="Helvetica,sans-Serif" font-size="10.00">game_engine.UI.MouseManager</text>
</a>
</g>
</g>
<!-- Node6&#45;&gt;Node11 -->
<g id="edge14" class="edge"><title>Node6&#45;&gt;Node11</title>
<path fill="none" stroke="midnightblue" d="M83.8051,-133.594C123.887,-141.996 182.359,-154.252 222.616,-162.69"/>
<polygon fill="midnightblue" stroke="midnightblue" points="84.2855,-130.119 73.7802,-131.493 82.8494,-136.97 84.2855,-130.119"/>
</g>
<!-- Node12 -->
<g id="node12" class="node"><title>Node12</title>
<g id="a_node12"><a xlink:href="../../da/dd3/classgame__engine_1_1_u_i_1_1_keyboard_manager.html" target="_top" xlink:title="game_engine.UI.KeyboardManager">
<polygon fill="white" stroke="black" points="378,-35.7029 378,-54.7029 562,-54.7029 562,-35.7029 378,-35.7029"/>
<text text-anchor="middle" x="470" y="-42.7029" font-family="Helvetica,sans-Serif" font-size="10.00">game_engine.UI.KeyboardManager</text>
</a>
</g>
</g>
<!-- Node6&#45;&gt;Node12 -->
<g id="edge17" class="edge"><title>Node6&#45;&gt;Node12</title>
<path fill="none" stroke="midnightblue" d="M64.9545,-109.966C73.9258,-105.581 84.1921,-101.14 94,-98.2029 188.48,-69.906 300.988,-56.5734 377.959,-50.3838"/>
<polygon fill="midnightblue" stroke="midnightblue" points="63.1302,-106.967 55.811,-114.627 66.3098,-113.203 63.1302,-106.967"/>
</g>
<!-- Node7 -->
<g id="node7" class="node"><title>Node7</title>
<polygon fill="white" stroke="#bfbfbf" points="0.5,-200.703 0.5,-219.703 75.5,-219.703 75.5,-200.703 0.5,-200.703"/>
<text text-anchor="middle" x="38" y="-207.703" font-family="Helvetica,sans-Serif" font-size="10.00">MouseEvent</text>
</g>
<!-- Node7&#45;&gt;Node5 -->
<g id="edge8" class="edge"><title>Node7&#45;&gt;Node5</title>
<path fill="none" stroke="#9a32cd" stroke-dasharray="5,2" d="M85.6986,-215.913C115.628,-219.572 155.219,-224.413 189.856,-228.648"/>
<polygon fill="#9a32cd" stroke="#9a32cd" points="85.8898,-212.41 75.5389,-214.671 85.0402,-219.358 85.8898,-212.41"/>
<text text-anchor="middle" x="127" y="-227.203" font-family="Helvetica,sans-Serif" font-size="10.00"> lastEvent</text>
</g>
<!-- Node7&#45;&gt;Node11 -->
<g id="edge15" class="edge"><title>Node7&#45;&gt;Node11</title>
<path fill="none" stroke="#9a32cd" stroke-dasharray="5,2" d="M85.8003,-202.437C121.919,-196.443 172.061,-188.123 210.601,-181.728"/>
<polygon fill="#9a32cd" stroke="#9a32cd" points="84.8311,-199.05 75.5389,-204.14 85.977,-205.955 84.8311,-199.05"/>
<text text-anchor="middle" x="127" y="-204.203" font-family="Helvetica,sans-Serif" font-size="10.00"> lastEvent</text>
</g>
<!-- Node8 -->
<g id="node8" class="node"><title>Node8</title>
<polygon fill="white" stroke="#bfbfbf" points="6.5,-253.703 6.5,-272.703 69.5,-272.703 69.5,-253.703 6.5,-253.703"/>
<text text-anchor="middle" x="38" y="-260.703" font-family="Helvetica,sans-Serif" font-size="10.00">Rectangle</text>
</g>
<!-- Node8&#45;&gt;Node5 -->
<g id="edge9" class="edge"><title>Node8&#45;&gt;Node5</title>
<path fill="none" stroke="#9a32cd" stroke-dasharray="5,2" d="M80.1053,-258.715C108.146,-255.654 146.338,-251.485 180.968,-247.704"/>
<polygon fill="#9a32cd" stroke="#9a32cd" points="79.445,-255.267 69.884,-259.831 80.2048,-262.225 79.445,-255.267"/>
<text text-anchor="middle" x="127" y="-260.203" font-family="Helvetica,sans-Serif" font-size="10.00"> myRectangle</text>
</g>
<!-- Node9&#45;&gt;Node1 -->
<g id="edge10" class="edge"><title>Node9&#45;&gt;Node1</title>
<path fill="none" stroke="#9a32cd" stroke-dasharray="5,2" d="M1021.23,-162.632C1081.51,-180.373 1190.94,-212.58 1245.4,-228.608"/>
<polygon fill="#9a32cd" stroke="#9a32cd" points="1021.86,-159.17 1011.28,-159.704 1019.89,-165.885 1021.86,-159.17"/>
<text text-anchor="middle" x="1123" y="-208.203" font-family="Helvetica,sans-Serif" font-size="10.00"> myInputManager</text>
</g>
<!-- Node10 -->
<g id="node10" class="node"><title>Node10</title>
<g id="a_node10"><a xlink:href="../../de/dec/classgame__engine_1_1_u_i_1_1_click_manager.html" target="_top" xlink:title="game_engine.UI.ClickManager">
<polygon fill="white" stroke="black" points="580.5,-140.703 580.5,-159.703 741.5,-159.703 741.5,-140.703 580.5,-140.703"/>
<text text-anchor="middle" x="661" y="-147.703" font-family="Helvetica,sans-Serif" font-size="10.00">game_engine.UI.ClickManager</text>
</a>
</g>
</g>
<!-- Node10&#45;&gt;Node9 -->
<g id="edge12" class="edge"><title>Node10&#45;&gt;Node9</title>
<path fill="none" stroke="#9a32cd" stroke-dasharray="5,2" d="M752.008,-150.203C797.315,-150.203 851.81,-150.203 895.82,-150.203"/>
<polygon fill="#9a32cd" stroke="#9a32cd" points="751.895,-146.703 741.895,-150.203 751.895,-153.703 751.895,-146.703"/>
<text text-anchor="middle" x="818" y="-153.203" font-family="Helvetica,sans-Serif" font-size="10.00"> myClickManager</text>
</g>
<!-- Node11&#45;&gt;Node10 -->
<g id="edge13" class="edge"><title>Node11&#45;&gt;Node10</title>
<path fill="none" stroke="midnightblue" d="M364.615,-166.866C430.615,-163.143 517.71,-158.23 580.199,-154.704"/>
<polygon fill="midnightblue" stroke="midnightblue" points="364.411,-163.371 354.624,-167.429 364.805,-170.36 364.411,-163.371"/>
</g>
<!-- Node13 -->
<g id="node13" class="node"><title>Node13</title>
<g id="a_node13"><a xlink:href="../../dc/dcb/classgame__engine_1_1_u_i_1_1_mouse_drag_manager.html" target="_top" xlink:title="game_engine.UI.MouseDrag\lManager">
<polygon fill="white" stroke="black" points="585,-179.203 585,-209.203 737,-209.203 737,-179.203 585,-179.203"/>
<text text-anchor="start" x="593" y="-197.203" font-family="Helvetica,sans-Serif" font-size="10.00">game_engine.UI.MouseDrag</text>
<text text-anchor="middle" x="661" y="-186.203" font-family="Helvetica,sans-Serif" font-size="10.00">Manager</text>
</a>
</g>
</g>
<!-- Node11&#45;&gt;Node13 -->
<g id="edge19" class="edge"><title>Node11&#45;&gt;Node13</title>
<path fill="none" stroke="midnightblue" d="M364.854,-177.554C432.45,-181.367 522.083,-186.423 584.768,-189.959"/>
<polygon fill="midnightblue" stroke="midnightblue" points="364.805,-174.045 354.624,-176.977 364.411,-181.034 364.805,-174.045"/>
</g>
<!-- Node12&#45;&gt;Node9 -->
<g id="edge16" class="edge"><title>Node12&#45;&gt;Node9</title>
<path fill="none" stroke="#9a32cd" stroke-dasharray="5,2" d="M507.843,-32.4808C586.124,-8.02591 770.468,35.5186 876,-55.2029 902.323,-77.8314 869.363,-106.75 894,-131.203 897.777,-134.952 902.133,-138.022 906.831,-140.53"/>
<polygon fill="#9a32cd" stroke="#9a32cd" points="506.414,-29.2632 497.957,-35.6454 508.548,-35.93 506.414,-29.2632"/>
<text text-anchor="middle" x="661" y="-17.2029" font-family="Helvetica,sans-Serif" font-size="10.00"> myKeyboardManager</text>
</g>
<!-- Node13&#45;&gt;Node9 -->
<g id="edge18" class="edge"><title>Node13&#45;&gt;Node9</title>
<path fill="none" stroke="#9a32cd" stroke-dasharray="5,2" d="M747.352,-182.89C786.56,-177.628 833.657,-171.216 876,-165.203 888.198,-163.471 901.217,-161.573 913.712,-159.728"/>
<polygon fill="#9a32cd" stroke="#9a32cd" points="746.748,-179.44 737.301,-184.237 747.677,-186.378 746.748,-179.44"/>
<text text-anchor="middle" x="818" y="-184.203" font-family="Helvetica,sans-Serif" font-size="10.00"> myMouseDragManager</text>
</g>
<!-- Node14 -->
<g id="node14" class="node"><title>Node14</title>
<polygon fill="white" stroke="#bfbfbf" points="639,-64.7029 639,-83.7029 683,-83.7029 683,-64.7029 639,-64.7029"/>
<text text-anchor="middle" x="661" y="-71.7029" font-family="Helvetica,sans-Serif" font-size="10.00">Event</text>
</g>
<!-- Node14&#45;&gt;Node9 -->
<g id="edge20" class="edge"><title>Node14&#45;&gt;Node9</title>
<path fill="none" stroke="#9a32cd" stroke-dasharray="5,2" d="M693.281,-66.5843C738.232,-57.5697 821.654,-48.275 876,-87.2029 893.177,-99.5064 877.891,-117.531 894,-131.203 898.508,-135.029 903.634,-138.123 909.074,-140.621"/>
<polygon fill="#9a32cd" stroke="#9a32cd" points="692.298,-63.2152 683.247,-68.722 693.757,-70.0615 692.298,-63.2152"/>
<text text-anchor="middle" x="818" y="-90.2029" font-family="Helvetica,sans-Serif" font-size="10.00"> e</text>
</g>
<!-- Node15 -->
<g id="node15" class="node"><title>Node15</title>
<polygon fill="white" stroke="#bfbfbf" points="955,-102.703 955,-121.703 1001,-121.703 1001,-102.703 955,-102.703"/>
<text text-anchor="middle" x="978" y="-109.703" font-family="Helvetica,sans-Serif" font-size="10.00">Group</text>
</g>
<!-- Node15&#45;&gt;Node1 -->
<g id="edge21" class="edge"><title>Node15&#45;&gt;Node1</title>
<path fill="none" stroke="#9a32cd" stroke-dasharray="5,2" d="M1011.44,-118.843C1026.85,-122.198 1045.47,-126.542 1062,-131.203 1108.94,-144.438 1122.04,-145.078 1166,-166.203 1204.34,-184.626 1245.42,-213.761 1265.5,-228.692"/>
<polygon fill="#9a32cd" stroke="#9a32cd" points="1011.86,-115.354 1001.35,-116.687 1010.39,-122.2 1011.86,-115.354"/>
<text text-anchor="middle" x="1123" y="-169.203" font-family="Helvetica,sans-Serif" font-size="10.00"> root</text>
</g>
</g>
</svg>
