<?xml version="1.0" encoding="UTF-8" standalone="no"?>
<!DOCTYPE svg PUBLIC "-//W3C//DTD SVG 1.1//EN"
 "http://www.w3.org/Graphics/SVG/1.1/DTD/svg11.dtd">
<!-- Generated by graphviz version 2.36.0 (20140111.2315)
 -->
<!-- Title: game_engine.gameRepresentation.renderedRepresentation.Level.addElement Pages: 1 -->
<!--zoomable 213 -->
<svg id="main" version="1.1" xmlns="http://www.w3.org/2000/svg" xmlns:xlink="http://www.w3.org/1999/xlink" xml:space="preserve" onload="init(evt)">
<style type="text/css"><![CDATA[
.edge:hover path { stroke: red; }
.edge:hover polygon { stroke: red; fill: red; }
]]></style>
<script type="text/javascript"><![CDATA[
var edges = document.getElementsByTagName('g');
if (edges && edges.length) {
  for (var i=0;i<edges.length;i++) {
    if (edges[i].id.substr(0,4)=='edge') {
      edges[i].setAttribute('class','edge');
    }
  }
}
]]></script>
        <defs>
                <circle id="rim" cx="0" cy="0" r="7"/>
                <circle id="rim2" cx="0" cy="0" r="3.5"/>
                <g id="zoomPlus">
                        <use xlink:href="#rim" fill="#404040">
                                <set attributeName="fill" to="#808080" begin="zoomplus.mouseover" end="zoomplus.mouseout"/>
                        </use>
                        <path d="M-4,0h8M0,-4v8" fill="none" stroke="white" stroke-width="1.5" pointer-events="none"/>
                </g>
                <g id="zoomMin">
                        <use xlink:href="#rim" fill="#404040">
                                <set attributeName="fill" to="#808080" begin="zoomminus.mouseover" end="zoomminus.mouseout"/>
                        </use>
                        <path d="M-4,0h8" fill="none" stroke="white" stroke-width="1.5" pointer-events="none"/>
                </g>
                <g id="dirArrow">
                        <path fill="none" stroke="white" stroke-width="1.5" d="M0,-3.0v7 M-2.5,-0.5L0,-3.0L2.5,-0.5"/>
                </g>
               <g id="resetDef">
                       <use xlink:href="#rim2" fill="#404040">
                               <set attributeName="fill" to="#808080" begin="reset.mouseover" end="reset.mouseout"/>
                       </use>
               </g>
        </defs>

<script type="text/javascript">
var viewWidth = 1076;
var viewHeight = 213;
var sectionId = 'dynsection-3';
</script>
<script xlink:href="../../svgpan.js"/>
<svg id="graph" class="graph">
<g id="viewport">
<title>game_engine.gameRepresentation.renderedRepresentation.Level.addElement</title>
<polygon fill="white" stroke="none" points="-4,4 -4,-209 1072,-209 1072,4 -4,4"/>
<!-- Node1 -->
<g id="node1" class="node"><title>Node1</title>
<polygon fill="#bfbfbf" stroke="black" points="0.5,-93 0.5,-123 231.5,-123 231.5,-93 0.5,-93"/>
<text text-anchor="start" x="8.5" y="-111" font-family="Helvetica,sans-Serif" font-size="10.00">game_engine.gameRepresentation.rendered</text>
<text text-anchor="middle" x="116" y="-100" font-family="Helvetica,sans-Serif" font-size="10.00">Representation.Level.addElement</text>
</g>
<!-- Node2 -->
<g id="node2" class="node"><title>Node2</title>
<g id="a_node2"><a xlink:href="../../d1/dfe/classgame__engine_1_1game_representation_1_1rendered_representation_1_1_drawable_game_element.html#a4d4de762dc7c3e81edd6bc84dc6aea05" target="_top" xlink:title="game_engine.gameRepresentation.rendered\lRepresentation.DrawableGameElement.getBounds">
<polygon fill="white" stroke="black" points="268,-169 268,-199 528,-199 528,-169 268,-169"/>
<text text-anchor="start" x="276" y="-187" font-family="Helvetica,sans-Serif" font-size="10.00">game_engine.gameRepresentation.rendered</text>
<text text-anchor="middle" x="398" y="-176" font-family="Helvetica,sans-Serif" font-size="10.00">Representation.DrawableGameElement.getBounds</text>
</a>
</g>
</g>
<!-- Node1&#45;&gt;Node2 -->
<g id="edge1" class="edge"><title>Node1&#45;&gt;Node2</title>
<path fill="none" stroke="midnightblue" d="M156.614,-123.009C186.816,-134.052 229.613,-148.847 268,-159 278.661,-161.82 289.895,-164.466 301.106,-166.904"/>
<polygon fill="midnightblue" stroke="midnightblue" points="300.429,-170.338 310.938,-168.991 301.883,-163.49 300.429,-170.338"/>
</g>
<!-- Node4 -->
<g id="node4" class="node"><title>Node4</title>
<g id="a_node4"><a xlink:href="../../d1/dfe/classgame__engine_1_1game_representation_1_1rendered_representation_1_1_drawable_game_element.html#a6b5fbc1cbd72a42b04bf11efbb9f94c0" target="_top" xlink:title="game_engine.gameRepresentation.rendered\lRepresentation.DrawableGameElement.getNode">
<polygon fill="white" stroke="black" points="273.5,-120 273.5,-150 522.5,-150 522.5,-120 273.5,-120"/>
<text text-anchor="start" x="281.5" y="-138" font-family="Helvetica,sans-Serif" font-size="10.00">game_engine.gameRepresentation.rendered</text>
<text text-anchor="middle" x="398" y="-127" font-family="Helvetica,sans-Serif" font-size="10.00">Representation.DrawableGameElement.getNode</text>
</a>
</g>
</g>
<!-- Node1&#45;&gt;Node4 -->
<g id="edge3" class="edge"><title>Node1&#45;&gt;Node4</title>
<path fill="none" stroke="midnightblue" d="M231.695,-119.06C242.11,-120.064 252.718,-121.087 263.278,-122.105"/>
<polygon fill="midnightblue" stroke="midnightblue" points="263.091,-125.603 273.381,-123.08 263.763,-118.636 263.091,-125.603"/>
</g>
<!-- Node5 -->
<g id="node5" class="node"><title>Node5</title>
<g id="a_node5"><a xlink:href="../../d5/d2c/classgame__engine_1_1game_representation_1_1rendered_representation_1_1_game_element.html#af7344c08292d2fd8b25c3fdda96f6abf" target="_top" xlink:title="game_engine.gameRepresentation.rendered\lRepresentation.GameElement.getNumerical\lAttribute">
<polygon fill="white" stroke="black" points="282.5,-60.5 282.5,-101.5 513.5,-101.5 513.5,-60.5 282.5,-60.5"/>
<text text-anchor="start" x="290.5" y="-89.5" font-family="Helvetica,sans-Serif" font-size="10.00">game_engine.gameRepresentation.rendered</text>
<text text-anchor="start" x="290.5" y="-78.5" font-family="Helvetica,sans-Serif" font-size="10.00">Representation.GameElement.getNumerical</text>
<text text-anchor="middle" x="398" y="-67.5" font-family="Helvetica,sans-Serif" font-size="10.00">Attribute</text>
</a>
</g>
</g>
<!-- Node1&#45;&gt;Node5 -->
<g id="edge4" class="edge"><title>Node1&#45;&gt;Node5</title>
<path fill="none" stroke="midnightblue" d="M231.695,-96.9402C245.053,-95.652 258.73,-94.3332 272.216,-93.0327"/>
<polygon fill="midnightblue" stroke="midnightblue" points="272.866,-96.4864 282.484,-92.0426 272.194,-89.5187 272.866,-96.4864"/>
</g>
<!-- Node8 -->
<g id="node8" class="node"><title>Node8</title>
<g id="a_node8"><a xlink:href="../../d1/d40/classgame__engine_1_1computers_1_1pathing_computers_1_1_map_grid.html#a912f27d7df3b0dad44b978213c4d2bb6" target="_top" xlink:title="game_engine.computers.pathing\lComputers.MapGrid.registerObstacle\lPlacement">
<polygon fill="white" stroke="black" points="301,-0.5 301,-41.5 495,-41.5 495,-0.5 301,-0.5"/>
<text text-anchor="start" x="309" y="-29.5" font-family="Helvetica,sans-Serif" font-size="10.00">game_engine.computers.pathing</text>
<text text-anchor="start" x="309" y="-18.5" font-family="Helvetica,sans-Serif" font-size="10.00">Computers.MapGrid.registerObstacle</text>
<text text-anchor="middle" x="398" y="-7.5" font-family="Helvetica,sans-Serif" font-size="10.00">Placement</text>
</a>
</g>
</g>
<!-- Node1&#45;&gt;Node8 -->
<g id="edge7" class="edge"><title>Node1&#45;&gt;Node8</title>
<path fill="none" stroke="midnightblue" d="M152.844,-92.931C183.151,-80.5635 227.915,-63.1683 268,-51 275.907,-48.5997 284.136,-46.2822 292.441,-44.0714"/>
<polygon fill="midnightblue" stroke="midnightblue" points="293.416,-47.4344 302.211,-41.5266 291.652,-40.6604 293.416,-47.4344"/>
</g>
<!-- Node3 -->
<g id="node3" class="node"><title>Node3</title>
<g id="a_node3"><a xlink:href="../../db/d72/classgame__engine_1_1game_representation_1_1state_representation_1_1game_element_1_1_drawable_game_element_state.html#acaff44475a07c0a5e0cefff6d6bfbf8c" target="_top" xlink:title="game_engine.gameRepresentation.state\lRepresentation.gameElement.DrawableGame\lElementState.getBounds">
<polygon fill="white" stroke="black" points="564,-163.5 564,-204.5 800,-204.5 800,-163.5 564,-163.5"/>
<text text-anchor="start" x="572" y="-192.5" font-family="Helvetica,sans-Serif" font-size="10.00">game_engine.gameRepresentation.state</text>
<text text-anchor="start" x="572" y="-181.5" font-family="Helvetica,sans-Serif" font-size="10.00">Representation.gameElement.DrawableGame</text>
<text text-anchor="middle" x="682" y="-170.5" font-family="Helvetica,sans-Serif" font-size="10.00">ElementState.getBounds</text>
</a>
</g>
</g>
<!-- Node2&#45;&gt;Node3 -->
<g id="edge2" class="edge"><title>Node2&#45;&gt;Node3</title>
<path fill="none" stroke="midnightblue" d="M528.033,-184C536.488,-184 545,-184 553.448,-184"/>
<polygon fill="midnightblue" stroke="midnightblue" points="553.712,-187.5 563.712,-184 553.711,-180.5 553.712,-187.5"/>
</g>
<!-- Node6 -->
<g id="node6" class="node"><title>Node6</title>
<g id="a_node6"><a xlink:href="../../dc/d2d/classgame__engine_1_1game_representation_1_1state_representation_1_1game_element_1_1_game_element_state.html#aa40f5f12d9fa1ea430b6da56c002338d" target="_top" xlink:title="game_engine.gameRepresentation.state\lRepresentation.gameElement.GameElement\lState.getNumericalAttribute">
<polygon fill="white" stroke="black" points="566.5,-60.5 566.5,-101.5 797.5,-101.5 797.5,-60.5 566.5,-60.5"/>
<text text-anchor="start" x="574.5" y="-89.5" font-family="Helvetica,sans-Serif" font-size="10.00">game_engine.gameRepresentation.state</text>
<text text-anchor="start" x="574.5" y="-78.5" font-family="Helvetica,sans-Serif" font-size="10.00">Representation.gameElement.GameElement</text>
<text text-anchor="middle" x="682" y="-67.5" font-family="Helvetica,sans-Serif" font-size="10.00">State.getNumericalAttribute</text>
</a>
</g>
</g>
<!-- Node5&#45;&gt;Node6 -->
<g id="edge5" class="edge"><title>Node5&#45;&gt;Node6</title>
<path fill="none" stroke="midnightblue" d="M513.7,-81C527.688,-81 542.035,-81 556.162,-81"/>
<polygon fill="midnightblue" stroke="midnightblue" points="556.401,-84.5001 566.401,-81 556.401,-77.5001 556.401,-84.5001"/>
</g>
<!-- Node7 -->
<g id="node7" class="node"><title>Node7</title>
<g id="a_node7"><a xlink:href="../../dc/d2d/classgame__engine_1_1game_representation_1_1state_representation_1_1game_element_1_1_game_element_state.html#a92d017656dffc9e74dabe8f016ffacd8" target="_top" xlink:title="game_engine.gameRepresentation.state\lRepresentation.gameElement.GameElement\lState.getAttribute">
<polygon fill="white" stroke="black" points="836.5,-60.5 836.5,-101.5 1067.5,-101.5 1067.5,-60.5 836.5,-60.5"/>
<text text-anchor="start" x="844.5" y="-89.5" font-family="Helvetica,sans-Serif" font-size="10.00">game_engine.gameRepresentation.state</text>
<text text-anchor="start" x="844.5" y="-78.5" font-family="Helvetica,sans-Serif" font-size="10.00">Representation.gameElement.GameElement</text>
<text text-anchor="middle" x="952" y="-67.5" font-family="Helvetica,sans-Serif" font-size="10.00">State.getAttribute</text>
</a>
</g>
</g>
<!-- Node6&#45;&gt;Node7 -->
<g id="edge6" class="edge"><title>Node6&#45;&gt;Node7</title>
<path fill="none" stroke="midnightblue" d="M797.822,-81C807.212,-81 816.731,-81 826.187,-81"/>
<polygon fill="midnightblue" stroke="midnightblue" points="826.416,-84.5001 836.416,-81 826.416,-77.5001 826.416,-84.5001"/>
</g>
<!-- Node9 -->
<g id="node9" class="node"><title>Node9</title>
<g id="a_node9"><a xlink:href="../../d1/d40/classgame__engine_1_1computers_1_1pathing_computers_1_1_map_grid.html#ae2891f9e24252b8a408986de19178a84" target="_top" xlink:title="game_engine.computers.pathing\lComputers.MapGrid.alterLocations\lInsideBounds">
<polygon fill="white" stroke="black" points="590.5,-0.5 590.5,-41.5 773.5,-41.5 773.5,-0.5 590.5,-0.5"/>
<text text-anchor="start" x="598.5" y="-29.5" font-family="Helvetica,sans-Serif" font-size="10.00">game_engine.computers.pathing</text>
<text text-anchor="start" x="598.5" y="-18.5" font-family="Helvetica,sans-Serif" font-size="10.00">Computers.MapGrid.alterLocations</text>
<text text-anchor="middle" x="682" y="-7.5" font-family="Helvetica,sans-Serif" font-size="10.00">InsideBounds</text>
</a>
</g>
</g>
<!-- Node8&#45;&gt;Node9 -->
<g id="edge8" class="edge"><title>Node8&#45;&gt;Node9</title>
<path fill="none" stroke="midnightblue" d="M495.26,-21C522.686,-21 552.632,-21 580.314,-21"/>
<polygon fill="midnightblue" stroke="midnightblue" points="580.402,-24.5001 590.402,-21 580.402,-17.5001 580.402,-24.5001"/>
</g>
</g>
</svg>
        <g id="navigator" transform="translate(0 0)" fill="#404254">
                <rect fill="#f2f5e9" fill-opacity="0.5" stroke="#606060" stroke-width=".5" x="0" y="0" width="60" height="60"/>
                <use id="zoomplus" xlink:href="#zoomPlus" x="17" y="9" onmousedown="handleZoom(evt,'in')"/>
                <use id="zoomminus" xlink:href="#zoomMin" x="42" y="9" onmousedown="handleZoom(evt,'out')"/>
                <use id="reset" xlink:href="#resetDef" x="30" y="36" onmousedown="handleReset()"/>
                <g id="arrowUp" xlink:href="#dirArrow" transform="translate(30 24)" onmousedown="handlePan(0,-1)">
                  <use xlink:href="#rim" fill="#404040">
                        <set attributeName="fill" to="#808080" begin="arrowUp.mouseover" end="arrowUp.mouseout"/>
                  </use>
                  <path fill="none" stroke="white" stroke-width="1.5" d="M0,-3.0v7 M-2.5,-0.5L0,-3.0L2.5,-0.5"/>
                </g>
                <g id="arrowRight" xlink:href="#dirArrow" transform="rotate(90) translate(36 -43)" onmousedown="handlePan(1,0)">
                  <use xlink:href="#rim" fill="#404040">
                        <set attributeName="fill" to="#808080" begin="arrowRight.mouseover" end="arrowRight.mouseout"/>
                  </use>
                  <path fill="none" stroke="white" stroke-width="1.5" d="M0,-3.0v7 M-2.5,-0.5L0,-3.0L2.5,-0.5"/>
                </g>
                <g id="arrowDown" xlink:href="#dirArrow" transform="rotate(180) translate(-30 -48)" onmousedown="handlePan(0,1)">
                  <use xlink:href="#rim" fill="#404040">
                        <set attributeName="fill" to="#808080" begin="arrowDown.mouseover" end="arrowDown.mouseout"/>
                  </use>
                  <path fill="none" stroke="white" stroke-width="1.5" d="M0,-3.0v7 M-2.5,-0.5L0,-3.0L2.5,-0.5"/>
                </g>
                <g id="arrowLeft" xlink:href="#dirArrow" transform="rotate(270) translate(-36 17)" onmousedown="handlePan(-1,0)">
                  <use xlink:href="#rim" fill="#404040">
                        <set attributeName="fill" to="#808080" begin="arrowLeft.mouseover" end="arrowLeft.mouseout"/>
                  </use>
                  <path fill="none" stroke="white" stroke-width="1.5" d="M0,-3.0v7 M-2.5,-0.5L0,-3.0L2.5,-0.5"/>
                </g>
        </g>
        <svg viewBox="0 0 15 15" width="100%" height="30px" preserveAspectRatio="xMaxYMin meet">
         <g id="arrow_out" transform="scale(0.3 0.3)">
          <a xlink:href="classgame__engine_1_1game_representation_1_1rendered_representation_1_1_level_aea765556f5b8a6fc8667a8d609790297_cgraph_org.svg" target="_base">
           <rect id="button" ry="5" rx="5" y="6" x="6" height="38" width="38"
                fill="#f2f5e9" fill-opacity="0.5" stroke="#606060" stroke-width="1.0"/>
           <path id="arrow"
             d="M 11.500037,31.436501 C 11.940474,20.09759 22.043105,11.32322 32.158766,21.979434 L 37.068811,17.246167 C 37.068811,17.246167 37.088388,32 37.088388,32 L 22.160133,31.978069 C 22.160133,31.978069 26.997745,27.140456 26.997745,27.140456 C 18.528582,18.264221 13.291696,25.230495 11.500037,31.436501 z"
             style="fill:#404040;"/>
          </a>
         </g>
        </svg>
</svg>
