<?xml version="1.0" encoding="UTF-8" standalone="no"?>
<!DOCTYPE svg PUBLIC "-//W3C//DTD SVG 1.1//EN"
 "http://www.w3.org/Graphics/SVG/1.1/DTD/svg11.dtd">
<!-- Generated by graphviz version 2.36.0 (20140111.2315)
 -->
<!-- Title: game_engine.gameRepresentation.renderedRepresentation.Level.getName Pages: 1 -->
<svg width="498pt" height="38pt"
 viewBox="0.00 0.00 498.00 38.00" xmlns="http://www.w3.org/2000/svg" xmlns:xlink="http://www.w3.org/1999/xlink">
<g id="graph0" class="graph" transform="scale(1 1) rotate(0) translate(4 34)">
<title>game_engine.gameRepresentation.renderedRepresentation.Level.getName</title>
<polygon fill="white" stroke="none" points="-4,4 -4,-34 494,-34 494,4 -4,4"/>
<!-- Node1 -->
<g id="node1" class="node"><title>Node1</title>
<polygon fill="#bfbfbf" stroke="black" points="0.5,-0 0.5,-30 231.5,-30 231.5,-0 0.5,-0"/>
<text text-anchor="start" x="8.5" y="-18" font-family="Helvetica,sans-Serif" font-size="10.00">game_engine.gameRepresentation.rendered</text>
<text text-anchor="middle" x="116" y="-7" font-family="Helvetica,sans-Serif" font-size="10.00">Representation.Level.getName</text>
</g>
<!-- Node2 -->
<g id="node2" class="node"><title>Node2</title>
<g id="a_node2"><a xlink:href="../../da/d2f/classgame__engine_1_1game_representation_1_1state_representation_1_1_describable_state.html#a9f8b1e677c899d1ab9af302a9f4854f3" target="_top" xlink:title="game_engine.gameRepresentation.state\lRepresentation.DescribableState.getName">
<polygon fill="white" stroke="black" points="268,-0 268,-30 490,-30 490,-0 268,-0"/>
<text text-anchor="start" x="276" y="-18" font-family="Helvetica,sans-Serif" font-size="10.00">game_engine.gameRepresentation.state</text>
<text text-anchor="middle" x="379" y="-7" font-family="Helvetica,sans-Serif" font-size="10.00">Representation.DescribableState.getName</text>
</a>
</g>
</g>
<!-- Node1&#45;&gt;Node2 -->
<g id="edge1" class="edge"><title>Node1&#45;&gt;Node2</title>
<path fill="none" stroke="midnightblue" d="M231.858,-15C240.41,-15 249.053,-15 257.637,-15"/>
<polygon fill="midnightblue" stroke="midnightblue" points="257.678,-18.5001 267.678,-15 257.678,-11.5001 257.678,-18.5001"/>
</g>
</g>
</svg>
