<?xml version="1.0" encoding="UTF-8" standalone="no"?>
<!DOCTYPE svg PUBLIC "-//W3C//DTD SVG 1.1//EN"
 "http://www.w3.org/Graphics/SVG/1.1/DTD/svg11.dtd">
<!-- Generated by graphviz version 2.36.0 (20140111.2315)
 -->
<!-- Title: game_engine.gameRepresentation.renderedRepresentation.Level.getUnits Pages: 1 -->
<!--zoomable 343 -->
<svg id="main" version="1.1" xmlns="http://www.w3.org/2000/svg" xmlns:xlink="http://www.w3.org/1999/xlink" xml:space="preserve" onload="init(evt)">
<style type="text/css"><![CDATA[
.edge:hover path { stroke: red; }
.edge:hover polygon { stroke: red; fill: red; }
]]></style>
<script type="text/javascript"><![CDATA[
var edges = document.getElementsByTagName('g');
if (edges && edges.length) {
  for (var i=0;i<edges.length;i++) {
    if (edges[i].id.substr(0,4)=='edge') {
      edges[i].setAttribute('class','edge');
    }
  }
}
]]></script>
        <defs>
                <circle id="rim" cx="0" cy="0" r="7"/>
                <circle id="rim2" cx="0" cy="0" r="3.5"/>
                <g id="zoomPlus">
                        <use xlink:href="#rim" fill="#404040">
                                <set attributeName="fill" to="#808080" begin="zoomplus.mouseover" end="zoomplus.mouseout"/>
                        </use>
                        <path d="M-4,0h8M0,-4v8" fill="none" stroke="white" stroke-width="1.5" pointer-events="none"/>
                </g>
                <g id="zoomMin">
                        <use xlink:href="#rim" fill="#404040">
                                <set attributeName="fill" to="#808080" begin="zoomminus.mouseover" end="zoomminus.mouseout"/>
                        </use>
                        <path d="M-4,0h8" fill="none" stroke="white" stroke-width="1.5" pointer-events="none"/>
                </g>
                <g id="dirArrow">
                        <path fill="none" stroke="white" stroke-width="1.5" d="M0,-3.0v7 M-2.5,-0.5L0,-3.0L2.5,-0.5"/>
                </g>
               <g id="resetDef">
                       <use xlink:href="#rim2" fill="#404040">
                               <set attributeName="fill" to="#808080" begin="reset.mouseover" end="reset.mouseout"/>
                       </use>
               </g>
        </defs>

<script type="text/javascript">
var viewWidth = 858;
var viewHeight = 343;
var sectionId = 'dynsection-7';
</script>
<script xlink:href="../../svgpan.js"/>
<svg id="graph" class="graph">
<g id="viewport">
<title>game_engine.gameRepresentation.renderedRepresentation.Level.getUnits</title>
<polygon fill="white" stroke="none" points="-4,4 -4,-339 854,-339 854,4 -4,4"/>
<!-- Node1 -->
<g id="node1" class="node"><title>Node1</title>
<polygon fill="#bfbfbf" stroke="black" points="0.5,-163 0.5,-193 231.5,-193 231.5,-163 0.5,-163"/>
<text text-anchor="start" x="8.5" y="-181" font-family="Helvetica,sans-Serif" font-size="10.00">game_engine.gameRepresentation.rendered</text>
<text text-anchor="middle" x="116" y="-170" font-family="Helvetica,sans-Serif" font-size="10.00">Representation.Level.getUnits</text>
</g>
<!-- Node2 -->
<g id="node2" class="node"><title>Node2</title>
<g id="a_node2"><a xlink:href="../../d7/daf/classgame__engine_1_1state_managing_1_1_game_loop.html#a784a1fcd5f20c3cf0677c388291a9f06" target="_top" xlink:title="game_engine.stateManaging.\lGameLoop.addColisionEvents">
<polygon fill="white" stroke="black" points="291.5,-305 291.5,-335 450.5,-335 450.5,-305 291.5,-305"/>
<text text-anchor="start" x="299.5" y="-323" font-family="Helvetica,sans-Serif" font-size="10.00">game_engine.stateManaging.</text>
<text text-anchor="middle" x="371" y="-312" font-family="Helvetica,sans-Serif" font-size="10.00">GameLoop.addColisionEvents</text>
</a>
</g>
</g>
<!-- Node1&#45;&gt;Node2 -->
<g id="edge1" class="edge"><title>Node1&#45;&gt;Node2</title>
<path fill="none" stroke="midnightblue" d="M139.03,-200.008C166.754,-226.46 216.951,-270.354 268,-295 275.963,-298.845 284.57,-302.13 293.291,-304.929"/>
<polygon fill="midnightblue" stroke="midnightblue" points="141.446,-197.476 131.824,-193.041 136.58,-202.508 141.446,-197.476"/>
</g>
<!-- Node4 -->
<g id="node4" class="node"><title>Node4</title>
<g id="a_node4"><a xlink:href="../../d7/daf/classgame__engine_1_1state_managing_1_1_game_loop.html#a2da64cd98f947791cfe005aae29423f8" target="_top" xlink:title="game_engine.stateManaging.\lGameLoop.addPathsToRoot">
<polygon fill="white" stroke="black" points="291.5,-256 291.5,-286 450.5,-286 450.5,-256 291.5,-256"/>
<text text-anchor="start" x="299.5" y="-274" font-family="Helvetica,sans-Serif" font-size="10.00">game_engine.stateManaging.</text>
<text text-anchor="middle" x="371" y="-263" font-family="Helvetica,sans-Serif" font-size="10.00">GameLoop.addPathsToRoot</text>
</a>
</g>
</g>
<!-- Node1&#45;&gt;Node4 -->
<g id="edge3" class="edge"><title>Node1&#45;&gt;Node4</title>
<path fill="none" stroke="midnightblue" d="M159.497,-197.194C189.49,-210.378 230.796,-227.812 268,-241 283.049,-246.334 299.574,-251.489 314.858,-255.976"/>
<polygon fill="midnightblue" stroke="midnightblue" points="160.737,-193.916 150.176,-193.074 157.907,-200.318 160.737,-193.916"/>
</g>
<!-- Node5 -->
<g id="node5" class="node"><title>Node5</title>
<g id="a_node5"><a xlink:href="../../d7/daf/classgame__engine_1_1state_managing_1_1_game_loop.html#a89e88e780a439bea36f51d90d5cbca4a" target="_top" xlink:title="game_engine.stateManaging.\lGameLoop.update">
<polygon fill="white" stroke="black" points="600.5,-234 600.5,-264 759.5,-264 759.5,-234 600.5,-234"/>
<text text-anchor="start" x="608.5" y="-252" font-family="Helvetica,sans-Serif" font-size="10.00">game_engine.stateManaging.</text>
<text text-anchor="middle" x="680" y="-241" font-family="Helvetica,sans-Serif" font-size="10.00">GameLoop.update</text>
</a>
</g>
</g>
<!-- Node1&#45;&gt;Node5 -->
<g id="edge13" class="edge"><title>Node1&#45;&gt;Node5</title>
<path fill="none" stroke="midnightblue" d="M198.091,-194.933C220.657,-199.274 245.223,-203.656 268,-207 383.14,-223.906 517.425,-236.253 600.337,-243.029"/>
<polygon fill="midnightblue" stroke="midnightblue" points="198.701,-191.486 188.216,-193.011 197.364,-198.357 198.701,-191.486"/>
</g>
<!-- Node6 -->
<g id="node6" class="node"><title>Node6</title>
<g id="a_node6"><a xlink:href="../../dd/de3/classgame__engine_1_1state_managing_1_1_game_element_manager.html#a0fa66521394ca3793ed3123689e9bf50" target="_top" xlink:title="game_engine.stateManaging.\lGameElementManager.findAllElements\lOfType">
<polygon fill="white" stroke="black" points="269.5,-157.5 269.5,-198.5 472.5,-198.5 472.5,-157.5 269.5,-157.5"/>
<text text-anchor="start" x="277.5" y="-186.5" font-family="Helvetica,sans-Serif" font-size="10.00">game_engine.stateManaging.</text>
<text text-anchor="start" x="277.5" y="-175.5" font-family="Helvetica,sans-Serif" font-size="10.00">GameElementManager.findAllElements</text>
<text text-anchor="middle" x="371" y="-164.5" font-family="Helvetica,sans-Serif" font-size="10.00">OfType</text>
</a>
</g>
</g>
<!-- Node1&#45;&gt;Node6 -->
<g id="edge5" class="edge"><title>Node1&#45;&gt;Node6</title>
<path fill="none" stroke="midnightblue" d="M241.682,-178C250.934,-178 260.2,-178 269.281,-178"/>
<polygon fill="midnightblue" stroke="midnightblue" points="241.656,-174.5 231.656,-178 241.656,-181.5 241.656,-174.5"/>
</g>
<!-- Node8 -->
<g id="node8" class="node"><title>Node8</title>
<g id="a_node8"><a xlink:href="../../dd/de3/classgame__engine_1_1state_managing_1_1_game_element_manager.html#ab4f320b0f025e6b982af9b528ae58798" target="_top" xlink:title="game_engine.stateManaging.\lGameElementManager.selectUnitsBox">
<polygon fill="white" stroke="black" points="270.5,-109 270.5,-139 471.5,-139 471.5,-109 270.5,-109"/>
<text text-anchor="start" x="278.5" y="-127" font-family="Helvetica,sans-Serif" font-size="10.00">game_engine.stateManaging.</text>
<text text-anchor="middle" x="371" y="-116" font-family="Helvetica,sans-Serif" font-size="10.00">GameElementManager.selectUnitsBox</text>
</a>
</g>
</g>
<!-- Node1&#45;&gt;Node8 -->
<g id="edge7" class="edge"><title>Node1&#45;&gt;Node8</title>
<path fill="none" stroke="midnightblue" d="M197.48,-160.823C230.249,-153.828 267.789,-145.816 299.465,-139.055"/>
<polygon fill="midnightblue" stroke="midnightblue" points="196.524,-157.448 187.475,-162.958 197.985,-164.293 196.524,-157.448"/>
</g>
<!-- Node10 -->
<g id="node10" class="node"><title>Node10</title>
<g id="a_node10"><a xlink:href="../../dd/de3/classgame__engine_1_1state_managing_1_1_game_element_manager.html#a42ab90ae394bc73574cbedc2a029fa48" target="_top" xlink:title="game_engine.stateManaging.\lGameElementManager.selectUnitsClick">
<polygon fill="white" stroke="black" points="268.5,-60 268.5,-90 473.5,-90 473.5,-60 268.5,-60"/>
<text text-anchor="start" x="276.5" y="-78" font-family="Helvetica,sans-Serif" font-size="10.00">game_engine.stateManaging.</text>
<text text-anchor="middle" x="371" y="-67" font-family="Helvetica,sans-Serif" font-size="10.00">GameElementManager.selectUnitsClick</text>
</a>
</g>
</g>
<!-- Node1&#45;&gt;Node10 -->
<g id="edge9" class="edge"><title>Node1&#45;&gt;Node10</title>
<path fill="none" stroke="midnightblue" d="M149.97,-157.653C179.836,-139.984 225.537,-114.816 268,-99 276.95,-95.6663 286.519,-92.6906 296.077,-90.0662"/>
<polygon fill="midnightblue" stroke="midnightblue" points="148.018,-154.741 141.23,-162.876 151.61,-160.75 148.018,-154.741"/>
</g>
<!-- Node11 -->
<g id="node11" class="node"><title>Node11</title>
<g id="a_node11"><a xlink:href="../../dd/de3/classgame__engine_1_1state_managing_1_1_game_element_manager.html#ab6a7f15f554eeee4c861d5e5e7fcddd5" target="_top" xlink:title="game_engine.stateManaging.\lGameElementManager.sendClickTo\lSelectedUnits">
<polygon fill="white" stroke="black" points="278.5,-0.5 278.5,-41.5 463.5,-41.5 463.5,-0.5 278.5,-0.5"/>
<text text-anchor="start" x="286.5" y="-29.5" font-family="Helvetica,sans-Serif" font-size="10.00">game_engine.stateManaging.</text>
<text text-anchor="start" x="286.5" y="-18.5" font-family="Helvetica,sans-Serif" font-size="10.00">GameElementManager.sendClickTo</text>
<text text-anchor="middle" x="371" y="-7.5" font-family="Helvetica,sans-Serif" font-size="10.00">SelectedUnits</text>
</a>
</g>
</g>
<!-- Node1&#45;&gt;Node11 -->
<g id="edge11" class="edge"><title>Node1&#45;&gt;Node11</title>
<path fill="none" stroke="midnightblue" d="M137.467,-155.517C164.634,-126.979 215.34,-78.0934 268,-50 273.848,-46.8804 280.068,-44.0647 286.44,-41.5292"/>
<polygon fill="midnightblue" stroke="midnightblue" points="134.741,-153.307 130.447,-162.992 139.844,-158.099 134.741,-153.307"/>
</g>
<!-- Node3 -->
<g id="node3" class="node"><title>Node3</title>
<g id="a_node3"><a xlink:href="../../d7/daf/classgame__engine_1_1state_managing_1_1_game_loop.html#a14409f068a285912ad308dd142315814" target="_top" xlink:title="game_engine.stateManaging.\lGameLoop.GameLoop">
<polygon fill="white" stroke="black" points="600.5,-305 600.5,-335 759.5,-335 759.5,-305 600.5,-305"/>
<text text-anchor="start" x="608.5" y="-323" font-family="Helvetica,sans-Serif" font-size="10.00">game_engine.stateManaging.</text>
<text text-anchor="middle" x="680" y="-312" font-family="Helvetica,sans-Serif" font-size="10.00">GameLoop.GameLoop</text>
</a>
</g>
</g>
<!-- Node2&#45;&gt;Node3 -->
<g id="edge2" class="edge"><title>Node2&#45;&gt;Node3</title>
<path fill="none" stroke="midnightblue" d="M460.794,-320C504.871,-320 557.662,-320 600.277,-320"/>
<polygon fill="midnightblue" stroke="midnightblue" points="460.662,-316.5 450.661,-320 460.661,-323.5 460.662,-316.5"/>
</g>
<!-- Node4&#45;&gt;Node5 -->
<g id="edge4" class="edge"><title>Node4&#45;&gt;Node5</title>
<path fill="none" stroke="midnightblue" d="M460.794,-264.637C504.871,-261.478 557.662,-257.695 600.277,-254.641"/>
<polygon fill="midnightblue" stroke="midnightblue" points="460.386,-261.157 450.661,-265.363 460.886,-268.139 460.386,-261.157"/>
</g>
<!-- Node7 -->
<g id="node7" class="node"><title>Node7</title>
<g id="a_node7"><a xlink:href="../../dc/d3f/classgame__engine_1_1game_representation_1_1evaluatables_1_1parameters_1_1object_identifiers_1_1_global_object_identifier.html#af0d94fdf909d63102ea99b0923455ef0" target="_top" xlink:title="game_engine.gameRepresentation.evaluatables.parameters.object\lIdentifiers.GlobalObjectIdentifier.getElementOfInterest">
<polygon fill="white" stroke="black" points="510,-163 510,-193 850,-193 850,-163 510,-163"/>
<text text-anchor="start" x="518" y="-181" font-family="Helvetica,sans-Serif" font-size="10.00">game_engine.gameRepresentation.evaluatables.parameters.object</text>
<text text-anchor="middle" x="680" y="-170" font-family="Helvetica,sans-Serif" font-size="10.00">Identifiers.GlobalObjectIdentifier.getElementOfInterest</text>
</a>
</g>
</g>
<!-- Node6&#45;&gt;Node7 -->
<g id="edge6" class="edge"><title>Node6&#45;&gt;Node7</title>
<path fill="none" stroke="midnightblue" d="M482.526,-178C491.471,-178 500.628,-178 509.862,-178"/>
<polygon fill="midnightblue" stroke="midnightblue" points="482.523,-174.5 472.523,-178 482.523,-181.5 482.523,-174.5"/>
</g>
<!-- Node9 -->
<g id="node9" class="node"><title>Node9</title>
<g id="a_node9"><a xlink:href="../../dd/de3/classgame__engine_1_1state_managing_1_1_game_element_manager.html#aa5343ba444c194f0a7427a68b69bb50b" target="_top" xlink:title="game_engine.stateManaging.\lGameElementManager.update">
<polygon fill="white" stroke="black" points="598,-60 598,-90 762,-90 762,-60 598,-60"/>
<text text-anchor="start" x="606" y="-78" font-family="Helvetica,sans-Serif" font-size="10.00">game_engine.stateManaging.</text>
<text text-anchor="middle" x="680" y="-67" font-family="Helvetica,sans-Serif" font-size="10.00">GameElementManager.update</text>
</a>
</g>
</g>
<!-- Node8&#45;&gt;Node9 -->
<g id="edge8" class="edge"><title>Node8&#45;&gt;Node9</title>
<path fill="none" stroke="midnightblue" d="M476.191,-107.37C515.951,-101.024 560.65,-93.8898 597.945,-87.9371"/>
<polygon fill="midnightblue" stroke="midnightblue" points="475.52,-103.933 466.196,-108.965 476.623,-110.845 475.52,-103.933"/>
</g>
<!-- Node10&#45;&gt;Node9 -->
<g id="edge10" class="edge"><title>Node10&#45;&gt;Node9</title>
<path fill="none" stroke="midnightblue" d="M483.824,-75C521.566,-75 562.945,-75 597.852,-75"/>
<polygon fill="midnightblue" stroke="midnightblue" points="483.8,-71.5001 473.8,-75 483.8,-78.5001 483.8,-71.5001"/>
</g>
<!-- Node11&#45;&gt;Node9 -->
<g id="edge12" class="edge"><title>Node11&#45;&gt;Node9</title>
<path fill="none" stroke="midnightblue" d="M473.571,-38.8658C513.977,-45.9731 559.825,-54.0376 597.941,-60.742"/>
<polygon fill="midnightblue" stroke="midnightblue" points="474.149,-35.414 463.694,-37.1286 472.937,-42.3082 474.149,-35.414"/>
</g>
</g>
</svg>
        <g id="navigator" transform="translate(0 0)" fill="#404254">
                <rect fill="#f2f5e9" fill-opacity="0.5" stroke="#606060" stroke-width=".5" x="0" y="0" width="60" height="60"/>
                <use id="zoomplus" xlink:href="#zoomPlus" x="17" y="9" onmousedown="handleZoom(evt,'in')"/>
                <use id="zoomminus" xlink:href="#zoomMin" x="42" y="9" onmousedown="handleZoom(evt,'out')"/>
                <use id="reset" xlink:href="#resetDef" x="30" y="36" onmousedown="handleReset()"/>
                <g id="arrowUp" xlink:href="#dirArrow" transform="translate(30 24)" onmousedown="handlePan(0,-1)">
                  <use xlink:href="#rim" fill="#404040">
                        <set attributeName="fill" to="#808080" begin="arrowUp.mouseover" end="arrowUp.mouseout"/>
                  </use>
                  <path fill="none" stroke="white" stroke-width="1.5" d="M0,-3.0v7 M-2.5,-0.5L0,-3.0L2.5,-0.5"/>
                </g>
                <g id="arrowRight" xlink:href="#dirArrow" transform="rotate(90) translate(36 -43)" onmousedown="handlePan(1,0)">
                  <use xlink:href="#rim" fill="#404040">
                        <set attributeName="fill" to="#808080" begin="arrowRight.mouseover" end="arrowRight.mouseout"/>
                  </use>
                  <path fill="none" stroke="white" stroke-width="1.5" d="M0,-3.0v7 M-2.5,-0.5L0,-3.0L2.5,-0.5"/>
                </g>
                <g id="arrowDown" xlink:href="#dirArrow" transform="rotate(180) translate(-30 -48)" onmousedown="handlePan(0,1)">
                  <use xlink:href="#rim" fill="#404040">
                        <set attributeName="fill" to="#808080" begin="arrowDown.mouseover" end="arrowDown.mouseout"/>
                  </use>
                  <path fill="none" stroke="white" stroke-width="1.5" d="M0,-3.0v7 M-2.5,-0.5L0,-3.0L2.5,-0.5"/>
                </g>
                <g id="arrowLeft" xlink:href="#dirArrow" transform="rotate(270) translate(-36 17)" onmousedown="handlePan(-1,0)">
                  <use xlink:href="#rim" fill="#404040">
                        <set attributeName="fill" to="#808080" begin="arrowLeft.mouseover" end="arrowLeft.mouseout"/>
                  </use>
                  <path fill="none" stroke="white" stroke-width="1.5" d="M0,-3.0v7 M-2.5,-0.5L0,-3.0L2.5,-0.5"/>
                </g>
        </g>
        <svg viewBox="0 0 15 15" width="100%" height="30px" preserveAspectRatio="xMaxYMin meet">
         <g id="arrow_out" transform="scale(0.3 0.3)">
          <a xlink:href="classgame__engine_1_1game_representation_1_1rendered_representation_1_1_level_aa67a1a8267a8a14c33e69cd4a655989c_icgraph_org.svg" target="_base">
           <rect id="button" ry="5" rx="5" y="6" x="6" height="38" width="38"
                fill="#f2f5e9" fill-opacity="0.5" stroke="#606060" stroke-width="1.0"/>
           <path id="arrow"
             d="M 11.500037,31.436501 C 11.940474,20.09759 22.043105,11.32322 32.158766,21.979434 L 37.068811,17.246167 C 37.068811,17.246167 37.088388,32 37.088388,32 L 22.160133,31.978069 C 22.160133,31.978069 26.997745,27.140456 26.997745,27.140456 C 18.528582,18.264221 13.291696,25.230495 11.500037,31.436501 z"
             style="fill:#404040;"/>
          </a>
         </g>
        </svg>
</svg>
