<?xml version="1.0" encoding="UTF-8" standalone="no"?>
<!DOCTYPE svg PUBLIC "-//W3C//DTD SVG 1.1//EN"
 "http://www.w3.org/Graphics/SVG/1.1/DTD/svg11.dtd">
<!-- Generated by graphviz version 2.36.0 (20140111.2315)
 -->
<!-- Title: editor.DescribableInfoBoxController.setText Pages: 1 -->
<svg width="692pt" height="82pt"
 viewBox="0.00 0.00 692.00 82.00" xmlns="http://www.w3.org/2000/svg" xmlns:xlink="http://www.w3.org/1999/xlink">
<g id="graph0" class="graph" transform="scale(1 1) rotate(0) translate(4 78)">
<title>editor.DescribableInfoBoxController.setText</title>
<polygon fill="white" stroke="none" points="-4,4 -4,-78 688,-78 688,4 -4,4"/>
<!-- Node1 -->
<g id="node1" class="node"><title>Node1</title>
<polygon fill="#bfbfbf" stroke="black" points="0,-22 0,-52 138,-52 138,-22 0,-22"/>
<text text-anchor="start" x="8" y="-40" font-family="Helvetica,sans-Serif" font-size="10.00">editor.DescribableInfoBox</text>
<text text-anchor="middle" x="69" y="-29" font-family="Helvetica,sans-Serif" font-size="10.00">Controller.setText</text>
</g>
<!-- Node2 -->
<g id="node2" class="node"><title>Node2</title>
<g id="a_node2"><a xlink:href="../../dc/d5c/classeditor_1_1_editor_screen.html#a9280fc6d569014016e800182e893f540" target="_top" xlink:title="editor.EditorScreen.update\lInfoBox">
<polygon fill="white" stroke="black" points="174.5,-22 174.5,-52 319.5,-52 319.5,-22 174.5,-22"/>
<text text-anchor="start" x="182.5" y="-40" font-family="Helvetica,sans-Serif" font-size="10.00">editor.EditorScreen.update</text>
<text text-anchor="middle" x="247" y="-29" font-family="Helvetica,sans-Serif" font-size="10.00">InfoBox</text>
</a>
</g>
</g>
<!-- Node1&#45;&gt;Node2 -->
<g id="edge1" class="edge"><title>Node1&#45;&gt;Node2</title>
<path fill="none" stroke="midnightblue" d="M148.186,-37C156.892,-37 165.728,-37 174.348,-37"/>
<polygon fill="midnightblue" stroke="midnightblue" points="148.046,-33.5001 138.046,-37 148.046,-40.5001 148.046,-33.5001"/>
</g>
<!-- Node3 -->
<g id="node3" class="node"><title>Node3</title>
<g id="a_node3"><a xlink:href="../../dc/d5c/classeditor_1_1_editor_screen.html#a6e24378bdf2713de4dbc530d63d5782e" target="_top" xlink:title="editor.EditorScreen.init\lProjectExplorer">
<polygon fill="white" stroke="black" points="366.5,-44 366.5,-74 491.5,-74 491.5,-44 366.5,-44"/>
<text text-anchor="start" x="374.5" y="-62" font-family="Helvetica,sans-Serif" font-size="10.00">editor.EditorScreen.init</text>
<text text-anchor="middle" x="429" y="-51" font-family="Helvetica,sans-Serif" font-size="10.00">ProjectExplorer</text>
</a>
</g>
</g>
<!-- Node2&#45;&gt;Node3 -->
<g id="edge2" class="edge"><title>Node2&#45;&gt;Node3</title>
<path fill="none" stroke="midnightblue" d="M329.912,-47.0114C342.2,-48.5133 354.69,-50.0399 366.457,-51.4781"/>
<polygon fill="midnightblue" stroke="midnightblue" points="330.009,-43.4973 319.658,-45.7582 329.159,-50.4456 330.009,-43.4973"/>
</g>
<!-- Node5 -->
<g id="node5" class="node"><title>Node5</title>
<g id="a_node5"><a xlink:href="../../dc/d5c/classeditor_1_1_editor_screen.html#ae17f78235329632f2090fdfb7b358a66" target="_top" xlink:title="editor.EditorScreen.update">
<polygon fill="white" stroke="black" points="356.5,-5.5 356.5,-24.5 501.5,-24.5 501.5,-5.5 356.5,-5.5"/>
<text text-anchor="middle" x="429" y="-12.5" font-family="Helvetica,sans-Serif" font-size="10.00">editor.EditorScreen.update</text>
</a>
</g>
</g>
<!-- Node2&#45;&gt;Node5 -->
<g id="edge4" class="edge"><title>Node2&#45;&gt;Node5</title>
<path fill="none" stroke="midnightblue" d="M329.634,-27.0225C338.528,-25.9354 347.532,-24.835 356.295,-23.764"/>
<polygon fill="midnightblue" stroke="midnightblue" points="329.159,-23.5544 319.658,-28.2418 330.009,-30.5027 329.159,-23.5544"/>
</g>
<!-- Node4 -->
<g id="node4" class="node"><title>Node4</title>
<g id="a_node4"><a xlink:href="../../dc/d5c/classeditor_1_1_editor_screen.html#a85668e9b3fd80cec58fa6b207854e588" target="_top" xlink:title="editor.EditorScreen.init">
<polygon fill="white" stroke="black" points="548.5,-49.5 548.5,-68.5 673.5,-68.5 673.5,-49.5 548.5,-49.5"/>
<text text-anchor="middle" x="611" y="-56.5" font-family="Helvetica,sans-Serif" font-size="10.00">editor.EditorScreen.init</text>
</a>
</g>
</g>
<!-- Node3&#45;&gt;Node4 -->
<g id="edge3" class="edge"><title>Node3&#45;&gt;Node4</title>
<path fill="none" stroke="midnightblue" d="M501.717,-59C517.165,-59 533.364,-59 548.387,-59"/>
<polygon fill="midnightblue" stroke="midnightblue" points="501.694,-55.5001 491.694,-59 501.694,-62.5001 501.694,-55.5001"/>
</g>
<!-- Node6 -->
<g id="node6" class="node"><title>Node6</title>
<g id="a_node6"><a xlink:href="../../dc/d5c/classeditor_1_1_editor_screen.html#a13378a8f469be9b38ba16457a64b7e9a" target="_top" xlink:title="editor.EditorScreen.update\lTabViewControllers">
<polygon fill="white" stroke="black" points="538.5,-0 538.5,-30 683.5,-30 683.5,-0 538.5,-0"/>
<text text-anchor="start" x="546.5" y="-18" font-family="Helvetica,sans-Serif" font-size="10.00">editor.EditorScreen.update</text>
<text text-anchor="middle" x="611" y="-7" font-family="Helvetica,sans-Serif" font-size="10.00">TabViewControllers</text>
</a>
</g>
</g>
<!-- Node5&#45;&gt;Node6 -->
<g id="edge5" class="edge"><title>Node5&#45;&gt;Node6</title>
<path fill="none" stroke="midnightblue" d="M511.921,-8.27423C520.722,-8.22131 529.626,-8.25507 538.295,-8.37551"/>
<polygon fill="midnightblue" stroke="midnightblue" points="511.623,-4.77693 501.658,-8.37617 511.692,-11.7766 511.623,-4.77693"/>
</g>
<!-- Node6&#45;&gt;Node5 -->
<g id="edge6" class="edge"><title>Node6&#45;&gt;Node5</title>
<path fill="none" stroke="midnightblue" d="M528.031,-21.7261C519.23,-21.7787 510.325,-21.7446 501.658,-21.6238"/>
<polygon fill="midnightblue" stroke="midnightblue" points="528.33,-25.2234 538.295,-21.6245 528.26,-18.2237 528.33,-25.2234"/>
</g>
</g>
</svg>
