<?xml version="1.0" encoding="UTF-8" standalone="no"?>
<!DOCTYPE svg PUBLIC "-//W3C//DTD SVG 1.1//EN"
 "http://www.w3.org/Graphics/SVG/1.1/DTD/svg11.dtd">
<!-- Generated by graphviz version 2.36.0 (20140111.2315)
 -->
<!-- Title: view.editor.LevelTriggersViewController Pages: 1 -->
<svg width="572pt" height="118pt"
 viewBox="0.00 0.00 572.00 118.00" xmlns="http://www.w3.org/2000/svg" xmlns:xlink="http://www.w3.org/1999/xlink">
<g id="graph0" class="graph" transform="scale(1 1) rotate(0) translate(4 114)">
<title>view.editor.LevelTriggersViewController</title>
<polygon fill="white" stroke="none" points="-4,4 -4,-114 568,-114 568,4 -4,4"/>
<!-- Node1 -->
<g id="node1" class="node"><title>Node1</title>
<polygon fill="#bfbfbf" stroke="black" points="200.5,-1 200.5,-31 331.5,-31 331.5,-1 200.5,-1"/>
<text text-anchor="start" x="208.5" y="-19" font-family="Helvetica,sans-Serif" font-size="10.00">view.editor.LevelTriggers</text>
<text text-anchor="middle" x="266" y="-8" font-family="Helvetica,sans-Serif" font-size="10.00">ViewController</text>
</g>
<!-- Node2 -->
<g id="node2" class="node"><title>Node2</title>
<g id="a_node2"><a xlink:href="../../d5/d13/interfaceview_1_1gui_1_1_g_u_i_controller.html" target="_top" xlink:title="view.gui.GUIController">
<polygon fill="white" stroke="black" points="0,-90.5 0,-109.5 120,-109.5 120,-90.5 0,-90.5"/>
<text text-anchor="middle" x="60" y="-97.5" font-family="Helvetica,sans-Serif" font-size="10.00">view.gui.GUIController</text>
</a>
</g>
</g>
<!-- Node2&#45;&gt;Node1 -->
<g id="edge1" class="edge"><title>Node2&#45;&gt;Node1</title>
<path fill="none" stroke="midnightblue" d="M84.6066,-85.6197C104.559,-75.0952 133.602,-60.5042 160,-50 177.729,-42.9452 197.598,-36.4116 215.301,-31.0513"/>
<polygon fill="midnightblue" stroke="midnightblue" points="82.7716,-82.6315 75.5932,-90.4239 86.0642,-88.8088 82.7716,-82.6315"/>
</g>
<!-- Node3 -->
<g id="node3" class="node"><title>Node3</title>
<polygon fill="white" stroke="#bfbfbf" points="138.5,-90.5 138.5,-109.5 179.5,-109.5 179.5,-90.5 138.5,-90.5"/>
<text text-anchor="middle" x="159" y="-97.5" font-family="Helvetica,sans-Serif" font-size="10.00">VBox</text>
</g>
<!-- Node3&#45;&gt;Node1 -->
<g id="edge2" class="edge"><title>Node3&#45;&gt;Node1</title>
<path fill="none" stroke="#9a32cd" stroke-dasharray="5,2" d="M161.105,-80.2678C163.138,-70.157 167.137,-58.1208 175,-50 182.832,-41.9108 192.798,-35.7955 203.244,-31.1748"/>
<polygon fill="#9a32cd" stroke="#9a32cd" points="157.637,-79.7918 159.579,-90.207 164.556,-80.8537 157.637,-79.7918"/>
<text text-anchor="middle" x="217" y="-58.5" font-family="Helvetica,sans-Serif" font-size="10.00"> levelTriggersView</text>
</g>
<!-- Node4 -->
<g id="node4" class="node"><title>Node4</title>
<polygon fill="white" stroke="#bfbfbf" points="235.5,-90.5 235.5,-109.5 284.5,-109.5 284.5,-90.5 235.5,-90.5"/>
<text text-anchor="middle" x="260" y="-97.5" font-family="Helvetica,sans-Serif" font-size="10.00">Button</text>
</g>
<!-- Node4&#45;&gt;Node1 -->
<g id="edge3" class="edge"><title>Node4&#45;&gt;Node1</title>
<path fill="none" stroke="#9a32cd" stroke-dasharray="5,2" d="M261.382,-80.1139C262.473,-65.2014 263.972,-44.7195 264.962,-31.1839"/>
<polygon fill="#9a32cd" stroke="#9a32cd" points="257.881,-79.9958 260.642,-90.2246 264.863,-80.5067 257.881,-79.9958"/>
<text text-anchor="middle" x="302" y="-64" font-family="Helvetica,sans-Serif" font-size="10.00"> deleteTrigger</text>
<text text-anchor="middle" x="302" y="-53" font-family="Helvetica,sans-Serif" font-size="10.00">newLevelTrigger</text>
</g>
<!-- Node5 -->
<g id="node5" class="node"><title>Node5</title>
<polygon fill="white" stroke="#bfbfbf" points="303,-90.5 303,-109.5 441,-109.5 441,-90.5 303,-90.5"/>
<text text-anchor="middle" x="372" y="-97.5" font-family="Helvetica,sans-Serif" font-size="10.00">ObservableList&lt; String &gt;</text>
</g>
<!-- Node5&#45;&gt;Node1 -->
<g id="edge4" class="edge"><title>Node5&#45;&gt;Node1</title>
<path fill="none" stroke="#9a32cd" stroke-dasharray="5,2" d="M365.143,-80.982C360.489,-70.7671 353.453,-58.3905 344,-50 335.093,-42.0936 324.013,-35.8868 313.028,-31.0955"/>
<polygon fill="#9a32cd" stroke="#9a32cd" points="361.928,-82.3648 369.005,-90.2487 368.389,-79.6718 361.928,-82.3648"/>
<text text-anchor="middle" x="394.5" y="-58.5" font-family="Helvetica,sans-Serif" font-size="10.00"> myTriggerList</text>
</g>
<!-- Node6 -->
<g id="node6" class="node"><title>Node6</title>
<polygon fill="white" stroke="#bfbfbf" points="459,-90.5 459,-109.5 565,-109.5 565,-90.5 459,-90.5"/>
<text text-anchor="middle" x="512" y="-97.5" font-family="Helvetica,sans-Serif" font-size="10.00">ListView&lt; String &gt;</text>
</g>
<!-- Node6&#45;&gt;Node1 -->
<g id="edge5" class="edge"><title>Node6&#45;&gt;Node1</title>
<path fill="none" stroke="#9a32cd" stroke-dasharray="5,2" d="M492.472,-84.308C476.88,-73.2723 454.062,-58.6307 432,-50 400.121,-37.5289 362.879,-29.5742 331.757,-24.6081"/>
<polygon fill="#9a32cd" stroke="#9a32cd" points="490.607,-87.2792 500.758,-90.3164 494.717,-81.6123 490.607,-87.2792"/>
<text text-anchor="middle" x="504" y="-58.5" font-family="Helvetica,sans-Serif" font-size="10.00"> levelTriggers</text>
</g>
</g>
</svg>
