<?xml version="1.0" encoding="UTF-8" standalone="no"?>
<!DOCTYPE svg PUBLIC "-//W3C//DTD SVG 1.1//EN"
 "http://www.w3.org/Graphics/SVG/1.1/DTD/svg11.dtd">
<!-- Generated by graphviz version 2.36.0 (20140111.2315)
 -->
<!-- Title: game_engine.gameRepresentation.renderedRepresentation.DrawableGameElement.getBounds Pages: 1 -->
<svg width="536pt" height="38pt"
 viewBox="0.00 0.00 536.00 38.00" xmlns="http://www.w3.org/2000/svg" xmlns:xlink="http://www.w3.org/1999/xlink">
<g id="graph0" class="graph" transform="scale(1 1) rotate(0) translate(4 34)">
<title>game_engine.gameRepresentation.renderedRepresentation.DrawableGameElement.getBounds</title>
<polygon fill="white" stroke="none" points="-4,4 -4,-34 532,-34 532,4 -4,4"/>
<!-- Node1 -->
<g id="node1" class="node"><title>Node1</title>
<polygon fill="#bfbfbf" stroke="black" points="0,-0 0,-30 260,-30 260,-0 0,-0"/>
<text text-anchor="start" x="8" y="-18" font-family="Helvetica,sans-Serif" font-size="10.00">game_engine.gameRepresentation.rendered</text>
<text text-anchor="middle" x="130" y="-7" font-family="Helvetica,sans-Serif" font-size="10.00">Representation.DrawableGameElement.getBounds</text>
</g>
<!-- Node2 -->
<g id="node2" class="node"><title>Node2</title>
<g id="a_node2"><a xlink:href="../../d5/d35/classgame__engine_1_1game_representation_1_1rendered_representation_1_1_level.html#ade4a38082bbb864c8b217e9e49b9fccd" target="_top" xlink:title="game_engine.gameRepresentation.rendered\lRepresentation.Level.addElement">
<polygon fill="white" stroke="black" points="296.5,-0 296.5,-30 527.5,-30 527.5,-0 296.5,-0"/>
<text text-anchor="start" x="304.5" y="-18" font-family="Helvetica,sans-Serif" font-size="10.00">game_engine.gameRepresentation.rendered</text>
<text text-anchor="middle" x="412" y="-7" font-family="Helvetica,sans-Serif" font-size="10.00">Representation.Level.addElement</text>
</a>
</g>
</g>
<!-- Node1&#45;&gt;Node2 -->
<g id="edge1" class="edge"><title>Node1&#45;&gt;Node2</title>
<path fill="none" stroke="midnightblue" d="M270.518,-15C279.191,-15 287.867,-15 296.413,-15"/>
<polygon fill="midnightblue" stroke="midnightblue" points="270.345,-11.5001 260.345,-15 270.345,-18.5001 270.345,-11.5001"/>
</g>
</g>
</svg>
