<?xml version="1.0" encoding="UTF-8" standalone="no"?>
<!DOCTYPE svg PUBLIC "-//W3C//DTD SVG 1.1//EN"
 "http://www.w3.org/Graphics/SVG/1.1/DTD/svg11.dtd">
<!-- Generated by graphviz version 2.36.0 (20140111.2315)
 -->
<!-- Title: game_engine.gameRepresentation.renderedRepresentation.DrawableGameElement.setAnimation Pages: 1 -->
<svg width="1110pt" height="48pt"
 viewBox="0.00 0.00 1110.00 48.00" xmlns="http://www.w3.org/2000/svg" xmlns:xlink="http://www.w3.org/1999/xlink">
<g id="graph0" class="graph" transform="scale(1 1) rotate(0) translate(4 44)">
<title>game_engine.gameRepresentation.renderedRepresentation.DrawableGameElement.setAnimation</title>
<polygon fill="white" stroke="none" points="-4,4 -4,-44 1106,-44 1106,4 -4,4"/>
<!-- Node1 -->
<g id="node1" class="node"><title>Node1</title>
<polygon fill="#bfbfbf" stroke="black" points="0,-5 0,-35 272,-35 272,-5 0,-5"/>
<text text-anchor="start" x="8" y="-23" font-family="Helvetica,sans-Serif" font-size="10.00">game_engine.gameRepresentation.rendered</text>
<text text-anchor="middle" x="136" y="-12" font-family="Helvetica,sans-Serif" font-size="10.00">Representation.DrawableGameElement.setAnimation</text>
</g>
<!-- Node2 -->
<g id="node2" class="node"><title>Node2</title>
<g id="a_node2"><a xlink:href="../../df/de2/classgame__engine_1_1game_representation_1_1rendered_representation_1_1_selectable_game_element.html#a2b14038b5d9481124c9cf388d3b14270" target="_top" xlink:title="game_engine.gameRepresentation.rendered\lRepresentation.SelectableGameElement.set\lAnimationDirection">
<polygon fill="white" stroke="black" points="308.5,0.5 308.5,-40.5 539.5,-40.5 539.5,0.5 308.5,0.5"/>
<text text-anchor="start" x="316.5" y="-28.5" font-family="Helvetica,sans-Serif" font-size="10.00">game_engine.gameRepresentation.rendered</text>
<text text-anchor="start" x="316.5" y="-17.5" font-family="Helvetica,sans-Serif" font-size="10.00">Representation.SelectableGameElement.set</text>
<text text-anchor="middle" x="424" y="-6.5" font-family="Helvetica,sans-Serif" font-size="10.00">AnimationDirection</text>
</a>
</g>
</g>
<!-- Node1&#45;&gt;Node2 -->
<g id="edge1" class="edge"><title>Node1&#45;&gt;Node2</title>
<path fill="none" stroke="midnightblue" d="M282.305,-20C291.048,-20 299.78,-20 308.369,-20"/>
<polygon fill="midnightblue" stroke="midnightblue" points="282.044,-16.5001 272.044,-20 282.044,-23.5001 282.044,-16.5001"/>
</g>
<!-- Node3 -->
<g id="node3" class="node"><title>Node3</title>
<g id="a_node3"><a xlink:href="../../df/de2/classgame__engine_1_1game_representation_1_1rendered_representation_1_1_selectable_game_element.html#a83accf7dc9be7114569f6c916c6aed5a" target="_top" xlink:title="game_engine.gameRepresentation.rendered\lRepresentation.SelectableGameElement.move">
<polygon fill="white" stroke="black" points="576.5,-5 576.5,-35 817.5,-35 817.5,-5 576.5,-5"/>
<text text-anchor="start" x="584.5" y="-23" font-family="Helvetica,sans-Serif" font-size="10.00">game_engine.gameRepresentation.rendered</text>
<text text-anchor="middle" x="697" y="-12" font-family="Helvetica,sans-Serif" font-size="10.00">Representation.SelectableGameElement.move</text>
</a>
</g>
</g>
<!-- Node2&#45;&gt;Node3 -->
<g id="edge2" class="edge"><title>Node2&#45;&gt;Node3</title>
<path fill="none" stroke="midnightblue" d="M549.82,-20C558.611,-20 567.463,-20 576.226,-20"/>
<polygon fill="midnightblue" stroke="midnightblue" points="549.536,-16.5001 539.536,-20 549.536,-23.5001 549.536,-16.5001"/>
</g>
<!-- Node4 -->
<g id="node4" class="node"><title>Node4</title>
<g id="a_node4"><a xlink:href="../../df/de2/classgame__engine_1_1game_representation_1_1rendered_representation_1_1_selectable_game_element.html#a47272e0beb372831322a4074210eb7ea" target="_top" xlink:title="game_engine.gameRepresentation.rendered\lRepresentation.SelectableGameElement.update">
<polygon fill="white" stroke="black" points="854,-5 854,-35 1102,-35 1102,-5 854,-5"/>
<text text-anchor="start" x="862" y="-23" font-family="Helvetica,sans-Serif" font-size="10.00">game_engine.gameRepresentation.rendered</text>
<text text-anchor="middle" x="978" y="-12" font-family="Helvetica,sans-Serif" font-size="10.00">Representation.SelectableGameElement.update</text>
</a>
</g>
</g>
<!-- Node3&#45;&gt;Node4 -->
<g id="edge3" class="edge"><title>Node3&#45;&gt;Node4</title>
<path fill="none" stroke="midnightblue" d="M827.683,-20C836.354,-20 845.076,-20 853.714,-20"/>
<polygon fill="midnightblue" stroke="midnightblue" points="827.535,-16.5001 817.535,-20 827.535,-23.5001 827.535,-16.5001"/>
</g>
</g>
</svg>
