<?xml version="1.0" encoding="UTF-8" standalone="no"?>
<!DOCTYPE svg PUBLIC "-//W3C//DTD SVG 1.1//EN"
 "http://www.w3.org/Graphics/SVG/1.1/DTD/svg11.dtd">
<!-- Generated by graphviz version 2.36.0 (20140111.2315)
 -->
<!-- Title: game_engine.gameRepresentation.renderedRepresentation.DrawableGameElement.getNode Pages: 1 -->
<!--zoomable 244 -->
<svg id="main" version="1.1" xmlns="http://www.w3.org/2000/svg" xmlns:xlink="http://www.w3.org/1999/xlink" xml:space="preserve" onload="init(evt)">
<style type="text/css"><![CDATA[
.edge:hover path { stroke: red; }
.edge:hover polygon { stroke: red; fill: red; }
]]></style>
<script type="text/javascript"><![CDATA[
var edges = document.getElementsByTagName('g');
if (edges && edges.length) {
  for (var i=0;i<edges.length;i++) {
    if (edges[i].id.substr(0,4)=='edge') {
      edges[i].setAttribute('class','edge');
    }
  }
}
]]></script>
        <defs>
                <circle id="rim" cx="0" cy="0" r="7"/>
                <circle id="rim2" cx="0" cy="0" r="3.5"/>
                <g id="zoomPlus">
                        <use xlink:href="#rim" fill="#404040">
                                <set attributeName="fill" to="#808080" begin="zoomplus.mouseover" end="zoomplus.mouseout"/>
                        </use>
                        <path d="M-4,0h8M0,-4v8" fill="none" stroke="white" stroke-width="1.5" pointer-events="none"/>
                </g>
                <g id="zoomMin">
                        <use xlink:href="#rim" fill="#404040">
                                <set attributeName="fill" to="#808080" begin="zoomminus.mouseover" end="zoomminus.mouseout"/>
                        </use>
                        <path d="M-4,0h8" fill="none" stroke="white" stroke-width="1.5" pointer-events="none"/>
                </g>
                <g id="dirArrow">
                        <path fill="none" stroke="white" stroke-width="1.5" d="M0,-3.0v7 M-2.5,-0.5L0,-3.0L2.5,-0.5"/>
                </g>
               <g id="resetDef">
                       <use xlink:href="#rim2" fill="#404040">
                               <set attributeName="fill" to="#808080" begin="reset.mouseover" end="reset.mouseout"/>
                       </use>
               </g>
        </defs>

<script type="text/javascript">
var viewWidth = 794;
var viewHeight = 244;
var sectionId = 'dynsection-6';
</script>
<script xlink:href="../../svgpan.js"/>
<svg id="graph" class="graph">
<g id="viewport">
<title>game_engine.gameRepresentation.renderedRepresentation.DrawableGameElement.getNode</title>
<polygon fill="white" stroke="none" points="-4,4 -4,-240 790,-240 790,4 -4,4"/>
<!-- Node1 -->
<g id="node1" class="node"><title>Node1</title>
<polygon fill="#bfbfbf" stroke="black" points="0.5,-108 0.5,-138 249.5,-138 249.5,-108 0.5,-108"/>
<text text-anchor="start" x="8.5" y="-126" font-family="Helvetica,sans-Serif" font-size="10.00">game_engine.gameRepresentation.rendered</text>
<text text-anchor="middle" x="125" y="-115" font-family="Helvetica,sans-Serif" font-size="10.00">Representation.DrawableGameElement.getNode</text>
</g>
<!-- Node2 -->
<g id="node2" class="node"><title>Node2</title>
<g id="a_node2"><a xlink:href="../../d7/d49/classgame__engine_1_1visuals_1_1_animation_player.html#a28a66dfca28a555ecb7b02557720b182" target="_top" xlink:title="game_engine.visuals.Animation\lPlayer.getDimension">
<polygon fill="white" stroke="black" points="317.5,-206 317.5,-236 486.5,-236 486.5,-206 317.5,-206"/>
<text text-anchor="start" x="325.5" y="-224" font-family="Helvetica,sans-Serif" font-size="10.00">game_engine.visuals.Animation</text>
<text text-anchor="middle" x="402" y="-213" font-family="Helvetica,sans-Serif" font-size="10.00">Player.getDimension</text>
</a>
</g>
</g>
<!-- Node1&#45;&gt;Node2 -->
<g id="edge1" class="edge"><title>Node1&#45;&gt;Node2</title>
<path fill="none" stroke="midnightblue" d="M154.157,-138.088C185.547,-154.372 238.196,-180.102 286,-196 294.17,-198.717 302.767,-201.217 311.428,-203.498"/>
<polygon fill="midnightblue" stroke="midnightblue" points="310.661,-206.914 321.214,-205.979 312.382,-200.129 310.661,-206.914"/>
</g>
<!-- Node3 -->
<g id="node3" class="node"><title>Node3</title>
<g id="a_node3"><a xlink:href="../../de/d86/classgame__engine_1_1visuals_1_1_dimension.html#a4d803b0b96a4432a77516cf17c413617" target="_top" xlink:title="game_engine.visuals.Dimension.get\lHeight">
<polygon fill="white" stroke="black" points="307,-157 307,-187 497,-187 497,-157 307,-157"/>
<text text-anchor="start" x="315" y="-175" font-family="Helvetica,sans-Serif" font-size="10.00">game_engine.visuals.Dimension.get</text>
<text text-anchor="middle" x="402" y="-164" font-family="Helvetica,sans-Serif" font-size="10.00">Height</text>
</a>
</g>
</g>
<!-- Node1&#45;&gt;Node3 -->
<g id="edge2" class="edge"><title>Node1&#45;&gt;Node3</title>
<path fill="none" stroke="midnightblue" d="M210.378,-138.035C240.866,-143.467 275.471,-149.633 306.752,-155.207"/>
<polygon fill="midnightblue" stroke="midnightblue" points="306.323,-158.685 316.782,-156.994 307.551,-151.794 306.323,-158.685"/>
</g>
<!-- Node4 -->
<g id="node4" class="node"><title>Node4</title>
<g id="a_node4"><a xlink:href="../../d7/d49/classgame__engine_1_1visuals_1_1_animation_player.html#aeec24b5235f9a030338f41c4793ea3cb" target="_top" xlink:title="game_engine.visuals.Animation\lPlayer.getNode">
<polygon fill="white" stroke="black" points="317.5,-108 317.5,-138 486.5,-138 486.5,-108 317.5,-108"/>
<text text-anchor="start" x="325.5" y="-126" font-family="Helvetica,sans-Serif" font-size="10.00">game_engine.visuals.Animation</text>
<text text-anchor="middle" x="402" y="-115" font-family="Helvetica,sans-Serif" font-size="10.00">Player.getNode</text>
</a>
</g>
</g>
<!-- Node1&#45;&gt;Node4 -->
<g id="edge3" class="edge"><title>Node1&#45;&gt;Node4</title>
<path fill="none" stroke="midnightblue" d="M249.824,-123C269.07,-123 288.677,-123 307.116,-123"/>
<polygon fill="midnightblue" stroke="midnightblue" points="307.231,-126.5 317.231,-123 307.231,-119.5 307.231,-126.5"/>
</g>
<!-- Node5 -->
<g id="node5" class="node"><title>Node5</title>
<g id="a_node5"><a xlink:href="../../dc/d2d/classgame__engine_1_1game_representation_1_1state_representation_1_1game_element_1_1_game_element_state.html#aa40f5f12d9fa1ea430b6da56c002338d" target="_top" xlink:title="game_engine.gameRepresentation.state\lRepresentation.gameElement.GameElement\lState.getNumericalAttribute">
<polygon fill="white" stroke="black" points="286.5,-48.5 286.5,-89.5 517.5,-89.5 517.5,-48.5 286.5,-48.5"/>
<text text-anchor="start" x="294.5" y="-77.5" font-family="Helvetica,sans-Serif" font-size="10.00">game_engine.gameRepresentation.state</text>
<text text-anchor="start" x="294.5" y="-66.5" font-family="Helvetica,sans-Serif" font-size="10.00">Representation.gameElement.GameElement</text>
<text text-anchor="middle" x="402" y="-55.5" font-family="Helvetica,sans-Serif" font-size="10.00">State.getNumericalAttribute</text>
</a>
</g>
</g>
<!-- Node1&#45;&gt;Node5 -->
<g id="edge4" class="edge"><title>Node1&#45;&gt;Node5</title>
<path fill="none" stroke="midnightblue" d="M202.603,-107.958C228.619,-102.849 258.28,-97.025 286.596,-91.4648"/>
<polygon fill="midnightblue" stroke="midnightblue" points="287.409,-94.8721 296.547,-89.5107 286.06,-88.0032 287.409,-94.8721"/>
</g>
<!-- Node7 -->
<g id="node7" class="node"><title>Node7</title>
<g id="a_node7"><a xlink:href="../../de/d86/classgame__engine_1_1visuals_1_1_dimension.html#a30a627da15298901fc10675636958c8e" target="_top" xlink:title="game_engine.visuals.Dimension.get\lWidth">
<polygon fill="white" stroke="black" points="307,-0 307,-30 497,-30 497,-0 307,-0"/>
<text text-anchor="start" x="315" y="-18" font-family="Helvetica,sans-Serif" font-size="10.00">game_engine.visuals.Dimension.get</text>
<text text-anchor="middle" x="402" y="-7" font-family="Helvetica,sans-Serif" font-size="10.00">Width</text>
</a>
</g>
</g>
<!-- Node1&#45;&gt;Node7 -->
<g id="edge6" class="edge"><title>Node1&#45;&gt;Node7</title>
<path fill="none" stroke="midnightblue" d="M149.705,-107.855C180.124,-89.066 235.063,-57.2822 286,-39 292.32,-36.7317 298.916,-34.6499 305.613,-32.7442"/>
<polygon fill="midnightblue" stroke="midnightblue" points="306.737,-36.066 315.477,-30.0768 304.91,-29.3087 306.737,-36.066"/>
</g>
<!-- Node6 -->
<g id="node6" class="node"><title>Node6</title>
<g id="a_node6"><a xlink:href="../../dc/d2d/classgame__engine_1_1game_representation_1_1state_representation_1_1game_element_1_1_game_element_state.html#a92d017656dffc9e74dabe8f016ffacd8" target="_top" xlink:title="game_engine.gameRepresentation.state\lRepresentation.gameElement.GameElement\lState.getAttribute">
<polygon fill="white" stroke="black" points="554.5,-48.5 554.5,-89.5 785.5,-89.5 785.5,-48.5 554.5,-48.5"/>
<text text-anchor="start" x="562.5" y="-77.5" font-family="Helvetica,sans-Serif" font-size="10.00">game_engine.gameRepresentation.state</text>
<text text-anchor="start" x="562.5" y="-66.5" font-family="Helvetica,sans-Serif" font-size="10.00">Representation.gameElement.GameElement</text>
<text text-anchor="middle" x="670" y="-55.5" font-family="Helvetica,sans-Serif" font-size="10.00">State.getAttribute</text>
</a>
</g>
</g>
<!-- Node5&#45;&gt;Node6 -->
<g id="edge5" class="edge"><title>Node5&#45;&gt;Node6</title>
<path fill="none" stroke="midnightblue" d="M517.738,-69C526.429,-69 535.227,-69 543.978,-69"/>
<polygon fill="midnightblue" stroke="midnightblue" points="544.221,-72.5001 554.221,-69 544.221,-65.5001 544.221,-72.5001"/>
</g>
</g>
</svg>
        <g id="navigator" transform="translate(0 0)" fill="#404254">
                <rect fill="#f2f5e9" fill-opacity="0.5" stroke="#606060" stroke-width=".5" x="0" y="0" width="60" height="60"/>
                <use id="zoomplus" xlink:href="#zoomPlus" x="17" y="9" onmousedown="handleZoom(evt,'in')"/>
                <use id="zoomminus" xlink:href="#zoomMin" x="42" y="9" onmousedown="handleZoom(evt,'out')"/>
                <use id="reset" xlink:href="#resetDef" x="30" y="36" onmousedown="handleReset()"/>
                <g id="arrowUp" xlink:href="#dirArrow" transform="translate(30 24)" onmousedown="handlePan(0,-1)">
                  <use xlink:href="#rim" fill="#404040">
                        <set attributeName="fill" to="#808080" begin="arrowUp.mouseover" end="arrowUp.mouseout"/>
                  </use>
                  <path fill="none" stroke="white" stroke-width="1.5" d="M0,-3.0v7 M-2.5,-0.5L0,-3.0L2.5,-0.5"/>
                </g>
                <g id="arrowRight" xlink:href="#dirArrow" transform="rotate(90) translate(36 -43)" onmousedown="handlePan(1,0)">
                  <use xlink:href="#rim" fill="#404040">
                        <set attributeName="fill" to="#808080" begin="arrowRight.mouseover" end="arrowRight.mouseout"/>
                  </use>
                  <path fill="none" stroke="white" stroke-width="1.5" d="M0,-3.0v7 M-2.5,-0.5L0,-3.0L2.5,-0.5"/>
                </g>
                <g id="arrowDown" xlink:href="#dirArrow" transform="rotate(180) translate(-30 -48)" onmousedown="handlePan(0,1)">
                  <use xlink:href="#rim" fill="#404040">
                        <set attributeName="fill" to="#808080" begin="arrowDown.mouseover" end="arrowDown.mouseout"/>
                  </use>
                  <path fill="none" stroke="white" stroke-width="1.5" d="M0,-3.0v7 M-2.5,-0.5L0,-3.0L2.5,-0.5"/>
                </g>
                <g id="arrowLeft" xlink:href="#dirArrow" transform="rotate(270) translate(-36 17)" onmousedown="handlePan(-1,0)">
                  <use xlink:href="#rim" fill="#404040">
                        <set attributeName="fill" to="#808080" begin="arrowLeft.mouseover" end="arrowLeft.mouseout"/>
                  </use>
                  <path fill="none" stroke="white" stroke-width="1.5" d="M0,-3.0v7 M-2.5,-0.5L0,-3.0L2.5,-0.5"/>
                </g>
        </g>
        <svg viewBox="0 0 15 15" width="100%" height="30px" preserveAspectRatio="xMaxYMin meet">
         <g id="arrow_out" transform="scale(0.3 0.3)">
          <a xlink:href="classgame__engine_1_1game_representation_1_1rendered_representation_1_1_drawable_game_element_a6b5fbc1cbd72a42b04bf11efbb9f94c0_cgraph_org.svg" target="_base">
           <rect id="button" ry="5" rx="5" y="6" x="6" height="38" width="38"
                fill="#f2f5e9" fill-opacity="0.5" stroke="#606060" stroke-width="1.0"/>
           <path id="arrow"
             d="M 11.500037,31.436501 C 11.940474,20.09759 22.043105,11.32322 32.158766,21.979434 L 37.068811,17.246167 C 37.068811,17.246167 37.088388,32 37.088388,32 L 22.160133,31.978069 C 22.160133,31.978069 26.997745,27.140456 26.997745,27.140456 C 18.528582,18.264221 13.291696,25.230495 11.500037,31.436501 z"
             style="fill:#404040;"/>
          </a>
         </g>
        </svg>
</svg>
