<?xml version="1.0" encoding="UTF-8" standalone="no"?>
<!DOCTYPE svg PUBLIC "-//W3C//DTD SVG 1.1//EN"
 "http://www.w3.org/Graphics/SVG/1.1/DTD/svg11.dtd">
<!-- Generated by graphviz version 2.36.0 (20140111.2315)
 -->
<!-- Title: view.MainView.update Pages: 1 -->
<svg width="512pt" height="87pt"
 viewBox="0.00 0.00 512.00 87.00" xmlns="http://www.w3.org/2000/svg" xmlns:xlink="http://www.w3.org/1999/xlink">
<g id="graph0" class="graph" transform="scale(1 1) rotate(0) translate(4 83)">
<title>view.MainView.update</title>
<polygon fill="white" stroke="none" points="-4,4 -4,-83 508,-83 508,4 -4,4"/>
<!-- Node1 -->
<g id="node1" class="node"><title>Node1</title>
<polygon fill="#bfbfbf" stroke="black" points="0.5,-29.5 0.5,-48.5 119.5,-48.5 119.5,-29.5 0.5,-29.5"/>
<text text-anchor="middle" x="60" y="-36.5" font-family="Helvetica,sans-Serif" font-size="10.00">view.MainView.update</text>
</g>
<!-- Node2 -->
<g id="node2" class="node"><title>Node2</title>
<g id="a_node2"><a xlink:href="../../d0/d1c/classview_1_1gui_1_1_g_u_i_container.html#aae150e39b5afbb66a64ef0972a18a72f" target="_top" xlink:title="view.gui.GUIContainer.update">
<polygon fill="white" stroke="black" points="156,-29.5 156,-48.5 312,-48.5 312,-29.5 156,-29.5"/>
<text text-anchor="middle" x="234" y="-36.5" font-family="Helvetica,sans-Serif" font-size="10.00">view.gui.GUIContainer.update</text>
</a>
</g>
</g>
<!-- Node1&#45;&gt;Node2 -->
<g id="edge1" class="edge"><title>Node1&#45;&gt;Node2</title>
<path fill="none" stroke="midnightblue" d="M119.712,-39C128.035,-39 136.74,-39 145.465,-39"/>
<polygon fill="midnightblue" stroke="midnightblue" points="145.696,-42.5001 155.696,-39 145.696,-35.5001 145.696,-42.5001"/>
</g>
<!-- Node3 -->
<g id="node3" class="node"><title>Node3</title>
<g id="a_node3"><a xlink:href="../../d0/d1c/classview_1_1gui_1_1_g_u_i_container.html#aec439955e8ca7441c73b2f8378d902dd" target="_top" xlink:title="view.gui.GUIContainer.model\lUpdate">
<polygon fill="white" stroke="black" points="350,-49 350,-79 502,-79 502,-49 350,-49"/>
<text text-anchor="start" x="358" y="-67" font-family="Helvetica,sans-Serif" font-size="10.00">view.gui.GUIContainer.model</text>
<text text-anchor="middle" x="426" y="-56" font-family="Helvetica,sans-Serif" font-size="10.00">Update</text>
</a>
</g>
</g>
<!-- Node2&#45;&gt;Node3 -->
<g id="edge2" class="edge"><title>Node2&#45;&gt;Node3</title>
<path fill="none" stroke="midnightblue" d="M307.373,-48.5227C318.052,-49.9279 329.135,-51.3862 340.041,-52.8212"/>
<polygon fill="midnightblue" stroke="midnightblue" points="339.618,-56.2956 349.989,-54.1301 340.531,-49.3554 339.618,-56.2956"/>
</g>
<!-- Node4 -->
<g id="node4" class="node"><title>Node4</title>
<g id="a_node4"><a xlink:href="../../d0/d1c/classview_1_1gui_1_1_g_u_i_container.html#acc5e1491d53fb623544ba9c472abf080" target="_top" xlink:title="view.gui.GUIContainer.engine\lUpdate">
<polygon fill="white" stroke="black" points="348.5,-0 348.5,-30 503.5,-30 503.5,-0 348.5,-0"/>
<text text-anchor="start" x="356.5" y="-18" font-family="Helvetica,sans-Serif" font-size="10.00">view.gui.GUIContainer.engine</text>
<text text-anchor="middle" x="426" y="-7" font-family="Helvetica,sans-Serif" font-size="10.00">Update</text>
</a>
</g>
</g>
<!-- Node2&#45;&gt;Node4 -->
<g id="edge3" class="edge"><title>Node2&#45;&gt;Node4</title>
<path fill="none" stroke="midnightblue" d="M310.366,-29.4801C319.572,-28.3172 329.036,-27.1218 338.39,-25.9402"/>
<polygon fill="midnightblue" stroke="midnightblue" points="338.998,-29.3913 348.481,-24.6656 338.121,-22.4465 338.998,-29.3913"/>
</g>
</g>
</svg>
