<?xml version="1.0" encoding="UTF-8" standalone="no"?>
<!DOCTYPE svg PUBLIC "-//W3C//DTD SVG 1.1//EN"
 "http://www.w3.org/Graphics/SVG/1.1/DTD/svg11.dtd">
<!-- Generated by graphviz version 2.36.0 (20140111.2315)
 -->
<!-- Title: game_engine.visuals.UI.SelectionBox Pages: 1 -->
<svg width="202pt" height="96pt"
 viewBox="0.00 0.00 202.00 96.00" xmlns="http://www.w3.org/2000/svg" xmlns:xlink="http://www.w3.org/1999/xlink">
<g id="graph0" class="graph" transform="scale(1 1) rotate(0) translate(4 92)">
<title>game_engine.visuals.UI.SelectionBox</title>
<polygon fill="white" stroke="none" points="-4,4 -4,-92 198,-92 198,4 -4,4"/>
<!-- Node1 -->
<g id="node1" class="node"><title>Node1</title>
<polygon fill="#bfbfbf" stroke="black" points="-0.5,-0.5 -0.5,-19.5 194.5,-19.5 194.5,-0.5 -0.5,-0.5"/>
<text text-anchor="middle" x="97" y="-7.5" font-family="Helvetica,sans-Serif" font-size="10.00">game_engine.visuals.UI.SelectionBox</text>
</g>
<!-- Node2 -->
<g id="node2" class="node"><title>Node2</title>
<polygon fill="white" stroke="#bfbfbf" points="19.5,-68.5 19.5,-87.5 90.5,-87.5 90.5,-68.5 19.5,-68.5"/>
<text text-anchor="middle" x="55" y="-75.5" font-family="Helvetica,sans-Serif" font-size="10.00">Observable</text>
</g>
<!-- Node2&#45;&gt;Node1 -->
<g id="edge1" class="edge"><title>Node2&#45;&gt;Node1</title>
<path fill="none" stroke="midnightblue" d="M66.0963,-59.563C74.23,-46.7815 84.9346,-29.9599 91.3738,-19.8411"/>
<polygon fill="midnightblue" stroke="midnightblue" points="62.9067,-58.0559 60.4908,-68.3717 68.8124,-61.8141 62.9067,-58.0559"/>
</g>
<!-- Node3 -->
<g id="node3" class="node"><title>Node3</title>
<polygon fill="white" stroke="#bfbfbf" points="108.5,-68.5 108.5,-87.5 171.5,-87.5 171.5,-68.5 108.5,-68.5"/>
<text text-anchor="middle" x="140" y="-75.5" font-family="Helvetica,sans-Serif" font-size="10.00">Rectangle</text>
</g>
<!-- Node3&#45;&gt;Node1 -->
<g id="edge2" class="edge"><title>Node3&#45;&gt;Node1</title>
<path fill="none" stroke="#9a32cd" stroke-dasharray="5,2" d="M128.884,-59.9377C120.527,-47.112 109.417,-30.0591 102.76,-19.8411"/>
<polygon fill="#9a32cd" stroke="#9a32cd" points="125.987,-61.9036 134.379,-68.3717 131.852,-58.0824 125.987,-61.9036"/>
<text text-anchor="middle" x="154.5" y="-41.5" font-family="Helvetica,sans-Serif" font-size="10.00"> myRectangle</text>
</g>
</g>
</svg>
