<?xml version="1.0" encoding="UTF-8" standalone="no"?>
<!DOCTYPE svg PUBLIC "-//W3C//DTD SVG 1.1//EN"
 "http://www.w3.org/Graphics/SVG/1.1/DTD/svg11.dtd">
<!-- Generated by graphviz version 2.36.0 (20140111.2315)
 -->
<!-- Title: engine.visuals.Dimension.getWidth Pages: 1 -->
<svg width="1592pt" height="144pt"
 viewBox="0.00 0.00 1592.00 144.00" xmlns="http://www.w3.org/2000/svg" xmlns:xlink="http://www.w3.org/1999/xlink">
<g id="graph0" class="graph" transform="scale(1 1) rotate(0) translate(4 140)">
<title>engine.visuals.Dimension.getWidth</title>
<polygon fill="white" stroke="none" points="-4,4 -4,-140 1588,-140 1588,4 -4,4"/>
<!-- Node1 -->
<g id="node1" class="node"><title>Node1</title>
<polygon fill="#bfbfbf" stroke="black" points="0.5,-55 0.5,-85 157.5,-85 157.5,-55 0.5,-55"/>
<text text-anchor="start" x="8.5" y="-73" font-family="Helvetica,sans-Serif" font-size="10.00">engine.visuals.Dimension.get</text>
<text text-anchor="middle" x="79" y="-62" font-family="Helvetica,sans-Serif" font-size="10.00">Width</text>
</g>
<!-- Node2 -->
<g id="node2" class="node"><title>Node2</title>
<g id="a_node2"><a xlink:href="../../d0/da0/classmodel_1_1data_1_1_wizard_data_factory.html#a0c0eb91e1b531f96b715e1a9c0c45db9" target="_top" xlink:title="model.data.WizardDataFactory.create\lWizardData">
<polygon fill="white" stroke="black" points="206,-104 206,-134 402,-134 402,-104 206,-104"/>
<text text-anchor="start" x="214" y="-122" font-family="Helvetica,sans-Serif" font-size="10.00">model.data.WizardDataFactory.create</text>
<text text-anchor="middle" x="304" y="-111" font-family="Helvetica,sans-Serif" font-size="10.00">WizardData</text>
</a>
</g>
</g>
<!-- Node1&#45;&gt;Node2 -->
<g id="edge1" class="edge"><title>Node1&#45;&gt;Node2</title>
<path fill="none" stroke="midnightblue" d="M158.211,-87.1854C183.148,-92.6647 210.53,-98.6815 234.707,-103.994"/>
<polygon fill="midnightblue" stroke="midnightblue" points="158.941,-83.7624 148.423,-85.0346 157.439,-90.5993 158.941,-83.7624"/>
</g>
<!-- Node5 -->
<g id="node5" class="node"><title>Node5</title>
<g id="a_node5"><a xlink:href="../../d9/d50/classengine_1_1visuals_1_1element_visuals_1_1animations_1_1_animator.html#a98fe0d989e66bb4b49c862e3bd5969b7" target="_top" xlink:title="engine.visuals.elementVisuals.animations.\lAnimator.getViewport">
<polygon fill="white" stroke="black" points="194,-55 194,-85 414,-85 414,-55 194,-55"/>
<text text-anchor="start" x="202" y="-73" font-family="Helvetica,sans-Serif" font-size="10.00">engine.visuals.elementVisuals.animations.</text>
<text text-anchor="middle" x="304" y="-62" font-family="Helvetica,sans-Serif" font-size="10.00">Animator.getViewport</text>
</a>
</g>
</g>
<!-- Node1&#45;&gt;Node5 -->
<g id="edge4" class="edge"><title>Node1&#45;&gt;Node5</title>
<path fill="none" stroke="midnightblue" d="M167.942,-70C176.443,-70 185.136,-70 193.81,-70"/>
<polygon fill="midnightblue" stroke="midnightblue" points="167.682,-66.5001 157.682,-70 167.681,-73.5001 167.682,-66.5001"/>
</g>
<!-- Node7 -->
<g id="node7" class="node"><title>Node7</title>
<g id="a_node7"><a xlink:href="../../d1/d3d/classengine_1_1visuals_1_1element_visuals_1_1_visualizer.html#a86b606b05e07c022484554409f533599" target="_top" xlink:title="engine.visuals.elementVisuals.\lVisualizer.initializeDisplay">
<polygon fill="white" stroke="black" points="706,-8 706,-38 870,-38 870,-8 706,-8"/>
<text text-anchor="start" x="714" y="-26" font-family="Helvetica,sans-Serif" font-size="10.00">engine.visuals.elementVisuals.</text>
<text text-anchor="middle" x="788" y="-15" font-family="Helvetica,sans-Serif" font-size="10.00">Visualizer.initializeDisplay</text>
</a>
</g>
</g>
<!-- Node1&#45;&gt;Node7 -->
<g id="edge12" class="edge"><title>Node1&#45;&gt;Node7</title>
<path fill="none" stroke="midnightblue" d="M148.907,-52.8155C163.699,-49.7101 179.302,-46.869 194,-45 375.659,-21.9001 590.94,-20.2721 705.575,-21.4351"/>
<polygon fill="midnightblue" stroke="midnightblue" points="147.851,-49.4629 138.818,-54.9988 149.332,-56.3045 147.851,-49.4629"/>
</g>
<!-- Node3 -->
<g id="node3" class="node"><title>Node3</title>
<g id="a_node3"><a xlink:href="../../d9/dfb/classview_1_1editor_1_1_element_accordion_controller.html#ac52ea89f2e0af7497883a0fd53199296" target="_top" xlink:title="view.editor.ElementAccordion\lController.createWizardData">
<polygon fill="white" stroke="black" points="482,-105 482,-135 638,-135 638,-105 482,-105"/>
<text text-anchor="start" x="490" y="-123" font-family="Helvetica,sans-Serif" font-size="10.00">view.editor.ElementAccordion</text>
<text text-anchor="middle" x="560" y="-112" font-family="Helvetica,sans-Serif" font-size="10.00">Controller.createWizardData</text>
</a>
</g>
</g>
<!-- Node2&#45;&gt;Node3 -->
<g id="edge2" class="edge"><title>Node2&#45;&gt;Node3</title>
<path fill="none" stroke="midnightblue" d="M412.376,-119.423C435.648,-119.514 459.822,-119.61 481.668,-119.696"/>
<polygon fill="midnightblue" stroke="midnightblue" points="412.127,-115.922 402.114,-119.382 412.1,-122.922 412.127,-115.922"/>
</g>
<!-- Node4 -->
<g id="node4" class="node"><title>Node4</title>
<g id="a_node4"><a xlink:href="../../d9/dfb/classview_1_1editor_1_1_element_accordion_controller.html#af80453486ff349552dab988fb64397c0" target="_top" xlink:title="view.editor.ElementAccordion\lController.init">
<polygon fill="white" stroke="black" points="710,-106 710,-136 866,-136 866,-106 710,-106"/>
<text text-anchor="start" x="718" y="-124" font-family="Helvetica,sans-Serif" font-size="10.00">view.editor.ElementAccordion</text>
<text text-anchor="middle" x="788" y="-113" font-family="Helvetica,sans-Serif" font-size="10.00">Controller.init</text>
</a>
</g>
</g>
<!-- Node3&#45;&gt;Node4 -->
<g id="edge3" class="edge"><title>Node3&#45;&gt;Node4</title>
<path fill="none" stroke="midnightblue" d="M648.307,-120.386C668.58,-120.476 690.018,-120.571 709.82,-120.658"/>
<polygon fill="midnightblue" stroke="midnightblue" points="648.16,-116.886 638.144,-120.341 648.129,-123.886 648.16,-116.886"/>
</g>
<!-- Node6 -->
<g id="node6" class="node"><title>Node6</title>
<g id="a_node6"><a xlink:href="../../d9/d50/classengine_1_1visuals_1_1element_visuals_1_1animations_1_1_animator.html#ad526dc47f566d23d4069513fc0731b41" target="_top" xlink:title="engine.visuals.elementVisuals.animations.\lAnimator.update">
<polygon fill="white" stroke="black" points="450,-55 450,-85 670,-85 670,-55 450,-55"/>
<text text-anchor="start" x="458" y="-73" font-family="Helvetica,sans-Serif" font-size="10.00">engine.visuals.elementVisuals.animations.</text>
<text text-anchor="middle" x="560" y="-62" font-family="Helvetica,sans-Serif" font-size="10.00">Animator.update</text>
</a>
</g>
</g>
<!-- Node5&#45;&gt;Node6 -->
<g id="edge5" class="edge"><title>Node5&#45;&gt;Node6</title>
<path fill="none" stroke="midnightblue" d="M424.217,-70C432.783,-70 441.396,-70 449.899,-70"/>
<polygon fill="midnightblue" stroke="midnightblue" points="424.193,-66.5001 414.193,-70 424.193,-73.5001 424.193,-66.5001"/>
</g>
<!-- Node6&#45;&gt;Node7 -->
<g id="edge6" class="edge"><title>Node6&#45;&gt;Node7</title>
<path fill="none" stroke="midnightblue" d="M643.059,-52.9346C666.535,-48.0524 691.941,-42.7688 714.781,-38.019"/>
<polygon fill="midnightblue" stroke="midnightblue" points="642.207,-49.5368 633.129,-54.9997 643.632,-56.3902 642.207,-49.5368"/>
</g>
<!-- Node9 -->
<g id="node9" class="node"><title>Node9</title>
<g id="a_node9"><a xlink:href="../../d1/d3d/classengine_1_1visuals_1_1element_visuals_1_1_visualizer.html#a3a940cfc6093a46b3c1d53d77674ef15" target="_top" xlink:title="engine.visuals.elementVisuals.\lVisualizer.updateAnimator">
<polygon fill="white" stroke="black" points="706,-57 706,-87 870,-87 870,-57 706,-57"/>
<text text-anchor="start" x="714" y="-75" font-family="Helvetica,sans-Serif" font-size="10.00">engine.visuals.elementVisuals.</text>
<text text-anchor="middle" x="788" y="-64" font-family="Helvetica,sans-Serif" font-size="10.00">Visualizer.updateAnimator</text>
</a>
</g>
</g>
<!-- Node6&#45;&gt;Node9 -->
<g id="edge8" class="edge"><title>Node6&#45;&gt;Node9</title>
<path fill="none" stroke="midnightblue" d="M680.221,-71.0551C688.895,-71.1318 697.52,-71.2081 705.89,-71.2822"/>
<polygon fill="midnightblue" stroke="midnightblue" points="680.059,-67.5536 670.028,-70.9649 679.997,-74.5533 680.059,-67.5536"/>
</g>
<!-- Node8 -->
<g id="node8" class="node"><title>Node8</title>
<g id="a_node8"><a xlink:href="../../d8/d2f/classengine_1_1game_representation_1_1rendered_representation_1_1_drawable_game_element.html#a4b23fded7a0bbd7154333b3f3353c686" target="_top" xlink:title="engine.gameRepresentation.rendered\lRepresentation.DrawableGameElement.\lDrawableGameElement">
<polygon fill="white" stroke="black" points="906,-0.5 906,-41.5 1114,-41.5 1114,-0.5 906,-0.5"/>
<text text-anchor="start" x="914" y="-29.5" font-family="Helvetica,sans-Serif" font-size="10.00">engine.gameRepresentation.rendered</text>
<text text-anchor="start" x="914" y="-18.5" font-family="Helvetica,sans-Serif" font-size="10.00">Representation.DrawableGameElement.</text>
<text text-anchor="middle" x="1010" y="-7.5" font-family="Helvetica,sans-Serif" font-size="10.00">DrawableGameElement</text>
</a>
</g>
</g>
<!-- Node7&#45;&gt;Node8 -->
<g id="edge7" class="edge"><title>Node7&#45;&gt;Node8</title>
<path fill="none" stroke="midnightblue" d="M880.48,-22.1684C888.902,-22.0918 897.474,-22.0139 905.989,-21.9365"/>
<polygon fill="midnightblue" stroke="midnightblue" points="880.263,-18.6701 870.295,-22.261 880.326,-25.6698 880.263,-18.6701"/>
</g>
<!-- Node10 -->
<g id="node10" class="node"><title>Node10</title>
<g id="a_node10"><a xlink:href="../../d1/d3d/classengine_1_1visuals_1_1element_visuals_1_1_visualizer.html#a466845b3211a0266cb7435d18772b372" target="_top" xlink:title="engine.visuals.elementVisuals.\lVisualizer.update">
<polygon fill="white" stroke="black" points="928,-60 928,-90 1092,-90 1092,-60 928,-60"/>
<text text-anchor="start" x="936" y="-78" font-family="Helvetica,sans-Serif" font-size="10.00">engine.visuals.elementVisuals.</text>
<text text-anchor="middle" x="1010" y="-67" font-family="Helvetica,sans-Serif" font-size="10.00">Visualizer.update</text>
</a>
</g>
</g>
<!-- Node9&#45;&gt;Node10 -->
<g id="edge9" class="edge"><title>Node9&#45;&gt;Node10</title>
<path fill="none" stroke="midnightblue" d="M880.492,-73.2476C896.143,-73.461 912.309,-73.6815 927.672,-73.891"/>
<polygon fill="midnightblue" stroke="midnightblue" points="880.342,-69.7453 870.295,-73.1086 880.246,-76.7447 880.342,-69.7453"/>
</g>
<!-- Node11 -->
<g id="node11" class="node"><title>Node11</title>
<g id="a_node11"><a xlink:href="../../d8/d2f/classengine_1_1game_representation_1_1rendered_representation_1_1_drawable_game_element.html#a2d69796817cdb4f32ada0982e19df9bc" target="_top" xlink:title="engine.gameRepresentation.rendered\lRepresentation.DrawableGameElement.update">
<polygon fill="white" stroke="black" points="1150,-60 1150,-90 1392,-90 1392,-60 1150,-60"/>
<text text-anchor="start" x="1158" y="-78" font-family="Helvetica,sans-Serif" font-size="10.00">engine.gameRepresentation.rendered</text>
<text text-anchor="middle" x="1271" y="-67" font-family="Helvetica,sans-Serif" font-size="10.00">Representation.DrawableGameElement.update</text>
</a>
</g>
</g>
<!-- Node10&#45;&gt;Node11 -->
<g id="edge10" class="edge"><title>Node10&#45;&gt;Node11</title>
<path fill="none" stroke="midnightblue" d="M1102.65,-75C1117.88,-75 1133.87,-75 1149.69,-75"/>
<polygon fill="midnightblue" stroke="midnightblue" points="1102.24,-71.5001 1092.24,-75 1102.24,-78.5001 1102.24,-71.5001"/>
</g>
<!-- Node12 -->
<g id="node12" class="node"><title>Node12</title>
<g id="a_node12"><a xlink:href="../../d2/d87/classengine_1_1state_managing_1_1_game_loop.html#a6b4981af45d656d6bfffa3a6ad9b0b9d" target="_top" xlink:title="engine.stateManaging.Game\lLoop.updateEditor">
<polygon fill="white" stroke="black" points="1428.5,-60 1428.5,-90 1583.5,-90 1583.5,-60 1428.5,-60"/>
<text text-anchor="start" x="1436.5" y="-78" font-family="Helvetica,sans-Serif" font-size="10.00">engine.stateManaging.Game</text>
<text text-anchor="middle" x="1506" y="-67" font-family="Helvetica,sans-Serif" font-size="10.00">Loop.updateEditor</text>
</a>
</g>
</g>
<!-- Node11&#45;&gt;Node12 -->
<g id="edge11" class="edge"><title>Node11&#45;&gt;Node12</title>
<path fill="none" stroke="midnightblue" d="M1402.27,-75C1411.11,-75 1419.85,-75 1428.27,-75"/>
<polygon fill="midnightblue" stroke="midnightblue" points="1402.25,-71.5001 1392.25,-75 1402.25,-78.5001 1402.25,-71.5001"/>
</g>
</g>
</svg>
