<?xml version="1.0" encoding="UTF-8" standalone="no"?>
<!DOCTYPE svg PUBLIC "-//W3C//DTD SVG 1.1//EN"
 "http://www.w3.org/Graphics/SVG/1.1/DTD/svg11.dtd">
<!-- Generated by graphviz version 2.36.0 (20140111.2315)
 -->
<!-- Title: view.runner.RunnerMenuBarController.initFileMenu Pages: 1 -->
<svg width="726pt" height="77pt"
 viewBox="0.00 0.00 726.00 77.00" xmlns="http://www.w3.org/2000/svg" xmlns:xlink="http://www.w3.org/1999/xlink">
<g id="graph0" class="graph" transform="scale(1 1) rotate(0) translate(4 73)">
<title>view.runner.RunnerMenuBarController.initFileMenu</title>
<polygon fill="white" stroke="none" points="-4,4 -4,-73 722,-73 722,4 -4,4"/>
<!-- Node1 -->
<g id="node1" class="node"><title>Node1</title>
<polygon fill="#bfbfbf" stroke="black" points="0.5,-22 0.5,-52 149.5,-52 149.5,-22 0.5,-22"/>
<text text-anchor="start" x="8.5" y="-40" font-family="Helvetica,sans-Serif" font-size="10.00">view.runner.RunnerMenuBar</text>
<text text-anchor="middle" x="75" y="-29" font-family="Helvetica,sans-Serif" font-size="10.00">Controller.initFileMenu</text>
</g>
<!-- Node2 -->
<g id="node2" class="node"><title>Node2</title>
<g id="a_node2"><a xlink:href="../../de/d21/classmodel_1_1_main_model.html#aad72e8d239a29bb3a1e1575698d385e7" target="_top" xlink:title="model.MainModel.saveGame">
<polygon fill="white" stroke="black" points="186.5,-49.5 186.5,-68.5 341.5,-68.5 341.5,-49.5 186.5,-49.5"/>
<text text-anchor="middle" x="264" y="-56.5" font-family="Helvetica,sans-Serif" font-size="10.00">model.MainModel.saveGame</text>
</a>
</g>
</g>
<!-- Node1&#45;&gt;Node2 -->
<g id="edge1" class="edge"><title>Node1&#45;&gt;Node2</title>
<path fill="none" stroke="midnightblue" d="M149.639,-45.6634C158.402,-46.6943 167.408,-47.7539 176.331,-48.8037"/>
<polygon fill="midnightblue" stroke="midnightblue" points="176.012,-52.2902 186.353,-49.9827 176.83,-45.3382 176.012,-52.2902"/>
</g>
<!-- Node3 -->
<g id="node3" class="node"><title>Node3</title>
<g id="a_node3"><a xlink:href="../../d2/d02/classview_1_1gui_1_1_g_u_i_screen.html#ab3d125c65e5d548dfa9e5566c7a4c50f" target="_top" xlink:title="view.gui.GUIScreen.switch\lScreen">
<polygon fill="white" stroke="black" points="194,-0 194,-30 334,-30 334,-0 194,-0"/>
<text text-anchor="start" x="202" y="-18" font-family="Helvetica,sans-Serif" font-size="10.00">view.gui.GUIScreen.switch</text>
<text text-anchor="middle" x="264" y="-7" font-family="Helvetica,sans-Serif" font-size="10.00">Screen</text>
</a>
</g>
</g>
<!-- Node1&#45;&gt;Node3 -->
<g id="edge2" class="edge"><title>Node1&#45;&gt;Node3</title>
<path fill="none" stroke="midnightblue" d="M149.639,-28.3366C160.751,-27.0293 172.255,-25.6759 183.484,-24.3549"/>
<polygon fill="midnightblue" stroke="midnightblue" points="184.177,-27.7976 193.699,-23.153 183.359,-20.8455 184.177,-27.7976"/>
</g>
<!-- Node4 -->
<g id="node4" class="node"><title>Node4</title>
<g id="a_node4"><a xlink:href="../../d1/d75/classview_1_1_main_view.html#a6d02708fccb6f546a83ee8d9d25a0456" target="_top" xlink:title="view.MainView.launchScreen">
<polygon fill="white" stroke="black" points="378.5,-5.5 378.5,-24.5 529.5,-24.5 529.5,-5.5 378.5,-5.5"/>
<text text-anchor="middle" x="454" y="-12.5" font-family="Helvetica,sans-Serif" font-size="10.00">view.MainView.launchScreen</text>
</a>
</g>
</g>
<!-- Node3&#45;&gt;Node4 -->
<g id="edge3" class="edge"><title>Node3&#45;&gt;Node4</title>
<path fill="none" stroke="midnightblue" d="M334.203,-15C345.185,-15 356.653,-15 367.947,-15"/>
<polygon fill="midnightblue" stroke="midnightblue" points="368.252,-18.5001 378.252,-15 368.252,-11.5001 368.252,-18.5001"/>
</g>
<!-- Node5 -->
<g id="node5" class="node"><title>Node5</title>
<g id="a_node5"><a xlink:href="../../d6/d2b/enumview_1_1gui_1_1_view_screen_path.html#ad11ff5b8ad7e316e6d0e4ddc3b30a9e1" target="_top" xlink:title="view.gui.ViewScreenPath.get\lFilePath">
<polygon fill="white" stroke="black" points="566,-0 566,-30 718,-30 718,-0 566,-0"/>
<text text-anchor="start" x="574" y="-18" font-family="Helvetica,sans-Serif" font-size="10.00">view.gui.ViewScreenPath.get</text>
<text text-anchor="middle" x="642" y="-7" font-family="Helvetica,sans-Serif" font-size="10.00">FilePath</text>
</a>
</g>
</g>
<!-- Node4&#45;&gt;Node5 -->
<g id="edge4" class="edge"><title>Node4&#45;&gt;Node5</title>
<path fill="none" stroke="midnightblue" d="M529.582,-15C538.153,-15 546.943,-15 555.642,-15"/>
<polygon fill="midnightblue" stroke="midnightblue" points="555.795,-18.5001 565.795,-15 555.795,-11.5001 555.795,-18.5001"/>
</g>
</g>
</svg>
