<?xml version="1.0" encoding="UTF-8" standalone="no"?>
<!DOCTYPE svg PUBLIC "-//W3C//DTD SVG 1.1//EN"
 "http://www.w3.org/Graphics/SVG/1.1/DTD/svg11.dtd">
<!-- Generated by graphviz version 2.36.0 (20140111.2315)
 -->
<!-- Title: util.imageprocessing.SpriteSheetCreationUtility.main Pages: 1 -->
<svg width="820pt" height="97pt"
 viewBox="0.00 0.00 820.00 97.00" xmlns="http://www.w3.org/2000/svg" xmlns:xlink="http://www.w3.org/1999/xlink">
<g id="graph0" class="graph" transform="scale(1 1) rotate(0) translate(4 93)">
<title>util.imageprocessing.SpriteSheetCreationUtility.main</title>
<polygon fill="white" stroke="none" points="-4,4 -4,-93 816,-93 816,4 -4,4"/>
<!-- Node1 -->
<g id="node1" class="node"><title>Node1</title>
<polygon fill="#bfbfbf" stroke="black" points="0.5,-32 0.5,-62 147.5,-62 147.5,-32 0.5,-32"/>
<text text-anchor="start" x="8.5" y="-50" font-family="Helvetica,sans-Serif" font-size="10.00">util.imageprocessing.Sprite</text>
<text text-anchor="middle" x="74" y="-39" font-family="Helvetica,sans-Serif" font-size="10.00">SheetCreationUtility.main</text>
</g>
<!-- Node2 -->
<g id="node2" class="node"><title>Node2</title>
<g id="a_node2"><a xlink:href="../../dd/d92/classutil_1_1imageprocessing_1_1_sprite_sheet_creation_utility.html#a8a1328f21a2c0289d2941fcdd8e50c16" target="_top" xlink:title="util.imageprocessing.Sprite\lSheetCreationUtility.doThing">
<polygon fill="white" stroke="black" points="184,-32 184,-62 336,-62 336,-32 184,-32"/>
<text text-anchor="start" x="192" y="-50" font-family="Helvetica,sans-Serif" font-size="10.00">util.imageprocessing.Sprite</text>
<text text-anchor="middle" x="260" y="-39" font-family="Helvetica,sans-Serif" font-size="10.00">SheetCreationUtility.doThing</text>
</a>
</g>
</g>
<!-- Node1&#45;&gt;Node2 -->
<g id="edge1" class="edge"><title>Node1&#45;&gt;Node2</title>
<path fill="none" stroke="midnightblue" d="M147.722,-47C156.241,-47 164.992,-47 173.663,-47"/>
<polygon fill="midnightblue" stroke="midnightblue" points="173.787,-50.5001 183.787,-47 173.787,-43.5001 173.787,-50.5001"/>
</g>
<!-- Node3 -->
<g id="node3" class="node"><title>Node3</title>
<g id="a_node3"><a xlink:href="../../dd/d92/classutil_1_1imageprocessing_1_1_sprite_sheet_creation_utility.html#a3354b9ee3e977de337b7320cb6473d66" target="_top" xlink:title="util.imageprocessing.Sprite\lSheetCreationUtility.colorToTransparency">
<polygon fill="white" stroke="black" points="372,-59 372,-89 582,-89 582,-59 372,-59"/>
<text text-anchor="start" x="380" y="-77" font-family="Helvetica,sans-Serif" font-size="10.00">util.imageprocessing.Sprite</text>
<text text-anchor="middle" x="477" y="-66" font-family="Helvetica,sans-Serif" font-size="10.00">SheetCreationUtility.colorToTransparency</text>
</a>
</g>
</g>
<!-- Node2&#45;&gt;Node3 -->
<g id="edge2" class="edge"><title>Node2&#45;&gt;Node3</title>
<path fill="none" stroke="midnightblue" d="M336.197,-56.4433C344.465,-57.4816 353.014,-58.5553 361.623,-59.6364"/>
<polygon fill="midnightblue" stroke="midnightblue" points="361.384,-63.1338 371.742,-60.9072 362.257,-56.1884 361.384,-63.1338"/>
</g>
<!-- Node5 -->
<g id="node5" class="node"><title>Node5</title>
<g id="a_node5"><a xlink:href="../../dd/d92/classutil_1_1imageprocessing_1_1_sprite_sheet_creation_utility.html#a5747cc3c45ba84da8a6091de62896600" target="_top" xlink:title="util.imageprocessing.Sprite\lSheetCreationUtility.loadFilesIn\lDirectory">
<polygon fill="white" stroke="black" points="395.5,0.5 395.5,-40.5 558.5,-40.5 558.5,0.5 395.5,0.5"/>
<text text-anchor="start" x="403.5" y="-28.5" font-family="Helvetica,sans-Serif" font-size="10.00">util.imageprocessing.Sprite</text>
<text text-anchor="start" x="403.5" y="-17.5" font-family="Helvetica,sans-Serif" font-size="10.00">SheetCreationUtility.loadFilesIn</text>
<text text-anchor="middle" x="477" y="-6.5" font-family="Helvetica,sans-Serif" font-size="10.00">Directory</text>
</a>
</g>
</g>
<!-- Node2&#45;&gt;Node5 -->
<g id="edge4" class="edge"><title>Node2&#45;&gt;Node5</title>
<path fill="none" stroke="midnightblue" d="M336.197,-37.5567C352.041,-35.567 368.917,-33.4476 385.264,-31.3948"/>
<polygon fill="midnightblue" stroke="midnightblue" points="385.873,-34.8459 395.359,-30.127 385.001,-27.9004 385.873,-34.8459"/>
</g>
<!-- Node4 -->
<g id="node4" class="node"><title>Node4</title>
<g id="a_node4"><a xlink:href="../../dd/d92/classutil_1_1imageprocessing_1_1_sprite_sheet_creation_utility.html#a2a40785a52abe74fe0ed5b3e88f4052e" target="_top" xlink:title="util.imageprocessing.Sprite\lSheetCreationUtility.toBufferedImage">
<polygon fill="white" stroke="black" points="618,-59 618,-89 812,-89 812,-59 618,-59"/>
<text text-anchor="start" x="626" y="-77" font-family="Helvetica,sans-Serif" font-size="10.00">util.imageprocessing.Sprite</text>
<text text-anchor="middle" x="715" y="-66" font-family="Helvetica,sans-Serif" font-size="10.00">SheetCreationUtility.toBufferedImage</text>
</a>
</g>
</g>
<!-- Node3&#45;&gt;Node4 -->
<g id="edge3" class="edge"><title>Node3&#45;&gt;Node4</title>
<path fill="none" stroke="midnightblue" d="M582.2,-74C590.627,-74 599.15,-74 607.593,-74"/>
<polygon fill="midnightblue" stroke="midnightblue" points="607.84,-77.5001 617.84,-74 607.84,-70.5001 607.84,-77.5001"/>
</g>
</g>
</svg>
