<?xml version="1.0" encoding="UTF-8" standalone="no"?>
<!DOCTYPE svg PUBLIC "-//W3C//DTD SVG 1.1//EN"
 "http://www.w3.org/Graphics/SVG/1.1/DTD/svg11.dtd">
<!-- Generated by graphviz version 2.36.0 (20140111.2315)
 -->
<!-- Title: util.imageprocessing.SpriteSheetCreationUtility.createSpriteSheet Pages: 1 -->
<svg width="912pt" height="464pt"
 viewBox="0.00 0.00 912.00 464.00" xmlns="http://www.w3.org/2000/svg" xmlns:xlink="http://www.w3.org/1999/xlink">
<g id="graph0" class="graph" transform="scale(1 1) rotate(0) translate(4 460)">
<title>util.imageprocessing.SpriteSheetCreationUtility.createSpriteSheet</title>
<polygon fill="white" stroke="none" points="-4,4 -4,-460 908,-460 908,4 -4,4"/>
<!-- Node1 -->
<g id="node1" class="node"><title>Node1</title>
<polygon fill="#bfbfbf" stroke="black" points="0,-172 0,-202 202,-202 202,-172 0,-172"/>
<text text-anchor="start" x="8" y="-190" font-family="Helvetica,sans-Serif" font-size="10.00">util.imageprocessing.Sprite</text>
<text text-anchor="middle" x="101" y="-179" font-family="Helvetica,sans-Serif" font-size="10.00">SheetCreationUtility.createSpriteSheet</text>
</g>
<!-- Node2 -->
<g id="node2" class="node"><title>Node2</title>
<g id="a_node2"><a xlink:href="../../dd/d92/classutil_1_1imageprocessing_1_1_sprite_sheet_creation_utility.html#a53a38ffa0d3d169e87798db87371a525" target="_top" xlink:title="util.imageprocessing.Sprite\lSheetCreationUtility.createState\lSpritesheets">
<polygon fill="white" stroke="black" points="247.5,-294.5 247.5,-335.5 418.5,-335.5 418.5,-294.5 247.5,-294.5"/>
<text text-anchor="start" x="255.5" y="-323.5" font-family="Helvetica,sans-Serif" font-size="10.00">util.imageprocessing.Sprite</text>
<text text-anchor="start" x="255.5" y="-312.5" font-family="Helvetica,sans-Serif" font-size="10.00">SheetCreationUtility.createState</text>
<text text-anchor="middle" x="333" y="-301.5" font-family="Helvetica,sans-Serif" font-size="10.00">Spritesheets</text>
</a>
</g>
</g>
<!-- Node1&#45;&gt;Node2 -->
<g id="edge1" class="edge"><title>Node1&#45;&gt;Node2</title>
<path fill="none" stroke="midnightblue" d="M120.882,-202.123C146.323,-221.967 193.557,-256.969 238,-280 245.145,-283.703 252.773,-287.209 260.478,-290.469"/>
<polygon fill="midnightblue" stroke="midnightblue" points="259.305,-293.771 269.886,-294.32 261.957,-287.293 259.305,-293.771"/>
</g>
<!-- Node6 -->
<g id="node6" class="node"><title>Node6</title>
<g id="a_node6"><a xlink:href="../../dd/d92/classutil_1_1imageprocessing_1_1_sprite_sheet_creation_utility.html#aa068488206f0ef378045c98dcaf3aa94" target="_top" xlink:title="util.imageprocessing.Sprite\lSheetCreationUtility.extractAll\lSpriteLists">
<polygon fill="white" stroke="black" points="253.5,-354.5 253.5,-395.5 412.5,-395.5 412.5,-354.5 253.5,-354.5"/>
<text text-anchor="start" x="261.5" y="-383.5" font-family="Helvetica,sans-Serif" font-size="10.00">util.imageprocessing.Sprite</text>
<text text-anchor="start" x="261.5" y="-372.5" font-family="Helvetica,sans-Serif" font-size="10.00">SheetCreationUtility.extractAll</text>
<text text-anchor="middle" x="333" y="-361.5" font-family="Helvetica,sans-Serif" font-size="10.00">SpriteLists</text>
</a>
</g>
</g>
<!-- Node1&#45;&gt;Node6 -->
<g id="edge5" class="edge"><title>Node1&#45;&gt;Node6</title>
<path fill="none" stroke="midnightblue" d="M111.217,-202.372C130.708,-233.598 179.181,-304.808 238,-344 241.115,-346.075 244.38,-348.022 247.748,-349.847"/>
<polygon fill="midnightblue" stroke="midnightblue" points="246.357,-353.064 256.867,-354.397 249.482,-346.801 246.357,-353.064"/>
</g>
<!-- Node10 -->
<g id="node10" class="node"><title>Node10</title>
<g id="a_node10"><a xlink:href="../../df/ddf/classutil_1_1imageprocessing_1_1_color_mask_extractor.html#a2fb7fbddb4075354b93e5cfc842dfd0c" target="_top" xlink:title="util.imageprocessing.Color\lMaskExtractor.extractColorMask">
<polygon fill="white" stroke="black" points="484,-197 484,-227 654,-227 654,-197 484,-197"/>
<text text-anchor="start" x="492" y="-215" font-family="Helvetica,sans-Serif" font-size="10.00">util.imageprocessing.Color</text>
<text text-anchor="middle" x="569" y="-204" font-family="Helvetica,sans-Serif" font-size="10.00">MaskExtractor.extractColorMask</text>
</a>
</g>
</g>
<!-- Node1&#45;&gt;Node10 -->
<g id="edge9" class="edge"><title>Node1&#45;&gt;Node10</title>
<path fill="none" stroke="midnightblue" d="M128.021,-202.137C154.635,-216.676 197.68,-237.631 238,-246 320.682,-263.162 344.329,-257.405 428,-246 444.454,-243.757 447.906,-240.09 464,-236 472.705,-233.788 481.841,-231.553 490.934,-229.383"/>
<polygon fill="midnightblue" stroke="midnightblue" points="491.835,-232.767 500.761,-227.059 490.224,-225.955 491.835,-232.767"/>
</g>
<!-- Node11 -->
<g id="node11" class="node"><title>Node11</title>
<g id="a_node11"><a xlink:href="../../dd/d92/classutil_1_1imageprocessing_1_1_sprite_sheet_creation_utility.html#a0c210a5a23cb68c8656e6aec5cc1c15a" target="_top" xlink:title="util.imageprocessing.Sprite\lSheetCreationUtility.findMaximum\lImageHeight">
<polygon fill="white" stroke="black" points="243.5,-196.5 243.5,-237.5 422.5,-237.5 422.5,-196.5 243.5,-196.5"/>
<text text-anchor="start" x="251.5" y="-225.5" font-family="Helvetica,sans-Serif" font-size="10.00">util.imageprocessing.Sprite</text>
<text text-anchor="start" x="251.5" y="-214.5" font-family="Helvetica,sans-Serif" font-size="10.00">SheetCreationUtility.findMaximum</text>
<text text-anchor="middle" x="333" y="-203.5" font-family="Helvetica,sans-Serif" font-size="10.00">ImageHeight</text>
</a>
</g>
</g>
<!-- Node1&#45;&gt;Node11 -->
<g id="edge11" class="edge"><title>Node1&#45;&gt;Node11</title>
<path fill="none" stroke="midnightblue" d="M202.212,-200.071C212.472,-201.409 222.891,-202.768 233.136,-204.105"/>
<polygon fill="midnightblue" stroke="midnightblue" points="232.941,-207.609 243.31,-205.432 233.847,-200.668 232.941,-207.609"/>
</g>
<!-- Node12 -->
<g id="node12" class="node"><title>Node12</title>
<g id="a_node12"><a xlink:href="../../dd/d92/classutil_1_1imageprocessing_1_1_sprite_sheet_creation_utility.html#acf131ab9c8f0c7dffa239bd51960a7eb" target="_top" xlink:title="util.imageprocessing.Sprite\lSheetCreationUtility.findMaximum\lImageWidth">
<polygon fill="white" stroke="black" points="243.5,-136.5 243.5,-177.5 422.5,-177.5 422.5,-136.5 243.5,-136.5"/>
<text text-anchor="start" x="251.5" y="-165.5" font-family="Helvetica,sans-Serif" font-size="10.00">util.imageprocessing.Sprite</text>
<text text-anchor="start" x="251.5" y="-154.5" font-family="Helvetica,sans-Serif" font-size="10.00">SheetCreationUtility.findMaximum</text>
<text text-anchor="middle" x="333" y="-143.5" font-family="Helvetica,sans-Serif" font-size="10.00">ImageWidth</text>
</a>
</g>
</g>
<!-- Node1&#45;&gt;Node12 -->
<g id="edge12" class="edge"><title>Node1&#45;&gt;Node12</title>
<path fill="none" stroke="midnightblue" d="M202.212,-173.929C212.472,-172.591 222.891,-171.232 233.136,-169.895"/>
<polygon fill="midnightblue" stroke="midnightblue" points="233.847,-173.332 243.31,-168.568 232.941,-166.391 233.847,-173.332"/>
</g>
<!-- Node13 -->
<g id="node13" class="node"><title>Node13</title>
<g id="a_node13"><a xlink:href="../../df/ddf/classutil_1_1imageprocessing_1_1_color_mask_extractor.html#a1b29349ba4c9ea11c9fa6b0adebde816" target="_top" xlink:title="util.imageprocessing.Color\lMaskExtractor.mutateColorMask">
<polygon fill="white" stroke="black" points="247,-88 247,-118 419,-118 419,-88 247,-88"/>
<text text-anchor="start" x="255" y="-106" font-family="Helvetica,sans-Serif" font-size="10.00">util.imageprocessing.Color</text>
<text text-anchor="middle" x="333" y="-95" font-family="Helvetica,sans-Serif" font-size="10.00">MaskExtractor.mutateColorMask</text>
</a>
</g>
</g>
<!-- Node1&#45;&gt;Node13 -->
<g id="edge13" class="edge"><title>Node1&#45;&gt;Node13</title>
<path fill="none" stroke="midnightblue" d="M132.208,-171.941C159.392,-158.809 200.681,-139.897 238,-127 244.257,-124.838 250.808,-122.774 257.417,-120.829"/>
<polygon fill="midnightblue" stroke="midnightblue" points="258.453,-124.173 267.111,-118.066 256.535,-117.441 258.453,-124.173"/>
</g>
<!-- Node14 -->
<g id="node14" class="node"><title>Node14</title>
<g id="a_node14"><a xlink:href="../../d3/d14/classutil_1_1_save_load_utility.html#ad10d6bbf9499a296708397b33f81e5c1" target="_top" xlink:title="util.SaveLoadUtility.save">
<polygon fill="white" stroke="black" points="267,-49.5 267,-68.5 399,-68.5 399,-49.5 267,-49.5"/>
<text text-anchor="middle" x="333" y="-56.5" font-family="Helvetica,sans-Serif" font-size="10.00">util.SaveLoadUtility.save</text>
</a>
</g>
</g>
<!-- Node1&#45;&gt;Node14 -->
<g id="edge15" class="edge"><title>Node1&#45;&gt;Node14</title>
<path fill="none" stroke="midnightblue" d="M115.88,-171.971C138.851,-148.08 187.295,-101.719 238,-78 244.08,-75.1561 250.575,-72.7368 257.205,-70.6787"/>
<polygon fill="midnightblue" stroke="midnightblue" points="258.312,-74.0032 266.983,-67.9147 256.408,-67.2672 258.312,-74.0032"/>
</g>
<!-- Node17 -->
<g id="node17" class="node"><title>Node17</title>
<g id="a_node17"><a xlink:href="../../dd/d92/classutil_1_1imageprocessing_1_1_sprite_sheet_creation_utility.html#a5751126eae773b9afe1d897a42d9ca10" target="_top" xlink:title="util.imageprocessing.Sprite\lSheetCreationUtility.tileSpritesheets">
<polygon fill="white" stroke="black" points="238.5,-0 238.5,-30 427.5,-30 427.5,-0 238.5,-0"/>
<text text-anchor="start" x="246.5" y="-18" font-family="Helvetica,sans-Serif" font-size="10.00">util.imageprocessing.Sprite</text>
<text text-anchor="middle" x="333" y="-7" font-family="Helvetica,sans-Serif" font-size="10.00">SheetCreationUtility.tileSpritesheets</text>
</a>
</g>
</g>
<!-- Node1&#45;&gt;Node17 -->
<g id="edge18" class="edge"><title>Node1&#45;&gt;Node17</title>
<path fill="none" stroke="midnightblue" d="M111.593,-171.897C131.413,-141.961 179.923,-74.9786 238,-40 241.58,-37.8437 245.347,-35.8706 249.23,-34.0656"/>
<polygon fill="midnightblue" stroke="midnightblue" points="250.628,-37.2746 258.471,-30.1514 247.898,-30.829 250.628,-37.2746"/>
</g>
<!-- Node3 -->
<g id="node3" class="node"><title>Node3</title>
<g id="a_node3"><a xlink:href="../../dd/d92/classutil_1_1imageprocessing_1_1_sprite_sheet_creation_utility.html#aea3b888cebb126f04766b52273a28070" target="_top" xlink:title="util.imageprocessing.Sprite\lSheetCreationUtility.tileImages\lIntoColumns">
<polygon fill="white" stroke="black" points="487,-294.5 487,-335.5 651,-335.5 651,-294.5 487,-294.5"/>
<text text-anchor="start" x="495" y="-323.5" font-family="Helvetica,sans-Serif" font-size="10.00">util.imageprocessing.Sprite</text>
<text text-anchor="start" x="495" y="-312.5" font-family="Helvetica,sans-Serif" font-size="10.00">SheetCreationUtility.tileImages</text>
<text text-anchor="middle" x="569" y="-301.5" font-family="Helvetica,sans-Serif" font-size="10.00">IntoColumns</text>
</a>
</g>
</g>
<!-- Node2&#45;&gt;Node3 -->
<g id="edge2" class="edge"><title>Node2&#45;&gt;Node3</title>
<path fill="none" stroke="midnightblue" d="M418.81,-315C437.658,-315 457.714,-315 476.806,-315"/>
<polygon fill="midnightblue" stroke="midnightblue" points="476.993,-318.5 486.993,-315 476.993,-311.5 476.993,-318.5"/>
</g>
<!-- Node4 -->
<g id="node4" class="node"><title>Node4</title>
<g id="a_node4"><a xlink:href="../../dd/d92/classutil_1_1imageprocessing_1_1_sprite_sheet_creation_utility.html#a3354b9ee3e977de337b7320cb6473d66" target="_top" xlink:title="util.imageprocessing.Sprite\lSheetCreationUtility.colorToTransparency">
<polygon fill="white" stroke="black" points="464,-246 464,-276 674,-276 674,-246 464,-246"/>
<text text-anchor="start" x="472" y="-264" font-family="Helvetica,sans-Serif" font-size="10.00">util.imageprocessing.Sprite</text>
<text text-anchor="middle" x="569" y="-253" font-family="Helvetica,sans-Serif" font-size="10.00">SheetCreationUtility.colorToTransparency</text>
</a>
</g>
</g>
<!-- Node2&#45;&gt;Node4 -->
<g id="edge3" class="edge"><title>Node2&#45;&gt;Node4</title>
<path fill="none" stroke="midnightblue" d="M418.81,-295.428C443.073,-289.829 469.338,-283.768 492.969,-278.315"/>
<polygon fill="midnightblue" stroke="midnightblue" points="493.966,-281.677 502.922,-276.018 492.391,-274.856 493.966,-281.677"/>
</g>
<!-- Node5 -->
<g id="node5" class="node"><title>Node5</title>
<g id="a_node5"><a xlink:href="../../dd/d92/classutil_1_1imageprocessing_1_1_sprite_sheet_creation_utility.html#a2a40785a52abe74fe0ed5b3e88f4052e" target="_top" xlink:title="util.imageprocessing.Sprite\lSheetCreationUtility.toBufferedImage">
<polygon fill="white" stroke="black" points="710,-197 710,-227 904,-227 904,-197 710,-197"/>
<text text-anchor="start" x="718" y="-215" font-family="Helvetica,sans-Serif" font-size="10.00">util.imageprocessing.Sprite</text>
<text text-anchor="middle" x="807" y="-204" font-family="Helvetica,sans-Serif" font-size="10.00">SheetCreationUtility.toBufferedImage</text>
</a>
</g>
</g>
<!-- Node4&#45;&gt;Node5 -->
<g id="edge4" class="edge"><title>Node4&#45;&gt;Node5</title>
<path fill="none" stroke="midnightblue" d="M642.412,-245.965C668.123,-240.627 697.246,-234.58 723.721,-229.083"/>
<polygon fill="midnightblue" stroke="midnightblue" points="724.646,-232.466 733.725,-227.006 723.223,-225.612 724.646,-232.466"/>
</g>
<!-- Node7 -->
<g id="node7" class="node"><title>Node7</title>
<g id="a_node7"><a xlink:href="../../dd/d92/classutil_1_1imageprocessing_1_1_sprite_sheet_creation_utility.html#a5747cc3c45ba84da8a6091de62896600" target="_top" xlink:title="util.imageprocessing.Sprite\lSheetCreationUtility.loadFilesIn\lDirectory">
<polygon fill="white" stroke="black" points="487.5,-354.5 487.5,-395.5 650.5,-395.5 650.5,-354.5 487.5,-354.5"/>
<text text-anchor="start" x="495.5" y="-383.5" font-family="Helvetica,sans-Serif" font-size="10.00">util.imageprocessing.Sprite</text>
<text text-anchor="start" x="495.5" y="-372.5" font-family="Helvetica,sans-Serif" font-size="10.00">SheetCreationUtility.loadFilesIn</text>
<text text-anchor="middle" x="569" y="-361.5" font-family="Helvetica,sans-Serif" font-size="10.00">Directory</text>
</a>
</g>
</g>
<!-- Node6&#45;&gt;Node7 -->
<g id="edge6" class="edge"><title>Node6&#45;&gt;Node7</title>
<path fill="none" stroke="midnightblue" d="M412.57,-375C433.316,-375 455.875,-375 477.21,-375"/>
<polygon fill="midnightblue" stroke="midnightblue" points="477.241,-378.5 487.241,-375 477.241,-371.5 477.241,-378.5"/>
</g>
<!-- Node8 -->
<g id="node8" class="node"><title>Node8</title>
<g id="a_node8"><a xlink:href="../../dd/d92/classutil_1_1imageprocessing_1_1_sprite_sheet_creation_utility.html#a022dc6eb95d4125daba7fe408ecb762b" target="_top" xlink:title="util.imageprocessing.Sprite\lSheetCreationUtility.extrapolate\lSprites">
<polygon fill="white" stroke="black" points="484.5,-414.5 484.5,-455.5 653.5,-455.5 653.5,-414.5 484.5,-414.5"/>
<text text-anchor="start" x="492.5" y="-443.5" font-family="Helvetica,sans-Serif" font-size="10.00">util.imageprocessing.Sprite</text>
<text text-anchor="start" x="492.5" y="-432.5" font-family="Helvetica,sans-Serif" font-size="10.00">SheetCreationUtility.extrapolate</text>
<text text-anchor="middle" x="569" y="-421.5" font-family="Helvetica,sans-Serif" font-size="10.00">Sprites</text>
</a>
</g>
</g>
<!-- Node6&#45;&gt;Node8 -->
<g id="edge7" class="edge"><title>Node6&#45;&gt;Node8</title>
<path fill="none" stroke="midnightblue" d="M412.57,-395.146C433.64,-400.549 456.581,-406.431 478.209,-411.977"/>
<polygon fill="midnightblue" stroke="midnightblue" points="477.486,-415.404 488.042,-414.498 479.225,-408.624 477.486,-415.404"/>
</g>
<!-- Node9 -->
<g id="node9" class="node"><title>Node9</title>
<g id="a_node9"><a xlink:href="../../dd/d92/classutil_1_1imageprocessing_1_1_sprite_sheet_creation_utility.html#a551408e55cbcf5027ab94f7a29f4dab4" target="_top" xlink:title="util.imageprocessing.Sprite\lSheetCreationUtility.mirrorImage\lHorizontally">
<polygon fill="white" stroke="black" points="720.5,-414.5 720.5,-455.5 893.5,-455.5 893.5,-414.5 720.5,-414.5"/>
<text text-anchor="start" x="728.5" y="-443.5" font-family="Helvetica,sans-Serif" font-size="10.00">util.imageprocessing.Sprite</text>
<text text-anchor="start" x="728.5" y="-432.5" font-family="Helvetica,sans-Serif" font-size="10.00">SheetCreationUtility.mirrorImage</text>
<text text-anchor="middle" x="807" y="-421.5" font-family="Helvetica,sans-Serif" font-size="10.00">Horizontally</text>
</a>
</g>
</g>
<!-- Node8&#45;&gt;Node9 -->
<g id="edge8" class="edge"><title>Node8&#45;&gt;Node9</title>
<path fill="none" stroke="midnightblue" d="M653.537,-435C671.858,-435 691.393,-435 710.154,-435"/>
<polygon fill="midnightblue" stroke="midnightblue" points="710.183,-438.5 720.183,-435 710.182,-431.5 710.183,-438.5"/>
</g>
<!-- Node10&#45;&gt;Node5 -->
<g id="edge10" class="edge"><title>Node10&#45;&gt;Node5</title>
<path fill="none" stroke="midnightblue" d="M654.202,-212C668.829,-212 684.213,-212 699.346,-212"/>
<polygon fill="midnightblue" stroke="midnightblue" points="699.77,-215.5 709.77,-212 699.77,-208.5 699.77,-215.5"/>
</g>
<!-- Node13&#45;&gt;Node5 -->
<g id="edge14" class="edge"><title>Node13&#45;&gt;Node5</title>
<path fill="none" stroke="midnightblue" d="M399.134,-118.042C485.999,-138.102 639.43,-173.534 731.018,-194.684"/>
<polygon fill="midnightblue" stroke="midnightblue" points="730.246,-198.098 740.777,-196.938 731.821,-191.277 730.246,-198.098"/>
</g>
<!-- Node15 -->
<g id="node15" class="node"><title>Node15</title>
<g id="a_node15"><a xlink:href="../../d3/d14/classutil_1_1_save_load_utility.html#a45324a0a42802150f23edb0fe9340aa2" target="_top" xlink:title="util.SaveLoadUtility.obtainFile">
<polygon fill="white" stroke="black" points="491.5,-71.5 491.5,-90.5 646.5,-90.5 646.5,-71.5 491.5,-71.5"/>
<text text-anchor="middle" x="569" y="-78.5" font-family="Helvetica,sans-Serif" font-size="10.00">util.SaveLoadUtility.obtainFile</text>
</a>
</g>
</g>
<!-- Node14&#45;&gt;Node15 -->
<g id="edge16" class="edge"><title>Node14&#45;&gt;Node15</title>
<path fill="none" stroke="midnightblue" d="M399.182,-65.1282C424.484,-67.507 453.837,-70.2667 480.902,-72.8113"/>
<polygon fill="midnightblue" stroke="midnightblue" points="480.866,-76.3232 491.149,-73.7747 481.521,-69.354 480.866,-76.3232"/>
</g>
<!-- Node16 -->
<g id="node16" class="node"><title>Node16</title>
<g id="a_node16"><a xlink:href="../../d3/d14/classutil_1_1_save_load_utility.html#a7dd5135de57549be59b6af1d5828e2a1" target="_top" xlink:title="util.SaveLoadUtility.pre\lProcess">
<polygon fill="white" stroke="black" points="506.5,-22 506.5,-52 631.5,-52 631.5,-22 506.5,-22"/>
<text text-anchor="start" x="514.5" y="-40" font-family="Helvetica,sans-Serif" font-size="10.00">util.SaveLoadUtility.pre</text>
<text text-anchor="middle" x="569" y="-29" font-family="Helvetica,sans-Serif" font-size="10.00">Process</text>
</a>
</g>
</g>
<!-- Node14&#45;&gt;Node16 -->
<g id="edge17" class="edge"><title>Node14&#45;&gt;Node16</title>
<path fill="none" stroke="midnightblue" d="M399.182,-52.8718C429.313,-50.0389 465.191,-46.6658 496.107,-43.7592"/>
<polygon fill="midnightblue" stroke="midnightblue" points="496.757,-47.2136 506.385,-42.7928 496.102,-40.2443 496.757,-47.2136"/>
</g>
</g>
</svg>
