<?xml version="1.0" encoding="UTF-8" standalone="no"?>
<!DOCTYPE svg PUBLIC "-//W3C//DTD SVG 1.1//EN"
 "http://www.w3.org/Graphics/SVG/1.1/DTD/svg11.dtd">
<!-- Generated by graphviz version 2.36.0 (20140111.2315)
 -->
<!-- Title: util.imageprocessing.SpriteSheetCreationUtility.mirrorImageHorizontally Pages: 1 -->
<svg width="822pt" height="48pt"
 viewBox="0.00 0.00 822.00 48.00" xmlns="http://www.w3.org/2000/svg" xmlns:xlink="http://www.w3.org/1999/xlink">
<g id="graph0" class="graph" transform="scale(1 1) rotate(0) translate(4 44)">
<title>util.imageprocessing.SpriteSheetCreationUtility.mirrorImageHorizontally</title>
<polygon fill="white" stroke="none" points="-4,4 -4,-44 818,-44 818,4 -4,4"/>
<!-- Node1 -->
<g id="node1" class="node"><title>Node1</title>
<polygon fill="#bfbfbf" stroke="black" points="0.5,0.5 0.5,-40.5 173.5,-40.5 173.5,0.5 0.5,0.5"/>
<text text-anchor="start" x="8.5" y="-28.5" font-family="Helvetica,sans-Serif" font-size="10.00">util.imageprocessing.Sprite</text>
<text text-anchor="start" x="8.5" y="-17.5" font-family="Helvetica,sans-Serif" font-size="10.00">SheetCreationUtility.mirrorImage</text>
<text text-anchor="middle" x="87" y="-6.5" font-family="Helvetica,sans-Serif" font-size="10.00">Horizontally</text>
</g>
<!-- Node2 -->
<g id="node2" class="node"><title>Node2</title>
<g id="a_node2"><a xlink:href="../../dd/d92/classutil_1_1imageprocessing_1_1_sprite_sheet_creation_utility.html#a022dc6eb95d4125daba7fe408ecb762b" target="_top" xlink:title="util.imageprocessing.Sprite\lSheetCreationUtility.extrapolate\lSprites">
<polygon fill="white" stroke="black" points="210.5,0.5 210.5,-40.5 379.5,-40.5 379.5,0.5 210.5,0.5"/>
<text text-anchor="start" x="218.5" y="-28.5" font-family="Helvetica,sans-Serif" font-size="10.00">util.imageprocessing.Sprite</text>
<text text-anchor="start" x="218.5" y="-17.5" font-family="Helvetica,sans-Serif" font-size="10.00">SheetCreationUtility.extrapolate</text>
<text text-anchor="middle" x="295" y="-6.5" font-family="Helvetica,sans-Serif" font-size="10.00">Sprites</text>
</a>
</g>
</g>
<!-- Node1&#45;&gt;Node2 -->
<g id="edge1" class="edge"><title>Node1&#45;&gt;Node2</title>
<path fill="none" stroke="midnightblue" d="M183.608,-20C192.537,-20 201.541,-20 210.349,-20"/>
<polygon fill="midnightblue" stroke="midnightblue" points="183.573,-16.5001 173.573,-20 183.573,-23.5001 183.573,-16.5001"/>
</g>
<!-- Node3 -->
<g id="node3" class="node"><title>Node3</title>
<g id="a_node3"><a xlink:href="../../dd/d92/classutil_1_1imageprocessing_1_1_sprite_sheet_creation_utility.html#aa068488206f0ef378045c98dcaf3aa94" target="_top" xlink:title="util.imageprocessing.Sprite\lSheetCreationUtility.extractAll\lSpriteLists">
<polygon fill="white" stroke="black" points="416.5,0.5 416.5,-40.5 575.5,-40.5 575.5,0.5 416.5,0.5"/>
<text text-anchor="start" x="424.5" y="-28.5" font-family="Helvetica,sans-Serif" font-size="10.00">util.imageprocessing.Sprite</text>
<text text-anchor="start" x="424.5" y="-17.5" font-family="Helvetica,sans-Serif" font-size="10.00">SheetCreationUtility.extractAll</text>
<text text-anchor="middle" x="496" y="-6.5" font-family="Helvetica,sans-Serif" font-size="10.00">SpriteLists</text>
</a>
</g>
</g>
<!-- Node2&#45;&gt;Node3 -->
<g id="edge2" class="edge"><title>Node2&#45;&gt;Node3</title>
<path fill="none" stroke="midnightblue" d="M389.621,-20C398.598,-20 407.64,-20 416.451,-20"/>
<polygon fill="midnightblue" stroke="midnightblue" points="389.529,-16.5001 379.529,-20 389.529,-23.5001 389.529,-16.5001"/>
</g>
<!-- Node4 -->
<g id="node4" class="node"><title>Node4</title>
<g id="a_node4"><a xlink:href="../../dd/d92/classutil_1_1imageprocessing_1_1_sprite_sheet_creation_utility.html#ac6251a369463548bca5dfe671bff7e71" target="_top" xlink:title="util.imageprocessing.Sprite\lSheetCreationUtility.createSpriteSheet">
<polygon fill="white" stroke="black" points="612,-5 612,-35 814,-35 814,-5 612,-5"/>
<text text-anchor="start" x="620" y="-23" font-family="Helvetica,sans-Serif" font-size="10.00">util.imageprocessing.Sprite</text>
<text text-anchor="middle" x="713" y="-12" font-family="Helvetica,sans-Serif" font-size="10.00">SheetCreationUtility.createSpriteSheet</text>
</a>
</g>
</g>
<!-- Node3&#45;&gt;Node4 -->
<g id="edge3" class="edge"><title>Node3&#45;&gt;Node4</title>
<path fill="none" stroke="midnightblue" d="M585.556,-20C594.172,-20 602.956,-20 611.676,-20"/>
<polygon fill="midnightblue" stroke="midnightblue" points="585.533,-16.5001 575.533,-20 585.533,-23.5001 585.533,-16.5001"/>
</g>
</g>
</svg>
