<?xml version="1.0" encoding="UTF-8" standalone="no"?>
<!DOCTYPE svg PUBLIC "-//W3C//DTD SVG 1.1//EN"
 "http://www.w3.org/Graphics/SVG/1.1/DTD/svg11.dtd">
<!-- Generated by graphviz version 2.36.0 (20140111.2315)
 -->
<!-- Title: util.imageprocessing.SpriteSheetCreationUtility.extrapolateSprites Pages: 1 -->
<svg width="612pt" height="48pt"
 viewBox="0.00 0.00 612.00 48.00" xmlns="http://www.w3.org/2000/svg" xmlns:xlink="http://www.w3.org/1999/xlink">
<g id="graph0" class="graph" transform="scale(1 1) rotate(0) translate(4 44)">
<title>util.imageprocessing.SpriteSheetCreationUtility.extrapolateSprites</title>
<polygon fill="white" stroke="none" points="-4,4 -4,-44 608,-44 608,4 -4,4"/>
<!-- Node1 -->
<g id="node1" class="node"><title>Node1</title>
<polygon fill="#bfbfbf" stroke="black" points="0.5,0.5 0.5,-40.5 169.5,-40.5 169.5,0.5 0.5,0.5"/>
<text text-anchor="start" x="8.5" y="-28.5" font-family="Helvetica,sans-Serif" font-size="10.00">util.imageprocessing.Sprite</text>
<text text-anchor="start" x="8.5" y="-17.5" font-family="Helvetica,sans-Serif" font-size="10.00">SheetCreationUtility.extrapolate</text>
<text text-anchor="middle" x="85" y="-6.5" font-family="Helvetica,sans-Serif" font-size="10.00">Sprites</text>
</g>
<!-- Node2 -->
<g id="node2" class="node"><title>Node2</title>
<g id="a_node2"><a xlink:href="../../dd/d92/classutil_1_1imageprocessing_1_1_sprite_sheet_creation_utility.html#aa068488206f0ef378045c98dcaf3aa94" target="_top" xlink:title="util.imageprocessing.Sprite\lSheetCreationUtility.extractAll\lSpriteLists">
<polygon fill="white" stroke="black" points="206.5,0.5 206.5,-40.5 365.5,-40.5 365.5,0.5 206.5,0.5"/>
<text text-anchor="start" x="214.5" y="-28.5" font-family="Helvetica,sans-Serif" font-size="10.00">util.imageprocessing.Sprite</text>
<text text-anchor="start" x="214.5" y="-17.5" font-family="Helvetica,sans-Serif" font-size="10.00">SheetCreationUtility.extractAll</text>
<text text-anchor="middle" x="286" y="-6.5" font-family="Helvetica,sans-Serif" font-size="10.00">SpriteLists</text>
</a>
</g>
</g>
<!-- Node1&#45;&gt;Node2 -->
<g id="edge1" class="edge"><title>Node1&#45;&gt;Node2</title>
<path fill="none" stroke="midnightblue" d="M179.621,-20C188.598,-20 197.64,-20 206.451,-20"/>
<polygon fill="midnightblue" stroke="midnightblue" points="179.529,-16.5001 169.529,-20 179.529,-23.5001 179.529,-16.5001"/>
</g>
<!-- Node3 -->
<g id="node3" class="node"><title>Node3</title>
<g id="a_node3"><a xlink:href="../../dd/d92/classutil_1_1imageprocessing_1_1_sprite_sheet_creation_utility.html#ac6251a369463548bca5dfe671bff7e71" target="_top" xlink:title="util.imageprocessing.Sprite\lSheetCreationUtility.createSpriteSheet">
<polygon fill="white" stroke="black" points="402,-5 402,-35 604,-35 604,-5 402,-5"/>
<text text-anchor="start" x="410" y="-23" font-family="Helvetica,sans-Serif" font-size="10.00">util.imageprocessing.Sprite</text>
<text text-anchor="middle" x="503" y="-12" font-family="Helvetica,sans-Serif" font-size="10.00">SheetCreationUtility.createSpriteSheet</text>
</a>
</g>
</g>
<!-- Node2&#45;&gt;Node3 -->
<g id="edge2" class="edge"><title>Node2&#45;&gt;Node3</title>
<path fill="none" stroke="midnightblue" d="M375.556,-20C384.172,-20 392.956,-20 401.676,-20"/>
<polygon fill="midnightblue" stroke="midnightblue" points="375.533,-16.5001 365.533,-20 375.533,-23.5001 375.533,-16.5001"/>
</g>
</g>
</svg>
