<?xml version="1.0" encoding="UTF-8" standalone="no"?>
<!DOCTYPE svg PUBLIC "-//W3C//DTD SVG 1.1//EN"
 "http://www.w3.org/Graphics/SVG/1.1/DTD/svg11.dtd">
<!-- Generated by graphviz version 2.36.0 (20140111.2315)
 -->
<!-- Title: view.gui.GUIContainer.attachChildContainers Pages: 1 -->
<svg width="1154pt" height="143pt"
 viewBox="0.00 0.00 1154.00 143.00" xmlns="http://www.w3.org/2000/svg" xmlns:xlink="http://www.w3.org/1999/xlink">
<g id="graph0" class="graph" transform="scale(1 1) rotate(0) translate(4 139)">
<title>view.gui.GUIContainer.attachChildContainers</title>
<polygon fill="white" stroke="none" points="-4,4 -4,-139 1150,-139 1150,4 -4,4"/>
<!-- Node1 -->
<g id="node1" class="node"><title>Node1</title>
<polygon fill="#bfbfbf" stroke="black" points="0.5,-63 0.5,-93 153.5,-93 153.5,-63 0.5,-63"/>
<text text-anchor="start" x="8.5" y="-81" font-family="Helvetica,sans-Serif" font-size="10.00">view.gui.GUIContainer.attach</text>
<text text-anchor="middle" x="77" y="-70" font-family="Helvetica,sans-Serif" font-size="10.00">ChildContainers</text>
</g>
<!-- Node2 -->
<g id="node2" class="node"><title>Node2</title>
<g id="a_node2"><a xlink:href="../../d0/db5/classview_1_1editor_1_1_editor_screen.html#ac0c89f6996b8d53ff24c1093072716f8" target="_top" xlink:title="view.editor.EditorScreen.create\lNewTab">
<polygon fill="white" stroke="black" points="396,-76 396,-106 560,-106 560,-76 396,-76"/>
<text text-anchor="start" x="404" y="-94" font-family="Helvetica,sans-Serif" font-size="10.00">view.editor.EditorScreen.create</text>
<text text-anchor="middle" x="478" y="-83" font-family="Helvetica,sans-Serif" font-size="10.00">NewTab</text>
</a>
</g>
</g>
<!-- Node1&#45;&gt;Node2 -->
<g id="edge1" class="edge"><title>Node1&#45;&gt;Node2</title>
<path fill="none" stroke="midnightblue" d="M163.89,-80.7984C232.676,-83.0396 328.491,-86.1614 395.963,-88.3597"/>
<polygon fill="midnightblue" stroke="midnightblue" points="163.627,-77.2881 153.518,-80.4605 163.399,-84.2844 163.627,-77.2881"/>
</g>
<!-- Node5 -->
<g id="node5" class="node"><title>Node5</title>
<g id="a_node5"><a xlink:href="../../d0/db5/classview_1_1editor_1_1_editor_screen.html#aba6c32908c25fa4f755a312e92860c02" target="_top" xlink:title="view.editor.EditorScreen.init">
<polygon fill="white" stroke="black" points="998,-103.5 998,-122.5 1146,-122.5 1146,-103.5 998,-103.5"/>
<text text-anchor="middle" x="1072" y="-110.5" font-family="Helvetica,sans-Serif" font-size="10.00">view.editor.EditorScreen.init</text>
</a>
</g>
</g>
<!-- Node1&#45;&gt;Node5 -->
<g id="edge6" class="edge"><title>Node1&#45;&gt;Node5</title>
<path fill="none" stroke="midnightblue" d="M152.868,-95.1675C232.711,-111.952 363.091,-135 477,-135 477,-135 477,-135 688,-135 795.896,-135 920.609,-126.19 997.648,-119.72"/>
<polygon fill="midnightblue" stroke="midnightblue" points="153.415,-91.7057 142.906,-93.0506 151.96,-98.5528 153.415,-91.7057"/>
</g>
<!-- Node6 -->
<g id="node6" class="node"><title>Node6</title>
<g id="a_node6"><a xlink:href="../../d6/d9c/classview_1_1runner_1_1_runner_screen.html#af16493da3cec6d50fb47e41e96fac8ed" target="_top" xlink:title="view.runner.RunnerScreen.init">
<polygon fill="white" stroke="black" points="196.5,-49.5 196.5,-68.5 353.5,-68.5 353.5,-49.5 196.5,-49.5"/>
<text text-anchor="middle" x="275" y="-56.5" font-family="Helvetica,sans-Serif" font-size="10.00">view.runner.RunnerScreen.init</text>
</a>
</g>
</g>
<!-- Node1&#45;&gt;Node6 -->
<g id="edge5" class="edge"><title>Node1&#45;&gt;Node6</title>
<path fill="none" stroke="midnightblue" d="M164.049,-69.6586C174.841,-68.6124 185.83,-67.5471 196.481,-66.5146"/>
<polygon fill="midnightblue" stroke="midnightblue" points="163.394,-66.2055 153.779,-70.6541 164.07,-73.1728 163.394,-66.2055"/>
</g>
<!-- Node7 -->
<g id="node7" class="node"><title>Node7</title>
<g id="a_node7"><a xlink:href="../../d4/d65/classview_1_1editor_1_1_tab_view_controller.html#a3e431a0733f1d2409d3f0a863e0279e8" target="_top" xlink:title="view.editor.TabViewController.set\lLevel">
<polygon fill="white" stroke="black" points="190,-0 190,-30 360,-30 360,-0 190,-0"/>
<text text-anchor="start" x="198" y="-18" font-family="Helvetica,sans-Serif" font-size="10.00">view.editor.TabViewController.set</text>
<text text-anchor="middle" x="275" y="-7" font-family="Helvetica,sans-Serif" font-size="10.00">Level</text>
</a>
</g>
</g>
<!-- Node1&#45;&gt;Node7 -->
<g id="edge7" class="edge"><title>Node1&#45;&gt;Node7</title>
<path fill="none" stroke="midnightblue" d="M130.733,-59.6507C149.403,-53.2756 170.589,-46.1789 190,-40 200.439,-36.677 211.651,-33.2456 222.374,-30.0297"/>
<polygon fill="midnightblue" stroke="midnightblue" points="129.547,-56.3573 121.221,-62.9101 131.816,-62.9793 129.547,-56.3573"/>
</g>
<!-- Node3 -->
<g id="node3" class="node"><title>Node3</title>
<g id="a_node3"><a xlink:href="../../d0/db5/classview_1_1editor_1_1_editor_screen.html#ad3d33bc95534e6b677a83a2f01be9286" target="_top" xlink:title="view.editor.EditorScreen.launchTab">
<polygon fill="white" stroke="black" points="596.5,-81.5 596.5,-100.5 777.5,-100.5 777.5,-81.5 596.5,-81.5"/>
<text text-anchor="middle" x="687" y="-88.5" font-family="Helvetica,sans-Serif" font-size="10.00">view.editor.EditorScreen.launchTab</text>
</a>
</g>
</g>
<!-- Node2&#45;&gt;Node3 -->
<g id="edge2" class="edge"><title>Node2&#45;&gt;Node3</title>
<path fill="none" stroke="midnightblue" d="M570.335,-91C579.012,-91 587.804,-91 596.464,-91"/>
<polygon fill="midnightblue" stroke="midnightblue" points="570.218,-87.5001 560.218,-91 570.218,-94.5001 570.218,-87.5001"/>
</g>
<!-- Node4 -->
<g id="node4" class="node"><title>Node4</title>
<g id="a_node4"><a xlink:href="../../d0/db5/classview_1_1editor_1_1_editor_screen.html#aaad5f29799d14174213c2f06f6156890" target="_top" xlink:title="view.editor.EditorScreen.init\lProjectExplorer">
<polygon fill="white" stroke="black" points="814,-76 814,-106 962,-106 962,-76 814,-76"/>
<text text-anchor="start" x="822" y="-94" font-family="Helvetica,sans-Serif" font-size="10.00">view.editor.EditorScreen.init</text>
<text text-anchor="middle" x="888" y="-83" font-family="Helvetica,sans-Serif" font-size="10.00">ProjectExplorer</text>
</a>
</g>
</g>
<!-- Node3&#45;&gt;Node4 -->
<g id="edge3" class="edge"><title>Node3&#45;&gt;Node4</title>
<path fill="none" stroke="midnightblue" d="M787.619,-91C796.503,-91 805.385,-91 813.983,-91"/>
<polygon fill="midnightblue" stroke="midnightblue" points="787.603,-87.5001 777.603,-91 787.603,-94.5001 787.603,-87.5001"/>
</g>
<!-- Node4&#45;&gt;Node5 -->
<g id="edge4" class="edge"><title>Node4&#45;&gt;Node5</title>
<path fill="none" stroke="midnightblue" d="M972.237,-101.062C980.804,-102.097 989.464,-103.144 997.91,-104.165"/>
<polygon fill="midnightblue" stroke="midnightblue" points="972.587,-97.5786 962.24,-99.8531 971.747,-104.528 972.587,-97.5786"/>
</g>
<!-- Node7&#45;&gt;Node2 -->
<g id="edge8" class="edge"><title>Node7&#45;&gt;Node2</title>
<path fill="none" stroke="midnightblue" d="M340.011,-33.1648C346.798,-35.3539 353.566,-37.6503 360,-40 389.347,-50.7182 421.86,-65.101 445.148,-75.8601"/>
<polygon fill="midnightblue" stroke="midnightblue" points="340.682,-29.7066 330.093,-30.0405 338.579,-36.3832 340.682,-29.7066"/>
</g>
</g>
</svg>
