<?xml version="1.0" encoding="UTF-8" standalone="no"?>
<!DOCTYPE svg PUBLIC "-//W3C//DTD SVG 1.1//EN"
 "http://www.w3.org/Graphics/SVG/1.1/DTD/svg11.dtd">
<!-- Generated by graphviz version 2.36.0 (20140111.2315)
 -->
<!-- Title: view.gui.GUIContainer.update Pages: 1 -->
<svg width="508pt" height="28pt"
 viewBox="0.00 0.00 508.00 28.00" xmlns="http://www.w3.org/2000/svg" xmlns:xlink="http://www.w3.org/1999/xlink">
<g id="graph0" class="graph" transform="scale(1 1) rotate(0) translate(4 24)">
<title>view.gui.GUIContainer.update</title>
<polygon fill="white" stroke="none" points="-4,4 -4,-24 504,-24 504,4 -4,4"/>
<!-- Node1 -->
<g id="node1" class="node"><title>Node1</title>
<polygon fill="#bfbfbf" stroke="black" points="0,-0.5 0,-19.5 156,-19.5 156,-0.5 0,-0.5"/>
<text text-anchor="middle" x="78" y="-7.5" font-family="Helvetica,sans-Serif" font-size="10.00">view.gui.GUIContainer.update</text>
</g>
<!-- Node2 -->
<g id="node2" class="node"><title>Node2</title>
<g id="a_node2"><a xlink:href="../../d1/d75/classview_1_1_main_view.html#adb47407f31bbdbe19a645db736bb0fea" target="_top" xlink:title="view.MainView.update">
<polygon fill="white" stroke="black" points="192.5,-0.5 192.5,-19.5 311.5,-19.5 311.5,-0.5 192.5,-0.5"/>
<text text-anchor="middle" x="252" y="-7.5" font-family="Helvetica,sans-Serif" font-size="10.00">view.MainView.update</text>
</a>
</g>
</g>
<!-- Node1&#45;&gt;Node2 -->
<g id="edge1" class="edge"><title>Node1&#45;&gt;Node2</title>
<path fill="none" stroke="midnightblue" d="M166.478,-10C175.247,-10 183.996,-10 192.36,-10"/>
<polygon fill="midnightblue" stroke="midnightblue" points="166.195,-6.5001 156.195,-10 166.195,-13.5001 166.195,-6.5001"/>
</g>
<!-- Node3 -->
<g id="node3" class="node"><title>Node3</title>
<g id="a_node3"><a xlink:href="../../d1/d75/classview_1_1_main_view.html#ae3323ce0c06f6bec70ad15398d343061" target="_top" xlink:title="view.MainView.launchScreen">
<polygon fill="white" stroke="black" points="348.5,-0.5 348.5,-19.5 499.5,-19.5 499.5,-0.5 348.5,-0.5"/>
<text text-anchor="middle" x="424" y="-7.5" font-family="Helvetica,sans-Serif" font-size="10.00">view.MainView.launchScreen</text>
</a>
</g>
</g>
<!-- Node2&#45;&gt;Node3 -->
<g id="edge2" class="edge"><title>Node2&#45;&gt;Node3</title>
<path fill="none" stroke="midnightblue" d="M321.712,-10C330.523,-10 339.576,-10 348.474,-10"/>
<polygon fill="midnightblue" stroke="midnightblue" points="321.504,-6.5001 311.504,-10 321.504,-13.5001 321.504,-6.5001"/>
</g>
</g>
</svg>
