<?xml version="1.0" encoding="UTF-8" standalone="no"?>
<!DOCTYPE svg PUBLIC "-//W3C//DTD SVG 1.1//EN"
 "http://www.w3.org/Graphics/SVG/1.1/DTD/svg11.dtd">
<!-- Generated by graphviz version 2.36.0 (20140111.2315)
 -->
<!-- Title: view.gui.GUIContainer.update Pages: 1 -->
<svg width="356pt" height="87pt"
 viewBox="0.00 0.00 356.00 87.00" xmlns="http://www.w3.org/2000/svg" xmlns:xlink="http://www.w3.org/1999/xlink">
<g id="graph0" class="graph" transform="scale(1 1) rotate(0) translate(4 83)">
<title>view.gui.GUIContainer.update</title>
<polygon fill="white" stroke="none" points="-4,4 -4,-83 352,-83 352,4 -4,4"/>
<!-- Node1 -->
<g id="node1" class="node"><title>Node1</title>
<polygon fill="#bfbfbf" stroke="black" points="0,-29.5 0,-48.5 156,-48.5 156,-29.5 0,-29.5"/>
<text text-anchor="middle" x="78" y="-36.5" font-family="Helvetica,sans-Serif" font-size="10.00">view.gui.GUIContainer.update</text>
</g>
<!-- Node2 -->
<g id="node2" class="node"><title>Node2</title>
<g id="a_node2"><a xlink:href="../../d0/d1c/classview_1_1gui_1_1_g_u_i_container.html#acc5e1491d53fb623544ba9c472abf080" target="_top" xlink:title="view.gui.GUIContainer.engine\lUpdate">
<polygon fill="white" stroke="black" points="192.5,-49 192.5,-79 347.5,-79 347.5,-49 192.5,-49"/>
<text text-anchor="start" x="200.5" y="-67" font-family="Helvetica,sans-Serif" font-size="10.00">view.gui.GUIContainer.engine</text>
<text text-anchor="middle" x="270" y="-56" font-family="Helvetica,sans-Serif" font-size="10.00">Update</text>
</a>
</g>
</g>
<!-- Node1&#45;&gt;Node2 -->
<g id="edge1" class="edge"><title>Node1&#45;&gt;Node2</title>
<path fill="none" stroke="midnightblue" d="M151.373,-48.5227C161.545,-49.8612 172.085,-51.2481 182.488,-52.6169"/>
<polygon fill="midnightblue" stroke="midnightblue" points="182.033,-56.0871 192.404,-53.9216 182.946,-49.1469 182.033,-56.0871"/>
</g>
<!-- Node3 -->
<g id="node3" class="node"><title>Node3</title>
<g id="a_node3"><a xlink:href="../../d0/d1c/classview_1_1gui_1_1_g_u_i_container.html#aec439955e8ca7441c73b2f8378d902dd" target="_top" xlink:title="view.gui.GUIContainer.model\lUpdate">
<polygon fill="white" stroke="black" points="194,-0 194,-30 346,-30 346,-0 194,-0"/>
<text text-anchor="start" x="202" y="-18" font-family="Helvetica,sans-Serif" font-size="10.00">view.gui.GUIContainer.model</text>
<text text-anchor="middle" x="270" y="-7" font-family="Helvetica,sans-Serif" font-size="10.00">Update</text>
</a>
</g>
</g>
<!-- Node1&#45;&gt;Node3 -->
<g id="edge2" class="edge"><title>Node1&#45;&gt;Node3</title>
<path fill="none" stroke="midnightblue" d="M154.366,-29.4801C163.978,-28.2659 173.87,-27.0164 183.626,-25.7841"/>
<polygon fill="midnightblue" stroke="midnightblue" points="184.243,-29.2341 193.725,-24.5084 183.365,-22.2893 184.243,-29.2341"/>
</g>
</g>
</svg>
