<?xml version="1.0" encoding="UTF-8" standalone="no"?>
<!DOCTYPE svg PUBLIC "-//W3C//DTD SVG 1.1//EN"
 "http://www.w3.org/Graphics/SVG/1.1/DTD/svg11.dtd">
<!-- Generated by graphviz version 2.36.0 (20140111.2315)
 -->
<!-- Title: util.SaveLoadUtility.topLevelDirectory Pages: 1 -->
<svg width="972pt" height="129pt"
 viewBox="0.00 0.00 972.00 129.00" xmlns="http://www.w3.org/2000/svg" xmlns:xlink="http://www.w3.org/1999/xlink">
<g id="graph0" class="graph" transform="scale(1 1) rotate(0) translate(4 125)">
<title>util.SaveLoadUtility.topLevelDirectory</title>
<polygon fill="white" stroke="none" points="-4,4 -4,-125 968,-125 968,4 -4,4"/>
<!-- Node1 -->
<g id="node1" class="node"><title>Node1</title>
<polygon fill="#bfbfbf" stroke="black" points="0.5,-44 0.5,-74 125.5,-74 125.5,-44 0.5,-44"/>
<text text-anchor="start" x="8.5" y="-62" font-family="Helvetica,sans-Serif" font-size="10.00">util.SaveLoadUtility.top</text>
<text text-anchor="middle" x="63" y="-51" font-family="Helvetica,sans-Serif" font-size="10.00">LevelDirectory</text>
</g>
<!-- Node2 -->
<g id="node2" class="node"><title>Node2</title>
<g id="a_node2"><a xlink:href="../../d3/d14/classutil_1_1_save_load_utility.html#a818b911d475402390309ba8c186b94a7" target="_top" xlink:title="util.SaveLoadUtility.save">
<polygon fill="white" stroke="black" points="162,-49.5 162,-68.5 294,-68.5 294,-49.5 162,-49.5"/>
<text text-anchor="middle" x="228" y="-56.5" font-family="Helvetica,sans-Serif" font-size="10.00">util.SaveLoadUtility.save</text>
</a>
</g>
</g>
<!-- Node1&#45;&gt;Node2 -->
<g id="edge1" class="edge"><title>Node1&#45;&gt;Node2</title>
<path fill="none" stroke="midnightblue" d="M135.705,-59C144.372,-59 153.189,-59 161.756,-59"/>
<polygon fill="midnightblue" stroke="midnightblue" points="135.623,-55.5001 125.623,-59 135.623,-62.5001 135.623,-55.5001"/>
</g>
<!-- Node3 -->
<g id="node3" class="node"><title>Node3</title>
<g id="a_node3"><a xlink:href="../../d9/dd2/classresources_1_1processing_1_1_sprite_sheet_creation_utility.html#ae6cfdcbbcc6c6eb2f12aefded0c6337f" target="_top" xlink:title="resources.processing.Sprite\lSheetCreationUtility.createSpriteSheet">
<polygon fill="white" stroke="black" points="330,-89 330,-119 532,-119 532,-89 330,-89"/>
<text text-anchor="start" x="338" y="-107" font-family="Helvetica,sans-Serif" font-size="10.00">resources.processing.Sprite</text>
<text text-anchor="middle" x="431" y="-96" font-family="Helvetica,sans-Serif" font-size="10.00">SheetCreationUtility.createSpriteSheet</text>
</a>
</g>
</g>
<!-- Node2&#45;&gt;Node3 -->
<g id="edge2" class="edge"><title>Node2&#45;&gt;Node3</title>
<path fill="none" stroke="midnightblue" d="M281.591,-70.7742C306.457,-76.3412 336.431,-83.0518 362.913,-88.9805"/>
<polygon fill="midnightblue" stroke="midnightblue" points="282.15,-67.3127 271.627,-68.5433 280.621,-74.1436 282.15,-67.3127"/>
</g>
<!-- Node5 -->
<g id="node5" class="node"><title>Node5</title>
<g id="a_node5"><a xlink:href="../../da/d8d/classgamemodel_1_1_main_model.html#a8b6be04509cb75d215fbc008b697ed1c" target="_top" xlink:title="gamemodel.MainModel.saveGame">
<polygon fill="white" stroke="black" points="339.5,-49.5 339.5,-68.5 522.5,-68.5 522.5,-49.5 339.5,-49.5"/>
<text text-anchor="middle" x="431" y="-56.5" font-family="Helvetica,sans-Serif" font-size="10.00">gamemodel.MainModel.saveGame</text>
</a>
</g>
</g>
<!-- Node2&#45;&gt;Node5 -->
<g id="edge4" class="edge"><title>Node2&#45;&gt;Node5</title>
<path fill="none" stroke="midnightblue" d="M304.496,-59C315.801,-59 327.557,-59 339.14,-59"/>
<polygon fill="midnightblue" stroke="midnightblue" points="304.259,-55.5001 294.259,-59 304.259,-62.5001 304.259,-55.5001"/>
</g>
<!-- Node8 -->
<g id="node8" class="node"><title>Node8</title>
<g id="a_node8"><a xlink:href="../../d0/d77/classtest_1_1util_1_1_test_load_save_utility.html#a563b6accea25a4a5868cbff906216e55" target="_top" xlink:title="test.util.TestLoadSaveUtility.test\lLoadSaveFunction">
<polygon fill="white" stroke="black" points="346.5,-0 346.5,-30 515.5,-30 515.5,-0 346.5,-0"/>
<text text-anchor="start" x="354.5" y="-18" font-family="Helvetica,sans-Serif" font-size="10.00">test.util.TestLoadSaveUtility.test</text>
<text text-anchor="middle" x="431" y="-7" font-family="Helvetica,sans-Serif" font-size="10.00">LoadSaveFunction</text>
</a>
</g>
</g>
<!-- Node2&#45;&gt;Node8 -->
<g id="edge7" class="edge"><title>Node2&#45;&gt;Node8</title>
<path fill="none" stroke="midnightblue" d="M282.642,-47.2576C306.754,-41.9793 335.503,-35.686 361.179,-30.0654"/>
<polygon fill="midnightblue" stroke="midnightblue" points="281.634,-43.8951 272.614,-49.4527 283.131,-50.7332 281.634,-43.8951"/>
</g>
<!-- Node4 -->
<g id="node4" class="node"><title>Node4</title>
<g id="a_node4"><a xlink:href="../../d9/dd2/classresources_1_1processing_1_1_sprite_sheet_creation_utility.html#a061298d3fd66edebf2f8d1fb9770df3c" target="_top" xlink:title="resources.processing.Sprite\lSheetCreationUtility.main">
<polygon fill="white" stroke="black" points="583,-91 583,-121 733,-121 733,-91 583,-91"/>
<text text-anchor="start" x="591" y="-109" font-family="Helvetica,sans-Serif" font-size="10.00">resources.processing.Sprite</text>
<text text-anchor="middle" x="658" y="-98" font-family="Helvetica,sans-Serif" font-size="10.00">SheetCreationUtility.main</text>
</a>
</g>
</g>
<!-- Node3&#45;&gt;Node4 -->
<g id="edge3" class="edge"><title>Node3&#45;&gt;Node4</title>
<path fill="none" stroke="midnightblue" d="M542.714,-104.984C556.324,-105.105 569.969,-105.226 582.852,-105.341"/>
<polygon fill="midnightblue" stroke="midnightblue" points="542.357,-101.481 532.326,-104.892 542.295,-108.481 542.357,-101.481"/>
</g>
<!-- Node6 -->
<g id="node6" class="node"><title>Node6</title>
<g id="a_node6"><a xlink:href="../../d1/d74/classeditor_1_1_editor_menu_bar_controller.html#a4263ec1503bc67c1ee7293d6fa303ab0" target="_top" xlink:title="editor.EditorMenuBarController.init\lFileMenu">
<polygon fill="white" stroke="black" points="568,-42 568,-72 748,-72 748,-42 568,-42"/>
<text text-anchor="start" x="576" y="-60" font-family="Helvetica,sans-Serif" font-size="10.00">editor.EditorMenuBarController.init</text>
<text text-anchor="middle" x="658" y="-49" font-family="Helvetica,sans-Serif" font-size="10.00">FileMenu</text>
</a>
</g>
</g>
<!-- Node5&#45;&gt;Node6 -->
<g id="edge5" class="edge"><title>Node5&#45;&gt;Node6</title>
<path fill="none" stroke="midnightblue" d="M532.739,-58.1045C544.405,-58.0008 556.242,-57.8956 567.74,-57.7934"/>
<polygon fill="midnightblue" stroke="midnightblue" points="532.512,-54.6063 522.544,-58.1952 532.574,-61.606 532.512,-54.6063"/>
</g>
<!-- Node7 -->
<g id="node7" class="node"><title>Node7</title>
<g id="a_node7"><a xlink:href="../../d1/d74/classeditor_1_1_editor_menu_bar_controller.html#a5e27bce310879b43b5726c8b90f98743" target="_top" xlink:title="editor.EditorMenuBarController.init">
<polygon fill="white" stroke="black" points="784,-47.5 784,-66.5 964,-66.5 964,-47.5 784,-47.5"/>
<text text-anchor="middle" x="874" y="-54.5" font-family="Helvetica,sans-Serif" font-size="10.00">editor.EditorMenuBarController.init</text>
</a>
</g>
</g>
<!-- Node6&#45;&gt;Node7 -->
<g id="edge6" class="edge"><title>Node6&#45;&gt;Node7</title>
<path fill="none" stroke="midnightblue" d="M758.23,-57C766.807,-57 775.45,-57 783.939,-57"/>
<polygon fill="midnightblue" stroke="midnightblue" points="758.206,-53.5001 748.206,-57 758.206,-60.5001 758.206,-53.5001"/>
</g>
</g>
</svg>
