<?xml version="1.0" encoding="UTF-8" standalone="no"?>
<!DOCTYPE svg PUBLIC "-//W3C//DTD SVG 1.1//EN"
 "http://www.w3.org/Graphics/SVG/1.1/DTD/svg11.dtd">
<!-- Generated by graphviz version 2.36.0 (20140111.2315)
 -->
<!-- Title: util.SaveLoadUtility.saveImage Pages: 1 -->
<!--zoomable 87 -->
<svg id="main" version="1.1" xmlns="http://www.w3.org/2000/svg" xmlns:xlink="http://www.w3.org/1999/xlink" xml:space="preserve" onload="init(evt)">
<style type="text/css"><![CDATA[
.edge:hover path { stroke: red; }
.edge:hover polygon { stroke: red; fill: red; }
]]></style>
<script type="text/javascript"><![CDATA[
var edges = document.getElementsByTagName('g');
if (edges && edges.length) {
  for (var i=0;i<edges.length;i++) {
    if (edges[i].id.substr(0,4)=='edge') {
      edges[i].setAttribute('class','edge');
    }
  }
}
]]></script>
        <defs>
                <circle id="rim" cx="0" cy="0" r="7"/>
                <circle id="rim2" cx="0" cy="0" r="3.5"/>
                <g id="zoomPlus">
                        <use xlink:href="#rim" fill="#404040">
                                <set attributeName="fill" to="#808080" begin="zoomplus.mouseover" end="zoomplus.mouseout"/>
                        </use>
                        <path d="M-4,0h8M0,-4v8" fill="none" stroke="white" stroke-width="1.5" pointer-events="none"/>
                </g>
                <g id="zoomMin">
                        <use xlink:href="#rim" fill="#404040">
                                <set attributeName="fill" to="#808080" begin="zoomminus.mouseover" end="zoomminus.mouseout"/>
                        </use>
                        <path d="M-4,0h8" fill="none" stroke="white" stroke-width="1.5" pointer-events="none"/>
                </g>
                <g id="dirArrow">
                        <path fill="none" stroke="white" stroke-width="1.5" d="M0,-3.0v7 M-2.5,-0.5L0,-3.0L2.5,-0.5"/>
                </g>
               <g id="resetDef">
                       <use xlink:href="#rim2" fill="#404040">
                               <set attributeName="fill" to="#808080" begin="reset.mouseover" end="reset.mouseout"/>
                       </use>
               </g>
        </defs>

<script type="text/javascript">
var viewWidth = 1386;
var viewHeight = 87;
var sectionId = 'dynsection-10';
</script>
<script xlink:href="../../svgpan.js"/>
<svg id="graph" class="graph">
<g id="viewport">
<title>util.SaveLoadUtility.saveImage</title>
<polygon fill="white" stroke="none" points="-4,4 -4,-83 1382,-83 1382,4 -4,4"/>
<!-- Node1 -->
<g id="node1" class="node"><title>Node1</title>
<polygon fill="#bfbfbf" stroke="black" points="0,-24 0,-54 132,-54 132,-24 0,-24"/>
<text text-anchor="start" x="8" y="-42" font-family="Helvetica,sans-Serif" font-size="10.00">util.SaveLoadUtility.save</text>
<text text-anchor="middle" x="66" y="-31" font-family="Helvetica,sans-Serif" font-size="10.00">Image</text>
</g>
<!-- Node2 -->
<g id="node2" class="node"><title>Node2</title>
<g id="a_node2"><a xlink:href="../../da/d8d/classgamemodel_1_1_main_model.html#ab48b88224f859ea7929254b479cce14d" target="_top" xlink:title="gamemodel.MainModel.create\lDrawableGameElement">
<polygon fill="white" stroke="black" points="172,-49 172,-79 334,-79 334,-49 172,-49"/>
<text text-anchor="start" x="180" y="-67" font-family="Helvetica,sans-Serif" font-size="10.00">gamemodel.MainModel.create</text>
<text text-anchor="middle" x="253" y="-56" font-family="Helvetica,sans-Serif" font-size="10.00">DrawableGameElement</text>
</a>
</g>
</g>
<!-- Node1&#45;&gt;Node2 -->
<g id="edge1" class="edge"><title>Node1&#45;&gt;Node2</title>
<path fill="none" stroke="midnightblue" d="M142.254,-49.1695C151.989,-50.485 161.988,-51.8362 171.799,-53.162"/>
<polygon fill="midnightblue" stroke="midnightblue" points="142.603,-45.6849 132.224,-47.8141 141.665,-52.6218 142.603,-45.6849"/>
</g>
<!-- Node8 -->
<g id="node8" class="node"><title>Node8</title>
<g id="a_node8"><a xlink:href="../../d0/d77/classtest_1_1util_1_1_test_load_save_utility.html#a563b6accea25a4a5868cbff906216e55" target="_top" xlink:title="test.util.TestLoadSaveUtility.test\lLoadSaveFunction">
<polygon fill="white" stroke="black" points="168.5,-0 168.5,-30 337.5,-30 337.5,-0 168.5,-0"/>
<text text-anchor="start" x="176.5" y="-18" font-family="Helvetica,sans-Serif" font-size="10.00">test.util.TestLoadSaveUtility.test</text>
<text text-anchor="middle" x="253" y="-7" font-family="Helvetica,sans-Serif" font-size="10.00">LoadSaveFunction</text>
</a>
</g>
</g>
<!-- Node1&#45;&gt;Node8 -->
<g id="edge8" class="edge"><title>Node1&#45;&gt;Node8</title>
<path fill="none" stroke="midnightblue" d="M142.187,-29.2461C150.77,-28.1326 159.559,-26.9923 168.245,-25.8655"/>
<polygon fill="midnightblue" stroke="midnightblue" points="141.691,-25.781 132.224,-30.5385 142.591,-32.7228 141.691,-25.781"/>
</g>
<!-- Node3 -->
<g id="node3" class="node"><title>Node3</title>
<g id="a_node3"><a xlink:href="../../d4/dcd/classeditor_1_1_element_accordion_controller.html#ad10a71c849382067fbb1f4140841ab0d" target="_top" xlink:title="editor.ElementAccordionController.open\lGameElementWizard">
<polygon fill="white" stroke="black" points="374,-49 374,-79 580,-79 580,-49 374,-49"/>
<text text-anchor="start" x="382" y="-67" font-family="Helvetica,sans-Serif" font-size="10.00">editor.ElementAccordionController.open</text>
<text text-anchor="middle" x="477" y="-56" font-family="Helvetica,sans-Serif" font-size="10.00">GameElementWizard</text>
</a>
</g>
</g>
<!-- Node2&#45;&gt;Node3 -->
<g id="edge2" class="edge"><title>Node2&#45;&gt;Node3</title>
<path fill="none" stroke="midnightblue" d="M344.245,-64C354.024,-64 364.027,-64 373.934,-64"/>
<polygon fill="midnightblue" stroke="midnightblue" points="344.147,-60.5001 334.147,-64 344.147,-67.5001 344.147,-60.5001"/>
</g>
<!-- Node4 -->
<g id="node4" class="node"><title>Node4</title>
<g id="a_node4"><a xlink:href="../../d4/dcd/classeditor_1_1_element_accordion_controller.html#a57a1b43f70896bbf2e27373594ba8810" target="_top" xlink:title="editor.ElementAccordionController.update\lItems">
<polygon fill="white" stroke="black" points="616,-49 616,-79 832,-79 832,-49 616,-49"/>
<text text-anchor="start" x="624" y="-67" font-family="Helvetica,sans-Serif" font-size="10.00">editor.ElementAccordionController.update</text>
<text text-anchor="middle" x="724" y="-56" font-family="Helvetica,sans-Serif" font-size="10.00">Items</text>
</a>
</g>
</g>
<!-- Node3&#45;&gt;Node4 -->
<g id="edge3" class="edge"><title>Node3&#45;&gt;Node4</title>
<path fill="none" stroke="midnightblue" d="M590.15,-64C598.723,-64 607.364,-64 615.903,-64"/>
<polygon fill="midnightblue" stroke="midnightblue" points="590.128,-60.5001 580.128,-64 590.128,-67.5001 590.128,-60.5001"/>
</g>
<!-- Node5 -->
<g id="node5" class="node"><title>Node5</title>
<g id="a_node5"><a xlink:href="../../dc/d5c/classeditor_1_1_editor_screen.html#a575ccd70c0dcc7565df86cc590de47ba" target="_top" xlink:title="editor.EditorScreen.update\lAccordion">
<polygon fill="white" stroke="black" points="868.5,-49 868.5,-79 1013.5,-79 1013.5,-49 868.5,-49"/>
<text text-anchor="start" x="876.5" y="-67" font-family="Helvetica,sans-Serif" font-size="10.00">editor.EditorScreen.update</text>
<text text-anchor="middle" x="941" y="-56" font-family="Helvetica,sans-Serif" font-size="10.00">Accordion</text>
</a>
</g>
</g>
<!-- Node4&#45;&gt;Node5 -->
<g id="edge4" class="edge"><title>Node4&#45;&gt;Node5</title>
<path fill="none" stroke="midnightblue" d="M842.268,-64C851.177,-64 859.996,-64 868.476,-64"/>
<polygon fill="midnightblue" stroke="midnightblue" points="842.185,-60.5001 832.185,-64 842.185,-67.5001 842.185,-60.5001"/>
</g>
<!-- Node6 -->
<g id="node6" class="node"><title>Node6</title>
<g id="a_node6"><a xlink:href="../../dc/d5c/classeditor_1_1_editor_screen.html#ae17f78235329632f2090fdfb7b358a66" target="_top" xlink:title="editor.EditorScreen.update">
<polygon fill="white" stroke="black" points="1050.5,-54.5 1050.5,-73.5 1195.5,-73.5 1195.5,-54.5 1050.5,-54.5"/>
<text text-anchor="middle" x="1123" y="-61.5" font-family="Helvetica,sans-Serif" font-size="10.00">editor.EditorScreen.update</text>
</a>
</g>
</g>
<!-- Node5&#45;&gt;Node6 -->
<g id="edge5" class="edge"><title>Node5&#45;&gt;Node6</title>
<path fill="none" stroke="midnightblue" d="M1023.92,-64C1032.72,-64 1041.63,-64 1050.29,-64"/>
<polygon fill="midnightblue" stroke="midnightblue" points="1023.66,-60.5001 1013.66,-64 1023.66,-67.5001 1023.66,-60.5001"/>
</g>
<!-- Node7 -->
<g id="node7" class="node"><title>Node7</title>
<g id="a_node7"><a xlink:href="../../dc/d5c/classeditor_1_1_editor_screen.html#a13378a8f469be9b38ba16457a64b7e9a" target="_top" xlink:title="editor.EditorScreen.update\lTabViewControllers">
<polygon fill="white" stroke="black" points="1232.5,-49 1232.5,-79 1377.5,-79 1377.5,-49 1232.5,-49"/>
<text text-anchor="start" x="1240.5" y="-67" font-family="Helvetica,sans-Serif" font-size="10.00">editor.EditorScreen.update</text>
<text text-anchor="middle" x="1305" y="-56" font-family="Helvetica,sans-Serif" font-size="10.00">TabViewControllers</text>
</a>
</g>
</g>
<!-- Node6&#45;&gt;Node7 -->
<g id="edge6" class="edge"><title>Node6&#45;&gt;Node7</title>
<path fill="none" stroke="midnightblue" d="M1205.92,-57.2742C1214.72,-57.2213 1223.63,-57.2551 1232.29,-57.3755"/>
<polygon fill="midnightblue" stroke="midnightblue" points="1205.62,-53.7769 1195.66,-57.3762 1205.69,-60.7766 1205.62,-53.7769"/>
</g>
<!-- Node7&#45;&gt;Node6 -->
<g id="edge7" class="edge"><title>Node7&#45;&gt;Node6</title>
<path fill="none" stroke="midnightblue" d="M1222.03,-70.7261C1213.23,-70.7787 1204.33,-70.7446 1195.66,-70.6238"/>
<polygon fill="midnightblue" stroke="midnightblue" points="1222.33,-74.2234 1232.29,-70.6245 1222.26,-67.2237 1222.33,-74.2234"/>
</g>
</g>
</svg>
        <g id="navigator" transform="translate(0 0)" fill="#404254">
                <rect fill="#f2f5e9" fill-opacity="0.5" stroke="#606060" stroke-width=".5" x="0" y="0" width="60" height="60"/>
                <use id="zoomplus" xlink:href="#zoomPlus" x="17" y="9" onmousedown="handleZoom(evt,'in')"/>
                <use id="zoomminus" xlink:href="#zoomMin" x="42" y="9" onmousedown="handleZoom(evt,'out')"/>
                <use id="reset" xlink:href="#resetDef" x="30" y="36" onmousedown="handleReset()"/>
                <g id="arrowUp" xlink:href="#dirArrow" transform="translate(30 24)" onmousedown="handlePan(0,-1)">
                  <use xlink:href="#rim" fill="#404040">
                        <set attributeName="fill" to="#808080" begin="arrowUp.mouseover" end="arrowUp.mouseout"/>
                  </use>
                  <path fill="none" stroke="white" stroke-width="1.5" d="M0,-3.0v7 M-2.5,-0.5L0,-3.0L2.5,-0.5"/>
                </g>
                <g id="arrowRight" xlink:href="#dirArrow" transform="rotate(90) translate(36 -43)" onmousedown="handlePan(1,0)">
                  <use xlink:href="#rim" fill="#404040">
                        <set attributeName="fill" to="#808080" begin="arrowRight.mouseover" end="arrowRight.mouseout"/>
                  </use>
                  <path fill="none" stroke="white" stroke-width="1.5" d="M0,-3.0v7 M-2.5,-0.5L0,-3.0L2.5,-0.5"/>
                </g>
                <g id="arrowDown" xlink:href="#dirArrow" transform="rotate(180) translate(-30 -48)" onmousedown="handlePan(0,1)">
                  <use xlink:href="#rim" fill="#404040">
                        <set attributeName="fill" to="#808080" begin="arrowDown.mouseover" end="arrowDown.mouseout"/>
                  </use>
                  <path fill="none" stroke="white" stroke-width="1.5" d="M0,-3.0v7 M-2.5,-0.5L0,-3.0L2.5,-0.5"/>
                </g>
                <g id="arrowLeft" xlink:href="#dirArrow" transform="rotate(270) translate(-36 17)" onmousedown="handlePan(-1,0)">
                  <use xlink:href="#rim" fill="#404040">
                        <set attributeName="fill" to="#808080" begin="arrowLeft.mouseover" end="arrowLeft.mouseout"/>
                  </use>
                  <path fill="none" stroke="white" stroke-width="1.5" d="M0,-3.0v7 M-2.5,-0.5L0,-3.0L2.5,-0.5"/>
                </g>
        </g>
        <svg viewBox="0 0 15 15" width="100%" height="30px" preserveAspectRatio="xMaxYMin meet">
         <g id="arrow_out" transform="scale(0.3 0.3)">
          <a xlink:href="classutil_1_1_save_load_utility_aef3dcf15d1cb5a20ff2a0bed69ccb0dd_icgraph_org.svg" target="_base">
           <rect id="button" ry="5" rx="5" y="6" x="6" height="38" width="38"
                fill="#f2f5e9" fill-opacity="0.5" stroke="#606060" stroke-width="1.0"/>
           <path id="arrow"
             d="M 11.500037,31.436501 C 11.940474,20.09759 22.043105,11.32322 32.158766,21.979434 L 37.068811,17.246167 C 37.068811,17.246167 37.088388,32 37.088388,32 L 22.160133,31.978069 C 22.160133,31.978069 26.997745,27.140456 26.997745,27.140456 C 18.528582,18.264221 13.291696,25.230495 11.500037,31.436501 z"
             style="fill:#404040;"/>
          </a>
         </g>
        </svg>
</svg>
