<?xml version="1.0" encoding="UTF-8" standalone="no"?>
<!DOCTYPE svg PUBLIC "-//W3C//DTD SVG 1.1//EN"
 "http://www.w3.org/Graphics/SVG/1.1/DTD/svg11.dtd">
<!-- Generated by graphviz version 2.36.0 (20140111.2315)
 -->
<!-- Title: util.SaveLoadUtility.obtainFile Pages: 1 -->
<!--zoomable 178 -->
<svg id="main" version="1.1" xmlns="http://www.w3.org/2000/svg" xmlns:xlink="http://www.w3.org/1999/xlink" xml:space="preserve" onload="init(evt)">
<style type="text/css"><![CDATA[
.edge:hover path { stroke: red; }
.edge:hover polygon { stroke: red; fill: red; }
]]></style>
<script type="text/javascript"><![CDATA[
var edges = document.getElementsByTagName('g');
if (edges && edges.length) {
  for (var i=0;i<edges.length;i++) {
    if (edges[i].id.substr(0,4)=='edge') {
      edges[i].setAttribute('class','edge');
    }
  }
}
]]></script>
        <defs>
                <circle id="rim" cx="0" cy="0" r="7"/>
                <circle id="rim2" cx="0" cy="0" r="3.5"/>
                <g id="zoomPlus">
                        <use xlink:href="#rim" fill="#404040">
                                <set attributeName="fill" to="#808080" begin="zoomplus.mouseover" end="zoomplus.mouseout"/>
                        </use>
                        <path d="M-4,0h8M0,-4v8" fill="none" stroke="white" stroke-width="1.5" pointer-events="none"/>
                </g>
                <g id="zoomMin">
                        <use xlink:href="#rim" fill="#404040">
                                <set attributeName="fill" to="#808080" begin="zoomminus.mouseover" end="zoomminus.mouseout"/>
                        </use>
                        <path d="M-4,0h8" fill="none" stroke="white" stroke-width="1.5" pointer-events="none"/>
                </g>
                <g id="dirArrow">
                        <path fill="none" stroke="white" stroke-width="1.5" d="M0,-3.0v7 M-2.5,-0.5L0,-3.0L2.5,-0.5"/>
                </g>
               <g id="resetDef">
                       <use xlink:href="#rim2" fill="#404040">
                               <set attributeName="fill" to="#808080" begin="reset.mouseover" end="reset.mouseout"/>
                       </use>
               </g>
        </defs>

<script type="text/javascript">
var viewWidth = 1610;
var viewHeight = 178;
var sectionId = 'dynsection-5';
</script>
<script xlink:href="../../svgpan.js"/>
<svg id="graph" class="graph">
<g id="viewport">
<title>util.SaveLoadUtility.obtainFile</title>
<polygon fill="white" stroke="none" points="-4,4 -4,-174 1606,-174 1606,4 -4,4"/>
<!-- Node1 -->
<g id="node1" class="node"><title>Node1</title>
<polygon fill="#bfbfbf" stroke="black" points="0.5,-54.5 0.5,-73.5 155.5,-73.5 155.5,-54.5 0.5,-54.5"/>
<text text-anchor="middle" x="78" y="-61.5" font-family="Helvetica,sans-Serif" font-size="10.00">util.SaveLoadUtility.obtainFile</text>
</g>
<!-- Node2 -->
<g id="node2" class="node"><title>Node2</title>
<g id="a_node2"><a xlink:href="../../d3/d14/classutil_1_1_save_load_utility.html#af1333303576053ddda0787bcf1cd9c81" target="_top" xlink:title="util.SaveLoadUtility.load\lImage">
<polygon fill="white" stroke="black" points="193,-49 193,-79 323,-79 323,-49 193,-49"/>
<text text-anchor="start" x="201" y="-67" font-family="Helvetica,sans-Serif" font-size="10.00">util.SaveLoadUtility.load</text>
<text text-anchor="middle" x="258" y="-56" font-family="Helvetica,sans-Serif" font-size="10.00">Image</text>
</a>
</g>
</g>
<!-- Node1&#45;&gt;Node2 -->
<g id="edge1" class="edge"><title>Node1&#45;&gt;Node2</title>
<path fill="none" stroke="midnightblue" d="M165.778,-64C174.893,-64 184.038,-64 192.832,-64"/>
<polygon fill="midnightblue" stroke="midnightblue" points="165.521,-60.5001 155.521,-64 165.521,-67.5001 165.521,-60.5001"/>
</g>
<!-- Node4 -->
<g id="node4" class="node"><title>Node4</title>
<g id="a_node4"><a xlink:href="../../d3/d14/classutil_1_1_save_load_utility.html#a818b911d475402390309ba8c186b94a7" target="_top" xlink:title="util.SaveLoadUtility.save">
<polygon fill="white" stroke="black" points="192,-98.5 192,-117.5 324,-117.5 324,-98.5 192,-98.5"/>
<text text-anchor="middle" x="258" y="-105.5" font-family="Helvetica,sans-Serif" font-size="10.00">util.SaveLoadUtility.save</text>
</a>
</g>
</g>
<!-- Node1&#45;&gt;Node4 -->
<g id="edge3" class="edge"><title>Node1&#45;&gt;Node4</title>
<path fill="none" stroke="midnightblue" d="M127.42,-75.969C156.031,-83.0414 191.761,-91.8736 218.452,-98.4713"/>
<polygon fill="midnightblue" stroke="midnightblue" points="128.171,-72.5494 117.623,-73.5473 126.491,-79.3448 128.171,-72.5494"/>
</g>
<!-- Node10 -->
<g id="node10" class="node"><title>Node10</title>
<g id="a_node10"><a xlink:href="../../d3/d14/classutil_1_1_save_load_utility.html#aef3dcf15d1cb5a20ff2a0bed69ccb0dd" target="_top" xlink:title="util.SaveLoadUtility.save\lImage">
<polygon fill="white" stroke="black" points="192,-0 192,-30 324,-30 324,-0 192,-0"/>
<text text-anchor="start" x="200" y="-18" font-family="Helvetica,sans-Serif" font-size="10.00">util.SaveLoadUtility.save</text>
<text text-anchor="middle" x="258" y="-7" font-family="Helvetica,sans-Serif" font-size="10.00">Image</text>
</a>
</g>
</g>
<!-- Node1&#45;&gt;Node10 -->
<g id="edge10" class="edge"><title>Node1&#45;&gt;Node10</title>
<path fill="none" stroke="midnightblue" d="M123.6,-51.7224C147.489,-45.1463 177.115,-36.9908 202.376,-30.037"/>
<polygon fill="midnightblue" stroke="midnightblue" points="122.455,-48.4074 113.743,-54.436 124.313,-55.1563 122.455,-48.4074"/>
</g>
<!-- Node3 -->
<g id="node3" class="node"><title>Node3</title>
<g id="a_node3"><a xlink:href="../../d0/d77/classtest_1_1util_1_1_test_load_save_utility.html#a563b6accea25a4a5868cbff906216e55" target="_top" xlink:title="test.util.TestLoadSaveUtility.test\lLoadSaveFunction">
<polygon fill="white" stroke="black" points="376.5,-49 376.5,-79 545.5,-79 545.5,-49 376.5,-49"/>
<text text-anchor="start" x="384.5" y="-67" font-family="Helvetica,sans-Serif" font-size="10.00">test.util.TestLoadSaveUtility.test</text>
<text text-anchor="middle" x="461" y="-56" font-family="Helvetica,sans-Serif" font-size="10.00">LoadSaveFunction</text>
</a>
</g>
</g>
<!-- Node2&#45;&gt;Node3 -->
<g id="edge2" class="edge"><title>Node2&#45;&gt;Node3</title>
<path fill="none" stroke="midnightblue" d="M333.21,-64C347.227,-64 361.978,-64 376.264,-64"/>
<polygon fill="midnightblue" stroke="midnightblue" points="333.15,-60.5001 323.15,-64 333.15,-67.5001 333.15,-60.5001"/>
</g>
<!-- Node4&#45;&gt;Node3 -->
<g id="edge9" class="edge"><title>Node4&#45;&gt;Node3</title>
<path fill="none" stroke="midnightblue" d="M312.642,-96.2576C336.754,-90.9793 365.503,-84.686 391.179,-79.0654"/>
<polygon fill="midnightblue" stroke="midnightblue" points="311.634,-92.8951 302.614,-98.4527 313.131,-99.7332 311.634,-92.8951"/>
</g>
<!-- Node5 -->
<g id="node5" class="node"><title>Node5</title>
<g id="a_node5"><a xlink:href="../../da/d8d/classgamemodel_1_1_main_model.html#a8b6be04509cb75d215fbc008b697ed1c" target="_top" xlink:title="gamemodel.MainModel.saveGame">
<polygon fill="white" stroke="black" points="369.5,-98.5 369.5,-117.5 552.5,-117.5 552.5,-98.5 369.5,-98.5"/>
<text text-anchor="middle" x="461" y="-105.5" font-family="Helvetica,sans-Serif" font-size="10.00">gamemodel.MainModel.saveGame</text>
</a>
</g>
</g>
<!-- Node4&#45;&gt;Node5 -->
<g id="edge4" class="edge"><title>Node4&#45;&gt;Node5</title>
<path fill="none" stroke="midnightblue" d="M334.496,-108C345.801,-108 357.557,-108 369.14,-108"/>
<polygon fill="midnightblue" stroke="midnightblue" points="334.259,-104.5 324.259,-108 334.259,-111.5 334.259,-104.5"/>
</g>
<!-- Node8 -->
<g id="node8" class="node"><title>Node8</title>
<g id="a_node8"><a xlink:href="../../d9/dd2/classresources_1_1processing_1_1_sprite_sheet_creation_utility.html#ae6cfdcbbcc6c6eb2f12aefded0c6337f" target="_top" xlink:title="resources.processing.Sprite\lSheetCreationUtility.createSpriteSheet">
<polygon fill="white" stroke="black" points="360,-138 360,-168 562,-168 562,-138 360,-138"/>
<text text-anchor="start" x="368" y="-156" font-family="Helvetica,sans-Serif" font-size="10.00">resources.processing.Sprite</text>
<text text-anchor="middle" x="461" y="-145" font-family="Helvetica,sans-Serif" font-size="10.00">SheetCreationUtility.createSpriteSheet</text>
</a>
</g>
</g>
<!-- Node4&#45;&gt;Node8 -->
<g id="edge7" class="edge"><title>Node4&#45;&gt;Node8</title>
<path fill="none" stroke="midnightblue" d="M311.591,-119.774C336.457,-125.341 366.431,-132.052 392.913,-137.98"/>
<polygon fill="midnightblue" stroke="midnightblue" points="312.15,-116.313 301.627,-117.543 310.621,-123.144 312.15,-116.313"/>
</g>
<!-- Node6 -->
<g id="node6" class="node"><title>Node6</title>
<g id="a_node6"><a xlink:href="../../d1/d74/classeditor_1_1_editor_menu_bar_controller.html#a4263ec1503bc67c1ee7293d6fa303ab0" target="_top" xlink:title="editor.EditorMenuBarController.init\lFileMenu">
<polygon fill="white" stroke="black" points="611,-91 611,-121 791,-121 791,-91 611,-91"/>
<text text-anchor="start" x="619" y="-109" font-family="Helvetica,sans-Serif" font-size="10.00">editor.EditorMenuBarController.init</text>
<text text-anchor="middle" x="701" y="-98" font-family="Helvetica,sans-Serif" font-size="10.00">FileMenu</text>
</a>
</g>
</g>
<!-- Node5&#45;&gt;Node6 -->
<g id="edge5" class="edge"><title>Node5&#45;&gt;Node6</title>
<path fill="none" stroke="midnightblue" d="M563.012,-107.151C578.885,-107.018 595.194,-106.881 610.776,-106.75"/>
<polygon fill="midnightblue" stroke="midnightblue" points="562.627,-103.654 552.657,-107.238 562.686,-110.654 562.627,-103.654"/>
</g>
<!-- Node7 -->
<g id="node7" class="node"><title>Node7</title>
<g id="a_node7"><a xlink:href="../../d1/d74/classeditor_1_1_editor_menu_bar_controller.html#a5e27bce310879b43b5726c8b90f98743" target="_top" xlink:title="editor.EditorMenuBarController.init">
<polygon fill="white" stroke="black" points="858,-96.5 858,-115.5 1038,-115.5 1038,-96.5 858,-96.5"/>
<text text-anchor="middle" x="948" y="-103.5" font-family="Helvetica,sans-Serif" font-size="10.00">editor.EditorMenuBarController.init</text>
</a>
</g>
</g>
<!-- Node6&#45;&gt;Node7 -->
<g id="edge6" class="edge"><title>Node6&#45;&gt;Node7</title>
<path fill="none" stroke="midnightblue" d="M801.181,-106C819.954,-106 839.485,-106 857.923,-106"/>
<polygon fill="midnightblue" stroke="midnightblue" points="801.144,-102.5 791.144,-106 801.144,-109.5 801.144,-102.5"/>
</g>
<!-- Node9 -->
<g id="node9" class="node"><title>Node9</title>
<g id="a_node9"><a xlink:href="../../d9/dd2/classresources_1_1processing_1_1_sprite_sheet_creation_utility.html#a061298d3fd66edebf2f8d1fb9770df3c" target="_top" xlink:title="resources.processing.Sprite\lSheetCreationUtility.main">
<polygon fill="white" stroke="black" points="626,-140 626,-170 776,-170 776,-140 626,-140"/>
<text text-anchor="start" x="634" y="-158" font-family="Helvetica,sans-Serif" font-size="10.00">resources.processing.Sprite</text>
<text text-anchor="middle" x="701" y="-147" font-family="Helvetica,sans-Serif" font-size="10.00">SheetCreationUtility.main</text>
</a>
</g>
</g>
<!-- Node8&#45;&gt;Node9 -->
<g id="edge8" class="edge"><title>Node8&#45;&gt;Node9</title>
<path fill="none" stroke="midnightblue" d="M572.298,-153.927C590.464,-154.08 608.903,-154.234 625.908,-154.377"/>
<polygon fill="midnightblue" stroke="midnightblue" points="572.273,-150.427 562.244,-153.842 572.214,-157.426 572.273,-150.427"/>
</g>
<!-- Node10&#45;&gt;Node3 -->
<g id="edge18" class="edge"><title>Node10&#45;&gt;Node3</title>
<path fill="none" stroke="midnightblue" d="M330.391,-32.4038C352.626,-37.8243 376.942,-43.752 398.444,-48.9938"/>
<polygon fill="midnightblue" stroke="midnightblue" points="331.217,-29.0027 320.673,-30.0346 329.559,-35.8036 331.217,-29.0027"/>
</g>
<!-- Node11 -->
<g id="node11" class="node"><title>Node11</title>
<g id="a_node11"><a xlink:href="../../da/d8d/classgamemodel_1_1_main_model.html#ab48b88224f859ea7929254b479cce14d" target="_top" xlink:title="gamemodel.MainModel.create\lDrawableGameElement">
<polygon fill="white" stroke="black" points="380,-0 380,-30 542,-30 542,-0 380,-0"/>
<text text-anchor="start" x="388" y="-18" font-family="Helvetica,sans-Serif" font-size="10.00">gamemodel.MainModel.create</text>
<text text-anchor="middle" x="461" y="-7" font-family="Helvetica,sans-Serif" font-size="10.00">DrawableGameElement</text>
</a>
</g>
</g>
<!-- Node10&#45;&gt;Node11 -->
<g id="edge11" class="edge"><title>Node10&#45;&gt;Node11</title>
<path fill="none" stroke="midnightblue" d="M334.413,-15C349.287,-15 364.943,-15 379.963,-15"/>
<polygon fill="midnightblue" stroke="midnightblue" points="334.259,-11.5001 324.259,-15 334.259,-18.5001 334.259,-11.5001"/>
</g>
<!-- Node12 -->
<g id="node12" class="node"><title>Node12</title>
<g id="a_node12"><a xlink:href="../../d4/dcd/classeditor_1_1_element_accordion_controller.html#ad10a71c849382067fbb1f4140841ab0d" target="_top" xlink:title="editor.ElementAccordionController.open\lGameElementWizard">
<polygon fill="white" stroke="black" points="598,-0 598,-30 804,-30 804,-0 598,-0"/>
<text text-anchor="start" x="606" y="-18" font-family="Helvetica,sans-Serif" font-size="10.00">editor.ElementAccordionController.open</text>
<text text-anchor="middle" x="701" y="-7" font-family="Helvetica,sans-Serif" font-size="10.00">GameElementWizard</text>
</a>
</g>
</g>
<!-- Node11&#45;&gt;Node12 -->
<g id="edge12" class="edge"><title>Node11&#45;&gt;Node12</title>
<path fill="none" stroke="midnightblue" d="M552.389,-15C567.206,-15 582.651,-15 597.731,-15"/>
<polygon fill="midnightblue" stroke="midnightblue" points="552.244,-11.5001 542.244,-15 552.244,-18.5001 552.244,-11.5001"/>
</g>
<!-- Node13 -->
<g id="node13" class="node"><title>Node13</title>
<g id="a_node13"><a xlink:href="../../d4/dcd/classeditor_1_1_element_accordion_controller.html#a57a1b43f70896bbf2e27373594ba8810" target="_top" xlink:title="editor.ElementAccordionController.update\lItems">
<polygon fill="white" stroke="black" points="840,-0 840,-30 1056,-30 1056,-0 840,-0"/>
<text text-anchor="start" x="848" y="-18" font-family="Helvetica,sans-Serif" font-size="10.00">editor.ElementAccordionController.update</text>
<text text-anchor="middle" x="948" y="-7" font-family="Helvetica,sans-Serif" font-size="10.00">Items</text>
</a>
</g>
</g>
<!-- Node12&#45;&gt;Node13 -->
<g id="edge13" class="edge"><title>Node12&#45;&gt;Node13</title>
<path fill="none" stroke="midnightblue" d="M814.15,-15C822.723,-15 831.364,-15 839.903,-15"/>
<polygon fill="midnightblue" stroke="midnightblue" points="814.128,-11.5001 804.128,-15 814.128,-18.5001 814.128,-11.5001"/>
</g>
<!-- Node14 -->
<g id="node14" class="node"><title>Node14</title>
<g id="a_node14"><a xlink:href="../../dc/d5c/classeditor_1_1_editor_screen.html#a575ccd70c0dcc7565df86cc590de47ba" target="_top" xlink:title="editor.EditorScreen.update\lAccordion">
<polygon fill="white" stroke="black" points="1092.5,-0 1092.5,-30 1237.5,-30 1237.5,-0 1092.5,-0"/>
<text text-anchor="start" x="1100.5" y="-18" font-family="Helvetica,sans-Serif" font-size="10.00">editor.EditorScreen.update</text>
<text text-anchor="middle" x="1165" y="-7" font-family="Helvetica,sans-Serif" font-size="10.00">Accordion</text>
</a>
</g>
</g>
<!-- Node13&#45;&gt;Node14 -->
<g id="edge14" class="edge"><title>Node13&#45;&gt;Node14</title>
<path fill="none" stroke="midnightblue" d="M1066.27,-15C1075.18,-15 1084,-15 1092.48,-15"/>
<polygon fill="midnightblue" stroke="midnightblue" points="1066.19,-11.5001 1056.19,-15 1066.19,-18.5001 1066.19,-11.5001"/>
</g>
<!-- Node15 -->
<g id="node15" class="node"><title>Node15</title>
<g id="a_node15"><a xlink:href="../../dc/d5c/classeditor_1_1_editor_screen.html#ae17f78235329632f2090fdfb7b358a66" target="_top" xlink:title="editor.EditorScreen.update">
<polygon fill="white" stroke="black" points="1274.5,-5.5 1274.5,-24.5 1419.5,-24.5 1419.5,-5.5 1274.5,-5.5"/>
<text text-anchor="middle" x="1347" y="-12.5" font-family="Helvetica,sans-Serif" font-size="10.00">editor.EditorScreen.update</text>
</a>
</g>
</g>
<!-- Node14&#45;&gt;Node15 -->
<g id="edge15" class="edge"><title>Node14&#45;&gt;Node15</title>
<path fill="none" stroke="midnightblue" d="M1247.92,-15C1256.72,-15 1265.63,-15 1274.29,-15"/>
<polygon fill="midnightblue" stroke="midnightblue" points="1247.66,-11.5001 1237.66,-15 1247.66,-18.5001 1247.66,-11.5001"/>
</g>
<!-- Node16 -->
<g id="node16" class="node"><title>Node16</title>
<g id="a_node16"><a xlink:href="../../dc/d5c/classeditor_1_1_editor_screen.html#a13378a8f469be9b38ba16457a64b7e9a" target="_top" xlink:title="editor.EditorScreen.update\lTabViewControllers">
<polygon fill="white" stroke="black" points="1456.5,-0 1456.5,-30 1601.5,-30 1601.5,-0 1456.5,-0"/>
<text text-anchor="start" x="1464.5" y="-18" font-family="Helvetica,sans-Serif" font-size="10.00">editor.EditorScreen.update</text>
<text text-anchor="middle" x="1529" y="-7" font-family="Helvetica,sans-Serif" font-size="10.00">TabViewControllers</text>
</a>
</g>
</g>
<!-- Node15&#45;&gt;Node16 -->
<g id="edge16" class="edge"><title>Node15&#45;&gt;Node16</title>
<path fill="none" stroke="midnightblue" d="M1429.92,-8.27423C1438.72,-8.22131 1447.63,-8.25507 1456.29,-8.37551"/>
<polygon fill="midnightblue" stroke="midnightblue" points="1429.62,-4.77693 1419.66,-8.37617 1429.69,-11.7766 1429.62,-4.77693"/>
</g>
<!-- Node16&#45;&gt;Node15 -->
<g id="edge17" class="edge"><title>Node16&#45;&gt;Node15</title>
<path fill="none" stroke="midnightblue" d="M1446.03,-21.7261C1437.23,-21.7787 1428.33,-21.7446 1419.66,-21.6238"/>
<polygon fill="midnightblue" stroke="midnightblue" points="1446.33,-25.2234 1456.29,-21.6245 1446.26,-18.2237 1446.33,-25.2234"/>
</g>
</g>
</svg>
        <g id="navigator" transform="translate(0 0)" fill="#404254">
                <rect fill="#f2f5e9" fill-opacity="0.5" stroke="#606060" stroke-width=".5" x="0" y="0" width="60" height="60"/>
                <use id="zoomplus" xlink:href="#zoomPlus" x="17" y="9" onmousedown="handleZoom(evt,'in')"/>
                <use id="zoomminus" xlink:href="#zoomMin" x="42" y="9" onmousedown="handleZoom(evt,'out')"/>
                <use id="reset" xlink:href="#resetDef" x="30" y="36" onmousedown="handleReset()"/>
                <g id="arrowUp" xlink:href="#dirArrow" transform="translate(30 24)" onmousedown="handlePan(0,-1)">
                  <use xlink:href="#rim" fill="#404040">
                        <set attributeName="fill" to="#808080" begin="arrowUp.mouseover" end="arrowUp.mouseout"/>
                  </use>
                  <path fill="none" stroke="white" stroke-width="1.5" d="M0,-3.0v7 M-2.5,-0.5L0,-3.0L2.5,-0.5"/>
                </g>
                <g id="arrowRight" xlink:href="#dirArrow" transform="rotate(90) translate(36 -43)" onmousedown="handlePan(1,0)">
                  <use xlink:href="#rim" fill="#404040">
                        <set attributeName="fill" to="#808080" begin="arrowRight.mouseover" end="arrowRight.mouseout"/>
                  </use>
                  <path fill="none" stroke="white" stroke-width="1.5" d="M0,-3.0v7 M-2.5,-0.5L0,-3.0L2.5,-0.5"/>
                </g>
                <g id="arrowDown" xlink:href="#dirArrow" transform="rotate(180) translate(-30 -48)" onmousedown="handlePan(0,1)">
                  <use xlink:href="#rim" fill="#404040">
                        <set attributeName="fill" to="#808080" begin="arrowDown.mouseover" end="arrowDown.mouseout"/>
                  </use>
                  <path fill="none" stroke="white" stroke-width="1.5" d="M0,-3.0v7 M-2.5,-0.5L0,-3.0L2.5,-0.5"/>
                </g>
                <g id="arrowLeft" xlink:href="#dirArrow" transform="rotate(270) translate(-36 17)" onmousedown="handlePan(-1,0)">
                  <use xlink:href="#rim" fill="#404040">
                        <set attributeName="fill" to="#808080" begin="arrowLeft.mouseover" end="arrowLeft.mouseout"/>
                  </use>
                  <path fill="none" stroke="white" stroke-width="1.5" d="M0,-3.0v7 M-2.5,-0.5L0,-3.0L2.5,-0.5"/>
                </g>
        </g>
        <svg viewBox="0 0 15 15" width="100%" height="30px" preserveAspectRatio="xMaxYMin meet">
         <g id="arrow_out" transform="scale(0.3 0.3)">
          <a xlink:href="classutil_1_1_save_load_utility_a45324a0a42802150f23edb0fe9340aa2_icgraph_org.svg" target="_base">
           <rect id="button" ry="5" rx="5" y="6" x="6" height="38" width="38"
                fill="#f2f5e9" fill-opacity="0.5" stroke="#606060" stroke-width="1.0"/>
           <path id="arrow"
             d="M 11.500037,31.436501 C 11.940474,20.09759 22.043105,11.32322 32.158766,21.979434 L 37.068811,17.246167 C 37.068811,17.246167 37.088388,32 37.088388,32 L 22.160133,31.978069 C 22.160133,31.978069 26.997745,27.140456 26.997745,27.140456 C 18.528582,18.264221 13.291696,25.230495 11.500037,31.436501 z"
             style="fill:#404040;"/>
          </a>
         </g>
        </svg>
</svg>
