<?xml version="1.0" encoding="UTF-8" standalone="no"?>
<!DOCTYPE svg PUBLIC "-//W3C//DTD SVG 1.1//EN"
 "http://www.w3.org/Graphics/SVG/1.1/DTD/svg11.dtd">
<!-- Generated by graphviz version 2.36.0 (20140111.2315)
 -->
<!-- Title: util.SaveLoadUtility.fileExists Pages: 1 -->
<svg width="504pt" height="38pt"
 viewBox="0.00 0.00 504.00 38.00" xmlns="http://www.w3.org/2000/svg" xmlns:xlink="http://www.w3.org/1999/xlink">
<g id="graph0" class="graph" transform="scale(1 1) rotate(0) translate(4 34)">
<title>util.SaveLoadUtility.fileExists</title>
<polygon fill="white" stroke="none" points="-4,4 -4,-34 500,-34 500,4 -4,4"/>
<!-- Node1 -->
<g id="node1" class="node"><title>Node1</title>
<polygon fill="#bfbfbf" stroke="black" points="0.5,-0 0.5,-30 123.5,-30 123.5,-0 0.5,-0"/>
<text text-anchor="start" x="8.5" y="-18" font-family="Helvetica,sans-Serif" font-size="10.00">util.SaveLoadUtility.file</text>
<text text-anchor="middle" x="62" y="-7" font-family="Helvetica,sans-Serif" font-size="10.00">Exists</text>
</g>
<!-- Node2 -->
<g id="node2" class="node"><title>Node2</title>
<g id="a_node2"><a xlink:href="../../d3/d14/classutil_1_1_save_load_utility.html#af1333303576053ddda0787bcf1cd9c81" target="_top" xlink:title="util.SaveLoadUtility.load\lImage">
<polygon fill="white" stroke="black" points="160,-0 160,-30 290,-30 290,-0 160,-0"/>
<text text-anchor="start" x="168" y="-18" font-family="Helvetica,sans-Serif" font-size="10.00">util.SaveLoadUtility.load</text>
<text text-anchor="middle" x="225" y="-7" font-family="Helvetica,sans-Serif" font-size="10.00">Image</text>
</a>
</g>
</g>
<!-- Node1&#45;&gt;Node2 -->
<g id="edge1" class="edge"><title>Node1&#45;&gt;Node2</title>
<path fill="none" stroke="midnightblue" d="M133.902,-15C142.529,-15 151.305,-15 159.826,-15"/>
<polygon fill="midnightblue" stroke="midnightblue" points="133.867,-11.5001 123.867,-15 133.867,-18.5001 133.867,-11.5001"/>
</g>
<!-- Node3 -->
<g id="node3" class="node"><title>Node3</title>
<g id="a_node3"><a xlink:href="../../d0/d77/classtest_1_1util_1_1_test_load_save_utility.html#a563b6accea25a4a5868cbff906216e55" target="_top" xlink:title="test.util.TestLoadSaveUtility.test\lLoadSaveFunction">
<polygon fill="white" stroke="black" points="326.5,-0 326.5,-30 495.5,-30 495.5,-0 326.5,-0"/>
<text text-anchor="start" x="334.5" y="-18" font-family="Helvetica,sans-Serif" font-size="10.00">test.util.TestLoadSaveUtility.test</text>
<text text-anchor="middle" x="411" y="-7" font-family="Helvetica,sans-Serif" font-size="10.00">LoadSaveFunction</text>
</a>
</g>
</g>
<!-- Node2&#45;&gt;Node3 -->
<g id="edge2" class="edge"><title>Node2&#45;&gt;Node3</title>
<path fill="none" stroke="midnightblue" d="M300.124,-15C308.768,-15 317.631,-15 326.392,-15"/>
<polygon fill="midnightblue" stroke="midnightblue" points="300.096,-11.5001 290.096,-15 300.096,-18.5001 300.096,-11.5001"/>
</g>
</g>
</svg>
