<?xml version="1.0" encoding="UTF-8" standalone="no"?>
<!DOCTYPE svg PUBLIC "-//W3C//DTD SVG 1.1//EN"
 "http://www.w3.org/Graphics/SVG/1.1/DTD/svg11.dtd">
<!-- Generated by graphviz version 2.36.0 (20140111.2315)
 -->
<!-- Title: util.SaveLoadUtility.save Pages: 1 -->
<svg width="506pt" height="175pt"
 viewBox="0.00 0.00 506.00 175.00" xmlns="http://www.w3.org/2000/svg" xmlns:xlink="http://www.w3.org/1999/xlink">
<g id="graph0" class="graph" transform="scale(1 1) rotate(0) translate(4 171)">
<title>util.SaveLoadUtility.save</title>
<polygon fill="white" stroke="none" points="-4,4 -4,-171 502,-171 502,4 -4,4"/>
<!-- Node1 -->
<g id="node1" class="node"><title>Node1</title>
<polygon fill="#bfbfbf" stroke="black" points="0,-78.5 0,-97.5 132,-97.5 132,-78.5 0,-78.5"/>
<text text-anchor="middle" x="66" y="-85.5" font-family="Helvetica,sans-Serif" font-size="10.00">util.SaveLoadUtility.save</text>
</g>
<!-- Node2 -->
<g id="node2" class="node"><title>Node2</title>
<g id="a_node2"><a xlink:href="../../d3/d14/classutil_1_1_save_load_utility.html#a45324a0a42802150f23edb0fe9340aa2" target="_top" xlink:title="util.SaveLoadUtility.obtainFile">
<polygon fill="white" stroke="black" points="168.5,-147.5 168.5,-166.5 323.5,-166.5 323.5,-147.5 168.5,-147.5"/>
<text text-anchor="middle" x="246" y="-154.5" font-family="Helvetica,sans-Serif" font-size="10.00">util.SaveLoadUtility.obtainFile</text>
</a>
</g>
</g>
<!-- Node1&#45;&gt;Node2 -->
<g id="edge1" class="edge"><title>Node1&#45;&gt;Node2</title>
<path fill="none" stroke="midnightblue" d="M84.06,-97.5703C103.783,-108.326 137.459,-125.751 168,-137 175.74,-139.851 184.059,-142.46 192.265,-144.785"/>
<polygon fill="midnightblue" stroke="midnightblue" points="191.606,-148.233 202.174,-147.477 193.441,-141.478 191.606,-148.233"/>
</g>
<!-- Node3 -->
<g id="node3" class="node"><title>Node3</title>
<g id="a_node3"><a xlink:href="../../d3/d14/classutil_1_1_save_load_utility.html#a7dd5135de57549be59b6af1d5828e2a1" target="_top" xlink:title="util.SaveLoadUtility.pre\lProcess">
<polygon fill="white" stroke="black" points="183.5,-98 183.5,-128 308.5,-128 308.5,-98 183.5,-98"/>
<text text-anchor="start" x="191.5" y="-116" font-family="Helvetica,sans-Serif" font-size="10.00">util.SaveLoadUtility.pre</text>
<text text-anchor="middle" x="246" y="-105" font-family="Helvetica,sans-Serif" font-size="10.00">Process</text>
</a>
</g>
</g>
<!-- Node1&#45;&gt;Node3 -->
<g id="edge2" class="edge"><title>Node1&#45;&gt;Node3</title>
<path fill="none" stroke="midnightblue" d="M132.018,-97.1317C145.392,-99.0102 159.548,-100.998 173.148,-102.908"/>
<polygon fill="midnightblue" stroke="midnightblue" points="173.028,-106.426 183.418,-104.351 174.002,-99.4939 173.028,-106.426"/>
</g>
<!-- Node4 -->
<g id="node4" class="node"><title>Node4</title>
<g id="a_node4"><a xlink:href="../../df/d88/classutil_1_1_default_resource.html#aad8a7fcba1f40a6b712aa5cd1abc6aac" target="_top" xlink:title="util.DefaultResource.set\lDefaults">
<polygon fill="white" stroke="black" points="181,-49 181,-79 311,-79 311,-49 181,-49"/>
<text text-anchor="start" x="189" y="-67" font-family="Helvetica,sans-Serif" font-size="10.00">util.DefaultResource.set</text>
<text text-anchor="middle" x="246" y="-56" font-family="Helvetica,sans-Serif" font-size="10.00">Defaults</text>
</a>
</g>
</g>
<!-- Node1&#45;&gt;Node4 -->
<g id="edge3" class="edge"><title>Node1&#45;&gt;Node4</title>
<path fill="none" stroke="midnightblue" d="M132.018,-79.2336C144.556,-77.543 157.78,-75.76 170.59,-74.0328"/>
<polygon fill="midnightblue" stroke="midnightblue" points="171.311,-77.4674 180.754,-72.6624 170.376,-70.5301 171.311,-77.4674"/>
</g>
<!-- Node6 -->
<g id="node6" class="node"><title>Node6</title>
<g id="a_node6"><a xlink:href="../../d3/d14/classutil_1_1_save_load_utility.html#a7347b42b8c3f47d377c97fad56d5ad42" target="_top" xlink:title="util.SaveLoadUtility.top\lLevelDirectory">
<polygon fill="white" stroke="black" points="183.5,-0 183.5,-30 308.5,-30 308.5,-0 183.5,-0"/>
<text text-anchor="start" x="191.5" y="-18" font-family="Helvetica,sans-Serif" font-size="10.00">util.SaveLoadUtility.top</text>
<text text-anchor="middle" x="246" y="-7" font-family="Helvetica,sans-Serif" font-size="10.00">LevelDirectory</text>
</a>
</g>
</g>
<!-- Node1&#45;&gt;Node6 -->
<g id="edge5" class="edge"><title>Node1&#45;&gt;Node6</title>
<path fill="none" stroke="midnightblue" d="M85.2954,-78.42C105.287,-68.1619 138.418,-51.7742 168,-40 173.742,-37.7147 179.783,-35.4769 185.85,-33.3378"/>
<polygon fill="midnightblue" stroke="midnightblue" points="187.05,-36.6264 195.369,-30.0648 184.774,-30.0069 187.05,-36.6264"/>
</g>
<!-- Node5 -->
<g id="node5" class="node"><title>Node5</title>
<g id="a_node5"><a xlink:href="../../df/d88/classutil_1_1_default_resource.html#aa9dfd26d403dc2a18c3c116d333412be" target="_top" xlink:title="util.DefaultResource.copy\lResources">
<polygon fill="white" stroke="black" points="360.5,-49 360.5,-79 497.5,-79 497.5,-49 360.5,-49"/>
<text text-anchor="start" x="368.5" y="-67" font-family="Helvetica,sans-Serif" font-size="10.00">util.DefaultResource.copy</text>
<text text-anchor="middle" x="429" y="-56" font-family="Helvetica,sans-Serif" font-size="10.00">Resources</text>
</a>
</g>
</g>
<!-- Node4&#45;&gt;Node5 -->
<g id="edge4" class="edge"><title>Node4&#45;&gt;Node5</title>
<path fill="none" stroke="midnightblue" d="M311.069,-64C323.667,-64 337.014,-64 350.011,-64"/>
<polygon fill="midnightblue" stroke="midnightblue" points="350.337,-67.5001 360.337,-64 350.337,-60.5001 350.337,-67.5001"/>
</g>
</g>
</svg>
