<?xml version="1.0" encoding="UTF-8" standalone="no"?>
<!DOCTYPE svg PUBLIC "-//W3C//DTD SVG 1.1//EN"
 "http://www.w3.org/Graphics/SVG/1.1/DTD/svg11.dtd">
<!-- Generated by graphviz version 2.36.0 (20140111.2315)
 -->
<!-- Title: game_requests.forwarding.RequestMediator.isKnownAddress Pages: 1 -->
<svg width="602pt" height="87pt"
 viewBox="0.00 0.00 602.00 87.00" xmlns="http://www.w3.org/2000/svg" xmlns:xlink="http://www.w3.org/1999/xlink">
<g id="graph0" class="graph" transform="scale(1 1) rotate(0) translate(4 83)">
<title>game_requests.forwarding.RequestMediator.isKnownAddress</title>
<polygon fill="white" stroke="none" points="-4,4 -4,-83 598,-83 598,4 -4,4"/>
<!-- Node1 -->
<g id="node1" class="node"><title>Node1</title>
<polygon fill="#bfbfbf" stroke="black" points="0,-24 0,-54 176,-54 176,-24 0,-24"/>
<text text-anchor="start" x="8" y="-42" font-family="Helvetica,sans-Serif" font-size="10.00">game_requests.forwarding.</text>
<text text-anchor="middle" x="88" y="-31" font-family="Helvetica,sans-Serif" font-size="10.00">RequestMediator.isKnownAddress</text>
</g>
<!-- Node2 -->
<g id="node2" class="node"><title>Node2</title>
<g id="a_node2"><a xlink:href="../../d7/d05/classgame__requests_1_1forwarding_1_1_request_mediator.html#acbebd158346e8f9141612381e21371a4" target="_top" xlink:title="game_requests.forwarding.\lRequestMediator.checkKnownAddress">
<polygon fill="white" stroke="black" points="212.5,-49 212.5,-79 409.5,-79 409.5,-49 212.5,-49"/>
<text text-anchor="start" x="220.5" y="-67" font-family="Helvetica,sans-Serif" font-size="10.00">game_requests.forwarding.</text>
<text text-anchor="middle" x="311" y="-56" font-family="Helvetica,sans-Serif" font-size="10.00">RequestMediator.checkKnownAddress</text>
</a>
</g>
</g>
<!-- Node1&#45;&gt;Node2 -->
<g id="edge1" class="edge"><title>Node1&#45;&gt;Node2</title>
<path fill="none" stroke="midnightblue" d="M186.195,-49.995C194.912,-50.981 203.741,-51.9797 212.46,-52.9661"/>
<polygon fill="midnightblue" stroke="midnightblue" points="186.358,-46.4911 176.028,-48.8448 185.571,-53.4467 186.358,-46.4911"/>
</g>
<!-- Node4 -->
<g id="node4" class="node"><title>Node4</title>
<g id="a_node4"><a xlink:href="../../d7/d05/classgame__requests_1_1forwarding_1_1_request_mediator.html#a9c2ad76553e173cc2647a791f18ec6dd" target="_top" xlink:title="game_requests.forwarding.\lRequestMediator.register">
<polygon fill="white" stroke="black" points="237.5,-0 237.5,-30 384.5,-30 384.5,-0 237.5,-0"/>
<text text-anchor="start" x="245.5" y="-18" font-family="Helvetica,sans-Serif" font-size="10.00">game_requests.forwarding.</text>
<text text-anchor="middle" x="311" y="-7" font-family="Helvetica,sans-Serif" font-size="10.00">RequestMediator.register</text>
</a>
</g>
</g>
<!-- Node1&#45;&gt;Node4 -->
<g id="edge3" class="edge"><title>Node1&#45;&gt;Node4</title>
<path fill="none" stroke="midnightblue" d="M186.092,-28.4561C203.294,-26.588 220.935,-24.6722 237.316,-22.8933"/>
<polygon fill="midnightblue" stroke="midnightblue" points="185.591,-24.9898 176.028,-29.549 186.347,-31.9488 185.591,-24.9898"/>
</g>
<!-- Node3 -->
<g id="node3" class="node"><title>Node3</title>
<g id="a_node3"><a xlink:href="../../d7/d05/classgame__requests_1_1forwarding_1_1_request_mediator.html#a2ce38c25212575e296d55fd43ad4970e" target="_top" xlink:title="game_requests.forwarding.\lRequestMediator.forward">
<polygon fill="white" stroke="black" points="446.5,-49 446.5,-79 593.5,-79 593.5,-49 446.5,-49"/>
<text text-anchor="start" x="454.5" y="-67" font-family="Helvetica,sans-Serif" font-size="10.00">game_requests.forwarding.</text>
<text text-anchor="middle" x="520" y="-56" font-family="Helvetica,sans-Serif" font-size="10.00">RequestMediator.forward</text>
</a>
</g>
</g>
<!-- Node2&#45;&gt;Node3 -->
<g id="edge2" class="edge"><title>Node2&#45;&gt;Node3</title>
<path fill="none" stroke="midnightblue" d="M419.884,-64C428.864,-64 437.8,-64 446.421,-64"/>
<polygon fill="midnightblue" stroke="midnightblue" points="419.741,-60.5001 409.741,-64 419.741,-67.5001 419.741,-60.5001"/>
</g>
</g>
</svg>
