<?xml version="1.0" encoding="UTF-8" standalone="no"?>
<!DOCTYPE svg PUBLIC "-//W3C//DTD SVG 1.1//EN"
 "http://www.w3.org/Graphics/SVG/1.1/DTD/svg11.dtd">
<!-- Generated by graphviz version 2.36.0 (20140111.2315)
 -->
<!-- Title: engine.gameRepresentation.renderedRepresentation.GameElement.getNumericalAttribute Pages: 1 -->
<svg width="1526pt" height="939pt"
 viewBox="0.00 0.00 1526.00 939.15" xmlns="http://www.w3.org/2000/svg" xmlns:xlink="http://www.w3.org/1999/xlink">
<g id="graph0" class="graph" transform="scale(1 1) rotate(0) translate(4 935.151)">
<title>engine.gameRepresentation.renderedRepresentation.GameElement.getNumericalAttribute</title>
<polygon fill="white" stroke="none" points="-4,4 -4,-935.151 1522,-935.151 1522,4 -4,4"/>
<!-- Node1 -->
<g id="node1" class="node"><title>Node1</title>
<polygon fill="#bfbfbf" stroke="black" points="0,-443.651 0,-484.651 228,-484.651 228,-443.651 0,-443.651"/>
<text text-anchor="start" x="8" y="-472.651" font-family="Helvetica,sans-Serif" font-size="10.00">engine.gameRepresentation.rendered</text>
<text text-anchor="start" x="8" y="-461.651" font-family="Helvetica,sans-Serif" font-size="10.00">Representation.GameElement.getNumerical</text>
<text text-anchor="middle" x="114" y="-450.651" font-family="Helvetica,sans-Serif" font-size="10.00">Attribute</text>
</g>
<!-- Node2 -->
<g id="node2" class="node"><title>Node2</title>
<g id="a_node2"><a xlink:href="../../db/d6f/classengine_1_1game_representation_1_1rendered_representation_1_1_level.html#aa4cb01e38b312497df4e237d409878cb" target="_top" xlink:title="engine.gameRepresentation.rendered\lRepresentation.Level.addElement">
<polygon fill="white" stroke="black" points="301,-890.151 301,-920.151 499,-920.151 499,-890.151 301,-890.151"/>
<text text-anchor="start" x="309" y="-908.151" font-family="Helvetica,sans-Serif" font-size="10.00">engine.gameRepresentation.rendered</text>
<text text-anchor="middle" x="400" y="-897.151" font-family="Helvetica,sans-Serif" font-size="10.00">Representation.Level.addElement</text>
</a>
</g>
</g>
<!-- Node1&#45;&gt;Node2 -->
<g id="edge1" class="edge"><title>Node1&#45;&gt;Node2</title>
<path fill="none" stroke="midnightblue" d="M116.132,-495.124C120.761,-573.057 144.302,-778.307 264,-880.151 274.62,-889.187 287.436,-895.399 300.89,-899.605"/>
<polygon fill="midnightblue" stroke="midnightblue" points="119.62,-494.798 115.597,-484.997 112.63,-495.168 119.62,-494.798"/>
</g>
<!-- Node3 -->
<g id="node3" class="node"><title>Node3</title>
<g id="a_node3"><a xlink:href="../../dd/dd8/classengine_1_1state_managing_1_1_game_element_manager.html#a2383f0a605117bbc67d1c4b077b7174c" target="_top" xlink:title="engine.stateManaging.Game\lElementManager.checkOnTeam">
<polygon fill="white" stroke="black" points="316.5,-841.151 316.5,-871.151 483.5,-871.151 483.5,-841.151 316.5,-841.151"/>
<text text-anchor="start" x="324.5" y="-859.151" font-family="Helvetica,sans-Serif" font-size="10.00">engine.stateManaging.Game</text>
<text text-anchor="middle" x="400" y="-848.151" font-family="Helvetica,sans-Serif" font-size="10.00">ElementManager.checkOnTeam</text>
</a>
</g>
</g>
<!-- Node1&#45;&gt;Node3 -->
<g id="edge2" class="edge"><title>Node1&#45;&gt;Node3</title>
<path fill="none" stroke="midnightblue" d="M117.765,-494.904C125.921,-566.232 156.537,-743.515 264,-831.151 278.778,-843.203 297.503,-850.163 316.266,-854.038"/>
<polygon fill="midnightblue" stroke="midnightblue" points="121.226,-494.353 116.679,-484.784 114.266,-495.1 121.226,-494.353"/>
</g>
<!-- Node11 -->
<g id="node11" class="node"><title>Node11</title>
<g id="a_node11"><a xlink:href="../../db/d63/classengine_1_1game_representation_1_1evaluatables_1_1evaluators_1_1_move_player.html#a4589a27772759df572f8c8a285665952" target="_top" xlink:title="engine.gameRepresentation.evaluatables.evaluators.\lMovePlayer.evaluate">
<polygon fill="white" stroke="black" points="264,-792.151 264,-822.151 536,-822.151 536,-792.151 264,-792.151"/>
<text text-anchor="start" x="272" y="-810.151" font-family="Helvetica,sans-Serif" font-size="10.00">engine.gameRepresentation.evaluatables.evaluators.</text>
<text text-anchor="middle" x="400" y="-799.151" font-family="Helvetica,sans-Serif" font-size="10.00">MovePlayer.evaluate</text>
</a>
</g>
</g>
<!-- Node1&#45;&gt;Node11 -->
<g id="edge10" class="edge"><title>Node1&#45;&gt;Node11</title>
<path fill="none" stroke="midnightblue" d="M119.858,-494.841C131.768,-559.226 168.716,-708.526 264,-782.151 268.904,-785.94 274.204,-789.218 279.77,-792.048"/>
<polygon fill="midnightblue" stroke="midnightblue" points="123.289,-494.14 118.096,-484.905 116.396,-495.362 123.289,-494.14"/>
</g>
<!-- Node12 -->
<g id="node12" class="node"><title>Node12</title>
<g id="a_node12"><a xlink:href="../../d7/df8/classengine_1_1game_representation_1_1evaluatables_1_1evaluators_1_1_move_back.html#a8f67e9649ab2cfa8e41d68f461f2ad49" target="_top" xlink:title="engine.gameRepresentation.evaluatables.evaluators.\lMoveBack.evaluate">
<polygon fill="white" stroke="black" points="264,-743.151 264,-773.151 536,-773.151 536,-743.151 264,-743.151"/>
<text text-anchor="start" x="272" y="-761.151" font-family="Helvetica,sans-Serif" font-size="10.00">engine.gameRepresentation.evaluatables.evaluators.</text>
<text text-anchor="middle" x="400" y="-750.151" font-family="Helvetica,sans-Serif" font-size="10.00">MoveBack.evaluate</text>
</a>
</g>
</g>
<!-- Node1&#45;&gt;Node12 -->
<g id="edge11" class="edge"><title>Node1&#45;&gt;Node12</title>
<path fill="none" stroke="midnightblue" d="M122.556,-494.493C138.368,-551.237 180.592,-673.096 264,-733.151 269.319,-736.981 275.054,-740.277 281.053,-743.109"/>
<polygon fill="midnightblue" stroke="midnightblue" points="125.894,-493.427 119.907,-484.685 119.136,-495.252 125.894,-493.427"/>
</g>
<!-- Node13 -->
<g id="node13" class="node"><title>Node13</title>
<g id="a_node13"><a xlink:href="../../d3/ddb/classengine_1_1game_representation_1_1evaluatables_1_1evaluators_1_1_follow.html#a0f3e2e3a35ba6e9b0441210bbfa7d7e5" target="_top" xlink:title="engine.gameRepresentation.evaluatables.evaluators.\lFollow.evaluate">
<polygon fill="white" stroke="black" points="264,-694.151 264,-724.151 536,-724.151 536,-694.151 264,-694.151"/>
<text text-anchor="start" x="272" y="-712.151" font-family="Helvetica,sans-Serif" font-size="10.00">engine.gameRepresentation.evaluatables.evaluators.</text>
<text text-anchor="middle" x="400" y="-701.151" font-family="Helvetica,sans-Serif" font-size="10.00">Follow.evaluate</text>
</a>
</g>
</g>
<!-- Node1&#45;&gt;Node13 -->
<g id="edge12" class="edge"><title>Node1&#45;&gt;Node13</title>
<path fill="none" stroke="midnightblue" d="M126.318,-494.196C146.223,-542.627 192.311,-637.254 264,-684.151 269.884,-688.001 276.205,-691.295 282.784,-694.111"/>
<polygon fill="midnightblue" stroke="midnightblue" points="129.549,-492.852 122.577,-484.875 123.053,-495.459 129.549,-492.852"/>
</g>
<!-- Node14 -->
<g id="node14" class="node"><title>Node14</title>
<g id="a_node14"><a xlink:href="../../da/d86/classengine_1_1game_representation_1_1evaluatables_1_1evaluators_1_1_update_movement_direction.html#abca8ef6d6c79524de8052586f33434d7" target="_top" xlink:title="engine.gameRepresentation.evaluatables.evaluators.\lUpdateMovementDirection.evaluate">
<polygon fill="white" stroke="black" points="264,-645.151 264,-675.151 536,-675.151 536,-645.151 264,-645.151"/>
<text text-anchor="start" x="272" y="-663.151" font-family="Helvetica,sans-Serif" font-size="10.00">engine.gameRepresentation.evaluatables.evaluators.</text>
<text text-anchor="middle" x="400" y="-652.151" font-family="Helvetica,sans-Serif" font-size="10.00">UpdateMovementDirection.evaluate</text>
</a>
</g>
</g>
<!-- Node1&#45;&gt;Node14 -->
<g id="edge13" class="edge"><title>Node1&#45;&gt;Node14</title>
<path fill="none" stroke="midnightblue" d="M131.776,-493.508C155.758,-532.58 203.685,-600.731 264,-635.151 270.728,-638.991 277.924,-642.258 285.36,-645.037"/>
<polygon fill="midnightblue" stroke="midnightblue" points="134.632,-491.466 126.476,-484.704 128.635,-495.077 134.632,-491.466"/>
</g>
<!-- Node15 -->
<g id="node15" class="node"><title>Node15</title>
<g id="a_node15"><a xlink:href="../../da/d2c/classengine_1_1game_representation_1_1evaluatables_1_1evaluators_1_1_follow_x.html#ad733824974a276e93b19889f48288d40" target="_top" xlink:title="engine.gameRepresentation.evaluatables.evaluators.\lFollowX.evaluate">
<polygon fill="white" stroke="black" points="264,-596.151 264,-626.151 536,-626.151 536,-596.151 264,-596.151"/>
<text text-anchor="start" x="272" y="-614.151" font-family="Helvetica,sans-Serif" font-size="10.00">engine.gameRepresentation.evaluatables.evaluators.</text>
<text text-anchor="middle" x="400" y="-603.151" font-family="Helvetica,sans-Serif" font-size="10.00">FollowX.evaluate</text>
</a>
</g>
</g>
<!-- Node1&#45;&gt;Node15 -->
<g id="edge14" class="edge"><title>Node1&#45;&gt;Node15</title>
<path fill="none" stroke="midnightblue" d="M140.399,-491.942C167.979,-520.295 214.728,-563.279 264,-586.151 272.324,-590.015 281.197,-593.282 290.267,-596.045"/>
<polygon fill="midnightblue" stroke="midnightblue" points="142.921,-489.516 133.476,-484.717 137.867,-494.359 142.921,-489.516"/>
</g>
<!-- Node16 -->
<g id="node16" class="node"><title>Node16</title>
<g id="a_node16"><a xlink:href="../../d7/db1/classengine_1_1game_representation_1_1evaluatables_1_1evaluators_1_1_bounce.html#a3d6fd36cc9c832e2d98d1cce0048e3af" target="_top" xlink:title="engine.gameRepresentation.evaluatables.evaluators.\lBounce.evaluate">
<polygon fill="white" stroke="black" points="572,-476.151 572,-506.151 844,-506.151 844,-476.151 572,-476.151"/>
<text text-anchor="start" x="580" y="-494.151" font-family="Helvetica,sans-Serif" font-size="10.00">engine.gameRepresentation.evaluatables.evaluators.</text>
<text text-anchor="middle" x="708" y="-483.151" font-family="Helvetica,sans-Serif" font-size="10.00">Bounce.evaluate</text>
</a>
</g>
</g>
<!-- Node1&#45;&gt;Node16 -->
<g id="edge15" class="edge"><title>Node1&#45;&gt;Node16</title>
<path fill="none" stroke="midnightblue" d="M238.414,-442.717C247.054,-441.696 255.646,-440.82 264,-440.151 384.504,-430.508 416.378,-422.693 536,-440.151 582.596,-446.952 634.143,-463.656 668.335,-476.106"/>
<polygon fill="midnightblue" stroke="midnightblue" points="237.751,-439.272 228.259,-443.979 238.615,-446.219 237.751,-439.272"/>
</g>
<!-- Node17 -->
<g id="node17" class="node"><title>Node17</title>
<g id="a_node17"><a xlink:href="../../d1/d1f/classengine_1_1game_representation_1_1evaluatables_1_1evaluators_1_1_attack.html#a0cdc63bdbcc444c2186340ce24bd3c3d" target="_top" xlink:title="engine.gameRepresentation.evaluatables.evaluators.\lAttack.evaluate">
<polygon fill="white" stroke="black" points="264,-498.151 264,-528.151 536,-528.151 536,-498.151 264,-498.151"/>
<text text-anchor="start" x="272" y="-516.151" font-family="Helvetica,sans-Serif" font-size="10.00">engine.gameRepresentation.evaluatables.evaluators.</text>
<text text-anchor="middle" x="400" y="-505.151" font-family="Helvetica,sans-Serif" font-size="10.00">Attack.evaluate</text>
</a>
</g>
</g>
<!-- Node1&#45;&gt;Node17 -->
<g id="edge16" class="edge"><title>Node1&#45;&gt;Node17</title>
<path fill="none" stroke="midnightblue" d="M238.235,-485.414C262.979,-489.683 288.495,-494.085 311.709,-498.09"/>
<polygon fill="midnightblue" stroke="midnightblue" points="238.51,-481.909 228.06,-483.658 237.32,-488.807 238.51,-481.909"/>
</g>
<!-- Node18 -->
<g id="node18" class="node"><title>Node18</title>
<g id="a_node18"><a xlink:href="../../d7/d90/classengine_1_1game_representation_1_1evaluatables_1_1evaluators_1_1_spawn_selectable_element.html#a0f585c8db2760db7dc17edf5861d8f0a" target="_top" xlink:title="engine.gameRepresentation.evaluatables.evaluators.\lSpawnSelectableElement.evaluate">
<polygon fill="white" stroke="black" points="264,-449.151 264,-479.151 536,-479.151 536,-449.151 264,-449.151"/>
<text text-anchor="start" x="272" y="-467.151" font-family="Helvetica,sans-Serif" font-size="10.00">engine.gameRepresentation.evaluatables.evaluators.</text>
<text text-anchor="middle" x="400" y="-456.151" font-family="Helvetica,sans-Serif" font-size="10.00">SpawnSelectableElement.evaluate</text>
</a>
</g>
</g>
<!-- Node1&#45;&gt;Node18 -->
<g id="edge17" class="edge"><title>Node1&#45;&gt;Node18</title>
<path fill="none" stroke="midnightblue" d="M238.316,-464.151C246.767,-464.151 255.308,-464.151 263.816,-464.151"/>
<polygon fill="midnightblue" stroke="midnightblue" points="238.06,-460.651 228.06,-464.151 238.06,-467.651 238.06,-460.651"/>
</g>
<!-- Node19 -->
<g id="node19" class="node"><title>Node19</title>
<g id="a_node19"><a xlink:href="../../de/d2e/classengine_1_1game_representation_1_1evaluatables_1_1evaluators_1_1_heading_update.html#adee8916ea2eb832aba10a00ec5dc1410" target="_top" xlink:title="engine.gameRepresentation.evaluatables.evaluators.\lHeadingUpdate.evaluate">
<polygon fill="white" stroke="black" points="572,-219.151 572,-249.151 844,-249.151 844,-219.151 572,-219.151"/>
<text text-anchor="start" x="580" y="-237.151" font-family="Helvetica,sans-Serif" font-size="10.00">engine.gameRepresentation.evaluatables.evaluators.</text>
<text text-anchor="middle" x="708" y="-226.151" font-family="Helvetica,sans-Serif" font-size="10.00">HeadingUpdate.evaluate</text>
</a>
</g>
</g>
<!-- Node1&#45;&gt;Node19 -->
<g id="edge18" class="edge"><title>Node1&#45;&gt;Node19</title>
<path fill="none" stroke="midnightblue" d="M132.553,-435.102C156.946,-397.555 204.843,-333.31 264,-302.151 372.053,-245.238 415.343,-282.029 536,-263.151 563.667,-258.822 593.8,-253.812 620.955,-249.185"/>
<polygon fill="midnightblue" stroke="midnightblue" points="129.568,-433.272 127.145,-443.586 135.471,-437.034 129.568,-433.272"/>
</g>
<!-- Node20 -->
<g id="node20" class="node"><title>Node20</title>
<g id="a_node20"><a xlink:href="../../d6/df9/classengine_1_1game_representation_1_1evaluatables_1_1evaluators_1_1_random_waypoint.html#a44deb485e5c5f641914728dd75166f63" target="_top" xlink:title="engine.gameRepresentation.evaluatables.evaluators.\lRandomWaypoint.evaluate">
<polygon fill="white" stroke="black" points="264,-361.151 264,-391.151 536,-391.151 536,-361.151 264,-361.151"/>
<text text-anchor="start" x="272" y="-379.151" font-family="Helvetica,sans-Serif" font-size="10.00">engine.gameRepresentation.evaluatables.evaluators.</text>
<text text-anchor="middle" x="400" y="-368.151" font-family="Helvetica,sans-Serif" font-size="10.00">RandomWaypoint.evaluate</text>
</a>
</g>
</g>
<!-- Node1&#45;&gt;Node20 -->
<g id="edge19" class="edge"><title>Node1&#45;&gt;Node20</title>
<path fill="none" stroke="midnightblue" d="M171.782,-439.696C199.284,-428.46 232.995,-415.571 264,-406.151 282.493,-400.533 302.704,-395.482 321.725,-391.196"/>
<polygon fill="midnightblue" stroke="midnightblue" points="170.239,-436.546 162.327,-443.593 172.907,-443.018 170.239,-436.546"/>
</g>
<!-- Node21 -->
<g id="node21" class="node"><title>Node21</title>
<g id="a_node21"><a xlink:href="../../d8/dcd/classengine_1_1game_representation_1_1evaluatables_1_1actions_1_1_attribute_incrementer_action.html#a4718e7d85bdc5522781701e466d8f00c" target="_top" xlink:title="engine.gameRepresentation.evaluatables.actions.\lAttributeIncrementerAction.evaluate">
<polygon fill="white" stroke="black" points="272,-312.151 272,-342.151 528,-342.151 528,-312.151 272,-312.151"/>
<text text-anchor="start" x="280" y="-330.151" font-family="Helvetica,sans-Serif" font-size="10.00">engine.gameRepresentation.evaluatables.actions.</text>
<text text-anchor="middle" x="400" y="-319.151" font-family="Helvetica,sans-Serif" font-size="10.00">AttributeIncrementerAction.evaluate</text>
</a>
</g>
</g>
<!-- Node1&#45;&gt;Node21 -->
<g id="edge20" class="edge"><title>Node1&#45;&gt;Node21</title>
<path fill="none" stroke="midnightblue" d="M143.136,-436.583C171.324,-410.62 217.146,-372.73 264,-352.151 272.839,-348.269 282.259,-344.99 291.857,-342.219"/>
<polygon fill="midnightblue" stroke="midnightblue" points="140.582,-434.18 135.667,-443.565 145.362,-439.293 140.582,-434.18"/>
</g>
<!-- Node22 -->
<g id="node22" class="node"><title>Node22</title>
<g id="a_node22"><a xlink:href="../../d7/db1/classengine_1_1game_representation_1_1evaluatables_1_1evaluators_1_1_bounce.html#aebb1d86f1f04e5370f255b34ef8769b8" target="_top" xlink:title="engine.gameRepresentation.evaluatables.evaluators.\lBounce.getCenter">
<polygon fill="white" stroke="black" points="264,-547.151 264,-577.151 536,-577.151 536,-547.151 264,-547.151"/>
<text text-anchor="start" x="272" y="-565.151" font-family="Helvetica,sans-Serif" font-size="10.00">engine.gameRepresentation.evaluatables.evaluators.</text>
<text text-anchor="middle" x="400" y="-554.151" font-family="Helvetica,sans-Serif" font-size="10.00">Bounce.getCenter</text>
</a>
</g>
</g>
<!-- Node1&#45;&gt;Node22 -->
<g id="edge21" class="edge"><title>Node1&#45;&gt;Node22</title>
<path fill="none" stroke="midnightblue" d="M159.005,-489.672C187.983,-505.47 227.229,-524.993 264,-537.151 275.542,-540.968 287.843,-544.255 300.142,-547.074"/>
<polygon fill="midnightblue" stroke="midnightblue" points="160.42,-486.455 149.973,-484.688 157.037,-492.584 160.42,-486.455"/>
</g>
<!-- Node23 -->
<g id="node23" class="node"><title>Node23</title>
<g id="a_node23"><a xlink:href="../../d8/d2f/classengine_1_1game_representation_1_1rendered_representation_1_1_drawable_game_element.html#ac41e12a49a30aa1be59086897c814847" target="_top" xlink:title="engine.gameRepresentation.rendered\lRepresentation.DrawableGameElement.getLines">
<polygon fill="white" stroke="black" points="276,-224.151 276,-254.151 524,-254.151 524,-224.151 276,-224.151"/>
<text text-anchor="start" x="284" y="-242.151" font-family="Helvetica,sans-Serif" font-size="10.00">engine.gameRepresentation.rendered</text>
<text text-anchor="middle" x="400" y="-231.151" font-family="Helvetica,sans-Serif" font-size="10.00">Representation.DrawableGameElement.getLines</text>
</a>
</g>
</g>
<!-- Node1&#45;&gt;Node23 -->
<g id="edge23" class="edge"><title>Node1&#45;&gt;Node23</title>
<path fill="none" stroke="midnightblue" d="M129.064,-434.584C151.33,-391.138 198.94,-310.715 264,-269.151 273.611,-263.011 284.302,-258.117 295.344,-254.218"/>
<polygon fill="midnightblue" stroke="midnightblue" points="125.936,-433.014 124.575,-443.521 132.191,-436.156 125.936,-433.014"/>
</g>
<!-- Node24 -->
<g id="node24" class="node"><title>Node24</title>
<g id="a_node24"><a xlink:href="../../d8/d2f/classengine_1_1game_representation_1_1rendered_representation_1_1_drawable_game_element.html#ada9b587e44ad6056ad0641c486a52d56" target="_top" xlink:title="engine.gameRepresentation.rendered\lRepresentation.DrawableGameElement.get\lNextWaypoint">
<polygon fill="white" stroke="black" points="288,-164.651 288,-205.651 512,-205.651 512,-164.651 288,-164.651"/>
<text text-anchor="start" x="296" y="-193.651" font-family="Helvetica,sans-Serif" font-size="10.00">engine.gameRepresentation.rendered</text>
<text text-anchor="start" x="296" y="-182.651" font-family="Helvetica,sans-Serif" font-size="10.00">Representation.DrawableGameElement.get</text>
<text text-anchor="middle" x="400" y="-171.651" font-family="Helvetica,sans-Serif" font-size="10.00">NextWaypoint</text>
</a>
</g>
</g>
<!-- Node1&#45;&gt;Node24 -->
<g id="edge24" class="edge"><title>Node1&#45;&gt;Node24</title>
<path fill="none" stroke="midnightblue" d="M124.116,-433.835C141.816,-380.454 186.099,-270.055 264,-214.151 271.304,-208.91 279.364,-204.582 287.803,-201.012"/>
<polygon fill="midnightblue" stroke="midnightblue" points="120.765,-432.825 121.023,-443.416 127.426,-434.975 120.765,-432.825"/>
</g>
<!-- Node25 -->
<g id="node25" class="node"><title>Node25</title>
<g id="a_node25"><a xlink:href="../../d2/de9/classengine_1_1visuals_1_1_mini_map.html#ab71afb73b6d6dad2354c8f92c38e56e7" target="_top" xlink:title="engine.visuals.MiniMap.set\lUnitColor">
<polygon fill="white" stroke="black" points="328,-67.1512 328,-97.1512 472,-97.1512 472,-67.1512 328,-67.1512"/>
<text text-anchor="start" x="336" y="-85.1512" font-family="Helvetica,sans-Serif" font-size="10.00">engine.visuals.MiniMap.set</text>
<text text-anchor="middle" x="400" y="-74.1512" font-family="Helvetica,sans-Serif" font-size="10.00">UnitColor</text>
</a>
</g>
</g>
<!-- Node1&#45;&gt;Node25 -->
<g id="edge26" class="edge"><title>Node1&#45;&gt;Node25</title>
<path fill="none" stroke="midnightblue" d="M118.04,-433.585C126.741,-363.531 158.367,-190.906 264,-106.151 281.917,-91.7752 305.509,-84.8271 327.952,-81.7497"/>
<polygon fill="midnightblue" stroke="midnightblue" points="114.562,-433.198 116.874,-443.537 121.514,-434.012 114.562,-433.198"/>
</g>
<!-- Node29 -->
<g id="node29" class="node"><title>Node29</title>
<g id="a_node29"><a xlink:href="../../d2/d87/classengine_1_1state_managing_1_1_game_loop.html#ab3cf1b000f90849c5389fbd90b147602" target="_top" xlink:title="engine.stateManaging.Game\lLoop.updateRunner">
<polygon fill="white" stroke="black" points="1362.5,-23.1512 1362.5,-53.1512 1517.5,-53.1512 1517.5,-23.1512 1362.5,-23.1512"/>
<text text-anchor="start" x="1370.5" y="-41.1512" font-family="Helvetica,sans-Serif" font-size="10.00">engine.stateManaging.Game</text>
<text text-anchor="middle" x="1440" y="-30.1512" font-family="Helvetica,sans-Serif" font-size="10.00">Loop.updateRunner</text>
</a>
</g>
</g>
<!-- Node1&#45;&gt;Node29 -->
<g id="edge34" class="edge"><title>Node1&#45;&gt;Node29</title>
<path fill="none" stroke="midnightblue" d="M115.542,-433.36C118.773,-355.105 139.274,-148.35 264,-57.1512 423.08,59.168 509.93,-38.1512 707,-38.1512 707,-38.1512 707,-38.1512 989,-38.1512 1120.05,-38.1512 1272.58,-38.1512 1362.16,-38.1512"/>
<polygon fill="midnightblue" stroke="midnightblue" points="112.039,-433.41 115.192,-443.524 119.035,-433.651 112.039,-433.41"/>
</g>
<!-- Node31 -->
<g id="node31" class="node"><title>Node31</title>
<g id="a_node31"><a xlink:href="../../d2/de9/classengine_1_1visuals_1_1_mini_map.html#aa545380bd8f999e045b08010e464a168" target="_top" xlink:title="engine.visuals.MiniMap.set\lUnitShape">
<polygon fill="white" stroke="black" points="328,-116.151 328,-146.151 472,-146.151 472,-116.151 328,-116.151"/>
<text text-anchor="start" x="336" y="-134.151" font-family="Helvetica,sans-Serif" font-size="10.00">engine.visuals.MiniMap.set</text>
<text text-anchor="middle" x="400" y="-123.151" font-family="Helvetica,sans-Serif" font-size="10.00">UnitShape</text>
</a>
</g>
</g>
<!-- Node1&#45;&gt;Node31 -->
<g id="edge32" class="edge"><title>Node1&#45;&gt;Node31</title>
<path fill="none" stroke="midnightblue" d="M120.268,-433.413C132.815,-370.257 170.684,-225.901 264,-155.151 282.116,-141.416 305.502,-134.589 327.707,-131.427"/>
<polygon fill="midnightblue" stroke="midnightblue" points="116.775,-433.05 118.339,-443.529 123.651,-434.361 116.775,-433.05"/>
</g>
<!-- Node4 -->
<g id="node4" class="node"><title>Node4</title>
<g id="a_node4"><a xlink:href="../../dd/dd8/classengine_1_1state_managing_1_1_game_element_manager.html#abc104943b3831eee294618eaaa207401" target="_top" xlink:title="engine.stateManaging.Game\lElementManager.selectUnitsInBounds">
<polygon fill="white" stroke="black" points="609,-841.151 609,-871.151 807,-871.151 807,-841.151 609,-841.151"/>
<text text-anchor="start" x="617" y="-859.151" font-family="Helvetica,sans-Serif" font-size="10.00">engine.stateManaging.Game</text>
<text text-anchor="middle" x="708" y="-848.151" font-family="Helvetica,sans-Serif" font-size="10.00">ElementManager.selectUnitsInBounds</text>
</a>
</g>
</g>
<!-- Node3&#45;&gt;Node4 -->
<g id="edge3" class="edge"><title>Node3&#45;&gt;Node4</title>
<path fill="none" stroke="midnightblue" d="M493.916,-856.151C530.289,-856.151 572.049,-856.151 608.907,-856.151"/>
<polygon fill="midnightblue" stroke="midnightblue" points="493.808,-852.651 483.808,-856.151 493.808,-859.651 493.808,-852.651"/>
</g>
<!-- Node6 -->
<g id="node6" class="node"><title>Node6</title>
<g id="a_node6"><a xlink:href="../../dd/dd8/classengine_1_1state_managing_1_1_game_element_manager.html#ad49f94c118b947e6ac565560bf3ca14f" target="_top" xlink:title="engine.stateManaging.Game\lElementManager.selectSingleUnit">
<polygon fill="white" stroke="black" points="619,-792.151 619,-822.151 797,-822.151 797,-792.151 619,-792.151"/>
<text text-anchor="start" x="627" y="-810.151" font-family="Helvetica,sans-Serif" font-size="10.00">engine.stateManaging.Game</text>
<text text-anchor="middle" x="708" y="-799.151" font-family="Helvetica,sans-Serif" font-size="10.00">ElementManager.selectSingleUnit</text>
</a>
</g>
</g>
<!-- Node3&#45;&gt;Node6 -->
<g id="edge5" class="edge"><title>Node3&#45;&gt;Node6</title>
<path fill="none" stroke="midnightblue" d="M493.753,-841.299C533.449,-834.942 579.584,-827.554 618.768,-821.28"/>
<polygon fill="midnightblue" stroke="midnightblue" points="493.129,-837.854 483.808,-842.891 494.236,-844.766 493.129,-837.854"/>
</g>
<!-- Node9 -->
<g id="node9" class="node"><title>Node9</title>
<g id="a_node9"><a xlink:href="../../dd/dd8/classengine_1_1state_managing_1_1_game_element_manager.html#af2b27c63c8557bc1b84990cd1e266f9f" target="_top" xlink:title="engine.stateManaging.Game\lElementManager.setSelectedUnit\lCommand">
<polygon fill="white" stroke="black" points="619.5,-889.651 619.5,-930.651 796.5,-930.651 796.5,-889.651 619.5,-889.651"/>
<text text-anchor="start" x="627.5" y="-918.651" font-family="Helvetica,sans-Serif" font-size="10.00">engine.stateManaging.Game</text>
<text text-anchor="start" x="627.5" y="-907.651" font-family="Helvetica,sans-Serif" font-size="10.00">ElementManager.setSelectedUnit</text>
<text text-anchor="middle" x="708" y="-896.651" font-family="Helvetica,sans-Serif" font-size="10.00">Command</text>
</a>
</g>
</g>
<!-- Node3&#45;&gt;Node9 -->
<g id="edge8" class="edge"><title>Node3&#45;&gt;Node9</title>
<path fill="none" stroke="midnightblue" d="M493.796,-872.527C533.665,-879.563 580.022,-887.743 619.308,-894.676"/>
<polygon fill="midnightblue" stroke="midnightblue" points="494.264,-869.056 483.808,-870.764 493.048,-875.949 494.264,-869.056"/>
</g>
<!-- Node5 -->
<g id="node5" class="node"><title>Node5</title>
<g id="a_node5"><a xlink:href="../../de/db7/classengine_1_1_u_i_1_1_runner_input_manager.html#ac0304dd515c690c7cff4f732c3dd956a" target="_top" xlink:title="engine.UI.RunnerInputManager.primary\lClickReleaseOccurred">
<polygon fill="white" stroke="black" points="886.5,-841.151 886.5,-871.151 1089.5,-871.151 1089.5,-841.151 886.5,-841.151"/>
<text text-anchor="start" x="894.5" y="-859.151" font-family="Helvetica,sans-Serif" font-size="10.00">engine.UI.RunnerInputManager.primary</text>
<text text-anchor="middle" x="988" y="-848.151" font-family="Helvetica,sans-Serif" font-size="10.00">ClickReleaseOccurred</text>
</a>
</g>
</g>
<!-- Node4&#45;&gt;Node5 -->
<g id="edge4" class="edge"><title>Node4&#45;&gt;Node5</title>
<path fill="none" stroke="midnightblue" d="M817.02,-856.151C839.754,-856.151 863.653,-856.151 886.114,-856.151"/>
<polygon fill="midnightblue" stroke="midnightblue" points="817.012,-852.651 807.012,-856.151 817.012,-859.651 817.012,-852.651"/>
</g>
<!-- Node7 -->
<g id="node7" class="node"><title>Node7</title>
<g id="a_node7"><a xlink:href="../../d6/d14/classengine_1_1_u_i_1_1_editor_input_manager.html#a3bf1a3596ba0f8e5f8586a9522da7397" target="_top" xlink:title="engine.UI.EditorInputManager.primary\lClickOccurred">
<polygon fill="white" stroke="black" points="889.5,-743.151 889.5,-773.151 1086.5,-773.151 1086.5,-743.151 889.5,-743.151"/>
<text text-anchor="start" x="897.5" y="-761.151" font-family="Helvetica,sans-Serif" font-size="10.00">engine.UI.EditorInputManager.primary</text>
<text text-anchor="middle" x="988" y="-750.151" font-family="Helvetica,sans-Serif" font-size="10.00">ClickOccurred</text>
</a>
</g>
</g>
<!-- Node6&#45;&gt;Node7 -->
<g id="edge6" class="edge"><title>Node6&#45;&gt;Node7</title>
<path fill="none" stroke="midnightblue" d="M804.442,-790.329C836.075,-784.753 871.057,-778.587 901.863,-773.157"/>
<polygon fill="midnightblue" stroke="midnightblue" points="803.539,-786.934 794.298,-792.117 804.754,-793.828 803.539,-786.934"/>
</g>
<!-- Node8 -->
<g id="node8" class="node"><title>Node8</title>
<g id="a_node8"><a xlink:href="../../de/db7/classengine_1_1_u_i_1_1_runner_input_manager.html#a185ddda1d575d743ea889c24a32f8ff4" target="_top" xlink:title="engine.UI.RunnerInputManager.primary\lClickOccurred">
<polygon fill="white" stroke="black" points="886.5,-792.151 886.5,-822.151 1089.5,-822.151 1089.5,-792.151 886.5,-792.151"/>
<text text-anchor="start" x="894.5" y="-810.151" font-family="Helvetica,sans-Serif" font-size="10.00">engine.UI.RunnerInputManager.primary</text>
<text text-anchor="middle" x="988" y="-799.151" font-family="Helvetica,sans-Serif" font-size="10.00">ClickOccurred</text>
</a>
</g>
</g>
<!-- Node6&#45;&gt;Node8 -->
<g id="edge7" class="edge"><title>Node6&#45;&gt;Node8</title>
<path fill="none" stroke="midnightblue" d="M807.417,-807.151C833.003,-807.151 860.6,-807.151 886.302,-807.151"/>
<polygon fill="midnightblue" stroke="midnightblue" points="807.343,-803.651 797.343,-807.151 807.343,-810.651 807.343,-803.651"/>
</g>
<!-- Node10 -->
<g id="node10" class="node"><title>Node10</title>
<g id="a_node10"><a xlink:href="../../de/db7/classengine_1_1_u_i_1_1_runner_input_manager.html#a4709ebdf2608218227aab4d9af9ca2ca" target="_top" xlink:title="engine.UI.RunnerInputManager.secondary\lClickOccurred">
<polygon fill="white" stroke="black" points="880.5,-895.151 880.5,-925.151 1095.5,-925.151 1095.5,-895.151 880.5,-895.151"/>
<text text-anchor="start" x="888.5" y="-913.151" font-family="Helvetica,sans-Serif" font-size="10.00">engine.UI.RunnerInputManager.secondary</text>
<text text-anchor="middle" x="988" y="-902.151" font-family="Helvetica,sans-Serif" font-size="10.00">ClickOccurred</text>
</a>
</g>
</g>
<!-- Node9&#45;&gt;Node10 -->
<g id="edge9" class="edge"><title>Node9&#45;&gt;Node10</title>
<path fill="none" stroke="midnightblue" d="M806.674,-910.151C830.505,-910.151 856.118,-910.151 880.343,-910.151"/>
<polygon fill="midnightblue" stroke="midnightblue" points="806.579,-906.651 796.579,-910.151 806.579,-913.651 806.579,-906.651"/>
</g>
<!-- Node22&#45;&gt;Node16 -->
<g id="edge22" class="edge"><title>Node22&#45;&gt;Node16</title>
<path fill="none" stroke="midnightblue" d="M498.18,-545.115C510.933,-542.599 523.802,-539.917 536,-537.151 576.326,-528.009 621.48,-515.775 655.258,-506.223"/>
<polygon fill="midnightblue" stroke="midnightblue" points="497.14,-541.752 487.993,-547.097 498.477,-548.623 497.14,-541.752"/>
</g>
<!-- Node24&#45;&gt;Node19 -->
<g id="edge25" class="edge"><title>Node24&#45;&gt;Node19</title>
<path fill="none" stroke="midnightblue" d="M522.467,-204.602C552.545,-209.418 584.323,-214.507 612.874,-219.079"/>
<polygon fill="midnightblue" stroke="midnightblue" points="522.766,-201.105 512.339,-202.98 521.659,-208.017 522.766,-201.105"/>
</g>
<!-- Node26 -->
<g id="node26" class="node"><title>Node26</title>
<g id="a_node26"><a xlink:href="../../d2/de9/classengine_1_1visuals_1_1_mini_map.html#aaf0c6d66cb481c4cb5507bf38acbd68b" target="_top" xlink:title="engine.visuals.MiniMap.move\lUnits">
<polygon fill="white" stroke="black" points="630,-69.1512 630,-99.1512 786,-99.1512 786,-69.1512 630,-69.1512"/>
<text text-anchor="start" x="638" y="-87.1512" font-family="Helvetica,sans-Serif" font-size="10.00">engine.visuals.MiniMap.move</text>
<text text-anchor="middle" x="708" y="-76.1512" font-family="Helvetica,sans-Serif" font-size="10.00">Units</text>
</a>
</g>
</g>
<!-- Node25&#45;&gt;Node26 -->
<g id="edge27" class="edge"><title>Node25&#45;&gt;Node26</title>
<path fill="none" stroke="midnightblue" d="M482.53,-82.6841C528.24,-82.9828 584.927,-83.3533 629.898,-83.6472"/>
<polygon fill="midnightblue" stroke="midnightblue" points="482.38,-79.1831 472.357,-82.6176 482.334,-86.183 482.38,-79.1831"/>
</g>
<!-- Node27 -->
<g id="node27" class="node"><title>Node27</title>
<g id="a_node27"><a xlink:href="../../d2/de9/classengine_1_1visuals_1_1_mini_map.html#aa9c49ec7b002d6b193e07a42771b9a1d" target="_top" xlink:title="engine.visuals.MiniMap.update\lMiniMap">
<polygon fill="white" stroke="black" points="906.5,-69.1512 906.5,-99.1512 1069.5,-99.1512 1069.5,-69.1512 906.5,-69.1512"/>
<text text-anchor="start" x="914.5" y="-87.1512" font-family="Helvetica,sans-Serif" font-size="10.00">engine.visuals.MiniMap.update</text>
<text text-anchor="middle" x="988" y="-76.1512" font-family="Helvetica,sans-Serif" font-size="10.00">MiniMap</text>
</a>
</g>
</g>
<!-- Node26&#45;&gt;Node27 -->
<g id="edge28" class="edge"><title>Node26&#45;&gt;Node27</title>
<path fill="none" stroke="midnightblue" d="M796.333,-84.1512C831.534,-84.1512 871.891,-84.1512 906.385,-84.1512"/>
<polygon fill="midnightblue" stroke="midnightblue" points="796.069,-80.6513 786.069,-84.1512 796.069,-87.6513 796.069,-80.6513"/>
</g>
<!-- Node28 -->
<g id="node28" class="node"><title>Node28</title>
<g id="a_node28"><a xlink:href="../../d3/d61/classengine_1_1visuals_1_1_visual_manager.html#a5bd2adc4f3bb17dd5ed51909689d8f91" target="_top" xlink:title="engine.visuals.VisualManager.update">
<polygon fill="white" stroke="black" points="1132,-74.6512 1132,-93.6512 1326,-93.6512 1326,-74.6512 1132,-74.6512"/>
<text text-anchor="middle" x="1229" y="-81.6512" font-family="Helvetica,sans-Serif" font-size="10.00">engine.visuals.VisualManager.update</text>
</a>
</g>
</g>
<!-- Node27&#45;&gt;Node28 -->
<g id="edge29" class="edge"><title>Node27&#45;&gt;Node28</title>
<path fill="none" stroke="midnightblue" d="M1079.98,-84.1512C1096.88,-84.1512 1114.58,-84.1512 1131.63,-84.1512"/>
<polygon fill="midnightblue" stroke="midnightblue" points="1079.58,-80.6513 1069.58,-84.1512 1079.58,-87.6513 1079.58,-80.6513"/>
</g>
<!-- Node28&#45;&gt;Node29 -->
<g id="edge30" class="edge"><title>Node28&#45;&gt;Node29</title>
<path fill="none" stroke="midnightblue" d="M1283.18,-72.4456C1309.77,-66.5948 1342.24,-59.4469 1370.65,-53.1939"/>
<polygon fill="midnightblue" stroke="midnightblue" points="1282.32,-69.0522 1273.3,-74.62 1283.82,-75.8886 1282.32,-69.0522"/>
</g>
<!-- Node30 -->
<g id="node30" class="node"><title>Node30</title>
<g id="a_node30"><a xlink:href="../../d2/d87/classengine_1_1state_managing_1_1_game_loop.html#a6b4981af45d656d6bfffa3a6ad9b0b9d" target="_top" xlink:title="engine.stateManaging.Game\lLoop.updateEditor">
<polygon fill="white" stroke="black" points="1362.5,-72.1512 1362.5,-102.151 1517.5,-102.151 1517.5,-72.1512 1362.5,-72.1512"/>
<text text-anchor="start" x="1370.5" y="-90.1512" font-family="Helvetica,sans-Serif" font-size="10.00">engine.stateManaging.Game</text>
<text text-anchor="middle" x="1440" y="-79.1512" font-family="Helvetica,sans-Serif" font-size="10.00">Loop.updateEditor</text>
</a>
</g>
</g>
<!-- Node28&#45;&gt;Node30 -->
<g id="edge31" class="edge"><title>Node28&#45;&gt;Node30</title>
<path fill="none" stroke="midnightblue" d="M1336.48,-85.6796C1345.2,-85.8048 1353.91,-85.9297 1362.35,-86.051"/>
<polygon fill="midnightblue" stroke="midnightblue" points="1336.29,-82.1766 1326.24,-85.5326 1336.19,-89.1759 1336.29,-82.1766"/>
</g>
<!-- Node31&#45;&gt;Node26 -->
<g id="edge33" class="edge"><title>Node31&#45;&gt;Node26</title>
<path fill="none" stroke="midnightblue" d="M482.242,-118.673C528.002,-111.644 584.832,-102.915 629.898,-95.9937"/>
<polygon fill="midnightblue" stroke="midnightblue" points="481.71,-115.213 472.357,-120.191 482.773,-122.132 481.71,-115.213"/>
</g>
</g>
</svg>
