<?xml version="1.0" encoding="UTF-8" standalone="no"?>
<!DOCTYPE svg PUBLIC "-//W3C//DTD SVG 1.1//EN"
 "http://www.w3.org/Graphics/SVG/1.1/DTD/svg11.dtd">
<!-- Generated by graphviz version 2.36.0 (20140111.2315)
 -->
<!-- Title: engine.gameRepresentation.renderedRepresentation.GameElement.updateSelfDueToInternalFactors Pages: 1 -->
<svg width="756pt" height="48pt"
 viewBox="0.00 0.00 756.00 48.00" xmlns="http://www.w3.org/2000/svg" xmlns:xlink="http://www.w3.org/1999/xlink">
<g id="graph0" class="graph" transform="scale(1 1) rotate(0) translate(4 44)">
<title>engine.gameRepresentation.renderedRepresentation.GameElement.updateSelfDueToInternalFactors</title>
<polygon fill="white" stroke="none" points="-4,4 -4,-44 752,-44 752,4 -4,4"/>
<!-- Node1 -->
<g id="node1" class="node"><title>Node1</title>
<polygon fill="#bfbfbf" stroke="black" points="0.5,0.5 0.5,-40.5 215.5,-40.5 215.5,0.5 0.5,0.5"/>
<text text-anchor="start" x="8.5" y="-28.5" font-family="Helvetica,sans-Serif" font-size="10.00">engine.gameRepresentation.rendered</text>
<text text-anchor="start" x="8.5" y="-17.5" font-family="Helvetica,sans-Serif" font-size="10.00">Representation.GameElement.updateSelf</text>
<text text-anchor="middle" x="108" y="-6.5" font-family="Helvetica,sans-Serif" font-size="10.00">DueToInternalFactors</text>
</g>
<!-- Node2 -->
<g id="node2" class="node"><title>Node2</title>
<g id="a_node2"><a xlink:href="../../d4/de2/classengine_1_1game_representation_1_1rendered_representation_1_1_game_element.html#aca36032ddc11c84e73d3b131dbaf19fa" target="_top" xlink:title="engine.gameRepresentation.rendered\lRepresentation.GameElement.executeAll\lActions">
<polygon fill="white" stroke="black" points="252.5,0.5 252.5,-40.5 465.5,-40.5 465.5,0.5 252.5,0.5"/>
<text text-anchor="start" x="260.5" y="-28.5" font-family="Helvetica,sans-Serif" font-size="10.00">engine.gameRepresentation.rendered</text>
<text text-anchor="start" x="260.5" y="-17.5" font-family="Helvetica,sans-Serif" font-size="10.00">Representation.GameElement.executeAll</text>
<text text-anchor="middle" x="359" y="-6.5" font-family="Helvetica,sans-Serif" font-size="10.00">Actions</text>
</a>
</g>
</g>
<!-- Node1&#45;&gt;Node2 -->
<g id="edge1" class="edge"><title>Node1&#45;&gt;Node2</title>
<path fill="none" stroke="midnightblue" d="M215.682,-20C224.41,-20 233.258,-20 242.049,-20"/>
<polygon fill="midnightblue" stroke="midnightblue" points="242.331,-23.5001 252.331,-20 242.331,-16.5001 242.331,-23.5001"/>
</g>
<!-- Node3 -->
<g id="node3" class="node"><title>Node3</title>
<g id="a_node3"><a xlink:href="../../d4/de2/classengine_1_1game_representation_1_1rendered_representation_1_1_game_element.html#a6a9b0abdfedbd0aa9953ba3c57060f2c" target="_top" xlink:title="engine.gameRepresentation.rendered\lRepresentation.GameElement.getActionsOfType">
<polygon fill="white" stroke="black" points="502,-5 502,-35 748,-35 748,-5 502,-5"/>
<text text-anchor="start" x="510" y="-23" font-family="Helvetica,sans-Serif" font-size="10.00">engine.gameRepresentation.rendered</text>
<text text-anchor="middle" x="625" y="-12" font-family="Helvetica,sans-Serif" font-size="10.00">Representation.GameElement.getActionsOfType</text>
</a>
</g>
</g>
<!-- Node2&#45;&gt;Node3 -->
<g id="edge2" class="edge"><title>Node2&#45;&gt;Node3</title>
<path fill="none" stroke="midnightblue" d="M465.858,-20C474.312,-20 482.916,-20 491.522,-20"/>
<polygon fill="midnightblue" stroke="midnightblue" points="491.618,-23.5001 501.618,-20 491.618,-16.5001 491.618,-23.5001"/>
</g>
</g>
</svg>
