<?xml version="1.0" encoding="UTF-8" standalone="no"?>
<!DOCTYPE svg PUBLIC "-//W3C//DTD SVG 1.1//EN"
 "http://www.w3.org/Graphics/SVG/1.1/DTD/svg11.dtd">
<!-- Generated by graphviz version 2.36.0 (20140111.2315)
 -->
<!-- Title: engine.gameRepresentation.renderedRepresentation.GameElement.getState Pages: 1 -->
<svg width="890pt" height="87pt"
 viewBox="0.00 0.00 890.00 87.00" xmlns="http://www.w3.org/2000/svg" xmlns:xlink="http://www.w3.org/1999/xlink">
<g id="graph0" class="graph" transform="scale(1 1) rotate(0) translate(4 83)">
<title>engine.gameRepresentation.renderedRepresentation.GameElement.getState</title>
<polygon fill="white" stroke="none" points="-4,4 -4,-83 886,-83 886,4 -4,4"/>
<!-- Node1 -->
<g id="node1" class="node"><title>Node1</title>
<polygon fill="#bfbfbf" stroke="black" points="0,-24 0,-54 206,-54 206,-24 0,-24"/>
<text text-anchor="start" x="8" y="-42" font-family="Helvetica,sans-Serif" font-size="10.00">engine.gameRepresentation.rendered</text>
<text text-anchor="middle" x="103" y="-31" font-family="Helvetica,sans-Serif" font-size="10.00">Representation.GameElement.getState</text>
</g>
<!-- Node2 -->
<g id="node2" class="node"><title>Node2</title>
<g id="a_node2"><a xlink:href="../../db/d6f/classengine_1_1game_representation_1_1rendered_representation_1_1_level.html#a9bd2160251994143432ae9b66d59aecd" target="_top" xlink:title="engine.gameRepresentation.rendered\lRepresentation.Level.removeElement">
<polygon fill="white" stroke="black" points="242,-24 242,-54 440,-54 440,-24 242,-24"/>
<text text-anchor="start" x="250" y="-42" font-family="Helvetica,sans-Serif" font-size="10.00">engine.gameRepresentation.rendered</text>
<text text-anchor="middle" x="341" y="-31" font-family="Helvetica,sans-Serif" font-size="10.00">Representation.Level.removeElement</text>
</a>
</g>
</g>
<!-- Node1&#45;&gt;Node2 -->
<g id="edge1" class="edge"><title>Node1&#45;&gt;Node2</title>
<path fill="none" stroke="midnightblue" d="M216.166,-39C224.732,-39 233.339,-39 241.806,-39"/>
<polygon fill="midnightblue" stroke="midnightblue" points="216.14,-35.5001 206.14,-39 216.14,-42.5001 216.14,-35.5001"/>
</g>
<!-- Node3 -->
<g id="node3" class="node"><title>Node3</title>
<g id="a_node3"><a xlink:href="../../dd/dd8/classengine_1_1state_managing_1_1_game_element_manager.html#abc1308396958c2dbedea9e5c7cc4c618" target="_top" xlink:title="engine.stateManaging.Game\lElementManager.deleteSelectedUnit">
<polygon fill="white" stroke="black" points="476,-49 476,-79 668,-79 668,-49 476,-49"/>
<text text-anchor="start" x="484" y="-67" font-family="Helvetica,sans-Serif" font-size="10.00">engine.stateManaging.Game</text>
<text text-anchor="middle" x="572" y="-56" font-family="Helvetica,sans-Serif" font-size="10.00">ElementManager.deleteSelectedUnit</text>
</a>
</g>
</g>
<!-- Node2&#45;&gt;Node3 -->
<g id="edge2" class="edge"><title>Node2&#45;&gt;Node3</title>
<path fill="none" stroke="midnightblue" d="M450.196,-50.8118C458.815,-51.7527 467.481,-52.6988 475.998,-53.6286"/>
<polygon fill="midnightblue" stroke="midnightblue" points="450.434,-47.3171 440.113,-49.711 449.674,-54.2757 450.434,-47.3171"/>
</g>
<!-- Node5 -->
<g id="node5" class="node"><title>Node5</title>
<g id="a_node5"><a xlink:href="../../d2/d87/classengine_1_1state_managing_1_1_game_loop.html#ab3cf1b000f90849c5389fbd90b147602" target="_top" xlink:title="engine.stateManaging.Game\lLoop.updateRunner">
<polygon fill="white" stroke="black" points="494.5,-0 494.5,-30 649.5,-30 649.5,-0 494.5,-0"/>
<text text-anchor="start" x="502.5" y="-18" font-family="Helvetica,sans-Serif" font-size="10.00">engine.stateManaging.Game</text>
<text text-anchor="middle" x="572" y="-7" font-family="Helvetica,sans-Serif" font-size="10.00">Loop.updateRunner</text>
</a>
</g>
</g>
<!-- Node2&#45;&gt;Node5 -->
<g id="edge4" class="edge"><title>Node2&#45;&gt;Node5</title>
<path fill="none" stroke="midnightblue" d="M450.334,-27.6462C465.147,-26.0937 480.098,-24.5268 494.192,-23.0497"/>
<polygon fill="midnightblue" stroke="midnightblue" points="449.694,-24.194 440.113,-28.7174 450.424,-31.1559 449.694,-24.194"/>
</g>
<!-- Node4 -->
<g id="node4" class="node"><title>Node4</title>
<g id="a_node4"><a xlink:href="../../d6/d14/classengine_1_1_u_i_1_1_editor_input_manager.html#a175b132a024bf966837697783ad87e30" target="_top" xlink:title="engine.UI.EditorInputManager.key\lPressed">
<polygon fill="white" stroke="black" points="704.5,-49 704.5,-79 881.5,-79 881.5,-49 704.5,-49"/>
<text text-anchor="start" x="712.5" y="-67" font-family="Helvetica,sans-Serif" font-size="10.00">engine.UI.EditorInputManager.key</text>
<text text-anchor="middle" x="793" y="-56" font-family="Helvetica,sans-Serif" font-size="10.00">Pressed</text>
</a>
</g>
</g>
<!-- Node3&#45;&gt;Node4 -->
<g id="edge3" class="edge"><title>Node3&#45;&gt;Node4</title>
<path fill="none" stroke="midnightblue" d="M678.273,-64C686.963,-64 695.689,-64 704.231,-64"/>
<polygon fill="midnightblue" stroke="midnightblue" points="678.101,-60.5001 668.101,-64 678.101,-67.5001 678.101,-60.5001"/>
</g>
</g>
</svg>
