<?xml version="1.0" encoding="UTF-8" standalone="no"?>
<!DOCTYPE svg PUBLIC "-//W3C//DTD SVG 1.1//EN"
 "http://www.w3.org/Graphics/SVG/1.1/DTD/svg11.dtd">
<!-- Generated by graphviz version 2.36.0 (20140111.2315)
 -->
<!-- Title: engine.gameRepresentation.renderedRepresentation.GameElement.getTimer Pages: 1 -->
<!--zoomable 234 -->
<svg id="main" version="1.1" xmlns="http://www.w3.org/2000/svg" xmlns:xlink="http://www.w3.org/1999/xlink" xml:space="preserve" onload="init(evt)">
<style type="text/css"><![CDATA[
.edge:hover path { stroke: red; }
.edge:hover polygon { stroke: red; fill: red; }
]]></style>
<script type="text/javascript"><![CDATA[
var edges = document.getElementsByTagName('g');
if (edges && edges.length) {
  for (var i=0;i<edges.length;i++) {
    if (edges[i].id.substr(0,4)=='edge') {
      edges[i].setAttribute('class','edge');
    }
  }
}
]]></script>
        <defs>
                <circle id="rim" cx="0" cy="0" r="7"/>
                <circle id="rim2" cx="0" cy="0" r="3.5"/>
                <g id="zoomPlus">
                        <use xlink:href="#rim" fill="#404040">
                                <set attributeName="fill" to="#808080" begin="zoomplus.mouseover" end="zoomplus.mouseout"/>
                        </use>
                        <path d="M-4,0h8M0,-4v8" fill="none" stroke="white" stroke-width="1.5" pointer-events="none"/>
                </g>
                <g id="zoomMin">
                        <use xlink:href="#rim" fill="#404040">
                                <set attributeName="fill" to="#808080" begin="zoomminus.mouseover" end="zoomminus.mouseout"/>
                        </use>
                        <path d="M-4,0h8" fill="none" stroke="white" stroke-width="1.5" pointer-events="none"/>
                </g>
                <g id="dirArrow">
                        <path fill="none" stroke="white" stroke-width="1.5" d="M0,-3.0v7 M-2.5,-0.5L0,-3.0L2.5,-0.5"/>
                </g>
               <g id="resetDef">
                       <use xlink:href="#rim2" fill="#404040">
                               <set attributeName="fill" to="#808080" begin="reset.mouseover" end="reset.mouseout"/>
                       </use>
               </g>
        </defs>

<script type="text/javascript">
var viewWidth = 522;
var viewHeight = 234;
var sectionId = 'dynsection-14';
</script>
<script xlink:href="../../svgpan.js"/>
<svg id="graph" class="graph">
<g id="viewport">
<title>engine.gameRepresentation.renderedRepresentation.GameElement.getTimer</title>
<polygon fill="white" stroke="none" points="-4,4 -4,-230 518,-230 518,4 -4,4"/>
<!-- Node1 -->
<g id="node1" class="node"><title>Node1</title>
<polygon fill="#bfbfbf" stroke="black" points="0,-98 0,-128 206,-128 206,-98 0,-98"/>
<text text-anchor="start" x="8" y="-116" font-family="Helvetica,sans-Serif" font-size="10.00">engine.gameRepresentation.rendered</text>
<text text-anchor="middle" x="103" y="-105" font-family="Helvetica,sans-Serif" font-size="10.00">Representation.GameElement.getTimer</text>
</g>
<!-- Node2 -->
<g id="node2" class="node"><title>Node2</title>
<g id="a_node2"><a xlink:href="../../d1/d1f/classengine_1_1game_representation_1_1evaluatables_1_1evaluators_1_1_attack.html#a0cdc63bdbcc444c2186340ce24bd3c3d" target="_top" xlink:title="engine.gameRepresentation.evaluatables.evaluators.\lAttack.evaluate">
<polygon fill="white" stroke="black" points="242,-196 242,-226 514,-226 514,-196 242,-196"/>
<text text-anchor="start" x="250" y="-214" font-family="Helvetica,sans-Serif" font-size="10.00">engine.gameRepresentation.evaluatables.evaluators.</text>
<text text-anchor="middle" x="378" y="-203" font-family="Helvetica,sans-Serif" font-size="10.00">Attack.evaluate</text>
</a>
</g>
</g>
<!-- Node1&#45;&gt;Node2 -->
<g id="edge1" class="edge"><title>Node1&#45;&gt;Node2</title>
<path fill="none" stroke="midnightblue" d="M136.105,-133.596C163.29,-150.134 203.822,-172.716 242,-186 253.031,-189.838 264.785,-193.123 276.581,-195.925"/>
<polygon fill="midnightblue" stroke="midnightblue" points="137.769,-130.51 127.42,-128.241 134.095,-136.469 137.769,-130.51"/>
</g>
<!-- Node3 -->
<g id="node3" class="node"><title>Node3</title>
<g id="a_node3"><a xlink:href="../../d8/dcd/classengine_1_1game_representation_1_1evaluatables_1_1actions_1_1_attribute_incrementer_action.html#a4718e7d85bdc5522781701e466d8f00c" target="_top" xlink:title="engine.gameRepresentation.evaluatables.actions.\lAttributeIncrementerAction.evaluate">
<polygon fill="white" stroke="black" points="250,-147 250,-177 506,-177 506,-147 250,-147"/>
<text text-anchor="start" x="258" y="-165" font-family="Helvetica,sans-Serif" font-size="10.00">engine.gameRepresentation.evaluatables.actions.</text>
<text text-anchor="middle" x="378" y="-154" font-family="Helvetica,sans-Serif" font-size="10.00">AttributeIncrementerAction.evaluate</text>
</a>
</g>
</g>
<!-- Node1&#45;&gt;Node3 -->
<g id="edge2" class="edge"><title>Node1&#45;&gt;Node3</title>
<path fill="none" stroke="midnightblue" d="M197.725,-129.822C228.79,-135.398 263.142,-141.564 293.394,-146.994"/>
<polygon fill="midnightblue" stroke="midnightblue" points="198.225,-126.356 187.764,-128.035 196.989,-133.246 198.225,-126.356"/>
</g>
<!-- Node4 -->
<g id="node4" class="node"><title>Node4</title>
<g id="a_node4"><a xlink:href="../../df/d07/classengine_1_1game_representation_1_1evaluatables_1_1actions_1_1_check_attribute_create_object_action.html#a7748525bf0dd7b5ddc38f978020dd2aa" target="_top" xlink:title="engine.gameRepresentation.evaluatables.actions.\lCheckAttributeCreateObjectAction.evaluate">
<polygon fill="white" stroke="black" points="250,-98 250,-128 506,-128 506,-98 250,-98"/>
<text text-anchor="start" x="258" y="-116" font-family="Helvetica,sans-Serif" font-size="10.00">engine.gameRepresentation.evaluatables.actions.</text>
<text text-anchor="middle" x="378" y="-105" font-family="Helvetica,sans-Serif" font-size="10.00">CheckAttributeCreateObjectAction.evaluate</text>
</a>
</g>
</g>
<!-- Node1&#45;&gt;Node4 -->
<g id="edge3" class="edge"><title>Node1&#45;&gt;Node4</title>
<path fill="none" stroke="midnightblue" d="M216.133,-113C227.196,-113 238.48,-113 249.681,-113"/>
<polygon fill="midnightblue" stroke="midnightblue" points="216.043,-109.5 206.043,-113 216.043,-116.5 216.043,-109.5"/>
</g>
<!-- Node5 -->
<g id="node5" class="node"><title>Node5</title>
<g id="a_node5"><a xlink:href="../../d7/df2/classengine_1_1game_representation_1_1evaluatables_1_1actions_1_1_decrement_increment_attribute_action.html#a2510a6f161e229de02e546ea79a62386" target="_top" xlink:title="engine.gameRepresentation.evaluatables.actions.\lDecrementIncrementAttributeAction.evaluate">
<polygon fill="white" stroke="black" points="250,-49 250,-79 506,-79 506,-49 250,-49"/>
<text text-anchor="start" x="258" y="-67" font-family="Helvetica,sans-Serif" font-size="10.00">engine.gameRepresentation.evaluatables.actions.</text>
<text text-anchor="middle" x="378" y="-56" font-family="Helvetica,sans-Serif" font-size="10.00">DecrementIncrementAttributeAction.evaluate</text>
</a>
</g>
</g>
<!-- Node1&#45;&gt;Node5 -->
<g id="edge4" class="edge"><title>Node1&#45;&gt;Node5</title>
<path fill="none" stroke="midnightblue" d="M197.725,-96.1775C228.79,-90.6018 263.142,-84.436 293.394,-79.0062"/>
<polygon fill="midnightblue" stroke="midnightblue" points="196.989,-92.7537 187.764,-97.9654 198.225,-99.6436 196.989,-92.7537"/>
</g>
<!-- Node6 -->
<g id="node6" class="node"><title>Node6</title>
<g id="a_node6"><a xlink:href="../../d8/d98/classengine_1_1game_representation_1_1evaluatables_1_1actions_1_1_mother_of_all_actions.html#a488e8c7f50249f5caabac492108d1ca0" target="_top" xlink:title="engine.gameRepresentation.evaluatables.actions.\lMotherOfAllActions.evaluate">
<polygon fill="white" stroke="black" points="250,-0 250,-30 506,-30 506,-0 250,-0"/>
<text text-anchor="start" x="258" y="-18" font-family="Helvetica,sans-Serif" font-size="10.00">engine.gameRepresentation.evaluatables.actions.</text>
<text text-anchor="middle" x="378" y="-7" font-family="Helvetica,sans-Serif" font-size="10.00">MotherOfAllActions.evaluate</text>
</a>
</g>
</g>
<!-- Node1&#45;&gt;Node6 -->
<g id="edge5" class="edge"><title>Node1&#45;&gt;Node6</title>
<path fill="none" stroke="midnightblue" d="M136.105,-92.4039C163.29,-75.8659 203.822,-53.2837 242,-40 253.031,-36.1619 264.785,-32.8771 276.581,-30.0745"/>
<polygon fill="midnightblue" stroke="midnightblue" points="134.095,-89.5312 127.42,-97.7586 137.769,-95.4897 134.095,-89.5312"/>
</g>
</g>
</svg>
        <g id="navigator" transform="translate(0 0)" fill="#404254">
                <rect fill="#f2f5e9" fill-opacity="0.5" stroke="#606060" stroke-width=".5" x="0" y="0" width="60" height="60"/>
                <use id="zoomplus" xlink:href="#zoomPlus" x="17" y="9" onmousedown="handleZoom(evt,'in')"/>
                <use id="zoomminus" xlink:href="#zoomMin" x="42" y="9" onmousedown="handleZoom(evt,'out')"/>
                <use id="reset" xlink:href="#resetDef" x="30" y="36" onmousedown="handleReset()"/>
                <g id="arrowUp" xlink:href="#dirArrow" transform="translate(30 24)" onmousedown="handlePan(0,-1)">
                  <use xlink:href="#rim" fill="#404040">
                        <set attributeName="fill" to="#808080" begin="arrowUp.mouseover" end="arrowUp.mouseout"/>
                  </use>
                  <path fill="none" stroke="white" stroke-width="1.5" d="M0,-3.0v7 M-2.5,-0.5L0,-3.0L2.5,-0.5"/>
                </g>
                <g id="arrowRight" xlink:href="#dirArrow" transform="rotate(90) translate(36 -43)" onmousedown="handlePan(1,0)">
                  <use xlink:href="#rim" fill="#404040">
                        <set attributeName="fill" to="#808080" begin="arrowRight.mouseover" end="arrowRight.mouseout"/>
                  </use>
                  <path fill="none" stroke="white" stroke-width="1.5" d="M0,-3.0v7 M-2.5,-0.5L0,-3.0L2.5,-0.5"/>
                </g>
                <g id="arrowDown" xlink:href="#dirArrow" transform="rotate(180) translate(-30 -48)" onmousedown="handlePan(0,1)">
                  <use xlink:href="#rim" fill="#404040">
                        <set attributeName="fill" to="#808080" begin="arrowDown.mouseover" end="arrowDown.mouseout"/>
                  </use>
                  <path fill="none" stroke="white" stroke-width="1.5" d="M0,-3.0v7 M-2.5,-0.5L0,-3.0L2.5,-0.5"/>
                </g>
                <g id="arrowLeft" xlink:href="#dirArrow" transform="rotate(270) translate(-36 17)" onmousedown="handlePan(-1,0)">
                  <use xlink:href="#rim" fill="#404040">
                        <set attributeName="fill" to="#808080" begin="arrowLeft.mouseover" end="arrowLeft.mouseout"/>
                  </use>
                  <path fill="none" stroke="white" stroke-width="1.5" d="M0,-3.0v7 M-2.5,-0.5L0,-3.0L2.5,-0.5"/>
                </g>
        </g>
        <svg viewBox="0 0 15 15" width="100%" height="30px" preserveAspectRatio="xMaxYMin meet">
         <g id="arrow_out" transform="scale(0.3 0.3)">
          <a xlink:href="classengine_1_1game_representation_1_1rendered_representation_1_1_game_element_a47e759a32242cc483aa1e0be7ae7a2a6_icgraph_org.svg" target="_base">
           <rect id="button" ry="5" rx="5" y="6" x="6" height="38" width="38"
                fill="#f2f5e9" fill-opacity="0.5" stroke="#606060" stroke-width="1.0"/>
           <path id="arrow"
             d="M 11.500037,31.436501 C 11.940474,20.09759 22.043105,11.32322 32.158766,21.979434 L 37.068811,17.246167 C 37.068811,17.246167 37.088388,32 37.088388,32 L 22.160133,31.978069 C 22.160133,31.978069 26.997745,27.140456 26.997745,27.140456 C 18.528582,18.264221 13.291696,25.230495 11.500037,31.436501 z"
             style="fill:#404040;"/>
          </a>
         </g>
        </svg>
</svg>
