<?xml version="1.0" encoding="UTF-8" standalone="no"?>
<!DOCTYPE svg PUBLIC "-//W3C//DTD SVG 1.1//EN"
 "http://www.w3.org/Graphics/SVG/1.1/DTD/svg11.dtd">
<!-- Generated by graphviz version 2.36.0 (20140111.2315)
 -->
<!-- Title: view.editor.wizards.WidgetWizard Pages: 1 -->
<svg width="148pt" height="152pt"
 viewBox="0.00 0.00 148.00 152.00" xmlns="http://www.w3.org/2000/svg" xmlns:xlink="http://www.w3.org/1999/xlink">
<g id="graph0" class="graph" transform="scale(1 1) rotate(0) translate(4 148)">
<title>view.editor.wizards.WidgetWizard</title>
<polygon fill="white" stroke="none" points="-4,4 -4,-148 144,-148 144,4 -4,4"/>
<!-- Node1 -->
<g id="node1" class="node"><title>Node1</title>
<polygon fill="#bfbfbf" stroke="black" points="0,-1 0,-31 140,-31 140,-1 0,-1"/>
<text text-anchor="start" x="8" y="-19" font-family="Helvetica,sans-Serif" font-size="10.00">view.editor.wizards.Widget</text>
<text text-anchor="middle" x="70" y="-8" font-family="Helvetica,sans-Serif" font-size="10.00">Wizard</text>
</g>
<!-- Node2 -->
<g id="node2" class="node"><title>Node2</title>
<g id="a_node2"><a xlink:href="../../d7/d40/classview_1_1editor_1_1wizards_1_1_wizard.html" target="_top" xlink:title="view.editor.wizards.Wizard">
<polygon fill="white" stroke="black" points="0.5,-68.5 0.5,-87.5 139.5,-87.5 139.5,-68.5 0.5,-68.5"/>
<text text-anchor="middle" x="70" y="-75.5" font-family="Helvetica,sans-Serif" font-size="10.00">view.editor.wizards.Wizard</text>
</a>
</g>
</g>
<!-- Node2&#45;&gt;Node1 -->
<g id="edge1" class="edge"><title>Node2&#45;&gt;Node1</title>
<path fill="none" stroke="midnightblue" d="M70,-58.3707C70,-49.5849 70,-39.2721 70,-31.1408"/>
<polygon fill="midnightblue" stroke="midnightblue" points="66.5001,-58.4034 70,-68.4035 73.5001,-58.4035 66.5001,-58.4034"/>
</g>
<!-- Node3 -->
<g id="node3" class="node"><title>Node3</title>
<g id="a_node3"><a xlink:href="../../d5/d13/interfaceview_1_1gui_1_1_g_u_i_controller.html" target="_top" xlink:title="view.gui.GUIController">
<polygon fill="white" stroke="black" points="10,-124.5 10,-143.5 130,-143.5 130,-124.5 10,-124.5"/>
<text text-anchor="middle" x="70" y="-131.5" font-family="Helvetica,sans-Serif" font-size="10.00">view.gui.GUIController</text>
</a>
</g>
</g>
<!-- Node3&#45;&gt;Node2 -->
<g id="edge2" class="edge"><title>Node3&#45;&gt;Node2</title>
<path fill="none" stroke="midnightblue" d="M70,-113.805C70,-104.91 70,-94.7798 70,-87.7511"/>
<polygon fill="midnightblue" stroke="midnightblue" points="66.5001,-114.083 70,-124.083 73.5001,-114.083 66.5001,-114.083"/>
</g>
</g>
</svg>
