<?xml version="1.0" encoding="UTF-8" standalone="no"?>
<!DOCTYPE svg PUBLIC "-//W3C//DTD SVG 1.1//EN"
 "http://www.w3.org/Graphics/SVG/1.1/DTD/svg11.dtd">
<!-- Generated by graphviz version 2.36.0 (20140111.2315)
 -->
<!-- Title: view.gui.StackPaneGUIScreen Pages: 1 -->
<!--zoomable 499 -->
<svg id="main" version="1.1" xmlns="http://www.w3.org/2000/svg" xmlns:xlink="http://www.w3.org/1999/xlink" xml:space="preserve" onload="init(evt)">
<style type="text/css"><![CDATA[
.edge:hover path { stroke: red; }
.edge:hover polygon { stroke: red; fill: red; }
]]></style>
<script type="text/javascript"><![CDATA[
var edges = document.getElementsByTagName('g');
if (edges && edges.length) {
  for (var i=0;i<edges.length;i++) {
    if (edges[i].id.substr(0,4)=='edge') {
      edges[i].setAttribute('class','edge');
    }
  }
}
]]></script>
        <defs>
                <circle id="rim" cx="0" cy="0" r="7"/>
                <circle id="rim2" cx="0" cy="0" r="3.5"/>
                <g id="zoomPlus">
                        <use xlink:href="#rim" fill="#404040">
                                <set attributeName="fill" to="#808080" begin="zoomplus.mouseover" end="zoomplus.mouseout"/>
                        </use>
                        <path d="M-4,0h8M0,-4v8" fill="none" stroke="white" stroke-width="1.5" pointer-events="none"/>
                </g>
                <g id="zoomMin">
                        <use xlink:href="#rim" fill="#404040">
                                <set attributeName="fill" to="#808080" begin="zoomminus.mouseover" end="zoomminus.mouseout"/>
                        </use>
                        <path d="M-4,0h8" fill="none" stroke="white" stroke-width="1.5" pointer-events="none"/>
                </g>
                <g id="dirArrow">
                        <path fill="none" stroke="white" stroke-width="1.5" d="M0,-3.0v7 M-2.5,-0.5L0,-3.0L2.5,-0.5"/>
                </g>
               <g id="resetDef">
                       <use xlink:href="#rim2" fill="#404040">
                               <set attributeName="fill" to="#808080" begin="reset.mouseover" end="reset.mouseout"/>
                       </use>
               </g>
        </defs>

<script type="text/javascript">
var viewWidth = 1988;
var viewHeight = 499;
var sectionId = 'dynsection-1';
</script>
<script xlink:href="../../svgpan.js"/>
<svg id="graph" class="graph">
<g id="viewport">
<title>view.gui.StackPaneGUIScreen</title>
<polygon fill="white" stroke="none" points="-4,4 -4,-494.702 1984,-494.702 1984,4 -4,4"/>
<!-- Node1 -->
<g id="node1" class="node"><title>Node1</title>
<polygon fill="#bfbfbf" stroke="black" points="1822,-65.2017 1822,-84.2017 1980,-84.2017 1980,-65.2017 1822,-65.2017"/>
<text text-anchor="middle" x="1901" y="-72.2017" font-family="Helvetica,sans-Serif" font-size="10.00">view.gui.StackPaneGUIScreen</text>
</g>
<!-- Node2 -->
<g id="node2" class="node"><title>Node2</title>
<g id="a_node2"><a xlink:href="../../d2/d02/classview_1_1gui_1_1_g_u_i_screen.html" target="_top" xlink:title="view.gui.GUIScreen">
<polygon fill="white" stroke="black" points="1562.5,-162.202 1562.5,-181.202 1669.5,-181.202 1669.5,-162.202 1562.5,-162.202"/>
<text text-anchor="middle" x="1616" y="-169.202" font-family="Helvetica,sans-Serif" font-size="10.00">view.gui.GUIScreen</text>
</a>
</g>
</g>
<!-- Node2&#45;&gt;Node1 -->
<g id="edge1" class="edge"><title>Node2&#45;&gt;Node1</title>
<path fill="none" stroke="midnightblue" d="M1669.92,-159.855C1716.22,-149.228 1779.73,-133.926 1804,-124.702 1833.51,-113.486 1865.63,-95.4575 1884.23,-84.3885"/>
<polygon fill="midnightblue" stroke="midnightblue" points="1669,-156.475 1660.04,-162.115 1670.56,-163.299 1669,-156.475"/>
</g>
<!-- Node29 -->
<g id="node29" class="node"><title>Node29</title>
<g id="a_node29"><a xlink:href="../../d1/d75/classview_1_1_main_view.html" target="_top" xlink:title="view.MainView">
<polygon fill="white" stroke="black" points="1859.5,-240.202 1859.5,-259.202 1942.5,-259.202 1942.5,-240.202 1859.5,-240.202"/>
<text text-anchor="middle" x="1901" y="-247.202" font-family="Helvetica,sans-Serif" font-size="10.00">view.MainView</text>
</a>
</g>
</g>
<!-- Node2&#45;&gt;Node29 -->
<g id="edge32" class="edge"><title>Node2&#45;&gt;Node29</title>
<path fill="none" stroke="#9a32cd" stroke-dasharray="5,2" d="M1678.44,-160.967C1715.81,-156.947 1763.91,-156.329 1804,-170.702 1843.01,-184.689 1877.51,-222.133 1892.31,-239.981"/>
<polygon fill="#9a32cd" stroke="#9a32cd" points="1677.71,-157.529 1668.19,-162.182 1678.53,-164.48 1677.71,-157.529"/>
<text text-anchor="middle" x="1752" y="-173.702" font-family="Helvetica,sans-Serif" font-size="10.00"> myCurrentController</text>
</g>
<!-- Node3 -->
<g id="node3" class="node"><title>Node3</title>
<g id="a_node3"><a xlink:href="../../d0/d1c/classview_1_1gui_1_1_g_u_i_container.html" target="_top" xlink:title="view.gui.GUIContainer">
<polygon fill="white" stroke="black" points="1324,-162.202 1324,-181.202 1444,-181.202 1444,-162.202 1324,-162.202"/>
<text text-anchor="middle" x="1384" y="-169.202" font-family="Helvetica,sans-Serif" font-size="10.00">view.gui.GUIContainer</text>
</a>
</g>
</g>
<!-- Node3&#45;&gt;Node2 -->
<g id="edge2" class="edge"><title>Node3&#45;&gt;Node2</title>
<path fill="none" stroke="midnightblue" d="M1454.28,-171.702C1488.94,-171.702 1530.21,-171.702 1562.25,-171.702"/>
<polygon fill="midnightblue" stroke="midnightblue" points="1454.23,-168.202 1444.23,-171.702 1454.23,-175.202 1454.23,-168.202"/>
</g>
<!-- Node4 -->
<g id="node4" class="node"><title>Node4</title>
<polygon fill="white" stroke="#bfbfbf" points="752.5,-143.202 752.5,-162.202 823.5,-162.202 823.5,-143.202 752.5,-143.202"/>
<text text-anchor="middle" x="788" y="-150.202" font-family="Helvetica,sans-Serif" font-size="10.00">Observable</text>
</g>
<!-- Node4&#45;&gt;Node3 -->
<g id="edge3" class="edge"><title>Node4&#45;&gt;Node3</title>
<path fill="none" stroke="midnightblue" d="M834.132,-153.254C908.949,-154.27 1063.38,-156.796 1194,-161.702 1237.51,-163.336 1286.61,-165.957 1323.86,-168.106"/>
<polygon fill="midnightblue" stroke="midnightblue" points="833.729,-149.748 823.683,-153.114 833.635,-156.747 833.729,-149.748"/>
</g>
<!-- Node7 -->
<g id="node7" class="node"><title>Node7</title>
<g id="a_node7"><a xlink:href="../../de/d21/classmodel_1_1_main_model.html" target="_top" xlink:title="model.MainModel">
<polygon fill="white" stroke="black" points="1063.5,-215.202 1063.5,-234.202 1164.5,-234.202 1164.5,-215.202 1063.5,-215.202"/>
<text text-anchor="middle" x="1114" y="-222.202" font-family="Helvetica,sans-Serif" font-size="10.00">model.MainModel</text>
</a>
</g>
</g>
<!-- Node4&#45;&gt;Node7 -->
<g id="edge7" class="edge"><title>Node4&#45;&gt;Node7</title>
<path fill="none" stroke="midnightblue" d="M833.525,-162.423C879.307,-172.439 952.659,-188.543 1016,-202.702 1034.03,-206.732 1053.94,-211.237 1071,-215.115"/>
<polygon fill="midnightblue" stroke="midnightblue" points="834.144,-158.976 823.627,-160.259 832.648,-165.814 834.144,-158.976"/>
</g>
<!-- Node5 -->
<g id="node5" class="node"><title>Node5</title>
<polygon fill="white" stroke="#bfbfbf" points="1084,-262.202 1084,-281.202 1144,-281.202 1144,-262.202 1084,-262.202"/>
<text text-anchor="middle" x="1114" y="-269.202" font-family="Helvetica,sans-Serif" font-size="10.00">Observer</text>
</g>
<!-- Node5&#45;&gt;Node3 -->
<g id="edge4" class="edge"><title>Node5&#45;&gt;Node3</title>
<path fill="none" stroke="midnightblue" d="M1154.04,-264.558C1193.45,-256.548 1255.55,-241.727 1306,-219.702 1330.11,-209.176 1355.53,-191.957 1370.29,-181.256"/>
<polygon fill="midnightblue" stroke="midnightblue" points="1153.17,-261.162 1144.04,-266.542 1154.53,-268.028 1153.17,-261.162"/>
</g>
<!-- Node5&#45;&gt;Node29 -->
<g id="edge30" class="edge"><title>Node5&#45;&gt;Node29</title>
<path fill="none" stroke="midnightblue" d="M1154.54,-270.594C1288.37,-266.843 1723.55,-254.647 1859.23,-250.844"/>
<polygon fill="midnightblue" stroke="midnightblue" points="1154.24,-267.101 1144.34,-270.879 1154.43,-274.098 1154.24,-267.101"/>
</g>
<!-- Node6 -->
<g id="node6" class="node"><title>Node6</title>
<g id="a_node6"><a xlink:href="../../d5/d13/interfaceview_1_1gui_1_1_g_u_i_controller.html" target="_top" xlink:title="view.gui.GUIController">
<polygon fill="white" stroke="black" points="1054,-171.202 1054,-190.202 1174,-190.202 1174,-171.202 1054,-171.202"/>
<text text-anchor="middle" x="1114" y="-178.202" font-family="Helvetica,sans-Serif" font-size="10.00">view.gui.GUIController</text>
</a>
</g>
</g>
<!-- Node6&#45;&gt;Node3 -->
<g id="edge5" class="edge"><title>Node6&#45;&gt;Node3</title>
<path fill="none" stroke="midnightblue" d="M1184.28,-178.375C1227.44,-176.926 1282.37,-175.081 1323.54,-173.698"/>
<polygon fill="midnightblue" stroke="midnightblue" points="1184.02,-174.882 1174.15,-178.716 1184.26,-181.878 1184.02,-174.882"/>
</g>
<!-- Node7&#45;&gt;Node3 -->
<g id="edge6" class="edge"><title>Node7&#45;&gt;Node3</title>
<path fill="none" stroke="#9a32cd" stroke-dasharray="5,2" d="M1173.22,-213.189C1221.52,-203.637 1289.39,-190.214 1334.71,-181.251"/>
<polygon fill="#9a32cd" stroke="#9a32cd" points="1172.35,-209.792 1163.22,-215.165 1173.71,-216.659 1172.35,-209.792"/>
<text text-anchor="middle" x="1259" y="-207.702" font-family="Helvetica,sans-Serif" font-size="10.00"> myMainModel</text>
</g>
<!-- Node7&#45;&gt;Node29 -->
<g id="edge37" class="edge"><title>Node7&#45;&gt;Node29</title>
<path fill="none" stroke="#9a32cd" stroke-dasharray="5,2" d="M1174.84,-226.607C1327.74,-231.477 1729.8,-244.281 1859.23,-248.403"/>
<polygon fill="#9a32cd" stroke="#9a32cd" points="1174.81,-223.105 1164.7,-226.285 1174.58,-230.101 1174.81,-223.105"/>
<text text-anchor="middle" x="1497" y="-241.702" font-family="Helvetica,sans-Serif" font-size="10.00"> myMainModel</text>
</g>
<!-- Node8 -->
<g id="node8" class="node"><title>Node8</title>
<g id="a_node8"><a xlink:href="../../d6/d8b/classmodel_1_1state_1_1_game_state.html" target="_top" xlink:title="model.state.GameState">
<polygon fill="white" stroke="black" points="721.5,-228.202 721.5,-247.202 854.5,-247.202 854.5,-228.202 721.5,-228.202"/>
<text text-anchor="middle" x="788" y="-235.202" font-family="Helvetica,sans-Serif" font-size="10.00">model.state.GameState</text>
</a>
</g>
</g>
<!-- Node8&#45;&gt;Node7 -->
<g id="edge8" class="edge"><title>Node8&#45;&gt;Node7</title>
<path fill="none" stroke="#9a32cd" stroke-dasharray="5,2" d="M864.573,-234.67C925.843,-232.211 1010.43,-228.817 1063.41,-226.692"/>
<polygon fill="#9a32cd" stroke="#9a32cd" points="864.418,-231.173 854.566,-235.071 864.699,-238.167 864.418,-231.173"/>
<text text-anchor="middle" x="953" y="-236.702" font-family="Helvetica,sans-Serif" font-size="10.00"> myGameState</text>
</g>
<!-- Node9 -->
<g id="node9" class="node"><title>Node9</title>
<g id="a_node9"><a xlink:href="../../dc/d74/classmodel_1_1state_1_1_describable_state.html" target="_top" xlink:title="model.state.DescribableState">
<polygon fill="white" stroke="black" points="389,-288.202 389,-307.202 549,-307.202 549,-288.202 389,-288.202"/>
<text text-anchor="middle" x="469" y="-295.202" font-family="Helvetica,sans-Serif" font-size="10.00">model.state.DescribableState</text>
</a>
</g>
</g>
<!-- Node9&#45;&gt;Node8 -->
<g id="edge9" class="edge"><title>Node9&#45;&gt;Node8</title>
<path fill="none" stroke="midnightblue" d="M530.288,-286.291C590.099,-274.97 680.704,-257.821 736.744,-247.214"/>
<polygon fill="midnightblue" stroke="midnightblue" points="529.404,-282.896 520.23,-288.195 530.706,-289.774 529.404,-282.896"/>
</g>
<!-- Node10 -->
<g id="node10" class="node"><title>Node10</title>
<g id="a_node10"><a xlink:href="../../df/d74/interfaceutil_1_1_j_s_o_nable.html" target="_top" xlink:title="util.JSONable">
<polygon fill="white" stroke="black" points="49,-326.202 49,-345.202 127,-345.202 127,-326.202 49,-326.202"/>
<text text-anchor="middle" x="88" y="-333.202" font-family="Helvetica,sans-Serif" font-size="10.00">util.JSONable</text>
</a>
</g>
</g>
<!-- Node10&#45;&gt;Node9 -->
<g id="edge10" class="edge"><title>Node10&#45;&gt;Node9</title>
<path fill="none" stroke="midnightblue" d="M137.469,-332.161C192.46,-327.983 284.795,-320.484 364,-311.702 375.86,-310.387 388.46,-308.828 400.644,-307.237"/>
<polygon fill="midnightblue" stroke="midnightblue" points="137.024,-328.684 127.315,-332.927 137.55,-335.664 137.024,-328.684"/>
</g>
<!-- Node11 -->
<g id="node11" class="node"><title>Node11</title>
<polygon fill="white" stroke="#bfbfbf" points="52.5,-288.202 52.5,-307.202 123.5,-307.202 123.5,-288.202 52.5,-288.202"/>
<text text-anchor="middle" x="88" y="-295.202" font-family="Helvetica,sans-Serif" font-size="10.00">Serializable</text>
</g>
<!-- Node11&#45;&gt;Node9 -->
<g id="edge11" class="edge"><title>Node11&#45;&gt;Node9</title>
<path fill="none" stroke="midnightblue" d="M133.983,-297.702C196.696,-297.702 311.377,-297.702 388.642,-297.702"/>
<polygon fill="midnightblue" stroke="midnightblue" points="133.638,-294.202 123.638,-297.702 133.638,-301.202 133.638,-294.202"/>
</g>
<!-- Node12 -->
<g id="node12" class="node"><title>Node12</title>
<polygon fill="white" stroke="#bfbfbf" points="392,-222.702 392,-252.702 546,-252.702 546,-222.702 392,-222.702"/>
<text text-anchor="start" x="400" y="-240.702" font-family="Helvetica,sans-Serif" font-size="10.00">List&lt; model.state.Campaign</text>
<text text-anchor="middle" x="469" y="-229.702" font-family="Helvetica,sans-Serif" font-size="10.00">State &gt;</text>
</g>
<!-- Node12&#45;&gt;Node8 -->
<g id="edge12" class="edge"><title>Node12&#45;&gt;Node8</title>
<path fill="none" stroke="#9a32cd" stroke-dasharray="5,2" d="M556.539,-237.702C608.485,-237.702 673.523,-237.702 721.251,-237.702"/>
<polygon fill="#9a32cd" stroke="#9a32cd" points="556.333,-234.202 546.333,-237.702 556.333,-241.202 556.333,-234.202"/>
<text text-anchor="middle" x="630" y="-240.702" font-family="Helvetica,sans-Serif" font-size="10.00"> myCampaigns</text>
</g>
<!-- Node13 -->
<g id="node13" class="node"><title>Node13</title>
<g id="a_node13"><a xlink:href="../../de/dda/classmodel_1_1_game_universe.html" target="_top" xlink:title="model.GameUniverse">
<polygon fill="white" stroke="black" points="408.5,-154.202 408.5,-173.202 529.5,-173.202 529.5,-154.202 408.5,-154.202"/>
<text text-anchor="middle" x="469" y="-161.202" font-family="Helvetica,sans-Serif" font-size="10.00">model.GameUniverse</text>
</a>
</g>
</g>
<!-- Node13&#45;&gt;Node8 -->
<g id="edge13" class="edge"><title>Node13&#45;&gt;Node8</title>
<path fill="none" stroke="#9a32cd" stroke-dasharray="5,2" d="M520.146,-175.577C567.515,-186.774 640.562,-203.986 704,-218.702 717.392,-221.808 732.008,-225.165 745.191,-228.181"/>
<polygon fill="#9a32cd" stroke="#9a32cd" points="520.684,-172.108 510.147,-173.213 519.074,-178.92 520.684,-172.108"/>
<text text-anchor="middle" x="630" y="-217.702" font-family="Helvetica,sans-Serif" font-size="10.00"> myGameUniverse</text>
</g>
<!-- Node14 -->
<g id="node14" class="node"><title>Node14</title>
<polygon fill="white" stroke="#bfbfbf" points="0,-140.702 0,-170.702 176,-170.702 176,-140.702 0,-140.702"/>
<text text-anchor="start" x="8" y="-158.702" font-family="Helvetica,sans-Serif" font-size="10.00">Set&lt; model.state.gameelement.</text>
<text text-anchor="middle" x="88" y="-147.702" font-family="Helvetica,sans-Serif" font-size="10.00">GameElementState &gt;</text>
</g>
<!-- Node14&#45;&gt;Node13 -->
<g id="edge14" class="edge"><title>Node14&#45;&gt;Node13</title>
<path fill="none" stroke="#9a32cd" stroke-dasharray="5,2" d="M186.606,-157.762C256.741,-159.242 349.032,-161.191 408.447,-162.445"/>
<polygon fill="#9a32cd" stroke="#9a32cd" points="186.498,-154.259 176.426,-157.547 186.35,-161.257 186.498,-154.259"/>
<text text-anchor="middle" x="279" y="-164.702" font-family="Helvetica,sans-Serif" font-size="10.00"> myGameElementStates</text>
</g>
<!-- Node15 -->
<g id="node15" class="node"><title>Node15</title>
<polygon fill="white" stroke="#bfbfbf" points="48.5,-102.202 48.5,-121.202 127.5,-121.202 127.5,-102.202 48.5,-102.202"/>
<text text-anchor="middle" x="88" y="-109.202" font-family="Helvetica,sans-Serif" font-size="10.00">Set&lt; Long &gt;</text>
</g>
<!-- Node15&#45;&gt;Node13 -->
<g id="edge15" class="edge"><title>Node15&#45;&gt;Node13</title>
<path fill="none" stroke="#9a32cd" stroke-dasharray="5,2" d="M138.015,-116.298C193.131,-121.723 285.231,-131.562 364,-143.702 383.171,-146.656 404.204,-150.572 422.308,-154.156"/>
<polygon fill="#9a32cd" stroke="#9a32cd" points="138.125,-112.792 127.833,-115.305 137.445,-119.759 138.125,-112.792"/>
<text text-anchor="middle" x="279" y="-146.702" font-family="Helvetica,sans-Serif" font-size="10.00"> myParticipantColors</text>
</g>
<!-- Node16 -->
<g id="node16" class="node"><title>Node16</title>
<polygon fill="white" stroke="#bfbfbf" points="0,-52.7017 0,-82.7017 176,-82.7017 176,-52.7017 0,-52.7017"/>
<text text-anchor="start" x="8" y="-70.7017" font-family="Helvetica,sans-Serif" font-size="10.00">Set&lt; model.state.gameelement.</text>
<text text-anchor="middle" x="88" y="-59.7017" font-family="Helvetica,sans-Serif" font-size="10.00">Attribute&lt; String &gt; &gt;</text>
</g>
<!-- Node16&#45;&gt;Node13 -->
<g id="edge16" class="edge"><title>Node16&#45;&gt;Node13</title>
<path fill="none" stroke="#9a32cd" stroke-dasharray="5,2" d="M186.24,-60.3315C243.045,-60.9248 313.295,-70.6365 364,-107.702 378.763,-118.494 367.64,-133.378 382,-144.702 389.684,-150.761 398.901,-154.979 408.405,-157.896"/>
<polygon fill="#9a32cd" stroke="#9a32cd" points="186.165,-56.8315 176.16,-60.3193 186.156,-63.8315 186.165,-56.8315"/>
<text text-anchor="middle" x="279" y="-110.702" font-family="Helvetica,sans-Serif" font-size="10.00"> myTextualAttributes</text>
</g>
<!-- Node17 -->
<g id="node17" class="node"><title>Node17</title>
<polygon fill="white" stroke="#bfbfbf" points="0,-3.70174 0,-33.7017 176,-33.7017 176,-3.70174 0,-3.70174"/>
<text text-anchor="start" x="8" y="-21.7017" font-family="Helvetica,sans-Serif" font-size="10.00">Set&lt; model.state.gameelement.</text>
<text text-anchor="middle" x="88" y="-10.7017" font-family="Helvetica,sans-Serif" font-size="10.00">SelectableGameElementState &gt;</text>
</g>
<!-- Node17&#45;&gt;Node13 -->
<g id="edge17" class="edge"><title>Node17&#45;&gt;Node13</title>
<path fill="none" stroke="#9a32cd" stroke-dasharray="5,2" d="M174.485,-2.51126C234.992,3.70244 313.969,0.386658 364,-45.7017 396.892,-76.002 350.977,-112.49 382,-144.702 389.107,-152.081 398.384,-156.899 408.209,-159.991"/>
<polygon fill="#9a32cd" stroke="#9a32cd" points="173.721,0.924639 164.178,-3.67891 174.509,-6.03087 173.721,0.924639"/>
<text text-anchor="middle" x="279" y="-48.7017" font-family="Helvetica,sans-Serif" font-size="10.00"> mySelectableGameElementStates</text>
</g>
<!-- Node18 -->
<g id="node18" class="node"><title>Node18</title>
<polygon fill="white" stroke="#bfbfbf" points="0,-238.702 0,-268.702 176,-268.702 176,-238.702 0,-238.702"/>
<text text-anchor="start" x="8" y="-256.702" font-family="Helvetica,sans-Serif" font-size="10.00">Set&lt; model.state.gameelement.</text>
<text text-anchor="middle" x="88" y="-245.702" font-family="Helvetica,sans-Serif" font-size="10.00">DrawableGameElementState &gt;</text>
</g>
<!-- Node18&#45;&gt;Node13 -->
<g id="edge18" class="edge"><title>Node18&#45;&gt;Node13</title>
<path fill="none" stroke="#9a32cd" stroke-dasharray="5,2" d="M186.173,-244.347C239.428,-237.684 306.177,-226.803 364,-209.702 395.428,-200.407 429.827,-183.825 450.129,-173.314"/>
<polygon fill="#9a32cd" stroke="#9a32cd" points="185.552,-240.897 176.05,-245.584 186.401,-247.845 185.552,-240.897"/>
<text text-anchor="middle" x="279" y="-246.702" font-family="Helvetica,sans-Serif" font-size="10.00"> myDrawableGameElementStates</text>
</g>
<!-- Node19 -->
<g id="node19" class="node"><title>Node19</title>
<polygon fill="white" stroke="#bfbfbf" points="0,-189.702 0,-219.702 176,-219.702 176,-189.702 0,-189.702"/>
<text text-anchor="start" x="8" y="-207.702" font-family="Helvetica,sans-Serif" font-size="10.00">Set&lt; model.state.gameelement.</text>
<text text-anchor="middle" x="88" y="-196.702" font-family="Helvetica,sans-Serif" font-size="10.00">Attribute&lt; Number &gt; &gt;</text>
</g>
<!-- Node19&#45;&gt;Node13 -->
<g id="edge19" class="edge"><title>Node19&#45;&gt;Node13</title>
<path fill="none" stroke="#9a32cd" stroke-dasharray="5,2" d="M186.072,-195.365C238.746,-190.161 304.98,-183.394 364,-176.702 378.374,-175.072 393.85,-173.201 408.357,-171.395"/>
<polygon fill="#9a32cd" stroke="#9a32cd" points="185.67,-191.887 176.062,-196.351 186.357,-198.854 185.67,-191.887"/>
<text text-anchor="middle" x="279" y="-197.702" font-family="Helvetica,sans-Serif" font-size="10.00"> myNumericalAttributes</text>
</g>
<!-- Node20 -->
<g id="node20" class="node"><title>Node20</title>
<polygon fill="white" stroke="#bfbfbf" points="386,-116.202 386,-135.202 552,-135.202 552,-116.202 386,-116.202"/>
<text text-anchor="middle" x="469" y="-123.202" font-family="Helvetica,sans-Serif" font-size="10.00">List&lt; model.state.HighScore &gt;</text>
</g>
<!-- Node20&#45;&gt;Node8 -->
<g id="edge20" class="edge"><title>Node20&#45;&gt;Node8</title>
<path fill="none" stroke="#9a32cd" stroke-dasharray="5,2" d="M523.821,-137.511C534.488,-139.875 545.601,-142.353 556,-144.702 613.84,-157.764 640.825,-136.292 686,-174.702 702.097,-188.388 687.891,-205.03 704,-218.702 709.072,-223.006 714.925,-226.385 721.128,-229.029"/>
<polygon fill="#9a32cd" stroke="#9a32cd" points="524.288,-134.03 513.768,-135.288 522.777,-140.865 524.288,-134.03"/>
<text text-anchor="middle" x="630" y="-177.702" font-family="Helvetica,sans-Serif" font-size="10.00"> myHighScores</text>
</g>
<!-- Node21 -->
<g id="node21" class="node"><title>Node21</title>
<g id="a_node21"><a xlink:href="../../de/d33/classmodel_1_1_game_save_load_mediator.html" target="_top" xlink:title="model.GameSaveLoadMediator">
<polygon fill="white" stroke="black" points="704,-190.202 704,-209.202 872,-209.202 872,-190.202 704,-190.202"/>
<text text-anchor="middle" x="788" y="-197.202" font-family="Helvetica,sans-Serif" font-size="10.00">model.GameSaveLoadMediator</text>
</a>
</g>
</g>
<!-- Node21&#45;&gt;Node7 -->
<g id="edge21" class="edge"><title>Node21&#45;&gt;Node7</title>
<path fill="none" stroke="#9a32cd" stroke-dasharray="5,2" d="M882.07,-205.078C923.153,-207.651 972.007,-210.982 1016,-214.702 1031.35,-216 1048.05,-217.639 1063.19,-219.212"/>
<polygon fill="#9a32cd" stroke="#9a32cd" points="882.271,-201.584 872.073,-204.457 881.837,-208.57 882.271,-201.584"/>
<text text-anchor="middle" x="953" y="-217.702" font-family="Helvetica,sans-Serif" font-size="10.00"> mySaveLoadMediator</text>
</g>
<!-- Node22 -->
<g id="node22" class="node"><title>Node22</title>
<g id="a_node22"><a xlink:href="../../de/d01/classmodel_1_1sprite_1_1_sprite_image_generator.html" target="_top" xlink:title="model.sprite.SpriteImage\lGenerator">
<polygon fill="white" stroke="black" points="719,-377.702 719,-407.702 857,-407.702 857,-377.702 719,-377.702"/>
<text text-anchor="start" x="727" y="-395.702" font-family="Helvetica,sans-Serif" font-size="10.00">model.sprite.SpriteImage</text>
<text text-anchor="middle" x="788" y="-384.702" font-family="Helvetica,sans-Serif" font-size="10.00">Generator</text>
</a>
</g>
</g>
<!-- Node22&#45;&gt;Node7 -->
<g id="edge22" class="edge"><title>Node22&#45;&gt;Node7</title>
<path fill="none" stroke="#9a32cd" stroke-dasharray="5,2" d="M820.839,-372.044C866.665,-342.889 954.468,-289.165 1034,-252.702 1049.48,-245.606 1067.31,-239.148 1082.11,-234.227"/>
<polygon fill="#9a32cd" stroke="#9a32cd" points="818.789,-369.201 812.248,-377.535 822.559,-375.099 818.789,-369.201"/>
<text text-anchor="middle" x="953" y="-331.702" font-family="Helvetica,sans-Serif" font-size="10.00"> mySpriteImageGenerator</text>
</g>
<!-- Node23 -->
<g id="node23" class="node"><title>Node23</title>
<polygon fill="white" stroke="#bfbfbf" points="422.5,-471.202 422.5,-490.202 515.5,-490.202 515.5,-471.202 422.5,-471.202"/>
<text text-anchor="middle" x="469" y="-478.202" font-family="Helvetica,sans-Serif" font-size="10.00">ResourceBundle</text>
</g>
<!-- Node23&#45;&gt;Node22 -->
<g id="edge23" class="edge"><title>Node23&#45;&gt;Node22</title>
<path fill="none" stroke="#9a32cd" stroke-dasharray="5,2" d="M525.838,-473.534C569.992,-466.99 632.835,-455.715 686,-438.702 711.324,-430.598 738.695,-417.864 758.547,-407.846"/>
<polygon fill="#9a32cd" stroke="#9a32cd" points="525.268,-470.08 515.874,-474.978 526.272,-477.008 525.268,-470.08"/>
<text text-anchor="middle" x="630" y="-468.702" font-family="Helvetica,sans-Serif" font-size="10.00"> myBundle</text>
</g>
<!-- Node24 -->
<g id="node24" class="node"><title>Node24</title>
<polygon fill="white" stroke="#bfbfbf" points="396,-421.702 396,-451.702 542,-451.702 542,-421.702 396,-421.702"/>
<text text-anchor="start" x="404" y="-439.702" font-family="Helvetica,sans-Serif" font-size="10.00">Map&lt; String, model.sprite.</text>
<text text-anchor="middle" x="469" y="-428.702" font-family="Helvetica,sans-Serif" font-size="10.00">SpriteImageContainer &gt;</text>
</g>
<!-- Node24&#45;&gt;Node22 -->
<g id="edge24" class="edge"><title>Node24&#45;&gt;Node22</title>
<path fill="none" stroke="#9a32cd" stroke-dasharray="5,2" d="M552.092,-425.955C592.447,-420.602 641.793,-413.952 686,-407.702 696.619,-406.2 707.86,-404.571 718.836,-402.958"/>
<polygon fill="#9a32cd" stroke="#9a32cd" points="551.489,-422.504 542.035,-427.287 552.408,-429.443 551.489,-422.504"/>
<text text-anchor="middle" x="630" y="-426.702" font-family="Helvetica,sans-Serif" font-size="10.00"> myCachedContainer</text>
</g>
<!-- Node25 -->
<g id="node25" class="node"><title>Node25</title>
<g id="a_node25"><a xlink:href="../../d9/d0f/classutil_1_1_resource_bundle_retriever.html" target="_top" xlink:title="util.ResourceBundleRetriever">
<polygon fill="white" stroke="black" points="393,-383.202 393,-402.202 545,-402.202 545,-383.202 393,-383.202"/>
<text text-anchor="middle" x="469" y="-390.202" font-family="Helvetica,sans-Serif" font-size="10.00">util.ResourceBundleRetriever</text>
</a>
</g>
</g>
<!-- Node25&#45;&gt;Node22 -->
<g id="edge25" class="edge"><title>Node25&#45;&gt;Node22</title>
<path fill="none" stroke="#9a32cd" stroke-dasharray="5,2" d="M555.204,-392.702C606.523,-392.702 670.988,-392.702 718.898,-392.702"/>
<polygon fill="#9a32cd" stroke="#9a32cd" points="555.125,-389.202 545.125,-392.702 555.125,-396.202 555.125,-389.202"/>
<text text-anchor="middle" x="630" y="-395.702" font-family="Helvetica,sans-Serif" font-size="10.00"> myBundleRetriever</text>
</g>
<!-- Node26 -->
<g id="node26" class="node"><title>Node26</title>
<g id="a_node26"><a xlink:href="../../d2/ddc/classmodel_1_1sprite_1_1_color_map_generator.html" target="_top" xlink:title="model.sprite.ColorMapGenerator">
<polygon fill="white" stroke="black" points="382.5,-345.202 382.5,-364.202 555.5,-364.202 555.5,-345.202 382.5,-345.202"/>
<text text-anchor="middle" x="469" y="-352.202" font-family="Helvetica,sans-Serif" font-size="10.00">model.sprite.ColorMapGenerator</text>
</a>
</g>
</g>
<!-- Node26&#45;&gt;Node22 -->
<g id="edge26" class="edge"><title>Node26&#45;&gt;Node22</title>
<path fill="none" stroke="#9a32cd" stroke-dasharray="5,2" d="M565.917,-364.055C603.417,-367.937 646.762,-372.701 686,-377.702 696.639,-379.058 707.89,-380.61 718.87,-382.191"/>
<polygon fill="#9a32cd" stroke="#9a32cd" points="565.809,-360.526 555.504,-362.984 565.093,-367.489 565.809,-360.526"/>
<text text-anchor="middle" x="630" y="-380.702" font-family="Helvetica,sans-Serif" font-size="10.00"> myColorMapGenerator</text>
</g>
<!-- Node27 -->
<g id="node27" class="node"><title>Node27</title>
<polygon fill="white" stroke="#bfbfbf" points="29.5,-364.202 29.5,-383.202 146.5,-383.202 146.5,-364.202 29.5,-364.202"/>
<text text-anchor="middle" x="88" y="-371.202" font-family="Helvetica,sans-Serif" font-size="10.00">Map&lt; String, Paint &gt;</text>
</g>
<!-- Node27&#45;&gt;Node26 -->
<g id="edge27" class="edge"><title>Node27&#45;&gt;Node26</title>
<path fill="none" stroke="#9a32cd" stroke-dasharray="5,2" d="M156.798,-370.303C219.884,-367.14 314.162,-362.414 382.41,-358.993"/>
<polygon fill="#9a32cd" stroke="#9a32cd" points="156.374,-366.82 146.562,-370.816 156.725,-373.811 156.374,-366.82"/>
<text text-anchor="middle" x="279" y="-371.702" font-family="Helvetica,sans-Serif" font-size="10.00"> myColorMap</text>
</g>
<!-- Node28 -->
<g id="node28" class="node"><title>Node28</title>
<polygon fill="white" stroke="#bfbfbf" points="1034.5,-95.2017 1034.5,-114.202 1193.5,-114.202 1193.5,-95.2017 1034.5,-95.2017"/>
<text text-anchor="middle" x="1114" y="-102.202" font-family="Helvetica,sans-Serif" font-size="10.00">List&lt; view.gui.GUIContainer &gt;</text>
</g>
<!-- Node28&#45;&gt;Node3 -->
<g id="edge28" class="edge"><title>Node28&#45;&gt;Node3</title>
<path fill="none" stroke="#9a32cd" stroke-dasharray="5,2" d="M1203.67,-100.86C1236.6,-101.972 1273.77,-106.308 1306,-117.702 1333.09,-127.279 1359.33,-149.211 1373.08,-161.983"/>
<polygon fill="#9a32cd" stroke="#9a32cd" points="1203.68,-97.3597 1193.6,-100.615 1203.51,-104.358 1203.68,-97.3597"/>
<text text-anchor="middle" x="1259" y="-120.702" font-family="Helvetica,sans-Serif" font-size="10.00"> myChildContainers</text>
</g>
<!-- Node29&#45;&gt;Node2 -->
<g id="edge29" class="edge"><title>Node29&#45;&gt;Node2</title>
<path fill="none" stroke="#9a32cd" stroke-dasharray="5,2" d="M1872.93,-235.501C1854.05,-226.123 1828.05,-214.221 1804,-206.702 1779.57,-199.062 1716.17,-187.843 1669.95,-180.179"/>
<polygon fill="#9a32cd" stroke="#9a32cd" points="1871.59,-238.749 1882.1,-240.138 1874.75,-232.502 1871.59,-238.749"/>
<text text-anchor="middle" x="1752" y="-209.702" font-family="Helvetica,sans-Serif" font-size="10.00"> myMainView</text>
</g>
<!-- Node30 -->
<g id="node30" class="node"><title>Node30</title>
<polygon fill="white" stroke="#bfbfbf" points="1593.5,-103.202 1593.5,-122.202 1638.5,-122.202 1638.5,-103.202 1593.5,-103.202"/>
<text text-anchor="middle" x="1616" y="-110.202" font-family="Helvetica,sans-Serif" font-size="10.00">Stage</text>
</g>
<!-- Node30&#45;&gt;Node29 -->
<g id="edge31" class="edge"><title>Node30&#45;&gt;Node29</title>
<path fill="none" stroke="#9a32cd" stroke-dasharray="5,2" d="M1648.87,-111.769C1687.82,-111.972 1754.62,-116.755 1804,-143.702 1847.59,-167.49 1881.66,-218.806 1894.49,-240.119"/>
<polygon fill="#9a32cd" stroke="#9a32cd" points="1648.64,-108.27 1638.66,-111.819 1648.68,-115.27 1648.64,-108.27"/>
<text text-anchor="middle" x="1752" y="-146.702" font-family="Helvetica,sans-Serif" font-size="10.00"> myStage</text>
</g>
<!-- Node31 -->
<g id="node31" class="node"><title>Node31</title>
<g id="a_node31"><a xlink:href="../../de/d50/classview_1_1_g_u_i_load_style_utility.html" target="_top" xlink:title="view.GUILoadStyleUtility">
<polygon fill="white" stroke="black" points="1550.5,-379.202 1550.5,-398.202 1681.5,-398.202 1681.5,-379.202 1550.5,-379.202"/>
<text text-anchor="middle" x="1616" y="-386.202" font-family="Helvetica,sans-Serif" font-size="10.00">view.GUILoadStyleUtility</text>
</a>
</g>
</g>
<!-- Node31&#45;&gt;Node29 -->
<g id="edge33" class="edge"><title>Node31&#45;&gt;Node29</title>
<path fill="none" stroke="#9a32cd" stroke-dasharray="5,2" d="M1691.99,-389.874C1727.8,-387.53 1770.12,-380.332 1804,-361.702 1849.33,-336.774 1882.9,-281.452 1895.04,-259.222"/>
<polygon fill="#9a32cd" stroke="#9a32cd" points="1691.39,-386.402 1681.59,-390.433 1691.76,-393.391 1691.39,-386.402"/>
<text text-anchor="middle" x="1752" y="-392.702" font-family="Helvetica,sans-Serif" font-size="10.00"> myLoadStyleUtility</text>
</g>
<!-- Node31&#45;&gt;Node31 -->
<g id="edge36" class="edge"><title>Node31&#45;&gt;Node31</title>
<path fill="none" stroke="#9a32cd" stroke-dasharray="5,2" d="M1594.05,-407.731C1595.25,-412.83 1602.56,-416.702 1616,-416.702 1636.97,-416.702 1643.04,-407.267 1634.19,-398.459"/>
<polygon fill="#9a32cd" stroke="#9a32cd" points="1597.3,-409.041 1597.81,-398.459 1590.81,-406.409 1597.3,-409.041"/>
<text text-anchor="middle" x="1616" y="-419.702" font-family="Helvetica,sans-Serif" font-size="10.00"> myOnlyInstance</text>
</g>
<!-- Node32 -->
<g id="node32" class="node"><title>Node32</title>
<polygon fill="white" stroke="#bfbfbf" points="1341,-360.202 1341,-379.202 1427,-379.202 1427,-360.202 1341,-360.202"/>
<text text-anchor="middle" x="1384" y="-367.202" font-family="Helvetica,sans-Serif" font-size="10.00">List&lt; Scene &gt;</text>
</g>
<!-- Node32&#45;&gt;Node31 -->
<g id="edge34" class="edge"><title>Node32&#45;&gt;Node31</title>
<path fill="none" stroke="#9a32cd" stroke-dasharray="5,2" d="M1437.26,-369.791C1465.39,-370.264 1500.66,-371.54 1532,-374.702 1542.76,-375.787 1554.23,-377.415 1565.11,-379.181"/>
<polygon fill="#9a32cd" stroke="#9a32cd" points="1437.29,-366.291 1427.24,-369.651 1437.19,-373.291 1437.29,-366.291"/>
<text text-anchor="middle" x="1497" y="-377.702" font-family="Helvetica,sans-Serif" font-size="10.00"> myScenes</text>
</g>
<!-- Node33 -->
<g id="node33" class="node"><title>Node33</title>
<polygon fill="white" stroke="#bfbfbf" points="1342,-398.202 1342,-417.202 1426,-417.202 1426,-398.202 1342,-398.202"/>
<text text-anchor="middle" x="1384" y="-405.202" font-family="Helvetica,sans-Serif" font-size="10.00">List&lt; String &gt;</text>
</g>
<!-- Node33&#45;&gt;Node31 -->
<g id="edge35" class="edge"><title>Node33&#45;&gt;Node31</title>
<path fill="none" stroke="#9a32cd" stroke-dasharray="5,2" d="M1436.21,-403.472C1469.88,-400.69 1514.24,-397.026 1550.34,-394.043"/>
<polygon fill="#9a32cd" stroke="#9a32cd" points="1435.8,-399.993 1426.12,-404.305 1436.37,-406.97 1435.8,-399.993"/>
<text text-anchor="middle" x="1497" y="-404.702" font-family="Helvetica,sans-Serif" font-size="10.00"> myCSSFiles</text>
</g>
<!-- Node34 -->
<g id="node34" class="node"><title>Node34</title>
<polygon fill="white" stroke="#bfbfbf" points="1592.5,-341.202 1592.5,-360.202 1639.5,-360.202 1639.5,-341.202 1592.5,-341.202"/>
<text text-anchor="middle" x="1616" y="-348.202" font-family="Helvetica,sans-Serif" font-size="10.00">Scene</text>
</g>
<!-- Node34&#45;&gt;Node29 -->
<g id="edge38" class="edge"><title>Node34&#45;&gt;Node29</title>
<path fill="none" stroke="#9a32cd" stroke-dasharray="5,2" d="M1649.63,-350.389C1688,-348.966 1752.94,-343.21 1804,-321.702 1839.9,-306.578 1874.58,-275.131 1890.66,-259.278"/>
<polygon fill="#9a32cd" stroke="#9a32cd" points="1649.43,-346.893 1639.54,-350.685 1649.64,-353.89 1649.43,-346.893"/>
<text text-anchor="middle" x="1752" y="-349.702" font-family="Helvetica,sans-Serif" font-size="10.00"> myScene</text>
</g>
<!-- Node35 -->
<g id="node35" class="node"><title>Node35</title>
<polygon fill="white" stroke="#bfbfbf" points="1582,-303.202 1582,-322.202 1650,-322.202 1650,-303.202 1582,-303.202"/>
<text text-anchor="middle" x="1616" y="-310.202" font-family="Helvetica,sans-Serif" font-size="10.00">Dimension</text>
</g>
<!-- Node35&#45;&gt;Node29 -->
<g id="edge39" class="edge"><title>Node35&#45;&gt;Node29</title>
<path fill="none" stroke="#9a32cd" stroke-dasharray="5,2" d="M1660.54,-310.304C1698.83,-307.444 1755.82,-301.352 1804,-288.702 1831.49,-281.484 1861.62,-268.319 1880.65,-259.298"/>
<polygon fill="#9a32cd" stroke="#9a32cd" points="1659.99,-306.834 1650.26,-311.027 1660.48,-313.816 1659.99,-306.834"/>
<text text-anchor="middle" x="1752" y="-309.702" font-family="Helvetica,sans-Serif" font-size="10.00"> SCENE_DIMENSIONS</text>
</g>
<!-- Node36 -->
<g id="node36" class="node"><title>Node36</title>
<polygon fill="white" stroke="#bfbfbf" points="1591.5,-27.2017 1591.5,-46.2017 1640.5,-46.2017 1640.5,-27.2017 1591.5,-27.2017"/>
<text text-anchor="middle" x="1616" y="-34.2017" font-family="Helvetica,sans-Serif" font-size="10.00">Button</text>
</g>
<!-- Node36&#45;&gt;Node1 -->
<g id="edge40" class="edge"><title>Node36&#45;&gt;Node1</title>
<path fill="none" stroke="#9a32cd" stroke-dasharray="5,2" d="M1651,-40.5465C1688.51,-44.8661 1750.63,-52.2523 1804,-59.7017 1816.03,-61.3808 1828.89,-63.3019 1841.15,-65.1961"/>
<polygon fill="#9a32cd" stroke="#9a32cd" points="1650.98,-37.0211 1640.65,-39.3598 1650.18,-43.9756 1650.98,-37.0211"/>
<text text-anchor="middle" x="1752" y="-62.7017" font-family="Helvetica,sans-Serif" font-size="10.00"> sizedButton</text>
</g>
<!-- Node37 -->
<g id="node37" class="node"><title>Node37</title>
<polygon fill="white" stroke="#bfbfbf" points="1582.5,-65.2017 1582.5,-84.2017 1649.5,-84.2017 1649.5,-65.2017 1582.5,-65.2017"/>
<text text-anchor="middle" x="1616" y="-72.2017" font-family="Helvetica,sans-Serif" font-size="10.00">StackPane</text>
</g>
<!-- Node37&#45;&gt;Node1 -->
<g id="edge41" class="edge"><title>Node37&#45;&gt;Node1</title>
<path fill="none" stroke="#9a32cd" stroke-dasharray="5,2" d="M1659.83,-74.7017C1702.71,-74.7017 1769.65,-74.7017 1821.98,-74.7017"/>
<polygon fill="#9a32cd" stroke="#9a32cd" points="1659.74,-71.2018 1649.74,-74.7017 1659.74,-78.2018 1659.74,-71.2018"/>
<text text-anchor="middle" x="1752" y="-77.7017" font-family="Helvetica,sans-Serif" font-size="10.00"> stackPane</text>
</g>
</g>
</svg>
        <g id="navigator" transform="translate(0 0)" fill="#404254">
                <rect fill="#f2f5e9" fill-opacity="0.5" stroke="#606060" stroke-width=".5" x="0" y="0" width="60" height="60"/>
                <use id="zoomplus" xlink:href="#zoomPlus" x="17" y="9" onmousedown="handleZoom(evt,'in')"/>
                <use id="zoomminus" xlink:href="#zoomMin" x="42" y="9" onmousedown="handleZoom(evt,'out')"/>
                <use id="reset" xlink:href="#resetDef" x="30" y="36" onmousedown="handleReset()"/>
                <g id="arrowUp" xlink:href="#dirArrow" transform="translate(30 24)" onmousedown="handlePan(0,-1)">
                  <use xlink:href="#rim" fill="#404040">
                        <set attributeName="fill" to="#808080" begin="arrowUp.mouseover" end="arrowUp.mouseout"/>
                  </use>
                  <path fill="none" stroke="white" stroke-width="1.5" d="M0,-3.0v7 M-2.5,-0.5L0,-3.0L2.5,-0.5"/>
                </g>
                <g id="arrowRight" xlink:href="#dirArrow" transform="rotate(90) translate(36 -43)" onmousedown="handlePan(1,0)">
                  <use xlink:href="#rim" fill="#404040">
                        <set attributeName="fill" to="#808080" begin="arrowRight.mouseover" end="arrowRight.mouseout"/>
                  </use>
                  <path fill="none" stroke="white" stroke-width="1.5" d="M0,-3.0v7 M-2.5,-0.5L0,-3.0L2.5,-0.5"/>
                </g>
                <g id="arrowDown" xlink:href="#dirArrow" transform="rotate(180) translate(-30 -48)" onmousedown="handlePan(0,1)">
                  <use xlink:href="#rim" fill="#404040">
                        <set attributeName="fill" to="#808080" begin="arrowDown.mouseover" end="arrowDown.mouseout"/>
                  </use>
                  <path fill="none" stroke="white" stroke-width="1.5" d="M0,-3.0v7 M-2.5,-0.5L0,-3.0L2.5,-0.5"/>
                </g>
                <g id="arrowLeft" xlink:href="#dirArrow" transform="rotate(270) translate(-36 17)" onmousedown="handlePan(-1,0)">
                  <use xlink:href="#rim" fill="#404040">
                        <set attributeName="fill" to="#808080" begin="arrowLeft.mouseover" end="arrowLeft.mouseout"/>
                  </use>
                  <path fill="none" stroke="white" stroke-width="1.5" d="M0,-3.0v7 M-2.5,-0.5L0,-3.0L2.5,-0.5"/>
                </g>
        </g>
        <svg viewBox="0 0 15 15" width="100%" height="30px" preserveAspectRatio="xMaxYMin meet">
         <g id="arrow_out" transform="scale(0.3 0.3)">
          <a xlink:href="classview_1_1gui_1_1_stack_pane_g_u_i_screen__coll__graph_org.svg" target="_base">
           <rect id="button" ry="5" rx="5" y="6" x="6" height="38" width="38"
                fill="#f2f5e9" fill-opacity="0.5" stroke="#606060" stroke-width="1.0"/>
           <path id="arrow"
             d="M 11.500037,31.436501 C 11.940474,20.09759 22.043105,11.32322 32.158766,21.979434 L 37.068811,17.246167 C 37.068811,17.246167 37.088388,32 37.088388,32 L 22.160133,31.978069 C 22.160133,31.978069 26.997745,27.140456 26.997745,27.140456 C 18.528582,18.264221 13.291696,25.230495 11.500037,31.436501 z"
             style="fill:#404040;"/>
          </a>
         </g>
        </svg>
</svg>
