<?xml version="1.0" encoding="UTF-8" standalone="no"?>
<!DOCTYPE svg PUBLIC "-//W3C//DTD SVG 1.1//EN"
 "http://www.w3.org/Graphics/SVG/1.1/DTD/svg11.dtd">
<!-- Generated by graphviz version 2.36.0 (20140111.2315)
 -->
<!-- Title: view.runner.GameRunnerPaneController.setLevel Pages: 1 -->
<svg width="1372pt" height="125pt"
 viewBox="0.00 0.00 1372.00 125.00" xmlns="http://www.w3.org/2000/svg" xmlns:xlink="http://www.w3.org/1999/xlink">
<g id="graph0" class="graph" transform="scale(1 1) rotate(0) translate(4 121)">
<title>view.runner.GameRunnerPaneController.setLevel</title>
<polygon fill="white" stroke="none" points="-4,4 -4,-121 1368,-121 1368,4 -4,4"/>
<!-- Node1 -->
<g id="node1" class="node"><title>Node1</title>
<polygon fill="#bfbfbf" stroke="black" points="0,-62 0,-92 158,-92 158,-62 0,-62"/>
<text text-anchor="start" x="8" y="-80" font-family="Helvetica,sans-Serif" font-size="10.00">view.runner.GameRunnerPane</text>
<text text-anchor="middle" x="79" y="-69" font-family="Helvetica,sans-Serif" font-size="10.00">Controller.setLevel</text>
</g>
<!-- Node2 -->
<g id="node2" class="node"><title>Node2</title>
<g id="a_node2"><a xlink:href="../../d6/d9c/classview_1_1runner_1_1_runner_screen.html#a8c51b0b9ed278502aca7eb7703986123" target="_top" xlink:title="view.runner.RunnerScreen.play\lLevel">
<polygon fill="white" stroke="black" points="202,-87 202,-117 364,-117 364,-87 202,-87"/>
<text text-anchor="start" x="210" y="-105" font-family="Helvetica,sans-Serif" font-size="10.00">view.runner.RunnerScreen.play</text>
<text text-anchor="middle" x="283" y="-94" font-family="Helvetica,sans-Serif" font-size="10.00">Level</text>
</a>
</g>
</g>
<!-- Node1&#45;&gt;Node2 -->
<g id="edge1" class="edge"><title>Node1&#45;&gt;Node2</title>
<path fill="none" stroke="midnightblue" d="M168.259,-87.9232C179.405,-89.3026 190.761,-90.7081 201.773,-92.0709"/>
<polygon fill="midnightblue" stroke="midnightblue" points="168.453,-84.4205 158.098,-86.6657 167.593,-91.3675 168.453,-84.4205"/>
</g>
<!-- Node4 -->
<g id="node4" class="node"><title>Node4</title>
<g id="a_node4"><a xlink:href="../../d4/d65/classview_1_1editor_1_1_tab_view_controller.html#a937f892f003cf82b7ba2f114b6dfff8a" target="_top" xlink:title="view.editor.TabViewController.start\lLevel">
<polygon fill="white" stroke="black" points="194,-38 194,-68 372,-68 372,-38 194,-38"/>
<text text-anchor="start" x="202" y="-56" font-family="Helvetica,sans-Serif" font-size="10.00">view.editor.TabViewController.start</text>
<text text-anchor="middle" x="283" y="-45" font-family="Helvetica,sans-Serif" font-size="10.00">Level</text>
</a>
</g>
</g>
<!-- Node1&#45;&gt;Node4 -->
<g id="edge3" class="edge"><title>Node1&#45;&gt;Node4</title>
<path fill="none" stroke="midnightblue" d="M168.299,-66.509C176.724,-65.5081 185.268,-64.4929 193.693,-63.492"/>
<polygon fill="midnightblue" stroke="midnightblue" points="167.616,-63.0655 158.098,-67.721 168.442,-70.0166 167.616,-63.0655"/>
</g>
<!-- Node3 -->
<g id="node3" class="node"><title>Node3</title>
<g id="a_node3"><a xlink:href="../../d6/d9c/classview_1_1runner_1_1_runner_screen.html#af16493da3cec6d50fb47e41e96fac8ed" target="_top" xlink:title="view.runner.RunnerScreen.init">
<polygon fill="white" stroke="black" points="414.5,-92.5 414.5,-111.5 571.5,-111.5 571.5,-92.5 414.5,-92.5"/>
<text text-anchor="middle" x="493" y="-99.5" font-family="Helvetica,sans-Serif" font-size="10.00">view.runner.RunnerScreen.init</text>
</a>
</g>
</g>
<!-- Node2&#45;&gt;Node3 -->
<g id="edge2" class="edge"><title>Node2&#45;&gt;Node3</title>
<path fill="none" stroke="midnightblue" d="M374.253,-102C387.6,-102 401.255,-102 414.317,-102"/>
<polygon fill="midnightblue" stroke="midnightblue" points="374.121,-98.5001 364.121,-102 374.121,-105.5 374.121,-98.5001"/>
</g>
<!-- Node5 -->
<g id="node5" class="node"><title>Node5</title>
<g id="a_node5"><a xlink:href="../../d4/d65/classview_1_1editor_1_1_tab_view_controller.html#a82e1e1f1eb84d1c30bde3a246304473e" target="_top" xlink:title="view.editor.TabViewController.init">
<polygon fill="white" stroke="black" points="408,-49.5 408,-68.5 578,-68.5 578,-49.5 408,-49.5"/>
<text text-anchor="middle" x="493" y="-56.5" font-family="Helvetica,sans-Serif" font-size="10.00">view.editor.TabViewController.init</text>
</a>
</g>
</g>
<!-- Node4&#45;&gt;Node5 -->
<g id="edge4" class="edge"><title>Node4&#45;&gt;Node5</title>
<path fill="none" stroke="midnightblue" d="M382.259,-55.8344C390.852,-56.0823 399.497,-56.3316 407.958,-56.5757"/>
<polygon fill="midnightblue" stroke="midnightblue" points="382.308,-52.3344 372.211,-55.5445 382.106,-59.3315 382.308,-52.3344"/>
</g>
<!-- Node6 -->
<g id="node6" class="node"><title>Node6</title>
<g id="a_node6"><a xlink:href="../../d4/d65/classview_1_1editor_1_1_tab_view_controller.html#a3e431a0733f1d2409d3f0a863e0279e8" target="_top" xlink:title="view.editor.TabViewController.set\lLevel">
<polygon fill="white" stroke="black" points="408,-0 408,-30 578,-30 578,-0 408,-0"/>
<text text-anchor="start" x="416" y="-18" font-family="Helvetica,sans-Serif" font-size="10.00">view.editor.TabViewController.set</text>
<text text-anchor="middle" x="493" y="-7" font-family="Helvetica,sans-Serif" font-size="10.00">Level</text>
</a>
</g>
</g>
<!-- Node4&#45;&gt;Node6 -->
<g id="edge5" class="edge"><title>Node4&#45;&gt;Node6</title>
<path fill="none" stroke="midnightblue" d="M376.347,-36.1288C387.46,-34.0986 398.753,-32.0356 409.709,-30.034"/>
<polygon fill="midnightblue" stroke="midnightblue" points="375.415,-32.7411 366.207,-37.9814 376.673,-39.6272 375.415,-32.7411"/>
</g>
<!-- Node7 -->
<g id="node7" class="node"><title>Node7</title>
<g id="a_node7"><a xlink:href="../../d0/db5/classview_1_1editor_1_1_editor_screen.html#ac0c89f6996b8d53ff24c1093072716f8" target="_top" xlink:title="view.editor.EditorScreen.create\lNewTab">
<polygon fill="white" stroke="black" points="614,-0 614,-30 778,-30 778,-0 614,-0"/>
<text text-anchor="start" x="622" y="-18" font-family="Helvetica,sans-Serif" font-size="10.00">view.editor.EditorScreen.create</text>
<text text-anchor="middle" x="696" y="-7" font-family="Helvetica,sans-Serif" font-size="10.00">NewTab</text>
</a>
</g>
</g>
<!-- Node6&#45;&gt;Node7 -->
<g id="edge6" class="edge"><title>Node6&#45;&gt;Node7</title>
<path fill="none" stroke="midnightblue" d="M588.121,-15C596.714,-15 605.369,-15 613.834,-15"/>
<polygon fill="midnightblue" stroke="midnightblue" points="588.078,-11.5001 578.077,-15 588.077,-18.5001 588.078,-11.5001"/>
</g>
<!-- Node8 -->
<g id="node8" class="node"><title>Node8</title>
<g id="a_node8"><a xlink:href="../../d0/db5/classview_1_1editor_1_1_editor_screen.html#ad3d33bc95534e6b677a83a2f01be9286" target="_top" xlink:title="view.editor.EditorScreen.launchTab">
<polygon fill="white" stroke="black" points="814.5,-5.5 814.5,-24.5 995.5,-24.5 995.5,-5.5 814.5,-5.5"/>
<text text-anchor="middle" x="905" y="-12.5" font-family="Helvetica,sans-Serif" font-size="10.00">view.editor.EditorScreen.launchTab</text>
</a>
</g>
</g>
<!-- Node7&#45;&gt;Node8 -->
<g id="edge7" class="edge"><title>Node7&#45;&gt;Node8</title>
<path fill="none" stroke="midnightblue" d="M788.335,-15C797.012,-15 805.804,-15 814.464,-15"/>
<polygon fill="midnightblue" stroke="midnightblue" points="788.218,-11.5001 778.218,-15 788.218,-18.5001 788.218,-11.5001"/>
</g>
<!-- Node9 -->
<g id="node9" class="node"><title>Node9</title>
<g id="a_node9"><a xlink:href="../../d0/db5/classview_1_1editor_1_1_editor_screen.html#aaad5f29799d14174213c2f06f6156890" target="_top" xlink:title="view.editor.EditorScreen.init\lProjectExplorer">
<polygon fill="white" stroke="black" points="1032,-0 1032,-30 1180,-30 1180,-0 1032,-0"/>
<text text-anchor="start" x="1040" y="-18" font-family="Helvetica,sans-Serif" font-size="10.00">view.editor.EditorScreen.init</text>
<text text-anchor="middle" x="1106" y="-7" font-family="Helvetica,sans-Serif" font-size="10.00">ProjectExplorer</text>
</a>
</g>
</g>
<!-- Node8&#45;&gt;Node9 -->
<g id="edge8" class="edge"><title>Node8&#45;&gt;Node9</title>
<path fill="none" stroke="midnightblue" d="M1005.62,-15C1014.5,-15 1023.39,-15 1031.98,-15"/>
<polygon fill="midnightblue" stroke="midnightblue" points="1005.6,-11.5001 995.603,-15 1005.6,-18.5001 1005.6,-11.5001"/>
</g>
<!-- Node10 -->
<g id="node10" class="node"><title>Node10</title>
<g id="a_node10"><a xlink:href="../../d0/db5/classview_1_1editor_1_1_editor_screen.html#aba6c32908c25fa4f755a312e92860c02" target="_top" xlink:title="view.editor.EditorScreen.init">
<polygon fill="white" stroke="black" points="1216,-5.5 1216,-24.5 1364,-24.5 1364,-5.5 1216,-5.5"/>
<text text-anchor="middle" x="1290" y="-12.5" font-family="Helvetica,sans-Serif" font-size="10.00">view.editor.EditorScreen.init</text>
</a>
</g>
</g>
<!-- Node9&#45;&gt;Node10 -->
<g id="edge9" class="edge"><title>Node9&#45;&gt;Node10</title>
<path fill="none" stroke="midnightblue" d="M1190.52,-15C1198.99,-15 1207.56,-15 1215.91,-15"/>
<polygon fill="midnightblue" stroke="midnightblue" points="1190.24,-11.5001 1180.24,-15 1190.24,-18.5001 1190.24,-11.5001"/>
</g>
</g>
</svg>
