<?xml version="1.0" encoding="UTF-8" standalone="no"?>
<!DOCTYPE svg PUBLIC "-//W3C//DTD SVG 1.1//EN"
 "http://www.w3.org/Graphics/SVG/1.1/DTD/svg11.dtd">
<!-- Generated by graphviz version 2.36.0 (20140111.2315)
 -->
<!-- Title: model.state.GameState Pages: 1 -->
<svg width="816pt" height="355pt"
 viewBox="0.00 0.00 816.00 354.51" xmlns="http://www.w3.org/2000/svg" xmlns:xlink="http://www.w3.org/1999/xlink">
<g id="graph0" class="graph" transform="scale(1 1) rotate(0) translate(4 350.514)">
<title>model.state.GameState</title>
<polygon fill="white" stroke="none" points="-4,4 -4,-350.514 812,-350.514 812,4 -4,4"/>
<!-- Node1 -->
<g id="node1" class="node"><title>Node1</title>
<polygon fill="#bfbfbf" stroke="black" points="674.5,-171.014 674.5,-190.014 807.5,-190.014 807.5,-171.014 674.5,-171.014"/>
<text text-anchor="middle" x="741" y="-178.014" font-family="Helvetica,sans-Serif" font-size="10.00">model.state.GameState</text>
</g>
<!-- Node2 -->
<g id="node2" class="node"><title>Node2</title>
<g id="a_node2"><a xlink:href="../../dc/d74/classmodel_1_1state_1_1_describable_state.html" target="_top" xlink:title="model.state.DescribableState">
<polygon fill="white" stroke="black" points="385,-289.014 385,-308.014 545,-308.014 545,-289.014 385,-289.014"/>
<text text-anchor="middle" x="465" y="-296.014" font-family="Helvetica,sans-Serif" font-size="10.00">model.state.DescribableState</text>
</a>
</g>
</g>
<!-- Node2&#45;&gt;Node1 -->
<g id="edge1" class="edge"><title>Node2&#45;&gt;Node1</title>
<path fill="none" stroke="midnightblue" d="M497.867,-284.79C553.996,-260.618 669.13,-211.035 717.652,-190.138"/>
<polygon fill="midnightblue" stroke="midnightblue" points="496.223,-281.688 488.423,-288.858 498.991,-288.117 496.223,-281.688"/>
</g>
<!-- Node3 -->
<g id="node3" class="node"><title>Node3</title>
<g id="a_node3"><a xlink:href="../../df/d74/interfaceutil_1_1_j_s_o_nable.html" target="_top" xlink:title="util.JSONable">
<polygon fill="white" stroke="black" points="49,-327.014 49,-346.014 127,-346.014 127,-327.014 49,-327.014"/>
<text text-anchor="middle" x="88" y="-334.014" font-family="Helvetica,sans-Serif" font-size="10.00">util.JSONable</text>
</a>
</g>
</g>
<!-- Node3&#45;&gt;Node2 -->
<g id="edge2" class="edge"><title>Node3&#45;&gt;Node2</title>
<path fill="none" stroke="midnightblue" d="M137.477,-333.05C192.476,-328.942 284.818,-321.506 364,-312.514 375.496,-311.208 387.711,-309.646 399.511,-308.045"/>
<polygon fill="midnightblue" stroke="midnightblue" points="137.036,-329.573 127.322,-333.802 137.554,-336.554 137.036,-329.573"/>
</g>
<!-- Node4 -->
<g id="node4" class="node"><title>Node4</title>
<polygon fill="white" stroke="#bfbfbf" points="52.5,-289.014 52.5,-308.014 123.5,-308.014 123.5,-289.014 52.5,-289.014"/>
<text text-anchor="middle" x="88" y="-296.014" font-family="Helvetica,sans-Serif" font-size="10.00">Serializable</text>
</g>
<!-- Node4&#45;&gt;Node2 -->
<g id="edge3" class="edge"><title>Node4&#45;&gt;Node2</title>
<path fill="none" stroke="midnightblue" d="M133.834,-298.514C195.799,-298.514 308.594,-298.514 384.902,-298.514"/>
<polygon fill="midnightblue" stroke="midnightblue" points="133.607,-295.014 123.607,-298.514 133.607,-302.014 133.607,-295.014"/>
</g>
<!-- Node5 -->
<g id="node5" class="node"><title>Node5</title>
<polygon fill="white" stroke="#bfbfbf" points="388,-185.514 388,-215.514 542,-215.514 542,-185.514 388,-185.514"/>
<text text-anchor="start" x="396" y="-203.514" font-family="Helvetica,sans-Serif" font-size="10.00">List&lt; model.state.Campaign</text>
<text text-anchor="middle" x="465" y="-192.514" font-family="Helvetica,sans-Serif" font-size="10.00">State &gt;</text>
</g>
<!-- Node5&#45;&gt;Node1 -->
<g id="edge4" class="edge"><title>Node5&#45;&gt;Node1</title>
<path fill="none" stroke="#9a32cd" stroke-dasharray="5,2" d="M552.459,-194.203C591.875,-191.326 637.782,-187.975 674.31,-185.309"/>
<polygon fill="#9a32cd" stroke="#9a32cd" points="552.043,-190.724 542.324,-194.943 552.553,-197.705 552.043,-190.724"/>
<text text-anchor="middle" x="611" y="-196.514" font-family="Helvetica,sans-Serif" font-size="10.00"> myCampaigns</text>
</g>
<!-- Node6 -->
<g id="node6" class="node"><title>Node6</title>
<g id="a_node6"><a xlink:href="../../de/dda/classmodel_1_1_game_universe.html" target="_top" xlink:title="model.GameUniverse">
<polygon fill="white" stroke="black" points="404.5,-147.014 404.5,-166.014 525.5,-166.014 525.5,-147.014 404.5,-147.014"/>
<text text-anchor="middle" x="465" y="-154.014" font-family="Helvetica,sans-Serif" font-size="10.00">model.GameUniverse</text>
</a>
</g>
</g>
<!-- Node6&#45;&gt;Node1 -->
<g id="edge5" class="edge"><title>Node6&#45;&gt;Node1</title>
<path fill="none" stroke="#9a32cd" stroke-dasharray="5,2" d="M536.27,-162.247C572.111,-165.218 616.389,-168.96 656,-172.514 661.982,-173.051 668.203,-173.621 674.432,-174.2"/>
<polygon fill="#9a32cd" stroke="#9a32cd" points="536.17,-158.727 525.916,-161.391 535.593,-165.703 536.17,-158.727"/>
<text text-anchor="middle" x="611" y="-175.514" font-family="Helvetica,sans-Serif" font-size="10.00"> myGameUniverse</text>
</g>
<!-- Node7 -->
<g id="node7" class="node"><title>Node7</title>
<polygon fill="white" stroke="#bfbfbf" points="0,-239.514 0,-269.514 176,-269.514 176,-239.514 0,-239.514"/>
<text text-anchor="start" x="8" y="-257.514" font-family="Helvetica,sans-Serif" font-size="10.00">Set&lt; model.state.gameelement.</text>
<text text-anchor="middle" x="88" y="-246.514" font-family="Helvetica,sans-Serif" font-size="10.00">GameElementState &gt;</text>
</g>
<!-- Node7&#45;&gt;Node6 -->
<g id="edge6" class="edge"><title>Node7&#45;&gt;Node6</title>
<path fill="none" stroke="#9a32cd" stroke-dasharray="5,2" d="M186.247,-257.906C242.729,-255.285 312.643,-243.703 364,-207.514 377.339,-198.115 368.941,-185.299 382,-175.514 388.666,-170.519 396.429,-166.807 404.469,-164.053"/>
<polygon fill="#9a32cd" stroke="#9a32cd" points="186.087,-254.409 176.226,-258.284 186.351,-261.404 186.087,-254.409"/>
<text text-anchor="middle" x="279" y="-260.514" font-family="Helvetica,sans-Serif" font-size="10.00"> myGameElementStates</text>
</g>
<!-- Node8 -->
<g id="node8" class="node"><title>Node8</title>
<polygon fill="white" stroke="#bfbfbf" points="0,-190.514 0,-220.514 176,-220.514 176,-190.514 0,-190.514"/>
<text text-anchor="start" x="8" y="-208.514" font-family="Helvetica,sans-Serif" font-size="10.00">Set&lt; model.state.gameelement.</text>
<text text-anchor="middle" x="88" y="-197.514" font-family="Helvetica,sans-Serif" font-size="10.00">Attribute&lt; String &gt; &gt;</text>
</g>
<!-- Node8&#45;&gt;Node6 -->
<g id="edge7" class="edge"><title>Node8&#45;&gt;Node6</title>
<path fill="none" stroke="#9a32cd" stroke-dasharray="5,2" d="M186.093,-194.131C238.774,-187.798 305.006,-179.584 364,-171.514 377.045,-169.729 391.03,-167.703 404.283,-165.73"/>
<polygon fill="#9a32cd" stroke="#9a32cd" points="185.594,-190.666 176.082,-195.331 186.427,-197.616 185.594,-190.666"/>
<text text-anchor="middle" x="279" y="-195.514" font-family="Helvetica,sans-Serif" font-size="10.00"> myTextualAttributes</text>
</g>
<!-- Node9 -->
<g id="node9" class="node"><title>Node9</title>
<polygon fill="white" stroke="#bfbfbf" points="0,-141.514 0,-171.514 176,-171.514 176,-141.514 0,-141.514"/>
<text text-anchor="start" x="8" y="-159.514" font-family="Helvetica,sans-Serif" font-size="10.00">Set&lt; model.state.gameelement.</text>
<text text-anchor="middle" x="88" y="-148.514" font-family="Helvetica,sans-Serif" font-size="10.00">SelectableGameElementState &gt;</text>
</g>
<!-- Node9&#45;&gt;Node6 -->
<g id="edge8" class="edge"><title>Node9&#45;&gt;Node6</title>
<path fill="none" stroke="#9a32cd" stroke-dasharray="5,2" d="M186.46,-156.514C255.416,-156.514 345.676,-156.514 404.24,-156.514"/>
<polygon fill="#9a32cd" stroke="#9a32cd" points="186.448,-153.014 176.448,-156.514 186.448,-160.014 186.448,-153.014"/>
<text text-anchor="middle" x="279" y="-159.514" font-family="Helvetica,sans-Serif" font-size="10.00"> mySelectableGameElementStates</text>
</g>
<!-- Node10 -->
<g id="node10" class="node"><title>Node10</title>
<polygon fill="white" stroke="#bfbfbf" points="0,-92.514 0,-122.514 176,-122.514 176,-92.514 0,-92.514"/>
<text text-anchor="start" x="8" y="-110.514" font-family="Helvetica,sans-Serif" font-size="10.00">Set&lt; model.state.gameelement.</text>
<text text-anchor="middle" x="88" y="-99.514" font-family="Helvetica,sans-Serif" font-size="10.00">DrawableGameElementState &gt;</text>
</g>
<!-- Node10&#45;&gt;Node6 -->
<g id="edge9" class="edge"><title>Node10&#45;&gt;Node6</title>
<path fill="none" stroke="#9a32cd" stroke-dasharray="5,2" d="M186.093,-118.897C238.774,-125.23 305.006,-133.444 364,-141.514 377.045,-143.298 391.03,-145.325 404.283,-147.298"/>
<polygon fill="#9a32cd" stroke="#9a32cd" points="186.427,-115.412 176.082,-117.696 185.594,-122.362 186.427,-115.412"/>
<text text-anchor="middle" x="279" y="-144.514" font-family="Helvetica,sans-Serif" font-size="10.00"> myDrawableGameElementStates</text>
</g>
<!-- Node11 -->
<g id="node11" class="node"><title>Node11</title>
<polygon fill="white" stroke="#bfbfbf" points="46,-54.014 46,-73.014 130,-73.014 130,-54.014 46,-54.014"/>
<text text-anchor="middle" x="88" y="-61.014" font-family="Helvetica,sans-Serif" font-size="10.00">Set&lt; String &gt;</text>
</g>
<!-- Node11&#45;&gt;Node6 -->
<g id="edge10" class="edge"><title>Node11&#45;&gt;Node6</title>
<path fill="none" stroke="#9a32cd" stroke-dasharray="5,2" d="M140.478,-59.0124C199.595,-56.4887 297.026,-60.7024 364,-106.514 377.15,-115.509 369.185,-128.048 382,-137.514 388.582,-142.376 396.209,-146.02 404.107,-148.747"/>
<polygon fill="#9a32cd" stroke="#9a32cd" points="140.068,-55.5287 130.259,-59.5323 140.424,-62.5196 140.068,-55.5287"/>
<text text-anchor="middle" x="279" y="-109.514" font-family="Helvetica,sans-Serif" font-size="10.00"> myParticipantColors</text>
</g>
<!-- Node12 -->
<g id="node12" class="node"><title>Node12</title>
<polygon fill="white" stroke="#bfbfbf" points="0,-4.51395 0,-34.514 176,-34.514 176,-4.51395 0,-4.51395"/>
<text text-anchor="start" x="8" y="-22.514" font-family="Helvetica,sans-Serif" font-size="10.00">Set&lt; model.state.gameelement.</text>
<text text-anchor="middle" x="88" y="-11.514" font-family="Helvetica,sans-Serif" font-size="10.00">Attribute&lt; Number &gt; &gt;</text>
</g>
<!-- Node12&#45;&gt;Node6 -->
<g id="edge11" class="edge"><title>Node12&#45;&gt;Node6</title>
<path fill="none" stroke="#9a32cd" stroke-dasharray="5,2" d="M170.274,-3.23321C231.14,3.93427 312.464,2.08554 364,-44.514 395.228,-72.7502 352.779,-107.206 382,-137.514 388.086,-143.826 395.823,-148.223 404.104,-151.256"/>
<polygon fill="#9a32cd" stroke="#9a32cd" points="169.783,0.23257 160.308,-4.50791 170.671,-6.71087 169.783,0.23257"/>
<text text-anchor="middle" x="279" y="-47.514" font-family="Helvetica,sans-Serif" font-size="10.00"> myNumericalAttributes</text>
</g>
<!-- Node13 -->
<g id="node13" class="node"><title>Node13</title>
<polygon fill="white" stroke="#bfbfbf" points="382,-109.014 382,-128.014 548,-128.014 548,-109.014 382,-109.014"/>
<text text-anchor="middle" x="465" y="-116.014" font-family="Helvetica,sans-Serif" font-size="10.00">List&lt; model.state.HighScore &gt;</text>
</g>
<!-- Node13&#45;&gt;Node1 -->
<g id="edge12" class="edge"><title>Node13&#45;&gt;Node1</title>
<path fill="none" stroke="#9a32cd" stroke-dasharray="5,2" d="M551.165,-129.583C584.179,-134.725 622.118,-141.684 656,-150.514 676.979,-155.981 700.134,-164.441 716.811,-170.985"/>
<polygon fill="#9a32cd" stroke="#9a32cd" points="551.501,-126.094 541.088,-128.046 550.445,-133.014 551.501,-126.094"/>
<text text-anchor="middle" x="611" y="-153.514" font-family="Helvetica,sans-Serif" font-size="10.00"> myHighScores</text>
</g>
</g>
</svg>
