<?xml version="1.0" encoding="UTF-8" standalone="no"?>
<!DOCTYPE svg PUBLIC "-//W3C//DTD SVG 1.1//EN"
 "http://www.w3.org/Graphics/SVG/1.1/DTD/svg11.dtd">
<!-- Generated by graphviz version 2.36.0 (20140111.2315)
 -->
<!-- Title: view.gui.StackPaneGUIContainer.bindPaneSize Pages: 1 -->
<!--zoomable 123 -->
<svg id="main" version="1.1" xmlns="http://www.w3.org/2000/svg" xmlns:xlink="http://www.w3.org/1999/xlink" xml:space="preserve" onload="init(evt)">
<style type="text/css"><![CDATA[
.edge:hover path { stroke: red; }
.edge:hover polygon { stroke: red; fill: red; }
]]></style>
<script type="text/javascript"><![CDATA[
var edges = document.getElementsByTagName('g');
if (edges && edges.length) {
  for (var i=0;i<edges.length;i++) {
    if (edges[i].id.substr(0,4)=='edge') {
      edges[i].setAttribute('class','edge');
    }
  }
}
]]></script>
        <defs>
                <circle id="rim" cx="0" cy="0" r="7"/>
                <circle id="rim2" cx="0" cy="0" r="3.5"/>
                <g id="zoomPlus">
                        <use xlink:href="#rim" fill="#404040">
                                <set attributeName="fill" to="#808080" begin="zoomplus.mouseover" end="zoomplus.mouseout"/>
                        </use>
                        <path d="M-4,0h8M0,-4v8" fill="none" stroke="white" stroke-width="1.5" pointer-events="none"/>
                </g>
                <g id="zoomMin">
                        <use xlink:href="#rim" fill="#404040">
                                <set attributeName="fill" to="#808080" begin="zoomminus.mouseover" end="zoomminus.mouseout"/>
                        </use>
                        <path d="M-4,0h8" fill="none" stroke="white" stroke-width="1.5" pointer-events="none"/>
                </g>
                <g id="dirArrow">
                        <path fill="none" stroke="white" stroke-width="1.5" d="M0,-3.0v7 M-2.5,-0.5L0,-3.0L2.5,-0.5"/>
                </g>
               <g id="resetDef">
                       <use xlink:href="#rim2" fill="#404040">
                               <set attributeName="fill" to="#808080" begin="reset.mouseover" end="reset.mouseout"/>
                       </use>
               </g>
        </defs>

<script type="text/javascript">
var viewWidth = 1602;
var viewHeight = 123;
var sectionId = 'dynsection-2';
</script>
<script xlink:href="../../svgpan.js"/>
<svg id="graph" class="graph">
<g id="viewport">
<title>view.gui.StackPaneGUIContainer.bindPaneSize</title>
<polygon fill="white" stroke="none" points="-4,4 -4,-119 1598,-119 1598,4 -4,4"/>
<!-- Node1 -->
<g id="node1" class="node"><title>Node1</title>
<polygon fill="#bfbfbf" stroke="black" points="0.5,-24 0.5,-54 193.5,-54 193.5,-24 0.5,-24"/>
<text text-anchor="start" x="8.5" y="-42" font-family="Helvetica,sans-Serif" font-size="10.00">view.gui.StackPaneGUIContainer.bind</text>
<text text-anchor="middle" x="97" y="-31" font-family="Helvetica,sans-Serif" font-size="10.00">PaneSize</text>
</g>
<!-- Node2 -->
<g id="node2" class="node"><title>Node2</title>
<g id="a_node2"><a xlink:href="../../d8/dd1/classview_1_1runner_1_1_game_runner_pane_controller.html#a33080887fd34cc2aceb57b2b4c424ad9" target="_top" xlink:title="view.runner.GameRunnerPane\lController.setLevel">
<polygon fill="white" stroke="black" points="230,-24 230,-54 388,-54 388,-24 230,-24"/>
<text text-anchor="start" x="238" y="-42" font-family="Helvetica,sans-Serif" font-size="10.00">view.runner.GameRunnerPane</text>
<text text-anchor="middle" x="309" y="-31" font-family="Helvetica,sans-Serif" font-size="10.00">Controller.setLevel</text>
</a>
</g>
</g>
<!-- Node1&#45;&gt;Node2 -->
<g id="edge1" class="edge"><title>Node1&#45;&gt;Node2</title>
<path fill="none" stroke="midnightblue" d="M204.029,-39C212.767,-39 221.495,-39 229.972,-39"/>
<polygon fill="midnightblue" stroke="midnightblue" points="203.782,-35.5001 193.782,-39 203.782,-42.5001 203.782,-35.5001"/>
</g>
<!-- Node3 -->
<g id="node3" class="node"><title>Node3</title>
<g id="a_node3"><a xlink:href="../../d4/d65/classview_1_1editor_1_1_tab_view_controller.html#a937f892f003cf82b7ba2f114b6dfff8a" target="_top" xlink:title="view.editor.TabViewController.start\lLevel">
<polygon fill="white" stroke="black" points="424,-49 424,-79 602,-79 602,-49 424,-49"/>
<text text-anchor="start" x="432" y="-67" font-family="Helvetica,sans-Serif" font-size="10.00">view.editor.TabViewController.start</text>
<text text-anchor="middle" x="513" y="-56" font-family="Helvetica,sans-Serif" font-size="10.00">Level</text>
</a>
</g>
</g>
<!-- Node2&#45;&gt;Node3 -->
<g id="edge2" class="edge"><title>Node2&#45;&gt;Node3</title>
<path fill="none" stroke="midnightblue" d="M398.299,-49.9281C406.724,-50.9707 415.268,-52.0282 423.693,-53.0709"/>
<polygon fill="midnightblue" stroke="midnightblue" points="398.453,-46.4205 388.098,-48.6657 397.593,-53.3675 398.453,-46.4205"/>
</g>
<!-- Node10 -->
<g id="node10" class="node"><title>Node10</title>
<g id="a_node10"><a xlink:href="../../d6/d9c/classview_1_1runner_1_1_runner_screen.html#a8c51b0b9ed278502aca7eb7703986123" target="_top" xlink:title="view.runner.RunnerScreen.play\lLevel">
<polygon fill="white" stroke="black" points="432,-0 432,-30 594,-30 594,-0 432,-0"/>
<text text-anchor="start" x="440" y="-18" font-family="Helvetica,sans-Serif" font-size="10.00">view.runner.RunnerScreen.play</text>
<text text-anchor="middle" x="513" y="-7" font-family="Helvetica,sans-Serif" font-size="10.00">Level</text>
</a>
</g>
</g>
<!-- Node2&#45;&gt;Node10 -->
<g id="edge9" class="edge"><title>Node2&#45;&gt;Node10</title>
<path fill="none" stroke="midnightblue" d="M398.259,-28.5137C409.405,-27.1895 420.761,-25.8402 431.773,-24.5319"/>
<polygon fill="midnightblue" stroke="midnightblue" points="397.616,-25.0655 388.098,-29.721 398.442,-32.0166 397.616,-25.0655"/>
</g>
<!-- Node4 -->
<g id="node4" class="node"><title>Node4</title>
<g id="a_node4"><a xlink:href="../../d4/d65/classview_1_1editor_1_1_tab_view_controller.html#a82e1e1f1eb84d1c30bde3a246304473e" target="_top" xlink:title="view.editor.TabViewController.init">
<polygon fill="white" stroke="black" points="638,-95.5 638,-114.5 808,-114.5 808,-95.5 638,-95.5"/>
<text text-anchor="middle" x="723" y="-102.5" font-family="Helvetica,sans-Serif" font-size="10.00">view.editor.TabViewController.init</text>
</a>
</g>
</g>
<!-- Node3&#45;&gt;Node4 -->
<g id="edge3" class="edge"><title>Node3&#45;&gt;Node4</title>
<path fill="none" stroke="midnightblue" d="M600.157,-80.9828C625.207,-85.9206 651.681,-91.139 673.529,-95.4455"/>
<polygon fill="midnightblue" stroke="midnightblue" points="600.759,-77.5342 590.27,-79.0341 599.405,-84.402 600.759,-77.5342"/>
</g>
<!-- Node5 -->
<g id="node5" class="node"><title>Node5</title>
<g id="a_node5"><a xlink:href="../../d4/d65/classview_1_1editor_1_1_tab_view_controller.html#a3e431a0733f1d2409d3f0a863e0279e8" target="_top" xlink:title="view.editor.TabViewController.set\lLevel">
<polygon fill="white" stroke="black" points="638,-46 638,-76 808,-76 808,-46 638,-46"/>
<text text-anchor="start" x="646" y="-64" font-family="Helvetica,sans-Serif" font-size="10.00">view.editor.TabViewController.set</text>
<text text-anchor="middle" x="723" y="-53" font-family="Helvetica,sans-Serif" font-size="10.00">Level</text>
</a>
</g>
</g>
<!-- Node3&#45;&gt;Node5 -->
<g id="edge4" class="edge"><title>Node3&#45;&gt;Node5</title>
<path fill="none" stroke="midnightblue" d="M612.259,-62.5828C620.852,-62.4589 629.497,-62.3342 637.958,-62.2121"/>
<polygon fill="midnightblue" stroke="midnightblue" points="612.159,-59.0838 602.211,-62.7277 612.26,-66.0831 612.159,-59.0838"/>
</g>
<!-- Node6 -->
<g id="node6" class="node"><title>Node6</title>
<g id="a_node6"><a xlink:href="../../d0/db5/classview_1_1editor_1_1_editor_screen.html#ac0c89f6996b8d53ff24c1093072716f8" target="_top" xlink:title="view.editor.EditorScreen.create\lNewTab">
<polygon fill="white" stroke="black" points="844,-46 844,-76 1008,-76 1008,-46 844,-46"/>
<text text-anchor="start" x="852" y="-64" font-family="Helvetica,sans-Serif" font-size="10.00">view.editor.EditorScreen.create</text>
<text text-anchor="middle" x="926" y="-53" font-family="Helvetica,sans-Serif" font-size="10.00">NewTab</text>
</a>
</g>
</g>
<!-- Node5&#45;&gt;Node6 -->
<g id="edge5" class="edge"><title>Node5&#45;&gt;Node6</title>
<path fill="none" stroke="midnightblue" d="M818.121,-61C826.714,-61 835.369,-61 843.834,-61"/>
<polygon fill="midnightblue" stroke="midnightblue" points="818.078,-57.5001 808.077,-61 818.077,-64.5001 818.078,-57.5001"/>
</g>
<!-- Node7 -->
<g id="node7" class="node"><title>Node7</title>
<g id="a_node7"><a xlink:href="../../d0/db5/classview_1_1editor_1_1_editor_screen.html#ad3d33bc95534e6b677a83a2f01be9286" target="_top" xlink:title="view.editor.EditorScreen.launchTab">
<polygon fill="white" stroke="black" points="1044.5,-51.5 1044.5,-70.5 1225.5,-70.5 1225.5,-51.5 1044.5,-51.5"/>
<text text-anchor="middle" x="1135" y="-58.5" font-family="Helvetica,sans-Serif" font-size="10.00">view.editor.EditorScreen.launchTab</text>
</a>
</g>
</g>
<!-- Node6&#45;&gt;Node7 -->
<g id="edge6" class="edge"><title>Node6&#45;&gt;Node7</title>
<path fill="none" stroke="midnightblue" d="M1018.34,-61C1027.01,-61 1035.8,-61 1044.46,-61"/>
<polygon fill="midnightblue" stroke="midnightblue" points="1018.22,-57.5001 1008.22,-61 1018.22,-64.5001 1018.22,-57.5001"/>
</g>
<!-- Node8 -->
<g id="node8" class="node"><title>Node8</title>
<g id="a_node8"><a xlink:href="../../d0/db5/classview_1_1editor_1_1_editor_screen.html#aaad5f29799d14174213c2f06f6156890" target="_top" xlink:title="view.editor.EditorScreen.init\lProjectExplorer">
<polygon fill="white" stroke="black" points="1262,-46 1262,-76 1410,-76 1410,-46 1262,-46"/>
<text text-anchor="start" x="1270" y="-64" font-family="Helvetica,sans-Serif" font-size="10.00">view.editor.EditorScreen.init</text>
<text text-anchor="middle" x="1336" y="-53" font-family="Helvetica,sans-Serif" font-size="10.00">ProjectExplorer</text>
</a>
</g>
</g>
<!-- Node7&#45;&gt;Node8 -->
<g id="edge7" class="edge"><title>Node7&#45;&gt;Node8</title>
<path fill="none" stroke="midnightblue" d="M1235.62,-61C1244.5,-61 1253.39,-61 1261.98,-61"/>
<polygon fill="midnightblue" stroke="midnightblue" points="1235.6,-57.5001 1225.6,-61 1235.6,-64.5001 1235.6,-57.5001"/>
</g>
<!-- Node9 -->
<g id="node9" class="node"><title>Node9</title>
<g id="a_node9"><a xlink:href="../../d0/db5/classview_1_1editor_1_1_editor_screen.html#aba6c32908c25fa4f755a312e92860c02" target="_top" xlink:title="view.editor.EditorScreen.init">
<polygon fill="white" stroke="black" points="1446,-51.5 1446,-70.5 1594,-70.5 1594,-51.5 1446,-51.5"/>
<text text-anchor="middle" x="1520" y="-58.5" font-family="Helvetica,sans-Serif" font-size="10.00">view.editor.EditorScreen.init</text>
</a>
</g>
</g>
<!-- Node8&#45;&gt;Node9 -->
<g id="edge8" class="edge"><title>Node8&#45;&gt;Node9</title>
<path fill="none" stroke="midnightblue" d="M1420.52,-61C1428.99,-61 1437.56,-61 1445.91,-61"/>
<polygon fill="midnightblue" stroke="midnightblue" points="1420.24,-57.5001 1410.24,-61 1420.24,-64.5001 1420.24,-57.5001"/>
</g>
<!-- Node11 -->
<g id="node11" class="node"><title>Node11</title>
<g id="a_node11"><a xlink:href="../../d6/d9c/classview_1_1runner_1_1_runner_screen.html#af16493da3cec6d50fb47e41e96fac8ed" target="_top" xlink:title="view.runner.RunnerScreen.init">
<polygon fill="white" stroke="black" points="644.5,-5.5 644.5,-24.5 801.5,-24.5 801.5,-5.5 644.5,-5.5"/>
<text text-anchor="middle" x="723" y="-12.5" font-family="Helvetica,sans-Serif" font-size="10.00">view.runner.RunnerScreen.init</text>
</a>
</g>
</g>
<!-- Node10&#45;&gt;Node11 -->
<g id="edge10" class="edge"><title>Node10&#45;&gt;Node11</title>
<path fill="none" stroke="midnightblue" d="M604.253,-15C617.6,-15 631.255,-15 644.317,-15"/>
<polygon fill="midnightblue" stroke="midnightblue" points="604.121,-11.5001 594.121,-15 604.121,-18.5001 604.121,-11.5001"/>
</g>
</g>
</svg>
        <g id="navigator" transform="translate(0 0)" fill="#404254">
                <rect fill="#f2f5e9" fill-opacity="0.5" stroke="#606060" stroke-width=".5" x="0" y="0" width="60" height="60"/>
                <use id="zoomplus" xlink:href="#zoomPlus" x="17" y="9" onmousedown="handleZoom(evt,'in')"/>
                <use id="zoomminus" xlink:href="#zoomMin" x="42" y="9" onmousedown="handleZoom(evt,'out')"/>
                <use id="reset" xlink:href="#resetDef" x="30" y="36" onmousedown="handleReset()"/>
                <g id="arrowUp" xlink:href="#dirArrow" transform="translate(30 24)" onmousedown="handlePan(0,-1)">
                  <use xlink:href="#rim" fill="#404040">
                        <set attributeName="fill" to="#808080" begin="arrowUp.mouseover" end="arrowUp.mouseout"/>
                  </use>
                  <path fill="none" stroke="white" stroke-width="1.5" d="M0,-3.0v7 M-2.5,-0.5L0,-3.0L2.5,-0.5"/>
                </g>
                <g id="arrowRight" xlink:href="#dirArrow" transform="rotate(90) translate(36 -43)" onmousedown="handlePan(1,0)">
                  <use xlink:href="#rim" fill="#404040">
                        <set attributeName="fill" to="#808080" begin="arrowRight.mouseover" end="arrowRight.mouseout"/>
                  </use>
                  <path fill="none" stroke="white" stroke-width="1.5" d="M0,-3.0v7 M-2.5,-0.5L0,-3.0L2.5,-0.5"/>
                </g>
                <g id="arrowDown" xlink:href="#dirArrow" transform="rotate(180) translate(-30 -48)" onmousedown="handlePan(0,1)">
                  <use xlink:href="#rim" fill="#404040">
                        <set attributeName="fill" to="#808080" begin="arrowDown.mouseover" end="arrowDown.mouseout"/>
                  </use>
                  <path fill="none" stroke="white" stroke-width="1.5" d="M0,-3.0v7 M-2.5,-0.5L0,-3.0L2.5,-0.5"/>
                </g>
                <g id="arrowLeft" xlink:href="#dirArrow" transform="rotate(270) translate(-36 17)" onmousedown="handlePan(-1,0)">
                  <use xlink:href="#rim" fill="#404040">
                        <set attributeName="fill" to="#808080" begin="arrowLeft.mouseover" end="arrowLeft.mouseout"/>
                  </use>
                  <path fill="none" stroke="white" stroke-width="1.5" d="M0,-3.0v7 M-2.5,-0.5L0,-3.0L2.5,-0.5"/>
                </g>
        </g>
        <svg viewBox="0 0 15 15" width="100%" height="30px" preserveAspectRatio="xMaxYMin meet">
         <g id="arrow_out" transform="scale(0.3 0.3)">
          <a xlink:href="classview_1_1gui_1_1_stack_pane_g_u_i_container_a4062ee797b3c933338598b36584642ba_icgraph_org.svg" target="_base">
           <rect id="button" ry="5" rx="5" y="6" x="6" height="38" width="38"
                fill="#f2f5e9" fill-opacity="0.5" stroke="#606060" stroke-width="1.0"/>
           <path id="arrow"
             d="M 11.500037,31.436501 C 11.940474,20.09759 22.043105,11.32322 32.158766,21.979434 L 37.068811,17.246167 C 37.068811,17.246167 37.088388,32 37.088388,32 L 22.160133,31.978069 C 22.160133,31.978069 26.997745,27.140456 26.997745,27.140456 C 18.528582,18.264221 13.291696,25.230495 11.500037,31.436501 z"
             style="fill:#404040;"/>
          </a>
         </g>
        </svg>
</svg>
