<?xml version="1.0" encoding="UTF-8" standalone="no"?>
<!DOCTYPE svg PUBLIC "-//W3C//DTD SVG 1.1//EN"
 "http://www.w3.org/Graphics/SVG/1.1/DTD/svg11.dtd">
<!-- Generated by graphviz version 2.36.0 (20140111.2315)
 -->
<!-- Title: editor.EditorMenuBarController.onNewLevelClick Pages: 1 -->
<svg width="636pt" height="273pt"
 viewBox="0.00 0.00 636.00 273.00" xmlns="http://www.w3.org/2000/svg" xmlns:xlink="http://www.w3.org/1999/xlink">
<g id="graph0" class="graph" transform="scale(1 1) rotate(0) translate(4 269)">
<title>editor.EditorMenuBarController.onNewLevelClick</title>
<polygon fill="white" stroke="none" points="-4,4 -4,-269 632,-269 632,4 -4,4"/>
<!-- Node1 -->
<g id="node1" class="node"><title>Node1</title>
<polygon fill="#bfbfbf" stroke="black" points="0,-93 0,-123 178,-123 178,-93 0,-93"/>
<text text-anchor="start" x="8" y="-111" font-family="Helvetica,sans-Serif" font-size="10.00">editor.EditorMenuBarController.on</text>
<text text-anchor="middle" x="89" y="-100" font-family="Helvetica,sans-Serif" font-size="10.00">NewLevelClick</text>
</g>
<!-- Node2 -->
<g id="node2" class="node"><title>Node2</title>
<g id="a_node2"><a xlink:href="../../da/d8d/classgamemodel_1_1_main_model.html#a8f7ba6a09d6f83d64c441f15a445ac90" target="_top" xlink:title="gamemodel.MainModel.create\lLevel">
<polygon fill="white" stroke="black" points="214,-186 214,-216 376,-216 376,-186 214,-186"/>
<text text-anchor="start" x="222" y="-204" font-family="Helvetica,sans-Serif" font-size="10.00">gamemodel.MainModel.create</text>
<text text-anchor="middle" x="295" y="-193" font-family="Helvetica,sans-Serif" font-size="10.00">Level</text>
</a>
</g>
</g>
<!-- Node1&#45;&gt;Node2 -->
<g id="edge1" class="edge"><title>Node1&#45;&gt;Node2</title>
<path fill="none" stroke="midnightblue" d="M113.984,-123.028C138.451,-137.903 177.852,-160.621 214,-176 219.404,-178.299 225.093,-180.495 230.841,-182.562"/>
<polygon fill="midnightblue" stroke="midnightblue" points="229.939,-185.954 240.534,-185.916 232.229,-179.338 229.939,-185.954"/>
</g>
<!-- Node5 -->
<g id="node5" class="node"><title>Node5</title>
<g id="a_node5"><a xlink:href="../../d9/d24/classeditor_1_1wizards_1_1_wizard.html#a900163c75d7ec227b98fe35c9afa7505" target="_top" xlink:title="editor.wizards.Wizard.get\lStage">
<polygon fill="white" stroke="black" points="227.5,-137 227.5,-167 362.5,-167 362.5,-137 227.5,-137"/>
<text text-anchor="start" x="235.5" y="-155" font-family="Helvetica,sans-Serif" font-size="10.00">editor.wizards.Wizard.get</text>
<text text-anchor="middle" x="295" y="-144" font-family="Helvetica,sans-Serif" font-size="10.00">Stage</text>
</a>
</g>
</g>
<!-- Node1&#45;&gt;Node5 -->
<g id="edge4" class="edge"><title>Node1&#45;&gt;Node5</title>
<path fill="none" stroke="midnightblue" d="M159.635,-123.019C178.31,-127.047 198.6,-131.424 217.62,-135.526"/>
<polygon fill="midnightblue" stroke="midnightblue" points="216.921,-138.956 227.434,-137.643 218.397,-132.113 216.921,-138.956"/>
</g>
<!-- Node6 -->
<g id="node6" class="node"><title>Node6</title>
<g id="a_node6"><a xlink:href="../../dc/d5a/classview_1_1_wizard_utility.html#a7df411758a1fe47f34f7372db53355bf" target="_top" xlink:title="view.WizardUtility.loadWizard">
<polygon fill="white" stroke="black" points="219.5,-98.5 219.5,-117.5 370.5,-117.5 370.5,-98.5 219.5,-98.5"/>
<text text-anchor="middle" x="295" y="-105.5" font-family="Helvetica,sans-Serif" font-size="10.00">view.WizardUtility.loadWizard</text>
</a>
</g>
</g>
<!-- Node1&#45;&gt;Node6 -->
<g id="edge5" class="edge"><title>Node1&#45;&gt;Node6</title>
<path fill="none" stroke="midnightblue" d="M178.291,-108C188.548,-108 198.993,-108 209.201,-108"/>
<polygon fill="midnightblue" stroke="midnightblue" points="209.315,-111.5 219.315,-108 209.315,-104.5 209.315,-111.5"/>
</g>
<!-- Node10 -->
<g id="node10" class="node"><title>Node10</title>
<g id="a_node10"><a xlink:href="../../d9/d24/classeditor_1_1wizards_1_1_wizard.html#afd40040d6d3c179ccc69b688fe8910a1" target="_top" xlink:title="editor.wizards.Wizard.set\lErrorMesssage">
<polygon fill="white" stroke="black" points="228,-49 228,-79 362,-79 362,-49 228,-49"/>
<text text-anchor="start" x="236" y="-67" font-family="Helvetica,sans-Serif" font-size="10.00">editor.wizards.Wizard.set</text>
<text text-anchor="middle" x="295" y="-56" font-family="Helvetica,sans-Serif" font-size="10.00">ErrorMesssage</text>
</a>
</g>
</g>
<!-- Node1&#45;&gt;Node10 -->
<g id="edge9" class="edge"><title>Node1&#45;&gt;Node10</title>
<path fill="none" stroke="midnightblue" d="M159.635,-92.9808C178.408,-88.9316 198.814,-84.5304 217.92,-80.4095"/>
<polygon fill="midnightblue" stroke="midnightblue" points="218.74,-83.8132 227.777,-78.2834 217.264,-76.9705 218.74,-83.8132"/>
</g>
<!-- Node11 -->
<g id="node11" class="node"><title>Node11</title>
<g id="a_node11"><a xlink:href="../../d9/d24/classeditor_1_1wizards_1_1_wizard.html#a000a0be1e53ca727dc03770e6269db9c" target="_top" xlink:title="editor.wizards.Wizard.set\lSubmit">
<polygon fill="white" stroke="black" points="228,-0 228,-30 362,-30 362,-0 228,-0"/>
<text text-anchor="start" x="236" y="-18" font-family="Helvetica,sans-Serif" font-size="10.00">editor.wizards.Wizard.set</text>
<text text-anchor="middle" x="295" y="-7" font-family="Helvetica,sans-Serif" font-size="10.00">Submit</text>
</a>
</g>
</g>
<!-- Node1&#45;&gt;Node11 -->
<g id="edge10" class="edge"><title>Node1&#45;&gt;Node11</title>
<path fill="none" stroke="midnightblue" d="M113.459,-92.9217C137.836,-77.7446 177.461,-54.4322 214,-39 218.64,-37.0404 223.493,-35.1707 228.417,-33.4027"/>
<polygon fill="midnightblue" stroke="midnightblue" points="229.616,-36.6918 237.935,-30.1309 227.34,-30.072 229.616,-36.6918"/>
</g>
<!-- Node3 -->
<g id="node3" class="node"><title>Node3</title>
<g id="a_node3"><a xlink:href="../../df/ddb/classgame__engine_1_1game_representation_1_1state_representation_1_1_game_state.html#a6df7851d201fb6229f31f1c90d9794a0" target="_top" xlink:title="game_engine.gameRepresentation.state\lRepresentation.GameState.getCampaign">
<polygon fill="white" stroke="black" points="412.5,-235 412.5,-265 627.5,-265 627.5,-235 412.5,-235"/>
<text text-anchor="start" x="420.5" y="-253" font-family="Helvetica,sans-Serif" font-size="10.00">game_engine.gameRepresentation.state</text>
<text text-anchor="middle" x="520" y="-242" font-family="Helvetica,sans-Serif" font-size="10.00">Representation.GameState.getCampaign</text>
</a>
</g>
</g>
<!-- Node2&#45;&gt;Node3 -->
<g id="edge2" class="edge"><title>Node2&#45;&gt;Node3</title>
<path fill="none" stroke="midnightblue" d="M364.423,-216.035C388.611,-221.349 415.994,-227.367 440.923,-232.844"/>
<polygon fill="midnightblue" stroke="midnightblue" points="440.188,-236.266 450.707,-234.994 441.691,-229.429 440.188,-236.266"/>
</g>
<!-- Node4 -->
<g id="node4" class="node"><title>Node4</title>
<g id="a_node4"><a xlink:href="../../dd/dec/classgame__engine_1_1game_representation_1_1state_representation_1_1_campaign_state.html#a2018b4d3974341f2d77eb6f055e3ef34" target="_top" xlink:title="game_engine.gameRepresentation.state\lRepresentation.CampaignState.addLevel">
<polygon fill="white" stroke="black" points="414,-186 414,-216 626,-216 626,-186 414,-186"/>
<text text-anchor="start" x="422" y="-204" font-family="Helvetica,sans-Serif" font-size="10.00">game_engine.gameRepresentation.state</text>
<text text-anchor="middle" x="520" y="-193" font-family="Helvetica,sans-Serif" font-size="10.00">Representation.CampaignState.addLevel</text>
</a>
</g>
</g>
<!-- Node2&#45;&gt;Node4 -->
<g id="edge3" class="edge"><title>Node2&#45;&gt;Node4</title>
<path fill="none" stroke="midnightblue" d="M376.193,-201C385.18,-201 394.461,-201 403.778,-201"/>
<polygon fill="midnightblue" stroke="midnightblue" points="403.888,-204.5 413.888,-201 403.888,-197.5 403.888,-204.5"/>
</g>
<!-- Node7 -->
<g id="node7" class="node"><title>Node7</title>
<g id="a_node7"><a xlink:href="../../de/d50/classview_1_1_g_u_i_load_style_utility.html#a3f0bdbc7239563c54aa365afd86f620d" target="_top" xlink:title="view.GUILoadStyleUtility.generate\lGUIPane">
<polygon fill="white" stroke="black" points="432,-137 432,-167 608,-167 608,-137 432,-137"/>
<text text-anchor="start" x="440" y="-155" font-family="Helvetica,sans-Serif" font-size="10.00">view.GUILoadStyleUtility.generate</text>
<text text-anchor="middle" x="520" y="-144" font-family="Helvetica,sans-Serif" font-size="10.00">GUIPane</text>
</a>
</g>
</g>
<!-- Node6&#45;&gt;Node7 -->
<g id="edge6" class="edge"><title>Node6&#45;&gt;Node7</title>
<path fill="none" stroke="midnightblue" d="M344.388,-117.547C370.167,-122.634 402.659,-129.045 432.602,-134.953"/>
<polygon fill="midnightblue" stroke="midnightblue" points="432.158,-138.433 442.646,-136.935 433.513,-131.565 432.158,-138.433"/>
</g>
<!-- Node8 -->
<g id="node8" class="node"><title>Node8</title>
<g id="a_node8"><a xlink:href="../../d9/d24/classeditor_1_1wizards_1_1_wizard.html#a72e3a81c25878fea0201a98307c78622" target="_top" xlink:title="editor.wizards.Wizard.getRoot">
<polygon fill="white" stroke="black" points="442,-98.5 442,-117.5 598,-117.5 598,-98.5 442,-98.5"/>
<text text-anchor="middle" x="520" y="-105.5" font-family="Helvetica,sans-Serif" font-size="10.00">editor.wizards.Wizard.getRoot</text>
</a>
</g>
</g>
<!-- Node6&#45;&gt;Node8 -->
<g id="edge7" class="edge"><title>Node6&#45;&gt;Node8</title>
<path fill="none" stroke="midnightblue" d="M370.566,-108C390.171,-108 411.494,-108 431.702,-108"/>
<polygon fill="midnightblue" stroke="midnightblue" points="431.836,-111.5 441.836,-108 431.836,-104.5 431.836,-111.5"/>
</g>
<!-- Node9 -->
<g id="node9" class="node"><title>Node9</title>
<g id="a_node9"><a xlink:href="../../d9/d24/classeditor_1_1wizards_1_1_wizard.html#ae8a3ae83055f5b39fbafec5ea3a379eb" target="_top" xlink:title="editor.wizards.Wizard.set\lStage">
<polygon fill="white" stroke="black" points="453,-49 453,-79 587,-79 587,-49 453,-49"/>
<text text-anchor="start" x="461" y="-67" font-family="Helvetica,sans-Serif" font-size="10.00">editor.wizards.Wizard.set</text>
<text text-anchor="middle" x="520" y="-56" font-family="Helvetica,sans-Serif" font-size="10.00">Stage</text>
</a>
</g>
</g>
<!-- Node6&#45;&gt;Node9 -->
<g id="edge8" class="edge"><title>Node6&#45;&gt;Node9</title>
<path fill="none" stroke="midnightblue" d="M344.388,-98.4527C373.178,-92.7721 410.338,-85.44 442.973,-79.0009"/>
<polygon fill="midnightblue" stroke="midnightblue" points="443.808,-82.4037 452.941,-77.034 442.453,-75.5361 443.808,-82.4037"/>
</g>
</g>
</svg>
