<?xml version="1.0" encoding="UTF-8" standalone="no"?>
<!DOCTYPE svg PUBLIC "-//W3C//DTD SVG 1.1//EN"
 "http://www.w3.org/Graphics/SVG/1.1/DTD/svg11.dtd">
<!-- Generated by graphviz version 2.36.0 (20140111.2315)
 -->
<!-- Title: editor.EditorMenuBarController.onNewLevelClick Pages: 1 -->
<svg width="618pt" height="38pt"
 viewBox="0.00 0.00 618.00 38.00" xmlns="http://www.w3.org/2000/svg" xmlns:xlink="http://www.w3.org/1999/xlink">
<g id="graph0" class="graph" transform="scale(1 1) rotate(0) translate(4 34)">
<title>editor.EditorMenuBarController.onNewLevelClick</title>
<polygon fill="white" stroke="none" points="-4,4 -4,-34 614,-34 614,4 -4,4"/>
<!-- Node1 -->
<g id="node1" class="node"><title>Node1</title>
<polygon fill="#bfbfbf" stroke="black" points="0,-0 0,-30 178,-30 178,-0 0,-0"/>
<text text-anchor="start" x="8" y="-18" font-family="Helvetica,sans-Serif" font-size="10.00">editor.EditorMenuBarController.on</text>
<text text-anchor="middle" x="89" y="-7" font-family="Helvetica,sans-Serif" font-size="10.00">NewLevelClick</text>
</g>
<!-- Node2 -->
<g id="node2" class="node"><title>Node2</title>
<g id="a_node2"><a xlink:href="../../d1/d74/classeditor_1_1_editor_menu_bar_controller.html#a4263ec1503bc67c1ee7293d6fa303ab0" target="_top" xlink:title="editor.EditorMenuBarController.init\lFileMenu">
<polygon fill="white" stroke="black" points="214,-0 214,-30 394,-30 394,-0 214,-0"/>
<text text-anchor="start" x="222" y="-18" font-family="Helvetica,sans-Serif" font-size="10.00">editor.EditorMenuBarController.init</text>
<text text-anchor="middle" x="304" y="-7" font-family="Helvetica,sans-Serif" font-size="10.00">FileMenu</text>
</a>
</g>
</g>
<!-- Node1&#45;&gt;Node2 -->
<g id="edge1" class="edge"><title>Node1&#45;&gt;Node2</title>
<path fill="none" stroke="midnightblue" d="M188.179,-15C196.742,-15 205.378,-15 213.863,-15"/>
<polygon fill="midnightblue" stroke="midnightblue" points="188.173,-11.5001 178.173,-15 188.173,-18.5001 188.173,-11.5001"/>
</g>
<!-- Node3 -->
<g id="node3" class="node"><title>Node3</title>
<g id="a_node3"><a xlink:href="../../d1/d74/classeditor_1_1_editor_menu_bar_controller.html#a5e27bce310879b43b5726c8b90f98743" target="_top" xlink:title="editor.EditorMenuBarController.init">
<polygon fill="white" stroke="black" points="430,-5.5 430,-24.5 610,-24.5 610,-5.5 430,-5.5"/>
<text text-anchor="middle" x="520" y="-12.5" font-family="Helvetica,sans-Serif" font-size="10.00">editor.EditorMenuBarController.init</text>
</a>
</g>
</g>
<!-- Node2&#45;&gt;Node3 -->
<g id="edge2" class="edge"><title>Node2&#45;&gt;Node3</title>
<path fill="none" stroke="midnightblue" d="M404.23,-15C412.807,-15 421.45,-15 429.939,-15"/>
<polygon fill="midnightblue" stroke="midnightblue" points="404.206,-11.5001 394.206,-15 404.206,-18.5001 404.206,-11.5001"/>
</g>
</g>
</svg>
