<?xml version="1.0" encoding="UTF-8" standalone="no"?>
<!DOCTYPE svg PUBLIC "-//W3C//DTD SVG 1.1//EN"
 "http://www.w3.org/Graphics/SVG/1.1/DTD/svg11.dtd">
<!-- Generated by graphviz version 2.36.0 (20140111.2315)
 -->
<!-- Title: engine.gameRepresentation.renderedRepresentation.DrawableGameElement.update Pages: 1 -->
<!--zoomable 506 -->
<svg id="main" version="1.1" xmlns="http://www.w3.org/2000/svg" xmlns:xlink="http://www.w3.org/1999/xlink" xml:space="preserve" onload="init(evt)">
<style type="text/css"><![CDATA[
.edge:hover path { stroke: red; }
.edge:hover polygon { stroke: red; fill: red; }
]]></style>
<script type="text/javascript"><![CDATA[
var edges = document.getElementsByTagName('g');
if (edges && edges.length) {
  for (var i=0;i<edges.length;i++) {
    if (edges[i].id.substr(0,4)=='edge') {
      edges[i].setAttribute('class','edge');
    }
  }
}
]]></script>
        <defs>
                <circle id="rim" cx="0" cy="0" r="7"/>
                <circle id="rim2" cx="0" cy="0" r="3.5"/>
                <g id="zoomPlus">
                        <use xlink:href="#rim" fill="#404040">
                                <set attributeName="fill" to="#808080" begin="zoomplus.mouseover" end="zoomplus.mouseout"/>
                        </use>
                        <path d="M-4,0h8M0,-4v8" fill="none" stroke="white" stroke-width="1.5" pointer-events="none"/>
                </g>
                <g id="zoomMin">
                        <use xlink:href="#rim" fill="#404040">
                                <set attributeName="fill" to="#808080" begin="zoomminus.mouseover" end="zoomminus.mouseout"/>
                        </use>
                        <path d="M-4,0h8" fill="none" stroke="white" stroke-width="1.5" pointer-events="none"/>
                </g>
                <g id="dirArrow">
                        <path fill="none" stroke="white" stroke-width="1.5" d="M0,-3.0v7 M-2.5,-0.5L0,-3.0L2.5,-0.5"/>
                </g>
               <g id="resetDef">
                       <use xlink:href="#rim2" fill="#404040">
                               <set attributeName="fill" to="#808080" begin="reset.mouseover" end="reset.mouseout"/>
                       </use>
               </g>
        </defs>

<script type="text/javascript">
var viewWidth = 1876;
var viewHeight = 506;
var sectionId = 'dynsection-18';
</script>
<script xlink:href="../../svgpan.js"/>
<svg id="graph" class="graph">
<g id="viewport">
<title>engine.gameRepresentation.renderedRepresentation.DrawableGameElement.update</title>
<polygon fill="white" stroke="none" points="-4,4 -4,-501.577 1872,-501.577 1872,4 -4,4"/>
<!-- Node1 -->
<g id="node1" class="node"><title>Node1</title>
<polygon fill="#bfbfbf" stroke="black" points="0,-140.577 0,-170.577 242,-170.577 242,-140.577 0,-140.577"/>
<text text-anchor="start" x="8" y="-158.577" font-family="Helvetica,sans-Serif" font-size="10.00">engine.gameRepresentation.rendered</text>
<text text-anchor="middle" x="121" y="-147.577" font-family="Helvetica,sans-Serif" font-size="10.00">Representation.DrawableGameElement.update</text>
</g>
<!-- Node2 -->
<g id="node2" class="node"><title>Node2</title>
<g id="a_node2"><a xlink:href="../../d1/d3d/classengine_1_1visuals_1_1element_visuals_1_1_visualizer.html#a466845b3211a0266cb7435d18772b372" target="_top" xlink:title="engine.visuals.elementVisuals.\lVisualizer.update">
<polygon fill="white" stroke="black" points="278,-140.577 278,-170.577 442,-170.577 442,-140.577 278,-140.577"/>
<text text-anchor="start" x="286" y="-158.577" font-family="Helvetica,sans-Serif" font-size="10.00">engine.visuals.elementVisuals.</text>
<text text-anchor="middle" x="360" y="-147.577" font-family="Helvetica,sans-Serif" font-size="10.00">Visualizer.update</text>
</a>
</g>
</g>
<!-- Node1&#45;&gt;Node2 -->
<g id="edge1" class="edge"><title>Node1&#45;&gt;Node2</title>
<path fill="none" stroke="midnightblue" d="M242.236,-155.577C250.789,-155.577 259.33,-155.577 267.681,-155.577"/>
<polygon fill="midnightblue" stroke="midnightblue" points="267.761,-159.077 277.761,-155.577 267.761,-152.077 267.761,-159.077"/>
</g>
<!-- Node3 -->
<g id="node3" class="node"><title>Node3</title>
<g id="a_node3"><a xlink:href="../../d1/d3d/classengine_1_1visuals_1_1element_visuals_1_1_visualizer.html#a3a940cfc6093a46b3c1d53d77674ef15" target="_top" xlink:title="engine.visuals.elementVisuals.\lVisualizer.updateAnimator">
<polygon fill="white" stroke="black" points="478,-198.577 478,-228.577 642,-228.577 642,-198.577 478,-198.577"/>
<text text-anchor="start" x="486" y="-216.577" font-family="Helvetica,sans-Serif" font-size="10.00">engine.visuals.elementVisuals.</text>
<text text-anchor="middle" x="560" y="-205.577" font-family="Helvetica,sans-Serif" font-size="10.00">Visualizer.updateAnimator</text>
</a>
</g>
</g>
<!-- Node2&#45;&gt;Node3 -->
<g id="edge2" class="edge"><title>Node2&#45;&gt;Node3</title>
<path fill="none" stroke="midnightblue" d="M412.247,-170.589C438.372,-178.242 470.331,-187.604 497.748,-195.635"/>
<polygon fill="midnightblue" stroke="midnightblue" points="497.043,-199.075 507.624,-198.528 499.011,-192.358 497.043,-199.075"/>
</g>
<!-- Node22 -->
<g id="node22" class="node"><title>Node22</title>
<g id="a_node22"><a xlink:href="../../d1/d3d/classengine_1_1visuals_1_1element_visuals_1_1_visualizer.html#a09203ad8e7364581b507d89f948ac473" target="_top" xlink:title="engine.visuals.elementVisuals.\lVisualizer.updateWidgets">
<polygon fill="white" stroke="black" points="478,-140.577 478,-170.577 642,-170.577 642,-140.577 478,-140.577"/>
<text text-anchor="start" x="486" y="-158.577" font-family="Helvetica,sans-Serif" font-size="10.00">engine.visuals.elementVisuals.</text>
<text text-anchor="middle" x="560" y="-147.577" font-family="Helvetica,sans-Serif" font-size="10.00">Visualizer.updateWidgets</text>
</a>
</g>
</g>
<!-- Node2&#45;&gt;Node22 -->
<g id="edge24" class="edge"><title>Node2&#45;&gt;Node22</title>
<path fill="none" stroke="midnightblue" d="M442.105,-155.577C450.457,-155.577 458.985,-155.577 467.44,-155.577"/>
<polygon fill="midnightblue" stroke="midnightblue" points="467.7,-159.077 477.7,-155.577 467.7,-152.077 467.7,-159.077"/>
</g>
<!-- Node23 -->
<g id="node23" class="node"><title>Node23</title>
<g id="a_node23"><a xlink:href="../../d1/d3d/classengine_1_1visuals_1_1element_visuals_1_1_visualizer.html#a501e4f26bf0b1990c144caa3bd8e1f27" target="_top" xlink:title="engine.visuals.elementVisuals.\lVisualizer.updateNodeLocation">
<polygon fill="white" stroke="black" points="706,-41.5773 706,-71.5773 870,-71.5773 870,-41.5773 706,-41.5773"/>
<text text-anchor="start" x="714" y="-59.5773" font-family="Helvetica,sans-Serif" font-size="10.00">engine.visuals.elementVisuals.</text>
<text text-anchor="middle" x="788" y="-48.5773" font-family="Helvetica,sans-Serif" font-size="10.00">Visualizer.updateNodeLocation</text>
</a>
</g>
</g>
<!-- Node2&#45;&gt;Node23 -->
<g id="edge25" class="edge"><title>Node2&#45;&gt;Node23</title>
<path fill="none" stroke="midnightblue" d="M425.7,-140.541C502.708,-122.645 631.058,-92.8174 712.24,-73.951"/>
<polygon fill="midnightblue" stroke="midnightblue" points="713.442,-77.2651 722.39,-71.5922 711.857,-70.4467 713.442,-77.2651"/>
</g>
<!-- Node4 -->
<g id="node4" class="node"><title>Node4</title>
<g id="a_node4"><a xlink:href="../../d9/d50/classengine_1_1visuals_1_1element_visuals_1_1animations_1_1_animator.html#ad526dc47f566d23d4069513fc0731b41" target="_top" xlink:title="engine.visuals.elementVisuals.animations.\lAnimator.update">
<polygon fill="white" stroke="black" points="678,-271.577 678,-301.577 898,-301.577 898,-271.577 678,-271.577"/>
<text text-anchor="start" x="686" y="-289.577" font-family="Helvetica,sans-Serif" font-size="10.00">engine.visuals.elementVisuals.animations.</text>
<text text-anchor="middle" x="788" y="-278.577" font-family="Helvetica,sans-Serif" font-size="10.00">Animator.update</text>
</a>
</g>
</g>
<!-- Node3&#45;&gt;Node4 -->
<g id="edge3" class="edge"><title>Node3&#45;&gt;Node4</title>
<path fill="none" stroke="midnightblue" d="M607.553,-228.614C643.257,-240.147 692.686,-256.113 730.629,-268.369"/>
<polygon fill="midnightblue" stroke="midnightblue" points="729.915,-271.816 740.507,-271.56 732.067,-265.155 729.915,-271.816"/>
</g>
<!-- Node5 -->
<g id="node5" class="node"><title>Node5</title>
<g id="a_node5"><a xlink:href="../../d9/d50/classengine_1_1visuals_1_1element_visuals_1_1animations_1_1_animator.html#a092ef5ffb3d26308d05dbdb65dc89573" target="_top" xlink:title="engine.visuals.elementVisuals.animations.\lAnimator.determineCorrectAnimation">
<polygon fill="white" stroke="black" points="934,-320.577 934,-350.577 1154,-350.577 1154,-320.577 934,-320.577"/>
<text text-anchor="start" x="942" y="-338.577" font-family="Helvetica,sans-Serif" font-size="10.00">engine.visuals.elementVisuals.animations.</text>
<text text-anchor="middle" x="1044" y="-327.577" font-family="Helvetica,sans-Serif" font-size="10.00">Animator.determineCorrectAnimation</text>
</a>
</g>
</g>
<!-- Node4&#45;&gt;Node5 -->
<g id="edge4" class="edge"><title>Node4&#45;&gt;Node5</title>
<path fill="none" stroke="midnightblue" d="M866.935,-301.612C894.851,-306.997 926.504,-313.104 955.198,-318.639"/>
<polygon fill="midnightblue" stroke="midnightblue" points="954.731,-322.113 965.213,-320.571 956.057,-315.24 954.731,-322.113"/>
</g>
<!-- Node15 -->
<g id="node15" class="node"><title>Node15</title>
<g id="a_node15"><a xlink:href="../../d2/d9b/classengine_1_1visuals_1_1element_visuals_1_1animations_1_1_animation_sequence.html#adb4d206b22721d109e1ccc61939e2f21" target="_top" xlink:title="engine.visuals.elementVisuals.animations.\lAnimationSequence.update">
<polygon fill="white" stroke="black" points="934,-271.577 934,-301.577 1154,-301.577 1154,-271.577 934,-271.577"/>
<text text-anchor="start" x="942" y="-289.577" font-family="Helvetica,sans-Serif" font-size="10.00">engine.visuals.elementVisuals.animations.</text>
<text text-anchor="middle" x="1044" y="-278.577" font-family="Helvetica,sans-Serif" font-size="10.00">AnimationSequence.update</text>
</a>
</g>
</g>
<!-- Node4&#45;&gt;Node15 -->
<g id="edge16" class="edge"><title>Node4&#45;&gt;Node15</title>
<path fill="none" stroke="midnightblue" d="M898.193,-286.577C906.697,-286.577 915.311,-286.577 923.876,-286.577"/>
<polygon fill="midnightblue" stroke="midnightblue" points="923.899,-290.077 933.899,-286.577 923.899,-283.077 923.899,-290.077"/>
</g>
<!-- Node16 -->
<g id="node16" class="node"><title>Node16</title>
<g id="a_node16"><a xlink:href="../../d9/d50/classengine_1_1visuals_1_1element_visuals_1_1animations_1_1_animator.html#a98fe0d989e66bb4b49c862e3bd5969b7" target="_top" xlink:title="engine.visuals.elementVisuals.animations.\lAnimator.getViewport">
<polygon fill="white" stroke="black" points="934,-173.577 934,-203.577 1154,-203.577 1154,-173.577 934,-173.577"/>
<text text-anchor="start" x="942" y="-191.577" font-family="Helvetica,sans-Serif" font-size="10.00">engine.visuals.elementVisuals.animations.</text>
<text text-anchor="middle" x="1044" y="-180.577" font-family="Helvetica,sans-Serif" font-size="10.00">Animator.getViewport</text>
</a>
</g>
</g>
<!-- Node4&#45;&gt;Node16 -->
<g id="edge18" class="edge"><title>Node4&#45;&gt;Node16</title>
<path fill="none" stroke="midnightblue" d="M828.131,-271.48C872.786,-254.25 945.868,-226.053 994.204,-207.404"/>
<polygon fill="midnightblue" stroke="midnightblue" points="995.755,-210.557 1003.82,-203.692 993.235,-204.026 995.755,-210.557"/>
</g>
<!-- Node21 -->
<g id="node21" class="node"><title>Node21</title>
<g id="a_node21"><a xlink:href="../../d2/d9b/classengine_1_1visuals_1_1element_visuals_1_1animations_1_1_animation_sequence.html#a9b014ca8d8e9b071086d370623fda6b0" target="_top" xlink:title="engine.visuals.elementVisuals.animations.\lAnimationSequence.getFrame">
<polygon fill="white" stroke="black" points="934,-369.577 934,-399.577 1154,-399.577 1154,-369.577 934,-369.577"/>
<text text-anchor="start" x="942" y="-387.577" font-family="Helvetica,sans-Serif" font-size="10.00">engine.visuals.elementVisuals.animations.</text>
<text text-anchor="middle" x="1044" y="-376.577" font-family="Helvetica,sans-Serif" font-size="10.00">AnimationSequence.getFrame</text>
</a>
</g>
</g>
<!-- Node4&#45;&gt;Node21 -->
<g id="edge23" class="edge"><title>Node4&#45;&gt;Node21</title>
<path fill="none" stroke="midnightblue" d="M814.356,-301.715C842.662,-318.041 890.251,-343.809 934,-359.577 941.32,-362.216 949.02,-364.641 956.801,-366.854"/>
<polygon fill="midnightblue" stroke="midnightblue" points="956.109,-370.294 966.678,-369.546 957.95,-363.54 956.109,-370.294"/>
</g>
<!-- Node6 -->
<g id="node6" class="node"><title>Node6</title>
<g id="a_node6"><a xlink:href="../../d9/d50/classengine_1_1visuals_1_1element_visuals_1_1animations_1_1_animator.html#a100e616a39dfaf960317c145a4f985d4" target="_top" xlink:title="engine.visuals.elementVisuals.animations.\lAnimator.determineAnimationDirection">
<polygon fill="white" stroke="black" points="1190,-320.577 1190,-350.577 1410,-350.577 1410,-320.577 1190,-320.577"/>
<text text-anchor="start" x="1198" y="-338.577" font-family="Helvetica,sans-Serif" font-size="10.00">engine.visuals.elementVisuals.animations.</text>
<text text-anchor="middle" x="1300" y="-327.577" font-family="Helvetica,sans-Serif" font-size="10.00">Animator.determineAnimationDirection</text>
</a>
</g>
</g>
<!-- Node5&#45;&gt;Node6 -->
<g id="edge5" class="edge"><title>Node5&#45;&gt;Node6</title>
<path fill="none" stroke="midnightblue" d="M1154.19,-335.577C1162.7,-335.577 1171.31,-335.577 1179.88,-335.577"/>
<polygon fill="midnightblue" stroke="midnightblue" points="1179.9,-339.077 1189.9,-335.577 1179.9,-332.077 1179.9,-339.077"/>
</g>
<!-- Node9 -->
<g id="node9" class="node"><title>Node9</title>
<g id="a_node9"><a xlink:href="../../d9/d50/classengine_1_1visuals_1_1element_visuals_1_1animations_1_1_animator.html#a5ab8d0c347b91ee248c5d981b0502b12" target="_top" xlink:title="engine.visuals.elementVisuals.animations.\lAnimator.determineAnimationType">
<polygon fill="white" stroke="black" points="1190,-369.577 1190,-399.577 1410,-399.577 1410,-369.577 1190,-369.577"/>
<text text-anchor="start" x="1198" y="-387.577" font-family="Helvetica,sans-Serif" font-size="10.00">engine.visuals.elementVisuals.animations.</text>
<text text-anchor="middle" x="1300" y="-376.577" font-family="Helvetica,sans-Serif" font-size="10.00">Animator.determineAnimationType</text>
</a>
</g>
</g>
<!-- Node5&#45;&gt;Node9 -->
<g id="edge8" class="edge"><title>Node5&#45;&gt;Node9</title>
<path fill="none" stroke="midnightblue" d="M1122.93,-350.612C1150.85,-355.997 1182.5,-362.104 1211.2,-367.639"/>
<polygon fill="midnightblue" stroke="midnightblue" points="1210.73,-371.113 1221.21,-369.571 1212.06,-364.24 1210.73,-371.113"/>
</g>
<!-- Node11 -->
<g id="node11" class="node"><title>Node11</title>
<g id="a_node11"><a xlink:href="../../d5/d66/classengine_1_1visuals_1_1element_visuals_1_1animations_1_1_animator_state.html#a7635c43221365f249a37be0cd3815905" target="_top" xlink:title="engine.visuals.elementVisuals.animations.\lAnimatorState.getAnimationSequence">
<polygon fill="white" stroke="black" points="1190,-467.577 1190,-497.577 1410,-497.577 1410,-467.577 1190,-467.577"/>
<text text-anchor="start" x="1198" y="-485.577" font-family="Helvetica,sans-Serif" font-size="10.00">engine.visuals.elementVisuals.animations.</text>
<text text-anchor="middle" x="1300" y="-474.577" font-family="Helvetica,sans-Serif" font-size="10.00">AnimatorState.getAnimationSequence</text>
</a>
</g>
</g>
<!-- Node5&#45;&gt;Node11 -->
<g id="edge12" class="edge"><title>Node5&#45;&gt;Node11</title>
<path fill="none" stroke="midnightblue" d="M1139.63,-350.644C1144.77,-353.45 1149.62,-356.735 1154,-360.577 1188.56,-390.914 1155.44,-427.241 1190,-457.577 1191.78,-459.138 1193.63,-460.607 1195.56,-461.99"/>
<polygon fill="midnightblue" stroke="midnightblue" points="1194.04,-465.17 1204.37,-467.511 1197.76,-459.237 1194.04,-465.17"/>
</g>
<!-- Node12 -->
<g id="node12" class="node"><title>Node12</title>
<g id="a_node12"><a xlink:href="../../d2/d9b/classengine_1_1visuals_1_1element_visuals_1_1animations_1_1_animation_sequence.html#ae4fb60718e6b1f08f62c8ef19d5be53e" target="_top" xlink:title="engine.visuals.elementVisuals.animations.\lAnimationSequence.equals">
<polygon fill="white" stroke="black" points="1190,-418.577 1190,-448.577 1410,-448.577 1410,-418.577 1190,-418.577"/>
<text text-anchor="start" x="1198" y="-436.577" font-family="Helvetica,sans-Serif" font-size="10.00">engine.visuals.elementVisuals.animations.</text>
<text text-anchor="middle" x="1300" y="-425.577" font-family="Helvetica,sans-Serif" font-size="10.00">AnimationSequence.equals</text>
</a>
</g>
</g>
<!-- Node5&#45;&gt;Node12 -->
<g id="edge13" class="edge"><title>Node5&#45;&gt;Node12</title>
<path fill="none" stroke="midnightblue" d="M1134.88,-350.68C1141.6,-353.446 1148.06,-356.715 1154,-360.577 1176.36,-375.11 1167.64,-394.044 1190,-408.577 1193.16,-410.629 1196.46,-412.513 1199.87,-414.244"/>
<polygon fill="midnightblue" stroke="midnightblue" points="1198.57,-417.498 1209.12,-418.475 1201.48,-411.132 1198.57,-417.498"/>
</g>
<!-- Node14 -->
<g id="node14" class="node"><title>Node14</title>
<g id="a_node14"><a xlink:href="../../d2/d9b/classengine_1_1visuals_1_1element_visuals_1_1animations_1_1_animation_sequence.html#aabb112caa8e570bdcad2dcf319d08d28" target="_top" xlink:title="engine.visuals.elementVisuals.animations.\lAnimationSequence.reset">
<polygon fill="white" stroke="black" points="1190,-271.577 1190,-301.577 1410,-301.577 1410,-271.577 1190,-271.577"/>
<text text-anchor="start" x="1198" y="-289.577" font-family="Helvetica,sans-Serif" font-size="10.00">engine.visuals.elementVisuals.animations.</text>
<text text-anchor="middle" x="1300" y="-278.577" font-family="Helvetica,sans-Serif" font-size="10.00">AnimationSequence.reset</text>
</a>
</g>
</g>
<!-- Node5&#45;&gt;Node14 -->
<g id="edge15" class="edge"><title>Node5&#45;&gt;Node14</title>
<path fill="none" stroke="midnightblue" d="M1122.93,-320.543C1150.85,-315.157 1182.5,-309.051 1211.2,-303.515"/>
<polygon fill="midnightblue" stroke="midnightblue" points="1212.06,-306.914 1221.21,-301.583 1210.73,-300.041 1212.06,-306.914"/>
</g>
<!-- Node7 -->
<g id="node7" class="node"><title>Node7</title>
<g id="a_node7"><a xlink:href="../../da/dc5/classmodel_1_1state_1_1gameelement_1_1_attribute_container.html#a5f0e6026d1877c9e4f04fe389163970c" target="_top" xlink:title="model.state.gameelement.\lAttributeContainer.getNumerical\lAttribute">
<polygon fill="white" stroke="black" points="1470,-304.077 1470,-345.077 1642,-345.077 1642,-304.077 1470,-304.077"/>
<text text-anchor="start" x="1478" y="-333.077" font-family="Helvetica,sans-Serif" font-size="10.00">model.state.gameelement.</text>
<text text-anchor="start" x="1478" y="-322.077" font-family="Helvetica,sans-Serif" font-size="10.00">AttributeContainer.getNumerical</text>
<text text-anchor="middle" x="1556" y="-311.077" font-family="Helvetica,sans-Serif" font-size="10.00">Attribute</text>
</a>
</g>
</g>
<!-- Node6&#45;&gt;Node7 -->
<g id="edge6" class="edge"><title>Node6&#45;&gt;Node7</title>
<path fill="none" stroke="midnightblue" d="M1410.19,-330.848C1426.52,-330.141 1443.24,-329.417 1459.26,-328.724"/>
<polygon fill="midnightblue" stroke="midnightblue" points="1459.83,-332.202 1469.67,-328.273 1459.53,-325.209 1459.83,-332.202"/>
</g>
<!-- Node8 -->
<g id="node8" class="node"><title>Node8</title>
<g id="a_node8"><a xlink:href="../../da/dc5/classmodel_1_1state_1_1gameelement_1_1_attribute_container.html#a59a08ce23cf989feca0a78b2642364d4" target="_top" xlink:title="model.state.gameelement.\lAttributeContainer.getAttribute">
<polygon fill="white" stroke="black" points="1702.5,-339.577 1702.5,-369.577 1867.5,-369.577 1867.5,-339.577 1702.5,-339.577"/>
<text text-anchor="start" x="1710.5" y="-357.577" font-family="Helvetica,sans-Serif" font-size="10.00">model.state.gameelement.</text>
<text text-anchor="middle" x="1785" y="-346.577" font-family="Helvetica,sans-Serif" font-size="10.00">AttributeContainer.getAttribute</text>
</a>
</g>
</g>
<!-- Node7&#45;&gt;Node8 -->
<g id="edge7" class="edge"><title>Node7&#45;&gt;Node8</title>
<path fill="none" stroke="midnightblue" d="M1642.17,-335.833C1658.53,-337.995 1675.72,-340.268 1692.28,-342.455"/>
<polygon fill="midnightblue" stroke="midnightblue" points="1692.12,-345.964 1702.49,-343.805 1693.03,-339.025 1692.12,-345.964"/>
</g>
<!-- Node9&#45;&gt;Node7 -->
<g id="edge9" class="edge"><title>Node9&#45;&gt;Node7</title>
<path fill="none" stroke="midnightblue" d="M1367.03,-369.561C1381.21,-366.299 1396.11,-362.847 1410,-359.577 1426.44,-355.709 1443.91,-351.54 1460.82,-347.476"/>
<polygon fill="midnightblue" stroke="midnightblue" points="1461.79,-350.841 1470.7,-345.098 1460.16,-344.035 1461.79,-350.841"/>
</g>
<!-- Node10 -->
<g id="node10" class="node"><title>Node10</title>
<g id="a_node10"><a xlink:href="../../da/dc5/classmodel_1_1state_1_1gameelement_1_1_attribute_container.html#a8a042f15b78a8ff954168334572f49ff" target="_top" xlink:title="model.state.gameelement.\lAttributeContainer.getTextual\lAttribute">
<polygon fill="white" stroke="black" points="1478,-364.077 1478,-405.077 1634,-405.077 1634,-364.077 1478,-364.077"/>
<text text-anchor="start" x="1486" y="-393.077" font-family="Helvetica,sans-Serif" font-size="10.00">model.state.gameelement.</text>
<text text-anchor="start" x="1486" y="-382.077" font-family="Helvetica,sans-Serif" font-size="10.00">AttributeContainer.getTextual</text>
<text text-anchor="middle" x="1556" y="-371.077" font-family="Helvetica,sans-Serif" font-size="10.00">Attribute</text>
</a>
</g>
</g>
<!-- Node9&#45;&gt;Node10 -->
<g id="edge10" class="edge"><title>Node9&#45;&gt;Node10</title>
<path fill="none" stroke="midnightblue" d="M1410.19,-384.577C1429.37,-384.577 1449.09,-384.577 1467.57,-384.577"/>
<polygon fill="midnightblue" stroke="midnightblue" points="1467.7,-388.077 1477.7,-384.577 1467.7,-381.077 1467.7,-388.077"/>
</g>
<!-- Node10&#45;&gt;Node8 -->
<g id="edge11" class="edge"><title>Node10&#45;&gt;Node8</title>
<path fill="none" stroke="midnightblue" d="M1634.17,-374.379C1652.88,-371.905 1673.07,-369.237 1692.39,-366.685"/>
<polygon fill="midnightblue" stroke="midnightblue" points="1692.94,-370.143 1702.39,-365.362 1692.02,-363.203 1692.94,-370.143"/>
</g>
<!-- Node13 -->
<g id="node13" class="node"><title>Node13</title>
<g id="a_node13"><a xlink:href="../../d2/d9b/classengine_1_1visuals_1_1element_visuals_1_1animations_1_1_animation_sequence.html#a263163a9b3773ee35e5b83cc88e71172" target="_top" xlink:title="engine.visuals.elementVisuals.animations.\lAnimationSequence.hashCode">
<polygon fill="white" stroke="black" points="1446,-423.577 1446,-453.577 1666,-453.577 1666,-423.577 1446,-423.577"/>
<text text-anchor="start" x="1454" y="-441.577" font-family="Helvetica,sans-Serif" font-size="10.00">engine.visuals.elementVisuals.animations.</text>
<text text-anchor="middle" x="1556" y="-430.577" font-family="Helvetica,sans-Serif" font-size="10.00">AnimationSequence.hashCode</text>
</a>
</g>
</g>
<!-- Node12&#45;&gt;Node13 -->
<g id="edge14" class="edge"><title>Node12&#45;&gt;Node13</title>
<path fill="none" stroke="midnightblue" d="M1410.19,-435.727C1418.7,-435.894 1427.31,-436.064 1435.88,-436.232"/>
<polygon fill="midnightblue" stroke="midnightblue" points="1435.83,-439.732 1445.9,-436.43 1435.97,-432.733 1435.83,-439.732"/>
</g>
<!-- Node15&#45;&gt;Node14 -->
<g id="edge17" class="edge"><title>Node15&#45;&gt;Node14</title>
<path fill="none" stroke="midnightblue" d="M1154.19,-286.577C1162.7,-286.577 1171.31,-286.577 1179.88,-286.577"/>
<polygon fill="midnightblue" stroke="midnightblue" points="1179.9,-290.077 1189.9,-286.577 1179.9,-283.077 1179.9,-290.077"/>
</g>
<!-- Node17 -->
<g id="node17" class="node"><title>Node17</title>
<g id="a_node17"><a xlink:href="../../d5/d66/classengine_1_1visuals_1_1element_visuals_1_1animations_1_1_animator_state.html#aab31fc22fe93a14c52e8b1af2759b3cb" target="_top" xlink:title="engine.visuals.elementVisuals.animations.\lAnimatorState.getNumRows">
<polygon fill="white" stroke="black" points="1190,-124.577 1190,-154.577 1410,-154.577 1410,-124.577 1190,-124.577"/>
<text text-anchor="start" x="1198" y="-142.577" font-family="Helvetica,sans-Serif" font-size="10.00">engine.visuals.elementVisuals.animations.</text>
<text text-anchor="middle" x="1300" y="-131.577" font-family="Helvetica,sans-Serif" font-size="10.00">AnimatorState.getNumRows</text>
</a>
</g>
</g>
<!-- Node16&#45;&gt;Node17 -->
<g id="edge19" class="edge"><title>Node16&#45;&gt;Node17</title>
<path fill="none" stroke="midnightblue" d="M1122.93,-173.543C1150.85,-168.157 1182.5,-162.051 1211.2,-156.515"/>
<polygon fill="midnightblue" stroke="midnightblue" points="1212.06,-159.914 1221.21,-154.583 1210.73,-153.041 1212.06,-159.914"/>
</g>
<!-- Node18 -->
<g id="node18" class="node"><title>Node18</title>
<g id="a_node18"><a xlink:href="../../d5/d66/classengine_1_1visuals_1_1element_visuals_1_1animations_1_1_animator_state.html#a339c05582a2dafd4ae2d3114a3cc9d22" target="_top" xlink:title="engine.visuals.elementVisuals.animations.\lAnimatorState.getViewportSize">
<polygon fill="white" stroke="black" points="1190,-75.5773 1190,-105.577 1410,-105.577 1410,-75.5773 1190,-75.5773"/>
<text text-anchor="start" x="1198" y="-93.5773" font-family="Helvetica,sans-Serif" font-size="10.00">engine.visuals.elementVisuals.animations.</text>
<text text-anchor="middle" x="1300" y="-82.5773" font-family="Helvetica,sans-Serif" font-size="10.00">AnimatorState.getViewportSize</text>
</a>
</g>
</g>
<!-- Node16&#45;&gt;Node18 -->
<g id="edge20" class="edge"><title>Node16&#45;&gt;Node18</title>
<path fill="none" stroke="midnightblue" d="M1069.79,-173.442C1097.98,-156.827 1145.84,-130.413 1190,-114.577 1196.31,-112.314 1202.91,-110.224 1209.6,-108.302"/>
<polygon fill="midnightblue" stroke="midnightblue" points="1210.72,-111.623 1219.44,-105.606 1208.87,-104.872 1210.72,-111.623"/>
</g>
<!-- Node19 -->
<g id="node19" class="node"><title>Node19</title>
<g id="a_node19"><a xlink:href="../../d3/db1/classengine_1_1visuals_1_1_dimension.html#afc3adb9f5b9c7a3b461d2bfb80119b64" target="_top" xlink:title="engine.visuals.Dimension.get\lWidth">
<polygon fill="white" stroke="black" points="1221.5,-222.577 1221.5,-252.577 1378.5,-252.577 1378.5,-222.577 1221.5,-222.577"/>
<text text-anchor="start" x="1229.5" y="-240.577" font-family="Helvetica,sans-Serif" font-size="10.00">engine.visuals.Dimension.get</text>
<text text-anchor="middle" x="1300" y="-229.577" font-family="Helvetica,sans-Serif" font-size="10.00">Width</text>
</a>
</g>
</g>
<!-- Node16&#45;&gt;Node19 -->
<g id="edge21" class="edge"><title>Node16&#45;&gt;Node19</title>
<path fill="none" stroke="midnightblue" d="M1122.93,-203.612C1150.85,-208.997 1182.5,-215.104 1211.2,-220.639"/>
<polygon fill="midnightblue" stroke="midnightblue" points="1210.73,-224.113 1221.21,-222.571 1212.06,-217.24 1210.73,-224.113"/>
</g>
<!-- Node20 -->
<g id="node20" class="node"><title>Node20</title>
<g id="a_node20"><a xlink:href="../../d3/db1/classengine_1_1visuals_1_1_dimension.html#a82ef95c122b8f281e9e1b317f9110d5a" target="_top" xlink:title="engine.visuals.Dimension.get\lHeight">
<polygon fill="white" stroke="black" points="1221.5,-173.577 1221.5,-203.577 1378.5,-203.577 1378.5,-173.577 1221.5,-173.577"/>
<text text-anchor="start" x="1229.5" y="-191.577" font-family="Helvetica,sans-Serif" font-size="10.00">engine.visuals.Dimension.get</text>
<text text-anchor="middle" x="1300" y="-180.577" font-family="Helvetica,sans-Serif" font-size="10.00">Height</text>
</a>
</g>
</g>
<!-- Node16&#45;&gt;Node20 -->
<g id="edge22" class="edge"><title>Node16&#45;&gt;Node20</title>
<path fill="none" stroke="midnightblue" d="M1154.19,-188.577C1173.25,-188.577 1192.86,-188.577 1211.25,-188.577"/>
<polygon fill="midnightblue" stroke="midnightblue" points="1211.33,-192.077 1221.33,-188.577 1211.32,-185.077 1211.33,-192.077"/>
</g>
<!-- Node23&#45;&gt;Node7 -->
<g id="edge26" class="edge"><title>Node23&#45;&gt;Node7</title>
<path fill="none" stroke="midnightblue" d="M839.814,-41.493C951.987,-11.3611 1225.45,44.4105 1410,-65.5773 1495.22,-116.368 1534.27,-237.241 1548.39,-294.066"/>
<polygon fill="midnightblue" stroke="midnightblue" points="1545.02,-294.989 1550.75,-303.9 1551.82,-293.36 1545.02,-294.989"/>
</g>
</g>
</svg>
        <g id="navigator" transform="translate(0 0)" fill="#404254">
                <rect fill="#f2f5e9" fill-opacity="0.5" stroke="#606060" stroke-width=".5" x="0" y="0" width="60" height="60"/>
                <use id="zoomplus" xlink:href="#zoomPlus" x="17" y="9" onmousedown="handleZoom(evt,'in')"/>
                <use id="zoomminus" xlink:href="#zoomMin" x="42" y="9" onmousedown="handleZoom(evt,'out')"/>
                <use id="reset" xlink:href="#resetDef" x="30" y="36" onmousedown="handleReset()"/>
                <g id="arrowUp" xlink:href="#dirArrow" transform="translate(30 24)" onmousedown="handlePan(0,-1)">
                  <use xlink:href="#rim" fill="#404040">
                        <set attributeName="fill" to="#808080" begin="arrowUp.mouseover" end="arrowUp.mouseout"/>
                  </use>
                  <path fill="none" stroke="white" stroke-width="1.5" d="M0,-3.0v7 M-2.5,-0.5L0,-3.0L2.5,-0.5"/>
                </g>
                <g id="arrowRight" xlink:href="#dirArrow" transform="rotate(90) translate(36 -43)" onmousedown="handlePan(1,0)">
                  <use xlink:href="#rim" fill="#404040">
                        <set attributeName="fill" to="#808080" begin="arrowRight.mouseover" end="arrowRight.mouseout"/>
                  </use>
                  <path fill="none" stroke="white" stroke-width="1.5" d="M0,-3.0v7 M-2.5,-0.5L0,-3.0L2.5,-0.5"/>
                </g>
                <g id="arrowDown" xlink:href="#dirArrow" transform="rotate(180) translate(-30 -48)" onmousedown="handlePan(0,1)">
                  <use xlink:href="#rim" fill="#404040">
                        <set attributeName="fill" to="#808080" begin="arrowDown.mouseover" end="arrowDown.mouseout"/>
                  </use>
                  <path fill="none" stroke="white" stroke-width="1.5" d="M0,-3.0v7 M-2.5,-0.5L0,-3.0L2.5,-0.5"/>
                </g>
                <g id="arrowLeft" xlink:href="#dirArrow" transform="rotate(270) translate(-36 17)" onmousedown="handlePan(-1,0)">
                  <use xlink:href="#rim" fill="#404040">
                        <set attributeName="fill" to="#808080" begin="arrowLeft.mouseover" end="arrowLeft.mouseout"/>
                  </use>
                  <path fill="none" stroke="white" stroke-width="1.5" d="M0,-3.0v7 M-2.5,-0.5L0,-3.0L2.5,-0.5"/>
                </g>
        </g>
        <svg viewBox="0 0 15 15" width="100%" height="30px" preserveAspectRatio="xMaxYMin meet">
         <g id="arrow_out" transform="scale(0.3 0.3)">
          <a xlink:href="classengine_1_1game_representation_1_1rendered_representation_1_1_drawable_game_element_a2d69796817cdb4f32ada0982e19df9bc_cgraph_org.svg" target="_base">
           <rect id="button" ry="5" rx="5" y="6" x="6" height="38" width="38"
                fill="#f2f5e9" fill-opacity="0.5" stroke="#606060" stroke-width="1.0"/>
           <path id="arrow"
             d="M 11.500037,31.436501 C 11.940474,20.09759 22.043105,11.32322 32.158766,21.979434 L 37.068811,17.246167 C 37.068811,17.246167 37.088388,32 37.088388,32 L 22.160133,31.978069 C 22.160133,31.978069 26.997745,27.140456 26.997745,27.140456 C 18.528582,18.264221 13.291696,25.230495 11.500037,31.436501 z"
             style="fill:#404040;"/>
          </a>
         </g>
        </svg>
</svg>
