<?xml version="1.0" encoding="UTF-8" standalone="no"?>
<!DOCTYPE svg PUBLIC "-//W3C//DTD SVG 1.1//EN"
 "http://www.w3.org/Graphics/SVG/1.1/DTD/svg11.dtd">
<!-- Generated by graphviz version 2.36.0 (20140111.2315)
 -->
<!-- Title: engine.gameRepresentation.renderedRepresentation.DrawableGameElement.getPosition Pages: 1 -->
<svg width="432pt" height="48pt"
 viewBox="0.00 0.00 432.00 48.00" xmlns="http://www.w3.org/2000/svg" xmlns:xlink="http://www.w3.org/1999/xlink">
<g id="graph0" class="graph" transform="scale(1 1) rotate(0) translate(4 44)">
<title>engine.gameRepresentation.renderedRepresentation.DrawableGameElement.getPosition</title>
<polygon fill="white" stroke="none" points="-4,4 -4,-44 428,-44 428,4 -4,4"/>
<!-- Node1 -->
<g id="node1" class="node"><title>Node1</title>
<polygon fill="#bfbfbf" stroke="black" points="0,0.5 0,-40.5 224,-40.5 224,0.5 0,0.5"/>
<text text-anchor="start" x="8" y="-28.5" font-family="Helvetica,sans-Serif" font-size="10.00">engine.gameRepresentation.rendered</text>
<text text-anchor="start" x="8" y="-17.5" font-family="Helvetica,sans-Serif" font-size="10.00">Representation.DrawableGameElement.get</text>
<text text-anchor="middle" x="112" y="-6.5" font-family="Helvetica,sans-Serif" font-size="10.00">Position</text>
</g>
<!-- Node2 -->
<g id="node2" class="node"><title>Node2</title>
<g id="a_node2"><a xlink:href="../../d1/d3d/classengine_1_1visuals_1_1element_visuals_1_1_visualizer.html#abe00fd585f3cccf00ee753203b284fe3" target="_top" xlink:title="engine.visuals.elementVisuals.\lVisualizer.getNodeLocation">
<polygon fill="white" stroke="black" points="260,-5 260,-35 424,-35 424,-5 260,-5"/>
<text text-anchor="start" x="268" y="-23" font-family="Helvetica,sans-Serif" font-size="10.00">engine.visuals.elementVisuals.</text>
<text text-anchor="middle" x="342" y="-12" font-family="Helvetica,sans-Serif" font-size="10.00">Visualizer.getNodeLocation</text>
</a>
</g>
</g>
<!-- Node1&#45;&gt;Node2 -->
<g id="edge1" class="edge"><title>Node1&#45;&gt;Node2</title>
<path fill="none" stroke="midnightblue" d="M224.328,-20C232.847,-20 241.385,-20 249.754,-20"/>
<polygon fill="midnightblue" stroke="midnightblue" points="249.863,-23.5001 259.863,-20 249.863,-16.5001 249.863,-23.5001"/>
</g>
</g>
</svg>
