<?xml version="1.0" encoding="UTF-8" standalone="no"?>
<!DOCTYPE svg PUBLIC "-//W3C//DTD SVG 1.1//EN"
 "http://www.w3.org/Graphics/SVG/1.1/DTD/svg11.dtd">
<!-- Generated by graphviz version 2.36.0 (20140111.2315)
 -->
<!-- Title: engine.gameRepresentation.renderedRepresentation.DrawableGameElement.getPosition Pages: 1 -->
<svg width="1226pt" height="87pt"
 viewBox="0.00 0.00 1226.00 87.00" xmlns="http://www.w3.org/2000/svg" xmlns:xlink="http://www.w3.org/1999/xlink">
<g id="graph0" class="graph" transform="scale(1 1) rotate(0) translate(4 83)">
<title>engine.gameRepresentation.renderedRepresentation.DrawableGameElement.getPosition</title>
<polygon fill="white" stroke="none" points="-4,4 -4,-83 1222,-83 1222,4 -4,4"/>
<!-- Node1 -->
<g id="node1" class="node"><title>Node1</title>
<polygon fill="#bfbfbf" stroke="black" points="0,-18.5 0,-59.5 224,-59.5 224,-18.5 0,-18.5"/>
<text text-anchor="start" x="8" y="-47.5" font-family="Helvetica,sans-Serif" font-size="10.00">engine.gameRepresentation.rendered</text>
<text text-anchor="start" x="8" y="-36.5" font-family="Helvetica,sans-Serif" font-size="10.00">Representation.DrawableGameElement.get</text>
<text text-anchor="middle" x="112" y="-25.5" font-family="Helvetica,sans-Serif" font-size="10.00">Position</text>
</g>
<!-- Node2 -->
<g id="node2" class="node"><title>Node2</title>
<g id="a_node2"><a xlink:href="../../d2/de9/classengine_1_1visuals_1_1_mini_map.html#aa545380bd8f999e045b08010e464a168" target="_top" xlink:title="engine.visuals.MiniMap.set\lUnitShape">
<polygon fill="white" stroke="black" points="260,-24 260,-54 404,-54 404,-24 260,-24"/>
<text text-anchor="start" x="268" y="-42" font-family="Helvetica,sans-Serif" font-size="10.00">engine.visuals.MiniMap.set</text>
<text text-anchor="middle" x="332" y="-31" font-family="Helvetica,sans-Serif" font-size="10.00">UnitShape</text>
</a>
</g>
</g>
<!-- Node1&#45;&gt;Node2 -->
<g id="edge1" class="edge"><title>Node1&#45;&gt;Node2</title>
<path fill="none" stroke="midnightblue" d="M234.399,-39C243.027,-39 251.55,-39 259.748,-39"/>
<polygon fill="midnightblue" stroke="midnightblue" points="234.235,-35.5001 224.235,-39 234.235,-42.5001 234.235,-35.5001"/>
</g>
<!-- Node3 -->
<g id="node3" class="node"><title>Node3</title>
<g id="a_node3"><a xlink:href="../../d2/de9/classengine_1_1visuals_1_1_mini_map.html#aaf0c6d66cb481c4cb5507bf38acbd68b" target="_top" xlink:title="engine.visuals.MiniMap.move\lUnits">
<polygon fill="white" stroke="black" points="440,-24 440,-54 596,-54 596,-24 440,-24"/>
<text text-anchor="start" x="448" y="-42" font-family="Helvetica,sans-Serif" font-size="10.00">engine.visuals.MiniMap.move</text>
<text text-anchor="middle" x="518" y="-31" font-family="Helvetica,sans-Serif" font-size="10.00">Units</text>
</a>
</g>
</g>
<!-- Node2&#45;&gt;Node3 -->
<g id="edge2" class="edge"><title>Node2&#45;&gt;Node3</title>
<path fill="none" stroke="midnightblue" d="M414.412,-39C422.9,-39 431.509,-39 439.946,-39"/>
<polygon fill="midnightblue" stroke="midnightblue" points="414.139,-35.5001 404.139,-39 414.139,-42.5001 414.139,-35.5001"/>
</g>
<!-- Node4 -->
<g id="node4" class="node"><title>Node4</title>
<g id="a_node4"><a xlink:href="../../d2/de9/classengine_1_1visuals_1_1_mini_map.html#aa9c49ec7b002d6b193e07a42771b9a1d" target="_top" xlink:title="engine.visuals.MiniMap.update\lMiniMap">
<polygon fill="white" stroke="black" points="632.5,-24 632.5,-54 795.5,-54 795.5,-24 632.5,-24"/>
<text text-anchor="start" x="640.5" y="-42" font-family="Helvetica,sans-Serif" font-size="10.00">engine.visuals.MiniMap.update</text>
<text text-anchor="middle" x="714" y="-31" font-family="Helvetica,sans-Serif" font-size="10.00">MiniMap</text>
</a>
</g>
</g>
<!-- Node3&#45;&gt;Node4 -->
<g id="edge3" class="edge"><title>Node3&#45;&gt;Node4</title>
<path fill="none" stroke="midnightblue" d="M606.297,-39C614.927,-39 623.66,-39 632.219,-39"/>
<polygon fill="midnightblue" stroke="midnightblue" points="606.231,-35.5001 596.231,-39 606.231,-42.5001 606.231,-35.5001"/>
</g>
<!-- Node5 -->
<g id="node5" class="node"><title>Node5</title>
<g id="a_node5"><a xlink:href="../../d3/d61/classengine_1_1visuals_1_1_visual_manager.html#a5bd2adc4f3bb17dd5ed51909689d8f91" target="_top" xlink:title="engine.visuals.VisualManager.update">
<polygon fill="white" stroke="black" points="832,-29.5 832,-48.5 1026,-48.5 1026,-29.5 832,-29.5"/>
<text text-anchor="middle" x="929" y="-36.5" font-family="Helvetica,sans-Serif" font-size="10.00">engine.visuals.VisualManager.update</text>
</a>
</g>
</g>
<!-- Node4&#45;&gt;Node5 -->
<g id="edge4" class="edge"><title>Node4&#45;&gt;Node5</title>
<path fill="none" stroke="midnightblue" d="M805.661,-39C814.362,-39 823.208,-39 831.959,-39"/>
<polygon fill="midnightblue" stroke="midnightblue" points="805.526,-35.5001 795.526,-39 805.526,-42.5001 805.526,-35.5001"/>
</g>
<!-- Node6 -->
<g id="node6" class="node"><title>Node6</title>
<g id="a_node6"><a xlink:href="../../d2/d87/classengine_1_1state_managing_1_1_game_loop.html#ab3cf1b000f90849c5389fbd90b147602" target="_top" xlink:title="engine.stateManaging.Game\lLoop.updateRunner">
<polygon fill="white" stroke="black" points="1062.5,-49 1062.5,-79 1217.5,-79 1217.5,-49 1062.5,-49"/>
<text text-anchor="start" x="1070.5" y="-67" font-family="Helvetica,sans-Serif" font-size="10.00">engine.stateManaging.Game</text>
<text text-anchor="middle" x="1140" y="-56" font-family="Helvetica,sans-Serif" font-size="10.00">Loop.updateRunner</text>
</a>
</g>
</g>
<!-- Node5&#45;&gt;Node6 -->
<g id="edge5" class="edge"><title>Node5&#45;&gt;Node6</title>
<path fill="none" stroke="midnightblue" d="M1019.84,-49.7469C1034.01,-51.4413 1048.54,-53.1795 1062.37,-54.8337"/>
<polygon fill="midnightblue" stroke="midnightblue" points="1019.96,-46.2353 1009.61,-48.5227 1019.12,-53.1858 1019.96,-46.2353"/>
</g>
<!-- Node7 -->
<g id="node7" class="node"><title>Node7</title>
<g id="a_node7"><a xlink:href="../../d2/d87/classengine_1_1state_managing_1_1_game_loop.html#a6b4981af45d656d6bfffa3a6ad9b0b9d" target="_top" xlink:title="engine.stateManaging.Game\lLoop.updateEditor">
<polygon fill="white" stroke="black" points="1062.5,-0 1062.5,-30 1217.5,-30 1217.5,-0 1062.5,-0"/>
<text text-anchor="start" x="1070.5" y="-18" font-family="Helvetica,sans-Serif" font-size="10.00">engine.stateManaging.Game</text>
<text text-anchor="middle" x="1140" y="-7" font-family="Helvetica,sans-Serif" font-size="10.00">Loop.updateEditor</text>
</a>
</g>
</g>
<!-- Node5&#45;&gt;Node7 -->
<g id="edge6" class="edge"><title>Node5&#45;&gt;Node7</title>
<path fill="none" stroke="midnightblue" d="M1022.91,-28.3309C1036.08,-26.8186 1049.5,-25.2779 1062.31,-23.8062"/>
<polygon fill="midnightblue" stroke="midnightblue" points="1022.44,-24.862 1012.9,-29.4801 1023.24,-31.8163 1022.44,-24.862"/>
</g>
</g>
</svg>
