<?xml version="1.0" encoding="UTF-8" standalone="no"?>
<!DOCTYPE svg PUBLIC "-//W3C//DTD SVG 1.1//EN"
 "http://www.w3.org/Graphics/SVG/1.1/DTD/svg11.dtd">
<!-- Generated by graphviz version 2.36.0 (20140111.2315)
 -->
<!-- Title: engine.gameRepresentation.renderedRepresentation.DrawableGameElement.getBounds Pages: 1 -->
<svg width="502pt" height="38pt"
 viewBox="0.00 0.00 502.00 38.00" xmlns="http://www.w3.org/2000/svg" xmlns:xlink="http://www.w3.org/1999/xlink">
<g id="graph0" class="graph" transform="scale(1 1) rotate(0) translate(4 34)">
<title>engine.gameRepresentation.renderedRepresentation.DrawableGameElement.getBounds</title>
<polygon fill="white" stroke="none" points="-4,4 -4,-34 498,-34 498,4 -4,4"/>
<!-- Node1 -->
<g id="node1" class="node"><title>Node1</title>
<polygon fill="#bfbfbf" stroke="black" points="0,-0 0,-30 260,-30 260,-0 0,-0"/>
<text text-anchor="start" x="8" y="-18" font-family="Helvetica,sans-Serif" font-size="10.00">engine.gameRepresentation.rendered</text>
<text text-anchor="middle" x="130" y="-7" font-family="Helvetica,sans-Serif" font-size="10.00">Representation.DrawableGameElement.getBounds</text>
</g>
<!-- Node2 -->
<g id="node2" class="node"><title>Node2</title>
<g id="a_node2"><a xlink:href="../../db/d6f/classengine_1_1game_representation_1_1rendered_representation_1_1_level.html#aa4cb01e38b312497df4e237d409878cb" target="_top" xlink:title="engine.gameRepresentation.rendered\lRepresentation.Level.addElement">
<polygon fill="white" stroke="black" points="296,-0 296,-30 494,-30 494,-0 296,-0"/>
<text text-anchor="start" x="304" y="-18" font-family="Helvetica,sans-Serif" font-size="10.00">engine.gameRepresentation.rendered</text>
<text text-anchor="middle" x="395" y="-7" font-family="Helvetica,sans-Serif" font-size="10.00">Representation.Level.addElement</text>
</a>
</g>
</g>
<!-- Node1&#45;&gt;Node2 -->
<g id="edge1" class="edge"><title>Node1&#45;&gt;Node2</title>
<path fill="none" stroke="midnightblue" d="M270.27,-15C278.848,-15 287.381,-15 295.724,-15"/>
<polygon fill="midnightblue" stroke="midnightblue" points="270.189,-11.5001 260.189,-15 270.189,-18.5001 270.189,-11.5001"/>
</g>
</g>
</svg>
