<?xml version="1.0" encoding="UTF-8" standalone="no"?>
<!DOCTYPE svg PUBLIC "-//W3C//DTD SVG 1.1//EN"
 "http://www.w3.org/Graphics/SVG/1.1/DTD/svg11.dtd">
<!-- Generated by graphviz version 2.36.0 (20140111.2315)
 -->
<!-- Title: engine.gameRepresentation.renderedRepresentation.DrawableGameElement.setGoalPositions Pages: 1 -->
<svg width="492pt" height="48pt"
 viewBox="0.00 0.00 492.00 48.00" xmlns="http://www.w3.org/2000/svg" xmlns:xlink="http://www.w3.org/1999/xlink">
<g id="graph0" class="graph" transform="scale(1 1) rotate(0) translate(4 44)">
<title>engine.gameRepresentation.renderedRepresentation.DrawableGameElement.setGoalPositions</title>
<polygon fill="white" stroke="none" points="-4,4 -4,-44 488,-44 488,4 -4,4"/>
<!-- Node1 -->
<g id="node1" class="node"><title>Node1</title>
<polygon fill="#bfbfbf" stroke="black" points="0.5,0.5 0.5,-40.5 223.5,-40.5 223.5,0.5 0.5,0.5"/>
<text text-anchor="start" x="8.5" y="-28.5" font-family="Helvetica,sans-Serif" font-size="10.00">engine.gameRepresentation.rendered</text>
<text text-anchor="start" x="8.5" y="-17.5" font-family="Helvetica,sans-Serif" font-size="10.00">Representation.DrawableGameElement.set</text>
<text text-anchor="middle" x="112" y="-6.5" font-family="Helvetica,sans-Serif" font-size="10.00">GoalPositions</text>
</g>
<!-- Node2 -->
<g id="node2" class="node"><title>Node2</title>
<g id="a_node2"><a xlink:href="../../d8/d2f/classengine_1_1game_representation_1_1rendered_representation_1_1_drawable_game_element.html#aab55cbb4c956ce780ee657fc51a493ec" target="_top" xlink:title="engine.gameRepresentation.rendered\lRepresentation.DrawableGameElement.set\lWaypoints">
<polygon fill="white" stroke="black" points="260.5,0.5 260.5,-40.5 483.5,-40.5 483.5,0.5 260.5,0.5"/>
<text text-anchor="start" x="268.5" y="-28.5" font-family="Helvetica,sans-Serif" font-size="10.00">engine.gameRepresentation.rendered</text>
<text text-anchor="start" x="268.5" y="-17.5" font-family="Helvetica,sans-Serif" font-size="10.00">Representation.DrawableGameElement.set</text>
<text text-anchor="middle" x="372" y="-6.5" font-family="Helvetica,sans-Serif" font-size="10.00">Waypoints</text>
</a>
</g>
</g>
<!-- Node1&#45;&gt;Node2 -->
<g id="edge1" class="edge"><title>Node1&#45;&gt;Node2</title>
<path fill="none" stroke="midnightblue" d="M233.564,-20C242.473,-20 251.436,-20 260.281,-20"/>
<polygon fill="midnightblue" stroke="midnightblue" points="233.538,-16.5001 223.538,-20 233.538,-23.5001 233.538,-16.5001"/>
</g>
</g>
</svg>
