<?xml version="1.0" encoding="UTF-8" standalone="no"?>
<!DOCTYPE svg PUBLIC "-//W3C//DTD SVG 1.1//EN"
 "http://www.w3.org/Graphics/SVG/1.1/DTD/svg11.dtd">
<!-- Generated by graphviz version 2.36.0 (20140111.2315)
 -->
<!-- Title: engine.gameRepresentation.renderedRepresentation.DrawableGameElement.setGoalPositions Pages: 1 -->
<svg width="908pt" height="146pt"
 viewBox="0.00 0.00 908.00 146.00" xmlns="http://www.w3.org/2000/svg" xmlns:xlink="http://www.w3.org/1999/xlink">
<g id="graph0" class="graph" transform="scale(1 1) rotate(0) translate(4 142)">
<title>engine.gameRepresentation.renderedRepresentation.DrawableGameElement.setGoalPositions</title>
<polygon fill="white" stroke="none" points="-4,4 -4,-142 904,-142 904,4 -4,4"/>
<!-- Node1 -->
<g id="node1" class="node"><title>Node1</title>
<polygon fill="#bfbfbf" stroke="black" points="0.5,-53.5 0.5,-94.5 223.5,-94.5 223.5,-53.5 0.5,-53.5"/>
<text text-anchor="start" x="8.5" y="-82.5" font-family="Helvetica,sans-Serif" font-size="10.00">engine.gameRepresentation.rendered</text>
<text text-anchor="start" x="8.5" y="-71.5" font-family="Helvetica,sans-Serif" font-size="10.00">Representation.DrawableGameElement.set</text>
<text text-anchor="middle" x="112" y="-60.5" font-family="Helvetica,sans-Serif" font-size="10.00">GoalPositions</text>
</g>
<!-- Node2 -->
<g id="node2" class="node"><title>Node2</title>
<g id="a_node2"><a xlink:href="../../d1/d19/classengine_1_1computers_1_1pathing_computers_1_1_location.html#a6b17f88aada14c904238ef52e51cf5e9" target="_top" xlink:title="engine.computers.pathing\lComputers.Location.getX">
<polygon fill="white" stroke="black" points="302.5,-108 302.5,-138 445.5,-138 445.5,-108 302.5,-108"/>
<text text-anchor="start" x="310.5" y="-126" font-family="Helvetica,sans-Serif" font-size="10.00">engine.computers.pathing</text>
<text text-anchor="middle" x="374" y="-115" font-family="Helvetica,sans-Serif" font-size="10.00">Computers.Location.getX</text>
</a>
</g>
</g>
<!-- Node1&#45;&gt;Node2 -->
<g id="edge1" class="edge"><title>Node1&#45;&gt;Node2</title>
<path fill="none" stroke="midnightblue" d="M222.133,-94.5674C245.633,-98.9962 270.067,-103.601 292.254,-107.783"/>
<polygon fill="midnightblue" stroke="midnightblue" points="291.804,-111.259 302.279,-109.672 293.1,-104.38 291.804,-111.259"/>
</g>
<!-- Node3 -->
<g id="node3" class="node"><title>Node3</title>
<g id="a_node3"><a xlink:href="../../d1/d19/classengine_1_1computers_1_1pathing_computers_1_1_location.html#ac4dc59386dde16b5784bfdaa27dbcbf4" target="_top" xlink:title="engine.computers.pathing\lComputers.Location.getY">
<polygon fill="white" stroke="black" points="302.5,-59 302.5,-89 445.5,-89 445.5,-59 302.5,-59"/>
<text text-anchor="start" x="310.5" y="-77" font-family="Helvetica,sans-Serif" font-size="10.00">engine.computers.pathing</text>
<text text-anchor="middle" x="374" y="-66" font-family="Helvetica,sans-Serif" font-size="10.00">Computers.Location.getY</text>
</a>
</g>
</g>
<!-- Node1&#45;&gt;Node3 -->
<g id="edge2" class="edge"><title>Node1&#45;&gt;Node3</title>
<path fill="none" stroke="midnightblue" d="M223.64,-74C246.669,-74 270.526,-74 292.234,-74"/>
<polygon fill="midnightblue" stroke="midnightblue" points="292.374,-77.5001 302.374,-74 292.374,-70.5001 292.374,-77.5001"/>
</g>
<!-- Node4 -->
<g id="node4" class="node"><title>Node4</title>
<g id="a_node4"><a xlink:href="../../d4/de2/classengine_1_1game_representation_1_1rendered_representation_1_1_game_element.html#a5a426090456bba2adf4993b5b3fb0ffd" target="_top" xlink:title="engine.gameRepresentation.rendered\lRepresentation.GameElement.setNumerical\lAttribute">
<polygon fill="white" stroke="black" points="260.5,0.5 260.5,-40.5 487.5,-40.5 487.5,0.5 260.5,0.5"/>
<text text-anchor="start" x="268.5" y="-28.5" font-family="Helvetica,sans-Serif" font-size="10.00">engine.gameRepresentation.rendered</text>
<text text-anchor="start" x="268.5" y="-17.5" font-family="Helvetica,sans-Serif" font-size="10.00">Representation.GameElement.setNumerical</text>
<text text-anchor="middle" x="374" y="-6.5" font-family="Helvetica,sans-Serif" font-size="10.00">Attribute</text>
</a>
</g>
</g>
<!-- Node1&#45;&gt;Node4 -->
<g id="edge3" class="edge"><title>Node1&#45;&gt;Node4</title>
<path fill="none" stroke="midnightblue" d="M212.037,-53.4309C229.071,-49.8929 246.859,-46.1985 264.136,-42.6103"/>
<polygon fill="midnightblue" stroke="midnightblue" points="265.16,-45.9724 274.239,-40.5119 263.736,-39.1187 265.16,-45.9724"/>
</g>
<!-- Node5 -->
<g id="node5" class="node"><title>Node5</title>
<g id="a_node5"><a xlink:href="../../da/dc5/classmodel_1_1state_1_1gameelement_1_1_attribute_container.html#a168d6e922a93b11894753a0598c02cf7" target="_top" xlink:title="model.state.gameelement.\lAttributeContainer.setNumerical\lAttribute">
<polygon fill="white" stroke="black" points="524.5,0.5 524.5,-40.5 695.5,-40.5 695.5,0.5 524.5,0.5"/>
<text text-anchor="start" x="532.5" y="-28.5" font-family="Helvetica,sans-Serif" font-size="10.00">model.state.gameelement.</text>
<text text-anchor="start" x="532.5" y="-17.5" font-family="Helvetica,sans-Serif" font-size="10.00">AttributeContainer.setNumerical</text>
<text text-anchor="middle" x="610" y="-6.5" font-family="Helvetica,sans-Serif" font-size="10.00">Attribute</text>
</a>
</g>
</g>
<!-- Node4&#45;&gt;Node5 -->
<g id="edge4" class="edge"><title>Node4&#45;&gt;Node5</title>
<path fill="none" stroke="midnightblue" d="M487.545,-20C496.465,-20 505.42,-20 514.202,-20"/>
<polygon fill="midnightblue" stroke="midnightblue" points="514.419,-23.5001 524.419,-20 514.419,-16.5001 514.419,-23.5001"/>
</g>
<!-- Node6 -->
<g id="node6" class="node"><title>Node6</title>
<g id="a_node6"><a xlink:href="../../da/dc5/classmodel_1_1state_1_1gameelement_1_1_attribute_container.html#a03dd9ed123fc97bfc8bce5528b488333" target="_top" xlink:title="model.state.gameelement.\lAttributeContainer.addAttribute">
<polygon fill="white" stroke="black" points="732.5,-5 732.5,-35 899.5,-35 899.5,-5 732.5,-5"/>
<text text-anchor="start" x="740.5" y="-23" font-family="Helvetica,sans-Serif" font-size="10.00">model.state.gameelement.</text>
<text text-anchor="middle" x="816" y="-12" font-family="Helvetica,sans-Serif" font-size="10.00">AttributeContainer.addAttribute</text>
</a>
</g>
</g>
<!-- Node5&#45;&gt;Node6 -->
<g id="edge5" class="edge"><title>Node5&#45;&gt;Node6</title>
<path fill="none" stroke="midnightblue" d="M695.742,-20C704.571,-20 713.577,-20 722.486,-20"/>
<polygon fill="midnightblue" stroke="midnightblue" points="722.488,-23.5001 732.488,-20 722.488,-16.5001 722.488,-23.5001"/>
</g>
</g>
</svg>
