<?xml version="1.0" encoding="UTF-8" standalone="no"?>
<!DOCTYPE svg PUBLIC "-//W3C//DTD SVG 1.1//EN"
 "http://www.w3.org/Graphics/SVG/1.1/DTD/svg11.dtd">
<!-- Generated by graphviz version 2.36.0 (20140111.2315)
 -->
<!-- Title: engine.gameRepresentation.renderedRepresentation.DrawableGameElement.getNextWaypoint Pages: 1 -->
<svg width="906pt" height="48pt"
 viewBox="0.00 0.00 906.00 48.00" xmlns="http://www.w3.org/2000/svg" xmlns:xlink="http://www.w3.org/1999/xlink">
<g id="graph0" class="graph" transform="scale(1 1) rotate(0) translate(4 44)">
<title>engine.gameRepresentation.renderedRepresentation.DrawableGameElement.getNextWaypoint</title>
<polygon fill="white" stroke="none" points="-4,4 -4,-44 902,-44 902,4 -4,4"/>
<!-- Node1 -->
<g id="node1" class="node"><title>Node1</title>
<polygon fill="#bfbfbf" stroke="black" points="0,0.5 0,-40.5 224,-40.5 224,0.5 0,0.5"/>
<text text-anchor="start" x="8" y="-28.5" font-family="Helvetica,sans-Serif" font-size="10.00">engine.gameRepresentation.rendered</text>
<text text-anchor="start" x="8" y="-17.5" font-family="Helvetica,sans-Serif" font-size="10.00">Representation.DrawableGameElement.get</text>
<text text-anchor="middle" x="112" y="-6.5" font-family="Helvetica,sans-Serif" font-size="10.00">NextWaypoint</text>
</g>
<!-- Node2 -->
<g id="node2" class="node"><title>Node2</title>
<g id="a_node2"><a xlink:href="../../d4/de2/classengine_1_1game_representation_1_1rendered_representation_1_1_game_element.html#a0e5df2ee82fed90f049282832babf477" target="_top" xlink:title="engine.gameRepresentation.rendered\lRepresentation.GameElement.getNumerical\lAttribute">
<polygon fill="white" stroke="black" points="260,0.5 260,-40.5 488,-40.5 488,0.5 260,0.5"/>
<text text-anchor="start" x="268" y="-28.5" font-family="Helvetica,sans-Serif" font-size="10.00">engine.gameRepresentation.rendered</text>
<text text-anchor="start" x="268" y="-17.5" font-family="Helvetica,sans-Serif" font-size="10.00">Representation.GameElement.getNumerical</text>
<text text-anchor="middle" x="374" y="-6.5" font-family="Helvetica,sans-Serif" font-size="10.00">Attribute</text>
</a>
</g>
</g>
<!-- Node1&#45;&gt;Node2 -->
<g id="edge1" class="edge"><title>Node1&#45;&gt;Node2</title>
<path fill="none" stroke="midnightblue" d="M224.018,-20C232.549,-20 241.192,-20 249.795,-20"/>
<polygon fill="midnightblue" stroke="midnightblue" points="249.867,-23.5001 259.867,-20 249.867,-16.5001 249.867,-23.5001"/>
</g>
<!-- Node3 -->
<g id="node3" class="node"><title>Node3</title>
<g id="a_node3"><a xlink:href="../../da/dc5/classmodel_1_1state_1_1gameelement_1_1_attribute_container.html#a5f0e6026d1877c9e4f04fe389163970c" target="_top" xlink:title="model.state.gameelement.\lAttributeContainer.getNumerical\lAttribute">
<polygon fill="white" stroke="black" points="524,0.5 524,-40.5 696,-40.5 696,0.5 524,0.5"/>
<text text-anchor="start" x="532" y="-28.5" font-family="Helvetica,sans-Serif" font-size="10.00">model.state.gameelement.</text>
<text text-anchor="start" x="532" y="-17.5" font-family="Helvetica,sans-Serif" font-size="10.00">AttributeContainer.getNumerical</text>
<text text-anchor="middle" x="610" y="-6.5" font-family="Helvetica,sans-Serif" font-size="10.00">Attribute</text>
</a>
</g>
</g>
<!-- Node2&#45;&gt;Node3 -->
<g id="edge2" class="edge"><title>Node2&#45;&gt;Node3</title>
<path fill="none" stroke="midnightblue" d="M488.23,-20C496.773,-20 505.342,-20 513.756,-20"/>
<polygon fill="midnightblue" stroke="midnightblue" points="513.929,-23.5001 523.929,-20 513.929,-16.5001 513.929,-23.5001"/>
</g>
<!-- Node4 -->
<g id="node4" class="node"><title>Node4</title>
<g id="a_node4"><a xlink:href="../../da/dc5/classmodel_1_1state_1_1gameelement_1_1_attribute_container.html#a59a08ce23cf989feca0a78b2642364d4" target="_top" xlink:title="model.state.gameelement.\lAttributeContainer.getAttribute">
<polygon fill="white" stroke="black" points="732.5,-5 732.5,-35 897.5,-35 897.5,-5 732.5,-5"/>
<text text-anchor="start" x="740.5" y="-23" font-family="Helvetica,sans-Serif" font-size="10.00">model.state.gameelement.</text>
<text text-anchor="middle" x="815" y="-12" font-family="Helvetica,sans-Serif" font-size="10.00">AttributeContainer.getAttribute</text>
</a>
</g>
</g>
<!-- Node3&#45;&gt;Node4 -->
<g id="edge3" class="edge"><title>Node3&#45;&gt;Node4</title>
<path fill="none" stroke="midnightblue" d="M696.208,-20C704.786,-20 713.524,-20 722.168,-20"/>
<polygon fill="midnightblue" stroke="midnightblue" points="722.256,-23.5001 732.256,-20 722.256,-16.5001 722.256,-23.5001"/>
</g>
</g>
</svg>
