<?xml version="1.0" encoding="UTF-8" standalone="no"?>
<!DOCTYPE svg PUBLIC "-//W3C//DTD SVG 1.1//EN"
 "http://www.w3.org/Graphics/SVG/1.1/DTD/svg11.dtd">
<!-- Generated by graphviz version 2.36.0 (20140111.2315)
 -->
<!-- Title: engine.visuals.AbilityMatrix.attachInputManager Pages: 1 -->
<!--zoomable 87 -->
<svg id="main" version="1.1" xmlns="http://www.w3.org/2000/svg" xmlns:xlink="http://www.w3.org/1999/xlink" xml:space="preserve" onload="init(evt)">
<style type="text/css"><![CDATA[
.edge:hover path { stroke: red; }
.edge:hover polygon { stroke: red; fill: red; }
]]></style>
<script type="text/javascript"><![CDATA[
var edges = document.getElementsByTagName('g');
if (edges && edges.length) {
  for (var i=0;i<edges.length;i++) {
    if (edges[i].id.substr(0,4)=='edge') {
      edges[i].setAttribute('class','edge');
    }
  }
}
]]></script>
        <defs>
                <circle id="rim" cx="0" cy="0" r="7"/>
                <circle id="rim2" cx="0" cy="0" r="3.5"/>
                <g id="zoomPlus">
                        <use xlink:href="#rim" fill="#404040">
                                <set attributeName="fill" to="#808080" begin="zoomplus.mouseover" end="zoomplus.mouseout"/>
                        </use>
                        <path d="M-4,0h8M0,-4v8" fill="none" stroke="white" stroke-width="1.5" pointer-events="none"/>
                </g>
                <g id="zoomMin">
                        <use xlink:href="#rim" fill="#404040">
                                <set attributeName="fill" to="#808080" begin="zoomminus.mouseover" end="zoomminus.mouseout"/>
                        </use>
                        <path d="M-4,0h8" fill="none" stroke="white" stroke-width="1.5" pointer-events="none"/>
                </g>
                <g id="dirArrow">
                        <path fill="none" stroke="white" stroke-width="1.5" d="M0,-3.0v7 M-2.5,-0.5L0,-3.0L2.5,-0.5"/>
                </g>
               <g id="resetDef">
                       <use xlink:href="#rim2" fill="#404040">
                               <set attributeName="fill" to="#808080" begin="reset.mouseover" end="reset.mouseout"/>
                       </use>
               </g>
        </defs>

<script type="text/javascript">
var viewWidth = 1226;
var viewHeight = 87;
var sectionId = 'dynsection-2';
</script>
<script xlink:href="../../svgpan.js"/>
<svg id="graph" class="graph">
<g id="viewport">
<title>engine.visuals.AbilityMatrix.attachInputManager</title>
<polygon fill="white" stroke="none" points="-4,4 -4,-83 1222,-83 1222,4 -4,4"/>
<!-- Node1 -->
<g id="node1" class="node"><title>Node1</title>
<polygon fill="#bfbfbf" stroke="black" points="0.5,-24 0.5,-54 179.5,-54 179.5,-24 0.5,-24"/>
<text text-anchor="start" x="8.5" y="-42" font-family="Helvetica,sans-Serif" font-size="10.00">engine.visuals.AbilityMatrix.attach</text>
<text text-anchor="middle" x="90" y="-31" font-family="Helvetica,sans-Serif" font-size="10.00">InputManager</text>
</g>
<!-- Node2 -->
<g id="node2" class="node"><title>Node2</title>
<g id="a_node2"><a xlink:href="../../d3/d61/classengine_1_1visuals_1_1_visual_manager.html#ad6d4b11c7b259638d92c5dd294ae03a8" target="_top" xlink:title="engine.visuals.VisualManager.attach\lInputManager">
<polygon fill="white" stroke="black" points="216.5,-24 216.5,-54 407.5,-54 407.5,-24 216.5,-24"/>
<text text-anchor="start" x="224.5" y="-42" font-family="Helvetica,sans-Serif" font-size="10.00">engine.visuals.VisualManager.attach</text>
<text text-anchor="middle" x="312" y="-31" font-family="Helvetica,sans-Serif" font-size="10.00">InputManager</text>
</a>
</g>
</g>
<!-- Node1&#45;&gt;Node2 -->
<g id="edge1" class="edge"><title>Node1&#45;&gt;Node2</title>
<path fill="none" stroke="midnightblue" d="M189.778,-39C198.556,-39 207.43,-39 216.173,-39"/>
<polygon fill="midnightblue" stroke="midnightblue" points="189.531,-35.5001 179.531,-39 189.531,-42.5001 189.531,-35.5001"/>
</g>
<!-- Node3 -->
<g id="node3" class="node"><title>Node3</title>
<g id="a_node3"><a xlink:href="../../dc/de2/classengine_1_1_engine.html#a8c5992eb0d36b8c389af374c6115b4f1" target="_top" xlink:title="engine.Engine.setInputManager">
<polygon fill="white" stroke="black" points="444,-52.5 444,-71.5 612,-71.5 612,-52.5 444,-52.5"/>
<text text-anchor="middle" x="528" y="-59.5" font-family="Helvetica,sans-Serif" font-size="10.00">engine.Engine.setInputManager</text>
</a>
</g>
</g>
<!-- Node2&#45;&gt;Node3 -->
<g id="edge2" class="edge"><title>Node2&#45;&gt;Node3</title>
<path fill="none" stroke="midnightblue" d="M417.927,-50.2772C426.574,-51.2065 435.238,-52.1378 443.695,-53.0467"/>
<polygon fill="midnightblue" stroke="midnightblue" points="418.115,-46.7773 407.798,-49.1886 417.367,-53.7372 418.115,-46.7773"/>
</g>
<!-- Node7 -->
<g id="node7" class="node"><title>Node7</title>
<g id="a_node7"><a xlink:href="../../dc/de2/classengine_1_1_engine.html#a59df1204b83c43cbc3c5dd5a19fa3127" target="_top" xlink:title="engine.Engine.initialize\lVisualManager">
<polygon fill="white" stroke="black" points="465.5,-2 465.5,-32 590.5,-32 590.5,-2 465.5,-2"/>
<text text-anchor="start" x="473.5" y="-20" font-family="Helvetica,sans-Serif" font-size="10.00">engine.Engine.initialize</text>
<text text-anchor="middle" x="528" y="-9" font-family="Helvetica,sans-Serif" font-size="10.00">VisualManager</text>
</a>
</g>
</g>
<!-- Node2&#45;&gt;Node7 -->
<g id="edge6" class="edge"><title>Node2&#45;&gt;Node7</title>
<path fill="none" stroke="midnightblue" d="M417.922,-28.2137C434.215,-26.5386 450.574,-24.8569 465.484,-23.3241"/>
<polygon fill="midnightblue" stroke="midnightblue" points="417.388,-24.75 407.798,-29.2544 418.104,-31.7133 417.388,-24.75"/>
</g>
<!-- Node4 -->
<g id="node4" class="node"><title>Node4</title>
<g id="a_node4"><a xlink:href="../../d8/dd1/classview_1_1runner_1_1_game_runner_pane_controller.html#a056877358884449e42bff08934bde122" target="_top" xlink:title="view.runner.GameRunnerPane\lController.setInputManager">
<polygon fill="white" stroke="black" points="648,-49 648,-79 806,-79 806,-49 648,-49"/>
<text text-anchor="start" x="656" y="-67" font-family="Helvetica,sans-Serif" font-size="10.00">view.runner.GameRunnerPane</text>
<text text-anchor="middle" x="727" y="-56" font-family="Helvetica,sans-Serif" font-size="10.00">Controller.setInputManager</text>
</a>
</g>
</g>
<!-- Node3&#45;&gt;Node4 -->
<g id="edge3" class="edge"><title>Node3&#45;&gt;Node4</title>
<path fill="none" stroke="midnightblue" d="M622.517,-62.9494C630.96,-63.0351 639.451,-63.1213 647.742,-63.2055"/>
<polygon fill="midnightblue" stroke="midnightblue" points="622.295,-59.4471 612.26,-62.8453 622.224,-66.4467 622.295,-59.4471"/>
</g>
<!-- Node5 -->
<g id="node5" class="node"><title>Node5</title>
<g id="a_node5"><a xlink:href="../../d4/d65/classview_1_1editor_1_1_tab_view_controller.html#aa19ba9b7a9b0762bce74364ef219fabc" target="_top" xlink:title="view.editor.TabViewController.init\lToggle">
<polygon fill="white" stroke="black" points="842,-49 842,-79 1012,-79 1012,-49 842,-49"/>
<text text-anchor="start" x="850" y="-67" font-family="Helvetica,sans-Serif" font-size="10.00">view.editor.TabViewController.init</text>
<text text-anchor="middle" x="927" y="-56" font-family="Helvetica,sans-Serif" font-size="10.00">Toggle</text>
</a>
</g>
</g>
<!-- Node4&#45;&gt;Node5 -->
<g id="edge4" class="edge"><title>Node4&#45;&gt;Node5</title>
<path fill="none" stroke="midnightblue" d="M816.463,-64C824.887,-64 833.414,-64 841.797,-64"/>
<polygon fill="midnightblue" stroke="midnightblue" points="816.255,-60.5001 806.255,-64 816.255,-67.5001 816.255,-60.5001"/>
</g>
<!-- Node6 -->
<g id="node6" class="node"><title>Node6</title>
<g id="a_node6"><a xlink:href="../../d4/d65/classview_1_1editor_1_1_tab_view_controller.html#a82e1e1f1eb84d1c30bde3a246304473e" target="_top" xlink:title="view.editor.TabViewController.init">
<polygon fill="white" stroke="black" points="1048,-54.5 1048,-73.5 1218,-73.5 1218,-54.5 1048,-54.5"/>
<text text-anchor="middle" x="1133" y="-61.5" font-family="Helvetica,sans-Serif" font-size="10.00">view.editor.TabViewController.init</text>
</a>
</g>
</g>
<!-- Node5&#45;&gt;Node6 -->
<g id="edge5" class="edge"><title>Node5&#45;&gt;Node6</title>
<path fill="none" stroke="midnightblue" d="M1022.4,-64C1030.85,-64 1039.36,-64 1047.71,-64"/>
<polygon fill="midnightblue" stroke="midnightblue" points="1022.15,-60.5001 1012.15,-64 1022.15,-67.5001 1022.15,-60.5001"/>
</g>
<!-- Node8 -->
<g id="node8" class="node"><title>Node8</title>
<g id="a_node8"><a xlink:href="../../dc/de2/classengine_1_1_engine.html#af201d1d894a31f20aa1e05f674d4584b" target="_top" xlink:title="engine.Engine.instantiate\lManagers">
<polygon fill="white" stroke="black" points="658,-0 658,-30 796,-30 796,-0 658,-0"/>
<text text-anchor="start" x="666" y="-18" font-family="Helvetica,sans-Serif" font-size="10.00">engine.Engine.instantiate</text>
<text text-anchor="middle" x="727" y="-7" font-family="Helvetica,sans-Serif" font-size="10.00">Managers</text>
</a>
</g>
</g>
<!-- Node7&#45;&gt;Node8 -->
<g id="edge7" class="edge"><title>Node7&#45;&gt;Node8</title>
<path fill="none" stroke="midnightblue" d="M600.703,-16.272C619.319,-16.0831 639.318,-15.88 657.751,-15.6929"/>
<polygon fill="midnightblue" stroke="midnightblue" points="600.486,-12.774 590.522,-16.3754 600.557,-19.7736 600.486,-12.774"/>
</g>
<!-- Node9 -->
<g id="node9" class="node"><title>Node9</title>
<g id="a_node9"><a xlink:href="../../dc/de2/classengine_1_1_engine.html#a707225a32896b370f131105ef1c644e2" target="_top" xlink:title="engine.Engine.Engine">
<polygon fill="white" stroke="black" points="867.5,-5.5 867.5,-24.5 986.5,-24.5 986.5,-5.5 867.5,-5.5"/>
<text text-anchor="middle" x="927" y="-12.5" font-family="Helvetica,sans-Serif" font-size="10.00">engine.Engine.Engine</text>
</a>
</g>
</g>
<!-- Node8&#45;&gt;Node9 -->
<g id="edge8" class="edge"><title>Node8&#45;&gt;Node9</title>
<path fill="none" stroke="midnightblue" d="M806.32,-15C826.644,-15 848.185,-15 867.307,-15"/>
<polygon fill="midnightblue" stroke="midnightblue" points="806.14,-11.5001 796.14,-15 806.14,-18.5001 806.14,-11.5001"/>
</g>
</g>
</svg>
        <g id="navigator" transform="translate(0 0)" fill="#404254">
                <rect fill="#f2f5e9" fill-opacity="0.5" stroke="#606060" stroke-width=".5" x="0" y="0" width="60" height="60"/>
                <use id="zoomplus" xlink:href="#zoomPlus" x="17" y="9" onmousedown="handleZoom(evt,'in')"/>
                <use id="zoomminus" xlink:href="#zoomMin" x="42" y="9" onmousedown="handleZoom(evt,'out')"/>
                <use id="reset" xlink:href="#resetDef" x="30" y="36" onmousedown="handleReset()"/>
                <g id="arrowUp" xlink:href="#dirArrow" transform="translate(30 24)" onmousedown="handlePan(0,-1)">
                  <use xlink:href="#rim" fill="#404040">
                        <set attributeName="fill" to="#808080" begin="arrowUp.mouseover" end="arrowUp.mouseout"/>
                  </use>
                  <path fill="none" stroke="white" stroke-width="1.5" d="M0,-3.0v7 M-2.5,-0.5L0,-3.0L2.5,-0.5"/>
                </g>
                <g id="arrowRight" xlink:href="#dirArrow" transform="rotate(90) translate(36 -43)" onmousedown="handlePan(1,0)">
                  <use xlink:href="#rim" fill="#404040">
                        <set attributeName="fill" to="#808080" begin="arrowRight.mouseover" end="arrowRight.mouseout"/>
                  </use>
                  <path fill="none" stroke="white" stroke-width="1.5" d="M0,-3.0v7 M-2.5,-0.5L0,-3.0L2.5,-0.5"/>
                </g>
                <g id="arrowDown" xlink:href="#dirArrow" transform="rotate(180) translate(-30 -48)" onmousedown="handlePan(0,1)">
                  <use xlink:href="#rim" fill="#404040">
                        <set attributeName="fill" to="#808080" begin="arrowDown.mouseover" end="arrowDown.mouseout"/>
                  </use>
                  <path fill="none" stroke="white" stroke-width="1.5" d="M0,-3.0v7 M-2.5,-0.5L0,-3.0L2.5,-0.5"/>
                </g>
                <g id="arrowLeft" xlink:href="#dirArrow" transform="rotate(270) translate(-36 17)" onmousedown="handlePan(-1,0)">
                  <use xlink:href="#rim" fill="#404040">
                        <set attributeName="fill" to="#808080" begin="arrowLeft.mouseover" end="arrowLeft.mouseout"/>
                  </use>
                  <path fill="none" stroke="white" stroke-width="1.5" d="M0,-3.0v7 M-2.5,-0.5L0,-3.0L2.5,-0.5"/>
                </g>
        </g>
        <svg viewBox="0 0 15 15" width="100%" height="30px" preserveAspectRatio="xMaxYMin meet">
         <g id="arrow_out" transform="scale(0.3 0.3)">
          <a xlink:href="classengine_1_1visuals_1_1_ability_matrix_a8c12bf4db9d7ac71ad138c73a45b4954_icgraph_org.svg" target="_base">
           <rect id="button" ry="5" rx="5" y="6" x="6" height="38" width="38"
                fill="#f2f5e9" fill-opacity="0.5" stroke="#606060" stroke-width="1.0"/>
           <path id="arrow"
             d="M 11.500037,31.436501 C 11.940474,20.09759 22.043105,11.32322 32.158766,21.979434 L 37.068811,17.246167 C 37.068811,17.246167 37.088388,32 37.088388,32 L 22.160133,31.978069 C 22.160133,31.978069 26.997745,27.140456 26.997745,27.140456 C 18.528582,18.264221 13.291696,25.230495 11.500037,31.436501 z"
             style="fill:#404040;"/>
          </a>
         </g>
        </svg>
</svg>
