<?xml version="1.0" encoding="UTF-8" standalone="no"?>
<!DOCTYPE svg PUBLIC "-//W3C//DTD SVG 1.1//EN"
 "http://www.w3.org/Graphics/SVG/1.1/DTD/svg11.dtd">
<!-- Generated by graphviz version 2.36.0 (20140111.2315)
 -->
<!-- Title: engine.visuals.AbilityMatrix.updateGridImages Pages: 1 -->
<svg width="548pt" height="38pt"
 viewBox="0.00 0.00 548.00 38.00" xmlns="http://www.w3.org/2000/svg" xmlns:xlink="http://www.w3.org/1999/xlink">
<g id="graph0" class="graph" transform="scale(1 1) rotate(0) translate(4 34)">
<title>engine.visuals.AbilityMatrix.updateGridImages</title>
<polygon fill="white" stroke="none" points="-4,4 -4,-34 544,-34 544,4 -4,4"/>
<!-- Node1 -->
<g id="node1" class="node"><title>Node1</title>
<polygon fill="#bfbfbf" stroke="black" points="0,-0 0,-30 182,-30 182,-0 0,-0"/>
<text text-anchor="start" x="8" y="-18" font-family="Helvetica,sans-Serif" font-size="10.00">engine.visuals.AbilityMatrix.update</text>
<text text-anchor="middle" x="91" y="-7" font-family="Helvetica,sans-Serif" font-size="10.00">GridImages</text>
</g>
<!-- Node2 -->
<g id="node2" class="node"><title>Node2</title>
<g id="a_node2"><a xlink:href="../../d3/d14/classutil_1_1_save_load_utility.html#af1333303576053ddda0787bcf1cd9c81" target="_top" xlink:title="util.SaveLoadUtility.load\lImage">
<polygon fill="white" stroke="black" points="218,-0 218,-30 348,-30 348,-0 218,-0"/>
<text text-anchor="start" x="226" y="-18" font-family="Helvetica,sans-Serif" font-size="10.00">util.SaveLoadUtility.load</text>
<text text-anchor="middle" x="283" y="-7" font-family="Helvetica,sans-Serif" font-size="10.00">Image</text>
</a>
</g>
</g>
<!-- Node1&#45;&gt;Node2 -->
<g id="edge1" class="edge"><title>Node1&#45;&gt;Node2</title>
<path fill="none" stroke="midnightblue" d="M182.27,-15C190.847,-15 199.476,-15 207.875,-15"/>
<polygon fill="midnightblue" stroke="midnightblue" points="207.988,-18.5001 217.988,-15 207.988,-11.5001 207.988,-18.5001"/>
</g>
<!-- Node3 -->
<g id="node3" class="node"><title>Node3</title>
<g id="a_node3"><a xlink:href="../../d3/d14/classutil_1_1_save_load_utility.html#a45324a0a42802150f23edb0fe9340aa2" target="_top" xlink:title="util.SaveLoadUtility.obtainFile">
<polygon fill="white" stroke="black" points="384.5,-5.5 384.5,-24.5 539.5,-24.5 539.5,-5.5 384.5,-5.5"/>
<text text-anchor="middle" x="462" y="-12.5" font-family="Helvetica,sans-Serif" font-size="10.00">util.SaveLoadUtility.obtainFile</text>
</a>
</g>
</g>
<!-- Node2&#45;&gt;Node3 -->
<g id="edge2" class="edge"><title>Node2&#45;&gt;Node3</title>
<path fill="none" stroke="midnightblue" d="M348.151,-15C356.613,-15 365.397,-15 374.16,-15"/>
<polygon fill="midnightblue" stroke="midnightblue" points="374.415,-18.5001 384.415,-15 374.415,-11.5001 374.415,-18.5001"/>
</g>
</g>
</svg>
