<?xml version="1.0" encoding="UTF-8" standalone="no"?>
<!DOCTYPE svg PUBLIC "-//W3C//DTD SVG 1.1//EN"
 "http://www.w3.org/Graphics/SVG/1.1/DTD/svg11.dtd">
<!-- Generated by graphviz version 2.36.0 (20140111.2315)
 -->
<!-- Title: game_engine.gameRepresentation.renderedRepresentation.SelectableGameElement.getLoc Pages: 1 -->
<svg width="808pt" height="98pt"
 viewBox="0.00 0.00 808.00 98.00" xmlns="http://www.w3.org/2000/svg" xmlns:xlink="http://www.w3.org/1999/xlink">
<g id="graph0" class="graph" transform="scale(1 1) rotate(0) translate(4 94)">
<title>game_engine.gameRepresentation.renderedRepresentation.SelectableGameElement.getLoc</title>
<polygon fill="white" stroke="none" points="-4,4 -4,-94 804,-94 804,4 -4,4"/>
<!-- Node1 -->
<g id="node1" class="node"><title>Node1</title>
<polygon fill="#bfbfbf" stroke="black" points="0,-27 0,-57 246,-57 246,-27 0,-27"/>
<text text-anchor="start" x="8" y="-45" font-family="Helvetica,sans-Serif" font-size="10.00">game_engine.gameRepresentation.rendered</text>
<text text-anchor="middle" x="123" y="-34" font-family="Helvetica,sans-Serif" font-size="10.00">Representation.SelectableGameElement.getLoc</text>
</g>
<!-- Node2 -->
<g id="node2" class="node"><title>Node2</title>
<g id="a_node2"><a xlink:href="../../dc/d2d/classgame__engine_1_1game_representation_1_1state_representation_1_1game_element_1_1_game_element_state.html#aa40f5f12d9fa1ea430b6da56c002338d" target="_top" xlink:title="game_engine.gameRepresentation.state\lRepresentation.gameElement.GameElement\lState.getNumericalAttribute">
<polygon fill="white" stroke="black" points="291.5,-48.5 291.5,-89.5 522.5,-89.5 522.5,-48.5 291.5,-48.5"/>
<text text-anchor="start" x="299.5" y="-77.5" font-family="Helvetica,sans-Serif" font-size="10.00">game_engine.gameRepresentation.state</text>
<text text-anchor="start" x="299.5" y="-66.5" font-family="Helvetica,sans-Serif" font-size="10.00">Representation.gameElement.GameElement</text>
<text text-anchor="middle" x="407" y="-55.5" font-family="Helvetica,sans-Serif" font-size="10.00">State.getNumericalAttribute</text>
</a>
</g>
</g>
<!-- Node1&#45;&gt;Node2 -->
<g id="edge1" class="edge"><title>Node1&#45;&gt;Node2</title>
<path fill="none" stroke="midnightblue" d="M246.049,-53.6856C257.677,-54.7989 269.481,-55.929 281.135,-57.0448"/>
<polygon fill="midnightblue" stroke="midnightblue" points="281.042,-60.5518 291.33,-58.021 281.709,-53.5837 281.042,-60.5518"/>
</g>
<!-- Node4 -->
<g id="node4" class="node"><title>Node4</title>
<g id="a_node4"><a xlink:href="../../d1/dfe/classgame__engine_1_1game_representation_1_1rendered_representation_1_1_drawable_game_element.html#a9dfbf9e75b57cce6ba73df0c5944d414" target="_top" xlink:title="game_engine.gameRepresentation.rendered\lRepresentation.DrawableGameElement.getState">
<polygon fill="white" stroke="black" points="282,-0 282,-30 532,-30 532,-0 282,-0"/>
<text text-anchor="start" x="290" y="-18" font-family="Helvetica,sans-Serif" font-size="10.00">game_engine.gameRepresentation.rendered</text>
<text text-anchor="middle" x="407" y="-7" font-family="Helvetica,sans-Serif" font-size="10.00">Representation.DrawableGameElement.getState</text>
</a>
</g>
</g>
<!-- Node1&#45;&gt;Node4 -->
<g id="edge3" class="edge"><title>Node1&#45;&gt;Node4</title>
<path fill="none" stroke="midnightblue" d="M246.049,-30.3144C254.608,-29.4949 263.262,-28.6664 271.882,-27.8411"/>
<polygon fill="midnightblue" stroke="midnightblue" points="272.356,-31.3118 281.977,-26.8745 271.689,-24.3436 272.356,-31.3118"/>
</g>
<!-- Node3 -->
<g id="node3" class="node"><title>Node3</title>
<g id="a_node3"><a xlink:href="../../dc/d2d/classgame__engine_1_1game_representation_1_1state_representation_1_1game_element_1_1_game_element_state.html#a92d017656dffc9e74dabe8f016ffacd8" target="_top" xlink:title="game_engine.gameRepresentation.state\lRepresentation.gameElement.GameElement\lState.getAttribute">
<polygon fill="white" stroke="black" points="568.5,-48.5 568.5,-89.5 799.5,-89.5 799.5,-48.5 568.5,-48.5"/>
<text text-anchor="start" x="576.5" y="-77.5" font-family="Helvetica,sans-Serif" font-size="10.00">game_engine.gameRepresentation.state</text>
<text text-anchor="start" x="576.5" y="-66.5" font-family="Helvetica,sans-Serif" font-size="10.00">Representation.gameElement.GameElement</text>
<text text-anchor="middle" x="684" y="-55.5" font-family="Helvetica,sans-Serif" font-size="10.00">State.getAttribute</text>
</a>
</g>
</g>
<!-- Node2&#45;&gt;Node3 -->
<g id="edge2" class="edge"><title>Node2&#45;&gt;Node3</title>
<path fill="none" stroke="midnightblue" d="M522.633,-69C534.26,-69 546.111,-69 557.841,-69"/>
<polygon fill="midnightblue" stroke="midnightblue" points="558.11,-72.5001 568.11,-69 558.11,-65.5001 558.11,-72.5001"/>
</g>
</g>
</svg>
