<?xml version="1.0" encoding="UTF-8" standalone="no"?>
<!DOCTYPE svg PUBLIC "-//W3C//DTD SVG 1.1//EN"
 "http://www.w3.org/Graphics/SVG/1.1/DTD/svg11.dtd">
<!-- Generated by graphviz version 2.36.0 (20140111.2315)
 -->
<!-- Title: game_engine.gameRepresentation.renderedRepresentation.SelectableGameElement.addInteractingElement Pages: 1 -->
<svg width="752pt" height="48pt"
 viewBox="0.00 0.00 752.00 48.00" xmlns="http://www.w3.org/2000/svg" xmlns:xlink="http://www.w3.org/1999/xlink">
<g id="graph0" class="graph" transform="scale(1 1) rotate(0) translate(4 44)">
<title>game_engine.gameRepresentation.renderedRepresentation.SelectableGameElement.addInteractingElement</title>
<polygon fill="white" stroke="none" points="-4,4 -4,-44 748,-44 748,4 -4,4"/>
<!-- Node1 -->
<g id="node1" class="node"><title>Node1</title>
<polygon fill="#bfbfbf" stroke="black" points="0,0.5 0,-40.5 232,-40.5 232,0.5 0,0.5"/>
<text text-anchor="start" x="8" y="-28.5" font-family="Helvetica,sans-Serif" font-size="10.00">game_engine.gameRepresentation.rendered</text>
<text text-anchor="start" x="8" y="-17.5" font-family="Helvetica,sans-Serif" font-size="10.00">Representation.SelectableGameElement.add</text>
<text text-anchor="middle" x="116" y="-6.5" font-family="Helvetica,sans-Serif" font-size="10.00">InteractingElement</text>
</g>
<!-- Node2 -->
<g id="node2" class="node"><title>Node2</title>
<g id="a_node2"><a xlink:href="../../df/de2/classgame__engine_1_1game_representation_1_1rendered_representation_1_1_selectable_game_element.html#ac4e840044a9097686e2c5d5c98d1f22d" target="_top" xlink:title="game_engine.gameRepresentation.rendered\lRepresentation.SelectableGameElement.add\lInteractingElements">
<polygon fill="white" stroke="black" points="268,0.5 268,-40.5 500,-40.5 500,0.5 268,0.5"/>
<text text-anchor="start" x="276" y="-28.5" font-family="Helvetica,sans-Serif" font-size="10.00">game_engine.gameRepresentation.rendered</text>
<text text-anchor="start" x="276" y="-17.5" font-family="Helvetica,sans-Serif" font-size="10.00">Representation.SelectableGameElement.add</text>
<text text-anchor="middle" x="384" y="-6.5" font-family="Helvetica,sans-Serif" font-size="10.00">InteractingElements</text>
</a>
</g>
</g>
<!-- Node1&#45;&gt;Node2 -->
<g id="edge1" class="edge"><title>Node1&#45;&gt;Node2</title>
<path fill="none" stroke="midnightblue" d="M242.391,-20C250.832,-20 259.314,-20 267.7,-20"/>
<polygon fill="midnightblue" stroke="midnightblue" points="242.124,-16.5001 232.124,-20 242.124,-23.5001 242.124,-16.5001"/>
</g>
<!-- Node3 -->
<g id="node3" class="node"><title>Node3</title>
<g id="a_node3"><a xlink:href="../../d5/d07/classgame__engine_1_1computers_1_1bounds_computers_1_1_vision_computer.html#ae613df1b4a68ae10f272369ef825556e" target="_top" xlink:title="game_engine.computers.bounds\lComputers.VisionComputer.givePrimary\lObjectElements">
<polygon fill="white" stroke="black" points="536,0.5 536,-40.5 744,-40.5 744,0.5 536,0.5"/>
<text text-anchor="start" x="544" y="-28.5" font-family="Helvetica,sans-Serif" font-size="10.00">game_engine.computers.bounds</text>
<text text-anchor="start" x="544" y="-17.5" font-family="Helvetica,sans-Serif" font-size="10.00">Computers.VisionComputer.givePrimary</text>
<text text-anchor="middle" x="640" y="-6.5" font-family="Helvetica,sans-Serif" font-size="10.00">ObjectElements</text>
</a>
</g>
</g>
<!-- Node2&#45;&gt;Node3 -->
<g id="edge2" class="edge"><title>Node2&#45;&gt;Node3</title>
<path fill="none" stroke="midnightblue" d="M510.212,-20C518.83,-20 527.459,-20 535.94,-20"/>
<polygon fill="midnightblue" stroke="midnightblue" points="510.109,-16.5001 500.109,-20 510.109,-23.5001 510.109,-16.5001"/>
</g>
</g>
</svg>
