<?xml version="1.0" encoding="UTF-8" standalone="no"?>
<!DOCTYPE svg PUBLIC "-//W3C//DTD SVG 1.1//EN"
 "http://www.w3.org/Graphics/SVG/1.1/DTD/svg11.dtd">
<!-- Generated by graphviz version 2.36.0 (20140111.2315)
 -->
<!-- Title: game_engine.gameRepresentation.renderedRepresentation.SelectableGameElement.update Pages: 1 -->
<svg width="1684pt" height="379pt"
 viewBox="0.00 0.00 1684.00 379.00" xmlns="http://www.w3.org/2000/svg" xmlns:xlink="http://www.w3.org/1999/xlink">
<g id="graph0" class="graph" transform="scale(1 1) rotate(0) translate(4 375)">
<title>game_engine.gameRepresentation.renderedRepresentation.SelectableGameElement.update</title>
<polygon fill="white" stroke="none" points="-4,4 -4,-375 1680,-375 1680,4 -4,4"/>
<!-- Node1 -->
<g id="node1" class="node"><title>Node1</title>
<polygon fill="#bfbfbf" stroke="black" points="0,-96 0,-126 248,-126 248,-96 0,-96"/>
<text text-anchor="start" x="8" y="-114" font-family="Helvetica,sans-Serif" font-size="10.00">game_engine.gameRepresentation.rendered</text>
<text text-anchor="middle" x="124" y="-103" font-family="Helvetica,sans-Serif" font-size="10.00">Representation.SelectableGameElement.update</text>
</g>
<!-- Node2 -->
<g id="node2" class="node"><title>Node2</title>
<g id="a_node2"><a xlink:href="../../df/de2/classgame__engine_1_1game_representation_1_1rendered_representation_1_1_selectable_game_element.html#a83accf7dc9be7114569f6c916c6aed5a" target="_top" xlink:title="game_engine.gameRepresentation.rendered\lRepresentation.SelectableGameElement.move">
<polygon fill="white" stroke="black" points="287.5,-210 287.5,-240 528.5,-240 528.5,-210 287.5,-210"/>
<text text-anchor="start" x="295.5" y="-228" font-family="Helvetica,sans-Serif" font-size="10.00">game_engine.gameRepresentation.rendered</text>
<text text-anchor="middle" x="408" y="-217" font-family="Helvetica,sans-Serif" font-size="10.00">Representation.SelectableGameElement.move</text>
</a>
</g>
</g>
<!-- Node1&#45;&gt;Node2 -->
<g id="edge1" class="edge"><title>Node1&#45;&gt;Node2</title>
<path fill="none" stroke="midnightblue" d="M162.157,-126.021C213.09,-146.611 304.59,-183.6 360.157,-206.064"/>
<polygon fill="midnightblue" stroke="midnightblue" points="359.178,-209.443 369.761,-209.946 361.802,-202.953 359.178,-209.443"/>
</g>
<!-- Node16 -->
<g id="node16" class="node"><title>Node16</title>
<g id="a_node16"><a xlink:href="../../df/de2/classgame__engine_1_1game_representation_1_1rendered_representation_1_1_selectable_game_element.html#a392a2bd67aa382be9de0ebbf3aa73fcc" target="_top" xlink:title="game_engine.gameRepresentation.rendered\lRepresentation.SelectableGameElement.update\lSelfDueToCollisions">
<polygon fill="white" stroke="black" points="284,-120.5 284,-161.5 532,-161.5 532,-120.5 284,-120.5"/>
<text text-anchor="start" x="292" y="-149.5" font-family="Helvetica,sans-Serif" font-size="10.00">game_engine.gameRepresentation.rendered</text>
<text text-anchor="start" x="292" y="-138.5" font-family="Helvetica,sans-Serif" font-size="10.00">Representation.SelectableGameElement.update</text>
<text text-anchor="middle" x="408" y="-127.5" font-family="Helvetica,sans-Serif" font-size="10.00">SelfDueToCollisions</text>
</a>
</g>
</g>
<!-- Node1&#45;&gt;Node16 -->
<g id="edge16" class="edge"><title>Node1&#45;&gt;Node16</title>
<path fill="none" stroke="midnightblue" d="M248.279,-124.115C256.603,-125 265.011,-125.895 273.383,-126.785"/>
<polygon fill="midnightblue" stroke="midnightblue" points="273.257,-130.292 283.571,-127.869 273.998,-123.331 273.257,-130.292"/>
</g>
<!-- Node19 -->
<g id="node19" class="node"><title>Node19</title>
<g id="a_node19"><a xlink:href="../../df/de2/classgame__engine_1_1game_representation_1_1rendered_representation_1_1_selectable_game_element.html#a0fbc064c8b2b894a95e0fa05ae9ae9c9" target="_top" xlink:title="game_engine.gameRepresentation.rendered\lRepresentation.SelectableGameElement.update\lSelfDueToCurrentObjective">
<polygon fill="white" stroke="black" points="284,-0.5 284,-41.5 532,-41.5 532,-0.5 284,-0.5"/>
<text text-anchor="start" x="292" y="-29.5" font-family="Helvetica,sans-Serif" font-size="10.00">game_engine.gameRepresentation.rendered</text>
<text text-anchor="start" x="292" y="-18.5" font-family="Helvetica,sans-Serif" font-size="10.00">Representation.SelectableGameElement.update</text>
<text text-anchor="middle" x="408" y="-7.5" font-family="Helvetica,sans-Serif" font-size="10.00">SelfDueToCurrentObjective</text>
</a>
</g>
</g>
<!-- Node1&#45;&gt;Node19 -->
<g id="edge19" class="edge"><title>Node1&#45;&gt;Node19</title>
<path fill="none" stroke="midnightblue" d="M161.19,-95.9011C193.136,-82.9216 241.157,-64.2545 284,-51 291.613,-48.6446 299.538,-46.3546 307.532,-44.1587"/>
<polygon fill="midnightblue" stroke="midnightblue" points="308.555,-47.508 317.302,-41.5289 306.735,-40.7486 308.555,-47.508"/>
</g>
<!-- Node21 -->
<g id="node21" class="node"><title>Node21</title>
<g id="a_node21"><a xlink:href="../../df/de2/classgame__engine_1_1game_representation_1_1rendered_representation_1_1_selectable_game_element.html#a9804ba15fb588a46b8af52f10bc79f9b" target="_top" xlink:title="game_engine.gameRepresentation.rendered\lRepresentation.SelectableGameElement.update\lSelfDueToVisions">
<polygon fill="white" stroke="black" points="284,-60.5 284,-101.5 532,-101.5 532,-60.5 284,-60.5"/>
<text text-anchor="start" x="292" y="-89.5" font-family="Helvetica,sans-Serif" font-size="10.00">game_engine.gameRepresentation.rendered</text>
<text text-anchor="start" x="292" y="-78.5" font-family="Helvetica,sans-Serif" font-size="10.00">Representation.SelectableGameElement.update</text>
<text text-anchor="middle" x="408" y="-67.5" font-family="Helvetica,sans-Serif" font-size="10.00">SelfDueToVisions</text>
</a>
</g>
</g>
<!-- Node1&#45;&gt;Node21 -->
<g id="edge22" class="edge"><title>Node1&#45;&gt;Node21</title>
<path fill="none" stroke="midnightblue" d="M248.279,-97.8852C256.603,-96.9997 265.011,-96.1053 273.383,-95.2145"/>
<polygon fill="midnightblue" stroke="midnightblue" points="273.998,-98.669 283.571,-94.1307 273.257,-91.7083 273.998,-98.669"/>
</g>
<!-- Node3 -->
<g id="node3" class="node"><title>Node3</title>
<g id="a_node3"><a xlink:href="../../d1/dfe/classgame__engine_1_1game_representation_1_1rendered_representation_1_1_drawable_game_element.html#ac02be62a06dbded44d7d3b2611eebb2f" target="_top" xlink:title="game_engine.gameRepresentation.rendered\lRepresentation.DrawableGameElement.getLocation">
<polygon fill="white" stroke="black" points="568,-337 568,-367 832,-367 832,-337 568,-337"/>
<text text-anchor="start" x="576" y="-355" font-family="Helvetica,sans-Serif" font-size="10.00">game_engine.gameRepresentation.rendered</text>
<text text-anchor="middle" x="700" y="-344" font-family="Helvetica,sans-Serif" font-size="10.00">Representation.DrawableGameElement.getLocation</text>
</a>
</g>
</g>
<!-- Node2&#45;&gt;Node3 -->
<g id="edge2" class="edge"><title>Node2&#45;&gt;Node3</title>
<path fill="none" stroke="midnightblue" d="M429.489,-240.261C458.751,-261.362 514.865,-299.296 568,-321 580.622,-326.156 594.295,-330.572 607.884,-334.317"/>
<polygon fill="midnightblue" stroke="midnightblue" points="607.185,-337.752 617.747,-336.927 608.975,-330.985 607.185,-337.752"/>
</g>
<!-- Node5 -->
<g id="node5" class="node"><title>Node5</title>
<g id="a_node5"><a xlink:href="../../d5/d2c/classgame__engine_1_1game_representation_1_1rendered_representation_1_1_game_element.html#af7344c08292d2fd8b25c3fdda96f6abf" target="_top" xlink:title="game_engine.gameRepresentation.rendered\lRepresentation.GameElement.getNumerical\lAttribute">
<polygon fill="white" stroke="black" points="888.5,-281.5 888.5,-322.5 1119.5,-322.5 1119.5,-281.5 888.5,-281.5"/>
<text text-anchor="start" x="896.5" y="-310.5" font-family="Helvetica,sans-Serif" font-size="10.00">game_engine.gameRepresentation.rendered</text>
<text text-anchor="start" x="896.5" y="-299.5" font-family="Helvetica,sans-Serif" font-size="10.00">Representation.GameElement.getNumerical</text>
<text text-anchor="middle" x="1004" y="-288.5" font-family="Helvetica,sans-Serif" font-size="10.00">Attribute</text>
</a>
</g>
</g>
<!-- Node2&#45;&gt;Node5 -->
<g id="edge4" class="edge"><title>Node2&#45;&gt;Node5</title>
<path fill="none" stroke="midnightblue" d="M438.554,-240.022C469.804,-255.061 520.989,-277.317 568,-287 670.874,-308.19 790.274,-310.791 877.928,-308.743"/>
<polygon fill="midnightblue" stroke="midnightblue" points="878.28,-312.235 888.187,-308.479 878.1,-305.238 878.28,-312.235"/>
</g>
<!-- Node8 -->
<g id="node8" class="node"><title>Node8</title>
<g id="a_node8"><a xlink:href="../../df/de2/classgame__engine_1_1game_representation_1_1rendered_representation_1_1_selectable_game_element.html#a2b14038b5d9481124c9cf388d3b14270" target="_top" xlink:title="game_engine.gameRepresentation.rendered\lRepresentation.SelectableGameElement.set\lAnimationDirection">
<polygon fill="white" stroke="black" points="584.5,-177.5 584.5,-218.5 815.5,-218.5 815.5,-177.5 584.5,-177.5"/>
<text text-anchor="start" x="592.5" y="-206.5" font-family="Helvetica,sans-Serif" font-size="10.00">game_engine.gameRepresentation.rendered</text>
<text text-anchor="start" x="592.5" y="-195.5" font-family="Helvetica,sans-Serif" font-size="10.00">Representation.SelectableGameElement.set</text>
<text text-anchor="middle" x="700" y="-184.5" font-family="Helvetica,sans-Serif" font-size="10.00">AnimationDirection</text>
</a>
</g>
</g>
<!-- Node2&#45;&gt;Node8 -->
<g id="edge7" class="edge"><title>Node2&#45;&gt;Node8</title>
<path fill="none" stroke="midnightblue" d="M528.628,-213.862C543.587,-212.469 558.918,-211.042 573.956,-209.642"/>
<polygon fill="midnightblue" stroke="midnightblue" points="574.68,-213.09 584.313,-208.678 574.031,-206.12 574.68,-213.09"/>
</g>
<!-- Node12 -->
<g id="node12" class="node"><title>Node12</title>
<g id="a_node12"><a xlink:href="../../d5/d2c/classgame__engine_1_1game_representation_1_1rendered_representation_1_1_game_element.html#a843e7eda7705838d19379d22e723f77a" target="_top" xlink:title="game_engine.gameRepresentation.rendered\lRepresentation.GameElement.setNumerical\lAttribute">
<polygon fill="white" stroke="black" points="584.5,-117.5 584.5,-158.5 815.5,-158.5 815.5,-117.5 584.5,-117.5"/>
<text text-anchor="start" x="592.5" y="-146.5" font-family="Helvetica,sans-Serif" font-size="10.00">game_engine.gameRepresentation.rendered</text>
<text text-anchor="start" x="592.5" y="-135.5" font-family="Helvetica,sans-Serif" font-size="10.00">Representation.GameElement.setNumerical</text>
<text text-anchor="middle" x="700" y="-124.5" font-family="Helvetica,sans-Serif" font-size="10.00">Attribute</text>
</a>
</g>
</g>
<!-- Node2&#45;&gt;Node12 -->
<g id="edge11" class="edge"><title>Node2&#45;&gt;Node12</title>
<path fill="none" stroke="midnightblue" d="M447.133,-209.882C479.082,-197.567 526.065,-180.271 568,-168 576.216,-165.596 584.768,-163.264 593.391,-161.035"/>
<polygon fill="midnightblue" stroke="midnightblue" points="594.31,-164.412 603.143,-158.561 592.589,-157.627 594.31,-164.412"/>
</g>
<!-- Node15 -->
<g id="node15" class="node"><title>Node15</title>
<g id="a_node15"><a xlink:href="../../d1/dfe/classgame__engine_1_1game_representation_1_1rendered_representation_1_1_drawable_game_element.html#a882e8cf8e5ce4e392d578b1464f4567c" target="_top" xlink:title="game_engine.gameRepresentation.rendered\lRepresentation.DrawableGameElement.update\lImageLocation">
<polygon fill="white" stroke="black" points="579,-237.5 579,-278.5 821,-278.5 821,-237.5 579,-237.5"/>
<text text-anchor="start" x="587" y="-266.5" font-family="Helvetica,sans-Serif" font-size="10.00">game_engine.gameRepresentation.rendered</text>
<text text-anchor="start" x="587" y="-255.5" font-family="Helvetica,sans-Serif" font-size="10.00">Representation.DrawableGameElement.update</text>
<text text-anchor="middle" x="700" y="-244.5" font-family="Helvetica,sans-Serif" font-size="10.00">ImageLocation</text>
</a>
</g>
</g>
<!-- Node2&#45;&gt;Node15 -->
<g id="edge14" class="edge"><title>Node2&#45;&gt;Node15</title>
<path fill="none" stroke="midnightblue" d="M528.628,-238.613C541.807,-240.113 555.275,-241.645 568.578,-243.159"/>
<polygon fill="midnightblue" stroke="midnightblue" points="568.379,-246.659 578.71,-244.312 569.17,-239.704 568.379,-246.659"/>
</g>
<!-- Node4 -->
<g id="node4" class="node"><title>Node4</title>
<g id="a_node4"><a xlink:href="../../d1/dfe/classgame__engine_1_1game_representation_1_1rendered_representation_1_1_drawable_game_element.html#a6b5fbc1cbd72a42b04bf11efbb9f94c0" target="_top" xlink:title="game_engine.gameRepresentation.rendered\lRepresentation.DrawableGameElement.getNode">
<polygon fill="white" stroke="black" points="879.5,-341 879.5,-371 1128.5,-371 1128.5,-341 879.5,-341"/>
<text text-anchor="start" x="887.5" y="-359" font-family="Helvetica,sans-Serif" font-size="10.00">game_engine.gameRepresentation.rendered</text>
<text text-anchor="middle" x="1004" y="-348" font-family="Helvetica,sans-Serif" font-size="10.00">Representation.DrawableGameElement.getNode</text>
</a>
</g>
</g>
<!-- Node3&#45;&gt;Node4 -->
<g id="edge3" class="edge"><title>Node3&#45;&gt;Node4</title>
<path fill="none" stroke="midnightblue" d="M832.144,-353.737C844.331,-353.898 856.694,-354.062 868.908,-354.224"/>
<polygon fill="midnightblue" stroke="midnightblue" points="869.08,-357.726 879.125,-354.359 869.172,-350.727 869.08,-357.726"/>
</g>
<!-- Node6 -->
<g id="node6" class="node"><title>Node6</title>
<g id="a_node6"><a xlink:href="../../dc/d2d/classgame__engine_1_1game_representation_1_1state_representation_1_1game_element_1_1_game_element_state.html#aa40f5f12d9fa1ea430b6da56c002338d" target="_top" xlink:title="game_engine.gameRepresentation.state\lRepresentation.gameElement.GameElement\lState.getNumericalAttribute">
<polygon fill="white" stroke="black" points="1176.5,-281.5 1176.5,-322.5 1407.5,-322.5 1407.5,-281.5 1176.5,-281.5"/>
<text text-anchor="start" x="1184.5" y="-310.5" font-family="Helvetica,sans-Serif" font-size="10.00">game_engine.gameRepresentation.state</text>
<text text-anchor="start" x="1184.5" y="-299.5" font-family="Helvetica,sans-Serif" font-size="10.00">Representation.gameElement.GameElement</text>
<text text-anchor="middle" x="1292" y="-288.5" font-family="Helvetica,sans-Serif" font-size="10.00">State.getNumericalAttribute</text>
</a>
</g>
</g>
<!-- Node5&#45;&gt;Node6 -->
<g id="edge5" class="edge"><title>Node5&#45;&gt;Node6</title>
<path fill="none" stroke="midnightblue" d="M1119.68,-302C1134.98,-302 1150.73,-302 1166.18,-302"/>
<polygon fill="midnightblue" stroke="midnightblue" points="1166.3,-305.5 1176.3,-302 1166.3,-298.5 1166.3,-305.5"/>
</g>
<!-- Node7 -->
<g id="node7" class="node"><title>Node7</title>
<g id="a_node7"><a xlink:href="../../dc/d2d/classgame__engine_1_1game_representation_1_1state_representation_1_1game_element_1_1_game_element_state.html#a92d017656dffc9e74dabe8f016ffacd8" target="_top" xlink:title="game_engine.gameRepresentation.state\lRepresentation.gameElement.GameElement\lState.getAttribute">
<polygon fill="white" stroke="black" points="1444.5,-281.5 1444.5,-322.5 1675.5,-322.5 1675.5,-281.5 1444.5,-281.5"/>
<text text-anchor="start" x="1452.5" y="-310.5" font-family="Helvetica,sans-Serif" font-size="10.00">game_engine.gameRepresentation.state</text>
<text text-anchor="start" x="1452.5" y="-299.5" font-family="Helvetica,sans-Serif" font-size="10.00">Representation.gameElement.GameElement</text>
<text text-anchor="middle" x="1560" y="-288.5" font-family="Helvetica,sans-Serif" font-size="10.00">State.getAttribute</text>
</a>
</g>
</g>
<!-- Node6&#45;&gt;Node7 -->
<g id="edge6" class="edge"><title>Node6&#45;&gt;Node7</title>
<path fill="none" stroke="midnightblue" d="M1407.74,-302C1416.43,-302 1425.23,-302 1433.98,-302"/>
<polygon fill="midnightblue" stroke="midnightblue" points="1434.22,-305.5 1444.22,-302 1434.22,-298.5 1434.22,-305.5"/>
</g>
<!-- Node9 -->
<g id="node9" class="node"><title>Node9</title>
<g id="a_node9"><a xlink:href="../../df/de2/classgame__engine_1_1game_representation_1_1rendered_representation_1_1_selectable_game_element.html#a4f9bf2f908748ba1e78663c849ea1c53" target="_top" xlink:title="game_engine.gameRepresentation.rendered\lRepresentation.SelectableGameElement.get\lDirection">
<polygon fill="white" stroke="black" points="888.5,-221.5 888.5,-262.5 1119.5,-262.5 1119.5,-221.5 888.5,-221.5"/>
<text text-anchor="start" x="896.5" y="-250.5" font-family="Helvetica,sans-Serif" font-size="10.00">game_engine.gameRepresentation.rendered</text>
<text text-anchor="start" x="896.5" y="-239.5" font-family="Helvetica,sans-Serif" font-size="10.00">Representation.SelectableGameElement.get</text>
<text text-anchor="middle" x="1004" y="-228.5" font-family="Helvetica,sans-Serif" font-size="10.00">Direction</text>
</a>
</g>
</g>
<!-- Node8&#45;&gt;Node9 -->
<g id="edge8" class="edge"><title>Node8&#45;&gt;Node9</title>
<path fill="none" stroke="midnightblue" d="M815.604,-214.697C836.11,-217.685 857.568,-220.811 878.34,-223.838"/>
<polygon fill="midnightblue" stroke="midnightblue" points="878.074,-227.336 888.474,-225.314 879.083,-220.409 878.074,-227.336"/>
</g>
<!-- Node10 -->
<g id="node10" class="node"><title>Node10</title>
<g id="a_node10"><a xlink:href="../../d1/dfe/classgame__engine_1_1game_representation_1_1rendered_representation_1_1_drawable_game_element.html#af9c0e5a3203d72f14ae4b2ddae2823f3" target="_top" xlink:title="game_engine.gameRepresentation.rendered\lRepresentation.DrawableGameElement.setAnimation">
<polygon fill="white" stroke="black" points="868,-173 868,-203 1140,-203 1140,-173 868,-173"/>
<text text-anchor="start" x="876" y="-191" font-family="Helvetica,sans-Serif" font-size="10.00">game_engine.gameRepresentation.rendered</text>
<text text-anchor="middle" x="1004" y="-180" font-family="Helvetica,sans-Serif" font-size="10.00">Representation.DrawableGameElement.setAnimation</text>
</a>
</g>
</g>
<!-- Node8&#45;&gt;Node10 -->
<g id="edge9" class="edge"><title>Node8&#45;&gt;Node10</title>
<path fill="none" stroke="midnightblue" d="M815.604,-194.205C829.367,-193.749 843.559,-193.28 857.684,-192.812"/>
<polygon fill="midnightblue" stroke="midnightblue" points="858.072,-196.301 867.951,-192.472 857.84,-189.305 858.072,-196.301"/>
</g>
<!-- Node11 -->
<g id="node11" class="node"><title>Node11</title>
<g id="a_node11"><a xlink:href="../../d7/d49/classgame__engine_1_1visuals_1_1_animation_player.html#aa5c013b4e7921b161cf6bbd5392c3991" target="_top" xlink:title="game_engine.visuals.Animation\lPlayer.setAnimation">
<polygon fill="white" stroke="black" points="1207.5,-173 1207.5,-203 1376.5,-203 1376.5,-173 1207.5,-173"/>
<text text-anchor="start" x="1215.5" y="-191" font-family="Helvetica,sans-Serif" font-size="10.00">game_engine.visuals.Animation</text>
<text text-anchor="middle" x="1292" y="-180" font-family="Helvetica,sans-Serif" font-size="10.00">Player.setAnimation</text>
</a>
</g>
</g>
<!-- Node10&#45;&gt;Node11 -->
<g id="edge10" class="edge"><title>Node10&#45;&gt;Node11</title>
<path fill="none" stroke="midnightblue" d="M1140.04,-188C1159.45,-188 1179.05,-188 1197.41,-188"/>
<polygon fill="midnightblue" stroke="midnightblue" points="1197.47,-191.5 1207.47,-188 1197.47,-184.5 1197.47,-191.5"/>
</g>
<!-- Node13 -->
<g id="node13" class="node"><title>Node13</title>
<g id="a_node13"><a xlink:href="../../dc/d2d/classgame__engine_1_1game_representation_1_1state_representation_1_1game_element_1_1_game_element_state.html#af2c070dd27e2d8a3c515ef55a317aa38" target="_top" xlink:title="game_engine.gameRepresentation.state\lRepresentation.gameElement.GameElement\lState.setNumericalAttribute">
<polygon fill="white" stroke="black" points="888.5,-113.5 888.5,-154.5 1119.5,-154.5 1119.5,-113.5 888.5,-113.5"/>
<text text-anchor="start" x="896.5" y="-142.5" font-family="Helvetica,sans-Serif" font-size="10.00">game_engine.gameRepresentation.state</text>
<text text-anchor="start" x="896.5" y="-131.5" font-family="Helvetica,sans-Serif" font-size="10.00">Representation.gameElement.GameElement</text>
<text text-anchor="middle" x="1004" y="-120.5" font-family="Helvetica,sans-Serif" font-size="10.00">State.setNumericalAttribute</text>
</a>
</g>
</g>
<!-- Node12&#45;&gt;Node13 -->
<g id="edge12" class="edge"><title>Node12&#45;&gt;Node13</title>
<path fill="none" stroke="midnightblue" d="M815.604,-136.482C836.11,-136.21 857.568,-135.926 878.34,-135.651"/>
<polygon fill="midnightblue" stroke="midnightblue" points="878.522,-139.149 888.474,-135.517 878.429,-132.15 878.522,-139.149"/>
</g>
<!-- Node14 -->
<g id="node14" class="node"><title>Node14</title>
<g id="a_node14"><a xlink:href="../../dc/d2d/classgame__engine_1_1game_representation_1_1state_representation_1_1game_element_1_1_game_element_state.html#a1544cb353263227e008ae84f12deda9a" target="_top" xlink:title="game_engine.gameRepresentation.state\lRepresentation.gameElement.GameElement\lState.addAttribute">
<polygon fill="white" stroke="black" points="1176.5,-113.5 1176.5,-154.5 1407.5,-154.5 1407.5,-113.5 1176.5,-113.5"/>
<text text-anchor="start" x="1184.5" y="-142.5" font-family="Helvetica,sans-Serif" font-size="10.00">game_engine.gameRepresentation.state</text>
<text text-anchor="start" x="1184.5" y="-131.5" font-family="Helvetica,sans-Serif" font-size="10.00">Representation.gameElement.GameElement</text>
<text text-anchor="middle" x="1292" y="-120.5" font-family="Helvetica,sans-Serif" font-size="10.00">State.addAttribute</text>
</a>
</g>
</g>
<!-- Node13&#45;&gt;Node14 -->
<g id="edge13" class="edge"><title>Node13&#45;&gt;Node14</title>
<path fill="none" stroke="midnightblue" d="M1119.68,-134C1134.98,-134 1150.73,-134 1166.18,-134"/>
<polygon fill="midnightblue" stroke="midnightblue" points="1166.3,-137.5 1176.3,-134 1166.3,-130.5 1166.3,-137.5"/>
</g>
<!-- Node15&#45;&gt;Node5 -->
<g id="edge15" class="edge"><title>Node15&#45;&gt;Node5</title>
<path fill="none" stroke="midnightblue" d="M821.226,-275.516C839.91,-278.239 859.25,-281.056 878.035,-283.793"/>
<polygon fill="midnightblue" stroke="midnightblue" points="877.703,-287.282 888.103,-285.26 878.712,-280.355 877.703,-287.282"/>
</g>
<!-- Node17 -->
<g id="node17" class="node"><title>Node17</title>
<g id="a_node17"><a xlink:href="../../df/de2/classgame__engine_1_1game_representation_1_1rendered_representation_1_1_selectable_game_element.html#a144c1b466d12143bdd6549ecb9cc599e" target="_top" xlink:title="game_engine.gameRepresentation.rendered\lRepresentation.SelectableGameElement.update\lSelfDueToInteractingElementsSubset">
<polygon fill="white" stroke="black" points="576,-57.5 576,-98.5 824,-98.5 824,-57.5 576,-57.5"/>
<text text-anchor="start" x="584" y="-86.5" font-family="Helvetica,sans-Serif" font-size="10.00">game_engine.gameRepresentation.rendered</text>
<text text-anchor="start" x="584" y="-75.5" font-family="Helvetica,sans-Serif" font-size="10.00">Representation.SelectableGameElement.update</text>
<text text-anchor="middle" x="700" y="-64.5" font-family="Helvetica,sans-Serif" font-size="10.00">SelfDueToInteractingElementsSubset</text>
</a>
</g>
</g>
<!-- Node16&#45;&gt;Node17 -->
<g id="edge17" class="edge"><title>Node16&#45;&gt;Node17</title>
<path fill="none" stroke="midnightblue" d="M503.556,-120.459C532.662,-114.136 564.866,-107.139 594.594,-100.681"/>
<polygon fill="midnightblue" stroke="midnightblue" points="595.544,-104.057 604.573,-98.5135 594.058,-97.2162 595.544,-104.057"/>
</g>
<!-- Node18 -->
<g id="node18" class="node"><title>Node18</title>
<g id="a_node18"><a xlink:href="../../d5/d2c/classgame__engine_1_1game_representation_1_1rendered_representation_1_1_game_element.html#a59bd8329d1507c5af7c4002edb8d661d" target="_top" xlink:title="game_engine.gameRepresentation.rendered\lRepresentation.GameElement.getActionsOfType">
<polygon fill="white" stroke="black" points="881,-39 881,-69 1127,-69 1127,-39 881,-39"/>
<text text-anchor="start" x="889" y="-57" font-family="Helvetica,sans-Serif" font-size="10.00">game_engine.gameRepresentation.rendered</text>
<text text-anchor="middle" x="1004" y="-46" font-family="Helvetica,sans-Serif" font-size="10.00">Representation.GameElement.getActionsOfType</text>
</a>
</g>
</g>
<!-- Node17&#45;&gt;Node18 -->
<g id="edge18" class="edge"><title>Node17&#45;&gt;Node18</title>
<path fill="none" stroke="midnightblue" d="M824.271,-68.2037C839.523,-66.9916 855.166,-65.7484 870.548,-64.526"/>
<polygon fill="midnightblue" stroke="midnightblue" points="870.921,-68.0075 880.612,-63.7262 870.366,-61.0295 870.921,-68.0075"/>
</g>
<!-- Node20 -->
<g id="node20" class="node"><title>Node20</title>
<g id="a_node20"><a xlink:href="../../d5/d2c/classgame__engine_1_1game_representation_1_1rendered_representation_1_1_game_element.html#a9c2414004c7f1b69376562f8ed6b85f2" target="_top" xlink:title="game_engine.gameRepresentation.rendered\lRepresentation.GameElement.executeAllActions">
<polygon fill="white" stroke="black" points="576,-9 576,-39 824,-39 824,-9 576,-9"/>
<text text-anchor="start" x="584" y="-27" font-family="Helvetica,sans-Serif" font-size="10.00">game_engine.gameRepresentation.rendered</text>
<text text-anchor="middle" x="700" y="-16" font-family="Helvetica,sans-Serif" font-size="10.00">Representation.GameElement.executeAllActions</text>
</a>
</g>
</g>
<!-- Node19&#45;&gt;Node20 -->
<g id="edge20" class="edge"><title>Node19&#45;&gt;Node20</title>
<path fill="none" stroke="midnightblue" d="M532.407,-22.2766C543.383,-22.3902 554.529,-22.5055 565.584,-22.6198"/>
<polygon fill="midnightblue" stroke="midnightblue" points="565.669,-26.1208 575.704,-22.7245 565.741,-19.1212 565.669,-26.1208"/>
</g>
<!-- Node20&#45;&gt;Node18 -->
<g id="edge21" class="edge"><title>Node20&#45;&gt;Node18</title>
<path fill="none" stroke="midnightblue" d="M824.271,-36.2454C839.523,-37.7605 855.166,-39.3145 870.548,-40.8425"/>
<polygon fill="midnightblue" stroke="midnightblue" points="870.315,-44.3365 880.612,-41.8423 871.007,-37.3708 870.315,-44.3365"/>
</g>
<!-- Node21&#45;&gt;Node17 -->
<g id="edge23" class="edge"><title>Node21&#45;&gt;Node17</title>
<path fill="none" stroke="midnightblue" d="M532.407,-79.7234C543.383,-79.6098 554.529,-79.4945 565.584,-79.3802"/>
<polygon fill="midnightblue" stroke="midnightblue" points="565.741,-82.8788 575.704,-79.2755 565.669,-75.8792 565.741,-82.8788"/>
</g>
</g>
</svg>
