<?xml version="1.0" encoding="UTF-8" standalone="no"?>
<!DOCTYPE svg PUBLIC "-//W3C//DTD SVG 1.1//EN"
 "http://www.w3.org/Graphics/SVG/1.1/DTD/svg11.dtd">
<!-- Generated by graphviz version 2.36.0 (20140111.2315)
 -->
<!-- Title: game_engine.gameRepresentation.stateRepresentation.LevelState.setNumericalAttribute Pages: 1 -->
<svg width="468pt" height="48pt"
 viewBox="0.00 0.00 468.00 48.00" xmlns="http://www.w3.org/2000/svg" xmlns:xlink="http://www.w3.org/1999/xlink">
<g id="graph0" class="graph" transform="scale(1 1) rotate(0) translate(4 44)">
<title>game_engine.gameRepresentation.stateRepresentation.LevelState.setNumericalAttribute</title>
<polygon fill="white" stroke="none" points="-4,4 -4,-44 464,-44 464,4 -4,4"/>
<!-- Node1 -->
<g id="node1" class="node"><title>Node1</title>
<polygon fill="#bfbfbf" stroke="black" points="0,0.5 0,-40.5 212,-40.5 212,0.5 0,0.5"/>
<text text-anchor="start" x="8" y="-28.5" font-family="Helvetica,sans-Serif" font-size="10.00">game_engine.gameRepresentation.state</text>
<text text-anchor="start" x="8" y="-17.5" font-family="Helvetica,sans-Serif" font-size="10.00">Representation.LevelState.setNumerical</text>
<text text-anchor="middle" x="106" y="-6.5" font-family="Helvetica,sans-Serif" font-size="10.00">Attribute</text>
</g>
<!-- Node2 -->
<g id="node2" class="node"><title>Node2</title>
<g id="a_node2"><a xlink:href="../../d3/d7a/classgame__engine_1_1game_representation_1_1state_representation_1_1_level_state.html#a1fa581c84631cca969f943b107bcc702" target="_top" xlink:title="game_engine.gameRepresentation.state\lRepresentation.LevelState.addAttribute">
<polygon fill="white" stroke="black" points="248,-5 248,-35 460,-35 460,-5 248,-5"/>
<text text-anchor="start" x="256" y="-23" font-family="Helvetica,sans-Serif" font-size="10.00">game_engine.gameRepresentation.state</text>
<text text-anchor="middle" x="354" y="-12" font-family="Helvetica,sans-Serif" font-size="10.00">Representation.LevelState.addAttribute</text>
</a>
</g>
</g>
<!-- Node1&#45;&gt;Node2 -->
<g id="edge1" class="edge"><title>Node1&#45;&gt;Node2</title>
<path fill="none" stroke="midnightblue" d="M212.04,-20C220.581,-20 229.241,-20 237.849,-20"/>
<polygon fill="midnightblue" stroke="midnightblue" points="237.92,-23.5001 247.92,-20 237.92,-16.5001 237.92,-23.5001"/>
</g>
</g>
</svg>
