<?xml version="1.0" encoding="UTF-8" standalone="no"?>
<!DOCTYPE svg PUBLIC "-//W3C//DTD SVG 1.1//EN"
 "http://www.w3.org/Graphics/SVG/1.1/DTD/svg11.dtd">
<!-- Generated by graphviz version 2.36.0 (20140111.2315)
 -->
<!-- Title: game_engine.gameRepresentation.renderedRepresentation.SelectableGameElement Pages: 1 -->
<svg width="1876pt" height="631pt"
 viewBox="0.00 0.00 1876.00 631.00" xmlns="http://www.w3.org/2000/svg" xmlns:xlink="http://www.w3.org/1999/xlink">
<g id="graph0" class="graph" transform="scale(1 1) rotate(0) translate(4 627)">
<title>game_engine.gameRepresentation.renderedRepresentation.SelectableGameElement</title>
<polygon fill="white" stroke="none" points="-4,4 -4,-627 1872,-627 1872,4 -4,4"/>
<!-- Node1 -->
<g id="node1" class="node"><title>Node1</title>
<polygon fill="#bfbfbf" stroke="black" points="1636.5,-196 1636.5,-226 1867.5,-226 1867.5,-196 1636.5,-196"/>
<text text-anchor="start" x="1644.5" y="-214" font-family="Helvetica,sans-Serif" font-size="10.00">game_engine.gameRepresentation.rendered</text>
<text text-anchor="middle" x="1752" y="-203" font-family="Helvetica,sans-Serif" font-size="10.00">Representation.SelectableGameElement</text>
</g>
<!-- Node2 -->
<g id="node2" class="node"><title>Node2</title>
<g id="a_node2"><a xlink:href="../../d1/dfe/classgame__engine_1_1game_representation_1_1rendered_representation_1_1_drawable_game_element.html" target="_top" xlink:title="game_engine.gameRepresentation.rendered\lRepresentation.DrawableGameElement">
<polygon fill="white" stroke="black" points="1235.5,-317 1235.5,-347 1466.5,-347 1466.5,-317 1235.5,-317"/>
<text text-anchor="start" x="1243.5" y="-335" font-family="Helvetica,sans-Serif" font-size="10.00">game_engine.gameRepresentation.rendered</text>
<text text-anchor="middle" x="1351" y="-324" font-family="Helvetica,sans-Serif" font-size="10.00">Representation.DrawableGameElement</text>
</a>
</g>
</g>
<!-- Node2&#45;&gt;Node1 -->
<g id="edge1" class="edge"><title>Node2&#45;&gt;Node1</title>
<path fill="none" stroke="midnightblue" d="M1411.5,-313.956C1490.27,-290.068 1627.75,-248.376 1701.27,-226.08"/>
<polygon fill="midnightblue" stroke="midnightblue" points="1410.28,-310.668 1401.73,-316.92 1412.31,-317.367 1410.28,-310.668"/>
</g>
<!-- Node3 -->
<g id="node3" class="node"><title>Node3</title>
<g id="a_node3"><a xlink:href="../../d5/d2c/classgame__engine_1_1game_representation_1_1rendered_representation_1_1_game_element.html" target="_top" xlink:title="game_engine.gameRepresentation.rendered\lRepresentation.GameElement">
<polygon fill="white" stroke="black" points="792.5,-273 792.5,-303 1023.5,-303 1023.5,-273 792.5,-273"/>
<text text-anchor="start" x="800.5" y="-291" font-family="Helvetica,sans-Serif" font-size="10.00">game_engine.gameRepresentation.rendered</text>
<text text-anchor="middle" x="908" y="-280" font-family="Helvetica,sans-Serif" font-size="10.00">Representation.GameElement</text>
</a>
</g>
</g>
<!-- Node3&#45;&gt;Node2 -->
<g id="edge2" class="edge"><title>Node3&#45;&gt;Node2</title>
<path fill="none" stroke="midnightblue" d="M1033.77,-300.449C1097.15,-306.772 1173.61,-314.401 1235.48,-320.574"/>
<polygon fill="midnightblue" stroke="midnightblue" points="1034.01,-296.956 1023.72,-299.446 1033.32,-303.921 1034.01,-296.956"/>
</g>
<!-- Node4 -->
<g id="node4" class="node"><title>Node4</title>
<polygon fill="white" stroke="#bfbfbf" points="474.5,-561.5 474.5,-580.5 567.5,-580.5 567.5,-561.5 474.5,-561.5"/>
<text text-anchor="middle" x="521" y="-568.5" font-family="Helvetica,sans-Serif" font-size="10.00">ResourceBundle</text>
</g>
<!-- Node4&#45;&gt;Node1 -->
<g id="edge34" class="edge"><title>Node4&#45;&gt;Node1</title>
<path fill="none" stroke="#9a32cd" stroke-dasharray="5,2" d="M577.833,-572.701C671.114,-574.743 864.354,-575.555 1026,-554 1331.03,-513.326 1649.72,-287.256 1731.16,-226.2"/>
<polygon fill="#9a32cd" stroke="#9a32cd" points="577.85,-569.201 567.771,-572.467 577.687,-576.199 577.85,-569.201"/>
<text text-anchor="middle" x="1122" y="-554" font-family="Helvetica,sans-Serif" font-size="10.00"> myInteractingElementTypes</text>
</g>
<!-- Node4&#45;&gt;Node3 -->
<g id="edge3" class="edge"><title>Node4&#45;&gt;Node3</title>
<path fill="none" stroke="#9a32cd" stroke-dasharray="5,2" d="M577.967,-576.58C603.401,-575.912 631.807,-570.117 650,-551 676.189,-523.481 644.931,-411.183 668,-381 700.309,-338.727 754.533,-315.656 803.171,-303.07"/>
<polygon fill="#9a32cd" stroke="#9a32cd" points="577.656,-573.08 567.658,-576.586 577.66,-580.08 577.656,-573.08"/>
<text text-anchor="middle" x="720" y="-384" font-family="Helvetica,sans-Serif" font-size="10.00"> actionTypes</text>
</g>
<!-- Node5 -->
<g id="node5" class="node"><title>Node5</title>
<polygon fill="white" stroke="#bfbfbf" points="394,-255.5 394,-296.5 648,-296.5 648,-255.5 394,-255.5"/>
<text text-anchor="start" x="402" y="-284.5" font-family="Helvetica,sans-Serif" font-size="10.00">Map&lt; String, List&lt;</text>
<text text-anchor="start" x="402" y="-273.5" font-family="Helvetica,sans-Serif" font-size="10.00"> game_engine.gameRepresentation.evaluatables.</text>
<text text-anchor="middle" x="521" y="-262.5" font-family="Helvetica,sans-Serif" font-size="10.00">Evaluatable&lt;?&gt; &gt; &gt;</text>
</g>
<!-- Node5&#45;&gt;Node3 -->
<g id="edge4" class="edge"><title>Node5&#45;&gt;Node3</title>
<path fill="none" stroke="#9a32cd" stroke-dasharray="5,2" d="M658.581,-272.887C695.417,-272.748 735.246,-273.234 772,-275 778.585,-275.316 785.345,-275.719 792.162,-276.185"/>
<polygon fill="#9a32cd" stroke="#9a32cd" points="658.257,-269.389 648.276,-272.942 658.294,-276.388 658.257,-269.389"/>
<text text-anchor="middle" x="720" y="-278" font-family="Helvetica,sans-Serif" font-size="10.00"> myActionLists</text>
</g>
<!-- Node6 -->
<g id="node6" class="node"><title>Node6</title>
<g id="a_node6"><a xlink:href="../../dc/d2d/classgame__engine_1_1game_representation_1_1state_representation_1_1game_element_1_1_game_element_state.html" target="_top" xlink:title="game_engine.gameRepresentation.state\lRepresentation.gameElement.GameElementState">
<polygon fill="white" stroke="black" points="392.5,-207 392.5,-237 649.5,-237 649.5,-207 392.5,-207"/>
<text text-anchor="start" x="400.5" y="-225" font-family="Helvetica,sans-Serif" font-size="10.00">game_engine.gameRepresentation.state</text>
<text text-anchor="middle" x="521" y="-214" font-family="Helvetica,sans-Serif" font-size="10.00">Representation.gameElement.GameElementState</text>
</a>
</g>
</g>
<!-- Node6&#45;&gt;Node3 -->
<g id="edge5" class="edge"><title>Node6&#45;&gt;Node3</title>
<path fill="none" stroke="#9a32cd" stroke-dasharray="5,2" d="M658.782,-238.475C695.7,-243.797 735.519,-250.339 772,-258 780.126,-259.706 781.937,-261.021 790,-263 803.919,-266.417 818.834,-269.808 833.198,-272.939"/>
<polygon fill="#9a32cd" stroke="#9a32cd" points="658.844,-234.948 648.451,-237.006 657.859,-241.879 658.844,-234.948"/>
<text text-anchor="middle" x="720" y="-261" font-family="Helvetica,sans-Serif" font-size="10.00"> myState</text>
</g>
<!-- Node20 -->
<g id="node20" class="node"><title>Node20</title>
<g id="a_node20"><a xlink:href="../../db/d72/classgame__engine_1_1game_representation_1_1state_representation_1_1game_element_1_1_drawable_game_element_state.html" target="_top" xlink:title="game_engine.gameRepresentation.state\lRepresentation.gameElement.DrawableGame\lElementState">
<polygon fill="white" stroke="black" points="790,-136.5 790,-177.5 1026,-177.5 1026,-136.5 790,-136.5"/>
<text text-anchor="start" x="798" y="-165.5" font-family="Helvetica,sans-Serif" font-size="10.00">game_engine.gameRepresentation.state</text>
<text text-anchor="start" x="798" y="-154.5" font-family="Helvetica,sans-Serif" font-size="10.00">Representation.gameElement.DrawableGame</text>
<text text-anchor="middle" x="908" y="-143.5" font-family="Helvetica,sans-Serif" font-size="10.00">ElementState</text>
</a>
</g>
</g>
<!-- Node6&#45;&gt;Node20 -->
<g id="edge24" class="edge"><title>Node6&#45;&gt;Node20</title>
<path fill="none" stroke="midnightblue" d="M621.417,-205.215C672.838,-196.534 735.93,-185.882 789.723,-176.8"/>
<polygon fill="midnightblue" stroke="midnightblue" points="620.572,-201.808 611.294,-206.924 621.738,-208.711 620.572,-201.808"/>
</g>
<!-- Node7 -->
<g id="node7" class="node"><title>Node7</title>
<g id="a_node7"><a xlink:href="../../df/d74/interfaceutil_1_1_j_s_o_nable.html" target="_top" xlink:title="util.JSONable">
<polygon fill="white" stroke="black" points="81,-129.5 81,-148.5 159,-148.5 159,-129.5 81,-129.5"/>
<text text-anchor="middle" x="120" y="-136.5" font-family="Helvetica,sans-Serif" font-size="10.00">util.JSONable</text>
</a>
</g>
</g>
<!-- Node7&#45;&gt;Node6 -->
<g id="edge6" class="edge"><title>Node7&#45;&gt;Node6</title>
<path fill="none" stroke="midnightblue" d="M169.169,-148.728C190.986,-153.543 216.989,-159.857 240,-167 248.198,-169.545 249.741,-171.661 258,-174 307.943,-188.148 364.461,-199.117 412.185,-206.975"/>
<polygon fill="midnightblue" stroke="midnightblue" points="169.662,-145.253 159.147,-146.555 168.179,-152.094 169.662,-145.253"/>
</g>
<!-- Node22 -->
<g id="node22" class="node"><title>Node22</title>
<g id="a_node22"><a xlink:href="../../d7/d37/classgame__engine_1_1visuals_1_1_spritesheet.html" target="_top" xlink:title="game_engine.visuals.Spritesheet">
<polygon fill="white" stroke="black" points="433,-119.5 433,-138.5 609,-138.5 609,-119.5 433,-119.5"/>
<text text-anchor="middle" x="521" y="-126.5" font-family="Helvetica,sans-Serif" font-size="10.00">game_engine.visuals.Spritesheet</text>
</a>
</g>
</g>
<!-- Node7&#45;&gt;Node22 -->
<g id="edge28" class="edge"><title>Node7&#45;&gt;Node22</title>
<path fill="none" stroke="midnightblue" d="M169.272,-137.79C234.551,-136.154 352.096,-133.208 432.989,-131.181"/>
<polygon fill="midnightblue" stroke="midnightblue" points="169.167,-134.292 159.258,-138.041 169.342,-141.289 169.167,-134.292"/>
</g>
<!-- Node8 -->
<g id="node8" class="node"><title>Node8</title>
<polygon fill="white" stroke="#bfbfbf" points="0,-176.5 0,-217.5 240,-217.5 240,-176.5 0,-176.5"/>
<text text-anchor="start" x="8" y="-205.5" font-family="Helvetica,sans-Serif" font-size="10.00">Set&lt; game_engine.gameRepresentation.state</text>
<text text-anchor="start" x="8" y="-194.5" font-family="Helvetica,sans-Serif" font-size="10.00">Representation.gameElement.Attribute</text>
<text text-anchor="middle" x="120" y="-183.5" font-family="Helvetica,sans-Serif" font-size="10.00">&lt; Number &gt; &gt;</text>
</g>
<!-- Node8&#45;&gt;Node6 -->
<g id="edge7" class="edge"><title>Node8&#45;&gt;Node6</title>
<path fill="none" stroke="#9a32cd" stroke-dasharray="5,2" d="M250.402,-205.108C295.929,-207.96 347.037,-211.163 392.413,-214.006"/>
<polygon fill="#9a32cd" stroke="#9a32cd" points="250.372,-201.599 240.173,-204.467 249.934,-208.586 250.372,-201.599"/>
<text text-anchor="middle" x="316" y="-216" font-family="Helvetica,sans-Serif" font-size="10.00"> myNumericalAttributes</text>
</g>
<!-- Node9 -->
<g id="node9" class="node"><title>Node9</title>
<polygon fill="white" stroke="#bfbfbf" points="66.5,-335 66.5,-365 173.5,-365 173.5,-335 66.5,-335"/>
<text text-anchor="start" x="74.5" y="-353" font-family="Helvetica,sans-Serif" font-size="10.00">Map&lt; String, List&lt;</text>
<text text-anchor="middle" x="120" y="-342" font-family="Helvetica,sans-Serif" font-size="10.00"> String &gt; &gt;</text>
</g>
<!-- Node9&#45;&gt;Node6 -->
<g id="edge8" class="edge"><title>Node9&#45;&gt;Node6</title>
<path fill="none" stroke="#9a32cd" stroke-dasharray="5,2" d="M183.626,-339.831C202.039,-336.044 222.05,-331.135 240,-325 302.635,-303.591 317.79,-294.955 374,-260 382.606,-254.648 382.759,-250.162 392,-246 399.628,-242.564 407.724,-239.621 415.995,-237.098"/>
<polygon fill="#9a32cd" stroke="#9a32cd" points="182.713,-336.444 173.584,-341.82 184.074,-343.31 182.713,-336.444"/>
<text text-anchor="middle" x="316" y="-321" font-family="Helvetica,sans-Serif" font-size="10.00"> myActions</text>
</g>
<!-- Node10 -->
<g id="node10" class="node"><title>Node10</title>
<polygon fill="white" stroke="#bfbfbf" points="0,-236.5 0,-277.5 240,-277.5 240,-236.5 0,-236.5"/>
<text text-anchor="start" x="8" y="-265.5" font-family="Helvetica,sans-Serif" font-size="10.00">Set&lt; game_engine.gameRepresentation.state</text>
<text text-anchor="start" x="8" y="-254.5" font-family="Helvetica,sans-Serif" font-size="10.00">Representation.gameElement.Attribute</text>
<text text-anchor="middle" x="120" y="-243.5" font-family="Helvetica,sans-Serif" font-size="10.00">&lt; String &gt; &gt;</text>
</g>
<!-- Node10&#45;&gt;Node6 -->
<g id="edge9" class="edge"><title>Node10&#45;&gt;Node6</title>
<path fill="none" stroke="#9a32cd" stroke-dasharray="5,2" d="M250.402,-245.649C295.929,-241.655 347.037,-237.172 392.413,-233.192"/>
<polygon fill="#9a32cd" stroke="#9a32cd" points="249.829,-242.186 240.173,-246.546 250.44,-249.159 249.829,-242.186"/>
<text text-anchor="middle" x="316" y="-248" font-family="Helvetica,sans-Serif" font-size="10.00"> myTextualAttributes</text>
</g>
<!-- Node11 -->
<g id="node11" class="node"><title>Node11</title>
<g id="a_node11"><a xlink:href="../../d1/de3/interfacegame__engine_1_1visuals_1_1_displayable.html" target="_top" xlink:title="game_engine.visuals.Displayable">
<polygon fill="white" stroke="black" points="433.5,-315.5 433.5,-334.5 608.5,-334.5 608.5,-315.5 433.5,-315.5"/>
<text text-anchor="middle" x="521" y="-322.5" font-family="Helvetica,sans-Serif" font-size="10.00">game_engine.visuals.Displayable</text>
</a>
</g>
</g>
<!-- Node11&#45;&gt;Node2 -->
<g id="edge10" class="edge"><title>Node11&#45;&gt;Node2</title>
<path fill="none" stroke="midnightblue" d="M618.967,-322.728C635.333,-322.425 652.15,-322.163 668,-322 867.52,-319.95 1099.85,-324.931 1235.37,-328.576"/>
<polygon fill="midnightblue" stroke="midnightblue" points="618.779,-319.231 608.848,-322.922 618.913,-326.23 618.779,-319.231"/>
</g>
<!-- Node15 -->
<g id="node15" class="node"><title>Node15</title>
<g id="a_node15"><a xlink:href="../../d7/d49/classgame__engine_1_1visuals_1_1_animation_player.html" target="_top" xlink:title="game_engine.visuals.Animation\lPlayer">
<polygon fill="white" stroke="black" points="823.5,-369 823.5,-399 992.5,-399 992.5,-369 823.5,-369"/>
<text text-anchor="start" x="831.5" y="-387" font-family="Helvetica,sans-Serif" font-size="10.00">game_engine.visuals.Animation</text>
<text text-anchor="middle" x="908" y="-376" font-family="Helvetica,sans-Serif" font-size="10.00">Player</text>
</a>
</g>
</g>
<!-- Node11&#45;&gt;Node15 -->
<g id="edge16" class="edge"><title>Node11&#45;&gt;Node15</title>
<path fill="none" stroke="midnightblue" d="M618.648,-323.363C665.428,-324.352 722.129,-328.192 772,-339 780.389,-340.818 781.915,-343.118 790,-346 812.43,-353.997 837.517,-362.236 858.69,-368.99"/>
<polygon fill="midnightblue" stroke="midnightblue" points="618.576,-319.861 608.517,-323.189 618.456,-326.86 618.576,-319.861"/>
</g>
<!-- Node12 -->
<g id="node12" class="node"><title>Node12</title>
<g id="a_node12"><a xlink:href="../../d3/dfc/interfacegame__engine_1_1game_representation_1_1state_representation_1_1game_element_1_1traits_1_1_boundable.html" target="_top" xlink:title="game_engine.gameRepresentation.state\lRepresentation.gameElement.traits.Boundable">
<polygon fill="white" stroke="black" points="400.5,-158 400.5,-188 641.5,-188 641.5,-158 400.5,-158"/>
<text text-anchor="start" x="408.5" y="-176" font-family="Helvetica,sans-Serif" font-size="10.00">game_engine.gameRepresentation.state</text>
<text text-anchor="middle" x="521" y="-165" font-family="Helvetica,sans-Serif" font-size="10.00">Representation.gameElement.traits.Boundable</text>
</a>
</g>
</g>
<!-- Node12&#45;&gt;Node2 -->
<g id="edge11" class="edge"><title>Node12&#45;&gt;Node2</title>
<path fill="none" stroke="midnightblue" d="M651.916,-183.151C819.541,-197.307 1101.33,-224.987 1200,-258 1245.99,-273.386 1295.81,-300.189 1324.89,-316.966"/>
<polygon fill="midnightblue" stroke="midnightblue" points="652.046,-179.65 641.788,-182.301 651.46,-186.625 652.046,-179.65"/>
</g>
<!-- Node12&#45;&gt;Node20 -->
<g id="edge25" class="edge"><title>Node12&#45;&gt;Node20</title>
<path fill="none" stroke="midnightblue" d="M651.743,-167.608C696.386,-165.753 746.084,-163.687 789.68,-161.876"/>
<polygon fill="midnightblue" stroke="midnightblue" points="651.552,-164.113 641.706,-168.025 651.843,-171.107 651.552,-164.113"/>
</g>
<!-- Node13 -->
<g id="node13" class="node"><title>Node13</title>
<polygon fill="white" stroke="#bfbfbf" points="887.5,-234.5 887.5,-253.5 928.5,-253.5 928.5,-234.5 887.5,-234.5"/>
<text text-anchor="middle" x="908" y="-241.5" font-family="Helvetica,sans-Serif" font-size="10.00">VBox</text>
</g>
<!-- Node13&#45;&gt;Node2 -->
<g id="edge12" class="edge"><title>Node13&#45;&gt;Node2</title>
<path fill="none" stroke="#9a32cd" stroke-dasharray="5,2" d="M938.612,-247.136C991.493,-253.033 1105.49,-267.093 1200,-288 1235.51,-295.854 1274.94,-307.542 1304.46,-316.897"/>
<polygon fill="#9a32cd" stroke="#9a32cd" points="938.901,-243.647 928.579,-246.034 938.137,-250.605 938.901,-243.647"/>
<text text-anchor="middle" x="1122" y="-291" font-family="Helvetica,sans-Serif" font-size="10.00"> myDisplayVBox</text>
</g>
<!-- Node14 -->
<g id="node14" class="node"><title>Node14</title>
<polygon fill="white" stroke="#bfbfbf" points="487,-603.5 487,-622.5 555,-622.5 555,-603.5 487,-603.5"/>
<text text-anchor="middle" x="521" y="-610.5" font-family="Helvetica,sans-Serif" font-size="10.00">ImageView</text>
</g>
<!-- Node14&#45;&gt;Node2 -->
<g id="edge13" class="edge"><title>Node14&#45;&gt;Node2</title>
<path fill="none" stroke="#9a32cd" stroke-dasharray="5,2" d="M565.231,-611.067C697.251,-604.487 1092.69,-579.548 1200,-513 1269.89,-469.66 1322.69,-382.41 1342,-347.224"/>
<polygon fill="#9a32cd" stroke="#9a32cd" points="564.914,-607.579 555.096,-611.562 565.255,-614.57 564.914,-607.579"/>
<text text-anchor="middle" x="908" y="-599" font-family="Helvetica,sans-Serif" font-size="10.00"> mySelectedImageView</text>
</g>
<!-- Node14&#45;&gt;Node15 -->
<g id="edge17" class="edge"><title>Node14&#45;&gt;Node15</title>
<path fill="none" stroke="#9a32cd" stroke-dasharray="5,2" d="M565.388,-610.777C590.996,-608.129 623.482,-602.39 650,-590 714.033,-560.084 735.104,-548.282 772,-488 790.799,-457.285 764.365,-434.291 790,-409 799.241,-399.883 810.944,-393.727 823.356,-389.63"/>
<polygon fill="#9a32cd" stroke="#9a32cd" points="564.869,-607.309 555.229,-611.704 565.505,-614.28 564.869,-607.309"/>
<text text-anchor="middle" x="720" y="-583" font-family="Helvetica,sans-Serif" font-size="10.00"> myDisplay</text>
</g>
<!-- Node15&#45;&gt;Node2 -->
<g id="edge14" class="edge"><title>Node15&#45;&gt;Node2</title>
<path fill="none" stroke="#9a32cd" stroke-dasharray="5,2" d="M1002.99,-372.917C1070.94,-364.905 1163.1,-354.038 1235.37,-345.516"/>
<polygon fill="#9a32cd" stroke="#9a32cd" points="1002.25,-369.48 992.727,-374.127 1003.07,-376.432 1002.25,-369.48"/>
<text text-anchor="middle" x="1122" y="-371" font-family="Helvetica,sans-Serif" font-size="10.00"> myAnimation</text>
</g>
<!-- Node16 -->
<g id="node16" class="node"><title>Node16</title>
<g id="a_node16"><a xlink:href="../../d2/d20/interfacegame__engine_1_1game_representation_1_1state_representation_1_1game_element_1_1traits_1_1_updatable.html" target="_top" xlink:title="game_engine.gameRepresentation.state\lRepresentation.gameElement.traits.Updatable">
<polygon fill="white" stroke="black" points="0.5,-451 0.5,-481 239.5,-481 239.5,-451 0.5,-451"/>
<text text-anchor="start" x="8.5" y="-469" font-family="Helvetica,sans-Serif" font-size="10.00">game_engine.gameRepresentation.state</text>
<text text-anchor="middle" x="120" y="-458" font-family="Helvetica,sans-Serif" font-size="10.00">Representation.gameElement.traits.Updatable</text>
</a>
</g>
</g>
<!-- Node16&#45;&gt;Node15 -->
<g id="edge15" class="edge"><title>Node16&#45;&gt;Node15</title>
<path fill="none" stroke="midnightblue" d="M249.823,-464.131C411.334,-460.502 678.391,-449.891 772,-419 780.691,-416.132 781.431,-412.214 790,-409 800.599,-405.025 811.988,-401.609 823.35,-398.695"/>
<polygon fill="midnightblue" stroke="midnightblue" points="249.74,-460.632 239.819,-464.35 249.893,-467.63 249.74,-460.632"/>
</g>
<!-- Node17 -->
<g id="node17" class="node"><title>Node17</title>
<g id="a_node17"><a xlink:href="../../d4/d58/classgame__engine_1_1visuals_1_1_animation_sequence.html" target="_top" xlink:title="game_engine.visuals.Animation\lSequence">
<polygon fill="white" stroke="black" points="436.5,-483 436.5,-513 605.5,-513 605.5,-483 436.5,-483"/>
<text text-anchor="start" x="444.5" y="-501" font-family="Helvetica,sans-Serif" font-size="10.00">game_engine.visuals.Animation</text>
<text text-anchor="middle" x="521" y="-490" font-family="Helvetica,sans-Serif" font-size="10.00">Sequence</text>
</a>
</g>
</g>
<!-- Node16&#45;&gt;Node17 -->
<g id="edge19" class="edge"><title>Node16&#45;&gt;Node17</title>
<path fill="none" stroke="midnightblue" d="M249.749,-476.326C310.919,-481.232 382.283,-486.955 436.312,-491.288"/>
<polygon fill="midnightblue" stroke="midnightblue" points="249.881,-472.825 239.633,-475.514 249.321,-479.803 249.881,-472.825"/>
</g>
<!-- Node17&#45;&gt;Node2 -->
<g id="edge30" class="edge"><title>Node17&#45;&gt;Node2</title>
<path fill="none" stroke="#9a32cd" stroke-dasharray="5,2" d="M603.562,-514.816C735.841,-537.936 1002.26,-566.994 1200,-475 1263.61,-445.406 1317.35,-377.926 1339.34,-347.448"/>
<polygon fill="#9a32cd" stroke="#9a32cd" points="603.96,-511.332 593.501,-513.024 602.732,-518.224 603.96,-511.332"/>
<text text-anchor="middle" x="908" y="-542" font-family="Helvetica,sans-Serif" font-size="10.00"> myCurrentAnimation</text>
</g>
<!-- Node17&#45;&gt;Node15 -->
<g id="edge18" class="edge"><title>Node17&#45;&gt;Node15</title>
<path fill="none" stroke="#9a32cd" stroke-dasharray="5,2" d="M615.595,-483.696C683.93,-472.904 765.704,-459.115 772,-454 788.719,-440.418 773.53,-422.883 790,-409 799.608,-400.901 811.209,-395.233 823.325,-391.301"/>
<polygon fill="#9a32cd" stroke="#9a32cd" points="614.955,-480.254 605.621,-485.265 616.043,-487.169 614.955,-480.254"/>
<text text-anchor="middle" x="720" y="-478" font-family="Helvetica,sans-Serif" font-size="10.00"> myCurrentAnimation</text>
</g>
<!-- Node17&#45;&gt;Node17 -->
<g id="edge20" class="edge"><title>Node17&#45;&gt;Node17</title>
<path fill="none" stroke="#9a32cd" stroke-dasharray="5,2" d="M486.343,-523.598C491.078,-527.97 502.631,-531 521,-531 551.938,-531 563.539,-522.406 555.805,-513.275"/>
<polygon fill="#9a32cd" stroke="#9a32cd" points="489.838,-523.224 486.195,-513.275 482.838,-523.324 489.838,-523.224"/>
<text text-anchor="middle" x="521" y="-534" font-family="Helvetica,sans-Serif" font-size="10.00"> myNextAnimation</text>
</g>
<!-- Node18 -->
<g id="node18" class="node"><title>Node18</title>
<g id="a_node18"><a xlink:href="../../de/d86/classgame__engine_1_1visuals_1_1_dimension.html" target="_top" xlink:title="game_engine.visuals.Dimension">
<polygon fill="white" stroke="black" points="34.5,-296.5 34.5,-315.5 205.5,-315.5 205.5,-296.5 34.5,-296.5"/>
<text text-anchor="middle" x="120" y="-303.5" font-family="Helvetica,sans-Serif" font-size="10.00">game_engine.visuals.Dimension</text>
</a>
</g>
</g>
<!-- Node18&#45;&gt;Node15 -->
<g id="edge21" class="edge"><title>Node18&#45;&gt;Node15</title>
<path fill="none" stroke="#9a32cd" stroke-dasharray="5,2" d="M209.389,-317.477C219.797,-319.603 230.196,-322.093 240,-325 248.393,-327.489 249.527,-330.799 258,-333 455.862,-384.39 698.111,-388.621 823.251,-386.678"/>
<polygon fill="#9a32cd" stroke="#9a32cd" points="209.909,-314.013 199.426,-315.549 208.578,-320.885 209.909,-314.013"/>
<text text-anchor="middle" x="521" y="-388" font-family="Helvetica,sans-Serif" font-size="10.00"> myTileSize</text>
</g>
<!-- Node18&#45;&gt;Node22 -->
<g id="edge29" class="edge"><title>Node18&#45;&gt;Node22</title>
<path fill="none" stroke="#9a32cd" stroke-dasharray="5,2" d="M215.299,-301.581C224.457,-297.951 232.947,-292.909 240,-286 270.7,-255.93 229.542,-223.201 258,-191 299.419,-144.133 331.085,-162.195 392,-148 407.972,-144.278 425.243,-141.134 441.774,-138.541"/>
<polygon fill="#9a32cd" stroke="#9a32cd" points="213.903,-298.358 205.546,-304.871 216.14,-304.991 213.903,-298.358"/>
<text text-anchor="middle" x="316" y="-194" font-family="Helvetica,sans-Serif" font-size="10.00"> frameDimensions</text>
</g>
<!-- Node19 -->
<g id="node19" class="node"><title>Node19</title>
<polygon fill="white" stroke="#bfbfbf" points="482.5,-406.5 482.5,-425.5 559.5,-425.5 559.5,-406.5 482.5,-406.5"/>
<text text-anchor="middle" x="521" y="-413.5" font-family="Helvetica,sans-Serif" font-size="10.00">Rectangle2D</text>
</g>
<!-- Node19&#45;&gt;Node15 -->
<g id="edge22" class="edge"><title>Node19&#45;&gt;Node15</title>
<path fill="none" stroke="#9a32cd" stroke-dasharray="5,2" d="M569.714,-412.034C633.019,-406.772 745.798,-397.399 823.396,-390.949"/>
<polygon fill="#9a32cd" stroke="#9a32cd" points="569.292,-408.557 559.616,-412.873 569.872,-415.533 569.292,-408.557"/>
<text text-anchor="middle" x="720" y="-407" font-family="Helvetica,sans-Serif" font-size="10.00"> myImageBounds</text>
</g>
<!-- Node20&#45;&gt;Node2 -->
<g id="edge23" class="edge"><title>Node20&#45;&gt;Node2</title>
<path fill="none" stroke="#9a32cd" stroke-dasharray="5,2" d="M1036.53,-153.14C1103,-153.875 1175.46,-159.896 1200,-181 1226.32,-203.634 1197.18,-229.227 1218,-257 1239.5,-285.681 1275.41,-305.055 1304.35,-316.917"/>
<polygon fill="#9a32cd" stroke="#9a32cd" points="1036.37,-149.639 1026.35,-153.067 1036.32,-156.638 1036.37,-149.639"/>
<text text-anchor="middle" x="1122" y="-184" font-family="Helvetica,sans-Serif" font-size="10.00"> drawableState</text>
</g>
<!-- Node27 -->
<g id="node27" class="node"><title>Node27</title>
<g id="a_node27"><a xlink:href="../../d8/d0a/classgame__engine_1_1game_representation_1_1state_representation_1_1game_element_1_1_selectable_game_element_state.html" target="_top" xlink:title="game_engine.gameRepresentation.state\lRepresentation.gameElement.Selectable\lGameElementState">
<polygon fill="white" stroke="black" points="1245,-98.5 1245,-139.5 1457,-139.5 1457,-98.5 1245,-98.5"/>
<text text-anchor="start" x="1253" y="-127.5" font-family="Helvetica,sans-Serif" font-size="10.00">game_engine.gameRepresentation.state</text>
<text text-anchor="start" x="1253" y="-116.5" font-family="Helvetica,sans-Serif" font-size="10.00">Representation.gameElement.Selectable</text>
<text text-anchor="middle" x="1351" y="-105.5" font-family="Helvetica,sans-Serif" font-size="10.00">GameElementState</text>
</a>
</g>
</g>
<!-- Node20&#45;&gt;Node27 -->
<g id="edge37" class="edge"><title>Node20&#45;&gt;Node27</title>
<path fill="none" stroke="midnightblue" d="M1036.1,-146.048C1102.28,-140.346 1182.23,-133.457 1244.88,-128.058"/>
<polygon fill="midnightblue" stroke="midnightblue" points="1035.68,-142.571 1026.02,-146.916 1036.29,-149.545 1035.68,-142.571"/>
</g>
<!-- Node21 -->
<g id="node21" class="node"><title>Node21</title>
<polygon fill="white" stroke="#bfbfbf" points="428,-70 428,-100 614,-100 614,-70 428,-70"/>
<text text-anchor="start" x="436" y="-88" font-family="Helvetica,sans-Serif" font-size="10.00">Map&lt; String, game_engine.visuals.</text>
<text text-anchor="middle" x="521" y="-77" font-family="Helvetica,sans-Serif" font-size="10.00">AnimationSequence &gt;</text>
</g>
<!-- Node21&#45;&gt;Node20 -->
<g id="edge26" class="edge"><title>Node21&#45;&gt;Node20</title>
<path fill="none" stroke="#9a32cd" stroke-dasharray="5,2" d="M624.163,-99.5957C669.573,-106.533 723.598,-115.405 772,-125 789.13,-128.396 807.385,-132.435 824.753,-136.48"/>
<polygon fill="#9a32cd" stroke="#9a32cd" points="624.425,-96.0956 614.013,-98.0553 623.375,-103.016 624.425,-96.0956"/>
<text text-anchor="middle" x="720" y="-128" font-family="Helvetica,sans-Serif" font-size="10.00"> myAnimations</text>
</g>
<!-- Node22&#45;&gt;Node20 -->
<g id="edge27" class="edge"><title>Node22&#45;&gt;Node20</title>
<path fill="none" stroke="#9a32cd" stroke-dasharray="5,2" d="M619.543,-136.094C671.29,-139.857 735.251,-144.509 789.692,-148.469"/>
<polygon fill="#9a32cd" stroke="#9a32cd" points="619.59,-132.588 609.362,-135.354 619.082,-139.57 619.59,-132.588"/>
<text text-anchor="middle" x="720" y="-151" font-family="Helvetica,sans-Serif" font-size="10.00"> mySpritesheet</text>
</g>
<!-- Node23 -->
<g id="node23" class="node"><title>Node23</title>
<polygon fill="white" stroke="#bfbfbf" points="884.5,-456.5 884.5,-475.5 931.5,-475.5 931.5,-456.5 884.5,-456.5"/>
<text text-anchor="middle" x="908" y="-463.5" font-family="Helvetica,sans-Serif" font-size="10.00">Image</text>
</g>
<!-- Node23&#45;&gt;Node2 -->
<g id="edge31" class="edge"><title>Node23&#45;&gt;Node2</title>
<path fill="none" stroke="#9a32cd" stroke-dasharray="5,2" d="M941.889,-466.124C996.973,-465.348 1110.63,-459.51 1200,-427 1252.14,-408.032 1305.12,-368.771 1331.98,-347.132"/>
<polygon fill="#9a32cd" stroke="#9a32cd" points="941.645,-462.626 931.678,-466.218 941.71,-469.626 941.645,-462.626"/>
<text text-anchor="middle" x="1122" y="-463" font-family="Helvetica,sans-Serif" font-size="10.00"> mySelectedImage</text>
</g>
<!-- Node24 -->
<g id="node24" class="node"><title>Node24</title>
<polygon fill="white" stroke="#bfbfbf" points="885,-418.5 885,-437.5 931,-437.5 931,-418.5 885,-418.5"/>
<text text-anchor="middle" x="908" y="-425.5" font-family="Helvetica,sans-Serif" font-size="10.00">Group</text>
</g>
<!-- Node24&#45;&gt;Node2 -->
<g id="edge32" class="edge"><title>Node24&#45;&gt;Node2</title>
<path fill="none" stroke="#9a32cd" stroke-dasharray="5,2" d="M941.17,-424.879C995.205,-419.227 1107.37,-405.724 1200,-383 1238.73,-373.497 1281.71,-358.398 1311.7,-347.09"/>
<polygon fill="#9a32cd" stroke="#9a32cd" points="940.752,-421.404 931.161,-425.906 941.466,-428.367 940.752,-421.404"/>
<text text-anchor="middle" x="1122" y="-415" font-family="Helvetica,sans-Serif" font-size="10.00"> myDisplay</text>
</g>
<!-- Node25 -->
<g id="node25" class="node"><title>Node25</title>
<g id="a_node25"><a xlink:href="../../dd/d72/enumgame__engine_1_1game_representation_1_1rendered_representation_1_1_selectable_game_element_1_1_d_i_r_e_c_t_i_o_n.html" target="_top" xlink:title="game_engine.gameRepresentation.rendered\lRepresentation.SelectableGameElement.DIRECTION">
<polygon fill="white" stroke="black" points="1218.5,-218 1218.5,-248 1483.5,-248 1483.5,-218 1218.5,-218"/>
<text text-anchor="start" x="1226.5" y="-236" font-family="Helvetica,sans-Serif" font-size="10.00">game_engine.gameRepresentation.rendered</text>
<text text-anchor="middle" x="1351" y="-225" font-family="Helvetica,sans-Serif" font-size="10.00">Representation.SelectableGameElement.DIRECTION</text>
</a>
</g>
</g>
<!-- Node25&#45;&gt;Node1 -->
<g id="edge33" class="edge"><title>Node25&#45;&gt;Node1</title>
<path fill="none" stroke="#9a32cd" stroke-dasharray="5,2" d="M1493.96,-225.173C1540.7,-222.596 1592.04,-219.765 1636.46,-217.315"/>
<polygon fill="#9a32cd" stroke="#9a32cd" points="1493.55,-221.69 1483.75,-225.735 1493.93,-228.679 1493.55,-221.69"/>
<text text-anchor="middle" x="1560" y="-228" font-family="Helvetica,sans-Serif" font-size="10.00"> myDirection</text>
</g>
<!-- Node26 -->
<g id="node26" class="node"><title>Node26</title>
<polygon fill="white" stroke="#bfbfbf" points="1297,-179.5 1297,-198.5 1405,-198.5 1405,-179.5 1297,-179.5"/>
<text text-anchor="middle" x="1351" y="-186.5" font-family="Helvetica,sans-Serif" font-size="10.00">Queue&lt; Point2D &gt;</text>
</g>
<!-- Node26&#45;&gt;Node1 -->
<g id="edge35" class="edge"><title>Node26&#45;&gt;Node1</title>
<path fill="none" stroke="#9a32cd" stroke-dasharray="5,2" d="M1415.72,-192.514C1474.93,-195.778 1564.51,-200.717 1636.18,-204.669"/>
<polygon fill="#9a32cd" stroke="#9a32cd" points="1415.57,-189 1405.4,-191.944 1415.19,-195.99 1415.57,-189"/>
<text text-anchor="middle" x="1560" y="-207" font-family="Helvetica,sans-Serif" font-size="10.00"> headings</text>
</g>
<!-- Node27&#45;&gt;Node1 -->
<g id="edge36" class="edge"><title>Node27&#45;&gt;Node1</title>
<path fill="none" stroke="#9a32cd" stroke-dasharray="5,2" d="M1451.22,-141.877C1524.5,-158.773 1622.17,-181.294 1685.8,-195.967"/>
<polygon fill="#9a32cd" stroke="#9a32cd" points="1451.58,-138.368 1441.05,-139.532 1450,-145.189 1451.58,-138.368"/>
<text text-anchor="middle" x="1560" y="-182" font-family="Helvetica,sans-Serif" font-size="10.00"> selectableState</text>
</g>
<!-- Node28 -->
<g id="node28" class="node"><title>Node28</title>
<g id="a_node28"><a xlink:href="../../d8/dcf/interfacegame__engine_1_1game_representation_1_1state_representation_1_1game_element_1_1traits_1_1_sighted.html" target="_top" xlink:title="game_engine.gameRepresentation.state\lRepresentation.gameElement.traits.Sighted">
<polygon fill="white" stroke="black" points="794.5,-49 794.5,-79 1021.5,-79 1021.5,-49 794.5,-49"/>
<text text-anchor="start" x="802.5" y="-67" font-family="Helvetica,sans-Serif" font-size="10.00">game_engine.gameRepresentation.state</text>
<text text-anchor="middle" x="908" y="-56" font-family="Helvetica,sans-Serif" font-size="10.00">Representation.gameElement.traits.Sighted</text>
</a>
</g>
</g>
<!-- Node28&#45;&gt;Node27 -->
<g id="edge38" class="edge"><title>Node28&#45;&gt;Node27</title>
<path fill="none" stroke="midnightblue" d="M1031.89,-79.3268C1098.82,-87.6736 1180.77,-97.8948 1244.74,-105.872"/>
<polygon fill="midnightblue" stroke="midnightblue" points="1032.07,-75.8213 1021.71,-78.0568 1031.2,-82.7675 1032.07,-75.8213"/>
</g>
<!-- Node29 -->
<g id="node29" class="node"><title>Node29</title>
<polygon fill="white" stroke="#bfbfbf" points="835,-0 835,-30 981,-30 981,-0 835,-0"/>
<text text-anchor="start" x="843" y="-18" font-family="Helvetica,sans-Serif" font-size="10.00">Map&lt; String, Map&lt; String,</text>
<text text-anchor="middle" x="908" y="-7" font-family="Helvetica,sans-Serif" font-size="10.00"> String &gt; &gt;</text>
</g>
<!-- Node29&#45;&gt;Node27 -->
<g id="edge39" class="edge"><title>Node29&#45;&gt;Node27</title>
<path fill="none" stroke="#9a32cd" stroke-dasharray="5,2" d="M991.149,-15.1177C1052.36,-18.5254 1136.07,-30.4362 1200,-67 1210.67,-73.1027 1207.5,-81.6123 1218,-88 1226.35,-93.0764 1235.46,-97.3215 1244.86,-100.872"/>
<polygon fill="#9a32cd" stroke="#9a32cd" points="991.302,-11.6211 981.142,-14.6249 990.957,-18.6126 991.302,-11.6211"/>
<text text-anchor="middle" x="1122" y="-70" font-family="Helvetica,sans-Serif" font-size="10.00"> myAllAbilityRepresentations</text>
</g>
<!-- Node30 -->
<g id="node30" class="node"><title>Node30</title>
<polygon fill="white" stroke="#bfbfbf" points="847,-98.5 847,-117.5 969,-117.5 969,-98.5 847,-98.5"/>
<text text-anchor="middle" x="908" y="-105.5" font-family="Helvetica,sans-Serif" font-size="10.00">Map&lt; String, String &gt;</text>
</g>
<!-- Node30&#45;&gt;Node27 -->
<g id="edge40" class="edge"><title>Node30&#45;&gt;Node27</title>
<path fill="none" stroke="#9a32cd" stroke-dasharray="5,2" d="M979.513,-108.762C1038.45,-109.507 1124.72,-110.848 1200,-113 1214.46,-113.413 1229.7,-113.929 1244.7,-114.484"/>
<polygon fill="#9a32cd" stroke="#9a32cd" points="979.243,-105.258 969.2,-108.634 979.156,-112.258 979.243,-105.258"/>
<text text-anchor="middle" x="1122" y="-116" font-family="Helvetica,sans-Serif" font-size="10.00"> myCurrentAbilityRepresentation</text>
</g>
<!-- Node31 -->
<g id="node31" class="node"><title>Node31</title>
<polygon fill="white" stroke="#bfbfbf" points="1237.5,-38.5 1237.5,-79.5 1464.5,-79.5 1464.5,-38.5 1237.5,-38.5"/>
<text text-anchor="start" x="1245.5" y="-67.5" font-family="Helvetica,sans-Serif" font-size="10.00">Map&lt; String, Set&lt; game</text>
<text text-anchor="start" x="1245.5" y="-56.5" font-family="Helvetica,sans-Serif" font-size="10.00">_engine.gameRepresentation.rendered</text>
<text text-anchor="middle" x="1351" y="-45.5" font-family="Helvetica,sans-Serif" font-size="10.00">Representation.DrawableGameElement &gt; &gt;</text>
</g>
<!-- Node31&#45;&gt;Node1 -->
<g id="edge41" class="edge"><title>Node31&#45;&gt;Node1</title>
<path fill="none" stroke="#9a32cd" stroke-dasharray="5,2" d="M1459.51,-82.1086C1467.84,-84.301 1476.08,-86.6049 1484,-89 1545,-107.44 1560,-113.609 1618,-140 1656.12,-157.344 1698.54,-180.743 1725,-195.852"/>
<polygon fill="#9a32cd" stroke="#9a32cd" points="1460.28,-78.6914 1449.72,-79.5873 1458.53,-85.4703 1460.28,-78.6914"/>
<text text-anchor="middle" x="1560" y="-143" font-family="Helvetica,sans-Serif" font-size="10.00"> myInteractingElements</text>
</g>
</g>
</svg>
