<?xml version="1.0" encoding="UTF-8" standalone="no"?>
<!DOCTYPE svg PUBLIC "-//W3C//DTD SVG 1.1//EN"
 "http://www.w3.org/Graphics/SVG/1.1/DTD/svg11.dtd">
<!-- Generated by graphviz version 2.36.0 (20140111.2315)
 -->
<!-- Title: game_engine.gameRepresentation.stateRepresentation.CampaignState.addLevel Pages: 1 -->
<!--zoomable 87 -->
<svg id="main" version="1.1" xmlns="http://www.w3.org/2000/svg" xmlns:xlink="http://www.w3.org/1999/xlink" xml:space="preserve" onload="init(evt)">
<style type="text/css"><![CDATA[
.edge:hover path { stroke: red; }
.edge:hover polygon { stroke: red; fill: red; }
]]></style>
<script type="text/javascript"><![CDATA[
var edges = document.getElementsByTagName('g');
if (edges && edges.length) {
  for (var i=0;i<edges.length;i++) {
    if (edges[i].id.substr(0,4)=='edge') {
      edges[i].setAttribute('class','edge');
    }
  }
}
]]></script>
        <defs>
                <circle id="rim" cx="0" cy="0" r="7"/>
                <circle id="rim2" cx="0" cy="0" r="3.5"/>
                <g id="zoomPlus">
                        <use xlink:href="#rim" fill="#404040">
                                <set attributeName="fill" to="#808080" begin="zoomplus.mouseover" end="zoomplus.mouseout"/>
                        </use>
                        <path d="M-4,0h8M0,-4v8" fill="none" stroke="white" stroke-width="1.5" pointer-events="none"/>
                </g>
                <g id="zoomMin">
                        <use xlink:href="#rim" fill="#404040">
                                <set attributeName="fill" to="#808080" begin="zoomminus.mouseover" end="zoomminus.mouseout"/>
                        </use>
                        <path d="M-4,0h8" fill="none" stroke="white" stroke-width="1.5" pointer-events="none"/>
                </g>
                <g id="dirArrow">
                        <path fill="none" stroke="white" stroke-width="1.5" d="M0,-3.0v7 M-2.5,-0.5L0,-3.0L2.5,-0.5"/>
                </g>
               <g id="resetDef">
                       <use xlink:href="#rim2" fill="#404040">
                               <set attributeName="fill" to="#808080" begin="reset.mouseover" end="reset.mouseout"/>
                       </use>
               </g>
        </defs>

<script type="text/javascript">
var viewWidth = 1064;
var viewHeight = 87;
var sectionId = 'dynsection-2';
</script>
<script xlink:href="../../svgpan.js"/>
<svg id="graph" class="graph">
<g id="viewport">
<title>game_engine.gameRepresentation.stateRepresentation.CampaignState.addLevel</title>
<polygon fill="white" stroke="none" points="-4,4 -4,-83 1060,-83 1060,4 -4,4"/>
<!-- Node1 -->
<g id="node1" class="node"><title>Node1</title>
<polygon fill="#bfbfbf" stroke="black" points="0,-24 0,-54 212,-54 212,-24 0,-24"/>
<text text-anchor="start" x="8" y="-42" font-family="Helvetica,sans-Serif" font-size="10.00">game_engine.gameRepresentation.state</text>
<text text-anchor="middle" x="106" y="-31" font-family="Helvetica,sans-Serif" font-size="10.00">Representation.CampaignState.addLevel</text>
</g>
<!-- Node2 -->
<g id="node2" class="node"><title>Node2</title>
<g id="a_node2"><a xlink:href="../../da/d8d/classgamemodel_1_1_main_model.html#a8f7ba6a09d6f83d64c441f15a445ac90" target="_top" xlink:title="gamemodel.MainModel.create\lLevel">
<polygon fill="white" stroke="black" points="248,-24 248,-54 410,-54 410,-24 248,-24"/>
<text text-anchor="start" x="256" y="-42" font-family="Helvetica,sans-Serif" font-size="10.00">gamemodel.MainModel.create</text>
<text text-anchor="middle" x="329" y="-31" font-family="Helvetica,sans-Serif" font-size="10.00">Level</text>
</a>
</g>
</g>
<!-- Node1&#45;&gt;Node2 -->
<g id="edge1" class="edge"><title>Node1&#45;&gt;Node2</title>
<path fill="none" stroke="midnightblue" d="M222.366,-39C230.917,-39 239.429,-39 247.696,-39"/>
<polygon fill="midnightblue" stroke="midnightblue" points="222.322,-35.5001 212.322,-39 222.322,-42.5001 222.322,-35.5001"/>
</g>
<!-- Node3 -->
<g id="node3" class="node"><title>Node3</title>
<g id="a_node3"><a xlink:href="../../d1/dcc/classapplication_1_1_shitty_main.html#a2421ffa1f3b59fae50faa3fb14704767" target="_top" xlink:title="application.ShittyMain.hard\lCodeAGame">
<polygon fill="white" stroke="black" points="462,-49 462,-79 608,-79 608,-49 462,-49"/>
<text text-anchor="start" x="470" y="-67" font-family="Helvetica,sans-Serif" font-size="10.00">application.ShittyMain.hard</text>
<text text-anchor="middle" x="535" y="-56" font-family="Helvetica,sans-Serif" font-size="10.00">CodeAGame</text>
</a>
</g>
</g>
<!-- Node2&#45;&gt;Node3 -->
<g id="edge2" class="edge"><title>Node2&#45;&gt;Node3</title>
<path fill="none" stroke="midnightblue" d="M420.131,-50.0455C434.082,-51.7552 448.334,-53.5017 461.823,-55.1547"/>
<polygon fill="midnightblue" stroke="midnightblue" points="420.392,-46.5514 410.041,-48.8089 419.541,-53.4994 420.392,-46.5514"/>
</g>
<!-- Node5 -->
<g id="node5" class="node"><title>Node5</title>
<g id="a_node5"><a xlink:href="../../d1/d74/classeditor_1_1_editor_menu_bar_controller.html#a2d9698f478e5ca6464fa390bf1eb3a05" target="_top" xlink:title="editor.EditorMenuBarController.on\lNewLevelClick">
<polygon fill="white" stroke="black" points="446,-0 446,-30 624,-30 624,-0 446,-0"/>
<text text-anchor="start" x="454" y="-18" font-family="Helvetica,sans-Serif" font-size="10.00">editor.EditorMenuBarController.on</text>
<text text-anchor="middle" x="535" y="-7" font-family="Helvetica,sans-Serif" font-size="10.00">NewLevelClick</text>
</a>
</g>
</g>
<!-- Node2&#45;&gt;Node5 -->
<g id="edge4" class="edge"><title>Node2&#45;&gt;Node5</title>
<path fill="none" stroke="midnightblue" d="M420.012,-28.4104C428.562,-27.4044 437.227,-26.385 445.761,-25.381"/>
<polygon fill="midnightblue" stroke="midnightblue" points="419.563,-24.9389 410.041,-29.5834 420.381,-31.891 419.563,-24.9389"/>
</g>
<!-- Node4 -->
<g id="node4" class="node"><title>Node4</title>
<g id="a_node4"><a xlink:href="../../d1/dcc/classapplication_1_1_shitty_main.html#af8b91a9a9eb3ba2c8a66baee2bed773b" target="_top" xlink:title="application.ShittyMain.start">
<polygon fill="white" stroke="black" points="676.5,-54.5 676.5,-73.5 823.5,-73.5 823.5,-54.5 676.5,-54.5"/>
<text text-anchor="middle" x="750" y="-61.5" font-family="Helvetica,sans-Serif" font-size="10.00">application.ShittyMain.start</text>
</a>
</g>
</g>
<!-- Node3&#45;&gt;Node4 -->
<g id="edge3" class="edge"><title>Node3&#45;&gt;Node4</title>
<path fill="none" stroke="midnightblue" d="M618.288,-64C637.387,-64 657.582,-64 676.237,-64"/>
<polygon fill="midnightblue" stroke="midnightblue" points="618.112,-60.5001 608.112,-64 618.112,-67.5001 618.112,-60.5001"/>
</g>
<!-- Node6 -->
<g id="node6" class="node"><title>Node6</title>
<g id="a_node6"><a xlink:href="../../d1/d74/classeditor_1_1_editor_menu_bar_controller.html#a4263ec1503bc67c1ee7293d6fa303ab0" target="_top" xlink:title="editor.EditorMenuBarController.init\lFileMenu">
<polygon fill="white" stroke="black" points="660,-0 660,-30 840,-30 840,-0 660,-0"/>
<text text-anchor="start" x="668" y="-18" font-family="Helvetica,sans-Serif" font-size="10.00">editor.EditorMenuBarController.init</text>
<text text-anchor="middle" x="750" y="-7" font-family="Helvetica,sans-Serif" font-size="10.00">FileMenu</text>
</a>
</g>
</g>
<!-- Node5&#45;&gt;Node6 -->
<g id="edge5" class="edge"><title>Node5&#45;&gt;Node6</title>
<path fill="none" stroke="midnightblue" d="M634.179,-15C642.742,-15 651.378,-15 659.863,-15"/>
<polygon fill="midnightblue" stroke="midnightblue" points="634.173,-11.5001 624.173,-15 634.173,-18.5001 634.173,-11.5001"/>
</g>
<!-- Node7 -->
<g id="node7" class="node"><title>Node7</title>
<g id="a_node7"><a xlink:href="../../d1/d74/classeditor_1_1_editor_menu_bar_controller.html#a5e27bce310879b43b5726c8b90f98743" target="_top" xlink:title="editor.EditorMenuBarController.init">
<polygon fill="white" stroke="black" points="876,-5.5 876,-24.5 1056,-24.5 1056,-5.5 876,-5.5"/>
<text text-anchor="middle" x="966" y="-12.5" font-family="Helvetica,sans-Serif" font-size="10.00">editor.EditorMenuBarController.init</text>
</a>
</g>
</g>
<!-- Node6&#45;&gt;Node7 -->
<g id="edge6" class="edge"><title>Node6&#45;&gt;Node7</title>
<path fill="none" stroke="midnightblue" d="M850.23,-15C858.807,-15 867.45,-15 875.939,-15"/>
<polygon fill="midnightblue" stroke="midnightblue" points="850.206,-11.5001 840.206,-15 850.206,-18.5001 850.206,-11.5001"/>
</g>
</g>
</svg>
        <g id="navigator" transform="translate(0 0)" fill="#404254">
                <rect fill="#f2f5e9" fill-opacity="0.5" stroke="#606060" stroke-width=".5" x="0" y="0" width="60" height="60"/>
                <use id="zoomplus" xlink:href="#zoomPlus" x="17" y="9" onmousedown="handleZoom(evt,'in')"/>
                <use id="zoomminus" xlink:href="#zoomMin" x="42" y="9" onmousedown="handleZoom(evt,'out')"/>
                <use id="reset" xlink:href="#resetDef" x="30" y="36" onmousedown="handleReset()"/>
                <g id="arrowUp" xlink:href="#dirArrow" transform="translate(30 24)" onmousedown="handlePan(0,-1)">
                  <use xlink:href="#rim" fill="#404040">
                        <set attributeName="fill" to="#808080" begin="arrowUp.mouseover" end="arrowUp.mouseout"/>
                  </use>
                  <path fill="none" stroke="white" stroke-width="1.5" d="M0,-3.0v7 M-2.5,-0.5L0,-3.0L2.5,-0.5"/>
                </g>
                <g id="arrowRight" xlink:href="#dirArrow" transform="rotate(90) translate(36 -43)" onmousedown="handlePan(1,0)">
                  <use xlink:href="#rim" fill="#404040">
                        <set attributeName="fill" to="#808080" begin="arrowRight.mouseover" end="arrowRight.mouseout"/>
                  </use>
                  <path fill="none" stroke="white" stroke-width="1.5" d="M0,-3.0v7 M-2.5,-0.5L0,-3.0L2.5,-0.5"/>
                </g>
                <g id="arrowDown" xlink:href="#dirArrow" transform="rotate(180) translate(-30 -48)" onmousedown="handlePan(0,1)">
                  <use xlink:href="#rim" fill="#404040">
                        <set attributeName="fill" to="#808080" begin="arrowDown.mouseover" end="arrowDown.mouseout"/>
                  </use>
                  <path fill="none" stroke="white" stroke-width="1.5" d="M0,-3.0v7 M-2.5,-0.5L0,-3.0L2.5,-0.5"/>
                </g>
                <g id="arrowLeft" xlink:href="#dirArrow" transform="rotate(270) translate(-36 17)" onmousedown="handlePan(-1,0)">
                  <use xlink:href="#rim" fill="#404040">
                        <set attributeName="fill" to="#808080" begin="arrowLeft.mouseover" end="arrowLeft.mouseout"/>
                  </use>
                  <path fill="none" stroke="white" stroke-width="1.5" d="M0,-3.0v7 M-2.5,-0.5L0,-3.0L2.5,-0.5"/>
                </g>
        </g>
        <svg viewBox="0 0 15 15" width="100%" height="30px" preserveAspectRatio="xMaxYMin meet">
         <g id="arrow_out" transform="scale(0.3 0.3)">
          <a xlink:href="classgame__engine_1_1game_representation_1_1state_representation_1_1_campaign_state_a2018b4d3974341f2d77eb6f055e3ef34_icgraph_org.svg" target="_base">
           <rect id="button" ry="5" rx="5" y="6" x="6" height="38" width="38"
                fill="#f2f5e9" fill-opacity="0.5" stroke="#606060" stroke-width="1.0"/>
           <path id="arrow"
             d="M 11.500037,31.436501 C 11.940474,20.09759 22.043105,11.32322 32.158766,21.979434 L 37.068811,17.246167 C 37.068811,17.246167 37.088388,32 37.088388,32 L 22.160133,31.978069 C 22.160133,31.978069 26.997745,27.140456 26.997745,27.140456 C 18.528582,18.264221 13.291696,25.230495 11.500037,31.436501 z"
             style="fill:#404040;"/>
          </a>
         </g>
        </svg>
</svg>
