<?xml version="1.0" encoding="UTF-8" standalone="no"?>
<!DOCTYPE svg PUBLIC "-//W3C//DTD SVG 1.1//EN"
 "http://www.w3.org/Graphics/SVG/1.1/DTD/svg11.dtd">
<!-- Generated by graphviz version 2.36.0 (20140111.2315)
 -->
<!-- Title: view.runner.GameEndController.initialize Pages: 1 -->
<svg width="842pt" height="141pt"
 viewBox="0.00 0.00 842.00 141.00" xmlns="http://www.w3.org/2000/svg" xmlns:xlink="http://www.w3.org/1999/xlink">
<g id="graph0" class="graph" transform="scale(1 1) rotate(0) translate(4 137)">
<title>view.runner.GameEndController.initialize</title>
<polygon fill="white" stroke="none" points="-4,4 -4,-137 838,-137 838,4 -4,4"/>
<!-- Node1 -->
<g id="node1" class="node"><title>Node1</title>
<polygon fill="#bfbfbf" stroke="black" points="0.5,-54.5 0.5,-73.5 207.5,-73.5 207.5,-54.5 0.5,-54.5"/>
<text text-anchor="middle" x="104" y="-61.5" font-family="Helvetica,sans-Serif" font-size="10.00">view.runner.GameEndController.initialize</text>
</g>
<!-- Node2 -->
<g id="node2" class="node"><title>Node2</title>
<g id="a_node2"><a xlink:href="../../d8/d1e/classview_1_1dialog_1_1_dialog_box_utility.html#a9b51f9af82adaed09caacee651b8f566" target="_top" xlink:title="view.dialog.DialogBoxUtility.create\lMessageDialog">
<polygon fill="white" stroke="black" points="244,-49 244,-79 422,-79 422,-49 244,-49"/>
<text text-anchor="start" x="252" y="-67" font-family="Helvetica,sans-Serif" font-size="10.00">view.dialog.DialogBoxUtility.create</text>
<text text-anchor="middle" x="333" y="-56" font-family="Helvetica,sans-Serif" font-size="10.00">MessageDialog</text>
</a>
</g>
</g>
<!-- Node1&#45;&gt;Node2 -->
<g id="edge1" class="edge"><title>Node1&#45;&gt;Node2</title>
<path fill="none" stroke="midnightblue" d="M207.542,-64C216.24,-64 225.025,-64 233.69,-64"/>
<polygon fill="midnightblue" stroke="midnightblue" points="233.794,-67.5001 243.794,-64 233.793,-60.5001 233.794,-67.5001"/>
</g>
<!-- Node4 -->
<g id="node4" class="node"><title>Node4</title>
<g id="a_node4"><a xlink:href="../../d4/d81/classutil_1_1multilanguage_1_1_multi_language_utility.html#a4434d82aa88c08ec97fb70994f38041c" target="_top" xlink:title="util.multilanguage.Multi\lLanguageUtility.getInstance">
<polygon fill="white" stroke="black" points="472.5,-98 472.5,-128 621.5,-128 621.5,-98 472.5,-98"/>
<text text-anchor="start" x="480.5" y="-116" font-family="Helvetica,sans-Serif" font-size="10.00">util.multilanguage.Multi</text>
<text text-anchor="middle" x="547" y="-105" font-family="Helvetica,sans-Serif" font-size="10.00">LanguageUtility.getInstance</text>
</a>
</g>
</g>
<!-- Node1&#45;&gt;Node4 -->
<g id="edge7" class="edge"><title>Node1&#45;&gt;Node4</title>
<path fill="none" stroke="midnightblue" d="M154.053,-73.5592C180.594,-78.4558 213.999,-84.1758 244,-88 317.384,-97.3541 401.267,-103.975 461.975,-108.043"/>
<polygon fill="midnightblue" stroke="midnightblue" points="462.062,-111.556 472.271,-108.723 462.524,-104.571 462.062,-111.556"/>
</g>
<!-- Node6 -->
<g id="node6" class="node"><title>Node6</title>
<g id="a_node6"><a xlink:href="../../d4/d81/classutil_1_1multilanguage_1_1_multi_language_utility.html#a6adf3e1cb73a5cef3bc6d4a11cb1b091" target="_top" xlink:title="util.multilanguage.Multi\lLanguageUtility.getStringProperty">
<polygon fill="white" stroke="black" points="458.5,-0 458.5,-30 635.5,-30 635.5,-0 458.5,-0"/>
<text text-anchor="start" x="466.5" y="-18" font-family="Helvetica,sans-Serif" font-size="10.00">util.multilanguage.Multi</text>
<text text-anchor="middle" x="547" y="-7" font-family="Helvetica,sans-Serif" font-size="10.00">LanguageUtility.getStringProperty</text>
</a>
</g>
</g>
<!-- Node1&#45;&gt;Node6 -->
<g id="edge8" class="edge"><title>Node1&#45;&gt;Node6</title>
<path fill="none" stroke="midnightblue" d="M151.472,-54.4579C178.396,-49.227 212.996,-43.0101 244,-39 311.923,-30.2147 388.884,-24.1572 448.115,-20.3256"/>
<polygon fill="midnightblue" stroke="midnightblue" points="448.454,-23.8111 458.212,-19.6828 448.01,-16.8253 448.454,-23.8111"/>
</g>
<!-- Node3 -->
<g id="node3" class="node"><title>Node3</title>
<g id="a_node3"><a xlink:href="../../d8/d1e/classview_1_1dialog_1_1_dialog_box_utility.html#ac719f60b2969771ed4bc5acd0dabe41e" target="_top" xlink:title="view.dialog.DialogBoxUtility.create\lDialogBox">
<polygon fill="white" stroke="black" points="458,-49 458,-79 636,-79 636,-49 458,-49"/>
<text text-anchor="start" x="466" y="-67" font-family="Helvetica,sans-Serif" font-size="10.00">view.dialog.DialogBoxUtility.create</text>
<text text-anchor="middle" x="547" y="-56" font-family="Helvetica,sans-Serif" font-size="10.00">DialogBox</text>
</a>
</g>
</g>
<!-- Node2&#45;&gt;Node3 -->
<g id="edge2" class="edge"><title>Node2&#45;&gt;Node3</title>
<path fill="none" stroke="midnightblue" d="M422.065,-64C430.569,-64 439.232,-64 447.825,-64"/>
<polygon fill="midnightblue" stroke="midnightblue" points="447.868,-67.5001 457.868,-64 447.868,-60.5001 447.868,-67.5001"/>
</g>
<!-- Node2&#45;&gt;Node4 -->
<g id="edge3" class="edge"><title>Node2&#45;&gt;Node4</title>
<path fill="none" stroke="midnightblue" d="M399.048,-79.0346C421.839,-84.3024 447.615,-90.2601 471.144,-95.6984"/>
<polygon fill="midnightblue" stroke="midnightblue" points="470.544,-99.1519 481.075,-97.9938 472.12,-92.3317 470.544,-99.1519"/>
</g>
<!-- Node2&#45;&gt;Node6 -->
<g id="edge5" class="edge"><title>Node2&#45;&gt;Node6</title>
<path fill="none" stroke="midnightblue" d="M399.048,-48.9654C421.839,-43.6976 447.615,-37.7399 471.144,-32.3016"/>
<polygon fill="midnightblue" stroke="midnightblue" points="472.12,-35.6683 481.075,-30.0062 470.544,-28.8481 472.12,-35.6683"/>
</g>
<!-- Node5 -->
<g id="node5" class="node"><title>Node5</title>
<g id="a_node5"><a xlink:href="../../d4/d81/classutil_1_1multilanguage_1_1_multi_language_utility.html#a39432790595e3fc9ef3e2842299739f7" target="_top" xlink:title="util.multilanguage.Multi\lLanguageUtility.MultiLanguage\lUtility">
<polygon fill="white" stroke="black" points="672,-92.5 672,-133.5 834,-133.5 834,-92.5 672,-92.5"/>
<text text-anchor="start" x="680" y="-121.5" font-family="Helvetica,sans-Serif" font-size="10.00">util.multilanguage.Multi</text>
<text text-anchor="start" x="680" y="-110.5" font-family="Helvetica,sans-Serif" font-size="10.00">LanguageUtility.MultiLanguage</text>
<text text-anchor="middle" x="753" y="-99.5" font-family="Helvetica,sans-Serif" font-size="10.00">Utility</text>
</a>
</g>
</g>
<!-- Node4&#45;&gt;Node5 -->
<g id="edge4" class="edge"><title>Node4&#45;&gt;Node5</title>
<path fill="none" stroke="midnightblue" d="M621.649,-113C634.654,-113 648.327,-113 661.727,-113"/>
<polygon fill="midnightblue" stroke="midnightblue" points="661.904,-116.5 671.904,-113 661.904,-109.5 661.904,-116.5"/>
</g>
<!-- Node7 -->
<g id="node7" class="node"><title>Node7</title>
<g id="a_node7"><a xlink:href="../../d4/d81/classutil_1_1multilanguage_1_1_multi_language_utility.html#a596dd4d3069ea8571f1379d6d8a8471b" target="_top" xlink:title="util.multilanguage.Multi\lLanguageUtility.getProperty">
<polygon fill="white" stroke="black" points="678.5,-0 678.5,-30 827.5,-30 827.5,-0 678.5,-0"/>
<text text-anchor="start" x="686.5" y="-18" font-family="Helvetica,sans-Serif" font-size="10.00">util.multilanguage.Multi</text>
<text text-anchor="middle" x="753" y="-7" font-family="Helvetica,sans-Serif" font-size="10.00">LanguageUtility.getProperty</text>
</a>
</g>
</g>
<!-- Node6&#45;&gt;Node7 -->
<g id="edge6" class="edge"><title>Node6&#45;&gt;Node7</title>
<path fill="none" stroke="midnightblue" d="M635.698,-15C646.501,-15 657.521,-15 668.263,-15"/>
<polygon fill="midnightblue" stroke="midnightblue" points="668.459,-18.5001 678.459,-15 668.459,-11.5001 668.459,-18.5001"/>
</g>
</g>
</svg>
