<?xml version="1.0" encoding="UTF-8" standalone="no"?>
<!DOCTYPE svg PUBLIC "-//W3C//DTD SVG 1.1//EN"
 "http://www.w3.org/Graphics/SVG/1.1/DTD/svg11.dtd">
<!-- Generated by graphviz version 2.36.0 (20140111.2315)
 -->
<!-- Title: game_engine.gameRepresentation.evaluatables.Action Pages: 1 -->
<svg width="258pt" height="120pt"
 viewBox="0.00 0.00 258.00 120.00" xmlns="http://www.w3.org/2000/svg" xmlns:xlink="http://www.w3.org/1999/xlink">
<g id="graph0" class="graph" transform="scale(1 1) rotate(0) translate(4 116)">
<title>game_engine.gameRepresentation.evaluatables.Action</title>
<polygon fill="white" stroke="none" points="-4,4 -4,-116 254,-116 254,4 -4,4"/>
<!-- Node1 -->
<g id="node1" class="node"><title>Node1</title>
<polygon fill="#bfbfbf" stroke="black" points="-0.5,-1 -0.5,-31 250.5,-31 250.5,-1 -0.5,-1"/>
<text text-anchor="start" x="7.5" y="-19" font-family="Helvetica,sans-Serif" font-size="10.00">game_engine.gameRepresentation.evaluatables.</text>
<text text-anchor="middle" x="125" y="-8" font-family="Helvetica,sans-Serif" font-size="10.00">Action</text>
</g>
<!-- Node2 -->
<g id="node2" class="node"><title>Node2</title>
<g id="a_node2"><a xlink:href="../../d2/dfb/classgame__engine_1_1game_representation_1_1evaluatables_1_1_evaluatable.html" target="_top" xlink:title="game_engine.gameRepresentation.evaluatables.\lEvaluatable\&lt;?\&gt;">
<polygon fill="white" stroke="black" points="-0.5,-81 -0.5,-111 250.5,-111 250.5,-81 -0.5,-81"/>
<text text-anchor="start" x="7.5" y="-99" font-family="Helvetica,sans-Serif" font-size="10.00">game_engine.gameRepresentation.evaluatables.</text>
<text text-anchor="middle" x="125" y="-88" font-family="Helvetica,sans-Serif" font-size="10.00">Evaluatable&lt;?&gt;</text>
</a>
</g>
</g>
<!-- Node2&#45;&gt;Node1 -->
<g id="edge1" class="edge"><title>Node2&#45;&gt;Node1</title>
<path fill="none" stroke="#9a32cd" stroke-dasharray="5,2" d="M125,-70.5644C125,-57.6243 125,-42.1862 125,-31.2157"/>
<polygon fill="#9a32cd" stroke="#9a32cd" points="121.5,-70.6936 125,-80.6936 128.5,-70.6936 121.5,-70.6936"/>
<text text-anchor="middle" x="162" y="-53.5" font-family="Helvetica,sans-Serif" font-size="10.00"> myEvaluatable</text>
</g>
</g>
</svg>
