<?xml version="1.0" encoding="UTF-8" standalone="no"?>
<!DOCTYPE svg PUBLIC "-//W3C//DTD SVG 1.1//EN"
 "http://www.w3.org/Graphics/SVG/1.1/DTD/svg11.dtd">
<!-- Generated by graphviz version 2.36.0 (20140111.2315)
 -->
<!-- Title: util.ResourceBundleRetriever.getBundle Pages: 1 -->
<svg width="390pt" height="38pt"
 viewBox="0.00 0.00 390.00 38.00" xmlns="http://www.w3.org/2000/svg" xmlns:xlink="http://www.w3.org/1999/xlink">
<g id="graph0" class="graph" transform="scale(1 1) rotate(0) translate(4 34)">
<title>util.ResourceBundleRetriever.getBundle</title>
<polygon fill="white" stroke="none" points="-4,4 -4,-34 386,-34 386,4 -4,4"/>
<!-- Node1 -->
<g id="node1" class="node"><title>Node1</title>
<polygon fill="#bfbfbf" stroke="black" points="0,-0 0,-30 170,-30 170,-0 0,-0"/>
<text text-anchor="start" x="8" y="-18" font-family="Helvetica,sans-Serif" font-size="10.00">util.ResourceBundleRetriever.get</text>
<text text-anchor="middle" x="85" y="-7" font-family="Helvetica,sans-Serif" font-size="10.00">Bundle</text>
</g>
<!-- Node2 -->
<g id="node2" class="node"><title>Node2</title>
<g id="a_node2"><a xlink:href="../../de/d01/classmodel_1_1sprite_1_1_sprite_image_generator.html#a886c77ae933649c2d57866a0cbe6c4f0" target="_top" xlink:title="model.sprite.SpriteImage\lGenerator.SpriteImageGenerator">
<polygon fill="white" stroke="black" points="206.5,-0 206.5,-30 381.5,-30 381.5,-0 206.5,-0"/>
<text text-anchor="start" x="214.5" y="-18" font-family="Helvetica,sans-Serif" font-size="10.00">model.sprite.SpriteImage</text>
<text text-anchor="middle" x="294" y="-7" font-family="Helvetica,sans-Serif" font-size="10.00">Generator.SpriteImageGenerator</text>
</a>
</g>
</g>
<!-- Node1&#45;&gt;Node2 -->
<g id="edge1" class="edge"><title>Node1&#45;&gt;Node2</title>
<path fill="none" stroke="midnightblue" d="M180.274,-15C188.907,-15 197.626,-15 206.188,-15"/>
<polygon fill="midnightblue" stroke="midnightblue" points="180.195,-11.5001 170.195,-15 180.195,-18.5001 180.195,-11.5001"/>
</g>
</g>
</svg>
