<?xml version="1.0" encoding="UTF-8" standalone="no"?>
<!DOCTYPE svg PUBLIC "-//W3C//DTD SVG 1.1//EN"
 "http://www.w3.org/Graphics/SVG/1.1/DTD/svg11.dtd">
<!-- Generated by graphviz version 2.36.0 (20140111.2315)
 -->
<!-- Title: engine.visuals.elementVisuals.animations.AnimationSequence.reset Pages: 1 -->
<svg width="1654pt" height="98pt"
 viewBox="0.00 0.00 1654.00 98.00" xmlns="http://www.w3.org/2000/svg" xmlns:xlink="http://www.w3.org/1999/xlink">
<g id="graph0" class="graph" transform="scale(1 1) rotate(0) translate(4 94)">
<title>engine.visuals.elementVisuals.animations.AnimationSequence.reset</title>
<polygon fill="white" stroke="none" points="-4,4 -4,-94 1650,-94 1650,4 -4,4"/>
<!-- Node1 -->
<g id="node1" class="node"><title>Node1</title>
<polygon fill="#bfbfbf" stroke="black" points="0,-25 0,-55 220,-55 220,-25 0,-25"/>
<text text-anchor="start" x="8" y="-43" font-family="Helvetica,sans-Serif" font-size="10.00">engine.visuals.elementVisuals.animations.</text>
<text text-anchor="middle" x="110" y="-32" font-family="Helvetica,sans-Serif" font-size="10.00">AnimationSequence.reset</text>
</g>
<!-- Node2 -->
<g id="node2" class="node"><title>Node2</title>
<g id="a_node2"><a xlink:href="../../d9/d50/classengine_1_1visuals_1_1element_visuals_1_1animations_1_1_animator.html#a092ef5ffb3d26308d05dbdb65dc89573" target="_top" xlink:title="engine.visuals.elementVisuals.animations.\lAnimator.determineCorrectAnimation">
<polygon fill="white" stroke="black" points="256,-50 256,-80 476,-80 476,-50 256,-50"/>
<text text-anchor="start" x="264" y="-68" font-family="Helvetica,sans-Serif" font-size="10.00">engine.visuals.elementVisuals.animations.</text>
<text text-anchor="middle" x="366" y="-57" font-family="Helvetica,sans-Serif" font-size="10.00">Animator.determineCorrectAnimation</text>
</a>
</g>
</g>
<!-- Node1&#45;&gt;Node2 -->
<g id="edge1" class="edge"><title>Node1&#45;&gt;Node2</title>
<path fill="none" stroke="midnightblue" d="M230.217,-51.734C238.783,-52.577 247.396,-53.4248 255.899,-54.2617"/>
<polygon fill="midnightblue" stroke="midnightblue" points="230.488,-48.2438 220.193,-50.7473 229.802,-55.2101 230.488,-48.2438"/>
</g>
<!-- Node10 -->
<g id="node10" class="node"><title>Node10</title>
<g id="a_node10"><a xlink:href="../../d2/d9b/classengine_1_1visuals_1_1element_visuals_1_1animations_1_1_animation_sequence.html#adb4d206b22721d109e1ccc61939e2f21" target="_top" xlink:title="engine.visuals.elementVisuals.animations.\lAnimationSequence.update">
<polygon fill="white" stroke="black" points="256,-1 256,-31 476,-31 476,-1 256,-1"/>
<text text-anchor="start" x="264" y="-19" font-family="Helvetica,sans-Serif" font-size="10.00">engine.visuals.elementVisuals.animations.</text>
<text text-anchor="middle" x="366" y="-8" font-family="Helvetica,sans-Serif" font-size="10.00">AnimationSequence.update</text>
</a>
</g>
</g>
<!-- Node1&#45;&gt;Node10 -->
<g id="edge9" class="edge"><title>Node1&#45;&gt;Node10</title>
<path fill="none" stroke="midnightblue" d="M230.217,-28.7354C238.783,-27.9261 247.396,-27.1122 255.899,-26.3087"/>
<polygon fill="midnightblue" stroke="midnightblue" points="229.819,-25.2573 220.193,-29.6826 230.478,-32.2263 229.819,-25.2573"/>
</g>
<!-- Node3 -->
<g id="node3" class="node"><title>Node3</title>
<g id="a_node3"><a xlink:href="../../d9/d50/classengine_1_1visuals_1_1element_visuals_1_1animations_1_1_animator.html#ad526dc47f566d23d4069513fc0731b41" target="_top" xlink:title="engine.visuals.elementVisuals.animations.\lAnimator.update">
<polygon fill="white" stroke="black" points="512,-25 512,-55 732,-55 732,-25 512,-25"/>
<text text-anchor="start" x="520" y="-43" font-family="Helvetica,sans-Serif" font-size="10.00">engine.visuals.elementVisuals.animations.</text>
<text text-anchor="middle" x="622" y="-32" font-family="Helvetica,sans-Serif" font-size="10.00">Animator.update</text>
</a>
</g>
</g>
<!-- Node2&#45;&gt;Node3 -->
<g id="edge2" class="edge"><title>Node2&#45;&gt;Node3</title>
<path fill="none" stroke="midnightblue" d="M486.217,-53.266C494.783,-52.423 503.396,-51.5752 511.899,-50.7383"/>
<polygon fill="midnightblue" stroke="midnightblue" points="485.802,-49.7899 476.193,-54.2527 486.488,-56.7562 485.802,-49.7899"/>
</g>
<!-- Node4 -->
<g id="node4" class="node"><title>Node4</title>
<g id="a_node4"><a xlink:href="../../d1/d3d/classengine_1_1visuals_1_1element_visuals_1_1_visualizer.html#a86b606b05e07c022484554409f533599" target="_top" xlink:title="engine.visuals.elementVisuals.\lVisualizer.initializeDisplay">
<polygon fill="white" stroke="black" points="768,-52 768,-82 932,-82 932,-52 768,-52"/>
<text text-anchor="start" x="776" y="-70" font-family="Helvetica,sans-Serif" font-size="10.00">engine.visuals.elementVisuals.</text>
<text text-anchor="middle" x="850" y="-59" font-family="Helvetica,sans-Serif" font-size="10.00">Visualizer.initializeDisplay</text>
</a>
</g>
</g>
<!-- Node3&#45;&gt;Node4 -->
<g id="edge3" class="edge"><title>Node3&#45;&gt;Node4</title>
<path fill="none" stroke="midnightblue" d="M742.221,-54.2432C750.895,-55.2794 759.52,-56.3099 767.89,-57.3099"/>
<polygon fill="midnightblue" stroke="midnightblue" points="742.373,-50.7365 732.028,-53.0255 741.542,-57.6871 742.373,-50.7365"/>
</g>
<!-- Node6 -->
<g id="node6" class="node"><title>Node6</title>
<g id="a_node6"><a xlink:href="../../d1/d3d/classengine_1_1visuals_1_1element_visuals_1_1_visualizer.html#a3a940cfc6093a46b3c1d53d77674ef15" target="_top" xlink:title="engine.visuals.elementVisuals.\lVisualizer.updateAnimator">
<polygon fill="white" stroke="black" points="768,-1 768,-31 932,-31 932,-1 768,-1"/>
<text text-anchor="start" x="776" y="-19" font-family="Helvetica,sans-Serif" font-size="10.00">engine.visuals.elementVisuals.</text>
<text text-anchor="middle" x="850" y="-8" font-family="Helvetica,sans-Serif" font-size="10.00">Visualizer.updateAnimator</text>
</a>
</g>
</g>
<!-- Node3&#45;&gt;Node6 -->
<g id="edge5" class="edge"><title>Node3&#45;&gt;Node6</title>
<path fill="none" stroke="midnightblue" d="M742.221,-27.3394C750.895,-26.4183 759.52,-25.5023 767.89,-24.6134"/>
<polygon fill="midnightblue" stroke="midnightblue" points="741.603,-23.8853 732.028,-28.4218 742.342,-30.8461 741.603,-23.8853"/>
</g>
<!-- Node5 -->
<g id="node5" class="node"><title>Node5</title>
<g id="a_node5"><a xlink:href="../../d8/d2f/classengine_1_1game_representation_1_1rendered_representation_1_1_drawable_game_element.html#a4b23fded7a0bbd7154333b3f3353c686" target="_top" xlink:title="engine.gameRepresentation.rendered\lRepresentation.DrawableGameElement.\lDrawableGameElement">
<polygon fill="white" stroke="black" points="968,-48.5 968,-89.5 1176,-89.5 1176,-48.5 968,-48.5"/>
<text text-anchor="start" x="976" y="-77.5" font-family="Helvetica,sans-Serif" font-size="10.00">engine.gameRepresentation.rendered</text>
<text text-anchor="start" x="976" y="-66.5" font-family="Helvetica,sans-Serif" font-size="10.00">Representation.DrawableGameElement.</text>
<text text-anchor="middle" x="1072" y="-55.5" font-family="Helvetica,sans-Serif" font-size="10.00">DrawableGameElement</text>
</a>
</g>
</g>
<!-- Node4&#45;&gt;Node5 -->
<g id="edge4" class="edge"><title>Node4&#45;&gt;Node5</title>
<path fill="none" stroke="midnightblue" d="M942.48,-67.8316C950.902,-67.9082 959.474,-67.9861 967.989,-68.0635"/>
<polygon fill="midnightblue" stroke="midnightblue" points="942.326,-64.3302 932.295,-67.739 942.263,-71.3299 942.326,-64.3302"/>
</g>
<!-- Node7 -->
<g id="node7" class="node"><title>Node7</title>
<g id="a_node7"><a xlink:href="../../d1/d3d/classengine_1_1visuals_1_1element_visuals_1_1_visualizer.html#a466845b3211a0266cb7435d18772b372" target="_top" xlink:title="engine.visuals.elementVisuals.\lVisualizer.update">
<polygon fill="white" stroke="black" points="990,-0 990,-30 1154,-30 1154,-0 990,-0"/>
<text text-anchor="start" x="998" y="-18" font-family="Helvetica,sans-Serif" font-size="10.00">engine.visuals.elementVisuals.</text>
<text text-anchor="middle" x="1072" y="-7" font-family="Helvetica,sans-Serif" font-size="10.00">Visualizer.update</text>
</a>
</g>
</g>
<!-- Node6&#45;&gt;Node7 -->
<g id="edge6" class="edge"><title>Node6&#45;&gt;Node7</title>
<path fill="none" stroke="midnightblue" d="M942.492,-15.5841C958.143,-15.513 974.309,-15.4395 989.672,-15.3697"/>
<polygon fill="midnightblue" stroke="midnightblue" points="942.279,-12.085 932.295,-15.6305 942.311,-19.0849 942.279,-12.085"/>
</g>
<!-- Node8 -->
<g id="node8" class="node"><title>Node8</title>
<g id="a_node8"><a xlink:href="../../d8/d2f/classengine_1_1game_representation_1_1rendered_representation_1_1_drawable_game_element.html#a2d69796817cdb4f32ada0982e19df9bc" target="_top" xlink:title="engine.gameRepresentation.rendered\lRepresentation.DrawableGameElement.update">
<polygon fill="white" stroke="black" points="1212,-0 1212,-30 1454,-30 1454,-0 1212,-0"/>
<text text-anchor="start" x="1220" y="-18" font-family="Helvetica,sans-Serif" font-size="10.00">engine.gameRepresentation.rendered</text>
<text text-anchor="middle" x="1333" y="-7" font-family="Helvetica,sans-Serif" font-size="10.00">Representation.DrawableGameElement.update</text>
</a>
</g>
</g>
<!-- Node7&#45;&gt;Node8 -->
<g id="edge7" class="edge"><title>Node7&#45;&gt;Node8</title>
<path fill="none" stroke="midnightblue" d="M1164.65,-15C1179.88,-15 1195.87,-15 1211.69,-15"/>
<polygon fill="midnightblue" stroke="midnightblue" points="1164.24,-11.5001 1154.24,-15 1164.24,-18.5001 1164.24,-11.5001"/>
</g>
<!-- Node9 -->
<g id="node9" class="node"><title>Node9</title>
<g id="a_node9"><a xlink:href="../../d2/d87/classengine_1_1state_managing_1_1_game_loop.html#a6b4981af45d656d6bfffa3a6ad9b0b9d" target="_top" xlink:title="engine.stateManaging.Game\lLoop.updateEditor">
<polygon fill="white" stroke="black" points="1490.5,-0 1490.5,-30 1645.5,-30 1645.5,-0 1490.5,-0"/>
<text text-anchor="start" x="1498.5" y="-18" font-family="Helvetica,sans-Serif" font-size="10.00">engine.stateManaging.Game</text>
<text text-anchor="middle" x="1568" y="-7" font-family="Helvetica,sans-Serif" font-size="10.00">Loop.updateEditor</text>
</a>
</g>
</g>
<!-- Node8&#45;&gt;Node9 -->
<g id="edge8" class="edge"><title>Node8&#45;&gt;Node9</title>
<path fill="none" stroke="midnightblue" d="M1464.27,-15C1473.11,-15 1481.85,-15 1490.27,-15"/>
<polygon fill="midnightblue" stroke="midnightblue" points="1464.25,-11.5001 1454.25,-15 1464.25,-18.5001 1464.25,-11.5001"/>
</g>
<!-- Node10&#45;&gt;Node3 -->
<g id="edge10" class="edge"><title>Node10&#45;&gt;Node3</title>
<path fill="none" stroke="midnightblue" d="M486.217,-27.2646C494.783,-28.0739 503.396,-28.8878 511.899,-29.6913"/>
<polygon fill="midnightblue" stroke="midnightblue" points="486.478,-23.7737 476.193,-26.3174 485.819,-30.7427 486.478,-23.7737"/>
</g>
</g>
</svg>
