<?xml version="1.0" encoding="UTF-8" standalone="no"?>
<!DOCTYPE svg PUBLIC "-//W3C//DTD SVG 1.1//EN"
 "http://www.w3.org/Graphics/SVG/1.1/DTD/svg11.dtd">
<!-- Generated by graphviz version 2.36.0 (20140111.2315)
 -->
<!-- Title: view.editor.wizards.GameElementWizard.launchForEdit Pages: 1 -->
<!--zoomable 609 -->
<svg id="main" version="1.1" xmlns="http://www.w3.org/2000/svg" xmlns:xlink="http://www.w3.org/1999/xlink" xml:space="preserve" onload="init(evt)">
<style type="text/css"><![CDATA[
.edge:hover path { stroke: red; }
.edge:hover polygon { stroke: red; fill: red; }
]]></style>
<script type="text/javascript"><![CDATA[
var edges = document.getElementsByTagName('g');
if (edges && edges.length) {
  for (var i=0;i<edges.length;i++) {
    if (edges[i].id.substr(0,4)=='edge') {
      edges[i].setAttribute('class','edge');
    }
  }
}
]]></script>
        <defs>
                <circle id="rim" cx="0" cy="0" r="7"/>
                <circle id="rim2" cx="0" cy="0" r="3.5"/>
                <g id="zoomPlus">
                        <use xlink:href="#rim" fill="#404040">
                                <set attributeName="fill" to="#808080" begin="zoomplus.mouseover" end="zoomplus.mouseout"/>
                        </use>
                        <path d="M-4,0h8M0,-4v8" fill="none" stroke="white" stroke-width="1.5" pointer-events="none"/>
                </g>
                <g id="zoomMin">
                        <use xlink:href="#rim" fill="#404040">
                                <set attributeName="fill" to="#808080" begin="zoomminus.mouseover" end="zoomminus.mouseout"/>
                        </use>
                        <path d="M-4,0h8" fill="none" stroke="white" stroke-width="1.5" pointer-events="none"/>
                </g>
                <g id="dirArrow">
                        <path fill="none" stroke="white" stroke-width="1.5" d="M0,-3.0v7 M-2.5,-0.5L0,-3.0L2.5,-0.5"/>
                </g>
               <g id="resetDef">
                       <use xlink:href="#rim2" fill="#404040">
                               <set attributeName="fill" to="#808080" begin="reset.mouseover" end="reset.mouseout"/>
                       </use>
               </g>
        </defs>

<script type="text/javascript">
var viewWidth = 1754;
var viewHeight = 609;
var sectionId = 'dynsection-31';
</script>
<script xlink:href="../../svgpan.js"/>
<svg id="graph" class="graph">
<g id="viewport">
<title>view.editor.wizards.GameElementWizard.launchForEdit</title>
<polygon fill="white" stroke="none" points="-4,4 -4,-605 1750,-605 1750,4 -4,4"/>
<!-- Node1 -->
<g id="node1" class="node"><title>Node1</title>
<polygon fill="#bfbfbf" stroke="black" points="0.5,-199 0.5,-229 155.5,-229 155.5,-199 0.5,-199"/>
<text text-anchor="start" x="8.5" y="-217" font-family="Helvetica,sans-Serif" font-size="10.00">view.editor.wizards.Game</text>
<text text-anchor="middle" x="78" y="-206" font-family="Helvetica,sans-Serif" font-size="10.00">ElementWizard.launchForEdit</text>
</g>
<!-- Node2 -->
<g id="node2" class="node"><title>Node2</title>
<g id="a_node2"><a xlink:href="../../d7/d92/classview_1_1editor_1_1wizards_1_1_game_element_wizard.html#a657ee6352e5119f1ec2fe9add8340899" target="_top" xlink:title="view.editor.wizards.Game\lElementWizard.addContainerData">
<polygon fill="white" stroke="black" points="192.5,-268 192.5,-298 371.5,-298 371.5,-268 192.5,-268"/>
<text text-anchor="start" x="200.5" y="-286" font-family="Helvetica,sans-Serif" font-size="10.00">view.editor.wizards.Game</text>
<text text-anchor="middle" x="282" y="-275" font-family="Helvetica,sans-Serif" font-size="10.00">ElementWizard.addContainerData</text>
</a>
</g>
</g>
<!-- Node1&#45;&gt;Node2 -->
<g id="edge1" class="edge"><title>Node1&#45;&gt;Node2</title>
<path fill="none" stroke="midnightblue" d="M123.33,-229.142C153.852,-239.568 194.583,-253.481 227,-264.555"/>
<polygon fill="midnightblue" stroke="midnightblue" points="226.179,-267.973 236.774,-267.893 228.442,-261.348 226.179,-267.973"/>
</g>
<!-- Node22 -->
<g id="node22" class="node"><title>Node22</title>
<g id="a_node22"><a xlink:href="../../d7/d92/classview_1_1editor_1_1wizards_1_1_game_element_wizard.html#a1c003ee8f28937ff44563b5d51f7a0fe" target="_top" xlink:title="view.editor.wizards.Game\lElementWizard.addImageToView">
<polygon fill="white" stroke="black" points="424,-200 424,-230 594,-230 594,-200 424,-200"/>
<text text-anchor="start" x="432" y="-218" font-family="Helvetica,sans-Serif" font-size="10.00">view.editor.wizards.Game</text>
<text text-anchor="middle" x="509" y="-207" font-family="Helvetica,sans-Serif" font-size="10.00">ElementWizard.addImageToView</text>
</a>
</g>
</g>
<!-- Node1&#45;&gt;Node22 -->
<g id="edge21" class="edge"><title>Node1&#45;&gt;Node22</title>
<path fill="none" stroke="midnightblue" d="M155.586,-215.539C167.767,-215.731 180.228,-215.896 192,-216 266.442,-216.659 350.751,-216.338 413.552,-215.891"/>
<polygon fill="midnightblue" stroke="midnightblue" points="413.861,-219.389 423.835,-215.816 413.809,-212.389 413.861,-219.389"/>
</g>
<!-- Node23 -->
<g id="node23" class="node"><title>Node23</title>
<g id="a_node23"><a xlink:href="../../dc/d48/classmodel_1_1data_1_1_wizard_data.html#ae19ca8de1e400fb399d702d78c861a81" target="_top" xlink:title="model.data.WizardData.get\lValueByKey">
<polygon fill="white" stroke="black" points="208,-177 208,-207 356,-207 356,-177 208,-177"/>
<text text-anchor="start" x="216" y="-195" font-family="Helvetica,sans-Serif" font-size="10.00">model.data.WizardData.get</text>
<text text-anchor="middle" x="282" y="-184" font-family="Helvetica,sans-Serif" font-size="10.00">ValueByKey</text>
</a>
</g>
</g>
<!-- Node1&#45;&gt;Node23 -->
<g id="edge22" class="edge"><title>Node1&#45;&gt;Node23</title>
<path fill="none" stroke="midnightblue" d="M155.656,-205.651C169.397,-204.155 183.777,-202.589 197.695,-201.073"/>
<polygon fill="midnightblue" stroke="midnightblue" points="198.169,-204.542 207.731,-199.98 197.411,-197.583 198.169,-204.542"/>
</g>
<!-- Node24 -->
<g id="node24" class="node"><title>Node24</title>
<g id="a_node24"><a xlink:href="../../d7/d92/classview_1_1editor_1_1wizards_1_1_game_element_wizard.html#a0d98e58393e2435808900ae3a2643eee" target="_top" xlink:title="view.editor.wizards.Game\lElementWizard.renderImage">
<polygon fill="white" stroke="black" points="206,-128 206,-158 358,-158 358,-128 206,-128"/>
<text text-anchor="start" x="214" y="-146" font-family="Helvetica,sans-Serif" font-size="10.00">view.editor.wizards.Game</text>
<text text-anchor="middle" x="282" y="-135" font-family="Helvetica,sans-Serif" font-size="10.00">ElementWizard.renderImage</text>
</a>
</g>
</g>
<!-- Node1&#45;&gt;Node24 -->
<g id="edge23" class="edge"><title>Node1&#45;&gt;Node24</title>
<path fill="none" stroke="midnightblue" d="M112.182,-198.851C134.469,-189.012 164.651,-176.33 192,-167 198.063,-164.931 204.406,-162.923 210.794,-161.006"/>
<polygon fill="midnightblue" stroke="midnightblue" points="212.216,-164.237 220.834,-158.075 210.253,-157.518 212.216,-164.237"/>
</g>
<!-- Node3 -->
<g id="node3" class="node"><title>Node3</title>
<g id="a_node3"><a xlink:href="../../d2/daf/classview_1_1editor_1_1wizards_1_1_c_r_u_d_container.html#afc90f248b63b655ded20ea49f90d01a3" target="_top" xlink:title="view.editor.wizards.CRUDContainer.add\lAndRenderWizardDatas">
<polygon fill="white" stroke="black" points="408,-330 408,-360 610,-360 610,-330 408,-330"/>
<text text-anchor="start" x="416" y="-348" font-family="Helvetica,sans-Serif" font-size="10.00">view.editor.wizards.CRUDContainer.add</text>
<text text-anchor="middle" x="509" y="-337" font-family="Helvetica,sans-Serif" font-size="10.00">AndRenderWizardDatas</text>
</a>
</g>
</g>
<!-- Node2&#45;&gt;Node3 -->
<g id="edge2" class="edge"><title>Node2&#45;&gt;Node3</title>
<path fill="none" stroke="midnightblue" d="M337.466,-298.008C369.427,-306.815 409.993,-317.994 443.541,-327.238"/>
<polygon fill="midnightblue" stroke="midnightblue" points="442.685,-330.632 453.256,-329.915 444.545,-323.884 442.685,-330.632"/>
</g>
<!-- Node21 -->
<g id="node21" class="node"><title>Node21</title>
<g id="a_node21"><a xlink:href="../../dc/d48/classmodel_1_1data_1_1_wizard_data.html#ad9134aa0c85f67b8fd66ff84f7f79cbe" target="_top" xlink:title="model.data.WizardData.get\lWizardDataByType">
<polygon fill="white" stroke="black" points="435,-268 435,-298 583,-298 583,-268 435,-268"/>
<text text-anchor="start" x="443" y="-286" font-family="Helvetica,sans-Serif" font-size="10.00">model.data.WizardData.get</text>
<text text-anchor="middle" x="509" y="-275" font-family="Helvetica,sans-Serif" font-size="10.00">WizardDataByType</text>
</a>
</g>
</g>
<!-- Node2&#45;&gt;Node21 -->
<g id="edge20" class="edge"><title>Node2&#45;&gt;Node21</title>
<path fill="none" stroke="midnightblue" d="M371.603,-283C389.079,-283 407.362,-283 424.657,-283"/>
<polygon fill="midnightblue" stroke="midnightblue" points="424.712,-286.5 434.712,-283 424.712,-279.5 424.712,-286.5"/>
</g>
<!-- Node4 -->
<g id="node4" class="node"><title>Node4</title>
<g id="a_node4"><a xlink:href="../../d2/daf/classview_1_1editor_1_1wizards_1_1_c_r_u_d_container.html#a93585a010caa4cdf7201f854c10001d5" target="_top" xlink:title="view.editor.wizards.CRUDContainer.create\lVisualRepresentation">
<polygon fill="white" stroke="black" points="646.5,-406 646.5,-436 861.5,-436 861.5,-406 646.5,-406"/>
<text text-anchor="start" x="654.5" y="-424" font-family="Helvetica,sans-Serif" font-size="10.00">view.editor.wizards.CRUDContainer.create</text>
<text text-anchor="middle" x="754" y="-413" font-family="Helvetica,sans-Serif" font-size="10.00">VisualRepresentation</text>
</a>
</g>
</g>
<!-- Node3&#45;&gt;Node4 -->
<g id="edge3" class="edge"><title>Node3&#45;&gt;Node4</title>
<path fill="none" stroke="midnightblue" d="M558.009,-360.015C597.32,-372.31 653.073,-389.747 694.9,-402.829"/>
<polygon fill="midnightblue" stroke="midnightblue" points="694.087,-406.242 704.675,-405.886 696.176,-399.561 694.087,-406.242"/>
</g>
<!-- Node5 -->
<g id="node5" class="node"><title>Node5</title>
<g id="a_node5"><a xlink:href="../../d2/daf/classview_1_1editor_1_1wizards_1_1_c_r_u_d_container.html#a0dd63694421d9fc87cd4046499d3d229" target="_top" xlink:title="view.editor.wizards.CRUDContainer.launch\lEditWizard">
<polygon fill="white" stroke="black" points="898.5,-432 898.5,-462 1113.5,-462 1113.5,-432 898.5,-432"/>
<text text-anchor="start" x="906.5" y="-450" font-family="Helvetica,sans-Serif" font-size="10.00">view.editor.wizards.CRUDContainer.launch</text>
<text text-anchor="middle" x="1006" y="-439" font-family="Helvetica,sans-Serif" font-size="10.00">EditWizard</text>
</a>
</g>
</g>
<!-- Node4&#45;&gt;Node5 -->
<g id="edge4" class="edge"><title>Node4&#45;&gt;Node5</title>
<path fill="none" stroke="midnightblue" d="M861.748,-432.102C870.522,-433.014 879.42,-433.94 888.261,-434.859"/>
<polygon fill="midnightblue" stroke="midnightblue" points="887.903,-438.341 898.211,-435.894 888.627,-431.378 887.903,-438.341"/>
</g>
<!-- Node6 -->
<g id="node6" class="node"><title>Node6</title>
<g id="a_node6"><a xlink:href="../../dc/d48/classmodel_1_1data_1_1_wizard_data.html#a9cc5ffae61bf745c8aad40f05ee31ab4" target="_top" xlink:title="model.data.WizardData.add\lDataPair">
<polygon fill="white" stroke="black" points="1165,-571 1165,-601 1315,-601 1315,-571 1165,-571"/>
<text text-anchor="start" x="1173" y="-589" font-family="Helvetica,sans-Serif" font-size="10.00">model.data.WizardData.add</text>
<text text-anchor="middle" x="1240" y="-578" font-family="Helvetica,sans-Serif" font-size="10.00">DataPair</text>
</a>
</g>
</g>
<!-- Node5&#45;&gt;Node6 -->
<g id="edge5" class="edge"><title>Node5&#45;&gt;Node6</title>
<path fill="none" stroke="midnightblue" d="M1021.83,-462.263C1046.32,-486.61 1097.72,-534.219 1150,-561 1154.53,-563.319 1159.3,-565.447 1164.18,-567.395"/>
<polygon fill="midnightblue" stroke="midnightblue" points="1163.08,-570.721 1173.67,-570.924 1165.52,-564.16 1163.08,-570.721"/>
</g>
<!-- Node7 -->
<g id="node7" class="node"><title>Node7</title>
<g id="a_node7"><a xlink:href="../../dc/d48/classmodel_1_1data_1_1_wizard_data.html#ad8ab085a8510ecf464c28fc0f9b77c37" target="_top" xlink:title="model.data.WizardData.clear">
<polygon fill="white" stroke="black" points="1162.5,-532.5 1162.5,-551.5 1317.5,-551.5 1317.5,-532.5 1162.5,-532.5"/>
<text text-anchor="middle" x="1240" y="-539.5" font-family="Helvetica,sans-Serif" font-size="10.00">model.data.WizardData.clear</text>
</a>
</g>
</g>
<!-- Node5&#45;&gt;Node7 -->
<g id="edge6" class="edge"><title>Node5&#45;&gt;Node7</title>
<path fill="none" stroke="midnightblue" d="M1030.9,-462.038C1058.59,-478.859 1106.05,-505.857 1150,-522 1158.21,-525.015 1167.02,-527.66 1175.78,-529.955"/>
<polygon fill="midnightblue" stroke="midnightblue" points="1175.08,-533.387 1185.63,-532.397 1176.77,-526.592 1175.08,-533.387"/>
</g>
<!-- Node8 -->
<g id="node8" class="node"><title>Node8</title>
<g id="a_node8"><a xlink:href="../../d7/d40/classview_1_1editor_1_1wizards_1_1_wizard.html#af04694bcdb4842048f357e2e05097440" target="_top" xlink:title="view.editor.wizards.Wizard.close\lStage">
<polygon fill="white" stroke="black" points="1156.5,-483 1156.5,-513 1323.5,-513 1323.5,-483 1156.5,-483"/>
<text text-anchor="start" x="1164.5" y="-501" font-family="Helvetica,sans-Serif" font-size="10.00">view.editor.wizards.Wizard.close</text>
<text text-anchor="middle" x="1240" y="-490" font-family="Helvetica,sans-Serif" font-size="10.00">Stage</text>
</a>
</g>
</g>
<!-- Node5&#45;&gt;Node8 -->
<g id="edge7" class="edge"><title>Node5&#45;&gt;Node8</title>
<path fill="none" stroke="midnightblue" d="M1075.35,-462.026C1102.14,-467.914 1133.02,-474.703 1160.7,-480.787"/>
<polygon fill="midnightblue" stroke="midnightblue" points="1160.22,-484.265 1170.74,-482.994 1161.72,-477.428 1160.22,-484.265"/>
</g>
<!-- Node9 -->
<g id="node9" class="node"><title>Node9</title>
<g id="a_node9"><a xlink:href="../../d7/d40/classview_1_1editor_1_1wizards_1_1_wizard.html#af62c5e88670b925cde0a2a277a544bb5" target="_top" xlink:title="view.editor.wizards.Wizard.launch\lForEdit">
<polygon fill="white" stroke="black" points="1153.5,-434 1153.5,-464 1326.5,-464 1326.5,-434 1153.5,-434"/>
<text text-anchor="start" x="1161.5" y="-452" font-family="Helvetica,sans-Serif" font-size="10.00">view.editor.wizards.Wizard.launch</text>
<text text-anchor="middle" x="1240" y="-441" font-family="Helvetica,sans-Serif" font-size="10.00">ForEdit</text>
</a>
</g>
</g>
<!-- Node5&#45;&gt;Node9 -->
<g id="edge8" class="edge"><title>Node5&#45;&gt;Node9</title>
<path fill="none" stroke="midnightblue" d="M1113.83,-447.921C1123.63,-448.005 1133.51,-448.091 1143.21,-448.174"/>
<polygon fill="midnightblue" stroke="midnightblue" points="1143.19,-451.674 1153.22,-448.261 1143.25,-444.674 1143.19,-451.674"/>
</g>
<!-- Node10 -->
<g id="node10" class="node"><title>Node10</title>
<g id="a_node10"><a xlink:href="../../d7/d40/classview_1_1editor_1_1wizards_1_1_wizard.html#ab4942fec6fe2e4e166f9ed82f6a2b2af" target="_top" xlink:title="view.editor.wizards.Wizard.load\lGlobalValues">
<polygon fill="white" stroke="black" points="1159,-385 1159,-415 1321,-415 1321,-385 1159,-385"/>
<text text-anchor="start" x="1167" y="-403" font-family="Helvetica,sans-Serif" font-size="10.00">view.editor.wizards.Wizard.load</text>
<text text-anchor="middle" x="1240" y="-392" font-family="Helvetica,sans-Serif" font-size="10.00">GlobalValues</text>
</a>
</g>
</g>
<!-- Node5&#45;&gt;Node10 -->
<g id="edge9" class="edge"><title>Node5&#45;&gt;Node10</title>
<path fill="none" stroke="midnightblue" d="M1081.04,-432C1104.59,-427.23 1130.8,-421.921 1154.99,-417.019"/>
<polygon fill="midnightblue" stroke="midnightblue" points="1155.76,-420.435 1164.86,-415.019 1154.37,-413.574 1155.76,-420.435"/>
</g>
<!-- Node11 -->
<g id="node11" class="node"><title>Node11</title>
<g id="a_node11"><a xlink:href="../../d2/d33/classview_1_1editor_1_1wizards_1_1_wizard_utility.html#acece70a3dea98cde832a608d4aff204d" target="_top" xlink:title="view.editor.wizards.Wizard\lUtility.loadWizard">
<polygon fill="white" stroke="black" points="1170.5,-336 1170.5,-366 1309.5,-366 1309.5,-336 1170.5,-336"/>
<text text-anchor="start" x="1178.5" y="-354" font-family="Helvetica,sans-Serif" font-size="10.00">view.editor.wizards.Wizard</text>
<text text-anchor="middle" x="1240" y="-343" font-family="Helvetica,sans-Serif" font-size="10.00">Utility.loadWizard</text>
</a>
</g>
</g>
<!-- Node5&#45;&gt;Node11 -->
<g id="edge10" class="edge"><title>Node5&#45;&gt;Node11</title>
<path fill="none" stroke="midnightblue" d="M1033.47,-431.979C1061.67,-416.424 1107.96,-392.176 1150,-376 1156.34,-373.56 1163.02,-371.244 1169.75,-369.077"/>
<polygon fill="midnightblue" stroke="midnightblue" points="1171.1,-372.322 1179.61,-366.011 1169.02,-365.637 1171.1,-372.322"/>
</g>
<!-- Node20 -->
<g id="node20" class="node"><title>Node20</title>
<g id="a_node20"><a xlink:href="../../d7/d40/classview_1_1editor_1_1wizards_1_1_wizard.html#ac0ea3bff75d232a7c87af57bc5bbd623" target="_top" xlink:title="view.editor.wizards.Wizard.set\lSubmit">
<polygon fill="white" stroke="black" points="1161.5,-287 1161.5,-317 1318.5,-317 1318.5,-287 1161.5,-287"/>
<text text-anchor="start" x="1169.5" y="-305" font-family="Helvetica,sans-Serif" font-size="10.00">view.editor.wizards.Wizard.set</text>
<text text-anchor="middle" x="1240" y="-294" font-family="Helvetica,sans-Serif" font-size="10.00">Submit</text>
</a>
</g>
</g>
<!-- Node5&#45;&gt;Node20 -->
<g id="edge19" class="edge"><title>Node5&#45;&gt;Node20</title>
<path fill="none" stroke="midnightblue" d="M1020.89,-431.716C1044.81,-406.29 1096.41,-355.309 1150,-327 1154.3,-324.73 1158.82,-322.647 1163.46,-320.739"/>
<polygon fill="midnightblue" stroke="midnightblue" points="1165.01,-323.894 1173.11,-317.064 1162.52,-317.353 1165.01,-323.894"/>
</g>
<!-- Node12 -->
<g id="node12" class="node"><title>Node12</title>
<g id="a_node12"><a xlink:href="../../de/d50/classview_1_1_g_u_i_load_style_utility.html#ad5c2539d920db1e4cec593d49cbf28bc" target="_top" xlink:title="view.GUILoadStyleUtility.get\lInstance">
<polygon fill="white" stroke="black" points="1382,-478 1382,-508 1530,-508 1530,-478 1382,-478"/>
<text text-anchor="start" x="1390" y="-496" font-family="Helvetica,sans-Serif" font-size="10.00">view.GUILoadStyleUtility.get</text>
<text text-anchor="middle" x="1456" y="-485" font-family="Helvetica,sans-Serif" font-size="10.00">Instance</text>
</a>
</g>
</g>
<!-- Node11&#45;&gt;Node12 -->
<g id="edge11" class="edge"><title>Node11&#45;&gt;Node12</title>
<path fill="none" stroke="midnightblue" d="M1309.59,-363.049C1317.03,-366.378 1324.05,-370.614 1330,-376 1362.55,-405.471 1333.45,-438.529 1366,-468 1368.17,-469.969 1370.49,-471.785 1372.92,-473.459"/>
<polygon fill="midnightblue" stroke="midnightblue" points="1371.19,-476.499 1381.57,-478.62 1374.78,-470.489 1371.19,-476.499"/>
</g>
<!-- Node14 -->
<g id="node14" class="node"><title>Node14</title>
<g id="a_node14"><a xlink:href="../../de/d50/classview_1_1_g_u_i_load_style_utility.html#a3f0bdbc7239563c54aa365afd86f620d" target="_top" xlink:title="view.GUILoadStyleUtility.generate\lGUIPane">
<polygon fill="white" stroke="black" points="1368,-429 1368,-459 1544,-459 1544,-429 1368,-429"/>
<text text-anchor="start" x="1376" y="-447" font-family="Helvetica,sans-Serif" font-size="10.00">view.GUILoadStyleUtility.generate</text>
<text text-anchor="middle" x="1456" y="-436" font-family="Helvetica,sans-Serif" font-size="10.00">GUIPane</text>
</a>
</g>
</g>
<!-- Node11&#45;&gt;Node14 -->
<g id="edge13" class="edge"><title>Node11&#45;&gt;Node14</title>
<path fill="none" stroke="midnightblue" d="M1309.9,-365.778C1316.95,-368.618 1323.8,-371.992 1330,-376 1350.93,-389.53 1345.07,-405.47 1366,-419 1369.15,-421.036 1372.47,-422.909 1375.9,-424.632"/>
<polygon fill="midnightblue" stroke="midnightblue" points="1374.63,-427.902 1385.19,-428.848 1377.53,-421.528 1374.63,-427.902"/>
</g>
<!-- Node15 -->
<g id="node15" class="node"><title>Node15</title>
<g id="a_node15"><a xlink:href="../../d8/d35/enumview_1_1gui_1_1_g_u_i_pane_path.html#a21483b76823df7d547e7c451c9877b65" target="_top" xlink:title="view.gui.GUIPanePath.get\lFilePath">
<polygon fill="white" stroke="black" points="1387.5,-380 1387.5,-410 1524.5,-410 1524.5,-380 1387.5,-380"/>
<text text-anchor="start" x="1395.5" y="-398" font-family="Helvetica,sans-Serif" font-size="10.00">view.gui.GUIPanePath.get</text>
<text text-anchor="middle" x="1456" y="-387" font-family="Helvetica,sans-Serif" font-size="10.00">FilePath</text>
</a>
</g>
</g>
<!-- Node11&#45;&gt;Node15 -->
<g id="edge14" class="edge"><title>Node11&#45;&gt;Node15</title>
<path fill="none" stroke="midnightblue" d="M1309.59,-365.103C1331.12,-369.528 1355.03,-374.445 1377.14,-378.992"/>
<polygon fill="midnightblue" stroke="midnightblue" points="1376.66,-382.466 1387.16,-381.052 1378.07,-375.609 1376.66,-382.466"/>
</g>
<!-- Node16 -->
<g id="node16" class="node"><title>Node16</title>
<g id="a_node16"><a xlink:href="../../d7/d40/classview_1_1editor_1_1wizards_1_1_wizard.html#acf4e507283b52e3f07d0178de8a95900" target="_top" xlink:title="view.editor.wizards.Wizard.getRoot">
<polygon fill="white" stroke="black" points="1366.5,-341.5 1366.5,-360.5 1545.5,-360.5 1545.5,-341.5 1366.5,-341.5"/>
<text text-anchor="middle" x="1456" y="-348.5" font-family="Helvetica,sans-Serif" font-size="10.00">view.editor.wizards.Wizard.getRoot</text>
</a>
</g>
</g>
<!-- Node11&#45;&gt;Node16 -->
<g id="edge15" class="edge"><title>Node11&#45;&gt;Node16</title>
<path fill="none" stroke="midnightblue" d="M1309.59,-351C1324.44,-351 1340.42,-351 1356.16,-351"/>
<polygon fill="midnightblue" stroke="midnightblue" points="1356.45,-354.5 1366.45,-351 1356.45,-347.5 1356.45,-354.5"/>
</g>
<!-- Node17 -->
<g id="node17" class="node"><title>Node17</title>
<g id="a_node17"><a xlink:href="../../de/d50/classview_1_1_g_u_i_load_style_utility.html#ad8a679308f5305b82d32661a86f96690" target="_top" xlink:title="view.GUILoadStyleUtility.add\lScene">
<polygon fill="white" stroke="black" points="1381,-292 1381,-322 1531,-322 1531,-292 1381,-292"/>
<text text-anchor="start" x="1389" y="-310" font-family="Helvetica,sans-Serif" font-size="10.00">view.GUILoadStyleUtility.add</text>
<text text-anchor="middle" x="1456" y="-299" font-family="Helvetica,sans-Serif" font-size="10.00">Scene</text>
</a>
</g>
</g>
<!-- Node11&#45;&gt;Node17 -->
<g id="edge16" class="edge"><title>Node11&#45;&gt;Node17</title>
<path fill="none" stroke="midnightblue" d="M1309.59,-336.897C1329.45,-332.814 1351.34,-328.313 1371.98,-324.07"/>
<polygon fill="midnightblue" stroke="midnightblue" points="1372.9,-327.453 1381.99,-322.01 1371.49,-320.596 1372.9,-327.453"/>
</g>
<!-- Node19 -->
<g id="node19" class="node"><title>Node19</title>
<g id="a_node19"><a xlink:href="../../d7/d40/classview_1_1editor_1_1wizards_1_1_wizard.html#abb231f895d1f01a0406555641eebedc5" target="_top" xlink:title="view.editor.wizards.Wizard.set\lStage">
<polygon fill="white" stroke="black" points="1377.5,-243 1377.5,-273 1534.5,-273 1534.5,-243 1377.5,-243"/>
<text text-anchor="start" x="1385.5" y="-261" font-family="Helvetica,sans-Serif" font-size="10.00">view.editor.wizards.Wizard.set</text>
<text text-anchor="middle" x="1456" y="-250" font-family="Helvetica,sans-Serif" font-size="10.00">Stage</text>
</a>
</g>
</g>
<!-- Node11&#45;&gt;Node19 -->
<g id="edge18" class="edge"><title>Node11&#45;&gt;Node19</title>
<path fill="none" stroke="midnightblue" d="M1309.9,-336.222C1316.95,-333.382 1323.8,-330.008 1330,-326 1350.93,-312.47 1345.07,-296.53 1366,-283 1369.15,-280.964 1372.47,-279.091 1375.9,-277.368"/>
<polygon fill="midnightblue" stroke="midnightblue" points="1377.53,-280.472 1385.19,-273.152 1374.63,-274.098 1377.53,-280.472"/>
</g>
<!-- Node13 -->
<g id="node13" class="node"><title>Node13</title>
<g id="a_node13"><a xlink:href="../../de/d50/classview_1_1_g_u_i_load_style_utility.html#aec297413dba8a98a536fdd9792d27860" target="_top" xlink:title="view.GUILoadStyleUtility.\lGUILoadStyleUtility">
<polygon fill="white" stroke="black" points="1598,-478 1598,-508 1730,-508 1730,-478 1598,-478"/>
<text text-anchor="start" x="1606" y="-496" font-family="Helvetica,sans-Serif" font-size="10.00">view.GUILoadStyleUtility.</text>
<text text-anchor="middle" x="1664" y="-485" font-family="Helvetica,sans-Serif" font-size="10.00">GUILoadStyleUtility</text>
</a>
</g>
</g>
<!-- Node12&#45;&gt;Node13 -->
<g id="edge12" class="edge"><title>Node12&#45;&gt;Node13</title>
<path fill="none" stroke="midnightblue" d="M1530.21,-493C1548.84,-493 1568.91,-493 1587.65,-493"/>
<polygon fill="midnightblue" stroke="midnightblue" points="1587.91,-496.5 1597.91,-493 1587.91,-489.5 1587.91,-496.5"/>
</g>
<!-- Node18 -->
<g id="node18" class="node"><title>Node18</title>
<g id="a_node18"><a xlink:href="../../de/d50/classview_1_1_g_u_i_load_style_utility.html#a9540b620f62a09da8127367e897d5129" target="_top" xlink:title="view.GUILoadStyleUtility.attach\lStyles">
<polygon fill="white" stroke="black" points="1582.5,-292 1582.5,-322 1745.5,-322 1745.5,-292 1582.5,-292"/>
<text text-anchor="start" x="1590.5" y="-310" font-family="Helvetica,sans-Serif" font-size="10.00">view.GUILoadStyleUtility.attach</text>
<text text-anchor="middle" x="1664" y="-299" font-family="Helvetica,sans-Serif" font-size="10.00">Styles</text>
</a>
</g>
</g>
<!-- Node17&#45;&gt;Node18 -->
<g id="edge17" class="edge"><title>Node17&#45;&gt;Node18</title>
<path fill="none" stroke="midnightblue" d="M1531.08,-307C1544.32,-307 1558.25,-307 1571.89,-307"/>
<polygon fill="midnightblue" stroke="midnightblue" points="1572.26,-310.5 1582.26,-307 1572.26,-303.5 1572.26,-310.5"/>
</g>
<!-- Node24&#45;&gt;Node22 -->
<g id="edge24" class="edge"><title>Node24&#45;&gt;Node22</title>
<path fill="none" stroke="midnightblue" d="M341.589,-158.12C351.767,-160.94 362.219,-163.96 372,-167 400.834,-175.962 432.682,-187.132 458.305,-196.441"/>
<polygon fill="midnightblue" stroke="midnightblue" points="457.208,-199.766 467.802,-199.909 459.609,-193.191 457.208,-199.766"/>
</g>
<!-- Node25 -->
<g id="node25" class="node"><title>Node25</title>
<g id="a_node25"><a xlink:href="../../d7/d92/classview_1_1editor_1_1wizards_1_1_game_element_wizard.html#a9186bc2aecf42e0dc000cc684d20c685" target="_top" xlink:title="view.editor.wizards.Game\lElementWizard.initializeSliders">
<polygon fill="white" stroke="black" points="428.5,-122 428.5,-152 589.5,-152 589.5,-122 428.5,-122"/>
<text text-anchor="start" x="436.5" y="-140" font-family="Helvetica,sans-Serif" font-size="10.00">view.editor.wizards.Game</text>
<text text-anchor="middle" x="509" y="-129" font-family="Helvetica,sans-Serif" font-size="10.00">ElementWizard.initializeSliders</text>
</a>
</g>
</g>
<!-- Node24&#45;&gt;Node25 -->
<g id="edge25" class="edge"><title>Node24&#45;&gt;Node25</title>
<path fill="none" stroke="midnightblue" d="M358.235,-140.994C377.381,-140.483 398.152,-139.929 417.955,-139.401"/>
<polygon fill="midnightblue" stroke="midnightblue" points="418.305,-142.893 428.208,-139.128 418.118,-135.896 418.305,-142.893"/>
</g>
<!-- Node26 -->
<g id="node26" class="node"><title>Node26</title>
<g id="a_node26"><a xlink:href="../../d7/d92/classview_1_1editor_1_1wizards_1_1_game_element_wizard.html#a9131233346b756980f0ffada6804fc93" target="_top" xlink:title="view.editor.wizards.Game\lElementWizard.createSliderListeners">
<polygon fill="white" stroke="black" points="658,-122 658,-152 850,-152 850,-122 658,-122"/>
<text text-anchor="start" x="666" y="-140" font-family="Helvetica,sans-Serif" font-size="10.00">view.editor.wizards.Game</text>
<text text-anchor="middle" x="754" y="-129" font-family="Helvetica,sans-Serif" font-size="10.00">ElementWizard.createSliderListeners</text>
</a>
</g>
</g>
<!-- Node25&#45;&gt;Node26 -->
<g id="edge26" class="edge"><title>Node25&#45;&gt;Node26</title>
<path fill="none" stroke="midnightblue" d="M589.567,-137C608.073,-137 628.058,-137 647.487,-137"/>
<polygon fill="midnightblue" stroke="midnightblue" points="647.587,-140.5 657.587,-137 647.587,-133.5 647.587,-140.5"/>
</g>
<!-- Node33 -->
<g id="node33" class="node"><title>Node33</title>
<g id="a_node33"><a xlink:href="../../d7/d92/classview_1_1editor_1_1wizards_1_1_game_element_wizard.html#a9b8cb1ba03c43ede2a7b2cda6d23a2fd" target="_top" xlink:title="view.editor.wizards.Game\lElementWizard.createTextField\lListeners">
<polygon fill="white" stroke="black" points="673.5,-40.5 673.5,-81.5 834.5,-81.5 834.5,-40.5 673.5,-40.5"/>
<text text-anchor="start" x="681.5" y="-69.5" font-family="Helvetica,sans-Serif" font-size="10.00">view.editor.wizards.Game</text>
<text text-anchor="start" x="681.5" y="-58.5" font-family="Helvetica,sans-Serif" font-size="10.00">ElementWizard.createTextField</text>
<text text-anchor="middle" x="754" y="-47.5" font-family="Helvetica,sans-Serif" font-size="10.00">Listeners</text>
</a>
</g>
</g>
<!-- Node25&#45;&gt;Node33 -->
<g id="edge33" class="edge"><title>Node25&#45;&gt;Node33</title>
<path fill="none" stroke="midnightblue" d="M558.009,-121.985C592.054,-111.337 638.43,-96.8324 677.413,-84.6402"/>
<polygon fill="midnightblue" stroke="midnightblue" points="678.654,-87.9196 687.153,-81.5941 676.564,-81.2387 678.654,-87.9196"/>
</g>
<!-- Node27 -->
<g id="node27" class="node"><title>Node27</title>
<g id="a_node27"><a xlink:href="../../de/dd2/classview_1_1editor_1_1wizards_1_1_animation_grid.html#ae8b023d0c40b27c1f76cb457cf5a7c20" target="_top" xlink:title="view.editor.wizards.Animation\lGrid.changeSize">
<polygon fill="white" stroke="black" points="928,-196 928,-226 1084,-226 1084,-196 928,-196"/>
<text text-anchor="start" x="936" y="-214" font-family="Helvetica,sans-Serif" font-size="10.00">view.editor.wizards.Animation</text>
<text text-anchor="middle" x="1006" y="-203" font-family="Helvetica,sans-Serif" font-size="10.00">Grid.changeSize</text>
</a>
</g>
</g>
<!-- Node26&#45;&gt;Node27 -->
<g id="edge27" class="edge"><title>Node26&#45;&gt;Node27</title>
<path fill="none" stroke="midnightblue" d="M795.336,-152.036C823.795,-162.345 862.94,-175.925 898,-186 907.049,-188.6 916.586,-191.127 926.087,-193.513"/>
<polygon fill="midnightblue" stroke="midnightblue" points="925.405,-196.949 935.952,-195.944 927.08,-190.153 925.405,-196.949"/>
</g>
<!-- Node30 -->
<g id="node30" class="node"><title>Node30</title>
<g id="a_node30"><a xlink:href="../../de/dec/classview_1_1editor_1_1wizards_1_1_grid.html#a94942c619771b542804ed7e09e371a87" target="_top" xlink:title="view.editor.wizards.Grid.get\lFrameX">
<polygon fill="white" stroke="black" points="933,-147 933,-177 1079,-177 1079,-147 933,-147"/>
<text text-anchor="start" x="941" y="-165" font-family="Helvetica,sans-Serif" font-size="10.00">view.editor.wizards.Grid.get</text>
<text text-anchor="middle" x="1006" y="-154" font-family="Helvetica,sans-Serif" font-size="10.00">FrameX</text>
</a>
</g>
</g>
<!-- Node26&#45;&gt;Node30 -->
<g id="edge30" class="edge"><title>Node26&#45;&gt;Node30</title>
<path fill="none" stroke="midnightblue" d="M850.227,-146.523C874.147,-148.915 899.612,-151.461 922.833,-153.783"/>
<polygon fill="midnightblue" stroke="midnightblue" points="922.683,-157.286 932.982,-154.798 923.38,-150.32 922.683,-157.286"/>
</g>
<!-- Node31 -->
<g id="node31" class="node"><title>Node31</title>
<g id="a_node31"><a xlink:href="../../de/dec/classview_1_1editor_1_1wizards_1_1_grid.html#a4278bcf939fc9f507c14eba27cff9b68" target="_top" xlink:title="view.editor.wizards.Grid.get\lFrameY">
<polygon fill="white" stroke="black" points="933,-98 933,-128 1079,-128 1079,-98 933,-98"/>
<text text-anchor="start" x="941" y="-116" font-family="Helvetica,sans-Serif" font-size="10.00">view.editor.wizards.Grid.get</text>
<text text-anchor="middle" x="1006" y="-105" font-family="Helvetica,sans-Serif" font-size="10.00">FrameY</text>
</a>
</g>
</g>
<!-- Node26&#45;&gt;Node31 -->
<g id="edge31" class="edge"><title>Node26&#45;&gt;Node31</title>
<path fill="none" stroke="midnightblue" d="M850.227,-127.858C874.147,-125.562 899.612,-123.117 922.833,-120.888"/>
<polygon fill="midnightblue" stroke="midnightblue" points="923.362,-124.353 932.982,-119.914 922.693,-117.385 923.362,-124.353"/>
</g>
<!-- Node32 -->
<g id="node32" class="node"><title>Node32</title>
<g id="a_node32"><a xlink:href="../../d7/d92/classview_1_1editor_1_1wizards_1_1_game_element_wizard.html#a801947dda9cfb2380e6c7d5e860bf8d8" target="_top" xlink:title="view.editor.wizards.Game\lElementWizard.setValueListener">
<polygon fill="white" stroke="black" points="921,-49 921,-79 1091,-79 1091,-49 921,-49"/>
<text text-anchor="start" x="929" y="-67" font-family="Helvetica,sans-Serif" font-size="10.00">view.editor.wizards.Game</text>
<text text-anchor="middle" x="1006" y="-56" font-family="Helvetica,sans-Serif" font-size="10.00">ElementWizard.setValueListener</text>
</a>
</g>
</g>
<!-- Node26&#45;&gt;Node32 -->
<g id="edge32" class="edge"><title>Node26&#45;&gt;Node32</title>
<path fill="none" stroke="midnightblue" d="M795.002,-121.978C823.473,-111.61 862.77,-97.9547 898,-88 906.032,-85.7303 914.452,-83.5341 922.891,-81.4528"/>
<polygon fill="midnightblue" stroke="midnightblue" points="923.884,-84.8137 932.783,-79.0648 922.241,-78.0091 923.884,-84.8137"/>
</g>
<!-- Node28 -->
<g id="node28" class="node"><title>Node28</title>
<g id="a_node28"><a xlink:href="../../de/dec/classview_1_1editor_1_1wizards_1_1_grid.html#ae5c3a9c2a2e322a67f22ea893395fe09" target="_top" xlink:title="view.editor.wizards.Grid.createGrid">
<polygon fill="white" stroke="black" points="1150,-200.5 1150,-219.5 1330,-219.5 1330,-200.5 1150,-200.5"/>
<text text-anchor="middle" x="1240" y="-207.5" font-family="Helvetica,sans-Serif" font-size="10.00">view.editor.wizards.Grid.createGrid</text>
</a>
</g>
</g>
<!-- Node27&#45;&gt;Node28 -->
<g id="edge28" class="edge"><title>Node27&#45;&gt;Node28</title>
<path fill="none" stroke="midnightblue" d="M1084.25,-210.667C1101.94,-210.591 1120.98,-210.509 1139.45,-210.429"/>
<polygon fill="midnightblue" stroke="midnightblue" points="1139.66,-213.928 1149.64,-210.385 1139.63,-206.928 1139.66,-213.928"/>
</g>
<!-- Node29 -->
<g id="node29" class="node"><title>Node29</title>
<g id="a_node29"><a xlink:href="../../de/dec/classview_1_1editor_1_1wizards_1_1_grid.html#a7a745baf6411f65575eec276d04c7c08" target="_top" xlink:title="view.editor.wizards.Grid.create\lColumns">
<polygon fill="white" stroke="black" points="1375.5,-194 1375.5,-224 1536.5,-224 1536.5,-194 1375.5,-194"/>
<text text-anchor="start" x="1383.5" y="-212" font-family="Helvetica,sans-Serif" font-size="10.00">view.editor.wizards.Grid.create</text>
<text text-anchor="middle" x="1456" y="-201" font-family="Helvetica,sans-Serif" font-size="10.00">Columns</text>
</a>
</g>
</g>
<!-- Node28&#45;&gt;Node29 -->
<g id="edge29" class="edge"><title>Node28&#45;&gt;Node29</title>
<path fill="none" stroke="midnightblue" d="M1330.21,-209.583C1341.83,-209.529 1353.73,-209.473 1365.36,-209.419"/>
<polygon fill="midnightblue" stroke="midnightblue" points="1365.51,-212.918 1375.49,-209.372 1365.48,-205.918 1365.51,-212.918"/>
</g>
<!-- Node34 -->
<g id="node34" class="node"><title>Node34</title>
<g id="a_node34"><a xlink:href="../../d7/d92/classview_1_1editor_1_1wizards_1_1_game_element_wizard.html#aebad2ae026f5b6f0eeec41a946ab8d3e" target="_top" xlink:title="view.editor.wizards.Game\lElementWizard.setTextListener">
<polygon fill="white" stroke="black" points="924.5,-0 924.5,-30 1087.5,-30 1087.5,-0 924.5,-0"/>
<text text-anchor="start" x="932.5" y="-18" font-family="Helvetica,sans-Serif" font-size="10.00">view.editor.wizards.Game</text>
<text text-anchor="middle" x="1006" y="-7" font-family="Helvetica,sans-Serif" font-size="10.00">ElementWizard.setTextListener</text>
</a>
</g>
</g>
<!-- Node33&#45;&gt;Node34 -->
<g id="edge34" class="edge"><title>Node33&#45;&gt;Node34</title>
<path fill="none" stroke="midnightblue" d="M834.789,-46.3188C860.131,-41.6559 888.339,-36.4657 914.386,-31.6729"/>
<polygon fill="midnightblue" stroke="midnightblue" points="915.051,-35.1094 924.253,-29.8575 913.785,-28.225 915.051,-35.1094"/>
</g>
<!-- Node35 -->
<g id="node35" class="node"><title>Node35</title>
<g id="a_node35"><a xlink:href="../../d7/d40/classview_1_1editor_1_1wizards_1_1_wizard.html#a66e85758b9fdb366c5d2a931f4cc1598" target="_top" xlink:title="view.editor.wizards.Wizard.is\lNumber">
<polygon fill="white" stroke="black" points="1165.5,-0 1165.5,-30 1314.5,-30 1314.5,-0 1165.5,-0"/>
<text text-anchor="start" x="1173.5" y="-18" font-family="Helvetica,sans-Serif" font-size="10.00">view.editor.wizards.Wizard.is</text>
<text text-anchor="middle" x="1240" y="-7" font-family="Helvetica,sans-Serif" font-size="10.00">Number</text>
</a>
</g>
</g>
<!-- Node34&#45;&gt;Node35 -->
<g id="edge35" class="edge"><title>Node34&#45;&gt;Node35</title>
<path fill="none" stroke="midnightblue" d="M1087.82,-15C1109.6,-15 1133.22,-15 1155.17,-15"/>
<polygon fill="midnightblue" stroke="midnightblue" points="1155.46,-18.5001 1165.46,-15 1155.46,-11.5001 1155.46,-18.5001"/>
</g>
</g>
</svg>
        <g id="navigator" transform="translate(0 0)" fill="#404254">
                <rect fill="#f2f5e9" fill-opacity="0.5" stroke="#606060" stroke-width=".5" x="0" y="0" width="60" height="60"/>
                <use id="zoomplus" xlink:href="#zoomPlus" x="17" y="9" onmousedown="handleZoom(evt,'in')"/>
                <use id="zoomminus" xlink:href="#zoomMin" x="42" y="9" onmousedown="handleZoom(evt,'out')"/>
                <use id="reset" xlink:href="#resetDef" x="30" y="36" onmousedown="handleReset()"/>
                <g id="arrowUp" xlink:href="#dirArrow" transform="translate(30 24)" onmousedown="handlePan(0,-1)">
                  <use xlink:href="#rim" fill="#404040">
                        <set attributeName="fill" to="#808080" begin="arrowUp.mouseover" end="arrowUp.mouseout"/>
                  </use>
                  <path fill="none" stroke="white" stroke-width="1.5" d="M0,-3.0v7 M-2.5,-0.5L0,-3.0L2.5,-0.5"/>
                </g>
                <g id="arrowRight" xlink:href="#dirArrow" transform="rotate(90) translate(36 -43)" onmousedown="handlePan(1,0)">
                  <use xlink:href="#rim" fill="#404040">
                        <set attributeName="fill" to="#808080" begin="arrowRight.mouseover" end="arrowRight.mouseout"/>
                  </use>
                  <path fill="none" stroke="white" stroke-width="1.5" d="M0,-3.0v7 M-2.5,-0.5L0,-3.0L2.5,-0.5"/>
                </g>
                <g id="arrowDown" xlink:href="#dirArrow" transform="rotate(180) translate(-30 -48)" onmousedown="handlePan(0,1)">
                  <use xlink:href="#rim" fill="#404040">
                        <set attributeName="fill" to="#808080" begin="arrowDown.mouseover" end="arrowDown.mouseout"/>
                  </use>
                  <path fill="none" stroke="white" stroke-width="1.5" d="M0,-3.0v7 M-2.5,-0.5L0,-3.0L2.5,-0.5"/>
                </g>
                <g id="arrowLeft" xlink:href="#dirArrow" transform="rotate(270) translate(-36 17)" onmousedown="handlePan(-1,0)">
                  <use xlink:href="#rim" fill="#404040">
                        <set attributeName="fill" to="#808080" begin="arrowLeft.mouseover" end="arrowLeft.mouseout"/>
                  </use>
                  <path fill="none" stroke="white" stroke-width="1.5" d="M0,-3.0v7 M-2.5,-0.5L0,-3.0L2.5,-0.5"/>
                </g>
        </g>
        <svg viewBox="0 0 15 15" width="100%" height="30px" preserveAspectRatio="xMaxYMin meet">
         <g id="arrow_out" transform="scale(0.3 0.3)">
          <a xlink:href="classview_1_1editor_1_1wizards_1_1_game_element_wizard_abe8ad6d8e7a4eec7b8184d12047755be_cgraph_org.svg" target="_base">
           <rect id="button" ry="5" rx="5" y="6" x="6" height="38" width="38"
                fill="#f2f5e9" fill-opacity="0.5" stroke="#606060" stroke-width="1.0"/>
           <path id="arrow"
             d="M 11.500037,31.436501 C 11.940474,20.09759 22.043105,11.32322 32.158766,21.979434 L 37.068811,17.246167 C 37.068811,17.246167 37.088388,32 37.088388,32 L 22.160133,31.978069 C 22.160133,31.978069 26.997745,27.140456 26.997745,27.140456 C 18.528582,18.264221 13.291696,25.230495 11.500037,31.436501 z"
             style="fill:#404040;"/>
          </a>
         </g>
        </svg>
</svg>
