<?xml version="1.0" encoding="UTF-8" standalone="no"?>
<!DOCTYPE svg PUBLIC "-//W3C//DTD SVG 1.1//EN"
 "http://www.w3.org/Graphics/SVG/1.1/DTD/svg11.dtd">
<!-- Generated by graphviz version 2.36.0 (20140111.2315)
 -->
<!-- Title: view.editor.wizards.GameElementWizard.createSliderListeners Pages: 1 -->
<svg width="1216pt" height="158pt"
 viewBox="0.00 0.00 1216.00 158.00" xmlns="http://www.w3.org/2000/svg" xmlns:xlink="http://www.w3.org/1999/xlink">
<g id="graph0" class="graph" transform="scale(1 1) rotate(0) translate(4 154)">
<title>view.editor.wizards.GameElementWizard.createSliderListeners</title>
<polygon fill="white" stroke="none" points="-4,4 -4,-154 1212,-154 1212,4 -4,4"/>
<!-- Node1 -->
<g id="node1" class="node"><title>Node1</title>
<polygon fill="#bfbfbf" stroke="black" points="0,-28 0,-58 192,-58 192,-28 0,-28"/>
<text text-anchor="start" x="8" y="-46" font-family="Helvetica,sans-Serif" font-size="10.00">view.editor.wizards.Game</text>
<text text-anchor="middle" x="96" y="-35" font-family="Helvetica,sans-Serif" font-size="10.00">ElementWizard.createSliderListeners</text>
</g>
<!-- Node2 -->
<g id="node2" class="node"><title>Node2</title>
<g id="a_node2"><a xlink:href="../../d7/d92/classview_1_1editor_1_1wizards_1_1_game_element_wizard.html#a9186bc2aecf42e0dc000cc684d20c685" target="_top" xlink:title="view.editor.wizards.Game\lElementWizard.initializeSliders">
<polygon fill="white" stroke="black" points="228.5,-28 228.5,-58 389.5,-58 389.5,-28 228.5,-28"/>
<text text-anchor="start" x="236.5" y="-46" font-family="Helvetica,sans-Serif" font-size="10.00">view.editor.wizards.Game</text>
<text text-anchor="middle" x="309" y="-35" font-family="Helvetica,sans-Serif" font-size="10.00">ElementWizard.initializeSliders</text>
</a>
</g>
</g>
<!-- Node1&#45;&gt;Node2 -->
<g id="edge1" class="edge"><title>Node1&#45;&gt;Node2</title>
<path fill="none" stroke="midnightblue" d="M202.281,-43C211.047,-43 219.814,-43 228.342,-43"/>
<polygon fill="midnightblue" stroke="midnightblue" points="202.007,-39.5001 192.007,-43 202.007,-46.5001 202.007,-39.5001"/>
</g>
<!-- Node3 -->
<g id="node3" class="node"><title>Node3</title>
<g id="a_node3"><a xlink:href="../../d7/d92/classview_1_1editor_1_1wizards_1_1_game_element_wizard.html#a0d98e58393e2435808900ae3a2643eee" target="_top" xlink:title="view.editor.wizards.Game\lElementWizard.renderImage">
<polygon fill="white" stroke="black" points="426,-28 426,-58 578,-58 578,-28 426,-28"/>
<text text-anchor="start" x="434" y="-46" font-family="Helvetica,sans-Serif" font-size="10.00">view.editor.wizards.Game</text>
<text text-anchor="middle" x="502" y="-35" font-family="Helvetica,sans-Serif" font-size="10.00">ElementWizard.renderImage</text>
</a>
</g>
</g>
<!-- Node2&#45;&gt;Node3 -->
<g id="edge2" class="edge"><title>Node2&#45;&gt;Node3</title>
<path fill="none" stroke="midnightblue" d="M399.787,-43C408.489,-43 417.254,-43 425.793,-43"/>
<polygon fill="midnightblue" stroke="midnightblue" points="399.618,-39.5001 389.618,-43 399.618,-46.5001 399.618,-39.5001"/>
</g>
<!-- Node4 -->
<g id="node4" class="node"><title>Node4</title>
<g id="a_node4"><a xlink:href="../../d7/d92/classview_1_1editor_1_1wizards_1_1_game_element_wizard.html#abe8ad6d8e7a4eec7b8184d12047755be" target="_top" xlink:title="view.editor.wizards.Game\lElementWizard.launchForEdit">
<polygon fill="white" stroke="black" points="614.5,-54 614.5,-84 769.5,-84 769.5,-54 614.5,-54"/>
<text text-anchor="start" x="622.5" y="-72" font-family="Helvetica,sans-Serif" font-size="10.00">view.editor.wizards.Game</text>
<text text-anchor="middle" x="692" y="-61" font-family="Helvetica,sans-Serif" font-size="10.00">ElementWizard.launchForEdit</text>
</a>
</g>
</g>
<!-- Node3&#45;&gt;Node4 -->
<g id="edge3" class="edge"><title>Node3&#45;&gt;Node4</title>
<path fill="none" stroke="midnightblue" d="M588.292,-54.7958C597.019,-56.0026 605.846,-57.2234 614.47,-58.4161"/>
<polygon fill="midnightblue" stroke="midnightblue" points="588.498,-51.291 578.113,-53.388 587.539,-58.225 588.498,-51.291"/>
</g>
<!-- Node8 -->
<g id="node8" class="node"><title>Node8</title>
<g id="a_node8"><a xlink:href="../../d7/d92/classview_1_1editor_1_1wizards_1_1_game_element_wizard.html#a1b56666ff43ed5d0ccbeacf0c7cda38f" target="_top" xlink:title="view.editor.wizards.Game\lElementWizard.loadImage">
<polygon fill="white" stroke="black" points="621.5,-3 621.5,-33 762.5,-33 762.5,-3 621.5,-3"/>
<text text-anchor="start" x="629.5" y="-21" font-family="Helvetica,sans-Serif" font-size="10.00">view.editor.wizards.Game</text>
<text text-anchor="middle" x="692" y="-10" font-family="Helvetica,sans-Serif" font-size="10.00">ElementWizard.loadImage</text>
</a>
</g>
</g>
<!-- Node3&#45;&gt;Node8 -->
<g id="edge8" class="edge"><title>Node3&#45;&gt;Node8</title>
<path fill="none" stroke="midnightblue" d="M588.263,-31.6618C599.386,-30.1827 610.673,-28.6818 621.494,-27.2428"/>
<polygon fill="midnightblue" stroke="midnightblue" points="587.564,-28.2238 578.113,-33.0116 588.487,-35.1627 587.564,-28.2238"/>
</g>
<!-- Node5 -->
<g id="node5" class="node"><title>Node5</title>
<g id="a_node5"><a xlink:href="../../d9/dfb/classview_1_1editor_1_1_element_accordion_controller.html#a8564fdf017fa6f25e3e663cf076e0c04" target="_top" xlink:title="view.editor.ElementAccordion\lController.openSelectableGameElement\lWizard">
<polygon fill="white" stroke="black" points="806.5,-108.5 806.5,-149.5 1015.5,-149.5 1015.5,-108.5 806.5,-108.5"/>
<text text-anchor="start" x="814.5" y="-137.5" font-family="Helvetica,sans-Serif" font-size="10.00">view.editor.ElementAccordion</text>
<text text-anchor="start" x="814.5" y="-126.5" font-family="Helvetica,sans-Serif" font-size="10.00">Controller.openSelectableGameElement</text>
<text text-anchor="middle" x="911" y="-115.5" font-family="Helvetica,sans-Serif" font-size="10.00">Wizard</text>
</a>
</g>
</g>
<!-- Node4&#45;&gt;Node5 -->
<g id="edge4" class="edge"><title>Node4&#45;&gt;Node5</title>
<path fill="none" stroke="midnightblue" d="M757.434,-86.816C782.066,-93.6266 810.348,-101.446 835.817,-108.489"/>
<polygon fill="midnightblue" stroke="midnightblue" points="758.049,-83.3547 747.478,-84.0631 756.184,-90.1016 758.049,-83.3547"/>
</g>
<!-- Node7 -->
<g id="node7" class="node"><title>Node7</title>
<g id="a_node7"><a xlink:href="../../d9/dfb/classview_1_1editor_1_1_element_accordion_controller.html#a71bb33e7588f335fc2ebc1346924ad2d" target="_top" xlink:title="view.editor.ElementAccordion\lController.openDrawableGameElement\lWizard">
<polygon fill="white" stroke="black" points="809.5,-48.5 809.5,-89.5 1012.5,-89.5 1012.5,-48.5 809.5,-48.5"/>
<text text-anchor="start" x="817.5" y="-77.5" font-family="Helvetica,sans-Serif" font-size="10.00">view.editor.ElementAccordion</text>
<text text-anchor="start" x="817.5" y="-66.5" font-family="Helvetica,sans-Serif" font-size="10.00">Controller.openDrawableGameElement</text>
<text text-anchor="middle" x="911" y="-55.5" font-family="Helvetica,sans-Serif" font-size="10.00">Wizard</text>
</a>
</g>
</g>
<!-- Node4&#45;&gt;Node7 -->
<g id="edge6" class="edge"><title>Node4&#45;&gt;Node7</title>
<path fill="none" stroke="midnightblue" d="M779.629,-69C789.442,-69 799.505,-69 809.478,-69"/>
<polygon fill="midnightblue" stroke="midnightblue" points="779.506,-65.5001 769.506,-69 779.506,-72.5001 779.506,-65.5001"/>
</g>
<!-- Node6 -->
<g id="node6" class="node"><title>Node6</title>
<g id="a_node6"><a xlink:href="../../d9/dfb/classview_1_1editor_1_1_element_accordion_controller.html#af80453486ff349552dab988fb64397c0" target="_top" xlink:title="view.editor.ElementAccordion\lController.init">
<polygon fill="white" stroke="black" points="1052,-84 1052,-114 1208,-114 1208,-84 1052,-84"/>
<text text-anchor="start" x="1060" y="-102" font-family="Helvetica,sans-Serif" font-size="10.00">view.editor.ElementAccordion</text>
<text text-anchor="middle" x="1130" y="-91" font-family="Helvetica,sans-Serif" font-size="10.00">Controller.init</text>
</a>
</g>
</g>
<!-- Node5&#45;&gt;Node6 -->
<g id="edge5" class="edge"><title>Node5&#45;&gt;Node6</title>
<path fill="none" stroke="midnightblue" d="M1025.75,-113.274C1034.62,-112.049 1043.43,-110.829 1051.97,-109.649"/>
<polygon fill="midnightblue" stroke="midnightblue" points="1025.16,-109.822 1015.73,-114.659 1026.12,-116.756 1025.16,-109.822"/>
</g>
<!-- Node7&#45;&gt;Node6 -->
<g id="edge7" class="edge"><title>Node7&#45;&gt;Node6</title>
<path fill="none" stroke="midnightblue" d="M1022.47,-84.2726C1032.39,-85.6436 1042.28,-87.0115 1051.82,-88.3306"/>
<polygon fill="midnightblue" stroke="midnightblue" points="1022.94,-80.8048 1012.56,-82.9022 1021.99,-87.7388 1022.94,-80.8048"/>
</g>
<!-- Node9 -->
<g id="node9" class="node"><title>Node9</title>
<g id="a_node9"><a xlink:href="../../d7/d92/classview_1_1editor_1_1wizards_1_1_game_element_wizard.html#a108e1aaa06ef6b80a4a1d33d460cde06" target="_top" xlink:title="view.editor.wizards.Game\lElementWizard.initialize">
<polygon fill="white" stroke="black" points="842.5,-0 842.5,-30 979.5,-30 979.5,-0 842.5,-0"/>
<text text-anchor="start" x="850.5" y="-18" font-family="Helvetica,sans-Serif" font-size="10.00">view.editor.wizards.Game</text>
<text text-anchor="middle" x="911" y="-7" font-family="Helvetica,sans-Serif" font-size="10.00">ElementWizard.initialize</text>
</a>
</g>
</g>
<!-- Node8&#45;&gt;Node9 -->
<g id="edge9" class="edge"><title>Node8&#45;&gt;Node9</title>
<path fill="none" stroke="midnightblue" d="M772.582,-16.8998C795.475,-16.5833 820.22,-16.2412 842.319,-15.9357"/>
<polygon fill="midnightblue" stroke="midnightblue" points="772.506,-13.4004 762.556,-17.0384 772.603,-20.3997 772.506,-13.4004"/>
</g>
</g>
</svg>
