<?xml version="1.0" encoding="UTF-8" standalone="no"?>
<!DOCTYPE svg PUBLIC "-//W3C//DTD SVG 1.1//EN"
 "http://www.w3.org/Graphics/SVG/1.1/DTD/svg11.dtd">
<!-- Generated by graphviz version 2.36.0 (20140111.2315)
 -->
<!-- Title: view.editor.wizards.GameElementWizard.boundsAlreadyExist Pages: 1 -->
<svg width="594pt" height="38pt"
 viewBox="0.00 0.00 594.00 38.00" xmlns="http://www.w3.org/2000/svg" xmlns:xlink="http://www.w3.org/1999/xlink">
<g id="graph0" class="graph" transform="scale(1 1) rotate(0) translate(4 34)">
<title>view.editor.wizards.GameElementWizard.boundsAlreadyExist</title>
<polygon fill="white" stroke="none" points="-4,4 -4,-34 590,-34 590,4 -4,4"/>
<!-- Node1 -->
<g id="node1" class="node"><title>Node1</title>
<polygon fill="#bfbfbf" stroke="black" points="0.5,-0 0.5,-30 185.5,-30 185.5,-0 0.5,-0"/>
<text text-anchor="start" x="8.5" y="-18" font-family="Helvetica,sans-Serif" font-size="10.00">view.editor.wizards.Game</text>
<text text-anchor="middle" x="93" y="-7" font-family="Helvetica,sans-Serif" font-size="10.00">ElementWizard.boundsAlreadyExist</text>
</g>
<!-- Node2 -->
<g id="node2" class="node"><title>Node2</title>
<g id="a_node2"><a xlink:href="../../d7/d92/classview_1_1editor_1_1wizards_1_1_game_element_wizard.html#af1a70ba89d682d331e46be6a564472cd" target="_top" xlink:title="view.editor.wizards.Game\lElementWizard.launchBoundsWizard">
<polygon fill="white" stroke="black" points="222,-0 222,-30 412,-30 412,-0 222,-0"/>
<text text-anchor="start" x="230" y="-18" font-family="Helvetica,sans-Serif" font-size="10.00">view.editor.wizards.Game</text>
<text text-anchor="middle" x="317" y="-7" font-family="Helvetica,sans-Serif" font-size="10.00">ElementWizard.launchBoundsWizard</text>
</a>
</g>
</g>
<!-- Node1&#45;&gt;Node2 -->
<g id="edge1" class="edge"><title>Node1&#45;&gt;Node2</title>
<path fill="none" stroke="midnightblue" d="M195.716,-15C204.393,-15 213.146,-15 221.761,-15"/>
<polygon fill="midnightblue" stroke="midnightblue" points="195.578,-11.5001 185.578,-15 195.578,-18.5001 195.578,-11.5001"/>
</g>
<!-- Node3 -->
<g id="node3" class="node"><title>Node3</title>
<g id="a_node3"><a xlink:href="../../d7/d92/classview_1_1editor_1_1wizards_1_1_game_element_wizard.html#a108e1aaa06ef6b80a4a1d33d460cde06" target="_top" xlink:title="view.editor.wizards.Game\lElementWizard.initialize">
<polygon fill="white" stroke="black" points="448.5,-0 448.5,-30 585.5,-30 585.5,-0 448.5,-0"/>
<text text-anchor="start" x="456.5" y="-18" font-family="Helvetica,sans-Serif" font-size="10.00">view.editor.wizards.Game</text>
<text text-anchor="middle" x="517" y="-7" font-family="Helvetica,sans-Serif" font-size="10.00">ElementWizard.initialize</text>
</a>
</g>
</g>
<!-- Node2&#45;&gt;Node3 -->
<g id="edge2" class="edge"><title>Node2&#45;&gt;Node3</title>
<path fill="none" stroke="midnightblue" d="M422.146,-15C431.062,-15 439.922,-15 448.437,-15"/>
<polygon fill="midnightblue" stroke="midnightblue" points="422.071,-11.5001 412.071,-15 422.071,-18.5001 422.071,-11.5001"/>
</g>
</g>
</svg>
