<?xml version="1.0" encoding="UTF-8" standalone="no"?>
<!DOCTYPE svg PUBLIC "-//W3C//DTD SVG 1.1//EN"
 "http://www.w3.org/Graphics/SVG/1.1/DTD/svg11.dtd">
<!-- Generated by graphviz version 2.36.0 (20140111.2315)
 -->
<!-- Title: engine.UI.RunnerInputManager.primaryDragOccurred Pages: 1 -->
<svg width="548pt" height="185pt"
 viewBox="0.00 0.00 548.00 185.00" xmlns="http://www.w3.org/2000/svg" xmlns:xlink="http://www.w3.org/1999/xlink">
<g id="graph0" class="graph" transform="scale(1 1) rotate(0) translate(4 181)">
<title>engine.UI.RunnerInputManager.primaryDragOccurred</title>
<polygon fill="white" stroke="none" points="-4,4 -4,-181 544,-181 544,4 -4,4"/>
<!-- Node1 -->
<g id="node1" class="node"><title>Node1</title>
<polygon fill="#bfbfbf" stroke="black" points="0.5,-73 0.5,-103 203.5,-103 203.5,-73 0.5,-73"/>
<text text-anchor="start" x="8.5" y="-91" font-family="Helvetica,sans-Serif" font-size="10.00">engine.UI.RunnerInputManager.primary</text>
<text text-anchor="middle" x="102" y="-80" font-family="Helvetica,sans-Serif" font-size="10.00">DragOccurred</text>
</g>
<!-- Node2 -->
<g id="node2" class="node"><title>Node2</title>
<g id="a_node2"><a xlink:href="../../d3/d64/classengine_1_1visuals_1_1_selection_box.html#a7a9d3029e5b7d6729b0fc460a9416725" target="_top" xlink:title="engine.visuals.Selection\lBox.reactToDrag">
<polygon fill="white" stroke="black" points="240.5,-73 240.5,-103 371.5,-103 371.5,-73 240.5,-73"/>
<text text-anchor="start" x="248.5" y="-91" font-family="Helvetica,sans-Serif" font-size="10.00">engine.visuals.Selection</text>
<text text-anchor="middle" x="306" y="-80" font-family="Helvetica,sans-Serif" font-size="10.00">Box.reactToDrag</text>
</a>
</g>
</g>
<!-- Node1&#45;&gt;Node2 -->
<g id="edge1" class="edge"><title>Node1&#45;&gt;Node2</title>
<path fill="none" stroke="midnightblue" d="M203.704,-88C212.654,-88 221.607,-88 230.282,-88"/>
<polygon fill="midnightblue" stroke="midnightblue" points="230.321,-91.5001 240.321,-88 230.321,-84.5001 230.321,-91.5001"/>
</g>
<!-- Node3 -->
<g id="node3" class="node"><title>Node3</title>
<g id="a_node3"><a xlink:href="../../d3/d64/classengine_1_1visuals_1_1_selection_box.html#a62bd7690c9dd37a968a32ead97ef62b1" target="_top" xlink:title="engine.visuals.Selection\lBox.setVisible">
<polygon fill="white" stroke="black" points="408.5,-147 408.5,-177 539.5,-177 539.5,-147 408.5,-147"/>
<text text-anchor="start" x="416.5" y="-165" font-family="Helvetica,sans-Serif" font-size="10.00">engine.visuals.Selection</text>
<text text-anchor="middle" x="474" y="-154" font-family="Helvetica,sans-Serif" font-size="10.00">Box.setVisible</text>
</a>
</g>
</g>
<!-- Node2&#45;&gt;Node3 -->
<g id="edge2" class="edge"><title>Node2&#45;&gt;Node3</title>
<path fill="none" stroke="midnightblue" d="M336.305,-103.03C356.303,-113.085 383.506,-126.371 408,-137 412.731,-139.053 417.69,-141.116 422.67,-143.129"/>
<polygon fill="midnightblue" stroke="midnightblue" points="421.632,-146.482 432.218,-146.921 424.216,-139.977 421.632,-146.482"/>
</g>
<!-- Node4 -->
<g id="node4" class="node"><title>Node4</title>
<g id="a_node4"><a xlink:href="../../d3/d64/classengine_1_1visuals_1_1_selection_box.html#aaaf3fb5d2042e3e2209cc79a2a37d27a" target="_top" xlink:title="engine.visuals.Selection\lBox.setSize">
<polygon fill="white" stroke="black" points="408.5,-98 408.5,-128 539.5,-128 539.5,-98 408.5,-98"/>
<text text-anchor="start" x="416.5" y="-116" font-family="Helvetica,sans-Serif" font-size="10.00">engine.visuals.Selection</text>
<text text-anchor="middle" x="474" y="-105" font-family="Helvetica,sans-Serif" font-size="10.00">Box.setSize</text>
</a>
</g>
</g>
<!-- Node2&#45;&gt;Node4 -->
<g id="edge3" class="edge"><title>Node2&#45;&gt;Node4</title>
<path fill="none" stroke="midnightblue" d="M371.655,-97.7372C380.386,-99.0521 389.402,-100.41 398.29,-101.748"/>
<polygon fill="midnightblue" stroke="midnightblue" points="397.838,-105.22 408.248,-103.248 398.881,-98.2979 397.838,-105.22"/>
</g>
<!-- Node5 -->
<g id="node5" class="node"><title>Node5</title>
<g id="a_node5"><a xlink:href="../../d3/d64/classengine_1_1visuals_1_1_selection_box.html#ac411e7ea55e3f6aa8380a2562e1fac61" target="_top" xlink:title="engine.visuals.Selection\lBox.setX">
<polygon fill="white" stroke="black" points="408.5,-49 408.5,-79 539.5,-79 539.5,-49 408.5,-49"/>
<text text-anchor="start" x="416.5" y="-67" font-family="Helvetica,sans-Serif" font-size="10.00">engine.visuals.Selection</text>
<text text-anchor="middle" x="474" y="-56" font-family="Helvetica,sans-Serif" font-size="10.00">Box.setX</text>
</a>
</g>
</g>
<!-- Node2&#45;&gt;Node5 -->
<g id="edge4" class="edge"><title>Node2&#45;&gt;Node5</title>
<path fill="none" stroke="midnightblue" d="M371.655,-78.6523C380.386,-77.39 389.402,-76.0865 398.29,-74.8015"/>
<polygon fill="midnightblue" stroke="midnightblue" points="398.852,-78.2567 408.248,-73.3617 397.85,-71.3287 398.852,-78.2567"/>
</g>
<!-- Node6 -->
<g id="node6" class="node"><title>Node6</title>
<g id="a_node6"><a xlink:href="../../d3/d64/classengine_1_1visuals_1_1_selection_box.html#a348f690ae5541a613fea75b81c405a61" target="_top" xlink:title="engine.visuals.Selection\lBox.setY">
<polygon fill="white" stroke="black" points="408.5,-0 408.5,-30 539.5,-30 539.5,-0 408.5,-0"/>
<text text-anchor="start" x="416.5" y="-18" font-family="Helvetica,sans-Serif" font-size="10.00">engine.visuals.Selection</text>
<text text-anchor="middle" x="474" y="-7" font-family="Helvetica,sans-Serif" font-size="10.00">Box.setY</text>
</a>
</g>
</g>
<!-- Node2&#45;&gt;Node6 -->
<g id="edge5" class="edge"><title>Node2&#45;&gt;Node6</title>
<path fill="none" stroke="midnightblue" d="M337.22,-72.8947C357.145,-63.1199 383.915,-50.3368 408,-40 412.739,-37.9659 417.704,-35.9156 422.687,-33.9109"/>
<polygon fill="midnightblue" stroke="midnightblue" points="424.23,-37.0645 432.239,-30.1284 421.653,-30.5562 424.23,-37.0645"/>
</g>
</g>
</svg>
