<?xml version="1.0" encoding="UTF-8" standalone="no"?>
<!DOCTYPE svg PUBLIC "-//W3C//DTD SVG 1.1//EN"
 "http://www.w3.org/Graphics/SVG/1.1/DTD/svg11.dtd">
<!-- Generated by graphviz version 2.36.0 (20140111.2315)
 -->
<!-- Title: engine.UI.RunnerInputManager.keyPressed Pages: 1 -->
<svg width="856pt" height="136pt"
 viewBox="0.00 0.00 856.00 136.00" xmlns="http://www.w3.org/2000/svg" xmlns:xlink="http://www.w3.org/1999/xlink">
<g id="graph0" class="graph" transform="scale(1 1) rotate(0) translate(4 132)">
<title>engine.UI.RunnerInputManager.keyPressed</title>
<polygon fill="white" stroke="none" points="-4,4 -4,-132 852,-132 852,4 -4,4"/>
<!-- Node1 -->
<g id="node1" class="node"><title>Node1</title>
<polygon fill="#bfbfbf" stroke="black" points="0,-24 0,-54 182,-54 182,-24 0,-24"/>
<text text-anchor="start" x="8" y="-42" font-family="Helvetica,sans-Serif" font-size="10.00">engine.UI.RunnerInputManager.key</text>
<text text-anchor="middle" x="91" y="-31" font-family="Helvetica,sans-Serif" font-size="10.00">Pressed</text>
</g>
<!-- Node2 -->
<g id="node2" class="node"><title>Node2</title>
<g id="a_node2"><a xlink:href="../../dd/dd8/classengine_1_1state_managing_1_1_game_element_manager.html#a04ca8235fa56ebe7fcf7f4e6e28e7867" target="_top" xlink:title="engine.stateManaging.Game\lElementManager.notifyButtonClicked">
<polygon fill="white" stroke="black" points="218.5,-49 218.5,-79 411.5,-79 411.5,-49 218.5,-49"/>
<text text-anchor="start" x="226.5" y="-67" font-family="Helvetica,sans-Serif" font-size="10.00">engine.stateManaging.Game</text>
<text text-anchor="middle" x="315" y="-56" font-family="Helvetica,sans-Serif" font-size="10.00">ElementManager.notifyButtonClicked</text>
</a>
</g>
</g>
<!-- Node1&#45;&gt;Node2 -->
<g id="edge1" class="edge"><title>Node1&#45;&gt;Node2</title>
<path fill="none" stroke="midnightblue" d="M182.296,-49.1685C190.838,-50.1304 199.549,-51.1114 208.218,-52.0876"/>
<polygon fill="midnightblue" stroke="midnightblue" points="208.033,-55.5888 218.362,-53.23 208.817,-48.6328 208.033,-55.5888"/>
</g>
<!-- Node7 -->
<g id="node7" class="node"><title>Node7</title>
<g id="a_node7"><a xlink:href="../../d2/d87/classengine_1_1state_managing_1_1_game_loop.html#a48192ad9bd67f424afe5f2c948c73861" target="_top" xlink:title="engine.stateManaging.Game\lLoop.pause">
<polygon fill="white" stroke="black" points="237.5,-0 237.5,-30 392.5,-30 392.5,-0 237.5,-0"/>
<text text-anchor="start" x="245.5" y="-18" font-family="Helvetica,sans-Serif" font-size="10.00">engine.stateManaging.Game</text>
<text text-anchor="middle" x="315" y="-7" font-family="Helvetica,sans-Serif" font-size="10.00">Loop.pause</text>
</a>
</g>
</g>
<!-- Node1&#45;&gt;Node7 -->
<g id="edge6" class="edge"><title>Node1&#45;&gt;Node7</title>
<path fill="none" stroke="midnightblue" d="M182.296,-29.2383C197.121,-27.6355 212.457,-25.9776 227.195,-24.3843"/>
<polygon fill="midnightblue" stroke="midnightblue" points="227.723,-27.8477 237.289,-23.293 226.971,-20.8882 227.723,-27.8477"/>
</g>
<!-- Node3 -->
<g id="node3" class="node"><title>Node3</title>
<g id="a_node3"><a xlink:href="../../dd/dd8/classengine_1_1state_managing_1_1_game_element_manager.html#ade9eef1c34b814ef2308ff85d33e8895" target="_top" xlink:title="engine.stateManaging.Game\lElementManager.filterSelectedUnits">
<polygon fill="white" stroke="black" points="455,-98 455,-128 643,-128 643,-98 455,-98"/>
<text text-anchor="start" x="463" y="-116" font-family="Helvetica,sans-Serif" font-size="10.00">engine.stateManaging.Game</text>
<text text-anchor="middle" x="549" y="-105" font-family="Helvetica,sans-Serif" font-size="10.00">ElementManager.filterSelectedUnits</text>
</a>
</g>
</g>
<!-- Node2&#45;&gt;Node3 -->
<g id="edge2" class="edge"><title>Node2&#45;&gt;Node3</title>
<path fill="none" stroke="midnightblue" d="M387.184,-79.0346C412.46,-84.373 441.09,-90.4198 467.115,-95.9166"/>
<polygon fill="midnightblue" stroke="midnightblue" points="466.443,-99.3517 476.95,-97.9938 467.889,-92.5028 466.443,-99.3517"/>
</g>
<!-- Node4 -->
<g id="node4" class="node"><title>Node4</title>
<g id="a_node4"><a xlink:href="../../dd/dd8/classengine_1_1state_managing_1_1_game_element_manager.html#a2431d89fa3d884ecd98b31badcea4ea8" target="_top" xlink:title="engine.stateManaging.Game\lElementManager.filterTeamIDElements">
<polygon fill="white" stroke="black" points="448,-49 448,-79 650,-79 650,-49 448,-49"/>
<text text-anchor="start" x="456" y="-67" font-family="Helvetica,sans-Serif" font-size="10.00">engine.stateManaging.Game</text>
<text text-anchor="middle" x="549" y="-56" font-family="Helvetica,sans-Serif" font-size="10.00">ElementManager.filterTeamIDElements</text>
</a>
</g>
</g>
<!-- Node2&#45;&gt;Node4 -->
<g id="edge3" class="edge"><title>Node2&#45;&gt;Node4</title>
<path fill="none" stroke="midnightblue" d="M411.703,-64C420.225,-64 428.899,-64 437.532,-64"/>
<polygon fill="midnightblue" stroke="midnightblue" points="437.636,-67.5001 447.636,-64 437.635,-60.5001 437.636,-67.5001"/>
</g>
<!-- Node6 -->
<g id="node6" class="node"><title>Node6</title>
<g id="a_node6"><a xlink:href="../../db/d6f/classengine_1_1game_representation_1_1rendered_representation_1_1_level.html#a08df8c7314ec79159bd08080849dd2f7" target="_top" xlink:title="engine.gameRepresentation.rendered\lRepresentation.Level.getUnits">
<polygon fill="white" stroke="black" points="450,-0 450,-30 648,-30 648,-0 450,-0"/>
<text text-anchor="start" x="458" y="-18" font-family="Helvetica,sans-Serif" font-size="10.00">engine.gameRepresentation.rendered</text>
<text text-anchor="middle" x="549" y="-7" font-family="Helvetica,sans-Serif" font-size="10.00">Representation.Level.getUnits</text>
</a>
</g>
</g>
<!-- Node2&#45;&gt;Node6 -->
<g id="edge5" class="edge"><title>Node2&#45;&gt;Node6</title>
<path fill="none" stroke="midnightblue" d="M387.184,-48.9654C412.46,-43.627 441.09,-37.5802 467.115,-32.0834"/>
<polygon fill="midnightblue" stroke="midnightblue" points="467.889,-35.4972 476.95,-30.0062 466.443,-28.6483 467.889,-35.4972"/>
</g>
<!-- Node5 -->
<g id="node5" class="node"><title>Node5</title>
<g id="a_node5"><a xlink:href="../../d5/d29/classengine_1_1users_1_1_participant.html#abda8825e8c4e6b4b4340e23b65f0b685" target="_top" xlink:title="engine.users.Participant.check\lSameTeam">
<polygon fill="white" stroke="black" points="686,-49 686,-79 848,-79 848,-49 686,-49"/>
<text text-anchor="start" x="694" y="-67" font-family="Helvetica,sans-Serif" font-size="10.00">engine.users.Participant.check</text>
<text text-anchor="middle" x="767" y="-56" font-family="Helvetica,sans-Serif" font-size="10.00">SameTeam</text>
</a>
</g>
</g>
<!-- Node4&#45;&gt;Node5 -->
<g id="edge4" class="edge"><title>Node4&#45;&gt;Node5</title>
<path fill="none" stroke="midnightblue" d="M650.096,-64C658.648,-64 667.266,-64 675.734,-64"/>
<polygon fill="midnightblue" stroke="midnightblue" points="675.975,-67.5001 685.975,-64 675.975,-60.5001 675.975,-67.5001"/>
</g>
</g>
</svg>
