<?xml version="1.0" encoding="UTF-8" standalone="no"?>
<!DOCTYPE svg PUBLIC "-//W3C//DTD SVG 1.1//EN"
 "http://www.w3.org/Graphics/SVG/1.1/DTD/svg11.dtd">
<!-- Generated by graphviz version 2.36.0 (20140111.2315)
 -->
<!-- Title: engine.UI.RunnerInputManager.keyPressed Pages: 1 -->
<!--zoomable 136 -->
<svg id="main" version="1.1" xmlns="http://www.w3.org/2000/svg" xmlns:xlink="http://www.w3.org/1999/xlink" xml:space="preserve" onload="init(evt)">
<style type="text/css"><![CDATA[
.edge:hover path { stroke: red; }
.edge:hover polygon { stroke: red; fill: red; }
]]></style>
<script type="text/javascript"><![CDATA[
var edges = document.getElementsByTagName('g');
if (edges && edges.length) {
  for (var i=0;i<edges.length;i++) {
    if (edges[i].id.substr(0,4)=='edge') {
      edges[i].setAttribute('class','edge');
    }
  }
}
]]></script>
        <defs>
                <circle id="rim" cx="0" cy="0" r="7"/>
                <circle id="rim2" cx="0" cy="0" r="3.5"/>
                <g id="zoomPlus">
                        <use xlink:href="#rim" fill="#404040">
                                <set attributeName="fill" to="#808080" begin="zoomplus.mouseover" end="zoomplus.mouseout"/>
                        </use>
                        <path d="M-4,0h8M0,-4v8" fill="none" stroke="white" stroke-width="1.5" pointer-events="none"/>
                </g>
                <g id="zoomMin">
                        <use xlink:href="#rim" fill="#404040">
                                <set attributeName="fill" to="#808080" begin="zoomminus.mouseover" end="zoomminus.mouseout"/>
                        </use>
                        <path d="M-4,0h8" fill="none" stroke="white" stroke-width="1.5" pointer-events="none"/>
                </g>
                <g id="dirArrow">
                        <path fill="none" stroke="white" stroke-width="1.5" d="M0,-3.0v7 M-2.5,-0.5L0,-3.0L2.5,-0.5"/>
                </g>
               <g id="resetDef">
                       <use xlink:href="#rim2" fill="#404040">
                               <set attributeName="fill" to="#808080" begin="reset.mouseover" end="reset.mouseout"/>
                       </use>
               </g>
        </defs>

<script type="text/javascript">
var viewWidth = 856;
var viewHeight = 136;
var sectionId = 'dynsection-3';
</script>
<script xlink:href="../../svgpan.js"/>
<svg id="graph" class="graph">
<g id="viewport">
<title>engine.UI.RunnerInputManager.keyPressed</title>
<polygon fill="white" stroke="none" points="-4,4 -4,-132 852,-132 852,4 -4,4"/>
<!-- Node1 -->
<g id="node1" class="node"><title>Node1</title>
<polygon fill="#bfbfbf" stroke="black" points="0,-24 0,-54 182,-54 182,-24 0,-24"/>
<text text-anchor="start" x="8" y="-42" font-family="Helvetica,sans-Serif" font-size="10.00">engine.UI.RunnerInputManager.key</text>
<text text-anchor="middle" x="91" y="-31" font-family="Helvetica,sans-Serif" font-size="10.00">Pressed</text>
</g>
<!-- Node2 -->
<g id="node2" class="node"><title>Node2</title>
<g id="a_node2"><a xlink:href="../../dd/dd8/classengine_1_1state_managing_1_1_game_element_manager.html#a04ca8235fa56ebe7fcf7f4e6e28e7867" target="_top" xlink:title="engine.stateManaging.Game\lElementManager.notifyButtonClicked">
<polygon fill="white" stroke="black" points="218.5,-49 218.5,-79 411.5,-79 411.5,-49 218.5,-49"/>
<text text-anchor="start" x="226.5" y="-67" font-family="Helvetica,sans-Serif" font-size="10.00">engine.stateManaging.Game</text>
<text text-anchor="middle" x="315" y="-56" font-family="Helvetica,sans-Serif" font-size="10.00">ElementManager.notifyButtonClicked</text>
</a>
</g>
</g>
<!-- Node1&#45;&gt;Node2 -->
<g id="edge1" class="edge"><title>Node1&#45;&gt;Node2</title>
<path fill="none" stroke="midnightblue" d="M182.296,-49.1685C190.838,-50.1304 199.549,-51.1114 208.218,-52.0876"/>
<polygon fill="midnightblue" stroke="midnightblue" points="208.033,-55.5888 218.362,-53.23 208.817,-48.6328 208.033,-55.5888"/>
</g>
<!-- Node7 -->
<g id="node7" class="node"><title>Node7</title>
<g id="a_node7"><a xlink:href="../../d2/d87/classengine_1_1state_managing_1_1_game_loop.html#a48192ad9bd67f424afe5f2c948c73861" target="_top" xlink:title="engine.stateManaging.Game\lLoop.pause">
<polygon fill="white" stroke="black" points="237.5,-0 237.5,-30 392.5,-30 392.5,-0 237.5,-0"/>
<text text-anchor="start" x="245.5" y="-18" font-family="Helvetica,sans-Serif" font-size="10.00">engine.stateManaging.Game</text>
<text text-anchor="middle" x="315" y="-7" font-family="Helvetica,sans-Serif" font-size="10.00">Loop.pause</text>
</a>
</g>
</g>
<!-- Node1&#45;&gt;Node7 -->
<g id="edge6" class="edge"><title>Node1&#45;&gt;Node7</title>
<path fill="none" stroke="midnightblue" d="M182.296,-29.2383C197.121,-27.6355 212.457,-25.9776 227.195,-24.3843"/>
<polygon fill="midnightblue" stroke="midnightblue" points="227.723,-27.8477 237.289,-23.293 226.971,-20.8882 227.723,-27.8477"/>
</g>
<!-- Node3 -->
<g id="node3" class="node"><title>Node3</title>
<g id="a_node3"><a xlink:href="../../dd/dd8/classengine_1_1state_managing_1_1_game_element_manager.html#ade9eef1c34b814ef2308ff85d33e8895" target="_top" xlink:title="engine.stateManaging.Game\lElementManager.filterSelectedUnits">
<polygon fill="white" stroke="black" points="455,-98 455,-128 643,-128 643,-98 455,-98"/>
<text text-anchor="start" x="463" y="-116" font-family="Helvetica,sans-Serif" font-size="10.00">engine.stateManaging.Game</text>
<text text-anchor="middle" x="549" y="-105" font-family="Helvetica,sans-Serif" font-size="10.00">ElementManager.filterSelectedUnits</text>
</a>
</g>
</g>
<!-- Node2&#45;&gt;Node3 -->
<g id="edge2" class="edge"><title>Node2&#45;&gt;Node3</title>
<path fill="none" stroke="midnightblue" d="M387.184,-79.0346C412.46,-84.373 441.09,-90.4198 467.115,-95.9166"/>
<polygon fill="midnightblue" stroke="midnightblue" points="466.443,-99.3517 476.95,-97.9938 467.889,-92.5028 466.443,-99.3517"/>
</g>
<!-- Node4 -->
<g id="node4" class="node"><title>Node4</title>
<g id="a_node4"><a xlink:href="../../dd/dd8/classengine_1_1state_managing_1_1_game_element_manager.html#a2431d89fa3d884ecd98b31badcea4ea8" target="_top" xlink:title="engine.stateManaging.Game\lElementManager.filterTeamIDElements">
<polygon fill="white" stroke="black" points="448,-49 448,-79 650,-79 650,-49 448,-49"/>
<text text-anchor="start" x="456" y="-67" font-family="Helvetica,sans-Serif" font-size="10.00">engine.stateManaging.Game</text>
<text text-anchor="middle" x="549" y="-56" font-family="Helvetica,sans-Serif" font-size="10.00">ElementManager.filterTeamIDElements</text>
</a>
</g>
</g>
<!-- Node2&#45;&gt;Node4 -->
<g id="edge3" class="edge"><title>Node2&#45;&gt;Node4</title>
<path fill="none" stroke="midnightblue" d="M411.703,-64C420.225,-64 428.899,-64 437.532,-64"/>
<polygon fill="midnightblue" stroke="midnightblue" points="437.636,-67.5001 447.636,-64 437.635,-60.5001 437.636,-67.5001"/>
</g>
<!-- Node6 -->
<g id="node6" class="node"><title>Node6</title>
<g id="a_node6"><a xlink:href="../../db/d6f/classengine_1_1game_representation_1_1rendered_representation_1_1_level.html#a08df8c7314ec79159bd08080849dd2f7" target="_top" xlink:title="engine.gameRepresentation.rendered\lRepresentation.Level.getUnits">
<polygon fill="white" stroke="black" points="450,-0 450,-30 648,-30 648,-0 450,-0"/>
<text text-anchor="start" x="458" y="-18" font-family="Helvetica,sans-Serif" font-size="10.00">engine.gameRepresentation.rendered</text>
<text text-anchor="middle" x="549" y="-7" font-family="Helvetica,sans-Serif" font-size="10.00">Representation.Level.getUnits</text>
</a>
</g>
</g>
<!-- Node2&#45;&gt;Node6 -->
<g id="edge5" class="edge"><title>Node2&#45;&gt;Node6</title>
<path fill="none" stroke="midnightblue" d="M387.184,-48.9654C412.46,-43.627 441.09,-37.5802 467.115,-32.0834"/>
<polygon fill="midnightblue" stroke="midnightblue" points="467.889,-35.4972 476.95,-30.0062 466.443,-28.6483 467.889,-35.4972"/>
</g>
<!-- Node5 -->
<g id="node5" class="node"><title>Node5</title>
<g id="a_node5"><a xlink:href="../../d5/d29/classengine_1_1users_1_1_participant.html#abda8825e8c4e6b4b4340e23b65f0b685" target="_top" xlink:title="engine.users.Participant.check\lSameTeam">
<polygon fill="white" stroke="black" points="686,-49 686,-79 848,-79 848,-49 686,-49"/>
<text text-anchor="start" x="694" y="-67" font-family="Helvetica,sans-Serif" font-size="10.00">engine.users.Participant.check</text>
<text text-anchor="middle" x="767" y="-56" font-family="Helvetica,sans-Serif" font-size="10.00">SameTeam</text>
</a>
</g>
</g>
<!-- Node4&#45;&gt;Node5 -->
<g id="edge4" class="edge"><title>Node4&#45;&gt;Node5</title>
<path fill="none" stroke="midnightblue" d="M650.096,-64C658.648,-64 667.266,-64 675.734,-64"/>
<polygon fill="midnightblue" stroke="midnightblue" points="675.975,-67.5001 685.975,-64 675.975,-60.5001 675.975,-67.5001"/>
</g>
</g>
</svg>
        <g id="navigator" transform="translate(0 0)" fill="#404254">
                <rect fill="#f2f5e9" fill-opacity="0.5" stroke="#606060" stroke-width=".5" x="0" y="0" width="60" height="60"/>
                <use id="zoomplus" xlink:href="#zoomPlus" x="17" y="9" onmousedown="handleZoom(evt,'in')"/>
                <use id="zoomminus" xlink:href="#zoomMin" x="42" y="9" onmousedown="handleZoom(evt,'out')"/>
                <use id="reset" xlink:href="#resetDef" x="30" y="36" onmousedown="handleReset()"/>
                <g id="arrowUp" xlink:href="#dirArrow" transform="translate(30 24)" onmousedown="handlePan(0,-1)">
                  <use xlink:href="#rim" fill="#404040">
                        <set attributeName="fill" to="#808080" begin="arrowUp.mouseover" end="arrowUp.mouseout"/>
                  </use>
                  <path fill="none" stroke="white" stroke-width="1.5" d="M0,-3.0v7 M-2.5,-0.5L0,-3.0L2.5,-0.5"/>
                </g>
                <g id="arrowRight" xlink:href="#dirArrow" transform="rotate(90) translate(36 -43)" onmousedown="handlePan(1,0)">
                  <use xlink:href="#rim" fill="#404040">
                        <set attributeName="fill" to="#808080" begin="arrowRight.mouseover" end="arrowRight.mouseout"/>
                  </use>
                  <path fill="none" stroke="white" stroke-width="1.5" d="M0,-3.0v7 M-2.5,-0.5L0,-3.0L2.5,-0.5"/>
                </g>
                <g id="arrowDown" xlink:href="#dirArrow" transform="rotate(180) translate(-30 -48)" onmousedown="handlePan(0,1)">
                  <use xlink:href="#rim" fill="#404040">
                        <set attributeName="fill" to="#808080" begin="arrowDown.mouseover" end="arrowDown.mouseout"/>
                  </use>
                  <path fill="none" stroke="white" stroke-width="1.5" d="M0,-3.0v7 M-2.5,-0.5L0,-3.0L2.5,-0.5"/>
                </g>
                <g id="arrowLeft" xlink:href="#dirArrow" transform="rotate(270) translate(-36 17)" onmousedown="handlePan(-1,0)">
                  <use xlink:href="#rim" fill="#404040">
                        <set attributeName="fill" to="#808080" begin="arrowLeft.mouseover" end="arrowLeft.mouseout"/>
                  </use>
                  <path fill="none" stroke="white" stroke-width="1.5" d="M0,-3.0v7 M-2.5,-0.5L0,-3.0L2.5,-0.5"/>
                </g>
        </g>
        <svg viewBox="0 0 15 15" width="100%" height="30px" preserveAspectRatio="xMaxYMin meet">
         <g id="arrow_out" transform="scale(0.3 0.3)">
          <a xlink:href="classengine_1_1_u_i_1_1_runner_input_manager_aed338dcfef23593dc29149fe5fb7bce9_cgraph_org.svg" target="_base">
           <rect id="button" ry="5" rx="5" y="6" x="6" height="38" width="38"
                fill="#f2f5e9" fill-opacity="0.5" stroke="#606060" stroke-width="1.0"/>
           <path id="arrow"
             d="M 11.500037,31.436501 C 11.940474,20.09759 22.043105,11.32322 32.158766,21.979434 L 37.068811,17.246167 C 37.068811,17.246167 37.088388,32 37.088388,32 L 22.160133,31.978069 C 22.160133,31.978069 26.997745,27.140456 26.997745,27.140456 C 18.528582,18.264221 13.291696,25.230495 11.500037,31.436501 z"
             style="fill:#404040;"/>
          </a>
         </g>
        </svg>
</svg>
