<?xml version="1.0" encoding="UTF-8" standalone="no"?>
<!DOCTYPE svg PUBLIC "-//W3C//DTD SVG 1.1//EN"
 "http://www.w3.org/Graphics/SVG/1.1/DTD/svg11.dtd">
<!-- Generated by graphviz version 2.36.0 (20140111.2315)
 -->
<!-- Title: engine.gameRepresentation.evaluatables.evaluators.HeadingUpdate.evaluate Pages: 1 -->
<svg width="1218pt" height="246pt"
 viewBox="0.00 0.00 1218.00 246.00" xmlns="http://www.w3.org/2000/svg" xmlns:xlink="http://www.w3.org/1999/xlink">
<g id="graph0" class="graph" transform="scale(1 1) rotate(0) translate(4 242)">
<title>engine.gameRepresentation.evaluatables.evaluators.HeadingUpdate.evaluate</title>
<polygon fill="white" stroke="none" points="-4,4 -4,-242 1214,-242 1214,4 -4,4"/>
<!-- Node1 -->
<g id="node1" class="node"><title>Node1</title>
<polygon fill="#bfbfbf" stroke="black" points="0,-109 0,-139 272,-139 272,-109 0,-109"/>
<text text-anchor="start" x="8" y="-127" font-family="Helvetica,sans-Serif" font-size="10.00">engine.gameRepresentation.evaluatables.evaluators.</text>
<text text-anchor="middle" x="136" y="-116" font-family="Helvetica,sans-Serif" font-size="10.00">HeadingUpdate.evaluate</text>
</g>
<!-- Node2 -->
<g id="node2" class="node"><title>Node2</title>
<g id="a_node2"><a xlink:href="../../d8/d2f/classengine_1_1game_representation_1_1rendered_representation_1_1_drawable_game_element.html#ada9b587e44ad6056ad0641c486a52d56" target="_top" xlink:title="engine.gameRepresentation.rendered\lRepresentation.DrawableGameElement.get\lNextWaypoint">
<polygon fill="white" stroke="black" points="310,-196.5 310,-237.5 534,-237.5 534,-196.5 310,-196.5"/>
<text text-anchor="start" x="318" y="-225.5" font-family="Helvetica,sans-Serif" font-size="10.00">engine.gameRepresentation.rendered</text>
<text text-anchor="start" x="318" y="-214.5" font-family="Helvetica,sans-Serif" font-size="10.00">Representation.DrawableGameElement.get</text>
<text text-anchor="middle" x="422" y="-203.5" font-family="Helvetica,sans-Serif" font-size="10.00">NextWaypoint</text>
</a>
</g>
</g>
<!-- Node1&#45;&gt;Node2 -->
<g id="edge1" class="edge"><title>Node1&#45;&gt;Node2</title>
<path fill="none" stroke="midnightblue" d="M180.47,-139.101C214.968,-150.998 264.464,-167.877 308,-182 319.638,-185.775 331.979,-189.689 344.065,-193.472"/>
<polygon fill="midnightblue" stroke="midnightblue" points="343.097,-196.836 353.686,-196.473 345.181,-190.154 343.097,-196.836"/>
</g>
<!-- Node3 -->
<g id="node3" class="node"><title>Node3</title>
<g id="a_node3"><a xlink:href="../../d4/de2/classengine_1_1game_representation_1_1rendered_representation_1_1_game_element.html#a0e5df2ee82fed90f049282832babf477" target="_top" xlink:title="engine.gameRepresentation.rendered\lRepresentation.GameElement.getNumerical\lAttribute">
<polygon fill="white" stroke="black" points="572,-171.5 572,-212.5 800,-212.5 800,-171.5 572,-171.5"/>
<text text-anchor="start" x="580" y="-200.5" font-family="Helvetica,sans-Serif" font-size="10.00">engine.gameRepresentation.rendered</text>
<text text-anchor="start" x="580" y="-189.5" font-family="Helvetica,sans-Serif" font-size="10.00">Representation.GameElement.getNumerical</text>
<text text-anchor="middle" x="686" y="-178.5" font-family="Helvetica,sans-Serif" font-size="10.00">Attribute</text>
</a>
</g>
</g>
<!-- Node1&#45;&gt;Node3 -->
<g id="edge5" class="edge"><title>Node1&#45;&gt;Node3</title>
<path fill="none" stroke="midnightblue" d="M241.396,-139.045C263.381,-142.104 286.443,-145.23 308,-148 392.582,-158.87 487.991,-169.994 561.665,-178.338"/>
<polygon fill="midnightblue" stroke="midnightblue" points="561.583,-181.851 571.913,-179.496 562.37,-174.895 561.583,-181.851"/>
</g>
<!-- Node6 -->
<g id="node6" class="node"><title>Node6</title>
<g id="a_node6"><a xlink:href="../../d1/d19/classengine_1_1computers_1_1pathing_computers_1_1_location.html#a6b17f88aada14c904238ef52e51cf5e9" target="_top" xlink:title="engine.computers.pathing\lComputers.Location.getX">
<polygon fill="white" stroke="black" points="350.5,-109 350.5,-139 493.5,-139 493.5,-109 350.5,-109"/>
<text text-anchor="start" x="358.5" y="-127" font-family="Helvetica,sans-Serif" font-size="10.00">engine.computers.pathing</text>
<text text-anchor="middle" x="422" y="-116" font-family="Helvetica,sans-Serif" font-size="10.00">Computers.Location.getX</text>
</a>
</g>
</g>
<!-- Node1&#45;&gt;Node6 -->
<g id="edge6" class="edge"><title>Node1&#45;&gt;Node6</title>
<path fill="none" stroke="midnightblue" d="M272.346,-124C295.55,-124 318.992,-124 340.186,-124"/>
<polygon fill="midnightblue" stroke="midnightblue" points="340.399,-127.5 350.399,-124 340.399,-120.5 340.399,-127.5"/>
</g>
<!-- Node7 -->
<g id="node7" class="node"><title>Node7</title>
<g id="a_node7"><a xlink:href="../../d1/d19/classengine_1_1computers_1_1pathing_computers_1_1_location.html#ac4dc59386dde16b5784bfdaa27dbcbf4" target="_top" xlink:title="engine.computers.pathing\lComputers.Location.getY">
<polygon fill="white" stroke="black" points="350.5,-60 350.5,-90 493.5,-90 493.5,-60 350.5,-60"/>
<text text-anchor="start" x="358.5" y="-78" font-family="Helvetica,sans-Serif" font-size="10.00">engine.computers.pathing</text>
<text text-anchor="middle" x="422" y="-67" font-family="Helvetica,sans-Serif" font-size="10.00">Computers.Location.getY</text>
</a>
</g>
</g>
<!-- Node1&#45;&gt;Node7 -->
<g id="edge7" class="edge"><title>Node1&#45;&gt;Node7</title>
<path fill="none" stroke="midnightblue" d="M224.139,-108.965C261.101,-102.588 303.924,-95.1998 340.171,-88.9458"/>
<polygon fill="midnightblue" stroke="midnightblue" points="340.951,-92.3631 350.21,-87.2137 339.761,-85.465 340.951,-92.3631"/>
</g>
<!-- Node8 -->
<g id="node8" class="node"><title>Node8</title>
<g id="a_node8"><a xlink:href="../../d4/de2/classengine_1_1game_representation_1_1rendered_representation_1_1_game_element.html#a5a426090456bba2adf4993b5b3fb0ffd" target="_top" xlink:title="engine.gameRepresentation.rendered\lRepresentation.GameElement.setNumerical\lAttribute">
<polygon fill="white" stroke="black" points="308.5,-0.5 308.5,-41.5 535.5,-41.5 535.5,-0.5 308.5,-0.5"/>
<text text-anchor="start" x="316.5" y="-29.5" font-family="Helvetica,sans-Serif" font-size="10.00">engine.gameRepresentation.rendered</text>
<text text-anchor="start" x="316.5" y="-18.5" font-family="Helvetica,sans-Serif" font-size="10.00">Representation.GameElement.setNumerical</text>
<text text-anchor="middle" x="422" y="-7.5" font-family="Helvetica,sans-Serif" font-size="10.00">Attribute</text>
</a>
</g>
</g>
<!-- Node1&#45;&gt;Node8 -->
<g id="edge8" class="edge"><title>Node1&#45;&gt;Node8</title>
<path fill="none" stroke="midnightblue" d="M167.934,-108.855C201.746,-92.7188 257.808,-67.1815 308,-50 313.585,-48.088 319.364,-46.2354 325.219,-44.4535"/>
<polygon fill="midnightblue" stroke="midnightblue" points="326.528,-47.7163 335.125,-41.5235 324.543,-41.0038 326.528,-47.7163"/>
</g>
<!-- Node2&#45;&gt;Node3 -->
<g id="edge2" class="edge"><title>Node2&#45;&gt;Node3</title>
<path fill="none" stroke="midnightblue" d="M534.112,-206.398C543.13,-205.537 552.278,-204.664 561.377,-203.796"/>
<polygon fill="midnightblue" stroke="midnightblue" points="561.999,-207.253 571.622,-202.819 561.334,-200.284 561.999,-207.253"/>
</g>
<!-- Node4 -->
<g id="node4" class="node"><title>Node4</title>
<g id="a_node4"><a xlink:href="../../da/dc5/classmodel_1_1state_1_1gameelement_1_1_attribute_container.html#a5f0e6026d1877c9e4f04fe389163970c" target="_top" xlink:title="model.state.gameelement.\lAttributeContainer.getNumerical\lAttribute">
<polygon fill="white" stroke="black" points="836,-171.5 836,-212.5 1008,-212.5 1008,-171.5 836,-171.5"/>
<text text-anchor="start" x="844" y="-200.5" font-family="Helvetica,sans-Serif" font-size="10.00">model.state.gameelement.</text>
<text text-anchor="start" x="844" y="-189.5" font-family="Helvetica,sans-Serif" font-size="10.00">AttributeContainer.getNumerical</text>
<text text-anchor="middle" x="922" y="-178.5" font-family="Helvetica,sans-Serif" font-size="10.00">Attribute</text>
</a>
</g>
</g>
<!-- Node3&#45;&gt;Node4 -->
<g id="edge3" class="edge"><title>Node3&#45;&gt;Node4</title>
<path fill="none" stroke="midnightblue" d="M800.23,-192C808.773,-192 817.342,-192 825.756,-192"/>
<polygon fill="midnightblue" stroke="midnightblue" points="825.929,-195.5 835.929,-192 825.929,-188.5 825.929,-195.5"/>
</g>
<!-- Node5 -->
<g id="node5" class="node"><title>Node5</title>
<g id="a_node5"><a xlink:href="../../da/dc5/classmodel_1_1state_1_1gameelement_1_1_attribute_container.html#a59a08ce23cf989feca0a78b2642364d4" target="_top" xlink:title="model.state.gameelement.\lAttributeContainer.getAttribute">
<polygon fill="white" stroke="black" points="1044.5,-177 1044.5,-207 1209.5,-207 1209.5,-177 1044.5,-177"/>
<text text-anchor="start" x="1052.5" y="-195" font-family="Helvetica,sans-Serif" font-size="10.00">model.state.gameelement.</text>
<text text-anchor="middle" x="1127" y="-184" font-family="Helvetica,sans-Serif" font-size="10.00">AttributeContainer.getAttribute</text>
</a>
</g>
</g>
<!-- Node4&#45;&gt;Node5 -->
<g id="edge4" class="edge"><title>Node4&#45;&gt;Node5</title>
<path fill="none" stroke="midnightblue" d="M1008.21,-192C1016.79,-192 1025.52,-192 1034.17,-192"/>
<polygon fill="midnightblue" stroke="midnightblue" points="1034.26,-195.5 1044.26,-192 1034.26,-188.5 1034.26,-195.5"/>
</g>
<!-- Node9 -->
<g id="node9" class="node"><title>Node9</title>
<g id="a_node9"><a xlink:href="../../da/dc5/classmodel_1_1state_1_1gameelement_1_1_attribute_container.html#a168d6e922a93b11894753a0598c02cf7" target="_top" xlink:title="model.state.gameelement.\lAttributeContainer.setNumerical\lAttribute">
<polygon fill="white" stroke="black" points="600.5,-0.5 600.5,-41.5 771.5,-41.5 771.5,-0.5 600.5,-0.5"/>
<text text-anchor="start" x="608.5" y="-29.5" font-family="Helvetica,sans-Serif" font-size="10.00">model.state.gameelement.</text>
<text text-anchor="start" x="608.5" y="-18.5" font-family="Helvetica,sans-Serif" font-size="10.00">AttributeContainer.setNumerical</text>
<text text-anchor="middle" x="686" y="-7.5" font-family="Helvetica,sans-Serif" font-size="10.00">Attribute</text>
</a>
</g>
</g>
<!-- Node8&#45;&gt;Node9 -->
<g id="edge9" class="edge"><title>Node8&#45;&gt;Node9</title>
<path fill="none" stroke="midnightblue" d="M535.632,-21C553.719,-21 572.282,-21 589.905,-21"/>
<polygon fill="midnightblue" stroke="midnightblue" points="590.162,-24.5001 600.162,-21 590.162,-17.5001 590.162,-24.5001"/>
</g>
<!-- Node10 -->
<g id="node10" class="node"><title>Node10</title>
<g id="a_node10"><a xlink:href="../../da/dc5/classmodel_1_1state_1_1gameelement_1_1_attribute_container.html#a03dd9ed123fc97bfc8bce5528b488333" target="_top" xlink:title="model.state.gameelement.\lAttributeContainer.addAttribute">
<polygon fill="white" stroke="black" points="838.5,-6 838.5,-36 1005.5,-36 1005.5,-6 838.5,-6"/>
<text text-anchor="start" x="846.5" y="-24" font-family="Helvetica,sans-Serif" font-size="10.00">model.state.gameelement.</text>
<text text-anchor="middle" x="922" y="-13" font-family="Helvetica,sans-Serif" font-size="10.00">AttributeContainer.addAttribute</text>
</a>
</g>
</g>
<!-- Node9&#45;&gt;Node10 -->
<g id="edge10" class="edge"><title>Node9&#45;&gt;Node10</title>
<path fill="none" stroke="midnightblue" d="M771.81,-21C790.13,-21 809.591,-21 828.198,-21"/>
<polygon fill="midnightblue" stroke="midnightblue" points="828.435,-24.5001 838.435,-21 828.435,-17.5001 828.435,-24.5001"/>
</g>
</g>
</svg>
