<?xml version="1.0" encoding="UTF-8" standalone="no"?>
<!DOCTYPE svg PUBLIC "-//W3C//DTD SVG 1.1//EN"
 "http://www.w3.org/Graphics/SVG/1.1/DTD/svg11.dtd">
<!-- Generated by graphviz version 2.36.0 (20140111.2315)
 -->
<!-- Title: model.data.WizardData.addDataPair Pages: 1 -->
<!--zoomable 693 -->
<svg id="main" version="1.1" xmlns="http://www.w3.org/2000/svg" xmlns:xlink="http://www.w3.org/1999/xlink" xml:space="preserve" onload="init(evt)">
<style type="text/css"><![CDATA[
.edge:hover path { stroke: red; }
.edge:hover polygon { stroke: red; fill: red; }
]]></style>
<script type="text/javascript"><![CDATA[
var edges = document.getElementsByTagName('g');
if (edges && edges.length) {
  for (var i=0;i<edges.length;i++) {
    if (edges[i].id.substr(0,4)=='edge') {
      edges[i].setAttribute('class','edge');
    }
  }
}
]]></script>
        <defs>
                <circle id="rim" cx="0" cy="0" r="7"/>
                <circle id="rim2" cx="0" cy="0" r="3.5"/>
                <g id="zoomPlus">
                        <use xlink:href="#rim" fill="#404040">
                                <set attributeName="fill" to="#808080" begin="zoomplus.mouseover" end="zoomplus.mouseout"/>
                        </use>
                        <path d="M-4,0h8M0,-4v8" fill="none" stroke="white" stroke-width="1.5" pointer-events="none"/>
                </g>
                <g id="zoomMin">
                        <use xlink:href="#rim" fill="#404040">
                                <set attributeName="fill" to="#808080" begin="zoomminus.mouseover" end="zoomminus.mouseout"/>
                        </use>
                        <path d="M-4,0h8" fill="none" stroke="white" stroke-width="1.5" pointer-events="none"/>
                </g>
                <g id="dirArrow">
                        <path fill="none" stroke="white" stroke-width="1.5" d="M0,-3.0v7 M-2.5,-0.5L0,-3.0L2.5,-0.5"/>
                </g>
               <g id="resetDef">
                       <use xlink:href="#rim2" fill="#404040">
                               <set attributeName="fill" to="#808080" begin="reset.mouseover" end="reset.mouseout"/>
                       </use>
               </g>
        </defs>

<script type="text/javascript">
var viewWidth = 1826;
var viewHeight = 693;
var sectionId = 'dynsection-1';
</script>
<script xlink:href="../../svgpan.js"/>
<svg id="graph" class="graph">
<g id="viewport">
<title>model.data.WizardData.addDataPair</title>
<polygon fill="white" stroke="none" points="-4,4 -4,-689 1822,-689 1822,4 -4,4"/>
<!-- Node1 -->
<g id="node1" class="node"><title>Node1</title>
<polygon fill="#bfbfbf" stroke="black" points="0,-159 0,-189 150,-189 150,-159 0,-159"/>
<text text-anchor="start" x="8" y="-177" font-family="Helvetica,sans-Serif" font-size="10.00">model.data.WizardData.add</text>
<text text-anchor="middle" x="75" y="-166" font-family="Helvetica,sans-Serif" font-size="10.00">DataPair</text>
</g>
<!-- Node2 -->
<g id="node2" class="node"><title>Node2</title>
<g id="a_node2"><a xlink:href="../../d7/d40/classview_1_1editor_1_1wizards_1_1_wizard.html#a8b5c3014ae6cff39c23e427462dc2128" target="_top" xlink:title="view.editor.wizards.Wizard.add\lToData">
<polygon fill="white" stroke="black" points="214,-434 214,-464 374,-464 374,-434 214,-434"/>
<text text-anchor="start" x="222" y="-452" font-family="Helvetica,sans-Serif" font-size="10.00">view.editor.wizards.Wizard.add</text>
<text text-anchor="middle" x="294" y="-441" font-family="Helvetica,sans-Serif" font-size="10.00">ToData</text>
</a>
</g>
</g>
<!-- Node1&#45;&gt;Node2 -->
<g id="edge1" class="edge"><title>Node1&#45;&gt;Node2</title>
<path fill="none" stroke="midnightblue" d="M94.3486,-197.253C137.62,-252.089 245.097,-388.294 281.061,-433.87"/>
<polygon fill="midnightblue" stroke="midnightblue" points="96.9182,-194.859 87.976,-189.177 91.423,-199.195 96.9182,-194.859"/>
</g>
<!-- Node14 -->
<g id="node14" class="node"><title>Node14</title>
<g id="a_node14"><a xlink:href="../../de/d21/classmodel_1_1_main_model.html#ad0bb08a7d763bbd67aa5ac062dde5121" target="_top" xlink:title="model.MainModel.createDrawable\lGameElementState">
<polygon fill="white" stroke="black" points="1200.5,-179 1200.5,-209 1379.5,-209 1379.5,-179 1200.5,-179"/>
<text text-anchor="start" x="1208.5" y="-197" font-family="Helvetica,sans-Serif" font-size="10.00">model.MainModel.createDrawable</text>
<text text-anchor="middle" x="1290" y="-186" font-family="Helvetica,sans-Serif" font-size="10.00">GameElementState</text>
</a>
</g>
</g>
<!-- Node1&#45;&gt;Node14 -->
<g id="edge13" class="edge"><title>Node1&#45;&gt;Node14</title>
<path fill="none" stroke="midnightblue" d="M160.279,-180.336C254.115,-186.835 410.316,-196 545,-196 545,-196 545,-196 799,-196 939.366,-196 1102.35,-195.169 1200.48,-194.578"/>
<polygon fill="midnightblue" stroke="midnightblue" points="160.493,-176.843 150.274,-179.637 160.005,-183.826 160.493,-176.843"/>
</g>
<!-- Node17 -->
<g id="node17" class="node"><title>Node17</title>
<g id="a_node17"><a xlink:href="../../de/d21/classmodel_1_1_main_model.html#a68bd2e83a07b0563f2100087fc429b22" target="_top" xlink:title="model.MainModel.createSelectable\lGameElementState">
<polygon fill="white" stroke="black" points="960.5,-44 960.5,-74 1145.5,-74 1145.5,-44 960.5,-44"/>
<text text-anchor="start" x="968.5" y="-62" font-family="Helvetica,sans-Serif" font-size="10.00">model.MainModel.createSelectable</text>
<text text-anchor="middle" x="1053" y="-51" font-family="Helvetica,sans-Serif" font-size="10.00">GameElementState</text>
</a>
</g>
</g>
<!-- Node1&#45;&gt;Node17 -->
<g id="edge16" class="edge"><title>Node1&#45;&gt;Node17</title>
<path fill="none" stroke="midnightblue" d="M113.674,-154.489C134.46,-144.608 161.05,-133.38 186,-127 461.232,-56.6175 800.315,-52.9962 960.254,-55.9943"/>
<polygon fill="midnightblue" stroke="midnightblue" points="112.028,-151.398 104.559,-158.913 115.084,-157.696 112.028,-151.398"/>
</g>
<!-- Node19 -->
<g id="node19" class="node"><title>Node19</title>
<g id="a_node19"><a xlink:href="../../d0/da0/classmodel_1_1data_1_1_wizard_data_factory.html#a0c0eb91e1b531f96b715e1a9c0c45db9" target="_top" xlink:title="model.data.WizardDataFactory.create\lWizardData">
<polygon fill="white" stroke="black" points="955,-227 955,-257 1151,-257 1151,-227 955,-227"/>
<text text-anchor="start" x="963" y="-245" font-family="Helvetica,sans-Serif" font-size="10.00">model.data.WizardDataFactory.create</text>
<text text-anchor="middle" x="1053" y="-234" font-family="Helvetica,sans-Serif" font-size="10.00">WizardData</text>
</a>
</g>
</g>
<!-- Node1&#45;&gt;Node19 -->
<g id="edge19" class="edge"><title>Node1&#45;&gt;Node19</title>
<path fill="none" stroke="midnightblue" d="M122.708,-192.482C141.991,-199.267 164.762,-206.21 186,-210 461.484,-259.166 793.811,-253.78 954.954,-247.159"/>
<polygon fill="midnightblue" stroke="midnightblue" points="123.852,-189.174 113.257,-189.073 121.476,-195.759 123.852,-189.174"/>
</g>
<!-- Node21 -->
<g id="node21" class="node"><title>Node21</title>
<g id="a_node21"><a xlink:href="../../d2/daf/classview_1_1editor_1_1wizards_1_1_c_r_u_d_container.html#a0dd63694421d9fc87cd4046499d3d229" target="_top" xlink:title="view.editor.wizards.CRUDContainer.launch\lEditWizard">
<polygon fill="white" stroke="black" points="186.5,-137 186.5,-167 401.5,-167 401.5,-137 186.5,-137"/>
<text text-anchor="start" x="194.5" y="-155" font-family="Helvetica,sans-Serif" font-size="10.00">view.editor.wizards.CRUDContainer.launch</text>
<text text-anchor="middle" x="294" y="-144" font-family="Helvetica,sans-Serif" font-size="10.00">EditWizard</text>
</a>
</g>
</g>
<!-- Node1&#45;&gt;Node21 -->
<g id="edge22" class="edge"><title>Node1&#45;&gt;Node21</title>
<path fill="none" stroke="midnightblue" d="M160.04,-165.48C168.628,-164.609 177.431,-163.717 186.22,-162.826"/>
<polygon fill="midnightblue" stroke="midnightblue" points="159.668,-161.999 150.072,-166.49 160.374,-168.964 159.668,-161.999"/>
</g>
<!-- Node28 -->
<g id="node28" class="node"><title>Node28</title>
<g id="a_node28"><a xlink:href="../../d4/d65/classview_1_1editor_1_1_tab_view_controller.html#acc48d19a50394e25978315d5bca8fa6a" target="_top" xlink:title="view.editor.TabViewController.recreate\lWizardData">
<polygon fill="white" stroke="black" points="196,-0 196,-30 392,-30 392,-0 196,-0"/>
<text text-anchor="start" x="204" y="-18" font-family="Helvetica,sans-Serif" font-size="10.00">view.editor.TabViewController.recreate</text>
<text text-anchor="middle" x="294" y="-7" font-family="Helvetica,sans-Serif" font-size="10.00">WizardData</text>
</a>
</g>
</g>
<!-- Node1&#45;&gt;Node28 -->
<g id="edge31" class="edge"><title>Node1&#45;&gt;Node28</title>
<path fill="none" stroke="midnightblue" d="M90.1612,-149.976C108.583,-120.819 143.491,-72.1896 186,-45 195.589,-38.8667 206.441,-33.967 217.466,-30.0581"/>
<polygon fill="midnightblue" stroke="midnightblue" points="87.0462,-148.359 84.7705,-158.707 93.0023,-152.037 87.0462,-148.359"/>
</g>
<!-- Node3 -->
<g id="node3" class="node"><title>Node3</title>
<g id="a_node3"><a xlink:href="../../d0/d6c/classview_1_1editor_1_1wizards_1_1_action_wizard.html#a64a1196af9550ddf0042b60415dff9b8" target="_top" xlink:title="view.editor.wizards.Action\lWizard.updateData">
<polygon fill="white" stroke="black" points="477.5,-410 477.5,-440 614.5,-440 614.5,-410 477.5,-410"/>
<text text-anchor="start" x="485.5" y="-428" font-family="Helvetica,sans-Serif" font-size="10.00">view.editor.wizards.Action</text>
<text text-anchor="middle" x="546" y="-417" font-family="Helvetica,sans-Serif" font-size="10.00">Wizard.updateData</text>
</a>
</g>
</g>
<!-- Node2&#45;&gt;Node3 -->
<g id="edge2" class="edge"><title>Node2&#45;&gt;Node3</title>
<path fill="none" stroke="midnightblue" d="M384.357,-440.422C414.983,-437.482 448.725,-434.242 477.346,-431.495"/>
<polygon fill="midnightblue" stroke="midnightblue" points="383.721,-436.967 374.102,-441.406 384.39,-443.935 383.721,-436.967"/>
</g>
<!-- Node4 -->
<g id="node4" class="node"><title>Node4</title>
<g id="a_node4"><a xlink:href="../../d3/d91/classview_1_1editor_1_1wizards_1_1_animation_wizard.html#aeeb44d20073f7e3f503ca416c73ec32b" target="_top" xlink:title="view.editor.wizards.Animation\lWizard.updateData">
<polygon fill="white" stroke="black" points="468,-361 468,-391 624,-391 624,-361 468,-361"/>
<text text-anchor="start" x="476" y="-379" font-family="Helvetica,sans-Serif" font-size="10.00">view.editor.wizards.Animation</text>
<text text-anchor="middle" x="546" y="-368" font-family="Helvetica,sans-Serif" font-size="10.00">Wizard.updateData</text>
</a>
</g>
</g>
<!-- Node2&#45;&gt;Node4 -->
<g id="edge3" class="edge"><title>Node2&#45;&gt;Node4</title>
<path fill="none" stroke="midnightblue" d="M345.955,-430.594C373.092,-421.123 407.15,-409.76 438,-401 450.295,-397.509 463.484,-394.132 476.256,-391.05"/>
<polygon fill="midnightblue" stroke="midnightblue" points="344.564,-427.373 336.289,-433.99 346.884,-433.978 344.564,-427.373"/>
</g>
<!-- Node5 -->
<g id="node5" class="node"><title>Node5</title>
<g id="a_node5"><a xlink:href="../../d1/d26/classview_1_1editor_1_1wizards_1_1_attribute_wizard.html#a57d2012acf92160e61def166930a5023" target="_top" xlink:title="view.editor.wizards.Attribute\lWizard.storeKeyValuePair">
<polygon fill="white" stroke="black" points="471.5,-312 471.5,-342 620.5,-342 620.5,-312 471.5,-312"/>
<text text-anchor="start" x="479.5" y="-330" font-family="Helvetica,sans-Serif" font-size="10.00">view.editor.wizards.Attribute</text>
<text text-anchor="middle" x="546" y="-319" font-family="Helvetica,sans-Serif" font-size="10.00">Wizard.storeKeyValuePair</text>
</a>
</g>
</g>
<!-- Node2&#45;&gt;Node5 -->
<g id="edge4" class="edge"><title>Node2&#45;&gt;Node5</title>
<path fill="none" stroke="midnightblue" d="M320.565,-427.345C347.921,-405.252 393.423,-371.522 438,-352 448.485,-347.408 459.932,-343.596 471.316,-340.449"/>
<polygon fill="midnightblue" stroke="midnightblue" points="318.201,-424.757 312.679,-433.799 322.634,-430.174 318.201,-424.757"/>
</g>
<!-- Node8 -->
<g id="node8" class="node"><title>Node8</title>
<g id="a_node8"><a xlink:href="../../d0/d9a/classview_1_1editor_1_1wizards_1_1_bounds_wizard.html#a0bb9a10a19b5610f8f8ce4ba646b8ccb" target="_top" xlink:title="view.editor.wizards.Bounds\lWizard.updateData">
<polygon fill="white" stroke="black" points="474.5,-263 474.5,-293 617.5,-293 617.5,-263 474.5,-263"/>
<text text-anchor="start" x="482.5" y="-281" font-family="Helvetica,sans-Serif" font-size="10.00">view.editor.wizards.Bounds</text>
<text text-anchor="middle" x="546" y="-270" font-family="Helvetica,sans-Serif" font-size="10.00">Wizard.updateData</text>
</a>
</g>
</g>
<!-- Node2&#45;&gt;Node8 -->
<g id="edge7" class="edge"><title>Node2&#45;&gt;Node8</title>
<path fill="none" stroke="midnightblue" d="M311.311,-425.359C335.198,-392.621 382.889,-334.019 438,-303 449.138,-296.731 461.776,-292.031 474.364,-288.508"/>
<polygon fill="midnightblue" stroke="midnightblue" points="308.198,-423.695 305.219,-433.862 313.888,-427.772 308.198,-423.695"/>
</g>
<!-- Node9 -->
<g id="node9" class="node"><title>Node9</title>
<g id="a_node9"><a xlink:href="../../da/d29/classview_1_1editor_1_1wizards_1_1_campaign_wizard.html#a05a983996105f21612cd9663cec6cc46" target="_top" xlink:title="view.editor.wizards.Campaign\lWizard.updateData">
<polygon fill="white" stroke="black" points="468,-655 468,-685 624,-685 624,-655 468,-655"/>
<text text-anchor="start" x="476" y="-673" font-family="Helvetica,sans-Serif" font-size="10.00">view.editor.wizards.Campaign</text>
<text text-anchor="middle" x="546" y="-662" font-family="Helvetica,sans-Serif" font-size="10.00">Wizard.updateData</text>
</a>
</g>
</g>
<!-- Node2&#45;&gt;Node9 -->
<g id="edge8" class="edge"><title>Node2&#45;&gt;Node9</title>
<path fill="none" stroke="midnightblue" d="M305.663,-473.309C325.384,-515.285 371.678,-601.072 438,-645 447.066,-651.005 457.399,-655.575 467.985,-659.051"/>
<polygon fill="midnightblue" stroke="midnightblue" points="308.79,-471.73 301.436,-464.102 302.428,-474.65 308.79,-471.73"/>
</g>
<!-- Node10 -->
<g id="node10" class="node"><title>Node10</title>
<g id="a_node10"><a xlink:href="../../d7/d92/classview_1_1editor_1_1wizards_1_1_game_element_wizard.html#a5aef02ce2b3e8f7470cd74aea63e4f6b" target="_top" xlink:title="view.editor.wizards.Game\lElementWizard.updateData">
<polygon fill="white" stroke="black" points="472,-606 472,-636 620,-636 620,-606 472,-606"/>
<text text-anchor="start" x="480" y="-624" font-family="Helvetica,sans-Serif" font-size="10.00">view.editor.wizards.Game</text>
<text text-anchor="middle" x="546" y="-613" font-family="Helvetica,sans-Serif" font-size="10.00">ElementWizard.updateData</text>
</a>
</g>
</g>
<!-- Node2&#45;&gt;Node10 -->
<g id="edge9" class="edge"><title>Node2&#45;&gt;Node10</title>
<path fill="none" stroke="midnightblue" d="M311.273,-472.806C335.113,-505.771 382.75,-564.778 438,-596 448.38,-601.866 460.07,-606.358 471.81,-609.797"/>
<polygon fill="midnightblue" stroke="midnightblue" points="313.836,-470.371 305.193,-464.243 308.128,-474.423 313.836,-470.371"/>
</g>
<!-- Node11 -->
<g id="node11" class="node"><title>Node11</title>
<g id="a_node11"><a xlink:href="../../d0/db3/classview_1_1editor_1_1wizards_1_1_level_wizard.html#a4544f7222fcd615c9bbe92508eb7c9a1" target="_top" xlink:title="view.editor.wizards.Level\lWizard.updateData">
<polygon fill="white" stroke="black" points="480,-557 480,-587 612,-587 612,-557 480,-557"/>
<text text-anchor="start" x="488" y="-575" font-family="Helvetica,sans-Serif" font-size="10.00">view.editor.wizards.Level</text>
<text text-anchor="middle" x="546" y="-564" font-family="Helvetica,sans-Serif" font-size="10.00">Wizard.updateData</text>
</a>
</g>
</g>
<!-- Node2&#45;&gt;Node11 -->
<g id="edge10" class="edge"><title>Node2&#45;&gt;Node11</title>
<path fill="none" stroke="midnightblue" d="M320.069,-470.518C347.34,-492.841 393.075,-527.198 438,-547 451.092,-552.771 465.697,-557.306 479.804,-560.834"/>
<polygon fill="midnightblue" stroke="midnightblue" points="322.151,-467.697 312.22,-464.006 317.681,-473.084 322.151,-467.697"/>
</g>
<!-- Node12 -->
<g id="node12" class="node"><title>Node12</title>
<g id="a_node12"><a xlink:href="../../d9/df7/classview_1_1editor_1_1wizards_1_1_position_wizard.html#a11240e3a5e5a611c1dc801869da1461a" target="_top" xlink:title="view.editor.wizards.Position\lWizard.updateData">
<polygon fill="white" stroke="black" points="473.5,-508 473.5,-538 618.5,-538 618.5,-508 473.5,-508"/>
<text text-anchor="start" x="481.5" y="-526" font-family="Helvetica,sans-Serif" font-size="10.00">view.editor.wizards.Position</text>
<text text-anchor="middle" x="546" y="-515" font-family="Helvetica,sans-Serif" font-size="10.00">Wizard.updateData</text>
</a>
</g>
</g>
<!-- Node2&#45;&gt;Node12 -->
<g id="edge11" class="edge"><title>Node2&#45;&gt;Node12</title>
<path fill="none" stroke="midnightblue" d="M345.039,-467.527C372.309,-477.274 406.775,-489.027 438,-498 450.193,-501.504 463.271,-504.874 475.952,-507.944"/>
<polygon fill="midnightblue" stroke="midnightblue" points="345.931,-464.129 335.336,-464.036 343.561,-470.715 345.931,-464.129"/>
</g>
<!-- Node13 -->
<g id="node13" class="node"><title>Node13</title>
<g id="a_node13"><a xlink:href="../../d3/dcd/classview_1_1editor_1_1wizards_1_1_widget_wizard.html#ad34080a5b1af00d156068cd8a9d62ccc" target="_top" xlink:title="view.editor.wizards.Widget\lWizard.updateData">
<polygon fill="white" stroke="black" points="476,-459 476,-489 616,-489 616,-459 476,-459"/>
<text text-anchor="start" x="484" y="-477" font-family="Helvetica,sans-Serif" font-size="10.00">view.editor.wizards.Widget</text>
<text text-anchor="middle" x="546" y="-466" font-family="Helvetica,sans-Serif" font-size="10.00">Wizard.updateData</text>
</a>
</g>
</g>
<!-- Node2&#45;&gt;Node13 -->
<g id="edge12" class="edge"><title>Node2&#45;&gt;Node13</title>
<path fill="none" stroke="midnightblue" d="M384.178,-457.918C414.264,-460.926 447.375,-464.238 475.693,-467.069"/>
<polygon fill="midnightblue" stroke="midnightblue" points="384.4,-454.423 374.102,-456.91 383.704,-461.388 384.4,-454.423"/>
</g>
<!-- Node6 -->
<g id="node6" class="node"><title>Node6</title>
<g id="a_node6"><a xlink:href="../../d1/d26/classview_1_1editor_1_1wizards_1_1_attribute_wizard.html#af85cdf1584590c5e7a85a88237e1a045" target="_top" xlink:title="view.editor.wizards.Attribute\lWizard.updateData">
<polygon fill="white" stroke="black" points="723.5,-336 723.5,-366 872.5,-366 872.5,-336 723.5,-336"/>
<text text-anchor="start" x="731.5" y="-354" font-family="Helvetica,sans-Serif" font-size="10.00">view.editor.wizards.Attribute</text>
<text text-anchor="middle" x="798" y="-343" font-family="Helvetica,sans-Serif" font-size="10.00">Wizard.updateData</text>
</a>
</g>
</g>
<!-- Node5&#45;&gt;Node6 -->
<g id="edge5" class="edge"><title>Node5&#45;&gt;Node6</title>
<path fill="none" stroke="midnightblue" d="M630.691,-335.034C660.72,-337.917 694.333,-341.144 723.439,-343.938"/>
<polygon fill="midnightblue" stroke="midnightblue" points="630.945,-331.543 620.656,-334.071 630.276,-338.511 630.945,-331.543"/>
</g>
<!-- Node7 -->
<g id="node7" class="node"><title>Node7</title>
<g id="a_node7"><a xlink:href="../../de/dbd/classview_1_1editor_1_1wizards_1_1_number_attribute_wizard.html#a0692505fadd2673528b7ada50ca85521" target="_top" xlink:title="view.editor.wizards.Number\lAttributeWizard.updateData">
<polygon fill="white" stroke="black" points="723,-287 723,-317 873,-317 873,-287 723,-287"/>
<text text-anchor="start" x="731" y="-305" font-family="Helvetica,sans-Serif" font-size="10.00">view.editor.wizards.Number</text>
<text text-anchor="middle" x="798" y="-294" font-family="Helvetica,sans-Serif" font-size="10.00">AttributeWizard.updateData</text>
</a>
</g>
</g>
<!-- Node5&#45;&gt;Node7 -->
<g id="edge6" class="edge"><title>Node5&#45;&gt;Node7</title>
<path fill="none" stroke="midnightblue" d="M630.989,-318.601C660.645,-315.636 693.765,-312.324 722.574,-309.443"/>
<polygon fill="midnightblue" stroke="midnightblue" points="630.258,-315.157 620.656,-319.634 630.955,-322.122 630.258,-315.157"/>
</g>
<!-- Node15 -->
<g id="node15" class="node"><title>Node15</title>
<g id="a_node15"><a xlink:href="../../d9/dfb/classview_1_1editor_1_1_element_accordion_controller.html#a71bb33e7588f335fc2ebc1346924ad2d" target="_top" xlink:title="view.editor.ElementAccordion\lController.openDrawableGameElement\lWizard">
<polygon fill="white" stroke="black" points="1419.5,-173.5 1419.5,-214.5 1622.5,-214.5 1622.5,-173.5 1419.5,-173.5"/>
<text text-anchor="start" x="1427.5" y="-202.5" font-family="Helvetica,sans-Serif" font-size="10.00">view.editor.ElementAccordion</text>
<text text-anchor="start" x="1427.5" y="-191.5" font-family="Helvetica,sans-Serif" font-size="10.00">Controller.openDrawableGameElement</text>
<text text-anchor="middle" x="1521" y="-180.5" font-family="Helvetica,sans-Serif" font-size="10.00">Wizard</text>
</a>
</g>
</g>
<!-- Node14&#45;&gt;Node15 -->
<g id="edge14" class="edge"><title>Node14&#45;&gt;Node15</title>
<path fill="none" stroke="midnightblue" d="M1389.65,-194C1399.41,-194 1409.33,-194 1419.12,-194"/>
<polygon fill="midnightblue" stroke="midnightblue" points="1389.54,-190.5 1379.54,-194 1389.54,-197.5 1389.54,-190.5"/>
</g>
<!-- Node16 -->
<g id="node16" class="node"><title>Node16</title>
<g id="a_node16"><a xlink:href="../../d9/dfb/classview_1_1editor_1_1_element_accordion_controller.html#af80453486ff349552dab988fb64397c0" target="_top" xlink:title="view.editor.ElementAccordion\lController.init">
<polygon fill="white" stroke="black" points="1662,-179 1662,-209 1818,-209 1818,-179 1662,-179"/>
<text text-anchor="start" x="1670" y="-197" font-family="Helvetica,sans-Serif" font-size="10.00">view.editor.ElementAccordion</text>
<text text-anchor="middle" x="1740" y="-186" font-family="Helvetica,sans-Serif" font-size="10.00">Controller.init</text>
</a>
</g>
</g>
<!-- Node15&#45;&gt;Node16 -->
<g id="edge15" class="edge"><title>Node15&#45;&gt;Node16</title>
<path fill="none" stroke="midnightblue" d="M1632.78,-194C1642.59,-194 1652.38,-194 1661.82,-194"/>
<polygon fill="midnightblue" stroke="midnightblue" points="1632.56,-190.5 1622.56,-194 1632.56,-197.5 1632.56,-190.5"/>
</g>
<!-- Node18 -->
<g id="node18" class="node"><title>Node18</title>
<g id="a_node18"><a xlink:href="../../d9/dfb/classview_1_1editor_1_1_element_accordion_controller.html#a8564fdf017fa6f25e3e663cf076e0c04" target="_top" xlink:title="view.editor.ElementAccordion\lController.openSelectableGameElement\lWizard">
<polygon fill="white" stroke="black" points="1416.5,-113.5 1416.5,-154.5 1625.5,-154.5 1625.5,-113.5 1416.5,-113.5"/>
<text text-anchor="start" x="1424.5" y="-142.5" font-family="Helvetica,sans-Serif" font-size="10.00">view.editor.ElementAccordion</text>
<text text-anchor="start" x="1424.5" y="-131.5" font-family="Helvetica,sans-Serif" font-size="10.00">Controller.openSelectableGameElement</text>
<text text-anchor="middle" x="1521" y="-120.5" font-family="Helvetica,sans-Serif" font-size="10.00">Wizard</text>
</a>
</g>
</g>
<!-- Node17&#45;&gt;Node18 -->
<g id="edge17" class="edge"><title>Node17&#45;&gt;Node18</title>
<path fill="none" stroke="midnightblue" d="M1155.72,-75.3715C1232.85,-87.7842 1338.46,-104.782 1416.11,-117.279"/>
<polygon fill="midnightblue" stroke="midnightblue" points="1155.94,-71.8616 1145.51,-73.7281 1154.83,-78.7727 1155.94,-71.8616"/>
</g>
<!-- Node18&#45;&gt;Node16 -->
<g id="edge18" class="edge"><title>Node18&#45;&gt;Node16</title>
<path fill="none" stroke="midnightblue" d="M1606.34,-157.32C1632.63,-164.59 1660.92,-172.411 1684.59,-178.956"/>
<polygon fill="midnightblue" stroke="midnightblue" points="1606.95,-153.856 1596.38,-154.565 1605.08,-160.603 1606.95,-153.856"/>
</g>
<!-- Node20 -->
<g id="node20" class="node"><title>Node20</title>
<g id="a_node20"><a xlink:href="../../d9/dfb/classview_1_1editor_1_1_element_accordion_controller.html#ac52ea89f2e0af7497883a0fd53199296" target="_top" xlink:title="view.editor.ElementAccordion\lController.createWizardData">
<polygon fill="white" stroke="black" points="1212,-228 1212,-258 1368,-258 1368,-228 1212,-228"/>
<text text-anchor="start" x="1220" y="-246" font-family="Helvetica,sans-Serif" font-size="10.00">view.editor.ElementAccordion</text>
<text text-anchor="middle" x="1290" y="-235" font-family="Helvetica,sans-Serif" font-size="10.00">Controller.createWizardData</text>
</a>
</g>
</g>
<!-- Node19&#45;&gt;Node20 -->
<g id="edge20" class="edge"><title>Node19&#45;&gt;Node20</title>
<path fill="none" stroke="midnightblue" d="M1161.76,-242.459C1178.66,-242.53 1195.84,-242.604 1211.87,-242.672"/>
<polygon fill="midnightblue" stroke="midnightblue" points="1161.29,-238.957 1151.28,-242.414 1161.26,-245.957 1161.29,-238.957"/>
</g>
<!-- Node20&#45;&gt;Node16 -->
<g id="edge21" class="edge"><title>Node20&#45;&gt;Node16</title>
<path fill="none" stroke="midnightblue" d="M1378.51,-242.35C1446.39,-240.745 1542.64,-236.061 1626,-223 1646.91,-219.724 1669.58,-214.29 1689.08,-209.006"/>
<polygon fill="midnightblue" stroke="midnightblue" points="1378.21,-238.856 1368.29,-242.574 1378.36,-245.854 1378.21,-238.856"/>
</g>
<!-- Node22 -->
<g id="node22" class="node"><title>Node22</title>
<g id="a_node22"><a xlink:href="../../d2/daf/classview_1_1editor_1_1wizards_1_1_c_r_u_d_container.html#a93585a010caa4cdf7201f854c10001d5" target="_top" xlink:title="view.editor.wizards.CRUDContainer.create\lVisualRepresentation">
<polygon fill="white" stroke="black" points="438.5,-137 438.5,-167 653.5,-167 653.5,-137 438.5,-137"/>
<text text-anchor="start" x="446.5" y="-155" font-family="Helvetica,sans-Serif" font-size="10.00">view.editor.wizards.CRUDContainer.create</text>
<text text-anchor="middle" x="546" y="-144" font-family="Helvetica,sans-Serif" font-size="10.00">VisualRepresentation</text>
</a>
</g>
</g>
<!-- Node21&#45;&gt;Node22 -->
<g id="edge23" class="edge"><title>Node21&#45;&gt;Node22</title>
<path fill="none" stroke="midnightblue" d="M411.982,-152C420.73,-152 429.531,-152 438.211,-152"/>
<polygon fill="midnightblue" stroke="midnightblue" points="411.748,-148.5 401.748,-152 411.748,-155.5 411.748,-148.5"/>
</g>
<!-- Node23 -->
<g id="node23" class="node"><title>Node23</title>
<g id="a_node23"><a xlink:href="../../d2/daf/classview_1_1editor_1_1wizards_1_1_c_r_u_d_container.html#afc90f248b63b655ded20ea49f90d01a3" target="_top" xlink:title="view.editor.wizards.CRUDContainer.add\lAndRenderWizardDatas">
<polygon fill="white" stroke="black" points="697,-137 697,-167 899,-167 899,-137 697,-137"/>
<text text-anchor="start" x="705" y="-155" font-family="Helvetica,sans-Serif" font-size="10.00">view.editor.wizards.CRUDContainer.add</text>
<text text-anchor="middle" x="798" y="-144" font-family="Helvetica,sans-Serif" font-size="10.00">AndRenderWizardDatas</text>
</a>
</g>
</g>
<!-- Node22&#45;&gt;Node23 -->
<g id="edge24" class="edge"><title>Node22&#45;&gt;Node23</title>
<path fill="none" stroke="midnightblue" d="M663.87,-152C674.928,-152 686.072,-152 696.953,-152"/>
<polygon fill="midnightblue" stroke="midnightblue" points="663.748,-148.5 653.748,-152 663.748,-155.5 663.748,-148.5"/>
</g>
<!-- Node26 -->
<g id="node26" class="node"><title>Node26</title>
<g id="a_node26"><a xlink:href="../../d2/daf/classview_1_1editor_1_1wizards_1_1_c_r_u_d_container.html#ae2023a0be85d2e08579ad62bf18a0bc5" target="_top" xlink:title="view.editor.wizards.CRUDContainer.launch\lNestedWizard">
<polygon fill="white" stroke="black" points="690.5,-88 690.5,-118 905.5,-118 905.5,-88 690.5,-88"/>
<text text-anchor="start" x="698.5" y="-106" font-family="Helvetica,sans-Serif" font-size="10.00">view.editor.wizards.CRUDContainer.launch</text>
<text text-anchor="middle" x="798" y="-95" font-family="Helvetica,sans-Serif" font-size="10.00">NestedWizard</text>
</a>
</g>
</g>
<!-- Node22&#45;&gt;Node26 -->
<g id="edge29" class="edge"><title>Node22&#45;&gt;Node26</title>
<path fill="none" stroke="midnightblue" d="M633.569,-135.033C661.821,-129.495 692.974,-123.389 720.438,-118.006"/>
<polygon fill="midnightblue" stroke="midnightblue" points="632.847,-131.607 623.707,-136.965 634.194,-138.477 632.847,-131.607"/>
</g>
<!-- Node24 -->
<g id="node24" class="node"><title>Node24</title>
<g id="a_node24"><a xlink:href="../../d7/d92/classview_1_1editor_1_1wizards_1_1_game_element_wizard.html#a657ee6352e5119f1ec2fe9add8340899" target="_top" xlink:title="view.editor.wizards.Game\lElementWizard.addContainerData">
<polygon fill="white" stroke="black" points="963.5,-135 963.5,-165 1142.5,-165 1142.5,-135 963.5,-135"/>
<text text-anchor="start" x="971.5" y="-153" font-family="Helvetica,sans-Serif" font-size="10.00">view.editor.wizards.Game</text>
<text text-anchor="middle" x="1053" y="-142" font-family="Helvetica,sans-Serif" font-size="10.00">ElementWizard.addContainerData</text>
</a>
</g>
</g>
<!-- Node23&#45;&gt;Node24 -->
<g id="edge25" class="edge"><title>Node23&#45;&gt;Node24</title>
<path fill="none" stroke="midnightblue" d="M909.565,-151.126C927.512,-150.984 945.894,-150.839 963.235,-150.702"/>
<polygon fill="midnightblue" stroke="midnightblue" points="909.328,-147.628 899.356,-151.207 909.383,-154.627 909.328,-147.628"/>
</g>
<!-- Node25 -->
<g id="node25" class="node"><title>Node25</title>
<g id="a_node25"><a xlink:href="../../d7/d92/classview_1_1editor_1_1wizards_1_1_game_element_wizard.html#abe8ad6d8e7a4eec7b8184d12047755be" target="_top" xlink:title="view.editor.wizards.Game\lElementWizard.launchForEdit">
<polygon fill="white" stroke="black" points="1212.5,-130 1212.5,-160 1367.5,-160 1367.5,-130 1212.5,-130"/>
<text text-anchor="start" x="1220.5" y="-148" font-family="Helvetica,sans-Serif" font-size="10.00">view.editor.wizards.Game</text>
<text text-anchor="middle" x="1290" y="-137" font-family="Helvetica,sans-Serif" font-size="10.00">ElementWizard.launchForEdit</text>
</a>
</g>
</g>
<!-- Node24&#45;&gt;Node25 -->
<g id="edge26" class="edge"><title>Node24&#45;&gt;Node25</title>
<path fill="none" stroke="midnightblue" d="M1152.52,-147.904C1172.43,-147.48 1193.09,-147.041 1212.12,-146.636"/>
<polygon fill="midnightblue" stroke="midnightblue" points="1152.43,-144.405 1142.51,-148.117 1152.58,-151.403 1152.43,-144.405"/>
</g>
<!-- Node25&#45;&gt;Node15 -->
<g id="edge28" class="edge"><title>Node25&#45;&gt;Node15</title>
<path fill="none" stroke="midnightblue" d="M1371.19,-162.159C1388.3,-165.819 1406.52,-169.719 1424.15,-173.49"/>
<polygon fill="midnightblue" stroke="midnightblue" points="1371.77,-158.705 1361.26,-160.035 1370.31,-165.55 1371.77,-158.705"/>
</g>
<!-- Node25&#45;&gt;Node18 -->
<g id="edge27" class="edge"><title>Node25&#45;&gt;Node18</title>
<path fill="none" stroke="midnightblue" d="M1377.57,-140.841C1390.19,-140.235 1403.29,-139.606 1416.2,-138.986"/>
<polygon fill="midnightblue" stroke="midnightblue" points="1377.39,-137.346 1367.57,-141.322 1377.73,-144.338 1377.39,-137.346"/>
</g>
<!-- Node27 -->
<g id="node27" class="node"><title>Node27</title>
<g id="a_node27"><a xlink:href="../../d2/daf/classview_1_1editor_1_1wizards_1_1_c_r_u_d_container.html#ab64f7f353707925c8aa7b919886038c5" target="_top" xlink:title="view.editor.wizards.CRUDContainer.initialize">
<polygon fill="white" stroke="black" points="942,-93.5 942,-112.5 1164,-112.5 1164,-93.5 942,-93.5"/>
<text text-anchor="middle" x="1053" y="-100.5" font-family="Helvetica,sans-Serif" font-size="10.00">view.editor.wizards.CRUDContainer.initialize</text>
</a>
</g>
</g>
<!-- Node26&#45;&gt;Node27 -->
<g id="edge30" class="edge"><title>Node26&#45;&gt;Node27</title>
<path fill="none" stroke="midnightblue" d="M915.751,-103C924.464,-103 933.239,-103 941.909,-103"/>
<polygon fill="midnightblue" stroke="midnightblue" points="915.562,-99.5001 905.562,-103 915.561,-106.5 915.562,-99.5001"/>
</g>
<!-- Node29 -->
<g id="node29" class="node"><title>Node29</title>
<g id="a_node29"><a xlink:href="../../d4/d65/classview_1_1editor_1_1_tab_view_controller.html#a1dc26904601bc736368a83e6ca0fc470" target="_top" xlink:title="view.editor.TabViewController.modify\lGoals">
<polygon fill="white" stroke="black" points="452,-0 452,-30 640,-30 640,-0 452,-0"/>
<text text-anchor="start" x="460" y="-18" font-family="Helvetica,sans-Serif" font-size="10.00">view.editor.TabViewController.modify</text>
<text text-anchor="middle" x="546" y="-7" font-family="Helvetica,sans-Serif" font-size="10.00">Goals</text>
</a>
</g>
</g>
<!-- Node28&#45;&gt;Node29 -->
<g id="edge32" class="edge"><title>Node28&#45;&gt;Node29</title>
<path fill="none" stroke="midnightblue" d="M402.21,-15C418.689,-15 435.59,-15 451.734,-15"/>
<polygon fill="midnightblue" stroke="midnightblue" points="402.014,-11.5001 392.014,-15 402.014,-18.5001 402.014,-11.5001"/>
</g>
<!-- Node30 -->
<g id="node30" class="node"><title>Node30</title>
<g id="a_node30"><a xlink:href="../../d4/d65/classview_1_1editor_1_1_tab_view_controller.html#a82e1e1f1eb84d1c30bde3a246304473e" target="_top" xlink:title="view.editor.TabViewController.init">
<polygon fill="white" stroke="black" points="713,-5.5 713,-24.5 883,-24.5 883,-5.5 713,-5.5"/>
<text text-anchor="middle" x="798" y="-12.5" font-family="Helvetica,sans-Serif" font-size="10.00">view.editor.TabViewController.init</text>
</a>
</g>
</g>
<!-- Node29&#45;&gt;Node30 -->
<g id="edge33" class="edge"><title>Node29&#45;&gt;Node30</title>
<path fill="none" stroke="midnightblue" d="M650.252,-15C671.11,-15 692.801,-15 712.906,-15"/>
<polygon fill="midnightblue" stroke="midnightblue" points="650.091,-11.5001 640.091,-15 650.091,-18.5001 650.091,-11.5001"/>
</g>
</g>
</svg>
        <g id="navigator" transform="translate(0 0)" fill="#404254">
                <rect fill="#f2f5e9" fill-opacity="0.5" stroke="#606060" stroke-width=".5" x="0" y="0" width="60" height="60"/>
                <use id="zoomplus" xlink:href="#zoomPlus" x="17" y="9" onmousedown="handleZoom(evt,'in')"/>
                <use id="zoomminus" xlink:href="#zoomMin" x="42" y="9" onmousedown="handleZoom(evt,'out')"/>
                <use id="reset" xlink:href="#resetDef" x="30" y="36" onmousedown="handleReset()"/>
                <g id="arrowUp" xlink:href="#dirArrow" transform="translate(30 24)" onmousedown="handlePan(0,-1)">
                  <use xlink:href="#rim" fill="#404040">
                        <set attributeName="fill" to="#808080" begin="arrowUp.mouseover" end="arrowUp.mouseout"/>
                  </use>
                  <path fill="none" stroke="white" stroke-width="1.5" d="M0,-3.0v7 M-2.5,-0.5L0,-3.0L2.5,-0.5"/>
                </g>
                <g id="arrowRight" xlink:href="#dirArrow" transform="rotate(90) translate(36 -43)" onmousedown="handlePan(1,0)">
                  <use xlink:href="#rim" fill="#404040">
                        <set attributeName="fill" to="#808080" begin="arrowRight.mouseover" end="arrowRight.mouseout"/>
                  </use>
                  <path fill="none" stroke="white" stroke-width="1.5" d="M0,-3.0v7 M-2.5,-0.5L0,-3.0L2.5,-0.5"/>
                </g>
                <g id="arrowDown" xlink:href="#dirArrow" transform="rotate(180) translate(-30 -48)" onmousedown="handlePan(0,1)">
                  <use xlink:href="#rim" fill="#404040">
                        <set attributeName="fill" to="#808080" begin="arrowDown.mouseover" end="arrowDown.mouseout"/>
                  </use>
                  <path fill="none" stroke="white" stroke-width="1.5" d="M0,-3.0v7 M-2.5,-0.5L0,-3.0L2.5,-0.5"/>
                </g>
                <g id="arrowLeft" xlink:href="#dirArrow" transform="rotate(270) translate(-36 17)" onmousedown="handlePan(-1,0)">
                  <use xlink:href="#rim" fill="#404040">
                        <set attributeName="fill" to="#808080" begin="arrowLeft.mouseover" end="arrowLeft.mouseout"/>
                  </use>
                  <path fill="none" stroke="white" stroke-width="1.5" d="M0,-3.0v7 M-2.5,-0.5L0,-3.0L2.5,-0.5"/>
                </g>
        </g>
        <svg viewBox="0 0 15 15" width="100%" height="30px" preserveAspectRatio="xMaxYMin meet">
         <g id="arrow_out" transform="scale(0.3 0.3)">
          <a xlink:href="classmodel_1_1data_1_1_wizard_data_a9cc5ffae61bf745c8aad40f05ee31ab4_icgraph_org.svg" target="_base">
           <rect id="button" ry="5" rx="5" y="6" x="6" height="38" width="38"
                fill="#f2f5e9" fill-opacity="0.5" stroke="#606060" stroke-width="1.0"/>
           <path id="arrow"
             d="M 11.500037,31.436501 C 11.940474,20.09759 22.043105,11.32322 32.158766,21.979434 L 37.068811,17.246167 C 37.068811,17.246167 37.088388,32 37.088388,32 L 22.160133,31.978069 C 22.160133,31.978069 26.997745,27.140456 26.997745,27.140456 C 18.528582,18.264221 13.291696,25.230495 11.500037,31.436501 z"
             style="fill:#404040;"/>
          </a>
         </g>
        </svg>
</svg>
