<?xml version="1.0" encoding="UTF-8" standalone="no"?>
<!DOCTYPE svg PUBLIC "-//W3C//DTD SVG 1.1//EN"
 "http://www.w3.org/Graphics/SVG/1.1/DTD/svg11.dtd">
<!-- Generated by graphviz version 2.36.0 (20140111.2315)
 -->
<!-- Title: model.data.WizardData.addWizardData Pages: 1 -->
<svg width="808pt" height="136pt"
 viewBox="0.00 0.00 808.00 136.00" xmlns="http://www.w3.org/2000/svg" xmlns:xlink="http://www.w3.org/1999/xlink">
<g id="graph0" class="graph" transform="scale(1 1) rotate(0) translate(4 132)">
<title>model.data.WizardData.addWizardData</title>
<polygon fill="white" stroke="none" points="-4,4 -4,-132 804,-132 804,4 -4,4"/>
<!-- Node1 -->
<g id="node1" class="node"><title>Node1</title>
<polygon fill="#bfbfbf" stroke="black" points="0,-24 0,-54 150,-54 150,-24 0,-24"/>
<text text-anchor="start" x="8" y="-42" font-family="Helvetica,sans-Serif" font-size="10.00">model.data.WizardData.add</text>
<text text-anchor="middle" x="75" y="-31" font-family="Helvetica,sans-Serif" font-size="10.00">WizardData</text>
</g>
<!-- Node2 -->
<g id="node2" class="node"><title>Node2</title>
<g id="a_node2"><a xlink:href="../../d7/d40/classview_1_1editor_1_1wizards_1_1_wizard.html#a7e20b5f8bde779fb1c6ee1c0bfab3e18" target="_top" xlink:title="view.editor.wizards.Wizard.add\lWizardData">
<polygon fill="white" stroke="black" points="204,-49 204,-79 364,-79 364,-49 204,-49"/>
<text text-anchor="start" x="212" y="-67" font-family="Helvetica,sans-Serif" font-size="10.00">view.editor.wizards.Wizard.add</text>
<text text-anchor="middle" x="284" y="-56" font-family="Helvetica,sans-Serif" font-size="10.00">WizardData</text>
</a>
</g>
</g>
<!-- Node1&#45;&gt;Node2 -->
<g id="edge1" class="edge"><title>Node1&#45;&gt;Node2</title>
<path fill="none" stroke="midnightblue" d="M160.465,-49.2011C174.779,-50.9299 189.597,-52.7194 203.771,-54.4312"/>
<polygon fill="midnightblue" stroke="midnightblue" points="160.495,-45.6793 150.147,-47.955 159.655,-52.6288 160.495,-45.6793"/>
</g>
<!-- Node7 -->
<g id="node7" class="node"><title>Node7</title>
<g id="a_node7"><a xlink:href="../../d0/da0/classmodel_1_1data_1_1_wizard_data_factory.html#a0c0eb91e1b531f96b715e1a9c0c45db9" target="_top" xlink:title="model.data.WizardDataFactory.create\lWizardData">
<polygon fill="white" stroke="black" points="186,-0 186,-30 382,-30 382,-0 186,-0"/>
<text text-anchor="start" x="194" y="-18" font-family="Helvetica,sans-Serif" font-size="10.00">model.data.WizardDataFactory.create</text>
<text text-anchor="middle" x="284" y="-7" font-family="Helvetica,sans-Serif" font-size="10.00">WizardData</text>
</a>
</g>
</g>
<!-- Node1&#45;&gt;Node7 -->
<g id="edge6" class="edge"><title>Node1&#45;&gt;Node7</title>
<path fill="none" stroke="midnightblue" d="M160.326,-29.2231C168.755,-28.2458 177.36,-27.2481 185.907,-26.2572"/>
<polygon fill="midnightblue" stroke="midnightblue" points="159.677,-25.7747 150.147,-30.4032 160.484,-32.7282 159.677,-25.7747"/>
</g>
<!-- Node3 -->
<g id="node3" class="node"><title>Node3</title>
<g id="a_node3"><a xlink:href="../../d7/d92/classview_1_1editor_1_1wizards_1_1_game_element_wizard.html#af1a70ba89d682d331e46be6a564472cd" target="_top" xlink:title="view.editor.wizards.Game\lElementWizard.launchBoundsWizard">
<polygon fill="white" stroke="black" points="418,-98 418,-128 608,-128 608,-98 418,-98"/>
<text text-anchor="start" x="426" y="-116" font-family="Helvetica,sans-Serif" font-size="10.00">view.editor.wizards.Game</text>
<text text-anchor="middle" x="513" y="-105" font-family="Helvetica,sans-Serif" font-size="10.00">ElementWizard.launchBoundsWizard</text>
</a>
</g>
</g>
<!-- Node2&#45;&gt;Node3 -->
<g id="edge2" class="edge"><title>Node2&#45;&gt;Node3</title>
<path fill="none" stroke="midnightblue" d="M364.614,-81.1854C389.998,-86.6647 417.871,-92.6815 442.482,-97.9938"/>
<polygon fill="midnightblue" stroke="midnightblue" points="365.164,-77.7235 354.65,-79.0346 363.687,-84.5659 365.164,-77.7235"/>
</g>
<!-- Node5 -->
<g id="node5" class="node"><title>Node5</title>
<g id="a_node5"><a xlink:href="../../d7/d92/classview_1_1editor_1_1wizards_1_1_game_element_wizard.html#a39050dce98611f314054cc4d59be86f4" target="_top" xlink:title="view.editor.wizards.Game\lElementWizard.storeContainerData">
<polygon fill="white" stroke="black" points="420.5,-49 420.5,-79 605.5,-79 605.5,-49 420.5,-49"/>
<text text-anchor="start" x="428.5" y="-67" font-family="Helvetica,sans-Serif" font-size="10.00">view.editor.wizards.Game</text>
<text text-anchor="middle" x="513" y="-56" font-family="Helvetica,sans-Serif" font-size="10.00">ElementWizard.storeContainerData</text>
</a>
</g>
</g>
<!-- Node2&#45;&gt;Node5 -->
<g id="edge4" class="edge"><title>Node2&#45;&gt;Node5</title>
<path fill="none" stroke="midnightblue" d="M374.418,-64C389.516,-64 405.211,-64 420.364,-64"/>
<polygon fill="midnightblue" stroke="midnightblue" points="374.075,-60.5001 364.075,-64 374.075,-67.5001 374.075,-60.5001"/>
</g>
<!-- Node4 -->
<g id="node4" class="node"><title>Node4</title>
<g id="a_node4"><a xlink:href="../../d7/d92/classview_1_1editor_1_1wizards_1_1_game_element_wizard.html#a108e1aaa06ef6b80a4a1d33d460cde06" target="_top" xlink:title="view.editor.wizards.Game\lElementWizard.initialize">
<polygon fill="white" stroke="black" points="653.5,-98 653.5,-128 790.5,-128 790.5,-98 653.5,-98"/>
<text text-anchor="start" x="661.5" y="-116" font-family="Helvetica,sans-Serif" font-size="10.00">view.editor.wizards.Game</text>
<text text-anchor="middle" x="722" y="-105" font-family="Helvetica,sans-Serif" font-size="10.00">ElementWizard.initialize</text>
</a>
</g>
</g>
<!-- Node3&#45;&gt;Node4 -->
<g id="edge3" class="edge"><title>Node3&#45;&gt;Node4</title>
<path fill="none" stroke="midnightblue" d="M618.16,-113C630.135,-113 642.099,-113 653.409,-113"/>
<polygon fill="midnightblue" stroke="midnightblue" points="618.112,-109.5 608.112,-113 618.112,-116.5 618.112,-109.5"/>
</g>
<!-- Node6 -->
<g id="node6" class="node"><title>Node6</title>
<g id="a_node6"><a xlink:href="../../d7/d92/classview_1_1editor_1_1wizards_1_1_game_element_wizard.html#a5aef02ce2b3e8f7470cd74aea63e4f6b" target="_top" xlink:title="view.editor.wizards.Game\lElementWizard.updateData">
<polygon fill="white" stroke="black" points="648,-49 648,-79 796,-79 796,-49 648,-49"/>
<text text-anchor="start" x="656" y="-67" font-family="Helvetica,sans-Serif" font-size="10.00">view.editor.wizards.Game</text>
<text text-anchor="middle" x="722" y="-56" font-family="Helvetica,sans-Serif" font-size="10.00">ElementWizard.updateData</text>
</a>
</g>
</g>
<!-- Node5&#45;&gt;Node6 -->
<g id="edge5" class="edge"><title>Node5&#45;&gt;Node6</title>
<path fill="none" stroke="midnightblue" d="M615.948,-64C626.663,-64 637.4,-64 647.7,-64"/>
<polygon fill="midnightblue" stroke="midnightblue" points="615.697,-60.5001 605.697,-64 615.697,-67.5001 615.697,-60.5001"/>
</g>
<!-- Node8 -->
<g id="node8" class="node"><title>Node8</title>
<g id="a_node8"><a xlink:href="../../d9/dfb/classview_1_1editor_1_1_element_accordion_controller.html#ac52ea89f2e0af7497883a0fd53199296" target="_top" xlink:title="view.editor.ElementAccordion\lController.createWizardData">
<polygon fill="white" stroke="black" points="435,-0 435,-30 591,-30 591,-0 435,-0"/>
<text text-anchor="start" x="443" y="-18" font-family="Helvetica,sans-Serif" font-size="10.00">view.editor.ElementAccordion</text>
<text text-anchor="middle" x="513" y="-7" font-family="Helvetica,sans-Serif" font-size="10.00">Controller.createWizardData</text>
</a>
</g>
</g>
<!-- Node7&#45;&gt;Node8 -->
<g id="edge7" class="edge"><title>Node7&#45;&gt;Node8</title>
<path fill="none" stroke="midnightblue" d="M392.598,-15C406.849,-15 421.225,-15 434.823,-15"/>
<polygon fill="midnightblue" stroke="midnightblue" points="392.256,-11.5001 382.256,-15 392.256,-18.5001 392.256,-11.5001"/>
</g>
<!-- Node9 -->
<g id="node9" class="node"><title>Node9</title>
<g id="a_node9"><a xlink:href="../../d9/dfb/classview_1_1editor_1_1_element_accordion_controller.html#af80453486ff349552dab988fb64397c0" target="_top" xlink:title="view.editor.ElementAccordion\lController.init">
<polygon fill="white" stroke="black" points="644,-0 644,-30 800,-30 800,-0 644,-0"/>
<text text-anchor="start" x="652" y="-18" font-family="Helvetica,sans-Serif" font-size="10.00">view.editor.ElementAccordion</text>
<text text-anchor="middle" x="722" y="-7" font-family="Helvetica,sans-Serif" font-size="10.00">Controller.init</text>
</a>
</g>
</g>
<!-- Node8&#45;&gt;Node9 -->
<g id="edge8" class="edge"><title>Node8&#45;&gt;Node9</title>
<path fill="none" stroke="midnightblue" d="M601.286,-15C615.426,-15 629.98,-15 643.856,-15"/>
<polygon fill="midnightblue" stroke="midnightblue" points="601.079,-11.5001 591.079,-15 601.079,-18.5001 601.079,-11.5001"/>
</g>
</g>
</svg>
