<?xml version="1.0" encoding="UTF-8" standalone="no"?>
<!DOCTYPE svg PUBLIC "-//W3C//DTD SVG 1.1//EN"
 "http://www.w3.org/Graphics/SVG/1.1/DTD/svg11.dtd">
<!-- Generated by graphviz version 2.36.0 (20140111.2315)
 -->
<!-- Title: model.data.WizardData.getWizardDataByType Pages: 1 -->
<svg width="1818pt" height="389pt"
 viewBox="0.00 0.00 1818.00 389.00" xmlns="http://www.w3.org/2000/svg" xmlns:xlink="http://www.w3.org/1999/xlink">
<g id="graph0" class="graph" transform="scale(1 1) rotate(0) translate(4 385)">
<title>model.data.WizardData.getWizardDataByType</title>
<polygon fill="white" stroke="none" points="-4,4 -4,-385 1814,-385 1814,4 -4,4"/>
<!-- Node1 -->
<g id="node1" class="node"><title>Node1</title>
<polygon fill="#bfbfbf" stroke="black" points="0,-175 0,-205 148,-205 148,-175 0,-175"/>
<text text-anchor="start" x="8" y="-193" font-family="Helvetica,sans-Serif" font-size="10.00">model.data.WizardData.get</text>
<text text-anchor="middle" x="74" y="-182" font-family="Helvetica,sans-Serif" font-size="10.00">WizardDataByType</text>
</g>
<!-- Node2 -->
<g id="node2" class="node"><title>Node2</title>
<g id="a_node2"><a xlink:href="../../d7/d92/classview_1_1editor_1_1wizards_1_1_game_element_wizard.html#a657ee6352e5119f1ec2fe9add8340899" target="_top" xlink:title="view.editor.wizards.Game\lElementWizard.addContainerData">
<polygon fill="white" stroke="black" points="458.5,-98 458.5,-128 637.5,-128 637.5,-98 458.5,-98"/>
<text text-anchor="start" x="466.5" y="-116" font-family="Helvetica,sans-Serif" font-size="10.00">view.editor.wizards.Game</text>
<text text-anchor="middle" x="548" y="-105" font-family="Helvetica,sans-Serif" font-size="10.00">ElementWizard.addContainerData</text>
</a>
</g>
</g>
<!-- Node1&#45;&gt;Node2 -->
<g id="edge1" class="edge"><title>Node1&#45;&gt;Node2</title>
<path fill="none" stroke="midnightblue" d="M123.526,-171.589C142.193,-165.14 163.858,-158.414 184,-154 276.308,-133.771 384.133,-123.201 458.143,-117.899"/>
<polygon fill="midnightblue" stroke="midnightblue" points="122.331,-168.299 114.061,-174.922 124.656,-174.902 122.331,-168.299"/>
</g>
<!-- Node7 -->
<g id="node7" class="node"><title>Node7</title>
<g id="a_node7"><a xlink:href="../../d1/d8e/classmodel_1_1_game_element_state_factory.html#a58beddcf86b79336d5f7de3c2c03f2a7" target="_top" xlink:title="model.GameElementStateFactory.add\lEssentials">
<polygon fill="white" stroke="black" points="448.5,-309 448.5,-339 647.5,-339 647.5,-309 448.5,-309"/>
<text text-anchor="start" x="456.5" y="-327" font-family="Helvetica,sans-Serif" font-size="10.00">model.GameElementStateFactory.add</text>
<text text-anchor="middle" x="548" y="-316" font-family="Helvetica,sans-Serif" font-size="10.00">Essentials</text>
</a>
</g>
</g>
<!-- Node1&#45;&gt;Node7 -->
<g id="edge7" class="edge"><title>Node1&#45;&gt;Node7</title>
<path fill="none" stroke="midnightblue" d="M89.7976,-213.439C108.202,-240.252 142.338,-282.906 184,-302 267.223,-340.143 372.626,-342.135 448.384,-336.692"/>
<polygon fill="midnightblue" stroke="midnightblue" points="92.6341,-211.384 84.1709,-205.01 86.8121,-215.271 92.6341,-211.384"/>
</g>
<!-- Node14 -->
<g id="node14" class="node"><title>Node14</title>
<g id="a_node14"><a xlink:href="../../d1/d8e/classmodel_1_1_game_element_state_factory.html#a0c7129019d734a04dfc2d6b6b25dc45d" target="_top" xlink:title="model.GameElementStateFactory.add\lToState">
<polygon fill="white" stroke="black" points="195.5,-351 195.5,-381 394.5,-381 394.5,-351 195.5,-351"/>
<text text-anchor="start" x="203.5" y="-369" font-family="Helvetica,sans-Serif" font-size="10.00">model.GameElementStateFactory.add</text>
<text text-anchor="middle" x="295" y="-358" font-family="Helvetica,sans-Serif" font-size="10.00">ToState</text>
</a>
</g>
</g>
<!-- Node1&#45;&gt;Node14 -->
<g id="edge16" class="edge"><title>Node1&#45;&gt;Node14</title>
<path fill="none" stroke="midnightblue" d="M86.5933,-214.282C103.441,-246.938 137.797,-304.535 184,-336 193.08,-342.184 203.394,-347.097 213.978,-350.998"/>
<polygon fill="midnightblue" stroke="midnightblue" points="89.5493,-212.369 81.933,-205.004 83.2942,-215.511 89.5493,-212.369"/>
</g>
<!-- Node15 -->
<g id="node15" class="node"><title>Node15</title>
<g id="a_node15"><a xlink:href="../../d7/d92/classview_1_1editor_1_1wizards_1_1_game_element_wizard.html#adb1e5f7288d7b0929d995f348c69d4bc" target="_top" xlink:title="view.editor.wizards.Game\lElementWizard.boundsAlreadyExist">
<polygon fill="white" stroke="black" points="202.5,-49 202.5,-79 387.5,-79 387.5,-49 202.5,-49"/>
<text text-anchor="start" x="210.5" y="-67" font-family="Helvetica,sans-Serif" font-size="10.00">view.editor.wizards.Game</text>
<text text-anchor="middle" x="295" y="-56" font-family="Helvetica,sans-Serif" font-size="10.00">ElementWizard.boundsAlreadyExist</text>
</a>
</g>
</g>
<!-- Node1&#45;&gt;Node15 -->
<g id="edge18" class="edge"><title>Node1&#45;&gt;Node15</title>
<path fill="none" stroke="midnightblue" d="M94.7237,-167.461C115.025,-145.616 148.608,-113.067 184,-94 195.24,-87.9444 207.799,-83.0359 220.299,-79.0808"/>
<polygon fill="midnightblue" stroke="midnightblue" points="92.0187,-165.233 87.8662,-174.98 97.1908,-169.95 92.0187,-165.233"/>
</g>
<!-- Node18 -->
<g id="node18" class="node"><title>Node18</title>
<g id="a_node18"><a xlink:href="../../d7/d92/classview_1_1editor_1_1wizards_1_1_game_element_wizard.html#a307d1b68df420edd610f0911f86a0f53" target="_top" xlink:title="view.editor.wizards.Game\lElementWizard.checkCanSave">
<polygon fill="white" stroke="black" points="214.5,-175 214.5,-205 375.5,-205 375.5,-175 214.5,-175"/>
<text text-anchor="start" x="222.5" y="-193" font-family="Helvetica,sans-Serif" font-size="10.00">view.editor.wizards.Game</text>
<text text-anchor="middle" x="295" y="-182" font-family="Helvetica,sans-Serif" font-size="10.00">ElementWizard.checkCanSave</text>
</a>
</g>
</g>
<!-- Node1&#45;&gt;Node18 -->
<g id="edge21" class="edge"><title>Node1&#45;&gt;Node18</title>
<path fill="none" stroke="midnightblue" d="M158.332,-190C176.738,-190 196.191,-190 214.443,-190"/>
<polygon fill="midnightblue" stroke="midnightblue" points="158.228,-186.5 148.228,-190 158.228,-193.5 158.228,-186.5"/>
</g>
<!-- Node19 -->
<g id="node19" class="node"><title>Node19</title>
<g id="a_node19"><a xlink:href="../../da/dbf/classmodel_1_1_animator_state_factory.html#a2ef84263b09d4839f9facf321402a9ec" target="_top" xlink:title="model.AnimatorStateFactory.create\lAnimationSequences">
<polygon fill="white" stroke="black" points="201.5,-263 201.5,-293 388.5,-293 388.5,-263 201.5,-263"/>
<text text-anchor="start" x="209.5" y="-281" font-family="Helvetica,sans-Serif" font-size="10.00">model.AnimatorStateFactory.create</text>
<text text-anchor="middle" x="295" y="-270" font-family="Helvetica,sans-Serif" font-size="10.00">AnimationSequences</text>
</a>
</g>
</g>
<!-- Node1&#45;&gt;Node19 -->
<g id="edge22" class="edge"><title>Node1&#45;&gt;Node19</title>
<path fill="none" stroke="midnightblue" d="M108.657,-210.426C129.739,-222.579 157.791,-237.604 184,-248 198.444,-253.729 214.373,-258.766 229.518,-262.996"/>
<polygon fill="midnightblue" stroke="midnightblue" points="110.184,-207.265 99.7839,-205.244 106.654,-213.31 110.184,-207.265"/>
</g>
<!-- Node22 -->
<g id="node22" class="node"><title>Node22</title>
<g id="a_node22"><a xlink:href="../../d1/d8e/classmodel_1_1_game_element_state_factory.html#a60449671abef528d48c1ea67bd20e4d1" target="_top" xlink:title="model.GameElementStateFactory.create\lAttributeDisplayerState">
<polygon fill="white" stroke="black" points="442,-211 442,-241 654,-241 654,-211 442,-211"/>
<text text-anchor="start" x="450" y="-229" font-family="Helvetica,sans-Serif" font-size="10.00">model.GameElementStateFactory.create</text>
<text text-anchor="middle" x="548" y="-218" font-family="Helvetica,sans-Serif" font-size="10.00">AttributeDisplayerState</text>
</a>
</g>
</g>
<!-- Node1&#45;&gt;Node22 -->
<g id="edge27" class="edge"><title>Node1&#45;&gt;Node22</title>
<path fill="none" stroke="midnightblue" d="M143.784,-207.148C157.053,-209.886 170.901,-212.356 184,-214 270.339,-224.839 369.077,-227.479 441.758,-227.61"/>
<polygon fill="midnightblue" stroke="midnightblue" points="144.282,-203.676 133.771,-205.011 142.82,-210.521 144.282,-203.676"/>
</g>
<!-- Node23 -->
<g id="node23" class="node"><title>Node23</title>
<g id="a_node23"><a xlink:href="../../d1/d8e/classmodel_1_1_game_element_state_factory.html#a6b5777519cf1169365801666a1c00054" target="_top" xlink:title="model.GameElementStateFactory.create\lBounds">
<polygon fill="white" stroke="black" points="442,-153 442,-183 654,-183 654,-153 442,-153"/>
<text text-anchor="start" x="450" y="-171" font-family="Helvetica,sans-Serif" font-size="10.00">model.GameElementStateFactory.create</text>
<text text-anchor="middle" x="548" y="-160" font-family="Helvetica,sans-Serif" font-size="10.00">Bounds</text>
</a>
</g>
</g>
<!-- Node1&#45;&gt;Node23 -->
<g id="edge29" class="edge"><title>Node1&#45;&gt;Node23</title>
<path fill="none" stroke="midnightblue" d="M139.391,-172.708C153.954,-169.504 169.423,-166.65 184,-165 270.42,-155.217 369.152,-156.853 441.809,-160.44"/>
<polygon fill="midnightblue" stroke="midnightblue" points="138.446,-169.334 129.476,-174.971 140.004,-176.158 138.446,-169.334"/>
</g>
<!-- Node24 -->
<g id="node24" class="node"><title>Node24</title>
<g id="a_node24"><a xlink:href="../../d7/d92/classview_1_1editor_1_1wizards_1_1_game_element_wizard.html#ad27c5e1a925add12e871ed6ba932d317" target="_top" xlink:title="view.editor.wizards.Game\lElementWizard.getBoundsFromWizardData">
<polygon fill="white" stroke="black" points="184.5,-0 184.5,-30 405.5,-30 405.5,-0 184.5,-0"/>
<text text-anchor="start" x="192.5" y="-18" font-family="Helvetica,sans-Serif" font-size="10.00">view.editor.wizards.Game</text>
<text text-anchor="middle" x="295" y="-7" font-family="Helvetica,sans-Serif" font-size="10.00">ElementWizard.getBoundsFromWizardData</text>
</a>
</g>
</g>
<!-- Node1&#45;&gt;Node24 -->
<g id="edge31" class="edge"><title>Node1&#45;&gt;Node24</title>
<path fill="none" stroke="midnightblue" d="M85.6791,-165.498C101.823,-131.493 135.761,-70.6172 184,-39 189.231,-35.5712 194.874,-32.6246 200.742,-30.0933"/>
<polygon fill="midnightblue" stroke="midnightblue" points="82.4318,-164.182 81.4218,-174.729 88.7883,-167.114 82.4318,-164.182"/>
</g>
<!-- Node3 -->
<g id="node3" class="node"><title>Node3</title>
<g id="a_node3"><a xlink:href="../../d7/d92/classview_1_1editor_1_1wizards_1_1_game_element_wizard.html#abe8ad6d8e7a4eec7b8184d12047755be" target="_top" xlink:title="view.editor.wizards.Game\lElementWizard.launchForEdit">
<polygon fill="white" stroke="black" points="1201.5,-225 1201.5,-255 1356.5,-255 1356.5,-225 1201.5,-225"/>
<text text-anchor="start" x="1209.5" y="-243" font-family="Helvetica,sans-Serif" font-size="10.00">view.editor.wizards.Game</text>
<text text-anchor="middle" x="1279" y="-232" font-family="Helvetica,sans-Serif" font-size="10.00">ElementWizard.launchForEdit</text>
</a>
</g>
</g>
<!-- Node2&#45;&gt;Node3 -->
<g id="edge2" class="edge"><title>Node2&#45;&gt;Node3</title>
<path fill="none" stroke="midnightblue" d="M647.872,-120.595C768.11,-131.4 976.501,-155.191 1150,-201 1166.6,-205.383 1169.69,-209.631 1186,-215 1196.53,-218.468 1207.85,-221.834 1218.83,-224.913"/>
<polygon fill="midnightblue" stroke="midnightblue" points="647.856,-117.08 637.586,-119.683 647.238,-124.053 647.856,-117.08"/>
</g>
<!-- Node4 -->
<g id="node4" class="node"><title>Node4</title>
<g id="a_node4"><a xlink:href="../../d9/dfb/classview_1_1editor_1_1_element_accordion_controller.html#a8564fdf017fa6f25e3e663cf076e0c04" target="_top" xlink:title="view.editor.ElementAccordion\lController.openSelectableGameElement\lWizard">
<polygon fill="white" stroke="black" points="1408.5,-189.5 1408.5,-230.5 1617.5,-230.5 1617.5,-189.5 1408.5,-189.5"/>
<text text-anchor="start" x="1416.5" y="-218.5" font-family="Helvetica,sans-Serif" font-size="10.00">view.editor.ElementAccordion</text>
<text text-anchor="start" x="1416.5" y="-207.5" font-family="Helvetica,sans-Serif" font-size="10.00">Controller.openSelectableGameElement</text>
<text text-anchor="middle" x="1513" y="-196.5" font-family="Helvetica,sans-Serif" font-size="10.00">Wizard</text>
</a>
</g>
</g>
<!-- Node3&#45;&gt;Node4 -->
<g id="edge3" class="edge"><title>Node3&#45;&gt;Node4</title>
<path fill="none" stroke="midnightblue" d="M1366.8,-228.776C1380.28,-227.032 1394.33,-225.216 1408.15,-223.429"/>
<polygon fill="midnightblue" stroke="midnightblue" points="1366.08,-225.34 1356.61,-230.094 1366.97,-232.282 1366.08,-225.34"/>
</g>
<!-- Node6 -->
<g id="node6" class="node"><title>Node6</title>
<g id="a_node6"><a xlink:href="../../d9/dfb/classview_1_1editor_1_1_element_accordion_controller.html#a71bb33e7588f335fc2ebc1346924ad2d" target="_top" xlink:title="view.editor.ElementAccordion\lController.openDrawableGameElement\lWizard">
<polygon fill="white" stroke="black" points="1411.5,-249.5 1411.5,-290.5 1614.5,-290.5 1614.5,-249.5 1411.5,-249.5"/>
<text text-anchor="start" x="1419.5" y="-278.5" font-family="Helvetica,sans-Serif" font-size="10.00">view.editor.ElementAccordion</text>
<text text-anchor="start" x="1419.5" y="-267.5" font-family="Helvetica,sans-Serif" font-size="10.00">Controller.openDrawableGameElement</text>
<text text-anchor="middle" x="1513" y="-256.5" font-family="Helvetica,sans-Serif" font-size="10.00">Wizard</text>
</a>
</g>
</g>
<!-- Node3&#45;&gt;Node6 -->
<g id="edge5" class="edge"><title>Node3&#45;&gt;Node6</title>
<path fill="none" stroke="midnightblue" d="M1366.61,-251.2C1381.24,-253.091 1396.53,-255.069 1411.47,-257.001"/>
<polygon fill="midnightblue" stroke="midnightblue" points="1366.97,-247.718 1356.61,-249.906 1366.08,-254.66 1366.97,-247.718"/>
</g>
<!-- Node5 -->
<g id="node5" class="node"><title>Node5</title>
<g id="a_node5"><a xlink:href="../../d9/dfb/classview_1_1editor_1_1_element_accordion_controller.html#af80453486ff349552dab988fb64397c0" target="_top" xlink:title="view.editor.ElementAccordion\lController.init">
<polygon fill="white" stroke="black" points="1654,-225 1654,-255 1810,-255 1810,-225 1654,-225"/>
<text text-anchor="start" x="1662" y="-243" font-family="Helvetica,sans-Serif" font-size="10.00">view.editor.ElementAccordion</text>
<text text-anchor="middle" x="1732" y="-232" font-family="Helvetica,sans-Serif" font-size="10.00">Controller.init</text>
</a>
</g>
</g>
<!-- Node4&#45;&gt;Node5 -->
<g id="edge4" class="edge"><title>Node4&#45;&gt;Node5</title>
<path fill="none" stroke="midnightblue" d="M1627.75,-225.726C1636.62,-226.951 1645.43,-228.171 1653.97,-229.351"/>
<polygon fill="midnightblue" stroke="midnightblue" points="1628.12,-222.244 1617.73,-224.341 1627.16,-229.178 1628.12,-222.244"/>
</g>
<!-- Node6&#45;&gt;Node5 -->
<g id="edge6" class="edge"><title>Node6&#45;&gt;Node5</title>
<path fill="none" stroke="midnightblue" d="M1624.47,-254.727C1634.39,-253.356 1644.28,-251.988 1653.82,-250.669"/>
<polygon fill="midnightblue" stroke="midnightblue" points="1623.99,-251.261 1614.56,-256.098 1624.94,-258.195 1623.99,-251.261"/>
</g>
<!-- Node8 -->
<g id="node8" class="node"><title>Node8</title>
<g id="a_node8"><a xlink:href="../../d1/d8e/classmodel_1_1_game_element_state_factory.html#a46a26fb8160e1cbef9933f6eb5779ccf" target="_top" xlink:title="model.GameElementStateFactory.create\lDrawableGameElementState">
<polygon fill="white" stroke="black" points="938,-274 938,-304 1150,-304 1150,-274 938,-274"/>
<text text-anchor="start" x="946" y="-292" font-family="Helvetica,sans-Serif" font-size="10.00">model.GameElementStateFactory.create</text>
<text text-anchor="middle" x="1044" y="-281" font-family="Helvetica,sans-Serif" font-size="10.00">DrawableGameElementState</text>
</a>
</g>
</g>
<!-- Node7&#45;&gt;Node8 -->
<g id="edge8" class="edge"><title>Node7&#45;&gt;Node8</title>
<path fill="none" stroke="midnightblue" d="M657.792,-316.292C741.18,-310.384 855.56,-302.28 937.991,-296.44"/>
<polygon fill="midnightblue" stroke="midnightblue" points="657.509,-312.803 647.781,-317.001 658.003,-319.786 657.509,-312.803"/>
</g>
<!-- Node10 -->
<g id="node10" class="node"><title>Node10</title>
<g id="a_node10"><a xlink:href="../../d1/d8e/classmodel_1_1_game_element_state_factory.html#ae86793b00959ab2c973f3854c0756d83" target="_top" xlink:title="model.GameElementStateFactory.create\lGameElementState">
<polygon fill="white" stroke="black" points="690,-337 690,-367 902,-367 902,-337 690,-337"/>
<text text-anchor="start" x="698" y="-355" font-family="Helvetica,sans-Serif" font-size="10.00">model.GameElementStateFactory.create</text>
<text text-anchor="middle" x="796" y="-344" font-family="Helvetica,sans-Serif" font-size="10.00">GameElementState</text>
</a>
</g>
</g>
<!-- Node7&#45;&gt;Node10 -->
<g id="edge11" class="edge"><title>Node7&#45;&gt;Node10</title>
<path fill="none" stroke="midnightblue" d="M657.806,-336.384C668.466,-337.598 679.271,-338.828 689.893,-340.037"/>
<polygon fill="midnightblue" stroke="midnightblue" points="657.972,-332.881 647.64,-335.227 657.18,-339.836 657.972,-332.881"/>
</g>
<!-- Node12 -->
<g id="node12" class="node"><title>Node12</title>
<g id="a_node12"><a xlink:href="../../d1/d8e/classmodel_1_1_game_element_state_factory.html#a01ab3f8684cbf92bbf9443105065d472" target="_top" xlink:title="model.GameElementStateFactory.create\lSelectableGameElementState">
<polygon fill="white" stroke="black" points="938,-211 938,-241 1150,-241 1150,-211 938,-211"/>
<text text-anchor="start" x="946" y="-229" font-family="Helvetica,sans-Serif" font-size="10.00">model.GameElementStateFactory.create</text>
<text text-anchor="middle" x="1044" y="-218" font-family="Helvetica,sans-Serif" font-size="10.00">SelectableGameElementState</text>
</a>
</g>
</g>
<!-- Node7&#45;&gt;Node12 -->
<g id="edge13" class="edge"><title>Node7&#45;&gt;Node12</title>
<path fill="none" stroke="midnightblue" d="M631.365,-306.918C650.599,-302.968 671.012,-298.808 690,-295 784.44,-276.059 893.23,-254.892 964.791,-241.059"/>
<polygon fill="midnightblue" stroke="midnightblue" points="630.518,-303.519 621.428,-308.962 631.928,-310.376 630.518,-303.519"/>
</g>
<!-- Node9 -->
<g id="node9" class="node"><title>Node9</title>
<g id="a_node9"><a xlink:href="../../de/d21/classmodel_1_1_main_model.html#ad0bb08a7d763bbd67aa5ac062dde5121" target="_top" xlink:title="model.MainModel.createDrawable\lGameElementState">
<polygon fill="white" stroke="black" points="1189.5,-274 1189.5,-304 1368.5,-304 1368.5,-274 1189.5,-274"/>
<text text-anchor="start" x="1197.5" y="-292" font-family="Helvetica,sans-Serif" font-size="10.00">model.MainModel.createDrawable</text>
<text text-anchor="middle" x="1279" y="-281" font-family="Helvetica,sans-Serif" font-size="10.00">GameElementState</text>
</a>
</g>
</g>
<!-- Node8&#45;&gt;Node9 -->
<g id="edge9" class="edge"><title>Node8&#45;&gt;Node9</title>
<path fill="none" stroke="midnightblue" d="M1160.35,-289C1170.06,-289 1179.78,-289 1189.24,-289"/>
<polygon fill="midnightblue" stroke="midnightblue" points="1160.25,-285.5 1150.25,-289 1160.25,-292.5 1160.25,-285.5"/>
</g>
<!-- Node9&#45;&gt;Node6 -->
<g id="edge10" class="edge"><title>Node9&#45;&gt;Node6</title>
<path fill="none" stroke="midnightblue" d="M1378.92,-280.899C1389.65,-280.02 1400.58,-279.125 1411.34,-278.244"/>
<polygon fill="midnightblue" stroke="midnightblue" points="1378.38,-277.431 1368.7,-281.736 1378.95,-284.408 1378.38,-277.431"/>
</g>
<!-- Node11 -->
<g id="node11" class="node"><title>Node11</title>
<g id="a_node11"><a xlink:href="../../de/d21/classmodel_1_1_main_model.html#a5cd9871b7c458b6efd3599a41e2ff939" target="_top" xlink:title="model.MainModel.createGame\lElementState">
<polygon fill="white" stroke="black" points="962,-337 962,-367 1126,-367 1126,-337 962,-337"/>
<text text-anchor="start" x="970" y="-355" font-family="Helvetica,sans-Serif" font-size="10.00">model.MainModel.createGame</text>
<text text-anchor="middle" x="1044" y="-344" font-family="Helvetica,sans-Serif" font-size="10.00">ElementState</text>
</a>
</g>
</g>
<!-- Node10&#45;&gt;Node11 -->
<g id="edge12" class="edge"><title>Node10&#45;&gt;Node11</title>
<path fill="none" stroke="midnightblue" d="M912.388,-352C929.065,-352 945.93,-352 961.749,-352"/>
<polygon fill="midnightblue" stroke="midnightblue" points="912.04,-348.5 902.04,-352 912.04,-355.5 912.04,-348.5"/>
</g>
<!-- Node13 -->
<g id="node13" class="node"><title>Node13</title>
<g id="a_node13"><a xlink:href="../../de/d21/classmodel_1_1_main_model.html#a68bd2e83a07b0563f2100087fc429b22" target="_top" xlink:title="model.MainModel.createSelectable\lGameElementState">
<polygon fill="white" stroke="black" points="1186.5,-176 1186.5,-206 1371.5,-206 1371.5,-176 1186.5,-176"/>
<text text-anchor="start" x="1194.5" y="-194" font-family="Helvetica,sans-Serif" font-size="10.00">model.MainModel.createSelectable</text>
<text text-anchor="middle" x="1279" y="-183" font-family="Helvetica,sans-Serif" font-size="10.00">GameElementState</text>
</a>
</g>
</g>
<!-- Node12&#45;&gt;Node13 -->
<g id="edge14" class="edge"><title>Node12&#45;&gt;Node13</title>
<path fill="none" stroke="midnightblue" d="M1155.16,-209.453C1165.61,-207.883 1176.13,-206.302 1186.38,-204.762"/>
<polygon fill="midnightblue" stroke="midnightblue" points="1154.53,-206.007 1145.17,-210.954 1155.57,-212.929 1154.53,-206.007"/>
</g>
<!-- Node13&#45;&gt;Node4 -->
<g id="edge15" class="edge"><title>Node13&#45;&gt;Node4</title>
<path fill="none" stroke="midnightblue" d="M1381.92,-199.347C1390.68,-200.065 1399.56,-200.791 1408.34,-201.51"/>
<polygon fill="midnightblue" stroke="midnightblue" points="1381.94,-195.837 1371.69,-198.509 1381.37,-202.814 1381.94,-195.837"/>
</g>
<!-- Node14&#45;&gt;Node7 -->
<g id="edge17" class="edge"><title>Node14&#45;&gt;Node7</title>
<path fill="none" stroke="midnightblue" d="M395.795,-349.301C416.109,-345.902 437.361,-342.346 457.298,-339.01"/>
<polygon fill="midnightblue" stroke="midnightblue" points="395.193,-345.853 385.908,-350.956 396.348,-352.757 395.193,-345.853"/>
</g>
<!-- Node16 -->
<g id="node16" class="node"><title>Node16</title>
<g id="a_node16"><a xlink:href="../../d7/d92/classview_1_1editor_1_1wizards_1_1_game_element_wizard.html#af1a70ba89d682d331e46be6a564472cd" target="_top" xlink:title="view.editor.wizards.Game\lElementWizard.launchBoundsWizard">
<polygon fill="white" stroke="black" points="453,-27 453,-57 643,-57 643,-27 453,-27"/>
<text text-anchor="start" x="461" y="-45" font-family="Helvetica,sans-Serif" font-size="10.00">view.editor.wizards.Game</text>
<text text-anchor="middle" x="548" y="-34" font-family="Helvetica,sans-Serif" font-size="10.00">ElementWizard.launchBoundsWizard</text>
</a>
</g>
</g>
<!-- Node15&#45;&gt;Node16 -->
<g id="edge19" class="edge"><title>Node15&#45;&gt;Node16</title>
<path fill="none" stroke="midnightblue" d="M397.686,-55.0873C415.838,-53.4962 434.681,-51.8447 452.618,-50.2725"/>
<polygon fill="midnightblue" stroke="midnightblue" points="397.338,-51.6042 387.682,-55.9641 397.95,-58.5775 397.338,-51.6042"/>
</g>
<!-- Node17 -->
<g id="node17" class="node"><title>Node17</title>
<g id="a_node17"><a xlink:href="../../d7/d92/classview_1_1editor_1_1wizards_1_1_game_element_wizard.html#a108e1aaa06ef6b80a4a1d33d460cde06" target="_top" xlink:title="view.editor.wizards.Game\lElementWizard.initialize">
<polygon fill="white" stroke="black" points="727.5,-27 727.5,-57 864.5,-57 864.5,-27 727.5,-27"/>
<text text-anchor="start" x="735.5" y="-45" font-family="Helvetica,sans-Serif" font-size="10.00">view.editor.wizards.Game</text>
<text text-anchor="middle" x="796" y="-34" font-family="Helvetica,sans-Serif" font-size="10.00">ElementWizard.initialize</text>
</a>
</g>
</g>
<!-- Node16&#45;&gt;Node17 -->
<g id="edge20" class="edge"><title>Node16&#45;&gt;Node17</title>
<path fill="none" stroke="midnightblue" d="M653.338,-42C678.387,-42 704.495,-42 727.372,-42"/>
<polygon fill="midnightblue" stroke="midnightblue" points="653.055,-38.5001 643.055,-42 653.055,-45.5001 653.055,-38.5001"/>
</g>
<!-- Node20 -->
<g id="node20" class="node"><title>Node20</title>
<g id="a_node20"><a xlink:href="../../da/dbf/classmodel_1_1_animator_state_factory.html#a3a7f05242a6a9f5d2552b22c6e172175" target="_top" xlink:title="model.AnimatorStateFactory.create\lAnimatorState">
<polygon fill="white" stroke="black" points="454.5,-260 454.5,-290 641.5,-290 641.5,-260 454.5,-260"/>
<text text-anchor="start" x="462.5" y="-278" font-family="Helvetica,sans-Serif" font-size="10.00">model.AnimatorStateFactory.create</text>
<text text-anchor="middle" x="548" y="-267" font-family="Helvetica,sans-Serif" font-size="10.00">AnimatorState</text>
</a>
</g>
</g>
<!-- Node19&#45;&gt;Node20 -->
<g id="edge23" class="edge"><title>Node19&#45;&gt;Node20</title>
<path fill="none" stroke="midnightblue" d="M398.855,-276.771C417.186,-276.552 436.183,-276.325 454.212,-276.109"/>
<polygon fill="midnightblue" stroke="midnightblue" points="398.707,-273.272 388.75,-276.891 398.791,-280.272 398.707,-273.272"/>
</g>
<!-- Node21 -->
<g id="node21" class="node"><title>Node21</title>
<g id="a_node21"><a xlink:href="../../d1/d8e/classmodel_1_1_game_element_state_factory.html#aa01cfae3c582df2eb11c39dd076c5096" target="_top" xlink:title="model.GameElementStateFactory.add\lVisuals">
<polygon fill="white" stroke="black" points="696.5,-211 696.5,-241 895.5,-241 895.5,-211 696.5,-211"/>
<text text-anchor="start" x="704.5" y="-229" font-family="Helvetica,sans-Serif" font-size="10.00">model.GameElementStateFactory.add</text>
<text text-anchor="middle" x="796" y="-218" font-family="Helvetica,sans-Serif" font-size="10.00">Visuals</text>
</a>
</g>
</g>
<!-- Node20&#45;&gt;Node21 -->
<g id="edge24" class="edge"><title>Node20&#45;&gt;Node21</title>
<path fill="none" stroke="midnightblue" d="M634.548,-257.96C662.251,-252.442 692.757,-246.366 719.663,-241.006"/>
<polygon fill="midnightblue" stroke="midnightblue" points="633.603,-254.579 624.48,-259.965 634.971,-261.444 633.603,-254.579"/>
</g>
<!-- Node21&#45;&gt;Node8 -->
<g id="edge25" class="edge"><title>Node21&#45;&gt;Node8</title>
<path fill="none" stroke="midnightblue" d="M865.422,-243.523C902.824,-253.101 948.672,-264.843 984.413,-273.996"/>
<polygon fill="midnightblue" stroke="midnightblue" points="866.166,-240.1 855.611,-241.01 864.43,-246.882 866.166,-240.1"/>
</g>
<!-- Node21&#45;&gt;Node12 -->
<g id="edge26" class="edge"><title>Node21&#45;&gt;Node12</title>
<path fill="none" stroke="midnightblue" d="M905.806,-226C916.466,-226 927.271,-226 937.893,-226"/>
<polygon fill="midnightblue" stroke="midnightblue" points="905.64,-222.5 895.64,-226 905.64,-229.5 905.64,-222.5"/>
</g>
<!-- Node22&#45;&gt;Node21 -->
<g id="edge28" class="edge"><title>Node22&#45;&gt;Node21</title>
<path fill="none" stroke="midnightblue" d="M664.237,-226C674.909,-226 685.659,-226 696.165,-226"/>
<polygon fill="midnightblue" stroke="midnightblue" points="664.04,-222.5 654.04,-226 664.04,-229.5 664.04,-222.5"/>
</g>
<!-- Node23&#45;&gt;Node21 -->
<g id="edge30" class="edge"><title>Node23&#45;&gt;Node21</title>
<path fill="none" stroke="midnightblue" d="M622.702,-185.377C657.232,-193.518 697.974,-203.124 731.169,-210.95"/>
<polygon fill="midnightblue" stroke="midnightblue" points="623.207,-181.9 612.671,-183.012 621.601,-188.713 623.207,-181.9"/>
</g>
<!-- Node24&#45;&gt;Node16 -->
<g id="edge32" class="edge"><title>Node24&#45;&gt;Node16</title>
<path fill="none" stroke="midnightblue" d="M415.696,-27.8757C428.159,-29.2163 440.698,-30.5651 452.821,-31.8692"/>
<polygon fill="midnightblue" stroke="midnightblue" points="416.044,-24.393 405.727,-26.8033 415.295,-31.3529 416.044,-24.393"/>
</g>
</g>
</svg>
