<?xml version="1.0" encoding="UTF-8" standalone="no"?>
<!DOCTYPE svg PUBLIC "-//W3C//DTD SVG 1.1//EN"
 "http://www.w3.org/Graphics/SVG/1.1/DTD/svg11.dtd">
<!-- Generated by graphviz version 2.36.0 (20140111.2315)
 -->
<!-- Title: util.multilanguage.MultiLanguageUtility.createStringProperties Pages: 1 -->
<svg width="1000pt" height="87pt"
 viewBox="0.00 0.00 1000.00 87.00" xmlns="http://www.w3.org/2000/svg" xmlns:xlink="http://www.w3.org/1999/xlink">
<g id="graph0" class="graph" transform="scale(1 1) rotate(0) translate(4 83)">
<title>util.multilanguage.MultiLanguageUtility.createStringProperties</title>
<polygon fill="white" stroke="none" points="-4,4 -4,-83 996,-83 996,4 -4,4"/>
<!-- Node1 -->
<g id="node1" class="node"><title>Node1</title>
<polygon fill="#bfbfbf" stroke="black" points="0,-18.5 0,-59.5 152,-59.5 152,-18.5 0,-18.5"/>
<text text-anchor="start" x="8" y="-47.5" font-family="Helvetica,sans-Serif" font-size="10.00">util.multilanguage.Multi</text>
<text text-anchor="start" x="8" y="-36.5" font-family="Helvetica,sans-Serif" font-size="10.00">LanguageUtility.createString</text>
<text text-anchor="middle" x="76" y="-25.5" font-family="Helvetica,sans-Serif" font-size="10.00">Properties</text>
</g>
<!-- Node2 -->
<g id="node2" class="node"><title>Node2</title>
<g id="a_node2"><a xlink:href="../../d4/d81/classutil_1_1multilanguage_1_1_multi_language_utility.html#ac4432e1fec53f64c1538f9e0166d8f75" target="_top" xlink:title="util.multilanguage.Multi\lLanguageUtility.updateProperties">
<polygon fill="white" stroke="black" points="188.5,-24 188.5,-54 363.5,-54 363.5,-24 188.5,-24"/>
<text text-anchor="start" x="196.5" y="-42" font-family="Helvetica,sans-Serif" font-size="10.00">util.multilanguage.Multi</text>
<text text-anchor="middle" x="276" y="-31" font-family="Helvetica,sans-Serif" font-size="10.00">LanguageUtility.updateProperties</text>
</a>
</g>
</g>
<!-- Node1&#45;&gt;Node2 -->
<g id="edge1" class="edge"><title>Node1&#45;&gt;Node2</title>
<path fill="none" stroke="midnightblue" d="M162.205,-39C170.851,-39 179.639,-39 188.301,-39"/>
<polygon fill="midnightblue" stroke="midnightblue" points="162.138,-35.5001 152.138,-39 162.138,-42.5001 162.138,-35.5001"/>
</g>
<!-- Node3 -->
<g id="node3" class="node"><title>Node3</title>
<g id="a_node3"><a xlink:href="../../d4/d81/classutil_1_1multilanguage_1_1_multi_language_utility.html#add72c0b24afe1ea168cff2583d8b35c7" target="_top" xlink:title="util.multilanguage.Multi\lLanguageUtility.initLanguages">
<polygon fill="white" stroke="black" points="400.5,-49 400.5,-79 559.5,-79 559.5,-49 400.5,-49"/>
<text text-anchor="start" x="408.5" y="-67" font-family="Helvetica,sans-Serif" font-size="10.00">util.multilanguage.Multi</text>
<text text-anchor="middle" x="480" y="-56" font-family="Helvetica,sans-Serif" font-size="10.00">LanguageUtility.initLanguages</text>
</a>
</g>
</g>
<!-- Node2&#45;&gt;Node3 -->
<g id="edge2" class="edge"><title>Node2&#45;&gt;Node3</title>
<path fill="none" stroke="midnightblue" d="M373.609,-50.9565C382.553,-52.0634 391.542,-53.176 400.297,-54.2595"/>
<polygon fill="midnightblue" stroke="midnightblue" points="373.899,-47.4659 363.545,-49.711 373.04,-54.4129 373.899,-47.4659"/>
</g>
<!-- Node5 -->
<g id="node5" class="node"><title>Node5</title>
<g id="a_node5"><a xlink:href="../../d4/d81/classutil_1_1multilanguage_1_1_multi_language_utility.html#a87a79a63384474ed2c5e31bbd4c90000" target="_top" xlink:title="util.multilanguage.Multi\lLanguageUtility.setLanguage">
<polygon fill="white" stroke="black" points="402.5,-0 402.5,-30 557.5,-30 557.5,-0 402.5,-0"/>
<text text-anchor="start" x="410.5" y="-18" font-family="Helvetica,sans-Serif" font-size="10.00">util.multilanguage.Multi</text>
<text text-anchor="middle" x="480" y="-7" font-family="Helvetica,sans-Serif" font-size="10.00">LanguageUtility.setLanguage</text>
</a>
</g>
</g>
<!-- Node2&#45;&gt;Node5 -->
<g id="edge4" class="edge"><title>Node2&#45;&gt;Node5</title>
<path fill="none" stroke="midnightblue" d="M373.533,-27.5308C383.15,-26.3882 392.82,-25.2392 402.196,-24.1252"/>
<polygon fill="midnightblue" stroke="midnightblue" points="373.062,-24.0619 363.545,-28.7174 373.888,-31.013 373.062,-24.0619"/>
</g>
<!-- Node4 -->
<g id="node4" class="node"><title>Node4</title>
<g id="a_node4"><a xlink:href="../../d1/d75/classview_1_1_main_view.html#a2b8a45380eae155860ea6833e7f7f54d" target="_top" xlink:title="view.MainView.MainView">
<polygon fill="white" stroke="black" points="621,-54.5 621,-73.5 751,-73.5 751,-54.5 621,-54.5"/>
<text text-anchor="middle" x="686" y="-61.5" font-family="Helvetica,sans-Serif" font-size="10.00">view.MainView.MainView</text>
</a>
</g>
</g>
<!-- Node3&#45;&gt;Node4 -->
<g id="edge3" class="edge"><title>Node3&#45;&gt;Node4</title>
<path fill="none" stroke="midnightblue" d="M569.67,-64C586.934,-64 604.716,-64 620.993,-64"/>
<polygon fill="midnightblue" stroke="midnightblue" points="569.58,-60.5001 559.58,-64 569.58,-67.5001 569.58,-60.5001"/>
</g>
<!-- Node6 -->
<g id="node6" class="node"><title>Node6</title>
<g id="a_node6"><a xlink:href="../../d1/d74/classeditor_1_1_editor_menu_bar_controller.html#a5acd8a713919e01a6189611fad93a37a" target="_top" xlink:title="editor.EditorMenuBarController.init\lLanguageMenu">
<polygon fill="white" stroke="black" points="596,-0 596,-30 776,-30 776,-0 596,-0"/>
<text text-anchor="start" x="604" y="-18" font-family="Helvetica,sans-Serif" font-size="10.00">editor.EditorMenuBarController.init</text>
<text text-anchor="middle" x="686" y="-7" font-family="Helvetica,sans-Serif" font-size="10.00">LanguageMenu</text>
</a>
</g>
</g>
<!-- Node5&#45;&gt;Node6 -->
<g id="edge5" class="edge"><title>Node5&#45;&gt;Node6</title>
<path fill="none" stroke="midnightblue" d="M567.552,-15C576.853,-15 586.331,-15 595.664,-15"/>
<polygon fill="midnightblue" stroke="midnightblue" points="567.543,-11.5001 557.542,-15 567.542,-18.5001 567.543,-11.5001"/>
</g>
<!-- Node7 -->
<g id="node7" class="node"><title>Node7</title>
<g id="a_node7"><a xlink:href="../../d1/d74/classeditor_1_1_editor_menu_bar_controller.html#a5e27bce310879b43b5726c8b90f98743" target="_top" xlink:title="editor.EditorMenuBarController.init">
<polygon fill="white" stroke="black" points="812,-5.5 812,-24.5 992,-24.5 992,-5.5 812,-5.5"/>
<text text-anchor="middle" x="902" y="-12.5" font-family="Helvetica,sans-Serif" font-size="10.00">editor.EditorMenuBarController.init</text>
</a>
</g>
</g>
<!-- Node6&#45;&gt;Node7 -->
<g id="edge6" class="edge"><title>Node6&#45;&gt;Node7</title>
<path fill="none" stroke="midnightblue" d="M786.23,-15C794.807,-15 803.45,-15 811.939,-15"/>
<polygon fill="midnightblue" stroke="midnightblue" points="786.206,-11.5001 776.206,-15 786.206,-18.5001 786.206,-11.5001"/>
</g>
</g>
</svg>
