<?xml version="1.0" encoding="UTF-8" standalone="no"?>
<!DOCTYPE svg PUBLIC "-//W3C//DTD SVG 1.1//EN"
 "http://www.w3.org/Graphics/SVG/1.1/DTD/svg11.dtd">
<!-- Generated by graphviz version 2.36.0 (20140111.2315)
 -->
<!-- Title: util.multilanguage.MultiLanguageUtility.getStringProperty Pages: 1 -->
<!--zoomable 224 -->
<svg id="main" version="1.1" xmlns="http://www.w3.org/2000/svg" xmlns:xlink="http://www.w3.org/1999/xlink" xml:space="preserve" onload="init(evt)">
<style type="text/css"><![CDATA[
.edge:hover path { stroke: red; }
.edge:hover polygon { stroke: red; fill: red; }
]]></style>
<script type="text/javascript"><![CDATA[
var edges = document.getElementsByTagName('g');
if (edges && edges.length) {
  for (var i=0;i<edges.length;i++) {
    if (edges[i].id.substr(0,4)=='edge') {
      edges[i].setAttribute('class','edge');
    }
  }
}
]]></script>
        <defs>
                <circle id="rim" cx="0" cy="0" r="7"/>
                <circle id="rim2" cx="0" cy="0" r="3.5"/>
                <g id="zoomPlus">
                        <use xlink:href="#rim" fill="#404040">
                                <set attributeName="fill" to="#808080" begin="zoomplus.mouseover" end="zoomplus.mouseout"/>
                        </use>
                        <path d="M-4,0h8M0,-4v8" fill="none" stroke="white" stroke-width="1.5" pointer-events="none"/>
                </g>
                <g id="zoomMin">
                        <use xlink:href="#rim" fill="#404040">
                                <set attributeName="fill" to="#808080" begin="zoomminus.mouseover" end="zoomminus.mouseout"/>
                        </use>
                        <path d="M-4,0h8" fill="none" stroke="white" stroke-width="1.5" pointer-events="none"/>
                </g>
                <g id="dirArrow">
                        <path fill="none" stroke="white" stroke-width="1.5" d="M0,-3.0v7 M-2.5,-0.5L0,-3.0L2.5,-0.5"/>
                </g>
               <g id="resetDef">
                       <use xlink:href="#rim2" fill="#404040">
                               <set attributeName="fill" to="#808080" begin="reset.mouseover" end="reset.mouseout"/>
                       </use>
               </g>
        </defs>

<script type="text/javascript">
var viewWidth = 1226;
var viewHeight = 224;
var sectionId = 'dynsection-13';
</script>
<script xlink:href="../../svgpan.js"/>
<svg id="graph" class="graph">
<g id="viewport">
<title>util.multilanguage.MultiLanguageUtility.getStringProperty</title>
<polygon fill="white" stroke="none" points="-4,4 -4,-220 1222,-220 1222,4 -4,4"/>
<!-- Node1 -->
<g id="node1" class="node"><title>Node1</title>
<polygon fill="#bfbfbf" stroke="black" points="0.5,-88 0.5,-118 177.5,-118 177.5,-88 0.5,-88"/>
<text text-anchor="start" x="8.5" y="-106" font-family="Helvetica,sans-Serif" font-size="10.00">util.multilanguage.Multi</text>
<text text-anchor="middle" x="89" y="-95" font-family="Helvetica,sans-Serif" font-size="10.00">LanguageUtility.getStringProperty</text>
</g>
<!-- Node2 -->
<g id="node2" class="node"><title>Node2</title>
<g id="a_node2"><a xlink:href="../../dd/d02/classview_1_1_splash_screen.html#aa46e238053939feec4c0170fbd11f3a7" target="_top" xlink:title="view.SplashScreen.attach\lStringProperties">
<polygon fill="white" stroke="black" points="247.5,-186 247.5,-216 386.5,-216 386.5,-186 247.5,-186"/>
<text text-anchor="start" x="255.5" y="-204" font-family="Helvetica,sans-Serif" font-size="10.00">view.SplashScreen.attach</text>
<text text-anchor="middle" x="317" y="-193" font-family="Helvetica,sans-Serif" font-size="10.00">StringProperties</text>
</a>
</g>
</g>
<!-- Node1&#45;&gt;Node2 -->
<g id="edge1" class="edge"><title>Node1&#45;&gt;Node2</title>
<path fill="none" stroke="midnightblue" d="M119.819,-123.925C144.169,-140.164 179.993,-162.171 214,-176 224.556,-180.292 236.037,-183.979 247.363,-187.1"/>
<polygon fill="midnightblue" stroke="midnightblue" points="121.637,-120.929 111.392,-118.229 117.717,-126.729 121.637,-120.929"/>
</g>
<!-- Node5 -->
<g id="node5" class="node"><title>Node5</title>
<g id="a_node5"><a xlink:href="../../d1/d74/classeditor_1_1_editor_menu_bar_controller.html#a8ba4a41d90bbfd978fd2dc3132db49d1" target="_top" xlink:title="editor.EditorMenuBarController.attach\lTextProperties">
<polygon fill="white" stroke="black" points="218.5,-137 218.5,-167 415.5,-167 415.5,-137 218.5,-137"/>
<text text-anchor="start" x="226.5" y="-155" font-family="Helvetica,sans-Serif" font-size="10.00">editor.EditorMenuBarController.attach</text>
<text text-anchor="middle" x="317" y="-144" font-family="Helvetica,sans-Serif" font-size="10.00">TextProperties</text>
</a>
</g>
</g>
<!-- Node1&#45;&gt;Node5 -->
<g id="edge4" class="edge"><title>Node1&#45;&gt;Node5</title>
<path fill="none" stroke="midnightblue" d="M169.263,-120.185C194.535,-125.665 222.286,-131.682 246.788,-136.994"/>
<polygon fill="midnightblue" stroke="midnightblue" points="169.858,-116.733 159.343,-118.035 168.375,-123.574 169.858,-116.733"/>
</g>
<!-- Node7 -->
<g id="node7" class="node"><title>Node7</title>
<g id="a_node7"><a xlink:href="../../d3/d1b/classeditor_1_1_element_drop_down_controller.html#a6d5e14dd57ae10a7adca07b7b44a6b3c" target="_top" xlink:title="editor.ElementDropDownController.bind\lGameElement">
<polygon fill="white" stroke="black" points="214.5,-88 214.5,-118 419.5,-118 419.5,-88 214.5,-88"/>
<text text-anchor="start" x="222.5" y="-106" font-family="Helvetica,sans-Serif" font-size="10.00">editor.ElementDropDownController.bind</text>
<text text-anchor="middle" x="317" y="-95" font-family="Helvetica,sans-Serif" font-size="10.00">GameElement</text>
</a>
</g>
</g>
<!-- Node1&#45;&gt;Node7 -->
<g id="edge6" class="edge"><title>Node1&#45;&gt;Node7</title>
<path fill="none" stroke="midnightblue" d="M187.939,-103C196.719,-103 205.623,-103 214.433,-103"/>
<polygon fill="midnightblue" stroke="midnightblue" points="187.701,-99.5001 177.701,-103 187.701,-106.5 187.701,-99.5001"/>
</g>
<!-- Node8 -->
<g id="node8" class="node"><title>Node8</title>
<g id="a_node8"><a xlink:href="../../d4/dcd/classeditor_1_1_element_accordion_controller.html#a57a1b43f70896bbf2e27373594ba8810" target="_top" xlink:title="editor.ElementAccordionController.update\lItems">
<polygon fill="white" stroke="black" points="456,-66 456,-96 672,-96 672,-66 456,-66"/>
<text text-anchor="start" x="464" y="-84" font-family="Helvetica,sans-Serif" font-size="10.00">editor.ElementAccordionController.update</text>
<text text-anchor="middle" x="564" y="-73" font-family="Helvetica,sans-Serif" font-size="10.00">Items</text>
</a>
</g>
</g>
<!-- Node1&#45;&gt;Node8 -->
<g id="edge13" class="edge"><title>Node1&#45;&gt;Node8</title>
<path fill="none" stroke="midnightblue" d="M161.928,-85.9826C178.906,-82.6668 197.011,-79.6955 214,-78 294.793,-69.9367 386.627,-71.1366 455.807,-74.1116"/>
<polygon fill="midnightblue" stroke="midnightblue" points="161.19,-82.5608 152.079,-87.9677 162.573,-89.4228 161.19,-82.5608"/>
</g>
<!-- Node12 -->
<g id="node12" class="node"><title>Node12</title>
<g id="a_node12"><a xlink:href="../../d4/d51/classeditor_1_1_describable_info_box_controller.html#a26cc37c3134fd20a7ad2480854bd6744" target="_top" xlink:title="editor.DescribableInfoBox\lController.initialize">
<polygon fill="white" stroke="black" points="248,-0 248,-30 386,-30 386,-0 248,-0"/>
<text text-anchor="start" x="256" y="-18" font-family="Helvetica,sans-Serif" font-size="10.00">editor.DescribableInfoBox</text>
<text text-anchor="middle" x="317" y="-7" font-family="Helvetica,sans-Serif" font-size="10.00">Controller.initialize</text>
</a>
</g>
</g>
<!-- Node1&#45;&gt;Node12 -->
<g id="edge12" class="edge"><title>Node1&#45;&gt;Node12</title>
<path fill="none" stroke="midnightblue" d="M128.211,-83.2893C152.403,-71.2735 184.565,-56.1391 214,-45 228.415,-39.5448 244.278,-34.4566 259.111,-30.0764"/>
<polygon fill="midnightblue" stroke="midnightblue" points="126.396,-80.2839 119.024,-87.8928 129.532,-86.5422 126.396,-80.2839"/>
</g>
<!-- Node3 -->
<g id="node3" class="node"><title>Node3</title>
<g id="a_node3"><a xlink:href="../../dd/d02/classview_1_1_splash_screen.html#a4ab544f7771d377db789832819fdad38" target="_top" xlink:title="view.SplashScreen.setUpButtons">
<polygon fill="white" stroke="black" points="477,-191.5 477,-210.5 651,-210.5 651,-191.5 477,-191.5"/>
<text text-anchor="middle" x="564" y="-198.5" font-family="Helvetica,sans-Serif" font-size="10.00">view.SplashScreen.setUpButtons</text>
</a>
</g>
</g>
<!-- Node2&#45;&gt;Node3 -->
<g id="edge2" class="edge"><title>Node2&#45;&gt;Node3</title>
<path fill="none" stroke="midnightblue" d="M396.607,-201C422.231,-201 450.807,-201 476.946,-201"/>
<polygon fill="midnightblue" stroke="midnightblue" points="396.572,-197.5 386.572,-201 396.572,-204.5 396.572,-197.5"/>
</g>
<!-- Node4 -->
<g id="node4" class="node"><title>Node4</title>
<g id="a_node4"><a xlink:href="../../dd/d02/classview_1_1_splash_screen.html#ae17a6b61826bb7b6cc90f510260860ab" target="_top" xlink:title="view.SplashScreen.init">
<polygon fill="white" stroke="black" points="720,-191.5 720,-210.5 842,-210.5 842,-191.5 720,-191.5"/>
<text text-anchor="middle" x="781" y="-198.5" font-family="Helvetica,sans-Serif" font-size="10.00">view.SplashScreen.init</text>
</a>
</g>
</g>
<!-- Node3&#45;&gt;Node4 -->
<g id="edge3" class="edge"><title>Node3&#45;&gt;Node4</title>
<path fill="none" stroke="midnightblue" d="M661.26,-201C681.205,-201 701.67,-201 719.872,-201"/>
<polygon fill="midnightblue" stroke="midnightblue" points="661.21,-197.5 651.21,-201 661.21,-204.5 661.21,-197.5"/>
</g>
<!-- Node6 -->
<g id="node6" class="node"><title>Node6</title>
<g id="a_node6"><a xlink:href="../../d1/d74/classeditor_1_1_editor_menu_bar_controller.html#a5e27bce310879b43b5726c8b90f98743" target="_top" xlink:title="editor.EditorMenuBarController.init">
<polygon fill="white" stroke="black" points="474,-142.5 474,-161.5 654,-161.5 654,-142.5 474,-142.5"/>
<text text-anchor="middle" x="564" y="-149.5" font-family="Helvetica,sans-Serif" font-size="10.00">editor.EditorMenuBarController.init</text>
</a>
</g>
</g>
<!-- Node5&#45;&gt;Node6 -->
<g id="edge5" class="edge"><title>Node5&#45;&gt;Node6</title>
<path fill="none" stroke="midnightblue" d="M425.964,-152C441.926,-152 458.223,-152 473.748,-152"/>
<polygon fill="midnightblue" stroke="midnightblue" points="425.534,-148.5 415.534,-152 425.534,-155.5 425.534,-148.5"/>
</g>
<!-- Node7&#45;&gt;Node8 -->
<g id="edge7" class="edge"><title>Node7&#45;&gt;Node8</title>
<path fill="none" stroke="midnightblue" d="M429.81,-92.9599C438.396,-92.1889 447.052,-91.4116 455.609,-90.6433"/>
<polygon fill="midnightblue" stroke="midnightblue" points="429.42,-89.4807 419.774,-93.8611 430.047,-96.4527 429.42,-89.4807"/>
</g>
<!-- Node9 -->
<g id="node9" class="node"><title>Node9</title>
<g id="a_node9"><a xlink:href="../../dc/d5c/classeditor_1_1_editor_screen.html#a575ccd70c0dcc7565df86cc590de47ba" target="_top" xlink:title="editor.EditorScreen.update\lAccordion">
<polygon fill="white" stroke="black" points="708.5,-66 708.5,-96 853.5,-96 853.5,-66 708.5,-66"/>
<text text-anchor="start" x="716.5" y="-84" font-family="Helvetica,sans-Serif" font-size="10.00">editor.EditorScreen.update</text>
<text text-anchor="middle" x="781" y="-73" font-family="Helvetica,sans-Serif" font-size="10.00">Accordion</text>
</a>
</g>
</g>
<!-- Node8&#45;&gt;Node9 -->
<g id="edge8" class="edge"><title>Node8&#45;&gt;Node9</title>
<path fill="none" stroke="midnightblue" d="M682.268,-81C691.177,-81 699.996,-81 708.476,-81"/>
<polygon fill="midnightblue" stroke="midnightblue" points="682.185,-77.5001 672.185,-81 682.185,-84.5001 682.185,-77.5001"/>
</g>
<!-- Node10 -->
<g id="node10" class="node"><title>Node10</title>
<g id="a_node10"><a xlink:href="../../dc/d5c/classeditor_1_1_editor_screen.html#ae17f78235329632f2090fdfb7b358a66" target="_top" xlink:title="editor.EditorScreen.update">
<polygon fill="white" stroke="black" points="890.5,-71.5 890.5,-90.5 1035.5,-90.5 1035.5,-71.5 890.5,-71.5"/>
<text text-anchor="middle" x="963" y="-78.5" font-family="Helvetica,sans-Serif" font-size="10.00">editor.EditorScreen.update</text>
</a>
</g>
</g>
<!-- Node9&#45;&gt;Node10 -->
<g id="edge9" class="edge"><title>Node9&#45;&gt;Node10</title>
<path fill="none" stroke="midnightblue" d="M863.921,-81C872.722,-81 881.626,-81 890.295,-81"/>
<polygon fill="midnightblue" stroke="midnightblue" points="863.658,-77.5001 853.658,-81 863.658,-84.5001 863.658,-77.5001"/>
</g>
<!-- Node11 -->
<g id="node11" class="node"><title>Node11</title>
<g id="a_node11"><a xlink:href="../../dc/d5c/classeditor_1_1_editor_screen.html#a13378a8f469be9b38ba16457a64b7e9a" target="_top" xlink:title="editor.EditorScreen.update\lTabViewControllers">
<polygon fill="white" stroke="black" points="1072.5,-66 1072.5,-96 1217.5,-96 1217.5,-66 1072.5,-66"/>
<text text-anchor="start" x="1080.5" y="-84" font-family="Helvetica,sans-Serif" font-size="10.00">editor.EditorScreen.update</text>
<text text-anchor="middle" x="1145" y="-73" font-family="Helvetica,sans-Serif" font-size="10.00">TabViewControllers</text>
</a>
</g>
</g>
<!-- Node10&#45;&gt;Node11 -->
<g id="edge10" class="edge"><title>Node10&#45;&gt;Node11</title>
<path fill="none" stroke="midnightblue" d="M1045.92,-74.2742C1054.72,-74.2213 1063.63,-74.2551 1072.29,-74.3755"/>
<polygon fill="midnightblue" stroke="midnightblue" points="1045.62,-70.7769 1035.66,-74.3762 1045.69,-77.7766 1045.62,-70.7769"/>
</g>
<!-- Node11&#45;&gt;Node10 -->
<g id="edge11" class="edge"><title>Node11&#45;&gt;Node10</title>
<path fill="none" stroke="midnightblue" d="M1062.03,-87.7261C1053.23,-87.7787 1044.33,-87.7446 1035.66,-87.6238"/>
<polygon fill="midnightblue" stroke="midnightblue" points="1062.33,-91.2234 1072.29,-87.6245 1062.26,-84.2237 1062.33,-91.2234"/>
</g>
</g>
</svg>
        <g id="navigator" transform="translate(0 0)" fill="#404254">
                <rect fill="#f2f5e9" fill-opacity="0.5" stroke="#606060" stroke-width=".5" x="0" y="0" width="60" height="60"/>
                <use id="zoomplus" xlink:href="#zoomPlus" x="17" y="9" onmousedown="handleZoom(evt,'in')"/>
                <use id="zoomminus" xlink:href="#zoomMin" x="42" y="9" onmousedown="handleZoom(evt,'out')"/>
                <use id="reset" xlink:href="#resetDef" x="30" y="36" onmousedown="handleReset()"/>
                <g id="arrowUp" xlink:href="#dirArrow" transform="translate(30 24)" onmousedown="handlePan(0,-1)">
                  <use xlink:href="#rim" fill="#404040">
                        <set attributeName="fill" to="#808080" begin="arrowUp.mouseover" end="arrowUp.mouseout"/>
                  </use>
                  <path fill="none" stroke="white" stroke-width="1.5" d="M0,-3.0v7 M-2.5,-0.5L0,-3.0L2.5,-0.5"/>
                </g>
                <g id="arrowRight" xlink:href="#dirArrow" transform="rotate(90) translate(36 -43)" onmousedown="handlePan(1,0)">
                  <use xlink:href="#rim" fill="#404040">
                        <set attributeName="fill" to="#808080" begin="arrowRight.mouseover" end="arrowRight.mouseout"/>
                  </use>
                  <path fill="none" stroke="white" stroke-width="1.5" d="M0,-3.0v7 M-2.5,-0.5L0,-3.0L2.5,-0.5"/>
                </g>
                <g id="arrowDown" xlink:href="#dirArrow" transform="rotate(180) translate(-30 -48)" onmousedown="handlePan(0,1)">
                  <use xlink:href="#rim" fill="#404040">
                        <set attributeName="fill" to="#808080" begin="arrowDown.mouseover" end="arrowDown.mouseout"/>
                  </use>
                  <path fill="none" stroke="white" stroke-width="1.5" d="M0,-3.0v7 M-2.5,-0.5L0,-3.0L2.5,-0.5"/>
                </g>
                <g id="arrowLeft" xlink:href="#dirArrow" transform="rotate(270) translate(-36 17)" onmousedown="handlePan(-1,0)">
                  <use xlink:href="#rim" fill="#404040">
                        <set attributeName="fill" to="#808080" begin="arrowLeft.mouseover" end="arrowLeft.mouseout"/>
                  </use>
                  <path fill="none" stroke="white" stroke-width="1.5" d="M0,-3.0v7 M-2.5,-0.5L0,-3.0L2.5,-0.5"/>
                </g>
        </g>
        <svg viewBox="0 0 15 15" width="100%" height="30px" preserveAspectRatio="xMaxYMin meet">
         <g id="arrow_out" transform="scale(0.3 0.3)">
          <a xlink:href="classutil_1_1multilanguage_1_1_multi_language_utility_a6adf3e1cb73a5cef3bc6d4a11cb1b091_icgraph_org.svg" target="_base">
           <rect id="button" ry="5" rx="5" y="6" x="6" height="38" width="38"
                fill="#f2f5e9" fill-opacity="0.5" stroke="#606060" stroke-width="1.0"/>
           <path id="arrow"
             d="M 11.500037,31.436501 C 11.940474,20.09759 22.043105,11.32322 32.158766,21.979434 L 37.068811,17.246167 C 37.068811,17.246167 37.088388,32 37.088388,32 L 22.160133,31.978069 C 22.160133,31.978069 26.997745,27.140456 26.997745,27.140456 C 18.528582,18.264221 13.291696,25.230495 11.500037,31.436501 z"
             style="fill:#404040;"/>
          </a>
         </g>
        </svg>
</svg>
