<?xml version="1.0" encoding="UTF-8" standalone="no"?>
<!DOCTYPE svg PUBLIC "-//W3C//DTD SVG 1.1//EN"
 "http://www.w3.org/Graphics/SVG/1.1/DTD/svg11.dtd">
<!-- Generated by graphviz version 2.36.0 (20140111.2315)
 -->
<!-- Title: game_engine.stateManaging.GameElementManager.contains Pages: 1 -->
<svg width="620pt" height="87pt"
 viewBox="0.00 0.00 620.00 87.00" xmlns="http://www.w3.org/2000/svg" xmlns:xlink="http://www.w3.org/1999/xlink">
<g id="graph0" class="graph" transform="scale(1 1) rotate(0) translate(4 83)">
<title>game_engine.stateManaging.GameElementManager.contains</title>
<polygon fill="white" stroke="none" points="-4,4 -4,-83 616,-83 616,4 -4,4"/>
<!-- Node1 -->
<g id="node1" class="node"><title>Node1</title>
<polygon fill="#bfbfbf" stroke="black" points="0,-24 0,-54 170,-54 170,-24 0,-24"/>
<text text-anchor="start" x="8" y="-42" font-family="Helvetica,sans-Serif" font-size="10.00">game_engine.stateManaging.</text>
<text text-anchor="middle" x="85" y="-31" font-family="Helvetica,sans-Serif" font-size="10.00">GameElementManager.contains</text>
</g>
<!-- Node2 -->
<g id="node2" class="node"><title>Node2</title>
<g id="a_node2"><a xlink:href="../../dd/de3/classgame__engine_1_1state_managing_1_1_game_element_manager.html#ab4f320b0f025e6b982af9b528ae58798" target="_top" xlink:title="game_engine.stateManaging.\lGameElementManager.selectUnitsBox">
<polygon fill="white" stroke="black" points="208.5,-49 208.5,-79 409.5,-79 409.5,-49 208.5,-49"/>
<text text-anchor="start" x="216.5" y="-67" font-family="Helvetica,sans-Serif" font-size="10.00">game_engine.stateManaging.</text>
<text text-anchor="middle" x="309" y="-56" font-family="Helvetica,sans-Serif" font-size="10.00">GameElementManager.selectUnitsBox</text>
</a>
</g>
</g>
<!-- Node1&#45;&gt;Node2 -->
<g id="edge1" class="edge"><title>Node1&#45;&gt;Node2</title>
<path fill="none" stroke="midnightblue" d="M180.205,-49.6087C189.453,-50.6501 198.86,-51.7094 208.161,-52.7569"/>
<polygon fill="midnightblue" stroke="midnightblue" points="180.574,-46.1282 170.245,-48.4871 179.791,-53.0842 180.574,-46.1282"/>
</g>
<!-- Node4 -->
<g id="node4" class="node"><title>Node4</title>
<g id="a_node4"><a xlink:href="../../dd/de3/classgame__engine_1_1state_managing_1_1_game_element_manager.html#a42ab90ae394bc73574cbedc2a029fa48" target="_top" xlink:title="game_engine.stateManaging.\lGameElementManager.selectUnitsClick">
<polygon fill="white" stroke="black" points="206.5,-0 206.5,-30 411.5,-30 411.5,-0 206.5,-0"/>
<text text-anchor="start" x="214.5" y="-18" font-family="Helvetica,sans-Serif" font-size="10.00">game_engine.stateManaging.</text>
<text text-anchor="middle" x="309" y="-7" font-family="Helvetica,sans-Serif" font-size="10.00">GameElementManager.selectUnitsClick</text>
</a>
</g>
</g>
<!-- Node1&#45;&gt;Node4 -->
<g id="edge3" class="edge"><title>Node1&#45;&gt;Node4</title>
<path fill="none" stroke="midnightblue" d="M180.269,-28.8087C188.873,-27.8786 197.614,-26.9336 206.279,-25.9969"/>
<polygon fill="midnightblue" stroke="midnightblue" points="179.811,-25.3378 170.245,-29.8924 180.564,-32.2972 179.811,-25.3378"/>
</g>
<!-- Node3 -->
<g id="node3" class="node"><title>Node3</title>
<g id="a_node3"><a xlink:href="../../dd/de3/classgame__engine_1_1state_managing_1_1_game_element_manager.html#aa5343ba444c194f0a7427a68b69bb50b" target="_top" xlink:title="game_engine.stateManaging.\lGameElementManager.update">
<polygon fill="white" stroke="black" points="448,-24 448,-54 612,-54 612,-24 448,-24"/>
<text text-anchor="start" x="456" y="-42" font-family="Helvetica,sans-Serif" font-size="10.00">game_engine.stateManaging.</text>
<text text-anchor="middle" x="530" y="-31" font-family="Helvetica,sans-Serif" font-size="10.00">GameElementManager.update</text>
</a>
</g>
</g>
<!-- Node2&#45;&gt;Node3 -->
<g id="edge2" class="edge"><title>Node2&#45;&gt;Node3</title>
<path fill="none" stroke="midnightblue" d="M419.767,-51.4695C429.178,-50.3952 438.587,-49.3211 447.714,-48.2792"/>
<polygon fill="midnightblue" stroke="midnightblue" points="419.106,-48.0222 409.567,-52.6339 419.9,-54.977 419.106,-48.0222"/>
</g>
<!-- Node4&#45;&gt;Node3 -->
<g id="edge4" class="edge"><title>Node4&#45;&gt;Node3</title>
<path fill="none" stroke="midnightblue" d="M422.002,-27.2742C430.689,-28.2262 439.356,-29.176 447.783,-30.0995"/>
<polygon fill="midnightblue" stroke="midnightblue" points="422.128,-23.7672 411.806,-26.1569 421.366,-30.7255 422.128,-23.7672"/>
</g>
</g>
</svg>
