<?xml version="1.0" encoding="UTF-8" standalone="no"?>
<!DOCTYPE svg PUBLIC "-//W3C//DTD SVG 1.1//EN"
 "http://www.w3.org/Graphics/SVG/1.1/DTD/svg11.dtd">
<!-- Generated by graphviz version 2.36.0 (20140111.2315)
 -->
<!-- Title: game_engine.stateManaging.GameElementManager.findAllElementsOfType Pages: 1 -->
<svg width="630pt" height="48pt"
 viewBox="0.00 0.00 630.00 48.00" xmlns="http://www.w3.org/2000/svg" xmlns:xlink="http://www.w3.org/1999/xlink">
<g id="graph0" class="graph" transform="scale(1 1) rotate(0) translate(4 44)">
<title>game_engine.stateManaging.GameElementManager.findAllElementsOfType</title>
<polygon fill="white" stroke="none" points="-4,4 -4,-44 626,-44 626,4 -4,4"/>
<!-- Node1 -->
<g id="node1" class="node"><title>Node1</title>
<polygon fill="#bfbfbf" stroke="black" points="0.5,0.5 0.5,-40.5 203.5,-40.5 203.5,0.5 0.5,0.5"/>
<text text-anchor="start" x="8.5" y="-28.5" font-family="Helvetica,sans-Serif" font-size="10.00">game_engine.stateManaging.</text>
<text text-anchor="start" x="8.5" y="-17.5" font-family="Helvetica,sans-Serif" font-size="10.00">GameElementManager.findAllElements</text>
<text text-anchor="middle" x="102" y="-6.5" font-family="Helvetica,sans-Serif" font-size="10.00">OfType</text>
</g>
<!-- Node2 -->
<g id="node2" class="node"><title>Node2</title>
<g id="a_node2"><a xlink:href="../../d6/df8/classgame__engine_1_1game_representation_1_1conditions_1_1evaluators_1_1parameters_1_1object_ide0192264929a0ec7c299328804a808d8f.html#a1908d314f1109d58b590219853a6afb6" target="_top" xlink:title="game_engine.gameRepresentation.conditions.evaluators.parameters.object\lIdentifiers.GlobalObjectIdentifier.getElementOfInterest">
<polygon fill="white" stroke="black" points="240.5,-5 240.5,-35 621.5,-35 621.5,-5 240.5,-5"/>
<text text-anchor="start" x="248.5" y="-23" font-family="Helvetica,sans-Serif" font-size="10.00">game_engine.gameRepresentation.conditions.evaluators.parameters.object</text>
<text text-anchor="middle" x="431" y="-12" font-family="Helvetica,sans-Serif" font-size="10.00">Identifiers.GlobalObjectIdentifier.getElementOfInterest</text>
</a>
</g>
</g>
<!-- Node1&#45;&gt;Node2 -->
<g id="edge1" class="edge"><title>Node1&#45;&gt;Node2</title>
<path fill="none" stroke="midnightblue" d="M213.87,-20C222.558,-20 231.469,-20 240.487,-20"/>
<polygon fill="midnightblue" stroke="midnightblue" points="213.779,-16.5001 203.779,-20 213.779,-23.5001 213.779,-16.5001"/>
</g>
</g>
</svg>
