<?xml version="1.0" encoding="UTF-8" standalone="no"?>
<!DOCTYPE svg PUBLIC "-//W3C//DTD SVG 1.1//EN"
 "http://www.w3.org/Graphics/SVG/1.1/DTD/svg11.dtd">
<!-- Generated by graphviz version 2.36.0 (20140111.2315)
 -->
<!-- Title: game_engine.stateManaging.GameElementManager.selectUnitsClick Pages: 1 -->
<svg width="482pt" height="87pt"
 viewBox="0.00 0.00 482.00 87.00" xmlns="http://www.w3.org/2000/svg" xmlns:xlink="http://www.w3.org/1999/xlink">
<g id="graph0" class="graph" transform="scale(1 1) rotate(0) translate(4 83)">
<title>game_engine.stateManaging.GameElementManager.selectUnitsClick</title>
<polygon fill="white" stroke="none" points="-4,4 -4,-83 478,-83 478,4 -4,4"/>
<!-- Node1 -->
<g id="node1" class="node"><title>Node1</title>
<polygon fill="#bfbfbf" stroke="black" points="0.5,-24 0.5,-54 205.5,-54 205.5,-24 0.5,-24"/>
<text text-anchor="start" x="8.5" y="-42" font-family="Helvetica,sans-Serif" font-size="10.00">game_engine.stateManaging.</text>
<text text-anchor="middle" x="103" y="-31" font-family="Helvetica,sans-Serif" font-size="10.00">GameElementManager.selectUnitsClick</text>
</g>
<!-- Node2 -->
<g id="node2" class="node"><title>Node2</title>
<g id="a_node2"><a xlink:href="../../dd/de3/classgame__engine_1_1state_managing_1_1_game_element_manager.html#a542775fff0bee133270adab5127cc9f0" target="_top" xlink:title="game_engine.stateManaging.\lGameElementManager.contains">
<polygon fill="white" stroke="black" points="273,-49 273,-79 443,-79 443,-49 273,-49"/>
<text text-anchor="start" x="281" y="-67" font-family="Helvetica,sans-Serif" font-size="10.00">game_engine.stateManaging.</text>
<text text-anchor="middle" x="358" y="-56" font-family="Helvetica,sans-Serif" font-size="10.00">GameElementManager.contains</text>
</a>
</g>
</g>
<!-- Node1&#45;&gt;Node2 -->
<g id="edge1" class="edge"><title>Node1&#45;&gt;Node2</title>
<path fill="none" stroke="midnightblue" d="M205.811,-49.0604C224.58,-50.915 244.102,-52.8441 262.639,-54.6758"/>
<polygon fill="midnightblue" stroke="midnightblue" points="262.529,-58.1819 272.825,-55.6823 263.217,-51.2158 262.529,-58.1819"/>
</g>
<!-- Node3 -->
<g id="node3" class="node"><title>Node3</title>
<g id="a_node3"><a xlink:href="../../d5/d35/classgame__engine_1_1game_representation_1_1rendered_representation_1_1_level.html#aa67a1a8267a8a14c33e69cd4a655989c" target="_top" xlink:title="game_engine.gameRepresentation.rendered\lRepresentation.Level.getUnits">
<polygon fill="white" stroke="black" points="242.5,-0 242.5,-30 473.5,-30 473.5,-0 242.5,-0"/>
<text text-anchor="start" x="250.5" y="-18" font-family="Helvetica,sans-Serif" font-size="10.00">game_engine.gameRepresentation.rendered</text>
<text text-anchor="middle" x="358" y="-7" font-family="Helvetica,sans-Serif" font-size="10.00">Representation.Level.getUnits</text>
</a>
</g>
</g>
<!-- Node1&#45;&gt;Node3 -->
<g id="edge2" class="edge"><title>Node1&#45;&gt;Node3</title>
<path fill="none" stroke="midnightblue" d="M205.811,-29.342C214.491,-28.5187 223.331,-27.68 232.161,-26.8424"/>
<polygon fill="midnightblue" stroke="midnightblue" points="232.492,-30.3268 242.117,-25.898 231.831,-23.3581 232.492,-30.3268"/>
</g>
</g>
</svg>
