<?xml version="1.0" encoding="UTF-8" standalone="no"?>
<!DOCTYPE svg PUBLIC "-//W3C//DTD SVG 1.1//EN"
 "http://www.w3.org/Graphics/SVG/1.1/DTD/svg11.dtd">
<!-- Generated by graphviz version 2.36.0 (20140111.2315)
 -->
<!-- Title: game_engine.stateManaging.GameElementManager.addGameElementToLevel Pages: 1 -->
<svg width="1566pt" height="116pt"
 viewBox="0.00 0.00 1566.00 116.00" xmlns="http://www.w3.org/2000/svg" xmlns:xlink="http://www.w3.org/1999/xlink">
<g id="graph0" class="graph" transform="scale(1 1) rotate(0) translate(4 112)">
<title>game_engine.stateManaging.GameElementManager.addGameElementToLevel</title>
<polygon fill="white" stroke="none" points="-4,4 -4,-112 1562,-112 1562,4 -4,4"/>
<!-- Node1 -->
<g id="node1" class="node"><title>Node1</title>
<polygon fill="#bfbfbf" stroke="black" points="0.5,-47.5 0.5,-88.5 217.5,-88.5 217.5,-47.5 0.5,-47.5"/>
<text text-anchor="start" x="8.5" y="-76.5" font-family="Helvetica,sans-Serif" font-size="10.00">game_engine.stateManaging.</text>
<text text-anchor="start" x="8.5" y="-65.5" font-family="Helvetica,sans-Serif" font-size="10.00">GameElementManager.addGameElement</text>
<text text-anchor="middle" x="109" y="-54.5" font-family="Helvetica,sans-Serif" font-size="10.00">ToLevel</text>
</g>
<!-- Node2 -->
<g id="node2" class="node"><title>Node2</title>
<g id="a_node2"><a xlink:href="../../d5/d35/classgame__engine_1_1game_representation_1_1rendered_representation_1_1_level.html#af49fc21911c62dc003896a2bd79704cf" target="_top" xlink:title="game_engine.gameRepresentation.rendered\lRepresentation.Level.addElement">
<polygon fill="white" stroke="black" points="254.5,-78 254.5,-108 485.5,-108 485.5,-78 254.5,-78"/>
<text text-anchor="start" x="262.5" y="-96" font-family="Helvetica,sans-Serif" font-size="10.00">game_engine.gameRepresentation.rendered</text>
<text text-anchor="middle" x="370" y="-85" font-family="Helvetica,sans-Serif" font-size="10.00">Representation.Level.addElement</text>
</a>
</g>
</g>
<!-- Node1&#45;&gt;Node2 -->
<g id="edge1" class="edge"><title>Node1&#45;&gt;Node2</title>
<path fill="none" stroke="midnightblue" d="M217.589,-78.3851C226.375,-79.2331 235.298,-80.0944 244.193,-80.953"/>
<polygon fill="midnightblue" stroke="midnightblue" points="243.923,-84.4431 254.213,-81.9202 244.596,-77.4755 243.923,-84.4431"/>
</g>
<!-- Node3 -->
<g id="node3" class="node"><title>Node3</title>
<g id="a_node3"><a xlink:href="../../dd/d79/classgame__engine_1_1element_factories_1_1_game_element_factory.html#a1553b66e4a687862e6ebd7c20bfed46f" target="_top" xlink:title="game_engine.elementFactories.\lGameElementFactory.createGameElement">
<polygon fill="white" stroke="black" points="259.5,-29 259.5,-59 480.5,-59 480.5,-29 259.5,-29"/>
<text text-anchor="start" x="267.5" y="-47" font-family="Helvetica,sans-Serif" font-size="10.00">game_engine.elementFactories.</text>
<text text-anchor="middle" x="370" y="-36" font-family="Helvetica,sans-Serif" font-size="10.00">GameElementFactory.createGameElement</text>
</a>
</g>
</g>
<!-- Node1&#45;&gt;Node3 -->
<g id="edge2" class="edge"><title>Node1&#45;&gt;Node3</title>
<path fill="none" stroke="midnightblue" d="M217.589,-58.0303C228.016,-57.0641 238.639,-56.0798 249.175,-55.1035"/>
<polygon fill="midnightblue" stroke="midnightblue" points="249.607,-58.5785 259.241,-54.1707 248.961,-51.6084 249.607,-58.5785"/>
</g>
<!-- Node4 -->
<g id="node4" class="node"><title>Node4</title>
<g id="a_node4"><a xlink:href="../../d9/d7e/classgamemodel_1_1_game_universe.html#a014ee79884c291167ac32eef1e7b6144" target="_top" xlink:title="gamemodel.GameUniverse.get\lGameElementState">
<polygon fill="white" stroke="black" points="554.5,-54 554.5,-84 721.5,-84 721.5,-54 554.5,-54"/>
<text text-anchor="start" x="562.5" y="-72" font-family="Helvetica,sans-Serif" font-size="10.00">gamemodel.GameUniverse.get</text>
<text text-anchor="middle" x="638" y="-61" font-family="Helvetica,sans-Serif" font-size="10.00">GameElementState</text>
</a>
</g>
</g>
<!-- Node3&#45;&gt;Node4 -->
<g id="edge3" class="edge"><title>Node3&#45;&gt;Node4</title>
<path fill="none" stroke="midnightblue" d="M480.728,-54.3128C501.882,-56.3009 523.846,-58.3652 544.39,-60.296"/>
<polygon fill="midnightblue" stroke="midnightblue" points="544.067,-63.7811 554.351,-61.2322 544.722,-56.8118 544.067,-63.7811"/>
</g>
<!-- Node5 -->
<g id="node5" class="node"><title>Node5</title>
<g id="a_node5"><a xlink:href="../../d5/d2c/classgame__engine_1_1game_representation_1_1rendered_representation_1_1_game_element.html#a4c729f788ee387452811a2eb10516a09" target="_top" xlink:title="game_engine.gameRepresentation.rendered\lRepresentation.GameElement.setPosition">
<polygon fill="white" stroke="black" points="522.5,-5 522.5,-35 753.5,-35 753.5,-5 522.5,-5"/>
<text text-anchor="start" x="530.5" y="-23" font-family="Helvetica,sans-Serif" font-size="10.00">game_engine.gameRepresentation.rendered</text>
<text text-anchor="middle" x="638" y="-12" font-family="Helvetica,sans-Serif" font-size="10.00">Representation.GameElement.setPosition</text>
</a>
</g>
</g>
<!-- Node3&#45;&gt;Node5 -->
<g id="edge4" class="edge"><title>Node3&#45;&gt;Node5</title>
<path fill="none" stroke="midnightblue" d="M480.728,-34.0997C491.139,-33.1604 501.747,-32.2033 512.285,-31.2525"/>
<polygon fill="midnightblue" stroke="midnightblue" points="512.714,-34.7281 522.359,-30.3436 512.085,-27.7564 512.714,-34.7281"/>
</g>
<!-- Node6 -->
<g id="node6" class="node"><title>Node6</title>
<g id="a_node6"><a xlink:href="../../d5/d2c/classgame__engine_1_1game_representation_1_1rendered_representation_1_1_game_element.html#a843e7eda7705838d19379d22e723f77a" target="_top" xlink:title="game_engine.gameRepresentation.rendered\lRepresentation.GameElement.setNumerical\lAttribute">
<polygon fill="white" stroke="black" points="790.5,0.5 790.5,-40.5 1021.5,-40.5 1021.5,0.5 790.5,0.5"/>
<text text-anchor="start" x="798.5" y="-28.5" font-family="Helvetica,sans-Serif" font-size="10.00">game_engine.gameRepresentation.rendered</text>
<text text-anchor="start" x="798.5" y="-17.5" font-family="Helvetica,sans-Serif" font-size="10.00">Representation.GameElement.setNumerical</text>
<text text-anchor="middle" x="906" y="-6.5" font-family="Helvetica,sans-Serif" font-size="10.00">Attribute</text>
</a>
</g>
</g>
<!-- Node5&#45;&gt;Node6 -->
<g id="edge5" class="edge"><title>Node5&#45;&gt;Node6</title>
<path fill="none" stroke="midnightblue" d="M753.738,-20C762.429,-20 771.227,-20 779.978,-20"/>
<polygon fill="midnightblue" stroke="midnightblue" points="780.221,-23.5001 790.221,-20 780.221,-16.5001 780.221,-23.5001"/>
</g>
<!-- Node7 -->
<g id="node7" class="node"><title>Node7</title>
<g id="a_node7"><a xlink:href="../../dc/d2d/classgame__engine_1_1game_representation_1_1state_representation_1_1game_element_1_1_game_element_state.html#af2c070dd27e2d8a3c515ef55a317aa38" target="_top" xlink:title="game_engine.gameRepresentation.state\lRepresentation.gameElement.GameElement\lState.setNumericalAttribute">
<polygon fill="white" stroke="black" points="1058.5,0.5 1058.5,-40.5 1289.5,-40.5 1289.5,0.5 1058.5,0.5"/>
<text text-anchor="start" x="1066.5" y="-28.5" font-family="Helvetica,sans-Serif" font-size="10.00">game_engine.gameRepresentation.state</text>
<text text-anchor="start" x="1066.5" y="-17.5" font-family="Helvetica,sans-Serif" font-size="10.00">Representation.gameElement.GameElement</text>
<text text-anchor="middle" x="1174" y="-6.5" font-family="Helvetica,sans-Serif" font-size="10.00">State.setNumericalAttribute</text>
</a>
</g>
</g>
<!-- Node6&#45;&gt;Node7 -->
<g id="edge6" class="edge"><title>Node6&#45;&gt;Node7</title>
<path fill="none" stroke="midnightblue" d="M1021.74,-20C1030.43,-20 1039.23,-20 1047.98,-20"/>
<polygon fill="midnightblue" stroke="midnightblue" points="1048.22,-23.5001 1058.22,-20 1048.22,-16.5001 1048.22,-23.5001"/>
</g>
<!-- Node8 -->
<g id="node8" class="node"><title>Node8</title>
<g id="a_node8"><a xlink:href="../../dc/d2d/classgame__engine_1_1game_representation_1_1state_representation_1_1game_element_1_1_game_element_state.html#a1544cb353263227e008ae84f12deda9a" target="_top" xlink:title="game_engine.gameRepresentation.state\lRepresentation.gameElement.GameElement\lState.addAttribute">
<polygon fill="white" stroke="black" points="1326.5,0.5 1326.5,-40.5 1557.5,-40.5 1557.5,0.5 1326.5,0.5"/>
<text text-anchor="start" x="1334.5" y="-28.5" font-family="Helvetica,sans-Serif" font-size="10.00">game_engine.gameRepresentation.state</text>
<text text-anchor="start" x="1334.5" y="-17.5" font-family="Helvetica,sans-Serif" font-size="10.00">Representation.gameElement.GameElement</text>
<text text-anchor="middle" x="1442" y="-6.5" font-family="Helvetica,sans-Serif" font-size="10.00">State.addAttribute</text>
</a>
</g>
</g>
<!-- Node7&#45;&gt;Node8 -->
<g id="edge7" class="edge"><title>Node7&#45;&gt;Node8</title>
<path fill="none" stroke="midnightblue" d="M1289.74,-20C1298.43,-20 1307.23,-20 1315.98,-20"/>
<polygon fill="midnightblue" stroke="midnightblue" points="1316.22,-23.5001 1326.22,-20 1316.22,-16.5001 1316.22,-23.5001"/>
</g>
</g>
</svg>
