<?xml version="1.0" encoding="UTF-8" standalone="no"?>
<!DOCTYPE svg PUBLIC "-//W3C//DTD SVG 1.1//EN"
 "http://www.w3.org/Graphics/SVG/1.1/DTD/svg11.dtd">
<!-- Generated by graphviz version 2.36.0 (20140111.2315)
 -->
<!-- Title: game_engine.stateManaging.GameElementManager.sendClickToSelectedUnits Pages: 1 -->
<svg width="462pt" height="48pt"
 viewBox="0.00 0.00 462.00 48.00" xmlns="http://www.w3.org/2000/svg" xmlns:xlink="http://www.w3.org/1999/xlink">
<g id="graph0" class="graph" transform="scale(1 1) rotate(0) translate(4 44)">
<title>game_engine.stateManaging.GameElementManager.sendClickToSelectedUnits</title>
<polygon fill="white" stroke="none" points="-4,4 -4,-44 458,-44 458,4 -4,4"/>
<!-- Node1 -->
<g id="node1" class="node"><title>Node1</title>
<polygon fill="#bfbfbf" stroke="black" points="0.5,0.5 0.5,-40.5 185.5,-40.5 185.5,0.5 0.5,0.5"/>
<text text-anchor="start" x="8.5" y="-28.5" font-family="Helvetica,sans-Serif" font-size="10.00">game_engine.stateManaging.</text>
<text text-anchor="start" x="8.5" y="-17.5" font-family="Helvetica,sans-Serif" font-size="10.00">GameElementManager.sendClickTo</text>
<text text-anchor="middle" x="93" y="-6.5" font-family="Helvetica,sans-Serif" font-size="10.00">SelectedUnits</text>
</g>
<!-- Node2 -->
<g id="node2" class="node"><title>Node2</title>
<g id="a_node2"><a xlink:href="../../d5/d35/classgame__engine_1_1game_representation_1_1rendered_representation_1_1_level.html#aa67a1a8267a8a14c33e69cd4a655989c" target="_top" xlink:title="game_engine.gameRepresentation.rendered\lRepresentation.Level.getUnits">
<polygon fill="white" stroke="black" points="222.5,-5 222.5,-35 453.5,-35 453.5,-5 222.5,-5"/>
<text text-anchor="start" x="230.5" y="-23" font-family="Helvetica,sans-Serif" font-size="10.00">game_engine.gameRepresentation.rendered</text>
<text text-anchor="middle" x="338" y="-12" font-family="Helvetica,sans-Serif" font-size="10.00">Representation.Level.getUnits</text>
</a>
</g>
</g>
<!-- Node1&#45;&gt;Node2 -->
<g id="edge1" class="edge"><title>Node1&#45;&gt;Node2</title>
<path fill="none" stroke="midnightblue" d="M185.522,-20C194.221,-20 203.14,-20 212.083,-20"/>
<polygon fill="midnightblue" stroke="midnightblue" points="212.18,-23.5001 222.18,-20 212.18,-16.5001 212.18,-23.5001"/>
</g>
</g>
</svg>
