<?xml version="1.0" encoding="UTF-8" standalone="no"?>
<!DOCTYPE svg PUBLIC "-//W3C//DTD SVG 1.1//EN"
 "http://www.w3.org/Graphics/SVG/1.1/DTD/svg11.dtd">
<!-- Generated by graphviz version 2.36.0 (20140111.2315)
 -->
<!-- Title: game_engine.stateManaging.GameElementManager.selectPlayerUnits Pages: 1 -->
<svg width="488pt" height="38pt"
 viewBox="0.00 0.00 488.00 38.00" xmlns="http://www.w3.org/2000/svg" xmlns:xlink="http://www.w3.org/1999/xlink">
<g id="graph0" class="graph" transform="scale(1 1) rotate(0) translate(4 34)">
<title>game_engine.stateManaging.GameElementManager.selectPlayerUnits</title>
<polygon fill="white" stroke="none" points="-4,4 -4,-34 484,-34 484,4 -4,4"/>
<!-- Node1 -->
<g id="node1" class="node"><title>Node1</title>
<polygon fill="#bfbfbf" stroke="black" points="0,-0 0,-30 212,-30 212,-0 0,-0"/>
<text text-anchor="start" x="8" y="-18" font-family="Helvetica,sans-Serif" font-size="10.00">game_engine.stateManaging.</text>
<text text-anchor="middle" x="106" y="-7" font-family="Helvetica,sans-Serif" font-size="10.00">GameElementManager.selectPlayerUnits</text>
</g>
<!-- Node2 -->
<g id="node2" class="node"><title>Node2</title>
<g id="a_node2"><a xlink:href="../../d5/d35/classgame__engine_1_1game_representation_1_1rendered_representation_1_1_level.html#aa67a1a8267a8a14c33e69cd4a655989c" target="_top" xlink:title="game_engine.gameRepresentation.rendered\lRepresentation.Level.getUnits">
<polygon fill="white" stroke="black" points="248.5,-0 248.5,-30 479.5,-30 479.5,-0 248.5,-0"/>
<text text-anchor="start" x="256.5" y="-18" font-family="Helvetica,sans-Serif" font-size="10.00">game_engine.gameRepresentation.rendered</text>
<text text-anchor="middle" x="364" y="-7" font-family="Helvetica,sans-Serif" font-size="10.00">Representation.Level.getUnits</text>
</a>
</g>
</g>
<!-- Node1&#45;&gt;Node2 -->
<g id="edge1" class="edge"><title>Node1&#45;&gt;Node2</title>
<path fill="none" stroke="midnightblue" d="M212.233,-15C220.758,-15 229.421,-15 238.066,-15"/>
<polygon fill="midnightblue" stroke="midnightblue" points="238.196,-18.5001 248.196,-15 238.196,-11.5001 238.196,-18.5001"/>
</g>
</g>
</svg>
