<?xml version="1.0" encoding="UTF-8" standalone="no"?>
<!DOCTYPE svg PUBLIC "-//W3C//DTD SVG 1.1//EN"
 "http://www.w3.org/Graphics/SVG/1.1/DTD/svg11.dtd">
<!-- Generated by graphviz version 2.36.0 (20140111.2315)
 -->
<!-- Title: model.state.HighScore.toString Pages: 1 -->
<svg width="356pt" height="109pt"
 viewBox="0.00 0.00 356.00 109.00" xmlns="http://www.w3.org/2000/svg" xmlns:xlink="http://www.w3.org/1999/xlink">
<g id="graph0" class="graph" transform="scale(1 1) rotate(0) translate(4 105)">
<title>model.state.HighScore.toString</title>
<polygon fill="white" stroke="none" points="-4,4 -4,-105 352,-105 352,4 -4,4"/>
<!-- Node1 -->
<g id="node1" class="node"><title>Node1</title>
<polygon fill="#bfbfbf" stroke="black" points="0,-35 0,-65 140,-65 140,-35 0,-35"/>
<text text-anchor="start" x="8" y="-53" font-family="Helvetica,sans-Serif" font-size="10.00">model.state.HighScore.to</text>
<text text-anchor="middle" x="70" y="-42" font-family="Helvetica,sans-Serif" font-size="10.00">String</text>
</g>
<!-- Node2 -->
<g id="node2" class="node"><title>Node2</title>
<g id="a_node2"><a xlink:href="../../da/dc5/classmodel_1_1state_1_1gameelement_1_1_attribute_container.html#a5582c5bba557ed93a5269e562bca0ba2" target="_top" xlink:title="model.state.gameelement.\lAttributeContainer.getNumerical\lAttributes">
<polygon fill="white" stroke="black" points="176,-59.5 176,-100.5 348,-100.5 348,-59.5 176,-59.5"/>
<text text-anchor="start" x="184" y="-88.5" font-family="Helvetica,sans-Serif" font-size="10.00">model.state.gameelement.</text>
<text text-anchor="start" x="184" y="-77.5" font-family="Helvetica,sans-Serif" font-size="10.00">AttributeContainer.getNumerical</text>
<text text-anchor="middle" x="262" y="-66.5" font-family="Helvetica,sans-Serif" font-size="10.00">Attributes</text>
</a>
</g>
</g>
<!-- Node1&#45;&gt;Node2 -->
<g id="edge1" class="edge"><title>Node1&#45;&gt;Node2</title>
<path fill="none" stroke="midnightblue" d="M140.132,-60.9156C148.444,-62.2281 157.043,-63.5858 165.646,-64.9441"/>
<polygon fill="midnightblue" stroke="midnightblue" points="165.306,-68.4337 175.729,-66.5362 166.398,-61.5193 165.306,-68.4337"/>
</g>
<!-- Node3 -->
<g id="node3" class="node"><title>Node3</title>
<g id="a_node3"><a xlink:href="../../da/dc5/classmodel_1_1state_1_1gameelement_1_1_attribute_container.html#a4291bdbf5ccacfa0273f0e657e20406e" target="_top" xlink:title="model.state.gameelement.\lAttributeContainer.getTextual\lAttributes">
<polygon fill="white" stroke="black" points="184,0.5 184,-40.5 340,-40.5 340,0.5 184,0.5"/>
<text text-anchor="start" x="192" y="-28.5" font-family="Helvetica,sans-Serif" font-size="10.00">model.state.gameelement.</text>
<text text-anchor="start" x="192" y="-17.5" font-family="Helvetica,sans-Serif" font-size="10.00">AttributeContainer.getTextual</text>
<text text-anchor="middle" x="262" y="-6.5" font-family="Helvetica,sans-Serif" font-size="10.00">Attributes</text>
</a>
</g>
</g>
<!-- Node1&#45;&gt;Node3 -->
<g id="edge2" class="edge"><title>Node1&#45;&gt;Node3</title>
<path fill="none" stroke="midnightblue" d="M140.132,-39.0844C151.129,-37.3481 162.626,-35.5327 173.971,-33.7415"/>
<polygon fill="midnightblue" stroke="midnightblue" points="174.553,-37.193 183.885,-32.1761 173.461,-30.2787 174.553,-37.193"/>
</g>
</g>
</svg>
