<?xml version="1.0" encoding="UTF-8" standalone="no"?>
<!DOCTYPE svg PUBLIC "-//W3C//DTD SVG 1.1//EN"
 "http://www.w3.org/Graphics/SVG/1.1/DTD/svg11.dtd">
<!-- Generated by graphviz version 2.36.0 (20140111.2315)
 -->
<!-- Title: model.state.LevelIdentifier.equals Pages: 1 -->
<svg width="386pt" height="77pt"
 viewBox="0.00 0.00 386.00 77.00" xmlns="http://www.w3.org/2000/svg" xmlns:xlink="http://www.w3.org/1999/xlink">
<g id="graph0" class="graph" transform="scale(1 1) rotate(0) translate(4 73)">
<title>model.state.LevelIdentifier.equals</title>
<polygon fill="white" stroke="none" points="-4,4 -4,-73 382,-73 382,4 -4,4"/>
<!-- Node1 -->
<g id="node1" class="node"><title>Node1</title>
<polygon fill="#bfbfbf" stroke="black" points="0.5,-27.5 0.5,-46.5 177.5,-46.5 177.5,-27.5 0.5,-27.5"/>
<text text-anchor="middle" x="89" y="-34.5" font-family="Helvetica,sans-Serif" font-size="10.00">model.state.LevelIdentifier.equals</text>
</g>
<!-- Node2 -->
<g id="node2" class="node"><title>Node2</title>
<g id="a_node2"><a xlink:href="../../d2/de7/classmodel_1_1state_1_1_level_state.html#ac97822690ba6cf77535c9a9ff36c0831" target="_top" xlink:title="model.state.LevelState.equals">
<polygon fill="white" stroke="black" points="214.5,-49.5 214.5,-68.5 377.5,-68.5 377.5,-49.5 214.5,-49.5"/>
<text text-anchor="middle" x="296" y="-56.5" font-family="Helvetica,sans-Serif" font-size="10.00">model.state.LevelState.equals</text>
</a>
</g>
</g>
<!-- Node1&#45;&gt;Node2 -->
<g id="edge1" class="edge"><title>Node1&#45;&gt;Node2</title>
<path fill="none" stroke="midnightblue" d="M187.582,-47.4722C196.513,-48.4307 205.495,-49.3946 214.254,-50.3346"/>
<polygon fill="midnightblue" stroke="midnightblue" points="187.849,-43.9809 177.533,-46.3938 187.102,-50.9409 187.849,-43.9809"/>
</g>
<!-- Node3 -->
<g id="node3" class="node"><title>Node3</title>
<g id="a_node3"><a xlink:href="../../d4/d65/classview_1_1editor_1_1_tab_view_controller.html#aa4d9ac8a0954171fe4a22b65b2a53f47" target="_top" xlink:title="view.editor.TabViewController.is\lLevel">
<polygon fill="white" stroke="black" points="214.5,-0 214.5,-30 377.5,-30 377.5,-0 214.5,-0"/>
<text text-anchor="start" x="222.5" y="-18" font-family="Helvetica,sans-Serif" font-size="10.00">view.editor.TabViewController.is</text>
<text text-anchor="middle" x="296" y="-7" font-family="Helvetica,sans-Serif" font-size="10.00">Level</text>
</a>
</g>
</g>
<!-- Node1&#45;&gt;Node3 -->
<g id="edge2" class="edge"><title>Node1&#45;&gt;Node3</title>
<path fill="none" stroke="midnightblue" d="M187.582,-26.5278C196.513,-25.5693 205.495,-24.6054 214.254,-23.6654"/>
<polygon fill="midnightblue" stroke="midnightblue" points="187.102,-23.0591 177.533,-27.6062 187.849,-30.0191 187.102,-23.0591"/>
</g>
</g>
</svg>
