<?xml version="1.0" encoding="UTF-8" standalone="no"?>
<!DOCTYPE svg PUBLIC "-//W3C//DTD SVG 1.1//EN"
 "http://www.w3.org/Graphics/SVG/1.1/DTD/svg11.dtd">
<!-- Generated by graphviz version 2.36.0 (20140111.2315)
 -->
<!-- Title: resources.processing.SpriteSheetCreationUtility.colorToTransparency Pages: 1 -->
<svg width="850pt" height="48pt"
 viewBox="0.00 0.00 850.00 48.00" xmlns="http://www.w3.org/2000/svg" xmlns:xlink="http://www.w3.org/1999/xlink">
<g id="graph0" class="graph" transform="scale(1 1) rotate(0) translate(4 44)">
<title>resources.processing.SpriteSheetCreationUtility.colorToTransparency</title>
<polygon fill="white" stroke="none" points="-4,4 -4,-44 846,-44 846,4 -4,4"/>
<!-- Node1 -->
<g id="node1" class="node"><title>Node1</title>
<polygon fill="#bfbfbf" stroke="black" points="0,-5 0,-35 210,-35 210,-5 0,-5"/>
<text text-anchor="start" x="8" y="-23" font-family="Helvetica,sans-Serif" font-size="10.00">resources.processing.Sprite</text>
<text text-anchor="middle" x="105" y="-12" font-family="Helvetica,sans-Serif" font-size="10.00">SheetCreationUtility.colorToTransparency</text>
</g>
<!-- Node2 -->
<g id="node2" class="node"><title>Node2</title>
<g id="a_node2"><a xlink:href="../../d9/dd2/classresources_1_1processing_1_1_sprite_sheet_creation_utility.html#a5b78b61cf11f82c1c5a39b111efa7948" target="_top" xlink:title="resources.processing.Sprite\lSheetCreationUtility.createState\lSpritesheets">
<polygon fill="white" stroke="black" points="246.5,0.5 246.5,-40.5 417.5,-40.5 417.5,0.5 246.5,0.5"/>
<text text-anchor="start" x="254.5" y="-28.5" font-family="Helvetica,sans-Serif" font-size="10.00">resources.processing.Sprite</text>
<text text-anchor="start" x="254.5" y="-17.5" font-family="Helvetica,sans-Serif" font-size="10.00">SheetCreationUtility.createState</text>
<text text-anchor="middle" x="332" y="-6.5" font-family="Helvetica,sans-Serif" font-size="10.00">Spritesheets</text>
</a>
</g>
</g>
<!-- Node1&#45;&gt;Node2 -->
<g id="edge1" class="edge"><title>Node1&#45;&gt;Node2</title>
<path fill="none" stroke="midnightblue" d="M220.469,-20C229.164,-20 237.843,-20 246.298,-20"/>
<polygon fill="midnightblue" stroke="midnightblue" points="220.267,-16.5001 210.267,-20 220.267,-23.5001 220.267,-16.5001"/>
</g>
<!-- Node3 -->
<g id="node3" class="node"><title>Node3</title>
<g id="a_node3"><a xlink:href="../../d9/dd2/classresources_1_1processing_1_1_sprite_sheet_creation_utility.html#ae6cfdcbbcc6c6eb2f12aefded0c6337f" target="_top" xlink:title="resources.processing.Sprite\lSheetCreationUtility.createSpriteSheet">
<polygon fill="white" stroke="black" points="454,-5 454,-35 656,-35 656,-5 454,-5"/>
<text text-anchor="start" x="462" y="-23" font-family="Helvetica,sans-Serif" font-size="10.00">resources.processing.Sprite</text>
<text text-anchor="middle" x="555" y="-12" font-family="Helvetica,sans-Serif" font-size="10.00">SheetCreationUtility.createSpriteSheet</text>
</a>
</g>
</g>
<!-- Node2&#45;&gt;Node3 -->
<g id="edge2" class="edge"><title>Node2&#45;&gt;Node3</title>
<path fill="none" stroke="midnightblue" d="M427.86,-20C436.481,-20 445.232,-20 453.896,-20"/>
<polygon fill="midnightblue" stroke="midnightblue" points="427.812,-16.5001 417.812,-20 427.812,-23.5001 427.812,-16.5001"/>
</g>
<!-- Node4 -->
<g id="node4" class="node"><title>Node4</title>
<g id="a_node4"><a xlink:href="../../d9/dd2/classresources_1_1processing_1_1_sprite_sheet_creation_utility.html#a061298d3fd66edebf2f8d1fb9770df3c" target="_top" xlink:title="resources.processing.Sprite\lSheetCreationUtility.main">
<polygon fill="white" stroke="black" points="692,-5 692,-35 842,-35 842,-5 692,-5"/>
<text text-anchor="start" x="700" y="-23" font-family="Helvetica,sans-Serif" font-size="10.00">resources.processing.Sprite</text>
<text text-anchor="middle" x="767" y="-12" font-family="Helvetica,sans-Serif" font-size="10.00">SheetCreationUtility.main</text>
</a>
</g>
</g>
<!-- Node3&#45;&gt;Node4 -->
<g id="edge3" class="edge"><title>Node3&#45;&gt;Node4</title>
<path fill="none" stroke="midnightblue" d="M666.247,-20C674.902,-20 683.509,-20 691.833,-20"/>
<polygon fill="midnightblue" stroke="midnightblue" points="666.08,-16.5001 656.08,-20 666.08,-23.5001 666.08,-16.5001"/>
</g>
</g>
</svg>
