<?xml version="1.0" encoding="UTF-8" standalone="no"?>
<!DOCTYPE svg PUBLIC "-//W3C//DTD SVG 1.1//EN"
 "http://www.w3.org/Graphics/SVG/1.1/DTD/svg11.dtd">
<!-- Generated by graphviz version 2.36.0 (20140111.2315)
 -->
<!-- Title: resources.processing.SpriteSheetCreationUtility.extractAllSpriteLists Pages: 1 -->
<svg width="592pt" height="48pt"
 viewBox="0.00 0.00 592.00 48.00" xmlns="http://www.w3.org/2000/svg" xmlns:xlink="http://www.w3.org/1999/xlink">
<g id="graph0" class="graph" transform="scale(1 1) rotate(0) translate(4 44)">
<title>resources.processing.SpriteSheetCreationUtility.extractAllSpriteLists</title>
<polygon fill="white" stroke="none" points="-4,4 -4,-44 588,-44 588,4 -4,4"/>
<!-- Node1 -->
<g id="node1" class="node"><title>Node1</title>
<polygon fill="#bfbfbf" stroke="black" points="0.5,0.5 0.5,-40.5 159.5,-40.5 159.5,0.5 0.5,0.5"/>
<text text-anchor="start" x="8.5" y="-28.5" font-family="Helvetica,sans-Serif" font-size="10.00">resources.processing.Sprite</text>
<text text-anchor="start" x="8.5" y="-17.5" font-family="Helvetica,sans-Serif" font-size="10.00">SheetCreationUtility.extractAll</text>
<text text-anchor="middle" x="80" y="-6.5" font-family="Helvetica,sans-Serif" font-size="10.00">SpriteLists</text>
</g>
<!-- Node2 -->
<g id="node2" class="node"><title>Node2</title>
<g id="a_node2"><a xlink:href="../../d9/dd2/classresources_1_1processing_1_1_sprite_sheet_creation_utility.html#ae6cfdcbbcc6c6eb2f12aefded0c6337f" target="_top" xlink:title="resources.processing.Sprite\lSheetCreationUtility.createSpriteSheet">
<polygon fill="white" stroke="black" points="196,-5 196,-35 398,-35 398,-5 196,-5"/>
<text text-anchor="start" x="204" y="-23" font-family="Helvetica,sans-Serif" font-size="10.00">resources.processing.Sprite</text>
<text text-anchor="middle" x="297" y="-12" font-family="Helvetica,sans-Serif" font-size="10.00">SheetCreationUtility.createSpriteSheet</text>
</a>
</g>
</g>
<!-- Node1&#45;&gt;Node2 -->
<g id="edge1" class="edge"><title>Node1&#45;&gt;Node2</title>
<path fill="none" stroke="midnightblue" d="M169.556,-20C178.172,-20 186.956,-20 195.676,-20"/>
<polygon fill="midnightblue" stroke="midnightblue" points="169.533,-16.5001 159.533,-20 169.533,-23.5001 169.533,-16.5001"/>
</g>
<!-- Node3 -->
<g id="node3" class="node"><title>Node3</title>
<g id="a_node3"><a xlink:href="../../d9/dd2/classresources_1_1processing_1_1_sprite_sheet_creation_utility.html#a061298d3fd66edebf2f8d1fb9770df3c" target="_top" xlink:title="resources.processing.Sprite\lSheetCreationUtility.main">
<polygon fill="white" stroke="black" points="434,-5 434,-35 584,-35 584,-5 434,-5"/>
<text text-anchor="start" x="442" y="-23" font-family="Helvetica,sans-Serif" font-size="10.00">resources.processing.Sprite</text>
<text text-anchor="middle" x="509" y="-12" font-family="Helvetica,sans-Serif" font-size="10.00">SheetCreationUtility.main</text>
</a>
</g>
</g>
<!-- Node2&#45;&gt;Node3 -->
<g id="edge2" class="edge"><title>Node2&#45;&gt;Node3</title>
<path fill="none" stroke="midnightblue" d="M408.247,-20C416.902,-20 425.509,-20 433.833,-20"/>
<polygon fill="midnightblue" stroke="midnightblue" points="408.08,-16.5001 398.08,-20 408.08,-23.5001 408.08,-16.5001"/>
</g>
</g>
</svg>
