<?xml version="1.0" encoding="UTF-8" standalone="no"?>
<!DOCTYPE svg PUBLIC "-//W3C//DTD SVG 1.1//EN"
 "http://www.w3.org/Graphics/SVG/1.1/DTD/svg11.dtd">
<!-- Generated by graphviz version 2.36.0 (20140111.2315)
 -->
<!-- Title: editor.ElementDropDownController.setButtonAction Pages: 1 -->
<svg width="1006pt" height="38pt"
 viewBox="0.00 0.00 1006.00 38.00" xmlns="http://www.w3.org/2000/svg" xmlns:xlink="http://www.w3.org/1999/xlink">
<g id="graph0" class="graph" transform="scale(1 1) rotate(0) translate(4 34)">
<title>editor.ElementDropDownController.setButtonAction</title>
<polygon fill="white" stroke="none" points="-4,4 -4,-34 1002,-34 1002,4 -4,4"/>
<!-- Node1 -->
<g id="node1" class="node"><title>Node1</title>
<polygon fill="#bfbfbf" stroke="black" points="0,-0 0,-30 200,-30 200,-0 0,-0"/>
<text text-anchor="start" x="8" y="-18" font-family="Helvetica,sans-Serif" font-size="10.00">editor.ElementDropDownController.set</text>
<text text-anchor="middle" x="100" y="-7" font-family="Helvetica,sans-Serif" font-size="10.00">ButtonAction</text>
</g>
<!-- Node2 -->
<g id="node2" class="node"><title>Node2</title>
<g id="a_node2"><a xlink:href="../../d4/dcd/classeditor_1_1_element_accordion_controller.html#a57a1b43f70896bbf2e27373594ba8810" target="_top" xlink:title="editor.ElementAccordionController.update\lItems">
<polygon fill="white" stroke="black" points="236,-0 236,-30 452,-30 452,-0 236,-0"/>
<text text-anchor="start" x="244" y="-18" font-family="Helvetica,sans-Serif" font-size="10.00">editor.ElementAccordionController.update</text>
<text text-anchor="middle" x="344" y="-7" font-family="Helvetica,sans-Serif" font-size="10.00">Items</text>
</a>
</g>
</g>
<!-- Node1&#45;&gt;Node2 -->
<g id="edge1" class="edge"><title>Node1&#45;&gt;Node2</title>
<path fill="none" stroke="midnightblue" d="M210.377,-15C218.818,-15 227.335,-15 235.763,-15"/>
<polygon fill="midnightblue" stroke="midnightblue" points="210.129,-11.5001 200.129,-15 210.129,-18.5001 210.129,-11.5001"/>
</g>
<!-- Node3 -->
<g id="node3" class="node"><title>Node3</title>
<g id="a_node3"><a xlink:href="../../dc/d5c/classeditor_1_1_editor_screen.html#a575ccd70c0dcc7565df86cc590de47ba" target="_top" xlink:title="editor.EditorScreen.update\lAccordion">
<polygon fill="white" stroke="black" points="488.5,-0 488.5,-30 633.5,-30 633.5,-0 488.5,-0"/>
<text text-anchor="start" x="496.5" y="-18" font-family="Helvetica,sans-Serif" font-size="10.00">editor.EditorScreen.update</text>
<text text-anchor="middle" x="561" y="-7" font-family="Helvetica,sans-Serif" font-size="10.00">Accordion</text>
</a>
</g>
</g>
<!-- Node2&#45;&gt;Node3 -->
<g id="edge2" class="edge"><title>Node2&#45;&gt;Node3</title>
<path fill="none" stroke="midnightblue" d="M462.268,-15C471.177,-15 479.996,-15 488.476,-15"/>
<polygon fill="midnightblue" stroke="midnightblue" points="462.185,-11.5001 452.185,-15 462.185,-18.5001 462.185,-11.5001"/>
</g>
<!-- Node4 -->
<g id="node4" class="node"><title>Node4</title>
<g id="a_node4"><a xlink:href="../../dc/d5c/classeditor_1_1_editor_screen.html#ae17f78235329632f2090fdfb7b358a66" target="_top" xlink:title="editor.EditorScreen.update">
<polygon fill="white" stroke="black" points="670.5,-5.5 670.5,-24.5 815.5,-24.5 815.5,-5.5 670.5,-5.5"/>
<text text-anchor="middle" x="743" y="-12.5" font-family="Helvetica,sans-Serif" font-size="10.00">editor.EditorScreen.update</text>
</a>
</g>
</g>
<!-- Node3&#45;&gt;Node4 -->
<g id="edge3" class="edge"><title>Node3&#45;&gt;Node4</title>
<path fill="none" stroke="midnightblue" d="M643.921,-15C652.722,-15 661.626,-15 670.295,-15"/>
<polygon fill="midnightblue" stroke="midnightblue" points="643.658,-11.5001 633.658,-15 643.658,-18.5001 643.658,-11.5001"/>
</g>
<!-- Node5 -->
<g id="node5" class="node"><title>Node5</title>
<g id="a_node5"><a xlink:href="../../dc/d5c/classeditor_1_1_editor_screen.html#a13378a8f469be9b38ba16457a64b7e9a" target="_top" xlink:title="editor.EditorScreen.update\lTabViewControllers">
<polygon fill="white" stroke="black" points="852.5,-0 852.5,-30 997.5,-30 997.5,-0 852.5,-0"/>
<text text-anchor="start" x="860.5" y="-18" font-family="Helvetica,sans-Serif" font-size="10.00">editor.EditorScreen.update</text>
<text text-anchor="middle" x="925" y="-7" font-family="Helvetica,sans-Serif" font-size="10.00">TabViewControllers</text>
</a>
</g>
</g>
<!-- Node4&#45;&gt;Node5 -->
<g id="edge4" class="edge"><title>Node4&#45;&gt;Node5</title>
<path fill="none" stroke="midnightblue" d="M825.921,-8.27423C834.722,-8.22131 843.626,-8.25507 852.295,-8.37551"/>
<polygon fill="midnightblue" stroke="midnightblue" points="825.623,-4.77693 815.658,-8.37617 825.692,-11.7766 825.623,-4.77693"/>
</g>
<!-- Node5&#45;&gt;Node4 -->
<g id="edge5" class="edge"><title>Node5&#45;&gt;Node4</title>
<path fill="none" stroke="midnightblue" d="M842.031,-21.7261C833.23,-21.7787 824.325,-21.7446 815.658,-21.6238"/>
<polygon fill="midnightblue" stroke="midnightblue" points="842.33,-25.2234 852.295,-21.6245 842.26,-18.2237 842.33,-25.2234"/>
</g>
</g>
</svg>
