<?xml version="1.0" encoding="UTF-8" standalone="no"?>
<!DOCTYPE svg PUBLIC "-//W3C//DTD SVG 1.1//EN"
 "http://www.w3.org/Graphics/SVG/1.1/DTD/svg11.dtd">
<!-- Generated by graphviz version 2.36.0 (20140111.2315)
 -->
<!-- Title: editor.TabViewController.launchNestedWizard Pages: 1 -->
<!--zoomable 251 -->
<svg id="main" version="1.1" xmlns="http://www.w3.org/2000/svg" xmlns:xlink="http://www.w3.org/1999/xlink" xml:space="preserve" onload="init(evt)">
<style type="text/css"><![CDATA[
.edge:hover path { stroke: red; }
.edge:hover polygon { stroke: red; fill: red; }
]]></style>
<script type="text/javascript"><![CDATA[
var edges = document.getElementsByTagName('g');
if (edges && edges.length) {
  for (var i=0;i<edges.length;i++) {
    if (edges[i].id.substr(0,4)=='edge') {
      edges[i].setAttribute('class','edge');
    }
  }
}
]]></script>
        <defs>
                <circle id="rim" cx="0" cy="0" r="7"/>
                <circle id="rim2" cx="0" cy="0" r="3.5"/>
                <g id="zoomPlus">
                        <use xlink:href="#rim" fill="#404040">
                                <set attributeName="fill" to="#808080" begin="zoomplus.mouseover" end="zoomplus.mouseout"/>
                        </use>
                        <path d="M-4,0h8M0,-4v8" fill="none" stroke="white" stroke-width="1.5" pointer-events="none"/>
                </g>
                <g id="zoomMin">
                        <use xlink:href="#rim" fill="#404040">
                                <set attributeName="fill" to="#808080" begin="zoomminus.mouseover" end="zoomminus.mouseout"/>
                        </use>
                        <path d="M-4,0h8" fill="none" stroke="white" stroke-width="1.5" pointer-events="none"/>
                </g>
                <g id="dirArrow">
                        <path fill="none" stroke="white" stroke-width="1.5" d="M0,-3.0v7 M-2.5,-0.5L0,-3.0L2.5,-0.5"/>
                </g>
               <g id="resetDef">
                       <use xlink:href="#rim2" fill="#404040">
                               <set attributeName="fill" to="#808080" begin="reset.mouseover" end="reset.mouseout"/>
                       </use>
               </g>
        </defs>

<script type="text/javascript">
var viewWidth = 896;
var viewHeight = 251;
var sectionId = 'dynsection-4';
</script>
<script xlink:href="../../svgpan.js"/>
<svg id="graph" class="graph">
<g id="viewport">
<title>editor.TabViewController.launchNestedWizard</title>
<polygon fill="white" stroke="none" points="-4,4 -4,-247 892,-247 892,4 -4,4"/>
<!-- Node1 -->
<g id="node1" class="node"><title>Node1</title>
<polygon fill="#bfbfbf" stroke="black" points="0,-68 0,-98 164,-98 164,-68 0,-68"/>
<text text-anchor="start" x="8" y="-86" font-family="Helvetica,sans-Serif" font-size="10.00">editor.TabViewController.launch</text>
<text text-anchor="middle" x="82" y="-75" font-family="Helvetica,sans-Serif" font-size="10.00">NestedWizard</text>
</g>
<!-- Node2 -->
<g id="node2" class="node"><title>Node2</title>
<g id="a_node2"><a xlink:href="../../da/d8d/classgamemodel_1_1_main_model.html#a325818c8458f90d2ae1b21bd2133571b" target="_top" xlink:title="gamemodel.MainModel.addGoal">
<polygon fill="white" stroke="black" points="200.5,-142.5 200.5,-161.5 371.5,-161.5 371.5,-142.5 200.5,-142.5"/>
<text text-anchor="middle" x="286" y="-149.5" font-family="Helvetica,sans-Serif" font-size="10.00">gamemodel.MainModel.addGoal</text>
</a>
</g>
</g>
<!-- Node1&#45;&gt;Node2 -->
<g id="edge1" class="edge"><title>Node1&#45;&gt;Node2</title>
<path fill="none" stroke="midnightblue" d="M118.214,-98.02C141.248,-107.552 172.129,-119.781 200,-129 211.679,-132.863 224.415,-136.57 236.388,-139.837"/>
<polygon fill="midnightblue" stroke="midnightblue" points="235.662,-143.266 246.227,-142.472 237.473,-136.504 235.662,-143.266"/>
</g>
<!-- Node7 -->
<g id="node7" class="node"><title>Node7</title>
<g id="a_node7"><a xlink:href="../../d9/d24/classeditor_1_1wizards_1_1_wizard.html#a900163c75d7ec227b98fe35c9afa7505" target="_top" xlink:title="editor.wizards.Wizard.get\lStage">
<polygon fill="white" stroke="black" points="218.5,-90 218.5,-120 353.5,-120 353.5,-90 218.5,-90"/>
<text text-anchor="start" x="226.5" y="-108" font-family="Helvetica,sans-Serif" font-size="10.00">editor.wizards.Wizard.get</text>
<text text-anchor="middle" x="286" y="-97" font-family="Helvetica,sans-Serif" font-size="10.00">Stage</text>
</a>
</g>
</g>
<!-- Node1&#45;&gt;Node7 -->
<g id="edge6" class="edge"><title>Node1&#45;&gt;Node7</title>
<path fill="none" stroke="midnightblue" d="M164.288,-91.8531C178.756,-93.4288 193.785,-95.0657 208.125,-96.6275"/>
<polygon fill="midnightblue" stroke="midnightblue" points="208.107,-100.146 218.427,-97.7495 208.865,-93.1873 208.107,-100.146"/>
</g>
<!-- Node8 -->
<g id="node8" class="node"><title>Node8</title>
<g id="a_node8"><a xlink:href="../../dc/d5a/classview_1_1_wizard_utility.html#a7df411758a1fe47f34f7372db53355bf" target="_top" xlink:title="view.WizardUtility.loadWizard">
<polygon fill="white" stroke="black" points="210.5,-51.5 210.5,-70.5 361.5,-70.5 361.5,-51.5 210.5,-51.5"/>
<text text-anchor="middle" x="286" y="-58.5" font-family="Helvetica,sans-Serif" font-size="10.00">view.WizardUtility.loadWizard</text>
</a>
</g>
</g>
<!-- Node1&#45;&gt;Node8 -->
<g id="edge7" class="edge"><title>Node1&#45;&gt;Node8</title>
<path fill="none" stroke="midnightblue" d="M164.288,-74.1469C176.193,-72.8503 188.478,-71.5123 200.447,-70.2087"/>
<polygon fill="midnightblue" stroke="midnightblue" points="200.849,-73.6858 210.411,-69.1236 200.091,-66.7269 200.849,-73.6858"/>
</g>
<!-- Node12 -->
<g id="node12" class="node"><title>Node12</title>
<g id="a_node12"><a xlink:href="../../d9/d24/classeditor_1_1wizards_1_1_wizard.html#a000a0be1e53ca727dc03770e6269db9c" target="_top" xlink:title="editor.wizards.Wizard.set\lSubmit">
<polygon fill="white" stroke="black" points="219,-2 219,-32 353,-32 353,-2 219,-2"/>
<text text-anchor="start" x="227" y="-20" font-family="Helvetica,sans-Serif" font-size="10.00">editor.wizards.Wizard.set</text>
<text text-anchor="middle" x="286" y="-9" font-family="Helvetica,sans-Serif" font-size="10.00">Submit</text>
</a>
</g>
</g>
<!-- Node1&#45;&gt;Node12 -->
<g id="edge11" class="edge"><title>Node1&#45;&gt;Node12</title>
<path fill="none" stroke="midnightblue" d="M124.249,-67.9678C146.579,-59.9767 174.698,-50.1483 200,-42 207.309,-39.6461 215,-37.2596 222.646,-34.9426"/>
<polygon fill="midnightblue" stroke="midnightblue" points="223.703,-38.2798 232.274,-32.0528 221.69,-31.5753 223.703,-38.2798"/>
</g>
<!-- Node3 -->
<g id="node3" class="node"><title>Node3</title>
<g id="a_node3"><a xlink:href="../../db/dca/classgamemodel_1_1_game_element_state_factory.html#ae612d140ffd9c7806505a8ade5e9be5c" target="_top" xlink:title="gamemodel.GameElementState\lFactory.createGoal">
<polygon fill="white" stroke="black" points="427.5,-186 427.5,-216 600.5,-216 600.5,-186 427.5,-186"/>
<text text-anchor="start" x="435.5" y="-204" font-family="Helvetica,sans-Serif" font-size="10.00">gamemodel.GameElementState</text>
<text text-anchor="middle" x="514" y="-193" font-family="Helvetica,sans-Serif" font-size="10.00">Factory.createGoal</text>
</a>
</g>
</g>
<!-- Node2&#45;&gt;Node3 -->
<g id="edge2" class="edge"><title>Node2&#45;&gt;Node3</title>
<path fill="none" stroke="midnightblue" d="M330.843,-161.506C359.934,-167.813 398.961,-176.275 433.428,-183.748"/>
<polygon fill="midnightblue" stroke="midnightblue" points="432.973,-187.23 443.488,-185.929 434.456,-180.389 432.973,-187.23"/>
</g>
<!-- Node6 -->
<g id="node6" class="node"><title>Node6</title>
<g id="a_node6"><a xlink:href="../../d3/d7a/classgame__engine_1_1game_representation_1_1state_representation_1_1_level_state.html#a3468d766686b1fab4b4c7682f11ce0f2" target="_top" xlink:title="game_engine.gameRepresentation.state\lRepresentation.LevelState.addGoal">
<polygon fill="white" stroke="black" points="408,-137 408,-167 620,-167 620,-137 408,-137"/>
<text text-anchor="start" x="416" y="-155" font-family="Helvetica,sans-Serif" font-size="10.00">game_engine.gameRepresentation.state</text>
<text text-anchor="middle" x="514" y="-144" font-family="Helvetica,sans-Serif" font-size="10.00">Representation.LevelState.addGoal</text>
</a>
</g>
</g>
<!-- Node2&#45;&gt;Node6 -->
<g id="edge5" class="edge"><title>Node2&#45;&gt;Node6</title>
<path fill="none" stroke="midnightblue" d="M371.797,-152C380.259,-152 388.947,-152 397.653,-152"/>
<polygon fill="midnightblue" stroke="midnightblue" points="397.87,-155.5 407.87,-152 397.87,-148.5 397.87,-155.5"/>
</g>
<!-- Node4 -->
<g id="node4" class="node"><title>Node4</title>
<g id="a_node4"><a xlink:href="../../dc/d23/classeditor_1_1wizards_1_1_wizard_data.html#a5d032318071e955a952e4cc73bf35751" target="_top" xlink:title="editor.wizards.WizardData.get\lWizardDataByType">
<polygon fill="white" stroke="black" points="693,-213 693,-243 851,-243 851,-213 693,-213"/>
<text text-anchor="start" x="701" y="-231" font-family="Helvetica,sans-Serif" font-size="10.00">editor.wizards.WizardData.get</text>
<text text-anchor="middle" x="772" y="-220" font-family="Helvetica,sans-Serif" font-size="10.00">WizardDataByType</text>
</a>
</g>
</g>
<!-- Node3&#45;&gt;Node4 -->
<g id="edge3" class="edge"><title>Node3&#45;&gt;Node4</title>
<path fill="none" stroke="midnightblue" d="M600.6,-210.028C627.022,-212.815 656.162,-215.888 682.758,-218.693"/>
<polygon fill="midnightblue" stroke="midnightblue" points="682.504,-222.186 692.816,-219.754 683.238,-215.224 682.504,-222.186"/>
</g>
<!-- Node5 -->
<g id="node5" class="node"><title>Node5</title>
<g id="a_node5"><a xlink:href="../../dc/d2d/classgame__engine_1_1game_representation_1_1state_representation_1_1game_element_1_1_game_element_state.html#a28dcf503bb7ba9dbadf61dbec9ee5e57" target="_top" xlink:title="game_engine.gameRepresentation.state\lRepresentation.gameElement.GameElement\lState.addAction">
<polygon fill="white" stroke="black" points="656.5,-153.5 656.5,-194.5 887.5,-194.5 887.5,-153.5 656.5,-153.5"/>
<text text-anchor="start" x="664.5" y="-182.5" font-family="Helvetica,sans-Serif" font-size="10.00">game_engine.gameRepresentation.state</text>
<text text-anchor="start" x="664.5" y="-171.5" font-family="Helvetica,sans-Serif" font-size="10.00">Representation.gameElement.GameElement</text>
<text text-anchor="middle" x="772" y="-160.5" font-family="Helvetica,sans-Serif" font-size="10.00">State.addAction</text>
</a>
</g>
</g>
<!-- Node3&#45;&gt;Node5 -->
<g id="edge4" class="edge"><title>Node3&#45;&gt;Node5</title>
<path fill="none" stroke="midnightblue" d="M600.6,-191.972C615.266,-190.425 630.769,-188.79 646.21,-187.161"/>
<polygon fill="midnightblue" stroke="midnightblue" points="646.761,-190.623 656.339,-186.093 646.027,-183.661 646.761,-190.623"/>
</g>
<!-- Node9 -->
<g id="node9" class="node"><title>Node9</title>
<g id="a_node9"><a xlink:href="../../de/d50/classview_1_1_g_u_i_load_style_utility.html#a3f0bdbc7239563c54aa365afd86f620d" target="_top" xlink:title="view.GUILoadStyleUtility.generate\lGUIPane">
<polygon fill="white" stroke="black" points="426,-88 426,-118 602,-118 602,-88 426,-88"/>
<text text-anchor="start" x="434" y="-106" font-family="Helvetica,sans-Serif" font-size="10.00">view.GUILoadStyleUtility.generate</text>
<text text-anchor="middle" x="514" y="-95" font-family="Helvetica,sans-Serif" font-size="10.00">GUIPane</text>
</a>
</g>
</g>
<!-- Node8&#45;&gt;Node9 -->
<g id="edge8" class="edge"><title>Node8&#45;&gt;Node9</title>
<path fill="none" stroke="midnightblue" d="M338.283,-70.5305C363.097,-75.1419 393.639,-80.8178 422.208,-86.1272"/>
<polygon fill="midnightblue" stroke="midnightblue" points="421.748,-89.6015 432.219,-87.9876 423.027,-82.7193 421.748,-89.6015"/>
</g>
<!-- Node10 -->
<g id="node10" class="node"><title>Node10</title>
<g id="a_node10"><a xlink:href="../../d9/d24/classeditor_1_1wizards_1_1_wizard.html#a72e3a81c25878fea0201a98307c78622" target="_top" xlink:title="editor.wizards.Wizard.getRoot">
<polygon fill="white" stroke="black" points="436,-49.5 436,-68.5 592,-68.5 592,-49.5 436,-49.5"/>
<text text-anchor="middle" x="514" y="-56.5" font-family="Helvetica,sans-Serif" font-size="10.00">editor.wizards.Wizard.getRoot</text>
</a>
</g>
</g>
<!-- Node8&#45;&gt;Node10 -->
<g id="edge9" class="edge"><title>Node8&#45;&gt;Node10</title>
<path fill="none" stroke="midnightblue" d="M361.627,-60.3396C382.068,-60.1587 404.41,-59.961 425.501,-59.7743"/>
<polygon fill="midnightblue" stroke="midnightblue" points="425.772,-63.2722 435.741,-59.6837 425.71,-56.2724 425.772,-63.2722"/>
</g>
<!-- Node11 -->
<g id="node11" class="node"><title>Node11</title>
<g id="a_node11"><a xlink:href="../../d9/d24/classeditor_1_1wizards_1_1_wizard.html#ae8a3ae83055f5b39fbafec5ea3a379eb" target="_top" xlink:title="editor.wizards.Wizard.set\lStage">
<polygon fill="white" stroke="black" points="447,-0 447,-30 581,-30 581,-0 447,-0"/>
<text text-anchor="start" x="455" y="-18" font-family="Helvetica,sans-Serif" font-size="10.00">editor.wizards.Wizard.set</text>
<text text-anchor="middle" x="514" y="-7" font-family="Helvetica,sans-Serif" font-size="10.00">Stage</text>
</a>
</g>
</g>
<!-- Node8&#45;&gt;Node11 -->
<g id="edge10" class="edge"><title>Node8&#45;&gt;Node11</title>
<path fill="none" stroke="midnightblue" d="M333.827,-51.4688C363.599,-45.409 402.833,-37.4234 436.996,-30.4699"/>
<polygon fill="midnightblue" stroke="midnightblue" points="437.849,-33.868 446.95,-28.4438 436.453,-27.0087 437.849,-33.868"/>
</g>
</g>
</svg>
        <g id="navigator" transform="translate(0 0)" fill="#404254">
                <rect fill="#f2f5e9" fill-opacity="0.5" stroke="#606060" stroke-width=".5" x="0" y="0" width="60" height="60"/>
                <use id="zoomplus" xlink:href="#zoomPlus" x="17" y="9" onmousedown="handleZoom(evt,'in')"/>
                <use id="zoomminus" xlink:href="#zoomMin" x="42" y="9" onmousedown="handleZoom(evt,'out')"/>
                <use id="reset" xlink:href="#resetDef" x="30" y="36" onmousedown="handleReset()"/>
                <g id="arrowUp" xlink:href="#dirArrow" transform="translate(30 24)" onmousedown="handlePan(0,-1)">
                  <use xlink:href="#rim" fill="#404040">
                        <set attributeName="fill" to="#808080" begin="arrowUp.mouseover" end="arrowUp.mouseout"/>
                  </use>
                  <path fill="none" stroke="white" stroke-width="1.5" d="M0,-3.0v7 M-2.5,-0.5L0,-3.0L2.5,-0.5"/>
                </g>
                <g id="arrowRight" xlink:href="#dirArrow" transform="rotate(90) translate(36 -43)" onmousedown="handlePan(1,0)">
                  <use xlink:href="#rim" fill="#404040">
                        <set attributeName="fill" to="#808080" begin="arrowRight.mouseover" end="arrowRight.mouseout"/>
                  </use>
                  <path fill="none" stroke="white" stroke-width="1.5" d="M0,-3.0v7 M-2.5,-0.5L0,-3.0L2.5,-0.5"/>
                </g>
                <g id="arrowDown" xlink:href="#dirArrow" transform="rotate(180) translate(-30 -48)" onmousedown="handlePan(0,1)">
                  <use xlink:href="#rim" fill="#404040">
                        <set attributeName="fill" to="#808080" begin="arrowDown.mouseover" end="arrowDown.mouseout"/>
                  </use>
                  <path fill="none" stroke="white" stroke-width="1.5" d="M0,-3.0v7 M-2.5,-0.5L0,-3.0L2.5,-0.5"/>
                </g>
                <g id="arrowLeft" xlink:href="#dirArrow" transform="rotate(270) translate(-36 17)" onmousedown="handlePan(-1,0)">
                  <use xlink:href="#rim" fill="#404040">
                        <set attributeName="fill" to="#808080" begin="arrowLeft.mouseover" end="arrowLeft.mouseout"/>
                  </use>
                  <path fill="none" stroke="white" stroke-width="1.5" d="M0,-3.0v7 M-2.5,-0.5L0,-3.0L2.5,-0.5"/>
                </g>
        </g>
        <svg viewBox="0 0 15 15" width="100%" height="30px" preserveAspectRatio="xMaxYMin meet">
         <g id="arrow_out" transform="scale(0.3 0.3)">
          <a xlink:href="classeditor_1_1_tab_view_controller_a07885d5b594264a4359221e99b50c6cf_cgraph_org.svg" target="_base">
           <rect id="button" ry="5" rx="5" y="6" x="6" height="38" width="38"
                fill="#f2f5e9" fill-opacity="0.5" stroke="#606060" stroke-width="1.0"/>
           <path id="arrow"
             d="M 11.500037,31.436501 C 11.940474,20.09759 22.043105,11.32322 32.158766,21.979434 L 37.068811,17.246167 C 37.068811,17.246167 37.088388,32 37.088388,32 L 22.160133,31.978069 C 22.160133,31.978069 26.997745,27.140456 26.997745,27.140456 C 18.528582,18.264221 13.291696,25.230495 11.500037,31.436501 z"
             style="fill:#404040;"/>
          </a>
         </g>
        </svg>
</svg>
