<?xml version="1.0" encoding="UTF-8" standalone="no"?>
<!DOCTYPE svg PUBLIC "-//W3C//DTD SVG 1.1//EN"
 "http://www.w3.org/Graphics/SVG/1.1/DTD/svg11.dtd">
<!-- Generated by graphviz version 2.36.0 (20140111.2315)
 -->
<!-- Title: editor.TabViewController.init Pages: 1 -->
<!--zoomable 268 -->
<svg id="main" version="1.1" xmlns="http://www.w3.org/2000/svg" xmlns:xlink="http://www.w3.org/1999/xlink" xml:space="preserve" onload="init(evt)">
<style type="text/css"><![CDATA[
.edge:hover path { stroke: red; }
.edge:hover polygon { stroke: red; fill: red; }
]]></style>
<script type="text/javascript"><![CDATA[
var edges = document.getElementsByTagName('g');
if (edges && edges.length) {
  for (var i=0;i<edges.length;i++) {
    if (edges[i].id.substr(0,4)=='edge') {
      edges[i].setAttribute('class','edge');
    }
  }
}
]]></script>
        <defs>
                <circle id="rim" cx="0" cy="0" r="7"/>
                <circle id="rim2" cx="0" cy="0" r="3.5"/>
                <g id="zoomPlus">
                        <use xlink:href="#rim" fill="#404040">
                                <set attributeName="fill" to="#808080" begin="zoomplus.mouseover" end="zoomplus.mouseout"/>
                        </use>
                        <path d="M-4,0h8M0,-4v8" fill="none" stroke="white" stroke-width="1.5" pointer-events="none"/>
                </g>
                <g id="zoomMin">
                        <use xlink:href="#rim" fill="#404040">
                                <set attributeName="fill" to="#808080" begin="zoomminus.mouseover" end="zoomminus.mouseout"/>
                        </use>
                        <path d="M-4,0h8" fill="none" stroke="white" stroke-width="1.5" pointer-events="none"/>
                </g>
                <g id="dirArrow">
                        <path fill="none" stroke="white" stroke-width="1.5" d="M0,-3.0v7 M-2.5,-0.5L0,-3.0L2.5,-0.5"/>
                </g>
               <g id="resetDef">
                       <use xlink:href="#rim2" fill="#404040">
                               <set attributeName="fill" to="#808080" begin="reset.mouseover" end="reset.mouseout"/>
                       </use>
               </g>
        </defs>

<script type="text/javascript">
var viewWidth = 1080;
var viewHeight = 268;
var sectionId = 'dynsection-3';
</script>
<script xlink:href="../../svgpan.js"/>
<svg id="graph" class="graph">
<g id="viewport">
<title>editor.TabViewController.init</title>
<polygon fill="white" stroke="none" points="-4,4 -4,-264 1076,-264 1076,4 -4,4"/>
<!-- Node1 -->
<g id="node1" class="node"><title>Node1</title>
<polygon fill="#bfbfbf" stroke="black" points="0.5,-51.5 0.5,-70.5 147.5,-70.5 147.5,-51.5 0.5,-51.5"/>
<text text-anchor="middle" x="74" y="-58.5" font-family="Helvetica,sans-Serif" font-size="10.00">editor.TabViewController.init</text>
</g>
<!-- Node2 -->
<g id="node2" class="node"><title>Node2</title>
<g id="a_node2"><a xlink:href="../../df/d32/classeditor_1_1_tab_view_controller.html#a07885d5b594264a4359221e99b50c6cf" target="_top" xlink:title="editor.TabViewController.launch\lNestedWizard">
<polygon fill="white" stroke="black" points="184,-71 184,-101 348,-101 348,-71 184,-71"/>
<text text-anchor="start" x="192" y="-89" font-family="Helvetica,sans-Serif" font-size="10.00">editor.TabViewController.launch</text>
<text text-anchor="middle" x="266" y="-78" font-family="Helvetica,sans-Serif" font-size="10.00">NestedWizard</text>
</a>
</g>
</g>
<!-- Node1&#45;&gt;Node2 -->
<g id="edge1" class="edge"><title>Node1&#45;&gt;Node2</title>
<path fill="none" stroke="midnightblue" d="M147.373,-70.5227C156.059,-71.6657 165.013,-72.8439 173.922,-74.016"/>
<polygon fill="midnightblue" stroke="midnightblue" points="173.572,-77.5 183.943,-75.3346 174.485,-70.5599 173.572,-77.5"/>
</g>
<!-- Node14 -->
<g id="node14" class="node"><title>Node14</title>
<g id="a_node14"><a xlink:href="../../d8/d9d/classeditor_1_1_level_triggers_view_controller.html#aa077026503931acec7ee6e406768a28b" target="_top" xlink:title="editor.LevelTriggersView\lController.setButtonAction">
<polygon fill="white" stroke="black" points="194.5,-22 194.5,-52 337.5,-52 337.5,-22 194.5,-22"/>
<text text-anchor="start" x="202.5" y="-40" font-family="Helvetica,sans-Serif" font-size="10.00">editor.LevelTriggersView</text>
<text text-anchor="middle" x="266" y="-29" font-family="Helvetica,sans-Serif" font-size="10.00">Controller.setButtonAction</text>
</a>
</g>
</g>
<!-- Node1&#45;&gt;Node14 -->
<g id="edge13" class="edge"><title>Node1&#45;&gt;Node14</title>
<path fill="none" stroke="midnightblue" d="M147.644,-51.8239C159.593,-50.3145 172.043,-48.7419 184.177,-47.2092"/>
<polygon fill="midnightblue" stroke="midnightblue" points="184.795,-50.6591 194.277,-45.9334 183.918,-43.7143 184.795,-50.6591"/>
</g>
<!-- Node3 -->
<g id="node3" class="node"><title>Node3</title>
<g id="a_node3"><a xlink:href="../../dc/d5a/classview_1_1_wizard_utility.html#a7df411758a1fe47f34f7372db53355bf" target="_top" xlink:title="view.WizardUtility.loadWizard">
<polygon fill="white" stroke="black" points="394.5,-169.5 394.5,-188.5 545.5,-188.5 545.5,-169.5 394.5,-169.5"/>
<text text-anchor="middle" x="470" y="-176.5" font-family="Helvetica,sans-Serif" font-size="10.00">view.WizardUtility.loadWizard</text>
</a>
</g>
</g>
<!-- Node2&#45;&gt;Node3 -->
<g id="edge2" class="edge"><title>Node2&#45;&gt;Node3</title>
<path fill="none" stroke="midnightblue" d="M299.904,-101.149C338.389,-118.867 401.562,-147.952 438.829,-165.109"/>
<polygon fill="midnightblue" stroke="midnightblue" points="437.616,-168.404 448.163,-169.407 440.543,-162.045 437.616,-168.404"/>
</g>
<!-- Node7 -->
<g id="node7" class="node"><title>Node7</title>
<g id="a_node7"><a xlink:href="../../da/d8d/classgamemodel_1_1_main_model.html#a325818c8458f90d2ae1b21bd2133571b" target="_top" xlink:title="gamemodel.MainModel.addGoal">
<polygon fill="white" stroke="black" points="384.5,-98.5 384.5,-117.5 555.5,-117.5 555.5,-98.5 384.5,-98.5"/>
<text text-anchor="middle" x="470" y="-105.5" font-family="Helvetica,sans-Serif" font-size="10.00">gamemodel.MainModel.addGoal</text>
</a>
</g>
</g>
<!-- Node2&#45;&gt;Node7 -->
<g id="edge6" class="edge"><title>Node2&#45;&gt;Node7</title>
<path fill="none" stroke="midnightblue" d="M348.288,-94.8531C356.798,-95.78 365.502,-96.728 374.146,-97.6694"/>
<polygon fill="midnightblue" stroke="midnightblue" points="373.93,-101.167 384.251,-98.7699 374.688,-94.2077 373.93,-101.167"/>
</g>
<!-- Node12 -->
<g id="node12" class="node"><title>Node12</title>
<g id="a_node12"><a xlink:href="../../d9/d24/classeditor_1_1wizards_1_1_wizard.html#a900163c75d7ec227b98fe35c9afa7505" target="_top" xlink:title="editor.wizards.Wizard.get\lStage">
<polygon fill="white" stroke="black" points="402.5,-49 402.5,-79 537.5,-79 537.5,-49 402.5,-49"/>
<text text-anchor="start" x="410.5" y="-67" font-family="Helvetica,sans-Serif" font-size="10.00">editor.wizards.Wizard.get</text>
<text text-anchor="middle" x="470" y="-56" font-family="Helvetica,sans-Serif" font-size="10.00">Stage</text>
</a>
</g>
</g>
<!-- Node2&#45;&gt;Node12 -->
<g id="edge11" class="edge"><title>Node2&#45;&gt;Node12</title>
<path fill="none" stroke="midnightblue" d="M348.288,-77.1469C362.756,-75.5712 377.785,-73.9343 392.125,-72.3725"/>
<polygon fill="midnightblue" stroke="midnightblue" points="392.865,-75.8127 402.427,-71.2505 392.107,-68.8539 392.865,-75.8127"/>
</g>
<!-- Node13 -->
<g id="node13" class="node"><title>Node13</title>
<g id="a_node13"><a xlink:href="../../d9/d24/classeditor_1_1wizards_1_1_wizard.html#a000a0be1e53ca727dc03770e6269db9c" target="_top" xlink:title="editor.wizards.Wizard.set\lSubmit">
<polygon fill="white" stroke="black" points="403,-0 403,-30 537,-30 537,-0 403,-0"/>
<text text-anchor="start" x="411" y="-18" font-family="Helvetica,sans-Serif" font-size="10.00">editor.wizards.Wizard.set</text>
<text text-anchor="middle" x="470" y="-7" font-family="Helvetica,sans-Serif" font-size="10.00">Submit</text>
</a>
</g>
</g>
<!-- Node2&#45;&gt;Node13 -->
<g id="edge12" class="edge"><title>Node2&#45;&gt;Node13</title>
<path fill="none" stroke="midnightblue" d="M322.584,-70.8641C331.226,-67.9356 339.952,-64.6325 348,-61 365.091,-53.2863 366.817,-46.5065 384,-39 388.624,-36.98 393.463,-35.0828 398.387,-33.3102"/>
<polygon fill="midnightblue" stroke="midnightblue" points="399.59,-36.5978 407.924,-30.0553 397.329,-29.973 399.59,-36.5978"/>
</g>
<!-- Node4 -->
<g id="node4" class="node"><title>Node4</title>
<g id="a_node4"><a xlink:href="../../de/d50/classview_1_1_g_u_i_load_style_utility.html#a3f0bdbc7239563c54aa365afd86f620d" target="_top" xlink:title="view.GUILoadStyleUtility.generate\lGUIPane">
<polygon fill="white" stroke="black" points="610,-230 610,-260 786,-260 786,-230 610,-230"/>
<text text-anchor="start" x="618" y="-248" font-family="Helvetica,sans-Serif" font-size="10.00">view.GUILoadStyleUtility.generate</text>
<text text-anchor="middle" x="698" y="-237" font-family="Helvetica,sans-Serif" font-size="10.00">GUIPane</text>
</a>
</g>
</g>
<!-- Node3&#45;&gt;Node4 -->
<g id="edge3" class="edge"><title>Node3&#45;&gt;Node4</title>
<path fill="none" stroke="midnightblue" d="M496.744,-188.5C521.09,-197.299 558.749,-210.43 592,-220 601.021,-222.596 610.533,-225.134 619.998,-227.536"/>
<polygon fill="midnightblue" stroke="midnightblue" points="619.271,-230.962 629.821,-229.988 620.966,-224.171 619.271,-230.962"/>
</g>
<!-- Node5 -->
<g id="node5" class="node"><title>Node5</title>
<g id="a_node5"><a xlink:href="../../d9/d24/classeditor_1_1wizards_1_1_wizard.html#a72e3a81c25878fea0201a98307c78622" target="_top" xlink:title="editor.wizards.Wizard.getRoot">
<polygon fill="white" stroke="black" points="620,-191.5 620,-210.5 776,-210.5 776,-191.5 620,-191.5"/>
<text text-anchor="middle" x="698" y="-198.5" font-family="Helvetica,sans-Serif" font-size="10.00">editor.wizards.Wizard.getRoot</text>
</a>
</g>
</g>
<!-- Node3&#45;&gt;Node5 -->
<g id="edge4" class="edge"><title>Node3&#45;&gt;Node5</title>
<path fill="none" stroke="midnightblue" d="M545.627,-186.265C566.068,-188.254 588.41,-190.429 609.501,-192.482"/>
<polygon fill="midnightblue" stroke="midnightblue" points="609.449,-195.994 619.741,-193.479 610.127,-189.027 609.449,-195.994"/>
</g>
<!-- Node6 -->
<g id="node6" class="node"><title>Node6</title>
<g id="a_node6"><a xlink:href="../../d9/d24/classeditor_1_1wizards_1_1_wizard.html#ae8a3ae83055f5b39fbafec5ea3a379eb" target="_top" xlink:title="editor.wizards.Wizard.set\lStage">
<polygon fill="white" stroke="black" points="631,-142 631,-172 765,-172 765,-142 631,-142"/>
<text text-anchor="start" x="639" y="-160" font-family="Helvetica,sans-Serif" font-size="10.00">editor.wizards.Wizard.set</text>
<text text-anchor="middle" x="698" y="-149" font-family="Helvetica,sans-Serif" font-size="10.00">Stage</text>
</a>
</g>
</g>
<!-- Node3&#45;&gt;Node6 -->
<g id="edge5" class="edge"><title>Node3&#45;&gt;Node6</title>
<path fill="none" stroke="midnightblue" d="M545.627,-171.735C569.702,-169.392 596.414,-166.792 620.614,-164.436"/>
<polygon fill="midnightblue" stroke="midnightblue" points="621.203,-167.895 630.817,-163.443 620.525,-160.928 621.203,-167.895"/>
</g>
<!-- Node8 -->
<g id="node8" class="node"><title>Node8</title>
<g id="a_node8"><a xlink:href="../../db/dca/classgamemodel_1_1_game_element_state_factory.html#ae612d140ffd9c7806505a8ade5e9be5c" target="_top" xlink:title="gamemodel.GameElementState\lFactory.createGoal">
<polygon fill="white" stroke="black" points="611.5,-93 611.5,-123 784.5,-123 784.5,-93 611.5,-93"/>
<text text-anchor="start" x="619.5" y="-111" font-family="Helvetica,sans-Serif" font-size="10.00">gamemodel.GameElementState</text>
<text text-anchor="middle" x="698" y="-100" font-family="Helvetica,sans-Serif" font-size="10.00">Factory.createGoal</text>
</a>
</g>
</g>
<!-- Node7&#45;&gt;Node8 -->
<g id="edge7" class="edge"><title>Node7&#45;&gt;Node8</title>
<path fill="none" stroke="midnightblue" d="M555.797,-108C570.553,-108 585.995,-108 601.025,-108"/>
<polygon fill="midnightblue" stroke="midnightblue" points="601.351,-111.5 611.351,-108 601.351,-104.5 601.351,-111.5"/>
</g>
<!-- Node11 -->
<g id="node11" class="node"><title>Node11</title>
<g id="a_node11"><a xlink:href="../../d3/d7a/classgame__engine_1_1game_representation_1_1state_representation_1_1_level_state.html#a3468d766686b1fab4b4c7682f11ce0f2" target="_top" xlink:title="game_engine.gameRepresentation.state\lRepresentation.LevelState.addGoal">
<polygon fill="white" stroke="black" points="592,-44 592,-74 804,-74 804,-44 592,-44"/>
<text text-anchor="start" x="600" y="-62" font-family="Helvetica,sans-Serif" font-size="10.00">game_engine.gameRepresentation.state</text>
<text text-anchor="middle" x="698" y="-51" font-family="Helvetica,sans-Serif" font-size="10.00">Representation.LevelState.addGoal</text>
</a>
</g>
</g>
<!-- Node7&#45;&gt;Node11 -->
<g id="edge10" class="edge"><title>Node7&#45;&gt;Node11</title>
<path fill="none" stroke="midnightblue" d="M514.843,-98.4942C543.934,-92.1869 582.961,-83.7253 617.428,-76.2524"/>
<polygon fill="midnightblue" stroke="midnightblue" points="618.456,-79.6108 627.488,-74.0713 616.973,-72.7697 618.456,-79.6108"/>
</g>
<!-- Node9 -->
<g id="node9" class="node"><title>Node9</title>
<g id="a_node9"><a xlink:href="../../dc/d23/classeditor_1_1wizards_1_1_wizard_data.html#a5d032318071e955a952e4cc73bf35751" target="_top" xlink:title="editor.wizards.WizardData.get\lWizardDataByType">
<polygon fill="white" stroke="black" points="877,-120 877,-150 1035,-150 1035,-120 877,-120"/>
<text text-anchor="start" x="885" y="-138" font-family="Helvetica,sans-Serif" font-size="10.00">editor.wizards.WizardData.get</text>
<text text-anchor="middle" x="956" y="-127" font-family="Helvetica,sans-Serif" font-size="10.00">WizardDataByType</text>
</a>
</g>
</g>
<!-- Node8&#45;&gt;Node9 -->
<g id="edge8" class="edge"><title>Node8&#45;&gt;Node9</title>
<path fill="none" stroke="midnightblue" d="M784.6,-117.028C811.022,-119.815 840.162,-122.888 866.758,-125.693"/>
<polygon fill="midnightblue" stroke="midnightblue" points="866.504,-129.186 876.816,-126.754 867.238,-122.224 866.504,-129.186"/>
</g>
<!-- Node10 -->
<g id="node10" class="node"><title>Node10</title>
<g id="a_node10"><a xlink:href="../../dc/d2d/classgame__engine_1_1game_representation_1_1state_representation_1_1game_element_1_1_game_element_state.html#a28dcf503bb7ba9dbadf61dbec9ee5e57" target="_top" xlink:title="game_engine.gameRepresentation.state\lRepresentation.gameElement.GameElement\lState.addAction">
<polygon fill="white" stroke="black" points="840.5,-60.5 840.5,-101.5 1071.5,-101.5 1071.5,-60.5 840.5,-60.5"/>
<text text-anchor="start" x="848.5" y="-89.5" font-family="Helvetica,sans-Serif" font-size="10.00">game_engine.gameRepresentation.state</text>
<text text-anchor="start" x="848.5" y="-78.5" font-family="Helvetica,sans-Serif" font-size="10.00">Representation.gameElement.GameElement</text>
<text text-anchor="middle" x="956" y="-67.5" font-family="Helvetica,sans-Serif" font-size="10.00">State.addAction</text>
</a>
</g>
</g>
<!-- Node8&#45;&gt;Node10 -->
<g id="edge9" class="edge"><title>Node8&#45;&gt;Node10</title>
<path fill="none" stroke="midnightblue" d="M784.6,-98.9719C799.266,-97.4251 814.769,-95.79 830.21,-94.1614"/>
<polygon fill="midnightblue" stroke="midnightblue" points="830.761,-97.6229 840.339,-93.0932 830.027,-90.6615 830.761,-97.6229"/>
</g>
</g>
</svg>
        <g id="navigator" transform="translate(0 0)" fill="#404254">
                <rect fill="#f2f5e9" fill-opacity="0.5" stroke="#606060" stroke-width=".5" x="0" y="0" width="60" height="60"/>
                <use id="zoomplus" xlink:href="#zoomPlus" x="17" y="9" onmousedown="handleZoom(evt,'in')"/>
                <use id="zoomminus" xlink:href="#zoomMin" x="42" y="9" onmousedown="handleZoom(evt,'out')"/>
                <use id="reset" xlink:href="#resetDef" x="30" y="36" onmousedown="handleReset()"/>
                <g id="arrowUp" xlink:href="#dirArrow" transform="translate(30 24)" onmousedown="handlePan(0,-1)">
                  <use xlink:href="#rim" fill="#404040">
                        <set attributeName="fill" to="#808080" begin="arrowUp.mouseover" end="arrowUp.mouseout"/>
                  </use>
                  <path fill="none" stroke="white" stroke-width="1.5" d="M0,-3.0v7 M-2.5,-0.5L0,-3.0L2.5,-0.5"/>
                </g>
                <g id="arrowRight" xlink:href="#dirArrow" transform="rotate(90) translate(36 -43)" onmousedown="handlePan(1,0)">
                  <use xlink:href="#rim" fill="#404040">
                        <set attributeName="fill" to="#808080" begin="arrowRight.mouseover" end="arrowRight.mouseout"/>
                  </use>
                  <path fill="none" stroke="white" stroke-width="1.5" d="M0,-3.0v7 M-2.5,-0.5L0,-3.0L2.5,-0.5"/>
                </g>
                <g id="arrowDown" xlink:href="#dirArrow" transform="rotate(180) translate(-30 -48)" onmousedown="handlePan(0,1)">
                  <use xlink:href="#rim" fill="#404040">
                        <set attributeName="fill" to="#808080" begin="arrowDown.mouseover" end="arrowDown.mouseout"/>
                  </use>
                  <path fill="none" stroke="white" stroke-width="1.5" d="M0,-3.0v7 M-2.5,-0.5L0,-3.0L2.5,-0.5"/>
                </g>
                <g id="arrowLeft" xlink:href="#dirArrow" transform="rotate(270) translate(-36 17)" onmousedown="handlePan(-1,0)">
                  <use xlink:href="#rim" fill="#404040">
                        <set attributeName="fill" to="#808080" begin="arrowLeft.mouseover" end="arrowLeft.mouseout"/>
                  </use>
                  <path fill="none" stroke="white" stroke-width="1.5" d="M0,-3.0v7 M-2.5,-0.5L0,-3.0L2.5,-0.5"/>
                </g>
        </g>
        <svg viewBox="0 0 15 15" width="100%" height="30px" preserveAspectRatio="xMaxYMin meet">
         <g id="arrow_out" transform="scale(0.3 0.3)">
          <a xlink:href="classeditor_1_1_tab_view_controller_ab01a2a957a5ee640a54b8115be502388_cgraph_org.svg" target="_base">
           <rect id="button" ry="5" rx="5" y="6" x="6" height="38" width="38"
                fill="#f2f5e9" fill-opacity="0.5" stroke="#606060" stroke-width="1.0"/>
           <path id="arrow"
             d="M 11.500037,31.436501 C 11.940474,20.09759 22.043105,11.32322 32.158766,21.979434 L 37.068811,17.246167 C 37.068811,17.246167 37.088388,32 37.088388,32 L 22.160133,31.978069 C 22.160133,31.978069 26.997745,27.140456 26.997745,27.140456 C 18.528582,18.264221 13.291696,25.230495 11.500037,31.436501 z"
             style="fill:#404040;"/>
          </a>
         </g>
        </svg>
</svg>
