<?xml version="1.0" encoding="UTF-8" standalone="no"?>
<!DOCTYPE svg PUBLIC "-//W3C//DTD SVG 1.1//EN"
 "http://www.w3.org/Graphics/SVG/1.1/DTD/svg11.dtd">
<!-- Generated by graphviz version 2.36.0 (20140111.2315)
 -->
<!-- Title: util.DefaultResource.copyResources Pages: 1 -->
<svg width="1150pt" height="134pt"
 viewBox="0.00 0.00 1150.00 134.00" xmlns="http://www.w3.org/2000/svg" xmlns:xlink="http://www.w3.org/1999/xlink">
<g id="graph0" class="graph" transform="scale(1 1) rotate(0) translate(4 130)">
<title>util.DefaultResource.copyResources</title>
<polygon fill="white" stroke="none" points="-4,4 -4,-130 1146,-130 1146,4 -4,4"/>
<!-- Node1 -->
<g id="node1" class="node"><title>Node1</title>
<polygon fill="#bfbfbf" stroke="black" points="0.5,-49 0.5,-79 137.5,-79 137.5,-49 0.5,-49"/>
<text text-anchor="start" x="8.5" y="-67" font-family="Helvetica,sans-Serif" font-size="10.00">util.DefaultResource.copy</text>
<text text-anchor="middle" x="69" y="-56" font-family="Helvetica,sans-Serif" font-size="10.00">Resources</text>
</g>
<!-- Node2 -->
<g id="node2" class="node"><title>Node2</title>
<g id="a_node2"><a xlink:href="../../df/d88/classutil_1_1_default_resource.html#aad8a7fcba1f40a6b712aa5cd1abc6aac" target="_top" xlink:title="util.DefaultResource.set\lDefaults">
<polygon fill="white" stroke="black" points="174,-49 174,-79 304,-79 304,-49 174,-49"/>
<text text-anchor="start" x="182" y="-67" font-family="Helvetica,sans-Serif" font-size="10.00">util.DefaultResource.set</text>
<text text-anchor="middle" x="239" y="-56" font-family="Helvetica,sans-Serif" font-size="10.00">Defaults</text>
</a>
</g>
</g>
<!-- Node1&#45;&gt;Node2 -->
<g id="edge1" class="edge"><title>Node1&#45;&gt;Node2</title>
<path fill="none" stroke="midnightblue" d="M147.998,-64C156.698,-64 165.484,-64 173.98,-64"/>
<polygon fill="midnightblue" stroke="midnightblue" points="147.848,-60.5001 137.848,-64 147.848,-67.5001 147.848,-60.5001"/>
</g>
<!-- Node3 -->
<g id="node3" class="node"><title>Node3</title>
<g id="a_node3"><a xlink:href="../../d3/d14/classutil_1_1_save_load_utility.html#a818b911d475402390309ba8c186b94a7" target="_top" xlink:title="util.SaveLoadUtility.save">
<polygon fill="white" stroke="black" points="340,-54.5 340,-73.5 472,-73.5 472,-54.5 340,-54.5"/>
<text text-anchor="middle" x="406" y="-61.5" font-family="Helvetica,sans-Serif" font-size="10.00">util.SaveLoadUtility.save</text>
</a>
</g>
</g>
<!-- Node2&#45;&gt;Node3 -->
<g id="edge2" class="edge"><title>Node2&#45;&gt;Node3</title>
<path fill="none" stroke="midnightblue" d="M314.493,-64C322.943,-64 331.506,-64 339.823,-64"/>
<polygon fill="midnightblue" stroke="midnightblue" points="314.266,-60.5001 304.266,-64 314.266,-67.5001 314.266,-60.5001"/>
</g>
<!-- Node4 -->
<g id="node4" class="node"><title>Node4</title>
<g id="a_node4"><a xlink:href="../../da/d8d/classgamemodel_1_1_main_model.html#a8b6be04509cb75d215fbc008b697ed1c" target="_top" xlink:title="gamemodel.MainModel.saveGame">
<polygon fill="white" stroke="black" points="517.5,-99.5 517.5,-118.5 700.5,-118.5 700.5,-99.5 517.5,-99.5"/>
<text text-anchor="middle" x="609" y="-106.5" font-family="Helvetica,sans-Serif" font-size="10.00">gamemodel.MainModel.saveGame</text>
</a>
</g>
</g>
<!-- Node3&#45;&gt;Node4 -->
<g id="edge3" class="edge"><title>Node3&#45;&gt;Node4</title>
<path fill="none" stroke="midnightblue" d="M456.224,-75.9709C472.667,-79.8965 491.105,-84.2193 508,-88 525.398,-91.8932 544.548,-95.9661 561.392,-99.4776"/>
<polygon fill="midnightblue" stroke="midnightblue" points="456.816,-72.5137 446.276,-73.5864 455.184,-79.3209 456.816,-72.5137"/>
</g>
<!-- Node7 -->
<g id="node7" class="node"><title>Node7</title>
<g id="a_node7"><a xlink:href="../../d9/dd2/classresources_1_1processing_1_1_sprite_sheet_creation_utility.html#ae6cfdcbbcc6c6eb2f12aefded0c6337f" target="_top" xlink:title="resources.processing.Sprite\lSheetCreationUtility.createSpriteSheet">
<polygon fill="white" stroke="black" points="508,-49 508,-79 710,-79 710,-49 508,-49"/>
<text text-anchor="start" x="516" y="-67" font-family="Helvetica,sans-Serif" font-size="10.00">resources.processing.Sprite</text>
<text text-anchor="middle" x="609" y="-56" font-family="Helvetica,sans-Serif" font-size="10.00">SheetCreationUtility.createSpriteSheet</text>
</a>
</g>
</g>
<!-- Node3&#45;&gt;Node7 -->
<g id="edge6" class="edge"><title>Node3&#45;&gt;Node7</title>
<path fill="none" stroke="midnightblue" d="M482.53,-64C490.753,-64 499.214,-64 507.674,-64"/>
<polygon fill="midnightblue" stroke="midnightblue" points="482.259,-60.5001 472.259,-64 482.259,-67.5001 482.259,-60.5001"/>
</g>
<!-- Node9 -->
<g id="node9" class="node"><title>Node9</title>
<g id="a_node9"><a xlink:href="../../d0/d77/classtest_1_1util_1_1_test_load_save_utility.html#a563b6accea25a4a5868cbff906216e55" target="_top" xlink:title="test.util.TestLoadSaveUtility.test\lLoadSaveFunction">
<polygon fill="white" stroke="black" points="524.5,-0 524.5,-30 693.5,-30 693.5,-0 524.5,-0"/>
<text text-anchor="start" x="532.5" y="-18" font-family="Helvetica,sans-Serif" font-size="10.00">test.util.TestLoadSaveUtility.test</text>
<text text-anchor="middle" x="609" y="-7" font-family="Helvetica,sans-Serif" font-size="10.00">LoadSaveFunction</text>
</a>
</g>
</g>
<!-- Node3&#45;&gt;Node9 -->
<g id="edge8" class="edge"><title>Node3&#45;&gt;Node9</title>
<path fill="none" stroke="midnightblue" d="M455.418,-51.9412C472.077,-47.812 490.85,-43.1804 508,-39 519.969,-36.0825 532.75,-32.9941 545.037,-30.039"/>
<polygon fill="midnightblue" stroke="midnightblue" points="454.215,-48.6335 445.353,-54.4388 455.901,-55.4275 454.215,-48.6335"/>
</g>
<!-- Node5 -->
<g id="node5" class="node"><title>Node5</title>
<g id="a_node5"><a xlink:href="../../d1/d74/classeditor_1_1_editor_menu_bar_controller.html#a4263ec1503bc67c1ee7293d6fa303ab0" target="_top" xlink:title="editor.EditorMenuBarController.init\lFileMenu">
<polygon fill="white" stroke="black" points="746,-96 746,-126 926,-126 926,-96 746,-96"/>
<text text-anchor="start" x="754" y="-114" font-family="Helvetica,sans-Serif" font-size="10.00">editor.EditorMenuBarController.init</text>
<text text-anchor="middle" x="836" y="-103" font-family="Helvetica,sans-Serif" font-size="10.00">FileMenu</text>
</a>
</g>
</g>
<!-- Node4&#45;&gt;Node5 -->
<g id="edge4" class="edge"><title>Node4&#45;&gt;Node5</title>
<path fill="none" stroke="midnightblue" d="M710.739,-109.895C722.405,-109.999 734.242,-110.104 745.74,-110.207"/>
<polygon fill="midnightblue" stroke="midnightblue" points="710.574,-106.394 700.544,-109.805 710.512,-113.394 710.574,-106.394"/>
</g>
<!-- Node6 -->
<g id="node6" class="node"><title>Node6</title>
<g id="a_node6"><a xlink:href="../../d1/d74/classeditor_1_1_editor_menu_bar_controller.html#a5e27bce310879b43b5726c8b90f98743" target="_top" xlink:title="editor.EditorMenuBarController.init">
<polygon fill="white" stroke="black" points="962,-101.5 962,-120.5 1142,-120.5 1142,-101.5 962,-101.5"/>
<text text-anchor="middle" x="1052" y="-108.5" font-family="Helvetica,sans-Serif" font-size="10.00">editor.EditorMenuBarController.init</text>
</a>
</g>
</g>
<!-- Node5&#45;&gt;Node6 -->
<g id="edge5" class="edge"><title>Node5&#45;&gt;Node6</title>
<path fill="none" stroke="midnightblue" d="M936.23,-111C944.807,-111 953.45,-111 961.939,-111"/>
<polygon fill="midnightblue" stroke="midnightblue" points="936.206,-107.5 926.206,-111 936.206,-114.5 936.206,-107.5"/>
</g>
<!-- Node8 -->
<g id="node8" class="node"><title>Node8</title>
<g id="a_node8"><a xlink:href="../../d9/dd2/classresources_1_1processing_1_1_sprite_sheet_creation_utility.html#a061298d3fd66edebf2f8d1fb9770df3c" target="_top" xlink:title="resources.processing.Sprite\lSheetCreationUtility.main">
<polygon fill="white" stroke="black" points="761,-47 761,-77 911,-77 911,-47 761,-47"/>
<text text-anchor="start" x="769" y="-65" font-family="Helvetica,sans-Serif" font-size="10.00">resources.processing.Sprite</text>
<text text-anchor="middle" x="836" y="-54" font-family="Helvetica,sans-Serif" font-size="10.00">SheetCreationUtility.main</text>
</a>
</g>
</g>
<!-- Node7&#45;&gt;Node8 -->
<g id="edge7" class="edge"><title>Node7&#45;&gt;Node8</title>
<path fill="none" stroke="midnightblue" d="M720.714,-63.0159C734.324,-62.8949 747.969,-62.7736 760.852,-62.6591"/>
<polygon fill="midnightblue" stroke="midnightblue" points="720.295,-59.5194 710.326,-63.1082 720.357,-66.5191 720.295,-59.5194"/>
</g>
</g>
</svg>
