<?xml version="1.0" encoding="UTF-8" standalone="no"?>
<!DOCTYPE svg PUBLIC "-//W3C//DTD SVG 1.1//EN"
 "http://www.w3.org/Graphics/SVG/1.1/DTD/svg11.dtd">
<!-- Generated by graphviz version 2.36.0 (20140111.2315)
 -->
<!-- Title: engine.gameRepresentation.evaluatables.evaluators.FollowX.evaluate Pages: 1 -->
<svg width="956pt" height="109pt"
 viewBox="0.00 0.00 956.00 109.00" xmlns="http://www.w3.org/2000/svg" xmlns:xlink="http://www.w3.org/1999/xlink">
<g id="graph0" class="graph" transform="scale(1 1) rotate(0) translate(4 105)">
<title>engine.gameRepresentation.evaluatables.evaluators.FollowX.evaluate</title>
<polygon fill="white" stroke="none" points="-4,4 -4,-105 952,-105 952,4 -4,4"/>
<!-- Node1 -->
<g id="node1" class="node"><title>Node1</title>
<polygon fill="#bfbfbf" stroke="black" points="0,-36 0,-66 272,-66 272,-36 0,-36"/>
<text text-anchor="start" x="8" y="-54" font-family="Helvetica,sans-Serif" font-size="10.00">engine.gameRepresentation.evaluatables.evaluators.</text>
<text text-anchor="middle" x="136" y="-43" font-family="Helvetica,sans-Serif" font-size="10.00">FollowX.evaluate</text>
</g>
<!-- Node2 -->
<g id="node2" class="node"><title>Node2</title>
<g id="a_node2"><a xlink:href="../../d4/de2/classengine_1_1game_representation_1_1rendered_representation_1_1_game_element.html#a0e5df2ee82fed90f049282832babf477" target="_top" xlink:title="engine.gameRepresentation.rendered\lRepresentation.GameElement.getNumerical\lAttribute">
<polygon fill="white" stroke="black" points="308,-60.5 308,-101.5 536,-101.5 536,-60.5 308,-60.5"/>
<text text-anchor="start" x="316" y="-89.5" font-family="Helvetica,sans-Serif" font-size="10.00">engine.gameRepresentation.rendered</text>
<text text-anchor="start" x="316" y="-78.5" font-family="Helvetica,sans-Serif" font-size="10.00">Representation.GameElement.getNumerical</text>
<text text-anchor="middle" x="422" y="-67.5" font-family="Helvetica,sans-Serif" font-size="10.00">Attribute</text>
</a>
</g>
</g>
<!-- Node1&#45;&gt;Node2 -->
<g id="edge1" class="edge"><title>Node1&#45;&gt;Node2</title>
<path fill="none" stroke="midnightblue" d="M272.346,-65.2971C280.776,-66.1876 289.238,-67.0814 297.611,-67.966"/>
<polygon fill="midnightblue" stroke="midnightblue" points="297.461,-71.4695 307.774,-69.0395 298.197,-64.5083 297.461,-71.4695"/>
</g>
<!-- Node5 -->
<g id="node5" class="node"><title>Node5</title>
<g id="a_node5"><a xlink:href="../../d4/de2/classengine_1_1game_representation_1_1rendered_representation_1_1_game_element.html#a5a426090456bba2adf4993b5b3fb0ffd" target="_top" xlink:title="engine.gameRepresentation.rendered\lRepresentation.GameElement.setNumerical\lAttribute">
<polygon fill="white" stroke="black" points="308.5,-0.5 308.5,-41.5 535.5,-41.5 535.5,-0.5 308.5,-0.5"/>
<text text-anchor="start" x="316.5" y="-29.5" font-family="Helvetica,sans-Serif" font-size="10.00">engine.gameRepresentation.rendered</text>
<text text-anchor="start" x="316.5" y="-18.5" font-family="Helvetica,sans-Serif" font-size="10.00">Representation.GameElement.setNumerical</text>
<text text-anchor="middle" x="422" y="-7.5" font-family="Helvetica,sans-Serif" font-size="10.00">Attribute</text>
</a>
</g>
</g>
<!-- Node1&#45;&gt;Node5 -->
<g id="edge4" class="edge"><title>Node1&#45;&gt;Node5</title>
<path fill="none" stroke="midnightblue" d="M272.346,-36.7029C280.971,-35.7917 289.63,-34.8771 298.193,-33.9725"/>
<polygon fill="midnightblue" stroke="midnightblue" points="298.618,-37.4473 308.195,-32.916 297.882,-30.486 298.618,-37.4473"/>
</g>
<!-- Node3 -->
<g id="node3" class="node"><title>Node3</title>
<g id="a_node3"><a xlink:href="../../da/dc5/classmodel_1_1state_1_1gameelement_1_1_attribute_container.html#a5f0e6026d1877c9e4f04fe389163970c" target="_top" xlink:title="model.state.gameelement.\lAttributeContainer.getNumerical\lAttribute">
<polygon fill="white" stroke="black" points="572,-60.5 572,-101.5 744,-101.5 744,-60.5 572,-60.5"/>
<text text-anchor="start" x="580" y="-89.5" font-family="Helvetica,sans-Serif" font-size="10.00">model.state.gameelement.</text>
<text text-anchor="start" x="580" y="-78.5" font-family="Helvetica,sans-Serif" font-size="10.00">AttributeContainer.getNumerical</text>
<text text-anchor="middle" x="658" y="-67.5" font-family="Helvetica,sans-Serif" font-size="10.00">Attribute</text>
</a>
</g>
</g>
<!-- Node2&#45;&gt;Node3 -->
<g id="edge2" class="edge"><title>Node2&#45;&gt;Node3</title>
<path fill="none" stroke="midnightblue" d="M536.23,-81C544.773,-81 553.342,-81 561.756,-81"/>
<polygon fill="midnightblue" stroke="midnightblue" points="561.929,-84.5001 571.929,-81 561.929,-77.5001 561.929,-84.5001"/>
</g>
<!-- Node4 -->
<g id="node4" class="node"><title>Node4</title>
<g id="a_node4"><a xlink:href="../../da/dc5/classmodel_1_1state_1_1gameelement_1_1_attribute_container.html#a59a08ce23cf989feca0a78b2642364d4" target="_top" xlink:title="model.state.gameelement.\lAttributeContainer.getAttribute">
<polygon fill="white" stroke="black" points="781.5,-66 781.5,-96 946.5,-96 946.5,-66 781.5,-66"/>
<text text-anchor="start" x="789.5" y="-84" font-family="Helvetica,sans-Serif" font-size="10.00">model.state.gameelement.</text>
<text text-anchor="middle" x="864" y="-73" font-family="Helvetica,sans-Serif" font-size="10.00">AttributeContainer.getAttribute</text>
</a>
</g>
</g>
<!-- Node3&#45;&gt;Node4 -->
<g id="edge3" class="edge"><title>Node3&#45;&gt;Node4</title>
<path fill="none" stroke="midnightblue" d="M744.037,-81C753.013,-81 762.169,-81 771.217,-81"/>
<polygon fill="midnightblue" stroke="midnightblue" points="771.371,-84.5001 781.371,-81 771.371,-77.5001 771.371,-84.5001"/>
</g>
<!-- Node6 -->
<g id="node6" class="node"><title>Node6</title>
<g id="a_node6"><a xlink:href="../../da/dc5/classmodel_1_1state_1_1gameelement_1_1_attribute_container.html#a168d6e922a93b11894753a0598c02cf7" target="_top" xlink:title="model.state.gameelement.\lAttributeContainer.setNumerical\lAttribute">
<polygon fill="white" stroke="black" points="572.5,-0.5 572.5,-41.5 743.5,-41.5 743.5,-0.5 572.5,-0.5"/>
<text text-anchor="start" x="580.5" y="-29.5" font-family="Helvetica,sans-Serif" font-size="10.00">model.state.gameelement.</text>
<text text-anchor="start" x="580.5" y="-18.5" font-family="Helvetica,sans-Serif" font-size="10.00">AttributeContainer.setNumerical</text>
<text text-anchor="middle" x="658" y="-7.5" font-family="Helvetica,sans-Serif" font-size="10.00">Attribute</text>
</a>
</g>
</g>
<!-- Node5&#45;&gt;Node6 -->
<g id="edge5" class="edge"><title>Node5&#45;&gt;Node6</title>
<path fill="none" stroke="midnightblue" d="M535.545,-21C544.465,-21 553.42,-21 562.202,-21"/>
<polygon fill="midnightblue" stroke="midnightblue" points="562.419,-24.5001 572.419,-21 562.419,-17.5001 562.419,-24.5001"/>
</g>
<!-- Node7 -->
<g id="node7" class="node"><title>Node7</title>
<g id="a_node7"><a xlink:href="../../da/dc5/classmodel_1_1state_1_1gameelement_1_1_attribute_container.html#a03dd9ed123fc97bfc8bce5528b488333" target="_top" xlink:title="model.state.gameelement.\lAttributeContainer.addAttribute">
<polygon fill="white" stroke="black" points="780.5,-6 780.5,-36 947.5,-36 947.5,-6 780.5,-6"/>
<text text-anchor="start" x="788.5" y="-24" font-family="Helvetica,sans-Serif" font-size="10.00">model.state.gameelement.</text>
<text text-anchor="middle" x="864" y="-13" font-family="Helvetica,sans-Serif" font-size="10.00">AttributeContainer.addAttribute</text>
</a>
</g>
</g>
<!-- Node6&#45;&gt;Node7 -->
<g id="edge6" class="edge"><title>Node6&#45;&gt;Node7</title>
<path fill="none" stroke="midnightblue" d="M743.742,-21C752.571,-21 761.577,-21 770.486,-21"/>
<polygon fill="midnightblue" stroke="midnightblue" points="770.488,-24.5001 780.488,-21 770.488,-17.5001 770.488,-24.5001"/>
</g>
</g>
</svg>
