<?xml version="1.0" encoding="UTF-8" standalone="no"?>
<!DOCTYPE svg PUBLIC "-//W3C//DTD SVG 1.1//EN"
 "http://www.w3.org/Graphics/SVG/1.1/DTD/svg11.dtd">
<!-- Generated by graphviz version 2.36.0 (20140111.2315)
 -->
<!-- Title: gamemodel.GameUniverse.getDrawableGameElementState Pages: 1 -->
<svg width="1420pt" height="161pt"
 viewBox="0.00 0.00 1420.00 161.00" xmlns="http://www.w3.org/2000/svg" xmlns:xlink="http://www.w3.org/1999/xlink">
<g id="graph0" class="graph" transform="scale(1 1) rotate(0) translate(4 157)">
<title>gamemodel.GameUniverse.getDrawableGameElementState</title>
<polygon fill="white" stroke="none" points="-4,4 -4,-157 1416,-157 1416,4 -4,4"/>
<!-- Node1 -->
<g id="node1" class="node"><title>Node1</title>
<polygon fill="#bfbfbf" stroke="black" points="0.5,-63 0.5,-93 167.5,-93 167.5,-63 0.5,-63"/>
<text text-anchor="start" x="8.5" y="-81" font-family="Helvetica,sans-Serif" font-size="10.00">gamemodel.GameUniverse.get</text>
<text text-anchor="middle" x="84" y="-70" font-family="Helvetica,sans-Serif" font-size="10.00">DrawableGameElementState</text>
</g>
<!-- Node2 -->
<g id="node2" class="node"><title>Node2</title>
<g id="a_node2"><a xlink:href="../../dd/d79/classgame__engine_1_1element_factories_1_1_game_element_factory.html#a18295092803293cea5a1ac21b4831146" target="_top" xlink:title="game_engine.elementFactories.\lGameElementFactory.createDrawable\lGameElement">
<polygon fill="white" stroke="black" points="204.5,-57.5 204.5,-98.5 401.5,-98.5 401.5,-57.5 204.5,-57.5"/>
<text text-anchor="start" x="212.5" y="-86.5" font-family="Helvetica,sans-Serif" font-size="10.00">game_engine.elementFactories.</text>
<text text-anchor="start" x="212.5" y="-75.5" font-family="Helvetica,sans-Serif" font-size="10.00">GameElementFactory.createDrawable</text>
<text text-anchor="middle" x="303" y="-64.5" font-family="Helvetica,sans-Serif" font-size="10.00">GameElement</text>
</a>
</g>
</g>
<!-- Node1&#45;&gt;Node2 -->
<g id="edge1" class="edge"><title>Node1&#45;&gt;Node2</title>
<path fill="none" stroke="midnightblue" d="M177.855,-78C186.608,-78 195.5,-78 204.297,-78"/>
<polygon fill="midnightblue" stroke="midnightblue" points="177.657,-74.5001 167.657,-78 177.657,-81.5001 177.657,-74.5001"/>
</g>
<!-- Node3 -->
<g id="node3" class="node"><title>Node3</title>
<g id="a_node3"><a xlink:href="../../dd/de3/classgame__engine_1_1state_managing_1_1_game_element_manager.html#a6a2d12d1a0d3d1eea9eb2b79d7d2d6e4" target="_top" xlink:title="game_engine.stateManaging.\lGameElementManager.addDrawable\lGameElementToLevel">
<polygon fill="white" stroke="black" points="441,-111.5 441,-152.5 633,-152.5 633,-111.5 441,-111.5"/>
<text text-anchor="start" x="449" y="-140.5" font-family="Helvetica,sans-Serif" font-size="10.00">game_engine.stateManaging.</text>
<text text-anchor="start" x="449" y="-129.5" font-family="Helvetica,sans-Serif" font-size="10.00">GameElementManager.addDrawable</text>
<text text-anchor="middle" x="537" y="-118.5" font-family="Helvetica,sans-Serif" font-size="10.00">GameElementToLevel</text>
</a>
</g>
</g>
<!-- Node2&#45;&gt;Node3 -->
<g id="edge2" class="edge"><title>Node2&#45;&gt;Node3</title>
<path fill="none" stroke="midnightblue" d="M402.255,-100.87C417.404,-104.396 432.966,-108.018 447.875,-111.488"/>
<polygon fill="midnightblue" stroke="midnightblue" points="402.904,-97.4273 392.371,-98.5691 401.317,-104.245 402.904,-97.4273"/>
</g>
<!-- Node4 -->
<g id="node4" class="node"><title>Node4</title>
<g id="a_node4"><a xlink:href="../../d6/dcb/classgame__engine_1_1element_factories_1_1_level_factory.html#a6fa3a71d393688c1877d43592e208bfd" target="_top" xlink:title="game_engine.elementFactories.\lLevelFactory.generateTerrainElements">
<polygon fill="white" stroke="black" points="438.5,-63 438.5,-93 635.5,-93 635.5,-63 438.5,-63"/>
<text text-anchor="start" x="446.5" y="-81" font-family="Helvetica,sans-Serif" font-size="10.00">game_engine.elementFactories.</text>
<text text-anchor="middle" x="537" y="-70" font-family="Helvetica,sans-Serif" font-size="10.00">LevelFactory.generateTerrainElements</text>
</a>
</g>
</g>
<!-- Node2&#45;&gt;Node4 -->
<g id="edge3" class="edge"><title>Node2&#45;&gt;Node4</title>
<path fill="none" stroke="midnightblue" d="M411.722,-78C420.618,-78 429.58,-78 438.396,-78"/>
<polygon fill="midnightblue" stroke="midnightblue" points="411.717,-74.5001 401.716,-78 411.716,-81.5001 411.717,-74.5001"/>
</g>
<!-- Node12 -->
<g id="node12" class="node"><title>Node12</title>
<g id="a_node12"><a xlink:href="../../da/d2b/classtest_1_1conditions_1_1_condition_functionality_test.html#a5c7c72866ca379995ae98e661cafaefa" target="_top" xlink:title="test.conditions.Condition\lFunctionalityTest.initialize">
<polygon fill="white" stroke="black" points="469,-14 469,-44 605,-44 605,-14 469,-14"/>
<text text-anchor="start" x="477" y="-32" font-family="Helvetica,sans-Serif" font-size="10.00">test.conditions.Condition</text>
<text text-anchor="middle" x="537" y="-21" font-family="Helvetica,sans-Serif" font-size="10.00">FunctionalityTest.initialize</text>
</a>
</g>
</g>
<!-- Node2&#45;&gt;Node12 -->
<g id="edge11" class="edge"><title>Node2&#45;&gt;Node12</title>
<path fill="none" stroke="midnightblue" d="M411.27,-55.3438C430.86,-51.2063 450.784,-46.9983 468.79,-43.1953"/>
<polygon fill="midnightblue" stroke="midnightblue" points="410.441,-51.9416 401.38,-57.4326 411.888,-58.7905 410.441,-51.9416"/>
</g>
<!-- Node5 -->
<g id="node5" class="node"><title>Node5</title>
<g id="a_node5"><a xlink:href="../../d6/dcb/classgame__engine_1_1element_factories_1_1_level_factory.html#a7acb6c6aec6cc26a07124942af2efadc" target="_top" xlink:title="game_engine.elementFactories.\lLevelFactory.createLevel">
<polygon fill="white" stroke="black" points="672,-63 672,-93 842,-93 842,-63 672,-63"/>
<text text-anchor="start" x="680" y="-81" font-family="Helvetica,sans-Serif" font-size="10.00">game_engine.elementFactories.</text>
<text text-anchor="middle" x="757" y="-70" font-family="Helvetica,sans-Serif" font-size="10.00">LevelFactory.createLevel</text>
</a>
</g>
</g>
<!-- Node4&#45;&gt;Node5 -->
<g id="edge4" class="edge"><title>Node4&#45;&gt;Node5</title>
<path fill="none" stroke="midnightblue" d="M645.79,-78C654.551,-78 663.323,-78 671.879,-78"/>
<polygon fill="midnightblue" stroke="midnightblue" points="645.523,-74.5001 635.523,-78 645.523,-81.5001 645.523,-74.5001"/>
</g>
<!-- Node6 -->
<g id="node6" class="node"><title>Node6</title>
<g id="a_node6"><a xlink:href="../../dd/de3/classgame__engine_1_1state_managing_1_1_game_element_manager.html#a57d7eca6f7e470da027067ad2d4a249a" target="_top" xlink:title="game_engine.stateManaging.\lGameElementManager.main">
<polygon fill="white" stroke="black" points="878.5,-112 878.5,-142 1037.5,-142 1037.5,-112 878.5,-112"/>
<text text-anchor="start" x="886.5" y="-130" font-family="Helvetica,sans-Serif" font-size="10.00">game_engine.stateManaging.</text>
<text text-anchor="middle" x="958" y="-119" font-family="Helvetica,sans-Serif" font-size="10.00">GameElementManager.main</text>
</a>
</g>
</g>
<!-- Node5&#45;&gt;Node6 -->
<g id="edge5" class="edge"><title>Node5&#45;&gt;Node6</title>
<path fill="none" stroke="midnightblue" d="M828.977,-95.4768C850.911,-100.877 874.864,-106.776 896.057,-111.994"/>
<polygon fill="midnightblue" stroke="midnightblue" points="829.606,-92.0271 819.059,-93.0346 827.932,-98.8241 829.606,-92.0271"/>
</g>
<!-- Node7 -->
<g id="node7" class="node"><title>Node7</title>
<g id="a_node7"><a xlink:href="../../d1/d3a/classgame__engine_1_1_engine.html#a33096e19a0dd6c4541ade6bdfcf092c4" target="_top" xlink:title="game_engine.Engine.select\lLevel">
<polygon fill="white" stroke="black" points="883.5,-63 883.5,-93 1032.5,-93 1032.5,-63 883.5,-63"/>
<text text-anchor="start" x="891.5" y="-81" font-family="Helvetica,sans-Serif" font-size="10.00">game_engine.Engine.select</text>
<text text-anchor="middle" x="958" y="-70" font-family="Helvetica,sans-Serif" font-size="10.00">Level</text>
</a>
</g>
</g>
<!-- Node5&#45;&gt;Node7 -->
<g id="edge6" class="edge"><title>Node5&#45;&gt;Node7</title>
<path fill="none" stroke="midnightblue" d="M852.426,-78C862.789,-78 873.224,-78 883.282,-78"/>
<polygon fill="midnightblue" stroke="midnightblue" points="852.106,-74.5001 842.105,-78 852.105,-81.5001 852.106,-74.5001"/>
</g>
<!-- Node8 -->
<g id="node8" class="node"><title>Node8</title>
<g id="a_node8"><a xlink:href="../../d1/d3a/classgame__engine_1_1_engine.html#ae864f59e5ead7ef5b675a70ed813e75f" target="_top" xlink:title="game_engine.Engine.update\lGameLoop">
<polygon fill="white" stroke="black" points="881,-14 881,-44 1035,-44 1035,-14 881,-14"/>
<text text-anchor="start" x="889" y="-32" font-family="Helvetica,sans-Serif" font-size="10.00">game_engine.Engine.update</text>
<text text-anchor="middle" x="958" y="-21" font-family="Helvetica,sans-Serif" font-size="10.00">GameLoop</text>
</a>
</g>
</g>
<!-- Node5&#45;&gt;Node8 -->
<g id="edge7" class="edge"><title>Node5&#45;&gt;Node8</title>
<path fill="none" stroke="midnightblue" d="M828.977,-60.5232C850.911,-55.1225 874.864,-49.2245 896.057,-44.0062"/>
<polygon fill="midnightblue" stroke="midnightblue" points="827.932,-57.1759 819.059,-62.9654 829.606,-63.9729 827.932,-57.1759"/>
</g>
<!-- Node9 -->
<g id="node9" class="node"><title>Node9</title>
<g id="a_node9"><a xlink:href="../../d1/d3a/classgame__engine_1_1_engine.html#a66b9572272f4556e51893ee93c719196" target="_top" xlink:title="game_engine.Engine.play">
<polygon fill="white" stroke="black" points="1081,-38.5 1081,-57.5 1221,-57.5 1221,-38.5 1081,-38.5"/>
<text text-anchor="middle" x="1151" y="-45.5" font-family="Helvetica,sans-Serif" font-size="10.00">game_engine.Engine.play</text>
</a>
</g>
</g>
<!-- Node8&#45;&gt;Node9 -->
<g id="edge8" class="edge"><title>Node8&#45;&gt;Node9</title>
<path fill="none" stroke="midnightblue" d="M1045.02,-37.5566C1056.97,-38.746 1069.13,-39.9553 1080.73,-41.109"/>
<polygon fill="midnightblue" stroke="midnightblue" points="1045.33,-34.0711 1035.04,-36.5639 1044.64,-41.0367 1045.33,-34.0711"/>
</g>
<!-- Node11 -->
<g id="node11" class="node"><title>Node11</title>
<g id="a_node11"><a xlink:href="../../d1/d3a/classgame__engine_1_1_engine.html#aae1f63d0e4f4a2a5c36e886c658b6656" target="_top" xlink:title="game_engine.Engine.update">
<polygon fill="white" stroke="black" points="1074,-0.5 1074,-19.5 1228,-19.5 1228,-0.5 1074,-0.5"/>
<text text-anchor="middle" x="1151" y="-7.5" font-family="Helvetica,sans-Serif" font-size="10.00">game_engine.Engine.update</text>
</a>
</g>
</g>
<!-- Node8&#45;&gt;Node11 -->
<g id="edge10" class="edge"><title>Node8&#45;&gt;Node11</title>
<path fill="none" stroke="midnightblue" d="M1045.01,-20.4436C1054.65,-19.4851 1064.41,-18.5137 1073.91,-17.5689"/>
<polygon fill="midnightblue" stroke="midnightblue" points="1044.64,-16.9633 1035.04,-21.4361 1045.33,-23.9289 1044.64,-16.9633"/>
</g>
<!-- Node10 -->
<g id="node10" class="node"><title>Node10</title>
<g id="a_node10"><a xlink:href="../../d1/dcc/classapplication_1_1_shitty_main.html#af8b91a9a9eb3ba2c8a66baee2bed773b" target="_top" xlink:title="application.ShittyMain.start">
<polygon fill="white" stroke="black" points="1264.5,-38.5 1264.5,-57.5 1411.5,-57.5 1411.5,-38.5 1264.5,-38.5"/>
<text text-anchor="middle" x="1338" y="-45.5" font-family="Helvetica,sans-Serif" font-size="10.00">application.ShittyMain.start</text>
</a>
</g>
</g>
<!-- Node9&#45;&gt;Node10 -->
<g id="edge9" class="edge"><title>Node9&#45;&gt;Node10</title>
<path fill="none" stroke="midnightblue" d="M1231.48,-48C1242.36,-48 1253.48,-48 1264.22,-48"/>
<polygon fill="midnightblue" stroke="midnightblue" points="1231.15,-44.5001 1221.15,-48 1231.15,-51.5001 1231.15,-44.5001"/>
</g>
</g>
</svg>
