<?xml version="1.0" encoding="UTF-8" standalone="no"?>
<!DOCTYPE svg PUBLIC "-//W3C//DTD SVG 1.1//EN"
 "http://www.w3.org/Graphics/SVG/1.1/DTD/svg11.dtd">
<!-- Generated by graphviz version 2.36.0 (20140111.2315)
 -->
<!-- Title: model.GameElementStateFactory.addEssentials Pages: 1 -->
<!--zoomable 334 -->
<svg id="main" version="1.1" xmlns="http://www.w3.org/2000/svg" xmlns:xlink="http://www.w3.org/1999/xlink" xml:space="preserve" onload="init(evt)">
<style type="text/css"><![CDATA[
.edge:hover path { stroke: red; }
.edge:hover polygon { stroke: red; fill: red; }
]]></style>
<script type="text/javascript"><![CDATA[
var edges = document.getElementsByTagName('g');
if (edges && edges.length) {
  for (var i=0;i<edges.length;i++) {
    if (edges[i].id.substr(0,4)=='edge') {
      edges[i].setAttribute('class','edge');
    }
  }
}
]]></script>
        <defs>
                <circle id="rim" cx="0" cy="0" r="7"/>
                <circle id="rim2" cx="0" cy="0" r="3.5"/>
                <g id="zoomPlus">
                        <use xlink:href="#rim" fill="#404040">
                                <set attributeName="fill" to="#808080" begin="zoomplus.mouseover" end="zoomplus.mouseout"/>
                        </use>
                        <path d="M-4,0h8M0,-4v8" fill="none" stroke="white" stroke-width="1.5" pointer-events="none"/>
                </g>
                <g id="zoomMin">
                        <use xlink:href="#rim" fill="#404040">
                                <set attributeName="fill" to="#808080" begin="zoomminus.mouseover" end="zoomminus.mouseout"/>
                        </use>
                        <path d="M-4,0h8" fill="none" stroke="white" stroke-width="1.5" pointer-events="none"/>
                </g>
                <g id="dirArrow">
                        <path fill="none" stroke="white" stroke-width="1.5" d="M0,-3.0v7 M-2.5,-0.5L0,-3.0L2.5,-0.5"/>
                </g>
               <g id="resetDef">
                       <use xlink:href="#rim2" fill="#404040">
                               <set attributeName="fill" to="#808080" begin="reset.mouseover" end="reset.mouseout"/>
                       </use>
               </g>
        </defs>

<script type="text/javascript">
var viewWidth = 748;
var viewHeight = 334;
var sectionId = 'dynsection-0';
</script>
<script xlink:href="../../svgpan.js"/>
<svg id="graph" class="graph">
<g id="viewport">
<title>model.GameElementStateFactory.addEssentials</title>
<polygon fill="white" stroke="none" points="-4,4 -4,-330 744,-330 744,4 -4,4"/>
<!-- Node1 -->
<g id="node1" class="node"><title>Node1</title>
<polygon fill="#bfbfbf" stroke="black" points="0.5,-159 0.5,-189 199.5,-189 199.5,-159 0.5,-159"/>
<text text-anchor="start" x="8.5" y="-177" font-family="Helvetica,sans-Serif" font-size="10.00">model.GameElementStateFactory.add</text>
<text text-anchor="middle" x="100" y="-166" font-family="Helvetica,sans-Serif" font-size="10.00">Essentials</text>
</g>
<!-- Node2 -->
<g id="node2" class="node"><title>Node2</title>
<g id="a_node2"><a xlink:href="../../d7/da9/classmodel_1_1state_1_1gameelement_1_1_game_element_state.html#a9c933a8457618e7e8e5f257ee2211c07" target="_top" xlink:title="model.state.gameelement.\lGameElementState.addAction">
<polygon fill="white" stroke="black" points="260.5,-296 260.5,-326 423.5,-326 423.5,-296 260.5,-296"/>
<text text-anchor="start" x="268.5" y="-314" font-family="Helvetica,sans-Serif" font-size="10.00">model.state.gameelement.</text>
<text text-anchor="middle" x="342" y="-303" font-family="Helvetica,sans-Serif" font-size="10.00">GameElementState.addAction</text>
</a>
</g>
</g>
<!-- Node1&#45;&gt;Node2 -->
<g id="edge1" class="edge"><title>Node1&#45;&gt;Node2</title>
<path fill="none" stroke="midnightblue" d="M114.761,-189.258C137.541,-213.548 185.597,-260.83 236,-286 240.872,-288.433 245.991,-290.636 251.239,-292.629"/>
<polygon fill="midnightblue" stroke="midnightblue" points="250.202,-295.975 260.797,-295.996 252.528,-289.373 250.202,-295.975"/>
</g>
<!-- Node4 -->
<g id="node4" class="node"><title>Node4</title>
<g id="a_node4"><a xlink:href="../../d1/d8e/classmodel_1_1_game_element_state_factory.html#a0c7129019d734a04dfc2d6b6b25dc45d" target="_top" xlink:title="model.GameElementStateFactory.add\lToState">
<polygon fill="white" stroke="black" points="242.5,-247 242.5,-277 441.5,-277 441.5,-247 242.5,-247"/>
<text text-anchor="start" x="250.5" y="-265" font-family="Helvetica,sans-Serif" font-size="10.00">model.GameElementStateFactory.add</text>
<text text-anchor="middle" x="342" y="-254" font-family="Helvetica,sans-Serif" font-size="10.00">ToState</text>
</a>
</g>
</g>
<!-- Node1&#45;&gt;Node4 -->
<g id="edge3" class="edge"><title>Node1&#45;&gt;Node4</title>
<path fill="none" stroke="midnightblue" d="M133,-189.121C160.068,-201.577 200.073,-219.209 236,-232 247.979,-236.265 260.888,-240.354 273.419,-244.067"/>
<polygon fill="midnightblue" stroke="midnightblue" points="272.781,-247.527 283.361,-246.961 274.737,-240.806 272.781,-247.527"/>
</g>
<!-- Node5 -->
<g id="node5" class="node"><title>Node5</title>
<g id="a_node5"><a xlink:href="../../dc/d48/classmodel_1_1data_1_1_wizard_data.html#ad9134aa0c85f67b8fd66ff84f7f79cbe" target="_top" xlink:title="model.data.WizardData.get\lWizardDataByType">
<polygon fill="white" stroke="black" points="538,-225 538,-255 686,-255 686,-225 538,-225"/>
<text text-anchor="start" x="546" y="-243" font-family="Helvetica,sans-Serif" font-size="10.00">model.data.WizardData.get</text>
<text text-anchor="middle" x="612" y="-232" font-family="Helvetica,sans-Serif" font-size="10.00">WizardDataByType</text>
</a>
</g>
</g>
<!-- Node1&#45;&gt;Node5 -->
<g id="edge8" class="edge"><title>Node1&#45;&gt;Node5</title>
<path fill="none" stroke="midnightblue" d="M180.456,-189.004C198.67,-192.199 217.977,-195.391 236,-198 336.055,-212.482 451.751,-224.766 527.872,-232.24"/>
<polygon fill="midnightblue" stroke="midnightblue" points="527.588,-235.729 537.881,-233.217 528.268,-228.762 527.588,-235.729"/>
</g>
<!-- Node6 -->
<g id="node6" class="node"><title>Node6</title>
<g id="a_node6"><a xlink:href="../../d1/d8e/classmodel_1_1_game_element_state_factory.html#a0182be087dfefa408c6194ff5ca55ac1" target="_top" xlink:title="model.GameElementStateFactory.create\lActionWrapper">
<polygon fill="white" stroke="black" points="236,-159 236,-189 448,-189 448,-159 236,-159"/>
<text text-anchor="start" x="244" y="-177" font-family="Helvetica,sans-Serif" font-size="10.00">model.GameElementStateFactory.create</text>
<text text-anchor="middle" x="342" y="-166" font-family="Helvetica,sans-Serif" font-size="10.00">ActionWrapper</text>
</a>
</g>
</g>
<!-- Node1&#45;&gt;Node6 -->
<g id="edge5" class="edge"><title>Node1&#45;&gt;Node6</title>
<path fill="none" stroke="midnightblue" d="M199.656,-174C208.205,-174 216.904,-174 225.57,-174"/>
<polygon fill="midnightblue" stroke="midnightblue" points="225.719,-177.5 235.719,-174 225.719,-170.5 225.719,-177.5"/>
</g>
<!-- Node7 -->
<g id="node7" class="node"><title>Node7</title>
<g id="a_node7"><a xlink:href="../../dc/d48/classmodel_1_1data_1_1_wizard_data.html#ae19ca8de1e400fb399d702d78c861a81" target="_top" xlink:title="model.data.WizardData.get\lValueByKey">
<polygon fill="white" stroke="black" points="538,-130 538,-160 686,-160 686,-130 538,-130"/>
<text text-anchor="start" x="546" y="-148" font-family="Helvetica,sans-Serif" font-size="10.00">model.data.WizardData.get</text>
<text text-anchor="middle" x="612" y="-137" font-family="Helvetica,sans-Serif" font-size="10.00">ValueByKey</text>
</a>
</g>
</g>
<!-- Node1&#45;&gt;Node7 -->
<g id="edge7" class="edge"><title>Node1&#45;&gt;Node7</title>
<path fill="none" stroke="midnightblue" d="M169.353,-158.977C190.6,-154.947 214.174,-151.121 236,-149 336.004,-139.28 451.711,-139.825 527.848,-141.792"/>
<polygon fill="midnightblue" stroke="midnightblue" points="527.767,-145.291 537.859,-142.064 527.958,-138.293 527.767,-145.291"/>
</g>
<!-- Node8 -->
<g id="node8" class="node"><title>Node8</title>
<g id="a_node8"><a xlink:href="../../da/dc5/classmodel_1_1state_1_1gameelement_1_1_attribute_container.html#a168d6e922a93b11894753a0598c02cf7" target="_top" xlink:title="model.state.gameelement.\lAttributeContainer.setNumerical\lAttribute">
<polygon fill="white" stroke="black" points="256.5,-60.5 256.5,-101.5 427.5,-101.5 427.5,-60.5 256.5,-60.5"/>
<text text-anchor="start" x="264.5" y="-89.5" font-family="Helvetica,sans-Serif" font-size="10.00">model.state.gameelement.</text>
<text text-anchor="start" x="264.5" y="-78.5" font-family="Helvetica,sans-Serif" font-size="10.00">AttributeContainer.setNumerical</text>
<text text-anchor="middle" x="342" y="-67.5" font-family="Helvetica,sans-Serif" font-size="10.00">Attribute</text>
</a>
</g>
</g>
<!-- Node1&#45;&gt;Node8 -->
<g id="edge9" class="edge"><title>Node1&#45;&gt;Node8</title>
<path fill="none" stroke="midnightblue" d="M133.97,-158.914C161.109,-146.719 200.717,-129.433 236,-116 245.968,-112.205 256.55,-108.41 267.011,-104.794"/>
<polygon fill="midnightblue" stroke="midnightblue" points="268.232,-108.075 276.562,-101.528 265.968,-101.452 268.232,-108.075"/>
</g>
<!-- Node10 -->
<g id="node10" class="node"><title>Node10</title>
<g id="a_node10"><a xlink:href="../../da/dc5/classmodel_1_1state_1_1gameelement_1_1_attribute_container.html#a9537867c561e10d0d497563aab33e447" target="_top" xlink:title="model.state.gameelement.\lAttributeContainer.setTextual\lAttribute">
<polygon fill="white" stroke="black" points="264.5,-0.5 264.5,-41.5 419.5,-41.5 419.5,-0.5 264.5,-0.5"/>
<text text-anchor="start" x="272.5" y="-29.5" font-family="Helvetica,sans-Serif" font-size="10.00">model.state.gameelement.</text>
<text text-anchor="start" x="272.5" y="-18.5" font-family="Helvetica,sans-Serif" font-size="10.00">AttributeContainer.setTextual</text>
<text text-anchor="middle" x="342" y="-7.5" font-family="Helvetica,sans-Serif" font-size="10.00">Attribute</text>
</a>
</g>
</g>
<!-- Node1&#45;&gt;Node10 -->
<g id="edge11" class="edge"><title>Node1&#45;&gt;Node10</title>
<path fill="none" stroke="midnightblue" d="M113.495,-158.719C135.535,-132.755 183.936,-80.0272 236,-51 241.952,-47.6815 248.303,-44.7034 254.823,-42.0356"/>
<polygon fill="midnightblue" stroke="midnightblue" points="256.381,-45.1872 264.47,-38.3455 253.88,-38.6492 256.381,-45.1872"/>
</g>
<!-- Node3 -->
<g id="node3" class="node"><title>Node3</title>
<g id="a_node3"><a xlink:href="../../d5/d7f/classengine_1_1game_representation_1_1evaluatables_1_1actions_1_1_action_wrapper.html#aeb7b2a7580e1ba5d6e57a13cc00e9bd5" target="_top" xlink:title="engine.gameRepresentation.evaluatables.actions.\lActionWrapper.getActionType">
<polygon fill="white" stroke="black" points="484,-296 484,-326 740,-326 740,-296 484,-296"/>
<text text-anchor="start" x="492" y="-314" font-family="Helvetica,sans-Serif" font-size="10.00">engine.gameRepresentation.evaluatables.actions.</text>
<text text-anchor="middle" x="612" y="-303" font-family="Helvetica,sans-Serif" font-size="10.00">ActionWrapper.getActionType</text>
</a>
</g>
</g>
<!-- Node2&#45;&gt;Node3 -->
<g id="edge2" class="edge"><title>Node2&#45;&gt;Node3</title>
<path fill="none" stroke="midnightblue" d="M423.772,-311C439.619,-311 456.652,-311 473.755,-311"/>
<polygon fill="midnightblue" stroke="midnightblue" points="473.825,-314.5 483.825,-311 473.825,-307.5 473.825,-314.5"/>
</g>
<!-- Node4&#45;&gt;Node5 -->
<g id="edge4" class="edge"><title>Node4&#45;&gt;Node5</title>
<path fill="none" stroke="midnightblue" d="M441.652,-253.902C469.84,-251.588 500.277,-249.089 527.467,-246.857"/>
<polygon fill="midnightblue" stroke="midnightblue" points="528.037,-250.322 537.717,-246.016 527.464,-243.346 528.037,-250.322"/>
</g>
<!-- Node6&#45;&gt;Node7 -->
<g id="edge6" class="edge"><title>Node6&#45;&gt;Node7</title>
<path fill="none" stroke="midnightblue" d="M448.152,-162.622C474.573,-159.763 502.566,-156.734 527.752,-154.008"/>
<polygon fill="midnightblue" stroke="midnightblue" points="528.425,-157.456 537.991,-152.9 527.672,-150.496 528.425,-157.456"/>
</g>
<!-- Node9 -->
<g id="node9" class="node"><title>Node9</title>
<g id="a_node9"><a xlink:href="../../da/dc5/classmodel_1_1state_1_1gameelement_1_1_attribute_container.html#a03dd9ed123fc97bfc8bce5528b488333" target="_top" xlink:title="model.state.gameelement.\lAttributeContainer.addAttribute">
<polygon fill="white" stroke="black" points="528.5,-51 528.5,-81 695.5,-81 695.5,-51 528.5,-51"/>
<text text-anchor="start" x="536.5" y="-69" font-family="Helvetica,sans-Serif" font-size="10.00">model.state.gameelement.</text>
<text text-anchor="middle" x="612" y="-58" font-family="Helvetica,sans-Serif" font-size="10.00">AttributeContainer.addAttribute</text>
</a>
</g>
</g>
<!-- Node8&#45;&gt;Node9 -->
<g id="edge10" class="edge"><title>Node8&#45;&gt;Node9</title>
<path fill="none" stroke="midnightblue" d="M427.797,-76.2539C456.467,-74.6492 488.627,-72.8493 517.905,-71.2106"/>
<polygon fill="midnightblue" stroke="midnightblue" points="518.341,-74.6917 528.13,-70.6382 517.95,-67.7026 518.341,-74.6917"/>
</g>
<!-- Node10&#45;&gt;Node9 -->
<g id="edge12" class="edge"><title>Node10&#45;&gt;Node9</title>
<path fill="none" stroke="midnightblue" d="M419.798,-33.8952C450.364,-39.0275 485.818,-44.9806 517.834,-50.3564"/>
<polygon fill="midnightblue" stroke="midnightblue" points="517.656,-53.8754 528.097,-52.0797 518.815,-46.9721 517.656,-53.8754"/>
</g>
</g>
</svg>
        <g id="navigator" transform="translate(0 0)" fill="#404254">
                <rect fill="#f2f5e9" fill-opacity="0.5" stroke="#606060" stroke-width=".5" x="0" y="0" width="60" height="60"/>
                <use id="zoomplus" xlink:href="#zoomPlus" x="17" y="9" onmousedown="handleZoom(evt,'in')"/>
                <use id="zoomminus" xlink:href="#zoomMin" x="42" y="9" onmousedown="handleZoom(evt,'out')"/>
                <use id="reset" xlink:href="#resetDef" x="30" y="36" onmousedown="handleReset()"/>
                <g id="arrowUp" xlink:href="#dirArrow" transform="translate(30 24)" onmousedown="handlePan(0,-1)">
                  <use xlink:href="#rim" fill="#404040">
                        <set attributeName="fill" to="#808080" begin="arrowUp.mouseover" end="arrowUp.mouseout"/>
                  </use>
                  <path fill="none" stroke="white" stroke-width="1.5" d="M0,-3.0v7 M-2.5,-0.5L0,-3.0L2.5,-0.5"/>
                </g>
                <g id="arrowRight" xlink:href="#dirArrow" transform="rotate(90) translate(36 -43)" onmousedown="handlePan(1,0)">
                  <use xlink:href="#rim" fill="#404040">
                        <set attributeName="fill" to="#808080" begin="arrowRight.mouseover" end="arrowRight.mouseout"/>
                  </use>
                  <path fill="none" stroke="white" stroke-width="1.5" d="M0,-3.0v7 M-2.5,-0.5L0,-3.0L2.5,-0.5"/>
                </g>
                <g id="arrowDown" xlink:href="#dirArrow" transform="rotate(180) translate(-30 -48)" onmousedown="handlePan(0,1)">
                  <use xlink:href="#rim" fill="#404040">
                        <set attributeName="fill" to="#808080" begin="arrowDown.mouseover" end="arrowDown.mouseout"/>
                  </use>
                  <path fill="none" stroke="white" stroke-width="1.5" d="M0,-3.0v7 M-2.5,-0.5L0,-3.0L2.5,-0.5"/>
                </g>
                <g id="arrowLeft" xlink:href="#dirArrow" transform="rotate(270) translate(-36 17)" onmousedown="handlePan(-1,0)">
                  <use xlink:href="#rim" fill="#404040">
                        <set attributeName="fill" to="#808080" begin="arrowLeft.mouseover" end="arrowLeft.mouseout"/>
                  </use>
                  <path fill="none" stroke="white" stroke-width="1.5" d="M0,-3.0v7 M-2.5,-0.5L0,-3.0L2.5,-0.5"/>
                </g>
        </g>
        <svg viewBox="0 0 15 15" width="100%" height="30px" preserveAspectRatio="xMaxYMin meet">
         <g id="arrow_out" transform="scale(0.3 0.3)">
          <a xlink:href="classmodel_1_1_game_element_state_factory_a58beddcf86b79336d5f7de3c2c03f2a7_cgraph_org.svg" target="_base">
           <rect id="button" ry="5" rx="5" y="6" x="6" height="38" width="38"
                fill="#f2f5e9" fill-opacity="0.5" stroke="#606060" stroke-width="1.0"/>
           <path id="arrow"
             d="M 11.500037,31.436501 C 11.940474,20.09759 22.043105,11.32322 32.158766,21.979434 L 37.068811,17.246167 C 37.068811,17.246167 37.088388,32 37.088388,32 L 22.160133,31.978069 C 22.160133,31.978069 26.997745,27.140456 26.997745,27.140456 C 18.528582,18.264221 13.291696,25.230495 11.500037,31.436501 z"
             style="fill:#404040;"/>
          </a>
         </g>
        </svg>
</svg>
