<?xml version="1.0" encoding="UTF-8" standalone="no"?>
<!DOCTYPE svg PUBLIC "-//W3C//DTD SVG 1.1//EN"
 "http://www.w3.org/Graphics/SVG/1.1/DTD/svg11.dtd">
<!-- Generated by graphviz version 2.36.0 (20140111.2315)
 -->
<!-- Title: model.GameElementStateFactory.createGoal Pages: 1 -->
<svg width="782pt" height="87pt"
 viewBox="0.00 0.00 782.00 87.00" xmlns="http://www.w3.org/2000/svg" xmlns:xlink="http://www.w3.org/1999/xlink">
<g id="graph0" class="graph" transform="scale(1 1) rotate(0) translate(4 83)">
<title>model.GameElementStateFactory.createGoal</title>
<polygon fill="white" stroke="none" points="-4,4 -4,-83 778,-83 778,4 -4,4"/>
<!-- Node1 -->
<g id="node1" class="node"><title>Node1</title>
<polygon fill="#bfbfbf" stroke="black" points="0.5,-29.5 0.5,-48.5 233.5,-48.5 233.5,-29.5 0.5,-29.5"/>
<text text-anchor="middle" x="117" y="-36.5" font-family="Helvetica,sans-Serif" font-size="10.00">model.GameElementStateFactory.createGoal</text>
</g>
<!-- Node2 -->
<g id="node2" class="node"><title>Node2</title>
<g id="a_node2"><a xlink:href="../../d7/da9/classmodel_1_1state_1_1gameelement_1_1_game_element_state.html#a9c933a8457618e7e8e5f257ee2211c07" target="_top" xlink:title="model.state.gameelement.\lGameElementState.addAction">
<polygon fill="white" stroke="black" points="294.5,-49 294.5,-79 457.5,-79 457.5,-49 294.5,-49"/>
<text text-anchor="start" x="302.5" y="-67" font-family="Helvetica,sans-Serif" font-size="10.00">model.state.gameelement.</text>
<text text-anchor="middle" x="376" y="-56" font-family="Helvetica,sans-Serif" font-size="10.00">GameElementState.addAction</text>
</a>
</g>
</g>
<!-- Node1&#45;&gt;Node2 -->
<g id="edge1" class="edge"><title>Node1&#45;&gt;Node2</title>
<path fill="none" stroke="midnightblue" d="M215.894,-48.5227C238.405,-50.7126 262.247,-53.0318 284.432,-55.1899"/>
<polygon fill="midnightblue" stroke="midnightblue" points="284.205,-58.6843 294.497,-56.169 284.883,-51.7172 284.205,-58.6843"/>
</g>
<!-- Node4 -->
<g id="node4" class="node"><title>Node4</title>
<g id="a_node4"><a xlink:href="../../d1/d8e/classmodel_1_1_game_element_state_factory.html#a0182be087dfefa408c6194ff5ca55ac1" target="_top" xlink:title="model.GameElementStateFactory.create\lActionWrapper">
<polygon fill="white" stroke="black" points="270,-0 270,-30 482,-30 482,-0 270,-0"/>
<text text-anchor="start" x="278" y="-18" font-family="Helvetica,sans-Serif" font-size="10.00">model.GameElementStateFactory.create</text>
<text text-anchor="middle" x="376" y="-7" font-family="Helvetica,sans-Serif" font-size="10.00">ActionWrapper</text>
</a>
</g>
</g>
<!-- Node1&#45;&gt;Node4 -->
<g id="edge3" class="edge"><title>Node1&#45;&gt;Node4</title>
<path fill="none" stroke="midnightblue" d="M219.942,-29.4801C233.008,-28.2599 246.458,-27.004 259.717,-25.7657"/>
<polygon fill="midnightblue" stroke="midnightblue" points="260.179,-29.2379 269.81,-24.8232 259.528,-22.2682 260.179,-29.2379"/>
</g>
<!-- Node3 -->
<g id="node3" class="node"><title>Node3</title>
<g id="a_node3"><a xlink:href="../../d5/d7f/classengine_1_1game_representation_1_1evaluatables_1_1actions_1_1_action_wrapper.html#aeb7b2a7580e1ba5d6e57a13cc00e9bd5" target="_top" xlink:title="engine.gameRepresentation.evaluatables.actions.\lActionWrapper.getActionType">
<polygon fill="white" stroke="black" points="518,-49 518,-79 774,-79 774,-49 518,-49"/>
<text text-anchor="start" x="526" y="-67" font-family="Helvetica,sans-Serif" font-size="10.00">engine.gameRepresentation.evaluatables.actions.</text>
<text text-anchor="middle" x="646" y="-56" font-family="Helvetica,sans-Serif" font-size="10.00">ActionWrapper.getActionType</text>
</a>
</g>
</g>
<!-- Node2&#45;&gt;Node3 -->
<g id="edge2" class="edge"><title>Node2&#45;&gt;Node3</title>
<path fill="none" stroke="midnightblue" d="M457.772,-64C473.619,-64 490.652,-64 507.755,-64"/>
<polygon fill="midnightblue" stroke="midnightblue" points="507.825,-67.5001 517.825,-64 507.825,-60.5001 507.825,-67.5001"/>
</g>
<!-- Node5 -->
<g id="node5" class="node"><title>Node5</title>
<g id="a_node5"><a xlink:href="../../dc/d48/classmodel_1_1data_1_1_wizard_data.html#ae19ca8de1e400fb399d702d78c861a81" target="_top" xlink:title="model.data.WizardData.get\lValueByKey">
<polygon fill="white" stroke="black" points="572,-0 572,-30 720,-30 720,-0 572,-0"/>
<text text-anchor="start" x="580" y="-18" font-family="Helvetica,sans-Serif" font-size="10.00">model.data.WizardData.get</text>
<text text-anchor="middle" x="646" y="-7" font-family="Helvetica,sans-Serif" font-size="10.00">ValueByKey</text>
</a>
</g>
</g>
<!-- Node4&#45;&gt;Node5 -->
<g id="edge4" class="edge"><title>Node4&#45;&gt;Node5</title>
<path fill="none" stroke="midnightblue" d="M482.152,-15C508.573,-15 536.566,-15 561.752,-15"/>
<polygon fill="midnightblue" stroke="midnightblue" points="561.991,-18.5001 571.991,-15 561.99,-11.5001 561.991,-18.5001"/>
</g>
</g>
</svg>
