<?xml version="1.0" encoding="UTF-8" standalone="no"?>
<!DOCTYPE svg PUBLIC "-//W3C//DTD SVG 1.1//EN"
 "http://www.w3.org/Graphics/SVG/1.1/DTD/svg11.dtd">
<!-- Generated by graphviz version 2.36.0 (20140111.2315)
 -->
<!-- Title: game_engine.gameRepresentation.evaluatables.parameters.ActionParameter Pages: 1 -->
<svg width="1080pt" height="87pt"
 viewBox="0.00 0.00 1080.00 87.00" xmlns="http://www.w3.org/2000/svg" xmlns:xlink="http://www.w3.org/1999/xlink">
<g id="graph0" class="graph" transform="scale(1 1) rotate(0) translate(4 83)">
<title>game_engine.gameRepresentation.evaluatables.parameters.ActionParameter</title>
<polygon fill="white" stroke="none" points="-4,4 -4,-83 1076,-83 1076,4 -4,4"/>
<!-- Node1 -->
<g id="node1" class="node"><title>Node1</title>
<polygon fill="#bfbfbf" stroke="black" points="760.5,-30 760.5,-60 1071.5,-60 1071.5,-30 760.5,-30"/>
<text text-anchor="start" x="768.5" y="-48" font-family="Helvetica,sans-Serif" font-size="10.00">game_engine.gameRepresentation.evaluatables.parameters.</text>
<text text-anchor="middle" x="916" y="-37" font-family="Helvetica,sans-Serif" font-size="10.00">ActionParameter</text>
</g>
<!-- Node2 -->
<g id="node2" class="node"><title>Node2</title>
<g id="a_node2"><a xlink:href="../../d9/d07/classgame__engine_1_1game_representation_1_1evaluatables_1_1parameters_1_1_parameter.html" target="_top" xlink:title="game_engine.gameRepresentation.evaluatables.parameters.\lParameter\&lt; Action \&gt;">
<polygon fill="white" stroke="black" points="362.5,-49 362.5,-79 673.5,-79 673.5,-49 362.5,-49"/>
<text text-anchor="start" x="370.5" y="-67" font-family="Helvetica,sans-Serif" font-size="10.00">game_engine.gameRepresentation.evaluatables.parameters.</text>
<text text-anchor="middle" x="518" y="-56" font-family="Helvetica,sans-Serif" font-size="10.00">Parameter&lt; Action &gt;</text>
</a>
</g>
</g>
<!-- Node2&#45;&gt;Node1 -->
<g id="edge1" class="edge"><title>Node2&#45;&gt;Node1</title>
<path fill="none" stroke="midnightblue" d="M683.604,-56.1023C709.033,-54.8823 735.218,-53.6259 760.417,-52.4169"/>
<polygon fill="midnightblue" stroke="midnightblue" points="683.342,-52.6108 673.522,-56.5861 683.678,-59.6027 683.342,-52.6108"/>
</g>
<!-- Node3 -->
<g id="node3" class="node"><title>Node3</title>
<g id="a_node3"><a xlink:href="../../d6/dc5/classgame__engine_1_1game_representation_1_1evaluatables_1_1_action.html" target="_top" xlink:title="game_engine.gameRepresentation.evaluatables.\lAction">
<polygon fill="white" stroke="black" points="392.5,-0 392.5,-30 643.5,-30 643.5,-0 392.5,-0"/>
<text text-anchor="start" x="400.5" y="-18" font-family="Helvetica,sans-Serif" font-size="10.00">game_engine.gameRepresentation.evaluatables.</text>
<text text-anchor="middle" x="518" y="-7" font-family="Helvetica,sans-Serif" font-size="10.00">Action</text>
</a>
</g>
</g>
<!-- Node3&#45;&gt;Node1 -->
<g id="edge2" class="edge"><title>Node3&#45;&gt;Node1</title>
<path fill="none" stroke="#9a32cd" stroke-dasharray="5,2" d="M653.805,-25.2125C688.041,-27.8061 725.092,-30.613 760.233,-33.2753"/>
<polygon fill="#9a32cd" stroke="#9a32cd" points="653.989,-21.7165 643.753,-24.451 653.46,-28.6965 653.989,-21.7165"/>
<text text-anchor="middle" x="717" y="-34" font-family="Helvetica,sans-Serif" font-size="10.00"> myAction</text>
</g>
<!-- Node4 -->
<g id="node4" class="node"><title>Node4</title>
<g id="a_node4"><a xlink:href="../../d2/dfb/classgame__engine_1_1game_representation_1_1evaluatables_1_1_evaluatable.html" target="_top" xlink:title="game_engine.gameRepresentation.evaluatables.\lEvaluatable\&lt;?\&gt;">
<polygon fill="white" stroke="black" points="0.5,-0 0.5,-30 251.5,-30 251.5,-0 0.5,-0"/>
<text text-anchor="start" x="8.5" y="-18" font-family="Helvetica,sans-Serif" font-size="10.00">game_engine.gameRepresentation.evaluatables.</text>
<text text-anchor="middle" x="126" y="-7" font-family="Helvetica,sans-Serif" font-size="10.00">Evaluatable&lt;?&gt;</text>
</a>
</g>
</g>
<!-- Node4&#45;&gt;Node3 -->
<g id="edge3" class="edge"><title>Node4&#45;&gt;Node3</title>
<path fill="none" stroke="#9a32cd" stroke-dasharray="5,2" d="M261.828,-15C304.132,-15 350.624,-15 392.202,-15"/>
<polygon fill="#9a32cd" stroke="#9a32cd" points="261.739,-11.5001 251.739,-15 261.739,-18.5001 261.739,-11.5001"/>
<text text-anchor="middle" x="307" y="-18" font-family="Helvetica,sans-Serif" font-size="10.00"> myEvaluatable</text>
</g>
</g>
</svg>
