<?xml version="1.0" encoding="UTF-8" standalone="no"?>
<!DOCTYPE svg PUBLIC "-//W3C//DTD SVG 1.1//EN"
 "http://www.w3.org/Graphics/SVG/1.1/DTD/svg11.dtd">
<!-- Generated by graphviz version 2.36.0 (20140111.2315)
 -->
<!-- Title: engine.gameRepresentation.evaluatables.parameters.objectIdentifiers.ObjectOfInterestIdentifier.getElementOfInterest Pages: 1 -->
<svg width="636pt" height="87pt"
 viewBox="0.00 0.00 636.00 87.00" xmlns="http://www.w3.org/2000/svg" xmlns:xlink="http://www.w3.org/1999/xlink">
<g id="graph0" class="graph" transform="scale(1 1) rotate(0) translate(4 83)">
<title>engine.gameRepresentation.evaluatables.parameters.objectIdentifiers.ObjectOfInterestIdentifier.getElementOfInterest</title>
<polygon fill="white" stroke="none" points="-4,4 -4,-83 632,-83 632,4 -4,4"/>
<!-- Node1 -->
<g id="node1" class="node"><title>Node1</title>
<polygon fill="#bfbfbf" stroke="black" points="0.5,-24 0.5,-54 307.5,-54 307.5,-24 0.5,-24"/>
<text text-anchor="start" x="8.5" y="-42" font-family="Helvetica,sans-Serif" font-size="10.00">engine.gameRepresentation.evaluatables.parameters.object</text>
<text text-anchor="middle" x="154" y="-31" font-family="Helvetica,sans-Serif" font-size="10.00">Identifiers.ObjectOfInterestIdentifier.getElementOfInterest</text>
</g>
<!-- Node2 -->
<g id="node2" class="node"><title>Node2</title>
<g id="a_node2"><a xlink:href="../../d5/d58/classengine_1_1game_representation_1_1evaluatables_1_1parameters_1_1_game_element_parameter.html#ade34b125ee742109b6d6c13c9b1f8264" target="_top" xlink:title="engine.gameRepresentation.evaluatables.parameters.\lGameElementParameter.evaluate">
<polygon fill="white" stroke="black" points="347,-49 347,-79 625,-79 625,-49 347,-49"/>
<text text-anchor="start" x="355" y="-67" font-family="Helvetica,sans-Serif" font-size="10.00">engine.gameRepresentation.evaluatables.parameters.</text>
<text text-anchor="middle" x="486" y="-56" font-family="Helvetica,sans-Serif" font-size="10.00">GameElementParameter.evaluate</text>
</a>
</g>
</g>
<!-- Node1&#45;&gt;Node2 -->
<g id="edge1" class="edge"><title>Node1&#45;&gt;Node2</title>
<path fill="none" stroke="midnightblue" d="M317.98,-51.347C327.637,-52.0786 337.304,-52.8109 346.848,-53.5339"/>
<polygon fill="midnightblue" stroke="midnightblue" points="318.16,-47.8507 307.925,-50.5852 317.632,-54.8307 318.16,-47.8507"/>
</g>
<!-- Node3 -->
<g id="node3" class="node"><title>Node3</title>
<g id="a_node3"><a xlink:href="../../d9/d27/classengine_1_1game_representation_1_1evaluatables_1_1parameters_1_1_attribute_parameter.html#acf98e521f04ab30e97090f43fb8592f9" target="_top" xlink:title="engine.gameRepresentation.evaluatables.parameters.\lAttributeParameter\&lt; Number \&gt;::getElementsOfInterest">
<polygon fill="white" stroke="black" points="344,-0 344,-30 628,-30 628,-0 344,-0"/>
<text text-anchor="start" x="352" y="-18" font-family="Helvetica,sans-Serif" font-size="10.00">engine.gameRepresentation.evaluatables.parameters.</text>
<text text-anchor="middle" x="486" y="-7" font-family="Helvetica,sans-Serif" font-size="10.00">AttributeParameter&lt; Number &gt;::getElementsOfInterest</text>
</a>
</g>
</g>
<!-- Node1&#45;&gt;Node3 -->
<g id="edge2" class="edge"><title>Node1&#45;&gt;Node3</title>
<path fill="none" stroke="midnightblue" d="M318.039,-27.1426C326.663,-26.5154 335.294,-25.8877 343.838,-25.2663"/>
<polygon fill="midnightblue" stroke="midnightblue" points="317.644,-23.662 307.925,-27.8782 318.152,-30.6435 317.644,-23.662"/>
</g>
</g>
</svg>
