<?xml version="1.0" encoding="UTF-8" standalone="no"?>
<!DOCTYPE svg PUBLIC "-//W3C//DTD SVG 1.1//EN"
 "http://www.w3.org/Graphics/SVG/1.1/DTD/svg11.dtd">
<!-- Generated by graphviz version 2.36.0 (20140111.2315)
 -->
<!-- Title: game_engine.visuals.ScrollableScene.addKeyboardObserver Pages: 1 -->
<svg width="944pt" height="101pt"
 viewBox="0.00 0.00 944.00 101.00" xmlns="http://www.w3.org/2000/svg" xmlns:xlink="http://www.w3.org/1999/xlink">
<g id="graph0" class="graph" transform="scale(1 1) rotate(0) translate(4 97)">
<title>game_engine.visuals.ScrollableScene.addKeyboardObserver</title>
<polygon fill="white" stroke="none" points="-4,4 -4,-97 940,-97 940,4 -4,4"/>
<!-- Node1 -->
<g id="node1" class="node"><title>Node1</title>
<polygon fill="#bfbfbf" stroke="black" points="0.5,-38 0.5,-68 167.5,-68 167.5,-38 0.5,-38"/>
<text text-anchor="start" x="8.5" y="-56" font-family="Helvetica,sans-Serif" font-size="10.00">game_engine.visuals.Scrollable</text>
<text text-anchor="middle" x="84" y="-45" font-family="Helvetica,sans-Serif" font-size="10.00">Scene.addKeyboardObserver</text>
</g>
<!-- Node2 -->
<g id="node2" class="node"><title>Node2</title>
<g id="a_node2"><a xlink:href="../../db/d53/classgame__engine_1_1visuals_1_1_visual_manager.html#adbba0b4e6e6d5fa5dc5c52104bdb45cf" target="_top" xlink:title="game_engine.visuals.Visual\lManager.addKeyboardObserver">
<polygon fill="white" stroke="black" points="204.5,-38 204.5,-68 371.5,-68 371.5,-38 204.5,-38"/>
<text text-anchor="start" x="212.5" y="-56" font-family="Helvetica,sans-Serif" font-size="10.00">game_engine.visuals.Visual</text>
<text text-anchor="middle" x="288" y="-45" font-family="Helvetica,sans-Serif" font-size="10.00">Manager.addKeyboardObserver</text>
</a>
</g>
</g>
<!-- Node1&#45;&gt;Node2 -->
<g id="edge1" class="edge"><title>Node1&#45;&gt;Node2</title>
<path fill="none" stroke="midnightblue" d="M178.018,-53C186.815,-53 195.694,-53 204.385,-53"/>
<polygon fill="midnightblue" stroke="midnightblue" points="177.744,-49.5001 167.744,-53 177.744,-56.5001 177.744,-49.5001"/>
</g>
<!-- Node3 -->
<g id="node3" class="node"><title>Node3</title>
<g id="a_node3"><a xlink:href="../../d1/d3a/classgame__engine_1_1_engine.html#a33096e19a0dd6c4541ade6bdfcf092c4" target="_top" xlink:title="game_engine.Engine.select\lLevel">
<polygon fill="white" stroke="black" points="410.5,-63 410.5,-93 559.5,-93 559.5,-63 410.5,-63"/>
<text text-anchor="start" x="418.5" y="-81" font-family="Helvetica,sans-Serif" font-size="10.00">game_engine.Engine.select</text>
<text text-anchor="middle" x="485" y="-70" font-family="Helvetica,sans-Serif" font-size="10.00">Level</text>
</a>
</g>
</g>
<!-- Node2&#45;&gt;Node3 -->
<g id="edge2" class="edge"><title>Node2&#45;&gt;Node3</title>
<path fill="none" stroke="midnightblue" d="M381.707,-64.8856C391.35,-66.1218 401.055,-67.366 410.444,-68.5697"/>
<polygon fill="midnightblue" stroke="midnightblue" points="382.061,-61.4024 371.698,-63.6023 381.171,-68.3456 382.061,-61.4024"/>
</g>
<!-- Node4 -->
<g id="node4" class="node"><title>Node4</title>
<g id="a_node4"><a xlink:href="../../d1/d3a/classgame__engine_1_1_engine.html#ab6c764092ba69d14447f29ce60f02883" target="_top" xlink:title="game_engine.Engine.update\lGameLoop">
<polygon fill="white" stroke="black" points="408,-14 408,-44 562,-44 562,-14 408,-14"/>
<text text-anchor="start" x="416" y="-32" font-family="Helvetica,sans-Serif" font-size="10.00">game_engine.Engine.update</text>
<text text-anchor="middle" x="485" y="-21" font-family="Helvetica,sans-Serif" font-size="10.00">GameLoop</text>
</a>
</g>
</g>
<!-- Node2&#45;&gt;Node4 -->
<g id="edge3" class="edge"><title>Node2&#45;&gt;Node4</title>
<path fill="none" stroke="midnightblue" d="M381.629,-41.5995C390.459,-40.5128 399.342,-39.4194 407.988,-38.3553"/>
<polygon fill="midnightblue" stroke="midnightblue" points="381.195,-38.1264 371.698,-42.8218 382.05,-45.074 381.195,-38.1264"/>
</g>
<!-- Node5 -->
<g id="node5" class="node"><title>Node5</title>
<g id="a_node5"><a xlink:href="../../d1/d3a/classgame__engine_1_1_engine.html#a66b9572272f4556e51893ee93c719196" target="_top" xlink:title="game_engine.Engine.play">
<polygon fill="white" stroke="black" points="605,-38.5 605,-57.5 745,-57.5 745,-38.5 605,-38.5"/>
<text text-anchor="middle" x="675" y="-45.5" font-family="Helvetica,sans-Serif" font-size="10.00">game_engine.Engine.play</text>
</a>
</g>
</g>
<!-- Node4&#45;&gt;Node5 -->
<g id="edge4" class="edge"><title>Node4&#45;&gt;Node5</title>
<path fill="none" stroke="midnightblue" d="M572.218,-37.7135C583.194,-38.8228 594.312,-39.9465 604.969,-41.0235"/>
<polygon fill="midnightblue" stroke="midnightblue" points="572.497,-34.224 562.196,-36.7006 571.793,-41.1885 572.497,-34.224"/>
</g>
<!-- Node7 -->
<g id="node7" class="node"><title>Node7</title>
<g id="a_node7"><a xlink:href="../../d1/d3a/classgame__engine_1_1_engine.html#aae1f63d0e4f4a2a5c36e886c658b6656" target="_top" xlink:title="game_engine.Engine.update">
<polygon fill="white" stroke="black" points="598,-0.5 598,-19.5 752,-19.5 752,-0.5 598,-0.5"/>
<text text-anchor="middle" x="675" y="-7.5" font-family="Helvetica,sans-Serif" font-size="10.00">game_engine.Engine.update</text>
</a>
</g>
</g>
<!-- Node4&#45;&gt;Node7 -->
<g id="edge6" class="edge"><title>Node4&#45;&gt;Node7</title>
<path fill="none" stroke="midnightblue" d="M572.146,-20.2938C580.67,-19.4323 589.281,-18.562 597.696,-17.7116"/>
<polygon fill="midnightblue" stroke="midnightblue" points="571.793,-16.8115 562.196,-21.2994 572.497,-23.776 571.793,-16.8115"/>
</g>
<!-- Node6 -->
<g id="node6" class="node"><title>Node6</title>
<g id="a_node6"><a xlink:href="../../d1/dcc/classapplication_1_1_shitty_main.html#af8b91a9a9eb3ba2c8a66baee2bed773b" target="_top" xlink:title="application.ShittyMain.start">
<polygon fill="white" stroke="black" points="788.5,-38.5 788.5,-57.5 935.5,-57.5 935.5,-38.5 788.5,-38.5"/>
<text text-anchor="middle" x="862" y="-45.5" font-family="Helvetica,sans-Serif" font-size="10.00">application.ShittyMain.start</text>
</a>
</g>
</g>
<!-- Node5&#45;&gt;Node6 -->
<g id="edge5" class="edge"><title>Node5&#45;&gt;Node6</title>
<path fill="none" stroke="midnightblue" d="M755.481,-48C766.356,-48 777.476,-48 788.223,-48"/>
<polygon fill="midnightblue" stroke="midnightblue" points="755.15,-44.5001 745.15,-48 755.15,-51.5001 755.15,-44.5001"/>
</g>
</g>
</svg>
