<?xml version="1.0" encoding="UTF-8" standalone="no"?>
<!DOCTYPE svg PUBLIC "-//W3C//DTD SVG 1.1//EN"
 "http://www.w3.org/Graphics/SVG/1.1/DTD/svg11.dtd">
<!-- Generated by graphviz version 2.36.0 (20140111.2315)
 -->
<!-- Title: view.editor.wizards.GameElementWizard Pages: 1 -->
<!--zoomable 795 -->
<svg id="main" version="1.1" xmlns="http://www.w3.org/2000/svg" xmlns:xlink="http://www.w3.org/1999/xlink" xml:space="preserve" onload="init(evt)">
<style type="text/css"><![CDATA[
.edge:hover path { stroke: red; }
.edge:hover polygon { stroke: red; fill: red; }
]]></style>
<script type="text/javascript"><![CDATA[
var edges = document.getElementsByTagName('g');
if (edges && edges.length) {
  for (var i=0;i<edges.length;i++) {
    if (edges[i].id.substr(0,4)=='edge') {
      edges[i].setAttribute('class','edge');
    }
  }
}
]]></script>
        <defs>
                <circle id="rim" cx="0" cy="0" r="7"/>
                <circle id="rim2" cx="0" cy="0" r="3.5"/>
                <g id="zoomPlus">
                        <use xlink:href="#rim" fill="#404040">
                                <set attributeName="fill" to="#808080" begin="zoomplus.mouseover" end="zoomplus.mouseout"/>
                        </use>
                        <path d="M-4,0h8M0,-4v8" fill="none" stroke="white" stroke-width="1.5" pointer-events="none"/>
                </g>
                <g id="zoomMin">
                        <use xlink:href="#rim" fill="#404040">
                                <set attributeName="fill" to="#808080" begin="zoomminus.mouseover" end="zoomminus.mouseout"/>
                        </use>
                        <path d="M-4,0h8" fill="none" stroke="white" stroke-width="1.5" pointer-events="none"/>
                </g>
                <g id="dirArrow">
                        <path fill="none" stroke="white" stroke-width="1.5" d="M0,-3.0v7 M-2.5,-0.5L0,-3.0L2.5,-0.5"/>
                </g>
               <g id="resetDef">
                       <use xlink:href="#rim2" fill="#404040">
                               <set attributeName="fill" to="#808080" begin="reset.mouseover" end="reset.mouseout"/>
                       </use>
               </g>
        </defs>

<script type="text/javascript">
var viewWidth = 1076;
var viewHeight = 795;
var sectionId = 'dynsection-1';
</script>
<script xlink:href="../../svgpan.js"/>
<svg id="graph" class="graph">
<g id="viewport">
<title>view.editor.wizards.GameElementWizard</title>
<polygon fill="white" stroke="none" points="-4,4 -4,-791 1072,-791 1072,4 -4,4"/>
<!-- Node1 -->
<g id="node1" class="node"><title>Node1</title>
<polygon fill="#bfbfbf" stroke="black" points="930.5,-234 930.5,-264 1067.5,-264 1067.5,-234 930.5,-234"/>
<text text-anchor="start" x="938.5" y="-252" font-family="Helvetica,sans-Serif" font-size="10.00">view.editor.wizards.Game</text>
<text text-anchor="middle" x="999" y="-241" font-family="Helvetica,sans-Serif" font-size="10.00">ElementWizard</text>
</g>
<!-- Node2 -->
<g id="node2" class="node"><title>Node2</title>
<g id="a_node2"><a xlink:href="../../d7/d40/classview_1_1editor_1_1wizards_1_1_wizard.html" target="_top" xlink:title="view.editor.wizards.Wizard">
<polygon fill="white" stroke="black" points="601.5,-628.5 601.5,-647.5 740.5,-647.5 740.5,-628.5 601.5,-628.5"/>
<text text-anchor="middle" x="671" y="-635.5" font-family="Helvetica,sans-Serif" font-size="10.00">view.editor.wizards.Wizard</text>
</a>
</g>
</g>
<!-- Node2&#45;&gt;Node1 -->
<g id="edge1" class="edge"><title>Node2&#45;&gt;Node1</title>
<path fill="none" stroke="midnightblue" d="M721.786,-625.62C776.039,-609.627 861.788,-576.62 912,-518 979.141,-439.616 994.013,-308.26 997.178,-264.044"/>
<polygon fill="midnightblue" stroke="midnightblue" points="720.689,-622.294 712.038,-628.411 722.615,-629.023 720.689,-622.294"/>
</g>
<!-- Node3 -->
<g id="node3" class="node"><title>Node3</title>
<g id="a_node3"><a xlink:href="../../d5/d13/interfaceview_1_1gui_1_1_g_u_i_controller.html" target="_top" xlink:title="view.gui.GUIController">
<polygon fill="white" stroke="black" points="284,-556.5 284,-575.5 404,-575.5 404,-556.5 284,-556.5"/>
<text text-anchor="middle" x="344" y="-563.5" font-family="Helvetica,sans-Serif" font-size="10.00">view.gui.GUIController</text>
</a>
</g>
</g>
<!-- Node3&#45;&gt;Node2 -->
<g id="edge2" class="edge"><title>Node3&#45;&gt;Node2</title>
<path fill="none" stroke="midnightblue" d="M399.822,-577.649C443.723,-587.032 506.863,-600.648 562,-613 584.349,-618.007 609.257,-623.761 629.515,-628.485"/>
<polygon fill="midnightblue" stroke="midnightblue" points="400.436,-574.202 389.926,-575.536 398.974,-581.047 400.436,-574.202"/>
</g>
<!-- Node15 -->
<g id="node15" class="node"><title>Node15</title>
<g id="a_node15"><a xlink:href="../../d2/daf/classview_1_1editor_1_1wizards_1_1_c_r_u_d_container.html" target="_top" xlink:title="view.editor.wizards.CRUDContainer">
<polygon fill="white" stroke="black" points="580,-330.5 580,-349.5 762,-349.5 762,-330.5 580,-330.5"/>
<text text-anchor="middle" x="671" y="-337.5" font-family="Helvetica,sans-Serif" font-size="10.00">view.editor.wizards.CRUDContainer</text>
</a>
</g>
</g>
<!-- Node3&#45;&gt;Node15 -->
<g id="edge15" class="edge"><title>Node3&#45;&gt;Node15</title>
<path fill="none" stroke="midnightblue" d="M390.671,-577.591C439.977,-587.086 517.42,-592.726 562,-549 591.33,-520.231 553.574,-396.458 580,-365 585.633,-358.295 592.893,-353.306 600.845,-349.608"/>
<polygon fill="midnightblue" stroke="midnightblue" points="391.098,-574.106 380.599,-575.523 389.69,-580.963 391.098,-574.106"/>
</g>
<!-- Node4 -->
<g id="node4" class="node"><title>Node4</title>
<g id="a_node4"><a xlink:href="../../dc/d48/classmodel_1_1data_1_1_wizard_data.html" target="_top" xlink:title="model.data.WizardData">
<polygon fill="white" stroke="black" points="279.5,-600.5 279.5,-619.5 408.5,-619.5 408.5,-600.5 279.5,-600.5"/>
<text text-anchor="middle" x="344" y="-607.5" font-family="Helvetica,sans-Serif" font-size="10.00">model.data.WizardData</text>
</a>
</g>
</g>
<!-- Node4&#45;&gt;Node2 -->
<g id="edge3" class="edge"><title>Node4&#45;&gt;Node2</title>
<path fill="none" stroke="#9a32cd" stroke-dasharray="5,2" d="M418.793,-615.352C460.791,-618.506 514.365,-622.709 562,-627 574.764,-628.15 588.368,-629.465 601.464,-630.776"/>
<polygon fill="#9a32cd" stroke="#9a32cd" points="418.884,-611.849 408.651,-614.594 418.362,-618.83 418.884,-611.849"/>
<text text-anchor="middle" x="504" y="-630" font-family="Helvetica,sans-Serif" font-size="10.00"> myUserInput</text>
</g>
<!-- Node5 -->
<g id="node5" class="node"><title>Node5</title>
<g id="a_node5"><a xlink:href="../../d6/d26/enummodel_1_1data_1_1_wizard_type.html" target="_top" xlink:title="model.data.WizardType">
<polygon fill="white" stroke="black" points="20.5,-578.5 20.5,-597.5 147.5,-597.5 147.5,-578.5 20.5,-578.5"/>
<text text-anchor="middle" x="84" y="-585.5" font-family="Helvetica,sans-Serif" font-size="10.00">model.data.WizardType</text>
</a>
</g>
</g>
<!-- Node5&#45;&gt;Node4 -->
<g id="edge4" class="edge"><title>Node5&#45;&gt;Node4</title>
<path fill="none" stroke="#9a32cd" stroke-dasharray="5,2" d="M157.672,-592.506C184.225,-594.306 214.489,-596.539 242,-599 254.122,-600.084 267.047,-601.383 279.461,-602.702"/>
<polygon fill="#9a32cd" stroke="#9a32cd" points="157.902,-589.013 147.69,-591.837 157.434,-595.998 157.902,-589.013"/>
<text text-anchor="middle" x="214" y="-602" font-family="Helvetica,sans-Serif" font-size="10.00"> myType</text>
</g>
<!-- Node6 -->
<g id="node6" class="node"><title>Node6</title>
<polygon fill="white" stroke="#bfbfbf" points="0,-464.5 0,-483.5 168,-483.5 168,-464.5 0,-464.5"/>
<text text-anchor="middle" x="84" y="-471.5" font-family="Helvetica,sans-Serif" font-size="10.00">List&lt; model.data.WizardData &gt;</text>
</g>
<!-- Node6&#45;&gt;Node4 -->
<g id="edge5" class="edge"><title>Node6&#45;&gt;Node4</title>
<path fill="none" stroke="#9a32cd" stroke-dasharray="5,2" d="M105.54,-489.676C137.193,-513.204 200.484,-557.784 260,-585 273.686,-591.259 289.345,-596.442 303.346,-600.436"/>
<polygon fill="#9a32cd" stroke="#9a32cd" points="107.58,-486.831 97.48,-483.63 103.379,-492.43 107.58,-486.831"/>
<text text-anchor="middle" x="214" y="-579" font-family="Helvetica,sans-Serif" font-size="10.00"> myWizards</text>
</g>
<!-- Node6&#45;&gt;Node15 -->
<g id="edge18" class="edge"><title>Node6&#45;&gt;Node15</title>
<path fill="none" stroke="#9a32cd" stroke-dasharray="5,2" d="M106.226,-458.374C137.912,-435.95 200.267,-395.23 260,-376 366.106,-341.841 495.144,-335.945 579.764,-336.551"/>
<polygon fill="#9a32cd" stroke="#9a32cd" points="103.855,-455.768 97.7718,-464.442 107.937,-461.455 103.855,-455.768"/>
<text text-anchor="middle" x="344" y="-379" font-family="Helvetica,sans-Serif" font-size="10.00"> myWizardDatas</text>
</g>
<!-- Node7 -->
<g id="node7" class="node"><title>Node7</title>
<polygon fill="white" stroke="#bfbfbf" points="3.5,-617 3.5,-647 164.5,-647 164.5,-617 3.5,-617"/>
<text text-anchor="start" x="11.5" y="-635" font-family="Helvetica,sans-Serif" font-size="10.00">Map&lt; model.data.WizardData</text>
<text text-anchor="middle" x="84" y="-624" font-family="Helvetica,sans-Serif" font-size="10.00">Type, String &gt;</text>
</g>
<!-- Node7&#45;&gt;Node4 -->
<g id="edge6" class="edge"><title>Node7&#45;&gt;Node4</title>
<path fill="none" stroke="#9a32cd" stroke-dasharray="5,2" d="M174.594,-624.36C209.078,-621.42 247.719,-618.125 279.28,-615.433"/>
<polygon fill="#9a32cd" stroke="#9a32cd" points="174.18,-620.883 164.514,-625.22 174.775,-627.857 174.18,-620.883"/>
<text text-anchor="middle" x="214" y="-625" font-family="Helvetica,sans-Serif" font-size="10.00"> myData</text>
</g>
<!-- Node8 -->
<g id="node8" class="node"><title>Node8</title>
<polygon fill="white" stroke="#bfbfbf" points="321.5,-767.5 321.5,-786.5 366.5,-786.5 366.5,-767.5 321.5,-767.5"/>
<text text-anchor="middle" x="344" y="-774.5" font-family="Helvetica,sans-Serif" font-size="10.00">Stage</text>
</g>
<!-- Node8&#45;&gt;Node2 -->
<g id="edge7" class="edge"><title>Node8&#45;&gt;Node2</title>
<path fill="none" stroke="#9a32cd" stroke-dasharray="5,2" d="M376.57,-775.901C420.35,-773.262 500.993,-764.312 562,-734 606.034,-712.121 645.949,-667.471 662.24,-647.743"/>
<polygon fill="#9a32cd" stroke="#9a32cd" points="376.325,-772.409 366.524,-776.433 376.695,-779.399 376.325,-772.409"/>
<text text-anchor="middle" x="504" y="-771" font-family="Helvetica,sans-Serif" font-size="10.00"> myStage</text>
</g>
<!-- Node9 -->
<g id="node9" class="node"><title>Node9</title>
<polygon fill="white" stroke="#bfbfbf" points="260.5,-718 260.5,-748 427.5,-748 427.5,-718 260.5,-718"/>
<text text-anchor="start" x="268.5" y="-736" font-family="Helvetica,sans-Serif" font-size="10.00">Consumer&lt; model.data.Wizard</text>
<text text-anchor="middle" x="344" y="-725" font-family="Helvetica,sans-Serif" font-size="10.00">Data &gt;</text>
</g>
<!-- Node9&#45;&gt;Node2 -->
<g id="edge8" class="edge"><title>Node9&#45;&gt;Node2</title>
<path fill="none" stroke="#9a32cd" stroke-dasharray="5,2" d="M437.809,-721.259C476.793,-714.847 522.23,-705.409 562,-692 596.365,-680.413 633.605,-659.826 654.141,-647.694"/>
<polygon fill="#9a32cd" stroke="#9a32cd" points="436.842,-717.869 427.521,-722.906 437.948,-724.781 436.842,-717.869"/>
<text text-anchor="middle" x="504" y="-722" font-family="Helvetica,sans-Serif" font-size="10.00"> mySaveConsumer</text>
</g>
<!-- Node10 -->
<g id="node10" class="node"><title>Node10</title>
<polygon fill="white" stroke="#bfbfbf" points="319.5,-494.5 319.5,-513.5 368.5,-513.5 368.5,-494.5 319.5,-494.5"/>
<text text-anchor="middle" x="344" y="-501.5" font-family="Helvetica,sans-Serif" font-size="10.00">Button</text>
</g>
<!-- Node10&#45;&gt;Node1 -->
<g id="edge28" class="edge"><title>Node10&#45;&gt;Node1</title>
<path fill="none" stroke="#9a32cd" stroke-dasharray="5,2" d="M378.7,-505.135C488.131,-508.112 831.109,-511.681 912,-443 969.151,-394.475 989.784,-300.509 995.844,-264.008"/>
<polygon fill="#9a32cd" stroke="#9a32cd" points="378.66,-501.632 368.563,-504.842 378.458,-508.629 378.66,-501.632"/>
<text text-anchor="middle" x="671" y="-541" font-family="Helvetica,sans-Serif" font-size="10.00"> setBounds</text>
<text text-anchor="middle" x="671" y="-530" font-family="Helvetica,sans-Serif" font-size="10.00">image</text>
<text text-anchor="middle" x="671" y="-519" font-family="Helvetica,sans-Serif" font-size="10.00">setVisionBounds</text>
<text text-anchor="middle" x="671" y="-508" font-family="Helvetica,sans-Serif" font-size="10.00">colorMask</text>
</g>
<!-- Node10&#45;&gt;Node2 -->
<g id="edge9" class="edge"><title>Node10&#45;&gt;Node2</title>
<path fill="none" stroke="#9a32cd" stroke-dasharray="5,2" d="M378.513,-512.314C421.896,-523.634 499.357,-545.762 562,-574 597.566,-590.032 636.197,-614.935 656.219,-628.464"/>
<polygon fill="#9a32cd" stroke="#9a32cd" points="379.319,-508.907 368.762,-509.802 377.572,-515.686 379.319,-508.907"/>
<text text-anchor="middle" x="504" y="-577" font-family="Helvetica,sans-Serif" font-size="10.00"> save</text>
</g>
<!-- Node10&#45;&gt;Node15 -->
<g id="edge20" class="edge"><title>Node10&#45;&gt;Node15</title>
<path fill="none" stroke="#9a32cd" stroke-dasharray="5,2" d="M378.611,-495.234C436.274,-479.917 549.126,-448.618 562,-435 584.068,-411.657 557.505,-387.932 580,-365 586.586,-358.285 594.808,-353.33 603.586,-349.682"/>
<polygon fill="#9a32cd" stroke="#9a32cd" points="377.629,-491.873 368.855,-497.813 379.418,-498.641 377.629,-491.873"/>
<text text-anchor="middle" x="504" y="-480" font-family="Helvetica,sans-Serif" font-size="10.00"> add</text>
</g>
<!-- Node11 -->
<g id="node11" class="node"><title>Node11</title>
<polygon fill="white" stroke="#bfbfbf" points="313.5,-679.5 313.5,-698.5 374.5,-698.5 374.5,-679.5 313.5,-679.5"/>
<text text-anchor="middle" x="344" y="-686.5" font-family="Helvetica,sans-Serif" font-size="10.00">SplitPane</text>
</g>
<!-- Node11&#45;&gt;Node2 -->
<g id="edge10" class="edge"><title>Node11&#45;&gt;Node2</title>
<path fill="none" stroke="#9a32cd" stroke-dasharray="5,2" d="M384.789,-684.851C428.419,-680.072 500.426,-671.511 562,-661 584.299,-657.194 608.987,-652.009 629.124,-647.527"/>
<polygon fill="#9a32cd" stroke="#9a32cd" points="384.162,-681.398 374.597,-685.955 384.916,-688.357 384.162,-681.398"/>
<text text-anchor="middle" x="504" y="-680" font-family="Helvetica,sans-Serif" font-size="10.00"> root</text>
</g>
<!-- Node12 -->
<g id="node12" class="node"><title>Node12</title>
<polygon fill="white" stroke="#bfbfbf" points="326.5,-641.5 326.5,-660.5 361.5,-660.5 361.5,-641.5 326.5,-641.5"/>
<text text-anchor="middle" x="344" y="-648.5" font-family="Helvetica,sans-Serif" font-size="10.00">Text</text>
</g>
<!-- Node12&#45;&gt;Node2 -->
<g id="edge11" class="edge"><title>Node12&#45;&gt;Node2</title>
<path fill="none" stroke="#9a32cd" stroke-dasharray="5,2" d="M371.831,-649.927C421.69,-647.932 530.034,-643.599 601.468,-640.741"/>
<polygon fill="#9a32cd" stroke="#9a32cd" points="371.416,-646.44 361.564,-650.337 371.696,-653.435 371.416,-646.44"/>
<text text-anchor="middle" x="504" y="-649" font-family="Helvetica,sans-Serif" font-size="10.00"> errorMessage</text>
</g>
<!-- Node13 -->
<g id="node13" class="node"><title>Node13</title>
<polygon fill="white" stroke="#bfbfbf" points="302,-435.5 302,-454.5 386,-454.5 386,-435.5 302,-435.5"/>
<text text-anchor="middle" x="344" y="-442.5" font-family="Helvetica,sans-Serif" font-size="10.00">List&lt; String &gt;</text>
</g>
<!-- Node13&#45;&gt;Node1 -->
<g id="edge12" class="edge"><title>Node13&#45;&gt;Node1</title>
<path fill="none" stroke="#9a32cd" stroke-dasharray="5,2" d="M396.243,-445.564C527.657,-446.602 869.354,-446.584 912,-419 967.822,-382.893 989.003,-298.685 995.527,-264.169"/>
<polygon fill="#9a32cd" stroke="#9a32cd" points="396.069,-442.062 386.039,-445.478 396.01,-449.062 396.069,-442.062"/>
<text text-anchor="middle" x="671" y="-471" font-family="Helvetica,sans-Serif" font-size="10.00"> myGlobalNumberAttributes</text>
<text text-anchor="middle" x="671" y="-460" font-family="Helvetica,sans-Serif" font-size="10.00">imageValues</text>
<text text-anchor="middle" x="671" y="-449" font-family="Helvetica,sans-Serif" font-size="10.00">myGlobalStringAttributes</text>
</g>
<!-- Node13&#45;&gt;Node15 -->
<g id="edge19" class="edge"><title>Node13&#45;&gt;Node15</title>
<path fill="none" stroke="#9a32cd" stroke-dasharray="5,2" d="M395.99,-433.007C406.587,-430.432 417.671,-427.678 428,-425 436.037,-422.916 437.922,-421.92 446,-420 497.135,-407.847 519.44,-427.84 562,-397 575.213,-387.425 567.156,-375.065 580,-365 588.68,-358.198 599.099,-353.246 609.72,-349.641"/>
<polygon fill="#9a32cd" stroke="#9a32cd" points="394.92,-429.664 386.02,-435.412 396.562,-436.469 394.92,-429.664"/>
<text text-anchor="middle" x="504" y="-423" font-family="Helvetica,sans-Serif" font-size="10.00"> myGlobals</text>
</g>
<!-- Node14 -->
<g id="node14" class="node"><title>Node14</title>
<polygon fill="white" stroke="#bfbfbf" points="638,-374.5 638,-393.5 704,-393.5 704,-374.5 638,-374.5"/>
<text text-anchor="middle" x="671" y="-381.5" font-family="Helvetica,sans-Serif" font-size="10.00">ScrollPane</text>
</g>
<!-- Node14&#45;&gt;Node1 -->
<g id="edge13" class="edge"><title>Node14&#45;&gt;Node1</title>
<path fill="none" stroke="#9a32cd" stroke-dasharray="5,2" d="M714.483,-389.937C764.914,-394.868 849.98,-396.353 912,-362 952.329,-339.662 979.628,-289.663 991.414,-264.334"/>
<polygon fill="#9a32cd" stroke="#9a32cd" points="714.584,-386.428 704.268,-388.844 713.839,-393.388 714.584,-386.428"/>
<text text-anchor="middle" x="846" y="-407" font-family="Helvetica,sans-Serif" font-size="10.00"> leftPane</text>
<text text-anchor="middle" x="846" y="-396" font-family="Helvetica,sans-Serif" font-size="10.00">imageScroll</text>
</g>
<!-- Node15&#45;&gt;Node1 -->
<g id="edge14" class="edge"><title>Node15&#45;&gt;Node1</title>
<path fill="none" stroke="#9a32cd" stroke-dasharray="5,2" d="M709.367,-327.331C730.02,-320.646 756.238,-312.677 780,-307 837.92,-293.161 854.761,-300.429 912,-284 930.128,-278.797 949.649,-271.039 965.504,-264.148"/>
<polygon fill="#9a32cd" stroke="#9a32cd" points="708.124,-324.055 699.71,-330.494 710.303,-330.707 708.124,-324.055"/>
<text text-anchor="middle" x="846" y="-354" font-family="Helvetica,sans-Serif" font-size="10.00"> stringAttributesController</text>
<text text-anchor="middle" x="846" y="-343" font-family="Helvetica,sans-Serif" font-size="10.00">triggersController</text>
<text text-anchor="middle" x="846" y="-332" font-family="Helvetica,sans-Serif" font-size="10.00">animationsController</text>
<text text-anchor="middle" x="846" y="-321" font-family="Helvetica,sans-Serif" font-size="10.00">widgetsController</text>
<text text-anchor="middle" x="846" y="-310" font-family="Helvetica,sans-Serif" font-size="10.00">numberAttributesController</text>
</g>
<!-- Node16 -->
<g id="node16" class="node"><title>Node16</title>
<g id="a_node16"><a xlink:href="../../d8/d35/enumview_1_1gui_1_1_g_u_i_pane_path.html" target="_top" xlink:title="view.gui.GUIPanePath">
<polygon fill="white" stroke="black" points="285,-185.5 285,-204.5 403,-204.5 403,-185.5 285,-185.5"/>
<text text-anchor="middle" x="344" y="-192.5" font-family="Helvetica,sans-Serif" font-size="10.00">view.gui.GUIPanePath</text>
</a>
</g>
</g>
<!-- Node16&#45;&gt;Node15 -->
<g id="edge16" class="edge"><title>Node16&#45;&gt;Node15</title>
<path fill="none" stroke="#9a32cd" stroke-dasharray="5,2" d="M383.774,-182.803C431.753,-170.359 513.084,-158.322 562,-201 598.998,-233.28 548.131,-272.648 580,-310 588.125,-319.522 599.357,-326.035 611.137,-330.485"/>
<polygon fill="#9a32cd" stroke="#9a32cd" points="382.795,-179.442 374.065,-185.445 384.633,-186.196 382.795,-179.442"/>
<text text-anchor="middle" x="504" y="-204" font-family="Helvetica,sans-Serif" font-size="10.00"> myPath</text>
</g>
<!-- Node17 -->
<g id="node17" class="node"><title>Node17</title>
<polygon fill="white" stroke="#bfbfbf" points="323.5,-396.5 323.5,-415.5 364.5,-415.5 364.5,-396.5 323.5,-396.5"/>
<text text-anchor="middle" x="344" y="-403.5" font-family="Helvetica,sans-Serif" font-size="10.00">VBox</text>
</g>
<!-- Node17&#45;&gt;Node15 -->
<g id="edge17" class="edge"><title>Node17&#45;&gt;Node15</title>
<path fill="none" stroke="#9a32cd" stroke-dasharray="5,2" d="M374.443,-398.177C390.4,-393.765 410.4,-387.954 428,-382 436.131,-379.25 437.711,-377.231 446,-375 489.519,-363.286 538.919,-355.049 580.234,-349.522"/>
<polygon fill="#9a32cd" stroke="#9a32cd" points="373.332,-394.852 364.606,-400.862 375.175,-401.605 373.332,-394.852"/>
<text text-anchor="middle" x="504" y="-389" font-family="Helvetica,sans-Serif" font-size="10.00"> root</text>
<text text-anchor="middle" x="504" y="-378" font-family="Helvetica,sans-Serif" font-size="10.00">existing</text>
</g>
<!-- Node18 -->
<g id="node18" class="node"><title>Node18</title>
<polygon fill="white" stroke="#bfbfbf" points="310,-223.5 310,-242.5 378,-242.5 378,-223.5 310,-223.5"/>
<text text-anchor="middle" x="344" y="-230.5" font-family="Helvetica,sans-Serif" font-size="10.00">Dimension</text>
</g>
<!-- Node18&#45;&gt;Node1 -->
<g id="edge29" class="edge"><title>Node18&#45;&gt;Node1</title>
<path fill="none" stroke="#9a32cd" stroke-dasharray="5,2" d="M388.509,-229.843C402.159,-227.155 416.619,-222.384 428,-214 440.827,-204.551 432.193,-190.949 446,-183 490.68,-157.277 520.775,-152.041 562,-183 584.944,-200.23 557.672,-226.979 580,-245 649.339,-300.965 690.948,-255.887 780,-259 838.631,-261.05 853.432,-262.394 912,-259 918.002,-258.652 924.229,-258.169 930.462,-257.601"/>
<polygon fill="#9a32cd" stroke="#9a32cd" points="387.595,-226.446 378.293,-231.518 388.728,-233.354 387.595,-226.446"/>
<text text-anchor="middle" x="671" y="-299" font-family="Helvetica,sans-Serif" font-size="10.00"> ACTION_WIZARD_SIZE</text>
<text text-anchor="middle" x="671" y="-288" font-family="Helvetica,sans-Serif" font-size="10.00">ANIMATION_WIZARD_SIZE</text>
<text text-anchor="middle" x="671" y="-277" font-family="Helvetica,sans-Serif" font-size="10.00">BOUNDS_WIZARD_SIZE</text>
</g>
<!-- Node18&#45;&gt;Node15 -->
<g id="edge21" class="edge"><title>Node18&#45;&gt;Node15</title>
<path fill="none" stroke="#9a32cd" stroke-dasharray="5,2" d="M388.256,-222.165C436.18,-212.918 513.128,-206.622 562,-246 585.009,-264.539 559.609,-288.615 580,-310 589.093,-319.536 601.291,-326.042 613.767,-330.48"/>
<polygon fill="#9a32cd" stroke="#9a32cd" points="387.29,-218.791 378.198,-224.232 388.698,-225.647 387.29,-218.791"/>
<text text-anchor="middle" x="504" y="-260" font-family="Helvetica,sans-Serif" font-size="10.00"> DEFAULT_WIZARD_SIZE</text>
<text text-anchor="middle" x="504" y="-249" font-family="Helvetica,sans-Serif" font-size="10.00">myDim</text>
</g>
<!-- Node19 -->
<g id="node19" class="node"><title>Node19</title>
<polygon fill="white" stroke="#bfbfbf" points="272.5,-300 272.5,-330 415.5,-330 415.5,-300 272.5,-300"/>
<text text-anchor="start" x="280.5" y="-318" font-family="Helvetica,sans-Serif" font-size="10.00">BiConsumer&lt; Button,</text>
<text text-anchor="middle" x="344" y="-307" font-family="Helvetica,sans-Serif" font-size="10.00"> model.data.WizardData &gt;</text>
</g>
<!-- Node19&#45;&gt;Node15 -->
<g id="edge22" class="edge"><title>Node19&#45;&gt;Node15</title>
<path fill="none" stroke="#9a32cd" stroke-dasharray="5,2" d="M425.78,-311.279C466.715,-310.43 517.131,-310.97 562,-316 587.005,-318.803 614.699,-325.022 635.783,-330.427"/>
<polygon fill="#9a32cd" stroke="#9a32cd" points="425.499,-307.785 415.586,-311.523 425.666,-314.783 425.499,-307.785"/>
<text text-anchor="middle" x="504" y="-319" font-family="Helvetica,sans-Serif" font-size="10.00"> myTextConsumer</text>
</g>
<!-- Node20 -->
<g id="node20" class="node"><title>Node20</title>
<polygon fill="white" stroke="#bfbfbf" points="296.5,-261.5 296.5,-280.5 391.5,-280.5 391.5,-261.5 296.5,-261.5"/>
<text text-anchor="middle" x="344" y="-268.5" font-family="Helvetica,sans-Serif" font-size="10.00">BooleanSupplier</text>
</g>
<!-- Node20&#45;&gt;Node15 -->
<g id="edge23" class="edge"><title>Node20&#45;&gt;Node15</title>
<path fill="none" stroke="#9a32cd" stroke-dasharray="5,2" d="M401.837,-269.275C446.867,-269.831 510.541,-274.976 562,-296 571.382,-299.833 571.064,-305.218 580,-310 596.264,-318.704 615.523,-325.534 632.044,-330.464"/>
<polygon fill="#9a32cd" stroke="#9a32cd" points="401.686,-265.774 391.669,-269.223 401.651,-272.774 401.686,-265.774"/>
<text text-anchor="middle" x="504" y="-299" font-family="Helvetica,sans-Serif" font-size="10.00"> valid</text>
</g>
<!-- Node21 -->
<g id="node21" class="node"><title>Node21</title>
<polygon fill="white" stroke="#bfbfbf" points="643,-216.5 643,-235.5 699,-235.5 699,-216.5 643,-216.5"/>
<text text-anchor="middle" x="671" y="-223.5" font-family="Helvetica,sans-Serif" font-size="10.00">TextField</text>
</g>
<!-- Node21&#45;&gt;Node1 -->
<g id="edge24" class="edge"><title>Node21&#45;&gt;Node1</title>
<path fill="none" stroke="#9a32cd" stroke-dasharray="5,2" d="M709.234,-223.009C756.584,-219.889 840.755,-216.638 912,-226 924.719,-227.671 938.23,-230.677 950.683,-233.975"/>
<polygon fill="#9a32cd" stroke="#9a32cd" points="708.878,-219.525 699.144,-223.709 709.362,-226.508 708.878,-219.525"/>
<text text-anchor="middle" x="846" y="-251" font-family="Helvetica,sans-Serif" font-size="10.00"> frameWidthText</text>
<text text-anchor="middle" x="846" y="-240" font-family="Helvetica,sans-Serif" font-size="10.00">name</text>
<text text-anchor="middle" x="846" y="-229" font-family="Helvetica,sans-Serif" font-size="10.00">frameHeightText</text>
</g>
<!-- Node22 -->
<g id="node22" class="node"><title>Node22</title>
<polygon fill="white" stroke="#bfbfbf" points="637,-178.5 637,-197.5 705,-197.5 705,-178.5 637,-178.5"/>
<text text-anchor="middle" x="671" y="-185.5" font-family="Helvetica,sans-Serif" font-size="10.00">ImageView</text>
</g>
<!-- Node22&#45;&gt;Node1 -->
<g id="edge25" class="edge"><title>Node22&#45;&gt;Node1</title>
<path fill="none" stroke="#9a32cd" stroke-dasharray="5,2" d="M715.514,-185.92C764.286,-184.766 845.273,-186.403 912,-205 934.618,-211.304 958.217,-223.872 974.961,-233.968"/>
<polygon fill="#9a32cd" stroke="#9a32cd" points="715.212,-182.427 705.317,-186.213 715.413,-189.424 715.212,-182.427"/>
<text text-anchor="middle" x="846" y="-208" font-family="Helvetica,sans-Serif" font-size="10.00"> imageView</text>
</g>
<!-- Node23 -->
<g id="node23" class="node"><title>Node23</title>
<polygon fill="white" stroke="#bfbfbf" points="649,-136.5 649,-155.5 693,-155.5 693,-136.5 649,-136.5"/>
<text text-anchor="middle" x="671" y="-143.5" font-family="Helvetica,sans-Serif" font-size="10.00">Slider</text>
</g>
<!-- Node23&#45;&gt;Node1 -->
<g id="edge26" class="edge"><title>Node23&#45;&gt;Node1</title>
<path fill="none" stroke="#9a32cd" stroke-dasharray="5,2" d="M703.081,-141.123C750.541,-135.134 842.842,-129.311 912,-161 946.568,-176.839 974.643,-213.196 988.541,-233.881"/>
<polygon fill="#9a32cd" stroke="#9a32cd" points="702.554,-137.662 693.112,-142.469 703.49,-144.6 702.554,-137.662"/>
<text text-anchor="middle" x="846" y="-175" font-family="Helvetica,sans-Serif" font-size="10.00"> frameWidth</text>
<text text-anchor="middle" x="846" y="-164" font-family="Helvetica,sans-Serif" font-size="10.00">frameHeight</text>
</g>
<!-- Node24 -->
<g id="node24" class="node"><title>Node24</title>
<polygon fill="white" stroke="#bfbfbf" points="650,-94.5 650,-113.5 692,-113.5 692,-94.5 650,-94.5"/>
<text text-anchor="middle" x="671" y="-101.5" font-family="Helvetica,sans-Serif" font-size="10.00">Label</text>
</g>
<!-- Node24&#45;&gt;Node1 -->
<g id="edge27" class="edge"><title>Node24&#45;&gt;Node1</title>
<path fill="none" stroke="#9a32cd" stroke-dasharray="5,2" d="M702.066,-96.3768C750.043,-85.9747 845.293,-72.6885 912,-111 959.735,-138.416 984.647,-204.135 993.809,-233.898"/>
<polygon fill="#9a32cd" stroke="#9a32cd" points="700.998,-93.0304 692.025,-98.6639 702.553,-99.8557 700.998,-93.0304"/>
<text text-anchor="middle" x="846" y="-125" font-family="Helvetica,sans-Serif" font-size="10.00"> frameWidthLabel</text>
<text text-anchor="middle" x="846" y="-114" font-family="Helvetica,sans-Serif" font-size="10.00">frameHeightLabel</text>
</g>
<!-- Node25 -->
<g id="node25" class="node"><title>Node25</title>
<g id="a_node25"><a xlink:href="../../de/dd2/classview_1_1editor_1_1wizards_1_1_animation_grid.html" target="_top" xlink:title="view.editor.wizards.AnimationGrid">
<polygon fill="white" stroke="black" points="583,-18.5 583,-37.5 759,-37.5 759,-18.5 583,-18.5"/>
<text text-anchor="middle" x="671" y="-25.5" font-family="Helvetica,sans-Serif" font-size="10.00">view.editor.wizards.AnimationGrid</text>
</a>
</g>
</g>
<!-- Node25&#45;&gt;Node1 -->
<g id="edge30" class="edge"><title>Node25&#45;&gt;Node1</title>
<path fill="none" stroke="#9a32cd" stroke-dasharray="5,2" d="M720.568,-16.5916C772.833,-7.2669 855.981,-1.30885 912,-41 977.841,-87.6499 993.419,-194.38 996.982,-233.91"/>
<polygon fill="#9a32cd" stroke="#9a32cd" points="719.718,-13.1902 710.544,-18.4889 721.02,-20.0681 719.718,-13.1902"/>
<text text-anchor="middle" x="846" y="-44" font-family="Helvetica,sans-Serif" font-size="10.00"> animationGrid</text>
</g>
<!-- Node26 -->
<g id="node26" class="node"><title>Node26</title>
<g id="a_node26"><a xlink:href="../../de/dec/classview_1_1editor_1_1wizards_1_1_grid.html" target="_top" xlink:title="view.editor.wizards.Grid">
<polygon fill="white" stroke="black" points="280.5,-18.5 280.5,-37.5 407.5,-37.5 407.5,-18.5 280.5,-18.5"/>
<text text-anchor="middle" x="344" y="-25.5" font-family="Helvetica,sans-Serif" font-size="10.00">view.editor.wizards.Grid</text>
</a>
</g>
</g>
<!-- Node26&#45;&gt;Node25 -->
<g id="edge31" class="edge"><title>Node26&#45;&gt;Node25</title>
<path fill="none" stroke="midnightblue" d="M417.845,-28C466.728,-28 531.366,-28 582.959,-28"/>
<polygon fill="midnightblue" stroke="midnightblue" points="417.663,-24.5001 407.663,-28 417.663,-31.5001 417.663,-24.5001"/>
</g>
<!-- Node27 -->
<g id="node27" class="node"><title>Node27</title>
<polygon fill="white" stroke="#bfbfbf" points="61,-53.5 61,-72.5 107,-72.5 107,-53.5 61,-53.5"/>
<text text-anchor="middle" x="84" y="-60.5" font-family="Helvetica,sans-Serif" font-size="10.00">Group</text>
</g>
<!-- Node27&#45;&gt;Node1 -->
<g id="edge34" class="edge"><title>Node27&#45;&gt;Node1</title>
<path fill="none" stroke="#9a32cd" stroke-dasharray="5,2" d="M117.501,-61.8111C262.218,-56.7753 843.848,-39.3566 912,-82 967.43,-116.683 988.787,-199.477 995.442,-233.746"/>
<polygon fill="#9a32cd" stroke="#9a32cd" points="116.967,-58.3277 107.097,-62.1782 117.214,-65.3233 116.967,-58.3277"/>
<text text-anchor="middle" x="504" y="-58" font-family="Helvetica,sans-Serif" font-size="10.00"> spritesheet</text>
</g>
<!-- Node27&#45;&gt;Node26 -->
<g id="edge32" class="edge"><title>Node27&#45;&gt;Node26</title>
<path fill="none" stroke="midnightblue" d="M117.369,-58.6088C158.124,-53.08 229.025,-43.4617 280.492,-36.4798"/>
<polygon fill="midnightblue" stroke="midnightblue" points="116.883,-55.1426 107.444,-59.9552 117.824,-62.0791 116.883,-55.1426"/>
</g>
<!-- Node28 -->
<g id="node28" class="node"><title>Node28</title>
<polygon fill="white" stroke="#bfbfbf" points="2.5,-0 2.5,-30 165.5,-30 165.5,-0 2.5,-0"/>
<text text-anchor="start" x="10.5" y="-18" font-family="Helvetica,sans-Serif" font-size="10.00">List&lt; List&lt; view.editor.wizards.</text>
<text text-anchor="middle" x="84" y="-7" font-family="Helvetica,sans-Serif" font-size="10.00">Grid.Frame &gt; &gt;</text>
</g>
<!-- Node28&#45;&gt;Node26 -->
<g id="edge33" class="edge"><title>Node28&#45;&gt;Node26</title>
<path fill="none" stroke="#9a32cd" stroke-dasharray="5,2" d="M175.918,-13.8534C197.589,-14.0573 220.628,-14.6665 242,-16 254.425,-16.7752 267.666,-18.0336 280.332,-19.4501"/>
<polygon fill="#9a32cd" stroke="#9a32cd" points="175.759,-10.3524 165.736,-13.7857 175.713,-17.3522 175.759,-10.3524"/>
<text text-anchor="middle" x="214" y="-19" font-family="Helvetica,sans-Serif" font-size="10.00"> frameCols</text>
</g>
</g>
</svg>
        <g id="navigator" transform="translate(0 0)" fill="#404254">
                <rect fill="#f2f5e9" fill-opacity="0.5" stroke="#606060" stroke-width=".5" x="0" y="0" width="60" height="60"/>
                <use id="zoomplus" xlink:href="#zoomPlus" x="17" y="9" onmousedown="handleZoom(evt,'in')"/>
                <use id="zoomminus" xlink:href="#zoomMin" x="42" y="9" onmousedown="handleZoom(evt,'out')"/>
                <use id="reset" xlink:href="#resetDef" x="30" y="36" onmousedown="handleReset()"/>
                <g id="arrowUp" xlink:href="#dirArrow" transform="translate(30 24)" onmousedown="handlePan(0,-1)">
                  <use xlink:href="#rim" fill="#404040">
                        <set attributeName="fill" to="#808080" begin="arrowUp.mouseover" end="arrowUp.mouseout"/>
                  </use>
                  <path fill="none" stroke="white" stroke-width="1.5" d="M0,-3.0v7 M-2.5,-0.5L0,-3.0L2.5,-0.5"/>
                </g>
                <g id="arrowRight" xlink:href="#dirArrow" transform="rotate(90) translate(36 -43)" onmousedown="handlePan(1,0)">
                  <use xlink:href="#rim" fill="#404040">
                        <set attributeName="fill" to="#808080" begin="arrowRight.mouseover" end="arrowRight.mouseout"/>
                  </use>
                  <path fill="none" stroke="white" stroke-width="1.5" d="M0,-3.0v7 M-2.5,-0.5L0,-3.0L2.5,-0.5"/>
                </g>
                <g id="arrowDown" xlink:href="#dirArrow" transform="rotate(180) translate(-30 -48)" onmousedown="handlePan(0,1)">
                  <use xlink:href="#rim" fill="#404040">
                        <set attributeName="fill" to="#808080" begin="arrowDown.mouseover" end="arrowDown.mouseout"/>
                  </use>
                  <path fill="none" stroke="white" stroke-width="1.5" d="M0,-3.0v7 M-2.5,-0.5L0,-3.0L2.5,-0.5"/>
                </g>
                <g id="arrowLeft" xlink:href="#dirArrow" transform="rotate(270) translate(-36 17)" onmousedown="handlePan(-1,0)">
                  <use xlink:href="#rim" fill="#404040">
                        <set attributeName="fill" to="#808080" begin="arrowLeft.mouseover" end="arrowLeft.mouseout"/>
                  </use>
                  <path fill="none" stroke="white" stroke-width="1.5" d="M0,-3.0v7 M-2.5,-0.5L0,-3.0L2.5,-0.5"/>
                </g>
        </g>
        <svg viewBox="0 0 15 15" width="100%" height="30px" preserveAspectRatio="xMaxYMin meet">
         <g id="arrow_out" transform="scale(0.3 0.3)">
          <a xlink:href="classview_1_1editor_1_1wizards_1_1_game_element_wizard__coll__graph_org.svg" target="_base">
           <rect id="button" ry="5" rx="5" y="6" x="6" height="38" width="38"
                fill="#f2f5e9" fill-opacity="0.5" stroke="#606060" stroke-width="1.0"/>
           <path id="arrow"
             d="M 11.500037,31.436501 C 11.940474,20.09759 22.043105,11.32322 32.158766,21.979434 L 37.068811,17.246167 C 37.068811,17.246167 37.088388,32 37.088388,32 L 22.160133,31.978069 C 22.160133,31.978069 26.997745,27.140456 26.997745,27.140456 C 18.528582,18.264221 13.291696,25.230495 11.500037,31.436501 z"
             style="fill:#404040;"/>
          </a>
         </g>
        </svg>
</svg>
