<?xml version="1.0" encoding="UTF-8" standalone="no"?>
<!DOCTYPE svg PUBLIC "-//W3C//DTD SVG 1.1//EN"
 "http://www.w3.org/Graphics/SVG/1.1/DTD/svg11.dtd">
<!-- Generated by graphviz version 2.36.0 (20140111.2315)
 -->
<!-- Title: model.state.gameelement.traits.Updatable Pages: 1 -->
<svg width="744pt" height="234pt"
 viewBox="0.00 0.00 744.00 234.00" xmlns="http://www.w3.org/2000/svg" xmlns:xlink="http://www.w3.org/1999/xlink">
<g id="graph0" class="graph" transform="scale(1 1) rotate(0) translate(4 230)">
<title>model.state.gameelement.traits.Updatable</title>
<polygon fill="white" stroke="none" points="-4,4 -4,-230 740,-230 740,4 -4,4"/>
<!-- Node1 -->
<g id="node1" class="node"><title>Node1</title>
<polygon fill="#bfbfbf" stroke="black" points="0,-122 0,-152 176,-152 176,-122 0,-122"/>
<text text-anchor="start" x="8" y="-140" font-family="Helvetica,sans-Serif" font-size="10.00">model.state.gameelement.traits.</text>
<text text-anchor="middle" x="88" y="-129" font-family="Helvetica,sans-Serif" font-size="10.00">Updatable</text>
</g>
<!-- Node2 -->
<g id="node2" class="node"><title>Node2</title>
<g id="a_node2"><a xlink:href="../../d2/d9b/classengine_1_1visuals_1_1element_visuals_1_1animations_1_1_animation_sequence.html" target="_top" xlink:title="engine.visuals.elementVisuals.animations.\lAnimationSequence">
<polygon fill="white" stroke="black" points="224,-196 224,-226 444,-226 444,-196 224,-196"/>
<text text-anchor="start" x="232" y="-214" font-family="Helvetica,sans-Serif" font-size="10.00">engine.visuals.elementVisuals.animations.</text>
<text text-anchor="middle" x="334" y="-203" font-family="Helvetica,sans-Serif" font-size="10.00">AnimationSequence</text>
</a>
</g>
</g>
<!-- Node1&#45;&gt;Node2 -->
<g id="edge1" class="edge"><title>Node1&#45;&gt;Node2</title>
<path fill="none" stroke="midnightblue" d="M131.4,-156.028C154.812,-165.989 184.618,-177.786 212,-186 224.328,-189.698 237.524,-193.036 250.503,-195.979"/>
<polygon fill="midnightblue" stroke="midnightblue" points="132.679,-152.768 122.11,-152.03 129.911,-159.198 132.679,-152.768"/>
</g>
<!-- Node4 -->
<g id="node4" class="node"><title>Node4</title>
<g id="a_node4"><a xlink:href="../../d9/d50/classengine_1_1visuals_1_1element_visuals_1_1animations_1_1_animator.html" target="_top" xlink:title="engine.visuals.elementVisuals.animations.\lAnimator">
<polygon fill="white" stroke="black" points="224,-147 224,-177 444,-177 444,-147 224,-147"/>
<text text-anchor="start" x="232" y="-165" font-family="Helvetica,sans-Serif" font-size="10.00">engine.visuals.elementVisuals.animations.</text>
<text text-anchor="middle" x="334" y="-154" font-family="Helvetica,sans-Serif" font-size="10.00">Animator</text>
</a>
</g>
</g>
<!-- Node1&#45;&gt;Node4 -->
<g id="edge3" class="edge"><title>Node1&#45;&gt;Node4</title>
<path fill="none" stroke="midnightblue" d="M186.311,-146.97C198.632,-148.233 211.302,-149.531 223.792,-150.811"/>
<polygon fill="midnightblue" stroke="midnightblue" points="186.361,-143.457 176.056,-145.92 185.647,-150.421 186.361,-143.457"/>
</g>
<!-- Node5 -->
<g id="node5" class="node"><title>Node5</title>
<g id="a_node5"><a xlink:href="../../d1/d3d/classengine_1_1visuals_1_1element_visuals_1_1_visualizer.html" target="_top" xlink:title="engine.visuals.elementVisuals.\lVisualizer">
<polygon fill="white" stroke="black" points="252,-98 252,-128 416,-128 416,-98 252,-98"/>
<text text-anchor="start" x="260" y="-116" font-family="Helvetica,sans-Serif" font-size="10.00">engine.visuals.elementVisuals.</text>
<text text-anchor="middle" x="334" y="-105" font-family="Helvetica,sans-Serif" font-size="10.00">Visualizer</text>
</a>
</g>
</g>
<!-- Node1&#45;&gt;Node5 -->
<g id="edge4" class="edge"><title>Node1&#45;&gt;Node5</title>
<path fill="none" stroke="midnightblue" d="M186.265,-127.433C207.95,-125.3 230.722,-123.06 251.685,-120.998"/>
<polygon fill="midnightblue" stroke="midnightblue" points="185.666,-123.975 176.056,-128.437 186.351,-130.941 185.666,-123.975"/>
</g>
<!-- Node6 -->
<g id="node6" class="node"><title>Node6</title>
<g id="a_node6"><a xlink:href="../../d7/df4/classengine_1_1visuals_1_1element_visuals_1_1widgets_1_1attribute_displays_1_1_attribute_displayer.html" target="_top" xlink:title="engine.visuals.elementVisuals.widgets.attribute\lDisplays.AttributeDisplayer">
<polygon fill="white" stroke="black" points="212,-49 212,-79 456,-79 456,-49 212,-49"/>
<text text-anchor="start" x="220" y="-67" font-family="Helvetica,sans-Serif" font-size="10.00">engine.visuals.elementVisuals.widgets.attribute</text>
<text text-anchor="middle" x="334" y="-56" font-family="Helvetica,sans-Serif" font-size="10.00">Displays.AttributeDisplayer</text>
</a>
</g>
</g>
<!-- Node1&#45;&gt;Node6 -->
<g id="edge5" class="edge"><title>Node1&#45;&gt;Node6</title>
<path fill="none" stroke="midnightblue" d="M132.184,-118.088C155.493,-108.408 184.955,-97.0088 212,-89 224.443,-85.3151 237.763,-81.9756 250.851,-79.024"/>
<polygon fill="midnightblue" stroke="midnightblue" points="130.788,-114.879 122.923,-121.978 133.498,-121.332 130.788,-114.879"/>
</g>
<!-- Node3 -->
<g id="node3" class="node"><title>Node3</title>
<g id="a_node3"><a xlink:href="../../dd/d72/classengine_1_1visuals_1_1element_visuals_1_1animations_1_1_null_animation_sequence.html" target="_top" xlink:title="engine.visuals.elementVisuals.animations.\lNullAnimationSequence">
<polygon fill="white" stroke="black" points="504,-196 504,-226 724,-226 724,-196 504,-196"/>
<text text-anchor="start" x="512" y="-214" font-family="Helvetica,sans-Serif" font-size="10.00">engine.visuals.elementVisuals.animations.</text>
<text text-anchor="middle" x="614" y="-203" font-family="Helvetica,sans-Serif" font-size="10.00">NullAnimationSequence</text>
</a>
</g>
</g>
<!-- Node2&#45;&gt;Node3 -->
<g id="edge2" class="edge"><title>Node2&#45;&gt;Node3</title>
<path fill="none" stroke="midnightblue" d="M454.259,-211C470.706,-211 487.53,-211 503.783,-211"/>
<polygon fill="midnightblue" stroke="midnightblue" points="454.075,-207.5 444.075,-211 454.075,-214.5 454.075,-207.5"/>
</g>
<!-- Node7 -->
<g id="node7" class="node"><title>Node7</title>
<g id="a_node7"><a xlink:href="../../dd/d48/classengine_1_1visuals_1_1element_visuals_1_1widgets_1_1attribute_displays_1_1_attribute_arrow_displayer.html" target="_top" xlink:title="engine.visuals.elementVisuals.widgets.attribute\lDisplays.AttributeArrowDisplayer">
<polygon fill="white" stroke="black" points="492,-98 492,-128 736,-128 736,-98 492,-98"/>
<text text-anchor="start" x="500" y="-116" font-family="Helvetica,sans-Serif" font-size="10.00">engine.visuals.elementVisuals.widgets.attribute</text>
<text text-anchor="middle" x="614" y="-105" font-family="Helvetica,sans-Serif" font-size="10.00">Displays.AttributeArrowDisplayer</text>
</a>
</g>
</g>
<!-- Node6&#45;&gt;Node7 -->
<g id="edge6" class="edge"><title>Node6&#45;&gt;Node7</title>
<path fill="none" stroke="midnightblue" d="M430.442,-80.8225C462.075,-86.3982 497.057,-92.564 527.863,-97.9938"/>
<polygon fill="midnightblue" stroke="midnightblue" points="430.754,-77.3237 420.298,-79.0346 429.539,-84.2174 430.754,-77.3237"/>
</g>
<!-- Node8 -->
<g id="node8" class="node"><title>Node8</title>
<g id="a_node8"><a xlink:href="../../d8/d27/classengine_1_1visuals_1_1element_visuals_1_1widgets_1_1attribute_displays_1_1_attribute_bar_displayer.html" target="_top" xlink:title="engine.visuals.elementVisuals.widgets.attribute\lDisplays.AttributeBarDisplayer">
<polygon fill="white" stroke="black" points="492,-49 492,-79 736,-79 736,-49 492,-49"/>
<text text-anchor="start" x="500" y="-67" font-family="Helvetica,sans-Serif" font-size="10.00">engine.visuals.elementVisuals.widgets.attribute</text>
<text text-anchor="middle" x="614" y="-56" font-family="Helvetica,sans-Serif" font-size="10.00">Displays.AttributeBarDisplayer</text>
</a>
</g>
</g>
<!-- Node6&#45;&gt;Node8 -->
<g id="edge7" class="edge"><title>Node6&#45;&gt;Node8</title>
<path fill="none" stroke="midnightblue" d="M466.16,-64C474.73,-64 483.339,-64 491.858,-64"/>
<polygon fill="midnightblue" stroke="midnightblue" points="466.126,-60.5001 456.126,-64 466.126,-67.5001 466.126,-60.5001"/>
</g>
<!-- Node9 -->
<g id="node9" class="node"><title>Node9</title>
<g id="a_node9"><a xlink:href="../../dc/d93/classengine_1_1visuals_1_1element_visuals_1_1widgets_1_1attribute_displays_1_1_unit_selected_displayer.html" target="_top" xlink:title="engine.visuals.elementVisuals.widgets.attribute\lDisplays.UnitSelectedDisplayer">
<polygon fill="white" stroke="black" points="492,-0 492,-30 736,-30 736,-0 492,-0"/>
<text text-anchor="start" x="500" y="-18" font-family="Helvetica,sans-Serif" font-size="10.00">engine.visuals.elementVisuals.widgets.attribute</text>
<text text-anchor="middle" x="614" y="-7" font-family="Helvetica,sans-Serif" font-size="10.00">Displays.UnitSelectedDisplayer</text>
</a>
</g>
</g>
<!-- Node6&#45;&gt;Node9 -->
<g id="edge8" class="edge"><title>Node6&#45;&gt;Node9</title>
<path fill="none" stroke="midnightblue" d="M430.442,-47.1775C462.075,-41.6018 497.057,-35.436 527.863,-30.0062"/>
<polygon fill="midnightblue" stroke="midnightblue" points="429.539,-43.7826 420.298,-48.9654 430.754,-50.6763 429.539,-43.7826"/>
</g>
</g>
</svg>
