<?xml version="1.0" encoding="UTF-8" standalone="no"?>
<!DOCTYPE svg PUBLIC "-//W3C//DTD SVG 1.1//EN"
 "http://www.w3.org/Graphics/SVG/1.1/DTD/svg11.dtd">
<!-- Generated by graphviz version 2.36.0 (20140111.2315)
 -->
<!-- Title: editor.wizards.DrawableGameElementWizard.launchStringAttributeEditor Pages: 1 -->
<svg width="826pt" height="175pt"
 viewBox="0.00 0.00 826.00 175.00" xmlns="http://www.w3.org/2000/svg" xmlns:xlink="http://www.w3.org/1999/xlink">
<g id="graph0" class="graph" transform="scale(1 1) rotate(0) translate(4 171)">
<title>editor.wizards.DrawableGameElementWizard.launchStringAttributeEditor</title>
<polygon fill="white" stroke="none" points="-4,4 -4,-171 822,-171 822,4 -4,4"/>
<!-- Node1 -->
<g id="node1" class="node"><title>Node1</title>
<polygon fill="#bfbfbf" stroke="black" points="0.5,-60.5 0.5,-101.5 193.5,-101.5 193.5,-60.5 0.5,-60.5"/>
<text text-anchor="start" x="8.5" y="-89.5" font-family="Helvetica,sans-Serif" font-size="10.00">editor.wizards.DrawableGame</text>
<text text-anchor="start" x="8.5" y="-78.5" font-family="Helvetica,sans-Serif" font-size="10.00">ElementWizard.launchStringAttribute</text>
<text text-anchor="middle" x="97" y="-67.5" font-family="Helvetica,sans-Serif" font-size="10.00">Editor</text>
</g>
<!-- Node2 -->
<g id="node2" class="node"><title>Node2</title>
<g id="a_node2"><a xlink:href="../../df/d00/classeditor_1_1wizards_1_1_drawable_game_element_wizard.html#a849fae12a564cb486dcbf52e25e30333" target="_top" xlink:title="editor.wizards.DrawableGame\lElementWizard.launchNestedWizard">
<polygon fill="white" stroke="black" points="230,-66 230,-96 418,-96 418,-66 230,-66"/>
<text text-anchor="start" x="238" y="-84" font-family="Helvetica,sans-Serif" font-size="10.00">editor.wizards.DrawableGame</text>
<text text-anchor="middle" x="324" y="-73" font-family="Helvetica,sans-Serif" font-size="10.00">ElementWizard.launchNestedWizard</text>
</a>
</g>
</g>
<!-- Node1&#45;&gt;Node2 -->
<g id="edge1" class="edge"><title>Node1&#45;&gt;Node2</title>
<path fill="none" stroke="midnightblue" d="M193.747,-81C202.343,-81 211.074,-81 219.731,-81"/>
<polygon fill="midnightblue" stroke="midnightblue" points="219.847,-84.5001 229.847,-81 219.847,-77.5001 219.847,-84.5001"/>
</g>
<!-- Node3 -->
<g id="node3" class="node"><title>Node3</title>
<g id="a_node3"><a xlink:href="../../d9/d24/classeditor_1_1wizards_1_1_wizard.html#af31efa889b2f50d468bc0014d295cab5" target="_top" xlink:title="editor.wizards.Wizard.add\lWizardData">
<polygon fill="white" stroke="black" points="461.5,-137 461.5,-167 598.5,-167 598.5,-137 461.5,-137"/>
<text text-anchor="start" x="469.5" y="-155" font-family="Helvetica,sans-Serif" font-size="10.00">editor.wizards.Wizard.add</text>
<text text-anchor="middle" x="530" y="-144" font-family="Helvetica,sans-Serif" font-size="10.00">WizardData</text>
</a>
</g>
</g>
<!-- Node2&#45;&gt;Node3 -->
<g id="edge2" class="edge"><title>Node2&#45;&gt;Node3</title>
<path fill="none" stroke="midnightblue" d="M366.462,-96.0316C391.718,-105.126 424.667,-116.882 454,-127 460.364,-129.195 467.042,-131.467 473.681,-133.705"/>
<polygon fill="midnightblue" stroke="midnightblue" points="472.744,-137.082 483.338,-136.948 474.972,-130.446 472.744,-137.082"/>
</g>
<!-- Node5 -->
<g id="node5" class="node"><title>Node5</title>
<g id="a_node5"><a xlink:href="../../d9/d24/classeditor_1_1wizards_1_1_wizard.html#a900163c75d7ec227b98fe35c9afa7505" target="_top" xlink:title="editor.wizards.Wizard.get\lStage">
<polygon fill="white" stroke="black" points="462.5,-88 462.5,-118 597.5,-118 597.5,-88 462.5,-88"/>
<text text-anchor="start" x="470.5" y="-106" font-family="Helvetica,sans-Serif" font-size="10.00">editor.wizards.Wizard.get</text>
<text text-anchor="middle" x="530" y="-95" font-family="Helvetica,sans-Serif" font-size="10.00">Stage</text>
</a>
</g>
</g>
<!-- Node2&#45;&gt;Node5 -->
<g id="edge4" class="edge"><title>Node2&#45;&gt;Node5</title>
<path fill="none" stroke="midnightblue" d="M418.045,-91.0343C429.47,-92.2664 441.046,-93.5147 452.193,-94.7169"/>
<polygon fill="midnightblue" stroke="midnightblue" points="451.976,-98.2137 462.293,-95.8061 452.726,-91.254 451.976,-98.2137"/>
</g>
<!-- Node6 -->
<g id="node6" class="node"><title>Node6</title>
<g id="a_node6"><a xlink:href="../../dc/d5a/classview_1_1_wizard_utility.html#a7df411758a1fe47f34f7372db53355bf" target="_top" xlink:title="view.WizardUtility.loadWizard">
<polygon fill="white" stroke="black" points="454.5,-49.5 454.5,-68.5 605.5,-68.5 605.5,-49.5 454.5,-49.5"/>
<text text-anchor="middle" x="530" y="-56.5" font-family="Helvetica,sans-Serif" font-size="10.00">view.WizardUtility.loadWizard</text>
</a>
</g>
</g>
<!-- Node2&#45;&gt;Node6 -->
<g id="edge5" class="edge"><title>Node2&#45;&gt;Node6</title>
<path fill="none" stroke="midnightblue" d="M418.045,-70.9657C426.807,-70.0208 435.657,-69.0664 444.335,-68.1306"/>
<polygon fill="midnightblue" stroke="midnightblue" points="444.86,-71.5943 454.427,-67.0422 444.109,-64.6347 444.86,-71.5943"/>
</g>
<!-- Node10 -->
<g id="node10" class="node"><title>Node10</title>
<g id="a_node10"><a xlink:href="../../d9/d24/classeditor_1_1wizards_1_1_wizard.html#a000a0be1e53ca727dc03770e6269db9c" target="_top" xlink:title="editor.wizards.Wizard.set\lSubmit">
<polygon fill="white" stroke="black" points="463,-0 463,-30 597,-30 597,-0 463,-0"/>
<text text-anchor="start" x="471" y="-18" font-family="Helvetica,sans-Serif" font-size="10.00">editor.wizards.Wizard.set</text>
<text text-anchor="middle" x="530" y="-7" font-family="Helvetica,sans-Serif" font-size="10.00">Submit</text>
</a>
</g>
</g>
<!-- Node2&#45;&gt;Node10 -->
<g id="edge9" class="edge"><title>Node2&#45;&gt;Node10</title>
<path fill="none" stroke="midnightblue" d="M371.546,-65.941C401.599,-56.218 440.879,-43.5096 472.688,-33.2186"/>
<polygon fill="midnightblue" stroke="midnightblue" points="473.864,-36.5168 482.301,-30.1084 471.709,-29.8566 473.864,-36.5168"/>
</g>
<!-- Node4 -->
<g id="node4" class="node"><title>Node4</title>
<g id="a_node4"><a xlink:href="../../dc/d23/classeditor_1_1wizards_1_1_wizard_data.html#a9ed51c8306bf2b085361341f8ec95c35" target="_top" xlink:title="editor.wizards.WizardData.add\lWizardData">
<polygon fill="white" stroke="black" points="649.5,-137 649.5,-167 810.5,-167 810.5,-137 649.5,-137"/>
<text text-anchor="start" x="657.5" y="-155" font-family="Helvetica,sans-Serif" font-size="10.00">editor.wizards.WizardData.add</text>
<text text-anchor="middle" x="730" y="-144" font-family="Helvetica,sans-Serif" font-size="10.00">WizardData</text>
</a>
</g>
</g>
<!-- Node3&#45;&gt;Node4 -->
<g id="edge3" class="edge"><title>Node3&#45;&gt;Node4</title>
<path fill="none" stroke="midnightblue" d="M598.587,-152C611.621,-152 625.465,-152 639.078,-152"/>
<polygon fill="midnightblue" stroke="midnightblue" points="639.426,-155.5 649.426,-152 639.426,-148.5 639.426,-155.5"/>
</g>
<!-- Node7 -->
<g id="node7" class="node"><title>Node7</title>
<g id="a_node7"><a xlink:href="../../de/d50/classview_1_1_g_u_i_load_style_utility.html#a3f0bdbc7239563c54aa365afd86f620d" target="_top" xlink:title="view.GUILoadStyleUtility.generate\lGUIPane">
<polygon fill="white" stroke="black" points="642,-88 642,-118 818,-118 818,-88 642,-88"/>
<text text-anchor="start" x="650" y="-106" font-family="Helvetica,sans-Serif" font-size="10.00">view.GUILoadStyleUtility.generate</text>
<text text-anchor="middle" x="730" y="-95" font-family="Helvetica,sans-Serif" font-size="10.00">GUIPane</text>
</a>
</g>
</g>
<!-- Node6&#45;&gt;Node7 -->
<g id="edge6" class="edge"><title>Node6&#45;&gt;Node7</title>
<path fill="none" stroke="midnightblue" d="M573.963,-68.5473C596.554,-73.5676 624.95,-79.8777 651.247,-85.7215"/>
<polygon fill="midnightblue" stroke="midnightblue" points="650.685,-89.1819 661.206,-87.9346 652.203,-82.3486 650.685,-89.1819"/>
</g>
<!-- Node8 -->
<g id="node8" class="node"><title>Node8</title>
<g id="a_node8"><a xlink:href="../../d9/d24/classeditor_1_1wizards_1_1_wizard.html#a72e3a81c25878fea0201a98307c78622" target="_top" xlink:title="editor.wizards.Wizard.getRoot">
<polygon fill="white" stroke="black" points="652,-49.5 652,-68.5 808,-68.5 808,-49.5 652,-49.5"/>
<text text-anchor="middle" x="730" y="-56.5" font-family="Helvetica,sans-Serif" font-size="10.00">editor.wizards.Wizard.getRoot</text>
</a>
</g>
</g>
<!-- Node6&#45;&gt;Node8 -->
<g id="edge7" class="edge"><title>Node6&#45;&gt;Node8</title>
<path fill="none" stroke="midnightblue" d="M605.573,-59C617.392,-59 629.706,-59 641.783,-59"/>
<polygon fill="midnightblue" stroke="midnightblue" points="641.856,-62.5001 651.856,-59 641.856,-55.5001 641.856,-62.5001"/>
</g>
<!-- Node9 -->
<g id="node9" class="node"><title>Node9</title>
<g id="a_node9"><a xlink:href="../../d9/d24/classeditor_1_1wizards_1_1_wizard.html#ae8a3ae83055f5b39fbafec5ea3a379eb" target="_top" xlink:title="editor.wizards.Wizard.set\lStage">
<polygon fill="white" stroke="black" points="663,-0 663,-30 797,-30 797,-0 663,-0"/>
<text text-anchor="start" x="671" y="-18" font-family="Helvetica,sans-Serif" font-size="10.00">editor.wizards.Wizard.set</text>
<text text-anchor="middle" x="730" y="-7" font-family="Helvetica,sans-Serif" font-size="10.00">Stage</text>
</a>
</g>
</g>
<!-- Node6&#45;&gt;Node9 -->
<g id="edge8" class="edge"><title>Node6&#45;&gt;Node9</title>
<path fill="none" stroke="midnightblue" d="M573.963,-49.4527C596.957,-44.3428 625.966,-37.8965 652.653,-31.9659"/>
<polygon fill="midnightblue" stroke="midnightblue" points="653.748,-35.3081 662.751,-29.7221 652.229,-28.4748 653.748,-35.3081"/>
</g>
</g>
</svg>
