<?xml version="1.0" encoding="UTF-8" standalone="no"?>
<!DOCTYPE svg PUBLIC "-//W3C//DTD SVG 1.1//EN"
 "http://www.w3.org/Graphics/SVG/1.1/DTD/svg11.dtd">
<!-- Generated by graphviz version 2.36.0 (20140111.2315)
 -->
<!-- Title: editor.wizards.DrawableGameElementWizard.launchStringAttributeEditor Pages: 1 -->
<svg width="396pt" height="48pt"
 viewBox="0.00 0.00 396.00 48.00" xmlns="http://www.w3.org/2000/svg" xmlns:xlink="http://www.w3.org/1999/xlink">
<g id="graph0" class="graph" transform="scale(1 1) rotate(0) translate(4 44)">
<title>editor.wizards.DrawableGameElementWizard.launchStringAttributeEditor</title>
<polygon fill="white" stroke="none" points="-4,4 -4,-44 392,-44 392,4 -4,4"/>
<!-- Node1 -->
<g id="node1" class="node"><title>Node1</title>
<polygon fill="#bfbfbf" stroke="black" points="0.5,0.5 0.5,-40.5 193.5,-40.5 193.5,0.5 0.5,0.5"/>
<text text-anchor="start" x="8.5" y="-28.5" font-family="Helvetica,sans-Serif" font-size="10.00">editor.wizards.DrawableGame</text>
<text text-anchor="start" x="8.5" y="-17.5" font-family="Helvetica,sans-Serif" font-size="10.00">ElementWizard.launchStringAttribute</text>
<text text-anchor="middle" x="97" y="-6.5" font-family="Helvetica,sans-Serif" font-size="10.00">Editor</text>
</g>
<!-- Node2 -->
<g id="node2" class="node"><title>Node2</title>
<g id="a_node2"><a xlink:href="../../df/d00/classeditor_1_1wizards_1_1_drawable_game_element_wizard.html#a7a37e4c518775da5c3d49fb7b1a7ff85" target="_top" xlink:title="editor.wizards.DrawableGame\lElementWizard.initialize">
<polygon fill="white" stroke="black" points="230,-5 230,-35 388,-35 388,-5 230,-5"/>
<text text-anchor="start" x="238" y="-23" font-family="Helvetica,sans-Serif" font-size="10.00">editor.wizards.DrawableGame</text>
<text text-anchor="middle" x="309" y="-12" font-family="Helvetica,sans-Serif" font-size="10.00">ElementWizard.initialize</text>
</a>
</g>
</g>
<!-- Node1&#45;&gt;Node2 -->
<g id="edge1" class="edge"><title>Node1&#45;&gt;Node2</title>
<path fill="none" stroke="midnightblue" d="M204.029,-20C212.767,-20 221.495,-20 229.972,-20"/>
<polygon fill="midnightblue" stroke="midnightblue" points="203.782,-16.5001 193.782,-20 203.782,-23.5001 203.782,-16.5001"/>
</g>
</g>
</svg>
