<?xml version="1.0" encoding="UTF-8" standalone="no"?>
<!DOCTYPE svg PUBLIC "-//W3C//DTD SVG 1.1//EN"
 "http://www.w3.org/Graphics/SVG/1.1/DTD/svg11.dtd">
<!-- Generated by graphviz version 2.36.0 (20140111.2315)
 -->
<!-- Title: game_engine.elementFactories.LevelFactory.updateGridForObstacles Pages: 1 -->
<svg width="652pt" height="48pt"
 viewBox="0.00 0.00 652.00 48.00" xmlns="http://www.w3.org/2000/svg" xmlns:xlink="http://www.w3.org/1999/xlink">
<g id="graph0" class="graph" transform="scale(1 1) rotate(0) translate(4 44)">
<title>game_engine.elementFactories.LevelFactory.updateGridForObstacles</title>
<polygon fill="white" stroke="none" points="-4,4 -4,-44 648,-44 648,4 -4,4"/>
<!-- Node1 -->
<g id="node1" class="node"><title>Node1</title>
<polygon fill="#bfbfbf" stroke="black" points="0.5,-5 0.5,-35 193.5,-35 193.5,-5 0.5,-5"/>
<text text-anchor="start" x="8.5" y="-23" font-family="Helvetica,sans-Serif" font-size="10.00">game_engine.elementFactories.</text>
<text text-anchor="middle" x="97" y="-12" font-family="Helvetica,sans-Serif" font-size="10.00">LevelFactory.updateGridForObstacles</text>
</g>
<!-- Node2 -->
<g id="node2" class="node"><title>Node2</title>
<g id="a_node2"><a xlink:href="../../d1/d40/classgame__engine_1_1computers_1_1pathing_computers_1_1_map_grid.html#a912f27d7df3b0dad44b978213c4d2bb6" target="_top" xlink:title="game_engine.computers.pathing\lComputers.MapGrid.registerObstacle\lPlacement">
<polygon fill="white" stroke="black" points="230,0.5 230,-40.5 424,-40.5 424,0.5 230,0.5"/>
<text text-anchor="start" x="238" y="-28.5" font-family="Helvetica,sans-Serif" font-size="10.00">game_engine.computers.pathing</text>
<text text-anchor="start" x="238" y="-17.5" font-family="Helvetica,sans-Serif" font-size="10.00">Computers.MapGrid.registerObstacle</text>
<text text-anchor="middle" x="327" y="-6.5" font-family="Helvetica,sans-Serif" font-size="10.00">Placement</text>
</a>
</g>
</g>
<!-- Node1&#45;&gt;Node2 -->
<g id="edge1" class="edge"><title>Node1&#45;&gt;Node2</title>
<path fill="none" stroke="midnightblue" d="M193.702,-20C202.285,-20 211.011,-20 219.678,-20"/>
<polygon fill="midnightblue" stroke="midnightblue" points="219.812,-23.5001 229.812,-20 219.812,-16.5001 219.812,-23.5001"/>
</g>
<!-- Node3 -->
<g id="node3" class="node"><title>Node3</title>
<g id="a_node3"><a xlink:href="../../d1/d40/classgame__engine_1_1computers_1_1pathing_computers_1_1_map_grid.html#ae2891f9e24252b8a408986de19178a84" target="_top" xlink:title="game_engine.computers.pathing\lComputers.MapGrid.alterLocations\lInsideBounds">
<polygon fill="white" stroke="black" points="460.5,0.5 460.5,-40.5 643.5,-40.5 643.5,0.5 460.5,0.5"/>
<text text-anchor="start" x="468.5" y="-28.5" font-family="Helvetica,sans-Serif" font-size="10.00">game_engine.computers.pathing</text>
<text text-anchor="start" x="468.5" y="-17.5" font-family="Helvetica,sans-Serif" font-size="10.00">Computers.MapGrid.alterLocations</text>
<text text-anchor="middle" x="552" y="-6.5" font-family="Helvetica,sans-Serif" font-size="10.00">InsideBounds</text>
</a>
</g>
</g>
<!-- Node2&#45;&gt;Node3 -->
<g id="edge2" class="edge"><title>Node2&#45;&gt;Node3</title>
<path fill="none" stroke="midnightblue" d="M424.19,-20C432.832,-20 441.599,-20 450.279,-20"/>
<polygon fill="midnightblue" stroke="midnightblue" points="450.414,-23.5001 460.414,-20 450.414,-16.5001 450.414,-23.5001"/>
</g>
</g>
</svg>
