<?xml version="1.0" encoding="UTF-8" standalone="no"?>
<!DOCTYPE svg PUBLIC "-//W3C//DTD SVG 1.1//EN"
 "http://www.w3.org/Graphics/SVG/1.1/DTD/svg11.dtd">
<!-- Generated by graphviz version 2.36.0 (20140111.2315)
 -->
<!-- Title: util.multilanguage.LanguageException Pages: 1 -->
<svg width="448pt" height="87pt"
 viewBox="0.00 0.00 448.00 87.00" xmlns="http://www.w3.org/2000/svg" xmlns:xlink="http://www.w3.org/1999/xlink">
<g id="graph0" class="graph" transform="scale(1 1) rotate(0) translate(4 83)">
<title>util.multilanguage.LanguageException</title>
<polygon fill="white" stroke="none" points="-4,4 -4,-83 444,-83 444,4 -4,4"/>
<!-- Node1 -->
<g id="node1" class="node"><title>Node1</title>
<polygon fill="#bfbfbf" stroke="black" points="100,-24 100,-54 252,-54 252,-24 100,-24"/>
<text text-anchor="start" x="108" y="-42" font-family="Helvetica,sans-Serif" font-size="10.00">util.multilanguage.Language</text>
<text text-anchor="middle" x="176" y="-31" font-family="Helvetica,sans-Serif" font-size="10.00">Exception</text>
</g>
<!-- Node3 -->
<g id="node3" class="node"><title>Node3</title>
<g id="a_node3"><a xlink:href="../../d8/d15/classutil_1_1multilanguage_1_1_language_not_found_exception.html" target="_top" xlink:title="util.multilanguage.Language\lNotFoundException">
<polygon fill="white" stroke="black" points="288,-49 288,-79 440,-79 440,-49 288,-49"/>
<text text-anchor="start" x="296" y="-67" font-family="Helvetica,sans-Serif" font-size="10.00">util.multilanguage.Language</text>
<text text-anchor="middle" x="364" y="-56" font-family="Helvetica,sans-Serif" font-size="10.00">NotFoundException</text>
</a>
</g>
</g>
<!-- Node1&#45;&gt;Node3 -->
<g id="edge2" class="edge"><title>Node1&#45;&gt;Node3</title>
<path fill="none" stroke="midnightblue" d="M262.147,-50.4445C270.742,-51.5997 279.426,-52.767 287.905,-53.9066"/>
<polygon fill="midnightblue" stroke="midnightblue" points="262.494,-46.9598 252.117,-49.0964 261.562,-53.8974 262.494,-46.9598"/>
</g>
<!-- Node4 -->
<g id="node4" class="node"><title>Node4</title>
<g id="a_node4"><a xlink:href="../../d4/d8b/classutil_1_1multilanguage_1_1_language_property_not_found_exception.html" target="_top" xlink:title="util.multilanguage.Language\lPropertyNotFoundException">
<polygon fill="white" stroke="black" points="288,-0 288,-30 440,-30 440,-0 288,-0"/>
<text text-anchor="start" x="296" y="-18" font-family="Helvetica,sans-Serif" font-size="10.00">util.multilanguage.Language</text>
<text text-anchor="middle" x="364" y="-7" font-family="Helvetica,sans-Serif" font-size="10.00">PropertyNotFoundException</text>
</a>
</g>
</g>
<!-- Node1&#45;&gt;Node4 -->
<g id="edge3" class="edge"><title>Node1&#45;&gt;Node4</title>
<path fill="none" stroke="midnightblue" d="M262.147,-28.0133C270.742,-26.9043 279.426,-25.7837 287.905,-24.6897"/>
<polygon fill="midnightblue" stroke="midnightblue" points="261.587,-24.5564 252.117,-29.3075 262.483,-31.4989 261.587,-24.5564"/>
</g>
<!-- Node2 -->
<g id="node2" class="node"><title>Node2</title>
<polygon fill="white" stroke="#bfbfbf" points="0.5,-29.5 0.5,-48.5 63.5,-48.5 63.5,-29.5 0.5,-29.5"/>
<text text-anchor="middle" x="32" y="-36.5" font-family="Helvetica,sans-Serif" font-size="10.00">Exception</text>
</g>
<!-- Node2&#45;&gt;Node1 -->
<g id="edge1" class="edge"><title>Node2&#45;&gt;Node1</title>
<path fill="none" stroke="midnightblue" d="M73.8439,-39C82.079,-39 90.9789,-39 99.9653,-39"/>
<polygon fill="midnightblue" stroke="midnightblue" points="73.8119,-35.5001 63.8119,-39 73.8119,-42.5001 73.8119,-35.5001"/>
</g>
</g>
</svg>
