<?xml version="1.0" encoding="UTF-8" standalone="no"?>
<!DOCTYPE svg PUBLIC "-//W3C//DTD SVG 1.1//EN"
 "http://www.w3.org/Graphics/SVG/1.1/DTD/svg11.dtd">
<!-- Generated by graphviz version 2.36.0 (20140111.2315)
 -->
<!-- Title: model.GameSaveLoadMediator.getGameLocation Pages: 1 -->
<svg width="1228pt" height="137pt"
 viewBox="0.00 0.00 1228.00 137.00" xmlns="http://www.w3.org/2000/svg" xmlns:xlink="http://www.w3.org/1999/xlink">
<g id="graph0" class="graph" transform="scale(1 1) rotate(0) translate(4 133)">
<title>model.GameSaveLoadMediator.getGameLocation</title>
<polygon fill="white" stroke="none" points="-4,4 -4,-133 1224,-133 1224,4 -4,4"/>
<!-- Node1 -->
<g id="node1" class="node"><title>Node1</title>
<polygon fill="#bfbfbf" stroke="black" points="0,-30 0,-60 186,-60 186,-30 0,-30"/>
<text text-anchor="start" x="8" y="-48" font-family="Helvetica,sans-Serif" font-size="10.00">model.GameSaveLoadMediator.get</text>
<text text-anchor="middle" x="93" y="-37" font-family="Helvetica,sans-Serif" font-size="10.00">GameLocation</text>
</g>
<!-- Node2 -->
<g id="node2" class="node"><title>Node2</title>
<g id="a_node2"><a xlink:href="../../de/d33/classmodel_1_1_game_save_load_mediator.html#a0c1638e64ab7544ac407e8d7debb5781" target="_top" xlink:title="model.GameSaveLoadMediator.loadGame">
<polygon fill="white" stroke="black" points="223,-54.5 223,-73.5 443,-73.5 443,-54.5 223,-54.5"/>
<text text-anchor="middle" x="333" y="-61.5" font-family="Helvetica,sans-Serif" font-size="10.00">model.GameSaveLoadMediator.loadGame</text>
</a>
</g>
</g>
<!-- Node1&#45;&gt;Node2 -->
<g id="edge1" class="edge"><title>Node1&#45;&gt;Node2</title>
<path fill="none" stroke="midnightblue" d="M196.251,-53.1629C205.028,-53.8636 213.929,-54.5741 222.757,-55.279"/>
<polygon fill="midnightblue" stroke="midnightblue" points="196.264,-49.6529 186.017,-52.3459 195.707,-56.6307 196.264,-49.6529"/>
</g>
<!-- Node11 -->
<g id="node11" class="node"><title>Node11</title>
<g id="a_node11"><a xlink:href="../../de/d33/classmodel_1_1_game_save_load_mediator.html#a32747af8fcb2cd24c79793a0d86e6314" target="_top" xlink:title="model.GameSaveLoadMediator.saveGame">
<polygon fill="white" stroke="black" points="222,-16.5 222,-35.5 444,-35.5 444,-16.5 222,-16.5"/>
<text text-anchor="middle" x="333" y="-23.5" font-family="Helvetica,sans-Serif" font-size="10.00">model.GameSaveLoadMediator.saveGame</text>
</a>
</g>
</g>
<!-- Node1&#45;&gt;Node11 -->
<g id="edge10" class="edge"><title>Node1&#45;&gt;Node11</title>
<path fill="none" stroke="midnightblue" d="M196.027,-36.855C204.611,-36.1697 213.315,-35.4748 221.956,-34.785"/>
<polygon fill="midnightblue" stroke="midnightblue" points="195.707,-33.3693 186.017,-37.6541 196.264,-40.3471 195.707,-33.3693"/>
</g>
<!-- Node3 -->
<g id="node3" class="node"><title>Node3</title>
<g id="a_node3"><a xlink:href="../../de/d21/classmodel_1_1_main_model.html#a1a794fbf99be0146fb0a50681091ad7d" target="_top" xlink:title="model.MainModel.loadGame">
<polygon fill="white" stroke="black" points="481.5,-54.5 481.5,-73.5 634.5,-73.5 634.5,-54.5 481.5,-54.5"/>
<text text-anchor="middle" x="558" y="-61.5" font-family="Helvetica,sans-Serif" font-size="10.00">model.MainModel.loadGame</text>
</a>
</g>
</g>
<!-- Node2&#45;&gt;Node3 -->
<g id="edge2" class="edge"><title>Node2&#45;&gt;Node3</title>
<path fill="none" stroke="midnightblue" d="M453.498,-64C462.96,-64 472.345,-64 481.378,-64"/>
<polygon fill="midnightblue" stroke="midnightblue" points="453.214,-60.5001 443.214,-64 453.213,-67.5001 453.214,-60.5001"/>
</g>
<!-- Node4 -->
<g id="node4" class="node"><title>Node4</title>
<g id="a_node4"><a xlink:href="../../d6/d00/classapplication_1_1_pong.html#a0125f26aebd7e1cc9e3fae602e3997f8" target="_top" xlink:title="application.Pong.hardCode\lAGame">
<polygon fill="white" stroke="black" points="680.5,-98 680.5,-128 825.5,-128 825.5,-98 680.5,-98"/>
<text text-anchor="start" x="688.5" y="-116" font-family="Helvetica,sans-Serif" font-size="10.00">application.Pong.hardCode</text>
<text text-anchor="middle" x="753" y="-105" font-family="Helvetica,sans-Serif" font-size="10.00">AGame</text>
</a>
</g>
</g>
<!-- Node3&#45;&gt;Node4 -->
<g id="edge3" class="edge"><title>Node3&#45;&gt;Node4</title>
<path fill="none" stroke="midnightblue" d="M606.666,-76.1018C632.686,-82.708 665.139,-90.9471 692.773,-97.963"/>
<polygon fill="midnightblue" stroke="midnightblue" points="607.224,-72.6325 596.671,-73.564 605.502,-79.4173 607.224,-72.6325"/>
</g>
<!-- Node6 -->
<g id="node6" class="node"><title>Node6</title>
<g id="a_node6"><a xlink:href="../../d0/daf/classapplication_1_1_r_p_g.html#a57d0a7b674624b53b138a951b30f865d" target="_top" xlink:title="application.RPG.hardCode\lAGame">
<polygon fill="white" stroke="black" points="683,-49 683,-79 823,-79 823,-49 683,-49"/>
<text text-anchor="start" x="691" y="-67" font-family="Helvetica,sans-Serif" font-size="10.00">application.RPG.hardCode</text>
<text text-anchor="middle" x="753" y="-56" font-family="Helvetica,sans-Serif" font-size="10.00">AGame</text>
</a>
</g>
</g>
<!-- Node3&#45;&gt;Node6 -->
<g id="edge5" class="edge"><title>Node3&#45;&gt;Node6</title>
<path fill="none" stroke="midnightblue" d="M644.837,-64C657.533,-64 670.479,-64 682.78,-64"/>
<polygon fill="midnightblue" stroke="midnightblue" points="644.725,-60.5001 634.725,-64 644.725,-67.5001 644.725,-60.5001"/>
</g>
<!-- Node8 -->
<g id="node8" class="node"><title>Node8</title>
<g id="a_node8"><a xlink:href="../../d0/d3f/classview_1_1splash_1_1_splash_screen.html#a7e50ce5a292e35b972ae31ec4df4f5ca" target="_top" xlink:title="view.splash.SplashScreen.load\lGameAndSwitchScreen">
<polygon fill="white" stroke="black" points="672,-0 672,-30 834,-30 834,-0 672,-0"/>
<text text-anchor="start" x="680" y="-18" font-family="Helvetica,sans-Serif" font-size="10.00">view.splash.SplashScreen.load</text>
<text text-anchor="middle" x="753" y="-7" font-family="Helvetica,sans-Serif" font-size="10.00">GameAndSwitchScreen</text>
</a>
</g>
</g>
<!-- Node3&#45;&gt;Node8 -->
<g id="edge7" class="edge"><title>Node3&#45;&gt;Node8</title>
<path fill="none" stroke="midnightblue" d="M608.081,-51.976C617.359,-49.6784 626.981,-47.279 636,-45 655.058,-40.1843 675.853,-34.8361 694.505,-30.0046"/>
<polygon fill="midnightblue" stroke="midnightblue" points="607.062,-48.6225 598.193,-54.4186 608.741,-55.4182 607.062,-48.6225"/>
</g>
<!-- Node5 -->
<g id="node5" class="node"><title>Node5</title>
<g id="a_node5"><a xlink:href="../../d6/d00/classapplication_1_1_pong.html#aacfcba740564585303fb8097744d21a5" target="_top" xlink:title="application.Pong.start">
<polygon fill="white" stroke="black" points="888.5,-103.5 888.5,-122.5 1009.5,-122.5 1009.5,-103.5 888.5,-103.5"/>
<text text-anchor="middle" x="949" y="-110.5" font-family="Helvetica,sans-Serif" font-size="10.00">application.Pong.start</text>
</a>
</g>
</g>
<!-- Node4&#45;&gt;Node5 -->
<g id="edge4" class="edge"><title>Node4&#45;&gt;Node5</title>
<path fill="none" stroke="midnightblue" d="M835.948,-113C853.54,-113 871.808,-113 888.363,-113"/>
<polygon fill="midnightblue" stroke="midnightblue" points="835.687,-109.5 825.687,-113 835.687,-116.5 835.687,-109.5"/>
</g>
<!-- Node7 -->
<g id="node7" class="node"><title>Node7</title>
<g id="a_node7"><a xlink:href="../../d0/daf/classapplication_1_1_r_p_g.html#a6b8f1624ae2607c67f4e8cda49b544e9" target="_top" xlink:title="application.RPG.start">
<polygon fill="white" stroke="black" points="891,-54.5 891,-73.5 1007,-73.5 1007,-54.5 891,-54.5"/>
<text text-anchor="middle" x="949" y="-61.5" font-family="Helvetica,sans-Serif" font-size="10.00">application.RPG.start</text>
</a>
</g>
</g>
<!-- Node6&#45;&gt;Node7 -->
<g id="edge6" class="edge"><title>Node6&#45;&gt;Node7</title>
<path fill="none" stroke="midnightblue" d="M833.225,-64C852.567,-64 872.885,-64 890.959,-64"/>
<polygon fill="midnightblue" stroke="midnightblue" points="833.217,-60.5001 823.217,-64 833.217,-67.5001 833.217,-60.5001"/>
</g>
<!-- Node9 -->
<g id="node9" class="node"><title>Node9</title>
<g id="a_node9"><a xlink:href="../../d0/d3f/classview_1_1splash_1_1_splash_screen.html#a6425dffd80436213cce943fc3aa27563" target="_top" xlink:title="view.splash.SplashScreen.set\lUpButtons">
<polygon fill="white" stroke="black" points="870.5,-0 870.5,-30 1027.5,-30 1027.5,-0 870.5,-0"/>
<text text-anchor="start" x="878.5" y="-18" font-family="Helvetica,sans-Serif" font-size="10.00">view.splash.SplashScreen.set</text>
<text text-anchor="middle" x="949" y="-7" font-family="Helvetica,sans-Serif" font-size="10.00">UpButtons</text>
</a>
</g>
</g>
<!-- Node8&#45;&gt;Node9 -->
<g id="edge8" class="edge"><title>Node8&#45;&gt;Node9</title>
<path fill="none" stroke="midnightblue" d="M844.223,-15C852.951,-15 861.753,-15 870.344,-15"/>
<polygon fill="midnightblue" stroke="midnightblue" points="844.027,-11.5001 834.027,-15 844.027,-18.5001 844.027,-11.5001"/>
</g>
<!-- Node10 -->
<g id="node10" class="node"><title>Node10</title>
<g id="a_node10"><a xlink:href="../../d0/d3f/classview_1_1splash_1_1_splash_screen.html#af2da20a5479f92e4669ae93f0d6121de" target="_top" xlink:title="view.splash.SplashScreen.init">
<polygon fill="white" stroke="black" points="1064,-5.5 1064,-24.5 1220,-24.5 1220,-5.5 1064,-5.5"/>
<text text-anchor="middle" x="1142" y="-12.5" font-family="Helvetica,sans-Serif" font-size="10.00">view.splash.SplashScreen.init</text>
</a>
</g>
</g>
<!-- Node9&#45;&gt;Node10 -->
<g id="edge9" class="edge"><title>Node9&#45;&gt;Node10</title>
<path fill="none" stroke="midnightblue" d="M1037.78,-15C1046.43,-15 1055.16,-15 1063.69,-15"/>
<polygon fill="midnightblue" stroke="midnightblue" points="1037.69,-11.5001 1027.69,-15 1037.69,-18.5001 1037.69,-11.5001"/>
</g>
<!-- Node12 -->
<g id="node12" class="node"><title>Node12</title>
<g id="a_node12"><a xlink:href="../../de/d21/classmodel_1_1_main_model.html#abef13a086f7cce14d54c5c3cfe8fec56" target="_top" xlink:title="model.MainModel.saveGame">
<polygon fill="white" stroke="black" points="480.5,-16.5 480.5,-35.5 635.5,-35.5 635.5,-16.5 480.5,-16.5"/>
<text text-anchor="middle" x="558" y="-23.5" font-family="Helvetica,sans-Serif" font-size="10.00">model.MainModel.saveGame</text>
</a>
</g>
</g>
<!-- Node11&#45;&gt;Node12 -->
<g id="edge11" class="edge"><title>Node11&#45;&gt;Node12</title>
<path fill="none" stroke="midnightblue" d="M454.462,-26C463.192,-26 471.848,-26 480.215,-26"/>
<polygon fill="midnightblue" stroke="midnightblue" points="454.193,-22.5001 444.193,-26 454.193,-29.5001 454.193,-22.5001"/>
</g>
</g>
</svg>
