<?xml version="1.0" encoding="UTF-8" standalone="no"?>
<!DOCTYPE svg PUBLIC "-//W3C//DTD SVG 1.1//EN"
 "http://www.w3.org/Graphics/SVG/1.1/DTD/svg11.dtd">
<!-- Generated by graphviz version 2.36.0 (20140111.2315)
 -->
<!-- Title: model.GameSaveLoadMediator.loadSpritesAndMasks Pages: 1 -->
<svg width="664pt" height="38pt"
 viewBox="0.00 0.00 664.00 38.00" xmlns="http://www.w3.org/2000/svg" xmlns:xlink="http://www.w3.org/1999/xlink">
<g id="graph0" class="graph" transform="scale(1 1) rotate(0) translate(4 34)">
<title>model.GameSaveLoadMediator.loadSpritesAndMasks</title>
<polygon fill="white" stroke="none" points="-4,4 -4,-34 660,-34 660,4 -4,4"/>
<!-- Node1 -->
<g id="node1" class="node"><title>Node1</title>
<polygon fill="#bfbfbf" stroke="black" points="0.5,-0 0.5,-30 191.5,-30 191.5,-0 0.5,-0"/>
<text text-anchor="start" x="8.5" y="-18" font-family="Helvetica,sans-Serif" font-size="10.00">model.GameSaveLoadMediator.load</text>
<text text-anchor="middle" x="96" y="-7" font-family="Helvetica,sans-Serif" font-size="10.00">SpritesAndMasks</text>
</g>
<!-- Node2 -->
<g id="node2" class="node"><title>Node2</title>
<g id="a_node2"><a xlink:href="../../de/d01/classmodel_1_1sprite_1_1_sprite_image_generator.html#a6213b8131d50465b417e375f32cb33e3" target="_top" xlink:title="model.sprite.SpriteImage\lGenerator.loadSpriteImageContainers">
<polygon fill="white" stroke="black" points="228,-0 228,-30 426,-30 426,-0 228,-0"/>
<text text-anchor="start" x="236" y="-18" font-family="Helvetica,sans-Serif" font-size="10.00">model.sprite.SpriteImage</text>
<text text-anchor="middle" x="327" y="-7" font-family="Helvetica,sans-Serif" font-size="10.00">Generator.loadSpriteImageContainers</text>
</a>
</g>
</g>
<!-- Node1&#45;&gt;Node2 -->
<g id="edge1" class="edge"><title>Node1&#45;&gt;Node2</title>
<path fill="none" stroke="midnightblue" d="M191.796,-15C200.375,-15 209.105,-15 217.788,-15"/>
<polygon fill="midnightblue" stroke="midnightblue" points="217.946,-18.5001 227.946,-15 217.946,-11.5001 217.946,-18.5001"/>
</g>
<!-- Node3 -->
<g id="node3" class="node"><title>Node3</title>
<g id="a_node3"><a xlink:href="../../de/d01/classmodel_1_1sprite_1_1_sprite_image_generator.html#ab447717d12685c64342203f9ad82fcaa" target="_top" xlink:title="model.sprite.SpriteImage\lGenerator.loadSpriteImageContainer">
<polygon fill="white" stroke="black" points="462.5,-0 462.5,-30 655.5,-30 655.5,-0 462.5,-0"/>
<text text-anchor="start" x="470.5" y="-18" font-family="Helvetica,sans-Serif" font-size="10.00">model.sprite.SpriteImage</text>
<text text-anchor="middle" x="559" y="-7" font-family="Helvetica,sans-Serif" font-size="10.00">Generator.loadSpriteImageContainer</text>
</a>
</g>
</g>
<!-- Node2&#45;&gt;Node3 -->
<g id="edge2" class="edge"><title>Node2&#45;&gt;Node3</title>
<path fill="none" stroke="midnightblue" d="M426.208,-15C434.808,-15 443.536,-15 452.194,-15"/>
<polygon fill="midnightblue" stroke="midnightblue" points="452.315,-18.5001 462.315,-15 452.314,-11.5001 452.315,-18.5001"/>
</g>
</g>
</svg>
