<?xml version="1.0" encoding="UTF-8" standalone="no"?>
<!DOCTYPE svg PUBLIC "-//W3C//DTD SVG 1.1//EN"
 "http://www.w3.org/Graphics/SVG/1.1/DTD/svg11.dtd">
<!-- Generated by graphviz version 2.36.0 (20140111.2315)
 -->
<!-- Title: util.JSONableSet&lt; T &gt; Pages: 1 -->
<svg width="235pt" height="84pt"
 viewBox="0.00 0.00 235.00 84.00" xmlns="http://www.w3.org/2000/svg" xmlns:xlink="http://www.w3.org/1999/xlink">
<g id="graph0" class="graph" transform="scale(1 1) rotate(0) translate(4 80)">
<title>util.JSONableSet&lt; T &gt;</title>
<polygon fill="white" stroke="none" points="-4,4 -4,-80 231,-80 231,4 -4,4"/>
<!-- Node1 -->
<g id="node1" class="node"><title>Node1</title>
<polygon fill="#bfbfbf" stroke="black" points="65,-0.5 65,-19.5 187,-19.5 187,-0.5 65,-0.5"/>
<text text-anchor="middle" x="126" y="-7.5" font-family="Helvetica,sans-Serif" font-size="10.00">util.JSONableSet&lt; T &gt;</text>
</g>
<!-- Node2 -->
<g id="node2" class="node"><title>Node2</title>
<polygon fill="white" stroke="#bfbfbf" points="-0.5,-56.5 -0.5,-75.5 130.5,-75.5 130.5,-56.5 -0.5,-56.5"/>
<text text-anchor="middle" x="65" y="-63.5" font-family="Helvetica,sans-Serif" font-size="10.00">java::util::HashSet&lt; T &gt;</text>
</g>
<!-- Node2&#45;&gt;Node1 -->
<g id="edge1" class="edge"><title>Node2&#45;&gt;Node1</title>
<path fill="none" stroke="midnightblue" d="M82.4672,-49.5372C93.3438,-39.9087 106.944,-27.8694 116.021,-19.8339"/>
<polygon fill="midnightblue" stroke="midnightblue" points="79.9684,-47.0749 74.8007,-56.324 84.6083,-52.3162 79.9684,-47.0749"/>
</g>
<!-- Node3 -->
<g id="node3" class="node"><title>Node3</title>
<g id="a_node3"><a xlink:href="../../df/d74/interfaceutil_1_1_j_s_o_nable.html" target="_top" xlink:title="util.JSONable">
<polygon fill="white" stroke="black" points="149,-56.5 149,-75.5 227,-75.5 227,-56.5 149,-56.5"/>
<text text-anchor="middle" x="188" y="-63.5" font-family="Helvetica,sans-Serif" font-size="10.00">util.JSONable</text>
</a>
</g>
</g>
<!-- Node3&#45;&gt;Node1 -->
<g id="edge2" class="edge"><title>Node3&#45;&gt;Node1</title>
<path fill="none" stroke="midnightblue" d="M170.246,-49.5372C159.192,-39.9087 145.369,-27.8694 136.143,-19.8339"/>
<polygon fill="midnightblue" stroke="midnightblue" points="168.199,-52.3954 178.039,-56.324 172.797,-47.1168 168.199,-52.3954"/>
</g>
</g>
</svg>
