<?xml version="1.0" encoding="UTF-8" standalone="no"?>
<!DOCTYPE svg PUBLIC "-//W3C//DTD SVG 1.1//EN"
 "http://www.w3.org/Graphics/SVG/1.1/DTD/svg11.dtd">
<!-- Generated by graphviz version 2.36.0 (20140111.2315)
 -->
<!-- Title: engine.visuals.elementVisuals.animations.Animator.Animator Pages: 1 -->
<!--zoomable 288 -->
<svg id="main" version="1.1" xmlns="http://www.w3.org/2000/svg" xmlns:xlink="http://www.w3.org/1999/xlink" xml:space="preserve" onload="init(evt)">
<style type="text/css"><![CDATA[
.edge:hover path { stroke: red; }
.edge:hover polygon { stroke: red; fill: red; }
]]></style>
<script type="text/javascript"><![CDATA[
var edges = document.getElementsByTagName('g');
if (edges && edges.length) {
  for (var i=0;i<edges.length;i++) {
    if (edges[i].id.substr(0,4)=='edge') {
      edges[i].setAttribute('class','edge');
    }
  }
}
]]></script>
        <defs>
                <circle id="rim" cx="0" cy="0" r="7"/>
                <circle id="rim2" cx="0" cy="0" r="3.5"/>
                <g id="zoomPlus">
                        <use xlink:href="#rim" fill="#404040">
                                <set attributeName="fill" to="#808080" begin="zoomplus.mouseover" end="zoomplus.mouseout"/>
                        </use>
                        <path d="M-4,0h8M0,-4v8" fill="none" stroke="white" stroke-width="1.5" pointer-events="none"/>
                </g>
                <g id="zoomMin">
                        <use xlink:href="#rim" fill="#404040">
                                <set attributeName="fill" to="#808080" begin="zoomminus.mouseover" end="zoomminus.mouseout"/>
                        </use>
                        <path d="M-4,0h8" fill="none" stroke="white" stroke-width="1.5" pointer-events="none"/>
                </g>
                <g id="dirArrow">
                        <path fill="none" stroke="white" stroke-width="1.5" d="M0,-3.0v7 M-2.5,-0.5L0,-3.0L2.5,-0.5"/>
                </g>
               <g id="resetDef">
                       <use xlink:href="#rim2" fill="#404040">
                               <set attributeName="fill" to="#808080" begin="reset.mouseover" end="reset.mouseout"/>
                       </use>
               </g>
        </defs>

<script type="text/javascript">
var viewWidth = 956;
var viewHeight = 288;
var sectionId = 'dynsection-2';
</script>
<script xlink:href="../../svgpan.js"/>
<svg id="graph" class="graph">
<g id="viewport">
<title>engine.visuals.elementVisuals.animations.Animator.Animator</title>
<polygon fill="white" stroke="none" points="-4,4 -4,-284 952,-284 952,4 -4,4"/>
<!-- Node1 -->
<g id="node1" class="node"><title>Node1</title>
<polygon fill="#bfbfbf" stroke="black" points="0,-125 0,-155 220,-155 220,-125 0,-125"/>
<text text-anchor="start" x="8" y="-143" font-family="Helvetica,sans-Serif" font-size="10.00">engine.visuals.elementVisuals.animations.</text>
<text text-anchor="middle" x="110" y="-132" font-family="Helvetica,sans-Serif" font-size="10.00">Animator.Animator</text>
</g>
<!-- Node2 -->
<g id="node2" class="node"><title>Node2</title>
<g id="a_node2"><a xlink:href="../../d1/d5c/classmodel_1_1sprite_1_1_sprite_image_container.html#af83a0e388cc4a15338ada9ef04ba5ace" target="_top" xlink:title="model.sprite.SpriteImage\lContainer.getColorMask">
<polygon fill="white" stroke="black" points="297,-250 297,-280 435,-280 435,-250 297,-250"/>
<text text-anchor="start" x="305" y="-268" font-family="Helvetica,sans-Serif" font-size="10.00">model.sprite.SpriteImage</text>
<text text-anchor="middle" x="366" y="-257" font-family="Helvetica,sans-Serif" font-size="10.00">Container.getColorMask</text>
</a>
</g>
</g>
<!-- Node1&#45;&gt;Node2 -->
<g id="edge1" class="edge"><title>Node1&#45;&gt;Node2</title>
<path fill="none" stroke="midnightblue" d="M128.43,-155.345C154.401,-177.396 205.62,-217.827 256,-240 265.796,-244.311 276.427,-247.925 287.08,-250.942"/>
<polygon fill="midnightblue" stroke="midnightblue" points="286.281,-254.351 296.845,-253.547 288.085,-247.588 286.281,-254.351"/>
</g>
<!-- Node3 -->
<g id="node3" class="node"><title>Node3</title>
<g id="a_node3"><a xlink:href="../../d9/d50/classengine_1_1visuals_1_1element_visuals_1_1animations_1_1_animator.html#ac388faae37b670b983671e343b3d9a83" target="_top" xlink:title="engine.visuals.elementVisuals.animations.\lAnimator.getImageBounds">
<polygon fill="white" stroke="black" points="256,-201 256,-231 476,-231 476,-201 256,-201"/>
<text text-anchor="start" x="264" y="-219" font-family="Helvetica,sans-Serif" font-size="10.00">engine.visuals.elementVisuals.animations.</text>
<text text-anchor="middle" x="366" y="-208" font-family="Helvetica,sans-Serif" font-size="10.00">Animator.getImageBounds</text>
</a>
</g>
</g>
<!-- Node1&#45;&gt;Node3 -->
<g id="edge2" class="edge"><title>Node1&#45;&gt;Node3</title>
<path fill="none" stroke="midnightblue" d="M149.999,-155.063C178.97,-165.922 219.602,-180.461 256,-191 265.066,-193.625 274.619,-196.154 284.148,-198.53"/>
<polygon fill="midnightblue" stroke="midnightblue" points="283.503,-201.975 294.047,-200.948 285.163,-195.175 283.503,-201.975"/>
</g>
<!-- Node4 -->
<g id="node4" class="node"><title>Node4</title>
<g id="a_node4"><a xlink:href="../../d5/d66/classengine_1_1visuals_1_1element_visuals_1_1animations_1_1_animator_state.html#acaa50348e29aa983feacc3fbce6aefcc" target="_top" xlink:title="engine.visuals.elementVisuals.animations.\lAnimatorState.getImageTag">
<polygon fill="white" stroke="black" points="256,-152 256,-182 476,-182 476,-152 256,-152"/>
<text text-anchor="start" x="264" y="-170" font-family="Helvetica,sans-Serif" font-size="10.00">engine.visuals.elementVisuals.animations.</text>
<text text-anchor="middle" x="366" y="-159" font-family="Helvetica,sans-Serif" font-size="10.00">AnimatorState.getImageTag</text>
</a>
</g>
</g>
<!-- Node1&#45;&gt;Node4 -->
<g id="edge3" class="edge"><title>Node1&#45;&gt;Node4</title>
<path fill="none" stroke="midnightblue" d="M220.193,-151.607C228.697,-152.511 237.311,-153.427 245.876,-154.337"/>
<polygon fill="midnightblue" stroke="midnightblue" points="245.585,-157.826 255.899,-155.403 246.325,-150.865 245.585,-157.826"/>
</g>
<!-- Node5 -->
<g id="node5" class="node"><title>Node5</title>
<g id="a_node5"><a xlink:href="../../da/dc5/classmodel_1_1state_1_1gameelement_1_1_attribute_container.html#a5f0e6026d1877c9e4f04fe389163970c" target="_top" xlink:title="model.state.gameelement.\lAttributeContainer.getNumerical\lAttribute">
<polygon fill="white" stroke="black" points="280,-92.5 280,-133.5 452,-133.5 452,-92.5 280,-92.5"/>
<text text-anchor="start" x="288" y="-121.5" font-family="Helvetica,sans-Serif" font-size="10.00">model.state.gameelement.</text>
<text text-anchor="start" x="288" y="-110.5" font-family="Helvetica,sans-Serif" font-size="10.00">AttributeContainer.getNumerical</text>
<text text-anchor="middle" x="366" y="-99.5" font-family="Helvetica,sans-Serif" font-size="10.00">Attribute</text>
</a>
</g>
</g>
<!-- Node1&#45;&gt;Node5 -->
<g id="edge4" class="edge"><title>Node1&#45;&gt;Node5</title>
<path fill="none" stroke="midnightblue" d="M220.193,-128.393C236.673,-126.641 253.56,-124.846 269.716,-123.129"/>
<polygon fill="midnightblue" stroke="midnightblue" points="270.097,-126.608 279.671,-122.07 269.357,-119.647 270.097,-126.608"/>
</g>
<!-- Node7 -->
<g id="node7" class="node"><title>Node7</title>
<g id="a_node7"><a xlink:href="../../d1/d5c/classmodel_1_1sprite_1_1_sprite_image_container.html#aeda9017d9625cc566d6cc9a640db43e1" target="_top" xlink:title="model.sprite.SpriteImage\lContainer.getSpritesheet">
<polygon fill="white" stroke="black" points="543,-49 543,-79 681,-79 681,-49 543,-49"/>
<text text-anchor="start" x="551" y="-67" font-family="Helvetica,sans-Serif" font-size="10.00">model.sprite.SpriteImage</text>
<text text-anchor="middle" x="612" y="-56" font-family="Helvetica,sans-Serif" font-size="10.00">Container.getSpritesheet</text>
</a>
</g>
</g>
<!-- Node1&#45;&gt;Node7 -->
<g id="edge6" class="edge"><title>Node1&#45;&gt;Node7</title>
<path fill="none" stroke="midnightblue" d="M140.939,-124.936C169.655,-111.291 214.634,-91.9903 256,-83 349.413,-62.6979 459.738,-60.0071 532.318,-61.0488"/>
<polygon fill="midnightblue" stroke="midnightblue" points="532.688,-64.5556 542.746,-61.2279 532.808,-57.5566 532.688,-64.5556"/>
</g>
<!-- Node8 -->
<g id="node8" class="node"><title>Node8</title>
<g id="a_node8"><a xlink:href="../../d9/d50/classengine_1_1visuals_1_1element_visuals_1_1animations_1_1_animator.html#afd11ffb328792a8baa9013eb5a20d7a4" target="_top" xlink:title="engine.visuals.elementVisuals.animations.\lAnimator.setColorMasking">
<polygon fill="white" stroke="black" points="256,-5 256,-35 476,-35 476,-5 256,-5"/>
<text text-anchor="start" x="264" y="-23" font-family="Helvetica,sans-Serif" font-size="10.00">engine.visuals.elementVisuals.animations.</text>
<text text-anchor="middle" x="366" y="-12" font-family="Helvetica,sans-Serif" font-size="10.00">Animator.setColorMasking</text>
</a>
</g>
</g>
<!-- Node1&#45;&gt;Node8 -->
<g id="edge7" class="edge"><title>Node1&#45;&gt;Node8</title>
<path fill="none" stroke="midnightblue" d="M131.094,-124.908C158.176,-105.197 208.49,-70.7647 256,-50 266.363,-45.4708 277.583,-41.4607 288.749,-37.9653"/>
<polygon fill="midnightblue" stroke="midnightblue" points="289.957,-41.2572 298.525,-35.0261 287.941,-34.5536 289.957,-41.2572"/>
</g>
<!-- Node6 -->
<g id="node6" class="node"><title>Node6</title>
<g id="a_node6"><a xlink:href="../../da/dc5/classmodel_1_1state_1_1gameelement_1_1_attribute_container.html#a59a08ce23cf989feca0a78b2642364d4" target="_top" xlink:title="model.state.gameelement.\lAttributeContainer.getAttribute">
<polygon fill="white" stroke="black" points="529.5,-98 529.5,-128 694.5,-128 694.5,-98 529.5,-98"/>
<text text-anchor="start" x="537.5" y="-116" font-family="Helvetica,sans-Serif" font-size="10.00">model.state.gameelement.</text>
<text text-anchor="middle" x="612" y="-105" font-family="Helvetica,sans-Serif" font-size="10.00">AttributeContainer.getAttribute</text>
</a>
</g>
</g>
<!-- Node5&#45;&gt;Node6 -->
<g id="edge5" class="edge"><title>Node5&#45;&gt;Node6</title>
<path fill="none" stroke="midnightblue" d="M452.339,-113C473.931,-113 497.213,-113 519.113,-113"/>
<polygon fill="midnightblue" stroke="midnightblue" points="519.402,-116.5 529.402,-113 519.402,-109.5 519.402,-116.5"/>
</g>
<!-- Node8&#45;&gt;Node7 -->
<g id="edge8" class="edge"><title>Node8&#45;&gt;Node7</title>
<path fill="none" stroke="midnightblue" d="M450.289,-35.0192C476.975,-39.8316 506.419,-45.1412 532.735,-49.8866"/>
<polygon fill="midnightblue" stroke="midnightblue" points="532.192,-53.3451 542.655,-51.6754 533.435,-46.4563 532.192,-53.3451"/>
</g>
<!-- Node9 -->
<g id="node9" class="node"><title>Node9</title>
<g id="a_node9"><a xlink:href="../../d2/ddc/classmodel_1_1sprite_1_1_color_map_generator.html#aaf99b936de9ed452a5ff8b3469f760f5" target="_top" xlink:title="model.sprite.ColorMapGenerator.color\lFromLong">
<polygon fill="white" stroke="black" points="512.5,-0 512.5,-30 711.5,-30 711.5,-0 512.5,-0"/>
<text text-anchor="start" x="520.5" y="-18" font-family="Helvetica,sans-Serif" font-size="10.00">model.sprite.ColorMapGenerator.color</text>
<text text-anchor="middle" x="612" y="-7" font-family="Helvetica,sans-Serif" font-size="10.00">FromLong</text>
</a>
</g>
</g>
<!-- Node8&#45;&gt;Node9 -->
<g id="edge9" class="edge"><title>Node8&#45;&gt;Node9</title>
<path fill="none" stroke="midnightblue" d="M476.154,-17.7632C484.818,-17.5857 493.569,-17.4064 502.231,-17.2289"/>
<polygon fill="midnightblue" stroke="midnightblue" points="502.42,-20.7258 512.347,-17.0216 502.277,-13.7273 502.42,-20.7258"/>
</g>
<!-- Node10 -->
<g id="node10" class="node"><title>Node10</title>
<g id="a_node10"><a xlink:href="../../d2/ddc/classmodel_1_1sprite_1_1_color_map_generator.html#a43c9cf2615c98fe34b4c8270ffaf744f" target="_top" xlink:title="model.sprite.ColorMapGenerator.color\lString">
<polygon fill="white" stroke="black" points="748.5,-0 748.5,-30 947.5,-30 947.5,-0 748.5,-0"/>
<text text-anchor="start" x="756.5" y="-18" font-family="Helvetica,sans-Serif" font-size="10.00">model.sprite.ColorMapGenerator.color</text>
<text text-anchor="middle" x="848" y="-7" font-family="Helvetica,sans-Serif" font-size="10.00">String</text>
</a>
</g>
</g>
<!-- Node9&#45;&gt;Node10 -->
<g id="edge10" class="edge"><title>Node9&#45;&gt;Node10</title>
<path fill="none" stroke="midnightblue" d="M711.559,-15C720.267,-15 729.115,-15 737.903,-15"/>
<polygon fill="midnightblue" stroke="midnightblue" points="738.18,-18.5001 748.18,-15 738.18,-11.5001 738.18,-18.5001"/>
</g>
</g>
</svg>
        <g id="navigator" transform="translate(0 0)" fill="#404254">
                <rect fill="#f2f5e9" fill-opacity="0.5" stroke="#606060" stroke-width=".5" x="0" y="0" width="60" height="60"/>
                <use id="zoomplus" xlink:href="#zoomPlus" x="17" y="9" onmousedown="handleZoom(evt,'in')"/>
                <use id="zoomminus" xlink:href="#zoomMin" x="42" y="9" onmousedown="handleZoom(evt,'out')"/>
                <use id="reset" xlink:href="#resetDef" x="30" y="36" onmousedown="handleReset()"/>
                <g id="arrowUp" xlink:href="#dirArrow" transform="translate(30 24)" onmousedown="handlePan(0,-1)">
                  <use xlink:href="#rim" fill="#404040">
                        <set attributeName="fill" to="#808080" begin="arrowUp.mouseover" end="arrowUp.mouseout"/>
                  </use>
                  <path fill="none" stroke="white" stroke-width="1.5" d="M0,-3.0v7 M-2.5,-0.5L0,-3.0L2.5,-0.5"/>
                </g>
                <g id="arrowRight" xlink:href="#dirArrow" transform="rotate(90) translate(36 -43)" onmousedown="handlePan(1,0)">
                  <use xlink:href="#rim" fill="#404040">
                        <set attributeName="fill" to="#808080" begin="arrowRight.mouseover" end="arrowRight.mouseout"/>
                  </use>
                  <path fill="none" stroke="white" stroke-width="1.5" d="M0,-3.0v7 M-2.5,-0.5L0,-3.0L2.5,-0.5"/>
                </g>
                <g id="arrowDown" xlink:href="#dirArrow" transform="rotate(180) translate(-30 -48)" onmousedown="handlePan(0,1)">
                  <use xlink:href="#rim" fill="#404040">
                        <set attributeName="fill" to="#808080" begin="arrowDown.mouseover" end="arrowDown.mouseout"/>
                  </use>
                  <path fill="none" stroke="white" stroke-width="1.5" d="M0,-3.0v7 M-2.5,-0.5L0,-3.0L2.5,-0.5"/>
                </g>
                <g id="arrowLeft" xlink:href="#dirArrow" transform="rotate(270) translate(-36 17)" onmousedown="handlePan(-1,0)">
                  <use xlink:href="#rim" fill="#404040">
                        <set attributeName="fill" to="#808080" begin="arrowLeft.mouseover" end="arrowLeft.mouseout"/>
                  </use>
                  <path fill="none" stroke="white" stroke-width="1.5" d="M0,-3.0v7 M-2.5,-0.5L0,-3.0L2.5,-0.5"/>
                </g>
        </g>
        <svg viewBox="0 0 15 15" width="100%" height="30px" preserveAspectRatio="xMaxYMin meet">
         <g id="arrow_out" transform="scale(0.3 0.3)">
          <a xlink:href="classengine_1_1visuals_1_1element_visuals_1_1animations_1_1_animator_a3a40c5c16960e8afd0cf952c1e4213a6_cgraph_org.svg" target="_base">
           <rect id="button" ry="5" rx="5" y="6" x="6" height="38" width="38"
                fill="#f2f5e9" fill-opacity="0.5" stroke="#606060" stroke-width="1.0"/>
           <path id="arrow"
             d="M 11.500037,31.436501 C 11.940474,20.09759 22.043105,11.32322 32.158766,21.979434 L 37.068811,17.246167 C 37.068811,17.246167 37.088388,32 37.088388,32 L 22.160133,31.978069 C 22.160133,31.978069 26.997745,27.140456 26.997745,27.140456 C 18.528582,18.264221 13.291696,25.230495 11.500037,31.436501 z"
             style="fill:#404040;"/>
          </a>
         </g>
        </svg>
</svg>
