<?xml version="1.0" encoding="UTF-8" standalone="no"?>
<!DOCTYPE svg PUBLIC "-//W3C//DTD SVG 1.1//EN"
 "http://www.w3.org/Graphics/SVG/1.1/DTD/svg11.dtd">
<!-- Generated by graphviz version 2.36.0 (20140111.2315)
 -->
<!-- Title: engine.visuals.elementVisuals.animations.Animator.determineCorrectAnimation Pages: 1 -->
<svg width="942pt" height="248pt"
 viewBox="0.00 0.00 942.00 248.00" xmlns="http://www.w3.org/2000/svg" xmlns:xlink="http://www.w3.org/1999/xlink">
<g id="graph0" class="graph" transform="scale(1 1) rotate(0) translate(4 244)">
<title>engine.visuals.elementVisuals.animations.Animator.determineCorrectAnimation</title>
<polygon fill="white" stroke="none" points="-4,4 -4,-244 938,-244 938,4 -4,4"/>
<!-- Node1 -->
<g id="node1" class="node"><title>Node1</title>
<polygon fill="#bfbfbf" stroke="black" points="0,-98 0,-128 220,-128 220,-98 0,-98"/>
<text text-anchor="start" x="8" y="-116" font-family="Helvetica,sans-Serif" font-size="10.00">engine.visuals.elementVisuals.animations.</text>
<text text-anchor="middle" x="110" y="-105" font-family="Helvetica,sans-Serif" font-size="10.00">Animator.determineCorrectAnimation</text>
</g>
<!-- Node2 -->
<g id="node2" class="node"><title>Node2</title>
<g id="a_node2"><a xlink:href="../../d9/d50/classengine_1_1visuals_1_1element_visuals_1_1animations_1_1_animator.html#a100e616a39dfaf960317c145a4f985d4" target="_top" xlink:title="engine.visuals.elementVisuals.animations.\lAnimator.determineAnimationDirection">
<polygon fill="white" stroke="black" points="256,-199 256,-229 476,-229 476,-199 256,-199"/>
<text text-anchor="start" x="264" y="-217" font-family="Helvetica,sans-Serif" font-size="10.00">engine.visuals.elementVisuals.animations.</text>
<text text-anchor="middle" x="366" y="-206" font-family="Helvetica,sans-Serif" font-size="10.00">Animator.determineAnimationDirection</text>
</a>
</g>
</g>
<!-- Node1&#45;&gt;Node2 -->
<g id="edge1" class="edge"><title>Node1&#45;&gt;Node2</title>
<path fill="none" stroke="midnightblue" d="M136.694,-128.069C165.099,-144.216 212.592,-169.714 256,-186 266.014,-189.757 276.729,-193.188 287.388,-196.259"/>
<polygon fill="midnightblue" stroke="midnightblue" points="286.567,-199.664 297.14,-198.979 288.447,-192.921 286.567,-199.664"/>
</g>
<!-- Node5 -->
<g id="node5" class="node"><title>Node5</title>
<g id="a_node5"><a xlink:href="../../d9/d50/classengine_1_1visuals_1_1element_visuals_1_1animations_1_1_animator.html#a5ab8d0c347b91ee248c5d981b0502b12" target="_top" xlink:title="engine.visuals.elementVisuals.animations.\lAnimator.determineAnimationType">
<polygon fill="white" stroke="black" points="256,-147 256,-177 476,-177 476,-147 256,-147"/>
<text text-anchor="start" x="264" y="-165" font-family="Helvetica,sans-Serif" font-size="10.00">engine.visuals.elementVisuals.animations.</text>
<text text-anchor="middle" x="366" y="-154" font-family="Helvetica,sans-Serif" font-size="10.00">Animator.determineAnimationType</text>
</a>
</g>
</g>
<!-- Node1&#45;&gt;Node5 -->
<g id="edge4" class="edge"><title>Node1&#45;&gt;Node5</title>
<path fill="none" stroke="midnightblue" d="M188.935,-128.035C216.851,-133.42 248.504,-139.526 277.198,-145.062"/>
<polygon fill="midnightblue" stroke="midnightblue" points="276.731,-148.536 287.213,-146.994 278.057,-141.663 276.731,-148.536"/>
</g>
<!-- Node7 -->
<g id="node7" class="node"><title>Node7</title>
<g id="a_node7"><a xlink:href="../../d2/d9b/classengine_1_1visuals_1_1element_visuals_1_1animations_1_1_animation_sequence.html#ae4fb60718e6b1f08f62c8ef19d5be53e" target="_top" xlink:title="engine.visuals.elementVisuals.animations.\lAnimationSequence.equals">
<polygon fill="white" stroke="black" points="256,-98 256,-128 476,-128 476,-98 256,-98"/>
<text text-anchor="start" x="264" y="-116" font-family="Helvetica,sans-Serif" font-size="10.00">engine.visuals.elementVisuals.animations.</text>
<text text-anchor="middle" x="366" y="-105" font-family="Helvetica,sans-Serif" font-size="10.00">AnimationSequence.equals</text>
</a>
</g>
</g>
<!-- Node1&#45;&gt;Node7 -->
<g id="edge8" class="edge"><title>Node1&#45;&gt;Node7</title>
<path fill="none" stroke="midnightblue" d="M220.193,-113C228.697,-113 237.311,-113 245.876,-113"/>
<polygon fill="midnightblue" stroke="midnightblue" points="245.899,-116.5 255.899,-113 245.899,-109.5 245.899,-116.5"/>
</g>
<!-- Node9 -->
<g id="node9" class="node"><title>Node9</title>
<g id="a_node9"><a xlink:href="../../d5/d66/classengine_1_1visuals_1_1element_visuals_1_1animations_1_1_animator_state.html#a7635c43221365f249a37be0cd3815905" target="_top" xlink:title="engine.visuals.elementVisuals.animations.\lAnimatorState.getAnimationSequence">
<polygon fill="white" stroke="black" points="256,-49 256,-79 476,-79 476,-49 256,-49"/>
<text text-anchor="start" x="264" y="-67" font-family="Helvetica,sans-Serif" font-size="10.00">engine.visuals.elementVisuals.animations.</text>
<text text-anchor="middle" x="366" y="-56" font-family="Helvetica,sans-Serif" font-size="10.00">AnimatorState.getAnimationSequence</text>
</a>
</g>
</g>
<!-- Node1&#45;&gt;Node9 -->
<g id="edge10" class="edge"><title>Node1&#45;&gt;Node9</title>
<path fill="none" stroke="midnightblue" d="M188.935,-97.9654C216.851,-92.58 248.504,-86.4736 277.198,-80.9382"/>
<polygon fill="midnightblue" stroke="midnightblue" points="278.057,-84.3371 287.213,-79.0062 276.731,-77.4638 278.057,-84.3371"/>
</g>
<!-- Node10 -->
<g id="node10" class="node"><title>Node10</title>
<g id="a_node10"><a xlink:href="../../d2/d9b/classengine_1_1visuals_1_1element_visuals_1_1animations_1_1_animation_sequence.html#aabb112caa8e570bdcad2dcf319d08d28" target="_top" xlink:title="engine.visuals.elementVisuals.animations.\lAnimationSequence.reset">
<polygon fill="white" stroke="black" points="256,-0 256,-30 476,-30 476,-0 256,-0"/>
<text text-anchor="start" x="264" y="-18" font-family="Helvetica,sans-Serif" font-size="10.00">engine.visuals.elementVisuals.animations.</text>
<text text-anchor="middle" x="366" y="-7" font-family="Helvetica,sans-Serif" font-size="10.00">AnimationSequence.reset</text>
</a>
</g>
</g>
<!-- Node1&#45;&gt;Node10 -->
<g id="edge11" class="edge"><title>Node1&#45;&gt;Node10</title>
<path fill="none" stroke="midnightblue" d="M135.789,-97.8644C163.98,-81.2496 211.838,-54.8361 256,-39 262.311,-36.7369 268.908,-34.6471 275.597,-32.7251"/>
<polygon fill="midnightblue" stroke="midnightblue" points="276.721,-36.0461 285.441,-30.0286 274.872,-29.2947 276.721,-36.0461"/>
</g>
<!-- Node3 -->
<g id="node3" class="node"><title>Node3</title>
<g id="a_node3"><a xlink:href="../../da/dc5/classmodel_1_1state_1_1gameelement_1_1_attribute_container.html#a5f0e6026d1877c9e4f04fe389163970c" target="_top" xlink:title="model.state.gameelement.\lAttributeContainer.getNumerical\lAttribute">
<polygon fill="white" stroke="black" points="536,-198.5 536,-239.5 708,-239.5 708,-198.5 536,-198.5"/>
<text text-anchor="start" x="544" y="-227.5" font-family="Helvetica,sans-Serif" font-size="10.00">model.state.gameelement.</text>
<text text-anchor="start" x="544" y="-216.5" font-family="Helvetica,sans-Serif" font-size="10.00">AttributeContainer.getNumerical</text>
<text text-anchor="middle" x="622" y="-205.5" font-family="Helvetica,sans-Serif" font-size="10.00">Attribute</text>
</a>
</g>
</g>
<!-- Node2&#45;&gt;Node3 -->
<g id="edge2" class="edge"><title>Node2&#45;&gt;Node3</title>
<path fill="none" stroke="midnightblue" d="M476.193,-216.149C492.517,-216.471 509.242,-216.8 525.259,-217.115"/>
<polygon fill="midnightblue" stroke="midnightblue" points="525.604,-220.623 535.671,-217.32 525.742,-213.624 525.604,-220.623"/>
</g>
<!-- Node4 -->
<g id="node4" class="node"><title>Node4</title>
<g id="a_node4"><a xlink:href="../../da/dc5/classmodel_1_1state_1_1gameelement_1_1_attribute_container.html#a59a08ce23cf989feca0a78b2642364d4" target="_top" xlink:title="model.state.gameelement.\lAttributeContainer.getAttribute">
<polygon fill="white" stroke="black" points="768.5,-174 768.5,-204 933.5,-204 933.5,-174 768.5,-174"/>
<text text-anchor="start" x="776.5" y="-192" font-family="Helvetica,sans-Serif" font-size="10.00">model.state.gameelement.</text>
<text text-anchor="middle" x="851" y="-181" font-family="Helvetica,sans-Serif" font-size="10.00">AttributeContainer.getAttribute</text>
</a>
</g>
</g>
<!-- Node3&#45;&gt;Node4 -->
<g id="edge3" class="edge"><title>Node3&#45;&gt;Node4</title>
<path fill="none" stroke="midnightblue" d="M708.172,-207.744C724.529,-205.582 741.724,-203.31 758.277,-201.122"/>
<polygon fill="midnightblue" stroke="midnightblue" points="759.032,-204.553 768.487,-199.773 758.115,-197.613 759.032,-204.553"/>
</g>
<!-- Node5&#45;&gt;Node3 -->
<g id="edge5" class="edge"><title>Node5&#45;&gt;Node3</title>
<path fill="none" stroke="midnightblue" d="M434.068,-177.051C462.184,-183.36 495.386,-190.811 525.947,-197.669"/>
<polygon fill="midnightblue" stroke="midnightblue" points="525.244,-201.098 535.768,-199.873 526.777,-194.268 525.244,-201.098"/>
</g>
<!-- Node6 -->
<g id="node6" class="node"><title>Node6</title>
<g id="a_node6"><a xlink:href="../../da/dc5/classmodel_1_1state_1_1gameelement_1_1_attribute_container.html#a8a042f15b78a8ff954168334572f49ff" target="_top" xlink:title="model.state.gameelement.\lAttributeContainer.getTextual\lAttribute">
<polygon fill="white" stroke="black" points="544,-138.5 544,-179.5 700,-179.5 700,-138.5 544,-138.5"/>
<text text-anchor="start" x="552" y="-167.5" font-family="Helvetica,sans-Serif" font-size="10.00">model.state.gameelement.</text>
<text text-anchor="start" x="552" y="-156.5" font-family="Helvetica,sans-Serif" font-size="10.00">AttributeContainer.getTextual</text>
<text text-anchor="middle" x="622" y="-145.5" font-family="Helvetica,sans-Serif" font-size="10.00">Attribute</text>
</a>
</g>
</g>
<!-- Node5&#45;&gt;Node6 -->
<g id="edge6" class="edge"><title>Node5&#45;&gt;Node6</title>
<path fill="none" stroke="midnightblue" d="M476.193,-160.71C495.366,-160.484 515.091,-160.251 533.574,-160.033"/>
<polygon fill="midnightblue" stroke="midnightblue" points="533.745,-163.531 543.703,-159.913 533.662,-156.531 533.745,-163.531"/>
</g>
<!-- Node6&#45;&gt;Node4 -->
<g id="edge7" class="edge"><title>Node6&#45;&gt;Node4</title>
<path fill="none" stroke="midnightblue" d="M700.169,-169.198C718.885,-171.672 739.075,-174.34 758.386,-176.892"/>
<polygon fill="midnightblue" stroke="midnightblue" points="758.019,-180.374 768.392,-178.215 758.936,-173.435 758.019,-180.374"/>
</g>
<!-- Node8 -->
<g id="node8" class="node"><title>Node8</title>
<g id="a_node8"><a xlink:href="../../d2/d9b/classengine_1_1visuals_1_1element_visuals_1_1animations_1_1_animation_sequence.html#a263163a9b3773ee35e5b83cc88e71172" target="_top" xlink:title="engine.visuals.elementVisuals.animations.\lAnimationSequence.hashCode">
<polygon fill="white" stroke="black" points="512,-90 512,-120 732,-120 732,-90 512,-90"/>
<text text-anchor="start" x="520" y="-108" font-family="Helvetica,sans-Serif" font-size="10.00">engine.visuals.elementVisuals.animations.</text>
<text text-anchor="middle" x="622" y="-97" font-family="Helvetica,sans-Serif" font-size="10.00">AnimationSequence.hashCode</text>
</a>
</g>
</g>
<!-- Node7&#45;&gt;Node8 -->
<g id="edge9" class="edge"><title>Node7&#45;&gt;Node8</title>
<path fill="none" stroke="midnightblue" d="M476.193,-109.561C484.697,-109.293 493.311,-109.022 501.876,-108.752"/>
<polygon fill="midnightblue" stroke="midnightblue" points="502.014,-112.249 511.899,-108.436 501.794,-105.253 502.014,-112.249"/>
</g>
</g>
</svg>
