<?xml version="1.0" encoding="UTF-8" standalone="no"?>
<!DOCTYPE svg PUBLIC "-//W3C//DTD SVG 1.1//EN"
 "http://www.w3.org/Graphics/SVG/1.1/DTD/svg11.dtd">
<!-- Generated by graphviz version 2.36.0 (20140111.2315)
 -->
<!-- Title: engine.visuals.elementVisuals.animations.Animator.getViewportSize Pages: 1 -->
<svg width="672pt" height="48pt"
 viewBox="0.00 0.00 672.00 48.00" xmlns="http://www.w3.org/2000/svg" xmlns:xlink="http://www.w3.org/1999/xlink">
<g id="graph0" class="graph" transform="scale(1 1) rotate(0) translate(4 44)">
<title>engine.visuals.elementVisuals.animations.Animator.getViewportSize</title>
<polygon fill="white" stroke="none" points="-4,4 -4,-44 668,-44 668,4 -4,4"/>
<!-- Node1 -->
<g id="node1" class="node"><title>Node1</title>
<polygon fill="#bfbfbf" stroke="black" points="0,-5 0,-35 220,-35 220,-5 0,-5"/>
<text text-anchor="start" x="8" y="-23" font-family="Helvetica,sans-Serif" font-size="10.00">engine.visuals.elementVisuals.animations.</text>
<text text-anchor="middle" x="110" y="-12" font-family="Helvetica,sans-Serif" font-size="10.00">Animator.getViewportSize</text>
</g>
<!-- Node2 -->
<g id="node2" class="node"><title>Node2</title>
<g id="a_node2"><a xlink:href="../../d1/d3d/classengine_1_1visuals_1_1element_visuals_1_1_visualizer.html#a86b606b05e07c022484554409f533599" target="_top" xlink:title="engine.visuals.elementVisuals.\lVisualizer.initializeDisplay">
<polygon fill="white" stroke="black" points="256,-5 256,-35 420,-35 420,-5 256,-5"/>
<text text-anchor="start" x="264" y="-23" font-family="Helvetica,sans-Serif" font-size="10.00">engine.visuals.elementVisuals.</text>
<text text-anchor="middle" x="338" y="-12" font-family="Helvetica,sans-Serif" font-size="10.00">Visualizer.initializeDisplay</text>
</a>
</g>
</g>
<!-- Node1&#45;&gt;Node2 -->
<g id="edge1" class="edge"><title>Node1&#45;&gt;Node2</title>
<path fill="none" stroke="midnightblue" d="M230.221,-20C238.895,-20 247.52,-20 255.89,-20"/>
<polygon fill="midnightblue" stroke="midnightblue" points="230.028,-16.5001 220.028,-20 230.028,-23.5001 230.028,-16.5001"/>
</g>
<!-- Node3 -->
<g id="node3" class="node"><title>Node3</title>
<g id="a_node3"><a xlink:href="../../d8/d2f/classengine_1_1game_representation_1_1rendered_representation_1_1_drawable_game_element.html#a4b23fded7a0bbd7154333b3f3353c686" target="_top" xlink:title="engine.gameRepresentation.rendered\lRepresentation.DrawableGameElement.\lDrawableGameElement">
<polygon fill="white" stroke="black" points="456,0.5 456,-40.5 664,-40.5 664,0.5 456,0.5"/>
<text text-anchor="start" x="464" y="-28.5" font-family="Helvetica,sans-Serif" font-size="10.00">engine.gameRepresentation.rendered</text>
<text text-anchor="start" x="464" y="-17.5" font-family="Helvetica,sans-Serif" font-size="10.00">Representation.DrawableGameElement.</text>
<text text-anchor="middle" x="560" y="-6.5" font-family="Helvetica,sans-Serif" font-size="10.00">DrawableGameElement</text>
</a>
</g>
</g>
<!-- Node2&#45;&gt;Node3 -->
<g id="edge2" class="edge"><title>Node2&#45;&gt;Node3</title>
<path fill="none" stroke="midnightblue" d="M430.48,-20C438.902,-20 447.474,-20 455.989,-20"/>
<polygon fill="midnightblue" stroke="midnightblue" points="430.295,-16.5001 420.295,-20 430.295,-23.5001 430.295,-16.5001"/>
</g>
</g>
</svg>
