<?xml version="1.0" encoding="UTF-8" standalone="no"?>
<!DOCTYPE svg PUBLIC "-//W3C//DTD SVG 1.1//EN"
 "http://www.w3.org/Graphics/SVG/1.1/DTD/svg11.dtd">
<!-- Generated by graphviz version 2.36.0 (20140111.2315)
 -->
<!-- Title: engine.visuals.elementVisuals.animations.Animator.update Pages: 1 -->
<!--zoomable 444 -->
<svg id="main" version="1.1" xmlns="http://www.w3.org/2000/svg" xmlns:xlink="http://www.w3.org/1999/xlink" xml:space="preserve" onload="init(evt)">
<style type="text/css"><![CDATA[
.edge:hover path { stroke: red; }
.edge:hover polygon { stroke: red; fill: red; }
]]></style>
<script type="text/javascript"><![CDATA[
var edges = document.getElementsByTagName('g');
if (edges && edges.length) {
  for (var i=0;i<edges.length;i++) {
    if (edges[i].id.substr(0,4)=='edge') {
      edges[i].setAttribute('class','edge');
    }
  }
}
]]></script>
        <defs>
                <circle id="rim" cx="0" cy="0" r="7"/>
                <circle id="rim2" cx="0" cy="0" r="3.5"/>
                <g id="zoomPlus">
                        <use xlink:href="#rim" fill="#404040">
                                <set attributeName="fill" to="#808080" begin="zoomplus.mouseover" end="zoomplus.mouseout"/>
                        </use>
                        <path d="M-4,0h8M0,-4v8" fill="none" stroke="white" stroke-width="1.5" pointer-events="none"/>
                </g>
                <g id="zoomMin">
                        <use xlink:href="#rim" fill="#404040">
                                <set attributeName="fill" to="#808080" begin="zoomminus.mouseover" end="zoomminus.mouseout"/>
                        </use>
                        <path d="M-4,0h8" fill="none" stroke="white" stroke-width="1.5" pointer-events="none"/>
                </g>
                <g id="dirArrow">
                        <path fill="none" stroke="white" stroke-width="1.5" d="M0,-3.0v7 M-2.5,-0.5L0,-3.0L2.5,-0.5"/>
                </g>
               <g id="resetDef">
                       <use xlink:href="#rim2" fill="#404040">
                               <set attributeName="fill" to="#808080" begin="reset.mouseover" end="reset.mouseout"/>
                       </use>
               </g>
        </defs>

<script type="text/javascript">
var viewWidth = 1198;
var viewHeight = 444;
var sectionId = 'dynsection-18';
</script>
<script xlink:href="../../svgpan.js"/>
<svg id="graph" class="graph">
<g id="viewport">
<title>engine.visuals.elementVisuals.animations.Animator.update</title>
<polygon fill="white" stroke="none" points="-4,4 -4,-440 1194,-440 1194,4 -4,4"/>
<!-- Node1 -->
<g id="node1" class="node"><title>Node1</title>
<polygon fill="#bfbfbf" stroke="black" points="0,-220 0,-250 220,-250 220,-220 0,-220"/>
<text text-anchor="start" x="8" y="-238" font-family="Helvetica,sans-Serif" font-size="10.00">engine.visuals.elementVisuals.animations.</text>
<text text-anchor="middle" x="110" y="-227" font-family="Helvetica,sans-Serif" font-size="10.00">Animator.update</text>
</g>
<!-- Node2 -->
<g id="node2" class="node"><title>Node2</title>
<g id="a_node2"><a xlink:href="../../d9/d50/classengine_1_1visuals_1_1element_visuals_1_1animations_1_1_animator.html#a092ef5ffb3d26308d05dbdb65dc89573" target="_top" xlink:title="engine.visuals.elementVisuals.animations.\lAnimator.determineCorrectAnimation">
<polygon fill="white" stroke="black" points="256,-294 256,-324 476,-324 476,-294 256,-294"/>
<text text-anchor="start" x="264" y="-312" font-family="Helvetica,sans-Serif" font-size="10.00">engine.visuals.elementVisuals.animations.</text>
<text text-anchor="middle" x="366" y="-301" font-family="Helvetica,sans-Serif" font-size="10.00">Animator.determineCorrectAnimation</text>
</a>
</g>
</g>
<!-- Node1&#45;&gt;Node2 -->
<g id="edge1" class="edge"><title>Node1&#45;&gt;Node2</title>
<path fill="none" stroke="midnightblue" d="M151.906,-250.05C180.765,-260.365 220.459,-273.947 256,-284 265.318,-286.636 275.142,-289.193 284.922,-291.603"/>
<polygon fill="midnightblue" stroke="midnightblue" points="284.124,-295.011 294.666,-293.961 285.77,-288.207 284.124,-295.011"/>
</g>
<!-- Node12 -->
<g id="node12" class="node"><title>Node12</title>
<g id="a_node12"><a xlink:href="../../d2/d9b/classengine_1_1visuals_1_1element_visuals_1_1animations_1_1_animation_sequence.html#a9b014ca8d8e9b071086d370623fda6b0" target="_top" xlink:title="engine.visuals.elementVisuals.animations.\lAnimationSequence.getFrame">
<polygon fill="white" stroke="black" points="256,-245 256,-275 476,-275 476,-245 256,-245"/>
<text text-anchor="start" x="264" y="-263" font-family="Helvetica,sans-Serif" font-size="10.00">engine.visuals.elementVisuals.animations.</text>
<text text-anchor="middle" x="366" y="-252" font-family="Helvetica,sans-Serif" font-size="10.00">AnimationSequence.getFrame</text>
</a>
</g>
</g>
<!-- Node1&#45;&gt;Node12 -->
<g id="edge13" class="edge"><title>Node1&#45;&gt;Node12</title>
<path fill="none" stroke="midnightblue" d="M220.193,-245.747C228.697,-246.584 237.311,-247.432 245.876,-248.275"/>
<polygon fill="midnightblue" stroke="midnightblue" points="245.604,-251.765 255.899,-249.262 246.29,-244.799 245.604,-251.765"/>
</g>
<!-- Node13 -->
<g id="node13" class="node"><title>Node13</title>
<g id="a_node13"><a xlink:href="../../d9/d50/classengine_1_1visuals_1_1element_visuals_1_1animations_1_1_animator.html#a98fe0d989e66bb4b49c862e3bd5969b7" target="_top" xlink:title="engine.visuals.elementVisuals.animations.\lAnimator.getViewport">
<polygon fill="white" stroke="black" points="256,-98 256,-128 476,-128 476,-98 256,-98"/>
<text text-anchor="start" x="264" y="-116" font-family="Helvetica,sans-Serif" font-size="10.00">engine.visuals.elementVisuals.animations.</text>
<text text-anchor="middle" x="366" y="-105" font-family="Helvetica,sans-Serif" font-size="10.00">Animator.getViewport</text>
</a>
</g>
</g>
<!-- Node1&#45;&gt;Node13 -->
<g id="edge14" class="edge"><title>Node1&#45;&gt;Node13</title>
<path fill="none" stroke="midnightblue" d="M142.4,-219.918C188.383,-197.832 274.053,-156.683 324.65,-132.381"/>
<polygon fill="midnightblue" stroke="midnightblue" points="326.173,-135.532 333.672,-128.048 323.142,-129.222 326.173,-135.532"/>
</g>
<!-- Node18 -->
<g id="node18" class="node"><title>Node18</title>
<g id="a_node18"><a xlink:href="../../d2/d9b/classengine_1_1visuals_1_1element_visuals_1_1animations_1_1_animation_sequence.html#adb4d206b22721d109e1ccc61939e2f21" target="_top" xlink:title="engine.visuals.elementVisuals.animations.\lAnimationSequence.update">
<polygon fill="white" stroke="black" points="256,-196 256,-226 476,-226 476,-196 256,-196"/>
<text text-anchor="start" x="264" y="-214" font-family="Helvetica,sans-Serif" font-size="10.00">engine.visuals.elementVisuals.animations.</text>
<text text-anchor="middle" x="366" y="-203" font-family="Helvetica,sans-Serif" font-size="10.00">AnimationSequence.update</text>
</a>
</g>
</g>
<!-- Node1&#45;&gt;Node18 -->
<g id="edge19" class="edge"><title>Node1&#45;&gt;Node18</title>
<path fill="none" stroke="midnightblue" d="M220.193,-224.683C228.697,-223.879 237.311,-223.065 245.876,-222.256"/>
<polygon fill="midnightblue" stroke="midnightblue" points="246.273,-225.734 255.899,-221.309 245.614,-218.765 246.273,-225.734"/>
</g>
<!-- Node3 -->
<g id="node3" class="node"><title>Node3</title>
<g id="a_node3"><a xlink:href="../../d9/d50/classengine_1_1visuals_1_1element_visuals_1_1animations_1_1_animator.html#a100e616a39dfaf960317c145a4f985d4" target="_top" xlink:title="engine.visuals.elementVisuals.animations.\lAnimator.determineAnimationDirection">
<polygon fill="white" stroke="black" points="512,-397 512,-427 732,-427 732,-397 512,-397"/>
<text text-anchor="start" x="520" y="-415" font-family="Helvetica,sans-Serif" font-size="10.00">engine.visuals.elementVisuals.animations.</text>
<text text-anchor="middle" x="622" y="-404" font-family="Helvetica,sans-Serif" font-size="10.00">Animator.determineAnimationDirection</text>
</a>
</g>
</g>
<!-- Node2&#45;&gt;Node3 -->
<g id="edge2" class="edge"><title>Node2&#45;&gt;Node3</title>
<path fill="none" stroke="midnightblue" d="M393.008,-324.073C421.488,-340.105 468.865,-365.394 512,-382 523.562,-386.451 536.05,-390.531 548.304,-394.153"/>
<polygon fill="midnightblue" stroke="midnightblue" points="547.481,-397.558 558.059,-396.957 549.415,-390.83 547.481,-397.558"/>
</g>
<!-- Node6 -->
<g id="node6" class="node"><title>Node6</title>
<g id="a_node6"><a xlink:href="../../d9/d50/classengine_1_1visuals_1_1element_visuals_1_1animations_1_1_animator.html#a5ab8d0c347b91ee248c5d981b0502b12" target="_top" xlink:title="engine.visuals.elementVisuals.animations.\lAnimator.determineAnimationType">
<polygon fill="white" stroke="black" points="512,-343 512,-373 732,-373 732,-343 512,-343"/>
<text text-anchor="start" x="520" y="-361" font-family="Helvetica,sans-Serif" font-size="10.00">engine.visuals.elementVisuals.animations.</text>
<text text-anchor="middle" x="622" y="-350" font-family="Helvetica,sans-Serif" font-size="10.00">Animator.determineAnimationType</text>
</a>
</g>
</g>
<!-- Node2&#45;&gt;Node6 -->
<g id="edge5" class="edge"><title>Node2&#45;&gt;Node6</title>
<path fill="none" stroke="midnightblue" d="M444.935,-324.035C472.851,-329.42 504.504,-335.526 533.198,-341.062"/>
<polygon fill="midnightblue" stroke="midnightblue" points="532.731,-344.536 543.213,-342.994 534.057,-337.663 532.731,-344.536"/>
</g>
<!-- Node8 -->
<g id="node8" class="node"><title>Node8</title>
<g id="a_node8"><a xlink:href="../../d2/d9b/classengine_1_1visuals_1_1element_visuals_1_1animations_1_1_animation_sequence.html#ae4fb60718e6b1f08f62c8ef19d5be53e" target="_top" xlink:title="engine.visuals.elementVisuals.animations.\lAnimationSequence.equals">
<polygon fill="white" stroke="black" points="512,-294 512,-324 732,-324 732,-294 512,-294"/>
<text text-anchor="start" x="520" y="-312" font-family="Helvetica,sans-Serif" font-size="10.00">engine.visuals.elementVisuals.animations.</text>
<text text-anchor="middle" x="622" y="-301" font-family="Helvetica,sans-Serif" font-size="10.00">AnimationSequence.equals</text>
</a>
</g>
</g>
<!-- Node2&#45;&gt;Node8 -->
<g id="edge9" class="edge"><title>Node2&#45;&gt;Node8</title>
<path fill="none" stroke="midnightblue" d="M476.193,-309C484.697,-309 493.311,-309 501.876,-309"/>
<polygon fill="midnightblue" stroke="midnightblue" points="501.899,-312.5 511.899,-309 501.899,-305.5 501.899,-312.5"/>
</g>
<!-- Node10 -->
<g id="node10" class="node"><title>Node10</title>
<g id="a_node10"><a xlink:href="../../d5/d66/classengine_1_1visuals_1_1element_visuals_1_1animations_1_1_animator_state.html#a7635c43221365f249a37be0cd3815905" target="_top" xlink:title="engine.visuals.elementVisuals.animations.\lAnimatorState.getAnimationSequence">
<polygon fill="white" stroke="black" points="512,-245 512,-275 732,-275 732,-245 512,-245"/>
<text text-anchor="start" x="520" y="-263" font-family="Helvetica,sans-Serif" font-size="10.00">engine.visuals.elementVisuals.animations.</text>
<text text-anchor="middle" x="622" y="-252" font-family="Helvetica,sans-Serif" font-size="10.00">AnimatorState.getAnimationSequence</text>
</a>
</g>
</g>
<!-- Node2&#45;&gt;Node10 -->
<g id="edge11" class="edge"><title>Node2&#45;&gt;Node10</title>
<path fill="none" stroke="midnightblue" d="M444.935,-293.965C472.851,-288.58 504.504,-282.474 533.198,-276.938"/>
<polygon fill="midnightblue" stroke="midnightblue" points="534.057,-280.337 543.213,-275.006 532.731,-273.464 534.057,-280.337"/>
</g>
<!-- Node11 -->
<g id="node11" class="node"><title>Node11</title>
<g id="a_node11"><a xlink:href="../../d2/d9b/classengine_1_1visuals_1_1element_visuals_1_1animations_1_1_animation_sequence.html#aabb112caa8e570bdcad2dcf319d08d28" target="_top" xlink:title="engine.visuals.elementVisuals.animations.\lAnimationSequence.reset">
<polygon fill="white" stroke="black" points="512,-196 512,-226 732,-226 732,-196 512,-196"/>
<text text-anchor="start" x="520" y="-214" font-family="Helvetica,sans-Serif" font-size="10.00">engine.visuals.elementVisuals.animations.</text>
<text text-anchor="middle" x="622" y="-203" font-family="Helvetica,sans-Serif" font-size="10.00">AnimationSequence.reset</text>
</a>
</g>
</g>
<!-- Node2&#45;&gt;Node11 -->
<g id="edge12" class="edge"><title>Node2&#45;&gt;Node11</title>
<path fill="none" stroke="midnightblue" d="M456.922,-293.962C463.628,-291.181 470.078,-287.891 476,-284 498.585,-269.161 489.351,-249.74 512,-235 514.474,-233.39 517.04,-231.886 519.677,-230.482"/>
<polygon fill="midnightblue" stroke="midnightblue" points="521.377,-233.55 528.893,-226.083 518.361,-227.232 521.377,-233.55"/>
</g>
<!-- Node4 -->
<g id="node4" class="node"><title>Node4</title>
<g id="a_node4"><a xlink:href="../../da/dc5/classmodel_1_1state_1_1gameelement_1_1_attribute_container.html#a5f0e6026d1877c9e4f04fe389163970c" target="_top" xlink:title="model.state.gameelement.\lAttributeContainer.getNumerical\lAttribute">
<polygon fill="white" stroke="black" points="792,-394.5 792,-435.5 964,-435.5 964,-394.5 792,-394.5"/>
<text text-anchor="start" x="800" y="-423.5" font-family="Helvetica,sans-Serif" font-size="10.00">model.state.gameelement.</text>
<text text-anchor="start" x="800" y="-412.5" font-family="Helvetica,sans-Serif" font-size="10.00">AttributeContainer.getNumerical</text>
<text text-anchor="middle" x="878" y="-401.5" font-family="Helvetica,sans-Serif" font-size="10.00">Attribute</text>
</a>
</g>
</g>
<!-- Node3&#45;&gt;Node4 -->
<g id="edge3" class="edge"><title>Node3&#45;&gt;Node4</title>
<path fill="none" stroke="midnightblue" d="M732.193,-413.29C748.517,-413.482 765.242,-413.68 781.259,-413.869"/>
<polygon fill="midnightblue" stroke="midnightblue" points="781.63,-417.374 791.671,-413.992 781.713,-410.374 781.63,-417.374"/>
</g>
<!-- Node5 -->
<g id="node5" class="node"><title>Node5</title>
<g id="a_node5"><a xlink:href="../../da/dc5/classmodel_1_1state_1_1gameelement_1_1_attribute_container.html#a59a08ce23cf989feca0a78b2642364d4" target="_top" xlink:title="model.state.gameelement.\lAttributeContainer.getAttribute">
<polygon fill="white" stroke="black" points="1024.5,-370 1024.5,-400 1189.5,-400 1189.5,-370 1024.5,-370"/>
<text text-anchor="start" x="1032.5" y="-388" font-family="Helvetica,sans-Serif" font-size="10.00">model.state.gameelement.</text>
<text text-anchor="middle" x="1107" y="-377" font-family="Helvetica,sans-Serif" font-size="10.00">AttributeContainer.getAttribute</text>
</a>
</g>
</g>
<!-- Node4&#45;&gt;Node5 -->
<g id="edge4" class="edge"><title>Node4&#45;&gt;Node5</title>
<path fill="none" stroke="midnightblue" d="M964.172,-403.744C980.529,-401.582 997.724,-399.31 1014.28,-397.122"/>
<polygon fill="midnightblue" stroke="midnightblue" points="1015.03,-400.553 1024.49,-395.773 1014.12,-393.613 1015.03,-400.553"/>
</g>
<!-- Node6&#45;&gt;Node4 -->
<g id="edge6" class="edge"><title>Node6&#45;&gt;Node4</title>
<path fill="none" stroke="midnightblue" d="M690.068,-373.051C718.184,-379.36 751.386,-386.811 781.947,-393.669"/>
<polygon fill="midnightblue" stroke="midnightblue" points="781.244,-397.098 791.768,-395.873 782.777,-390.268 781.244,-397.098"/>
</g>
<!-- Node7 -->
<g id="node7" class="node"><title>Node7</title>
<g id="a_node7"><a xlink:href="../../da/dc5/classmodel_1_1state_1_1gameelement_1_1_attribute_container.html#a8a042f15b78a8ff954168334572f49ff" target="_top" xlink:title="model.state.gameelement.\lAttributeContainer.getTextual\lAttribute">
<polygon fill="white" stroke="black" points="800,-334.5 800,-375.5 956,-375.5 956,-334.5 800,-334.5"/>
<text text-anchor="start" x="808" y="-363.5" font-family="Helvetica,sans-Serif" font-size="10.00">model.state.gameelement.</text>
<text text-anchor="start" x="808" y="-352.5" font-family="Helvetica,sans-Serif" font-size="10.00">AttributeContainer.getTextual</text>
<text text-anchor="middle" x="878" y="-341.5" font-family="Helvetica,sans-Serif" font-size="10.00">Attribute</text>
</a>
</g>
</g>
<!-- Node6&#45;&gt;Node7 -->
<g id="edge7" class="edge"><title>Node6&#45;&gt;Node7</title>
<path fill="none" stroke="midnightblue" d="M732.193,-356.71C751.366,-356.484 771.091,-356.251 789.574,-356.033"/>
<polygon fill="midnightblue" stroke="midnightblue" points="789.745,-359.531 799.703,-355.913 789.662,-352.531 789.745,-359.531"/>
</g>
<!-- Node7&#45;&gt;Node5 -->
<g id="edge8" class="edge"><title>Node7&#45;&gt;Node5</title>
<path fill="none" stroke="midnightblue" d="M956.169,-365.198C974.885,-367.672 995.075,-370.34 1014.39,-372.892"/>
<polygon fill="midnightblue" stroke="midnightblue" points="1014.02,-376.374 1024.39,-374.215 1014.94,-369.435 1014.02,-376.374"/>
</g>
<!-- Node9 -->
<g id="node9" class="node"><title>Node9</title>
<g id="a_node9"><a xlink:href="../../d2/d9b/classengine_1_1visuals_1_1element_visuals_1_1animations_1_1_animation_sequence.html#a263163a9b3773ee35e5b83cc88e71172" target="_top" xlink:title="engine.visuals.elementVisuals.animations.\lAnimationSequence.hashCode">
<polygon fill="white" stroke="black" points="768,-286 768,-316 988,-316 988,-286 768,-286"/>
<text text-anchor="start" x="776" y="-304" font-family="Helvetica,sans-Serif" font-size="10.00">engine.visuals.elementVisuals.animations.</text>
<text text-anchor="middle" x="878" y="-293" font-family="Helvetica,sans-Serif" font-size="10.00">AnimationSequence.hashCode</text>
</a>
</g>
</g>
<!-- Node8&#45;&gt;Node9 -->
<g id="edge10" class="edge"><title>Node8&#45;&gt;Node9</title>
<path fill="none" stroke="midnightblue" d="M732.193,-305.561C740.697,-305.293 749.311,-305.022 757.876,-304.752"/>
<polygon fill="midnightblue" stroke="midnightblue" points="758.014,-308.249 767.899,-304.436 757.794,-301.253 758.014,-308.249"/>
</g>
<!-- Node14 -->
<g id="node14" class="node"><title>Node14</title>
<g id="a_node14"><a xlink:href="../../d3/db1/classengine_1_1visuals_1_1_dimension.html#a82ef95c122b8f281e9e1b317f9110d5a" target="_top" xlink:title="engine.visuals.Dimension.get\lHeight">
<polygon fill="white" stroke="black" points="543.5,-147 543.5,-177 700.5,-177 700.5,-147 543.5,-147"/>
<text text-anchor="start" x="551.5" y="-165" font-family="Helvetica,sans-Serif" font-size="10.00">engine.visuals.Dimension.get</text>
<text text-anchor="middle" x="622" y="-154" font-family="Helvetica,sans-Serif" font-size="10.00">Height</text>
</a>
</g>
</g>
<!-- Node13&#45;&gt;Node14 -->
<g id="edge15" class="edge"><title>Node13&#45;&gt;Node14</title>
<path fill="none" stroke="midnightblue" d="M444.935,-128.035C472.851,-133.42 504.504,-139.526 533.198,-145.062"/>
<polygon fill="midnightblue" stroke="midnightblue" points="532.731,-148.536 543.213,-146.994 534.057,-141.663 532.731,-148.536"/>
</g>
<!-- Node15 -->
<g id="node15" class="node"><title>Node15</title>
<g id="a_node15"><a xlink:href="../../d5/d66/classengine_1_1visuals_1_1element_visuals_1_1animations_1_1_animator_state.html#aab31fc22fe93a14c52e8b1af2759b3cb" target="_top" xlink:title="engine.visuals.elementVisuals.animations.\lAnimatorState.getNumRows">
<polygon fill="white" stroke="black" points="512,-98 512,-128 732,-128 732,-98 512,-98"/>
<text text-anchor="start" x="520" y="-116" font-family="Helvetica,sans-Serif" font-size="10.00">engine.visuals.elementVisuals.animations.</text>
<text text-anchor="middle" x="622" y="-105" font-family="Helvetica,sans-Serif" font-size="10.00">AnimatorState.getNumRows</text>
</a>
</g>
</g>
<!-- Node13&#45;&gt;Node15 -->
<g id="edge16" class="edge"><title>Node13&#45;&gt;Node15</title>
<path fill="none" stroke="midnightblue" d="M476.193,-113C484.697,-113 493.311,-113 501.876,-113"/>
<polygon fill="midnightblue" stroke="midnightblue" points="501.899,-116.5 511.899,-113 501.899,-109.5 501.899,-116.5"/>
</g>
<!-- Node16 -->
<g id="node16" class="node"><title>Node16</title>
<g id="a_node16"><a xlink:href="../../d5/d66/classengine_1_1visuals_1_1element_visuals_1_1animations_1_1_animator_state.html#a339c05582a2dafd4ae2d3114a3cc9d22" target="_top" xlink:title="engine.visuals.elementVisuals.animations.\lAnimatorState.getViewportSize">
<polygon fill="white" stroke="black" points="512,-49 512,-79 732,-79 732,-49 512,-49"/>
<text text-anchor="start" x="520" y="-67" font-family="Helvetica,sans-Serif" font-size="10.00">engine.visuals.elementVisuals.animations.</text>
<text text-anchor="middle" x="622" y="-56" font-family="Helvetica,sans-Serif" font-size="10.00">AnimatorState.getViewportSize</text>
</a>
</g>
</g>
<!-- Node13&#45;&gt;Node16 -->
<g id="edge17" class="edge"><title>Node13&#45;&gt;Node16</title>
<path fill="none" stroke="midnightblue" d="M444.935,-97.9654C472.851,-92.58 504.504,-86.4736 533.198,-80.9382"/>
<polygon fill="midnightblue" stroke="midnightblue" points="534.057,-84.3371 543.213,-79.0062 532.731,-77.4638 534.057,-84.3371"/>
</g>
<!-- Node17 -->
<g id="node17" class="node"><title>Node17</title>
<g id="a_node17"><a xlink:href="../../d3/db1/classengine_1_1visuals_1_1_dimension.html#afc3adb9f5b9c7a3b461d2bfb80119b64" target="_top" xlink:title="engine.visuals.Dimension.get\lWidth">
<polygon fill="white" stroke="black" points="543.5,-0 543.5,-30 700.5,-30 700.5,-0 543.5,-0"/>
<text text-anchor="start" x="551.5" y="-18" font-family="Helvetica,sans-Serif" font-size="10.00">engine.visuals.Dimension.get</text>
<text text-anchor="middle" x="622" y="-7" font-family="Helvetica,sans-Serif" font-size="10.00">Width</text>
</a>
</g>
</g>
<!-- Node13&#45;&gt;Node17 -->
<g id="edge18" class="edge"><title>Node13&#45;&gt;Node17</title>
<path fill="none" stroke="midnightblue" d="M391.789,-97.8644C419.98,-81.2496 467.838,-54.8361 512,-39 518.897,-36.5268 526.134,-34.2607 533.461,-32.1943"/>
<polygon fill="midnightblue" stroke="midnightblue" points="534.736,-35.4759 543.485,-29.4997 532.919,-28.716 534.736,-35.4759"/>
</g>
<!-- Node18&#45;&gt;Node11 -->
<g id="edge20" class="edge"><title>Node18&#45;&gt;Node11</title>
<path fill="none" stroke="midnightblue" d="M476.193,-211C484.697,-211 493.311,-211 501.876,-211"/>
<polygon fill="midnightblue" stroke="midnightblue" points="501.899,-214.5 511.899,-211 501.899,-207.5 501.899,-214.5"/>
</g>
</g>
</svg>
        <g id="navigator" transform="translate(0 0)" fill="#404254">
                <rect fill="#f2f5e9" fill-opacity="0.5" stroke="#606060" stroke-width=".5" x="0" y="0" width="60" height="60"/>
                <use id="zoomplus" xlink:href="#zoomPlus" x="17" y="9" onmousedown="handleZoom(evt,'in')"/>
                <use id="zoomminus" xlink:href="#zoomMin" x="42" y="9" onmousedown="handleZoom(evt,'out')"/>
                <use id="reset" xlink:href="#resetDef" x="30" y="36" onmousedown="handleReset()"/>
                <g id="arrowUp" xlink:href="#dirArrow" transform="translate(30 24)" onmousedown="handlePan(0,-1)">
                  <use xlink:href="#rim" fill="#404040">
                        <set attributeName="fill" to="#808080" begin="arrowUp.mouseover" end="arrowUp.mouseout"/>
                  </use>
                  <path fill="none" stroke="white" stroke-width="1.5" d="M0,-3.0v7 M-2.5,-0.5L0,-3.0L2.5,-0.5"/>
                </g>
                <g id="arrowRight" xlink:href="#dirArrow" transform="rotate(90) translate(36 -43)" onmousedown="handlePan(1,0)">
                  <use xlink:href="#rim" fill="#404040">
                        <set attributeName="fill" to="#808080" begin="arrowRight.mouseover" end="arrowRight.mouseout"/>
                  </use>
                  <path fill="none" stroke="white" stroke-width="1.5" d="M0,-3.0v7 M-2.5,-0.5L0,-3.0L2.5,-0.5"/>
                </g>
                <g id="arrowDown" xlink:href="#dirArrow" transform="rotate(180) translate(-30 -48)" onmousedown="handlePan(0,1)">
                  <use xlink:href="#rim" fill="#404040">
                        <set attributeName="fill" to="#808080" begin="arrowDown.mouseover" end="arrowDown.mouseout"/>
                  </use>
                  <path fill="none" stroke="white" stroke-width="1.5" d="M0,-3.0v7 M-2.5,-0.5L0,-3.0L2.5,-0.5"/>
                </g>
                <g id="arrowLeft" xlink:href="#dirArrow" transform="rotate(270) translate(-36 17)" onmousedown="handlePan(-1,0)">
                  <use xlink:href="#rim" fill="#404040">
                        <set attributeName="fill" to="#808080" begin="arrowLeft.mouseover" end="arrowLeft.mouseout"/>
                  </use>
                  <path fill="none" stroke="white" stroke-width="1.5" d="M0,-3.0v7 M-2.5,-0.5L0,-3.0L2.5,-0.5"/>
                </g>
        </g>
        <svg viewBox="0 0 15 15" width="100%" height="30px" preserveAspectRatio="xMaxYMin meet">
         <g id="arrow_out" transform="scale(0.3 0.3)">
          <a xlink:href="classengine_1_1visuals_1_1element_visuals_1_1animations_1_1_animator_ad526dc47f566d23d4069513fc0731b41_cgraph_org.svg" target="_base">
           <rect id="button" ry="5" rx="5" y="6" x="6" height="38" width="38"
                fill="#f2f5e9" fill-opacity="0.5" stroke="#606060" stroke-width="1.0"/>
           <path id="arrow"
             d="M 11.500037,31.436501 C 11.940474,20.09759 22.043105,11.32322 32.158766,21.979434 L 37.068811,17.246167 C 37.068811,17.246167 37.088388,32 37.088388,32 L 22.160133,31.978069 C 22.160133,31.978069 26.997745,27.140456 26.997745,27.140456 C 18.528582,18.264221 13.291696,25.230495 11.500037,31.436501 z"
             style="fill:#404040;"/>
          </a>
         </g>
        </svg>
</svg>
