<?xml version="1.0" encoding="UTF-8" standalone="no"?>
<!DOCTYPE svg PUBLIC "-//W3C//DTD SVG 1.1//EN"
 "http://www.w3.org/Graphics/SVG/1.1/DTD/svg11.dtd">
<!-- Generated by graphviz version 2.36.0 (20140111.2315)
 -->
<!-- Title: model.state.LevelState Pages: 1 -->
<svg width="742pt" height="311pt"
 viewBox="0.00 0.00 742.00 311.00" xmlns="http://www.w3.org/2000/svg" xmlns:xlink="http://www.w3.org/1999/xlink">
<g id="graph0" class="graph" transform="scale(1 1) rotate(0) translate(4 307)">
<title>model.state.LevelState</title>
<polygon fill="white" stroke="none" points="-4,4 -4,-307 738,-307 738,4 -4,4"/>
<!-- Node1 -->
<g id="node1" class="node"><title>Node1</title>
<polygon fill="#bfbfbf" stroke="black" points="606,-152.5 606,-171.5 734,-171.5 734,-152.5 606,-152.5"/>
<text text-anchor="middle" x="670" y="-159.5" font-family="Helvetica,sans-Serif" font-size="10.00">model.state.LevelState</text>
</g>
<!-- Node2 -->
<g id="node2" class="node"><title>Node2</title>
<g id="a_node2"><a xlink:href="../../dc/d74/classmodel_1_1state_1_1_describable_state.html" target="_top" xlink:title="model.state.DescribableState">
<polygon fill="white" stroke="black" points="336,-272.5 336,-291.5 496,-291.5 496,-272.5 336,-272.5"/>
<text text-anchor="middle" x="416" y="-279.5" font-family="Helvetica,sans-Serif" font-size="10.00">model.state.DescribableState</text>
</a>
</g>
</g>
<!-- Node2&#45;&gt;Node1 -->
<g id="edge1" class="edge"><title>Node2&#45;&gt;Node1</title>
<path fill="none" stroke="midnightblue" d="M506.417,-277.59C533.882,-273.34 563.343,-265.657 588,-252 623.858,-232.138 652.086,-190.315 663.503,-171.512"/>
<polygon fill="midnightblue" stroke="midnightblue" points="505.813,-274.141 496.401,-279.006 506.792,-281.072 505.813,-274.141"/>
</g>
<!-- Node3 -->
<g id="node3" class="node"><title>Node3</title>
<g id="a_node3"><a xlink:href="../../df/d74/interfaceutil_1_1_j_s_o_nable.html" target="_top" xlink:title="util.JSONable">
<polygon fill="white" stroke="black" points="49,-283.5 49,-302.5 127,-302.5 127,-283.5 49,-283.5"/>
<text text-anchor="middle" x="88" y="-290.5" font-family="Helvetica,sans-Serif" font-size="10.00">util.JSONable</text>
</a>
</g>
</g>
<!-- Node3&#45;&gt;Node2 -->
<g id="edge2" class="edge"><title>Node3&#45;&gt;Node2</title>
<path fill="none" stroke="midnightblue" d="M137.378,-294.037C182.175,-294.7 250.629,-294.955 310,-292 318.413,-291.581 327.193,-290.99 335.936,-290.302"/>
<polygon fill="midnightblue" stroke="midnightblue" points="137.411,-290.538 127.356,-293.877 137.299,-297.537 137.411,-290.538"/>
</g>
<!-- Node11 -->
<g id="node11" class="node"><title>Node11</title>
<g id="a_node11"><a xlink:href="../../d0/d5f/classmodel_1_1state_1_1_level_identifier.html" target="_top" xlink:title="model.state.LevelIdentifier">
<polygon fill="white" stroke="black" points="344.5,-234.5 344.5,-253.5 487.5,-253.5 487.5,-234.5 344.5,-234.5"/>
<text text-anchor="middle" x="416" y="-241.5" font-family="Helvetica,sans-Serif" font-size="10.00">model.state.LevelIdentifier</text>
</a>
</g>
</g>
<!-- Node3&#45;&gt;Node11 -->
<g id="edge14" class="edge"><title>Node3&#45;&gt;Node11</title>
<path fill="none" stroke="midnightblue" d="M137.192,-285.756C194.035,-277.213 288.72,-262.981 351.503,-253.544"/>
<polygon fill="midnightblue" stroke="midnightblue" points="136.403,-282.336 127.034,-287.283 137.444,-289.258 136.403,-282.336"/>
</g>
<!-- Node4 -->
<g id="node4" class="node"><title>Node4</title>
<polygon fill="white" stroke="#bfbfbf" points="52.5,-209.5 52.5,-228.5 123.5,-228.5 123.5,-209.5 52.5,-209.5"/>
<text text-anchor="middle" x="88" y="-216.5" font-family="Helvetica,sans-Serif" font-size="10.00">Serializable</text>
</g>
<!-- Node4&#45;&gt;Node1 -->
<g id="edge4" class="edge"><title>Node4&#45;&gt;Node1</title>
<path fill="none" stroke="midnightblue" d="M133.918,-215.833C210.094,-210.372 369.46,-198.554 504,-186 541.385,-182.512 550.847,-182.422 588,-177 598.614,-175.451 609.961,-173.522 620.7,-171.569"/>
<polygon fill="midnightblue" stroke="midnightblue" points="133.458,-212.357 123.733,-216.561 133.957,-219.339 133.458,-212.357"/>
</g>
<!-- Node4&#45;&gt;Node2 -->
<g id="edge3" class="edge"><title>Node4&#45;&gt;Node2</title>
<path fill="none" stroke="midnightblue" d="M133.888,-229.211C152.461,-233.337 174.237,-238.048 194,-242 250.014,-253.2 314.293,-264.681 359.033,-272.453"/>
<polygon fill="midnightblue" stroke="midnightblue" points="134.455,-225.752 123.933,-226.987 132.929,-232.583 134.455,-225.752"/>
</g>
<!-- Node5 -->
<g id="node5" class="node"><title>Node5</title>
<g id="a_node5"><a xlink:href="../../da/dc5/classmodel_1_1state_1_1gameelement_1_1_attribute_container.html" target="_top" xlink:title="model.state.gameelement.\lAttributeContainer">
<polygon fill="white" stroke="black" points="342,-147 342,-177 490,-177 490,-147 342,-147"/>
<text text-anchor="start" x="350" y="-165" font-family="Helvetica,sans-Serif" font-size="10.00">model.state.gameelement.</text>
<text text-anchor="middle" x="416" y="-154" font-family="Helvetica,sans-Serif" font-size="10.00">AttributeContainer</text>
</a>
</g>
</g>
<!-- Node4&#45;&gt;Node5 -->
<g id="edge6" class="edge"><title>Node4&#45;&gt;Node5</title>
<path fill="none" stroke="midnightblue" d="M133.806,-207.964C152.366,-203.6 174.155,-198.744 194,-195 243.081,-185.74 298.693,-177.448 341.852,-171.491"/>
<polygon fill="midnightblue" stroke="midnightblue" points="132.78,-204.611 123.86,-210.328 134.398,-211.421 132.78,-204.611"/>
</g>
<!-- Node4&#45;&gt;Node11 -->
<g id="edge13" class="edge"><title>Node4&#45;&gt;Node11</title>
<path fill="none" stroke="midnightblue" d="M133.584,-222.419C187.876,-226.583 280.241,-233.666 344.275,-238.576"/>
<polygon fill="midnightblue" stroke="midnightblue" points="133.817,-218.927 123.579,-221.652 133.282,-225.906 133.817,-218.927"/>
</g>
<!-- Node5&#45;&gt;Node1 -->
<g id="edge5" class="edge"><title>Node5&#45;&gt;Node1</title>
<path fill="none" stroke="#9a32cd" stroke-dasharray="5,2" d="M500.262,-162C534.662,-162 573.883,-162 605.849,-162"/>
<polygon fill="#9a32cd" stroke="#9a32cd" points="500.227,-158.5 490.227,-162 500.227,-165.5 500.227,-158.5"/>
<text text-anchor="middle" x="555" y="-165" font-family="Helvetica,sans-Serif" font-size="10.00"> myAttributes</text>
</g>
<!-- Node6 -->
<g id="node6" class="node"><title>Node6</title>
<polygon fill="white" stroke="#bfbfbf" points="0,-140 0,-170 176,-170 176,-140 0,-140"/>
<text text-anchor="start" x="8" y="-158" font-family="Helvetica,sans-Serif" font-size="10.00">Set&lt; model.state.gameelement.</text>
<text text-anchor="middle" x="88" y="-147" font-family="Helvetica,sans-Serif" font-size="10.00">Attribute&lt; String &gt; &gt;</text>
</g>
<!-- Node6&#45;&gt;Node5 -->
<g id="edge7" class="edge"><title>Node6&#45;&gt;Node5</title>
<path fill="none" stroke="#9a32cd" stroke-dasharray="5,2" d="M186.313,-154.338C224.839,-154.364 269.515,-154.753 310,-156 320.311,-156.318 331.186,-156.787 341.872,-157.327"/>
<polygon fill="#9a32cd" stroke="#9a32cd" points="186.139,-150.838 176.139,-154.339 186.14,-157.838 186.139,-150.838"/>
<text text-anchor="middle" x="252" y="-159" font-family="Helvetica,sans-Serif" font-size="10.00"> myTextualAttributes</text>
</g>
<!-- Node7 -->
<g id="node7" class="node"><title>Node7</title>
<polygon fill="white" stroke="#bfbfbf" points="0,-91 0,-121 176,-121 176,-91 0,-91"/>
<text text-anchor="start" x="8" y="-109" font-family="Helvetica,sans-Serif" font-size="10.00">Set&lt; model.state.gameelement.</text>
<text text-anchor="middle" x="88" y="-98" font-family="Helvetica,sans-Serif" font-size="10.00">Attribute&lt; Number &gt; &gt;</text>
</g>
<!-- Node7&#45;&gt;Node5 -->
<g id="edge8" class="edge"><title>Node7&#45;&gt;Node5</title>
<path fill="none" stroke="#9a32cd" stroke-dasharray="5,2" d="M186.231,-119.802C224.837,-125.584 269.591,-132.664 310,-140 321.637,-142.113 333.961,-144.531 345.915,-146.973"/>
<polygon fill="#9a32cd" stroke="#9a32cd" points="186.442,-116.295 176.036,-118.284 185.411,-123.219 186.442,-116.295"/>
<text text-anchor="middle" x="252" y="-143" font-family="Helvetica,sans-Serif" font-size="10.00"> myNumericalAttributes</text>
</g>
<!-- Node8 -->
<g id="node8" class="node"><title>Node8</title>
<polygon fill="white" stroke="#bfbfbf" points="328,-98 328,-128 504,-128 504,-98 328,-98"/>
<text text-anchor="start" x="336" y="-116" font-family="Helvetica,sans-Serif" font-size="10.00">List&lt; model.state.gameelement.</text>
<text text-anchor="middle" x="416" y="-105" font-family="Helvetica,sans-Serif" font-size="10.00">GameElementState &gt;</text>
</g>
<!-- Node8&#45;&gt;Node1 -->
<g id="edge9" class="edge"><title>Node8&#45;&gt;Node1</title>
<path fill="none" stroke="#9a32cd" stroke-dasharray="5,2" d="M504.549,-130.023C543.223,-137.543 587.242,-146.103 619.999,-152.472"/>
<polygon fill="#9a32cd" stroke="#9a32cd" points="504.805,-126.508 494.321,-128.035 503.469,-133.379 504.805,-126.508"/>
<text text-anchor="middle" x="555" y="-150" font-family="Helvetica,sans-Serif" font-size="10.00"> myGoals</text>
</g>
<!-- Node9 -->
<g id="node9" class="node"><title>Node9</title>
<polygon fill="white" stroke="#bfbfbf" points="328,-49 328,-79 504,-79 504,-49 328,-49"/>
<text text-anchor="start" x="336" y="-67" font-family="Helvetica,sans-Serif" font-size="10.00">List&lt; model.state.gameelement.</text>
<text text-anchor="middle" x="416" y="-56" font-family="Helvetica,sans-Serif" font-size="10.00">DrawableGameElementState &gt;</text>
</g>
<!-- Node9&#45;&gt;Node1 -->
<g id="edge10" class="edge"><title>Node9&#45;&gt;Node1</title>
<path fill="none" stroke="#9a32cd" stroke-dasharray="5,2" d="M484.479,-81.9336C491.101,-83.8973 497.697,-85.9353 504,-88 541.965,-100.437 551.541,-103.667 588,-120 610.552,-130.103 635.697,-143.489 651.9,-152.405"/>
<polygon fill="#9a32cd" stroke="#9a32cd" points="485.371,-78.5481 474.792,-79.1151 483.416,-85.2694 485.371,-78.5481"/>
<text text-anchor="middle" x="555" y="-123" font-family="Helvetica,sans-Serif" font-size="10.00"> myTerrains</text>
</g>
<!-- Node10 -->
<g id="node10" class="node"><title>Node10</title>
<polygon fill="white" stroke="#bfbfbf" points="328,-0 328,-30 504,-30 504,-0 328,-0"/>
<text text-anchor="start" x="336" y="-18" font-family="Helvetica,sans-Serif" font-size="10.00">List&lt; model.state.gameelement.</text>
<text text-anchor="middle" x="416" y="-7" font-family="Helvetica,sans-Serif" font-size="10.00">SelectableGameElementState &gt;</text>
</g>
<!-- Node10&#45;&gt;Node1 -->
<g id="edge11" class="edge"><title>Node10&#45;&gt;Node1</title>
<path fill="none" stroke="#9a32cd" stroke-dasharray="5,2" d="M489.952,-33.014C521.954,-43.172 558.796,-58.1064 588,-79 618.949,-101.142 648.35,-135.83 661.619,-152.47"/>
<polygon fill="#9a32cd" stroke="#9a32cd" points="490.777,-29.6059 480.19,-30.0135 488.721,-36.297 490.777,-29.6059"/>
<text text-anchor="middle" x="555" y="-82" font-family="Helvetica,sans-Serif" font-size="10.00"> myUnits</text>
</g>
<!-- Node11&#45;&gt;Node1 -->
<g id="edge12" class="edge"><title>Node11&#45;&gt;Node1</title>
<path fill="none" stroke="#9a32cd" stroke-dasharray="5,2" d="M497.735,-239.994C526.953,-236.54 559.702,-230.276 588,-219 616.114,-207.797 643.856,-185.057 658.45,-171.938"/>
<polygon fill="#9a32cd" stroke="#9a32cd" points="497.123,-236.54 487.56,-241.102 497.881,-243.499 497.123,-236.54"/>
<text text-anchor="middle" x="555" y="-240" font-family="Helvetica,sans-Serif" font-size="10.00"> myIdentifier</text>
</g>
</g>
</svg>
