<?xml version="1.0" encoding="UTF-8" standalone="no"?>
<!DOCTYPE svg PUBLIC "-//W3C//DTD SVG 1.1//EN"
 "http://www.w3.org/Graphics/SVG/1.1/DTD/svg11.dtd">
<!-- Generated by graphviz version 2.36.0 (20140111.2315)
 -->
<!-- Title: engine.gameRepresentation.evaluatables.parameters.ParameterFactory.createParameter Pages: 1 -->
<svg width="914pt" height="87pt"
 viewBox="0.00 0.00 914.00 87.00" xmlns="http://www.w3.org/2000/svg" xmlns:xlink="http://www.w3.org/1999/xlink">
<g id="graph0" class="graph" transform="scale(1 1) rotate(0) translate(4 83)">
<title>engine.gameRepresentation.evaluatables.parameters.ParameterFactory.createParameter</title>
<polygon fill="white" stroke="none" points="-4,4 -4,-83 910,-83 910,4 -4,4"/>
<!-- Node1 -->
<g id="node1" class="node"><title>Node1</title>
<polygon fill="#bfbfbf" stroke="black" points="0,-24 0,-54 278,-54 278,-24 0,-24"/>
<text text-anchor="start" x="8" y="-42" font-family="Helvetica,sans-Serif" font-size="10.00">engine.gameRepresentation.evaluatables.parameters.</text>
<text text-anchor="middle" x="139" y="-31" font-family="Helvetica,sans-Serif" font-size="10.00">ParameterFactory.createParameter</text>
</g>
<!-- Node2 -->
<g id="node2" class="node"><title>Node2</title>
<g id="a_node2"><a xlink:href="../../db/dd3/classengine_1_1game_representation_1_1evaluatables_1_1parameters_1_1_parameter_factory.html#af2f574e7cd56395e9d9a1af32237e934" target="_top" xlink:title="engine.gameRepresentation.evaluatables.parameters.\lParameterFactory.getObjectOfInterestIdentifier">
<polygon fill="white" stroke="black" points="314,-49 314,-79 592,-79 592,-49 314,-49"/>
<text text-anchor="start" x="322" y="-67" font-family="Helvetica,sans-Serif" font-size="10.00">engine.gameRepresentation.evaluatables.parameters.</text>
<text text-anchor="middle" x="453" y="-56" font-family="Helvetica,sans-Serif" font-size="10.00">ParameterFactory.getObjectOfInterestIdentifier</text>
</a>
</g>
</g>
<!-- Node1&#45;&gt;Node2 -->
<g id="edge1" class="edge"><title>Node1&#45;&gt;Node2</title>
<path fill="none" stroke="midnightblue" d="M278.21,-50.0745C286.554,-50.7431 294.966,-51.4171 303.35,-52.0889"/>
<polygon fill="midnightblue" stroke="midnightblue" points="303.308,-55.5967 313.555,-52.9067 303.867,-48.6191 303.308,-55.5967"/>
</g>
<!-- Node4 -->
<g id="node4" class="node"><title>Node4</title>
<g id="a_node4"><a xlink:href="../../db/dd3/classengine_1_1game_representation_1_1evaluatables_1_1parameters_1_1_parameter_factory.html#a545cb84d00d814dd28e85f0ff07dffc2" target="_top" xlink:title="engine.gameRepresentation.evaluatables.parameters.\lParameterFactory.makeParameter">
<polygon fill="white" stroke="black" points="314,-0 314,-30 592,-30 592,-0 314,-0"/>
<text text-anchor="start" x="322" y="-18" font-family="Helvetica,sans-Serif" font-size="10.00">engine.gameRepresentation.evaluatables.parameters.</text>
<text text-anchor="middle" x="453" y="-7" font-family="Helvetica,sans-Serif" font-size="10.00">ParameterFactory.makeParameter</text>
</a>
</g>
</g>
<!-- Node1&#45;&gt;Node4 -->
<g id="edge3" class="edge"><title>Node1&#45;&gt;Node4</title>
<path fill="none" stroke="midnightblue" d="M278.21,-28.3684C286.554,-27.7266 294.966,-27.0796 303.35,-26.4346"/>
<polygon fill="midnightblue" stroke="midnightblue" points="303.853,-29.9063 313.555,-25.6496 303.316,-22.9269 303.853,-29.9063"/>
</g>
<!-- Node3 -->
<g id="node3" class="node"><title>Node3</title>
<g id="a_node3"><a xlink:href="../../db/dd3/classengine_1_1game_representation_1_1evaluatables_1_1parameters_1_1_parameter_factory.html#a3ef2435879667780e7e466620041f87f" target="_top" xlink:title="engine.gameRepresentation.evaluatables.parameters.\lParameterFactory.getClassFromString">
<polygon fill="white" stroke="black" points="628,-24 628,-54 906,-54 906,-24 628,-24"/>
<text text-anchor="start" x="636" y="-42" font-family="Helvetica,sans-Serif" font-size="10.00">engine.gameRepresentation.evaluatables.parameters.</text>
<text text-anchor="middle" x="767" y="-31" font-family="Helvetica,sans-Serif" font-size="10.00">ParameterFactory.getClassFromString</text>
</a>
</g>
</g>
<!-- Node2&#45;&gt;Node3 -->
<g id="edge2" class="edge"><title>Node2&#45;&gt;Node3</title>
<path fill="none" stroke="midnightblue" d="M592.21,-52.9255C600.554,-52.2569 608.966,-51.5829 617.35,-50.9111"/>
<polygon fill="midnightblue" stroke="midnightblue" points="617.867,-54.3809 627.555,-50.0933 617.308,-47.4033 617.867,-54.3809"/>
</g>
<!-- Node4&#45;&gt;Node3 -->
<g id="edge4" class="edge"><title>Node4&#45;&gt;Node3</title>
<path fill="none" stroke="midnightblue" d="M592.21,-25.6316C600.554,-26.2734 608.966,-26.9204 617.35,-27.5654"/>
<polygon fill="midnightblue" stroke="midnightblue" points="617.316,-31.0731 627.555,-28.3504 617.853,-24.0937 617.316,-31.0731"/>
</g>
</g>
</svg>
