<?xml version="1.0" encoding="UTF-8" standalone="no"?>
<!DOCTYPE svg PUBLIC "-//W3C//DTD SVG 1.1//EN"
 "http://www.w3.org/Graphics/SVG/1.1/DTD/svg11.dtd">
<!-- Generated by graphviz version 2.36.0 (20140111.2315)
 -->
<!-- Title: engine.gameRepresentation.evaluatables.parameters.ParameterFactory.make Pages: 1 -->
<!--zoomable 87 -->
<svg id="main" version="1.1" xmlns="http://www.w3.org/2000/svg" xmlns:xlink="http://www.w3.org/1999/xlink" xml:space="preserve" onload="init(evt)">
<style type="text/css"><![CDATA[
.edge:hover path { stroke: red; }
.edge:hover polygon { stroke: red; fill: red; }
]]></style>
<script type="text/javascript"><![CDATA[
var edges = document.getElementsByTagName('g');
if (edges && edges.length) {
  for (var i=0;i<edges.length;i++) {
    if (edges[i].id.substr(0,4)=='edge') {
      edges[i].setAttribute('class','edge');
    }
  }
}
]]></script>
        <defs>
                <circle id="rim" cx="0" cy="0" r="7"/>
                <circle id="rim2" cx="0" cy="0" r="3.5"/>
                <g id="zoomPlus">
                        <use xlink:href="#rim" fill="#404040">
                                <set attributeName="fill" to="#808080" begin="zoomplus.mouseover" end="zoomplus.mouseout"/>
                        </use>
                        <path d="M-4,0h8M0,-4v8" fill="none" stroke="white" stroke-width="1.5" pointer-events="none"/>
                </g>
                <g id="zoomMin">
                        <use xlink:href="#rim" fill="#404040">
                                <set attributeName="fill" to="#808080" begin="zoomminus.mouseover" end="zoomminus.mouseout"/>
                        </use>
                        <path d="M-4,0h8" fill="none" stroke="white" stroke-width="1.5" pointer-events="none"/>
                </g>
                <g id="dirArrow">
                        <path fill="none" stroke="white" stroke-width="1.5" d="M0,-3.0v7 M-2.5,-0.5L0,-3.0L2.5,-0.5"/>
                </g>
               <g id="resetDef">
                       <use xlink:href="#rim2" fill="#404040">
                               <set attributeName="fill" to="#808080" begin="reset.mouseover" end="reset.mouseout"/>
                       </use>
               </g>
        </defs>

<script type="text/javascript">
var viewWidth = 1228;
var viewHeight = 87;
var sectionId = 'dynsection-6';
</script>
<script xlink:href="../../svgpan.js"/>
<svg id="graph" class="graph">
<g id="viewport">
<title>engine.gameRepresentation.evaluatables.parameters.ParameterFactory.make</title>
<polygon fill="white" stroke="none" points="-4,4 -4,-83 1224,-83 1224,4 -4,4"/>
<!-- Node1 -->
<g id="node1" class="node"><title>Node1</title>
<polygon fill="#bfbfbf" stroke="black" points="0,-24 0,-54 278,-54 278,-24 0,-24"/>
<text text-anchor="start" x="8" y="-42" font-family="Helvetica,sans-Serif" font-size="10.00">engine.gameRepresentation.evaluatables.parameters.</text>
<text text-anchor="middle" x="139" y="-31" font-family="Helvetica,sans-Serif" font-size="10.00">ParameterFactory.make</text>
</g>
<!-- Node2 -->
<g id="node2" class="node"><title>Node2</title>
<g id="a_node2"><a xlink:href="../../db/dd3/classengine_1_1game_representation_1_1evaluatables_1_1parameters_1_1_parameter_factory.html#ad1b3f2dccaa046bdfaacc3b8e9f1507d" target="_top" xlink:title="engine.gameRepresentation.evaluatables.parameters.\lParameterFactory.createParameter">
<polygon fill="white" stroke="black" points="314,-24 314,-54 592,-54 592,-24 314,-24"/>
<text text-anchor="start" x="322" y="-42" font-family="Helvetica,sans-Serif" font-size="10.00">engine.gameRepresentation.evaluatables.parameters.</text>
<text text-anchor="middle" x="453" y="-31" font-family="Helvetica,sans-Serif" font-size="10.00">ParameterFactory.createParameter</text>
</a>
</g>
</g>
<!-- Node1&#45;&gt;Node2 -->
<g id="edge1" class="edge"><title>Node1&#45;&gt;Node2</title>
<path fill="none" stroke="midnightblue" d="M278.21,-39C286.554,-39 294.966,-39 303.35,-39"/>
<polygon fill="midnightblue" stroke="midnightblue" points="303.555,-42.5001 313.555,-39 303.555,-35.5001 303.555,-42.5001"/>
</g>
<!-- Node3 -->
<g id="node3" class="node"><title>Node3</title>
<g id="a_node3"><a xlink:href="../../db/dd3/classengine_1_1game_representation_1_1evaluatables_1_1parameters_1_1_parameter_factory.html#af2f574e7cd56395e9d9a1af32237e934" target="_top" xlink:title="engine.gameRepresentation.evaluatables.parameters.\lParameterFactory.getObjectOfInterestIdentifier">
<polygon fill="white" stroke="black" points="628,-49 628,-79 906,-79 906,-49 628,-49"/>
<text text-anchor="start" x="636" y="-67" font-family="Helvetica,sans-Serif" font-size="10.00">engine.gameRepresentation.evaluatables.parameters.</text>
<text text-anchor="middle" x="767" y="-56" font-family="Helvetica,sans-Serif" font-size="10.00">ParameterFactory.getObjectOfInterestIdentifier</text>
</a>
</g>
</g>
<!-- Node2&#45;&gt;Node3 -->
<g id="edge2" class="edge"><title>Node2&#45;&gt;Node3</title>
<path fill="none" stroke="midnightblue" d="M592.21,-50.0745C600.554,-50.7431 608.966,-51.4171 617.35,-52.0889"/>
<polygon fill="midnightblue" stroke="midnightblue" points="617.308,-55.5967 627.555,-52.9067 617.867,-48.6191 617.308,-55.5967"/>
</g>
<!-- Node5 -->
<g id="node5" class="node"><title>Node5</title>
<g id="a_node5"><a xlink:href="../../db/dd3/classengine_1_1game_representation_1_1evaluatables_1_1parameters_1_1_parameter_factory.html#a545cb84d00d814dd28e85f0ff07dffc2" target="_top" xlink:title="engine.gameRepresentation.evaluatables.parameters.\lParameterFactory.makeParameter">
<polygon fill="white" stroke="black" points="628,-0 628,-30 906,-30 906,-0 628,-0"/>
<text text-anchor="start" x="636" y="-18" font-family="Helvetica,sans-Serif" font-size="10.00">engine.gameRepresentation.evaluatables.parameters.</text>
<text text-anchor="middle" x="767" y="-7" font-family="Helvetica,sans-Serif" font-size="10.00">ParameterFactory.makeParameter</text>
</a>
</g>
</g>
<!-- Node2&#45;&gt;Node5 -->
<g id="edge4" class="edge"><title>Node2&#45;&gt;Node5</title>
<path fill="none" stroke="midnightblue" d="M592.21,-28.3684C600.554,-27.7266 608.966,-27.0796 617.35,-26.4346"/>
<polygon fill="midnightblue" stroke="midnightblue" points="617.853,-29.9063 627.555,-25.6496 617.316,-22.9269 617.853,-29.9063"/>
</g>
<!-- Node4 -->
<g id="node4" class="node"><title>Node4</title>
<g id="a_node4"><a xlink:href="../../db/dd3/classengine_1_1game_representation_1_1evaluatables_1_1parameters_1_1_parameter_factory.html#a3ef2435879667780e7e466620041f87f" target="_top" xlink:title="engine.gameRepresentation.evaluatables.parameters.\lParameterFactory.getClassFromString">
<polygon fill="white" stroke="black" points="942,-24 942,-54 1220,-54 1220,-24 942,-24"/>
<text text-anchor="start" x="950" y="-42" font-family="Helvetica,sans-Serif" font-size="10.00">engine.gameRepresentation.evaluatables.parameters.</text>
<text text-anchor="middle" x="1081" y="-31" font-family="Helvetica,sans-Serif" font-size="10.00">ParameterFactory.getClassFromString</text>
</a>
</g>
</g>
<!-- Node3&#45;&gt;Node4 -->
<g id="edge3" class="edge"><title>Node3&#45;&gt;Node4</title>
<path fill="none" stroke="midnightblue" d="M906.21,-52.9255C914.554,-52.2569 922.966,-51.5829 931.35,-50.9111"/>
<polygon fill="midnightblue" stroke="midnightblue" points="931.867,-54.3809 941.555,-50.0933 931.308,-47.4033 931.867,-54.3809"/>
</g>
<!-- Node5&#45;&gt;Node4 -->
<g id="edge5" class="edge"><title>Node5&#45;&gt;Node4</title>
<path fill="none" stroke="midnightblue" d="M906.21,-25.6316C914.554,-26.2734 922.966,-26.9204 931.35,-27.5654"/>
<polygon fill="midnightblue" stroke="midnightblue" points="931.316,-31.0731 941.555,-28.3504 931.853,-24.0937 931.316,-31.0731"/>
</g>
</g>
</svg>
        <g id="navigator" transform="translate(0 0)" fill="#404254">
                <rect fill="#f2f5e9" fill-opacity="0.5" stroke="#606060" stroke-width=".5" x="0" y="0" width="60" height="60"/>
                <use id="zoomplus" xlink:href="#zoomPlus" x="17" y="9" onmousedown="handleZoom(evt,'in')"/>
                <use id="zoomminus" xlink:href="#zoomMin" x="42" y="9" onmousedown="handleZoom(evt,'out')"/>
                <use id="reset" xlink:href="#resetDef" x="30" y="36" onmousedown="handleReset()"/>
                <g id="arrowUp" xlink:href="#dirArrow" transform="translate(30 24)" onmousedown="handlePan(0,-1)">
                  <use xlink:href="#rim" fill="#404040">
                        <set attributeName="fill" to="#808080" begin="arrowUp.mouseover" end="arrowUp.mouseout"/>
                  </use>
                  <path fill="none" stroke="white" stroke-width="1.5" d="M0,-3.0v7 M-2.5,-0.5L0,-3.0L2.5,-0.5"/>
                </g>
                <g id="arrowRight" xlink:href="#dirArrow" transform="rotate(90) translate(36 -43)" onmousedown="handlePan(1,0)">
                  <use xlink:href="#rim" fill="#404040">
                        <set attributeName="fill" to="#808080" begin="arrowRight.mouseover" end="arrowRight.mouseout"/>
                  </use>
                  <path fill="none" stroke="white" stroke-width="1.5" d="M0,-3.0v7 M-2.5,-0.5L0,-3.0L2.5,-0.5"/>
                </g>
                <g id="arrowDown" xlink:href="#dirArrow" transform="rotate(180) translate(-30 -48)" onmousedown="handlePan(0,1)">
                  <use xlink:href="#rim" fill="#404040">
                        <set attributeName="fill" to="#808080" begin="arrowDown.mouseover" end="arrowDown.mouseout"/>
                  </use>
                  <path fill="none" stroke="white" stroke-width="1.5" d="M0,-3.0v7 M-2.5,-0.5L0,-3.0L2.5,-0.5"/>
                </g>
                <g id="arrowLeft" xlink:href="#dirArrow" transform="rotate(270) translate(-36 17)" onmousedown="handlePan(-1,0)">
                  <use xlink:href="#rim" fill="#404040">
                        <set attributeName="fill" to="#808080" begin="arrowLeft.mouseover" end="arrowLeft.mouseout"/>
                  </use>
                  <path fill="none" stroke="white" stroke-width="1.5" d="M0,-3.0v7 M-2.5,-0.5L0,-3.0L2.5,-0.5"/>
                </g>
        </g>
        <svg viewBox="0 0 15 15" width="100%" height="30px" preserveAspectRatio="xMaxYMin meet">
         <g id="arrow_out" transform="scale(0.3 0.3)">
          <a xlink:href="classengine_1_1game_representation_1_1evaluatables_1_1parameters_1_1_parameter_factory_a972b0564fc43666d1574912d3d42bd4b_cgraph_org.svg" target="_base">
           <rect id="button" ry="5" rx="5" y="6" x="6" height="38" width="38"
                fill="#f2f5e9" fill-opacity="0.5" stroke="#606060" stroke-width="1.0"/>
           <path id="arrow"
             d="M 11.500037,31.436501 C 11.940474,20.09759 22.043105,11.32322 32.158766,21.979434 L 37.068811,17.246167 C 37.068811,17.246167 37.088388,32 37.088388,32 L 22.160133,31.978069 C 22.160133,31.978069 26.997745,27.140456 26.997745,27.140456 C 18.528582,18.264221 13.291696,25.230495 11.500037,31.436501 z"
             style="fill:#404040;"/>
          </a>
         </g>
        </svg>
</svg>
