<?xml version="1.0" encoding="UTF-8" standalone="no"?>
<!DOCTYPE svg PUBLIC "-//W3C//DTD SVG 1.1//EN"
 "http://www.w3.org/Graphics/SVG/1.1/DTD/svg11.dtd">
<!-- Generated by graphviz version 2.36.0 (20140111.2315)
 -->
<!-- Title: game_requests.receiving.UnknownSenderException.request Pages: 1 -->
<svg width="414pt" height="48pt"
 viewBox="0.00 0.00 414.00 48.00" xmlns="http://www.w3.org/2000/svg" xmlns:xlink="http://www.w3.org/1999/xlink">
<g id="graph0" class="graph" transform="scale(1 1) rotate(0) translate(4 44)">
<title>game_requests.receiving.UnknownSenderException.request</title>
<polygon fill="white" stroke="none" points="-4,4 -4,-44 410,-44 410,4 -4,4"/>
<!-- Node1 -->
<g id="node1" class="node"><title>Node1</title>
<polygon fill="#bfbfbf" stroke="black" points="0.5,-5 0.5,-35 181.5,-35 181.5,-5 0.5,-5"/>
<text text-anchor="start" x="8.5" y="-23" font-family="Helvetica,sans-Serif" font-size="10.00">game_requests.receiving.</text>
<text text-anchor="middle" x="91" y="-12" font-family="Helvetica,sans-Serif" font-size="10.00">UnknownSenderException.request</text>
</g>
<!-- Node2 -->
<g id="node2" class="node"><title>Node2</title>
<g id="a_node2"><a xlink:href="../../d3/da5/classgame__requests_1_1receiving_1_1_unknown_sender_exception.html#a157fe270c249649a9a4cd05a9b0918a4" target="_top" xlink:title="game_requests.receiving.\lUnknownSenderException.Unknown\lSenderException">
<polygon fill="white" stroke="black" points="218,0.5 218,-40.5 406,-40.5 406,0.5 218,0.5"/>
<text text-anchor="start" x="226" y="-28.5" font-family="Helvetica,sans-Serif" font-size="10.00">game_requests.receiving.</text>
<text text-anchor="start" x="226" y="-17.5" font-family="Helvetica,sans-Serif" font-size="10.00">UnknownSenderException.Unknown</text>
<text text-anchor="middle" x="312" y="-6.5" font-family="Helvetica,sans-Serif" font-size="10.00">SenderException</text>
</a>
</g>
</g>
<!-- Node1&#45;&gt;Node2 -->
<g id="edge1" class="edge"><title>Node1&#45;&gt;Node2</title>
<path fill="none" stroke="midnightblue" d="M191.838,-20C200.51,-20 209.264,-20 217.88,-20"/>
<polygon fill="midnightblue" stroke="midnightblue" points="191.708,-16.5001 181.708,-20 191.708,-23.5001 191.708,-16.5001"/>
</g>
</g>
</svg>
