<?xml version="1.0" encoding="UTF-8" standalone="no"?>
<!DOCTYPE svg PUBLIC "-//W3C//DTD SVG 1.1//EN"
 "http://www.w3.org/Graphics/SVG/1.1/DTD/svg11.dtd">
<!-- Generated by graphviz version 2.36.0 (20140111.2315)
 -->
<!-- Title: engine.elementFactories.AnimatorFactory Pages: 1 -->
<!--zoomable 385 -->
<svg id="main" version="1.1" xmlns="http://www.w3.org/2000/svg" xmlns:xlink="http://www.w3.org/1999/xlink" xml:space="preserve" onload="init(evt)">
<style type="text/css"><![CDATA[
.edge:hover path { stroke: red; }
.edge:hover polygon { stroke: red; fill: red; }
]]></style>
<script type="text/javascript"><![CDATA[
var edges = document.getElementsByTagName('g');
if (edges && edges.length) {
  for (var i=0;i<edges.length;i++) {
    if (edges[i].id.substr(0,4)=='edge') {
      edges[i].setAttribute('class','edge');
    }
  }
}
]]></script>
        <defs>
                <circle id="rim" cx="0" cy="0" r="7"/>
                <circle id="rim2" cx="0" cy="0" r="3.5"/>
                <g id="zoomPlus">
                        <use xlink:href="#rim" fill="#404040">
                                <set attributeName="fill" to="#808080" begin="zoomplus.mouseover" end="zoomplus.mouseout"/>
                        </use>
                        <path d="M-4,0h8M0,-4v8" fill="none" stroke="white" stroke-width="1.5" pointer-events="none"/>
                </g>
                <g id="zoomMin">
                        <use xlink:href="#rim" fill="#404040">
                                <set attributeName="fill" to="#808080" begin="zoomminus.mouseover" end="zoomminus.mouseout"/>
                        </use>
                        <path d="M-4,0h8" fill="none" stroke="white" stroke-width="1.5" pointer-events="none"/>
                </g>
                <g id="dirArrow">
                        <path fill="none" stroke="white" stroke-width="1.5" d="M0,-3.0v7 M-2.5,-0.5L0,-3.0L2.5,-0.5"/>
                </g>
               <g id="resetDef">
                       <use xlink:href="#rim2" fill="#404040">
                               <set attributeName="fill" to="#808080" begin="reset.mouseover" end="reset.mouseout"/>
                       </use>
               </g>
        </defs>

<script type="text/javascript">
var viewWidth = 1366;
var viewHeight = 385;
var sectionId = 'dynsection-0';
</script>
<script xlink:href="../../svgpan.js"/>
<svg id="graph" class="graph">
<g id="viewport">
<title>engine.elementFactories.AnimatorFactory</title>
<polygon fill="white" stroke="none" points="-4,4 -4,-381 1362,-381 1362,4 -4,4"/>
<!-- Node1 -->
<g id="node1" class="node"><title>Node1</title>
<polygon fill="#bfbfbf" stroke="black" points="1220.5,-177 1220.5,-207 1357.5,-207 1357.5,-177 1220.5,-177"/>
<text text-anchor="start" x="1228.5" y="-195" font-family="Helvetica,sans-Serif" font-size="10.00">engine.elementFactories.</text>
<text text-anchor="middle" x="1289" y="-184" font-family="Helvetica,sans-Serif" font-size="10.00">AnimatorFactory</text>
</g>
<!-- Node2 -->
<g id="node2" class="node"><title>Node2</title>
<g id="a_node2"><a xlink:href="../../de/d21/classmodel_1_1_main_model.html" target="_top" xlink:title="model.MainModel">
<polygon fill="white" stroke="black" points="1034.5,-182.5 1034.5,-201.5 1135.5,-201.5 1135.5,-182.5 1034.5,-182.5"/>
<text text-anchor="middle" x="1085" y="-189.5" font-family="Helvetica,sans-Serif" font-size="10.00">model.MainModel</text>
</a>
</g>
</g>
<!-- Node2&#45;&gt;Node1 -->
<g id="edge1" class="edge"><title>Node2&#45;&gt;Node1</title>
<path fill="none" stroke="#9a32cd" stroke-dasharray="5,2" d="M1145.8,-192C1169.17,-192 1196.1,-192 1220.19,-192"/>
<polygon fill="#9a32cd" stroke="#9a32cd" points="1145.67,-188.5 1135.67,-192 1145.67,-195.5 1145.67,-188.5"/>
<text text-anchor="middle" x="1178" y="-195" font-family="Helvetica,sans-Serif" font-size="10.00"> myModel</text>
</g>
<!-- Node3 -->
<g id="node3" class="node"><title>Node3</title>
<polygon fill="white" stroke="#bfbfbf" points="752.5,-240.5 752.5,-259.5 823.5,-259.5 823.5,-240.5 752.5,-240.5"/>
<text text-anchor="middle" x="788" y="-247.5" font-family="Helvetica,sans-Serif" font-size="10.00">Observable</text>
</g>
<!-- Node3&#45;&gt;Node2 -->
<g id="edge2" class="edge"><title>Node3&#45;&gt;Node2</title>
<path fill="none" stroke="midnightblue" d="M833.775,-247.514C880.048,-244.152 954.051,-236.546 1016,-220 1032.9,-215.486 1051.19,-207.785 1064.53,-201.6"/>
<polygon fill="midnightblue" stroke="midnightblue" points="833.504,-244.024 823.769,-248.206 833.987,-251.008 833.504,-244.024"/>
</g>
<!-- Node4 -->
<g id="node4" class="node"><title>Node4</title>
<g id="a_node4"><a xlink:href="../../d6/d8b/classmodel_1_1state_1_1_game_state.html" target="_top" xlink:title="model.state.GameState">
<polygon fill="white" stroke="black" points="721.5,-202.5 721.5,-221.5 854.5,-221.5 854.5,-202.5 721.5,-202.5"/>
<text text-anchor="middle" x="788" y="-209.5" font-family="Helvetica,sans-Serif" font-size="10.00">model.state.GameState</text>
</a>
</g>
</g>
<!-- Node4&#45;&gt;Node2 -->
<g id="edge3" class="edge"><title>Node4&#45;&gt;Node2</title>
<path fill="none" stroke="#9a32cd" stroke-dasharray="5,2" d="M864.934,-206.852C918.273,-203.236 988.094,-198.502 1034.42,-195.362"/>
<polygon fill="#9a32cd" stroke="#9a32cd" points="864.577,-203.368 854.837,-207.537 865.05,-210.352 864.577,-203.368"/>
<text text-anchor="middle" x="953" y="-208" font-family="Helvetica,sans-Serif" font-size="10.00"> myGameState</text>
</g>
<!-- Node5 -->
<g id="node5" class="node"><title>Node5</title>
<g id="a_node5"><a xlink:href="../../dc/d74/classmodel_1_1state_1_1_describable_state.html" target="_top" xlink:title="model.state.DescribableState">
<polygon fill="white" stroke="black" points="389,-319.5 389,-338.5 549,-338.5 549,-319.5 389,-319.5"/>
<text text-anchor="middle" x="469" y="-326.5" font-family="Helvetica,sans-Serif" font-size="10.00">model.state.DescribableState</text>
</a>
</g>
</g>
<!-- Node5&#45;&gt;Node4 -->
<g id="edge4" class="edge"><title>Node5&#45;&gt;Node4</title>
<path fill="none" stroke="midnightblue" d="M541.199,-317.26C586.14,-307.111 643.518,-288.861 686,-257 697.244,-248.567 692.362,-238.879 704,-231 709.753,-227.105 716.192,-224 722.87,-221.525"/>
<polygon fill="midnightblue" stroke="midnightblue" points="540.257,-313.883 531.228,-319.426 541.743,-320.723 540.257,-313.883"/>
</g>
<!-- Node6 -->
<g id="node6" class="node"><title>Node6</title>
<g id="a_node6"><a xlink:href="../../df/d74/interfaceutil_1_1_j_s_o_nable.html" target="_top" xlink:title="util.JSONable">
<polygon fill="white" stroke="black" points="49,-357.5 49,-376.5 127,-376.5 127,-357.5 49,-357.5"/>
<text text-anchor="middle" x="88" y="-364.5" font-family="Helvetica,sans-Serif" font-size="10.00">util.JSONable</text>
</a>
</g>
</g>
<!-- Node6&#45;&gt;Node5 -->
<g id="edge5" class="edge"><title>Node6&#45;&gt;Node5</title>
<path fill="none" stroke="midnightblue" d="M137.469,-363.459C192.46,-359.282 284.795,-351.782 364,-343 375.86,-341.685 388.46,-340.126 400.644,-338.535"/>
<polygon fill="midnightblue" stroke="midnightblue" points="137.024,-359.983 127.315,-364.225 137.55,-366.963 137.024,-359.983"/>
</g>
<!-- Node7 -->
<g id="node7" class="node"><title>Node7</title>
<polygon fill="white" stroke="#bfbfbf" points="52.5,-319.5 52.5,-338.5 123.5,-338.5 123.5,-319.5 52.5,-319.5"/>
<text text-anchor="middle" x="88" y="-326.5" font-family="Helvetica,sans-Serif" font-size="10.00">Serializable</text>
</g>
<!-- Node7&#45;&gt;Node5 -->
<g id="edge6" class="edge"><title>Node7&#45;&gt;Node5</title>
<path fill="none" stroke="midnightblue" d="M133.983,-329C196.696,-329 311.377,-329 388.642,-329"/>
<polygon fill="midnightblue" stroke="midnightblue" points="133.638,-325.5 123.638,-329 133.638,-332.5 133.638,-325.5"/>
</g>
<!-- Node8 -->
<g id="node8" class="node"><title>Node8</title>
<polygon fill="white" stroke="#bfbfbf" points="392,-241 392,-271 546,-271 546,-241 392,-241"/>
<text text-anchor="start" x="400" y="-259" font-family="Helvetica,sans-Serif" font-size="10.00">List&lt; model.state.Campaign</text>
<text text-anchor="middle" x="469" y="-248" font-family="Helvetica,sans-Serif" font-size="10.00">State &gt;</text>
</g>
<!-- Node8&#45;&gt;Node4 -->
<g id="edge7" class="edge"><title>Node8&#45;&gt;Node4</title>
<path fill="none" stroke="#9a32cd" stroke-dasharray="5,2" d="M556.153,-244.714C595.728,-239.457 643.265,-233.042 686,-227 698.199,-225.275 711.218,-223.382 723.714,-221.538"/>
<polygon fill="#9a32cd" stroke="#9a32cd" points="555.461,-241.275 546.008,-246.059 556.381,-248.214 555.461,-241.275"/>
<text text-anchor="middle" x="630" y="-245" font-family="Helvetica,sans-Serif" font-size="10.00"> myCampaigns</text>
</g>
<!-- Node9 -->
<g id="node9" class="node"><title>Node9</title>
<g id="a_node9"><a xlink:href="../../de/dda/classmodel_1_1_game_universe.html" target="_top" xlink:title="model.GameUniverse">
<polygon fill="white" stroke="black" points="408.5,-202.5 408.5,-221.5 529.5,-221.5 529.5,-202.5 408.5,-202.5"/>
<text text-anchor="middle" x="469" y="-209.5" font-family="Helvetica,sans-Serif" font-size="10.00">model.GameUniverse</text>
</a>
</g>
</g>
<!-- Node9&#45;&gt;Node4 -->
<g id="edge8" class="edge"><title>Node9&#45;&gt;Node4</title>
<path fill="none" stroke="#9a32cd" stroke-dasharray="5,2" d="M539.821,-212C593.919,-212 668.341,-212 721.355,-212"/>
<polygon fill="#9a32cd" stroke="#9a32cd" points="539.625,-208.5 529.625,-212 539.625,-215.5 539.625,-208.5"/>
<text text-anchor="middle" x="630" y="-215" font-family="Helvetica,sans-Serif" font-size="10.00"> myGameUniverse</text>
</g>
<!-- Node10 -->
<g id="node10" class="node"><title>Node10</title>
<polygon fill="white" stroke="#bfbfbf" points="0,-270 0,-300 176,-300 176,-270 0,-270"/>
<text text-anchor="start" x="8" y="-288" font-family="Helvetica,sans-Serif" font-size="10.00">Set&lt; model.state.gameelement.</text>
<text text-anchor="middle" x="88" y="-277" font-family="Helvetica,sans-Serif" font-size="10.00">GameElementState &gt;</text>
</g>
<!-- Node10&#45;&gt;Node9 -->
<g id="edge9" class="edge"><title>Node10&#45;&gt;Node9</title>
<path fill="none" stroke="#9a32cd" stroke-dasharray="5,2" d="M186.267,-280.907C240.119,-276.098 307.408,-265.82 364,-244 372.971,-240.541 373.175,-235.817 382,-232 391.848,-227.74 402.741,-224.314 413.371,-221.585"/>
<polygon fill="#9a32cd" stroke="#9a32cd" points="185.7,-277.442 176.029,-281.77 186.288,-284.418 185.7,-277.442"/>
<text text-anchor="middle" x="279" y="-282" font-family="Helvetica,sans-Serif" font-size="10.00"> myGameElementStates</text>
</g>
<!-- Node11 -->
<g id="node11" class="node"><title>Node11</title>
<polygon fill="white" stroke="#bfbfbf" points="0,-221 0,-251 176,-251 176,-221 0,-221"/>
<text text-anchor="start" x="8" y="-239" font-family="Helvetica,sans-Serif" font-size="10.00">Set&lt; model.state.gameelement.</text>
<text text-anchor="middle" x="88" y="-228" font-family="Helvetica,sans-Serif" font-size="10.00">Attribute&lt; String &gt; &gt;</text>
</g>
<!-- Node11&#45;&gt;Node9 -->
<g id="edge10" class="edge"><title>Node11&#45;&gt;Node9</title>
<path fill="none" stroke="#9a32cd" stroke-dasharray="5,2" d="M186.606,-229.819C256.741,-225.378 349.032,-219.534 408.447,-215.771"/>
<polygon fill="#9a32cd" stroke="#9a32cd" points="186.185,-226.339 176.426,-230.464 186.627,-233.325 186.185,-226.339"/>
<text text-anchor="middle" x="279" y="-232" font-family="Helvetica,sans-Serif" font-size="10.00"> myTextualAttributes</text>
</g>
<!-- Node12 -->
<g id="node12" class="node"><title>Node12</title>
<polygon fill="white" stroke="#bfbfbf" points="0,-172 0,-202 176,-202 176,-172 0,-172"/>
<text text-anchor="start" x="8" y="-190" font-family="Helvetica,sans-Serif" font-size="10.00">Set&lt; model.state.gameelement.</text>
<text text-anchor="middle" x="88" y="-179" font-family="Helvetica,sans-Serif" font-size="10.00">SelectableGameElementState &gt;</text>
</g>
<!-- Node12&#45;&gt;Node9 -->
<g id="edge11" class="edge"><title>Node12&#45;&gt;Node9</title>
<path fill="none" stroke="#9a32cd" stroke-dasharray="5,2" d="M186.016,-193.306C238.675,-196.74 304.911,-201.078 364,-205 378.355,-205.953 393.824,-206.989 408.331,-207.965"/>
<polygon fill="#9a32cd" stroke="#9a32cd" points="186.216,-189.812 176.01,-192.654 185.761,-196.797 186.216,-189.812"/>
<text text-anchor="middle" x="279" y="-208" font-family="Helvetica,sans-Serif" font-size="10.00"> mySelectableGameElementStates</text>
</g>
<!-- Node13 -->
<g id="node13" class="node"><title>Node13</title>
<polygon fill="white" stroke="#bfbfbf" points="0,-123 0,-153 176,-153 176,-123 0,-123"/>
<text text-anchor="start" x="8" y="-141" font-family="Helvetica,sans-Serif" font-size="10.00">Set&lt; model.state.gameelement.</text>
<text text-anchor="middle" x="88" y="-130" font-family="Helvetica,sans-Serif" font-size="10.00">DrawableGameElementState &gt;</text>
</g>
<!-- Node13&#45;&gt;Node9 -->
<g id="edge12" class="edge"><title>Node13&#45;&gt;Node9</title>
<path fill="none" stroke="#9a32cd" stroke-dasharray="5,2" d="M186.299,-141.671C240.305,-146.432 307.732,-156.968 364,-180 373.133,-183.738 372.995,-188.963 382,-193 390.651,-196.878 400.155,-199.992 409.593,-202.485"/>
<polygon fill="#9a32cd" stroke="#9a32cd" points="186.286,-138.158 176.031,-140.821 185.708,-145.134 186.286,-138.158"/>
<text text-anchor="middle" x="279" y="-183" font-family="Helvetica,sans-Serif" font-size="10.00"> myDrawableGameElementStates</text>
</g>
<!-- Node14 -->
<g id="node14" class="node"><title>Node14</title>
<polygon fill="white" stroke="#bfbfbf" points="0,-74 0,-104 176,-104 176,-74 0,-74"/>
<text text-anchor="start" x="8" y="-92" font-family="Helvetica,sans-Serif" font-size="10.00">Set&lt; model.state.gameelement.</text>
<text text-anchor="middle" x="88" y="-81" font-family="Helvetica,sans-Serif" font-size="10.00">Attribute&lt; Number &gt; &gt;</text>
</g>
<!-- Node14&#45;&gt;Node9 -->
<g id="edge13" class="edge"><title>Node14&#45;&gt;Node9</title>
<path fill="none" stroke="#9a32cd" stroke-dasharray="5,2" d="M186.616,-78.0151C244.738,-76.9594 316.238,-86.0455 364,-128 386.521,-147.783 360.252,-172.37 382,-193 389.322,-199.945 398.584,-204.573 408.3,-207.615"/>
<polygon fill="#9a32cd" stroke="#9a32cd" points="186.195,-74.5256 176.3,-78.3101 186.396,-81.5228 186.195,-74.5256"/>
<text text-anchor="middle" x="279" y="-131" font-family="Helvetica,sans-Serif" font-size="10.00"> myNumericalAttributes</text>
</g>
<!-- Node15 -->
<g id="node15" class="node"><title>Node15</title>
<polygon fill="white" stroke="#bfbfbf" points="386,-164.5 386,-183.5 552,-183.5 552,-164.5 386,-164.5"/>
<text text-anchor="middle" x="469" y="-171.5" font-family="Helvetica,sans-Serif" font-size="10.00">List&lt; model.state.HighScore &gt;</text>
</g>
<!-- Node15&#45;&gt;Node4 -->
<g id="edge14" class="edge"><title>Node15&#45;&gt;Node4</title>
<path fill="none" stroke="#9a32cd" stroke-dasharray="5,2" d="M562.256,-182.976C600.576,-186.924 645.478,-191.836 686,-197 698.837,-198.636 712.566,-200.559 725.633,-202.471"/>
<polygon fill="#9a32cd" stroke="#9a32cd" points="562.453,-179.477 552.148,-181.941 561.74,-186.441 562.453,-179.477"/>
<text text-anchor="middle" x="630" y="-200" font-family="Helvetica,sans-Serif" font-size="10.00"> myHighScores</text>
</g>
<!-- Node16 -->
<g id="node16" class="node"><title>Node16</title>
<g id="a_node16"><a xlink:href="../../de/d33/classmodel_1_1_game_save_load_mediator.html" target="_top" xlink:title="model.GameSaveLoadMediator">
<polygon fill="white" stroke="black" points="704,-164.5 704,-183.5 872,-183.5 872,-164.5 704,-164.5"/>
<text text-anchor="middle" x="788" y="-171.5" font-family="Helvetica,sans-Serif" font-size="10.00">model.GameSaveLoadMediator</text>
</a>
</g>
</g>
<!-- Node16&#45;&gt;Node2 -->
<g id="edge15" class="edge"><title>Node16&#45;&gt;Node2</title>
<path fill="none" stroke="#9a32cd" stroke-dasharray="5,2" d="M882.031,-170.965C923.207,-170.719 972.144,-171.927 1016,-177 1026.21,-178.181 1037.13,-180.231 1047.18,-182.443"/>
<polygon fill="#9a32cd" stroke="#9a32cd" points="881.98,-167.465 872.012,-171.054 882.042,-174.465 881.98,-167.465"/>
<text text-anchor="middle" x="953" y="-180" font-family="Helvetica,sans-Serif" font-size="10.00"> mySaveLoadMediator</text>
</g>
<!-- Node17 -->
<g id="node17" class="node"><title>Node17</title>
<g id="a_node17"><a xlink:href="../../de/d01/classmodel_1_1sprite_1_1_sprite_image_generator.html" target="_top" xlink:title="model.sprite.SpriteImage\lGenerator">
<polygon fill="white" stroke="black" points="719,-77 719,-107 857,-107 857,-77 719,-77"/>
<text text-anchor="start" x="727" y="-95" font-family="Helvetica,sans-Serif" font-size="10.00">model.sprite.SpriteImage</text>
<text text-anchor="middle" x="788" y="-84" font-family="Helvetica,sans-Serif" font-size="10.00">Generator</text>
</a>
</g>
</g>
<!-- Node17&#45;&gt;Node2 -->
<g id="edge16" class="edge"><title>Node17&#45;&gt;Node2</title>
<path fill="none" stroke="#9a32cd" stroke-dasharray="5,2" d="M866.427,-109.493C910.949,-120.618 967.497,-136.579 1016,-156 1034.6,-163.448 1054.75,-174.527 1068.25,-182.426"/>
<polygon fill="#9a32cd" stroke="#9a32cd" points="867.088,-106.051 856.54,-107.053 865.41,-112.847 867.088,-106.051"/>
<text text-anchor="middle" x="953" y="-159" font-family="Helvetica,sans-Serif" font-size="10.00"> mySpriteImageGenerator</text>
</g>
<!-- Node18 -->
<g id="node18" class="node"><title>Node18</title>
<polygon fill="white" stroke="#bfbfbf" points="422.5,-126.5 422.5,-145.5 515.5,-145.5 515.5,-126.5 422.5,-126.5"/>
<text text-anchor="middle" x="469" y="-133.5" font-family="Helvetica,sans-Serif" font-size="10.00">ResourceBundle</text>
</g>
<!-- Node18&#45;&gt;Node17 -->
<g id="edge17" class="edge"><title>Node18&#45;&gt;Node17</title>
<path fill="none" stroke="#9a32cd" stroke-dasharray="5,2" d="M525.659,-128.745C569.298,-123.004 631.547,-114.699 686,-107 696.619,-105.499 707.86,-103.869 718.836,-102.256"/>
<polygon fill="#9a32cd" stroke="#9a32cd" points="524.995,-125.302 515.536,-130.074 525.906,-132.242 524.995,-125.302"/>
<text text-anchor="middle" x="630" y="-126" font-family="Helvetica,sans-Serif" font-size="10.00"> myBundle</text>
</g>
<!-- Node19 -->
<g id="node19" class="node"><title>Node19</title>
<polygon fill="white" stroke="#bfbfbf" points="396,-77 396,-107 542,-107 542,-77 396,-77"/>
<text text-anchor="start" x="404" y="-95" font-family="Helvetica,sans-Serif" font-size="10.00">Map&lt; String, model.sprite.</text>
<text text-anchor="middle" x="469" y="-84" font-family="Helvetica,sans-Serif" font-size="10.00">SpriteImageContainer &gt;</text>
</g>
<!-- Node19&#45;&gt;Node17 -->
<g id="edge18" class="edge"><title>Node19&#45;&gt;Node17</title>
<path fill="none" stroke="#9a32cd" stroke-dasharray="5,2" d="M552.472,-92C604.178,-92 670.028,-92 718.781,-92"/>
<polygon fill="#9a32cd" stroke="#9a32cd" points="552.329,-88.5001 542.329,-92 552.329,-95.5001 552.329,-88.5001"/>
<text text-anchor="middle" x="630" y="-95" font-family="Helvetica,sans-Serif" font-size="10.00"> myCachedContainer</text>
</g>
<!-- Node20 -->
<g id="node20" class="node"><title>Node20</title>
<g id="a_node20"><a xlink:href="../../d9/d0f/classutil_1_1_resource_bundle_retriever.html" target="_top" xlink:title="util.ResourceBundleRetriever">
<polygon fill="white" stroke="black" points="393,-38.5 393,-57.5 545,-57.5 545,-38.5 393,-38.5"/>
<text text-anchor="middle" x="469" y="-45.5" font-family="Helvetica,sans-Serif" font-size="10.00">util.ResourceBundleRetriever</text>
</a>
</g>
</g>
<!-- Node20&#45;&gt;Node17 -->
<g id="edge19" class="edge"><title>Node20&#45;&gt;Node17</title>
<path fill="none" stroke="#9a32cd" stroke-dasharray="5,2" d="M553.039,-58.8729C593.218,-64.2041 642.138,-70.7988 686,-77 696.619,-78.5014 707.86,-80.1308 718.836,-81.7441"/>
<polygon fill="#9a32cd" stroke="#9a32cd" points="553.395,-55.3894 543.021,-57.5457 552.475,-62.3288 553.395,-55.3894"/>
<text text-anchor="middle" x="630" y="-80" font-family="Helvetica,sans-Serif" font-size="10.00"> myBundleRetriever</text>
</g>
<!-- Node21 -->
<g id="node21" class="node"><title>Node21</title>
<g id="a_node21"><a xlink:href="../../d2/ddc/classmodel_1_1sprite_1_1_color_map_generator.html" target="_top" xlink:title="model.sprite.ColorMapGenerator">
<polygon fill="white" stroke="black" points="382.5,-0.5 382.5,-19.5 555.5,-19.5 555.5,-0.5 382.5,-0.5"/>
<text text-anchor="middle" x="469" y="-7.5" font-family="Helvetica,sans-Serif" font-size="10.00">model.sprite.ColorMapGenerator</text>
</a>
</g>
</g>
<!-- Node21&#45;&gt;Node17 -->
<g id="edge20" class="edge"><title>Node21&#45;&gt;Node17</title>
<path fill="none" stroke="#9a32cd" stroke-dasharray="5,2" d="M564.808,-21.0164C602.962,-26.7948 647.063,-35.1939 686,-47 711.168,-54.631 738.324,-66.9821 758.132,-76.8158"/>
<polygon fill="#9a32cd" stroke="#9a32cd" points="565.134,-17.5266 554.73,-19.5295 564.112,-24.4517 565.134,-17.5266"/>
<text text-anchor="middle" x="630" y="-50" font-family="Helvetica,sans-Serif" font-size="10.00"> myColorMapGenerator</text>
</g>
<!-- Node22 -->
<g id="node22" class="node"><title>Node22</title>
<polygon fill="white" stroke="#bfbfbf" points="29.5,-0.5 29.5,-19.5 146.5,-19.5 146.5,-0.5 29.5,-0.5"/>
<text text-anchor="middle" x="88" y="-7.5" font-family="Helvetica,sans-Serif" font-size="10.00">Map&lt; String, Paint &gt;</text>
</g>
<!-- Node22&#45;&gt;Node21 -->
<g id="edge21" class="edge"><title>Node22&#45;&gt;Node21</title>
<path fill="none" stroke="#9a32cd" stroke-dasharray="5,2" d="M156.798,-10C219.884,-10 314.162,-10 382.41,-10"/>
<polygon fill="#9a32cd" stroke="#9a32cd" points="156.562,-6.5001 146.562,-10 156.562,-13.5001 156.562,-6.5001"/>
<text text-anchor="middle" x="279" y="-13" font-family="Helvetica,sans-Serif" font-size="10.00"> myColorMap</text>
</g>
</g>
</svg>
        <g id="navigator" transform="translate(0 0)" fill="#404254">
                <rect fill="#f2f5e9" fill-opacity="0.5" stroke="#606060" stroke-width=".5" x="0" y="0" width="60" height="60"/>
                <use id="zoomplus" xlink:href="#zoomPlus" x="17" y="9" onmousedown="handleZoom(evt,'in')"/>
                <use id="zoomminus" xlink:href="#zoomMin" x="42" y="9" onmousedown="handleZoom(evt,'out')"/>
                <use id="reset" xlink:href="#resetDef" x="30" y="36" onmousedown="handleReset()"/>
                <g id="arrowUp" xlink:href="#dirArrow" transform="translate(30 24)" onmousedown="handlePan(0,-1)">
                  <use xlink:href="#rim" fill="#404040">
                        <set attributeName="fill" to="#808080" begin="arrowUp.mouseover" end="arrowUp.mouseout"/>
                  </use>
                  <path fill="none" stroke="white" stroke-width="1.5" d="M0,-3.0v7 M-2.5,-0.5L0,-3.0L2.5,-0.5"/>
                </g>
                <g id="arrowRight" xlink:href="#dirArrow" transform="rotate(90) translate(36 -43)" onmousedown="handlePan(1,0)">
                  <use xlink:href="#rim" fill="#404040">
                        <set attributeName="fill" to="#808080" begin="arrowRight.mouseover" end="arrowRight.mouseout"/>
                  </use>
                  <path fill="none" stroke="white" stroke-width="1.5" d="M0,-3.0v7 M-2.5,-0.5L0,-3.0L2.5,-0.5"/>
                </g>
                <g id="arrowDown" xlink:href="#dirArrow" transform="rotate(180) translate(-30 -48)" onmousedown="handlePan(0,1)">
                  <use xlink:href="#rim" fill="#404040">
                        <set attributeName="fill" to="#808080" begin="arrowDown.mouseover" end="arrowDown.mouseout"/>
                  </use>
                  <path fill="none" stroke="white" stroke-width="1.5" d="M0,-3.0v7 M-2.5,-0.5L0,-3.0L2.5,-0.5"/>
                </g>
                <g id="arrowLeft" xlink:href="#dirArrow" transform="rotate(270) translate(-36 17)" onmousedown="handlePan(-1,0)">
                  <use xlink:href="#rim" fill="#404040">
                        <set attributeName="fill" to="#808080" begin="arrowLeft.mouseover" end="arrowLeft.mouseout"/>
                  </use>
                  <path fill="none" stroke="white" stroke-width="1.5" d="M0,-3.0v7 M-2.5,-0.5L0,-3.0L2.5,-0.5"/>
                </g>
        </g>
        <svg viewBox="0 0 15 15" width="100%" height="30px" preserveAspectRatio="xMaxYMin meet">
         <g id="arrow_out" transform="scale(0.3 0.3)">
          <a xlink:href="classengine_1_1element_factories_1_1_animator_factory__coll__graph_org.svg" target="_base">
           <rect id="button" ry="5" rx="5" y="6" x="6" height="38" width="38"
                fill="#f2f5e9" fill-opacity="0.5" stroke="#606060" stroke-width="1.0"/>
           <path id="arrow"
             d="M 11.500037,31.436501 C 11.940474,20.09759 22.043105,11.32322 32.158766,21.979434 L 37.068811,17.246167 C 37.068811,17.246167 37.088388,32 37.088388,32 L 22.160133,31.978069 C 22.160133,31.978069 26.997745,27.140456 26.997745,27.140456 C 18.528582,18.264221 13.291696,25.230495 11.500037,31.436501 z"
             style="fill:#404040;"/>
          </a>
         </g>
        </svg>
</svg>
