<?xml version="1.0" encoding="UTF-8" standalone="no"?>
<!DOCTYPE svg PUBLIC "-//W3C//DTD SVG 1.1//EN"
 "http://www.w3.org/Graphics/SVG/1.1/DTD/svg11.dtd">
<!-- Generated by graphviz version 2.36.0 (20140111.2315)
 -->
<!-- Title: view.editor.wizards.CRUDContainer.createVisualRepresentation Pages: 1 -->
<svg width="1102pt" height="442pt"
 viewBox="0.00 0.00 1102.00 442.00" xmlns="http://www.w3.org/2000/svg" xmlns:xlink="http://www.w3.org/1999/xlink">
<g id="graph0" class="graph" transform="scale(1 1) rotate(0) translate(4 438)">
<title>view.editor.wizards.CRUDContainer.createVisualRepresentation</title>
<polygon fill="white" stroke="none" points="-4,4 -4,-438 1098,-438 1098,4 -4,4"/>
<!-- Node1 -->
<g id="node1" class="node"><title>Node1</title>
<polygon fill="#bfbfbf" stroke="black" points="0.5,-142 0.5,-172 215.5,-172 215.5,-142 0.5,-142"/>
<text text-anchor="start" x="8.5" y="-160" font-family="Helvetica,sans-Serif" font-size="10.00">view.editor.wizards.CRUDContainer.create</text>
<text text-anchor="middle" x="108" y="-149" font-family="Helvetica,sans-Serif" font-size="10.00">VisualRepresentation</text>
</g>
<!-- Node2 -->
<g id="node2" class="node"><title>Node2</title>
<g id="a_node2"><a xlink:href="../../d2/daf/classview_1_1editor_1_1wizards_1_1_c_r_u_d_container.html#a0dd63694421d9fc87cd4046499d3d229" target="_top" xlink:title="view.editor.wizards.CRUDContainer.launch\lEditWizard">
<polygon fill="white" stroke="black" points="252.5,-142 252.5,-172 467.5,-172 467.5,-142 252.5,-142"/>
<text text-anchor="start" x="260.5" y="-160" font-family="Helvetica,sans-Serif" font-size="10.00">view.editor.wizards.CRUDContainer.launch</text>
<text text-anchor="middle" x="360" y="-149" font-family="Helvetica,sans-Serif" font-size="10.00">EditWizard</text>
</a>
</g>
</g>
<!-- Node1&#45;&gt;Node2 -->
<g id="edge1" class="edge"><title>Node1&#45;&gt;Node2</title>
<path fill="none" stroke="midnightblue" d="M215.748,-157C224.428,-157 233.228,-157 241.976,-157"/>
<polygon fill="midnightblue" stroke="midnightblue" points="242.211,-160.5 252.211,-157 242.211,-153.5 242.211,-160.5"/>
</g>
<!-- Node3 -->
<g id="node3" class="node"><title>Node3</title>
<g id="a_node3"><a xlink:href="../../d2/d33/classview_1_1editor_1_1wizards_1_1_wizard_utility.html#acece70a3dea98cde832a608d4aff204d" target="_top" xlink:title="view.editor.wizards.Wizard\lUtility.loadWizard">
<polygon fill="white" stroke="black" points="521.5,-284 521.5,-314 660.5,-314 660.5,-284 521.5,-284"/>
<text text-anchor="start" x="529.5" y="-302" font-family="Helvetica,sans-Serif" font-size="10.00">view.editor.wizards.Wizard</text>
<text text-anchor="middle" x="591" y="-291" font-family="Helvetica,sans-Serif" font-size="10.00">Utility.loadWizard</text>
</a>
</g>
</g>
<!-- Node2&#45;&gt;Node3 -->
<g id="edge2" class="edge"><title>Node2&#45;&gt;Node3</title>
<path fill="none" stroke="midnightblue" d="M375.385,-172.229C399.635,-197.045 451.198,-246.22 504,-274 508.249,-276.235 512.723,-278.295 517.308,-280.189"/>
<polygon fill="midnightblue" stroke="midnightblue" points="516.245,-283.53 526.835,-283.847 518.754,-276.995 516.245,-283.53"/>
</g>
<!-- Node12 -->
<g id="node12" class="node"><title>Node12</title>
<g id="a_node12"><a xlink:href="../../d7/d40/classview_1_1editor_1_1wizards_1_1_wizard.html#ab4942fec6fe2e4e166f9ed82f6a2b2af" target="_top" xlink:title="view.editor.wizards.Wizard.load\lGlobalValues">
<polygon fill="white" stroke="black" points="510,-235 510,-265 672,-265 672,-235 510,-235"/>
<text text-anchor="start" x="518" y="-253" font-family="Helvetica,sans-Serif" font-size="10.00">view.editor.wizards.Wizard.load</text>
<text text-anchor="middle" x="591" y="-242" font-family="Helvetica,sans-Serif" font-size="10.00">GlobalValues</text>
</a>
</g>
</g>
<!-- Node2&#45;&gt;Node12 -->
<g id="edge11" class="edge"><title>Node2&#45;&gt;Node12</title>
<path fill="none" stroke="midnightblue" d="M389.169,-172.059C417.591,-186.853 463.016,-209.415 504,-225 510.249,-227.376 516.826,-229.66 523.443,-231.815"/>
<polygon fill="midnightblue" stroke="midnightblue" points="522.544,-235.201 533.133,-234.875 524.652,-228.526 522.544,-235.201"/>
</g>
<!-- Node13 -->
<g id="node13" class="node"><title>Node13</title>
<g id="a_node13"><a xlink:href="../../d7/d40/classview_1_1editor_1_1wizards_1_1_wizard.html#af62c5e88670b925cde0a2a277a544bb5" target="_top" xlink:title="view.editor.wizards.Wizard.launch\lForEdit">
<polygon fill="white" stroke="black" points="504.5,-186 504.5,-216 677.5,-216 677.5,-186 504.5,-186"/>
<text text-anchor="start" x="512.5" y="-204" font-family="Helvetica,sans-Serif" font-size="10.00">view.editor.wizards.Wizard.launch</text>
<text text-anchor="middle" x="591" y="-193" font-family="Helvetica,sans-Serif" font-size="10.00">ForEdit</text>
</a>
</g>
</g>
<!-- Node2&#45;&gt;Node13 -->
<g id="edge12" class="edge"><title>Node2&#45;&gt;Node13</title>
<path fill="none" stroke="midnightblue" d="M439.168,-172.019C459.322,-175.892 481.152,-180.086 501.779,-184.049"/>
<polygon fill="midnightblue" stroke="midnightblue" points="501.315,-187.524 511.795,-185.974 502.635,-180.65 501.315,-187.524"/>
</g>
<!-- Node14 -->
<g id="node14" class="node"><title>Node14</title>
<g id="a_node14"><a xlink:href="../../dc/d48/classmodel_1_1data_1_1_wizard_data.html#ad8ab085a8510ecf464c28fc0f9b77c37" target="_top" xlink:title="model.data.WizardData.clear">
<polygon fill="white" stroke="black" points="513.5,-147.5 513.5,-166.5 668.5,-166.5 668.5,-147.5 513.5,-147.5"/>
<text text-anchor="middle" x="591" y="-154.5" font-family="Helvetica,sans-Serif" font-size="10.00">model.data.WizardData.clear</text>
</a>
</g>
</g>
<!-- Node2&#45;&gt;Node14 -->
<g id="edge13" class="edge"><title>Node2&#45;&gt;Node14</title>
<path fill="none" stroke="midnightblue" d="M467.79,-157C479.694,-157 491.711,-157 503.32,-157"/>
<polygon fill="midnightblue" stroke="midnightblue" points="503.406,-160.5 513.406,-157 503.406,-153.5 503.406,-160.5"/>
</g>
<!-- Node15 -->
<g id="node15" class="node"><title>Node15</title>
<g id="a_node15"><a xlink:href="../../dc/d48/classmodel_1_1data_1_1_wizard_data.html#a9cc5ffae61bf745c8aad40f05ee31ab4" target="_top" xlink:title="model.data.WizardData.add\lDataPair">
<polygon fill="white" stroke="black" points="516,-98 516,-128 666,-128 666,-98 516,-98"/>
<text text-anchor="start" x="524" y="-116" font-family="Helvetica,sans-Serif" font-size="10.00">model.data.WizardData.add</text>
<text text-anchor="middle" x="591" y="-105" font-family="Helvetica,sans-Serif" font-size="10.00">DataPair</text>
</a>
</g>
</g>
<!-- Node2&#45;&gt;Node15 -->
<g id="edge14" class="edge"><title>Node2&#45;&gt;Node15</title>
<path fill="none" stroke="midnightblue" d="M439.168,-141.981C460.629,-137.857 483.99,-133.369 505.775,-129.183"/>
<polygon fill="midnightblue" stroke="midnightblue" points="506.501,-132.607 515.661,-127.283 505.181,-125.733 506.501,-132.607"/>
</g>
<!-- Node16 -->
<g id="node16" class="node"><title>Node16</title>
<g id="a_node16"><a xlink:href="../../d7/d40/classview_1_1editor_1_1wizards_1_1_wizard.html#af04694bcdb4842048f357e2e05097440" target="_top" xlink:title="view.editor.wizards.Wizard.close\lStage">
<polygon fill="white" stroke="black" points="507.5,-49 507.5,-79 674.5,-79 674.5,-49 507.5,-49"/>
<text text-anchor="start" x="515.5" y="-67" font-family="Helvetica,sans-Serif" font-size="10.00">view.editor.wizards.Wizard.close</text>
<text text-anchor="middle" x="591" y="-56" font-family="Helvetica,sans-Serif" font-size="10.00">Stage</text>
</a>
</g>
</g>
<!-- Node2&#45;&gt;Node16 -->
<g id="edge15" class="edge"><title>Node2&#45;&gt;Node16</title>
<path fill="none" stroke="midnightblue" d="M388.572,-141.879C416.908,-126.776 462.607,-103.621 504,-88 509.482,-85.9314 515.219,-83.9504 521.018,-82.0763"/>
<polygon fill="midnightblue" stroke="midnightblue" points="522.294,-85.3445 530.799,-79.0267 520.211,-78.6618 522.294,-85.3445"/>
</g>
<!-- Node17 -->
<g id="node17" class="node"><title>Node17</title>
<g id="a_node17"><a xlink:href="../../d7/d40/classview_1_1editor_1_1wizards_1_1_wizard.html#ac0ea3bff75d232a7c87af57bc5bbd623" target="_top" xlink:title="view.editor.wizards.Wizard.set\lSubmit">
<polygon fill="white" stroke="black" points="512.5,-0 512.5,-30 669.5,-30 669.5,-0 512.5,-0"/>
<text text-anchor="start" x="520.5" y="-18" font-family="Helvetica,sans-Serif" font-size="10.00">view.editor.wizards.Wizard.set</text>
<text text-anchor="middle" x="591" y="-7" font-family="Helvetica,sans-Serif" font-size="10.00">Submit</text>
</a>
</g>
</g>
<!-- Node2&#45;&gt;Node17 -->
<g id="edge16" class="edge"><title>Node2&#45;&gt;Node17</title>
<path fill="none" stroke="midnightblue" d="M374.936,-141.974C398.933,-116.976 450.64,-66.8494 504,-39 507.532,-37.1565 511.222,-35.4413 515.002,-33.8472"/>
<polygon fill="midnightblue" stroke="midnightblue" points="516.499,-37.0205 524.547,-30.1298 513.958,-30.4977 516.499,-37.0205"/>
</g>
<!-- Node4 -->
<g id="node4" class="node"><title>Node4</title>
<g id="a_node4"><a xlink:href="../../de/d50/classview_1_1_g_u_i_load_style_utility.html#ad5c2539d920db1e4cec593d49cbf28bc" target="_top" xlink:title="view.GUILoadStyleUtility.get\lInstance">
<polygon fill="white" stroke="black" points="730,-404 730,-434 878,-434 878,-404 730,-404"/>
<text text-anchor="start" x="738" y="-422" font-family="Helvetica,sans-Serif" font-size="10.00">view.GUILoadStyleUtility.get</text>
<text text-anchor="middle" x="804" y="-411" font-family="Helvetica,sans-Serif" font-size="10.00">Instance</text>
</a>
</g>
</g>
<!-- Node3&#45;&gt;Node4 -->
<g id="edge3" class="edge"><title>Node3&#45;&gt;Node4</title>
<path fill="none" stroke="midnightblue" d="M607.197,-314.084C629.027,-334.943 671.349,-372.456 714,-394 718.539,-396.293 723.319,-398.401 728.209,-400.336"/>
<polygon fill="midnightblue" stroke="midnightblue" points="727.122,-403.665 737.716,-403.844 729.546,-397.098 727.122,-403.665"/>
</g>
<!-- Node6 -->
<g id="node6" class="node"><title>Node6</title>
<g id="a_node6"><a xlink:href="../../de/d50/classview_1_1_g_u_i_load_style_utility.html#a3f0bdbc7239563c54aa365afd86f620d" target="_top" xlink:title="view.GUILoadStyleUtility.generate\lGUIPane">
<polygon fill="white" stroke="black" points="716,-355 716,-385 892,-385 892,-355 716,-355"/>
<text text-anchor="start" x="724" y="-373" font-family="Helvetica,sans-Serif" font-size="10.00">view.GUILoadStyleUtility.generate</text>
<text text-anchor="middle" x="804" y="-362" font-family="Helvetica,sans-Serif" font-size="10.00">GUIPane</text>
</a>
</g>
</g>
<!-- Node3&#45;&gt;Node6 -->
<g id="edge5" class="edge"><title>Node3&#45;&gt;Node6</title>
<path fill="none" stroke="midnightblue" d="M629.348,-314.044C653.345,-323.47 685.288,-335.574 714,-345 721.398,-347.429 729.188,-349.835 736.957,-352.139"/>
<polygon fill="midnightblue" stroke="midnightblue" points="736.174,-355.557 746.754,-354.999 738.135,-348.837 736.174,-355.557"/>
</g>
<!-- Node7 -->
<g id="node7" class="node"><title>Node7</title>
<g id="a_node7"><a xlink:href="../../d8/d35/enumview_1_1gui_1_1_g_u_i_pane_path.html#a21483b76823df7d547e7c451c9877b65" target="_top" xlink:title="view.gui.GUIPanePath.get\lFilePath">
<polygon fill="white" stroke="black" points="735.5,-306 735.5,-336 872.5,-336 872.5,-306 735.5,-306"/>
<text text-anchor="start" x="743.5" y="-324" font-family="Helvetica,sans-Serif" font-size="10.00">view.gui.GUIPanePath.get</text>
<text text-anchor="middle" x="804" y="-313" font-family="Helvetica,sans-Serif" font-size="10.00">FilePath</text>
</a>
</g>
</g>
<!-- Node3&#45;&gt;Node7 -->
<g id="edge6" class="edge"><title>Node3&#45;&gt;Node7</title>
<path fill="none" stroke="midnightblue" d="M660.506,-306.143C681.178,-308.298 704.02,-310.68 725.249,-312.893"/>
<polygon fill="midnightblue" stroke="midnightblue" points="724.889,-316.375 735.198,-313.931 725.615,-309.412 724.889,-316.375"/>
</g>
<!-- Node8 -->
<g id="node8" class="node"><title>Node8</title>
<g id="a_node8"><a xlink:href="../../d7/d40/classview_1_1editor_1_1wizards_1_1_wizard.html#acf4e507283b52e3f07d0178de8a95900" target="_top" xlink:title="view.editor.wizards.Wizard.getRoot">
<polygon fill="white" stroke="black" points="714.5,-267.5 714.5,-286.5 893.5,-286.5 893.5,-267.5 714.5,-267.5"/>
<text text-anchor="middle" x="804" y="-274.5" font-family="Helvetica,sans-Serif" font-size="10.00">view.editor.wizards.Wizard.getRoot</text>
</a>
</g>
</g>
<!-- Node3&#45;&gt;Node8 -->
<g id="edge7" class="edge"><title>Node3&#45;&gt;Node8</title>
<path fill="none" stroke="midnightblue" d="M660.506,-291.857C674.487,-290.399 689.461,-288.838 704.256,-287.296"/>
<polygon fill="midnightblue" stroke="midnightblue" points="704.874,-290.75 714.457,-286.232 704.148,-283.788 704.874,-290.75"/>
</g>
<!-- Node9 -->
<g id="node9" class="node"><title>Node9</title>
<g id="a_node9"><a xlink:href="../../de/d50/classview_1_1_g_u_i_load_style_utility.html#ad8a679308f5305b82d32661a86f96690" target="_top" xlink:title="view.GUILoadStyleUtility.add\lScene">
<polygon fill="white" stroke="black" points="729,-218 729,-248 879,-248 879,-218 729,-218"/>
<text text-anchor="start" x="737" y="-236" font-family="Helvetica,sans-Serif" font-size="10.00">view.GUILoadStyleUtility.add</text>
<text text-anchor="middle" x="804" y="-225" font-family="Helvetica,sans-Serif" font-size="10.00">Scene</text>
</a>
</g>
</g>
<!-- Node3&#45;&gt;Node9 -->
<g id="edge8" class="edge"><title>Node3&#45;&gt;Node9</title>
<path fill="none" stroke="midnightblue" d="M647.872,-283.952C657.977,-280.893 668.362,-277.524 678,-274 694.444,-267.987 697.529,-263.939 714,-258 720.747,-255.567 727.85,-253.222 734.98,-251.008"/>
<polygon fill="midnightblue" stroke="midnightblue" points="736.128,-254.318 744.688,-248.075 734.103,-247.617 736.128,-254.318"/>
</g>
<!-- Node11 -->
<g id="node11" class="node"><title>Node11</title>
<g id="a_node11"><a xlink:href="../../d7/d40/classview_1_1editor_1_1wizards_1_1_wizard.html#abb231f895d1f01a0406555641eebedc5" target="_top" xlink:title="view.editor.wizards.Wizard.set\lStage">
<polygon fill="white" stroke="black" points="725.5,-169 725.5,-199 882.5,-199 882.5,-169 725.5,-169"/>
<text text-anchor="start" x="733.5" y="-187" font-family="Helvetica,sans-Serif" font-size="10.00">view.editor.wizards.Wizard.set</text>
<text text-anchor="middle" x="804" y="-176" font-family="Helvetica,sans-Serif" font-size="10.00">Stage</text>
</a>
</g>
</g>
<!-- Node3&#45;&gt;Node11 -->
<g id="edge10" class="edge"><title>Node3&#45;&gt;Node11</title>
<path fill="none" stroke="midnightblue" d="M660.686,-284.545C666.88,-281.649 672.776,-278.173 678,-274 703.803,-253.391 688.103,-229.492 714,-209 716.301,-207.179 718.727,-205.491 721.249,-203.926"/>
<polygon fill="midnightblue" stroke="midnightblue" points="723.05,-206.93 730.148,-199.064 719.694,-200.787 723.05,-206.93"/>
</g>
<!-- Node5 -->
<g id="node5" class="node"><title>Node5</title>
<g id="a_node5"><a xlink:href="../../de/d50/classview_1_1_g_u_i_load_style_utility.html#aec297413dba8a98a536fdd9792d27860" target="_top" xlink:title="view.GUILoadStyleUtility.\lGUILoadStyleUtility">
<polygon fill="white" stroke="black" points="946,-404 946,-434 1078,-434 1078,-404 946,-404"/>
<text text-anchor="start" x="954" y="-422" font-family="Helvetica,sans-Serif" font-size="10.00">view.GUILoadStyleUtility.</text>
<text text-anchor="middle" x="1012" y="-411" font-family="Helvetica,sans-Serif" font-size="10.00">GUILoadStyleUtility</text>
</a>
</g>
</g>
<!-- Node4&#45;&gt;Node5 -->
<g id="edge4" class="edge"><title>Node4&#45;&gt;Node5</title>
<path fill="none" stroke="midnightblue" d="M878.208,-419C896.845,-419 916.906,-419 935.647,-419"/>
<polygon fill="midnightblue" stroke="midnightblue" points="935.907,-422.5 945.906,-419 935.906,-415.5 935.907,-422.5"/>
</g>
<!-- Node10 -->
<g id="node10" class="node"><title>Node10</title>
<g id="a_node10"><a xlink:href="../../de/d50/classview_1_1_g_u_i_load_style_utility.html#a9540b620f62a09da8127367e897d5129" target="_top" xlink:title="view.GUILoadStyleUtility.attach\lStyles">
<polygon fill="white" stroke="black" points="930.5,-218 930.5,-248 1093.5,-248 1093.5,-218 930.5,-218"/>
<text text-anchor="start" x="938.5" y="-236" font-family="Helvetica,sans-Serif" font-size="10.00">view.GUILoadStyleUtility.attach</text>
<text text-anchor="middle" x="1012" y="-225" font-family="Helvetica,sans-Serif" font-size="10.00">Styles</text>
</a>
</g>
</g>
<!-- Node9&#45;&gt;Node10 -->
<g id="edge9" class="edge"><title>Node9&#45;&gt;Node10</title>
<path fill="none" stroke="midnightblue" d="M879.08,-233C892.316,-233 906.245,-233 919.893,-233"/>
<polygon fill="midnightblue" stroke="midnightblue" points="920.258,-236.5 930.258,-233 920.258,-229.5 920.258,-236.5"/>
</g>
</g>
</svg>
