<?xml version="1.0" encoding="UTF-8" standalone="no"?>
<!DOCTYPE svg PUBLIC "-//W3C//DTD SVG 1.1//EN"
 "http://www.w3.org/Graphics/SVG/1.1/DTD/svg11.dtd">
<!-- Generated by graphviz version 2.36.0 (20140111.2315)
 -->
<!-- Title: view.editor.wizards.CRUDContainer.launchEditWizard Pages: 1 -->
<svg width="850pt" height="388pt"
 viewBox="0.00 0.00 850.00 388.00" xmlns="http://www.w3.org/2000/svg" xmlns:xlink="http://www.w3.org/1999/xlink">
<g id="graph0" class="graph" transform="scale(1 1) rotate(0) translate(4 384)">
<title>view.editor.wizards.CRUDContainer.launchEditWizard</title>
<polygon fill="white" stroke="none" points="-4,4 -4,-384 846,-384 846,4 -4,4"/>
<!-- Node1 -->
<g id="node1" class="node"><title>Node1</title>
<polygon fill="#bfbfbf" stroke="black" points="0.5,-213 0.5,-243 215.5,-243 215.5,-213 0.5,-213"/>
<text text-anchor="start" x="8.5" y="-231" font-family="Helvetica,sans-Serif" font-size="10.00">view.editor.wizards.CRUDContainer.launch</text>
<text text-anchor="middle" x="108" y="-220" font-family="Helvetica,sans-Serif" font-size="10.00">EditWizard</text>
</g>
<!-- Node2 -->
<g id="node2" class="node"><title>Node2</title>
<g id="a_node2"><a xlink:href="../../dc/d48/classmodel_1_1data_1_1_wizard_data.html#a9cc5ffae61bf745c8aad40f05ee31ab4" target="_top" xlink:title="model.data.WizardData.add\lDataPair">
<polygon fill="white" stroke="black" points="264,-350 264,-380 414,-380 414,-350 264,-350"/>
<text text-anchor="start" x="272" y="-368" font-family="Helvetica,sans-Serif" font-size="10.00">model.data.WizardData.add</text>
<text text-anchor="middle" x="339" y="-357" font-family="Helvetica,sans-Serif" font-size="10.00">DataPair</text>
</a>
</g>
</g>
<!-- Node1&#45;&gt;Node2 -->
<g id="edge1" class="edge"><title>Node1&#45;&gt;Node2</title>
<path fill="none" stroke="midnightblue" d="M124.318,-243.314C149.081,-267.253 200.364,-313.533 252,-340 256.469,-342.291 261.179,-344.401 265.998,-346.341"/>
<polygon fill="midnightblue" stroke="midnightblue" points="264.774,-349.62 275.366,-349.862 267.237,-343.067 264.774,-349.62"/>
</g>
<!-- Node3 -->
<g id="node3" class="node"><title>Node3</title>
<g id="a_node3"><a xlink:href="../../dc/d48/classmodel_1_1data_1_1_wizard_data.html#ad8ab085a8510ecf464c28fc0f9b77c37" target="_top" xlink:title="model.data.WizardData.clear">
<polygon fill="white" stroke="black" points="261.5,-311.5 261.5,-330.5 416.5,-330.5 416.5,-311.5 261.5,-311.5"/>
<text text-anchor="middle" x="339" y="-318.5" font-family="Helvetica,sans-Serif" font-size="10.00">model.data.WizardData.clear</text>
</a>
</g>
</g>
<!-- Node1&#45;&gt;Node3 -->
<g id="edge2" class="edge"><title>Node1&#45;&gt;Node3</title>
<path fill="none" stroke="midnightblue" d="M133.986,-243.132C161.882,-259.455 208.8,-285.218 252,-301 260.264,-304.019 269.146,-306.69 277.953,-309.016"/>
<polygon fill="midnightblue" stroke="midnightblue" points="277.276,-312.455 287.827,-311.498 278.982,-305.666 277.276,-312.455"/>
</g>
<!-- Node4 -->
<g id="node4" class="node"><title>Node4</title>
<g id="a_node4"><a xlink:href="../../d7/d40/classview_1_1editor_1_1wizards_1_1_wizard.html#af04694bcdb4842048f357e2e05097440" target="_top" xlink:title="view.editor.wizards.Wizard.close\lStage">
<polygon fill="white" stroke="black" points="255.5,-262 255.5,-292 422.5,-292 422.5,-262 255.5,-262"/>
<text text-anchor="start" x="263.5" y="-280" font-family="Helvetica,sans-Serif" font-size="10.00">view.editor.wizards.Wizard.close</text>
<text text-anchor="middle" x="339" y="-269" font-family="Helvetica,sans-Serif" font-size="10.00">Stage</text>
</a>
</g>
</g>
<!-- Node1&#45;&gt;Node4 -->
<g id="edge3" class="edge"><title>Node1&#45;&gt;Node4</title>
<path fill="none" stroke="midnightblue" d="M179.264,-243.035C204.102,-248.349 232.223,-254.367 257.822,-259.844"/>
<polygon fill="midnightblue" stroke="midnightblue" points="257.358,-263.324 267.869,-261.994 258.823,-256.479 257.358,-263.324"/>
</g>
<!-- Node5 -->
<g id="node5" class="node"><title>Node5</title>
<g id="a_node5"><a xlink:href="../../d7/d40/classview_1_1editor_1_1wizards_1_1_wizard.html#af62c5e88670b925cde0a2a277a544bb5" target="_top" xlink:title="view.editor.wizards.Wizard.launch\lForEdit">
<polygon fill="white" stroke="black" points="252.5,-213 252.5,-243 425.5,-243 425.5,-213 252.5,-213"/>
<text text-anchor="start" x="260.5" y="-231" font-family="Helvetica,sans-Serif" font-size="10.00">view.editor.wizards.Wizard.launch</text>
<text text-anchor="middle" x="339" y="-220" font-family="Helvetica,sans-Serif" font-size="10.00">ForEdit</text>
</a>
</g>
</g>
<!-- Node1&#45;&gt;Node5 -->
<g id="edge4" class="edge"><title>Node1&#45;&gt;Node5</title>
<path fill="none" stroke="midnightblue" d="M215.79,-228C224.59,-228 233.451,-228 242.163,-228"/>
<polygon fill="midnightblue" stroke="midnightblue" points="242.311,-231.5 252.311,-228 242.311,-224.5 242.311,-231.5"/>
</g>
<!-- Node6 -->
<g id="node6" class="node"><title>Node6</title>
<g id="a_node6"><a xlink:href="../../d7/d40/classview_1_1editor_1_1wizards_1_1_wizard.html#ab4942fec6fe2e4e166f9ed82f6a2b2af" target="_top" xlink:title="view.editor.wizards.Wizard.load\lGlobalValues">
<polygon fill="white" stroke="black" points="258,-164 258,-194 420,-194 420,-164 258,-164"/>
<text text-anchor="start" x="266" y="-182" font-family="Helvetica,sans-Serif" font-size="10.00">view.editor.wizards.Wizard.load</text>
<text text-anchor="middle" x="339" y="-171" font-family="Helvetica,sans-Serif" font-size="10.00">GlobalValues</text>
</a>
</g>
</g>
<!-- Node1&#45;&gt;Node6 -->
<g id="edge5" class="edge"><title>Node1&#45;&gt;Node6</title>
<path fill="none" stroke="midnightblue" d="M179.264,-212.965C204.102,-207.651 232.223,-201.633 257.822,-196.156"/>
<polygon fill="midnightblue" stroke="midnightblue" points="258.823,-199.521 267.869,-194.006 257.358,-192.676 258.823,-199.521"/>
</g>
<!-- Node7 -->
<g id="node7" class="node"><title>Node7</title>
<g id="a_node7"><a xlink:href="../../d2/d33/classview_1_1editor_1_1wizards_1_1_wizard_utility.html#acece70a3dea98cde832a608d4aff204d" target="_top" xlink:title="view.editor.wizards.Wizard\lUtility.loadWizard">
<polygon fill="white" stroke="black" points="269.5,-115 269.5,-145 408.5,-145 408.5,-115 269.5,-115"/>
<text text-anchor="start" x="277.5" y="-133" font-family="Helvetica,sans-Serif" font-size="10.00">view.editor.wizards.Wizard</text>
<text text-anchor="middle" x="339" y="-122" font-family="Helvetica,sans-Serif" font-size="10.00">Utility.loadWizard</text>
</a>
</g>
</g>
<!-- Node1&#45;&gt;Node7 -->
<g id="edge6" class="edge"><title>Node1&#45;&gt;Node7</title>
<path fill="none" stroke="midnightblue" d="M134.924,-212.874C163.054,-196.915 209.634,-171.797 252,-155 258.118,-152.574 264.564,-150.267 271.063,-148.106"/>
<polygon fill="midnightblue" stroke="midnightblue" points="272.138,-151.437 280.589,-145.047 269.997,-144.772 272.138,-151.437"/>
</g>
<!-- Node16 -->
<g id="node16" class="node"><title>Node16</title>
<g id="a_node16"><a xlink:href="../../d7/d40/classview_1_1editor_1_1wizards_1_1_wizard.html#ac0ea3bff75d232a7c87af57bc5bbd623" target="_top" xlink:title="view.editor.wizards.Wizard.set\lSubmit">
<polygon fill="white" stroke="black" points="260.5,-66 260.5,-96 417.5,-96 417.5,-66 260.5,-66"/>
<text text-anchor="start" x="268.5" y="-84" font-family="Helvetica,sans-Serif" font-size="10.00">view.editor.wizards.Wizard.set</text>
<text text-anchor="middle" x="339" y="-73" font-family="Helvetica,sans-Serif" font-size="10.00">Submit</text>
</a>
</g>
</g>
<!-- Node1&#45;&gt;Node16 -->
<g id="edge15" class="edge"><title>Node1&#45;&gt;Node16</title>
<path fill="none" stroke="midnightblue" d="M122.479,-212.914C146.192,-187.267 198.001,-135.123 252,-106 256.225,-103.721 260.682,-101.628 265.254,-99.71"/>
<polygon fill="midnightblue" stroke="midnightblue" points="266.709,-102.9 274.76,-96.0131 264.172,-96.3755 266.709,-102.9"/>
</g>
<!-- Node8 -->
<g id="node8" class="node"><title>Node8</title>
<g id="a_node8"><a xlink:href="../../de/d50/classview_1_1_g_u_i_load_style_utility.html#ad5c2539d920db1e4cec593d49cbf28bc" target="_top" xlink:title="view.GUILoadStyleUtility.get\lInstance">
<polygon fill="white" stroke="black" points="478,-235 478,-265 626,-265 626,-235 478,-235"/>
<text text-anchor="start" x="486" y="-253" font-family="Helvetica,sans-Serif" font-size="10.00">view.GUILoadStyleUtility.get</text>
<text text-anchor="middle" x="552" y="-242" font-family="Helvetica,sans-Serif" font-size="10.00">Instance</text>
</a>
</g>
</g>
<!-- Node7&#45;&gt;Node8 -->
<g id="edge7" class="edge"><title>Node7&#45;&gt;Node8</title>
<path fill="none" stroke="midnightblue" d="M408.821,-144.289C414.988,-147.218 420.841,-150.748 426,-155 452.996,-177.251 434.903,-202.871 462,-225 464.067,-226.688 466.24,-228.262 468.498,-229.73"/>
<polygon fill="midnightblue" stroke="midnightblue" points="467.152,-232.99 477.577,-234.881 470.607,-226.902 467.152,-232.99"/>
</g>
<!-- Node10 -->
<g id="node10" class="node"><title>Node10</title>
<g id="a_node10"><a xlink:href="../../de/d50/classview_1_1_g_u_i_load_style_utility.html#a3f0bdbc7239563c54aa365afd86f620d" target="_top" xlink:title="view.GUILoadStyleUtility.generate\lGUIPane">
<polygon fill="white" stroke="black" points="464,-186 464,-216 640,-216 640,-186 464,-186"/>
<text text-anchor="start" x="472" y="-204" font-family="Helvetica,sans-Serif" font-size="10.00">view.GUILoadStyleUtility.generate</text>
<text text-anchor="middle" x="552" y="-193" font-family="Helvetica,sans-Serif" font-size="10.00">GUIPane</text>
</a>
</g>
</g>
<!-- Node7&#45;&gt;Node10 -->
<g id="edge9" class="edge"><title>Node7&#45;&gt;Node10</title>
<path fill="none" stroke="midnightblue" d="M398.967,-145.052C408.149,-147.992 417.427,-151.32 426,-155 443.021,-162.307 444.946,-168.77 462,-176 467.721,-178.425 473.748,-180.689 479.856,-182.784"/>
<polygon fill="midnightblue" stroke="midnightblue" points="478.898,-186.153 489.491,-185.937 481.076,-179.501 478.898,-186.153"/>
</g>
<!-- Node11 -->
<g id="node11" class="node"><title>Node11</title>
<g id="a_node11"><a xlink:href="../../d8/d35/enumview_1_1gui_1_1_g_u_i_pane_path.html#a21483b76823df7d547e7c451c9877b65" target="_top" xlink:title="view.gui.GUIPanePath.get\lFilePath">
<polygon fill="white" stroke="black" points="483.5,-137 483.5,-167 620.5,-167 620.5,-137 483.5,-137"/>
<text text-anchor="start" x="491.5" y="-155" font-family="Helvetica,sans-Serif" font-size="10.00">view.gui.GUIPanePath.get</text>
<text text-anchor="middle" x="552" y="-144" font-family="Helvetica,sans-Serif" font-size="10.00">FilePath</text>
</a>
</g>
</g>
<!-- Node7&#45;&gt;Node11 -->
<g id="edge10" class="edge"><title>Node7&#45;&gt;Node11</title>
<path fill="none" stroke="midnightblue" d="M408.506,-137.143C429.178,-139.298 452.02,-141.68 473.249,-143.893"/>
<polygon fill="midnightblue" stroke="midnightblue" points="472.889,-147.375 483.198,-144.931 473.615,-140.412 472.889,-147.375"/>
</g>
<!-- Node12 -->
<g id="node12" class="node"><title>Node12</title>
<g id="a_node12"><a xlink:href="../../d7/d40/classview_1_1editor_1_1wizards_1_1_wizard.html#acf4e507283b52e3f07d0178de8a95900" target="_top" xlink:title="view.editor.wizards.Wizard.getRoot">
<polygon fill="white" stroke="black" points="462.5,-98.5 462.5,-117.5 641.5,-117.5 641.5,-98.5 462.5,-98.5"/>
<text text-anchor="middle" x="552" y="-105.5" font-family="Helvetica,sans-Serif" font-size="10.00">view.editor.wizards.Wizard.getRoot</text>
</a>
</g>
</g>
<!-- Node7&#45;&gt;Node12 -->
<g id="edge11" class="edge"><title>Node7&#45;&gt;Node12</title>
<path fill="none" stroke="midnightblue" d="M408.506,-122.857C422.487,-121.399 437.461,-119.838 452.256,-118.296"/>
<polygon fill="midnightblue" stroke="midnightblue" points="452.874,-121.75 462.457,-117.232 452.148,-114.788 452.874,-121.75"/>
</g>
<!-- Node13 -->
<g id="node13" class="node"><title>Node13</title>
<g id="a_node13"><a xlink:href="../../de/d50/classview_1_1_g_u_i_load_style_utility.html#ad8a679308f5305b82d32661a86f96690" target="_top" xlink:title="view.GUILoadStyleUtility.add\lScene">
<polygon fill="white" stroke="black" points="477,-49 477,-79 627,-79 627,-49 477,-49"/>
<text text-anchor="start" x="485" y="-67" font-family="Helvetica,sans-Serif" font-size="10.00">view.GUILoadStyleUtility.add</text>
<text text-anchor="middle" x="552" y="-56" font-family="Helvetica,sans-Serif" font-size="10.00">Scene</text>
</a>
</g>
</g>
<!-- Node7&#45;&gt;Node13 -->
<g id="edge12" class="edge"><title>Node7&#45;&gt;Node13</title>
<path fill="none" stroke="midnightblue" d="M395.872,-114.952C405.977,-111.893 416.362,-108.524 426,-105 442.444,-98.9869 445.529,-94.9385 462,-89 468.747,-86.5675 475.85,-84.2224 482.98,-82.0084"/>
<polygon fill="midnightblue" stroke="midnightblue" points="484.128,-85.3178 492.688,-79.0746 482.103,-78.6171 484.128,-85.3178"/>
</g>
<!-- Node15 -->
<g id="node15" class="node"><title>Node15</title>
<g id="a_node15"><a xlink:href="../../d7/d40/classview_1_1editor_1_1wizards_1_1_wizard.html#abb231f895d1f01a0406555641eebedc5" target="_top" xlink:title="view.editor.wizards.Wizard.set\lStage">
<polygon fill="white" stroke="black" points="473.5,-0 473.5,-30 630.5,-30 630.5,-0 473.5,-0"/>
<text text-anchor="start" x="481.5" y="-18" font-family="Helvetica,sans-Serif" font-size="10.00">view.editor.wizards.Wizard.set</text>
<text text-anchor="middle" x="552" y="-7" font-family="Helvetica,sans-Serif" font-size="10.00">Stage</text>
</a>
</g>
</g>
<!-- Node7&#45;&gt;Node15 -->
<g id="edge14" class="edge"><title>Node7&#45;&gt;Node15</title>
<path fill="none" stroke="midnightblue" d="M408.714,-115.58C414.903,-112.677 420.789,-109.189 426,-105 452.04,-84.0635 435.757,-59.6816 462,-39 463.787,-37.5916 465.65,-36.2655 467.576,-35.0171"/>
<polygon fill="midnightblue" stroke="midnightblue" points="469.402,-38.0052 476.372,-30.0256 465.947,-31.9172 469.402,-38.0052"/>
</g>
<!-- Node9 -->
<g id="node9" class="node"><title>Node9</title>
<g id="a_node9"><a xlink:href="../../de/d50/classview_1_1_g_u_i_load_style_utility.html#aec297413dba8a98a536fdd9792d27860" target="_top" xlink:title="view.GUILoadStyleUtility.\lGUILoadStyleUtility">
<polygon fill="white" stroke="black" points="694,-235 694,-265 826,-265 826,-235 694,-235"/>
<text text-anchor="start" x="702" y="-253" font-family="Helvetica,sans-Serif" font-size="10.00">view.GUILoadStyleUtility.</text>
<text text-anchor="middle" x="760" y="-242" font-family="Helvetica,sans-Serif" font-size="10.00">GUILoadStyleUtility</text>
</a>
</g>
</g>
<!-- Node8&#45;&gt;Node9 -->
<g id="edge8" class="edge"><title>Node8&#45;&gt;Node9</title>
<path fill="none" stroke="midnightblue" d="M626.208,-250C644.845,-250 664.906,-250 683.647,-250"/>
<polygon fill="midnightblue" stroke="midnightblue" points="683.907,-253.5 693.906,-250 683.906,-246.5 683.907,-253.5"/>
</g>
<!-- Node14 -->
<g id="node14" class="node"><title>Node14</title>
<g id="a_node14"><a xlink:href="../../de/d50/classview_1_1_g_u_i_load_style_utility.html#a9540b620f62a09da8127367e897d5129" target="_top" xlink:title="view.GUILoadStyleUtility.attach\lStyles">
<polygon fill="white" stroke="black" points="678.5,-49 678.5,-79 841.5,-79 841.5,-49 678.5,-49"/>
<text text-anchor="start" x="686.5" y="-67" font-family="Helvetica,sans-Serif" font-size="10.00">view.GUILoadStyleUtility.attach</text>
<text text-anchor="middle" x="760" y="-56" font-family="Helvetica,sans-Serif" font-size="10.00">Styles</text>
</a>
</g>
</g>
<!-- Node13&#45;&gt;Node14 -->
<g id="edge13" class="edge"><title>Node13&#45;&gt;Node14</title>
<path fill="none" stroke="midnightblue" d="M627.08,-64C640.316,-64 654.245,-64 667.893,-64"/>
<polygon fill="midnightblue" stroke="midnightblue" points="668.258,-67.5001 678.258,-64 668.258,-60.5001 668.258,-67.5001"/>
</g>
</g>
</svg>
