<?xml version="1.0" encoding="UTF-8" standalone="no"?>
<!DOCTYPE svg PUBLIC "-//W3C//DTD SVG 1.1//EN"
 "http://www.w3.org/Graphics/SVG/1.1/DTD/svg11.dtd">
<!-- Generated by graphviz version 2.36.0 (20140111.2315)
 -->
<!-- Title: view.editor.wizards.CRUDContainer.getWizardDatas Pages: 1 -->
<svg width="614pt" height="38pt"
 viewBox="0.00 0.00 614.00 38.00" xmlns="http://www.w3.org/2000/svg" xmlns:xlink="http://www.w3.org/1999/xlink">
<g id="graph0" class="graph" transform="scale(1 1) rotate(0) translate(4 34)">
<title>view.editor.wizards.CRUDContainer.getWizardDatas</title>
<polygon fill="white" stroke="none" points="-4,4 -4,-34 610,-34 610,4 -4,4"/>
<!-- Node1 -->
<g id="node1" class="node"><title>Node1</title>
<polygon fill="#bfbfbf" stroke="black" points="0,-0 0,-30 200,-30 200,-0 0,-0"/>
<text text-anchor="start" x="8" y="-18" font-family="Helvetica,sans-Serif" font-size="10.00">view.editor.wizards.CRUDContainer.get</text>
<text text-anchor="middle" x="100" y="-7" font-family="Helvetica,sans-Serif" font-size="10.00">WizardDatas</text>
</g>
<!-- Node2 -->
<g id="node2" class="node"><title>Node2</title>
<g id="a_node2"><a xlink:href="../../d7/d92/classview_1_1editor_1_1wizards_1_1_game_element_wizard.html#a39050dce98611f314054cc4d59be86f4" target="_top" xlink:title="view.editor.wizards.Game\lElementWizard.storeContainerData">
<polygon fill="white" stroke="black" points="236.5,-0 236.5,-30 421.5,-30 421.5,-0 236.5,-0"/>
<text text-anchor="start" x="244.5" y="-18" font-family="Helvetica,sans-Serif" font-size="10.00">view.editor.wizards.Game</text>
<text text-anchor="middle" x="329" y="-7" font-family="Helvetica,sans-Serif" font-size="10.00">ElementWizard.storeContainerData</text>
</a>
</g>
</g>
<!-- Node1&#45;&gt;Node2 -->
<g id="edge1" class="edge"><title>Node1&#45;&gt;Node2</title>
<path fill="none" stroke="midnightblue" d="M210.441,-15C219.158,-15 227.907,-15 236.482,-15"/>
<polygon fill="midnightblue" stroke="midnightblue" points="210.235,-11.5001 200.235,-15 210.235,-18.5001 210.235,-11.5001"/>
</g>
<!-- Node3 -->
<g id="node3" class="node"><title>Node3</title>
<g id="a_node3"><a xlink:href="../../d7/d92/classview_1_1editor_1_1wizards_1_1_game_element_wizard.html#a5aef02ce2b3e8f7470cd74aea63e4f6b" target="_top" xlink:title="view.editor.wizards.Game\lElementWizard.updateData">
<polygon fill="white" stroke="black" points="458,-0 458,-30 606,-30 606,-0 458,-0"/>
<text text-anchor="start" x="466" y="-18" font-family="Helvetica,sans-Serif" font-size="10.00">view.editor.wizards.Game</text>
<text text-anchor="middle" x="532" y="-7" font-family="Helvetica,sans-Serif" font-size="10.00">ElementWizard.updateData</text>
</a>
</g>
</g>
<!-- Node2&#45;&gt;Node3 -->
<g id="edge2" class="edge"><title>Node2&#45;&gt;Node3</title>
<path fill="none" stroke="midnightblue" d="M431.923,-15C440.66,-15 449.381,-15 457.825,-15"/>
<polygon fill="midnightblue" stroke="midnightblue" points="431.677,-11.5001 421.677,-15 431.677,-18.5001 431.677,-11.5001"/>
</g>
</g>
</svg>
