<?xml version="1.0" encoding="UTF-8" standalone="no"?>
<!DOCTYPE svg PUBLIC "-//W3C//DTD SVG 1.1//EN"
 "http://www.w3.org/Graphics/SVG/1.1/DTD/svg11.dtd">
<!-- Generated by graphviz version 2.36.0 (20140111.2315)
 -->
<!-- Title: /tmp/git/duke&#45;compsci308&#45;fall2014/voogasalad_TheException/repository/src Pages: 1 -->
<svg width="484pt" height="111pt"
 viewBox="0.00 0.00 484.00 111.00" xmlns="http://www.w3.org/2000/svg" xmlns:xlink="http://www.w3.org/1999/xlink">
<g id="graph0" class="graph" transform="scale(1 1) rotate(0) translate(4 107)">
<title>/tmp/git/duke&#45;compsci308&#45;fall2014/voogasalad_TheException/repository/src</title>
<polygon fill="white" stroke="none" points="-4,4 -4,-107 480,-107 480,4 -4,4"/>
<g id="clust1" class="cluster"><title>clusterdir_ed6768465cebfb31d5114a12b6589b6a</title>
<g id="a_clust1"><a xlink:href="dir_ed6768465cebfb31d5114a12b6589b6a.html" target="_top" xlink:title="repository">
<polygon fill="#ddddee" stroke="black" points="8,-8 8,-95 468,-95 468,-8 8,-8"/>
<text text-anchor="middle" x="238" y="-83" font-family="Helvetica,sans-Serif" font-size="10.00">repository</text>
</a>
</g>
</g>
<g id="clust2" class="cluster"><title>clusterdir_98b728a86038e7c90995c85e0750dbf1</title>
<g id="a_clust2"><a xlink:href="dir_98b728a86038e7c90995c85e0750dbf1.html" target="_top">
<polygon fill="#eeeeff" stroke="black" points="16,-16 16,-68 460,-68 460,-16 16,-16"/>
</a>
</g>
</g>
<!-- dir_98b728a86038e7c90995c85e0750dbf1 -->
<g id="node1" class="node"><title>dir_98b728a86038e7c90995c85e0750dbf1</title>
<text text-anchor="middle" x="425" y="-39.5" font-family="Helvetica,sans-Serif" font-size="10.00">src</text>
</g>
<!-- dir_b76a279b603387aaef5c42f0c28614c6 -->
<g id="node2" class="node"><title>dir_b76a279b603387aaef5c42f0c28614c6</title>
<g id="a_node2"><a xlink:href="dir_b76a279b603387aaef5c42f0c28614c6.html" target="_top" xlink:title="application">
<polygon fill="white" stroke="black" points="380,-60 312,-60 312,-24 380,-24 380,-60"/>
<text text-anchor="middle" x="346" y="-39.5" font-family="Helvetica,sans-Serif" font-size="10.00">application</text>
</a>
</g>
</g>
<!-- dir_7f52be3a8ac245efef15b3f0edad49dc -->
<g id="node3" class="node"><title>dir_7f52be3a8ac245efef15b3f0edad49dc</title>
<g id="a_node3"><a xlink:href="dir_7f52be3a8ac245efef15b3f0edad49dc.html" target="_top" xlink:title="engine">
<polygon fill="white" stroke="red" points="294,-60 240,-60 240,-24 294,-24 294,-60"/>
<text text-anchor="middle" x="267" y="-39.5" font-family="Helvetica,sans-Serif" font-size="10.00">engine</text>
</a>
</g>
</g>
<!-- dir_8a5148936cab95c96ebf74903a93152a -->
<g id="node4" class="node"><title>dir_8a5148936cab95c96ebf74903a93152a</title>
<g id="a_node4"><a xlink:href="dir_8a5148936cab95c96ebf74903a93152a.html" target="_top" xlink:title="model">
<polygon fill="white" stroke="red" points="222,-60 168,-60 168,-24 222,-24 222,-60"/>
<text text-anchor="middle" x="195" y="-39.5" font-family="Helvetica,sans-Serif" font-size="10.00">model</text>
</a>
</g>
</g>
<!-- dir_42c9663be69eda0999c52ce52060eadc -->
<g id="node5" class="node"><title>dir_42c9663be69eda0999c52ce52060eadc</title>
<g id="a_node5"><a xlink:href="dir_42c9663be69eda0999c52ce52060eadc.html" target="_top" xlink:title="util">
<polygon fill="white" stroke="red" points="150,-60 96,-60 96,-24 150,-24 150,-60"/>
<text text-anchor="middle" x="123" y="-39.5" font-family="Helvetica,sans-Serif" font-size="10.00">util</text>
</a>
</g>
</g>
<!-- dir_4a82e6296b28fbced9afe2627a6fc07a -->
<g id="node6" class="node"><title>dir_4a82e6296b28fbced9afe2627a6fc07a</title>
<g id="a_node6"><a xlink:href="dir_4a82e6296b28fbced9afe2627a6fc07a.html" target="_top" xlink:title="view">
<polygon fill="white" stroke="red" points="78,-60 24,-60 24,-24 78,-24 78,-60"/>
<text text-anchor="middle" x="51" y="-39.5" font-family="Helvetica,sans-Serif" font-size="10.00">view</text>
</a>
</g>
</g>
</g>
</svg>
