<?xml version="1.0" encoding="UTF-8" standalone="no"?>
<!DOCTYPE svg PUBLIC "-//W3C//DTD SVG 1.1//EN"
 "http://www.w3.org/Graphics/SVG/1.1/DTD/svg11.dtd">
<!-- Generated by graphviz version 2.36.0 (20140111.2315)
 -->
<!-- Title: /tmp/git/duke&#45;compsci308&#45;fall2014/voogasalad_TheException/repository/src/view Pages: 1 -->
<svg width="470pt" height="111pt"
 viewBox="0.00 0.00 470.00 111.00" xmlns="http://www.w3.org/2000/svg" xmlns:xlink="http://www.w3.org/1999/xlink">
<g id="graph0" class="graph" transform="scale(1 1) rotate(0) translate(4 107)">
<title>/tmp/git/duke&#45;compsci308&#45;fall2014/voogasalad_TheException/repository/src/view</title>
<polygon fill="white" stroke="none" points="-4,4 -4,-107 466,-107 466,4 -4,4"/>
<g id="clust1" class="cluster"><title>clusterdir_98b728a86038e7c90995c85e0750dbf1</title>
<g id="a_clust1"><a xlink:href="dir_98b728a86038e7c90995c85e0750dbf1.html" target="_top" xlink:title="src">
<polygon fill="#ddddee" stroke="black" points="8,-8 8,-95 454,-95 454,-8 8,-8"/>
<text text-anchor="middle" x="231" y="-83" font-family="Helvetica,sans-Serif" font-size="10.00">src</text>
</a>
</g>
</g>
<g id="clust2" class="cluster"><title>clusterdir_4a82e6296b28fbced9afe2627a6fc07a</title>
<g id="a_clust2"><a xlink:href="dir_4a82e6296b28fbced9afe2627a6fc07a.html" target="_top">
<polygon fill="#eeeeff" stroke="black" points="16,-16 16,-68 446,-68 446,-16 16,-16"/>
</a>
</g>
</g>
<!-- dir_4a82e6296b28fbced9afe2627a6fc07a -->
<g id="node1" class="node"><title>dir_4a82e6296b28fbced9afe2627a6fc07a</title>
<text text-anchor="middle" x="411" y="-39.5" font-family="Helvetica,sans-Serif" font-size="10.00">view</text>
</g>
<!-- dir_5cf32a729916761a0b565c58da93c7f1 -->
<g id="node2" class="node"><title>dir_5cf32a729916761a0b565c58da93c7f1</title>
<g id="a_node2"><a xlink:href="dir_5cf32a729916761a0b565c58da93c7f1.html" target="_top" xlink:title="dialog">
<polygon fill="white" stroke="black" points="366,-60 312,-60 312,-24 366,-24 366,-60"/>
<text text-anchor="middle" x="339" y="-39.5" font-family="Helvetica,sans-Serif" font-size="10.00">dialog</text>
</a>
</g>
</g>
<!-- dir_a6fce76d7003414a074757e46ccccdd5 -->
<g id="node3" class="node"><title>dir_a6fce76d7003414a074757e46ccccdd5</title>
<g id="a_node3"><a xlink:href="dir_a6fce76d7003414a074757e46ccccdd5.html" target="_top" xlink:title="editor">
<polygon fill="white" stroke="red" points="294,-60 240,-60 240,-24 294,-24 294,-60"/>
<text text-anchor="middle" x="267" y="-39.5" font-family="Helvetica,sans-Serif" font-size="10.00">editor</text>
</a>
</g>
</g>
<!-- dir_77d236f3fef0d94855f788d57c60789f -->
<g id="node4" class="node"><title>dir_77d236f3fef0d94855f788d57c60789f</title>
<g id="a_node4"><a xlink:href="dir_77d236f3fef0d94855f788d57c60789f.html" target="_top" xlink:title="gui">
<polygon fill="white" stroke="black" points="222,-60 168,-60 168,-24 222,-24 222,-60"/>
<text text-anchor="middle" x="195" y="-39.5" font-family="Helvetica,sans-Serif" font-size="10.00">gui</text>
</a>
</g>
</g>
<!-- dir_4649b6b0e1d7ea9ece343c1509a33b18 -->
<g id="node5" class="node"><title>dir_4649b6b0e1d7ea9ece343c1509a33b18</title>
<g id="a_node5"><a xlink:href="dir_4649b6b0e1d7ea9ece343c1509a33b18.html" target="_top" xlink:title="runner">
<polygon fill="white" stroke="black" points="150,-60 96,-60 96,-24 150,-24 150,-60"/>
<text text-anchor="middle" x="123" y="-39.5" font-family="Helvetica,sans-Serif" font-size="10.00">runner</text>
</a>
</g>
</g>
<!-- dir_4164b96a91992e9312dcef03e561bc62 -->
<g id="node6" class="node"><title>dir_4164b96a91992e9312dcef03e561bc62</title>
<g id="a_node6"><a xlink:href="dir_4164b96a91992e9312dcef03e561bc62.html" target="_top" xlink:title="splash">
<polygon fill="white" stroke="black" points="78,-60 24,-60 24,-24 78,-24 78,-60"/>
<text text-anchor="middle" x="51" y="-39.5" font-family="Helvetica,sans-Serif" font-size="10.00">splash</text>
</a>
</g>
</g>
</g>
</svg>
