<?xml version="1.0" encoding="UTF-8" standalone="no"?>
<!DOCTYPE svg PUBLIC "-//W3C//DTD SVG 1.1//EN"
 "http://www.w3.org/Graphics/SVG/1.1/DTD/svg11.dtd">
<!-- Generated by graphviz version 2.36.0 (20140111.2315)
 -->
<!-- Title: Graphical Class Hierarchy Pages: 1 -->
<svg width="600pt" height="136pt"
 viewBox="0.00 0.00 600.00 136.00" xmlns="http://www.w3.org/2000/svg" xmlns:xlink="http://www.w3.org/1999/xlink">
<g id="graph0" class="graph" transform="scale(1 1) rotate(0) translate(4 132)">
<title>Graphical Class Hierarchy</title>
<polygon fill="white" stroke="none" points="-4,4 -4,-132 596,-132 596,4 -4,4"/>
<!-- Node1 -->
<g id="node1" class="node"><title>Node1</title>
<g id="a_node1"><a xlink:href="d8/d8e/classengine_1_1game_representation_1_1evaluatables_1_1parameters_1_1_parameter.html" target="_top" xlink:title="engine.gameRepresentation.evaluatables.parameters.\lParameter\&lt; Number \&gt;">
<polygon fill="white" stroke="black" points="0,-49 0,-79 278,-79 278,-49 0,-49"/>
<text text-anchor="start" x="8" y="-67" font-family="Helvetica,sans-Serif" font-size="10.00">engine.gameRepresentation.evaluatables.parameters.</text>
<text text-anchor="middle" x="139" y="-56" font-family="Helvetica,sans-Serif" font-size="10.00">Parameter&lt; Number &gt;</text>
</a>
</g>
</g>
<!-- Node2 -->
<g id="node2" class="node"><title>Node2</title>
<g id="a_node2"><a xlink:href="d6/d37/classengine_1_1game_representation_1_1evaluatables_1_1parameters_1_1_number_parameter.html" target="_top" xlink:title="engine.gameRepresentation.evaluatables.parameters.\lNumberParameter">
<polygon fill="white" stroke="black" points="314,-98 314,-128 592,-128 592,-98 314,-98"/>
<text text-anchor="start" x="322" y="-116" font-family="Helvetica,sans-Serif" font-size="10.00">engine.gameRepresentation.evaluatables.parameters.</text>
<text text-anchor="middle" x="453" y="-105" font-family="Helvetica,sans-Serif" font-size="10.00">NumberParameter</text>
</a>
</g>
</g>
<!-- Node1&#45;&gt;Node2 -->
<g id="edge1" class="edge"><title>Node1&#45;&gt;Node2</title>
<path fill="none" stroke="midnightblue" d="M245.733,-80.6055C281.596,-86.2379 321.428,-92.4935 356.45,-97.9938"/>
<polygon fill="midnightblue" stroke="midnightblue" points="246.153,-77.1286 235.731,-79.0346 245.066,-84.0438 246.153,-77.1286"/>
</g>
<!-- Node3 -->
<g id="node3" class="node"><title>Node3</title>
<g id="a_node3"><a xlink:href="db/d3a/classengine_1_1game_representation_1_1evaluatables_1_1parameters_1_1_participant_value_parameter.html" target="_top" xlink:title="engine.gameRepresentation.evaluatables.parameters.\lParticipantValueParameter">
<polygon fill="white" stroke="black" points="314,-49 314,-79 592,-79 592,-49 314,-49"/>
<text text-anchor="start" x="322" y="-67" font-family="Helvetica,sans-Serif" font-size="10.00">engine.gameRepresentation.evaluatables.parameters.</text>
<text text-anchor="middle" x="453" y="-56" font-family="Helvetica,sans-Serif" font-size="10.00">ParticipantValueParameter</text>
</a>
</g>
</g>
<!-- Node1&#45;&gt;Node3 -->
<g id="edge2" class="edge"><title>Node1&#45;&gt;Node3</title>
<path fill="none" stroke="midnightblue" d="M288.415,-64C296.798,-64 305.211,-64 313.555,-64"/>
<polygon fill="midnightblue" stroke="midnightblue" points="288.21,-60.5001 278.21,-64 288.21,-67.5001 288.21,-60.5001"/>
</g>
<!-- Node4 -->
<g id="node4" class="node"><title>Node4</title>
<g id="a_node4"><a xlink:href="d9/d2d/classengine_1_1game_representation_1_1evaluatables_1_1parameters_1_1_random_parameter.html" target="_top" xlink:title="engine.gameRepresentation.evaluatables.parameters.\lRandomParameter">
<polygon fill="white" stroke="black" points="314,-0 314,-30 592,-30 592,-0 314,-0"/>
<text text-anchor="start" x="322" y="-18" font-family="Helvetica,sans-Serif" font-size="10.00">engine.gameRepresentation.evaluatables.parameters.</text>
<text text-anchor="middle" x="453" y="-7" font-family="Helvetica,sans-Serif" font-size="10.00">RandomParameter</text>
</a>
</g>
</g>
<!-- Node1&#45;&gt;Node4 -->
<g id="edge3" class="edge"><title>Node1&#45;&gt;Node4</title>
<path fill="none" stroke="midnightblue" d="M245.733,-47.3945C281.596,-41.7621 321.428,-35.5065 356.45,-30.0062"/>
<polygon fill="midnightblue" stroke="midnightblue" points="245.066,-43.9562 235.731,-48.9654 246.153,-50.8714 245.066,-43.9562"/>
</g>
</g>
</svg>
