<?xml version="1.0" encoding="UTF-8" standalone="no"?>
<!DOCTYPE svg PUBLIC "-//W3C//DTD SVG 1.1//EN"
 "http://www.w3.org/Graphics/SVG/1.1/DTD/svg11.dtd">
<!-- Generated by graphviz version 2.36.0 (20140111.2315)
 -->
<!-- Title: Graphical Class Hierarchy Pages: 1 -->
<svg width="210pt" height="104pt"
 viewBox="0.00 0.00 210.00 104.00" xmlns="http://www.w3.org/2000/svg" xmlns:xlink="http://www.w3.org/1999/xlink">
<g id="graph0" class="graph" transform="scale(1 1) rotate(0) translate(4 100)">
<title>Graphical Class Hierarchy</title>
<polygon fill="white" stroke="none" points="-4,4 -4,-100 206,-100 206,4 -4,4"/>
<!-- Node1 -->
<g id="node1" class="node"><title>Node1</title>
<polygon fill="white" stroke="#bfbfbf" points="0.5,-38.5 0.5,-57.5 69.5,-57.5 69.5,-38.5 0.5,-38.5"/>
<text text-anchor="middle" x="35" y="-45.5" font-family="Helvetica,sans-Serif" font-size="10.00">Application</text>
</g>
<!-- Node2 -->
<g id="node2" class="node"><title>Node2</title>
<g id="a_node2"><a xlink:href="d9/d96/classapplication_1_1_main.html" target="_top" xlink:title="application.Main">
<polygon fill="white" stroke="black" points="107,-76.5 107,-95.5 201,-95.5 201,-76.5 107,-76.5"/>
<text text-anchor="middle" x="154" y="-83.5" font-family="Helvetica,sans-Serif" font-size="10.00">application.Main</text>
</a>
</g>
</g>
<!-- Node1&#45;&gt;Node2 -->
<g id="edge1" class="edge"><title>Node1&#45;&gt;Node2</title>
<path fill="none" stroke="midnightblue" d="M75.0424,-60.6804C90.8509,-65.8148 108.799,-71.6441 123.485,-76.4141"/>
<polygon fill="midnightblue" stroke="midnightblue" points="76.1162,-57.3493 65.524,-57.589 73.9538,-64.0069 76.1162,-57.3493"/>
</g>
<!-- Node3 -->
<g id="node3" class="node"><title>Node3</title>
<g id="a_node3"><a xlink:href="d6/d00/classapplication_1_1_pong.html" target="_top" xlink:title="application.Pong">
<polygon fill="white" stroke="black" points="106.5,-38.5 106.5,-57.5 201.5,-57.5 201.5,-38.5 106.5,-38.5"/>
<text text-anchor="middle" x="154" y="-45.5" font-family="Helvetica,sans-Serif" font-size="10.00">application.Pong</text>
</a>
</g>
</g>
<!-- Node1&#45;&gt;Node3 -->
<g id="edge2" class="edge"><title>Node1&#45;&gt;Node3</title>
<path fill="none" stroke="midnightblue" d="M79.5366,-48C88.2943,-48 97.5317,-48 106.389,-48"/>
<polygon fill="midnightblue" stroke="midnightblue" points="79.5275,-44.5001 69.5275,-48 79.5275,-51.5001 79.5275,-44.5001"/>
</g>
<!-- Node4 -->
<g id="node4" class="node"><title>Node4</title>
<g id="a_node4"><a xlink:href="d0/daf/classapplication_1_1_r_p_g.html" target="_top" xlink:title="application.RPG">
<polygon fill="white" stroke="black" points="108.5,-0.5 108.5,-19.5 199.5,-19.5 199.5,-0.5 108.5,-0.5"/>
<text text-anchor="middle" x="154" y="-7.5" font-family="Helvetica,sans-Serif" font-size="10.00">application.RPG</text>
</a>
</g>
</g>
<!-- Node1&#45;&gt;Node4 -->
<g id="edge3" class="edge"><title>Node1&#45;&gt;Node4</title>
<path fill="none" stroke="midnightblue" d="M75.0424,-35.3196C90.8509,-30.1852 108.799,-24.3559 123.485,-19.5859"/>
<polygon fill="midnightblue" stroke="midnightblue" points="73.9538,-31.9931 65.524,-38.411 76.1162,-38.6507 73.9538,-31.9931"/>
</g>
</g>
</svg>
