<?xml version="1.0" encoding="UTF-8" standalone="no"?>
<!DOCTYPE svg PUBLIC "-//W3C//DTD SVG 1.1//EN"
 "http://www.w3.org/Graphics/SVG/1.1/DTD/svg11.dtd">
<!-- Generated by graphviz version 2.36.0 (20140111.2315)
 -->
<!-- Title: Graphical Class Hierarchy Pages: 1 -->
<svg width="854pt" height="626pt"
 viewBox="0.00 0.00 854.00 626.00" xmlns="http://www.w3.org/2000/svg" xmlns:xlink="http://www.w3.org/1999/xlink">
<g id="graph0" class="graph" transform="scale(1 1) rotate(0) translate(4 622)">
<title>Graphical Class Hierarchy</title>
<polygon fill="white" stroke="none" points="-4,4 -4,-622 850,-622 850,4 -4,4"/>
<!-- Node1 -->
<g id="node1" class="node"><title>Node1</title>
<g id="a_node1"><a xlink:href="dc/d45/classengine_1_1game_representation_1_1evaluatables_1_1_evaluatable.html" target="_top" xlink:title="engine.gameRepresentation.evaluatables.\lEvaluatable\&lt; T \&gt;">
<polygon fill="white" stroke="black" points="0,-196 0,-226 218,-226 218,-196 0,-196"/>
<text text-anchor="start" x="8" y="-214" font-family="Helvetica,sans-Serif" font-size="10.00">engine.gameRepresentation.evaluatables.</text>
<text text-anchor="middle" x="109" y="-203" font-family="Helvetica,sans-Serif" font-size="10.00">Evaluatable&lt; T &gt;</text>
</a>
</g>
</g>
<!-- Node2 -->
<g id="node2" class="node"><title>Node2</title>
<g id="a_node2"><a xlink:href="d5/dee/classengine_1_1game_representation_1_1evaluatables_1_1actions_1_1_action.html" target="_top" xlink:title="engine.gameRepresentation.evaluatables.actions.\lAction">
<polygon fill="white" stroke="black" points="265,-294 265,-324 521,-324 521,-294 265,-294"/>
<text text-anchor="start" x="273" y="-312" font-family="Helvetica,sans-Serif" font-size="10.00">engine.gameRepresentation.evaluatables.actions.</text>
<text text-anchor="middle" x="393" y="-301" font-family="Helvetica,sans-Serif" font-size="10.00">Action</text>
</a>
</g>
</g>
<!-- Node1&#45;&gt;Node2 -->
<g id="edge1" class="edge"><title>Node1&#45;&gt;Node2</title>
<path fill="none" stroke="midnightblue" d="M163.117,-229.459C216.75,-248.097 298.597,-276.541 348.506,-293.885"/>
<polygon fill="midnightblue" stroke="midnightblue" points="164.039,-226.074 153.444,-226.098 161.741,-232.686 164.039,-226.074"/>
</g>
<!-- Node15 -->
<g id="node15" class="node"><title>Node15</title>
<g id="a_node15"><a xlink:href="dc/d0e/classengine_1_1game_representation_1_1evaluatables_1_1evaluators_1_1_evaluator.html" target="_top" xlink:title="engine.gameRepresentation.evaluatables.evaluators.\lEvaluator\&lt; A, B, T \&gt;">
<polygon fill="white" stroke="black" points="257,-196 257,-226 529,-226 529,-196 257,-196"/>
<text text-anchor="start" x="265" y="-214" font-family="Helvetica,sans-Serif" font-size="10.00">engine.gameRepresentation.evaluatables.evaluators.</text>
<text text-anchor="middle" x="393" y="-203" font-family="Helvetica,sans-Serif" font-size="10.00">Evaluator&lt; A, B, T &gt;</text>
</a>
</g>
</g>
<!-- Node1&#45;&gt;Node15 -->
<g id="edge14" class="edge"><title>Node1&#45;&gt;Node15</title>
<path fill="none" stroke="midnightblue" d="M228.318,-211C237.678,-211 247.176,-211 256.64,-211"/>
<polygon fill="midnightblue" stroke="midnightblue" points="228.222,-207.5 218.222,-211 228.222,-214.5 228.222,-207.5"/>
</g>
<!-- Node16 -->
<g id="node16" class="node"><title>Node16</title>
<g id="a_node16"><a xlink:href="d8/d8e/classengine_1_1game_representation_1_1evaluatables_1_1parameters_1_1_parameter.html" target="_top" xlink:title="engine.gameRepresentation.evaluatables.parameters.\lParameter\&lt; T \&gt;">
<polygon fill="white" stroke="black" points="254,-49 254,-79 532,-79 532,-49 254,-49"/>
<text text-anchor="start" x="262" y="-67" font-family="Helvetica,sans-Serif" font-size="10.00">engine.gameRepresentation.evaluatables.parameters.</text>
<text text-anchor="middle" x="393" y="-56" font-family="Helvetica,sans-Serif" font-size="10.00">Parameter&lt; T &gt;</text>
</a>
</g>
</g>
<!-- Node1&#45;&gt;Node16 -->
<g id="edge15" class="edge"><title>Node1&#45;&gt;Node16</title>
<path fill="none" stroke="midnightblue" d="M147.902,-191.243C204.951,-161.504 311.659,-105.88 362.976,-79.1294"/>
<polygon fill="midnightblue" stroke="midnightblue" points="146.103,-188.233 138.854,-195.959 149.339,-194.44 146.103,-188.233"/>
</g>
<!-- Node3 -->
<g id="node3" class="node"><title>Node3</title>
<g id="a_node3"><a xlink:href="d1/d44/classengine_1_1game_representation_1_1evaluatables_1_1actions_1_1_act_on_objects_action.html" target="_top" xlink:title="engine.gameRepresentation.evaluatables.actions.\lActOnObjectsAction">
<polygon fill="white" stroke="black" points="579,-588 579,-618 835,-618 835,-588 579,-588"/>
<text text-anchor="start" x="587" y="-606" font-family="Helvetica,sans-Serif" font-size="10.00">engine.gameRepresentation.evaluatables.actions.</text>
<text text-anchor="middle" x="707" y="-595" font-family="Helvetica,sans-Serif" font-size="10.00">ActOnObjectsAction</text>
</a>
</g>
</g>
<!-- Node2&#45;&gt;Node3 -->
<g id="edge2" class="edge"><title>Node2&#45;&gt;Node3</title>
<path fill="none" stroke="midnightblue" d="M402.291,-333.805C421.756,-387.904 475.825,-516.56 568,-578 573.774,-581.849 579.973,-585.15 586.43,-587.979"/>
<polygon fill="midnightblue" stroke="midnightblue" points="405.574,-332.588 398.958,-324.312 398.969,-334.907 405.574,-332.588"/>
</g>
<!-- Node4 -->
<g id="node4" class="node"><title>Node4</title>
<g id="a_node4"><a xlink:href="d8/dcd/classengine_1_1game_representation_1_1evaluatables_1_1actions_1_1_attribute_incrementer_action.html" target="_top" xlink:title="engine.gameRepresentation.evaluatables.actions.\lAttributeIncrementerAction">
<polygon fill="white" stroke="black" points="579,-539 579,-569 835,-569 835,-539 579,-539"/>
<text text-anchor="start" x="587" y="-557" font-family="Helvetica,sans-Serif" font-size="10.00">engine.gameRepresentation.evaluatables.actions.</text>
<text text-anchor="middle" x="707" y="-546" font-family="Helvetica,sans-Serif" font-size="10.00">AttributeIncrementerAction</text>
</a>
</g>
</g>
<!-- Node2&#45;&gt;Node4 -->
<g id="edge3" class="edge"><title>Node2&#45;&gt;Node4</title>
<path fill="none" stroke="midnightblue" d="M405.521,-333.109C429.004,-379.407 487.108,-480.465 568,-529 574.368,-532.821 581.177,-536.086 588.233,-538.874"/>
<polygon fill="midnightblue" stroke="midnightblue" points="408.627,-331.494 401.04,-324.099 402.359,-334.612 408.627,-331.494"/>
</g>
<!-- Node5 -->
<g id="node5" class="node"><title>Node5</title>
<g id="a_node5"><a xlink:href="df/d07/classengine_1_1game_representation_1_1evaluatables_1_1actions_1_1_check_attribute_create_object_action.html" target="_top" xlink:title="engine.gameRepresentation.evaluatables.actions.\lCheckAttributeCreateObjectAction">
<polygon fill="white" stroke="black" points="579,-490 579,-520 835,-520 835,-490 579,-490"/>
<text text-anchor="start" x="587" y="-508" font-family="Helvetica,sans-Serif" font-size="10.00">engine.gameRepresentation.evaluatables.actions.</text>
<text text-anchor="middle" x="707" y="-497" font-family="Helvetica,sans-Serif" font-size="10.00">CheckAttributeCreateObjectAction</text>
</a>
</g>
</g>
<!-- Node2&#45;&gt;Node5 -->
<g id="edge4" class="edge"><title>Node2&#45;&gt;Node5</title>
<path fill="none" stroke="midnightblue" d="M410.394,-332.468C438.139,-370.216 498.192,-443.838 568,-480 575.459,-483.864 583.414,-487.14 591.595,-489.917"/>
<polygon fill="midnightblue" stroke="midnightblue" points="413.053,-330.171 404.356,-324.119 407.38,-334.273 413.053,-330.171"/>
</g>
<!-- Node6 -->
<g id="node6" class="node"><title>Node6</title>
<g id="a_node6"><a xlink:href="d2/d86/classengine_1_1game_representation_1_1evaluatables_1_1actions_1_1_check_attribute_set_attribute_action.html" target="_top" xlink:title="engine.gameRepresentation.evaluatables.actions.\lCheckAttributeSetAttributeAction">
<polygon fill="white" stroke="black" points="579,-441 579,-471 835,-471 835,-441 579,-441"/>
<text text-anchor="start" x="587" y="-459" font-family="Helvetica,sans-Serif" font-size="10.00">engine.gameRepresentation.evaluatables.actions.</text>
<text text-anchor="middle" x="707" y="-448" font-family="Helvetica,sans-Serif" font-size="10.00">CheckAttributeSetAttributeAction</text>
</a>
</g>
</g>
<!-- Node2&#45;&gt;Node6 -->
<g id="edge5" class="edge"><title>Node2&#45;&gt;Node6</title>
<path fill="none" stroke="midnightblue" d="M418.162,-331.165C450.006,-359.075 508.928,-406.348 568,-431 577.325,-434.892 587.253,-438.179 597.344,-440.954"/>
<polygon fill="midnightblue" stroke="midnightblue" points="420.095,-328.201 410.293,-324.177 415.446,-333.434 420.095,-328.201"/>
</g>
<!-- Node7 -->
<g id="node7" class="node"><title>Node7</title>
<g id="a_node7"><a xlink:href="d7/df2/classengine_1_1game_representation_1_1evaluatables_1_1actions_1_1_decrement_increment_attribute_action.html" target="_top" xlink:title="engine.gameRepresentation.evaluatables.actions.\lDecrementIncrementAttributeAction">
<polygon fill="white" stroke="black" points="579,-392 579,-422 835,-422 835,-392 579,-392"/>
<text text-anchor="start" x="587" y="-410" font-family="Helvetica,sans-Serif" font-size="10.00">engine.gameRepresentation.evaluatables.actions.</text>
<text text-anchor="middle" x="707" y="-399" font-family="Helvetica,sans-Serif" font-size="10.00">DecrementIncrementAttributeAction</text>
</a>
</g>
</g>
<!-- Node2&#45;&gt;Node7 -->
<g id="edge6" class="edge"><title>Node2&#45;&gt;Node7</title>
<path fill="none" stroke="midnightblue" d="M433.677,-328.581C468.368,-344.984 520.487,-367.913 568,-382 580.722,-385.772 594.282,-389.071 607.747,-391.927"/>
<polygon fill="midnightblue" stroke="midnightblue" points="434.905,-325.29 424.373,-324.141 431.89,-331.607 434.905,-325.29"/>
</g>
<!-- Node8 -->
<g id="node8" class="node"><title>Node8</title>
<g id="a_node8"><a xlink:href="d8/d98/classengine_1_1game_representation_1_1evaluatables_1_1actions_1_1_mother_of_all_actions.html" target="_top" xlink:title="engine.gameRepresentation.evaluatables.actions.\lMotherOfAllActions">
<polygon fill="white" stroke="black" points="579,-343 579,-373 835,-373 835,-343 579,-343"/>
<text text-anchor="start" x="587" y="-361" font-family="Helvetica,sans-Serif" font-size="10.00">engine.gameRepresentation.evaluatables.actions.</text>
<text text-anchor="middle" x="707" y="-350" font-family="Helvetica,sans-Serif" font-size="10.00">MotherOfAllActions</text>
</a>
</g>
</g>
<!-- Node2&#45;&gt;Node8 -->
<g id="edge7" class="edge"><title>Node2&#45;&gt;Node8</title>
<path fill="none" stroke="midnightblue" d="M499.733,-325.606C535.596,-331.238 575.428,-337.493 610.45,-342.994"/>
<polygon fill="midnightblue" stroke="midnightblue" points="500.153,-322.129 489.731,-324.035 499.066,-329.044 500.153,-322.129"/>
</g>
<!-- Node9 -->
<g id="node9" class="node"><title>Node9</title>
<g id="a_node9"><a xlink:href="d0/da2/classengine_1_1game_representation_1_1evaluatables_1_1actions_1_1_object_condition_action.html" target="_top" xlink:title="engine.gameRepresentation.evaluatables.actions.\lObjectConditionAction">
<polygon fill="white" stroke="black" points="579,-294 579,-324 835,-324 835,-294 579,-294"/>
<text text-anchor="start" x="587" y="-312" font-family="Helvetica,sans-Serif" font-size="10.00">engine.gameRepresentation.evaluatables.actions.</text>
<text text-anchor="middle" x="707" y="-301" font-family="Helvetica,sans-Serif" font-size="10.00">ObjectConditionAction</text>
</a>
</g>
</g>
<!-- Node2&#45;&gt;Node9 -->
<g id="edge8" class="edge"><title>Node2&#45;&gt;Node9</title>
<path fill="none" stroke="midnightblue" d="M531.621,-309C547.312,-309 563.255,-309 578.802,-309"/>
<polygon fill="midnightblue" stroke="midnightblue" points="531.352,-305.5 521.352,-309 531.352,-312.5 531.352,-305.5"/>
</g>
<!-- Node10 -->
<g id="node10" class="node"><title>Node10</title>
<g id="a_node10"><a xlink:href="d4/d78/classengine_1_1game_representation_1_1evaluatables_1_1actions_1_1_object_location_check_action.html" target="_top" xlink:title="engine.gameRepresentation.evaluatables.actions.\lObjectLocationCheckAction">
<polygon fill="white" stroke="black" points="579,-245 579,-275 835,-275 835,-245 579,-245"/>
<text text-anchor="start" x="587" y="-263" font-family="Helvetica,sans-Serif" font-size="10.00">engine.gameRepresentation.evaluatables.actions.</text>
<text text-anchor="middle" x="707" y="-252" font-family="Helvetica,sans-Serif" font-size="10.00">ObjectLocationCheckAction</text>
</a>
</g>
</g>
<!-- Node2&#45;&gt;Node10 -->
<g id="edge9" class="edge"><title>Node2&#45;&gt;Node10</title>
<path fill="none" stroke="midnightblue" d="M499.733,-292.394C535.596,-286.762 575.428,-280.507 610.45,-275.006"/>
<polygon fill="midnightblue" stroke="midnightblue" points="499.066,-288.956 489.731,-293.965 500.153,-295.871 499.066,-288.956"/>
</g>
<!-- Node11 -->
<g id="node11" class="node"><title>Node11</title>
<g id="a_node11"><a xlink:href="d9/de4/classengine_1_1game_representation_1_1evaluatables_1_1actions_1_1_perform_attr_calculation_action.html" target="_top" xlink:title="engine.gameRepresentation.evaluatables.actions.\lPerformAttrCalculationAction">
<polygon fill="white" stroke="black" points="579,-196 579,-226 835,-226 835,-196 579,-196"/>
<text text-anchor="start" x="587" y="-214" font-family="Helvetica,sans-Serif" font-size="10.00">engine.gameRepresentation.evaluatables.actions.</text>
<text text-anchor="middle" x="707" y="-203" font-family="Helvetica,sans-Serif" font-size="10.00">PerformAttrCalculationAction</text>
</a>
</g>
</g>
<!-- Node2&#45;&gt;Node11 -->
<g id="edge10" class="edge"><title>Node2&#45;&gt;Node11</title>
<path fill="none" stroke="midnightblue" d="M433.677,-289.419C468.368,-273.016 520.487,-250.087 568,-236 580.722,-232.228 594.282,-228.929 607.747,-226.073"/>
<polygon fill="midnightblue" stroke="midnightblue" points="431.89,-286.393 424.373,-293.859 434.905,-292.71 431.89,-286.393"/>
</g>
<!-- Node12 -->
<g id="node12" class="node"><title>Node12</title>
<g id="a_node12"><a xlink:href="da/d0b/classengine_1_1game_representation_1_1evaluatables_1_1actions_1_1_player_attribute_interaction_action.html" target="_top" xlink:title="engine.gameRepresentation.evaluatables.actions.\lPlayerAttributeInteractionAction">
<polygon fill="white" stroke="black" points="579,-147 579,-177 835,-177 835,-147 579,-147"/>
<text text-anchor="start" x="587" y="-165" font-family="Helvetica,sans-Serif" font-size="10.00">engine.gameRepresentation.evaluatables.actions.</text>
<text text-anchor="middle" x="707" y="-154" font-family="Helvetica,sans-Serif" font-size="10.00">PlayerAttributeInteractionAction</text>
</a>
</g>
</g>
<!-- Node2&#45;&gt;Node12 -->
<g id="edge11" class="edge"><title>Node2&#45;&gt;Node12</title>
<path fill="none" stroke="midnightblue" d="M441.433,-289.818C469.634,-276.961 505.044,-258.158 532,-235 552.227,-217.623 545.312,-201.012 568,-187 574.215,-183.162 580.868,-179.88 587.772,-177.076"/>
<polygon fill="midnightblue" stroke="midnightblue" points="439.876,-286.68 432.168,-293.948 442.726,-293.073 439.876,-286.68"/>
</g>
<!-- Node13 -->
<g id="node13" class="node"><title>Node13</title>
<g id="a_node13"><a xlink:href="d5/d05/classengine_1_1game_representation_1_1evaluatables_1_1actions_1_1_player_stats_check_action.html" target="_top" xlink:title="engine.gameRepresentation.evaluatables.actions.\lPlayerStatsCheckAction">
<polygon fill="white" stroke="black" points="579,-98 579,-128 835,-128 835,-98 579,-98"/>
<text text-anchor="start" x="587" y="-116" font-family="Helvetica,sans-Serif" font-size="10.00">engine.gameRepresentation.evaluatables.actions.</text>
<text text-anchor="middle" x="707" y="-105" font-family="Helvetica,sans-Serif" font-size="10.00">PlayerStatsCheckAction</text>
</a>
</g>
</g>
<!-- Node2&#45;&gt;Node13 -->
<g id="edge12" class="edge"><title>Node2&#45;&gt;Node13</title>
<path fill="none" stroke="midnightblue" d="M449.498,-290.137C477.505,-278.166 510.092,-260.131 532,-235 562.217,-200.337 532.75,-167.53 568,-138 572.48,-134.247 577.332,-130.979 582.448,-128.136"/>
<polygon fill="midnightblue" stroke="midnightblue" points="448.112,-286.922 440.197,-293.965 450.777,-293.395 448.112,-286.922"/>
</g>
<!-- Node14 -->
<g id="node14" class="node"><title>Node14</title>
<g id="a_node14"><a xlink:href="d9/dcb/classengine_1_1game_representation_1_1evaluatables_1_1actions_1_1_ranged_attack_action.html" target="_top" xlink:title="engine.gameRepresentation.evaluatables.actions.\lRangedAttackAction">
<polygon fill="white" stroke="black" points="579,-49 579,-79 835,-79 835,-49 579,-49"/>
<text text-anchor="start" x="587" y="-67" font-family="Helvetica,sans-Serif" font-size="10.00">engine.gameRepresentation.evaluatables.actions.</text>
<text text-anchor="middle" x="707" y="-56" font-family="Helvetica,sans-Serif" font-size="10.00">RangedAttackAction</text>
</a>
</g>
</g>
<!-- Node2&#45;&gt;Node14 -->
<g id="edge13" class="edge"><title>Node2&#45;&gt;Node14</title>
<path fill="none" stroke="midnightblue" d="M453.239,-290.051C480.961,-278.332 512.165,-260.548 532,-235 572.985,-182.21 519.288,-134.757 568,-89 571.993,-85.2492 576.35,-81.9646 580.977,-79.0933"/>
<polygon fill="midnightblue" stroke="midnightblue" points="451.563,-286.953 443.603,-293.946 454.186,-293.443 451.563,-286.953"/>
</g>
<!-- Node17 -->
<g id="node17" class="node"><title>Node17</title>
<g id="a_node17"><a xlink:href="d9/d27/classengine_1_1game_representation_1_1evaluatables_1_1parameters_1_1_attribute_parameter.html" target="_top" xlink:title="engine.gameRepresentation.evaluatables.parameters.\lAttributeParameter\&lt; T \&gt;">
<polygon fill="white" stroke="black" points="568,-0 568,-30 846,-30 846,-0 568,-0"/>
<text text-anchor="start" x="576" y="-18" font-family="Helvetica,sans-Serif" font-size="10.00">engine.gameRepresentation.evaluatables.parameters.</text>
<text text-anchor="middle" x="707" y="-7" font-family="Helvetica,sans-Serif" font-size="10.00">AttributeParameter&lt; T &gt;</text>
</a>
</g>
</g>
<!-- Node16&#45;&gt;Node17 -->
<g id="edge16" class="edge"><title>Node16&#45;&gt;Node17</title>
<path fill="none" stroke="midnightblue" d="M499.733,-47.3945C535.596,-41.7621 575.428,-35.5065 610.45,-30.0062"/>
<polygon fill="midnightblue" stroke="midnightblue" points="499.066,-43.9562 489.731,-48.9654 500.153,-50.8714 499.066,-43.9562"/>
</g>
</g>
</svg>
