<?xml version="1.0" encoding="UTF-8" standalone="no"?>
<!DOCTYPE svg PUBLIC "-//W3C//DTD SVG 1.1//EN"
 "http://www.w3.org/Graphics/SVG/1.1/DTD/svg11.dtd">
<!-- Generated by graphviz version 2.36.0 (20140111.2315)
 -->
<!-- Title: view.MainView.MainView Pages: 1 -->
<svg width="738pt" height="283pt"
 viewBox="0.00 0.00 738.00 283.00" xmlns="http://www.w3.org/2000/svg" xmlns:xlink="http://www.w3.org/1999/xlink">
<g id="graph0" class="graph" transform="scale(1 1) rotate(0) translate(4 279)">
<title>view.MainView.MainView</title>
<polygon fill="white" stroke="none" points="-4,4 -4,-279 734,-279 734,4 -4,4"/>
<!-- Node1 -->
<g id="node1" class="node"><title>Node1</title>
<polygon fill="#bfbfbf" stroke="black" points="0,-127.5 0,-146.5 130,-146.5 130,-127.5 0,-127.5"/>
<text text-anchor="middle" x="65" y="-134.5" font-family="Helvetica,sans-Serif" font-size="10.00">view.MainView.MainView</text>
</g>
<!-- Node2 -->
<g id="node2" class="node"><title>Node2</title>
<g id="a_node2"><a xlink:href="../../de/d50/classview_1_1_g_u_i_load_style_utility.html#a52d99ebb7f58602f7e9cedb98d187edc" target="_top" xlink:title="view.GUILoadStyleUtility.add\lStyle">
<polygon fill="white" stroke="black" points="171,-245 171,-275 321,-275 321,-245 171,-245"/>
<text text-anchor="start" x="179" y="-263" font-family="Helvetica,sans-Serif" font-size="10.00">view.GUILoadStyleUtility.add</text>
<text text-anchor="middle" x="246" y="-252" font-family="Helvetica,sans-Serif" font-size="10.00">Style</text>
</a>
</g>
</g>
<!-- Node1&#45;&gt;Node2 -->
<g id="edge1" class="edge"><title>Node1&#45;&gt;Node2</title>
<path fill="none" stroke="midnightblue" d="M73.1739,-146.584C88.2369,-166.055 125.157,-210.468 166,-235 169.439,-237.066 173.067,-238.978 176.801,-240.746"/>
<polygon fill="midnightblue" stroke="midnightblue" points="175.689,-244.079 186.256,-244.849 178.475,-237.657 175.689,-244.079"/>
</g>
<!-- Node3 -->
<g id="node3" class="node"><title>Node3</title>
<g id="a_node3"><a xlink:href="../../de/d50/classview_1_1_g_u_i_load_style_utility.html#ad5c2539d920db1e4cec593d49cbf28bc" target="_top" xlink:title="view.GUILoadStyleUtility.get\lInstance">
<polygon fill="white" stroke="black" points="172,-196 172,-226 320,-226 320,-196 172,-196"/>
<text text-anchor="start" x="180" y="-214" font-family="Helvetica,sans-Serif" font-size="10.00">view.GUILoadStyleUtility.get</text>
<text text-anchor="middle" x="246" y="-203" font-family="Helvetica,sans-Serif" font-size="10.00">Instance</text>
</a>
</g>
</g>
<!-- Node1&#45;&gt;Node3 -->
<g id="edge2" class="edge"><title>Node1&#45;&gt;Node3</title>
<path fill="none" stroke="midnightblue" d="M83.699,-146.676C103.406,-157.21 136.388,-174.137 166,-186 171.784,-188.317 177.872,-190.566 183.996,-192.703"/>
<polygon fill="midnightblue" stroke="midnightblue" points="183.015,-196.066 193.61,-195.963 185.264,-189.437 183.015,-196.066"/>
</g>
<!-- Node5 -->
<g id="node5" class="node"><title>Node5</title>
<g id="a_node5"><a xlink:href="../../d4/d81/classutil_1_1multilanguage_1_1_multi_language_utility.html#a4434d82aa88c08ec97fb70994f38041c" target="_top" xlink:title="util.multilanguage.Multi\lLanguageUtility.getInstance">
<polygon fill="white" stroke="black" points="171.5,-147 171.5,-177 320.5,-177 320.5,-147 171.5,-147"/>
<text text-anchor="start" x="179.5" y="-165" font-family="Helvetica,sans-Serif" font-size="10.00">util.multilanguage.Multi</text>
<text text-anchor="middle" x="246" y="-154" font-family="Helvetica,sans-Serif" font-size="10.00">LanguageUtility.getInstance</text>
</a>
</g>
</g>
<!-- Node1&#45;&gt;Node5 -->
<g id="edge4" class="edge"><title>Node1&#45;&gt;Node5</title>
<path fill="none" stroke="midnightblue" d="M130.118,-145.955C140.228,-147.367 150.81,-148.845 161.286,-150.308"/>
<polygon fill="midnightblue" stroke="midnightblue" points="160.891,-153.787 171.279,-151.704 161.859,-146.854 160.891,-153.787"/>
</g>
<!-- Node7 -->
<g id="node7" class="node"><title>Node7</title>
<g id="a_node7"><a xlink:href="../../d4/d81/classutil_1_1multilanguage_1_1_multi_language_utility.html#add72c0b24afe1ea168cff2583d8b35c7" target="_top" xlink:title="util.multilanguage.Multi\lLanguageUtility.initLanguages">
<polygon fill="white" stroke="black" points="166.5,-98 166.5,-128 325.5,-128 325.5,-98 166.5,-98"/>
<text text-anchor="start" x="174.5" y="-116" font-family="Helvetica,sans-Serif" font-size="10.00">util.multilanguage.Multi</text>
<text text-anchor="middle" x="246" y="-105" font-family="Helvetica,sans-Serif" font-size="10.00">LanguageUtility.initLanguages</text>
</a>
</g>
</g>
<!-- Node1&#45;&gt;Node7 -->
<g id="edge6" class="edge"><title>Node1&#45;&gt;Node7</title>
<path fill="none" stroke="midnightblue" d="M130.118,-128.403C138.645,-127.26 147.508,-126.072 156.36,-124.885"/>
<polygon fill="midnightblue" stroke="midnightblue" points="156.884,-128.346 166.33,-123.548 155.954,-121.408 156.884,-128.346"/>
</g>
<!-- Node13 -->
<g id="node13" class="node"><title>Node13</title>
<g id="a_node13"><a xlink:href="../../d1/d75/classview_1_1_main_view.html#aa7bef8e36cefa579d2123e2eeba859e7" target="_top" xlink:title="view.MainView.launchScreen">
<polygon fill="white" stroke="black" points="170.5,-59.5 170.5,-78.5 321.5,-78.5 321.5,-59.5 170.5,-59.5"/>
<text text-anchor="middle" x="246" y="-66.5" font-family="Helvetica,sans-Serif" font-size="10.00">view.MainView.launchScreen</text>
</a>
</g>
</g>
<!-- Node1&#45;&gt;Node13 -->
<g id="edge12" class="edge"><title>Node1&#45;&gt;Node13</title>
<path fill="none" stroke="midnightblue" d="M82.8417,-127.319C102.325,-116.462 135.625,-98.9441 166,-88 173.013,-85.4732 180.497,-83.18 187.959,-81.1316"/>
<polygon fill="midnightblue" stroke="midnightblue" points="188.924,-84.4969 197.713,-78.5808 187.153,-77.7246 188.924,-84.4969"/>
</g>
<!-- Node15 -->
<g id="node15" class="node"><title>Node15</title>
<g id="a_node15"><a xlink:href="../../de/d50/classview_1_1_g_u_i_load_style_utility.html#afb85bea87daae4050bbdc36efa76d75e" target="_top" xlink:title="view.GUILoadStyleUtility.set\lScene">
<polygon fill="white" stroke="black" points="172.5,-10 172.5,-40 319.5,-40 319.5,-10 172.5,-10"/>
<text text-anchor="start" x="180.5" y="-28" font-family="Helvetica,sans-Serif" font-size="10.00">view.GUILoadStyleUtility.set</text>
<text text-anchor="middle" x="246" y="-17" font-family="Helvetica,sans-Serif" font-size="10.00">Scene</text>
</a>
</g>
</g>
<!-- Node1&#45;&gt;Node15 -->
<g id="edge14" class="edge"><title>Node1&#45;&gt;Node15</title>
<path fill="none" stroke="midnightblue" d="M74.4,-127.459C90.4833,-109.746 127.467,-71.6167 166,-50 169.917,-47.8027 174.053,-45.7696 178.297,-43.8932"/>
<polygon fill="midnightblue" stroke="midnightblue" points="179.791,-47.0636 187.717,-40.0331 177.137,-40.5864 179.791,-47.0636"/>
</g>
<!-- Node4 -->
<g id="node4" class="node"><title>Node4</title>
<g id="a_node4"><a xlink:href="../../de/d50/classview_1_1_g_u_i_load_style_utility.html#aec297413dba8a98a536fdd9792d27860" target="_top" xlink:title="view.GUILoadStyleUtility.\lGUILoadStyleUtility">
<polygon fill="white" stroke="black" points="384,-204 384,-234 516,-234 516,-204 384,-204"/>
<text text-anchor="start" x="392" y="-222" font-family="Helvetica,sans-Serif" font-size="10.00">view.GUILoadStyleUtility.</text>
<text text-anchor="middle" x="450" y="-211" font-family="Helvetica,sans-Serif" font-size="10.00">GUILoadStyleUtility</text>
</a>
</g>
</g>
<!-- Node3&#45;&gt;Node4 -->
<g id="edge3" class="edge"><title>Node3&#45;&gt;Node4</title>
<path fill="none" stroke="midnightblue" d="M320.212,-213.899C337.579,-214.587 356.134,-215.322 373.597,-216.014"/>
<polygon fill="midnightblue" stroke="midnightblue" points="373.604,-219.517 383.735,-216.415 373.881,-212.522 373.604,-219.517"/>
</g>
<!-- Node6 -->
<g id="node6" class="node"><title>Node6</title>
<g id="a_node6"><a xlink:href="../../d4/d81/classutil_1_1multilanguage_1_1_multi_language_utility.html#a39432790595e3fc9ef3e2842299739f7" target="_top" xlink:title="util.multilanguage.Multi\lLanguageUtility.MultiLanguage\lUtility">
<polygon fill="white" stroke="black" points="369,-144.5 369,-185.5 531,-185.5 531,-144.5 369,-144.5"/>
<text text-anchor="start" x="377" y="-173.5" font-family="Helvetica,sans-Serif" font-size="10.00">util.multilanguage.Multi</text>
<text text-anchor="start" x="377" y="-162.5" font-family="Helvetica,sans-Serif" font-size="10.00">LanguageUtility.MultiLanguage</text>
<text text-anchor="middle" x="450" y="-151.5" font-family="Helvetica,sans-Serif" font-size="10.00">Utility</text>
</a>
</g>
</g>
<!-- Node5&#45;&gt;Node6 -->
<g id="edge5" class="edge"><title>Node5&#45;&gt;Node6</title>
<path fill="none" stroke="midnightblue" d="M320.784,-163.096C333.145,-163.279 346.094,-163.472 358.812,-163.661"/>
<polygon fill="midnightblue" stroke="midnightblue" points="358.895,-167.162 368.946,-163.811 358.999,-160.163 358.895,-167.162"/>
</g>
<!-- Node8 -->
<g id="node8" class="node"><title>Node8</title>
<g id="a_node8"><a xlink:href="../../d4/d81/classutil_1_1multilanguage_1_1_multi_language_utility.html#ac4432e1fec53f64c1538f9e0166d8f75" target="_top" xlink:title="util.multilanguage.Multi\lLanguageUtility.updateProperties">
<polygon fill="white" stroke="black" points="362.5,-96 362.5,-126 537.5,-126 537.5,-96 362.5,-96"/>
<text text-anchor="start" x="370.5" y="-114" font-family="Helvetica,sans-Serif" font-size="10.00">util.multilanguage.Multi</text>
<text text-anchor="middle" x="450" y="-103" font-family="Helvetica,sans-Serif" font-size="10.00">LanguageUtility.updateProperties</text>
</a>
</g>
</g>
<!-- Node7&#45;&gt;Node8 -->
<g id="edge7" class="edge"><title>Node7&#45;&gt;Node8</title>
<path fill="none" stroke="midnightblue" d="M325.677,-112.221C334.276,-112.136 343.102,-112.048 351.889,-111.961"/>
<polygon fill="midnightblue" stroke="midnightblue" points="352.206,-115.459 362.171,-111.86 352.136,-108.459 352.206,-115.459"/>
</g>
<!-- Node9 -->
<g id="node9" class="node"><title>Node9</title>
<g id="a_node9"><a xlink:href="../../d4/d81/classutil_1_1multilanguage_1_1_multi_language_utility.html#a6d69f8159afbf46212a09e0b273b4a2a" target="_top" xlink:title="util.multilanguage.Multi\lLanguageUtility.createString\lListProperties">
<polygon fill="white" stroke="black" points="576,-180.5 576,-221.5 728,-221.5 728,-180.5 576,-180.5"/>
<text text-anchor="start" x="584" y="-209.5" font-family="Helvetica,sans-Serif" font-size="10.00">util.multilanguage.Multi</text>
<text text-anchor="start" x="584" y="-198.5" font-family="Helvetica,sans-Serif" font-size="10.00">LanguageUtility.createString</text>
<text text-anchor="middle" x="652" y="-187.5" font-family="Helvetica,sans-Serif" font-size="10.00">ListProperties</text>
</a>
</g>
</g>
<!-- Node8&#45;&gt;Node9 -->
<g id="edge8" class="edge"><title>Node8&#45;&gt;Node9</title>
<path fill="none" stroke="midnightblue" d="M518.866,-126.066C525.522,-128.615 532.018,-131.573 538,-135 557.363,-146.093 555.298,-157.826 574,-170 577.08,-172.005 580.31,-173.918 583.63,-175.737"/>
<polygon fill="midnightblue" stroke="midnightblue" points="582.092,-178.882 592.587,-180.334 585.289,-172.654 582.092,-178.882"/>
</g>
<!-- Node10 -->
<g id="node10" class="node"><title>Node10</title>
<g id="a_node10"><a xlink:href="../../d4/d81/classutil_1_1multilanguage_1_1_multi_language_utility.html#a187839512290f2b29e9847bd164e87df" target="_top" xlink:title="util.multilanguage.Multi\lLanguageUtility.createString\lProperties">
<polygon fill="white" stroke="black" points="576,-120.5 576,-161.5 728,-161.5 728,-120.5 576,-120.5"/>
<text text-anchor="start" x="584" y="-149.5" font-family="Helvetica,sans-Serif" font-size="10.00">util.multilanguage.Multi</text>
<text text-anchor="start" x="584" y="-138.5" font-family="Helvetica,sans-Serif" font-size="10.00">LanguageUtility.createString</text>
<text text-anchor="middle" x="652" y="-127.5" font-family="Helvetica,sans-Serif" font-size="10.00">Properties</text>
</a>
</g>
</g>
<!-- Node8&#45;&gt;Node10 -->
<g id="edge9" class="edge"><title>Node8&#45;&gt;Node10</title>
<path fill="none" stroke="midnightblue" d="M537.56,-123.984C546.941,-125.391 556.482,-126.822 565.846,-128.227"/>
<polygon fill="midnightblue" stroke="midnightblue" points="565.513,-131.716 575.922,-129.738 566.552,-124.793 565.513,-131.716"/>
</g>
<!-- Node11 -->
<g id="node11" class="node"><title>Node11</title>
<g id="a_node11"><a xlink:href="../../d4/d81/classutil_1_1multilanguage_1_1_multi_language_utility.html#aa42945f9e0519aa6ebc3f38916a92657" target="_top" xlink:title="util.multilanguage.Multi\lLanguageUtility.updateString\lListProperties">
<polygon fill="white" stroke="black" points="574.5,-60.5 574.5,-101.5 729.5,-101.5 729.5,-60.5 574.5,-60.5"/>
<text text-anchor="start" x="582.5" y="-89.5" font-family="Helvetica,sans-Serif" font-size="10.00">util.multilanguage.Multi</text>
<text text-anchor="start" x="582.5" y="-78.5" font-family="Helvetica,sans-Serif" font-size="10.00">LanguageUtility.updateString</text>
<text text-anchor="middle" x="652" y="-67.5" font-family="Helvetica,sans-Serif" font-size="10.00">ListProperties</text>
</a>
</g>
</g>
<!-- Node8&#45;&gt;Node11 -->
<g id="edge10" class="edge"><title>Node8&#45;&gt;Node11</title>
<path fill="none" stroke="midnightblue" d="M537.56,-98.016C546.457,-96.6814 555.5,-95.3251 564.398,-93.9903"/>
<polygon fill="midnightblue" stroke="midnightblue" points="564.997,-97.4397 574.367,-92.4949 563.959,-90.5171 564.997,-97.4397"/>
</g>
<!-- Node12 -->
<g id="node12" class="node"><title>Node12</title>
<g id="a_node12"><a xlink:href="../../d4/d81/classutil_1_1multilanguage_1_1_multi_language_utility.html#a46568b52c46e3ac4b5f7a1bea260bbc9" target="_top" xlink:title="util.multilanguage.Multi\lLanguageUtility.updateString\lProperties">
<polygon fill="white" stroke="black" points="574.5,-0.5 574.5,-41.5 729.5,-41.5 729.5,-0.5 574.5,-0.5"/>
<text text-anchor="start" x="582.5" y="-29.5" font-family="Helvetica,sans-Serif" font-size="10.00">util.multilanguage.Multi</text>
<text text-anchor="start" x="582.5" y="-18.5" font-family="Helvetica,sans-Serif" font-size="10.00">LanguageUtility.updateString</text>
<text text-anchor="middle" x="652" y="-7.5" font-family="Helvetica,sans-Serif" font-size="10.00">Properties</text>
</a>
</g>
</g>
<!-- Node8&#45;&gt;Node12 -->
<g id="edge11" class="edge"><title>Node8&#45;&gt;Node12</title>
<path fill="none" stroke="midnightblue" d="M516.592,-95.975C524.04,-93.1637 531.339,-89.8634 538,-86 557.304,-74.8043 555.23,-63.0687 574,-51 576.572,-49.3463 579.249,-47.7601 581.997,-46.2415"/>
<polygon fill="midnightblue" stroke="midnightblue" points="583.678,-49.3123 590.966,-41.6221 580.473,-43.0891 583.678,-49.3123"/>
</g>
<!-- Node14 -->
<g id="node14" class="node"><title>Node14</title>
<g id="a_node14"><a xlink:href="../../d3/de6/enumview_1_1_view_screen.html#a54b22a66be15917327d5baa8e230a5e0" target="_top" xlink:title="view.ViewScreen.getFilePath">
<polygon fill="white" stroke="black" points="375.5,-57.5 375.5,-76.5 524.5,-76.5 524.5,-57.5 375.5,-57.5"/>
<text text-anchor="middle" x="450" y="-64.5" font-family="Helvetica,sans-Serif" font-size="10.00">view.ViewScreen.getFilePath</text>
</a>
</g>
</g>
<!-- Node13&#45;&gt;Node14 -->
<g id="edge13" class="edge"><title>Node13&#45;&gt;Node14</title>
<path fill="none" stroke="midnightblue" d="M321.643,-68.261C335.752,-68.1213 350.597,-67.9743 364.971,-67.832"/>
<polygon fill="midnightblue" stroke="midnightblue" points="365.372,-71.3283 375.337,-67.7293 365.302,-64.3286 365.372,-71.3283"/>
</g>
</g>
</svg>
