<?xml version="1.0" encoding="UTF-8" standalone="no"?>
<!DOCTYPE svg PUBLIC "-//W3C//DTD SVG 1.1//EN"
 "http://www.w3.org/Graphics/SVG/1.1/DTD/svg11.dtd">
<!-- Generated by graphviz version 2.36.0 (20140111.2315)
 -->
<!-- Title: view.MainView.update Pages: 1 -->
<svg width="480pt" height="28pt"
 viewBox="0.00 0.00 480.00 28.00" xmlns="http://www.w3.org/2000/svg" xmlns:xlink="http://www.w3.org/1999/xlink">
<g id="graph0" class="graph" transform="scale(1 1) rotate(0) translate(4 24)">
<title>view.MainView.update</title>
<polygon fill="white" stroke="none" points="-4,4 -4,-24 476,-24 476,4 -4,4"/>
<!-- Node1 -->
<g id="node1" class="node"><title>Node1</title>
<polygon fill="#bfbfbf" stroke="black" points="0.5,-0.5 0.5,-19.5 119.5,-19.5 119.5,-0.5 0.5,-0.5"/>
<text text-anchor="middle" x="60" y="-7.5" font-family="Helvetica,sans-Serif" font-size="10.00">view.MainView.update</text>
</g>
<!-- Node2 -->
<g id="node2" class="node"><title>Node2</title>
<g id="a_node2"><a xlink:href="../../d1/d44/classview_1_1_g_u_i_container.html#a68d9f4c62e3412c4af3f5aecfacd801d" target="_top" xlink:title="view.GUIContainer.update">
<polygon fill="white" stroke="black" points="156.5,-0.5 156.5,-19.5 295.5,-19.5 295.5,-0.5 156.5,-0.5"/>
<text text-anchor="middle" x="226" y="-7.5" font-family="Helvetica,sans-Serif" font-size="10.00">view.GUIContainer.update</text>
</a>
</g>
</g>
<!-- Node1&#45;&gt;Node2 -->
<g id="edge1" class="edge"><title>Node1&#45;&gt;Node2</title>
<path fill="none" stroke="midnightblue" d="M119.745,-10C128.359,-10 137.347,-10 146.282,-10"/>
<polygon fill="midnightblue" stroke="midnightblue" points="146.326,-13.5001 156.326,-10 146.326,-6.5001 146.326,-13.5001"/>
</g>
<!-- Node3 -->
<g id="node3" class="node"><title>Node3</title>
<g id="a_node3"><a xlink:href="../../d1/d44/classview_1_1_g_u_i_container.html#a9918ff17def85dc172179e0a907d36a6" target="_top" xlink:title="view.GUIContainer.update">
<polygon fill="white" stroke="black" points="332.5,-0.5 332.5,-19.5 471.5,-19.5 471.5,-0.5 332.5,-0.5"/>
<text text-anchor="middle" x="402" y="-7.5" font-family="Helvetica,sans-Serif" font-size="10.00">view.GUIContainer.update</text>
</a>
</g>
</g>
<!-- Node2&#45;&gt;Node3 -->
<g id="edge2" class="edge"><title>Node2&#45;&gt;Node3</title>
<path fill="none" stroke="midnightblue" d="M295.769,-10C304.44,-10 313.364,-10 322.176,-10"/>
<polygon fill="midnightblue" stroke="midnightblue" points="322.445,-13.5001 332.445,-10 322.445,-6.5001 322.445,-13.5001"/>
</g>
</g>
</svg>
