<?xml version="1.0" encoding="UTF-8" standalone="no"?>
<!DOCTYPE svg PUBLIC "-//W3C//DTD SVG 1.1//EN"
 "http://www.w3.org/Graphics/SVG/1.1/DTD/svg11.dtd">
<!-- Generated by graphviz version 2.36.0 (20140111.2315)
 -->
<!-- Title: game_engine.gameRepresentation.stateRepresentation.gameElement.Sighted.getVisionBounds Pages: 1 -->
<svg width="494pt" height="48pt"
 viewBox="0.00 0.00 494.00 48.00" xmlns="http://www.w3.org/2000/svg" xmlns:xlink="http://www.w3.org/1999/xlink">
<g id="graph0" class="graph" transform="scale(1 1) rotate(0) translate(4 44)">
<title>game_engine.gameRepresentation.stateRepresentation.gameElement.Sighted.getVisionBounds</title>
<polygon fill="white" stroke="none" points="-4,4 -4,-44 490,-44 490,4 -4,4"/>
<!-- Node1 -->
<g id="node1" class="node"><title>Node1</title>
<polygon fill="#bfbfbf" stroke="black" points="0,0.5 0,-40.5 218,-40.5 218,0.5 0,0.5"/>
<text text-anchor="start" x="8" y="-28.5" font-family="Helvetica,sans-Serif" font-size="10.00">game_engine.gameRepresentation.state</text>
<text text-anchor="start" x="8" y="-17.5" font-family="Helvetica,sans-Serif" font-size="10.00">Representation.gameElement.Sighted.get</text>
<text text-anchor="middle" x="109" y="-6.5" font-family="Helvetica,sans-Serif" font-size="10.00">VisionBounds</text>
</g>
<!-- Node2 -->
<g id="node2" class="node"><title>Node2</title>
<g id="a_node2"><a xlink:href="../../d5/d07/classgame__engine_1_1computers_1_1bounds_computers_1_1_vision_computer.html#a1faf53713aec545e247a2ac8183a2ce4" target="_top" xlink:title="game_engine.computers.bounds\lComputers.VisionComputer.checkComputing\lCondition">
<polygon fill="white" stroke="black" points="254,0.5 254,-40.5 486,-40.5 486,0.5 254,0.5"/>
<text text-anchor="start" x="262" y="-28.5" font-family="Helvetica,sans-Serif" font-size="10.00">game_engine.computers.bounds</text>
<text text-anchor="start" x="262" y="-17.5" font-family="Helvetica,sans-Serif" font-size="10.00">Computers.VisionComputer.checkComputing</text>
<text text-anchor="middle" x="370" y="-6.5" font-family="Helvetica,sans-Serif" font-size="10.00">Condition</text>
</a>
</g>
</g>
<!-- Node1&#45;&gt;Node2 -->
<g id="edge1" class="edge"><title>Node1&#45;&gt;Node2</title>
<path fill="none" stroke="midnightblue" d="M228.486,-20C236.837,-20 245.25,-20 253.584,-20"/>
<polygon fill="midnightblue" stroke="midnightblue" points="228.339,-16.5001 218.339,-20 228.339,-23.5001 228.339,-16.5001"/>
</g>
</g>
</svg>
