<?xml version="1.0" encoding="UTF-8" standalone="no"?>
<!DOCTYPE svg PUBLIC "-//W3C//DTD SVG 1.1//EN"
 "http://www.w3.org/Graphics/SVG/1.1/DTD/svg11.dtd">
<!-- Generated by graphviz version 2.36.0 (20140111.2315)
 -->
<!-- Title: engine.visuals.ScrollableBackground.setXScrollSpeed Pages: 1 -->
<svg width="926pt" height="147pt"
 viewBox="0.00 0.00 926.00 147.00" xmlns="http://www.w3.org/2000/svg" xmlns:xlink="http://www.w3.org/1999/xlink">
<g id="graph0" class="graph" transform="scale(1 1) rotate(0) translate(4 143)">
<title>engine.visuals.ScrollableBackground.setXScrollSpeed</title>
<polygon fill="white" stroke="none" points="-4,4 -4,-143 922,-143 922,4 -4,4"/>
<!-- Node1 -->
<g id="node1" class="node"><title>Node1</title>
<polygon fill="#bfbfbf" stroke="black" points="0.5,-87 0.5,-117 155.5,-117 155.5,-87 0.5,-87"/>
<text text-anchor="start" x="8.5" y="-105" font-family="Helvetica,sans-Serif" font-size="10.00">engine.visuals.Scrollable</text>
<text text-anchor="middle" x="78" y="-94" font-family="Helvetica,sans-Serif" font-size="10.00">Background.setXScrollSpeed</text>
</g>
<!-- Node2 -->
<g id="node2" class="node"><title>Node2</title>
<g id="a_node2"><a xlink:href="../../de/d79/classengine_1_1visuals_1_1_scrollable_pane.html#a84c7589cc61d150a9b33e4603bbac25a" target="_top" xlink:title="engine.visuals.Scrollable\lPane.initializeHandlers">
<polygon fill="white" stroke="black" points="562,-109 562,-139 696,-139 696,-109 562,-109"/>
<text text-anchor="start" x="570" y="-127" font-family="Helvetica,sans-Serif" font-size="10.00">engine.visuals.Scrollable</text>
<text text-anchor="middle" x="629" y="-116" font-family="Helvetica,sans-Serif" font-size="10.00">Pane.initializeHandlers</text>
</a>
</g>
</g>
<!-- Node1&#45;&gt;Node2 -->
<g id="edge1" class="edge"><title>Node1&#45;&gt;Node2</title>
<path fill="none" stroke="midnightblue" d="M148.257,-119.095C162.629,-121.969 177.739,-124.502 192,-126 322.425,-139.698 476.006,-133.939 561.666,-128.785"/>
<polygon fill="midnightblue" stroke="midnightblue" points="148.947,-115.664 138.445,-117.06 147.525,-122.518 148.947,-115.664"/>
</g>
<!-- Node4 -->
<g id="node4" class="node"><title>Node4</title>
<g id="a_node4"><a xlink:href="../../de/d79/classengine_1_1visuals_1_1_scrollable_pane.html#af7dc0dac9cdc19cac041a7389dbd8ab0" target="_top" xlink:title="engine.visuals.Scrollable\lPane.setScrollSpeed">
<polygon fill="white" stroke="black" points="192,-87 192,-117 326,-117 326,-87 192,-87"/>
<text text-anchor="start" x="200" y="-105" font-family="Helvetica,sans-Serif" font-size="10.00">engine.visuals.Scrollable</text>
<text text-anchor="middle" x="259" y="-94" font-family="Helvetica,sans-Serif" font-size="10.00">Pane.setScrollSpeed</text>
</a>
</g>
</g>
<!-- Node1&#45;&gt;Node4 -->
<g id="edge3" class="edge"><title>Node1&#45;&gt;Node4</title>
<path fill="none" stroke="midnightblue" d="M165.914,-102C174.653,-102 183.424,-102 191.895,-102"/>
<polygon fill="midnightblue" stroke="midnightblue" points="165.691,-98.5001 155.691,-102 165.691,-105.5 165.691,-98.5001"/>
</g>
<!-- Node6 -->
<g id="node6" class="node"><title>Node6</title>
<g id="a_node6"><a xlink:href="../../d2/dae/classengine_1_1visuals_1_1_scrollable_background.html#a36b2cbd2dc8ebe546d522f114b0d9892" target="_top" xlink:title="engine.visuals.Scrollable\lBackground.update">
<polygon fill="white" stroke="black" points="192,-38 192,-68 326,-68 326,-38 192,-38"/>
<text text-anchor="start" x="200" y="-56" font-family="Helvetica,sans-Serif" font-size="10.00">engine.visuals.Scrollable</text>
<text text-anchor="middle" x="259" y="-45" font-family="Helvetica,sans-Serif" font-size="10.00">Background.update</text>
</a>
</g>
</g>
<!-- Node1&#45;&gt;Node6 -->
<g id="edge6" class="edge"><title>Node1&#45;&gt;Node6</title>
<path fill="none" stroke="midnightblue" d="M143.836,-84.2515C163.236,-78.9409 184.313,-73.1712 203.016,-68.0516"/>
<polygon fill="midnightblue" stroke="midnightblue" points="142.888,-80.8824 134.166,-86.8986 144.736,-87.634 142.888,-80.8824"/>
</g>
<!-- Node3 -->
<g id="node3" class="node"><title>Node3</title>
<g id="a_node3"><a xlink:href="../../de/d79/classengine_1_1visuals_1_1_scrollable_pane.html#a160609c946e14e2b92b2a0fa98d8e488" target="_top" xlink:title="engine.visuals.Scrollable\lPane.ScrollablePane">
<polygon fill="white" stroke="black" points="773,-109 773,-139 907,-139 907,-109 773,-109"/>
<text text-anchor="start" x="781" y="-127" font-family="Helvetica,sans-Serif" font-size="10.00">engine.visuals.Scrollable</text>
<text text-anchor="middle" x="840" y="-116" font-family="Helvetica,sans-Serif" font-size="10.00">Pane.ScrollablePane</text>
</a>
</g>
</g>
<!-- Node2&#45;&gt;Node3 -->
<g id="edge2" class="edge"><title>Node2&#45;&gt;Node3</title>
<path fill="none" stroke="midnightblue" d="M706.351,-124C728.182,-124 751.784,-124 772.943,-124"/>
<polygon fill="midnightblue" stroke="midnightblue" points="706.129,-120.5 696.129,-124 706.129,-127.5 706.129,-120.5"/>
</g>
<!-- Node5 -->
<g id="node5" class="node"><title>Node5</title>
<g id="a_node5"><a xlink:href="../../de/d79/classengine_1_1visuals_1_1_scrollable_pane.html#a055e5e25ccdd27de96fdd1235281a622" target="_top" xlink:title="engine.visuals.Scrollable\lPane.mouseMoved">
<polygon fill="white" stroke="black" points="362,-87 362,-117 496,-117 496,-87 362,-87"/>
<text text-anchor="start" x="370" y="-105" font-family="Helvetica,sans-Serif" font-size="10.00">engine.visuals.Scrollable</text>
<text text-anchor="middle" x="429" y="-94" font-family="Helvetica,sans-Serif" font-size="10.00">Pane.mouseMoved</text>
</a>
</g>
</g>
<!-- Node4&#45;&gt;Node5 -->
<g id="edge4" class="edge"><title>Node4&#45;&gt;Node5</title>
<path fill="none" stroke="midnightblue" d="M336.595,-102C345.013,-102 353.532,-102 361.809,-102"/>
<polygon fill="midnightblue" stroke="midnightblue" points="336.398,-98.5001 326.398,-102 336.398,-105.5 336.398,-98.5001"/>
</g>
<!-- Node5&#45;&gt;Node2 -->
<g id="edge5" class="edge"><title>Node5&#45;&gt;Node2</title>
<path fill="none" stroke="midnightblue" d="M506.261,-110.473C524.594,-112.51 544.027,-114.67 561.856,-116.651"/>
<polygon fill="midnightblue" stroke="midnightblue" points="506.532,-106.982 496.206,-109.356 505.759,-113.939 506.532,-106.982"/>
</g>
<!-- Node7 -->
<g id="node7" class="node"><title>Node7</title>
<g id="a_node7"><a xlink:href="../../de/d79/classengine_1_1visuals_1_1_scrollable_pane.html#a122733ce9a5c0e75235c35ef66e5b0e9" target="_top" xlink:title="engine.visuals.Scrollable\lPane.update">
<polygon fill="white" stroke="black" points="362,-38 362,-68 496,-68 496,-38 362,-38"/>
<text text-anchor="start" x="370" y="-56" font-family="Helvetica,sans-Serif" font-size="10.00">engine.visuals.Scrollable</text>
<text text-anchor="middle" x="429" y="-45" font-family="Helvetica,sans-Serif" font-size="10.00">Pane.update</text>
</a>
</g>
</g>
<!-- Node6&#45;&gt;Node7 -->
<g id="edge7" class="edge"><title>Node6&#45;&gt;Node7</title>
<path fill="none" stroke="midnightblue" d="M336.595,-53C345.013,-53 353.532,-53 361.809,-53"/>
<polygon fill="midnightblue" stroke="midnightblue" points="336.398,-49.5001 326.398,-53 336.398,-56.5001 336.398,-49.5001"/>
</g>
<!-- Node8 -->
<g id="node8" class="node"><title>Node8</title>
<g id="a_node8"><a xlink:href="../../d3/d61/classengine_1_1visuals_1_1_visual_manager.html#a5bd2adc4f3bb17dd5ed51909689d8f91" target="_top" xlink:title="engine.visuals.VisualManager.update">
<polygon fill="white" stroke="black" points="532,-43.5 532,-62.5 726,-62.5 726,-43.5 532,-43.5"/>
<text text-anchor="middle" x="629" y="-50.5" font-family="Helvetica,sans-Serif" font-size="10.00">engine.visuals.VisualManager.update</text>
</a>
</g>
</g>
<!-- Node7&#45;&gt;Node8 -->
<g id="edge8" class="edge"><title>Node7&#45;&gt;Node8</title>
<path fill="none" stroke="midnightblue" d="M506.299,-53C514.681,-53 523.292,-53 531.874,-53"/>
<polygon fill="midnightblue" stroke="midnightblue" points="506.206,-49.5001 496.206,-53 506.206,-56.5001 506.206,-49.5001"/>
</g>
<!-- Node9 -->
<g id="node9" class="node"><title>Node9</title>
<g id="a_node9"><a xlink:href="../../d2/d87/classengine_1_1state_managing_1_1_game_loop.html#ab3cf1b000f90849c5389fbd90b147602" target="_top" xlink:title="engine.stateManaging.Game\lLoop.updateRunner">
<polygon fill="white" stroke="black" points="762.5,-49 762.5,-79 917.5,-79 917.5,-49 762.5,-49"/>
<text text-anchor="start" x="770.5" y="-67" font-family="Helvetica,sans-Serif" font-size="10.00">engine.stateManaging.Game</text>
<text text-anchor="middle" x="840" y="-56" font-family="Helvetica,sans-Serif" font-size="10.00">Loop.updateRunner</text>
</a>
</g>
</g>
<!-- Node8&#45;&gt;Node9 -->
<g id="edge9" class="edge"><title>Node8&#45;&gt;Node9</title>
<path fill="none" stroke="midnightblue" d="M736.477,-58.604C745.201,-59.0632 753.907,-59.5214 762.351,-59.9658"/>
<polygon fill="midnightblue" stroke="midnightblue" points="736.412,-55.0959 726.242,-58.0653 736.044,-62.0862 736.412,-55.0959"/>
</g>
<!-- Node10 -->
<g id="node10" class="node"><title>Node10</title>
<g id="a_node10"><a xlink:href="../../d2/d87/classengine_1_1state_managing_1_1_game_loop.html#a6b4981af45d656d6bfffa3a6ad9b0b9d" target="_top" xlink:title="engine.stateManaging.Game\lLoop.updateEditor">
<polygon fill="white" stroke="black" points="762.5,-0 762.5,-30 917.5,-30 917.5,-0 762.5,-0"/>
<text text-anchor="start" x="770.5" y="-18" font-family="Helvetica,sans-Serif" font-size="10.00">engine.stateManaging.Game</text>
<text text-anchor="middle" x="840" y="-7" font-family="Helvetica,sans-Serif" font-size="10.00">Loop.updateEditor</text>
</a>
</g>
</g>
<!-- Node8&#45;&gt;Node10 -->
<g id="edge10" class="edge"><title>Node8&#45;&gt;Node10</title>
<path fill="none" stroke="midnightblue" d="M692.352,-41.6633C714.357,-37.6624 739.358,-33.1168 762.405,-28.9264"/>
<polygon fill="midnightblue" stroke="midnightblue" points="691.682,-38.2276 682.47,-43.46 692.935,-45.1147 691.682,-38.2276"/>
</g>
</g>
</svg>
