<?xml version="1.0" encoding="UTF-8" standalone="no"?>
<!DOCTYPE svg PUBLIC "-//W3C//DTD SVG 1.1//EN"
 "http://www.w3.org/Graphics/SVG/1.1/DTD/svg11.dtd">
<!-- Generated by graphviz version 2.36.0 (20140111.2315)
 -->
<!-- Title: engine.visuals.ScrollableBackground.update Pages: 1 -->
<svg width="378pt" height="136pt"
 viewBox="0.00 0.00 378.00 136.00" xmlns="http://www.w3.org/2000/svg" xmlns:xlink="http://www.w3.org/1999/xlink">
<g id="graph0" class="graph" transform="scale(1 1) rotate(0) translate(4 132)">
<title>engine.visuals.ScrollableBackground.update</title>
<polygon fill="white" stroke="none" points="-4,4 -4,-132 374,-132 374,4 -4,4"/>
<!-- Node1 -->
<g id="node1" class="node"><title>Node1</title>
<polygon fill="#bfbfbf" stroke="black" points="0,-49 0,-79 134,-79 134,-49 0,-49"/>
<text text-anchor="start" x="8" y="-67" font-family="Helvetica,sans-Serif" font-size="10.00">engine.visuals.Scrollable</text>
<text text-anchor="middle" x="67" y="-56" font-family="Helvetica,sans-Serif" font-size="10.00">Background.update</text>
</g>
<!-- Node2 -->
<g id="node2" class="node"><title>Node2</title>
<g id="a_node2"><a xlink:href="../../d2/dae/classengine_1_1visuals_1_1_scrollable_background.html#a251a35e68afa105dc68cad8e4667faaa" target="_top" xlink:title="engine.visuals.Scrollable\lBackground.retractOutOfBoundsScroll">
<polygon fill="white" stroke="black" points="170.5,-98 170.5,-128 369.5,-128 369.5,-98 170.5,-98"/>
<text text-anchor="start" x="178.5" y="-116" font-family="Helvetica,sans-Serif" font-size="10.00">engine.visuals.Scrollable</text>
<text text-anchor="middle" x="270" y="-105" font-family="Helvetica,sans-Serif" font-size="10.00">Background.retractOutOfBoundsScroll</text>
</a>
</g>
</g>
<!-- Node1&#45;&gt;Node2 -->
<g id="edge1" class="edge"><title>Node1&#45;&gt;Node2</title>
<path fill="none" stroke="midnightblue" d="M129.673,-79.0346C151.088,-84.2554 175.284,-90.1537 197.43,-95.5526"/>
<polygon fill="midnightblue" stroke="midnightblue" points="196.9,-99.0257 207.444,-97.9938 198.558,-92.2249 196.9,-99.0257"/>
</g>
<!-- Node3 -->
<g id="node3" class="node"><title>Node3</title>
<g id="a_node3"><a xlink:href="../../d2/dae/classengine_1_1visuals_1_1_scrollable_background.html#a14ea8fb797a5e13a9e425610f6c91655" target="_top" xlink:title="engine.visuals.Scrollable\lBackground.setXScrollSpeed">
<polygon fill="white" stroke="black" points="192.5,-49 192.5,-79 347.5,-79 347.5,-49 192.5,-49"/>
<text text-anchor="start" x="200.5" y="-67" font-family="Helvetica,sans-Serif" font-size="10.00">engine.visuals.Scrollable</text>
<text text-anchor="middle" x="270" y="-56" font-family="Helvetica,sans-Serif" font-size="10.00">Background.setXScrollSpeed</text>
</a>
</g>
</g>
<!-- Node1&#45;&gt;Node3 -->
<g id="edge2" class="edge"><title>Node1&#45;&gt;Node3</title>
<path fill="none" stroke="midnightblue" d="M134.093,-64C149.538,-64 166.217,-64 182.404,-64"/>
<polygon fill="midnightblue" stroke="midnightblue" points="182.404,-67.5001 192.404,-64 182.404,-60.5001 182.404,-67.5001"/>
</g>
<!-- Node4 -->
<g id="node4" class="node"><title>Node4</title>
<g id="a_node4"><a xlink:href="../../d2/dae/classengine_1_1visuals_1_1_scrollable_background.html#a0a95d45df6721fccc5ba417111c36cf4" target="_top" xlink:title="engine.visuals.Scrollable\lBackground.setYScrollSpeed">
<polygon fill="white" stroke="black" points="193,-0 193,-30 347,-30 347,-0 193,-0"/>
<text text-anchor="start" x="201" y="-18" font-family="Helvetica,sans-Serif" font-size="10.00">engine.visuals.Scrollable</text>
<text text-anchor="middle" x="270" y="-7" font-family="Helvetica,sans-Serif" font-size="10.00">Background.setYScrollSpeed</text>
</a>
</g>
</g>
<!-- Node1&#45;&gt;Node4 -->
<g id="edge3" class="edge"><title>Node1&#45;&gt;Node4</title>
<path fill="none" stroke="midnightblue" d="M129.673,-48.9654C151.088,-43.7446 175.284,-37.8463 197.43,-32.4474"/>
<polygon fill="midnightblue" stroke="midnightblue" points="198.558,-35.7751 207.444,-30.0062 196.9,-28.9743 198.558,-35.7751"/>
</g>
</g>
</svg>
