<?xml version="1.0" encoding="UTF-8" standalone="no"?>
<!DOCTYPE svg PUBLIC "-//W3C//DTD SVG 1.1//EN"
 "http://www.w3.org/Graphics/SVG/1.1/DTD/svg11.dtd">
<!-- Generated by graphviz version 2.36.0 (20140111.2315)
 -->
<!-- Title: engine.UI.ParticipantManager.getUser Pages: 1 -->
<svg width="790pt" height="283pt"
 viewBox="0.00 0.00 790.00 283.00" xmlns="http://www.w3.org/2000/svg" xmlns:xlink="http://www.w3.org/1999/xlink">
<g id="graph0" class="graph" transform="scale(1 1) rotate(0) translate(4 279)">
<title>engine.UI.ParticipantManager.getUser</title>
<polygon fill="white" stroke="none" points="-4,4 -4,-279 786,-279 786,4 -4,4"/>
<!-- Node1 -->
<g id="node1" class="node"><title>Node1</title>
<polygon fill="#bfbfbf" stroke="black" points="0.5,-152.5 0.5,-171.5 197.5,-171.5 197.5,-152.5 0.5,-152.5"/>
<text text-anchor="middle" x="99" y="-159.5" font-family="Helvetica,sans-Serif" font-size="10.00">engine.UI.ParticipantManager.getUser</text>
</g>
<!-- Node2 -->
<g id="node2" class="node"><title>Node2</title>
<g id="a_node2"><a xlink:href="../../d4/d78/classengine_1_1game_representation_1_1evaluatables_1_1actions_1_1_object_location_check_action.html#a81d6b285c7b9a6fe2eeab7563e984bb7" target="_top" xlink:title="engine.gameRepresentation.evaluatables.actions.\lObjectLocationCheckAction.evaluate">
<polygon fill="white" stroke="black" points="234,-196 234,-226 490,-226 490,-196 234,-196"/>
<text text-anchor="start" x="242" y="-214" font-family="Helvetica,sans-Serif" font-size="10.00">engine.gameRepresentation.evaluatables.actions.</text>
<text text-anchor="middle" x="362" y="-203" font-family="Helvetica,sans-Serif" font-size="10.00">ObjectLocationCheckAction.evaluate</text>
</a>
</g>
</g>
<!-- Node1&#45;&gt;Node2 -->
<g id="edge1" class="edge"><title>Node1&#45;&gt;Node2</title>
<path fill="none" stroke="midnightblue" d="M160.462,-173.351C196.305,-180.08 242.163,-188.69 280.978,-195.977"/>
<polygon fill="midnightblue" stroke="midnightblue" points="161.107,-169.911 150.633,-171.506 159.815,-176.791 161.107,-169.911"/>
</g>
<!-- Node3 -->
<g id="node3" class="node"><title>Node3</title>
<g id="a_node3"><a xlink:href="../../d5/dee/classengine_1_1game_representation_1_1evaluatables_1_1actions_1_1_action.html#a71ecd5fff5af935d618db86d47785e2e" target="_top" xlink:title="engine.gameRepresentation.evaluatables.actions.\lAction.identifyParticipantsOfInterest">
<polygon fill="white" stroke="black" points="234,-147 234,-177 490,-177 490,-147 234,-147"/>
<text text-anchor="start" x="242" y="-165" font-family="Helvetica,sans-Serif" font-size="10.00">engine.gameRepresentation.evaluatables.actions.</text>
<text text-anchor="middle" x="362" y="-154" font-family="Helvetica,sans-Serif" font-size="10.00">Action.identifyParticipantsOfInterest</text>
</a>
</g>
</g>
<!-- Node1&#45;&gt;Node3 -->
<g id="edge2" class="edge"><title>Node1&#45;&gt;Node3</title>
<path fill="none" stroke="midnightblue" d="M207.659,-162C216.325,-162 225.13,-162 233.915,-162"/>
<polygon fill="midnightblue" stroke="midnightblue" points="207.558,-158.5 197.558,-162 207.558,-165.5 207.558,-158.5"/>
</g>
<!-- Node8 -->
<g id="node8" class="node"><title>Node8</title>
<g id="a_node8"><a xlink:href="../../d3/d61/classengine_1_1visuals_1_1_visual_manager.html#a5bd2adc4f3bb17dd5ed51909689d8f91" target="_top" xlink:title="engine.visuals.VisualManager.update">
<polygon fill="white" stroke="black" points="265,-54.5 265,-73.5 459,-73.5 459,-54.5 265,-54.5"/>
<text text-anchor="middle" x="362" y="-61.5" font-family="Helvetica,sans-Serif" font-size="10.00">engine.visuals.VisualManager.update</text>
</a>
</g>
</g>
<!-- Node1&#45;&gt;Node8 -->
<g id="edge7" class="edge"><title>Node1&#45;&gt;Node8</title>
<path fill="none" stroke="midnightblue" d="M134.867,-148.908C188.085,-128.926 288.344,-91.2808 335.395,-73.614"/>
<polygon fill="midnightblue" stroke="midnightblue" points="133.632,-145.633 125.501,-152.425 136.093,-152.186 133.632,-145.633"/>
</g>
<!-- Node4 -->
<g id="node4" class="node"><title>Node4</title>
<g id="a_node4"><a xlink:href="../../d5/d05/classengine_1_1game_representation_1_1evaluatables_1_1actions_1_1_player_stats_check_action.html#a12a9a90c445d8f155dcb1fc449b1a95e" target="_top" xlink:title="engine.gameRepresentation.evaluatables.actions.\lPlayerStatsCheckAction.initializeAction">
<polygon fill="white" stroke="black" points="526,-245 526,-275 782,-275 782,-245 526,-245"/>
<text text-anchor="start" x="534" y="-263" font-family="Helvetica,sans-Serif" font-size="10.00">engine.gameRepresentation.evaluatables.actions.</text>
<text text-anchor="middle" x="654" y="-252" font-family="Helvetica,sans-Serif" font-size="10.00">PlayerStatsCheckAction.initializeAction</text>
</a>
</g>
</g>
<!-- Node3&#45;&gt;Node4 -->
<g id="edge3" class="edge"><title>Node3&#45;&gt;Node4</title>
<path fill="none" stroke="midnightblue" d="M479.462,-181.136C483.093,-182.926 486.618,-184.876 490,-187 512.582,-201.184 503.418,-220.816 526,-235 532.185,-238.885 538.846,-242.186 545.763,-244.989"/>
<polygon fill="midnightblue" stroke="midnightblue" points="480.795,-177.898 470.237,-177.011 477.937,-184.289 480.795,-177.898"/>
</g>
<!-- Node5 -->
<g id="node5" class="node"><title>Node5</title>
<g id="a_node5"><a xlink:href="../../da/d0b/classengine_1_1game_representation_1_1evaluatables_1_1actions_1_1_player_attribute_interaction_action.html#a8476d092a94ff45cd6ed633bdba42269" target="_top" xlink:title="engine.gameRepresentation.evaluatables.actions.\lPlayerAttributeInteractionAction.initializeAction">
<polygon fill="white" stroke="black" points="526,-196 526,-226 782,-226 782,-196 526,-196"/>
<text text-anchor="start" x="534" y="-214" font-family="Helvetica,sans-Serif" font-size="10.00">engine.gameRepresentation.evaluatables.actions.</text>
<text text-anchor="middle" x="654" y="-203" font-family="Helvetica,sans-Serif" font-size="10.00">PlayerAttributeInteractionAction.initializeAction</text>
</a>
</g>
</g>
<!-- Node3&#45;&gt;Node5 -->
<g id="edge4" class="edge"><title>Node3&#45;&gt;Node5</title>
<path fill="none" stroke="midnightblue" d="M462.133,-178.75C495.244,-184.345 531.913,-190.54 564.188,-195.994"/>
<polygon fill="midnightblue" stroke="midnightblue" points="462.424,-175.25 451.98,-177.035 461.257,-182.152 462.424,-175.25"/>
</g>
<!-- Node6 -->
<g id="node6" class="node"><title>Node6</title>
<g id="a_node6"><a xlink:href="../../d8/d35/classengine_1_1game_representation_1_1evaluatables_1_1actions_1_1_object_type_check_action.html#a3cdfa7f74847c6305fd220053318e848" target="_top" xlink:title="engine.gameRepresentation.evaluatables.actions.\lObjectTypeCheckAction.initializeAction">
<polygon fill="white" stroke="black" points="526,-147 526,-177 782,-177 782,-147 526,-147"/>
<text text-anchor="start" x="534" y="-165" font-family="Helvetica,sans-Serif" font-size="10.00">engine.gameRepresentation.evaluatables.actions.</text>
<text text-anchor="middle" x="654" y="-154" font-family="Helvetica,sans-Serif" font-size="10.00">ObjectTypeCheckAction.initializeAction</text>
</a>
</g>
</g>
<!-- Node3&#45;&gt;Node6 -->
<g id="edge5" class="edge"><title>Node3&#45;&gt;Node6</title>
<path fill="none" stroke="midnightblue" d="M500.245,-162C508.824,-162 517.439,-162 525.97,-162"/>
<polygon fill="midnightblue" stroke="midnightblue" points="500.198,-158.5 490.198,-162 500.198,-165.5 500.198,-158.5"/>
</g>
<!-- Node7 -->
<g id="node7" class="node"><title>Node7</title>
<g id="a_node7"><a xlink:href="../../d8/d98/classengine_1_1game_representation_1_1evaluatables_1_1actions_1_1_mother_of_all_actions.html#a6e86f80b215f12de071eeaf784820c79" target="_top" xlink:title="engine.gameRepresentation.evaluatables.actions.\lMotherOfAllActions.initializeAction">
<polygon fill="white" stroke="black" points="526,-98 526,-128 782,-128 782,-98 526,-98"/>
<text text-anchor="start" x="534" y="-116" font-family="Helvetica,sans-Serif" font-size="10.00">engine.gameRepresentation.evaluatables.actions.</text>
<text text-anchor="middle" x="654" y="-105" font-family="Helvetica,sans-Serif" font-size="10.00">MotherOfAllActions.initializeAction</text>
</a>
</g>
</g>
<!-- Node3&#45;&gt;Node7 -->
<g id="edge6" class="edge"><title>Node3&#45;&gt;Node7</title>
<path fill="none" stroke="midnightblue" d="M462.133,-145.25C495.244,-139.655 531.913,-133.46 564.188,-128.006"/>
<polygon fill="midnightblue" stroke="midnightblue" points="461.257,-141.848 451.98,-146.965 462.424,-148.75 461.257,-141.848"/>
</g>
<!-- Node9 -->
<g id="node9" class="node"><title>Node9</title>
<g id="a_node9"><a xlink:href="../../d2/d87/classengine_1_1state_managing_1_1_game_loop.html#ab3cf1b000f90849c5389fbd90b147602" target="_top" xlink:title="engine.stateManaging.Game\lLoop.updateRunner">
<polygon fill="white" stroke="black" points="576.5,-49 576.5,-79 731.5,-79 731.5,-49 576.5,-49"/>
<text text-anchor="start" x="584.5" y="-67" font-family="Helvetica,sans-Serif" font-size="10.00">engine.stateManaging.Game</text>
<text text-anchor="middle" x="654" y="-56" font-family="Helvetica,sans-Serif" font-size="10.00">Loop.updateRunner</text>
</a>
</g>
</g>
<!-- Node8&#45;&gt;Node9 -->
<g id="edge8" class="edge"><title>Node8&#45;&gt;Node9</title>
<path fill="none" stroke="midnightblue" d="M469.543,-64C504.949,-64 543.653,-64 576.346,-64"/>
<polygon fill="midnightblue" stroke="midnightblue" points="469.163,-60.5001 459.163,-64 469.163,-67.5001 469.163,-60.5001"/>
</g>
<!-- Node10 -->
<g id="node10" class="node"><title>Node10</title>
<g id="a_node10"><a xlink:href="../../d2/d87/classengine_1_1state_managing_1_1_game_loop.html#a6b4981af45d656d6bfffa3a6ad9b0b9d" target="_top" xlink:title="engine.stateManaging.Game\lLoop.updateEditor">
<polygon fill="white" stroke="black" points="576.5,-0 576.5,-30 731.5,-30 731.5,-0 576.5,-0"/>
<text text-anchor="start" x="584.5" y="-18" font-family="Helvetica,sans-Serif" font-size="10.00">engine.stateManaging.Game</text>
<text text-anchor="middle" x="654" y="-7" font-family="Helvetica,sans-Serif" font-size="10.00">Loop.updateEditor</text>
</a>
</g>
</g>
<!-- Node8&#45;&gt;Node10 -->
<g id="edge9" class="edge"><title>Node8&#45;&gt;Node10</title>
<path fill="none" stroke="midnightblue" d="M429.229,-52.8097C473.015,-45.4112 530.562,-35.6878 576.332,-27.9542"/>
<polygon fill="midnightblue" stroke="midnightblue" points="428.536,-49.377 419.259,-54.4942 429.702,-56.2792 428.536,-49.377"/>
</g>
</g>
</svg>
