<?xml version="1.0" encoding="UTF-8" standalone="no"?>
<!DOCTYPE svg PUBLIC "-//W3C//DTD SVG 1.1//EN"
 "http://www.w3.org/Graphics/SVG/1.1/DTD/svg11.dtd">
<!-- Generated by graphviz version 2.36.0 (20140111.2315)
 -->
<!-- Title: model.MainModel.createDrawableGameElementState Pages: 1 -->
<svg width="1652pt" height="633pt"
 viewBox="0.00 0.00 1652.00 633.00" xmlns="http://www.w3.org/2000/svg" xmlns:xlink="http://www.w3.org/1999/xlink">
<g id="graph0" class="graph" transform="scale(1 1) rotate(0) translate(4 629)">
<title>model.MainModel.createDrawableGameElementState</title>
<polygon fill="white" stroke="none" points="-4,4 -4,-629 1648,-629 1648,4 -4,4"/>
<!-- Node1 -->
<g id="node1" class="node"><title>Node1</title>
<polygon fill="#bfbfbf" stroke="black" points="0.5,-187 0.5,-217 179.5,-217 179.5,-187 0.5,-187"/>
<text text-anchor="start" x="8.5" y="-205" font-family="Helvetica,sans-Serif" font-size="10.00">model.MainModel.createDrawable</text>
<text text-anchor="middle" x="90" y="-194" font-family="Helvetica,sans-Serif" font-size="10.00">GameElementState</text>
</g>
<!-- Node2 -->
<g id="node2" class="node"><title>Node2</title>
<g id="a_node2"><a xlink:href="../../dc/d48/classmodel_1_1data_1_1_wizard_data.html#a9cc5ffae61bf745c8aad40f05ee31ab4" target="_top" xlink:title="model.data.WizardData.add\lDataPair">
<polygon fill="white" stroke="black" points="247,-359 247,-389 397,-389 397,-359 247,-359"/>
<text text-anchor="start" x="255" y="-377" font-family="Helvetica,sans-Serif" font-size="10.00">model.data.WizardData.add</text>
<text text-anchor="middle" x="322" y="-366" font-family="Helvetica,sans-Serif" font-size="10.00">DataPair</text>
</a>
</g>
</g>
<!-- Node1&#45;&gt;Node2 -->
<g id="edge1" class="edge"><title>Node1&#45;&gt;Node2</title>
<path fill="none" stroke="midnightblue" d="M99.4229,-217.246C116.931,-247.438 160.306,-314.859 216,-349 222.628,-353.063 229.864,-356.465 237.339,-359.315"/>
<polygon fill="midnightblue" stroke="midnightblue" points="236.311,-362.663 246.906,-362.637 238.607,-356.05 236.311,-362.663"/>
</g>
<!-- Node3 -->
<g id="node3" class="node"><title>Node3</title>
<g id="a_node3"><a xlink:href="../../de/dda/classmodel_1_1_game_universe.html#a852fdc00f77efd1b0365a6601244e29e" target="_top" xlink:title="model.GameUniverse.addDrawable\lGameElementState">
<polygon fill="white" stroke="black" points="229,-310 229,-340 415,-340 415,-310 229,-310"/>
<text text-anchor="start" x="237" y="-328" font-family="Helvetica,sans-Serif" font-size="10.00">model.GameUniverse.addDrawable</text>
<text text-anchor="middle" x="322" y="-317" font-family="Helvetica,sans-Serif" font-size="10.00">GameElementState</text>
</a>
</g>
</g>
<!-- Node1&#45;&gt;Node3 -->
<g id="edge2" class="edge"><title>Node1&#45;&gt;Node3</title>
<path fill="none" stroke="midnightblue" d="M105.688,-217.083C127.656,-238.749 171.291,-278.44 216,-300 221.011,-302.416 226.272,-304.608 231.657,-306.596"/>
<polygon fill="midnightblue" stroke="midnightblue" points="230.863,-310.024 241.458,-309.956 233.134,-303.402 230.863,-310.024"/>
</g>
<!-- Node7 -->
<g id="node7" class="node"><title>Node7</title>
<g id="a_node7"><a xlink:href="../../d1/d8e/classmodel_1_1_game_element_state_factory.html#a46a26fb8160e1cbef9933f6eb5779ccf" target="_top" xlink:title="model.GameElementStateFactory.create\lDrawableGameElementState">
<polygon fill="white" stroke="black" points="216,-261 216,-291 428,-291 428,-261 216,-261"/>
<text text-anchor="start" x="224" y="-279" font-family="Helvetica,sans-Serif" font-size="10.00">model.GameElementStateFactory.create</text>
<text text-anchor="middle" x="322" y="-268" font-family="Helvetica,sans-Serif" font-size="10.00">DrawableGameElementState</text>
</a>
</g>
</g>
<!-- Node1&#45;&gt;Node7 -->
<g id="edge6" class="edge"><title>Node1&#45;&gt;Node7</title>
<path fill="none" stroke="midnightblue" d="M125.556,-217.054C150.396,-227.502 184.86,-241.242 216,-251 224.315,-253.606 233.073,-256.089 241.84,-258.41"/>
<polygon fill="midnightblue" stroke="midnightblue" points="241.161,-261.849 251.718,-260.958 242.909,-255.071 241.161,-261.849"/>
</g>
<!-- Node27 -->
<g id="node27" class="node"><title>Node27</title>
<g id="a_node27"><a xlink:href="../../d6/d8b/classmodel_1_1state_1_1_game_state.html#ada7cc6194ba1f8235db868e033be6922" target="_top" xlink:title="model.state.GameState.get\lGameUniverse">
<polygon fill="white" stroke="black" points="246,-212 246,-242 398,-242 398,-212 246,-212"/>
<text text-anchor="start" x="254" y="-230" font-family="Helvetica,sans-Serif" font-size="10.00">model.state.GameState.get</text>
<text text-anchor="middle" x="322" y="-219" font-family="Helvetica,sans-Serif" font-size="10.00">GameUniverse</text>
</a>
</g>
</g>
<!-- Node1&#45;&gt;Node27 -->
<g id="edge34" class="edge"><title>Node1&#45;&gt;Node27</title>
<path fill="none" stroke="midnightblue" d="M179.595,-211.63C198.067,-213.638 217.5,-215.75 235.844,-217.744"/>
<polygon fill="midnightblue" stroke="midnightblue" points="235.59,-221.237 245.91,-218.838 236.347,-214.278 235.59,-221.237"/>
</g>
<!-- Node28 -->
<g id="node28" class="node"><title>Node28</title>
<g id="a_node28"><a xlink:href="../../de/d01/classmodel_1_1sprite_1_1_sprite_image_generator.html#ab447717d12685c64342203f9ad82fcaa" target="_top" xlink:title="model.sprite.SpriteImage\lGenerator.loadSpriteImageContainer">
<polygon fill="white" stroke="black" points="225.5,-163 225.5,-193 418.5,-193 418.5,-163 225.5,-163"/>
<text text-anchor="start" x="233.5" y="-181" font-family="Helvetica,sans-Serif" font-size="10.00">model.sprite.SpriteImage</text>
<text text-anchor="middle" x="322" y="-170" font-family="Helvetica,sans-Serif" font-size="10.00">Generator.loadSpriteImageContainer</text>
</a>
</g>
</g>
<!-- Node1&#45;&gt;Node28 -->
<g id="edge35" class="edge"><title>Node1&#45;&gt;Node28</title>
<path fill="none" stroke="midnightblue" d="M179.595,-192.755C191.261,-191.538 203.31,-190.281 215.227,-189.037"/>
<polygon fill="midnightblue" stroke="midnightblue" points="215.611,-192.516 225.194,-187.997 214.884,-185.554 215.611,-192.516"/>
</g>
<!-- Node29 -->
<g id="node29" class="node"><title>Node29</title>
<g id="a_node29"><a xlink:href="../../de/d33/classmodel_1_1_game_save_load_mediator.html#ae09130f452bdbe71c298d9da0e3ca70b" target="_top" xlink:title="model.GameSaveLoadMediator.save\lColorMask">
<polygon fill="white" stroke="black" points="225.5,-114 225.5,-144 418.5,-144 418.5,-114 225.5,-114"/>
<text text-anchor="start" x="233.5" y="-132" font-family="Helvetica,sans-Serif" font-size="10.00">model.GameSaveLoadMediator.save</text>
<text text-anchor="middle" x="322" y="-121" font-family="Helvetica,sans-Serif" font-size="10.00">ColorMask</text>
</a>
</g>
</g>
<!-- Node1&#45;&gt;Node29 -->
<g id="edge36" class="edge"><title>Node1&#45;&gt;Node29</title>
<path fill="none" stroke="midnightblue" d="M125.263,-186.971C150.11,-176.468 184.705,-162.652 216,-153 223.35,-150.733 231.049,-148.575 238.794,-146.55"/>
<polygon fill="midnightblue" stroke="midnightblue" points="239.778,-149.911 248.608,-144.057 238.054,-143.127 239.778,-149.911"/>
</g>
<!-- Node36 -->
<g id="node36" class="node"><title>Node36</title>
<g id="a_node36"><a xlink:href="../../de/d33/classmodel_1_1_game_save_load_mediator.html#adf671d4ee11fbda2e80d91c30013524a" target="_top" xlink:title="model.GameSaveLoadMediator.save\lImage">
<polygon fill="white" stroke="black" points="225.5,-65 225.5,-95 418.5,-95 418.5,-65 225.5,-65"/>
<text text-anchor="start" x="233.5" y="-83" font-family="Helvetica,sans-Serif" font-size="10.00">model.GameSaveLoadMediator.save</text>
<text text-anchor="middle" x="322" y="-72" font-family="Helvetica,sans-Serif" font-size="10.00">Image</text>
</a>
</g>
</g>
<!-- Node1&#45;&gt;Node36 -->
<g id="edge43" class="edge"><title>Node1&#45;&gt;Node36</title>
<path fill="none" stroke="midnightblue" d="M105.662,-186.864C127.598,-165.131 171.194,-125.358 216,-104 220.31,-101.946 224.804,-100.063 229.403,-98.3367"/>
<polygon fill="midnightblue" stroke="midnightblue" points="230.671,-101.602 238.966,-95.0107 228.371,-94.99 230.671,-101.602"/>
</g>
<!-- Node37 -->
<g id="node37" class="node"><title>Node37</title>
<g id="a_node37"><a xlink:href="../../de/d21/classmodel_1_1_main_model.html#a6d23ce35dd510459ea2dd46d3d59ef28" target="_top" xlink:title="model.MainModel.updateObservers">
<polygon fill="white" stroke="black" points="229,-26.5 229,-45.5 415,-45.5 415,-26.5 229,-26.5"/>
<text text-anchor="middle" x="322" y="-33.5" font-family="Helvetica,sans-Serif" font-size="10.00">model.MainModel.updateObservers</text>
</a>
</g>
</g>
<!-- Node1&#45;&gt;Node37 -->
<g id="edge46" class="edge"><title>Node1&#45;&gt;Node37</title>
<path fill="none" stroke="midnightblue" d="M99.0043,-186.961C116.057,-156.53 159.102,-87.7711 216,-55 219.747,-52.8417 223.684,-50.9189 227.745,-49.2068"/>
<polygon fill="midnightblue" stroke="midnightblue" points="229.279,-52.3697 237.415,-45.5824 226.822,-45.815 229.279,-52.3697"/>
</g>
<!-- Node4 -->
<g id="node4" class="node"><title>Node4</title>
<g id="a_node4"><a xlink:href="../../de/dda/classmodel_1_1_game_universe.html#af1828205204bed217447c08b9da6076b" target="_top" xlink:title="model.GameUniverse.store\lAttributes">
<polygon fill="white" stroke="black" points="493.5,-529 493.5,-559 642.5,-559 642.5,-529 493.5,-529"/>
<text text-anchor="start" x="501.5" y="-547" font-family="Helvetica,sans-Serif" font-size="10.00">model.GameUniverse.store</text>
<text text-anchor="middle" x="568" y="-536" font-family="Helvetica,sans-Serif" font-size="10.00">Attributes</text>
</a>
</g>
</g>
<!-- Node3&#45;&gt;Node4 -->
<g id="edge3" class="edge"><title>Node3&#45;&gt;Node4</title>
<path fill="none" stroke="midnightblue" d="M411.528,-340.113C417.311,-342.637 422.866,-345.576 428,-349 445.136,-360.427 519.033,-471.009 551.547,-520.39"/>
<polygon fill="midnightblue" stroke="midnightblue" points="548.696,-522.425 557.113,-528.86 554.546,-518.581 548.696,-522.425"/>
</g>
<!-- Node5 -->
<g id="node5" class="node"><title>Node5</title>
<g id="a_node5"><a xlink:href="../../da/dc5/classmodel_1_1state_1_1gameelement_1_1_attribute_container.html#a5582c5bba557ed93a5269e562bca0ba2" target="_top" xlink:title="model.state.gameelement.\lAttributeContainer.getNumerical\lAttributes">
<polygon fill="white" stroke="black" points="728,-583.5 728,-624.5 900,-624.5 900,-583.5 728,-583.5"/>
<text text-anchor="start" x="736" y="-612.5" font-family="Helvetica,sans-Serif" font-size="10.00">model.state.gameelement.</text>
<text text-anchor="start" x="736" y="-601.5" font-family="Helvetica,sans-Serif" font-size="10.00">AttributeContainer.getNumerical</text>
<text text-anchor="middle" x="814" y="-590.5" font-family="Helvetica,sans-Serif" font-size="10.00">Attributes</text>
</a>
</g>
</g>
<!-- Node4&#45;&gt;Node5 -->
<g id="edge4" class="edge"><title>Node4&#45;&gt;Node5</title>
<path fill="none" stroke="midnightblue" d="M630.257,-559.063C657.271,-565.706 689.621,-573.661 719.544,-581.019"/>
<polygon fill="midnightblue" stroke="midnightblue" points="719.04,-584.499 729.587,-583.489 720.712,-577.702 719.04,-584.499"/>
</g>
<!-- Node6 -->
<g id="node6" class="node"><title>Node6</title>
<g id="a_node6"><a xlink:href="../../da/dc5/classmodel_1_1state_1_1gameelement_1_1_attribute_container.html#a4291bdbf5ccacfa0273f0e657e20406e" target="_top" xlink:title="model.state.gameelement.\lAttributeContainer.getTextual\lAttributes">
<polygon fill="white" stroke="black" points="736,-523.5 736,-564.5 892,-564.5 892,-523.5 736,-523.5"/>
<text text-anchor="start" x="744" y="-552.5" font-family="Helvetica,sans-Serif" font-size="10.00">model.state.gameelement.</text>
<text text-anchor="start" x="744" y="-541.5" font-family="Helvetica,sans-Serif" font-size="10.00">AttributeContainer.getTextual</text>
<text text-anchor="middle" x="814" y="-530.5" font-family="Helvetica,sans-Serif" font-size="10.00">Attributes</text>
</a>
</g>
</g>
<!-- Node4&#45;&gt;Node6 -->
<g id="edge5" class="edge"><title>Node4&#45;&gt;Node6</title>
<path fill="none" stroke="midnightblue" d="M642.539,-544C668.668,-544 698.339,-544 725.518,-544"/>
<polygon fill="midnightblue" stroke="midnightblue" points="725.801,-547.5 735.801,-544 725.801,-540.5 725.801,-547.5"/>
</g>
<!-- Node8 -->
<g id="node8" class="node"><title>Node8</title>
<g id="a_node8"><a xlink:href="../../d1/d8e/classmodel_1_1_game_element_state_factory.html#a58beddcf86b79336d5f7de3c2c03f2a7" target="_top" xlink:title="model.GameElementStateFactory.add\lEssentials">
<polygon fill="white" stroke="black" points="714.5,-202 714.5,-232 913.5,-232 913.5,-202 714.5,-202"/>
<text text-anchor="start" x="722.5" y="-220" font-family="Helvetica,sans-Serif" font-size="10.00">model.GameElementStateFactory.add</text>
<text text-anchor="middle" x="814" y="-209" font-family="Helvetica,sans-Serif" font-size="10.00">Essentials</text>
</a>
</g>
</g>
<!-- Node7&#45;&gt;Node8 -->
<g id="edge7" class="edge"><title>Node7&#45;&gt;Node8</title>
<path fill="none" stroke="midnightblue" d="M428.117,-263.343C509.507,-253.543 621.869,-240.014 704.179,-230.103"/>
<polygon fill="midnightblue" stroke="midnightblue" points="704.807,-233.553 714.317,-228.882 703.97,-226.603 704.807,-233.553"/>
</g>
<!-- Node18 -->
<g id="node18" class="node"><title>Node18</title>
<g id="a_node18"><a xlink:href="../../d1/d8e/classmodel_1_1_game_element_state_factory.html#aa01cfae3c582df2eb11c39dd076c5096" target="_top" xlink:title="model.GameElementStateFactory.add\lVisuals">
<polygon fill="white" stroke="black" points="468.5,-350 468.5,-380 667.5,-380 667.5,-350 468.5,-350"/>
<text text-anchor="start" x="476.5" y="-368" font-family="Helvetica,sans-Serif" font-size="10.00">model.GameElementStateFactory.add</text>
<text text-anchor="middle" x="568" y="-357" font-family="Helvetica,sans-Serif" font-size="10.00">Visuals</text>
</a>
</g>
</g>
<!-- Node7&#45;&gt;Node18 -->
<g id="edge20" class="edge"><title>Node7&#45;&gt;Node18</title>
<path fill="none" stroke="midnightblue" d="M397.837,-291.043C408.069,-293.697 418.362,-296.687 428,-300 463.876,-312.331 502.849,-331.056 530.373,-345.246"/>
<polygon fill="midnightblue" stroke="midnightblue" points="528.762,-348.353 539.247,-349.869 531.996,-342.145 528.762,-348.353"/>
</g>
<!-- Node9 -->
<g id="node9" class="node"><title>Node9</title>
<g id="a_node9"><a xlink:href="../../d7/da9/classmodel_1_1state_1_1gameelement_1_1_game_element_state.html#a9c933a8457618e7e8e5f257ee2211c07" target="_top" xlink:title="model.state.gameelement.\lGameElementState.addAction">
<polygon fill="white" stroke="black" points="980.5,-120 980.5,-150 1143.5,-150 1143.5,-120 980.5,-120"/>
<text text-anchor="start" x="988.5" y="-138" font-family="Helvetica,sans-Serif" font-size="10.00">model.state.gameelement.</text>
<text text-anchor="middle" x="1062" y="-127" font-family="Helvetica,sans-Serif" font-size="10.00">GameElementState.addAction</text>
</a>
</g>
</g>
<!-- Node8&#45;&gt;Node9 -->
<g id="edge8" class="edge"><title>Node8&#45;&gt;Node9</title>
<path fill="none" stroke="midnightblue" d="M893.905,-201.959C902.893,-199.154 911.772,-195.86 920,-192 938.107,-183.506 938.087,-173.895 956,-165 965.072,-160.495 974.93,-156.564 984.852,-153.163"/>
<polygon fill="midnightblue" stroke="midnightblue" points="985.937,-156.491 994.36,-150.064 983.768,-149.835 985.937,-156.491"/>
</g>
<!-- Node11 -->
<g id="node11" class="node"><title>Node11</title>
<g id="a_node11"><a xlink:href="../../d1/d8e/classmodel_1_1_game_element_state_factory.html#a0c7129019d734a04dfc2d6b6b25dc45d" target="_top" xlink:title="model.GameElementStateFactory.add\lToState">
<polygon fill="white" stroke="black" points="962.5,-284 962.5,-314 1161.5,-314 1161.5,-284 962.5,-284"/>
<text text-anchor="start" x="970.5" y="-302" font-family="Helvetica,sans-Serif" font-size="10.00">model.GameElementStateFactory.add</text>
<text text-anchor="middle" x="1062" y="-291" font-family="Helvetica,sans-Serif" font-size="10.00">ToState</text>
</a>
</g>
</g>
<!-- Node8&#45;&gt;Node11 -->
<g id="edge10" class="edge"><title>Node8&#45;&gt;Node11</title>
<path fill="none" stroke="midnightblue" d="M875.026,-232.016C889.97,-236.487 905.778,-241.86 920,-248 937.006,-255.342 938.962,-261.732 956,-269 966.453,-273.459 977.767,-277.474 988.967,-281.01"/>
<polygon fill="midnightblue" stroke="midnightblue" points="988.169,-284.425 998.755,-283.992 990.209,-277.729 988.169,-284.425"/>
</g>
<!-- Node12 -->
<g id="node12" class="node"><title>Node12</title>
<g id="a_node12"><a xlink:href="../../dc/d48/classmodel_1_1data_1_1_wizard_data.html#ad9134aa0c85f67b8fd66ff84f7f79cbe" target="_top" xlink:title="model.data.WizardData.get\lWizardDataByType">
<polygon fill="white" stroke="black" points="1258,-328 1258,-358 1406,-358 1406,-328 1258,-328"/>
<text text-anchor="start" x="1266" y="-346" font-family="Helvetica,sans-Serif" font-size="10.00">model.data.WizardData.get</text>
<text text-anchor="middle" x="1332" y="-335" font-family="Helvetica,sans-Serif" font-size="10.00">WizardDataByType</text>
</a>
</g>
</g>
<!-- Node8&#45;&gt;Node12 -->
<g id="edge15" class="edge"><title>Node8&#45;&gt;Node12</title>
<path fill="none" stroke="midnightblue" d="M913.781,-226.515C985.341,-234.956 1083.88,-249.788 1168,-274 1211.94,-286.649 1259.88,-307.908 1292.31,-323.492"/>
<polygon fill="midnightblue" stroke="midnightblue" points="1290.92,-326.708 1301.45,-327.928 1293.98,-320.411 1290.92,-326.708"/>
</g>
<!-- Node13 -->
<g id="node13" class="node"><title>Node13</title>
<g id="a_node13"><a xlink:href="../../d1/d8e/classmodel_1_1_game_element_state_factory.html#a0182be087dfefa408c6194ff5ca55ac1" target="_top" xlink:title="model.GameElementStateFactory.create\lActionWrapper">
<polygon fill="white" stroke="black" points="1226,-161 1226,-191 1438,-191 1438,-161 1226,-161"/>
<text text-anchor="start" x="1234" y="-179" font-family="Helvetica,sans-Serif" font-size="10.00">model.GameElementStateFactory.create</text>
<text text-anchor="middle" x="1332" y="-168" font-family="Helvetica,sans-Serif" font-size="10.00">ActionWrapper</text>
</a>
</g>
</g>
<!-- Node8&#45;&gt;Node13 -->
<g id="edge12" class="edge"><title>Node8&#45;&gt;Node13</title>
<path fill="none" stroke="midnightblue" d="M913.578,-206.869C927.807,-205.506 942.274,-204.175 956,-203 1042.96,-195.554 1141.38,-188.52 1215.57,-183.5"/>
<polygon fill="midnightblue" stroke="midnightblue" points="1216.13,-186.97 1225.87,-182.805 1215.66,-179.986 1216.13,-186.97"/>
</g>
<!-- Node14 -->
<g id="node14" class="node"><title>Node14</title>
<g id="a_node14"><a xlink:href="../../dc/d48/classmodel_1_1data_1_1_wizard_data.html#ae19ca8de1e400fb399d702d78c861a81" target="_top" xlink:title="model.data.WizardData.get\lValueByKey">
<polygon fill="white" stroke="black" points="1496,-317 1496,-347 1644,-347 1644,-317 1496,-317"/>
<text text-anchor="start" x="1504" y="-335" font-family="Helvetica,sans-Serif" font-size="10.00">model.data.WizardData.get</text>
<text text-anchor="middle" x="1570" y="-324" font-family="Helvetica,sans-Serif" font-size="10.00">ValueByKey</text>
</a>
</g>
</g>
<!-- Node8&#45;&gt;Node14 -->
<g id="edge14" class="edge"><title>Node8&#45;&gt;Node14</title>
<path fill="none" stroke="midnightblue" d="M913.643,-215.469C984.71,-215.687 1082.71,-218.703 1168,-231 1293.13,-249.04 1435.85,-290.051 1512.76,-313.895"/>
<polygon fill="midnightblue" stroke="midnightblue" points="1512.12,-317.363 1522.71,-316.999 1514.21,-310.681 1512.12,-317.363"/>
</g>
<!-- Node15 -->
<g id="node15" class="node"><title>Node15</title>
<g id="a_node15"><a xlink:href="../../da/dc5/classmodel_1_1state_1_1gameelement_1_1_attribute_container.html#a168d6e922a93b11894753a0598c02cf7" target="_top" xlink:title="model.state.gameelement.\lAttributeContainer.setNumerical\lAttribute">
<polygon fill="white" stroke="black" points="976.5,-60.5 976.5,-101.5 1147.5,-101.5 1147.5,-60.5 976.5,-60.5"/>
<text text-anchor="start" x="984.5" y="-89.5" font-family="Helvetica,sans-Serif" font-size="10.00">model.state.gameelement.</text>
<text text-anchor="start" x="984.5" y="-78.5" font-family="Helvetica,sans-Serif" font-size="10.00">AttributeContainer.setNumerical</text>
<text text-anchor="middle" x="1062" y="-67.5" font-family="Helvetica,sans-Serif" font-size="10.00">Attribute</text>
</a>
</g>
</g>
<!-- Node8&#45;&gt;Node15 -->
<g id="edge16" class="edge"><title>Node8&#45;&gt;Node15</title>
<path fill="none" stroke="midnightblue" d="M904.914,-201.899C910.303,-199.114 915.396,-195.842 920,-192 950.559,-166.498 925.901,-136.043 956,-110 959.514,-106.96 963.32,-104.236 967.331,-101.795"/>
<polygon fill="midnightblue" stroke="midnightblue" points="969.269,-104.727 976.403,-96.894 965.942,-98.5681 969.269,-104.727"/>
</g>
<!-- Node17 -->
<g id="node17" class="node"><title>Node17</title>
<g id="a_node17"><a xlink:href="../../da/dc5/classmodel_1_1state_1_1gameelement_1_1_attribute_container.html#a9537867c561e10d0d497563aab33e447" target="_top" xlink:title="model.state.gameelement.\lAttributeContainer.setTextual\lAttribute">
<polygon fill="white" stroke="black" points="984.5,-0.5 984.5,-41.5 1139.5,-41.5 1139.5,-0.5 984.5,-0.5"/>
<text text-anchor="start" x="992.5" y="-29.5" font-family="Helvetica,sans-Serif" font-size="10.00">model.state.gameelement.</text>
<text text-anchor="start" x="992.5" y="-18.5" font-family="Helvetica,sans-Serif" font-size="10.00">AttributeContainer.setTextual</text>
<text text-anchor="middle" x="1062" y="-7.5" font-family="Helvetica,sans-Serif" font-size="10.00">Attribute</text>
</a>
</g>
</g>
<!-- Node8&#45;&gt;Node17 -->
<g id="edge18" class="edge"><title>Node8&#45;&gt;Node17</title>
<path fill="none" stroke="midnightblue" d="M907.126,-201.88C911.783,-199.08 916.126,-195.811 920,-192 966.103,-146.639 910.919,-97.3765 956,-51 961.528,-45.3127 968.054,-40.6831 975.104,-36.9173"/>
<polygon fill="midnightblue" stroke="midnightblue" points="976.723,-40.0234 984.277,-32.5947 973.739,-33.6911 976.723,-40.0234"/>
</g>
<!-- Node10 -->
<g id="node10" class="node"><title>Node10</title>
<g id="a_node10"><a xlink:href="../../d5/d7f/classengine_1_1game_representation_1_1evaluatables_1_1actions_1_1_action_wrapper.html#aeb7b2a7580e1ba5d6e57a13cc00e9bd5" target="_top" xlink:title="engine.gameRepresentation.evaluatables.actions.\lActionWrapper.getActionType">
<polygon fill="white" stroke="black" points="1204,-112 1204,-142 1460,-142 1460,-112 1204,-112"/>
<text text-anchor="start" x="1212" y="-130" font-family="Helvetica,sans-Serif" font-size="10.00">engine.gameRepresentation.evaluatables.actions.</text>
<text text-anchor="middle" x="1332" y="-119" font-family="Helvetica,sans-Serif" font-size="10.00">ActionWrapper.getActionType</text>
</a>
</g>
</g>
<!-- Node9&#45;&gt;Node10 -->
<g id="edge9" class="edge"><title>Node9&#45;&gt;Node10</title>
<path fill="none" stroke="midnightblue" d="M1143.77,-132.589C1159.62,-132.116 1176.65,-131.607 1193.76,-131.097"/>
<polygon fill="midnightblue" stroke="midnightblue" points="1193.93,-134.593 1203.83,-130.796 1193.73,-127.596 1193.93,-134.593"/>
</g>
<!-- Node11&#45;&gt;Node12 -->
<g id="edge11" class="edge"><title>Node11&#45;&gt;Node12</title>
<path fill="none" stroke="midnightblue" d="M1154.48,-314.019C1184.73,-318.985 1218.19,-324.479 1247.78,-329.338"/>
<polygon fill="midnightblue" stroke="midnightblue" points="1247.22,-332.793 1257.66,-330.959 1248.36,-325.885 1247.22,-332.793"/>
</g>
<!-- Node13&#45;&gt;Node14 -->
<g id="edge13" class="edge"><title>Node13&#45;&gt;Node14</title>
<path fill="none" stroke="midnightblue" d="M1426.88,-191.047C1438.49,-194.939 1449.83,-199.836 1460,-206 1502.41,-231.699 1536.9,-279.489 1555.06,-308.254"/>
<polygon fill="midnightblue" stroke="midnightblue" points="1552.15,-310.195 1560.37,-316.873 1558.11,-306.523 1552.15,-310.195"/>
</g>
<!-- Node16 -->
<g id="node16" class="node"><title>Node16</title>
<g id="a_node16"><a xlink:href="../../da/dc5/classmodel_1_1state_1_1gameelement_1_1_attribute_container.html#a03dd9ed123fc97bfc8bce5528b488333" target="_top" xlink:title="model.state.gameelement.\lAttributeContainer.addAttribute">
<polygon fill="white" stroke="black" points="1248.5,-36 1248.5,-66 1415.5,-66 1415.5,-36 1248.5,-36"/>
<text text-anchor="start" x="1256.5" y="-54" font-family="Helvetica,sans-Serif" font-size="10.00">model.state.gameelement.</text>
<text text-anchor="middle" x="1332" y="-43" font-family="Helvetica,sans-Serif" font-size="10.00">AttributeContainer.addAttribute</text>
</a>
</g>
</g>
<!-- Node15&#45;&gt;Node16 -->
<g id="edge17" class="edge"><title>Node15&#45;&gt;Node16</title>
<path fill="none" stroke="midnightblue" d="M1147.8,-71.5078C1176.47,-68.2985 1208.63,-64.6985 1237.9,-61.4211"/>
<polygon fill="midnightblue" stroke="midnightblue" points="1238.58,-64.8673 1248.13,-60.2765 1237.8,-57.9108 1238.58,-64.8673"/>
</g>
<!-- Node17&#45;&gt;Node16 -->
<g id="edge19" class="edge"><title>Node17&#45;&gt;Node16</title>
<path fill="none" stroke="midnightblue" d="M1139.8,-29.5968C1170.36,-33.0183 1205.82,-36.9871 1237.83,-40.5709"/>
<polygon fill="midnightblue" stroke="midnightblue" points="1237.77,-44.0856 1248.1,-41.7198 1238.55,-37.129 1237.77,-44.0856"/>
</g>
<!-- Node19 -->
<g id="node19" class="node"><title>Node19</title>
<g id="a_node19"><a xlink:href="../../da/dbf/classmodel_1_1_animator_state_factory.html#a3a7f05242a6a9f5d2552b22c6e172175" target="_top" xlink:title="model.AnimatorStateFactory.create\lAnimatorState">
<polygon fill="white" stroke="black" points="720.5,-475 720.5,-505 907.5,-505 907.5,-475 720.5,-475"/>
<text text-anchor="start" x="728.5" y="-493" font-family="Helvetica,sans-Serif" font-size="10.00">model.AnimatorStateFactory.create</text>
<text text-anchor="middle" x="814" y="-482" font-family="Helvetica,sans-Serif" font-size="10.00">AnimatorState</text>
</a>
</g>
</g>
<!-- Node18&#45;&gt;Node19 -->
<g id="edge21" class="edge"><title>Node18&#45;&gt;Node19</title>
<path fill="none" stroke="midnightblue" d="M588.772,-380.115C614.904,-399.536 662.917,-433.324 708,-455 721.086,-461.292 735.594,-466.918 749.546,-471.725"/>
<polygon fill="midnightblue" stroke="midnightblue" points="748.497,-475.065 759.091,-474.919 750.719,-468.426 748.497,-475.065"/>
</g>
<!-- Node22 -->
<g id="node22" class="node"><title>Node22</title>
<g id="a_node22"><a xlink:href="../../d1/d8e/classmodel_1_1_game_element_state_factory.html#a60449671abef528d48c1ea67bd20e4d1" target="_top" xlink:title="model.GameElementStateFactory.create\lAttributeDisplayerState">
<polygon fill="white" stroke="black" points="708,-377 708,-407 920,-407 920,-377 708,-377"/>
<text text-anchor="start" x="716" y="-395" font-family="Helvetica,sans-Serif" font-size="10.00">model.GameElementStateFactory.create</text>
<text text-anchor="middle" x="814" y="-384" font-family="Helvetica,sans-Serif" font-size="10.00">AttributeDisplayerState</text>
</a>
</g>
</g>
<!-- Node18&#45;&gt;Node22 -->
<g id="edge27" class="edge"><title>Node18&#45;&gt;Node22</title>
<path fill="none" stroke="midnightblue" d="M667.541,-375.904C677.461,-377.002 687.595,-378.123 697.669,-379.238"/>
<polygon fill="midnightblue" stroke="midnightblue" points="697.389,-382.728 707.713,-380.349 698.159,-375.771 697.389,-382.728"/>
</g>
<!-- Node24 -->
<g id="node24" class="node"><title>Node24</title>
<g id="a_node24"><a xlink:href="../../d1/d8e/classmodel_1_1_game_element_state_factory.html#a6b5777519cf1169365801666a1c00054" target="_top" xlink:title="model.GameElementStateFactory.create\lBounds">
<polygon fill="white" stroke="black" points="956,-431 956,-461 1168,-461 1168,-431 956,-431"/>
<text text-anchor="start" x="964" y="-449" font-family="Helvetica,sans-Serif" font-size="10.00">model.GameElementStateFactory.create</text>
<text text-anchor="middle" x="1062" y="-438" font-family="Helvetica,sans-Serif" font-size="10.00">Bounds</text>
</a>
</g>
</g>
<!-- Node18&#45;&gt;Node24 -->
<g id="edge30" class="edge"><title>Node18&#45;&gt;Node24</title>
<path fill="none" stroke="midnightblue" d="M602.232,-380.055C629.93,-391.899 670.733,-407.736 708,-416 786.122,-433.324 876.011,-440.787 945.53,-443.939"/>
<polygon fill="midnightblue" stroke="midnightblue" points="945.494,-447.441 955.635,-444.373 945.795,-440.447 945.494,-447.441"/>
</g>
<!-- Node25 -->
<g id="node25" class="node"><title>Node25</title>
<g id="a_node25"><a xlink:href="../../dd/ded/classmodel_1_1state_1_1gameelement_1_1_drawable_game_element_state.html#af28ea3dfb05b4cc9b26e0d8f827ded3d" target="_top" xlink:title="model.state.gameelement.\lDrawableGameElementState.set\lBounds">
<polygon fill="white" stroke="black" points="727,-317.5 727,-358.5 901,-358.5 901,-317.5 727,-317.5"/>
<text text-anchor="start" x="735" y="-346.5" font-family="Helvetica,sans-Serif" font-size="10.00">model.state.gameelement.</text>
<text text-anchor="start" x="735" y="-335.5" font-family="Helvetica,sans-Serif" font-size="10.00">DrawableGameElementState.set</text>
<text text-anchor="middle" x="814" y="-324.5" font-family="Helvetica,sans-Serif" font-size="10.00">Bounds</text>
</a>
</g>
</g>
<!-- Node18&#45;&gt;Node25 -->
<g id="edge32" class="edge"><title>Node18&#45;&gt;Node25</title>
<path fill="none" stroke="midnightblue" d="M667.541,-354.096C683.751,-352.302 700.536,-350.445 716.691,-348.657"/>
<polygon fill="midnightblue" stroke="midnightblue" points="717.104,-352.133 726.658,-347.554 716.334,-345.175 717.104,-352.133"/>
</g>
<!-- Node26 -->
<g id="node26" class="node"><title>Node26</title>
<g id="a_node26"><a xlink:href="../../dd/ded/classmodel_1_1state_1_1gameelement_1_1_drawable_game_element_state.html#a415d7fdbb8edace941e4d681e6d504fb" target="_top" xlink:title="model.state.gameelement.\lDrawableGameElementState.set\lVisionBounds">
<polygon fill="white" stroke="black" points="727,-257.5 727,-298.5 901,-298.5 901,-257.5 727,-257.5"/>
<text text-anchor="start" x="735" y="-286.5" font-family="Helvetica,sans-Serif" font-size="10.00">model.state.gameelement.</text>
<text text-anchor="start" x="735" y="-275.5" font-family="Helvetica,sans-Serif" font-size="10.00">DrawableGameElementState.set</text>
<text text-anchor="middle" x="814" y="-264.5" font-family="Helvetica,sans-Serif" font-size="10.00">VisionBounds</text>
</a>
</g>
</g>
<!-- Node18&#45;&gt;Node26 -->
<g id="edge33" class="edge"><title>Node18&#45;&gt;Node26</title>
<path fill="none" stroke="midnightblue" d="M602.588,-350C630.494,-337.835 671.405,-320.687 708,-308 714.318,-305.809 720.889,-303.653 727.523,-301.563"/>
<polygon fill="midnightblue" stroke="midnightblue" points="728.744,-304.849 737.264,-298.552 726.677,-298.161 728.744,-304.849"/>
</g>
<!-- Node19&#45;&gt;Node14 -->
<g id="edge26" class="edge"><title>Node19&#45;&gt;Node14</title>
<path fill="none" stroke="midnightblue" d="M881.701,-505.055C910.753,-511.335 941.455,-517.52 956,-519 1179.99,-541.796 1266.21,-582.601 1460,-468 1505.56,-441.061 1539.74,-387.448 1556.83,-356.185"/>
<polygon fill="midnightblue" stroke="midnightblue" points="1559.97,-357.727 1561.58,-347.255 1553.79,-354.441 1559.97,-357.727"/>
</g>
<!-- Node20 -->
<g id="node20" class="node"><title>Node20</title>
<g id="a_node20"><a xlink:href="../../da/dbf/classmodel_1_1_animator_state_factory.html#a2ef84263b09d4839f9facf321402a9ec" target="_top" xlink:title="model.AnimatorStateFactory.create\lAnimationSequences">
<polygon fill="white" stroke="black" points="968.5,-480 968.5,-510 1155.5,-510 1155.5,-480 968.5,-480"/>
<text text-anchor="start" x="976.5" y="-498" font-family="Helvetica,sans-Serif" font-size="10.00">model.AnimatorStateFactory.create</text>
<text text-anchor="middle" x="1062" y="-487" font-family="Helvetica,sans-Serif" font-size="10.00">AnimationSequences</text>
</a>
</g>
</g>
<!-- Node19&#45;&gt;Node20 -->
<g id="edge22" class="edge"><title>Node19&#45;&gt;Node20</title>
<path fill="none" stroke="midnightblue" d="M907.652,-491.883C924.119,-492.218 941.36,-492.568 958.092,-492.908"/>
<polygon fill="midnightblue" stroke="midnightblue" points="958.363,-496.415 968.432,-493.119 958.505,-489.416 958.363,-496.415"/>
</g>
<!-- Node20&#45;&gt;Node12 -->
<g id="edge25" class="edge"><title>Node20&#45;&gt;Node12</title>
<path fill="none" stroke="midnightblue" d="M1149.45,-479.947C1155.98,-477.171 1162.26,-473.886 1168,-470 1190.98,-454.45 1183.66,-437.865 1204,-419 1229.11,-395.713 1262.5,-376.073 1288.74,-362.595"/>
<polygon fill="midnightblue" stroke="midnightblue" points="1290.34,-365.71 1297.7,-358.089 1287.19,-359.456 1290.34,-365.71"/>
</g>
<!-- Node21 -->
<g id="node21" class="node"><title>Node21</title>
<g id="a_node21"><a xlink:href="../../da/dbf/classmodel_1_1_animator_state_factory.html#acd50fcf1f0fd79408cad2e447dacf65f" target="_top" xlink:title="model.AnimatorStateFactory.create\lAnimationTags">
<polygon fill="white" stroke="black" points="1238.5,-429 1238.5,-459 1425.5,-459 1425.5,-429 1238.5,-429"/>
<text text-anchor="start" x="1246.5" y="-447" font-family="Helvetica,sans-Serif" font-size="10.00">model.AnimatorStateFactory.create</text>
<text text-anchor="middle" x="1332" y="-436" font-family="Helvetica,sans-Serif" font-size="10.00">AnimationTags</text>
</a>
</g>
</g>
<!-- Node20&#45;&gt;Node21 -->
<g id="edge23" class="edge"><title>Node20&#45;&gt;Node21</title>
<path fill="none" stroke="midnightblue" d="M1141.96,-479.974C1173.44,-473.983 1209.83,-467.058 1242.23,-460.893"/>
<polygon fill="midnightblue" stroke="midnightblue" points="1242.97,-464.314 1252.14,-459.006 1241.66,-457.438 1242.97,-464.314"/>
</g>
<!-- Node21&#45;&gt;Node14 -->
<g id="edge24" class="edge"><title>Node21&#45;&gt;Node14</title>
<path fill="none" stroke="midnightblue" d="M1364.83,-428.895C1407.08,-408.841 1481.76,-373.402 1528.14,-351.392"/>
<polygon fill="midnightblue" stroke="midnightblue" points="1529.77,-354.493 1537.3,-347.044 1526.77,-348.169 1529.77,-354.493"/>
</g>
<!-- Node22&#45;&gt;Node12 -->
<g id="edge29" class="edge"><title>Node22&#45;&gt;Node12</title>
<path fill="none" stroke="midnightblue" d="M875.362,-376.952C900.188,-371.34 929.323,-365.491 956,-362 1055.75,-348.946 1171.51,-344.726 1247.73,-343.433"/>
<polygon fill="midnightblue" stroke="midnightblue" points="1247.8,-346.932 1257.75,-343.276 1247.7,-339.933 1247.8,-346.932"/>
</g>
<!-- Node23 -->
<g id="node23" class="node"><title>Node23</title>
<g id="a_node23"><a xlink:href="../../dd/ded/classmodel_1_1state_1_1gameelement_1_1_drawable_game_element_state.html#a4182fe6ee53d587a277d3fac3140044b" target="_top" xlink:title="model.state.gameelement.\lDrawableGameElementState.add\lAttributeDisplayerState">
<polygon fill="white" stroke="black" points="973.5,-371.5 973.5,-412.5 1150.5,-412.5 1150.5,-371.5 973.5,-371.5"/>
<text text-anchor="start" x="981.5" y="-400.5" font-family="Helvetica,sans-Serif" font-size="10.00">model.state.gameelement.</text>
<text text-anchor="start" x="981.5" y="-389.5" font-family="Helvetica,sans-Serif" font-size="10.00">DrawableGameElementState.add</text>
<text text-anchor="middle" x="1062" y="-378.5" font-family="Helvetica,sans-Serif" font-size="10.00">AttributeDisplayerState</text>
</a>
</g>
</g>
<!-- Node22&#45;&gt;Node23 -->
<g id="edge28" class="edge"><title>Node22&#45;&gt;Node23</title>
<path fill="none" stroke="midnightblue" d="M920.04,-392C934.331,-392 948.953,-392 963.112,-392"/>
<polygon fill="midnightblue" stroke="midnightblue" points="963.328,-395.5 973.328,-392 963.328,-388.5 963.328,-395.5"/>
</g>
<!-- Node24&#45;&gt;Node12 -->
<g id="edge31" class="edge"><title>Node24&#45;&gt;Node12</title>
<path fill="none" stroke="midnightblue" d="M1135.04,-430.996C1146.19,-428.059 1157.49,-424.719 1168,-421 1213.22,-405.001 1262.57,-380.287 1294.99,-362.977"/>
<polygon fill="midnightblue" stroke="midnightblue" points="1296.93,-365.907 1304.07,-358.083 1293.61,-359.745 1296.93,-365.907"/>
</g>
<!-- Node30 -->
<g id="node30" class="node"><title>Node30</title>
<g id="a_node30"><a xlink:href="../../de/d33/classmodel_1_1_game_save_load_mediator.html#a3b2227e67893203916babd82b9a0b40e" target="_top" xlink:title="model.GameSaveLoadMediator.process\lImagePath">
<polygon fill="white" stroke="black" points="464,-65 464,-95 672,-95 672,-65 464,-65"/>
<text text-anchor="start" x="472" y="-83" font-family="Helvetica,sans-Serif" font-size="10.00">model.GameSaveLoadMediator.process</text>
<text text-anchor="middle" x="568" y="-72" font-family="Helvetica,sans-Serif" font-size="10.00">ImagePath</text>
</a>
</g>
</g>
<!-- Node29&#45;&gt;Node30 -->
<g id="edge37" class="edge"><title>Node29&#45;&gt;Node30</title>
<path fill="none" stroke="midnightblue" d="M397.866,-113.965C424.566,-108.604 454.825,-102.527 482.293,-97.0108"/>
<polygon fill="midnightblue" stroke="midnightblue" points="483.16,-100.407 492.275,-95.0062 481.782,-93.5437 483.16,-100.407"/>
</g>
<!-- Node33 -->
<g id="node33" class="node"><title>Node33</title>
<g id="a_node33"><a xlink:href="../../d3/d14/classutil_1_1_save_load_utility.html#aef3dcf15d1cb5a20ff2a0bed69ccb0dd" target="_top" xlink:title="util.SaveLoadUtility.save\lImage">
<polygon fill="white" stroke="black" points="502,-114 502,-144 634,-144 634,-114 502,-114"/>
<text text-anchor="start" x="510" y="-132" font-family="Helvetica,sans-Serif" font-size="10.00">util.SaveLoadUtility.save</text>
<text text-anchor="middle" x="568" y="-121" font-family="Helvetica,sans-Serif" font-size="10.00">Image</text>
</a>
</g>
</g>
<!-- Node29&#45;&gt;Node33 -->
<g id="edge40" class="edge"><title>Node29&#45;&gt;Node33</title>
<path fill="none" stroke="midnightblue" d="M418.735,-129C443.042,-129 468.809,-129 491.925,-129"/>
<polygon fill="midnightblue" stroke="midnightblue" points="491.999,-132.5 501.999,-129 491.999,-125.5 491.999,-132.5"/>
</g>
<!-- Node31 -->
<g id="node31" class="node"><title>Node31</title>
<g id="a_node31"><a xlink:href="../../dc/dc9/enummodel_1_1_game_element_image_type.html#a23cfaf60b3e4007677321718035947cd" target="_top" xlink:title="model.GameElementImageType.get\lFolderName">
<polygon fill="white" stroke="black" points="720,-65 720,-95 908,-95 908,-65 720,-65"/>
<text text-anchor="start" x="728" y="-83" font-family="Helvetica,sans-Serif" font-size="10.00">model.GameElementImageType.get</text>
<text text-anchor="middle" x="814" y="-72" font-family="Helvetica,sans-Serif" font-size="10.00">FolderName</text>
</a>
</g>
</g>
<!-- Node30&#45;&gt;Node31 -->
<g id="edge38" class="edge"><title>Node30&#45;&gt;Node31</title>
<path fill="none" stroke="midnightblue" d="M672.124,-80C684.521,-80 697.184,-80 709.585,-80"/>
<polygon fill="midnightblue" stroke="midnightblue" points="709.929,-83.5001 719.929,-80 709.929,-76.5001 709.929,-83.5001"/>
</g>
<!-- Node32 -->
<g id="node32" class="node"><title>Node32</title>
<g id="a_node32"><a xlink:href="../../de/d33/classmodel_1_1_game_save_load_mediator.html#a1ff8333eab06fb87ad20b637746c2660" target="_top" xlink:title="model.GameSaveLoadMediator.get\lImageName">
<polygon fill="white" stroke="black" points="721,-16 721,-46 907,-46 907,-16 721,-16"/>
<text text-anchor="start" x="729" y="-34" font-family="Helvetica,sans-Serif" font-size="10.00">model.GameSaveLoadMediator.get</text>
<text text-anchor="middle" x="814" y="-23" font-family="Helvetica,sans-Serif" font-size="10.00">ImageName</text>
</a>
</g>
</g>
<!-- Node30&#45;&gt;Node32 -->
<g id="edge39" class="edge"><title>Node30&#45;&gt;Node32</title>
<path fill="none" stroke="midnightblue" d="M643.866,-64.9654C670.566,-59.6035 700.825,-53.5269 728.293,-48.0108"/>
<polygon fill="midnightblue" stroke="midnightblue" points="729.16,-51.4066 738.275,-46.0062 727.782,-44.5437 729.16,-51.4066"/>
</g>
<!-- Node34 -->
<g id="node34" class="node"><title>Node34</title>
<g id="a_node34"><a xlink:href="../../d3/d14/classutil_1_1_save_load_utility.html#a7dd5135de57549be59b6af1d5828e2a1" target="_top" xlink:title="util.SaveLoadUtility.pre\lProcess">
<polygon fill="white" stroke="black" points="751.5,-153 751.5,-183 876.5,-183 876.5,-153 751.5,-153"/>
<text text-anchor="start" x="759.5" y="-171" font-family="Helvetica,sans-Serif" font-size="10.00">util.SaveLoadUtility.pre</text>
<text text-anchor="middle" x="814" y="-160" font-family="Helvetica,sans-Serif" font-size="10.00">Process</text>
</a>
</g>
</g>
<!-- Node33&#45;&gt;Node34 -->
<g id="edge41" class="edge"><title>Node33&#45;&gt;Node34</title>
<path fill="none" stroke="midnightblue" d="M634.067,-139.4C667.075,-144.676 707.251,-151.098 741.165,-156.518"/>
<polygon fill="midnightblue" stroke="midnightblue" points="741.047,-160.044 751.474,-158.166 742.152,-153.131 741.047,-160.044"/>
</g>
<!-- Node35 -->
<g id="node35" class="node"><title>Node35</title>
<g id="a_node35"><a xlink:href="../../d3/d14/classutil_1_1_save_load_utility.html#a45324a0a42802150f23edb0fe9340aa2" target="_top" xlink:title="util.SaveLoadUtility.obtainFile">
<polygon fill="white" stroke="black" points="736.5,-114.5 736.5,-133.5 891.5,-133.5 891.5,-114.5 736.5,-114.5"/>
<text text-anchor="middle" x="814" y="-121.5" font-family="Helvetica,sans-Serif" font-size="10.00">util.SaveLoadUtility.obtainFile</text>
</a>
</g>
</g>
<!-- Node33&#45;&gt;Node35 -->
<g id="edge42" class="edge"><title>Node33&#45;&gt;Node35</title>
<path fill="none" stroke="midnightblue" d="M634.067,-127.667C662.352,-127.087 695.899,-126.4 726.26,-125.777"/>
<polygon fill="midnightblue" stroke="midnightblue" points="726.495,-129.273 736.421,-125.569 726.352,-122.275 726.495,-129.273"/>
</g>
<!-- Node36&#45;&gt;Node30 -->
<g id="edge44" class="edge"><title>Node36&#45;&gt;Node30</title>
<path fill="none" stroke="midnightblue" d="M418.735,-80C430.197,-80 441.984,-80 453.664,-80"/>
<polygon fill="midnightblue" stroke="midnightblue" points="453.891,-83.5001 463.891,-80 453.891,-76.5001 453.891,-83.5001"/>
</g>
<!-- Node36&#45;&gt;Node33 -->
<g id="edge45" class="edge"><title>Node36&#45;&gt;Node33</title>
<path fill="none" stroke="midnightblue" d="M397.866,-95.0346C427.695,-101.025 461.966,-107.907 491.825,-113.903"/>
<polygon fill="midnightblue" stroke="midnightblue" points="491.276,-117.363 501.77,-115.9 492.655,-110.5 491.276,-117.363"/>
</g>
</g>
</svg>
