<?xml version="1.0" encoding="UTF-8" standalone="no"?>
<!DOCTYPE svg PUBLIC "-//W3C//DTD SVG 1.1//EN"
 "http://www.w3.org/Graphics/SVG/1.1/DTD/svg11.dtd">
<!-- Generated by graphviz version 2.36.0 (20140111.2315)
 -->
<!-- Title: model.MainModel.removeDrawableGameElement Pages: 1 -->
<svg width="610pt" height="129pt"
 viewBox="0.00 0.00 610.00 129.00" xmlns="http://www.w3.org/2000/svg" xmlns:xlink="http://www.w3.org/1999/xlink">
<g id="graph0" class="graph" transform="scale(1 1) rotate(0) translate(4 125)">
<title>model.MainModel.removeDrawableGameElement</title>
<polygon fill="white" stroke="none" points="-4,4 -4,-125 606,-125 606,4 -4,4"/>
<!-- Node1 -->
<g id="node1" class="node"><title>Node1</title>
<polygon fill="#bfbfbf" stroke="black" points="0.5,-44 0.5,-74 185.5,-74 185.5,-44 0.5,-44"/>
<text text-anchor="start" x="8.5" y="-62" font-family="Helvetica,sans-Serif" font-size="10.00">model.MainModel.removeDrawable</text>
<text text-anchor="middle" x="93" y="-51" font-family="Helvetica,sans-Serif" font-size="10.00">GameElement</text>
</g>
<!-- Node2 -->
<g id="node2" class="node"><title>Node2</title>
<g id="a_node2"><a xlink:href="../../de/d21/classmodel_1_1_main_model.html#a5e586ccd36318309b2a0cbc804458c2d" target="_top" xlink:title="model.MainModel.elementIs\lInUse">
<polygon fill="white" stroke="black" points="242.5,-89 242.5,-119 393.5,-119 393.5,-89 242.5,-89"/>
<text text-anchor="start" x="250.5" y="-107" font-family="Helvetica,sans-Serif" font-size="10.00">model.MainModel.elementIs</text>
<text text-anchor="middle" x="318" y="-96" font-family="Helvetica,sans-Serif" font-size="10.00">InUse</text>
</a>
</g>
</g>
<!-- Node1&#45;&gt;Node2 -->
<g id="edge1" class="edge"><title>Node1&#45;&gt;Node2</title>
<path fill="none" stroke="midnightblue" d="M168.566,-74.0469C189.115,-78.1937 211.552,-82.7212 232.614,-86.9714"/>
<polygon fill="midnightblue" stroke="midnightblue" points="232.01,-90.42 242.504,-88.9673 233.394,-83.5583 232.01,-90.42"/>
</g>
<!-- Node4 -->
<g id="node4" class="node"><title>Node4</title>
<g id="a_node4"><a xlink:href="../../de/d21/classmodel_1_1_main_model.html#aa9afa0072f15587d9ef2b6fd4eb564da" target="_top" xlink:title="model.MainModel.getGameUniverse">
<polygon fill="white" stroke="black" points="222.5,-49.5 222.5,-68.5 413.5,-68.5 413.5,-49.5 222.5,-49.5"/>
<text text-anchor="middle" x="318" y="-56.5" font-family="Helvetica,sans-Serif" font-size="10.00">model.MainModel.getGameUniverse</text>
</a>
</g>
</g>
<!-- Node1&#45;&gt;Node4 -->
<g id="edge3" class="edge"><title>Node1&#45;&gt;Node4</title>
<path fill="none" stroke="midnightblue" d="M185.668,-59C194.483,-59 203.47,-59 212.397,-59"/>
<polygon fill="midnightblue" stroke="midnightblue" points="212.439,-62.5001 222.439,-59 212.439,-55.5001 212.439,-62.5001"/>
</g>
<!-- Node6 -->
<g id="node6" class="node"><title>Node6</title>
<g id="a_node6"><a xlink:href="../../de/dda/classmodel_1_1_game_universe.html#ab52e6d4fb594d8deafe5645e3ccaa4cf" target="_top" xlink:title="model.GameUniverse.remove\lDrawableGameElementState">
<polygon fill="white" stroke="black" points="237.5,-0 237.5,-30 398.5,-30 398.5,-0 237.5,-0"/>
<text text-anchor="start" x="245.5" y="-18" font-family="Helvetica,sans-Serif" font-size="10.00">model.GameUniverse.remove</text>
<text text-anchor="middle" x="318" y="-7" font-family="Helvetica,sans-Serif" font-size="10.00">DrawableGameElementState</text>
</a>
</g>
</g>
<!-- Node1&#45;&gt;Node6 -->
<g id="edge5" class="edge"><title>Node1&#45;&gt;Node6</title>
<path fill="none" stroke="midnightblue" d="M170.12,-43.9808C189.657,-40.126 210.811,-35.9522 230.816,-32.0049"/>
<polygon fill="midnightblue" stroke="midnightblue" points="231.711,-35.3959 240.844,-30.0262 230.356,-28.5283 231.711,-35.3959"/>
</g>
<!-- Node3 -->
<g id="node3" class="node"><title>Node3</title>
<g id="a_node3"><a xlink:href="../../d6/d8b/classmodel_1_1state_1_1_game_state.html#a2924c42e7974279aab98cac167879520" target="_top" xlink:title="model.state.GameState.get\lCampaigns">
<polygon fill="white" stroke="black" points="450,-91 450,-121 602,-121 602,-91 450,-91"/>
<text text-anchor="start" x="458" y="-109" font-family="Helvetica,sans-Serif" font-size="10.00">model.state.GameState.get</text>
<text text-anchor="middle" x="526" y="-98" font-family="Helvetica,sans-Serif" font-size="10.00">Campaigns</text>
</a>
</g>
</g>
<!-- Node2&#45;&gt;Node3 -->
<g id="edge2" class="edge"><title>Node2&#45;&gt;Node3</title>
<path fill="none" stroke="midnightblue" d="M393.662,-104.725C408.537,-104.869 424.267,-105.022 439.474,-105.17"/>
<polygon fill="midnightblue" stroke="midnightblue" points="439.868,-108.674 449.901,-105.271 439.936,-101.674 439.868,-108.674"/>
</g>
<!-- Node5 -->
<g id="node5" class="node"><title>Node5</title>
<g id="a_node5"><a xlink:href="../../d6/d8b/classmodel_1_1state_1_1_game_state.html#ada7cc6194ba1f8235db868e033be6922" target="_top" xlink:title="model.state.GameState.get\lGameUniverse">
<polygon fill="white" stroke="black" points="450,-42 450,-72 602,-72 602,-42 450,-42"/>
<text text-anchor="start" x="458" y="-60" font-family="Helvetica,sans-Serif" font-size="10.00">model.state.GameState.get</text>
<text text-anchor="middle" x="526" y="-49" font-family="Helvetica,sans-Serif" font-size="10.00">GameUniverse</text>
</a>
</g>
</g>
<!-- Node4&#45;&gt;Node5 -->
<g id="edge4" class="edge"><title>Node4&#45;&gt;Node5</title>
<path fill="none" stroke="midnightblue" d="M413.559,-58.0819C422.302,-57.9971 431.126,-57.9114 439.777,-57.8274"/>
<polygon fill="midnightblue" stroke="midnightblue" points="439.874,-61.3267 449.839,-57.7297 439.806,-54.3271 439.874,-61.3267"/>
</g>
</g>
</svg>
