<?xml version="1.0" encoding="UTF-8" standalone="no"?>
<!DOCTYPE svg PUBLIC "-//W3C//DTD SVG 1.1//EN"
 "http://www.w3.org/Graphics/SVG/1.1/DTD/svg11.dtd">
<!-- Generated by graphviz version 2.36.0 (20140111.2315)
 -->
<!-- Title: model.MainModel.getGameUniverse Pages: 1 -->
<svg width="862pt" height="787pt"
 viewBox="0.00 0.00 862.00 787.00" xmlns="http://www.w3.org/2000/svg" xmlns:xlink="http://www.w3.org/1999/xlink">
<g id="graph0" class="graph" transform="scale(1 1) rotate(0) translate(4 783)">
<title>model.MainModel.getGameUniverse</title>
<polygon fill="white" stroke="none" points="-4,4 -4,-783 858,-783 858,4 -4,4"/>
<!-- Node1 -->
<g id="node1" class="node"><title>Node1</title>
<polygon fill="#bfbfbf" stroke="black" points="0.5,-390.5 0.5,-409.5 191.5,-409.5 191.5,-390.5 0.5,-390.5"/>
<text text-anchor="middle" x="96" y="-397.5" font-family="Helvetica,sans-Serif" font-size="10.00">model.MainModel.getGameUniverse</text>
</g>
<!-- Node2 -->
<g id="node2" class="node"><title>Node2</title>
<g id="a_node2"><a xlink:href="../../d4/d65/classview_1_1editor_1_1_tab_view_controller.html#a626ca47a8ac963b8940a59944ee3bcb6" target="_top" xlink:title="view.editor.TabViewController.add\lNumberAttributes">
<polygon fill="white" stroke="black" points="228.5,-749 228.5,-779 401.5,-779 401.5,-749 228.5,-749"/>
<text text-anchor="start" x="236.5" y="-767" font-family="Helvetica,sans-Serif" font-size="10.00">view.editor.TabViewController.add</text>
<text text-anchor="middle" x="315" y="-756" font-family="Helvetica,sans-Serif" font-size="10.00">NumberAttributes</text>
</a>
</g>
</g>
<!-- Node1&#45;&gt;Node2 -->
<g id="edge1" class="edge"><title>Node1&#45;&gt;Node2</title>
<path fill="none" stroke="midnightblue" d="M99.0378,-419.666C105.974,-476.6 133.749,-643.276 228,-734 234.38,-740.141 242.084,-745.031 250.227,-748.923"/>
<polygon fill="midnightblue" stroke="midnightblue" points="102.492,-419.063 97.8861,-409.522 95.5367,-419.853 102.492,-419.063"/>
</g>
<!-- Node5 -->
<g id="node5" class="node"><title>Node5</title>
<g id="a_node5"><a xlink:href="../../d9/dfb/classview_1_1editor_1_1_element_accordion_controller.html#ad68baa151a28fe9c9b5dab069865a7e3" target="_top" xlink:title="view.editor.ElementAccordion\lController.addNumberAttributes">
<polygon fill="white" stroke="black" points="230,-623 230,-653 400,-653 400,-623 230,-623"/>
<text text-anchor="start" x="238" y="-641" font-family="Helvetica,sans-Serif" font-size="10.00">view.editor.ElementAccordion</text>
<text text-anchor="middle" x="315" y="-630" font-family="Helvetica,sans-Serif" font-size="10.00">Controller.addNumberAttributes</text>
</a>
</g>
</g>
<!-- Node1&#45;&gt;Node5 -->
<g id="edge4" class="edge"><title>Node1&#45;&gt;Node5</title>
<path fill="none" stroke="midnightblue" d="M103.438,-419.376C118.364,-461.271 159.387,-560.715 228,-613 233.071,-616.864 238.723,-620.131 244.64,-622.894"/>
<polygon fill="midnightblue" stroke="midnightblue" points="106.707,-418.121 100.132,-409.813 100.091,-420.408 106.707,-418.121"/>
</g>
<!-- Node6 -->
<g id="node6" class="node"><title>Node6</title>
<g id="a_node6"><a xlink:href="../../d9/dfb/classview_1_1editor_1_1_element_accordion_controller.html#a8564fdf017fa6f25e3e663cf076e0c04" target="_top" xlink:title="view.editor.ElementAccordion\lController.openSelectableGameElement\lWizard">
<polygon fill="white" stroke="black" points="438.5,-557.5 438.5,-598.5 647.5,-598.5 647.5,-557.5 438.5,-557.5"/>
<text text-anchor="start" x="446.5" y="-586.5" font-family="Helvetica,sans-Serif" font-size="10.00">view.editor.ElementAccordion</text>
<text text-anchor="start" x="446.5" y="-575.5" font-family="Helvetica,sans-Serif" font-size="10.00">Controller.openSelectableGameElement</text>
<text text-anchor="middle" x="543" y="-564.5" font-family="Helvetica,sans-Serif" font-size="10.00">Wizard</text>
</a>
</g>
</g>
<!-- Node1&#45;&gt;Node6 -->
<g id="edge28" class="edge"><title>Node1&#45;&gt;Node6</title>
<path fill="none" stroke="midnightblue" d="M111.741,-417.398C134.15,-442.642 179.349,-489.021 228,-513 293.788,-545.426 375.027,-561.692 438.389,-569.843"/>
<polygon fill="midnightblue" stroke="midnightblue" points="114.251,-414.951 105.043,-409.71 108.973,-419.55 114.251,-414.951"/>
</g>
<!-- Node7 -->
<g id="node7" class="node"><title>Node7</title>
<g id="a_node7"><a xlink:href="../../d9/dfb/classview_1_1editor_1_1_element_accordion_controller.html#af80453486ff349552dab988fb64397c0" target="_top" xlink:title="view.editor.ElementAccordion\lController.init">
<polygon fill="white" stroke="black" points="691,-563 691,-593 847,-593 847,-563 691,-563"/>
<text text-anchor="start" x="699" y="-581" font-family="Helvetica,sans-Serif" font-size="10.00">view.editor.ElementAccordion</text>
<text text-anchor="middle" x="769" y="-570" font-family="Helvetica,sans-Serif" font-size="10.00">Controller.init</text>
</a>
</g>
</g>
<!-- Node1&#45;&gt;Node7 -->
<g id="edge22" class="edge"><title>Node1&#45;&gt;Node7</title>
<path fill="none" stroke="midnightblue" d="M127.167,-413.744C153.296,-425.045 192.39,-440.53 228,-449 410.686,-492.452 472.063,-429.359 648,-495 689.533,-510.496 730.359,-543.592 752.036,-562.984"/>
<polygon fill="midnightblue" stroke="midnightblue" points="128.386,-410.456 117.822,-409.64 125.571,-416.866 128.386,-410.456"/>
</g>
<!-- Node8 -->
<g id="node8" class="node"><title>Node8</title>
<g id="a_node8"><a xlink:href="../../d9/dfb/classview_1_1editor_1_1_element_accordion_controller.html#a71bb33e7588f335fc2ebc1346924ad2d" target="_top" xlink:title="view.editor.ElementAccordion\lController.openDrawableGameElement\lWizard">
<polygon fill="white" stroke="black" points="441.5,-617.5 441.5,-658.5 644.5,-658.5 644.5,-617.5 441.5,-617.5"/>
<text text-anchor="start" x="449.5" y="-646.5" font-family="Helvetica,sans-Serif" font-size="10.00">view.editor.ElementAccordion</text>
<text text-anchor="start" x="449.5" y="-635.5" font-family="Helvetica,sans-Serif" font-size="10.00">Controller.openDrawableGameElement</text>
<text text-anchor="middle" x="543" y="-624.5" font-family="Helvetica,sans-Serif" font-size="10.00">Wizard</text>
</a>
</g>
</g>
<!-- Node1&#45;&gt;Node8 -->
<g id="edge27" class="edge"><title>Node1&#45;&gt;Node8</title>
<path fill="none" stroke="midnightblue" d="M99.8505,-419.832C108.386,-470.933 138.917,-606.944 228,-662 309.621,-712.444 426.904,-682.445 492.593,-658.591"/>
<polygon fill="midnightblue" stroke="midnightblue" points="103.279,-419.105 98.2755,-409.766 96.3636,-420.187 103.279,-419.105"/>
</g>
<!-- Node9 -->
<g id="node9" class="node"><title>Node9</title>
<g id="a_node9"><a xlink:href="../../de/d21/classmodel_1_1_main_model.html#a44709338c2ecd04438921fb7b3232fa6" target="_top" xlink:title="model.MainModel.addParticipant\lColor">
<polygon fill="white" stroke="black" points="229,-410 229,-440 401,-440 401,-410 229,-410"/>
<text text-anchor="start" x="237" y="-428" font-family="Helvetica,sans-Serif" font-size="10.00">model.MainModel.addParticipant</text>
<text text-anchor="middle" x="315" y="-417" font-family="Helvetica,sans-Serif" font-size="10.00">Color</text>
</a>
</g>
</g>
<!-- Node1&#45;&gt;Node9 -->
<g id="edge9" class="edge"><title>Node1&#45;&gt;Node9</title>
<path fill="none" stroke="midnightblue" d="M189.907,-410.704C202.784,-412.187 215.961,-413.705 228.691,-415.172"/>
<polygon fill="midnightblue" stroke="midnightblue" points="189.992,-407.19 179.657,-409.523 189.191,-414.144 189.992,-407.19"/>
</g>
<!-- Node12 -->
<g id="node12" class="node"><title>Node12</title>
<g id="a_node12"><a xlink:href="../../d9/dfb/classview_1_1editor_1_1_element_accordion_controller.html#a3bf1b5eaf1b993a7dd608f3a9598a153" target="_top" xlink:title="view.editor.ElementAccordion\lController.addStringAttributes">
<polygon fill="white" stroke="black" points="235.5,-574 235.5,-604 394.5,-604 394.5,-574 235.5,-574"/>
<text text-anchor="start" x="243.5" y="-592" font-family="Helvetica,sans-Serif" font-size="10.00">view.editor.ElementAccordion</text>
<text text-anchor="middle" x="315" y="-581" font-family="Helvetica,sans-Serif" font-size="10.00">Controller.addStringAttributes</text>
</a>
</g>
</g>
<!-- Node1&#45;&gt;Node12 -->
<g id="edge12" class="edge"><title>Node1&#45;&gt;Node12</title>
<path fill="none" stroke="midnightblue" d="M107.699,-418.817C127.374,-451.811 172.421,-520.267 228,-559 236.692,-565.058 246.725,-569.999 256.802,-573.994"/>
<polygon fill="midnightblue" stroke="midnightblue" points="110.491,-416.657 102.424,-409.788 104.447,-420.188 110.491,-416.657"/>
</g>
<!-- Node13 -->
<g id="node13" class="node"><title>Node13</title>
<g id="a_node13"><a xlink:href="../../de/d21/classmodel_1_1_main_model.html#a4b5658ed9c29f4b1147dfc9ece8b36d5" target="_top" xlink:title="model.MainModel.addTerrain\lToLevel">
<polygon fill="white" stroke="black" points="238.5,-361 238.5,-391 391.5,-391 391.5,-361 238.5,-361"/>
<text text-anchor="start" x="246.5" y="-379" font-family="Helvetica,sans-Serif" font-size="10.00">model.MainModel.addTerrain</text>
<text text-anchor="middle" x="315" y="-368" font-family="Helvetica,sans-Serif" font-size="10.00">ToLevel</text>
</a>
</g>
</g>
<!-- Node1&#45;&gt;Node13 -->
<g id="edge15" class="edge"><title>Node1&#45;&gt;Node13</title>
<path fill="none" stroke="midnightblue" d="M193.405,-389.338C208.418,-387.677 223.743,-385.982 238.212,-384.382"/>
<polygon fill="midnightblue" stroke="midnightblue" points="192.63,-385.902 183.076,-390.48 193.4,-392.86 192.63,-385.902"/>
</g>
<!-- Node14 -->
<g id="node14" class="node"><title>Node14</title>
<g id="a_node14"><a xlink:href="../../de/d21/classmodel_1_1_main_model.html#a515a2b3f5e066e6c7959f91cce64181b" target="_top" xlink:title="model.MainModel.addUnitTo\lLevel">
<polygon fill="white" stroke="black" points="239.5,-312 239.5,-342 390.5,-342 390.5,-312 239.5,-312"/>
<text text-anchor="start" x="247.5" y="-330" font-family="Helvetica,sans-Serif" font-size="10.00">model.MainModel.addUnitTo</text>
<text text-anchor="middle" x="315" y="-319" font-family="Helvetica,sans-Serif" font-size="10.00">Level</text>
</a>
</g>
</g>
<!-- Node1&#45;&gt;Node14 -->
<g id="edge16" class="edge"><title>Node1&#45;&gt;Node14</title>
<path fill="none" stroke="midnightblue" d="M130.418,-386.595C156.724,-376.264 194.427,-361.941 228,-351 237.432,-347.926 247.524,-344.889 257.355,-342.063"/>
<polygon fill="midnightblue" stroke="midnightblue" points="128.941,-383.415 120.926,-390.344 131.512,-389.926 128.941,-383.415"/>
</g>
<!-- Node15 -->
<g id="node15" class="node"><title>Node15</title>
<g id="a_node15"><a xlink:href="../../dc/de2/classengine_1_1_engine.html#a707225a32896b370f131105ef1c644e2" target="_top" xlink:title="engine.Engine.Engine">
<polygon fill="white" stroke="black" points="255.5,-273.5 255.5,-292.5 374.5,-292.5 374.5,-273.5 255.5,-273.5"/>
<text text-anchor="middle" x="315" y="-280.5" font-family="Helvetica,sans-Serif" font-size="10.00">engine.Engine.Engine</text>
</a>
</g>
</g>
<!-- Node1&#45;&gt;Node15 -->
<g id="edge17" class="edge"><title>Node1&#45;&gt;Node15</title>
<path fill="none" stroke="midnightblue" d="M113.981,-383.457C137.568,-361.438 182.501,-322.859 228,-302 236.479,-298.113 245.8,-295 255.08,-292.512"/>
<polygon fill="midnightblue" stroke="midnightblue" points="111.406,-381.076 106.562,-390.499 116.225,-386.153 111.406,-381.076"/>
</g>
<!-- Node16 -->
<g id="node16" class="node"><title>Node16</title>
<g id="a_node16"><a xlink:href="../../d0/daf/classapplication_1_1_r_p_g.html#a57d0a7b674624b53b138a951b30f865d" target="_top" xlink:title="application.RPG.hardCode\lAGame">
<polygon fill="white" stroke="black" points="245,-224 245,-254 385,-254 385,-224 245,-224"/>
<text text-anchor="start" x="253" y="-242" font-family="Helvetica,sans-Serif" font-size="10.00">application.RPG.hardCode</text>
<text text-anchor="middle" x="315" y="-231" font-family="Helvetica,sans-Serif" font-size="10.00">AGame</text>
</a>
</g>
</g>
<!-- Node1&#45;&gt;Node16 -->
<g id="edge18" class="edge"><title>Node1&#45;&gt;Node16</title>
<path fill="none" stroke="midnightblue" d="M109.361,-382.074C130.362,-352.966 175.843,-295.514 228,-264 234.388,-260.14 241.404,-256.849 248.587,-254.049"/>
<polygon fill="midnightblue" stroke="midnightblue" points="106.346,-380.275 103.425,-390.459 112.059,-384.319 106.346,-380.275"/>
</g>
<!-- Node18 -->
<g id="node18" class="node"><title>Node18</title>
<g id="a_node18"><a xlink:href="../../d6/d00/classapplication_1_1_pong.html#a0125f26aebd7e1cc9e3fae602e3997f8" target="_top" xlink:title="application.Pong.hardCode\lAGame">
<polygon fill="white" stroke="black" points="242.5,-175 242.5,-205 387.5,-205 387.5,-175 242.5,-175"/>
<text text-anchor="start" x="250.5" y="-193" font-family="Helvetica,sans-Serif" font-size="10.00">application.Pong.hardCode</text>
<text text-anchor="middle" x="315" y="-182" font-family="Helvetica,sans-Serif" font-size="10.00">AGame</text>
</a>
</g>
</g>
<!-- Node1&#45;&gt;Node18 -->
<g id="edge20" class="edge"><title>Node1&#45;&gt;Node18</title>
<path fill="none" stroke="midnightblue" d="M105.131,-380.739C122.14,-342.822 165.177,-258.346 228,-214 232.812,-210.603 238.091,-207.686 243.591,-205.181"/>
<polygon fill="midnightblue" stroke="midnightblue" points="101.826,-379.561 101.029,-390.126 108.24,-382.364 101.826,-379.561"/>
</g>
<!-- Node20 -->
<g id="node20" class="node"><title>Node20</title>
<g id="a_node20"><a xlink:href="../../d9/dfb/classview_1_1editor_1_1_element_accordion_controller.html#ad27bc03ea1e0ab8cbfb82ae3113a5e76" target="_top" xlink:title="view.editor.ElementAccordion\lController.modelUpdate">
<polygon fill="white" stroke="black" points="237,-126 237,-156 393,-156 393,-126 237,-126"/>
<text text-anchor="start" x="245" y="-144" font-family="Helvetica,sans-Serif" font-size="10.00">view.editor.ElementAccordion</text>
<text text-anchor="middle" x="315" y="-133" font-family="Helvetica,sans-Serif" font-size="10.00">Controller.modelUpdate</text>
</a>
</g>
</g>
<!-- Node1&#45;&gt;Node20 -->
<g id="edge23" class="edge"><title>Node1&#45;&gt;Node20</title>
<path fill="none" stroke="midnightblue" d="M102.251,-380.43C115.4,-335.272 154.102,-223.21 228,-165 232.384,-161.547 237.235,-158.59 242.336,-156.059"/>
<polygon fill="midnightblue" stroke="midnightblue" points="98.8509,-379.594 99.5149,-390.168 105.59,-381.488 98.8509,-379.594"/>
</g>
<!-- Node21 -->
<g id="node21" class="node"><title>Node21</title>
<g id="a_node21"><a xlink:href="../../de/d21/classmodel_1_1_main_model.html#af9c20fbbad657aa750844a8b5dabac80" target="_top" xlink:title="model.MainModel.newGame">
<polygon fill="white" stroke="black" points="239,-87.5 239,-106.5 391,-106.5 391,-87.5 239,-87.5"/>
<text text-anchor="middle" x="315" y="-94.5" font-family="Helvetica,sans-Serif" font-size="10.00">model.MainModel.newGame</text>
</a>
</g>
</g>
<!-- Node1&#45;&gt;Node21 -->
<g id="edge24" class="edge"><title>Node1&#45;&gt;Node21</title>
<path fill="none" stroke="midnightblue" d="M99.9625,-380.385C108.893,-328.434 140.538,-186.442 228,-116 232.763,-112.164 238.138,-109.062 243.816,-106.56"/>
<polygon fill="midnightblue" stroke="midnightblue" points="96.5002,-379.871 98.3505,-390.303 103.41,-380.994 96.5002,-379.871"/>
</g>
<!-- Node24 -->
<g id="node24" class="node"><title>Node24</title>
<g id="a_node24"><a xlink:href="../../de/d21/classmodel_1_1_main_model.html#a4c06208d5fc1ed5694a1cfc76a116599" target="_top" xlink:title="model.MainModel.removeDrawable\lGameElement">
<polygon fill="white" stroke="black" points="450.5,-689 450.5,-719 635.5,-719 635.5,-689 450.5,-689"/>
<text text-anchor="start" x="458.5" y="-707" font-family="Helvetica,sans-Serif" font-size="10.00">model.MainModel.removeDrawable</text>
<text text-anchor="middle" x="543" y="-696" font-family="Helvetica,sans-Serif" font-size="10.00">GameElement</text>
</a>
</g>
</g>
<!-- Node1&#45;&gt;Node24 -->
<g id="edge29" class="edge"><title>Node1&#45;&gt;Node24</title>
<path fill="none" stroke="midnightblue" d="M99.0724,-419.733C105.921,-473.801 133.116,-624.577 228,-689 302.162,-739.354 410.418,-731.268 478.49,-719.005"/>
<polygon fill="midnightblue" stroke="midnightblue" points="102.54,-419.255 97.9028,-409.729 95.5878,-420.068 102.54,-419.255"/>
</g>
<!-- Node25 -->
<g id="node25" class="node"><title>Node25</title>
<g id="a_node25"><a xlink:href="../../de/d21/classmodel_1_1_main_model.html#a245e01adfaf1f234878f391818d392b1" target="_top" xlink:title="model.MainModel.removeSelectable\lGameElement">
<polygon fill="white" stroke="black" points="447.5,-504 447.5,-534 638.5,-534 638.5,-504 447.5,-504"/>
<text text-anchor="start" x="455.5" y="-522" font-family="Helvetica,sans-Serif" font-size="10.00">model.MainModel.removeSelectable</text>
<text text-anchor="middle" x="543" y="-511" font-family="Helvetica,sans-Serif" font-size="10.00">GameElement</text>
</a>
</g>
</g>
<!-- Node1&#45;&gt;Node25 -->
<g id="edge31" class="edge"><title>Node1&#45;&gt;Node25</title>
<path fill="none" stroke="midnightblue" d="M116.378,-416.304C140.722,-435.787 184.588,-467.67 228,-483 298.884,-508.03 383.827,-516.581 447.481,-519.121"/>
<polygon fill="midnightblue" stroke="midnightblue" points="118.291,-413.349 108.329,-409.741 113.867,-418.774 118.291,-413.349"/>
</g>
<!-- Node26 -->
<g id="node26" class="node"><title>Node26</title>
<g id="a_node26"><a xlink:href="../../de/d21/classmodel_1_1_main_model.html#aeafec1c0a2c8d787f6ce596c544a9190" target="_top" xlink:title="model.MainModel.setTerrain">
<polygon fill="white" stroke="black" points="240,-49.5 240,-68.5 390,-68.5 390,-49.5 240,-49.5"/>
<text text-anchor="middle" x="315" y="-56.5" font-family="Helvetica,sans-Serif" font-size="10.00">model.MainModel.setTerrain</text>
</a>
</g>
</g>
<!-- Node1&#45;&gt;Node26 -->
<g id="edge33" class="edge"><title>Node1&#45;&gt;Node26</title>
<path fill="none" stroke="midnightblue" d="M98.8262,-380.11C105.148,-323.368 131.342,-159.567 228,-78 232.557,-74.1541 237.722,-71.039 243.204,-68.5214"/>
<polygon fill="midnightblue" stroke="midnightblue" points="95.3247,-379.946 97.7859,-390.251 102.288,-380.66 95.3247,-379.946"/>
</g>
<!-- Node27 -->
<g id="node27" class="node"><title>Node27</title>
<g id="a_node27"><a xlink:href="../../d0/db5/classview_1_1editor_1_1_editor_screen.html#afc54ee2892ae9a9a8791a1f946ea3642" target="_top" xlink:title="view.editor.EditorScreen.update\lParticipantDropDown">
<polygon fill="white" stroke="black" points="231.5,-0 231.5,-30 398.5,-30 398.5,-0 231.5,-0"/>
<text text-anchor="start" x="239.5" y="-18" font-family="Helvetica,sans-Serif" font-size="10.00">view.editor.EditorScreen.update</text>
<text text-anchor="middle" x="315" y="-7" font-family="Helvetica,sans-Serif" font-size="10.00">ParticipantDropDown</text>
</a>
</g>
</g>
<!-- Node1&#45;&gt;Node27 -->
<g id="edge34" class="edge"><title>Node1&#45;&gt;Node27</title>
<path fill="none" stroke="midnightblue" d="M98.1664,-380.16C102.807,-319.741 125.133,-136.284 228,-40 232.087,-36.1749 236.725,-32.9312 241.678,-30.1811"/>
<polygon fill="midnightblue" stroke="midnightblue" points="94.6668,-380.035 97.4726,-390.252 101.65,-380.516 94.6668,-380.035"/>
</g>
<!-- Node3 -->
<g id="node3" class="node"><title>Node3</title>
<g id="a_node3"><a xlink:href="../../d4/d65/classview_1_1editor_1_1_tab_view_controller.html#ae2a5da639fc38047249eeb0a5728dee0" target="_top" xlink:title="view.editor.TabViewController.launch\lNestedWizard">
<polygon fill="white" stroke="black" points="449.5,-749 449.5,-779 636.5,-779 636.5,-749 449.5,-749"/>
<text text-anchor="start" x="457.5" y="-767" font-family="Helvetica,sans-Serif" font-size="10.00">view.editor.TabViewController.launch</text>
<text text-anchor="middle" x="543" y="-756" font-family="Helvetica,sans-Serif" font-size="10.00">NestedWizard</text>
</a>
</g>
</g>
<!-- Node2&#45;&gt;Node3 -->
<g id="edge2" class="edge"><title>Node2&#45;&gt;Node3</title>
<path fill="none" stroke="midnightblue" d="M412.015,-764C424.313,-764 436.886,-764 449.132,-764"/>
<polygon fill="midnightblue" stroke="midnightblue" points="411.763,-760.5 401.763,-764 411.763,-767.5 411.763,-760.5"/>
</g>
<!-- Node4 -->
<g id="node4" class="node"><title>Node4</title>
<g id="a_node4"><a xlink:href="../../d4/d65/classview_1_1editor_1_1_tab_view_controller.html#a82e1e1f1eb84d1c30bde3a246304473e" target="_top" xlink:title="view.editor.TabViewController.init">
<polygon fill="white" stroke="black" points="684,-754.5 684,-773.5 854,-773.5 854,-754.5 684,-754.5"/>
<text text-anchor="middle" x="769" y="-761.5" font-family="Helvetica,sans-Serif" font-size="10.00">view.editor.TabViewController.init</text>
</a>
</g>
</g>
<!-- Node3&#45;&gt;Node4 -->
<g id="edge3" class="edge"><title>Node3&#45;&gt;Node4</title>
<path fill="none" stroke="midnightblue" d="M647.055,-764C659.409,-764 671.908,-764 683.947,-764"/>
<polygon fill="midnightblue" stroke="midnightblue" points="646.726,-760.5 636.726,-764 646.726,-767.5 646.726,-760.5"/>
</g>
<!-- Node5&#45;&gt;Node6 -->
<g id="edge5" class="edge"><title>Node5&#45;&gt;Node6</title>
<path fill="none" stroke="midnightblue" d="M382.424,-620.365C408.236,-613.513 437.979,-605.616 464.74,-598.511"/>
<polygon fill="midnightblue" stroke="midnightblue" points="381.505,-616.988 372.738,-622.937 383.301,-623.754 381.505,-616.988"/>
</g>
<!-- Node5&#45;&gt;Node8 -->
<g id="edge7" class="edge"><title>Node5&#45;&gt;Node8</title>
<path fill="none" stroke="midnightblue" d="M410.322,-638C420.572,-638 431.034,-638 441.356,-638"/>
<polygon fill="midnightblue" stroke="midnightblue" points="410.154,-634.5 400.154,-638 410.154,-641.5 410.154,-634.5"/>
</g>
<!-- Node6&#45;&gt;Node7 -->
<g id="edge6" class="edge"><title>Node6&#45;&gt;Node7</title>
<path fill="none" stroke="midnightblue" d="M658.041,-578C669.193,-578 680.319,-578 690.975,-578"/>
<polygon fill="midnightblue" stroke="midnightblue" points="657.803,-574.5 647.803,-578 657.803,-581.5 657.803,-574.5"/>
</g>
<!-- Node8&#45;&gt;Node7 -->
<g id="edge8" class="edge"><title>Node8&#45;&gt;Node7</title>
<path fill="none" stroke="midnightblue" d="M630.703,-614.776C657.944,-607.479 687.292,-599.618 711.834,-593.044"/>
<polygon fill="midnightblue" stroke="midnightblue" points="629.529,-611.467 620.775,-617.435 631.34,-618.229 629.529,-611.467"/>
</g>
<!-- Node10 -->
<g id="node10" class="node"><title>Node10</title>
<g id="a_node10"><a xlink:href="../../d0/db5/classview_1_1editor_1_1_editor_screen.html#a9e6edd6257068039459672ab6242ae5f" target="_top" xlink:title="view.editor.EditorScreen.init\lParticipantInfo">
<polygon fill="white" stroke="black" points="469,-410 469,-440 617,-440 617,-410 469,-410"/>
<text text-anchor="start" x="477" y="-428" font-family="Helvetica,sans-Serif" font-size="10.00">view.editor.EditorScreen.init</text>
<text text-anchor="middle" x="543" y="-417" font-family="Helvetica,sans-Serif" font-size="10.00">ParticipantInfo</text>
</a>
</g>
</g>
<!-- Node9&#45;&gt;Node10 -->
<g id="edge10" class="edge"><title>Node9&#45;&gt;Node10</title>
<path fill="none" stroke="midnightblue" d="M411.127,-425C430.412,-425 450.41,-425 468.796,-425"/>
<polygon fill="midnightblue" stroke="midnightblue" points="411.119,-421.5 401.119,-425 411.119,-428.5 411.119,-421.5"/>
</g>
<!-- Node11 -->
<g id="node11" class="node"><title>Node11</title>
<g id="a_node11"><a xlink:href="../../d0/db5/classview_1_1editor_1_1_editor_screen.html#aba6c32908c25fa4f755a312e92860c02" target="_top" xlink:title="view.editor.EditorScreen.init">
<polygon fill="white" stroke="black" points="695,-415.5 695,-434.5 843,-434.5 843,-415.5 695,-415.5"/>
<text text-anchor="middle" x="769" y="-422.5" font-family="Helvetica,sans-Serif" font-size="10.00">view.editor.EditorScreen.init</text>
</a>
</g>
</g>
<!-- Node10&#45;&gt;Node11 -->
<g id="edge11" class="edge"><title>Node10&#45;&gt;Node11</title>
<path fill="none" stroke="midnightblue" d="M627.097,-425C649.273,-425 673.071,-425 694.68,-425"/>
<polygon fill="midnightblue" stroke="midnightblue" points="627.036,-421.5 617.036,-425 627.036,-428.5 627.036,-421.5"/>
</g>
<!-- Node12&#45;&gt;Node6 -->
<g id="edge13" class="edge"><title>Node12&#45;&gt;Node6</title>
<path fill="none" stroke="midnightblue" d="M405.031,-584.667C415.891,-584.138 427.061,-583.594 438.115,-583.056"/>
<polygon fill="midnightblue" stroke="midnightblue" points="404.545,-581.186 394.727,-585.168 404.885,-588.178 404.545,-581.186"/>
</g>
<!-- Node12&#45;&gt;Node8 -->
<g id="edge14" class="edge"><title>Node12&#45;&gt;Node8</title>
<path fill="none" stroke="midnightblue" d="M395.141,-606.159C412.021,-609.819 430.012,-613.719 447.404,-617.49"/>
<polygon fill="midnightblue" stroke="midnightblue" points="395.858,-602.733 385.343,-604.035 394.375,-609.574 395.858,-602.733"/>
</g>
<!-- Node17 -->
<g id="node17" class="node"><title>Node17</title>
<g id="a_node17"><a xlink:href="../../d0/daf/classapplication_1_1_r_p_g.html#a6b8f1624ae2607c67f4e8cda49b544e9" target="_top" xlink:title="application.RPG.start">
<polygon fill="white" stroke="black" points="485,-229.5 485,-248.5 601,-248.5 601,-229.5 485,-229.5"/>
<text text-anchor="middle" x="543" y="-236.5" font-family="Helvetica,sans-Serif" font-size="10.00">application.RPG.start</text>
</a>
</g>
</g>
<!-- Node16&#45;&gt;Node17 -->
<g id="edge19" class="edge"><title>Node16&#45;&gt;Node17</title>
<path fill="none" stroke="midnightblue" d="M395.31,-239C424.796,-239 457.65,-239 484.779,-239"/>
<polygon fill="midnightblue" stroke="midnightblue" points="395.035,-235.5 385.035,-239 395.035,-242.5 395.035,-235.5"/>
</g>
<!-- Node19 -->
<g id="node19" class="node"><title>Node19</title>
<g id="a_node19"><a xlink:href="../../d6/d00/classapplication_1_1_pong.html#aacfcba740564585303fb8097744d21a5" target="_top" xlink:title="application.Pong.start">
<polygon fill="white" stroke="black" points="482.5,-180.5 482.5,-199.5 603.5,-199.5 603.5,-180.5 482.5,-180.5"/>
<text text-anchor="middle" x="543" y="-187.5" font-family="Helvetica,sans-Serif" font-size="10.00">application.Pong.start</text>
</a>
</g>
</g>
<!-- Node18&#45;&gt;Node19 -->
<g id="edge21" class="edge"><title>Node18&#45;&gt;Node19</title>
<path fill="none" stroke="midnightblue" d="M397.676,-190C425.656,-190 456.417,-190 482.326,-190"/>
<polygon fill="midnightblue" stroke="midnightblue" points="397.508,-186.5 387.508,-190 397.508,-193.5 397.508,-186.5"/>
</g>
<!-- Node22 -->
<g id="node22" class="node"><title>Node22</title>
<g id="a_node22"><a xlink:href="../../d0/d3f/classview_1_1splash_1_1_splash_screen.html#a6425dffd80436213cce943fc3aa27563" target="_top" xlink:title="view.splash.SplashScreen.set\lUpButtons">
<polygon fill="white" stroke="black" points="464.5,-82 464.5,-112 621.5,-112 621.5,-82 464.5,-82"/>
<text text-anchor="start" x="472.5" y="-100" font-family="Helvetica,sans-Serif" font-size="10.00">view.splash.SplashScreen.set</text>
<text text-anchor="middle" x="543" y="-89" font-family="Helvetica,sans-Serif" font-size="10.00">UpButtons</text>
</a>
</g>
</g>
<!-- Node21&#45;&gt;Node22 -->
<g id="edge25" class="edge"><title>Node21&#45;&gt;Node22</title>
<path fill="none" stroke="midnightblue" d="M401.301,-97C422.008,-97 444.038,-97 464.369,-97"/>
<polygon fill="midnightblue" stroke="midnightblue" points="401.255,-93.5001 391.255,-97 401.255,-100.5 401.255,-93.5001"/>
</g>
<!-- Node23 -->
<g id="node23" class="node"><title>Node23</title>
<g id="a_node23"><a xlink:href="../../d0/d3f/classview_1_1splash_1_1_splash_screen.html#af2da20a5479f92e4669ae93f0d6121de" target="_top" xlink:title="view.splash.SplashScreen.init">
<polygon fill="white" stroke="black" points="691,-87.5 691,-106.5 847,-106.5 847,-87.5 691,-87.5"/>
<text text-anchor="middle" x="769" y="-94.5" font-family="Helvetica,sans-Serif" font-size="10.00">view.splash.SplashScreen.init</text>
</a>
</g>
</g>
<!-- Node22&#45;&gt;Node23 -->
<g id="edge26" class="edge"><title>Node22&#45;&gt;Node23</title>
<path fill="none" stroke="midnightblue" d="M631.796,-97C651.275,-97 671.781,-97 690.8,-97"/>
<polygon fill="midnightblue" stroke="midnightblue" points="631.716,-93.5001 621.716,-97 631.716,-100.5 631.716,-93.5001"/>
</g>
<!-- Node24&#45;&gt;Node7 -->
<g id="edge30" class="edge"><title>Node24&#45;&gt;Node7</title>
<path fill="none" stroke="midnightblue" d="M605.567,-685.495C619.85,-680.282 634.742,-674.071 648,-667 687.822,-645.761 728.948,-612.278 751.209,-593.007"/>
<polygon fill="midnightblue" stroke="midnightblue" points="604.068,-682.313 595.805,-688.944 606.4,-688.913 604.068,-682.313"/>
</g>
<!-- Node25&#45;&gt;Node7 -->
<g id="edge32" class="edge"><title>Node25&#45;&gt;Node7</title>
<path fill="none" stroke="midnightblue" d="M610.8,-536.595C642.699,-544.997 680.475,-554.946 711,-562.987"/>
<polygon fill="midnightblue" stroke="midnightblue" points="611.666,-533.203 601.104,-534.041 609.883,-539.973 611.666,-533.203"/>
</g>
<!-- Node28 -->
<g id="node28" class="node"><title>Node28</title>
<g id="a_node28"><a xlink:href="../../d0/db5/classview_1_1editor_1_1_editor_screen.html#a46b5e664f69da1947e605de4336f09cf" target="_top" xlink:title="view.editor.EditorScreen.model\lUpdate">
<polygon fill="white" stroke="black" points="461,-0 461,-30 625,-30 625,-0 461,-0"/>
<text text-anchor="start" x="469" y="-18" font-family="Helvetica,sans-Serif" font-size="10.00">view.editor.EditorScreen.model</text>
<text text-anchor="middle" x="543" y="-7" font-family="Helvetica,sans-Serif" font-size="10.00">Update</text>
</a>
</g>
</g>
<!-- Node27&#45;&gt;Node28 -->
<g id="edge35" class="edge"><title>Node27&#45;&gt;Node28</title>
<path fill="none" stroke="midnightblue" d="M408.644,-15C425.938,-15 443.89,-15 460.806,-15"/>
<polygon fill="midnightblue" stroke="midnightblue" points="408.551,-11.5001 398.551,-15 408.55,-18.5001 408.551,-11.5001"/>
</g>
</g>
</svg>
