<?xml version="1.0" encoding="UTF-8" standalone="no"?>
<!DOCTYPE svg PUBLIC "-//W3C//DTD SVG 1.1//EN"
 "http://www.w3.org/Graphics/SVG/1.1/DTD/svg11.dtd">
<!-- Generated by graphviz version 2.36.0 (20140111.2315)
 -->
<!-- Title: model.MainModel.getGameUniverse Pages: 1 -->
<svg width="862pt" height="806pt"
 viewBox="0.00 0.00 862.00 806.00" xmlns="http://www.w3.org/2000/svg" xmlns:xlink="http://www.w3.org/1999/xlink">
<g id="graph0" class="graph" transform="scale(1 1) rotate(0) translate(4 802)">
<title>model.MainModel.getGameUniverse</title>
<polygon fill="white" stroke="none" points="-4,4 -4,-802 858,-802 858,4 -4,4"/>
<!-- Node1 -->
<g id="node1" class="node"><title>Node1</title>
<polygon fill="#bfbfbf" stroke="black" points="0.5,-400.5 0.5,-419.5 191.5,-419.5 191.5,-400.5 0.5,-400.5"/>
<text text-anchor="middle" x="96" y="-407.5" font-family="Helvetica,sans-Serif" font-size="10.00">model.MainModel.getGameUniverse</text>
</g>
<!-- Node2 -->
<g id="node2" class="node"><title>Node2</title>
<g id="a_node2"><a xlink:href="../../d4/d65/classview_1_1editor_1_1_tab_view_controller.html#a626ca47a8ac963b8940a59944ee3bcb6" target="_top" xlink:title="view.editor.TabViewController.add\lNumberAttributes">
<polygon fill="white" stroke="black" points="228.5,-766 228.5,-796 401.5,-796 401.5,-766 228.5,-766"/>
<text text-anchor="start" x="236.5" y="-784" font-family="Helvetica,sans-Serif" font-size="10.00">view.editor.TabViewController.add</text>
<text text-anchor="middle" x="315" y="-773" font-family="Helvetica,sans-Serif" font-size="10.00">NumberAttributes</text>
</a>
</g>
</g>
<!-- Node1&#45;&gt;Node2 -->
<g id="edge1" class="edge"><title>Node1&#45;&gt;Node2</title>
<path fill="none" stroke="midnightblue" d="M99.1631,-429.653C106.439,-486.586 135.043,-653.508 228,-747 235.924,-754.97 245.945,-761.123 256.323,-765.857"/>
<polygon fill="midnightblue" stroke="midnightblue" points="102.613,-429.025 97.949,-419.512 95.6626,-429.857 102.613,-429.025"/>
</g>
<!-- Node5 -->
<g id="node5" class="node"><title>Node5</title>
<g id="a_node5"><a xlink:href="../../d9/dfb/classview_1_1editor_1_1_element_accordion_controller.html#ad68baa151a28fe9c9b5dab069865a7e3" target="_top" xlink:title="view.editor.ElementAccordion\lController.addNumberAttributes">
<polygon fill="white" stroke="black" points="230,-595 230,-625 400,-625 400,-595 230,-595"/>
<text text-anchor="start" x="238" y="-613" font-family="Helvetica,sans-Serif" font-size="10.00">view.editor.ElementAccordion</text>
<text text-anchor="middle" x="315" y="-602" font-family="Helvetica,sans-Serif" font-size="10.00">Controller.addNumberAttributes</text>
</a>
</g>
</g>
<!-- Node1&#45;&gt;Node5 -->
<g id="edge4" class="edge"><title>Node1&#45;&gt;Node5</title>
<path fill="none" stroke="midnightblue" d="M105.968,-429.03C123.924,-465.052 167.793,-543.317 228,-585 233.625,-588.894 239.857,-592.188 246.321,-594.974"/>
<polygon fill="midnightblue" stroke="midnightblue" points="108.938,-427.135 101.417,-419.673 102.643,-430.197 108.938,-427.135"/>
</g>
<!-- Node6 -->
<g id="node6" class="node"><title>Node6</title>
<g id="a_node6"><a xlink:href="../../d9/dfb/classview_1_1editor_1_1_element_accordion_controller.html#a8564fdf017fa6f25e3e663cf076e0c04" target="_top" xlink:title="view.editor.ElementAccordion\lController.openSelectableGameElement\lWizard">
<polygon fill="white" stroke="black" points="438.5,-600.5 438.5,-641.5 647.5,-641.5 647.5,-600.5 438.5,-600.5"/>
<text text-anchor="start" x="446.5" y="-629.5" font-family="Helvetica,sans-Serif" font-size="10.00">view.editor.ElementAccordion</text>
<text text-anchor="start" x="446.5" y="-618.5" font-family="Helvetica,sans-Serif" font-size="10.00">Controller.openSelectableGameElement</text>
<text text-anchor="middle" x="543" y="-607.5" font-family="Helvetica,sans-Serif" font-size="10.00">Wizard</text>
</a>
</g>
</g>
<!-- Node1&#45;&gt;Node6 -->
<g id="edge29" class="edge"><title>Node1&#45;&gt;Node6</title>
<path fill="none" stroke="midnightblue" d="M101.436,-429.435C113.022,-475.073 148.938,-588.647 228,-634 306.326,-678.93 414.613,-660.334 481.386,-641.571"/>
<polygon fill="midnightblue" stroke="midnightblue" points="104.811,-428.503 99.0553,-419.609 98.0079,-430.151 104.811,-428.503"/>
</g>
<!-- Node7 -->
<g id="node7" class="node"><title>Node7</title>
<g id="a_node7"><a xlink:href="../../d9/dfb/classview_1_1editor_1_1_element_accordion_controller.html#af80453486ff349552dab988fb64397c0" target="_top" xlink:title="view.editor.ElementAccordion\lController.init">
<polygon fill="white" stroke="black" points="691,-606 691,-636 847,-636 847,-606 691,-606"/>
<text text-anchor="start" x="699" y="-624" font-family="Helvetica,sans-Serif" font-size="10.00">view.editor.ElementAccordion</text>
<text text-anchor="middle" x="769" y="-613" font-family="Helvetica,sans-Serif" font-size="10.00">Controller.init</text>
</a>
</g>
</g>
<!-- Node1&#45;&gt;Node7 -->
<g id="edge21" class="edge"><title>Node1&#45;&gt;Node7</title>
<path fill="none" stroke="midnightblue" d="M100.262,-429.676C109.652,-479.199 141.814,-608.763 228,-661 255.567,-677.708 609.057,-655.524 648,-650 670.282,-646.84 694.473,-641.393 715.259,-636.067"/>
<polygon fill="midnightblue" stroke="midnightblue" points="103.672,-428.863 98.467,-419.635 96.781,-430.095 103.672,-428.863"/>
</g>
<!-- Node8 -->
<g id="node8" class="node"><title>Node8</title>
<g id="a_node8"><a xlink:href="../../d9/dfb/classview_1_1editor_1_1_element_accordion_controller.html#a71bb33e7588f335fc2ebc1346924ad2d" target="_top" xlink:title="view.editor.ElementAccordion\lController.openDrawableGameElement\lWizard">
<polygon fill="white" stroke="black" points="441.5,-540.5 441.5,-581.5 644.5,-581.5 644.5,-540.5 441.5,-540.5"/>
<text text-anchor="start" x="449.5" y="-569.5" font-family="Helvetica,sans-Serif" font-size="10.00">view.editor.ElementAccordion</text>
<text text-anchor="start" x="449.5" y="-558.5" font-family="Helvetica,sans-Serif" font-size="10.00">Controller.openDrawableGameElement</text>
<text text-anchor="middle" x="543" y="-547.5" font-family="Helvetica,sans-Serif" font-size="10.00">Wizard</text>
</a>
</g>
</g>
<!-- Node1&#45;&gt;Node8 -->
<g id="edge28" class="edge"><title>Node1&#45;&gt;Node8</title>
<path fill="none" stroke="midnightblue" d="M118.467,-425.367C143.594,-442.684 187.003,-470.558 228,-487 266.337,-502.375 364.737,-524.599 441.259,-540.675"/>
<polygon fill="midnightblue" stroke="midnightblue" points="120.277,-422.362 110.075,-419.505 116.269,-428.1 120.277,-422.362"/>
</g>
<!-- Node9 -->
<g id="node9" class="node"><title>Node9</title>
<g id="a_node9"><a xlink:href="../../de/d21/classmodel_1_1_main_model.html#a44709338c2ecd04438921fb7b3232fa6" target="_top" xlink:title="model.MainModel.addParticipant\lColor">
<polygon fill="white" stroke="black" points="229,-420 229,-450 401,-450 401,-420 229,-420"/>
<text text-anchor="start" x="237" y="-438" font-family="Helvetica,sans-Serif" font-size="10.00">model.MainModel.addParticipant</text>
<text text-anchor="middle" x="315" y="-427" font-family="Helvetica,sans-Serif" font-size="10.00">Color</text>
</a>
</g>
</g>
<!-- Node1&#45;&gt;Node9 -->
<g id="edge9" class="edge"><title>Node1&#45;&gt;Node9</title>
<path fill="none" stroke="midnightblue" d="M189.907,-420.704C202.784,-422.187 215.961,-423.705 228.691,-425.172"/>
<polygon fill="midnightblue" stroke="midnightblue" points="189.992,-417.19 179.657,-419.523 189.191,-424.144 189.992,-417.19"/>
</g>
<!-- Node12 -->
<g id="node12" class="node"><title>Node12</title>
<g id="a_node12"><a xlink:href="../../d9/dfb/classview_1_1editor_1_1_element_accordion_controller.html#a3bf1b5eaf1b993a7dd608f3a9598a153" target="_top" xlink:title="view.editor.ElementAccordion\lController.addStringAttributes">
<polygon fill="white" stroke="black" points="235.5,-546 235.5,-576 394.5,-576 394.5,-546 235.5,-546"/>
<text text-anchor="start" x="243.5" y="-564" font-family="Helvetica,sans-Serif" font-size="10.00">view.editor.ElementAccordion</text>
<text text-anchor="middle" x="315" y="-553" font-family="Helvetica,sans-Serif" font-size="10.00">Controller.addStringAttributes</text>
</a>
</g>
</g>
<!-- Node1&#45;&gt;Node12 -->
<g id="edge12" class="edge"><title>Node1&#45;&gt;Node12</title>
<path fill="none" stroke="midnightblue" d="M111.591,-427.436C134.119,-453.352 179.827,-502.079 228,-531 237.761,-536.86 248.835,-541.797 259.71,-545.867"/>
<polygon fill="midnightblue" stroke="midnightblue" points="114.032,-424.905 104.87,-419.583 108.714,-429.456 114.032,-424.905"/>
</g>
<!-- Node13 -->
<g id="node13" class="node"><title>Node13</title>
<g id="a_node13"><a xlink:href="../../de/d21/classmodel_1_1_main_model.html#a4b5658ed9c29f4b1147dfc9ece8b36d5" target="_top" xlink:title="model.MainModel.addTerrain\lToLevel">
<polygon fill="white" stroke="black" points="238.5,-371 238.5,-401 391.5,-401 391.5,-371 238.5,-371"/>
<text text-anchor="start" x="246.5" y="-389" font-family="Helvetica,sans-Serif" font-size="10.00">model.MainModel.addTerrain</text>
<text text-anchor="middle" x="315" y="-378" font-family="Helvetica,sans-Serif" font-size="10.00">ToLevel</text>
</a>
</g>
</g>
<!-- Node1&#45;&gt;Node13 -->
<g id="edge15" class="edge"><title>Node1&#45;&gt;Node13</title>
<path fill="none" stroke="midnightblue" d="M193.405,-399.338C208.418,-397.677 223.743,-395.982 238.212,-394.382"/>
<polygon fill="midnightblue" stroke="midnightblue" points="192.63,-395.902 183.076,-400.48 193.4,-402.86 192.63,-395.902"/>
</g>
<!-- Node14 -->
<g id="node14" class="node"><title>Node14</title>
<g id="a_node14"><a xlink:href="../../de/d21/classmodel_1_1_main_model.html#a515a2b3f5e066e6c7959f91cce64181b" target="_top" xlink:title="model.MainModel.addUnitTo\lLevel">
<polygon fill="white" stroke="black" points="239.5,-322 239.5,-352 390.5,-352 390.5,-322 239.5,-322"/>
<text text-anchor="start" x="247.5" y="-340" font-family="Helvetica,sans-Serif" font-size="10.00">model.MainModel.addUnitTo</text>
<text text-anchor="middle" x="315" y="-329" font-family="Helvetica,sans-Serif" font-size="10.00">Level</text>
</a>
</g>
</g>
<!-- Node1&#45;&gt;Node14 -->
<g id="edge16" class="edge"><title>Node1&#45;&gt;Node14</title>
<path fill="none" stroke="midnightblue" d="M130.418,-396.595C156.724,-386.264 194.427,-371.941 228,-361 237.432,-357.926 247.524,-354.889 257.355,-352.063"/>
<polygon fill="midnightblue" stroke="midnightblue" points="128.941,-393.415 120.926,-400.344 131.512,-399.926 128.941,-393.415"/>
</g>
<!-- Node15 -->
<g id="node15" class="node"><title>Node15</title>
<g id="a_node15"><a xlink:href="../../d0/daf/classapplication_1_1_r_p_g.html#a57d0a7b674624b53b138a951b30f865d" target="_top" xlink:title="application.RPG.hardCode\lAGame">
<polygon fill="white" stroke="black" points="245,-273 245,-303 385,-303 385,-273 245,-273"/>
<text text-anchor="start" x="253" y="-291" font-family="Helvetica,sans-Serif" font-size="10.00">application.RPG.hardCode</text>
<text text-anchor="middle" x="315" y="-280" font-family="Helvetica,sans-Serif" font-size="10.00">AGame</text>
</a>
</g>
</g>
<!-- Node1&#45;&gt;Node15 -->
<g id="edge17" class="edge"><title>Node1&#45;&gt;Node15</title>
<path fill="none" stroke="midnightblue" d="M114.516,-393.487C138.392,-371.822 183.317,-333.983 228,-312 234.815,-308.647 242.172,-305.698 249.614,-303.122"/>
<polygon fill="midnightblue" stroke="midnightblue" points="111.969,-391.075 106.983,-400.423 116.71,-396.224 111.969,-391.075"/>
</g>
<!-- Node17 -->
<g id="node17" class="node"><title>Node17</title>
<g id="a_node17"><a xlink:href="../../d6/d00/classapplication_1_1_pong.html#a0125f26aebd7e1cc9e3fae602e3997f8" target="_top" xlink:title="application.Pong.hardCode\lAGame">
<polygon fill="white" stroke="black" points="242.5,-224 242.5,-254 387.5,-254 387.5,-224 242.5,-224"/>
<text text-anchor="start" x="250.5" y="-242" font-family="Helvetica,sans-Serif" font-size="10.00">application.Pong.hardCode</text>
<text text-anchor="middle" x="315" y="-231" font-family="Helvetica,sans-Serif" font-size="10.00">AGame</text>
</a>
</g>
</g>
<!-- Node1&#45;&gt;Node17 -->
<g id="edge19" class="edge"><title>Node1&#45;&gt;Node17</title>
<path fill="none" stroke="midnightblue" d="M108.115,-391.84C128.14,-360.679 173.32,-297.093 228,-263 233.525,-259.555 239.551,-256.595 245.766,-254.053"/>
<polygon fill="midnightblue" stroke="midnightblue" points="105.091,-390.074 102.726,-400.402 111.015,-393.804 105.091,-390.074"/>
</g>
<!-- Node19 -->
<g id="node19" class="node"><title>Node19</title>
<g id="a_node19"><a xlink:href="../../dc/de2/classengine_1_1_engine.html#a0d0a4463d37e719f41f69c9c0c0e9d32" target="_top" xlink:title="engine.Engine.instantiate\lFactories">
<polygon fill="white" stroke="black" points="246,-175 246,-205 384,-205 384,-175 246,-175"/>
<text text-anchor="start" x="254" y="-193" font-family="Helvetica,sans-Serif" font-size="10.00">engine.Engine.instantiate</text>
<text text-anchor="middle" x="315" y="-182" font-family="Helvetica,sans-Serif" font-size="10.00">Factories</text>
</a>
</g>
</g>
<!-- Node1&#45;&gt;Node19 -->
<g id="edge22" class="edge"><title>Node1&#45;&gt;Node19</title>
<path fill="none" stroke="midnightblue" d="M104.502,-390.519C120.745,-350.975 163.024,-261.065 228,-214 233.398,-210.09 239.409,-206.816 245.675,-204.075"/>
<polygon fill="midnightblue" stroke="midnightblue" points="101.153,-389.468 100.693,-400.053 107.653,-392.065 101.153,-389.468"/>
</g>
<!-- Node21 -->
<g id="node21" class="node"><title>Node21</title>
<g id="a_node21"><a xlink:href="../../d9/dfb/classview_1_1editor_1_1_element_accordion_controller.html#ad27bc03ea1e0ab8cbfb82ae3113a5e76" target="_top" xlink:title="view.editor.ElementAccordion\lController.modelUpdate">
<polygon fill="white" stroke="black" points="237,-126 237,-156 393,-156 393,-126 237,-126"/>
<text text-anchor="start" x="245" y="-144" font-family="Helvetica,sans-Serif" font-size="10.00">view.editor.ElementAccordion</text>
<text text-anchor="middle" x="315" y="-133" font-family="Helvetica,sans-Serif" font-size="10.00">Controller.modelUpdate</text>
</a>
</g>
</g>
<!-- Node1&#45;&gt;Node21 -->
<g id="edge24" class="edge"><title>Node1&#45;&gt;Node21</title>
<path fill="none" stroke="midnightblue" d="M101.744,-390.548C114.094,-344.126 151.713,-226.183 228,-165 232.232,-161.606 236.915,-158.691 241.846,-156.188"/>
<polygon fill="midnightblue" stroke="midnightblue" points="98.3456,-389.712 99.2544,-400.267 105.127,-391.449 98.3456,-389.712"/>
</g>
<!-- Node22 -->
<g id="node22" class="node"><title>Node22</title>
<g id="a_node22"><a xlink:href="../../de/d21/classmodel_1_1_main_model.html#af9c20fbbad657aa750844a8b5dabac80" target="_top" xlink:title="model.MainModel.newGame">
<polygon fill="white" stroke="black" points="239,-87.5 239,-106.5 391,-106.5 391,-87.5 239,-87.5"/>
<text text-anchor="middle" x="315" y="-94.5" font-family="Helvetica,sans-Serif" font-size="10.00">model.MainModel.newGame</text>
</a>
</g>
</g>
<!-- Node1&#45;&gt;Node22 -->
<g id="edge25" class="edge"><title>Node1&#45;&gt;Node22</title>
<path fill="none" stroke="midnightblue" d="M99.6768,-390.074C107.96,-336.635 138.263,-189.242 228,-116 232.62,-112.229 237.828,-109.167 243.338,-106.684"/>
<polygon fill="midnightblue" stroke="midnightblue" points="96.1721,-389.853 98.1944,-400.253 103.099,-390.862 96.1721,-389.853"/>
</g>
<!-- Node25 -->
<g id="node25" class="node"><title>Node25</title>
<g id="a_node25"><a xlink:href="../../de/d21/classmodel_1_1_main_model.html#a4c06208d5fc1ed5694a1cfc76a116599" target="_top" xlink:title="model.MainModel.removeDrawable\lGameElement">
<polygon fill="white" stroke="black" points="450.5,-481 450.5,-511 635.5,-511 635.5,-481 450.5,-481"/>
<text text-anchor="start" x="458.5" y="-499" font-family="Helvetica,sans-Serif" font-size="10.00">model.MainModel.removeDrawable</text>
<text text-anchor="middle" x="543" y="-488" font-family="Helvetica,sans-Serif" font-size="10.00">GameElement</text>
</a>
</g>
</g>
<!-- Node1&#45;&gt;Node25 -->
<g id="edge30" class="edge"><title>Node1&#45;&gt;Node25</title>
<path fill="none" stroke="midnightblue" d="M127.185,-423.67C153.325,-434.925 192.425,-450.384 228,-459 301.621,-476.83 387.114,-486.189 450.286,-491.028"/>
<polygon fill="midnightblue" stroke="midnightblue" points="128.401,-420.381 117.836,-419.585 125.598,-426.796 128.401,-420.381"/>
</g>
<!-- Node26 -->
<g id="node26" class="node"><title>Node26</title>
<g id="a_node26"><a xlink:href="../../de/d21/classmodel_1_1_main_model.html#a245e01adfaf1f234878f391818d392b1" target="_top" xlink:title="model.MainModel.removeSelectable\lGameElement">
<polygon fill="white" stroke="black" points="447.5,-719 447.5,-749 638.5,-749 638.5,-719 447.5,-719"/>
<text text-anchor="start" x="455.5" y="-737" font-family="Helvetica,sans-Serif" font-size="10.00">model.MainModel.removeSelectable</text>
<text text-anchor="middle" x="543" y="-726" font-family="Helvetica,sans-Serif" font-size="10.00">GameElement</text>
</a>
</g>
</g>
<!-- Node1&#45;&gt;Node26 -->
<g id="edge32" class="edge"><title>Node1&#45;&gt;Node26</title>
<path fill="none" stroke="midnightblue" d="M99.0027,-429.619C105.713,-484.102 132.67,-637.722 228,-706 291.85,-751.732 382.781,-754.992 450.37,-749.025"/>
<polygon fill="midnightblue" stroke="midnightblue" points="102.467,-429.106 97.8608,-419.565 95.5116,-429.896 102.467,-429.106"/>
</g>
<!-- Node27 -->
<g id="node27" class="node"><title>Node27</title>
<g id="a_node27"><a xlink:href="../../de/d21/classmodel_1_1_main_model.html#aeafec1c0a2c8d787f6ce596c544a9190" target="_top" xlink:title="model.MainModel.setTerrain">
<polygon fill="white" stroke="black" points="240,-49.5 240,-68.5 390,-68.5 390,-49.5 240,-49.5"/>
<text text-anchor="middle" x="315" y="-56.5" font-family="Helvetica,sans-Serif" font-size="10.00">model.MainModel.setTerrain</text>
</a>
</g>
</g>
<!-- Node1&#45;&gt;Node27 -->
<g id="edge34" class="edge"><title>Node1&#45;&gt;Node27</title>
<path fill="none" stroke="midnightblue" d="M98.5416,-390.261C104.16,-332.51 128.777,-162.632 228,-78 232.421,-74.2293 237.424,-71.1594 242.739,-68.6653"/>
<polygon fill="midnightblue" stroke="midnightblue" points="95.0522,-389.987 97.6548,-400.257 102.025,-390.606 95.0522,-389.987"/>
</g>
<!-- Node28 -->
<g id="node28" class="node"><title>Node28</title>
<g id="a_node28"><a xlink:href="../../d0/db5/classview_1_1editor_1_1_editor_screen.html#afc54ee2892ae9a9a8791a1f946ea3642" target="_top" xlink:title="view.editor.EditorScreen.update\lParticipantDropDown">
<polygon fill="white" stroke="black" points="231.5,-0 231.5,-30 398.5,-30 398.5,-0 231.5,-0"/>
<text text-anchor="start" x="239.5" y="-18" font-family="Helvetica,sans-Serif" font-size="10.00">view.editor.EditorScreen.update</text>
<text text-anchor="middle" x="315" y="-7" font-family="Helvetica,sans-Serif" font-size="10.00">ParticipantDropDown</text>
</a>
</g>
</g>
<!-- Node1&#45;&gt;Node28 -->
<g id="edge35" class="edge"><title>Node1&#45;&gt;Node28</title>
<path fill="none" stroke="midnightblue" d="M97.9522,-390.033C101.992,-328.399 122.803,-139.327 228,-40 232.07,-36.1571 236.696,-32.9007 241.641,-30.1417"/>
<polygon fill="midnightblue" stroke="midnightblue" points="94.4416,-390.119 97.3621,-400.303 101.43,-390.521 94.4416,-390.119"/>
</g>
<!-- Node3 -->
<g id="node3" class="node"><title>Node3</title>
<g id="a_node3"><a xlink:href="../../d4/d65/classview_1_1editor_1_1_tab_view_controller.html#ae2a5da639fc38047249eeb0a5728dee0" target="_top" xlink:title="view.editor.TabViewController.launch\lNestedWizard">
<polygon fill="white" stroke="black" points="449.5,-768 449.5,-798 636.5,-798 636.5,-768 449.5,-768"/>
<text text-anchor="start" x="457.5" y="-786" font-family="Helvetica,sans-Serif" font-size="10.00">view.editor.TabViewController.launch</text>
<text text-anchor="middle" x="543" y="-775" font-family="Helvetica,sans-Serif" font-size="10.00">NestedWizard</text>
</a>
</g>
</g>
<!-- Node2&#45;&gt;Node3 -->
<g id="edge2" class="edge"><title>Node2&#45;&gt;Node3</title>
<path fill="none" stroke="midnightblue" d="M412.015,-781.85C424.313,-781.959 436.886,-782.07 449.132,-782.178"/>
<polygon fill="midnightblue" stroke="midnightblue" points="411.794,-778.348 401.763,-781.759 411.732,-785.347 411.794,-778.348"/>
</g>
<!-- Node4 -->
<g id="node4" class="node"><title>Node4</title>
<g id="a_node4"><a xlink:href="../../d4/d65/classview_1_1editor_1_1_tab_view_controller.html#a82e1e1f1eb84d1c30bde3a246304473e" target="_top" xlink:title="view.editor.TabViewController.init">
<polygon fill="white" stroke="black" points="684,-773.5 684,-792.5 854,-792.5 854,-773.5 684,-773.5"/>
<text text-anchor="middle" x="769" y="-780.5" font-family="Helvetica,sans-Serif" font-size="10.00">view.editor.TabViewController.init</text>
</a>
</g>
</g>
<!-- Node3&#45;&gt;Node4 -->
<g id="edge3" class="edge"><title>Node3&#45;&gt;Node4</title>
<path fill="none" stroke="midnightblue" d="M647.055,-783C659.409,-783 671.908,-783 683.947,-783"/>
<polygon fill="midnightblue" stroke="midnightblue" points="646.726,-779.5 636.726,-783 646.726,-786.5 646.726,-779.5"/>
</g>
<!-- Node5&#45;&gt;Node6 -->
<g id="edge5" class="edge"><title>Node5&#45;&gt;Node6</title>
<path fill="none" stroke="midnightblue" d="M410.148,-614.582C419.432,-615.034 428.892,-615.495 438.265,-615.951"/>
<polygon fill="midnightblue" stroke="midnightblue" points="410.312,-611.086 400.154,-614.096 409.972,-618.078 410.312,-611.086"/>
</g>
<!-- Node5&#45;&gt;Node8 -->
<g id="edge7" class="edge"><title>Node5&#45;&gt;Node8</title>
<path fill="none" stroke="midnightblue" d="M395.141,-592.841C412.021,-589.181 430.012,-585.281 447.404,-581.51"/>
<polygon fill="midnightblue" stroke="midnightblue" points="394.375,-589.426 385.343,-594.965 395.858,-596.267 394.375,-589.426"/>
</g>
<!-- Node6&#45;&gt;Node7 -->
<g id="edge6" class="edge"><title>Node6&#45;&gt;Node7</title>
<path fill="none" stroke="midnightblue" d="M658.041,-621C669.193,-621 680.319,-621 690.975,-621"/>
<polygon fill="midnightblue" stroke="midnightblue" points="657.803,-617.5 647.803,-621 657.803,-624.5 657.803,-617.5"/>
</g>
<!-- Node8&#45;&gt;Node7 -->
<g id="edge8" class="edge"><title>Node8&#45;&gt;Node7</title>
<path fill="none" stroke="midnightblue" d="M630.703,-584.224C657.944,-591.521 687.292,-599.382 711.834,-605.956"/>
<polygon fill="midnightblue" stroke="midnightblue" points="631.34,-580.771 620.775,-581.565 629.529,-587.533 631.34,-580.771"/>
</g>
<!-- Node10 -->
<g id="node10" class="node"><title>Node10</title>
<g id="a_node10"><a xlink:href="../../d0/db5/classview_1_1editor_1_1_editor_screen.html#a9e6edd6257068039459672ab6242ae5f" target="_top" xlink:title="view.editor.EditorScreen.init\lParticipantInfo">
<polygon fill="white" stroke="black" points="469,-420 469,-450 617,-450 617,-420 469,-420"/>
<text text-anchor="start" x="477" y="-438" font-family="Helvetica,sans-Serif" font-size="10.00">view.editor.EditorScreen.init</text>
<text text-anchor="middle" x="543" y="-427" font-family="Helvetica,sans-Serif" font-size="10.00">ParticipantInfo</text>
</a>
</g>
</g>
<!-- Node9&#45;&gt;Node10 -->
<g id="edge10" class="edge"><title>Node9&#45;&gt;Node10</title>
<path fill="none" stroke="midnightblue" d="M411.127,-435C430.412,-435 450.41,-435 468.796,-435"/>
<polygon fill="midnightblue" stroke="midnightblue" points="411.119,-431.5 401.119,-435 411.119,-438.5 411.119,-431.5"/>
</g>
<!-- Node11 -->
<g id="node11" class="node"><title>Node11</title>
<g id="a_node11"><a xlink:href="../../d0/db5/classview_1_1editor_1_1_editor_screen.html#aba6c32908c25fa4f755a312e92860c02" target="_top" xlink:title="view.editor.EditorScreen.init">
<polygon fill="white" stroke="black" points="695,-425.5 695,-444.5 843,-444.5 843,-425.5 695,-425.5"/>
<text text-anchor="middle" x="769" y="-432.5" font-family="Helvetica,sans-Serif" font-size="10.00">view.editor.EditorScreen.init</text>
</a>
</g>
</g>
<!-- Node10&#45;&gt;Node11 -->
<g id="edge11" class="edge"><title>Node10&#45;&gt;Node11</title>
<path fill="none" stroke="midnightblue" d="M627.097,-435C649.273,-435 673.071,-435 694.68,-435"/>
<polygon fill="midnightblue" stroke="midnightblue" points="627.036,-431.5 617.036,-435 627.036,-438.5 627.036,-431.5"/>
</g>
<!-- Node12&#45;&gt;Node6 -->
<g id="edge13" class="edge"><title>Node12&#45;&gt;Node6</title>
<path fill="none" stroke="midnightblue" d="M382.424,-578.635C408.236,-585.487 437.979,-593.384 464.74,-600.489"/>
<polygon fill="midnightblue" stroke="midnightblue" points="383.301,-575.246 372.738,-576.063 381.505,-582.012 383.301,-575.246"/>
</g>
<!-- Node12&#45;&gt;Node8 -->
<g id="edge14" class="edge"><title>Node12&#45;&gt;Node8</title>
<path fill="none" stroke="midnightblue" d="M405.067,-561C416.959,-561 429.221,-561 441.293,-561"/>
<polygon fill="midnightblue" stroke="midnightblue" points="404.727,-557.5 394.727,-561 404.727,-564.5 404.727,-557.5"/>
</g>
<!-- Node16 -->
<g id="node16" class="node"><title>Node16</title>
<g id="a_node16"><a xlink:href="../../d0/daf/classapplication_1_1_r_p_g.html#a6b8f1624ae2607c67f4e8cda49b544e9" target="_top" xlink:title="application.RPG.start">
<polygon fill="white" stroke="black" points="485,-278.5 485,-297.5 601,-297.5 601,-278.5 485,-278.5"/>
<text text-anchor="middle" x="543" y="-285.5" font-family="Helvetica,sans-Serif" font-size="10.00">application.RPG.start</text>
</a>
</g>
</g>
<!-- Node15&#45;&gt;Node16 -->
<g id="edge18" class="edge"><title>Node15&#45;&gt;Node16</title>
<path fill="none" stroke="midnightblue" d="M395.31,-288C424.796,-288 457.65,-288 484.779,-288"/>
<polygon fill="midnightblue" stroke="midnightblue" points="395.035,-284.5 385.035,-288 395.035,-291.5 395.035,-284.5"/>
</g>
<!-- Node18 -->
<g id="node18" class="node"><title>Node18</title>
<g id="a_node18"><a xlink:href="../../d6/d00/classapplication_1_1_pong.html#aacfcba740564585303fb8097744d21a5" target="_top" xlink:title="application.Pong.start">
<polygon fill="white" stroke="black" points="482.5,-229.5 482.5,-248.5 603.5,-248.5 603.5,-229.5 482.5,-229.5"/>
<text text-anchor="middle" x="543" y="-236.5" font-family="Helvetica,sans-Serif" font-size="10.00">application.Pong.start</text>
</a>
</g>
</g>
<!-- Node17&#45;&gt;Node18 -->
<g id="edge20" class="edge"><title>Node17&#45;&gt;Node18</title>
<path fill="none" stroke="midnightblue" d="M397.676,-239C425.656,-239 456.417,-239 482.326,-239"/>
<polygon fill="midnightblue" stroke="midnightblue" points="397.508,-235.5 387.508,-239 397.508,-242.5 397.508,-235.5"/>
</g>
<!-- Node20 -->
<g id="node20" class="node"><title>Node20</title>
<g id="a_node20"><a xlink:href="../../dc/de2/classengine_1_1_engine.html#a707225a32896b370f131105ef1c644e2" target="_top" xlink:title="engine.Engine.Engine">
<polygon fill="white" stroke="black" points="483.5,-180.5 483.5,-199.5 602.5,-199.5 602.5,-180.5 483.5,-180.5"/>
<text text-anchor="middle" x="543" y="-187.5" font-family="Helvetica,sans-Serif" font-size="10.00">engine.Engine.Engine</text>
</a>
</g>
</g>
<!-- Node19&#45;&gt;Node20 -->
<g id="edge23" class="edge"><title>Node19&#45;&gt;Node20</title>
<path fill="none" stroke="midnightblue" d="M394.279,-190C423.461,-190 456.064,-190 483.203,-190"/>
<polygon fill="midnightblue" stroke="midnightblue" points="394.114,-186.5 384.114,-190 394.114,-193.5 394.114,-186.5"/>
</g>
<!-- Node23 -->
<g id="node23" class="node"><title>Node23</title>
<g id="a_node23"><a xlink:href="../../d0/d3f/classview_1_1splash_1_1_splash_screen.html#a6425dffd80436213cce943fc3aa27563" target="_top" xlink:title="view.splash.SplashScreen.set\lUpButtons">
<polygon fill="white" stroke="black" points="464.5,-82 464.5,-112 621.5,-112 621.5,-82 464.5,-82"/>
<text text-anchor="start" x="472.5" y="-100" font-family="Helvetica,sans-Serif" font-size="10.00">view.splash.SplashScreen.set</text>
<text text-anchor="middle" x="543" y="-89" font-family="Helvetica,sans-Serif" font-size="10.00">UpButtons</text>
</a>
</g>
</g>
<!-- Node22&#45;&gt;Node23 -->
<g id="edge26" class="edge"><title>Node22&#45;&gt;Node23</title>
<path fill="none" stroke="midnightblue" d="M401.301,-97C422.008,-97 444.038,-97 464.369,-97"/>
<polygon fill="midnightblue" stroke="midnightblue" points="401.255,-93.5001 391.255,-97 401.255,-100.5 401.255,-93.5001"/>
</g>
<!-- Node24 -->
<g id="node24" class="node"><title>Node24</title>
<g id="a_node24"><a xlink:href="../../d0/d3f/classview_1_1splash_1_1_splash_screen.html#af2da20a5479f92e4669ae93f0d6121de" target="_top" xlink:title="view.splash.SplashScreen.init">
<polygon fill="white" stroke="black" points="691,-87.5 691,-106.5 847,-106.5 847,-87.5 691,-87.5"/>
<text text-anchor="middle" x="769" y="-94.5" font-family="Helvetica,sans-Serif" font-size="10.00">view.splash.SplashScreen.init</text>
</a>
</g>
</g>
<!-- Node23&#45;&gt;Node24 -->
<g id="edge27" class="edge"><title>Node23&#45;&gt;Node24</title>
<path fill="none" stroke="midnightblue" d="M631.796,-97C651.275,-97 671.781,-97 690.8,-97"/>
<polygon fill="midnightblue" stroke="midnightblue" points="631.716,-93.5001 621.716,-97 631.716,-100.5 631.716,-93.5001"/>
</g>
<!-- Node25&#45;&gt;Node7 -->
<g id="edge31" class="edge"><title>Node25&#45;&gt;Node7</title>
<path fill="none" stroke="midnightblue" d="M609.122,-514.355C622.314,-519.052 635.856,-524.615 648,-531 688.107,-552.088 729.13,-586.087 751.296,-605.704"/>
<polygon fill="midnightblue" stroke="midnightblue" points="610.197,-511.024 599.602,-511.088 607.924,-517.644 610.197,-511.024"/>
</g>
<!-- Node26&#45;&gt;Node7 -->
<g id="edge33" class="edge"><title>Node26&#45;&gt;Node7</title>
<path fill="none" stroke="midnightblue" d="M618.215,-715.812C628.418,-712.387 638.608,-708.456 648,-704 687.135,-685.433 727.53,-654.637 750.04,-636.234"/>
<polygon fill="midnightblue" stroke="midnightblue" points="616.907,-712.555 608.453,-718.941 619.044,-719.221 616.907,-712.555"/>
</g>
<!-- Node29 -->
<g id="node29" class="node"><title>Node29</title>
<g id="a_node29"><a xlink:href="../../d0/db5/classview_1_1editor_1_1_editor_screen.html#a46b5e664f69da1947e605de4336f09cf" target="_top" xlink:title="view.editor.EditorScreen.model\lUpdate">
<polygon fill="white" stroke="black" points="461,-0 461,-30 625,-30 625,-0 461,-0"/>
<text text-anchor="start" x="469" y="-18" font-family="Helvetica,sans-Serif" font-size="10.00">view.editor.EditorScreen.model</text>
<text text-anchor="middle" x="543" y="-7" font-family="Helvetica,sans-Serif" font-size="10.00">Update</text>
</a>
</g>
</g>
<!-- Node28&#45;&gt;Node29 -->
<g id="edge36" class="edge"><title>Node28&#45;&gt;Node29</title>
<path fill="none" stroke="midnightblue" d="M408.644,-15C425.938,-15 443.89,-15 460.806,-15"/>
<polygon fill="midnightblue" stroke="midnightblue" points="408.551,-11.5001 398.551,-15 408.55,-18.5001 408.551,-11.5001"/>
</g>
</g>
</svg>
