<?xml version="1.0" encoding="UTF-8" standalone="no"?>
<!DOCTYPE svg PUBLIC "-//W3C//DTD SVG 1.1//EN"
 "http://www.w3.org/Graphics/SVG/1.1/DTD/svg11.dtd">
<!-- Generated by graphviz version 2.36.0 (20140111.2315)
 -->
<!-- Title: model.MainModel.elementIsInUse Pages: 1 -->
<svg width="580pt" height="87pt"
 viewBox="0.00 0.00 580.00 87.00" xmlns="http://www.w3.org/2000/svg" xmlns:xlink="http://www.w3.org/1999/xlink">
<g id="graph0" class="graph" transform="scale(1 1) rotate(0) translate(4 83)">
<title>model.MainModel.elementIsInUse</title>
<polygon fill="white" stroke="none" points="-4,4 -4,-83 576,-83 576,4 -4,4"/>
<!-- Node1 -->
<g id="node1" class="node"><title>Node1</title>
<polygon fill="#bfbfbf" stroke="black" points="0.5,-24 0.5,-54 151.5,-54 151.5,-24 0.5,-24"/>
<text text-anchor="start" x="8.5" y="-42" font-family="Helvetica,sans-Serif" font-size="10.00">model.MainModel.elementIs</text>
<text text-anchor="middle" x="76" y="-31" font-family="Helvetica,sans-Serif" font-size="10.00">InUse</text>
</g>
<!-- Node2 -->
<g id="node2" class="node"><title>Node2</title>
<g id="a_node2"><a xlink:href="../../de/d21/classmodel_1_1_main_model.html#a4c06208d5fc1ed5694a1cfc76a116599" target="_top" xlink:title="model.MainModel.removeDrawable\lGameElement">
<polygon fill="white" stroke="black" points="191.5,-49 191.5,-79 376.5,-79 376.5,-49 191.5,-49"/>
<text text-anchor="start" x="199.5" y="-67" font-family="Helvetica,sans-Serif" font-size="10.00">model.MainModel.removeDrawable</text>
<text text-anchor="middle" x="284" y="-56" font-family="Helvetica,sans-Serif" font-size="10.00">GameElement</text>
</a>
</g>
</g>
<!-- Node1&#45;&gt;Node2 -->
<g id="edge1" class="edge"><title>Node1&#45;&gt;Node2</title>
<path fill="none" stroke="midnightblue" d="M161.749,-49.2851C171.522,-50.4711 181.521,-51.6846 191.38,-52.8811"/>
<polygon fill="midnightblue" stroke="midnightblue" points="162.011,-45.7913 151.662,-48.0609 161.167,-52.7403 162.011,-45.7913"/>
</g>
<!-- Node4 -->
<g id="node4" class="node"><title>Node4</title>
<g id="a_node4"><a xlink:href="../../de/d21/classmodel_1_1_main_model.html#a245e01adfaf1f234878f391818d392b1" target="_top" xlink:title="model.MainModel.removeSelectable\lGameElement">
<polygon fill="white" stroke="black" points="188.5,-0 188.5,-30 379.5,-30 379.5,-0 188.5,-0"/>
<text text-anchor="start" x="196.5" y="-18" font-family="Helvetica,sans-Serif" font-size="10.00">model.MainModel.removeSelectable</text>
<text text-anchor="middle" x="284" y="-7" font-family="Helvetica,sans-Serif" font-size="10.00">GameElement</text>
</a>
</g>
</g>
<!-- Node1&#45;&gt;Node4 -->
<g id="edge3" class="edge"><title>Node1&#45;&gt;Node4</title>
<path fill="none" stroke="midnightblue" d="M161.782,-29.1225C170.486,-28.1084 179.37,-27.0734 188.173,-26.0478"/>
<polygon fill="midnightblue" stroke="midnightblue" points="161.19,-25.6677 151.662,-30.3015 162,-32.6207 161.19,-25.6677"/>
</g>
<!-- Node3 -->
<g id="node3" class="node"><title>Node3</title>
<g id="a_node3"><a xlink:href="../../d9/dfb/classview_1_1editor_1_1_element_accordion_controller.html#af80453486ff349552dab988fb64397c0" target="_top" xlink:title="view.editor.ElementAccordion\lController.init">
<polygon fill="white" stroke="black" points="416,-24 416,-54 572,-54 572,-24 416,-24"/>
<text text-anchor="start" x="424" y="-42" font-family="Helvetica,sans-Serif" font-size="10.00">view.editor.ElementAccordion</text>
<text text-anchor="middle" x="494" y="-31" font-family="Helvetica,sans-Serif" font-size="10.00">Controller.init</text>
</a>
</g>
</g>
<!-- Node2&#45;&gt;Node3 -->
<g id="edge2" class="edge"><title>Node2&#45;&gt;Node3</title>
<path fill="none" stroke="midnightblue" d="M386.689,-51.7778C396.457,-50.6038 406.251,-49.4265 415.729,-48.2874"/>
<polygon fill="midnightblue" stroke="midnightblue" points="386.045,-48.3298 376.535,-52.9983 386.881,-55.2798 386.045,-48.3298"/>
</g>
<!-- Node4&#45;&gt;Node3 -->
<g id="edge4" class="edge"><title>Node4&#45;&gt;Node3</title>
<path fill="none" stroke="midnightblue" d="M389.539,-27.0622C398.382,-28.0826 407.22,-29.1023 415.797,-30.092"/>
<polygon fill="midnightblue" stroke="midnightblue" points="389.902,-23.5809 379.566,-25.9115 389.099,-30.5347 389.902,-23.5809"/>
</g>
</g>
</svg>
