<?xml version="1.0" encoding="UTF-8" standalone="no"?>
<!DOCTYPE svg PUBLIC "-//W3C//DTD SVG 1.1//EN"
 "http://www.w3.org/Graphics/SVG/1.1/DTD/svg11.dtd">
<!-- Generated by graphviz version 2.36.0 (20140111.2315)
 -->
<!-- Title: model.MainModel.fetchImageContainer Pages: 1 -->
<svg width="370pt" height="136pt"
 viewBox="0.00 0.00 370.00 136.00" xmlns="http://www.w3.org/2000/svg" xmlns:xlink="http://www.w3.org/1999/xlink">
<g id="graph0" class="graph" transform="scale(1 1) rotate(0) translate(4 132)">
<title>model.MainModel.fetchImageContainer</title>
<polygon fill="white" stroke="none" points="-4,4 -4,-132 366,-132 366,4 -4,4"/>
<!-- Node1 -->
<g id="node1" class="node"><title>Node1</title>
<polygon fill="#bfbfbf" stroke="black" points="0,-49 0,-79 158,-79 158,-49 0,-49"/>
<text text-anchor="start" x="8" y="-67" font-family="Helvetica,sans-Serif" font-size="10.00">model.MainModel.fetchImage</text>
<text text-anchor="middle" x="79" y="-56" font-family="Helvetica,sans-Serif" font-size="10.00">Container</text>
</g>
<!-- Node2 -->
<g id="node2" class="node"><title>Node2</title>
<g id="a_node2"><a xlink:href="../../de/d01/classmodel_1_1sprite_1_1_sprite_image_generator.html#acc5fd25511da23fdddf26107aea74d44" target="_top" xlink:title="model.sprite.SpriteImage\lGenerator.fetchImageContainer">
<polygon fill="white" stroke="black" points="194,-98 194,-128 362,-128 362,-98 194,-98"/>
<text text-anchor="start" x="202" y="-116" font-family="Helvetica,sans-Serif" font-size="10.00">model.sprite.SpriteImage</text>
<text text-anchor="middle" x="278" y="-105" font-family="Helvetica,sans-Serif" font-size="10.00">Generator.fetchImageContainer</text>
</a>
</g>
</g>
<!-- Node1&#45;&gt;Node2 -->
<g id="edge1" class="edge"><title>Node1&#45;&gt;Node2</title>
<path fill="none" stroke="midnightblue" d="M140.445,-79.0346C161.435,-84.2554 185.149,-90.1537 206.854,-95.5526"/>
<polygon fill="midnightblue" stroke="midnightblue" points="206.12,-98.9765 216.669,-97.9938 207.81,-92.1835 206.12,-98.9765"/>
</g>
<!-- Node3 -->
<g id="node3" class="node"><title>Node3</title>
<g id="a_node3"><a xlink:href="../../d1/d5c/classmodel_1_1sprite_1_1_sprite_image_container.html#af83a0e388cc4a15338ada9ef04ba5ace" target="_top" xlink:title="model.sprite.SpriteImage\lContainer.getColorMask">
<polygon fill="white" stroke="black" points="209,-49 209,-79 347,-79 347,-49 209,-49"/>
<text text-anchor="start" x="217" y="-67" font-family="Helvetica,sans-Serif" font-size="10.00">model.sprite.SpriteImage</text>
<text text-anchor="middle" x="278" y="-56" font-family="Helvetica,sans-Serif" font-size="10.00">Container.getColorMask</text>
</a>
</g>
</g>
<!-- Node1&#45;&gt;Node3 -->
<g id="edge2" class="edge"><title>Node1&#45;&gt;Node3</title>
<path fill="none" stroke="midnightblue" d="M158.143,-64C171.497,-64 185.373,-64 198.73,-64"/>
<polygon fill="midnightblue" stroke="midnightblue" points="198.827,-67.5001 208.827,-64 198.827,-60.5001 198.827,-67.5001"/>
</g>
<!-- Node4 -->
<g id="node4" class="node"><title>Node4</title>
<g id="a_node4"><a xlink:href="../../d1/d5c/classmodel_1_1sprite_1_1_sprite_image_container.html#aeda9017d9625cc566d6cc9a640db43e1" target="_top" xlink:title="model.sprite.SpriteImage\lContainer.getSpritesheet">
<polygon fill="white" stroke="black" points="209,-0 209,-30 347,-30 347,-0 209,-0"/>
<text text-anchor="start" x="217" y="-18" font-family="Helvetica,sans-Serif" font-size="10.00">model.sprite.SpriteImage</text>
<text text-anchor="middle" x="278" y="-7" font-family="Helvetica,sans-Serif" font-size="10.00">Container.getSpritesheet</text>
</a>
</g>
</g>
<!-- Node1&#45;&gt;Node4 -->
<g id="edge3" class="edge"><title>Node1&#45;&gt;Node4</title>
<path fill="none" stroke="midnightblue" d="M140.445,-48.9654C161.435,-43.7446 185.149,-37.8463 206.854,-32.4474"/>
<polygon fill="midnightblue" stroke="midnightblue" points="207.81,-35.8165 216.669,-30.0062 206.12,-29.0235 207.81,-35.8165"/>
</g>
</g>
</svg>
