<?xml version="1.0" encoding="UTF-8" standalone="no"?>
<!DOCTYPE svg PUBLIC "-//W3C//DTD SVG 1.1//EN"
 "http://www.w3.org/Graphics/SVG/1.1/DTD/svg11.dtd">
<!-- Generated by graphviz version 2.36.0 (20140111.2315)
 -->
<!-- Title: model.MainModel.createGameElementState Pages: 1 -->
<!--zoomable 454 -->
<svg id="main" version="1.1" xmlns="http://www.w3.org/2000/svg" xmlns:xlink="http://www.w3.org/1999/xlink" xml:space="preserve" onload="init(evt)">
<style type="text/css"><![CDATA[
.edge:hover path { stroke: red; }
.edge:hover polygon { stroke: red; fill: red; }
]]></style>
<script type="text/javascript"><![CDATA[
var edges = document.getElementsByTagName('g');
if (edges && edges.length) {
  for (var i=0;i<edges.length;i++) {
    if (edges[i].id.substr(0,4)=='edge') {
      edges[i].setAttribute('class','edge');
    }
  }
}
]]></script>
        <defs>
                <circle id="rim" cx="0" cy="0" r="7"/>
                <circle id="rim2" cx="0" cy="0" r="3.5"/>
                <g id="zoomPlus">
                        <use xlink:href="#rim" fill="#404040">
                                <set attributeName="fill" to="#808080" begin="zoomplus.mouseover" end="zoomplus.mouseout"/>
                        </use>
                        <path d="M-4,0h8M0,-4v8" fill="none" stroke="white" stroke-width="1.5" pointer-events="none"/>
                </g>
                <g id="zoomMin">
                        <use xlink:href="#rim" fill="#404040">
                                <set attributeName="fill" to="#808080" begin="zoomminus.mouseover" end="zoomminus.mouseout"/>
                        </use>
                        <path d="M-4,0h8" fill="none" stroke="white" stroke-width="1.5" pointer-events="none"/>
                </g>
                <g id="dirArrow">
                        <path fill="none" stroke="white" stroke-width="1.5" d="M0,-3.0v7 M-2.5,-0.5L0,-3.0L2.5,-0.5"/>
                </g>
               <g id="resetDef">
                       <use xlink:href="#rim2" fill="#404040">
                               <set attributeName="fill" to="#808080" begin="reset.mouseover" end="reset.mouseout"/>
                       </use>
               </g>
        </defs>

<script type="text/javascript">
var viewWidth = 1196;
var viewHeight = 454;
var sectionId = 'dynsection-12';
</script>
<script xlink:href="../../svgpan.js"/>
<svg id="graph" class="graph">
<g id="viewport">
<title>model.MainModel.createGameElementState</title>
<polygon fill="white" stroke="none" points="-4,4 -4,-450 1192,-450 1192,4 -4,4"/>
<!-- Node1 -->
<g id="node1" class="node"><title>Node1</title>
<polygon fill="#bfbfbf" stroke="black" points="0,-187 0,-217 164,-217 164,-187 0,-187"/>
<text text-anchor="start" x="8" y="-205" font-family="Helvetica,sans-Serif" font-size="10.00">model.MainModel.createGame</text>
<text text-anchor="middle" x="82" y="-194" font-family="Helvetica,sans-Serif" font-size="10.00">ElementState</text>
</g>
<!-- Node2 -->
<g id="node2" class="node"><title>Node2</title>
<g id="a_node2"><a xlink:href="../../de/dda/classmodel_1_1_game_universe.html#aa27cf8fa7751ec9c6da83c8ac64299e5" target="_top" xlink:title="model.GameUniverse.addGame\lElementState">
<polygon fill="white" stroke="black" points="220.5,-332 220.5,-362 391.5,-362 391.5,-332 220.5,-332"/>
<text text-anchor="start" x="228.5" y="-350" font-family="Helvetica,sans-Serif" font-size="10.00">model.GameUniverse.addGame</text>
<text text-anchor="middle" x="306" y="-339" font-family="Helvetica,sans-Serif" font-size="10.00">ElementState</text>
</a>
</g>
</g>
<!-- Node1&#45;&gt;Node2 -->
<g id="edge1" class="edge"><title>Node1&#45;&gt;Node2</title>
<path fill="none" stroke="midnightblue" d="M106.338,-217.243C146.415,-243.42 228.349,-296.935 273.465,-326.403"/>
<polygon fill="midnightblue" stroke="midnightblue" points="271.688,-329.423 281.974,-331.961 275.516,-323.562 271.688,-329.423"/>
</g>
<!-- Node6 -->
<g id="node6" class="node"><title>Node6</title>
<g id="a_node6"><a xlink:href="../../d1/d8e/classmodel_1_1_game_element_state_factory.html#ae86793b00959ab2c973f3854c0756d83" target="_top" xlink:title="model.GameElementStateFactory.create\lGameElementState">
<polygon fill="white" stroke="black" points="200,-212 200,-242 412,-242 412,-212 200,-212"/>
<text text-anchor="start" x="208" y="-230" font-family="Helvetica,sans-Serif" font-size="10.00">model.GameElementStateFactory.create</text>
<text text-anchor="middle" x="306" y="-219" font-family="Helvetica,sans-Serif" font-size="10.00">GameElementState</text>
</a>
</g>
</g>
<!-- Node1&#45;&gt;Node6 -->
<g id="edge5" class="edge"><title>Node1&#45;&gt;Node6</title>
<path fill="none" stroke="midnightblue" d="M164.089,-211.132C172.458,-212.074 181.071,-213.044 189.72,-214.018"/>
<polygon fill="midnightblue" stroke="midnightblue" points="189.546,-217.52 199.875,-215.162 190.33,-210.564 189.546,-217.52"/>
</g>
<!-- Node17 -->
<g id="node17" class="node"><title>Node17</title>
<g id="a_node17"><a xlink:href="../../d6/d8b/classmodel_1_1state_1_1_game_state.html#ada7cc6194ba1f8235db868e033be6922" target="_top" xlink:title="model.state.GameState.get\lGameUniverse">
<polygon fill="white" stroke="black" points="230,-163 230,-193 382,-193 382,-163 230,-163"/>
<text text-anchor="start" x="238" y="-181" font-family="Helvetica,sans-Serif" font-size="10.00">model.state.GameState.get</text>
<text text-anchor="middle" x="306" y="-170" font-family="Helvetica,sans-Serif" font-size="10.00">GameUniverse</text>
</a>
</g>
</g>
<!-- Node1&#45;&gt;Node17 -->
<g id="edge19" class="edge"><title>Node1&#45;&gt;Node17</title>
<path fill="none" stroke="midnightblue" d="M164.089,-193.234C182.169,-191.279 201.393,-189.201 219.64,-187.228"/>
<polygon fill="midnightblue" stroke="midnightblue" points="220.097,-190.699 229.662,-186.145 219.344,-183.74 220.097,-190.699"/>
</g>
<!-- Node18 -->
<g id="node18" class="node"><title>Node18</title>
<g id="a_node18"><a xlink:href="../../de/d21/classmodel_1_1_main_model.html#a6d23ce35dd510459ea2dd46d3d59ef28" target="_top" xlink:title="model.MainModel.updateObservers">
<polygon fill="white" stroke="black" points="213,-124.5 213,-143.5 399,-143.5 399,-124.5 213,-124.5"/>
<text text-anchor="middle" x="306" y="-131.5" font-family="Helvetica,sans-Serif" font-size="10.00">model.MainModel.updateObservers</text>
</a>
</g>
</g>
<!-- Node1&#45;&gt;Node18 -->
<g id="edge20" class="edge"><title>Node1&#45;&gt;Node18</title>
<path fill="none" stroke="midnightblue" d="M114.653,-186.981C137.845,-176.482 170.325,-162.816 200,-154 210.8,-150.792 222.384,-147.98 233.771,-145.558"/>
<polygon fill="midnightblue" stroke="midnightblue" points="234.606,-148.959 243.704,-143.529 233.205,-142.101 234.606,-148.959"/>
</g>
<!-- Node3 -->
<g id="node3" class="node"><title>Node3</title>
<g id="a_node3"><a xlink:href="../../de/dda/classmodel_1_1_game_universe.html#af1828205204bed217447c08b9da6076b" target="_top" xlink:title="model.GameUniverse.store\lAttributes">
<polygon fill="white" stroke="black" points="473.5,-350 473.5,-380 622.5,-380 622.5,-350 473.5,-350"/>
<text text-anchor="start" x="481.5" y="-368" font-family="Helvetica,sans-Serif" font-size="10.00">model.GameUniverse.store</text>
<text text-anchor="middle" x="548" y="-357" font-family="Helvetica,sans-Serif" font-size="10.00">Attributes</text>
</a>
</g>
</g>
<!-- Node2&#45;&gt;Node3 -->
<g id="edge2" class="edge"><title>Node2&#45;&gt;Node3</title>
<path fill="none" stroke="midnightblue" d="M391.615,-353.346C414.774,-355.083 439.864,-356.965 462.99,-358.699"/>
<polygon fill="midnightblue" stroke="midnightblue" points="462.881,-362.201 473.114,-359.459 463.404,-355.22 462.881,-362.201"/>
</g>
<!-- Node4 -->
<g id="node4" class="node"><title>Node4</title>
<g id="a_node4"><a xlink:href="../../da/dc5/classmodel_1_1state_1_1gameelement_1_1_attribute_container.html#a5582c5bba557ed93a5269e562bca0ba2" target="_top" xlink:title="model.state.gameelement.\lAttributeContainer.getNumerical\lAttributes">
<polygon fill="white" stroke="black" points="704,-404.5 704,-445.5 876,-445.5 876,-404.5 704,-404.5"/>
<text text-anchor="start" x="712" y="-433.5" font-family="Helvetica,sans-Serif" font-size="10.00">model.state.gameelement.</text>
<text text-anchor="start" x="712" y="-422.5" font-family="Helvetica,sans-Serif" font-size="10.00">AttributeContainer.getNumerical</text>
<text text-anchor="middle" x="790" y="-411.5" font-family="Helvetica,sans-Serif" font-size="10.00">Attributes</text>
</a>
</g>
</g>
<!-- Node3&#45;&gt;Node4 -->
<g id="edge3" class="edge"><title>Node3&#45;&gt;Node4</title>
<path fill="none" stroke="midnightblue" d="M609.252,-380.063C635.824,-386.706 667.644,-394.661 697.076,-402.019"/>
<polygon fill="midnightblue" stroke="midnightblue" points="696.404,-405.459 706.954,-404.489 698.102,-398.668 696.404,-405.459"/>
</g>
<!-- Node5 -->
<g id="node5" class="node"><title>Node5</title>
<g id="a_node5"><a xlink:href="../../da/dc5/classmodel_1_1state_1_1gameelement_1_1_attribute_container.html#a4291bdbf5ccacfa0273f0e657e20406e" target="_top" xlink:title="model.state.gameelement.\lAttributeContainer.getTextual\lAttributes">
<polygon fill="white" stroke="black" points="712,-344.5 712,-385.5 868,-385.5 868,-344.5 712,-344.5"/>
<text text-anchor="start" x="720" y="-373.5" font-family="Helvetica,sans-Serif" font-size="10.00">model.state.gameelement.</text>
<text text-anchor="start" x="720" y="-362.5" font-family="Helvetica,sans-Serif" font-size="10.00">AttributeContainer.getTextual</text>
<text text-anchor="middle" x="790" y="-351.5" font-family="Helvetica,sans-Serif" font-size="10.00">Attributes</text>
</a>
</g>
</g>
<!-- Node3&#45;&gt;Node5 -->
<g id="edge4" class="edge"><title>Node3&#45;&gt;Node5</title>
<path fill="none" stroke="midnightblue" d="M622.639,-365C647.576,-365 675.669,-365 701.572,-365"/>
<polygon fill="midnightblue" stroke="midnightblue" points="701.759,-368.5 711.759,-365 701.759,-361.5 701.759,-368.5"/>
</g>
<!-- Node7 -->
<g id="node7" class="node"><title>Node7</title>
<g id="a_node7"><a xlink:href="../../d1/d8e/classmodel_1_1_game_element_state_factory.html#a58beddcf86b79336d5f7de3c2c03f2a7" target="_top" xlink:title="model.GameElementStateFactory.add\lEssentials">
<polygon fill="white" stroke="black" points="448.5,-177 448.5,-207 647.5,-207 647.5,-177 448.5,-177"/>
<text text-anchor="start" x="456.5" y="-195" font-family="Helvetica,sans-Serif" font-size="10.00">model.GameElementStateFactory.add</text>
<text text-anchor="middle" x="548" y="-184" font-family="Helvetica,sans-Serif" font-size="10.00">Essentials</text>
</a>
</g>
</g>
<!-- Node6&#45;&gt;Node7 -->
<g id="edge6" class="edge"><title>Node6&#45;&gt;Node7</title>
<path fill="none" stroke="midnightblue" d="M410.174,-211.954C419.504,-210.593 428.973,-209.212 438.348,-207.845"/>
<polygon fill="midnightblue" stroke="midnightblue" points="439.084,-211.275 448.474,-206.368 438.073,-204.348 439.084,-211.275"/>
</g>
<!-- Node8 -->
<g id="node8" class="node"><title>Node8</title>
<g id="a_node8"><a xlink:href="../../d7/da9/classmodel_1_1state_1_1gameelement_1_1_game_element_state.html#a9c933a8457618e7e8e5f257ee2211c07" target="_top" xlink:title="model.state.gameelement.\lGameElementState.addAction">
<polygon fill="white" stroke="black" points="708.5,-296 708.5,-326 871.5,-326 871.5,-296 708.5,-296"/>
<text text-anchor="start" x="716.5" y="-314" font-family="Helvetica,sans-Serif" font-size="10.00">model.state.gameelement.</text>
<text text-anchor="middle" x="790" y="-303" font-family="Helvetica,sans-Serif" font-size="10.00">GameElementState.addAction</text>
</a>
</g>
</g>
<!-- Node7&#45;&gt;Node8 -->
<g id="edge7" class="edge"><title>Node7&#45;&gt;Node8</title>
<path fill="none" stroke="midnightblue" d="M566.039,-207.076C590.46,-227.895 637.603,-265.225 684,-286 689.612,-288.513 695.51,-290.792 701.529,-292.856"/>
<polygon fill="midnightblue" stroke="midnightblue" points="700.472,-296.193 711.063,-295.926 702.617,-289.53 700.472,-296.193"/>
</g>
<!-- Node10 -->
<g id="node10" class="node"><title>Node10</title>
<g id="a_node10"><a xlink:href="../../d1/d8e/classmodel_1_1_game_element_state_factory.html#a0c7129019d734a04dfc2d6b6b25dc45d" target="_top" xlink:title="model.GameElementStateFactory.add\lToState">
<polygon fill="white" stroke="black" points="690.5,-247 690.5,-277 889.5,-277 889.5,-247 690.5,-247"/>
<text text-anchor="start" x="698.5" y="-265" font-family="Helvetica,sans-Serif" font-size="10.00">model.GameElementStateFactory.add</text>
<text text-anchor="middle" x="790" y="-254" font-family="Helvetica,sans-Serif" font-size="10.00">ToState</text>
</a>
</g>
</g>
<!-- Node7&#45;&gt;Node10 -->
<g id="edge9" class="edge"><title>Node7&#45;&gt;Node10</title>
<path fill="none" stroke="midnightblue" d="M599.291,-207.028C624.673,-214.58 655.952,-223.838 684,-232 697.623,-235.964 712.254,-240.174 726.139,-244.148"/>
<polygon fill="midnightblue" stroke="midnightblue" points="725.517,-247.61 736.093,-246.993 727.44,-240.879 725.517,-247.61"/>
</g>
<!-- Node11 -->
<g id="node11" class="node"><title>Node11</title>
<g id="a_node11"><a xlink:href="../../dc/d48/classmodel_1_1data_1_1_wizard_data.html#ad9134aa0c85f67b8fd66ff84f7f79cbe" target="_top" xlink:title="model.data.WizardData.get\lWizardDataByType">
<polygon fill="white" stroke="black" points="986,-225 986,-255 1134,-255 1134,-225 986,-225"/>
<text text-anchor="start" x="994" y="-243" font-family="Helvetica,sans-Serif" font-size="10.00">model.data.WizardData.get</text>
<text text-anchor="middle" x="1060" y="-232" font-family="Helvetica,sans-Serif" font-size="10.00">WizardDataByType</text>
</a>
</g>
</g>
<!-- Node7&#45;&gt;Node11 -->
<g id="edge14" class="edge"><title>Node7&#45;&gt;Node11</title>
<path fill="none" stroke="midnightblue" d="M647.635,-201.283C742.991,-210.258 885.858,-223.704 975.674,-232.158"/>
<polygon fill="midnightblue" stroke="midnightblue" points="975.532,-235.66 985.816,-233.112 976.188,-228.69 975.532,-235.66"/>
</g>
<!-- Node12 -->
<g id="node12" class="node"><title>Node12</title>
<g id="a_node12"><a xlink:href="../../d1/d8e/classmodel_1_1_game_element_state_factory.html#a0182be087dfefa408c6194ff5ca55ac1" target="_top" xlink:title="model.GameElementStateFactory.create\lActionWrapper">
<polygon fill="white" stroke="black" points="684,-159 684,-189 896,-189 896,-159 684,-159"/>
<text text-anchor="start" x="692" y="-177" font-family="Helvetica,sans-Serif" font-size="10.00">model.GameElementStateFactory.create</text>
<text text-anchor="middle" x="790" y="-166" font-family="Helvetica,sans-Serif" font-size="10.00">ActionWrapper</text>
</a>
</g>
</g>
<!-- Node7&#45;&gt;Node12 -->
<g id="edge11" class="edge"><title>Node7&#45;&gt;Node12</title>
<path fill="none" stroke="midnightblue" d="M647.656,-184.601C656.205,-183.96 664.904,-183.307 673.57,-182.657"/>
<polygon fill="midnightblue" stroke="midnightblue" points="674.009,-186.134 683.719,-181.896 673.485,-179.154 674.009,-186.134"/>
</g>
<!-- Node13 -->
<g id="node13" class="node"><title>Node13</title>
<g id="a_node13"><a xlink:href="../../dc/d48/classmodel_1_1data_1_1_wizard_data.html#ae19ca8de1e400fb399d702d78c861a81" target="_top" xlink:title="model.data.WizardData.get\lValueByKey">
<polygon fill="white" stroke="black" points="986,-130 986,-160 1134,-160 1134,-130 986,-130"/>
<text text-anchor="start" x="994" y="-148" font-family="Helvetica,sans-Serif" font-size="10.00">model.data.WizardData.get</text>
<text text-anchor="middle" x="1060" y="-137" font-family="Helvetica,sans-Serif" font-size="10.00">ValueByKey</text>
</a>
</g>
</g>
<!-- Node7&#45;&gt;Node13 -->
<g id="edge13" class="edge"><title>Node7&#45;&gt;Node13</title>
<path fill="none" stroke="midnightblue" d="M586.994,-176.948C613.665,-167.187 650.425,-155.331 684,-150 783.389,-134.218 899.459,-135.67 975.839,-139.299"/>
<polygon fill="midnightblue" stroke="midnightblue" points="975.72,-142.797 985.882,-139.8 976.068,-135.806 975.72,-142.797"/>
</g>
<!-- Node14 -->
<g id="node14" class="node"><title>Node14</title>
<g id="a_node14"><a xlink:href="../../da/dc5/classmodel_1_1state_1_1gameelement_1_1_attribute_container.html#a168d6e922a93b11894753a0598c02cf7" target="_top" xlink:title="model.state.gameelement.\lAttributeContainer.setNumerical\lAttribute">
<polygon fill="white" stroke="black" points="704.5,-60.5 704.5,-101.5 875.5,-101.5 875.5,-60.5 704.5,-60.5"/>
<text text-anchor="start" x="712.5" y="-89.5" font-family="Helvetica,sans-Serif" font-size="10.00">model.state.gameelement.</text>
<text text-anchor="start" x="712.5" y="-78.5" font-family="Helvetica,sans-Serif" font-size="10.00">AttributeContainer.setNumerical</text>
<text text-anchor="middle" x="790" y="-67.5" font-family="Helvetica,sans-Serif" font-size="10.00">Attribute</text>
</a>
</g>
</g>
<!-- Node7&#45;&gt;Node14 -->
<g id="edge15" class="edge"><title>Node7&#45;&gt;Node14</title>
<path fill="none" stroke="midnightblue" d="M572.668,-176.835C599.074,-160.358 643.428,-133.984 684,-116 692.735,-112.128 702.039,-108.439 711.36,-105.009"/>
<polygon fill="midnightblue" stroke="midnightblue" points="712.826,-108.202 721.057,-101.532 710.463,-101.613 712.826,-108.202"/>
</g>
<!-- Node16 -->
<g id="node16" class="node"><title>Node16</title>
<g id="a_node16"><a xlink:href="../../da/dc5/classmodel_1_1state_1_1gameelement_1_1_attribute_container.html#a9537867c561e10d0d497563aab33e447" target="_top" xlink:title="model.state.gameelement.\lAttributeContainer.setTextual\lAttribute">
<polygon fill="white" stroke="black" points="712.5,-0.5 712.5,-41.5 867.5,-41.5 867.5,-0.5 712.5,-0.5"/>
<text text-anchor="start" x="720.5" y="-29.5" font-family="Helvetica,sans-Serif" font-size="10.00">model.state.gameelement.</text>
<text text-anchor="start" x="720.5" y="-18.5" font-family="Helvetica,sans-Serif" font-size="10.00">AttributeContainer.setTextual</text>
<text text-anchor="middle" x="790" y="-7.5" font-family="Helvetica,sans-Serif" font-size="10.00">Attribute</text>
</a>
</g>
</g>
<!-- Node7&#45;&gt;Node16 -->
<g id="edge17" class="edge"><title>Node7&#45;&gt;Node16</title>
<path fill="none" stroke="midnightblue" d="M559.327,-176.723C579.702,-147.767 627.99,-84.7809 684,-51 689.89,-47.4475 696.22,-44.2994 702.746,-41.5125"/>
<polygon fill="midnightblue" stroke="midnightblue" points="704.41,-44.6179 712.42,-37.6825 701.833,-38.1094 704.41,-44.6179"/>
</g>
<!-- Node9 -->
<g id="node9" class="node"><title>Node9</title>
<g id="a_node9"><a xlink:href="../../d5/d7f/classengine_1_1game_representation_1_1evaluatables_1_1actions_1_1_action_wrapper.html#aeb7b2a7580e1ba5d6e57a13cc00e9bd5" target="_top" xlink:title="engine.gameRepresentation.evaluatables.actions.\lActionWrapper.getActionType">
<polygon fill="white" stroke="black" points="932,-296 932,-326 1188,-326 1188,-296 932,-296"/>
<text text-anchor="start" x="940" y="-314" font-family="Helvetica,sans-Serif" font-size="10.00">engine.gameRepresentation.evaluatables.actions.</text>
<text text-anchor="middle" x="1060" y="-303" font-family="Helvetica,sans-Serif" font-size="10.00">ActionWrapper.getActionType</text>
</a>
</g>
</g>
<!-- Node8&#45;&gt;Node9 -->
<g id="edge8" class="edge"><title>Node8&#45;&gt;Node9</title>
<path fill="none" stroke="midnightblue" d="M871.772,-311C887.619,-311 904.652,-311 921.755,-311"/>
<polygon fill="midnightblue" stroke="midnightblue" points="921.825,-314.5 931.825,-311 921.825,-307.5 921.825,-314.5"/>
</g>
<!-- Node10&#45;&gt;Node11 -->
<g id="edge10" class="edge"><title>Node10&#45;&gt;Node11</title>
<path fill="none" stroke="midnightblue" d="M889.652,-253.902C917.84,-251.588 948.277,-249.089 975.467,-246.857"/>
<polygon fill="midnightblue" stroke="midnightblue" points="976.037,-250.322 985.717,-246.016 975.464,-243.346 976.037,-250.322"/>
</g>
<!-- Node12&#45;&gt;Node13 -->
<g id="edge12" class="edge"><title>Node12&#45;&gt;Node13</title>
<path fill="none" stroke="midnightblue" d="M896.152,-162.622C922.573,-159.763 950.566,-156.734 975.752,-154.008"/>
<polygon fill="midnightblue" stroke="midnightblue" points="976.425,-157.456 985.991,-152.9 975.672,-150.496 976.425,-157.456"/>
</g>
<!-- Node15 -->
<g id="node15" class="node"><title>Node15</title>
<g id="a_node15"><a xlink:href="../../da/dc5/classmodel_1_1state_1_1gameelement_1_1_attribute_container.html#a03dd9ed123fc97bfc8bce5528b488333" target="_top" xlink:title="model.state.gameelement.\lAttributeContainer.addAttribute">
<polygon fill="white" stroke="black" points="976.5,-51 976.5,-81 1143.5,-81 1143.5,-51 976.5,-51"/>
<text text-anchor="start" x="984.5" y="-69" font-family="Helvetica,sans-Serif" font-size="10.00">model.state.gameelement.</text>
<text text-anchor="middle" x="1060" y="-58" font-family="Helvetica,sans-Serif" font-size="10.00">AttributeContainer.addAttribute</text>
</a>
</g>
</g>
<!-- Node14&#45;&gt;Node15 -->
<g id="edge16" class="edge"><title>Node14&#45;&gt;Node15</title>
<path fill="none" stroke="midnightblue" d="M875.797,-76.2539C904.467,-74.6492 936.627,-72.8493 965.905,-71.2106"/>
<polygon fill="midnightblue" stroke="midnightblue" points="966.341,-74.6917 976.13,-70.6382 965.95,-67.7026 966.341,-74.6917"/>
</g>
<!-- Node16&#45;&gt;Node15 -->
<g id="edge18" class="edge"><title>Node16&#45;&gt;Node15</title>
<path fill="none" stroke="midnightblue" d="M867.798,-33.8952C898.364,-39.0275 933.818,-44.9806 965.834,-50.3564"/>
<polygon fill="midnightblue" stroke="midnightblue" points="965.656,-53.8754 976.097,-52.0797 966.815,-46.9721 965.656,-53.8754"/>
</g>
</g>
</svg>
        <g id="navigator" transform="translate(0 0)" fill="#404254">
                <rect fill="#f2f5e9" fill-opacity="0.5" stroke="#606060" stroke-width=".5" x="0" y="0" width="60" height="60"/>
                <use id="zoomplus" xlink:href="#zoomPlus" x="17" y="9" onmousedown="handleZoom(evt,'in')"/>
                <use id="zoomminus" xlink:href="#zoomMin" x="42" y="9" onmousedown="handleZoom(evt,'out')"/>
                <use id="reset" xlink:href="#resetDef" x="30" y="36" onmousedown="handleReset()"/>
                <g id="arrowUp" xlink:href="#dirArrow" transform="translate(30 24)" onmousedown="handlePan(0,-1)">
                  <use xlink:href="#rim" fill="#404040">
                        <set attributeName="fill" to="#808080" begin="arrowUp.mouseover" end="arrowUp.mouseout"/>
                  </use>
                  <path fill="none" stroke="white" stroke-width="1.5" d="M0,-3.0v7 M-2.5,-0.5L0,-3.0L2.5,-0.5"/>
                </g>
                <g id="arrowRight" xlink:href="#dirArrow" transform="rotate(90) translate(36 -43)" onmousedown="handlePan(1,0)">
                  <use xlink:href="#rim" fill="#404040">
                        <set attributeName="fill" to="#808080" begin="arrowRight.mouseover" end="arrowRight.mouseout"/>
                  </use>
                  <path fill="none" stroke="white" stroke-width="1.5" d="M0,-3.0v7 M-2.5,-0.5L0,-3.0L2.5,-0.5"/>
                </g>
                <g id="arrowDown" xlink:href="#dirArrow" transform="rotate(180) translate(-30 -48)" onmousedown="handlePan(0,1)">
                  <use xlink:href="#rim" fill="#404040">
                        <set attributeName="fill" to="#808080" begin="arrowDown.mouseover" end="arrowDown.mouseout"/>
                  </use>
                  <path fill="none" stroke="white" stroke-width="1.5" d="M0,-3.0v7 M-2.5,-0.5L0,-3.0L2.5,-0.5"/>
                </g>
                <g id="arrowLeft" xlink:href="#dirArrow" transform="rotate(270) translate(-36 17)" onmousedown="handlePan(-1,0)">
                  <use xlink:href="#rim" fill="#404040">
                        <set attributeName="fill" to="#808080" begin="arrowLeft.mouseover" end="arrowLeft.mouseout"/>
                  </use>
                  <path fill="none" stroke="white" stroke-width="1.5" d="M0,-3.0v7 M-2.5,-0.5L0,-3.0L2.5,-0.5"/>
                </g>
        </g>
        <svg viewBox="0 0 15 15" width="100%" height="30px" preserveAspectRatio="xMaxYMin meet">
         <g id="arrow_out" transform="scale(0.3 0.3)">
          <a xlink:href="classmodel_1_1_main_model_a5cd9871b7c458b6efd3599a41e2ff939_cgraph_org.svg" target="_base">
           <rect id="button" ry="5" rx="5" y="6" x="6" height="38" width="38"
                fill="#f2f5e9" fill-opacity="0.5" stroke="#606060" stroke-width="1.0"/>
           <path id="arrow"
             d="M 11.500037,31.436501 C 11.940474,20.09759 22.043105,11.32322 32.158766,21.979434 L 37.068811,17.246167 C 37.068811,17.246167 37.088388,32 37.088388,32 L 22.160133,31.978069 C 22.160133,31.978069 26.997745,27.140456 26.997745,27.140456 C 18.528582,18.264221 13.291696,25.230495 11.500037,31.436501 z"
             style="fill:#404040;"/>
          </a>
         </g>
        </svg>
</svg>
