<?xml version="1.0" encoding="UTF-8" standalone="no"?>
<!DOCTYPE svg PUBLIC "-//W3C//DTD SVG 1.1//EN"
 "http://www.w3.org/Graphics/SVG/1.1/DTD/svg11.dtd">
<!-- Generated by graphviz version 2.36.0 (20140111.2315)
 -->
<!-- Title: model.MainModel.getCurrentGame Pages: 1 -->
<!--zoomable 136 -->
<svg id="main" version="1.1" xmlns="http://www.w3.org/2000/svg" xmlns:xlink="http://www.w3.org/1999/xlink" xml:space="preserve" onload="init(evt)">
<style type="text/css"><![CDATA[
.edge:hover path { stroke: red; }
.edge:hover polygon { stroke: red; fill: red; }
]]></style>
<script type="text/javascript"><![CDATA[
var edges = document.getElementsByTagName('g');
if (edges && edges.length) {
  for (var i=0;i<edges.length;i++) {
    if (edges[i].id.substr(0,4)=='edge') {
      edges[i].setAttribute('class','edge');
    }
  }
}
]]></script>
        <defs>
                <circle id="rim" cx="0" cy="0" r="7"/>
                <circle id="rim2" cx="0" cy="0" r="3.5"/>
                <g id="zoomPlus">
                        <use xlink:href="#rim" fill="#404040">
                                <set attributeName="fill" to="#808080" begin="zoomplus.mouseover" end="zoomplus.mouseout"/>
                        </use>
                        <path d="M-4,0h8M0,-4v8" fill="none" stroke="white" stroke-width="1.5" pointer-events="none"/>
                </g>
                <g id="zoomMin">
                        <use xlink:href="#rim" fill="#404040">
                                <set attributeName="fill" to="#808080" begin="zoomminus.mouseover" end="zoomminus.mouseout"/>
                        </use>
                        <path d="M-4,0h8" fill="none" stroke="white" stroke-width="1.5" pointer-events="none"/>
                </g>
                <g id="dirArrow">
                        <path fill="none" stroke="white" stroke-width="1.5" d="M0,-3.0v7 M-2.5,-0.5L0,-3.0L2.5,-0.5"/>
                </g>
               <g id="resetDef">
                       <use xlink:href="#rim2" fill="#404040">
                               <set attributeName="fill" to="#808080" begin="reset.mouseover" end="reset.mouseout"/>
                       </use>
               </g>
        </defs>

<script type="text/javascript">
var viewWidth = 792;
var viewHeight = 136;
var sectionId = 'dynsection-25';
</script>
<script xlink:href="../../svgpan.js"/>
<svg id="graph" class="graph">
<g id="viewport">
<title>model.MainModel.getCurrentGame</title>
<polygon fill="white" stroke="none" points="-4,4 -4,-132 788,-132 788,4 -4,4"/>
<!-- Node1 -->
<g id="node1" class="node"><title>Node1</title>
<polygon fill="#bfbfbf" stroke="black" points="0.5,-54.5 0.5,-73.5 185.5,-73.5 185.5,-54.5 0.5,-54.5"/>
<text text-anchor="middle" x="93" y="-61.5" font-family="Helvetica,sans-Serif" font-size="10.00">model.MainModel.getCurrentGame</text>
</g>
<!-- Node2 -->
<g id="node2" class="node"><title>Node2</title>
<g id="a_node2"><a xlink:href="../../dc/d0c/classview_1_1editor_1_1_editor_menu_bar_controller.html#a135d33b75dee7e5bb96b8ebd40cbe964" target="_top" xlink:title="view.editor.EditorMenuBar\lController.onNewLevelClick">
<polygon fill="white" stroke="black" points="238,-98 238,-128 382,-128 382,-98 238,-98"/>
<text text-anchor="start" x="246" y="-116" font-family="Helvetica,sans-Serif" font-size="10.00">view.editor.EditorMenuBar</text>
<text text-anchor="middle" x="310" y="-105" font-family="Helvetica,sans-Serif" font-size="10.00">Controller.onNewLevelClick</text>
</a>
</g>
</g>
<!-- Node1&#45;&gt;Node2 -->
<g id="edge1" class="edge"><title>Node1&#45;&gt;Node2</title>
<path fill="none" stroke="midnightblue" d="M145.689,-75.7804C174.86,-82.4286 211.618,-90.806 242.871,-97.9287"/>
<polygon fill="midnightblue" stroke="midnightblue" points="146.237,-72.3155 135.709,-73.5058 144.681,-79.1405 146.237,-72.3155"/>
</g>
<!-- Node5 -->
<g id="node5" class="node"><title>Node5</title>
<g id="a_node5"><a xlink:href="../../d6/d9c/classview_1_1runner_1_1_runner_screen.html#a21f8a6f5340b0800b4698489d14902c0" target="_top" xlink:title="view.runner.RunnerScreen.update\lLevelChooser">
<polygon fill="white" stroke="black" points="222,-49 222,-79 398,-79 398,-49 222,-49"/>
<text text-anchor="start" x="230" y="-67" font-family="Helvetica,sans-Serif" font-size="10.00">view.runner.RunnerScreen.update</text>
<text text-anchor="middle" x="310" y="-56" font-family="Helvetica,sans-Serif" font-size="10.00">LevelChooser</text>
</a>
</g>
</g>
<!-- Node1&#45;&gt;Node5 -->
<g id="edge4" class="edge"><title>Node1&#45;&gt;Node5</title>
<path fill="none" stroke="midnightblue" d="M195.964,-64C204.65,-64 213.385,-64 221.94,-64"/>
<polygon fill="midnightblue" stroke="midnightblue" points="195.803,-60.5001 185.803,-64 195.803,-67.5001 195.803,-60.5001"/>
</g>
<!-- Node7 -->
<g id="node7" class="node"><title>Node7</title>
<g id="a_node7"><a xlink:href="../../d0/db5/classview_1_1editor_1_1_editor_screen.html#a3ef2d43c38446b381267d26326a0bd1f" target="_top" xlink:title="view.editor.EditorScreen.update\lProjectExplorer">
<polygon fill="white" stroke="black" points="226.5,-0 226.5,-30 393.5,-30 393.5,-0 226.5,-0"/>
<text text-anchor="start" x="234.5" y="-18" font-family="Helvetica,sans-Serif" font-size="10.00">view.editor.EditorScreen.update</text>
<text text-anchor="middle" x="310" y="-7" font-family="Helvetica,sans-Serif" font-size="10.00">ProjectExplorer</text>
</a>
</g>
</g>
<!-- Node1&#45;&gt;Node7 -->
<g id="edge6" class="edge"><title>Node1&#45;&gt;Node7</title>
<path fill="none" stroke="midnightblue" d="M145.689,-52.2196C174.86,-45.5714 211.618,-37.194 242.871,-30.0713"/>
<polygon fill="midnightblue" stroke="midnightblue" points="144.681,-48.8595 135.709,-54.4942 146.237,-55.6845 144.681,-48.8595"/>
</g>
<!-- Node3 -->
<g id="node3" class="node"><title>Node3</title>
<g id="a_node3"><a xlink:href="../../dc/d0c/classview_1_1editor_1_1_editor_menu_bar_controller.html#a56696b0f0540d2e86c3e4fe4521717a2" target="_top" xlink:title="view.editor.EditorMenuBar\lController.initFileMenu">
<polygon fill="white" stroke="black" points="451,-98 451,-128 591,-128 591,-98 451,-98"/>
<text text-anchor="start" x="459" y="-116" font-family="Helvetica,sans-Serif" font-size="10.00">view.editor.EditorMenuBar</text>
<text text-anchor="middle" x="521" y="-105" font-family="Helvetica,sans-Serif" font-size="10.00">Controller.initFileMenu</text>
</a>
</g>
</g>
<!-- Node2&#45;&gt;Node3 -->
<g id="edge2" class="edge"><title>Node2&#45;&gt;Node3</title>
<path fill="none" stroke="midnightblue" d="M392.091,-113C411.52,-113 432.088,-113 450.916,-113"/>
<polygon fill="midnightblue" stroke="midnightblue" points="392.05,-109.5 382.049,-113 392.049,-116.5 392.05,-109.5"/>
</g>
<!-- Node4 -->
<g id="node4" class="node"><title>Node4</title>
<g id="a_node4"><a xlink:href="../../dc/d0c/classview_1_1editor_1_1_editor_menu_bar_controller.html#a5b101a400664af0200be8010673acb49" target="_top" xlink:title="view.editor.EditorMenuBar\lController.initMenuBar">
<polygon fill="white" stroke="black" points="644,-98 644,-128 784,-128 784,-98 644,-98"/>
<text text-anchor="start" x="652" y="-116" font-family="Helvetica,sans-Serif" font-size="10.00">view.editor.EditorMenuBar</text>
<text text-anchor="middle" x="714" y="-105" font-family="Helvetica,sans-Serif" font-size="10.00">Controller.initMenuBar</text>
</a>
</g>
</g>
<!-- Node3&#45;&gt;Node4 -->
<g id="edge3" class="edge"><title>Node3&#45;&gt;Node4</title>
<path fill="none" stroke="midnightblue" d="M601.355,-113C615.408,-113 629.942,-113 643.69,-113"/>
<polygon fill="midnightblue" stroke="midnightblue" points="601.225,-109.5 591.225,-113 601.225,-116.5 601.225,-109.5"/>
</g>
<!-- Node6 -->
<g id="node6" class="node"><title>Node6</title>
<g id="a_node6"><a xlink:href="../../d6/d9c/classview_1_1runner_1_1_runner_screen.html#a742de3835851214f6446406033b5f73c" target="_top" xlink:title="view.runner.RunnerScreen.model\lUpdate">
<polygon fill="white" stroke="black" points="434.5,-49 434.5,-79 607.5,-79 607.5,-49 434.5,-49"/>
<text text-anchor="start" x="442.5" y="-67" font-family="Helvetica,sans-Serif" font-size="10.00">view.runner.RunnerScreen.model</text>
<text text-anchor="middle" x="521" y="-56" font-family="Helvetica,sans-Serif" font-size="10.00">Update</text>
</a>
</g>
</g>
<!-- Node5&#45;&gt;Node6 -->
<g id="edge5" class="edge"><title>Node5&#45;&gt;Node6</title>
<path fill="none" stroke="midnightblue" d="M408.293,-64C416.997,-64 425.768,-64 434.362,-64"/>
<polygon fill="midnightblue" stroke="midnightblue" points="408.121,-60.5001 398.121,-64 408.121,-67.5001 408.121,-60.5001"/>
</g>
<!-- Node8 -->
<g id="node8" class="node"><title>Node8</title>
<g id="a_node8"><a xlink:href="../../d0/db5/classview_1_1editor_1_1_editor_screen.html#a46b5e664f69da1947e605de4336f09cf" target="_top" xlink:title="view.editor.EditorScreen.model\lUpdate">
<polygon fill="white" stroke="black" points="439,-0 439,-30 603,-30 603,-0 439,-0"/>
<text text-anchor="start" x="447" y="-18" font-family="Helvetica,sans-Serif" font-size="10.00">view.editor.EditorScreen.model</text>
<text text-anchor="middle" x="521" y="-7" font-family="Helvetica,sans-Serif" font-size="10.00">Update</text>
</a>
</g>
</g>
<!-- Node7&#45;&gt;Node8 -->
<g id="edge7" class="edge"><title>Node7&#45;&gt;Node8</title>
<path fill="none" stroke="midnightblue" d="M403.764,-15C415.402,-15 427.237,-15 438.681,-15"/>
<polygon fill="midnightblue" stroke="midnightblue" points="403.602,-11.5001 393.602,-15 403.602,-18.5001 403.602,-11.5001"/>
</g>
</g>
</svg>
        <g id="navigator" transform="translate(0 0)" fill="#404254">
                <rect fill="#f2f5e9" fill-opacity="0.5" stroke="#606060" stroke-width=".5" x="0" y="0" width="60" height="60"/>
                <use id="zoomplus" xlink:href="#zoomPlus" x="17" y="9" onmousedown="handleZoom(evt,'in')"/>
                <use id="zoomminus" xlink:href="#zoomMin" x="42" y="9" onmousedown="handleZoom(evt,'out')"/>
                <use id="reset" xlink:href="#resetDef" x="30" y="36" onmousedown="handleReset()"/>
                <g id="arrowUp" xlink:href="#dirArrow" transform="translate(30 24)" onmousedown="handlePan(0,-1)">
                  <use xlink:href="#rim" fill="#404040">
                        <set attributeName="fill" to="#808080" begin="arrowUp.mouseover" end="arrowUp.mouseout"/>
                  </use>
                  <path fill="none" stroke="white" stroke-width="1.5" d="M0,-3.0v7 M-2.5,-0.5L0,-3.0L2.5,-0.5"/>
                </g>
                <g id="arrowRight" xlink:href="#dirArrow" transform="rotate(90) translate(36 -43)" onmousedown="handlePan(1,0)">
                  <use xlink:href="#rim" fill="#404040">
                        <set attributeName="fill" to="#808080" begin="arrowRight.mouseover" end="arrowRight.mouseout"/>
                  </use>
                  <path fill="none" stroke="white" stroke-width="1.5" d="M0,-3.0v7 M-2.5,-0.5L0,-3.0L2.5,-0.5"/>
                </g>
                <g id="arrowDown" xlink:href="#dirArrow" transform="rotate(180) translate(-30 -48)" onmousedown="handlePan(0,1)">
                  <use xlink:href="#rim" fill="#404040">
                        <set attributeName="fill" to="#808080" begin="arrowDown.mouseover" end="arrowDown.mouseout"/>
                  </use>
                  <path fill="none" stroke="white" stroke-width="1.5" d="M0,-3.0v7 M-2.5,-0.5L0,-3.0L2.5,-0.5"/>
                </g>
                <g id="arrowLeft" xlink:href="#dirArrow" transform="rotate(270) translate(-36 17)" onmousedown="handlePan(-1,0)">
                  <use xlink:href="#rim" fill="#404040">
                        <set attributeName="fill" to="#808080" begin="arrowLeft.mouseover" end="arrowLeft.mouseout"/>
                  </use>
                  <path fill="none" stroke="white" stroke-width="1.5" d="M0,-3.0v7 M-2.5,-0.5L0,-3.0L2.5,-0.5"/>
                </g>
        </g>
        <svg viewBox="0 0 15 15" width="100%" height="30px" preserveAspectRatio="xMaxYMin meet">
         <g id="arrow_out" transform="scale(0.3 0.3)">
          <a xlink:href="classmodel_1_1_main_model_afd2d3b70172d1f06ef47225fe09c0888_icgraph_org.svg" target="_base">
           <rect id="button" ry="5" rx="5" y="6" x="6" height="38" width="38"
                fill="#f2f5e9" fill-opacity="0.5" stroke="#606060" stroke-width="1.0"/>
           <path id="arrow"
             d="M 11.500037,31.436501 C 11.940474,20.09759 22.043105,11.32322 32.158766,21.979434 L 37.068811,17.246167 C 37.068811,17.246167 37.088388,32 37.088388,32 L 22.160133,31.978069 C 22.160133,31.978069 26.997745,27.140456 26.997745,27.140456 C 18.528582,18.264221 13.291696,25.230495 11.500037,31.436501 z"
             style="fill:#404040;"/>
          </a>
         </g>
        </svg>
</svg>
