<?xml version="1.0" encoding="UTF-8" standalone="no"?>
<!DOCTYPE svg PUBLIC "-//W3C//DTD SVG 1.1//EN"
 "http://www.w3.org/Graphics/SVG/1.1/DTD/svg11.dtd">
<!-- Generated by graphviz version 2.36.0 (20140111.2315)
 -->
<!-- Title: model.MainModel.clearEditorChosen Pages: 1 -->
<svg width="806pt" height="189pt"
 viewBox="0.00 0.00 806.00 189.00" xmlns="http://www.w3.org/2000/svg" xmlns:xlink="http://www.w3.org/1999/xlink">
<g id="graph0" class="graph" transform="scale(1 1) rotate(0) translate(4 185)">
<title>model.MainModel.clearEditorChosen</title>
<polygon fill="white" stroke="none" points="-4,4 -4,-185 802,-185 802,4 -4,4"/>
<!-- Node1 -->
<g id="node1" class="node"><title>Node1</title>
<polygon fill="#bfbfbf" stroke="black" points="0.5,-87 0.5,-117 155.5,-117 155.5,-87 0.5,-87"/>
<text text-anchor="start" x="8.5" y="-105" font-family="Helvetica,sans-Serif" font-size="10.00">model.MainModel.clearEditor</text>
<text text-anchor="middle" x="78" y="-94" font-family="Helvetica,sans-Serif" font-size="10.00">Chosen</text>
</g>
<!-- Node2 -->
<g id="node2" class="node"><title>Node2</title>
<g id="a_node2"><a xlink:href="../../de/d21/classmodel_1_1_main_model.html#aab28c05fe06c21453bcc1a62e54709d9" target="_top" xlink:title="model.MainModel.MainModel">
<polygon fill="white" stroke="black" points="213.5,-161.5 213.5,-180.5 368.5,-180.5 368.5,-161.5 213.5,-161.5"/>
<text text-anchor="middle" x="291" y="-168.5" font-family="Helvetica,sans-Serif" font-size="10.00">model.MainModel.MainModel</text>
</a>
</g>
</g>
<!-- Node1&#45;&gt;Node2 -->
<g id="edge1" class="edge"><title>Node1&#45;&gt;Node2</title>
<path fill="none" stroke="midnightblue" d="M118.135,-121.366C139.543,-131.344 166.773,-143.051 192,-151 205.084,-155.123 219.425,-158.605 233.002,-161.451"/>
<polygon fill="midnightblue" stroke="midnightblue" points="119.575,-118.176 109.039,-117.068 116.585,-124.505 119.575,-118.176"/>
</g>
<!-- Node3 -->
<g id="node3" class="node"><title>Node3</title>
<g id="a_node3"><a xlink:href="../../d6/d14/classengine_1_1_u_i_1_1_editor_input_manager.html#a3bf1a3596ba0f8e5f8586a9522da7397" target="_top" xlink:title="engine.UI.EditorInputManager.primary\lClickOccurred">
<polygon fill="white" stroke="black" points="192.5,-112 192.5,-142 389.5,-142 389.5,-112 192.5,-112"/>
<text text-anchor="start" x="200.5" y="-130" font-family="Helvetica,sans-Serif" font-size="10.00">engine.UI.EditorInputManager.primary</text>
<text text-anchor="middle" x="291" y="-119" font-family="Helvetica,sans-Serif" font-size="10.00">ClickOccurred</text>
</a>
</g>
</g>
<!-- Node1&#45;&gt;Node3 -->
<g id="edge2" class="edge"><title>Node1&#45;&gt;Node3</title>
<path fill="none" stroke="midnightblue" d="M165.925,-112.299C174.654,-113.333 183.558,-114.388 192.388,-115.435"/>
<polygon fill="midnightblue" stroke="midnightblue" points="166.115,-108.797 155.773,-111.096 165.291,-115.749 166.115,-108.797"/>
</g>
<!-- Node4 -->
<g id="node4" class="node"><title>Node4</title>
<g id="a_node4"><a xlink:href="../../de/d21/classmodel_1_1_main_model.html#a10b881974c2cb51d6340030a675a99d2" target="_top" xlink:title="model.MainModel.setEditor\lChosenDrawable">
<polygon fill="white" stroke="black" points="218,-63 218,-93 364,-93 364,-63 218,-63"/>
<text text-anchor="start" x="226" y="-81" font-family="Helvetica,sans-Serif" font-size="10.00">model.MainModel.setEditor</text>
<text text-anchor="middle" x="291" y="-70" font-family="Helvetica,sans-Serif" font-size="10.00">ChosenDrawable</text>
</a>
</g>
</g>
<!-- Node1&#45;&gt;Node4 -->
<g id="edge3" class="edge"><title>Node1&#45;&gt;Node4</title>
<path fill="none" stroke="midnightblue" d="M165.857,-92.1205C183.144,-90.1542 201.122,-88.1094 217.852,-86.2065"/>
<polygon fill="midnightblue" stroke="midnightblue" points="165.313,-88.6597 155.773,-93.2676 166.104,-95.6149 165.313,-88.6597"/>
</g>
<!-- Node7 -->
<g id="node7" class="node"><title>Node7</title>
<g id="a_node7"><a xlink:href="../../de/d21/classmodel_1_1_main_model.html#a1a577f1ab36509882c2b5c16c1361e7a" target="_top" xlink:title="model.MainModel.setEditor\lChosenSelectable">
<polygon fill="white" stroke="black" points="218,-11 218,-41 364,-41 364,-11 218,-11"/>
<text text-anchor="start" x="226" y="-29" font-family="Helvetica,sans-Serif" font-size="10.00">model.MainModel.setEditor</text>
<text text-anchor="middle" x="291" y="-18" font-family="Helvetica,sans-Serif" font-size="10.00">ChosenSelectable</text>
</a>
</g>
</g>
<!-- Node1&#45;&gt;Node7 -->
<g id="edge6" class="edge"><title>Node1&#45;&gt;Node7</title>
<path fill="none" stroke="midnightblue" d="M121.008,-82.6944C142.075,-73.3891 168.127,-62.4446 192,-54 205.095,-49.3679 219.374,-44.9437 232.88,-41.0356"/>
<polygon fill="midnightblue" stroke="midnightblue" points="119.415,-79.5725 111.705,-86.8396 122.264,-85.9664 119.415,-79.5725"/>
</g>
<!-- Node5 -->
<g id="node5" class="node"><title>Node5</title>
<g id="a_node5"><a xlink:href="../../d9/dfb/classview_1_1editor_1_1_element_accordion_controller.html#aec4ee01f416c20ae8de07cbbe29087f7" target="_top" xlink:title="view.editor.ElementAccordion\lController.editorChooseDrawable\lElement">
<polygon fill="white" stroke="black" points="429.5,-60.5 429.5,-101.5 602.5,-101.5 602.5,-60.5 429.5,-60.5"/>
<text text-anchor="start" x="437.5" y="-89.5" font-family="Helvetica,sans-Serif" font-size="10.00">view.editor.ElementAccordion</text>
<text text-anchor="start" x="437.5" y="-78.5" font-family="Helvetica,sans-Serif" font-size="10.00">Controller.editorChooseDrawable</text>
<text text-anchor="middle" x="516" y="-67.5" font-family="Helvetica,sans-Serif" font-size="10.00">Element</text>
</a>
</g>
</g>
<!-- Node4&#45;&gt;Node5 -->
<g id="edge4" class="edge"><title>Node4&#45;&gt;Node5</title>
<path fill="none" stroke="midnightblue" d="M374.206,-79.1059C392.114,-79.3468 411.107,-79.6023 429.152,-79.8451"/>
<polygon fill="midnightblue" stroke="midnightblue" points="374.14,-75.6048 364.094,-78.9699 374.046,-82.6042 374.14,-75.6048"/>
</g>
<!-- Node6 -->
<g id="node6" class="node"><title>Node6</title>
<g id="a_node6"><a xlink:href="../../d9/dfb/classview_1_1editor_1_1_element_accordion_controller.html#af80453486ff349552dab988fb64397c0" target="_top" xlink:title="view.editor.ElementAccordion\lController.init">
<polygon fill="white" stroke="black" points="642,-36 642,-66 798,-66 798,-36 642,-36"/>
<text text-anchor="start" x="650" y="-54" font-family="Helvetica,sans-Serif" font-size="10.00">view.editor.ElementAccordion</text>
<text text-anchor="middle" x="720" y="-43" font-family="Helvetica,sans-Serif" font-size="10.00">Controller.init</text>
</a>
</g>
</g>
<!-- Node5&#45;&gt;Node6 -->
<g id="edge5" class="edge"><title>Node5&#45;&gt;Node6</title>
<path fill="none" stroke="midnightblue" d="M612.783,-66.7747C622.529,-65.3273 632.34,-63.8703 641.851,-62.4577"/>
<polygon fill="midnightblue" stroke="midnightblue" points="612.044,-63.3462 602.666,-68.2773 613.072,-70.2702 612.044,-63.3462"/>
</g>
<!-- Node8 -->
<g id="node8" class="node"><title>Node8</title>
<g id="a_node8"><a xlink:href="../../d9/dfb/classview_1_1editor_1_1_element_accordion_controller.html#ae997861fef74f40d6202453edd3f87b5" target="_top" xlink:title="view.editor.ElementAccordion\lController.editorChooseSelectable\lElement">
<polygon fill="white" stroke="black" points="426.5,-0.5 426.5,-41.5 605.5,-41.5 605.5,-0.5 426.5,-0.5"/>
<text text-anchor="start" x="434.5" y="-29.5" font-family="Helvetica,sans-Serif" font-size="10.00">view.editor.ElementAccordion</text>
<text text-anchor="start" x="434.5" y="-18.5" font-family="Helvetica,sans-Serif" font-size="10.00">Controller.editorChooseSelectable</text>
<text text-anchor="middle" x="516" y="-7.5" font-family="Helvetica,sans-Serif" font-size="10.00">Element</text>
</a>
</g>
</g>
<!-- Node7&#45;&gt;Node8 -->
<g id="edge7" class="edge"><title>Node7&#45;&gt;Node8</title>
<path fill="none" stroke="midnightblue" d="M374.484,-24.1506C391.394,-23.7714 409.261,-23.3708 426.376,-22.9871"/>
<polygon fill="midnightblue" stroke="midnightblue" points="374.013,-20.6602 364.094,-24.3835 374.17,-27.6584 374.013,-20.6602"/>
</g>
<!-- Node8&#45;&gt;Node6 -->
<g id="edge8" class="edge"><title>Node8&#45;&gt;Node6</title>
<path fill="none" stroke="midnightblue" d="M615.553,-35.6366C624.39,-36.949 633.253,-38.2652 641.869,-39.5449"/>
<polygon fill="midnightblue" stroke="midnightblue" points="616.006,-32.1655 605.6,-34.1584 614.977,-39.0896 616.006,-32.1655"/>
</g>
</g>
</svg>
