<?xml version="1.0" encoding="UTF-8" standalone="no"?>
<!DOCTYPE svg PUBLIC "-//W3C//DTD SVG 1.1//EN"
 "http://www.w3.org/Graphics/SVG/1.1/DTD/svg11.dtd">
<!-- Generated by graphviz version 2.36.0 (20140111.2315)
 -->
<!-- Title: engine.gameRepresentation.renderedRepresentation.SelectableGameElement Pages: 1 -->
<svg width="696pt" height="126pt"
 viewBox="0.00 0.00 696.00 126.00" xmlns="http://www.w3.org/2000/svg" xmlns:xlink="http://www.w3.org/1999/xlink">
<g id="graph0" class="graph" transform="scale(1 1) rotate(0) translate(4 122)">
<title>engine.gameRepresentation.renderedRepresentation.SelectableGameElement</title>
<polygon fill="white" stroke="none" points="-4,4 -4,-122 692,-122 692,4 -4,4"/>
<!-- Node1 -->
<g id="node1" class="node"><title>Node1</title>
<polygon fill="#bfbfbf" stroke="black" points="476.5,-44 476.5,-74 687.5,-74 687.5,-44 476.5,-44"/>
<text text-anchor="start" x="484.5" y="-62" font-family="Helvetica,sans-Serif" font-size="10.00">engine.gameRepresentation.rendered</text>
<text text-anchor="middle" x="582" y="-51" font-family="Helvetica,sans-Serif" font-size="10.00">Representation.SelectableGameElement</text>
</g>
<!-- Node2 -->
<g id="node2" class="node"><title>Node2</title>
<g id="a_node2"><a xlink:href="../../d8/d2f/classengine_1_1game_representation_1_1rendered_representation_1_1_drawable_game_element.html" target="_top" xlink:title="engine.gameRepresentation.rendered\lRepresentation.DrawableGameElement">
<polygon fill="white" stroke="black" points="234.5,-44 234.5,-74 439.5,-74 439.5,-44 234.5,-44"/>
<text text-anchor="start" x="242.5" y="-62" font-family="Helvetica,sans-Serif" font-size="10.00">engine.gameRepresentation.rendered</text>
<text text-anchor="middle" x="337" y="-51" font-family="Helvetica,sans-Serif" font-size="10.00">Representation.DrawableGameElement</text>
</a>
</g>
</g>
<!-- Node2&#45;&gt;Node1 -->
<g id="edge1" class="edge"><title>Node2&#45;&gt;Node1</title>
<path fill="none" stroke="midnightblue" d="M449.904,-59C458.678,-59 467.52,-59 476.244,-59"/>
<polygon fill="midnightblue" stroke="midnightblue" points="449.646,-55.5001 439.646,-59 449.646,-62.5001 449.646,-55.5001"/>
</g>
<!-- Node3 -->
<g id="node3" class="node"><title>Node3</title>
<g id="a_node3"><a xlink:href="../../d4/de2/classengine_1_1game_representation_1_1rendered_representation_1_1_game_element.html" target="_top" xlink:title="engine.gameRepresentation.rendered\lRepresentation.GameElement">
<polygon fill="white" stroke="black" points="0,-88 0,-118 198,-118 198,-88 0,-88"/>
<text text-anchor="start" x="8" y="-106" font-family="Helvetica,sans-Serif" font-size="10.00">engine.gameRepresentation.rendered</text>
<text text-anchor="middle" x="99" y="-95" font-family="Helvetica,sans-Serif" font-size="10.00">Representation.GameElement</text>
</a>
</g>
</g>
<!-- Node3&#45;&gt;Node2 -->
<g id="edge2" class="edge"><title>Node3&#45;&gt;Node2</title>
<path fill="none" stroke="midnightblue" d="M190.59,-86.1103C211.931,-82.1315 234.538,-77.9166 255.405,-74.0262"/>
<polygon fill="midnightblue" stroke="midnightblue" points="189.747,-82.7071 180.558,-87.9808 191.03,-89.5886 189.747,-82.7071"/>
</g>
<!-- Node4 -->
<g id="node4" class="node"><title>Node4</title>
<g id="a_node4"><a xlink:href="../../d4/d6c/interfaceengine_1_1visuals_1_1_displayable.html" target="_top" xlink:title="engine.visuals.Displayable">
<polygon fill="white" stroke="black" points="28,-49.5 28,-68.5 170,-68.5 170,-49.5 28,-49.5"/>
<text text-anchor="middle" x="99" y="-56.5" font-family="Helvetica,sans-Serif" font-size="10.00">engine.visuals.Displayable</text>
</a>
</g>
</g>
<!-- Node4&#45;&gt;Node2 -->
<g id="edge3" class="edge"><title>Node4&#45;&gt;Node2</title>
<path fill="none" stroke="midnightblue" d="M180.233,-59C197.588,-59 216.162,-59 234.218,-59"/>
<polygon fill="midnightblue" stroke="midnightblue" points="180.169,-55.5001 170.169,-59 180.169,-62.5001 180.169,-55.5001"/>
</g>
<!-- Node5 -->
<g id="node5" class="node"><title>Node5</title>
<g id="a_node5"><a xlink:href="../../d6/def/interfacemodel_1_1state_1_1gameelement_1_1traits_1_1_boundable.html" target="_top" xlink:title="model.state.gameelement.traits.\lBoundable">
<polygon fill="white" stroke="black" points="11,-0 11,-30 187,-30 187,-0 11,-0"/>
<text text-anchor="start" x="19" y="-18" font-family="Helvetica,sans-Serif" font-size="10.00">model.state.gameelement.traits.</text>
<text text-anchor="middle" x="99" y="-7" font-family="Helvetica,sans-Serif" font-size="10.00">Boundable</text>
</a>
</g>
</g>
<!-- Node5&#45;&gt;Node2 -->
<g id="edge4" class="edge"><title>Node5&#45;&gt;Node2</title>
<path fill="none" stroke="midnightblue" d="M190.59,-31.8897C211.931,-35.8685 234.538,-40.0834 255.405,-43.9738"/>
<polygon fill="midnightblue" stroke="midnightblue" points="191.03,-28.4114 180.558,-30.0192 189.747,-35.2929 191.03,-28.4114"/>
</g>
</g>
</svg>
