<?xml version="1.0" encoding="UTF-8" standalone="no"?>
<!DOCTYPE svg PUBLIC "-//W3C//DTD SVG 1.1//EN"
 "http://www.w3.org/Graphics/SVG/1.1/DTD/svg11.dtd">
<!-- Generated by graphviz version 2.36.0 (20140111.2315)
 -->
<!-- Title: game_engine.gameRepresentation.stateRepresentation.gameElement.traits.Updatable Pages: 1 -->
<svg width="363pt" height="176pt"
 viewBox="0.00 0.00 363.00 176.00" xmlns="http://www.w3.org/2000/svg" xmlns:xlink="http://www.w3.org/1999/xlink">
<g id="graph0" class="graph" transform="scale(1 1) rotate(0) translate(4 172)">
<title>game_engine.gameRepresentation.stateRepresentation.gameElement.traits.Updatable</title>
<polygon fill="white" stroke="none" points="-4,4 -4,-172 359,-172 359,4 -4,4"/>
<!-- Node1 -->
<g id="node1" class="node"><title>Node1</title>
<polygon fill="#bfbfbf" stroke="black" points="57.5,-137 57.5,-167 296.5,-167 296.5,-137 57.5,-137"/>
<text text-anchor="start" x="65.5" y="-155" font-family="Helvetica,sans-Serif" font-size="10.00">game_engine.gameRepresentation.state</text>
<text text-anchor="middle" x="177" y="-144" font-family="Helvetica,sans-Serif" font-size="10.00">Representation.gameElement.traits.Updatable</text>
</g>
<!-- Node2 -->
<g id="node2" class="node"><title>Node2</title>
<g id="a_node2"><a xlink:href="../../d7/d49/classgame__engine_1_1visuals_1_1_animation_player.html" target="_top" xlink:title="game_engine.visuals.Animation\lPlayer">
<polygon fill="white" stroke="black" points="-0.5,-69 -0.5,-99 168.5,-99 168.5,-69 -0.5,-69"/>
<text text-anchor="start" x="7.5" y="-87" font-family="Helvetica,sans-Serif" font-size="10.00">game_engine.visuals.Animation</text>
<text text-anchor="middle" x="84" y="-76" font-family="Helvetica,sans-Serif" font-size="10.00">Player</text>
</a>
</g>
</g>
<!-- Node1&#45;&gt;Node2 -->
<g id="edge1" class="edge"><title>Node1&#45;&gt;Node2</title>
<path fill="none" stroke="midnightblue" d="M148.661,-130.888C134.164,-120.6 116.873,-108.329 103.821,-99.0663"/>
<polygon fill="midnightblue" stroke="midnightblue" points="146.64,-133.746 156.82,-136.679 150.691,-128.037 146.64,-133.746"/>
</g>
<!-- Node3 -->
<g id="node3" class="node"><title>Node3</title>
<g id="a_node3"><a xlink:href="../../d4/d58/classgame__engine_1_1visuals_1_1_animation_sequence.html" target="_top" xlink:title="game_engine.visuals.Animation\lSequence">
<polygon fill="white" stroke="black" points="186.5,-69 186.5,-99 355.5,-99 355.5,-69 186.5,-69"/>
<text text-anchor="start" x="194.5" y="-87" font-family="Helvetica,sans-Serif" font-size="10.00">game_engine.visuals.Animation</text>
<text text-anchor="middle" x="271" y="-76" font-family="Helvetica,sans-Serif" font-size="10.00">Sequence</text>
</a>
</g>
</g>
<!-- Node1&#45;&gt;Node3 -->
<g id="edge2" class="edge"><title>Node1&#45;&gt;Node3</title>
<path fill="none" stroke="midnightblue" d="M205.644,-130.888C220.297,-120.6 237.773,-108.329 250.966,-99.0663"/>
<polygon fill="midnightblue" stroke="midnightblue" points="203.57,-128.068 197.397,-136.679 207.592,-133.797 203.57,-128.068"/>
</g>
<!-- Node4 -->
<g id="node4" class="node"><title>Node4</title>
<g id="a_node4"><a xlink:href="../../d6/dd2/classgame__engine_1_1visuals_1_1_null_animation_sequence.html" target="_top" xlink:title="game_engine.visuals.Null\lAnimationSequence">
<polygon fill="white" stroke="black" points="202,-1 202,-31 340,-31 340,-1 202,-1"/>
<text text-anchor="start" x="210" y="-19" font-family="Helvetica,sans-Serif" font-size="10.00">game_engine.visuals.Null</text>
<text text-anchor="middle" x="271" y="-8" font-family="Helvetica,sans-Serif" font-size="10.00">AnimationSequence</text>
</a>
</g>
</g>
<!-- Node3&#45;&gt;Node4 -->
<g id="edge3" class="edge"><title>Node3&#45;&gt;Node4</title>
<path fill="none" stroke="midnightblue" d="M271,-58.5322C271,-49.3606 271,-39.2449 271,-31.2931"/>
<polygon fill="midnightblue" stroke="midnightblue" points="267.5,-58.6789 271,-68.679 274.5,-58.679 267.5,-58.6789"/>
</g>
</g>
</svg>
