<?xml version="1.0" encoding="UTF-8" standalone="no"?>
<!DOCTYPE svg PUBLIC "-//W3C//DTD SVG 1.1//EN"
 "http://www.w3.org/Graphics/SVG/1.1/DTD/svg11.dtd">
<!-- Generated by graphviz version 2.36.0 (20140111.2315)
 -->
<!-- Title: engine.users.Participant Pages: 1 -->
<svg width="333pt" height="140pt"
 viewBox="0.00 0.00 333.00 140.00" xmlns="http://www.w3.org/2000/svg" xmlns:xlink="http://www.w3.org/1999/xlink">
<g id="graph0" class="graph" transform="scale(1 1) rotate(0) translate(4 136)">
<title>engine.users.Participant</title>
<polygon fill="white" stroke="none" points="-4,4 -4,-136 329,-136 329,4 -4,4"/>
<!-- Node1 -->
<g id="node1" class="node"><title>Node1</title>
<polygon fill="#bfbfbf" stroke="black" points="90.5,-56.5 90.5,-75.5 221.5,-75.5 221.5,-56.5 90.5,-56.5"/>
<text text-anchor="middle" x="156" y="-63.5" font-family="Helvetica,sans-Serif" font-size="10.00">engine.users.Participant</text>
</g>
<!-- Node4 -->
<g id="node4" class="node"><title>Node4</title>
<g id="a_node4"><a xlink:href="../../d6/d98/classengine_1_1users_1_1_a_i_participant.html" target="_top" xlink:title="engine.users.AIParticipant">
<polygon fill="white" stroke="black" points="0,-0.5 0,-19.5 140,-19.5 140,-0.5 0,-0.5"/>
<text text-anchor="middle" x="70" y="-7.5" font-family="Helvetica,sans-Serif" font-size="10.00">engine.users.AIParticipant</text>
</a>
</g>
</g>
<!-- Node1&#45;&gt;Node4 -->
<g id="edge3" class="edge"><title>Node1&#45;&gt;Node4</title>
<path fill="none" stroke="midnightblue" d="M133.545,-50.9005C117.776,-40.9986 97.1864,-28.0705 83.7831,-19.6545"/>
<polygon fill="midnightblue" stroke="midnightblue" points="131.852,-53.9704 142.183,-56.324 135.575,-48.0421 131.852,-53.9704"/>
</g>
<!-- Node5 -->
<g id="node5" class="node"><title>Node5</title>
<g id="a_node5"><a xlink:href="../../dc/d65/classengine_1_1users_1_1_human_participant.html" target="_top" xlink:title="engine.users.HumanParticipant">
<polygon fill="white" stroke="black" points="158.5,-0.5 158.5,-19.5 325.5,-19.5 325.5,-0.5 158.5,-0.5"/>
<text text-anchor="middle" x="242" y="-7.5" font-family="Helvetica,sans-Serif" font-size="10.00">engine.users.HumanParticipant</text>
</a>
</g>
</g>
<!-- Node1&#45;&gt;Node5 -->
<g id="edge4" class="edge"><title>Node1&#45;&gt;Node5</title>
<path fill="none" stroke="midnightblue" d="M178.455,-50.9005C194.224,-40.9986 214.814,-28.0705 228.217,-19.6545"/>
<polygon fill="midnightblue" stroke="midnightblue" points="176.425,-48.0421 169.817,-56.324 180.148,-53.9704 176.425,-48.0421"/>
</g>
<!-- Node2 -->
<g id="node2" class="node"><title>Node2</title>
<g id="a_node2"><a xlink:href="../../df/d74/interfaceutil_1_1_j_s_o_nable.html" target="_top" xlink:title="util.JSONable">
<polygon fill="white" stroke="black" points="71,-112.5 71,-131.5 149,-131.5 149,-112.5 71,-112.5"/>
<text text-anchor="middle" x="110" y="-119.5" font-family="Helvetica,sans-Serif" font-size="10.00">util.JSONable</text>
</a>
</g>
</g>
<!-- Node2&#45;&gt;Node1 -->
<g id="edge1" class="edge"><title>Node2&#45;&gt;Node1</title>
<path fill="none" stroke="midnightblue" d="M124.114,-104.431C132.176,-94.9673 141.959,-83.4827 148.545,-75.7511"/>
<polygon fill="midnightblue" stroke="midnightblue" points="121.416,-102.201 117.596,-112.083 126.745,-106.74 121.416,-102.201"/>
</g>
<!-- Node3 -->
<g id="node3" class="node"><title>Node3</title>
<polygon fill="white" stroke="#bfbfbf" points="167.5,-112.5 167.5,-131.5 238.5,-131.5 238.5,-112.5 167.5,-112.5"/>
<text text-anchor="middle" x="203" y="-119.5" font-family="Helvetica,sans-Serif" font-size="10.00">Serializable</text>
</g>
<!-- Node3&#45;&gt;Node1 -->
<g id="edge2" class="edge"><title>Node3&#45;&gt;Node1</title>
<path fill="none" stroke="midnightblue" d="M188.579,-104.431C180.342,-94.9673 170.346,-83.4827 163.617,-75.7511"/>
<polygon fill="midnightblue" stroke="midnightblue" points="186.034,-106.838 195.239,-112.083 191.314,-102.242 186.034,-106.838"/>
</g>
</g>
</svg>
