<?xml version="1.0" encoding="UTF-8" standalone="no"?>
<!DOCTYPE svg PUBLIC "-//W3C//DTD SVG 1.1//EN"
 "http://www.w3.org/Graphics/SVG/1.1/DTD/svg11.dtd">
<!-- Generated by graphviz version 2.36.0 (20140111.2315)
 -->
<!-- Title: view.splash.SplashScreen.init Pages: 1 -->
<svg width="1700pt" height="688pt"
 viewBox="0.00 0.00 1700.00 687.99" xmlns="http://www.w3.org/2000/svg" xmlns:xlink="http://www.w3.org/1999/xlink">
<g id="graph0" class="graph" transform="scale(1 1) rotate(0) translate(4 683.99)">
<title>view.splash.SplashScreen.init</title>
<polygon fill="white" stroke="none" points="-4,4 -4,-683.99 1696,-683.99 1696,4 -4,4"/>
<!-- Node1 -->
<g id="node1" class="node"><title>Node1</title>
<polygon fill="#bfbfbf" stroke="black" points="0,-288.119 0,-307.119 156,-307.119 156,-288.119 0,-288.119"/>
<text text-anchor="middle" x="78" y="-295.119" font-family="Helvetica,sans-Serif" font-size="10.00">view.splash.SplashScreen.init</text>
</g>
<!-- Node2 -->
<g id="node2" class="node"><title>Node2</title>
<g id="a_node2"><a xlink:href="../../d8/d1e/classview_1_1dialog_1_1_dialog_box_utility.html#a9b51f9af82adaed09caacee651b8f566" target="_top" xlink:title="view.dialog.DialogBoxUtility.create\lMessageDialog">
<polygon fill="white" stroke="black" points="1043,-129.619 1043,-159.619 1221,-159.619 1221,-129.619 1043,-129.619"/>
<text text-anchor="start" x="1051" y="-147.619" font-family="Helvetica,sans-Serif" font-size="10.00">view.dialog.DialogBoxUtility.create</text>
<text text-anchor="middle" x="1132" y="-136.619" font-family="Helvetica,sans-Serif" font-size="10.00">MessageDialog</text>
</a>
</g>
</g>
<!-- Node1&#45;&gt;Node2 -->
<g id="edge1" class="edge"><title>Node1&#45;&gt;Node2</title>
<path fill="none" stroke="midnightblue" d="M97.2622,-287.996C119.175,-276.854 157.309,-258.742 192,-248.619 278.416,-223.404 303.092,-230.721 392,-216.619 564.407,-189.274 606.202,-171.941 780,-155.619 865.047,-147.633 962.14,-145.093 1032.62,-144.431"/>
<polygon fill="midnightblue" stroke="midnightblue" points="1032.85,-147.929 1042.82,-144.347 1032.79,-140.93 1032.85,-147.929"/>
</g>
<!-- Node8 -->
<g id="node8" class="node"><title>Node8</title>
<g id="a_node8"><a xlink:href="../../d0/d3f/classview_1_1splash_1_1_splash_screen.html#a325406adfc4f126519e952a07081546f" target="_top" xlink:title="view.splash.SplashScreen.draw\lTitle">
<polygon fill="white" stroke="black" points="192,-307.619 192,-337.619 356,-337.619 356,-307.619 192,-307.619"/>
<text text-anchor="start" x="200" y="-325.619" font-family="Helvetica,sans-Serif" font-size="10.00">view.splash.SplashScreen.draw</text>
<text text-anchor="middle" x="274" y="-314.619" font-family="Helvetica,sans-Serif" font-size="10.00">Title</text>
</a>
</g>
</g>
<!-- Node1&#45;&gt;Node8 -->
<g id="edge7" class="edge"><title>Node1&#45;&gt;Node8</title>
<path fill="none" stroke="midnightblue" d="M152.897,-307.142C162.354,-308.361 172.122,-309.62 181.813,-310.869"/>
<polygon fill="midnightblue" stroke="midnightblue" points="181.502,-314.357 191.867,-312.164 182.396,-307.415 181.502,-314.357"/>
</g>
<!-- Node9 -->
<g id="node9" class="node"><title>Node9</title>
<g id="a_node9"><a xlink:href="../../d3/d14/classutil_1_1_save_load_utility.html#ab3aad60d0ba0fc214f02016621abc9a6" target="_top" xlink:title="util.SaveLoadUtility.load\lResource">
<polygon fill="white" stroke="black" points="1067,-501.619 1067,-531.619 1197,-531.619 1197,-501.619 1067,-501.619"/>
<text text-anchor="start" x="1075" y="-519.619" font-family="Helvetica,sans-Serif" font-size="10.00">util.SaveLoadUtility.load</text>
<text text-anchor="middle" x="1132" y="-508.619" font-family="Helvetica,sans-Serif" font-size="10.00">Resource</text>
</a>
</g>
</g>
<!-- Node1&#45;&gt;Node9 -->
<g id="edge8" class="edge"><title>Node1&#45;&gt;Node9</title>
<path fill="none" stroke="midnightblue" d="M91.8703,-307.303C147.485,-348.459 374.107,-509.145 590,-561.619 760.17,-602.98 968.326,-560.592 1069.67,-534.24"/>
<polygon fill="midnightblue" stroke="midnightblue" points="1070.66,-537.599 1079.44,-531.664 1068.88,-530.831 1070.66,-537.599"/>
</g>
<!-- Node10 -->
<g id="node10" class="node"><title>Node10</title>
<g id="a_node10"><a xlink:href="../../d0/d3f/classview_1_1splash_1_1_splash_screen.html#a6425dffd80436213cce943fc3aa27563" target="_top" xlink:title="view.splash.SplashScreen.set\lUpButtons">
<polygon fill="white" stroke="black" points="195.5,-258.619 195.5,-288.619 352.5,-288.619 352.5,-258.619 195.5,-258.619"/>
<text text-anchor="start" x="203.5" y="-276.619" font-family="Helvetica,sans-Serif" font-size="10.00">view.splash.SplashScreen.set</text>
<text text-anchor="middle" x="274" y="-265.619" font-family="Helvetica,sans-Serif" font-size="10.00">UpButtons</text>
</a>
</g>
</g>
<!-- Node1&#45;&gt;Node10 -->
<g id="edge9" class="edge"><title>Node1&#45;&gt;Node10</title>
<path fill="none" stroke="midnightblue" d="M155.953,-288.1C165.531,-286.915 175.383,-285.696 185.111,-284.492"/>
<polygon fill="midnightblue" stroke="midnightblue" points="185.693,-287.947 195.188,-283.246 184.834,-281 185.693,-287.947"/>
</g>
<!-- Node3 -->
<g id="node3" class="node"><title>Node3</title>
<g id="a_node3"><a xlink:href="../../d8/d1e/classview_1_1dialog_1_1_dialog_box_utility.html#ac719f60b2969771ed4bc5acd0dabe41e" target="_top" xlink:title="view.dialog.DialogBoxUtility.create\lDialogBox">
<polygon fill="white" stroke="black" points="1274,-132.619 1274,-162.619 1452,-162.619 1452,-132.619 1274,-132.619"/>
<text text-anchor="start" x="1282" y="-150.619" font-family="Helvetica,sans-Serif" font-size="10.00">view.dialog.DialogBoxUtility.create</text>
<text text-anchor="middle" x="1363" y="-139.619" font-family="Helvetica,sans-Serif" font-size="10.00">DialogBox</text>
</a>
</g>
</g>
<!-- Node2&#45;&gt;Node3 -->
<g id="edge2" class="edge"><title>Node2&#45;&gt;Node3</title>
<path fill="none" stroke="midnightblue" d="M1221.21,-145.775C1235.1,-145.957 1249.54,-146.146 1263.64,-146.331"/>
<polygon fill="midnightblue" stroke="midnightblue" points="1263.79,-149.833 1273.84,-146.464 1263.88,-142.834 1263.79,-149.833"/>
</g>
<!-- Node4 -->
<g id="node4" class="node"><title>Node4</title>
<g id="a_node4"><a xlink:href="../../d4/d81/classutil_1_1multilanguage_1_1_multi_language_utility.html#a4434d82aa88c08ec97fb70994f38041c" target="_top" xlink:title="util.multilanguage.Multi\lLanguageUtility.getInstance">
<polygon fill="white" stroke="black" points="1288.5,-411.619 1288.5,-441.619 1437.5,-441.619 1437.5,-411.619 1288.5,-411.619"/>
<text text-anchor="start" x="1296.5" y="-429.619" font-family="Helvetica,sans-Serif" font-size="10.00">util.multilanguage.Multi</text>
<text text-anchor="middle" x="1363" y="-418.619" font-family="Helvetica,sans-Serif" font-size="10.00">LanguageUtility.getInstance</text>
</a>
</g>
</g>
<!-- Node2&#45;&gt;Node4 -->
<g id="edge3" class="edge"><title>Node2&#45;&gt;Node4</title>
<path fill="none" stroke="midnightblue" d="M1169.06,-159.796C1189.51,-170.264 1213.79,-186.174 1228,-207.619 1275.96,-279.989 1205.22,-335.72 1264,-399.619 1268.39,-404.393 1273.54,-408.352 1279.14,-411.633"/>
<polygon fill="midnightblue" stroke="midnightblue" points="1277.76,-414.859 1288.27,-416.249 1280.92,-408.612 1277.76,-414.859"/>
</g>
<!-- Node6 -->
<g id="node6" class="node"><title>Node6</title>
<g id="a_node6"><a xlink:href="../../d4/d81/classutil_1_1multilanguage_1_1_multi_language_utility.html#a6adf3e1cb73a5cef3bc6d4a11cb1b091" target="_top" xlink:title="util.multilanguage.Multi\lLanguageUtility.getStringProperty">
<polygon fill="white" stroke="black" points="1274.5,-83.6194 1274.5,-113.619 1451.5,-113.619 1451.5,-83.6194 1274.5,-83.6194"/>
<text text-anchor="start" x="1282.5" y="-101.619" font-family="Helvetica,sans-Serif" font-size="10.00">util.multilanguage.Multi</text>
<text text-anchor="middle" x="1363" y="-90.6194" font-family="Helvetica,sans-Serif" font-size="10.00">LanguageUtility.getStringProperty</text>
</a>
</g>
</g>
<!-- Node2&#45;&gt;Node6 -->
<g id="edge5" class="edge"><title>Node2&#45;&gt;Node6</title>
<path fill="none" stroke="midnightblue" d="M1207.98,-129.557C1230.14,-125.107 1254.55,-120.204 1277.27,-115.639"/>
<polygon fill="midnightblue" stroke="midnightblue" points="1278.12,-119.038 1287.24,-113.637 1276.75,-112.175 1278.12,-119.038"/>
</g>
<!-- Node5 -->
<g id="node5" class="node"><title>Node5</title>
<g id="a_node5"><a xlink:href="../../d4/d81/classutil_1_1multilanguage_1_1_multi_language_utility.html#a39432790595e3fc9ef3e2842299739f7" target="_top" xlink:title="util.multilanguage.Multi\lLanguageUtility.MultiLanguage\lUtility">
<polygon fill="white" stroke="black" points="1514,-407.119 1514,-448.119 1676,-448.119 1676,-407.119 1514,-407.119"/>
<text text-anchor="start" x="1522" y="-436.119" font-family="Helvetica,sans-Serif" font-size="10.00">util.multilanguage.Multi</text>
<text text-anchor="start" x="1522" y="-425.119" font-family="Helvetica,sans-Serif" font-size="10.00">LanguageUtility.MultiLanguage</text>
<text text-anchor="middle" x="1595" y="-414.119" font-family="Helvetica,sans-Serif" font-size="10.00">Utility</text>
</a>
</g>
</g>
<!-- Node4&#45;&gt;Node5 -->
<g id="edge4" class="edge"><title>Node4&#45;&gt;Node5</title>
<path fill="none" stroke="midnightblue" d="M1437.72,-426.94C1458.71,-427.031 1481.81,-427.132 1503.66,-427.227"/>
<polygon fill="midnightblue" stroke="midnightblue" points="1503.92,-430.728 1513.93,-427.271 1503.95,-423.728 1503.92,-430.728"/>
</g>
<!-- Node7 -->
<g id="node7" class="node"><title>Node7</title>
<g id="a_node7"><a xlink:href="../../d4/d81/classutil_1_1multilanguage_1_1_multi_language_utility.html#a596dd4d3069ea8571f1379d6d8a8471b" target="_top" xlink:title="util.multilanguage.Multi\lLanguageUtility.getProperty">
<polygon fill="white" stroke="black" points="1520.5,-83.6194 1520.5,-113.619 1669.5,-113.619 1669.5,-83.6194 1520.5,-83.6194"/>
<text text-anchor="start" x="1528.5" y="-101.619" font-family="Helvetica,sans-Serif" font-size="10.00">util.multilanguage.Multi</text>
<text text-anchor="middle" x="1595" y="-90.6194" font-family="Helvetica,sans-Serif" font-size="10.00">LanguageUtility.getProperty</text>
</a>
</g>
</g>
<!-- Node6&#45;&gt;Node7 -->
<g id="edge6" class="edge"><title>Node6&#45;&gt;Node7</title>
<path fill="none" stroke="midnightblue" d="M1451.61,-98.6194C1470.87,-98.6194 1491.22,-98.6194 1510.32,-98.6194"/>
<polygon fill="midnightblue" stroke="midnightblue" points="1510.49,-102.12 1520.49,-98.6194 1510.49,-95.1195 1510.49,-102.12"/>
</g>
<!-- Node10&#45;&gt;Node2 -->
<g id="edge16" class="edge"><title>Node10&#45;&gt;Node2</title>
<path fill="none" stroke="midnightblue" d="M342.317,-258.609C358.552,-255.163 375.869,-251.629 392,-248.619 563.669,-216.585 607.047,-210.776 780,-186.619 865.162,-174.725 962.243,-163.269 1032.69,-155.335"/>
<polygon fill="midnightblue" stroke="midnightblue" points="1033.34,-158.785 1042.88,-154.191 1032.56,-151.828 1033.34,-158.785"/>
</g>
<!-- Node10&#45;&gt;Node4 -->
<g id="edge10" class="edge"><title>Node10&#45;&gt;Node4</title>
<path fill="none" stroke="midnightblue" d="M344.565,-288.689C348.727,-291.223 352.598,-294.177 356,-297.619 397.239,-339.349 357.87,-376.9 392,-424.619 505.459,-583.255 587.839,-596.268 780,-629.619 976.179,-663.668 1052.76,-723.157 1228,-628.619 1298.96,-590.34 1338.76,-496.228 1354.29,-451.285"/>
<polygon fill="midnightblue" stroke="midnightblue" points="1357.64,-452.322 1357.49,-441.728 1351,-450.104 1357.64,-452.322"/>
</g>
<!-- Node10&#45;&gt;Node6 -->
<g id="edge11" class="edge"><title>Node10&#45;&gt;Node6</title>
<path fill="none" stroke="midnightblue" d="M280.175,-258.36C292.973,-223.129 329.667,-135.983 392,-94.6194 466.527,-45.1649 501.859,-73.8215 590,-58.6194 869.628,-10.3911 952.252,32.3159 1228,-34.6194 1264.53,-43.4868 1302.92,-63.015 1329.2,-78.1833"/>
<polygon fill="midnightblue" stroke="midnightblue" points="1327.57,-81.2872 1337.96,-83.342 1331.12,-75.2541 1327.57,-81.2872"/>
</g>
<!-- Node11 -->
<g id="node11" class="node"><title>Node11</title>
<g id="a_node11"><a xlink:href="../../de/d21/classmodel_1_1_main_model.html#af9c20fbbad657aa750844a8b5dabac80" target="_top" xlink:title="model.MainModel.newGame">
<polygon fill="white" stroke="black" points="397,-308.119 397,-327.119 549,-327.119 549,-308.119 397,-308.119"/>
<text text-anchor="middle" x="473" y="-315.119" font-family="Helvetica,sans-Serif" font-size="10.00">model.MainModel.newGame</text>
</a>
</g>
</g>
<!-- Node10&#45;&gt;Node11 -->
<g id="edge12" class="edge"><title>Node10&#45;&gt;Node11</title>
<path fill="none" stroke="midnightblue" d="M342.245,-288.639C367.506,-294.281 395.826,-300.606 419.548,-305.904"/>
<polygon fill="midnightblue" stroke="midnightblue" points="418.888,-309.343 429.41,-308.107 420.414,-302.511 418.888,-309.343"/>
</g>
<!-- Node12 -->
<g id="node12" class="node"><title>Node12</title>
<g id="a_node12"><a xlink:href="../../d2/d02/classview_1_1gui_1_1_g_u_i_screen.html#ab3d125c65e5d548dfa9e5566c7a4c50f" target="_top" xlink:title="view.gui.GUIScreen.switch\lScreen">
<polygon fill="white" stroke="black" points="597,-522.619 597,-552.619 737,-552.619 737,-522.619 597,-522.619"/>
<text text-anchor="start" x="605" y="-540.619" font-family="Helvetica,sans-Serif" font-size="10.00">view.gui.GUIScreen.switch</text>
<text text-anchor="middle" x="667" y="-529.619" font-family="Helvetica,sans-Serif" font-size="10.00">Screen</text>
</a>
</g>
</g>
<!-- Node10&#45;&gt;Node12 -->
<g id="edge13" class="edge"><title>Node10&#45;&gt;Node12</title>
<path fill="none" stroke="midnightblue" d="M338.372,-288.721C344.533,-291.263 350.521,-294.209 356,-297.619 376.027,-310.084 375.047,-320.217 392,-336.619 475.567,-417.468 490.519,-447.424 590,-507.619 596.656,-511.647 603.948,-515.326 611.299,-518.62"/>
<polygon fill="midnightblue" stroke="midnightblue" points="610.025,-521.882 620.597,-522.585 612.771,-515.443 610.025,-521.882"/>
</g>
<!-- Node15 -->
<g id="node15" class="node"><title>Node15</title>
<g id="a_node15"><a xlink:href="../../d0/d3f/classview_1_1splash_1_1_splash_screen.html#a7e50ce5a292e35b972ae31ec4df4f5ca" target="_top" xlink:title="view.splash.SplashScreen.load\lGameAndSwitchScreen">
<polygon fill="white" stroke="black" points="392,-258.619 392,-288.619 554,-288.619 554,-258.619 392,-258.619"/>
<text text-anchor="start" x="400" y="-276.619" font-family="Helvetica,sans-Serif" font-size="10.00">view.splash.SplashScreen.load</text>
<text text-anchor="middle" x="473" y="-265.619" font-family="Helvetica,sans-Serif" font-size="10.00">GameAndSwitchScreen</text>
</a>
</g>
</g>
<!-- Node10&#45;&gt;Node15 -->
<g id="edge17" class="edge"><title>Node10&#45;&gt;Node15</title>
<path fill="none" stroke="midnightblue" d="M352.577,-273.619C362.166,-273.619 372.033,-273.619 381.791,-273.619"/>
<polygon fill="midnightblue" stroke="midnightblue" points="381.904,-277.12 391.904,-273.619 381.904,-270.12 381.904,-277.12"/>
</g>
<!-- Node27 -->
<g id="node27" class="node"><title>Node27</title>
<g id="a_node27"><a xlink:href="../../d0/d3f/classview_1_1splash_1_1_splash_screen.html#a814a650c8c538899aa3d7c465209d3da" target="_top" xlink:title="view.splash.SplashScreen.attach\lStringProperties">
<polygon fill="white" stroke="black" points="803.5,-37.6194 803.5,-67.6194 976.5,-67.6194 976.5,-37.6194 803.5,-37.6194"/>
<text text-anchor="start" x="811.5" y="-55.6194" font-family="Helvetica,sans-Serif" font-size="10.00">view.splash.SplashScreen.attach</text>
<text text-anchor="middle" x="890" y="-44.6194" font-family="Helvetica,sans-Serif" font-size="10.00">StringProperties</text>
</a>
</g>
</g>
<!-- Node10&#45;&gt;Node27 -->
<g id="edge38" class="edge"><title>Node10&#45;&gt;Node27</title>
<path fill="none" stroke="midnightblue" d="M285.718,-258.602C304.343,-233.689 345.201,-184.048 392,-158.619 519.726,-89.2193 688.914,-65.2436 793.285,-56.969"/>
<polygon fill="midnightblue" stroke="midnightblue" points="793.786,-60.4411 803.492,-56.1935 793.256,-53.4612 793.786,-60.4411"/>
</g>
<!-- Node13 -->
<g id="node13" class="node"><title>Node13</title>
<g id="a_node13"><a xlink:href="../../d1/d75/classview_1_1_main_view.html#a6d02708fccb6f546a83ee8d9d25a0456" target="_top" xlink:title="view.MainView.launchScreen">
<polygon fill="white" stroke="black" points="814.5,-601.119 814.5,-620.119 965.5,-620.119 965.5,-601.119 814.5,-601.119"/>
<text text-anchor="middle" x="890" y="-608.119" font-family="Helvetica,sans-Serif" font-size="10.00">view.MainView.launchScreen</text>
</a>
</g>
</g>
<!-- Node12&#45;&gt;Node13 -->
<g id="edge14" class="edge"><title>Node12&#45;&gt;Node13</title>
<path fill="none" stroke="midnightblue" d="M713.523,-552.657C753.889,-565.99 812.195,-585.249 850.341,-597.85"/>
<polygon fill="midnightblue" stroke="midnightblue" points="849.463,-601.246 860.057,-601.059 851.659,-594.599 849.463,-601.246"/>
</g>
<!-- Node14 -->
<g id="node14" class="node"><title>Node14</title>
<g id="a_node14"><a xlink:href="../../d6/d2b/enumview_1_1gui_1_1_view_screen_path.html#ad11ff5b8ad7e316e6d0e4ddc3b30a9e1" target="_top" xlink:title="view.gui.ViewScreenPath.get\lFilePath">
<polygon fill="white" stroke="black" points="1056,-589.619 1056,-619.619 1208,-619.619 1208,-589.619 1056,-589.619"/>
<text text-anchor="start" x="1064" y="-607.619" font-family="Helvetica,sans-Serif" font-size="10.00">view.gui.ViewScreenPath.get</text>
<text text-anchor="middle" x="1132" y="-596.619" font-family="Helvetica,sans-Serif" font-size="10.00">FilePath</text>
</a>
</g>
</g>
<!-- Node13&#45;&gt;Node14 -->
<g id="edge15" class="edge"><title>Node13&#45;&gt;Node14</title>
<path fill="none" stroke="midnightblue" d="M965.622,-608.754C990.889,-608.122 1019.3,-607.412 1045.36,-606.76"/>
<polygon fill="midnightblue" stroke="midnightblue" points="1045.69,-610.253 1055.6,-606.505 1045.51,-603.256 1045.69,-610.253"/>
</g>
<!-- Node15&#45;&gt;Node2 -->
<g id="edge35" class="edge"><title>Node15&#45;&gt;Node2</title>
<path fill="none" stroke="midnightblue" d="M554.084,-260.714C695.937,-237.807 978.536,-191.937 1000,-186.619 1016.37,-182.564 1019.96,-179.826 1036,-174.619 1047.94,-170.744 1060.75,-166.654 1072.97,-162.782"/>
<polygon fill="midnightblue" stroke="midnightblue" points="1074.14,-166.084 1082.62,-159.733 1072.03,-159.409 1074.14,-166.084"/>
</g>
<!-- Node15&#45;&gt;Node4 -->
<g id="edge36" class="edge"><title>Node15&#45;&gt;Node4</title>
<path fill="none" stroke="midnightblue" d="M536.666,-288.717C542.803,-291.492 548.707,-294.764 554,-298.619 576.427,-314.954 570.48,-329.902 590,-349.619 741.708,-502.86 821.53,-518.246 1036,-540.619 1120.87,-549.473 1147.91,-570.077 1228,-540.619 1277.1,-522.56 1320.48,-477.634 1343.82,-449.877"/>
<polygon fill="midnightblue" stroke="midnightblue" points="1346.76,-451.812 1350.4,-441.863 1341.35,-447.369 1346.76,-451.812"/>
</g>
<!-- Node15&#45;&gt;Node6 -->
<g id="edge37" class="edge"><title>Node15&#45;&gt;Node6</title>
<path fill="none" stroke="midnightblue" d="M508.312,-258.546C531.163,-248.873 562.022,-236.506 590,-227.619 784.381,-165.878 834.368,-150.29 1036,-119.619 1112.11,-108.043 1199.16,-102.839 1264.15,-100.504"/>
<polygon fill="midnightblue" stroke="midnightblue" points="1264.51,-103.994 1274.39,-100.153 1264.27,-96.9977 1264.51,-103.994"/>
</g>
<!-- Node15&#45;&gt;Node12 -->
<g id="edge34" class="edge"><title>Node15&#45;&gt;Node12</title>
<path fill="none" stroke="midnightblue" d="M542.421,-288.779C546.711,-291.537 550.645,-294.788 554,-298.619 616.098,-369.529 530.534,-434.489 590,-507.619 592.897,-511.183 596.277,-514.324 599.972,-517.094"/>
<polygon fill="midnightblue" stroke="midnightblue" points="598.193,-520.112 608.496,-522.583 601.983,-514.227 598.193,-520.112"/>
</g>
<!-- Node16 -->
<g id="node16" class="node"><title>Node16</title>
<g id="a_node16"><a xlink:href="../../de/d21/classmodel_1_1_main_model.html#a1a794fbf99be0146fb0a50681091ad7d" target="_top" xlink:title="model.MainModel.loadGame">
<polygon fill="white" stroke="black" points="590.5,-321.119 590.5,-340.119 743.5,-340.119 743.5,-321.119 590.5,-321.119"/>
<text text-anchor="middle" x="667" y="-328.119" font-family="Helvetica,sans-Serif" font-size="10.00">model.MainModel.loadGame</text>
</a>
</g>
</g>
<!-- Node15&#45;&gt;Node16 -->
<g id="edge18" class="edge"><title>Node15&#45;&gt;Node16</title>
<path fill="none" stroke="midnightblue" d="M524.697,-288.67C555.605,-297.846 594.643,-309.435 623.851,-318.106"/>
<polygon fill="midnightblue" stroke="midnightblue" points="623.16,-321.552 633.742,-321.043 625.152,-314.842 623.16,-321.552"/>
</g>
<!-- Node16&#45;&gt;Node2 -->
<g id="edge19" class="edge"><title>Node16&#45;&gt;Node2</title>
<path fill="none" stroke="midnightblue" d="M683.356,-321C704.406,-308.21 743.749,-285.701 780,-272.619 874.136,-238.649 916.332,-279.531 1000,-224.619 1022.89,-209.595 1013.81,-190.671 1036,-174.619 1041.78,-170.437 1048.16,-166.824 1054.81,-163.705"/>
<polygon fill="midnightblue" stroke="midnightblue" points="1056.19,-166.919 1063.99,-159.751 1053.43,-160.489 1056.19,-166.919"/>
</g>
<!-- Node16&#45;&gt;Node4 -->
<g id="edge20" class="edge"><title>Node16&#45;&gt;Node4</title>
<path fill="none" stroke="midnightblue" d="M680.569,-340.271C700.42,-354.891 740.815,-382.16 780,-393.619 951.371,-443.737 1162.95,-440.449 1277.93,-433.563"/>
<polygon fill="midnightblue" stroke="midnightblue" points="1278.31,-437.047 1288.08,-432.931 1277.88,-430.06 1278.31,-437.047"/>
</g>
<!-- Node16&#45;&gt;Node6 -->
<g id="edge21" class="edge"><title>Node16&#45;&gt;Node6</title>
<path fill="none" stroke="midnightblue" d="M709.43,-321.096C730.528,-316.316 756.599,-310.517 780,-305.619 877.515,-285.21 917.333,-318.224 1000,-262.619 1024.24,-246.314 1011.82,-224.015 1036,-207.619 1108.07,-158.754 1153.93,-214.398 1228,-168.619 1250.08,-154.971 1242.19,-136.704 1264,-122.619 1266.48,-121.016 1269.06,-119.519 1271.72,-118.123"/>
<polygon fill="midnightblue" stroke="midnightblue" points="1273.45,-121.177 1281.01,-113.749 1270.47,-114.844 1273.45,-121.177"/>
</g>
<!-- Node17 -->
<g id="node17" class="node"><title>Node17</title>
<g id="a_node17"><a xlink:href="../../de/d33/classmodel_1_1_game_save_load_mediator.html#a0c1638e64ab7544ac407e8d7debb5781" target="_top" xlink:title="model.GameSaveLoadMediator.loadGame">
<polygon fill="white" stroke="black" points="780,-458.119 780,-477.119 1000,-477.119 1000,-458.119 780,-458.119"/>
<text text-anchor="middle" x="890" y="-465.119" font-family="Helvetica,sans-Serif" font-size="10.00">model.GameSaveLoadMediator.loadGame</text>
</a>
</g>
</g>
<!-- Node16&#45;&gt;Node17 -->
<g id="edge22" class="edge"><title>Node16&#45;&gt;Node17</title>
<path fill="none" stroke="midnightblue" d="M675.26,-340.247C691.59,-361.214 733.442,-411.235 780,-437.619 793.517,-445.28 809.097,-451.071 824.172,-455.417"/>
<polygon fill="midnightblue" stroke="midnightblue" points="823.411,-458.837 833.978,-458.069 825.239,-452.08 823.411,-458.837"/>
</g>
<!-- Node19 -->
<g id="node19" class="node"><title>Node19</title>
<g id="a_node19"><a xlink:href="../../de/d21/classmodel_1_1_main_model.html#a6d23ce35dd510459ea2dd46d3d59ef28" target="_top" xlink:title="model.MainModel.updateObservers">
<polygon fill="white" stroke="black" points="797,-365.119 797,-384.119 983,-384.119 983,-365.119 797,-365.119"/>
<text text-anchor="middle" x="890" y="-372.119" font-family="Helvetica,sans-Serif" font-size="10.00">model.MainModel.updateObservers</text>
</a>
</g>
</g>
<!-- Node16&#45;&gt;Node19 -->
<g id="edge25" class="edge"><title>Node16&#45;&gt;Node19</title>
<path fill="none" stroke="midnightblue" d="M711.018,-340.149C731.825,-344.679 757.18,-350.082 780,-354.619 794.642,-357.531 810.422,-360.515 825.305,-363.26"/>
<polygon fill="midnightblue" stroke="midnightblue" points="824.972,-366.757 835.44,-365.118 826.235,-359.872 824.972,-366.757"/>
</g>
<!-- Node20 -->
<g id="node20" class="node"><title>Node20</title>
<g id="a_node20"><a xlink:href="../../de/d21/classmodel_1_1_main_model.html#a82c8d6e91e52b19dfe6a7f5a7f81d600" target="_top" xlink:title="model.MainModel.updateSprites\lAndMasks">
<polygon fill="white" stroke="black" points="804.5,-315.619 804.5,-345.619 975.5,-345.619 975.5,-315.619 804.5,-315.619"/>
<text text-anchor="start" x="812.5" y="-333.619" font-family="Helvetica,sans-Serif" font-size="10.00">model.MainModel.updateSprites</text>
<text text-anchor="middle" x="890" y="-322.619" font-family="Helvetica,sans-Serif" font-size="10.00">AndMasks</text>
</a>
</g>
</g>
<!-- Node16&#45;&gt;Node20 -->
<g id="edge26" class="edge"><title>Node16&#45;&gt;Node20</title>
<path fill="none" stroke="midnightblue" d="M743.746,-330.619C759.889,-330.619 777.132,-330.619 793.894,-330.619"/>
<polygon fill="midnightblue" stroke="midnightblue" points="794.254,-334.12 804.254,-330.619 794.254,-327.12 794.254,-334.12"/>
</g>
<!-- Node17&#45;&gt;Node9 -->
<g id="edge24" class="edge"><title>Node17&#45;&gt;Node9</title>
<path fill="none" stroke="midnightblue" d="M937.559,-477.125C971.345,-484.023 1017.75,-493.498 1056.64,-501.438"/>
<polygon fill="midnightblue" stroke="midnightblue" points="1056.37,-504.956 1066.87,-503.527 1057.78,-498.097 1056.37,-504.956"/>
</g>
<!-- Node18 -->
<g id="node18" class="node"><title>Node18</title>
<g id="a_node18"><a xlink:href="../../de/d33/classmodel_1_1_game_save_load_mediator.html#a237824617b5628913e3cf83027b0edfe" target="_top" xlink:title="model.GameSaveLoadMediator.get\lGameLocation">
<polygon fill="white" stroke="black" points="1039,-452.619 1039,-482.619 1225,-482.619 1225,-452.619 1039,-452.619"/>
<text text-anchor="start" x="1047" y="-470.619" font-family="Helvetica,sans-Serif" font-size="10.00">model.GameSaveLoadMediator.get</text>
<text text-anchor="middle" x="1132" y="-459.619" font-family="Helvetica,sans-Serif" font-size="10.00">GameLocation</text>
</a>
</g>
</g>
<!-- Node17&#45;&gt;Node18 -->
<g id="edge23" class="edge"><title>Node17&#45;&gt;Node18</title>
<path fill="none" stroke="midnightblue" d="M1000.11,-467.619C1009.57,-467.619 1019.12,-467.619 1028.52,-467.619"/>
<polygon fill="midnightblue" stroke="midnightblue" points="1028.65,-471.12 1038.65,-467.619 1028.65,-464.12 1028.65,-471.12"/>
</g>
<!-- Node20&#45;&gt;Node2 -->
<g id="edge27" class="edge"><title>Node20&#45;&gt;Node2</title>
<path fill="none" stroke="midnightblue" d="M922.638,-315.607C945.863,-303.529 977.203,-284.926 1000,-262.619 1020.88,-242.187 1015.4,-228.34 1036,-207.619 1052.67,-190.853 1074.46,-176.017 1092.97,-164.96"/>
<polygon fill="midnightblue" stroke="midnightblue" points="1094.88,-167.9 1101.76,-159.844 1091.36,-161.851 1094.88,-167.9"/>
</g>
<!-- Node21 -->
<g id="node21" class="node"><title>Node21</title>
<g id="a_node21"><a xlink:href="../../de/dda/classmodel_1_1_game_universe.html#ae55bff5ebd307949b81d7cce069f0423" target="_top" xlink:title="model.GameUniverse.getDrawable\lGameElementStates">
<polygon fill="white" stroke="black" points="1040,-217.619 1040,-247.619 1224,-247.619 1224,-217.619 1040,-217.619"/>
<text text-anchor="start" x="1048" y="-235.619" font-family="Helvetica,sans-Serif" font-size="10.00">model.GameUniverse.getDrawable</text>
<text text-anchor="middle" x="1132" y="-224.619" font-family="Helvetica,sans-Serif" font-size="10.00">GameElementStates</text>
</a>
</g>
</g>
<!-- Node20&#45;&gt;Node21 -->
<g id="edge28" class="edge"><title>Node20&#45;&gt;Node21</title>
<path fill="none" stroke="midnightblue" d="M968.911,-315.581C979.831,-311.678 990.54,-306.774 1000,-300.619 1021.18,-286.84 1014.68,-270.175 1036,-256.619 1038.64,-254.94 1041.4,-253.377 1044.23,-251.924"/>
<polygon fill="midnightblue" stroke="midnightblue" points="1045.91,-255.006 1053.53,-247.646 1042.98,-248.648 1045.91,-255.006"/>
</g>
<!-- Node22 -->
<g id="node22" class="node"><title>Node22</title>
<g id="a_node22"><a xlink:href="../../d6/d8b/classmodel_1_1state_1_1_game_state.html#ada7cc6194ba1f8235db868e033be6922" target="_top" xlink:title="model.state.GameState.get\lGameUniverse">
<polygon fill="white" stroke="black" points="1056,-315.619 1056,-345.619 1208,-345.619 1208,-315.619 1056,-315.619"/>
<text text-anchor="start" x="1064" y="-333.619" font-family="Helvetica,sans-Serif" font-size="10.00">model.state.GameState.get</text>
<text text-anchor="middle" x="1132" y="-322.619" font-family="Helvetica,sans-Serif" font-size="10.00">GameUniverse</text>
</a>
</g>
</g>
<!-- Node20&#45;&gt;Node22 -->
<g id="edge29" class="edge"><title>Node20&#45;&gt;Node22</title>
<path fill="none" stroke="midnightblue" d="M975.615,-330.619C998.422,-330.619 1023.1,-330.619 1045.93,-330.619"/>
<polygon fill="midnightblue" stroke="midnightblue" points="1045.93,-334.12 1055.93,-330.619 1045.93,-327.12 1045.93,-334.12"/>
</g>
<!-- Node23 -->
<g id="node23" class="node"><title>Node23</title>
<g id="a_node23"><a xlink:href="../../de/dda/classmodel_1_1_game_universe.html#a058797c0ccdf5a6ed5d3b1f53654f9a0" target="_top" xlink:title="model.GameUniverse.getSelectable\lGameElementStates">
<polygon fill="white" stroke="black" points="1037,-266.619 1037,-296.619 1227,-296.619 1227,-266.619 1037,-266.619"/>
<text text-anchor="start" x="1045" y="-284.619" font-family="Helvetica,sans-Serif" font-size="10.00">model.GameUniverse.getSelectable</text>
<text text-anchor="middle" x="1132" y="-273.619" font-family="Helvetica,sans-Serif" font-size="10.00">GameElementStates</text>
</a>
</g>
</g>
<!-- Node20&#45;&gt;Node23 -->
<g id="edge30" class="edge"><title>Node20&#45;&gt;Node23</title>
<path fill="none" stroke="midnightblue" d="M964.639,-315.585C990.901,-310.223 1020.66,-304.146 1047.68,-298.63"/>
<polygon fill="midnightblue" stroke="midnightblue" points="1048.4,-302.055 1057.5,-296.626 1047,-295.197 1048.4,-302.055"/>
</g>
<!-- Node24 -->
<g id="node24" class="node"><title>Node24</title>
<g id="a_node24"><a xlink:href="../../de/d33/classmodel_1_1_game_save_load_mediator.html#a826a98c89d42cfd8abb16dd31dfa919a" target="_top" xlink:title="model.GameSaveLoadMediator.load\lSpritesAndMasks">
<polygon fill="white" stroke="black" points="1036.5,-364.619 1036.5,-394.619 1227.5,-394.619 1227.5,-364.619 1036.5,-364.619"/>
<text text-anchor="start" x="1044.5" y="-382.619" font-family="Helvetica,sans-Serif" font-size="10.00">model.GameSaveLoadMediator.load</text>
<text text-anchor="middle" x="1132" y="-371.619" font-family="Helvetica,sans-Serif" font-size="10.00">SpritesAndMasks</text>
</a>
</g>
</g>
<!-- Node20&#45;&gt;Node24 -->
<g id="edge31" class="edge"><title>Node20&#45;&gt;Node24</title>
<path fill="none" stroke="midnightblue" d="M964.639,-345.654C990.901,-351.016 1020.66,-357.093 1047.68,-362.609"/>
<polygon fill="midnightblue" stroke="midnightblue" points="1047,-366.042 1057.5,-364.613 1048.4,-359.184 1047,-366.042"/>
</g>
<!-- Node25 -->
<g id="node25" class="node"><title>Node25</title>
<g id="a_node25"><a xlink:href="../../de/d01/classmodel_1_1sprite_1_1_sprite_image_generator.html#a6213b8131d50465b417e375f32cb33e3" target="_top" xlink:title="model.sprite.SpriteImage\lGenerator.loadSpriteImageContainers">
<polygon fill="white" stroke="black" points="1264,-360.619 1264,-390.619 1462,-390.619 1462,-360.619 1264,-360.619"/>
<text text-anchor="start" x="1272" y="-378.619" font-family="Helvetica,sans-Serif" font-size="10.00">model.sprite.SpriteImage</text>
<text text-anchor="middle" x="1363" y="-367.619" font-family="Helvetica,sans-Serif" font-size="10.00">Generator.loadSpriteImageContainers</text>
</a>
</g>
</g>
<!-- Node24&#45;&gt;Node25 -->
<g id="edge32" class="edge"><title>Node24&#45;&gt;Node25</title>
<path fill="none" stroke="midnightblue" d="M1227.8,-377.964C1236.37,-377.814 1245.11,-377.661 1253.79,-377.51"/>
<polygon fill="midnightblue" stroke="midnightblue" points="1254.01,-381.006 1263.95,-377.332 1253.89,-374.007 1254.01,-381.006"/>
</g>
<!-- Node26 -->
<g id="node26" class="node"><title>Node26</title>
<g id="a_node26"><a xlink:href="../../de/d01/classmodel_1_1sprite_1_1_sprite_image_generator.html#ab447717d12685c64342203f9ad82fcaa" target="_top" xlink:title="model.sprite.SpriteImage\lGenerator.loadSpriteImageContainer">
<polygon fill="white" stroke="black" points="1498.5,-358.619 1498.5,-388.619 1691.5,-388.619 1691.5,-358.619 1498.5,-358.619"/>
<text text-anchor="start" x="1506.5" y="-376.619" font-family="Helvetica,sans-Serif" font-size="10.00">model.sprite.SpriteImage</text>
<text text-anchor="middle" x="1595" y="-365.619" font-family="Helvetica,sans-Serif" font-size="10.00">Generator.loadSpriteImageContainer</text>
</a>
</g>
</g>
<!-- Node25&#45;&gt;Node26 -->
<g id="edge33" class="edge"><title>Node25&#45;&gt;Node26</title>
<path fill="none" stroke="midnightblue" d="M1462.21,-374.765C1470.81,-374.691 1479.54,-374.615 1488.19,-374.539"/>
<polygon fill="midnightblue" stroke="midnightblue" points="1488.35,-378.038 1498.31,-374.451 1488.28,-371.039 1488.35,-378.038"/>
</g>
<!-- Node27&#45;&gt;Node2 -->
<g id="edge39" class="edge"><title>Node27&#45;&gt;Node2</title>
<path fill="none" stroke="midnightblue" d="M930.362,-67.7084C971.866,-83.6182 1037.32,-108.71 1082.11,-125.878"/>
<polygon fill="midnightblue" stroke="midnightblue" points="1081.03,-129.211 1091.62,-129.522 1083.53,-122.675 1081.03,-129.211"/>
</g>
<!-- Node27&#45;&gt;Node4 -->
<g id="edge40" class="edge"><title>Node27&#45;&gt;Node4</title>
<path fill="none" stroke="midnightblue" d="M976.546,-58.4357C1064.91,-66.3211 1194.51,-83.7604 1228,-119.619 1313.64,-211.32 1181.75,-304.872 1264,-399.619 1268.33,-404.604 1273.48,-408.709 1279.13,-412.084"/>
<polygon fill="midnightblue" stroke="midnightblue" points="1277.87,-415.37 1288.37,-416.809 1281.06,-409.138 1277.87,-415.37"/>
</g>
<!-- Node27&#45;&gt;Node6 -->
<g id="edge41" class="edge"><title>Node27&#45;&gt;Node6</title>
<path fill="none" stroke="midnightblue" d="M976.573,-42.723C1045.14,-36.9166 1143.5,-33.3681 1228,-48.6194 1260.75,-54.5311 1295.94,-67.9595 1322.04,-79.4126"/>
<polygon fill="midnightblue" stroke="midnightblue" points="1320.66,-82.6315 1331.22,-83.5253 1323.53,-76.2431 1320.66,-82.6315"/>
</g>
</g>
</svg>
