<?xml version="1.0" encoding="UTF-8" standalone="no"?>
<!DOCTYPE svg PUBLIC "-//W3C//DTD SVG 1.1//EN"
 "http://www.w3.org/Graphics/SVG/1.1/DTD/svg11.dtd">
<!-- Generated by graphviz version 2.36.0 (20140111.2315)
 -->
<!-- Title: engine.computers.pathingComputers.MapGrid.registerObstaclePlacement Pages: 1 -->
<svg width="602pt" height="87pt"
 viewBox="0.00 0.00 602.00 87.00" xmlns="http://www.w3.org/2000/svg" xmlns:xlink="http://www.w3.org/1999/xlink">
<g id="graph0" class="graph" transform="scale(1 1) rotate(0) translate(4 83)">
<title>engine.computers.pathingComputers.MapGrid.registerObstaclePlacement</title>
<polygon fill="white" stroke="none" points="-4,4 -4,-83 598,-83 598,4 -4,4"/>
<!-- Node1 -->
<g id="node1" class="node"><title>Node1</title>
<polygon fill="#bfbfbf" stroke="black" points="0,-18.5 0,-59.5 194,-59.5 194,-18.5 0,-18.5"/>
<text text-anchor="start" x="8" y="-47.5" font-family="Helvetica,sans-Serif" font-size="10.00">engine.computers.pathing</text>
<text text-anchor="start" x="8" y="-36.5" font-family="Helvetica,sans-Serif" font-size="10.00">Computers.MapGrid.registerObstacle</text>
<text text-anchor="middle" x="97" y="-25.5" font-family="Helvetica,sans-Serif" font-size="10.00">Placement</text>
</g>
<!-- Node2 -->
<g id="node2" class="node"><title>Node2</title>
<g id="a_node2"><a xlink:href="../../d5/d97/classengine_1_1computers_1_1pathing_computers_1_1_map_grid.html#a0d21a23c6051e0958892bae655eb9dca" target="_top" xlink:title="engine.computers.pathing\lComputers.MapGrid.alterLocations\lInsideBounds">
<polygon fill="white" stroke="black" points="230.5,-18.5 230.5,-59.5 413.5,-59.5 413.5,-18.5 230.5,-18.5"/>
<text text-anchor="start" x="238.5" y="-47.5" font-family="Helvetica,sans-Serif" font-size="10.00">engine.computers.pathing</text>
<text text-anchor="start" x="238.5" y="-36.5" font-family="Helvetica,sans-Serif" font-size="10.00">Computers.MapGrid.alterLocations</text>
<text text-anchor="middle" x="322" y="-25.5" font-family="Helvetica,sans-Serif" font-size="10.00">InsideBounds</text>
</a>
</g>
</g>
<!-- Node1&#45;&gt;Node2 -->
<g id="edge1" class="edge"><title>Node1&#45;&gt;Node2</title>
<path fill="none" stroke="midnightblue" d="M194.19,-39C202.832,-39 211.599,-39 220.279,-39"/>
<polygon fill="midnightblue" stroke="midnightblue" points="220.414,-42.5001 230.414,-39 220.414,-35.5001 220.414,-42.5001"/>
</g>
<!-- Node3 -->
<g id="node3" class="node"><title>Node3</title>
<g id="a_node3"><a xlink:href="../../d1/d19/classengine_1_1computers_1_1pathing_computers_1_1_location.html#a6b17f88aada14c904238ef52e51cf5e9" target="_top" xlink:title="engine.computers.pathing\lComputers.Location.getX">
<polygon fill="white" stroke="black" points="450.5,-49 450.5,-79 593.5,-79 593.5,-49 450.5,-49"/>
<text text-anchor="start" x="458.5" y="-67" font-family="Helvetica,sans-Serif" font-size="10.00">engine.computers.pathing</text>
<text text-anchor="middle" x="522" y="-56" font-family="Helvetica,sans-Serif" font-size="10.00">Computers.Location.getX</text>
</a>
</g>
</g>
<!-- Node2&#45;&gt;Node3 -->
<g id="edge2" class="edge"><title>Node2&#45;&gt;Node3</title>
<path fill="none" stroke="midnightblue" d="M413.598,-50.4391C422.454,-51.5573 431.4,-52.6869 440.15,-53.7917"/>
<polygon fill="midnightblue" stroke="midnightblue" points="439.955,-57.2948 450.315,-55.0751 440.832,-50.3499 439.955,-57.2948"/>
</g>
<!-- Node4 -->
<g id="node4" class="node"><title>Node4</title>
<g id="a_node4"><a xlink:href="../../d1/d19/classengine_1_1computers_1_1pathing_computers_1_1_location.html#ac4dc59386dde16b5784bfdaa27dbcbf4" target="_top" xlink:title="engine.computers.pathing\lComputers.Location.getY">
<polygon fill="white" stroke="black" points="450.5,-0 450.5,-30 593.5,-30 593.5,-0 450.5,-0"/>
<text text-anchor="start" x="458.5" y="-18" font-family="Helvetica,sans-Serif" font-size="10.00">engine.computers.pathing</text>
<text text-anchor="middle" x="522" y="-7" font-family="Helvetica,sans-Serif" font-size="10.00">Computers.Location.getY</text>
</a>
</g>
</g>
<!-- Node2&#45;&gt;Node4 -->
<g id="edge3" class="edge"><title>Node2&#45;&gt;Node4</title>
<path fill="none" stroke="midnightblue" d="M413.598,-28.0184C422.454,-26.945 431.4,-25.8606 440.15,-24.8"/>
<polygon fill="midnightblue" stroke="midnightblue" points="440.809,-28.2458 450.315,-23.5679 439.967,-21.2967 440.809,-28.2458"/>
</g>
</g>
</svg>
