<?xml version="1.0" encoding="UTF-8" standalone="no"?>
<!DOCTYPE svg PUBLIC "-//W3C//DTD SVG 1.1//EN"
 "http://www.w3.org/Graphics/SVG/1.1/DTD/svg11.dtd">
<!-- Generated by graphviz version 2.36.0 (20140111.2315)
 -->
<!-- Title: view.editor.wizards.BoundsWizard.checkCoordinatesValid Pages: 1 -->
<svg width="348pt" height="38pt"
 viewBox="0.00 0.00 348.00 38.00" xmlns="http://www.w3.org/2000/svg" xmlns:xlink="http://www.w3.org/1999/xlink">
<g id="graph0" class="graph" transform="scale(1 1) rotate(0) translate(4 34)">
<title>view.editor.wizards.BoundsWizard.checkCoordinatesValid</title>
<polygon fill="white" stroke="none" points="-4,4 -4,-34 344,-34 344,4 -4,4"/>
<!-- Node1 -->
<g id="node1" class="node"><title>Node1</title>
<polygon fill="#bfbfbf" stroke="black" points="0.5,-0 0.5,-30 159.5,-30 159.5,-0 0.5,-0"/>
<text text-anchor="start" x="8.5" y="-18" font-family="Helvetica,sans-Serif" font-size="10.00">view.editor.wizards.Bounds</text>
<text text-anchor="middle" x="80" y="-7" font-family="Helvetica,sans-Serif" font-size="10.00">Wizard.checkCoordinatesValid</text>
</g>
<!-- Node2 -->
<g id="node2" class="node"><title>Node2</title>
<g id="a_node2"><a xlink:href="../../d0/d9a/classview_1_1editor_1_1wizards_1_1_bounds_wizard.html#afbbe610c6ee7da2e0b6901a3d285953c" target="_top" xlink:title="view.editor.wizards.Bounds\lWizard.checkCanSave">
<polygon fill="white" stroke="black" points="196.5,-0 196.5,-30 339.5,-30 339.5,-0 196.5,-0"/>
<text text-anchor="start" x="204.5" y="-18" font-family="Helvetica,sans-Serif" font-size="10.00">view.editor.wizards.Bounds</text>
<text text-anchor="middle" x="268" y="-7" font-family="Helvetica,sans-Serif" font-size="10.00">Wizard.checkCanSave</text>
</a>
</g>
</g>
<!-- Node1&#45;&gt;Node2 -->
<g id="edge1" class="edge"><title>Node1&#45;&gt;Node2</title>
<path fill="none" stroke="midnightblue" d="M169.673,-15C178.621,-15 187.622,-15 196.345,-15"/>
<polygon fill="midnightblue" stroke="midnightblue" points="169.611,-11.5001 159.611,-15 169.611,-18.5001 169.611,-11.5001"/>
</g>
</g>
</svg>
