<?xml version="1.0" encoding="UTF-8" standalone="no"?>
<!DOCTYPE svg PUBLIC "-//W3C//DTD SVG 1.1//EN"
 "http://www.w3.org/Graphics/SVG/1.1/DTD/svg11.dtd">
<!-- Generated by graphviz version 2.36.0 (20140111.2315)
 -->
<!-- Title: editor.wizards.GridLines.createColumns Pages: 1 -->
<!--zoomable 87 -->
<svg id="main" version="1.1" xmlns="http://www.w3.org/2000/svg" xmlns:xlink="http://www.w3.org/1999/xlink" xml:space="preserve" onload="init(evt)">
<style type="text/css"><![CDATA[
.edge:hover path { stroke: red; }
.edge:hover polygon { stroke: red; fill: red; }
]]></style>
<script type="text/javascript"><![CDATA[
var edges = document.getElementsByTagName('g');
if (edges && edges.length) {
  for (var i=0;i<edges.length;i++) {
    if (edges[i].id.substr(0,4)=='edge') {
      edges[i].setAttribute('class','edge');
    }
  }
}
]]></script>
        <defs>
                <circle id="rim" cx="0" cy="0" r="7"/>
                <circle id="rim2" cx="0" cy="0" r="3.5"/>
                <g id="zoomPlus">
                        <use xlink:href="#rim" fill="#404040">
                                <set attributeName="fill" to="#808080" begin="zoomplus.mouseover" end="zoomplus.mouseout"/>
                        </use>
                        <path d="M-4,0h8M0,-4v8" fill="none" stroke="white" stroke-width="1.5" pointer-events="none"/>
                </g>
                <g id="zoomMin">
                        <use xlink:href="#rim" fill="#404040">
                                <set attributeName="fill" to="#808080" begin="zoomminus.mouseover" end="zoomminus.mouseout"/>
                        </use>
                        <path d="M-4,0h8" fill="none" stroke="white" stroke-width="1.5" pointer-events="none"/>
                </g>
                <g id="dirArrow">
                        <path fill="none" stroke="white" stroke-width="1.5" d="M0,-3.0v7 M-2.5,-0.5L0,-3.0L2.5,-0.5"/>
                </g>
               <g id="resetDef">
                       <use xlink:href="#rim2" fill="#404040">
                               <set attributeName="fill" to="#808080" begin="reset.mouseover" end="reset.mouseout"/>
                       </use>
               </g>
        </defs>

<script type="text/javascript">
var viewWidth = 1018;
var viewHeight = 87;
var sectionId = 'dynsection-7';
</script>
<script xlink:href="../../svgpan.js"/>
<svg id="graph" class="graph">
<g id="viewport">
<title>editor.wizards.GridLines.createColumns</title>
<polygon fill="white" stroke="none" points="-4,4 -4,-83 1014,-83 1014,4 -4,4"/>
<!-- Node1 -->
<g id="node1" class="node"><title>Node1</title>
<polygon fill="#bfbfbf" stroke="black" points="0.5,-24 0.5,-54 163.5,-54 163.5,-24 0.5,-24"/>
<text text-anchor="start" x="8.5" y="-42" font-family="Helvetica,sans-Serif" font-size="10.00">editor.wizards.GridLines.create</text>
<text text-anchor="middle" x="82" y="-31" font-family="Helvetica,sans-Serif" font-size="10.00">Columns</text>
</g>
<!-- Node2 -->
<g id="node2" class="node"><title>Node2</title>
<g id="a_node2"><a xlink:href="../../d5/de7/classeditor_1_1wizards_1_1_grid_lines.html#af3dcb599db02b71980e2993710e22d57" target="_top" xlink:title="editor.wizards.GridLines.create\lGridLines">
<polygon fill="white" stroke="black" points="200.5,-24 200.5,-54 363.5,-54 363.5,-24 200.5,-24"/>
<text text-anchor="start" x="208.5" y="-42" font-family="Helvetica,sans-Serif" font-size="10.00">editor.wizards.GridLines.create</text>
<text text-anchor="middle" x="282" y="-31" font-family="Helvetica,sans-Serif" font-size="10.00">GridLines</text>
</a>
</g>
</g>
<!-- Node1&#45;&gt;Node2 -->
<g id="edge1" class="edge"><title>Node1&#45;&gt;Node2</title>
<path fill="none" stroke="midnightblue" d="M173.816,-39C182.623,-39 191.516,-39 200.216,-39"/>
<polygon fill="midnightblue" stroke="midnightblue" points="173.534,-35.5001 163.534,-39 173.534,-42.5001 173.534,-35.5001"/>
</g>
<!-- Node3 -->
<g id="node3" class="node"><title>Node3</title>
<g id="a_node3"><a xlink:href="../../d5/de7/classeditor_1_1wizards_1_1_grid_lines.html#af5f87f6c22b0bd0cc2d012d11b79592b" target="_top" xlink:title="editor.wizards.GridLines.changeSize">
<polygon fill="white" stroke="black" points="400,-29.5 400,-48.5 588,-48.5 588,-29.5 400,-29.5"/>
<text text-anchor="middle" x="494" y="-36.5" font-family="Helvetica,sans-Serif" font-size="10.00">editor.wizards.GridLines.changeSize</text>
</a>
</g>
</g>
<!-- Node2&#45;&gt;Node3 -->
<g id="edge2" class="edge"><title>Node2&#45;&gt;Node3</title>
<path fill="none" stroke="midnightblue" d="M373.634,-39C382.254,-39 391.005,-39 399.649,-39"/>
<polygon fill="midnightblue" stroke="midnightblue" points="373.591,-35.5001 363.591,-39 373.591,-42.5001 373.591,-35.5001"/>
</g>
<!-- Node4 -->
<g id="node4" class="node"><title>Node4</title>
<g id="a_node4"><a xlink:href="../../df/d00/classeditor_1_1wizards_1_1_drawable_game_element_wizard.html#a4bbb89fc834554f435ae2d3b49b54744" target="_top" xlink:title="editor.wizards.DrawableGame\lElementWizard.createSliderListeners">
<polygon fill="white" stroke="black" points="624,-49 624,-79 816,-79 816,-49 624,-49"/>
<text text-anchor="start" x="632" y="-67" font-family="Helvetica,sans-Serif" font-size="10.00">editor.wizards.DrawableGame</text>
<text text-anchor="middle" x="720" y="-56" font-family="Helvetica,sans-Serif" font-size="10.00">ElementWizard.createSliderListeners</text>
</a>
</g>
</g>
<!-- Node3&#45;&gt;Node4 -->
<g id="edge3" class="edge"><title>Node3&#45;&gt;Node4</title>
<path fill="none" stroke="midnightblue" d="M590.409,-49.6483C601.471,-50.883 612.755,-52.1423 623.815,-53.3767"/>
<polygon fill="midnightblue" stroke="midnightblue" points="590.65,-46.1536 580.324,-48.5227 589.874,-53.1104 590.65,-46.1536"/>
</g>
<!-- Node6 -->
<g id="node6" class="node"><title>Node6</title>
<g id="a_node6"><a xlink:href="../../d5/de7/classeditor_1_1wizards_1_1_grid_lines.html#aa40f90ca697ec1c8c033f44b23e08249" target="_top" xlink:title="editor.wizards.GridLines.\lGridLines">
<polygon fill="white" stroke="black" points="654,-0 654,-30 786,-30 786,-0 654,-0"/>
<text text-anchor="start" x="662" y="-18" font-family="Helvetica,sans-Serif" font-size="10.00">editor.wizards.GridLines.</text>
<text text-anchor="middle" x="720" y="-7" font-family="Helvetica,sans-Serif" font-size="10.00">GridLines</text>
</a>
</g>
</g>
<!-- Node3&#45;&gt;Node6 -->
<g id="edge5" class="edge"><title>Node3&#45;&gt;Node6</title>
<path fill="none" stroke="midnightblue" d="M594.043,-28.3882C614.271,-26.221 635.071,-23.9924 653.754,-21.9906"/>
<polygon fill="midnightblue" stroke="midnightblue" points="593.423,-24.9346 583.852,-29.4801 594.168,-31.8948 593.423,-24.9346"/>
</g>
<!-- Node5 -->
<g id="node5" class="node"><title>Node5</title>
<g id="a_node5"><a xlink:href="../../df/d00/classeditor_1_1wizards_1_1_drawable_game_element_wizard.html#a7a37e4c518775da5c3d49fb7b1a7ff85" target="_top" xlink:title="editor.wizards.DrawableGame\lElementWizard.initialize">
<polygon fill="white" stroke="black" points="852,-49 852,-79 1010,-79 1010,-49 852,-49"/>
<text text-anchor="start" x="860" y="-67" font-family="Helvetica,sans-Serif" font-size="10.00">editor.wizards.DrawableGame</text>
<text text-anchor="middle" x="931" y="-56" font-family="Helvetica,sans-Serif" font-size="10.00">ElementWizard.initialize</text>
</a>
</g>
</g>
<!-- Node4&#45;&gt;Node5 -->
<g id="edge4" class="edge"><title>Node4&#45;&gt;Node5</title>
<path fill="none" stroke="midnightblue" d="M826.146,-64C834.78,-64 843.409,-64 851.796,-64"/>
<polygon fill="midnightblue" stroke="midnightblue" points="826.021,-60.5001 816.021,-64 826.021,-67.5001 826.021,-60.5001"/>
</g>
</g>
</svg>
        <g id="navigator" transform="translate(0 0)" fill="#404254">
                <rect fill="#f2f5e9" fill-opacity="0.5" stroke="#606060" stroke-width=".5" x="0" y="0" width="60" height="60"/>
                <use id="zoomplus" xlink:href="#zoomPlus" x="17" y="9" onmousedown="handleZoom(evt,'in')"/>
                <use id="zoomminus" xlink:href="#zoomMin" x="42" y="9" onmousedown="handleZoom(evt,'out')"/>
                <use id="reset" xlink:href="#resetDef" x="30" y="36" onmousedown="handleReset()"/>
                <g id="arrowUp" xlink:href="#dirArrow" transform="translate(30 24)" onmousedown="handlePan(0,-1)">
                  <use xlink:href="#rim" fill="#404040">
                        <set attributeName="fill" to="#808080" begin="arrowUp.mouseover" end="arrowUp.mouseout"/>
                  </use>
                  <path fill="none" stroke="white" stroke-width="1.5" d="M0,-3.0v7 M-2.5,-0.5L0,-3.0L2.5,-0.5"/>
                </g>
                <g id="arrowRight" xlink:href="#dirArrow" transform="rotate(90) translate(36 -43)" onmousedown="handlePan(1,0)">
                  <use xlink:href="#rim" fill="#404040">
                        <set attributeName="fill" to="#808080" begin="arrowRight.mouseover" end="arrowRight.mouseout"/>
                  </use>
                  <path fill="none" stroke="white" stroke-width="1.5" d="M0,-3.0v7 M-2.5,-0.5L0,-3.0L2.5,-0.5"/>
                </g>
                <g id="arrowDown" xlink:href="#dirArrow" transform="rotate(180) translate(-30 -48)" onmousedown="handlePan(0,1)">
                  <use xlink:href="#rim" fill="#404040">
                        <set attributeName="fill" to="#808080" begin="arrowDown.mouseover" end="arrowDown.mouseout"/>
                  </use>
                  <path fill="none" stroke="white" stroke-width="1.5" d="M0,-3.0v7 M-2.5,-0.5L0,-3.0L2.5,-0.5"/>
                </g>
                <g id="arrowLeft" xlink:href="#dirArrow" transform="rotate(270) translate(-36 17)" onmousedown="handlePan(-1,0)">
                  <use xlink:href="#rim" fill="#404040">
                        <set attributeName="fill" to="#808080" begin="arrowLeft.mouseover" end="arrowLeft.mouseout"/>
                  </use>
                  <path fill="none" stroke="white" stroke-width="1.5" d="M0,-3.0v7 M-2.5,-0.5L0,-3.0L2.5,-0.5"/>
                </g>
        </g>
        <svg viewBox="0 0 15 15" width="100%" height="30px" preserveAspectRatio="xMaxYMin meet">
         <g id="arrow_out" transform="scale(0.3 0.3)">
          <a xlink:href="classeditor_1_1wizards_1_1_grid_lines_aa4626894e03f8ceb61152256de52452b_icgraph_org.svg" target="_base">
           <rect id="button" ry="5" rx="5" y="6" x="6" height="38" width="38"
                fill="#f2f5e9" fill-opacity="0.5" stroke="#606060" stroke-width="1.0"/>
           <path id="arrow"
             d="M 11.500037,31.436501 C 11.940474,20.09759 22.043105,11.32322 32.158766,21.979434 L 37.068811,17.246167 C 37.068811,17.246167 37.088388,32 37.088388,32 L 22.160133,31.978069 C 22.160133,31.978069 26.997745,27.140456 26.997745,27.140456 C 18.528582,18.264221 13.291696,25.230495 11.500037,31.436501 z"
             style="fill:#404040;"/>
          </a>
         </g>
        </svg>
</svg>
