<?xml version="1.0" encoding="UTF-8" standalone="no"?>
<!DOCTYPE svg PUBLIC "-//W3C//DTD SVG 1.1//EN"
 "http://www.w3.org/Graphics/SVG/1.1/DTD/svg11.dtd">
<!-- Generated by graphviz version 2.36.0 (20140111.2315)
 -->
<!-- Title: editor.wizards.GridLines.getFrameY Pages: 1 -->
<svg width="578pt" height="38pt"
 viewBox="0.00 0.00 578.00 38.00" xmlns="http://www.w3.org/2000/svg" xmlns:xlink="http://www.w3.org/1999/xlink">
<g id="graph0" class="graph" transform="scale(1 1) rotate(0) translate(4 34)">
<title>editor.wizards.GridLines.getFrameY</title>
<polygon fill="white" stroke="none" points="-4,4 -4,-34 574,-34 574,4 -4,4"/>
<!-- Node1 -->
<g id="node1" class="node"><title>Node1</title>
<polygon fill="#bfbfbf" stroke="black" points="0,-0 0,-30 148,-30 148,-0 0,-0"/>
<text text-anchor="start" x="8" y="-18" font-family="Helvetica,sans-Serif" font-size="10.00">editor.wizards.GridLines.get</text>
<text text-anchor="middle" x="74" y="-7" font-family="Helvetica,sans-Serif" font-size="10.00">FrameY</text>
</g>
<!-- Node2 -->
<g id="node2" class="node"><title>Node2</title>
<g id="a_node2"><a xlink:href="../../df/d00/classeditor_1_1wizards_1_1_drawable_game_element_wizard.html#a4bbb89fc834554f435ae2d3b49b54744" target="_top" xlink:title="editor.wizards.DrawableGame\lElementWizard.createSliderListeners">
<polygon fill="white" stroke="black" points="184,-0 184,-30 376,-30 376,-0 184,-0"/>
<text text-anchor="start" x="192" y="-18" font-family="Helvetica,sans-Serif" font-size="10.00">editor.wizards.DrawableGame</text>
<text text-anchor="middle" x="280" y="-7" font-family="Helvetica,sans-Serif" font-size="10.00">ElementWizard.createSliderListeners</text>
</a>
</g>
</g>
<!-- Node1&#45;&gt;Node2 -->
<g id="edge1" class="edge"><title>Node1&#45;&gt;Node2</title>
<path fill="none" stroke="midnightblue" d="M158.205,-15C166.597,-15 175.164,-15 183.669,-15"/>
<polygon fill="midnightblue" stroke="midnightblue" points="158.073,-11.5001 148.072,-15 158.072,-18.5001 158.073,-11.5001"/>
</g>
<!-- Node3 -->
<g id="node3" class="node"><title>Node3</title>
<g id="a_node3"><a xlink:href="../../df/d00/classeditor_1_1wizards_1_1_drawable_game_element_wizard.html#a7a37e4c518775da5c3d49fb7b1a7ff85" target="_top" xlink:title="editor.wizards.DrawableGame\lElementWizard.initialize">
<polygon fill="white" stroke="black" points="412,-0 412,-30 570,-30 570,-0 412,-0"/>
<text text-anchor="start" x="420" y="-18" font-family="Helvetica,sans-Serif" font-size="10.00">editor.wizards.DrawableGame</text>
<text text-anchor="middle" x="491" y="-7" font-family="Helvetica,sans-Serif" font-size="10.00">ElementWizard.initialize</text>
</a>
</g>
</g>
<!-- Node2&#45;&gt;Node3 -->
<g id="edge2" class="edge"><title>Node2&#45;&gt;Node3</title>
<path fill="none" stroke="midnightblue" d="M386.146,-15C394.78,-15 403.409,-15 411.796,-15"/>
<polygon fill="midnightblue" stroke="midnightblue" points="386.021,-11.5001 376.021,-15 386.021,-18.5001 386.021,-11.5001"/>
</g>
</g>
</svg>
