<?xml version="1.0" encoding="UTF-8" standalone="no"?>
<!DOCTYPE svg PUBLIC "-//W3C//DTD SVG 1.1//EN"
 "http://www.w3.org/Graphics/SVG/1.1/DTD/svg11.dtd">
<!-- Generated by graphviz version 2.36.0 (20140111.2315)
 -->
<!-- Title: game_engine.gameRepresentation.stateRepresentation.gameElement.SelectableGameElementState Pages: 1 -->
<!--zoomable 296 -->
<svg id="main" version="1.1" xmlns="http://www.w3.org/2000/svg" xmlns:xlink="http://www.w3.org/1999/xlink" xml:space="preserve" onload="init(evt)">
<style type="text/css"><![CDATA[
.edge:hover path { stroke: red; }
.edge:hover polygon { stroke: red; fill: red; }
]]></style>
<script type="text/javascript"><![CDATA[
var edges = document.getElementsByTagName('g');
if (edges && edges.length) {
  for (var i=0;i<edges.length;i++) {
    if (edges[i].id.substr(0,4)=='edge') {
      edges[i].setAttribute('class','edge');
    }
  }
}
]]></script>
        <defs>
                <circle id="rim" cx="0" cy="0" r="7"/>
                <circle id="rim2" cx="0" cy="0" r="3.5"/>
                <g id="zoomPlus">
                        <use xlink:href="#rim" fill="#404040">
                                <set attributeName="fill" to="#808080" begin="zoomplus.mouseover" end="zoomplus.mouseout"/>
                        </use>
                        <path d="M-4,0h8M0,-4v8" fill="none" stroke="white" stroke-width="1.5" pointer-events="none"/>
                </g>
                <g id="zoomMin">
                        <use xlink:href="#rim" fill="#404040">
                                <set attributeName="fill" to="#808080" begin="zoomminus.mouseover" end="zoomminus.mouseout"/>
                        </use>
                        <path d="M-4,0h8" fill="none" stroke="white" stroke-width="1.5" pointer-events="none"/>
                </g>
                <g id="dirArrow">
                        <path fill="none" stroke="white" stroke-width="1.5" d="M0,-3.0v7 M-2.5,-0.5L0,-3.0L2.5,-0.5"/>
                </g>
               <g id="resetDef">
                       <use xlink:href="#rim2" fill="#404040">
                               <set attributeName="fill" to="#808080" begin="reset.mouseover" end="reset.mouseout"/>
                       </use>
               </g>
        </defs>

<script type="text/javascript">
var viewWidth = 1408;
var viewHeight = 296;
var sectionId = 'dynsection-1';
</script>
<script xlink:href="../../svgpan.js"/>
<svg id="graph" class="graph">
<g id="viewport">
<title>game_engine.gameRepresentation.stateRepresentation.gameElement.SelectableGameElementState</title>
<polygon fill="white" stroke="none" points="-4,4 -4,-292 1404,-292 1404,4 -4,4"/>
<!-- Node1 -->
<g id="node1" class="node"><title>Node1</title>
<polygon fill="#bfbfbf" stroke="black" points="1188,-57.5 1188,-98.5 1400,-98.5 1400,-57.5 1188,-57.5"/>
<text text-anchor="start" x="1196" y="-86.5" font-family="Helvetica,sans-Serif" font-size="10.00">game_engine.gameRepresentation.state</text>
<text text-anchor="start" x="1196" y="-75.5" font-family="Helvetica,sans-Serif" font-size="10.00">Representation.gameElement.Selectable</text>
<text text-anchor="middle" x="1294" y="-64.5" font-family="Helvetica,sans-Serif" font-size="10.00">GameElementState</text>
</g>
<!-- Node2 -->
<g id="node2" class="node"><title>Node2</title>
<g id="a_node2"><a xlink:href="../../db/d72/classgame__engine_1_1game_representation_1_1state_representation_1_1game_element_1_1_drawable_game_element_state.html" target="_top" xlink:title="game_engine.gameRepresentation.state\lRepresentation.gameElement.DrawableGame\lElementState">
<polygon fill="white" stroke="black" points="760,-136.5 760,-177.5 996,-177.5 996,-136.5 760,-136.5"/>
<text text-anchor="start" x="768" y="-165.5" font-family="Helvetica,sans-Serif" font-size="10.00">game_engine.gameRepresentation.state</text>
<text text-anchor="start" x="768" y="-154.5" font-family="Helvetica,sans-Serif" font-size="10.00">Representation.gameElement.DrawableGame</text>
<text text-anchor="middle" x="878" y="-143.5" font-family="Helvetica,sans-Serif" font-size="10.00">ElementState</text>
</a>
</g>
</g>
<!-- Node2&#45;&gt;Node1 -->
<g id="edge1" class="edge"><title>Node2&#45;&gt;Node1</title>
<path fill="none" stroke="midnightblue" d="M1006.1,-135.403C1057.13,-126.441 1116.44,-115.659 1170,-105 1180.18,-102.973 1190.82,-100.769 1201.4,-98.5225"/>
<polygon fill="midnightblue" stroke="midnightblue" points="1005.26,-131.997 996.014,-137.17 1006.47,-138.892 1005.26,-131.997"/>
</g>
<!-- Node3 -->
<g id="node3" class="node"><title>Node3</title>
<g id="a_node3"><a xlink:href="../../dc/d2d/classgame__engine_1_1game_representation_1_1state_representation_1_1game_element_1_1_game_element_state.html" target="_top" xlink:title="game_engine.gameRepresentation.state\lRepresentation.gameElement.GameElementState">
<polygon fill="white" stroke="black" points="392.5,-179 392.5,-209 649.5,-209 649.5,-179 392.5,-179"/>
<text text-anchor="start" x="400.5" y="-197" font-family="Helvetica,sans-Serif" font-size="10.00">game_engine.gameRepresentation.state</text>
<text text-anchor="middle" x="521" y="-186" font-family="Helvetica,sans-Serif" font-size="10.00">Representation.gameElement.GameElementState</text>
</a>
</g>
</g>
<!-- Node3&#45;&gt;Node2 -->
<g id="edge2" class="edge"><title>Node3&#45;&gt;Node2</title>
<path fill="none" stroke="midnightblue" d="M659.854,-179.632C692.912,-176.187 727.904,-172.54 759.919,-169.203"/>
<polygon fill="midnightblue" stroke="midnightblue" points="659.245,-176.177 649.662,-180.694 659.971,-183.139 659.245,-176.177"/>
</g>
<!-- Node4 -->
<g id="node4" class="node"><title>Node4</title>
<g id="a_node4"><a xlink:href="../../df/d74/interfaceutil_1_1_j_s_o_nable.html" target="_top" xlink:title="util.JSONable">
<polygon fill="white" stroke="black" points="81,-230.5 81,-249.5 159,-249.5 159,-230.5 81,-230.5"/>
<text text-anchor="middle" x="120" y="-237.5" font-family="Helvetica,sans-Serif" font-size="10.00">util.JSONable</text>
</a>
</g>
</g>
<!-- Node4&#45;&gt;Node3 -->
<g id="edge3" class="edge"><title>Node4&#45;&gt;Node3</title>
<path fill="none" stroke="midnightblue" d="M169.419,-234.418C224.432,-228.076 316.427,-217.47 392.378,-208.713"/>
<polygon fill="midnightblue" stroke="midnightblue" points="168.791,-230.967 159.258,-235.589 169.593,-237.921 168.791,-230.967"/>
</g>
<!-- Node10 -->
<g id="node10" class="node"><title>Node10</title>
<g id="a_node10"><a xlink:href="../../d7/d37/classgame__engine_1_1visuals_1_1_spritesheet.html" target="_top" xlink:title="game_engine.visuals.Spritesheet">
<polygon fill="white" stroke="black" points="433,-235.5 433,-254.5 609,-254.5 609,-235.5 433,-235.5"/>
<text text-anchor="middle" x="521" y="-242.5" font-family="Helvetica,sans-Serif" font-size="10.00">game_engine.visuals.Spritesheet</text>
</a>
</g>
</g>
<!-- Node4&#45;&gt;Node10 -->
<g id="edge10" class="edge"><title>Node4&#45;&gt;Node10</title>
<path fill="none" stroke="midnightblue" d="M169.272,-240.605C234.551,-241.423 352.096,-242.896 432.989,-243.91"/>
<polygon fill="midnightblue" stroke="midnightblue" points="169.301,-237.105 159.258,-240.479 169.213,-244.105 169.301,-237.105"/>
</g>
<!-- Node5 -->
<g id="node5" class="node"><title>Node5</title>
<polygon fill="white" stroke="#bfbfbf" points="0,-60.5 0,-101.5 240,-101.5 240,-60.5 0,-60.5"/>
<text text-anchor="start" x="8" y="-89.5" font-family="Helvetica,sans-Serif" font-size="10.00">Set&lt; game_engine.gameRepresentation.state</text>
<text text-anchor="start" x="8" y="-78.5" font-family="Helvetica,sans-Serif" font-size="10.00">Representation.gameElement.Attribute</text>
<text text-anchor="middle" x="120" y="-67.5" font-family="Helvetica,sans-Serif" font-size="10.00">&lt; Number &gt; &gt;</text>
</g>
<!-- Node5&#45;&gt;Node3 -->
<g id="edge4" class="edge"><title>Node5&#45;&gt;Node3</title>
<path fill="none" stroke="#9a32cd" stroke-dasharray="5,2" d="M212.34,-104.012C221.682,-106.37 231.032,-108.732 240,-111 299.567,-126.065 322.873,-110.923 374,-145 385.095,-152.395 380.704,-161.917 392,-169 398.138,-172.849 404.742,-176.127 411.599,-178.915"/>
<polygon fill="#9a32cd" stroke="#9a32cd" points="213.174,-100.613 202.622,-101.559 211.461,-107.4 213.174,-100.613"/>
<text text-anchor="middle" x="316" y="-148" font-family="Helvetica,sans-Serif" font-size="10.00"> myNumericalAttributes</text>
</g>
<!-- Node6 -->
<g id="node6" class="node"><title>Node6</title>
<polygon fill="white" stroke="#bfbfbf" points="66.5,-180 66.5,-210 173.5,-210 173.5,-180 66.5,-180"/>
<text text-anchor="start" x="74.5" y="-198" font-family="Helvetica,sans-Serif" font-size="10.00">Map&lt; String, List&lt;</text>
<text text-anchor="middle" x="120" y="-187" font-family="Helvetica,sans-Serif" font-size="10.00"> String &gt; &gt;</text>
</g>
<!-- Node6&#45;&gt;Node3 -->
<g id="edge5" class="edge"><title>Node6&#45;&gt;Node3</title>
<path fill="none" stroke="#9a32cd" stroke-dasharray="5,2" d="M183.638,-194.843C239.308,-194.703 322.426,-194.495 392.106,-194.321"/>
<polygon fill="#9a32cd" stroke="#9a32cd" points="183.564,-191.343 173.573,-194.868 183.581,-198.343 183.564,-191.343"/>
<text text-anchor="middle" x="316" y="-198" font-family="Helvetica,sans-Serif" font-size="10.00"> myActions</text>
</g>
<!-- Node7 -->
<g id="node7" class="node"><title>Node7</title>
<polygon fill="white" stroke="#bfbfbf" points="0,-120.5 0,-161.5 240,-161.5 240,-120.5 0,-120.5"/>
<text text-anchor="start" x="8" y="-149.5" font-family="Helvetica,sans-Serif" font-size="10.00">Set&lt; game_engine.gameRepresentation.state</text>
<text text-anchor="start" x="8" y="-138.5" font-family="Helvetica,sans-Serif" font-size="10.00">Representation.gameElement.Attribute</text>
<text text-anchor="middle" x="120" y="-127.5" font-family="Helvetica,sans-Serif" font-size="10.00">&lt; String &gt; &gt;</text>
</g>
<!-- Node7&#45;&gt;Node3 -->
<g id="edge6" class="edge"><title>Node7&#45;&gt;Node3</title>
<path fill="none" stroke="#9a32cd" stroke-dasharray="5,2" d="M250.177,-158.159C300.679,-164.867 358.076,-172.491 406.911,-178.978"/>
<polygon fill="#9a32cd" stroke="#9a32cd" points="250.547,-154.677 240.173,-156.83 249.625,-161.616 250.547,-154.677"/>
<text text-anchor="middle" x="316" y="-177" font-family="Helvetica,sans-Serif" font-size="10.00"> myTextualAttributes</text>
</g>
<!-- Node8 -->
<g id="node8" class="node"><title>Node8</title>
<g id="a_node8"><a xlink:href="../../d3/dfc/interfacegame__engine_1_1game_representation_1_1state_representation_1_1game_element_1_1traits_1_1_boundable.html" target="_top" xlink:title="game_engine.gameRepresentation.state\lRepresentation.gameElement.traits.Boundable">
<polygon fill="white" stroke="black" points="400.5,-130 400.5,-160 641.5,-160 641.5,-130 400.5,-130"/>
<text text-anchor="start" x="408.5" y="-148" font-family="Helvetica,sans-Serif" font-size="10.00">game_engine.gameRepresentation.state</text>
<text text-anchor="middle" x="521" y="-137" font-family="Helvetica,sans-Serif" font-size="10.00">Representation.gameElement.traits.Boundable</text>
</a>
</g>
</g>
<!-- Node8&#45;&gt;Node2 -->
<g id="edge7" class="edge"><title>Node8&#45;&gt;Node2</title>
<path fill="none" stroke="midnightblue" d="M652.064,-149.397C687.375,-150.59 725.389,-151.875 759.935,-153.043"/>
<polygon fill="midnightblue" stroke="midnightblue" points="651.804,-145.886 641.692,-149.046 651.568,-152.882 651.804,-145.886"/>
</g>
<!-- Node9 -->
<g id="node9" class="node"><title>Node9</title>
<polygon fill="white" stroke="#bfbfbf" points="428,-81 428,-111 614,-111 614,-81 428,-81"/>
<text text-anchor="start" x="436" y="-99" font-family="Helvetica,sans-Serif" font-size="10.00">Map&lt; String, game_engine.visuals.</text>
<text text-anchor="middle" x="521" y="-88" font-family="Helvetica,sans-Serif" font-size="10.00">AnimationSequence &gt;</text>
</g>
<!-- Node9&#45;&gt;Node2 -->
<g id="edge8" class="edge"><title>Node9&#45;&gt;Node2</title>
<path fill="none" stroke="#9a32cd" stroke-dasharray="5,2" d="M619.295,-112.718C662.737,-120.183 714.295,-129.042 759.838,-136.868"/>
<polygon fill="#9a32cd" stroke="#9a32cd" points="619.746,-109.245 609.297,-111 618.56,-116.143 619.746,-109.245"/>
<text text-anchor="middle" x="705" y="-137" font-family="Helvetica,sans-Serif" font-size="10.00"> myAnimations</text>
</g>
<!-- Node10&#45;&gt;Node2 -->
<g id="edge9" class="edge"><title>Node10&#45;&gt;Node2</title>
<path fill="none" stroke="#9a32cd" stroke-dasharray="5,2" d="M580.01,-233.463C601.992,-228.908 627.208,-223.462 650,-218 701.986,-205.542 760.209,-189.861 804.673,-177.517"/>
<polygon fill="#9a32cd" stroke="#9a32cd" points="579.247,-230.046 570.158,-235.49 580.658,-236.903 579.247,-230.046"/>
<text text-anchor="middle" x="705" y="-217" font-family="Helvetica,sans-Serif" font-size="10.00"> mySpritesheet</text>
</g>
<!-- Node11 -->
<g id="node11" class="node"><title>Node11</title>
<g id="a_node11"><a xlink:href="../../de/d86/classgame__engine_1_1visuals_1_1_dimension.html" target="_top" xlink:title="game_engine.visuals.Dimension">
<polygon fill="white" stroke="black" points="34.5,-268.5 34.5,-287.5 205.5,-287.5 205.5,-268.5 34.5,-268.5"/>
<text text-anchor="middle" x="120" y="-275.5" font-family="Helvetica,sans-Serif" font-size="10.00">game_engine.visuals.Dimension</text>
</a>
</g>
</g>
<!-- Node11&#45;&gt;Node10 -->
<g id="edge11" class="edge"><title>Node11&#45;&gt;Node10</title>
<path fill="none" stroke="#9a32cd" stroke-dasharray="5,2" d="M215.989,-270.144C281.78,-264.702 368.702,-257.513 432.746,-252.216"/>
<polygon fill="#9a32cd" stroke="#9a32cd" points="215.295,-266.689 205.618,-271.002 215.872,-273.665 215.295,-266.689"/>
<text text-anchor="middle" x="316" y="-270" font-family="Helvetica,sans-Serif" font-size="10.00"> frameDimensions</text>
</g>
<!-- Node12 -->
<g id="node12" class="node"><title>Node12</title>
<g id="a_node12"><a xlink:href="../../d8/dcf/interfacegame__engine_1_1game_representation_1_1state_representation_1_1game_element_1_1traits_1_1_sighted.html" target="_top" xlink:title="game_engine.gameRepresentation.state\lRepresentation.gameElement.traits.Sighted">
<polygon fill="white" stroke="black" points="764.5,-88 764.5,-118 991.5,-118 991.5,-88 764.5,-88"/>
<text text-anchor="start" x="772.5" y="-106" font-family="Helvetica,sans-Serif" font-size="10.00">game_engine.gameRepresentation.state</text>
<text text-anchor="middle" x="878" y="-95" font-family="Helvetica,sans-Serif" font-size="10.00">Representation.gameElement.traits.Sighted</text>
</a>
</g>
</g>
<!-- Node12&#45;&gt;Node1 -->
<g id="edge12" class="edge"><title>Node12&#45;&gt;Node1</title>
<path fill="none" stroke="midnightblue" d="M1001.89,-96.0012C1053.77,-92.9994 1114.83,-89.4054 1170,-86 1175.87,-85.6374 1181.9,-85.2604 1187.99,-84.8763"/>
<polygon fill="midnightblue" stroke="midnightblue" points="1001.42,-92.5224 991.635,-96.5934 1001.82,-99.5107 1001.42,-92.5224"/>
</g>
<!-- Node13 -->
<g id="node13" class="node"><title>Node13</title>
<polygon fill="white" stroke="#bfbfbf" points="805,-39 805,-69 951,-69 951,-39 805,-39"/>
<text text-anchor="start" x="813" y="-57" font-family="Helvetica,sans-Serif" font-size="10.00">Map&lt; String, Map&lt; String,</text>
<text text-anchor="middle" x="878" y="-46" font-family="Helvetica,sans-Serif" font-size="10.00"> String &gt; &gt;</text>
</g>
<!-- Node13&#45;&gt;Node1 -->
<g id="edge13" class="edge"><title>Node13&#45;&gt;Node1</title>
<path fill="none" stroke="#9a32cd" stroke-dasharray="5,2" d="M961.323,-58.7723C1026.38,-62.5439 1117.63,-67.8336 1187.95,-71.9103"/>
<polygon fill="#9a32cd" stroke="#9a32cd" points="961.299,-55.2652 951.113,-58.1805 960.894,-62.2534 961.299,-55.2652"/>
<text text-anchor="middle" x="1092" y="-74" font-family="Helvetica,sans-Serif" font-size="10.00"> myAllAbilityRepresentations</text>
</g>
<!-- Node14 -->
<g id="node14" class="node"><title>Node14</title>
<polygon fill="white" stroke="#bfbfbf" points="817,-0.5 817,-19.5 939,-19.5 939,-0.5 817,-0.5"/>
<text text-anchor="middle" x="878" y="-7.5" font-family="Helvetica,sans-Serif" font-size="10.00">Map&lt; String, String &gt;</text>
</g>
<!-- Node14&#45;&gt;Node1 -->
<g id="edge14" class="edge"><title>Node14&#45;&gt;Node1</title>
<path fill="none" stroke="#9a32cd" stroke-dasharray="5,2" d="M949.196,-16.9888C1008.35,-23.3979 1095.08,-34.0143 1170,-48 1184.37,-50.6821 1199.57,-53.9951 1214.21,-57.4303"/>
<polygon fill="#9a32cd" stroke="#9a32cd" points="949.53,-13.5047 939.214,-15.9188 948.784,-20.4648 949.53,-13.5047"/>
<text text-anchor="middle" x="1092" y="-51" font-family="Helvetica,sans-Serif" font-size="10.00"> myCurrentAbilityRepresentation</text>
</g>
</g>
</svg>
        <g id="navigator" transform="translate(0 0)" fill="#404254">
                <rect fill="#f2f5e9" fill-opacity="0.5" stroke="#606060" stroke-width=".5" x="0" y="0" width="60" height="60"/>
                <use id="zoomplus" xlink:href="#zoomPlus" x="17" y="9" onmousedown="handleZoom(evt,'in')"/>
                <use id="zoomminus" xlink:href="#zoomMin" x="42" y="9" onmousedown="handleZoom(evt,'out')"/>
                <use id="reset" xlink:href="#resetDef" x="30" y="36" onmousedown="handleReset()"/>
                <g id="arrowUp" xlink:href="#dirArrow" transform="translate(30 24)" onmousedown="handlePan(0,-1)">
                  <use xlink:href="#rim" fill="#404040">
                        <set attributeName="fill" to="#808080" begin="arrowUp.mouseover" end="arrowUp.mouseout"/>
                  </use>
                  <path fill="none" stroke="white" stroke-width="1.5" d="M0,-3.0v7 M-2.5,-0.5L0,-3.0L2.5,-0.5"/>
                </g>
                <g id="arrowRight" xlink:href="#dirArrow" transform="rotate(90) translate(36 -43)" onmousedown="handlePan(1,0)">
                  <use xlink:href="#rim" fill="#404040">
                        <set attributeName="fill" to="#808080" begin="arrowRight.mouseover" end="arrowRight.mouseout"/>
                  </use>
                  <path fill="none" stroke="white" stroke-width="1.5" d="M0,-3.0v7 M-2.5,-0.5L0,-3.0L2.5,-0.5"/>
                </g>
                <g id="arrowDown" xlink:href="#dirArrow" transform="rotate(180) translate(-30 -48)" onmousedown="handlePan(0,1)">
                  <use xlink:href="#rim" fill="#404040">
                        <set attributeName="fill" to="#808080" begin="arrowDown.mouseover" end="arrowDown.mouseout"/>
                  </use>
                  <path fill="none" stroke="white" stroke-width="1.5" d="M0,-3.0v7 M-2.5,-0.5L0,-3.0L2.5,-0.5"/>
                </g>
                <g id="arrowLeft" xlink:href="#dirArrow" transform="rotate(270) translate(-36 17)" onmousedown="handlePan(-1,0)">
                  <use xlink:href="#rim" fill="#404040">
                        <set attributeName="fill" to="#808080" begin="arrowLeft.mouseover" end="arrowLeft.mouseout"/>
                  </use>
                  <path fill="none" stroke="white" stroke-width="1.5" d="M0,-3.0v7 M-2.5,-0.5L0,-3.0L2.5,-0.5"/>
                </g>
        </g>
        <svg viewBox="0 0 15 15" width="100%" height="30px" preserveAspectRatio="xMaxYMin meet">
         <g id="arrow_out" transform="scale(0.3 0.3)">
          <a xlink:href="classgame__engine_1_1game_representation_1_1state_representation_1_1game_element_1_1_selectable_game_element_state__coll__graph_org.svg" target="_base">
           <rect id="button" ry="5" rx="5" y="6" x="6" height="38" width="38"
                fill="#f2f5e9" fill-opacity="0.5" stroke="#606060" stroke-width="1.0"/>
           <path id="arrow"
             d="M 11.500037,31.436501 C 11.940474,20.09759 22.043105,11.32322 32.158766,21.979434 L 37.068811,17.246167 C 37.068811,17.246167 37.088388,32 37.088388,32 L 22.160133,31.978069 C 22.160133,31.978069 26.997745,27.140456 26.997745,27.140456 C 18.528582,18.264221 13.291696,25.230495 11.500037,31.436501 z"
             style="fill:#404040;"/>
          </a>
         </g>
        </svg>
</svg>
