<?xml version="1.0" encoding="UTF-8" standalone="no"?>
<!DOCTYPE svg PUBLIC "-//W3C//DTD SVG 1.1//EN"
 "http://www.w3.org/Graphics/SVG/1.1/DTD/svg11.dtd">
<!-- Generated by graphviz version 2.36.0 (20140111.2315)
 -->
<!-- Title: editor.wizards.StringAttributeWizard.updateData Pages: 1 -->
<svg width="562pt" height="87pt"
 viewBox="0.00 0.00 562.00 87.00" xmlns="http://www.w3.org/2000/svg" xmlns:xlink="http://www.w3.org/1999/xlink">
<g id="graph0" class="graph" transform="scale(1 1) rotate(0) translate(4 83)">
<title>editor.wizards.StringAttributeWizard.updateData</title>
<polygon fill="white" stroke="none" points="-4,4 -4,-83 558,-83 558,4 -4,4"/>
<!-- Node1 -->
<g id="node1" class="node"><title>Node1</title>
<polygon fill="#bfbfbf" stroke="black" points="0.5,-24 0.5,-54 155.5,-54 155.5,-24 0.5,-24"/>
<text text-anchor="start" x="8.5" y="-42" font-family="Helvetica,sans-Serif" font-size="10.00">editor.wizards.StringAttribute</text>
<text text-anchor="middle" x="78" y="-31" font-family="Helvetica,sans-Serif" font-size="10.00">Wizard.updateData</text>
</g>
<!-- Node2 -->
<g id="node2" class="node"><title>Node2</title>
<g id="a_node2"><a xlink:href="../../d9/d24/classeditor_1_1wizards_1_1_wizard.html#aa88b7fa8c660190364c8c3c06113e137" target="_top" xlink:title="editor.wizards.Wizard.add\lToData">
<polygon fill="white" stroke="black" points="192.5,-49 192.5,-79 329.5,-79 329.5,-49 192.5,-49"/>
<text text-anchor="start" x="200.5" y="-67" font-family="Helvetica,sans-Serif" font-size="10.00">editor.wizards.Wizard.add</text>
<text text-anchor="middle" x="261" y="-56" font-family="Helvetica,sans-Serif" font-size="10.00">ToData</text>
</a>
</g>
</g>
<!-- Node1&#45;&gt;Node2 -->
<g id="edge1" class="edge"><title>Node1&#45;&gt;Node2</title>
<path fill="none" stroke="midnightblue" d="M155.76,-49.6023C164.486,-50.8075 173.386,-52.0368 182.126,-53.244"/>
<polygon fill="midnightblue" stroke="midnightblue" points="181.908,-56.7469 192.293,-54.6481 182.866,-49.8128 181.908,-56.7469"/>
</g>
<!-- Node4 -->
<g id="node4" class="node"><title>Node4</title>
<g id="a_node4"><a xlink:href="../../d9/d24/classeditor_1_1wizards_1_1_wizard.html#ac990b6545e07a6e24731e434770e9aea" target="_top" xlink:title="editor.wizards.Wizard.set\lDataName">
<polygon fill="white" stroke="black" points="194,-0 194,-30 328,-30 328,-0 194,-0"/>
<text text-anchor="start" x="202" y="-18" font-family="Helvetica,sans-Serif" font-size="10.00">editor.wizards.Wizard.set</text>
<text text-anchor="middle" x="261" y="-7" font-family="Helvetica,sans-Serif" font-size="10.00">DataName</text>
</a>
</g>
</g>
<!-- Node1&#45;&gt;Node4 -->
<g id="edge3" class="edge"><title>Node1&#45;&gt;Node4</title>
<path fill="none" stroke="midnightblue" d="M155.76,-28.8218C165.1,-27.5834 174.64,-26.3184 183.969,-25.0814"/>
<polygon fill="midnightblue" stroke="midnightblue" points="184.538,-28.5368 193.991,-23.7526 183.617,-21.5975 184.538,-28.5368"/>
</g>
<!-- Node3 -->
<g id="node3" class="node"><title>Node3</title>
<g id="a_node3"><a xlink:href="../../dc/d23/classeditor_1_1wizards_1_1_wizard_data.html#a2de2ac096dc357a4e6951095e776809e" target="_top" xlink:title="editor.wizards.WizardData.add\lDataPair">
<polygon fill="white" stroke="black" points="379.5,-49 379.5,-79 540.5,-79 540.5,-49 379.5,-49"/>
<text text-anchor="start" x="387.5" y="-67" font-family="Helvetica,sans-Serif" font-size="10.00">editor.wizards.WizardData.add</text>
<text text-anchor="middle" x="460" y="-56" font-family="Helvetica,sans-Serif" font-size="10.00">DataPair</text>
</a>
</g>
</g>
<!-- Node2&#45;&gt;Node3 -->
<g id="edge2" class="edge"><title>Node2&#45;&gt;Node3</title>
<path fill="none" stroke="midnightblue" d="M329.521,-64C342.302,-64 355.858,-64 369.199,-64"/>
<polygon fill="midnightblue" stroke="midnightblue" points="369.343,-67.5001 379.343,-64 369.343,-60.5001 369.343,-67.5001"/>
</g>
<!-- Node5 -->
<g id="node5" class="node"><title>Node5</title>
<g id="a_node5"><a xlink:href="../../dc/d23/classeditor_1_1wizards_1_1_wizard_data.html#a914bf7943e77021054547fa598c32e34" target="_top" xlink:title="editor.wizards.WizardData.setName">
<polygon fill="white" stroke="black" points="366.5,-5.5 366.5,-24.5 553.5,-24.5 553.5,-5.5 366.5,-5.5"/>
<text text-anchor="middle" x="460" y="-12.5" font-family="Helvetica,sans-Serif" font-size="10.00">editor.wizards.WizardData.setName</text>
</a>
</g>
</g>
<!-- Node4&#45;&gt;Node5 -->
<g id="edge4" class="edge"><title>Node4&#45;&gt;Node5</title>
<path fill="none" stroke="midnightblue" d="M328.146,-15C337.272,-15 346.814,-15 356.409,-15"/>
<polygon fill="midnightblue" stroke="midnightblue" points="356.41,-18.5001 366.41,-15 356.41,-11.5001 356.41,-18.5001"/>
</g>
</g>
</svg>
