<?xml version="1.0" encoding="UTF-8" standalone="no"?>
<!DOCTYPE svg PUBLIC "-//W3C//DTD SVG 1.1//EN"
 "http://www.w3.org/Graphics/SVG/1.1/DTD/svg11.dtd">
<!-- Generated by graphviz version 2.36.0 (20140111.2315)
 -->
<!-- Title: /tmp/duke&#45;compsci308&#45;fall2014/voogasalad_TheException/repository/build/project/src Pages: 1 -->
<svg width="536pt" height="111pt"
 viewBox="0.00 0.00 536.00 111.00" xmlns="http://www.w3.org/2000/svg" xmlns:xlink="http://www.w3.org/1999/xlink">
<g id="graph0" class="graph" transform="scale(1 1) rotate(0) translate(4 107)">
<title>/tmp/duke&#45;compsci308&#45;fall2014/voogasalad_TheException/repository/build/project/src</title>
<polygon fill="white" stroke="none" points="-4,4 -4,-107 532,-107 532,4 -4,4"/>
<g id="clust1" class="cluster"><title>clusterdir_3f6c88141ef5a251dfe5ab1aace3a00a</title>
<g id="a_clust1"><a xlink:href="dir_3f6c88141ef5a251dfe5ab1aace3a00a.html" target="_top" xlink:title="project">
<polygon fill="#ddddee" stroke="black" points="8,-8 8,-95 520,-95 520,-8 8,-8"/>
<text text-anchor="middle" x="264" y="-83" font-family="Helvetica,sans-Serif" font-size="10.00">project</text>
</a>
</g>
</g>
<g id="clust2" class="cluster"><title>clusterdir_d28e557d415e28969ded1fdd83021877</title>
<g id="a_clust2"><a xlink:href="dir_d28e557d415e28969ded1fdd83021877.html" target="_top">
<polygon fill="#eeeeff" stroke="black" points="16,-16 16,-68 512,-68 512,-16 16,-16"/>
</a>
</g>
</g>
<!-- dir_d28e557d415e28969ded1fdd83021877 -->
<g id="node1" class="node"><title>dir_d28e557d415e28969ded1fdd83021877</title>
<text text-anchor="middle" x="477" y="-39.5" font-family="Helvetica,sans-Serif" font-size="10.00">src</text>
</g>
<!-- dir_7e0b1c742061f34fd56300ba720911d4 -->
<g id="node2" class="node"><title>dir_7e0b1c742061f34fd56300ba720911d4</title>
<g id="a_node2"><a xlink:href="dir_7e0b1c742061f34fd56300ba720911d4.html" target="_top" xlink:title="application">
<polygon fill="white" stroke="black" points="432,-60 364,-60 364,-24 432,-24 432,-60"/>
<text text-anchor="middle" x="398" y="-39.5" font-family="Helvetica,sans-Serif" font-size="10.00">application</text>
</a>
</g>
</g>
<!-- dir_9bab49dfde8dd3b9281a7d26c0a3cc2b -->
<g id="node3" class="node"><title>dir_9bab49dfde8dd3b9281a7d26c0a3cc2b</title>
<g id="a_node3"><a xlink:href="dir_9bab49dfde8dd3b9281a7d26c0a3cc2b.html" target="_top" xlink:title="game_editor">
<polygon fill="white" stroke="black" points="345.25,-60 268.75,-60 268.75,-24 345.25,-24 345.25,-60"/>
<text text-anchor="middle" x="307" y="-39.5" font-family="Helvetica,sans-Serif" font-size="10.00">game_editor</text>
</a>
</g>
</g>
<!-- dir_c10116d510eb8d753612006a692910b2 -->
<g id="node4" class="node"><title>dir_c10116d510eb8d753612006a692910b2</title>
<g id="a_node4"><a xlink:href="dir_c10116d510eb8d753612006a692910b2.html" target="_top" xlink:title="game_engine">
<polygon fill="white" stroke="black" points="250,-60 168,-60 168,-24 250,-24 250,-60"/>
<text text-anchor="middle" x="209" y="-39.5" font-family="Helvetica,sans-Serif" font-size="10.00">game_engine</text>
</a>
</g>
</g>
<!-- dir_f933b04fc384122d721ceee3cf3fcaf4 -->
<g id="node5" class="node"><title>dir_f933b04fc384122d721ceee3cf3fcaf4</title>
<g id="a_node5"><a xlink:href="dir_f933b04fc384122d721ceee3cf3fcaf4.html" target="_top" xlink:title="test">
<polygon fill="white" stroke="red" points="150,-60 96,-60 96,-24 150,-24 150,-60"/>
<text text-anchor="middle" x="123" y="-39.5" font-family="Helvetica,sans-Serif" font-size="10.00">test</text>
</a>
</g>
</g>
<!-- dir_41ec1e9652434edc1fe04b46ac8df7dd -->
<g id="node6" class="node"><title>dir_41ec1e9652434edc1fe04b46ac8df7dd</title>
<g id="a_node6"><a xlink:href="dir_41ec1e9652434edc1fe04b46ac8df7dd.html" target="_top" xlink:title="vooga">
<polygon fill="white" stroke="red" points="78,-60 24,-60 24,-24 78,-24 78,-60"/>
<text text-anchor="middle" x="51" y="-39.5" font-family="Helvetica,sans-Serif" font-size="10.00">vooga</text>
</a>
</g>
</g>
</g>
</svg>
