<?xml version="1.0" encoding="UTF-8" standalone="no"?>
<!DOCTYPE svg PUBLIC "-//W3C//DTD SVG 1.1//EN"
 "http://www.w3.org/Graphics/SVG/1.1/DTD/svg11.dtd">
<!-- Generated by graphviz version 2.36.0 (20140111.2315)
 -->
<!-- Title: Graphical Class Hierarchy Pages: 1 -->
<svg width="974pt" height="475pt"
 viewBox="0.00 0.00 974.00 475.00" xmlns="http://www.w3.org/2000/svg" xmlns:xlink="http://www.w3.org/1999/xlink">
<g id="graph0" class="graph" transform="scale(1 1) rotate(0) translate(4 471)">
<title>Graphical Class Hierarchy</title>
<polygon fill="white" stroke="none" points="-4,4 -4,-471 970,-471 970,4 -4,4"/>
<!-- Node1 -->
<g id="node1" class="node"><title>Node1</title>
<g id="a_node1"><a xlink:href="d3/dfc/interfacegame__engine_1_1game_representation_1_1state_representation_1_1game_element_1_1traits_1_1_boundable.html" target="_top" xlink:title="game_engine.gameRepresentation.state\lRepresentation.gameElement.traits.Boundable">
<polygon fill="white" stroke="black" points="176.5,-290 176.5,-320 417.5,-320 417.5,-290 176.5,-290"/>
<text text-anchor="start" x="184.5" y="-308" font-family="Helvetica,sans-Serif" font-size="10.00">game_engine.gameRepresentation.state</text>
<text text-anchor="middle" x="297" y="-297" font-family="Helvetica,sans-Serif" font-size="10.00">Representation.gameElement.traits.Boundable</text>
</a>
</g>
</g>
<!-- Node2 -->
<g id="node2" class="node"><title>Node2</title>
<g id="a_node2"><a xlink:href="d1/dfe/classgame__engine_1_1game_representation_1_1rendered_representation_1_1_drawable_game_element.html" target="_top" xlink:title="game_engine.gameRepresentation.rendered\lRepresentation.DrawableGameElement">
<polygon fill="white" stroke="black" points="464.5,-290 464.5,-320 695.5,-320 695.5,-290 464.5,-290"/>
<text text-anchor="start" x="472.5" y="-308" font-family="Helvetica,sans-Serif" font-size="10.00">game_engine.gameRepresentation.rendered</text>
<text text-anchor="middle" x="580" y="-297" font-family="Helvetica,sans-Serif" font-size="10.00">Representation.DrawableGameElement</text>
</a>
</g>
</g>
<!-- Node1&#45;&gt;Node2 -->
<g id="edge1" class="edge"><title>Node1&#45;&gt;Node2</title>
<path fill="none" stroke="midnightblue" d="M427.814,-305C440.041,-305 452.376,-305 464.447,-305"/>
<polygon fill="midnightblue" stroke="midnightblue" points="427.577,-301.5 417.577,-305 427.577,-308.5 427.577,-301.5"/>
</g>
<!-- Node4 -->
<g id="node4" class="node"><title>Node4</title>
<g id="a_node4"><a xlink:href="db/d72/classgame__engine_1_1game_representation_1_1state_representation_1_1game_element_1_1_drawable_game_element_state.html" target="_top" xlink:title="game_engine.gameRepresentation.state\lRepresentation.gameElement.DrawableGame\lElementState">
<polygon fill="white" stroke="black" points="462,-179.5 462,-220.5 698,-220.5 698,-179.5 462,-179.5"/>
<text text-anchor="start" x="470" y="-208.5" font-family="Helvetica,sans-Serif" font-size="10.00">game_engine.gameRepresentation.state</text>
<text text-anchor="start" x="470" y="-197.5" font-family="Helvetica,sans-Serif" font-size="10.00">Representation.gameElement.DrawableGame</text>
<text text-anchor="middle" x="580" y="-186.5" font-family="Helvetica,sans-Serif" font-size="10.00">ElementState</text>
</a>
</g>
</g>
<!-- Node1&#45;&gt;Node4 -->
<g id="edge3" class="edge"><title>Node1&#45;&gt;Node4</title>
<path fill="none" stroke="midnightblue" d="M416.095,-285.702C419.507,-283.956 422.819,-282.059 426,-280 449.291,-264.923 439.094,-244.656 462,-229 466.578,-225.871 471.463,-223.079 476.541,-220.587"/>
<polygon fill="midnightblue" stroke="midnightblue" points="414.453,-282.606 406.85,-289.984 417.395,-288.958 414.453,-282.606"/>
</g>
<!-- Node3 -->
<g id="node3" class="node"><title>Node3</title>
<g id="a_node3"><a xlink:href="df/de2/classgame__engine_1_1game_representation_1_1rendered_representation_1_1_selectable_game_element.html" target="_top" xlink:title="game_engine.gameRepresentation.rendered\lRepresentation.SelectableGameElement">
<polygon fill="white" stroke="black" points="734.5,-290 734.5,-320 965.5,-320 965.5,-290 734.5,-290"/>
<text text-anchor="start" x="742.5" y="-308" font-family="Helvetica,sans-Serif" font-size="10.00">game_engine.gameRepresentation.rendered</text>
<text text-anchor="middle" x="850" y="-297" font-family="Helvetica,sans-Serif" font-size="10.00">Representation.SelectableGameElement</text>
</a>
</g>
</g>
<!-- Node2&#45;&gt;Node3 -->
<g id="edge2" class="edge"><title>Node2&#45;&gt;Node3</title>
<path fill="none" stroke="midnightblue" d="M706.053,-305C715.511,-305 725.028,-305 734.416,-305"/>
<polygon fill="midnightblue" stroke="midnightblue" points="705.822,-301.5 695.822,-305 705.822,-308.5 705.822,-301.5"/>
</g>
<!-- Node5 -->
<g id="node5" class="node"><title>Node5</title>
<g id="a_node5"><a xlink:href="d8/d0a/classgame__engine_1_1game_representation_1_1state_representation_1_1game_element_1_1_selectable_game_element_state.html" target="_top" xlink:title="game_engine.gameRepresentation.state\lRepresentation.gameElement.Selectable\lGameElementState">
<polygon fill="white" stroke="black" points="744,-204.5 744,-245.5 956,-245.5 956,-204.5 744,-204.5"/>
<text text-anchor="start" x="752" y="-233.5" font-family="Helvetica,sans-Serif" font-size="10.00">game_engine.gameRepresentation.state</text>
<text text-anchor="start" x="752" y="-222.5" font-family="Helvetica,sans-Serif" font-size="10.00">Representation.gameElement.Selectable</text>
<text text-anchor="middle" x="850" y="-211.5" font-family="Helvetica,sans-Serif" font-size="10.00">GameElementState</text>
</a>
</g>
</g>
<!-- Node4&#45;&gt;Node5 -->
<g id="edge4" class="edge"><title>Node4&#45;&gt;Node5</title>
<path fill="none" stroke="midnightblue" d="M708.175,-211.863C720.13,-212.979 732.157,-214.101 743.876,-215.194"/>
<polygon fill="midnightblue" stroke="midnightblue" points="708.441,-208.373 698.159,-210.929 707.79,-215.343 708.441,-208.373"/>
</g>
<!-- Node6 -->
<g id="node6" class="node"><title>Node6</title>
<g id="a_node6"><a xlink:href="d1/de3/interfacegame__engine_1_1visuals_1_1_displayable.html" target="_top" xlink:title="game_engine.visuals.Displayable">
<polygon fill="white" stroke="black" points="209.5,-213.5 209.5,-232.5 384.5,-232.5 384.5,-213.5 209.5,-213.5"/>
<text text-anchor="middle" x="297" y="-220.5" font-family="Helvetica,sans-Serif" font-size="10.00">game_engine.visuals.Displayable</text>
</a>
</g>
</g>
<!-- Node6&#45;&gt;Node2 -->
<g id="edge5" class="edge"><title>Node6&#45;&gt;Node2</title>
<path fill="none" stroke="midnightblue" d="M394.698,-230.536C405.578,-233.358 416.244,-237.089 426,-242 446.211,-252.175 442.209,-267.031 462,-278 470.661,-282.8 480.136,-286.749 489.824,-289.996"/>
<polygon fill="midnightblue" stroke="midnightblue" points="395.2,-227.059 384.666,-228.192 393.607,-233.875 395.2,-227.059"/>
</g>
<!-- Node7 -->
<g id="node7" class="node"><title>Node7</title>
<g id="a_node7"><a xlink:href="d7/d49/classgame__engine_1_1visuals_1_1_animation_player.html" target="_top" xlink:title="game_engine.visuals.Animation\lPlayer">
<polygon fill="white" stroke="black" points="495.5,-128 495.5,-158 664.5,-158 664.5,-128 495.5,-128"/>
<text text-anchor="start" x="503.5" y="-146" font-family="Helvetica,sans-Serif" font-size="10.00">game_engine.visuals.Animation</text>
<text text-anchor="middle" x="580" y="-135" font-family="Helvetica,sans-Serif" font-size="10.00">Player</text>
</a>
</g>
</g>
<!-- Node6&#45;&gt;Node7 -->
<g id="edge6" class="edge"><title>Node6&#45;&gt;Node7</title>
<path fill="none" stroke="midnightblue" d="M394.561,-215.189C405.465,-212.416 416.175,-208.771 426,-204 445.797,-194.386 442.601,-180.393 462,-170 472.382,-164.438 483.881,-160.016 495.497,-156.502"/>
<polygon fill="midnightblue" stroke="midnightblue" points="393.475,-211.848 384.513,-217.499 395.043,-218.67 393.475,-211.848"/>
</g>
<!-- Node8 -->
<g id="node8" class="node"><title>Node8</title>
<g id="a_node8"><a xlink:href="d5/d2c/classgame__engine_1_1game_representation_1_1rendered_representation_1_1_game_element.html" target="_top" xlink:title="game_engine.gameRepresentation.rendered\lRepresentation.GameElement">
<polygon fill="white" stroke="black" points="181.5,-339 181.5,-369 412.5,-369 412.5,-339 181.5,-339"/>
<text text-anchor="start" x="189.5" y="-357" font-family="Helvetica,sans-Serif" font-size="10.00">game_engine.gameRepresentation.rendered</text>
<text text-anchor="middle" x="297" y="-346" font-family="Helvetica,sans-Serif" font-size="10.00">Representation.GameElement</text>
</a>
</g>
</g>
<!-- Node8&#45;&gt;Node2 -->
<g id="edge7" class="edge"><title>Node8&#45;&gt;Node2</title>
<path fill="none" stroke="midnightblue" d="M394.472,-337.178C426.447,-331.602 461.806,-325.436 492.944,-320.006"/>
<polygon fill="midnightblue" stroke="midnightblue" points="393.469,-333.799 384.219,-338.965 394.672,-340.695 393.469,-333.799"/>
</g>
<!-- Node9 -->
<g id="node9" class="node"><title>Node9</title>
<g id="a_node9"><a xlink:href="df/d74/interfaceutil_1_1_j_s_o_nable.html" target="_top" xlink:title="util.JSONable">
<polygon fill="white" stroke="black" points="27,-175.5 27,-194.5 105,-194.5 105,-175.5 27,-175.5"/>
<text text-anchor="middle" x="66" y="-182.5" font-family="Helvetica,sans-Serif" font-size="10.00">util.JSONable</text>
</a>
</g>
</g>
<!-- Node10 -->
<g id="node10" class="node"><title>Node10</title>
<g id="a_node10"><a xlink:href="da/d2f/classgame__engine_1_1game_representation_1_1state_representation_1_1_describable_state.html" target="_top" xlink:title="game_engine.gameRepresentation.state\lRepresentation.DescribableState">
<polygon fill="white" stroke="black" points="191,-388 191,-418 403,-418 403,-388 191,-388"/>
<text text-anchor="start" x="199" y="-406" font-family="Helvetica,sans-Serif" font-size="10.00">game_engine.gameRepresentation.state</text>
<text text-anchor="middle" x="297" y="-395" font-family="Helvetica,sans-Serif" font-size="10.00">Representation.DescribableState</text>
</a>
</g>
</g>
<!-- Node9&#45;&gt;Node10 -->
<g id="edge8" class="edge"><title>Node9&#45;&gt;Node10</title>
<path fill="none" stroke="midnightblue" d="M71.2363,-204.471C80.9137,-244.001 108.549,-333.665 168,-378 174.988,-383.211 182.769,-387.421 190.947,-390.811"/>
<polygon fill="midnightblue" stroke="midnightblue" points="74.5981,-203.474 68.9266,-194.525 67.7796,-205.058 74.5981,-203.474"/>
</g>
<!-- Node14 -->
<g id="node14" class="node"><title>Node14</title>
<g id="a_node14"><a xlink:href="dc/d2d/classgame__engine_1_1game_representation_1_1state_representation_1_1game_element_1_1_game_element_state.html" target="_top" xlink:title="game_engine.gameRepresentation.state\lRepresentation.gameElement.GameElementState">
<polygon fill="white" stroke="black" points="168.5,-126 168.5,-156 425.5,-156 425.5,-126 168.5,-126"/>
<text text-anchor="start" x="176.5" y="-144" font-family="Helvetica,sans-Serif" font-size="10.00">game_engine.gameRepresentation.state</text>
<text text-anchor="middle" x="297" y="-133" font-family="Helvetica,sans-Serif" font-size="10.00">Representation.gameElement.GameElementState</text>
</a>
</g>
</g>
<!-- Node9&#45;&gt;Node14 -->
<g id="edge12" class="edge"><title>Node9&#45;&gt;Node14</title>
<path fill="none" stroke="midnightblue" d="M115.196,-175.74C144.958,-170.021 183.839,-162.551 217.916,-156.003"/>
<polygon fill="midnightblue" stroke="midnightblue" points="114.232,-172.361 105.072,-177.685 115.553,-179.235 114.232,-172.361"/>
</g>
<!-- Node15 -->
<g id="node15" class="node"><title>Node15</title>
<g id="a_node15"><a xlink:href="d7/d37/classgame__engine_1_1visuals_1_1_spritesheet.html" target="_top" xlink:title="game_engine.visuals.Spritesheet">
<polygon fill="white" stroke="black" points="209,-175.5 209,-194.5 385,-194.5 385,-175.5 209,-175.5"/>
<text text-anchor="middle" x="297" y="-182.5" font-family="Helvetica,sans-Serif" font-size="10.00">game_engine.visuals.Spritesheet</text>
</a>
</g>
</g>
<!-- Node9&#45;&gt;Node15 -->
<g id="edge14" class="edge"><title>Node9&#45;&gt;Node15</title>
<path fill="none" stroke="midnightblue" d="M115.084,-185C142.24,-185 177.013,-185 208.804,-185"/>
<polygon fill="midnightblue" stroke="midnightblue" points="115.072,-181.5 105.072,-185 115.072,-188.5 115.072,-181.5"/>
</g>
<!-- Node16 -->
<g id="node16" class="node"><title>Node16</title>
<g id="a_node16"><a xlink:href="dc/dab/classtest_1_1util_1_1_test_campaign.html" target="_top" xlink:title="test.util.TestCampaign">
<polygon fill="white" stroke="black" points="235.5,-38.5 235.5,-57.5 358.5,-57.5 358.5,-38.5 235.5,-38.5"/>
<text text-anchor="middle" x="297" y="-45.5" font-family="Helvetica,sans-Serif" font-size="10.00">test.util.TestCampaign</text>
</a>
</g>
</g>
<!-- Node9&#45;&gt;Node16 -->
<g id="edge15" class="edge"><title>Node9&#45;&gt;Node16</title>
<path fill="none" stroke="midnightblue" d="M76.9815,-166.542C92.5575,-139.716 125.335,-90.592 168,-67 188.25,-55.8025 212.926,-50.5398 235.188,-48.2488"/>
<polygon fill="midnightblue" stroke="midnightblue" points="73.8913,-164.896 72.0349,-175.327 79.9909,-168.331 73.8913,-164.896"/>
</g>
<!-- Node17 -->
<g id="node17" class="node"><title>Node17</title>
<g id="a_node17"><a xlink:href="dd/d47/classtest_1_1util_1_1_test_level.html" target="_top" xlink:title="test.util.TestLevel">
<polygon fill="white" stroke="black" points="247.5,-251.5 247.5,-270.5 346.5,-270.5 346.5,-251.5 247.5,-251.5"/>
<text text-anchor="middle" x="297" y="-258.5" font-family="Helvetica,sans-Serif" font-size="10.00">test.util.TestLevel</text>
</a>
</g>
</g>
<!-- Node9&#45;&gt;Node17 -->
<g id="edge16" class="edge"><title>Node9&#45;&gt;Node17</title>
<path fill="none" stroke="midnightblue" d="M88.5526,-200.273C108.281,-213.475 138.769,-231.969 168,-242 193.393,-250.714 222.97,-255.433 247.292,-257.988"/>
<polygon fill="midnightblue" stroke="midnightblue" points="90.5202,-197.379 80.2883,-194.629 86.5725,-203.159 90.5202,-197.379"/>
</g>
<!-- Node11 -->
<g id="node11" class="node"><title>Node11</title>
<g id="a_node11"><a xlink:href="dd/dec/classgame__engine_1_1game_representation_1_1state_representation_1_1_campaign_state.html" target="_top" xlink:title="game_engine.gameRepresentation.state\lRepresentation.CampaignState">
<polygon fill="white" stroke="black" points="474,-339 474,-369 686,-369 686,-339 474,-339"/>
<text text-anchor="start" x="482" y="-357" font-family="Helvetica,sans-Serif" font-size="10.00">game_engine.gameRepresentation.state</text>
<text text-anchor="middle" x="580" y="-346" font-family="Helvetica,sans-Serif" font-size="10.00">Representation.CampaignState</text>
</a>
</g>
</g>
<!-- Node10&#45;&gt;Node11 -->
<g id="edge9" class="edge"><title>Node10&#45;&gt;Node11</title>
<path fill="none" stroke="midnightblue" d="M394.472,-386.178C426.447,-380.602 461.806,-374.436 492.944,-369.006"/>
<polygon fill="midnightblue" stroke="midnightblue" points="393.469,-382.799 384.219,-387.965 394.672,-389.695 393.469,-382.799"/>
</g>
<!-- Node12 -->
<g id="node12" class="node"><title>Node12</title>
<g id="a_node12"><a xlink:href="df/ddb/classgame__engine_1_1game_representation_1_1state_representation_1_1_game_state.html" target="_top" xlink:title="game_engine.gameRepresentation.state\lRepresentation.GameState">
<polygon fill="white" stroke="black" points="474,-437 474,-467 686,-467 686,-437 474,-437"/>
<text text-anchor="start" x="482" y="-455" font-family="Helvetica,sans-Serif" font-size="10.00">game_engine.gameRepresentation.state</text>
<text text-anchor="middle" x="580" y="-444" font-family="Helvetica,sans-Serif" font-size="10.00">Representation.GameState</text>
</a>
</g>
</g>
<!-- Node10&#45;&gt;Node12 -->
<g id="edge10" class="edge"><title>Node10&#45;&gt;Node12</title>
<path fill="none" stroke="midnightblue" d="M394.472,-419.822C426.447,-425.398 461.806,-431.564 492.944,-436.994"/>
<polygon fill="midnightblue" stroke="midnightblue" points="394.672,-416.305 384.219,-418.035 393.469,-423.201 394.672,-416.305"/>
</g>
<!-- Node13 -->
<g id="node13" class="node"><title>Node13</title>
<g id="a_node13"><a xlink:href="d3/d7a/classgame__engine_1_1game_representation_1_1state_representation_1_1_level_state.html" target="_top" xlink:title="game_engine.gameRepresentation.state\lRepresentation.LevelState">
<polygon fill="white" stroke="black" points="474,-388 474,-418 686,-418 686,-388 474,-388"/>
<text text-anchor="start" x="482" y="-406" font-family="Helvetica,sans-Serif" font-size="10.00">game_engine.gameRepresentation.state</text>
<text text-anchor="middle" x="580" y="-395" font-family="Helvetica,sans-Serif" font-size="10.00">Representation.LevelState</text>
</a>
</g>
</g>
<!-- Node10&#45;&gt;Node13 -->
<g id="edge11" class="edge"><title>Node10&#45;&gt;Node13</title>
<path fill="none" stroke="midnightblue" d="M413.115,-403C433.14,-403 453.878,-403 473.626,-403"/>
<polygon fill="midnightblue" stroke="midnightblue" points="413.034,-399.5 403.034,-403 413.034,-406.5 413.034,-399.5"/>
</g>
<!-- Node14&#45;&gt;Node4 -->
<g id="edge13" class="edge"><title>Node14&#45;&gt;Node4</title>
<path fill="none" stroke="midnightblue" d="M386.627,-158.002C399.837,-160.625 413.283,-163.346 426,-166 446.244,-170.225 467.952,-174.939 488.472,-179.478"/>
<polygon fill="midnightblue" stroke="midnightblue" points="387.077,-154.523 376.588,-156.017 385.719,-161.39 387.077,-154.523"/>
</g>
<!-- Node18 -->
<g id="node18" class="node"><title>Node18</title>
<g id="a_node18"><a xlink:href="d8/dcf/interfacegame__engine_1_1game_representation_1_1state_representation_1_1game_element_1_1traits_1_1_sighted.html" target="_top" xlink:title="game_engine.gameRepresentation.state\lRepresentation.gameElement.traits.Sighted">
<polygon fill="white" stroke="black" points="466.5,-239 466.5,-269 693.5,-269 693.5,-239 466.5,-239"/>
<text text-anchor="start" x="474.5" y="-257" font-family="Helvetica,sans-Serif" font-size="10.00">game_engine.gameRepresentation.state</text>
<text text-anchor="middle" x="580" y="-246" font-family="Helvetica,sans-Serif" font-size="10.00">Representation.gameElement.traits.Sighted</text>
</a>
</g>
</g>
<!-- Node18&#45;&gt;Node5 -->
<g id="edge17" class="edge"><title>Node18&#45;&gt;Node5</title>
<path fill="none" stroke="midnightblue" d="M704.037,-240.686C717.37,-239.244 730.848,-237.785 743.939,-236.369"/>
<polygon fill="midnightblue" stroke="midnightblue" points="703.445,-237.23 693.879,-241.785 704.198,-244.189 703.445,-237.23"/>
</g>
<!-- Node19 -->
<g id="node19" class="node"><title>Node19</title>
<g id="a_node19"><a xlink:href="d6/dab/classtest_1_1util_1_1_test_describable.html" target="_top" xlink:title="test.util.TestDescribable">
<polygon fill="white" stroke="black" points="0.5,-19.5 0.5,-38.5 131.5,-38.5 131.5,-19.5 0.5,-19.5"/>
<text text-anchor="middle" x="66" y="-26.5" font-family="Helvetica,sans-Serif" font-size="10.00">test.util.TestDescribable</text>
</a>
</g>
</g>
<!-- Node19&#45;&gt;Node16 -->
<g id="edge18" class="edge"><title>Node19&#45;&gt;Node16</title>
<path fill="none" stroke="midnightblue" d="M141.809,-35.2069C172.128,-37.7224 206.684,-40.5895 235.387,-42.971"/>
<polygon fill="midnightblue" stroke="midnightblue" points="141.959,-31.7074 131.704,-34.3685 141.38,-38.6834 141.959,-31.7074"/>
</g>
<!-- Node20 -->
<g id="node20" class="node"><title>Node20</title>
<g id="a_node20"><a xlink:href="db/d6e/classtest_1_1util_1_1_test_game.html" target="_top" xlink:title="test.util.TestGame">
<polygon fill="white" stroke="black" points="245,-0.5 245,-19.5 349,-19.5 349,-0.5 245,-0.5"/>
<text text-anchor="middle" x="297" y="-7.5" font-family="Helvetica,sans-Serif" font-size="10.00">test.util.TestGame</text>
</a>
</g>
</g>
<!-- Node19&#45;&gt;Node20 -->
<g id="edge19" class="edge"><title>Node19&#45;&gt;Node20</title>
<path fill="none" stroke="midnightblue" d="M141.983,-22.7787C175.691,-19.982 214.608,-16.7531 244.888,-14.2407"/>
<polygon fill="midnightblue" stroke="midnightblue" points="141.38,-19.3166 131.704,-23.6315 141.959,-26.2926 141.38,-19.3166"/>
</g>
<!-- Node21 -->
<g id="node21" class="node"><title>Node21</title>
<g id="a_node21"><a xlink:href="d2/d20/interfacegame__engine_1_1game_representation_1_1state_representation_1_1game_element_1_1traits_1_1_updatable.html" target="_top" xlink:title="game_engine.gameRepresentation.state\lRepresentation.gameElement.traits.Updatable">
<polygon fill="white" stroke="black" points="177.5,-77 177.5,-107 416.5,-107 416.5,-77 177.5,-77"/>
<text text-anchor="start" x="185.5" y="-95" font-family="Helvetica,sans-Serif" font-size="10.00">game_engine.gameRepresentation.state</text>
<text text-anchor="middle" x="297" y="-84" font-family="Helvetica,sans-Serif" font-size="10.00">Representation.gameElement.traits.Updatable</text>
</a>
</g>
</g>
<!-- Node21&#45;&gt;Node7 -->
<g id="edge20" class="edge"><title>Node21&#45;&gt;Node7</title>
<path fill="none" stroke="midnightblue" d="M390.75,-108.834C424.835,-115.02 463.175,-121.978 496.317,-127.994"/>
<polygon fill="midnightblue" stroke="midnightblue" points="391.254,-105.368 380.789,-107.026 390.004,-112.255 391.254,-105.368"/>
</g>
<!-- Node22 -->
<g id="node22" class="node"><title>Node22</title>
<g id="a_node22"><a xlink:href="d4/d58/classgame__engine_1_1visuals_1_1_animation_sequence.html" target="_top" xlink:title="game_engine.visuals.Animation\lSequence">
<polygon fill="white" stroke="black" points="495.5,-77 495.5,-107 664.5,-107 664.5,-77 495.5,-77"/>
<text text-anchor="start" x="503.5" y="-95" font-family="Helvetica,sans-Serif" font-size="10.00">game_engine.visuals.Animation</text>
<text text-anchor="middle" x="580" y="-84" font-family="Helvetica,sans-Serif" font-size="10.00">Sequence</text>
</a>
</g>
</g>
<!-- Node21&#45;&gt;Node22 -->
<g id="edge21" class="edge"><title>Node21&#45;&gt;Node22</title>
<path fill="none" stroke="midnightblue" d="M427.001,-92C450.145,-92 473.707,-92 495.155,-92"/>
<polygon fill="midnightblue" stroke="midnightblue" points="426.762,-88.5001 416.762,-92 426.762,-95.5001 426.762,-88.5001"/>
</g>
<!-- Node23 -->
<g id="node23" class="node"><title>Node23</title>
<g id="a_node23"><a xlink:href="d6/dd2/classgame__engine_1_1visuals_1_1_null_animation_sequence.html" target="_top" xlink:title="game_engine.visuals.Null\lAnimationSequence">
<polygon fill="white" stroke="black" points="781,-77 781,-107 919,-107 919,-77 781,-77"/>
<text text-anchor="start" x="789" y="-95" font-family="Helvetica,sans-Serif" font-size="10.00">game_engine.visuals.Null</text>
<text text-anchor="middle" x="850" y="-84" font-family="Helvetica,sans-Serif" font-size="10.00">AnimationSequence</text>
</a>
</g>
</g>
<!-- Node22&#45;&gt;Node23 -->
<g id="edge22" class="edge"><title>Node22&#45;&gt;Node23</title>
<path fill="none" stroke="midnightblue" d="M674.891,-92C709.75,-92 748.598,-92 780.739,-92"/>
<polygon fill="midnightblue" stroke="midnightblue" points="674.695,-88.5001 664.694,-92 674.694,-95.5001 674.695,-88.5001"/>
</g>
</g>
</svg>
