<?xml version="1.0" encoding="UTF-8" standalone="no"?>
<!DOCTYPE svg PUBLIC "-//W3C//DTD SVG 1.1//EN"
 "http://www.w3.org/Graphics/SVG/1.1/DTD/svg11.dtd">
<!-- Generated by graphviz version 2.36.0 (20140111.2315)
 -->
<!-- Title: Graphical Class Hierarchy Pages: 1 -->
<svg width="408pt" height="87pt"
 viewBox="0.00 0.00 408.00 87.00" xmlns="http://www.w3.org/2000/svg" xmlns:xlink="http://www.w3.org/1999/xlink">
<g id="graph0" class="graph" transform="scale(1 1) rotate(0) translate(4 83)">
<title>Graphical Class Hierarchy</title>
<polygon fill="white" stroke="none" points="-4,4 -4,-83 404,-83 404,4 -4,4"/>
<!-- Node1 -->
<g id="node1" class="node"><title>Node1</title>
<g id="a_node1"><a xlink:href="d3/d08/classgame__engine_1_1computers_1_1_computer.html" target="_top" xlink:title="game_engine.computers.Computer\l\&lt; T, E \&gt;">
<polygon fill="white" stroke="black" points="0,-24 0,-54 188,-54 188,-24 0,-24"/>
<text text-anchor="start" x="8" y="-42" font-family="Helvetica,sans-Serif" font-size="10.00">game_engine.computers.Computer</text>
<text text-anchor="middle" x="94" y="-31" font-family="Helvetica,sans-Serif" font-size="10.00">&lt; T, E &gt;</text>
</a>
</g>
</g>
<!-- Node2 -->
<g id="node2" class="node"><title>Node2</title>
<g id="a_node2"><a xlink:href="d1/df1/classgame__engine_1_1computers_1_1bounds_computers_1_1_collision_computer.html" target="_top" xlink:title="game_engine.computers.bounds\lComputers.CollisionComputer">
<polygon fill="white" stroke="black" points="224.5,-49 224.5,-79 399.5,-79 399.5,-49 224.5,-49"/>
<text text-anchor="start" x="232.5" y="-67" font-family="Helvetica,sans-Serif" font-size="10.00">game_engine.computers.bounds</text>
<text text-anchor="middle" x="312" y="-56" font-family="Helvetica,sans-Serif" font-size="10.00">Computers.CollisionComputer</text>
</a>
</g>
</g>
<!-- Node1&#45;&gt;Node2 -->
<g id="edge1" class="edge"><title>Node1&#45;&gt;Node2</title>
<path fill="none" stroke="midnightblue" d="M198.332,-50.9597C207.015,-51.9647 215.738,-52.9743 224.277,-53.9626"/>
<polygon fill="midnightblue" stroke="midnightblue" points="198.507,-47.4567 188.171,-49.7836 197.702,-54.4103 198.507,-47.4567"/>
</g>
<!-- Node3 -->
<g id="node3" class="node"><title>Node3</title>
<g id="a_node3"><a xlink:href="d5/d07/classgame__engine_1_1computers_1_1bounds_computers_1_1_vision_computer.html" target="_top" xlink:title="game_engine.computers.bounds\lComputers.VisionComputer">
<polygon fill="white" stroke="black" points="224.5,-0 224.5,-30 399.5,-30 399.5,-0 224.5,-0"/>
<text text-anchor="start" x="232.5" y="-18" font-family="Helvetica,sans-Serif" font-size="10.00">game_engine.computers.bounds</text>
<text text-anchor="middle" x="312" y="-7" font-family="Helvetica,sans-Serif" font-size="10.00">Computers.VisionComputer</text>
</a>
</g>
</g>
<!-- Node1&#45;&gt;Node3 -->
<g id="edge2" class="edge"><title>Node1&#45;&gt;Node3</title>
<path fill="none" stroke="midnightblue" d="M198.332,-27.5187C207.015,-26.5539 215.738,-25.5846 224.277,-24.6359"/>
<polygon fill="midnightblue" stroke="midnightblue" points="197.723,-24.0647 188.171,-28.6477 198.496,-31.0219 197.723,-24.0647"/>
</g>
</g>
</svg>
