<?xml version="1.0" encoding="UTF-8" standalone="no"?>
<!DOCTYPE svg PUBLIC "-//W3C//DTD SVG 1.1//EN"
 "http://www.w3.org/Graphics/SVG/1.1/DTD/svg11.dtd">
<!-- Generated by graphviz version 2.36.0 (20140111.2315)
 -->
<!-- Title: Graphical Class Hierarchy Pages: 1 -->
<svg width="956pt" height="87pt"
 viewBox="0.00 0.00 956.00 87.00" xmlns="http://www.w3.org/2000/svg" xmlns:xlink="http://www.w3.org/1999/xlink">
<g id="graph0" class="graph" transform="scale(1 1) rotate(0) translate(4 83)">
<title>Graphical Class Hierarchy</title>
<polygon fill="white" stroke="none" points="-4,4 -4,-83 952,-83 952,4 -4,4"/>
<!-- Node1 -->
<g id="node1" class="node"><title>Node1</title>
<g id="a_node1"><a xlink:href="d2/dfb/classgame__engine_1_1game_representation_1_1evaluatables_1_1_evaluatable.html" target="_top" xlink:title="game_engine.gameRepresentation.evaluatables.\lEvaluatable\&lt; T \&gt;">
<polygon fill="white" stroke="black" points="0.5,-24 0.5,-54 251.5,-54 251.5,-24 0.5,-24"/>
<text text-anchor="start" x="8.5" y="-42" font-family="Helvetica,sans-Serif" font-size="10.00">game_engine.gameRepresentation.evaluatables.</text>
<text text-anchor="middle" x="126" y="-31" font-family="Helvetica,sans-Serif" font-size="10.00">Evaluatable&lt; T &gt;</text>
</a>
</g>
</g>
<!-- Node2 -->
<g id="node2" class="node"><title>Node2</title>
<g id="a_node2"><a xlink:href="d8/dab/classgame__engine_1_1game_representation_1_1evaluatables_1_1evaluators_1_1_evaluator.html" target="_top" xlink:title="game_engine.gameRepresentation.evaluatables.evaluators.\lEvaluator\&lt; A, B, T \&gt;">
<polygon fill="white" stroke="black" points="291.5,-49 291.5,-79 596.5,-79 596.5,-49 291.5,-49"/>
<text text-anchor="start" x="299.5" y="-67" font-family="Helvetica,sans-Serif" font-size="10.00">game_engine.gameRepresentation.evaluatables.evaluators.</text>
<text text-anchor="middle" x="444" y="-56" font-family="Helvetica,sans-Serif" font-size="10.00">Evaluator&lt; A, B, T &gt;</text>
</a>
</g>
</g>
<!-- Node1&#45;&gt;Node2 -->
<g id="edge1" class="edge"><title>Node1&#45;&gt;Node2</title>
<path fill="none" stroke="midnightblue" d="M261.954,-49.6768C271.658,-50.4444 281.48,-51.2215 291.269,-51.996"/>
<polygon fill="midnightblue" stroke="midnightblue" points="262.136,-46.1803 251.892,-48.8807 261.584,-53.1585 262.136,-46.1803"/>
</g>
<!-- Node3 -->
<g id="node3" class="node"><title>Node3</title>
<g id="a_node3"><a xlink:href="d9/d07/classgame__engine_1_1game_representation_1_1evaluatables_1_1parameters_1_1_parameter.html" target="_top" xlink:title="game_engine.gameRepresentation.evaluatables.parameters.\lParameter\&lt; T \&gt;">
<polygon fill="white" stroke="black" points="288.5,-0 288.5,-30 599.5,-30 599.5,-0 288.5,-0"/>
<text text-anchor="start" x="296.5" y="-18" font-family="Helvetica,sans-Serif" font-size="10.00">game_engine.gameRepresentation.evaluatables.parameters.</text>
<text text-anchor="middle" x="444" y="-7" font-family="Helvetica,sans-Serif" font-size="10.00">Parameter&lt; T &gt;</text>
</a>
</g>
</g>
<!-- Node1&#45;&gt;Node3 -->
<g id="edge2" class="edge"><title>Node1&#45;&gt;Node3</title>
<path fill="none" stroke="midnightblue" d="M262.065,-28.7419C270.773,-28.0805 279.577,-27.4119 288.367,-26.7443"/>
<polygon fill="midnightblue" stroke="midnightblue" points="261.598,-25.2672 251.892,-29.5146 262.128,-32.2471 261.598,-25.2672"/>
</g>
<!-- Node4 -->
<g id="node4" class="node"><title>Node4</title>
<g id="a_node4"><a xlink:href="d5/d4d/classgame__engine_1_1game_representation_1_1evaluatables_1_1parameters_1_1_attribute_parameter.html" target="_top" xlink:title="game_engine.gameRepresentation.evaluatables.parameters.\lAttributeParameter\&lt; T \&gt;">
<polygon fill="white" stroke="black" points="636.5,-0 636.5,-30 947.5,-30 947.5,-0 636.5,-0"/>
<text text-anchor="start" x="644.5" y="-18" font-family="Helvetica,sans-Serif" font-size="10.00">game_engine.gameRepresentation.evaluatables.parameters.</text>
<text text-anchor="middle" x="792" y="-7" font-family="Helvetica,sans-Serif" font-size="10.00">AttributeParameter&lt; T &gt;</text>
</a>
</g>
</g>
<!-- Node3&#45;&gt;Node4 -->
<g id="edge3" class="edge"><title>Node3&#45;&gt;Node4</title>
<path fill="none" stroke="midnightblue" d="M609.599,-15C618.532,-15 627.494,-15 636.391,-15"/>
<polygon fill="midnightblue" stroke="midnightblue" points="609.532,-11.5001 599.532,-15 609.532,-18.5001 609.532,-11.5001"/>
</g>
</g>
</svg>
