<?xml version="1.0" encoding="UTF-8" standalone="no"?>
<!DOCTYPE svg PUBLIC "-//W3C//DTD SVG 1.1//EN"
 "http://www.w3.org/Graphics/SVG/1.1/DTD/svg11.dtd">
<!-- Generated by graphviz version 2.36.0 (20140111.2315)
 -->
<!-- Title: model.sprite.SpriteImageContainer.getColorMask Pages: 1 -->
<svg width="504pt" height="38pt"
 viewBox="0.00 0.00 504.00 38.00" xmlns="http://www.w3.org/2000/svg" xmlns:xlink="http://www.w3.org/1999/xlink">
<g id="graph0" class="graph" transform="scale(1 1) rotate(0) translate(4 34)">
<title>model.sprite.SpriteImageContainer.getColorMask</title>
<polygon fill="white" stroke="none" points="-4,4 -4,-34 500,-34 500,4 -4,4"/>
<!-- Node1 -->
<g id="node1" class="node"><title>Node1</title>
<polygon fill="#bfbfbf" stroke="black" points="0,-0 0,-30 138,-30 138,-0 0,-0"/>
<text text-anchor="start" x="8" y="-18" font-family="Helvetica,sans-Serif" font-size="10.00">model.sprite.SpriteImage</text>
<text text-anchor="middle" x="69" y="-7" font-family="Helvetica,sans-Serif" font-size="10.00">Container.getColorMask</text>
</g>
<!-- Node2 -->
<g id="node2" class="node"><title>Node2</title>
<g id="a_node2"><a xlink:href="../../dc/de2/classengine_1_1_engine.html#aacf5e892c4b80db44270acd0d64b7429" target="_top" xlink:title="engine.Engine.colorFromInt">
<polygon fill="white" stroke="black" points="174,-5.5 174,-24.5 320,-24.5 320,-5.5 174,-5.5"/>
<text text-anchor="middle" x="247" y="-12.5" font-family="Helvetica,sans-Serif" font-size="10.00">engine.Engine.colorFromInt</text>
</a>
</g>
</g>
<!-- Node1&#45;&gt;Node2 -->
<g id="edge1" class="edge"><title>Node1&#45;&gt;Node2</title>
<path fill="none" stroke="midnightblue" d="M138.046,-15C146.459,-15 155.128,-15 163.724,-15"/>
<polygon fill="midnightblue" stroke="midnightblue" points="163.762,-18.5001 173.762,-15 163.762,-11.5001 163.762,-18.5001"/>
</g>
<!-- Node3 -->
<g id="node3" class="node"><title>Node3</title>
<g id="a_node3"><a xlink:href="../../dc/de2/classengine_1_1_engine.html#a0800fec66979e73b98d70c4116f4b997" target="_top" xlink:title="engine.Engine.colorString\lFromInt">
<polygon fill="white" stroke="black" points="356.5,-0 356.5,-30 495.5,-30 495.5,-0 356.5,-0"/>
<text text-anchor="start" x="364.5" y="-18" font-family="Helvetica,sans-Serif" font-size="10.00">engine.Engine.colorString</text>
<text text-anchor="middle" x="426" y="-7" font-family="Helvetica,sans-Serif" font-size="10.00">FromInt</text>
</a>
</g>
</g>
<!-- Node2&#45;&gt;Node3 -->
<g id="edge2" class="edge"><title>Node2&#45;&gt;Node3</title>
<path fill="none" stroke="midnightblue" d="M320.248,-15C328.836,-15 337.636,-15 346.308,-15"/>
<polygon fill="midnightblue" stroke="midnightblue" points="346.41,-18.5001 356.41,-15 346.41,-11.5001 346.41,-18.5001"/>
</g>
</g>
</svg>
