<?xml version="1.0" encoding="UTF-8" standalone="no"?>
<!DOCTYPE svg PUBLIC "-//W3C//DTD SVG 1.1//EN"
 "http://www.w3.org/Graphics/SVG/1.1/DTD/svg11.dtd">
<!-- Generated by graphviz version 2.36.0 (20140111.2315)
 -->
<!-- Title: model.sprite.SpriteImageContainer.getSpritesheet Pages: 1 -->
<!--zoomable 145 -->
<svg id="main" version="1.1" xmlns="http://www.w3.org/2000/svg" xmlns:xlink="http://www.w3.org/1999/xlink" xml:space="preserve" onload="init(evt)">
<style type="text/css"><![CDATA[
.edge:hover path { stroke: red; }
.edge:hover polygon { stroke: red; fill: red; }
]]></style>
<script type="text/javascript"><![CDATA[
var edges = document.getElementsByTagName('g');
if (edges && edges.length) {
  for (var i=0;i<edges.length;i++) {
    if (edges[i].id.substr(0,4)=='edge') {
      edges[i].setAttribute('class','edge');
    }
  }
}
]]></script>
        <defs>
                <circle id="rim" cx="0" cy="0" r="7"/>
                <circle id="rim2" cx="0" cy="0" r="3.5"/>
                <g id="zoomPlus">
                        <use xlink:href="#rim" fill="#404040">
                                <set attributeName="fill" to="#808080" begin="zoomplus.mouseover" end="zoomplus.mouseout"/>
                        </use>
                        <path d="M-4,0h8M0,-4v8" fill="none" stroke="white" stroke-width="1.5" pointer-events="none"/>
                </g>
                <g id="zoomMin">
                        <use xlink:href="#rim" fill="#404040">
                                <set attributeName="fill" to="#808080" begin="zoomminus.mouseover" end="zoomminus.mouseout"/>
                        </use>
                        <path d="M-4,0h8" fill="none" stroke="white" stroke-width="1.5" pointer-events="none"/>
                </g>
                <g id="dirArrow">
                        <path fill="none" stroke="white" stroke-width="1.5" d="M0,-3.0v7 M-2.5,-0.5L0,-3.0L2.5,-0.5"/>
                </g>
               <g id="resetDef">
                       <use xlink:href="#rim2" fill="#404040">
                               <set attributeName="fill" to="#808080" begin="reset.mouseover" end="reset.mouseout"/>
                       </use>
               </g>
        </defs>

<script type="text/javascript">
var viewWidth = 1358;
var viewHeight = 145;
var sectionId = 'dynsection-4';
</script>
<script xlink:href="../../svgpan.js"/>
<svg id="graph" class="graph">
<g id="viewport">
<title>model.sprite.SpriteImageContainer.getSpritesheet</title>
<polygon fill="white" stroke="none" points="-4,4 -4,-141 1354,-141 1354,4 -4,4"/>
<!-- Node1 -->
<g id="node1" class="node"><title>Node1</title>
<polygon fill="#bfbfbf" stroke="black" points="0,-85 0,-115 138,-115 138,-85 0,-85"/>
<text text-anchor="start" x="8" y="-103" font-family="Helvetica,sans-Serif" font-size="10.00">model.sprite.SpriteImage</text>
<text text-anchor="middle" x="69" y="-92" font-family="Helvetica,sans-Serif" font-size="10.00">Container.getSpritesheet</text>
</g>
<!-- Node2 -->
<g id="node2" class="node"><title>Node2</title>
<g id="a_node2"><a xlink:href="../../d9/d50/classengine_1_1visuals_1_1element_visuals_1_1animations_1_1_animator.html#a3a40c5c16960e8afd0cf952c1e4213a6" target="_top" xlink:title="engine.visuals.elementVisuals.animations.\lAnimator.Animator">
<polygon fill="white" stroke="black" points="430,-107 430,-137 650,-137 650,-107 430,-107"/>
<text text-anchor="start" x="438" y="-125" font-family="Helvetica,sans-Serif" font-size="10.00">engine.visuals.elementVisuals.animations.</text>
<text text-anchor="middle" x="540" y="-114" font-family="Helvetica,sans-Serif" font-size="10.00">Animator.Animator</text>
</a>
</g>
</g>
<!-- Node1&#45;&gt;Node2 -->
<g id="edge1" class="edge"><title>Node1&#45;&gt;Node2</title>
<path fill="none" stroke="midnightblue" d="M134.445,-117.259C147.448,-120.064 161.089,-122.53 174,-124 259.471,-133.734 356.93,-132.582 429.63,-129.353"/>
<polygon fill="midnightblue" stroke="midnightblue" points="135.173,-113.835 124.649,-115.058 133.639,-120.665 135.173,-113.835"/>
</g>
<!-- Node3 -->
<g id="node3" class="node"><title>Node3</title>
<g id="a_node3"><a xlink:href="../../de/d21/classmodel_1_1_main_model.html#ae2e58698b812253b1c8e87312897b97e" target="_top" xlink:title="model.MainModel.fetchImage\lContainer">
<polygon fill="white" stroke="black" points="205,-36 205,-66 363,-66 363,-36 205,-36"/>
<text text-anchor="start" x="213" y="-54" font-family="Helvetica,sans-Serif" font-size="10.00">model.MainModel.fetchImage</text>
<text text-anchor="middle" x="284" y="-43" font-family="Helvetica,sans-Serif" font-size="10.00">Container</text>
</a>
</g>
</g>
<!-- Node1&#45;&gt;Node3 -->
<g id="edge2" class="edge"><title>Node1&#45;&gt;Node3</title>
<path fill="none" stroke="midnightblue" d="M145.217,-82.6297C154.902,-80.3968 164.685,-78.143 174,-76 188.001,-72.7788 203.016,-69.3309 217.288,-66.0566"/>
<polygon fill="midnightblue" stroke="midnightblue" points="144.141,-79.2858 135.183,-84.9436 145.714,-86.1068 144.141,-79.2858"/>
</g>
<!-- Node9 -->
<g id="node9" class="node"><title>Node9</title>
<g id="a_node9"><a xlink:href="../../d9/d50/classengine_1_1visuals_1_1element_visuals_1_1animations_1_1_animator.html#aa3aa930f3ae183224ac1ce483e7e99a4" target="_top" xlink:title="engine.visuals.elementVisuals.animations.\lAnimator.setColorMasking">
<polygon fill="white" stroke="black" points="174,-85 174,-115 394,-115 394,-85 174,-85"/>
<text text-anchor="start" x="182" y="-103" font-family="Helvetica,sans-Serif" font-size="10.00">engine.visuals.elementVisuals.animations.</text>
<text text-anchor="middle" x="284" y="-92" font-family="Helvetica,sans-Serif" font-size="10.00">Animator.setColorMasking</text>
</a>
</g>
</g>
<!-- Node1&#45;&gt;Node9 -->
<g id="edge8" class="edge"><title>Node1&#45;&gt;Node9</title>
<path fill="none" stroke="midnightblue" d="M148.347,-100C156.72,-100 165.343,-100 173.988,-100"/>
<polygon fill="midnightblue" stroke="midnightblue" points="148.273,-96.5001 138.273,-100 148.273,-103.5 148.273,-96.5001"/>
</g>
<!-- Node4 -->
<g id="node4" class="node"><title>Node4</title>
<g id="a_node4"><a xlink:href="../../d6/d60/classengine_1_1element_factories_1_1_animator_factory.html#a18370178255ca1fd6c28dfc5158001f8" target="_top" xlink:title="engine.elementFactories.\lAnimatorFactory.createAnimator">
<polygon fill="white" stroke="black" points="454,-36 454,-66 626,-66 626,-36 454,-36"/>
<text text-anchor="start" x="462" y="-54" font-family="Helvetica,sans-Serif" font-size="10.00">engine.elementFactories.</text>
<text text-anchor="middle" x="540" y="-43" font-family="Helvetica,sans-Serif" font-size="10.00">AnimatorFactory.createAnimator</text>
</a>
</g>
</g>
<!-- Node3&#45;&gt;Node4 -->
<g id="edge3" class="edge"><title>Node3&#45;&gt;Node4</title>
<path fill="none" stroke="midnightblue" d="M373.526,-51C399.599,-51 428.06,-51 453.913,-51"/>
<polygon fill="midnightblue" stroke="midnightblue" points="373.281,-47.5001 363.281,-51 373.281,-54.5001 373.281,-47.5001"/>
</g>
<!-- Node5 -->
<g id="node5" class="node"><title>Node5</title>
<g id="a_node5"><a xlink:href="../../df/df0/classengine_1_1element_factories_1_1_visualizer_factory.html#ab3af310fd8c0f30f4ab30125576112f9" target="_top" xlink:title="engine.elementFactories.\lVisualizerFactory.createVisualizer">
<polygon fill="white" stroke="black" points="686.5,-36 686.5,-66 861.5,-66 861.5,-36 686.5,-36"/>
<text text-anchor="start" x="694.5" y="-54" font-family="Helvetica,sans-Serif" font-size="10.00">engine.elementFactories.</text>
<text text-anchor="middle" x="774" y="-43" font-family="Helvetica,sans-Serif" font-size="10.00">VisualizerFactory.createVisualizer</text>
</a>
</g>
</g>
<!-- Node4&#45;&gt;Node5 -->
<g id="edge4" class="edge"><title>Node4&#45;&gt;Node5</title>
<path fill="none" stroke="midnightblue" d="M636.307,-51C652.888,-51 670.053,-51 686.385,-51"/>
<polygon fill="midnightblue" stroke="midnightblue" points="636.071,-47.5001 626.071,-51 636.071,-54.5001 636.071,-47.5001"/>
</g>
<!-- Node6 -->
<g id="node6" class="node"><title>Node6</title>
<g id="a_node6"><a xlink:href="../../dc/d91/classengine_1_1element_factories_1_1_game_element_factory.html#ae53ef87192fe373614a7215f0e3d938c" target="_top" xlink:title="engine.elementFactories.\lGameElementFactory.generateVisualizer">
<polygon fill="white" stroke="black" points="898.5,-36 898.5,-66 1109.5,-66 1109.5,-36 898.5,-36"/>
<text text-anchor="start" x="906.5" y="-54" font-family="Helvetica,sans-Serif" font-size="10.00">engine.elementFactories.</text>
<text text-anchor="middle" x="1004" y="-43" font-family="Helvetica,sans-Serif" font-size="10.00">GameElementFactory.generateVisualizer</text>
</a>
</g>
</g>
<!-- Node5&#45;&gt;Node6 -->
<g id="edge5" class="edge"><title>Node5&#45;&gt;Node6</title>
<path fill="none" stroke="midnightblue" d="M871.709,-51C880.452,-51 889.334,-51 898.143,-51"/>
<polygon fill="midnightblue" stroke="midnightblue" points="871.522,-47.5001 861.522,-51 871.522,-54.5001 871.522,-47.5001"/>
</g>
<!-- Node7 -->
<g id="node7" class="node"><title>Node7</title>
<g id="a_node7"><a xlink:href="../../dc/d91/classengine_1_1element_factories_1_1_game_element_factory.html#a8671651ea7c0bcf7fb0de5b5552832fe" target="_top" xlink:title="engine.elementFactories.\lGameElementFactory.createDrawable\lGameElement">
<polygon fill="white" stroke="black" points="1149.5,-60.5 1149.5,-101.5 1346.5,-101.5 1346.5,-60.5 1149.5,-60.5"/>
<text text-anchor="start" x="1157.5" y="-89.5" font-family="Helvetica,sans-Serif" font-size="10.00">engine.elementFactories.</text>
<text text-anchor="start" x="1157.5" y="-78.5" font-family="Helvetica,sans-Serif" font-size="10.00">GameElementFactory.createDrawable</text>
<text text-anchor="middle" x="1248" y="-67.5" font-family="Helvetica,sans-Serif" font-size="10.00">GameElement</text>
</a>
</g>
</g>
<!-- Node6&#45;&gt;Node7 -->
<g id="edge6" class="edge"><title>Node6&#45;&gt;Node7</title>
<path fill="none" stroke="midnightblue" d="M1119.95,-65.2506C1129.79,-66.4696 1139.68,-67.6953 1149.36,-68.8953"/>
<polygon fill="midnightblue" stroke="midnightblue" points="1120.09,-61.7409 1109.74,-63.984 1119.23,-68.6877 1120.09,-61.7409"/>
</g>
<!-- Node8 -->
<g id="node8" class="node"><title>Node8</title>
<g id="a_node8"><a xlink:href="../../dc/d91/classengine_1_1element_factories_1_1_game_element_factory.html#a4e478634c65c4ee64c2163fdacd09669" target="_top" xlink:title="engine.elementFactories.\lGameElementFactory.createSelectable\lGameElement">
<polygon fill="white" stroke="black" points="1146.5,-0.5 1146.5,-41.5 1349.5,-41.5 1349.5,-0.5 1146.5,-0.5"/>
<text text-anchor="start" x="1154.5" y="-29.5" font-family="Helvetica,sans-Serif" font-size="10.00">engine.elementFactories.</text>
<text text-anchor="start" x="1154.5" y="-18.5" font-family="Helvetica,sans-Serif" font-size="10.00">GameElementFactory.createSelectable</text>
<text text-anchor="middle" x="1248" y="-7.5" font-family="Helvetica,sans-Serif" font-size="10.00">GameElement</text>
</a>
</g>
</g>
<!-- Node6&#45;&gt;Node8 -->
<g id="edge7" class="edge"><title>Node6&#45;&gt;Node8</title>
<path fill="none" stroke="midnightblue" d="M1119.73,-36.7771C1128.61,-35.6765 1137.53,-34.5703 1146.31,-33.4822"/>
<polygon fill="midnightblue" stroke="midnightblue" points="1119.23,-33.3123 1109.74,-38.016 1120.09,-40.2591 1119.23,-33.3123"/>
</g>
<!-- Node9&#45;&gt;Node2 -->
<g id="edge9" class="edge"><title>Node9&#45;&gt;Node2</title>
<path fill="none" stroke="midnightblue" d="M404.217,-110.326C412.783,-111.068 421.396,-111.814 429.899,-112.55"/>
<polygon fill="midnightblue" stroke="midnightblue" points="404.458,-106.834 394.193,-109.458 403.854,-113.808 404.458,-106.834"/>
</g>
</g>
</svg>
        <g id="navigator" transform="translate(0 0)" fill="#404254">
                <rect fill="#f2f5e9" fill-opacity="0.5" stroke="#606060" stroke-width=".5" x="0" y="0" width="60" height="60"/>
                <use id="zoomplus" xlink:href="#zoomPlus" x="17" y="9" onmousedown="handleZoom(evt,'in')"/>
                <use id="zoomminus" xlink:href="#zoomMin" x="42" y="9" onmousedown="handleZoom(evt,'out')"/>
                <use id="reset" xlink:href="#resetDef" x="30" y="36" onmousedown="handleReset()"/>
                <g id="arrowUp" xlink:href="#dirArrow" transform="translate(30 24)" onmousedown="handlePan(0,-1)">
                  <use xlink:href="#rim" fill="#404040">
                        <set attributeName="fill" to="#808080" begin="arrowUp.mouseover" end="arrowUp.mouseout"/>
                  </use>
                  <path fill="none" stroke="white" stroke-width="1.5" d="M0,-3.0v7 M-2.5,-0.5L0,-3.0L2.5,-0.5"/>
                </g>
                <g id="arrowRight" xlink:href="#dirArrow" transform="rotate(90) translate(36 -43)" onmousedown="handlePan(1,0)">
                  <use xlink:href="#rim" fill="#404040">
                        <set attributeName="fill" to="#808080" begin="arrowRight.mouseover" end="arrowRight.mouseout"/>
                  </use>
                  <path fill="none" stroke="white" stroke-width="1.5" d="M0,-3.0v7 M-2.5,-0.5L0,-3.0L2.5,-0.5"/>
                </g>
                <g id="arrowDown" xlink:href="#dirArrow" transform="rotate(180) translate(-30 -48)" onmousedown="handlePan(0,1)">
                  <use xlink:href="#rim" fill="#404040">
                        <set attributeName="fill" to="#808080" begin="arrowDown.mouseover" end="arrowDown.mouseout"/>
                  </use>
                  <path fill="none" stroke="white" stroke-width="1.5" d="M0,-3.0v7 M-2.5,-0.5L0,-3.0L2.5,-0.5"/>
                </g>
                <g id="arrowLeft" xlink:href="#dirArrow" transform="rotate(270) translate(-36 17)" onmousedown="handlePan(-1,0)">
                  <use xlink:href="#rim" fill="#404040">
                        <set attributeName="fill" to="#808080" begin="arrowLeft.mouseover" end="arrowLeft.mouseout"/>
                  </use>
                  <path fill="none" stroke="white" stroke-width="1.5" d="M0,-3.0v7 M-2.5,-0.5L0,-3.0L2.5,-0.5"/>
                </g>
        </g>
        <svg viewBox="0 0 15 15" width="100%" height="30px" preserveAspectRatio="xMaxYMin meet">
         <g id="arrow_out" transform="scale(0.3 0.3)">
          <a xlink:href="classmodel_1_1sprite_1_1_sprite_image_container_aeda9017d9625cc566d6cc9a640db43e1_icgraph_org.svg" target="_base">
           <rect id="button" ry="5" rx="5" y="6" x="6" height="38" width="38"
                fill="#f2f5e9" fill-opacity="0.5" stroke="#606060" stroke-width="1.0"/>
           <path id="arrow"
             d="M 11.500037,31.436501 C 11.940474,20.09759 22.043105,11.32322 32.158766,21.979434 L 37.068811,17.246167 C 37.068811,17.246167 37.088388,32 37.088388,32 L 22.160133,31.978069 C 22.160133,31.978069 26.997745,27.140456 26.997745,27.140456 C 18.528582,18.264221 13.291696,25.230495 11.500037,31.436501 z"
             style="fill:#404040;"/>
          </a>
         </g>
        </svg>
</svg>
