<?xml version="1.0" encoding="UTF-8" standalone="no"?>
<!DOCTYPE svg PUBLIC "-//W3C//DTD SVG 1.1//EN"
 "http://www.w3.org/Graphics/SVG/1.1/DTD/svg11.dtd">
<!-- Generated by graphviz version 2.36.0 (20140111.2315)
 -->
<!-- Title: model.sprite.SpriteImageContainer.getColorMask Pages: 1 -->
<svg width="1310pt" height="122pt"
 viewBox="0.00 0.00 1310.00 122.00" xmlns="http://www.w3.org/2000/svg" xmlns:xlink="http://www.w3.org/1999/xlink">
<g id="graph0" class="graph" transform="scale(1 1) rotate(0) translate(4 118)">
<title>model.sprite.SpriteImageContainer.getColorMask</title>
<polygon fill="white" stroke="none" points="-4,4 -4,-118 1306,-118 1306,4 -4,4"/>
<!-- Node1 -->
<g id="node1" class="node"><title>Node1</title>
<polygon fill="#bfbfbf" stroke="black" points="0,-59 0,-89 138,-89 138,-59 0,-59"/>
<text text-anchor="start" x="8" y="-77" font-family="Helvetica,sans-Serif" font-size="10.00">model.sprite.SpriteImage</text>
<text text-anchor="middle" x="69" y="-66" font-family="Helvetica,sans-Serif" font-size="10.00">Container.getColorMask</text>
</g>
<!-- Node2 -->
<g id="node2" class="node"><title>Node2</title>
<g id="a_node2"><a xlink:href="../../d9/d50/classengine_1_1visuals_1_1element_visuals_1_1animations_1_1_animator.html#a3a40c5c16960e8afd0cf952c1e4213a6" target="_top" xlink:title="engine.visuals.elementVisuals.animations.\lAnimator.Animator">
<polygon fill="white" stroke="black" points="174,-84 174,-114 394,-114 394,-84 174,-84"/>
<text text-anchor="start" x="182" y="-102" font-family="Helvetica,sans-Serif" font-size="10.00">engine.visuals.elementVisuals.animations.</text>
<text text-anchor="middle" x="284" y="-91" font-family="Helvetica,sans-Serif" font-size="10.00">Animator.Animator</text>
</a>
</g>
</g>
<!-- Node1&#45;&gt;Node2 -->
<g id="edge1" class="edge"><title>Node1&#45;&gt;Node2</title>
<path fill="none" stroke="midnightblue" d="M148.347,-83.1957C156.72,-84.1784 165.343,-85.1905 173.988,-86.2052"/>
<polygon fill="midnightblue" stroke="midnightblue" points="148.613,-79.703 138.273,-82.0133 147.797,-86.6552 148.613,-79.703"/>
</g>
<!-- Node3 -->
<g id="node3" class="node"><title>Node3</title>
<g id="a_node3"><a xlink:href="../../de/d21/classmodel_1_1_main_model.html#ae2e58698b812253b1c8e87312897b97e" target="_top" xlink:title="model.MainModel.fetchImage\lContainer">
<polygon fill="white" stroke="black" points="205,-35 205,-65 363,-65 363,-35 205,-35"/>
<text text-anchor="start" x="213" y="-53" font-family="Helvetica,sans-Serif" font-size="10.00">model.MainModel.fetchImage</text>
<text text-anchor="middle" x="284" y="-42" font-family="Helvetica,sans-Serif" font-size="10.00">Container</text>
</a>
</g>
</g>
<!-- Node1&#45;&gt;Node3 -->
<g id="edge2" class="edge"><title>Node1&#45;&gt;Node3</title>
<path fill="none" stroke="midnightblue" d="M148.353,-65.1715C166.748,-63.0989 186.349,-60.8903 204.739,-58.8181"/>
<polygon fill="midnightblue" stroke="midnightblue" points="147.819,-61.7095 138.273,-66.3072 148.602,-68.6654 147.819,-61.7095"/>
</g>
<!-- Node4 -->
<g id="node4" class="node"><title>Node4</title>
<g id="a_node4"><a xlink:href="../../d6/d60/classengine_1_1element_factories_1_1_animator_factory.html#a18370178255ca1fd6c28dfc5158001f8" target="_top" xlink:title="engine.elementFactories.\lAnimatorFactory.createAnimator">
<polygon fill="white" stroke="black" points="430,-35 430,-65 602,-65 602,-35 430,-35"/>
<text text-anchor="start" x="438" y="-53" font-family="Helvetica,sans-Serif" font-size="10.00">engine.elementFactories.</text>
<text text-anchor="middle" x="516" y="-42" font-family="Helvetica,sans-Serif" font-size="10.00">AnimatorFactory.createAnimator</text>
</a>
</g>
</g>
<!-- Node3&#45;&gt;Node4 -->
<g id="edge3" class="edge"><title>Node3&#45;&gt;Node4</title>
<path fill="none" stroke="midnightblue" d="M373.388,-50C391.952,-50 411.496,-50 429.935,-50"/>
<polygon fill="midnightblue" stroke="midnightblue" points="373.188,-46.5001 363.188,-50 373.188,-53.5001 373.188,-46.5001"/>
</g>
<!-- Node5 -->
<g id="node5" class="node"><title>Node5</title>
<g id="a_node5"><a xlink:href="../../df/df0/classengine_1_1element_factories_1_1_visualizer_factory.html#ab3af310fd8c0f30f4ab30125576112f9" target="_top" xlink:title="engine.elementFactories.\lVisualizerFactory.createVisualizer">
<polygon fill="white" stroke="black" points="638.5,-35 638.5,-65 813.5,-65 813.5,-35 638.5,-35"/>
<text text-anchor="start" x="646.5" y="-53" font-family="Helvetica,sans-Serif" font-size="10.00">engine.elementFactories.</text>
<text text-anchor="middle" x="726" y="-42" font-family="Helvetica,sans-Serif" font-size="10.00">VisualizerFactory.createVisualizer</text>
</a>
</g>
</g>
<!-- Node4&#45;&gt;Node5 -->
<g id="edge4" class="edge"><title>Node4&#45;&gt;Node5</title>
<path fill="none" stroke="midnightblue" d="M612.302,-50C620.95,-50 629.678,-50 638.246,-50"/>
<polygon fill="midnightblue" stroke="midnightblue" points="612.202,-46.5001 602.202,-50 612.202,-53.5001 612.202,-46.5001"/>
</g>
<!-- Node6 -->
<g id="node6" class="node"><title>Node6</title>
<g id="a_node6"><a xlink:href="../../dc/d91/classengine_1_1element_factories_1_1_game_element_factory.html#ae53ef87192fe373614a7215f0e3d938c" target="_top" xlink:title="engine.elementFactories.\lGameElementFactory.generateVisualizer">
<polygon fill="white" stroke="black" points="850.5,-35 850.5,-65 1061.5,-65 1061.5,-35 850.5,-35"/>
<text text-anchor="start" x="858.5" y="-53" font-family="Helvetica,sans-Serif" font-size="10.00">engine.elementFactories.</text>
<text text-anchor="middle" x="956" y="-42" font-family="Helvetica,sans-Serif" font-size="10.00">GameElementFactory.generateVisualizer</text>
</a>
</g>
</g>
<!-- Node5&#45;&gt;Node6 -->
<g id="edge5" class="edge"><title>Node5&#45;&gt;Node6</title>
<path fill="none" stroke="midnightblue" d="M823.709,-50C832.452,-50 841.334,-50 850.143,-50"/>
<polygon fill="midnightblue" stroke="midnightblue" points="823.522,-46.5001 813.522,-50 823.522,-53.5001 823.522,-46.5001"/>
</g>
<!-- Node7 -->
<g id="node7" class="node"><title>Node7</title>
<g id="a_node7"><a xlink:href="../../dc/d91/classengine_1_1element_factories_1_1_game_element_factory.html#a8671651ea7c0bcf7fb0de5b5552832fe" target="_top" xlink:title="engine.elementFactories.\lGameElementFactory.createDrawable\lGameElement">
<polygon fill="white" stroke="black" points="1101.5,-59.5 1101.5,-100.5 1298.5,-100.5 1298.5,-59.5 1101.5,-59.5"/>
<text text-anchor="start" x="1109.5" y="-88.5" font-family="Helvetica,sans-Serif" font-size="10.00">engine.elementFactories.</text>
<text text-anchor="start" x="1109.5" y="-77.5" font-family="Helvetica,sans-Serif" font-size="10.00">GameElementFactory.createDrawable</text>
<text text-anchor="middle" x="1200" y="-66.5" font-family="Helvetica,sans-Serif" font-size="10.00">GameElement</text>
</a>
</g>
</g>
<!-- Node6&#45;&gt;Node7 -->
<g id="edge6" class="edge"><title>Node6&#45;&gt;Node7</title>
<path fill="none" stroke="midnightblue" d="M1071.95,-64.2506C1081.79,-65.4696 1091.68,-66.6953 1101.36,-67.8953"/>
<polygon fill="midnightblue" stroke="midnightblue" points="1072.09,-60.7409 1061.74,-62.984 1071.23,-67.6877 1072.09,-60.7409"/>
</g>
<!-- Node8 -->
<g id="node8" class="node"><title>Node8</title>
<g id="a_node8"><a xlink:href="../../dc/d91/classengine_1_1element_factories_1_1_game_element_factory.html#a4e478634c65c4ee64c2163fdacd09669" target="_top" xlink:title="engine.elementFactories.\lGameElementFactory.createSelectable\lGameElement">
<polygon fill="white" stroke="black" points="1098.5,0.5 1098.5,-40.5 1301.5,-40.5 1301.5,0.5 1098.5,0.5"/>
<text text-anchor="start" x="1106.5" y="-28.5" font-family="Helvetica,sans-Serif" font-size="10.00">engine.elementFactories.</text>
<text text-anchor="start" x="1106.5" y="-17.5" font-family="Helvetica,sans-Serif" font-size="10.00">GameElementFactory.createSelectable</text>
<text text-anchor="middle" x="1200" y="-6.5" font-family="Helvetica,sans-Serif" font-size="10.00">GameElement</text>
</a>
</g>
</g>
<!-- Node6&#45;&gt;Node8 -->
<g id="edge7" class="edge"><title>Node6&#45;&gt;Node8</title>
<path fill="none" stroke="midnightblue" d="M1071.73,-35.7771C1080.61,-34.6765 1089.53,-33.5703 1098.31,-32.4822"/>
<polygon fill="midnightblue" stroke="midnightblue" points="1071.23,-32.3123 1061.74,-37.016 1072.09,-39.2591 1071.23,-32.3123"/>
</g>
</g>
</svg>
