<?xml version="1.0" encoding="UTF-8" standalone="no"?>
<!DOCTYPE svg PUBLIC "-//W3C//DTD SVG 1.1//EN"
 "http://www.w3.org/Graphics/SVG/1.1/DTD/svg11.dtd">
<!-- Generated by graphviz version 2.36.0 (20140111.2315)
 -->
<!-- Title: model.sprite.SpriteImageContainer.locateColorMask Pages: 1 -->
<svg width="694pt" height="38pt"
 viewBox="0.00 0.00 694.00 38.00" xmlns="http://www.w3.org/2000/svg" xmlns:xlink="http://www.w3.org/1999/xlink">
<g id="graph0" class="graph" transform="scale(1 1) rotate(0) translate(4 34)">
<title>model.sprite.SpriteImageContainer.locateColorMask</title>
<polygon fill="white" stroke="none" points="-4,4 -4,-34 690,-34 690,4 -4,4"/>
<!-- Node1 -->
<g id="node1" class="node"><title>Node1</title>
<polygon fill="#bfbfbf" stroke="black" points="0,-0 0,-30 144,-30 144,-0 0,-0"/>
<text text-anchor="start" x="8" y="-18" font-family="Helvetica,sans-Serif" font-size="10.00">model.sprite.SpriteImage</text>
<text text-anchor="middle" x="72" y="-7" font-family="Helvetica,sans-Serif" font-size="10.00">Container.locateColorMask</text>
</g>
<!-- Node2 -->
<g id="node2" class="node"><title>Node2</title>
<g id="a_node2"><a xlink:href="../../dc/d71/classmodel_1_1sprite_1_1_sprite_image_loader.html#a7a414ef9c8f43d6051fdb46d761104c9" target="_top" xlink:title="model.sprite.SpriteImage\lLoader.loadTeamColorMask">
<polygon fill="white" stroke="black" points="180.5,-0 180.5,-30 327.5,-30 327.5,-0 180.5,-0"/>
<text text-anchor="start" x="188.5" y="-18" font-family="Helvetica,sans-Serif" font-size="10.00">model.sprite.SpriteImage</text>
<text text-anchor="middle" x="254" y="-7" font-family="Helvetica,sans-Serif" font-size="10.00">Loader.loadTeamColorMask</text>
</a>
</g>
</g>
<!-- Node1&#45;&gt;Node2 -->
<g id="edge1" class="edge"><title>Node1&#45;&gt;Node2</title>
<path fill="none" stroke="midnightblue" d="M144.141,-15C152.687,-15 161.471,-15 170.165,-15"/>
<polygon fill="midnightblue" stroke="midnightblue" points="170.31,-18.5001 180.31,-15 170.31,-11.5001 170.31,-18.5001"/>
</g>
<!-- Node3 -->
<g id="node3" class="node"><title>Node3</title>
<g id="a_node3"><a xlink:href="../../d3/d14/classutil_1_1_save_load_utility.html#af1333303576053ddda0787bcf1cd9c81" target="_top" xlink:title="util.SaveLoadUtility.load\lImage">
<polygon fill="white" stroke="black" points="364,-0 364,-30 494,-30 494,-0 364,-0"/>
<text text-anchor="start" x="372" y="-18" font-family="Helvetica,sans-Serif" font-size="10.00">util.SaveLoadUtility.load</text>
<text text-anchor="middle" x="429" y="-7" font-family="Helvetica,sans-Serif" font-size="10.00">Image</text>
</a>
</g>
</g>
<!-- Node2&#45;&gt;Node3 -->
<g id="edge2" class="edge"><title>Node2&#45;&gt;Node3</title>
<path fill="none" stroke="midnightblue" d="M327.616,-15C336.256,-15 345.085,-15 353.748,-15"/>
<polygon fill="midnightblue" stroke="midnightblue" points="353.818,-18.5001 363.818,-15 353.818,-11.5001 353.818,-18.5001"/>
</g>
<!-- Node4 -->
<g id="node4" class="node"><title>Node4</title>
<g id="a_node4"><a xlink:href="../../d3/d14/classutil_1_1_save_load_utility.html#a45324a0a42802150f23edb0fe9340aa2" target="_top" xlink:title="util.SaveLoadUtility.obtainFile">
<polygon fill="white" stroke="black" points="530.5,-5.5 530.5,-24.5 685.5,-24.5 685.5,-5.5 530.5,-5.5"/>
<text text-anchor="middle" x="608" y="-12.5" font-family="Helvetica,sans-Serif" font-size="10.00">util.SaveLoadUtility.obtainFile</text>
</a>
</g>
</g>
<!-- Node3&#45;&gt;Node4 -->
<g id="edge3" class="edge"><title>Node3&#45;&gt;Node4</title>
<path fill="none" stroke="midnightblue" d="M494.151,-15C502.613,-15 511.397,-15 520.16,-15"/>
<polygon fill="midnightblue" stroke="midnightblue" points="520.415,-18.5001 530.415,-15 520.415,-11.5001 520.415,-18.5001"/>
</g>
</g>
</svg>
