<?xml version="1.0" encoding="UTF-8" standalone="no"?>
<!DOCTYPE svg PUBLIC "-//W3C//DTD SVG 1.1//EN"
 "http://www.w3.org/Graphics/SVG/1.1/DTD/svg11.dtd">
<!-- Generated by graphviz version 2.36.0 (20140111.2315)
 -->
<!-- Title: model.state.gameelement.GameElementState.getTypes Pages: 1 -->
<svg width="792pt" height="87pt"
 viewBox="0.00 0.00 792.00 87.00" xmlns="http://www.w3.org/2000/svg" xmlns:xlink="http://www.w3.org/1999/xlink">
<g id="graph0" class="graph" transform="scale(1 1) rotate(0) translate(4 83)">
<title>model.state.gameelement.GameElementState.getTypes</title>
<polygon fill="white" stroke="none" points="-4,4 -4,-83 788,-83 788,4 -4,4"/>
<!-- Node1 -->
<g id="node1" class="node"><title>Node1</title>
<polygon fill="#bfbfbf" stroke="black" points="0.5,-24 0.5,-54 157.5,-54 157.5,-24 0.5,-24"/>
<text text-anchor="start" x="8.5" y="-42" font-family="Helvetica,sans-Serif" font-size="10.00">model.state.gameelement.</text>
<text text-anchor="middle" x="79" y="-31" font-family="Helvetica,sans-Serif" font-size="10.00">GameElementState.getTypes</text>
</g>
<!-- Node2 -->
<g id="node2" class="node"><title>Node2</title>
<g id="a_node2"><a xlink:href="../../d0/da0/classmodel_1_1data_1_1_wizard_data_factory.html#a0c0eb91e1b531f96b715e1a9c0c45db9" target="_top" xlink:title="model.data.WizardDataFactory.create\lWizardData">
<polygon fill="white" stroke="black" points="199,-49 199,-79 395,-79 395,-49 199,-49"/>
<text text-anchor="start" x="207" y="-67" font-family="Helvetica,sans-Serif" font-size="10.00">model.data.WizardDataFactory.create</text>
<text text-anchor="middle" x="297" y="-56" font-family="Helvetica,sans-Serif" font-size="10.00">WizardData</text>
</a>
</g>
</g>
<!-- Node1&#45;&gt;Node2 -->
<g id="edge1" class="edge"><title>Node1&#45;&gt;Node2</title>
<path fill="none" stroke="midnightblue" d="M167.765,-49.158C177.952,-50.337 188.387,-51.5448 198.692,-52.7374"/>
<polygon fill="midnightblue" stroke="midnightblue" points="168.012,-45.6633 157.676,-47.9903 167.207,-52.6169 168.012,-45.6633"/>
</g>
<!-- Node5 -->
<g id="node5" class="node"><title>Node5</title>
<g id="a_node5"><a xlink:href="../../d4/de2/classengine_1_1game_representation_1_1rendered_representation_1_1_game_element.html#a7b3ca567801b841b55e4a1ba3729d66f" target="_top" xlink:title="engine.gameRepresentation.rendered\lRepresentation.GameElement.getTypes">
<polygon fill="white" stroke="black" points="194,-0 194,-30 400,-30 400,-0 194,-0"/>
<text text-anchor="start" x="202" y="-18" font-family="Helvetica,sans-Serif" font-size="10.00">engine.gameRepresentation.rendered</text>
<text text-anchor="middle" x="297" y="-7" font-family="Helvetica,sans-Serif" font-size="10.00">Representation.GameElement.getTypes</text>
</a>
</g>
</g>
<!-- Node1&#45;&gt;Node5 -->
<g id="edge4" class="edge"><title>Node1&#45;&gt;Node5</title>
<path fill="none" stroke="midnightblue" d="M167.684,-29.2573C176.291,-28.301 185.077,-27.3248 193.812,-26.3542"/>
<polygon fill="midnightblue" stroke="midnightblue" points="167.228,-25.7864 157.676,-30.3694 168.001,-32.7435 167.228,-25.7864"/>
</g>
<!-- Node3 -->
<g id="node3" class="node"><title>Node3</title>
<g id="a_node3"><a xlink:href="../../d9/dfb/classview_1_1editor_1_1_element_accordion_controller.html#ac52ea89f2e0af7497883a0fd53199296" target="_top" xlink:title="view.editor.ElementAccordion\lController.createWizardData">
<polygon fill="white" stroke="black" points="436,-49 436,-79 592,-79 592,-49 436,-49"/>
<text text-anchor="start" x="444" y="-67" font-family="Helvetica,sans-Serif" font-size="10.00">view.editor.ElementAccordion</text>
<text text-anchor="middle" x="514" y="-56" font-family="Helvetica,sans-Serif" font-size="10.00">Controller.createWizardData</text>
</a>
</g>
</g>
<!-- Node2&#45;&gt;Node3 -->
<g id="edge2" class="edge"><title>Node2&#45;&gt;Node3</title>
<path fill="none" stroke="midnightblue" d="M405.416,-64C415.724,-64 426.034,-64 435.965,-64"/>
<polygon fill="midnightblue" stroke="midnightblue" points="405.121,-60.5001 395.121,-64 405.121,-67.5001 405.121,-60.5001"/>
</g>
<!-- Node4 -->
<g id="node4" class="node"><title>Node4</title>
<g id="a_node4"><a xlink:href="../../d9/dfb/classview_1_1editor_1_1_element_accordion_controller.html#af80453486ff349552dab988fb64397c0" target="_top" xlink:title="view.editor.ElementAccordion\lController.init">
<polygon fill="white" stroke="black" points="628,-49 628,-79 784,-79 784,-49 628,-49"/>
<text text-anchor="start" x="636" y="-67" font-family="Helvetica,sans-Serif" font-size="10.00">view.editor.ElementAccordion</text>
<text text-anchor="middle" x="706" y="-56" font-family="Helvetica,sans-Serif" font-size="10.00">Controller.init</text>
</a>
</g>
</g>
<!-- Node3&#45;&gt;Node4 -->
<g id="edge3" class="edge"><title>Node3&#45;&gt;Node4</title>
<path fill="none" stroke="midnightblue" d="M602.062,-64C610.677,-64 619.38,-64 627.884,-64"/>
<polygon fill="midnightblue" stroke="midnightblue" points="602.006,-60.5001 592.006,-64 602.006,-67.5001 602.006,-60.5001"/>
</g>
</g>
</svg>
