<?xml version="1.0" encoding="UTF-8" standalone="no"?>
<!DOCTYPE svg PUBLIC "-//W3C//DTD SVG 1.1//EN"
 "http://www.w3.org/Graphics/SVG/1.1/DTD/svg11.dtd">
<!-- Generated by graphviz version 2.36.0 (20140111.2315)
 -->
<!-- Title: model.state.gameelement.GameElementState.getActions Pages: 1 -->
<svg width="842pt" height="218pt"
 viewBox="0.00 0.00 842.00 218.00" xmlns="http://www.w3.org/2000/svg" xmlns:xlink="http://www.w3.org/1999/xlink">
<g id="graph0" class="graph" transform="scale(1 1) rotate(0) translate(4 214)">
<title>model.state.gameelement.GameElementState.getActions</title>
<polygon fill="white" stroke="none" points="-4,4 -4,-214 838,-214 838,4 -4,4"/>
<!-- Node1 -->
<g id="node1" class="node"><title>Node1</title>
<polygon fill="#bfbfbf" stroke="black" points="0,-122 0,-152 166,-152 166,-122 0,-122"/>
<text text-anchor="start" x="8" y="-140" font-family="Helvetica,sans-Serif" font-size="10.00">model.state.gameelement.</text>
<text text-anchor="middle" x="83" y="-129" font-family="Helvetica,sans-Serif" font-size="10.00">GameElementState.getActions</text>
</g>
<!-- Node2 -->
<g id="node2" class="node"><title>Node2</title>
<g id="a_node2"><a xlink:href="../../d0/da0/classmodel_1_1data_1_1_wizard_data_factory.html#a0c0eb91e1b531f96b715e1a9c0c45db9" target="_top" xlink:title="model.data.WizardDataFactory.create\lWizardData">
<polygon fill="white" stroke="black" points="204,-163 204,-193 400,-193 400,-163 204,-163"/>
<text text-anchor="start" x="212" y="-181" font-family="Helvetica,sans-Serif" font-size="10.00">model.data.WizardDataFactory.create</text>
<text text-anchor="middle" x="302" y="-170" font-family="Helvetica,sans-Serif" font-size="10.00">WizardData</text>
</a>
</g>
</g>
<!-- Node1&#45;&gt;Node2 -->
<g id="edge1" class="edge"><title>Node1&#45;&gt;Node2</title>
<path fill="none" stroke="midnightblue" d="M173.399,-153.891C189.323,-156.9 205.813,-160.015 221.439,-162.968"/>
<polygon fill="midnightblue" stroke="midnightblue" points="174.047,-150.452 163.571,-152.034 172.747,-157.33 174.047,-150.452"/>
</g>
<!-- Node5 -->
<g id="node5" class="node"><title>Node5</title>
<g id="a_node5"><a xlink:href="../../dc/d91/classengine_1_1element_factories_1_1_game_element_factory.html#a3582bf2491a03176901da64dcdeccd97" target="_top" xlink:title="engine.elementFactories.\lGameElementFactory.generateActions">
<polygon fill="white" stroke="black" points="202,-82 202,-112 402,-112 402,-82 202,-82"/>
<text text-anchor="start" x="210" y="-100" font-family="Helvetica,sans-Serif" font-size="10.00">engine.elementFactories.</text>
<text text-anchor="middle" x="302" y="-89" font-family="Helvetica,sans-Serif" font-size="10.00">GameElementFactory.generateActions</text>
</a>
</g>
</g>
<!-- Node1&#45;&gt;Node5 -->
<g id="edge4" class="edge"><title>Node1&#45;&gt;Node5</title>
<path fill="none" stroke="midnightblue" d="M175.459,-120.141C190.077,-117.447 205.118,-114.674 219.484,-112.026"/>
<polygon fill="midnightblue" stroke="midnightblue" points="174.62,-116.737 165.42,-121.992 175.889,-123.621 174.62,-116.737"/>
</g>
<!-- Node3 -->
<g id="node3" class="node"><title>Node3</title>
<g id="a_node3"><a xlink:href="../../d9/dfb/classview_1_1editor_1_1_element_accordion_controller.html#ac52ea89f2e0af7497883a0fd53199296" target="_top" xlink:title="view.editor.ElementAccordion\lController.createWizardData">
<polygon fill="white" stroke="black" points="462,-180 462,-210 618,-210 618,-180 462,-180"/>
<text text-anchor="start" x="470" y="-198" font-family="Helvetica,sans-Serif" font-size="10.00">view.editor.ElementAccordion</text>
<text text-anchor="middle" x="540" y="-187" font-family="Helvetica,sans-Serif" font-size="10.00">Controller.createWizardData</text>
</a>
</g>
</g>
<!-- Node2&#45;&gt;Node3 -->
<g id="edge2" class="edge"><title>Node2&#45;&gt;Node3</title>
<path fill="none" stroke="midnightblue" d="M410.208,-185.723C427.608,-186.976 445.323,-188.252 461.823,-189.441"/>
<polygon fill="midnightblue" stroke="midnightblue" points="410.238,-182.216 400.012,-184.988 409.735,-189.198 410.238,-182.216"/>
</g>
<!-- Node4 -->
<g id="node4" class="node"><title>Node4</title>
<g id="a_node4"><a xlink:href="../../d9/dfb/classview_1_1editor_1_1_element_accordion_controller.html#af80453486ff349552dab988fb64397c0" target="_top" xlink:title="view.editor.ElementAccordion\lController.init">
<polygon fill="white" stroke="black" points="678,-180 678,-210 834,-210 834,-180 678,-180"/>
<text text-anchor="start" x="686" y="-198" font-family="Helvetica,sans-Serif" font-size="10.00">view.editor.ElementAccordion</text>
<text text-anchor="middle" x="756" y="-187" font-family="Helvetica,sans-Serif" font-size="10.00">Controller.init</text>
</a>
</g>
</g>
<!-- Node3&#45;&gt;Node4 -->
<g id="edge3" class="edge"><title>Node3&#45;&gt;Node4</title>
<path fill="none" stroke="midnightblue" d="M628.371,-195C644.766,-195 661.798,-195 677.854,-195"/>
<polygon fill="midnightblue" stroke="midnightblue" points="628.259,-191.5 618.259,-195 628.259,-198.5 628.259,-191.5"/>
</g>
<!-- Node6 -->
<g id="node6" class="node"><title>Node6</title>
<g id="a_node6"><a xlink:href="../../dc/d91/classengine_1_1element_factories_1_1_game_element_factory.html#a8671651ea7c0bcf7fb0de5b5552832fe" target="_top" xlink:title="engine.elementFactories.\lGameElementFactory.createDrawable\lGameElement">
<polygon fill="white" stroke="black" points="441.5,-120.5 441.5,-161.5 638.5,-161.5 638.5,-120.5 441.5,-120.5"/>
<text text-anchor="start" x="449.5" y="-149.5" font-family="Helvetica,sans-Serif" font-size="10.00">engine.elementFactories.</text>
<text text-anchor="start" x="449.5" y="-138.5" font-family="Helvetica,sans-Serif" font-size="10.00">GameElementFactory.createDrawable</text>
<text text-anchor="middle" x="540" y="-127.5" font-family="Helvetica,sans-Serif" font-size="10.00">GameElement</text>
</a>
</g>
</g>
<!-- Node5&#45;&gt;Node6 -->
<g id="edge5" class="edge"><title>Node5&#45;&gt;Node6</title>
<path fill="none" stroke="midnightblue" d="M393.684,-113.907C409.26,-116.811 425.508,-119.841 441.26,-122.777"/>
<polygon fill="midnightblue" stroke="midnightblue" points="394.03,-110.411 383.558,-112.019 392.747,-117.293 394.03,-110.411"/>
</g>
<!-- Node7 -->
<g id="node7" class="node"><title>Node7</title>
<g id="a_node7"><a xlink:href="../../dc/d91/classengine_1_1element_factories_1_1_game_element_factory.html#aa023176bb8626f3f2dfdbba2fb9be6e8" target="_top" xlink:title="engine.elementFactories.\lGameElementFactory.createGame\lElement">
<polygon fill="white" stroke="black" points="449,-60.5 449,-101.5 631,-101.5 631,-60.5 449,-60.5"/>
<text text-anchor="start" x="457" y="-89.5" font-family="Helvetica,sans-Serif" font-size="10.00">engine.elementFactories.</text>
<text text-anchor="start" x="457" y="-78.5" font-family="Helvetica,sans-Serif" font-size="10.00">GameElementFactory.createGame</text>
<text text-anchor="middle" x="540" y="-67.5" font-family="Helvetica,sans-Serif" font-size="10.00">Element</text>
</a>
</g>
</g>
<!-- Node5&#45;&gt;Node7 -->
<g id="edge6" class="edge"><title>Node5&#45;&gt;Node7</title>
<path fill="none" stroke="midnightblue" d="M412.294,-89.5902C424.527,-88.7609 436.886,-87.923 448.84,-87.1125"/>
<polygon fill="midnightblue" stroke="midnightblue" points="411.8,-86.1156 402.059,-90.2841 412.273,-93.0996 411.8,-86.1156"/>
</g>
<!-- Node8 -->
<g id="node8" class="node"><title>Node8</title>
<g id="a_node8"><a xlink:href="../../dc/d91/classengine_1_1element_factories_1_1_game_element_factory.html#a4e478634c65c4ee64c2163fdacd09669" target="_top" xlink:title="engine.elementFactories.\lGameElementFactory.createSelectable\lGameElement">
<polygon fill="white" stroke="black" points="438.5,-0.5 438.5,-41.5 641.5,-41.5 641.5,-0.5 438.5,-0.5"/>
<text text-anchor="start" x="446.5" y="-29.5" font-family="Helvetica,sans-Serif" font-size="10.00">engine.elementFactories.</text>
<text text-anchor="start" x="446.5" y="-18.5" font-family="Helvetica,sans-Serif" font-size="10.00">GameElementFactory.createSelectable</text>
<text text-anchor="middle" x="540" y="-7.5" font-family="Helvetica,sans-Serif" font-size="10.00">GameElement</text>
</a>
</g>
</g>
<!-- Node5&#45;&gt;Node8 -->
<g id="edge7" class="edge"><title>Node5&#45;&gt;Node8</title>
<path fill="none" stroke="midnightblue" d="M355.353,-78.6214C380.303,-70.0013 410.613,-59.7296 438,-51 447.847,-47.8614 458.267,-44.6468 468.527,-41.5428"/>
<polygon fill="midnightblue" stroke="midnightblue" points="354.023,-75.3781 345.72,-81.9594 356.315,-81.9922 354.023,-75.3781"/>
</g>
</g>
</svg>
