<?xml version="1.0" encoding="UTF-8" standalone="no"?>
<!DOCTYPE svg PUBLIC "-//W3C//DTD SVG 1.1//EN"
 "http://www.w3.org/Graphics/SVG/1.1/DTD/svg11.dtd">
<!-- Generated by graphviz version 2.36.0 (20140111.2315)
 -->
<!-- Title: model.state.gameelement.GameElementState.isType Pages: 1 -->
<svg width="698pt" height="38pt"
 viewBox="0.00 0.00 698.00 38.00" xmlns="http://www.w3.org/2000/svg" xmlns:xlink="http://www.w3.org/1999/xlink">
<g id="graph0" class="graph" transform="scale(1 1) rotate(0) translate(4 34)">
<title>model.state.gameelement.GameElementState.isType</title>
<polygon fill="white" stroke="none" points="-4,4 -4,-34 694,-34 694,4 -4,4"/>
<!-- Node1 -->
<g id="node1" class="node"><title>Node1</title>
<polygon fill="#bfbfbf" stroke="black" points="0,-0 0,-30 148,-30 148,-0 0,-0"/>
<text text-anchor="start" x="8" y="-18" font-family="Helvetica,sans-Serif" font-size="10.00">model.state.gameelement.</text>
<text text-anchor="middle" x="74" y="-7" font-family="Helvetica,sans-Serif" font-size="10.00">GameElementState.isType</text>
</g>
<!-- Node2 -->
<g id="node2" class="node"><title>Node2</title>
<g id="a_node2"><a xlink:href="../../d4/de2/classengine_1_1game_representation_1_1rendered_representation_1_1_game_element.html#a609768f3721fb9beaecc5b5a07a8fb1a" target="_top" xlink:title="engine.gameRepresentation.rendered\lRepresentation.GameElement.isType">
<polygon fill="white" stroke="black" points="184,-0 184,-30 382,-30 382,-0 184,-0"/>
<text text-anchor="start" x="192" y="-18" font-family="Helvetica,sans-Serif" font-size="10.00">engine.gameRepresentation.rendered</text>
<text text-anchor="middle" x="283" y="-7" font-family="Helvetica,sans-Serif" font-size="10.00">Representation.GameElement.isType</text>
</a>
</g>
</g>
<!-- Node1&#45;&gt;Node2 -->
<g id="edge1" class="edge"><title>Node1&#45;&gt;Node2</title>
<path fill="none" stroke="midnightblue" d="M158.378,-15C166.751,-15 175.306,-15 183.813,-15"/>
<polygon fill="midnightblue" stroke="midnightblue" points="158.272,-11.5001 148.272,-15 158.272,-18.5001 158.272,-11.5001"/>
</g>
<!-- Node3 -->
<g id="node3" class="node"><title>Node3</title>
<g id="a_node3"><a xlink:href="../../d4/d63/classengine_1_1game_representation_1_1evaluatables_1_1evaluators_1_1_type_check.html#a6f877b078697b12ffb44f0f64f6bd1a0" target="_top" xlink:title="engine.gameRepresentation.evaluatables.evaluators.\lTypeCheck.evaluate">
<polygon fill="white" stroke="black" points="418,-0 418,-30 690,-30 690,-0 418,-0"/>
<text text-anchor="start" x="426" y="-18" font-family="Helvetica,sans-Serif" font-size="10.00">engine.gameRepresentation.evaluatables.evaluators.</text>
<text text-anchor="middle" x="554" y="-7" font-family="Helvetica,sans-Serif" font-size="10.00">TypeCheck.evaluate</text>
</a>
</g>
</g>
<!-- Node2&#45;&gt;Node3 -->
<g id="edge2" class="edge"><title>Node2&#45;&gt;Node3</title>
<path fill="none" stroke="midnightblue" d="M392.366,-15C400.718,-15 409.21,-15 417.707,-15"/>
<polygon fill="midnightblue" stroke="midnightblue" points="392.257,-11.5001 382.257,-15 392.257,-18.5001 392.257,-11.5001"/>
</g>
</g>
</svg>
