<?xml version="1.0" encoding="UTF-8" standalone="no"?>
<!DOCTYPE svg PUBLIC "-//W3C//DTD SVG 1.1//EN"
 "http://www.w3.org/Graphics/SVG/1.1/DTD/svg11.dtd">
<!-- Generated by graphviz version 2.36.0 (20140111.2315)
 -->
<!-- Title: model.state.gameelement.SelectableGameElementState Pages: 1 -->
<svg width="688pt" height="150pt"
 viewBox="0.00 0.00 688.00 150.00" xmlns="http://www.w3.org/2000/svg" xmlns:xlink="http://www.w3.org/1999/xlink">
<g id="graph0" class="graph" transform="scale(1 1) rotate(0) translate(4 146)">
<title>model.state.gameelement.SelectableGameElementState</title>
<polygon fill="white" stroke="none" points="-4,4 -4,-146 684,-146 684,4 -4,4"/>
<!-- Node1 -->
<g id="node1" class="node"><title>Node1</title>
<polygon fill="#bfbfbf" stroke="black" points="518,-49 518,-79 680,-79 680,-49 518,-49"/>
<text text-anchor="start" x="526" y="-67" font-family="Helvetica,sans-Serif" font-size="10.00">model.state.gameelement.</text>
<text text-anchor="middle" x="599" y="-56" font-family="Helvetica,sans-Serif" font-size="10.00">SelectableGameElementState</text>
</g>
<!-- Node2 -->
<g id="node2" class="node"><title>Node2</title>
<g id="a_node2"><a xlink:href="../../dd/ded/classmodel_1_1state_1_1gameelement_1_1_drawable_game_element_state.html" target="_top" xlink:title="model.state.gameelement.\lDrawableGameElementState">
<polygon fill="white" stroke="black" points="326,-49 326,-79 482,-79 482,-49 326,-49"/>
<text text-anchor="start" x="334" y="-67" font-family="Helvetica,sans-Serif" font-size="10.00">model.state.gameelement.</text>
<text text-anchor="middle" x="404" y="-56" font-family="Helvetica,sans-Serif" font-size="10.00">DrawableGameElementState</text>
</a>
</g>
</g>
<!-- Node2&#45;&gt;Node1 -->
<g id="edge1" class="edge"><title>Node2&#45;&gt;Node1</title>
<path fill="none" stroke="midnightblue" d="M492.112,-64C500.684,-64 509.356,-64 517.853,-64"/>
<polygon fill="midnightblue" stroke="midnightblue" points="492.111,-60.5001 482.111,-64 492.111,-67.5001 492.111,-60.5001"/>
</g>
<!-- Node3 -->
<g id="node3" class="node"><title>Node3</title>
<g id="a_node3"><a xlink:href="../../d7/da9/classmodel_1_1state_1_1gameelement_1_1_game_element_state.html" target="_top" xlink:title="model.state.gameelement.\lGameElementState">
<polygon fill="white" stroke="black" points="128,-98 128,-128 276,-128 276,-98 128,-98"/>
<text text-anchor="start" x="136" y="-116" font-family="Helvetica,sans-Serif" font-size="10.00">model.state.gameelement.</text>
<text text-anchor="middle" x="202" y="-105" font-family="Helvetica,sans-Serif" font-size="10.00">GameElementState</text>
</a>
</g>
</g>
<!-- Node3&#45;&gt;Node2 -->
<g id="edge2" class="edge"><title>Node3&#45;&gt;Node2</title>
<path fill="none" stroke="midnightblue" d="M274.334,-95.5232C296.378,-90.1225 320.451,-84.2245 341.75,-79.0062"/>
<polygon fill="midnightblue" stroke="midnightblue" points="273.246,-92.1862 264.366,-97.9654 274.911,-98.9851 273.246,-92.1862"/>
</g>
<!-- Node4 -->
<g id="node4" class="node"><title>Node4</title>
<g id="a_node4"><a xlink:href="../../df/d74/interfaceutil_1_1_j_s_o_nable.html" target="_top" xlink:title="util.JSONable">
<polygon fill="white" stroke="black" points="0,-122.5 0,-141.5 78,-141.5 78,-122.5 0,-122.5"/>
<text text-anchor="middle" x="39" y="-129.5" font-family="Helvetica,sans-Serif" font-size="10.00">util.JSONable</text>
</a>
</g>
</g>
<!-- Node4&#45;&gt;Node3 -->
<g id="edge3" class="edge"><title>Node4&#45;&gt;Node3</title>
<path fill="none" stroke="midnightblue" d="M88.2729,-126.303C100.701,-124.837 114.357,-123.225 127.743,-121.645"/>
<polygon fill="midnightblue" stroke="midnightblue" points="87.6756,-122.849 78.1548,-127.497 88.4961,-129.801 87.6756,-122.849"/>
</g>
<!-- Node5 -->
<g id="node5" class="node"><title>Node5</title>
<polygon fill="white" stroke="#bfbfbf" points="3.5,-84.5 3.5,-103.5 74.5,-103.5 74.5,-84.5 3.5,-84.5"/>
<text text-anchor="middle" x="39" y="-91.5" font-family="Helvetica,sans-Serif" font-size="10.00">Serializable</text>
</g>
<!-- Node5&#45;&gt;Node3 -->
<g id="edge4" class="edge"><title>Node5&#45;&gt;Node3</title>
<path fill="none" stroke="midnightblue" d="M84.8456,-99.2923C98.1818,-100.866 113.154,-102.633 127.801,-104.362"/>
<polygon fill="midnightblue" stroke="midnightblue" points="84.8799,-95.7722 74.5385,-98.076 84.0594,-102.724 84.8799,-95.7722"/>
</g>
<!-- Node6 -->
<g id="node6" class="node"><title>Node6</title>
<g id="a_node6"><a xlink:href="../../d6/def/interfacemodel_1_1state_1_1gameelement_1_1traits_1_1_boundable.html" target="_top" xlink:title="model.state.gameelement.traits.\lBoundable">
<polygon fill="white" stroke="black" points="114,-49 114,-79 290,-79 290,-49 114,-49"/>
<text text-anchor="start" x="122" y="-67" font-family="Helvetica,sans-Serif" font-size="10.00">model.state.gameelement.traits.</text>
<text text-anchor="middle" x="202" y="-56" font-family="Helvetica,sans-Serif" font-size="10.00">Boundable</text>
</a>
</g>
</g>
<!-- Node6&#45;&gt;Node2 -->
<g id="edge5" class="edge"><title>Node6&#45;&gt;Node2</title>
<path fill="none" stroke="midnightblue" d="M300.221,-64C308.831,-64 317.469,-64 325.878,-64"/>
<polygon fill="midnightblue" stroke="midnightblue" points="300.141,-60.5001 290.141,-64 300.141,-67.5001 300.141,-60.5001"/>
</g>
<!-- Node7 -->
<g id="node7" class="node"><title>Node7</title>
<g id="a_node7"><a xlink:href="../../d0/d9d/interfacemodel_1_1state_1_1gameelement_1_1traits_1_1_sighted.html" target="_top" xlink:title="model.state.gameelement.traits.\lSighted">
<polygon fill="white" stroke="black" points="114,-0 114,-30 290,-30 290,-0 114,-0"/>
<text text-anchor="start" x="122" y="-18" font-family="Helvetica,sans-Serif" font-size="10.00">model.state.gameelement.traits.</text>
<text text-anchor="middle" x="202" y="-7" font-family="Helvetica,sans-Serif" font-size="10.00">Sighted</text>
</a>
</g>
</g>
<!-- Node7&#45;&gt;Node2 -->
<g id="edge6" class="edge"><title>Node7&#45;&gt;Node2</title>
<path fill="none" stroke="midnightblue" d="M274.334,-32.4768C296.378,-37.8775 320.451,-43.7755 341.75,-48.9938"/>
<polygon fill="midnightblue" stroke="midnightblue" points="274.911,-29.0149 264.366,-30.0346 273.246,-35.8138 274.911,-29.0149"/>
</g>
</g>
</svg>
