<?xml version="1.0" encoding="UTF-8" standalone="no"?>
<!DOCTYPE svg PUBLIC "-//W3C//DTD SVG 1.1//EN"
 "http://www.w3.org/Graphics/SVG/1.1/DTD/svg11.dtd">
<!-- Generated by graphviz version 2.36.0 (20140111.2315)
 -->
<!-- Title: game_engine.gameRepresentation.stateRepresentation.gameElement.traits.Sighted Pages: 1 -->
<svg width="484pt" height="48pt"
 viewBox="0.00 0.00 484.00 48.00" xmlns="http://www.w3.org/2000/svg" xmlns:xlink="http://www.w3.org/1999/xlink">
<g id="graph0" class="graph" transform="scale(1 1) rotate(0) translate(4 44)">
<title>game_engine.gameRepresentation.stateRepresentation.gameElement.traits.Sighted</title>
<polygon fill="white" stroke="none" points="-4,4 -4,-44 480,-44 480,4 -4,4"/>
<!-- Node1 -->
<g id="node1" class="node"><title>Node1</title>
<polygon fill="#bfbfbf" stroke="black" points="0.5,-5 0.5,-35 227.5,-35 227.5,-5 0.5,-5"/>
<text text-anchor="start" x="8.5" y="-23" font-family="Helvetica,sans-Serif" font-size="10.00">game_engine.gameRepresentation.state</text>
<text text-anchor="middle" x="114" y="-12" font-family="Helvetica,sans-Serif" font-size="10.00">Representation.gameElement.traits.Sighted</text>
</g>
<!-- Node2 -->
<g id="node2" class="node"><title>Node2</title>
<g id="a_node2"><a xlink:href="../../d8/d0a/classgame__engine_1_1game_representation_1_1state_representation_1_1game_element_1_1_selectable_game_element_state.html" target="_top" xlink:title="game_engine.gameRepresentation.state\lRepresentation.gameElement.Selectable\lGameElementState">
<polygon fill="white" stroke="black" points="264,0.5 264,-40.5 476,-40.5 476,0.5 264,0.5"/>
<text text-anchor="start" x="272" y="-28.5" font-family="Helvetica,sans-Serif" font-size="10.00">game_engine.gameRepresentation.state</text>
<text text-anchor="start" x="272" y="-17.5" font-family="Helvetica,sans-Serif" font-size="10.00">Representation.gameElement.Selectable</text>
<text text-anchor="middle" x="370" y="-6.5" font-family="Helvetica,sans-Serif" font-size="10.00">GameElementState</text>
</a>
</g>
</g>
<!-- Node1&#45;&gt;Node2 -->
<g id="edge1" class="edge"><title>Node1&#45;&gt;Node2</title>
<path fill="none" stroke="midnightblue" d="M237.738,-20C246.463,-20 255.216,-20 263.83,-20"/>
<polygon fill="midnightblue" stroke="midnightblue" points="237.517,-16.5001 227.517,-20 237.517,-23.5001 237.517,-16.5001"/>
</g>
</g>
</svg>
