<?xml version="1.0" encoding="UTF-8" standalone="no"?>
<!DOCTYPE svg PUBLIC "-//W3C//DTD SVG 1.1//EN"
 "http://www.w3.org/Graphics/SVG/1.1/DTD/svg11.dtd">
<!-- Generated by graphviz version 2.36.0 (20140111.2315)
 -->
<!-- Title: game_engine.visuals.UI.ClickManager.isPrimary Pages: 1 -->
<svg width="764pt" height="38pt"
 viewBox="0.00 0.00 764.00 38.00" xmlns="http://www.w3.org/2000/svg" xmlns:xlink="http://www.w3.org/1999/xlink">
<g id="graph0" class="graph" transform="scale(1 1) rotate(0) translate(4 34)">
<title>game_engine.visuals.UI.ClickManager.isPrimary</title>
<polygon fill="white" stroke="none" points="-4,4 -4,-34 760,-34 760,4 -4,4"/>
<!-- Node1 -->
<g id="node1" class="node"><title>Node1</title>
<polygon fill="#bfbfbf" stroke="black" points="0.5,-0 0.5,-30 155.5,-30 155.5,-0 0.5,-0"/>
<text text-anchor="start" x="8.5" y="-18" font-family="Helvetica,sans-Serif" font-size="10.00">game_engine.visuals.UI.Click</text>
<text text-anchor="middle" x="78" y="-7" font-family="Helvetica,sans-Serif" font-size="10.00">Manager.isPrimary</text>
</g>
<!-- Node2 -->
<g id="node2" class="node"><title>Node2</title>
<g id="a_node2"><a xlink:href="../../de/d5d/classgame__engine_1_1visuals_1_1_u_i_1_1_click_manager.html#a8d76fdb96dcc88e0e5dc233a1605c17b" target="_top" xlink:title="game_engine.visuals.UI.Click\lManager.clicked">
<polygon fill="white" stroke="black" points="192.5,-0 192.5,-30 347.5,-30 347.5,-0 192.5,-0"/>
<text text-anchor="start" x="200.5" y="-18" font-family="Helvetica,sans-Serif" font-size="10.00">game_engine.visuals.UI.Click</text>
<text text-anchor="middle" x="270" y="-7" font-family="Helvetica,sans-Serif" font-size="10.00">Manager.clicked</text>
</a>
</g>
</g>
<!-- Node1&#45;&gt;Node2 -->
<g id="edge1" class="edge"><title>Node1&#45;&gt;Node2</title>
<path fill="none" stroke="midnightblue" d="M165.978,-15C174.758,-15 183.629,-15 192.29,-15"/>
<polygon fill="midnightblue" stroke="midnightblue" points="165.733,-11.5001 155.733,-15 165.733,-18.5001 165.733,-11.5001"/>
</g>
<!-- Node3 -->
<g id="node3" class="node"><title>Node3</title>
<g id="a_node3"><a xlink:href="../../de/d18/classgame__engine_1_1visuals_1_1_scrollable_scene.html#a4b9d92052fba7caaceb3f079905d006e" target="_top" xlink:title="game_engine.visuals.Scrollable\lScene.initializeHandlers">
<polygon fill="white" stroke="black" points="384.5,-0 384.5,-30 551.5,-30 551.5,-0 384.5,-0"/>
<text text-anchor="start" x="392.5" y="-18" font-family="Helvetica,sans-Serif" font-size="10.00">game_engine.visuals.Scrollable</text>
<text text-anchor="middle" x="468" y="-7" font-family="Helvetica,sans-Serif" font-size="10.00">Scene.initializeHandlers</text>
</a>
</g>
</g>
<!-- Node2&#45;&gt;Node3 -->
<g id="edge2" class="edge"><title>Node2&#45;&gt;Node3</title>
<path fill="none" stroke="midnightblue" d="M357.857,-15C366.639,-15 375.541,-15 384.278,-15"/>
<polygon fill="midnightblue" stroke="midnightblue" points="357.621,-11.5001 347.621,-15 357.621,-18.5001 357.621,-11.5001"/>
</g>
<!-- Node4 -->
<g id="node4" class="node"><title>Node4</title>
<g id="a_node4"><a xlink:href="../../de/d18/classgame__engine_1_1visuals_1_1_scrollable_scene.html#a7ece40832b8fac4ef87045b6cc9e3e33" target="_top" xlink:title="game_engine.visuals.Scrollable\lScene.ScrollableScene">
<polygon fill="white" stroke="black" points="588.5,-0 588.5,-30 755.5,-30 755.5,-0 588.5,-0"/>
<text text-anchor="start" x="596.5" y="-18" font-family="Helvetica,sans-Serif" font-size="10.00">game_engine.visuals.Scrollable</text>
<text text-anchor="middle" x="672" y="-7" font-family="Helvetica,sans-Serif" font-size="10.00">Scene.ScrollableScene</text>
</a>
</g>
</g>
<!-- Node3&#45;&gt;Node4 -->
<g id="edge3" class="edge"><title>Node3&#45;&gt;Node4</title>
<path fill="none" stroke="midnightblue" d="M562.018,-15C570.815,-15 579.694,-15 588.385,-15"/>
<polygon fill="midnightblue" stroke="midnightblue" points="561.744,-11.5001 551.744,-15 561.744,-18.5001 561.744,-11.5001"/>
</g>
</g>
</svg>
