<?xml version="1.0" encoding="UTF-8" standalone="no"?>
<!DOCTYPE svg PUBLIC "-//W3C//DTD SVG 1.1//EN"
 "http://www.w3.org/Graphics/SVG/1.1/DTD/svg11.dtd">
<!-- Generated by graphviz version 2.36.0 (20140111.2315)
 -->
<!-- Title: game_engine.gameRepresentation.stateRepresentation.gameElement.GameElementState.setNumericalAttribute Pages: 1 -->
<!--zoomable 492 -->
<svg id="main" version="1.1" xmlns="http://www.w3.org/2000/svg" xmlns:xlink="http://www.w3.org/1999/xlink" xml:space="preserve" onload="init(evt)">
<style type="text/css"><![CDATA[
.edge:hover path { stroke: red; }
.edge:hover polygon { stroke: red; fill: red; }
]]></style>
<script type="text/javascript"><![CDATA[
var edges = document.getElementsByTagName('g');
if (edges && edges.length) {
  for (var i=0;i<edges.length;i++) {
    if (edges[i].id.substr(0,4)=='edge') {
      edges[i].setAttribute('class','edge');
    }
  }
}
]]></script>
        <defs>
                <circle id="rim" cx="0" cy="0" r="7"/>
                <circle id="rim2" cx="0" cy="0" r="3.5"/>
                <g id="zoomPlus">
                        <use xlink:href="#rim" fill="#404040">
                                <set attributeName="fill" to="#808080" begin="zoomplus.mouseover" end="zoomplus.mouseout"/>
                        </use>
                        <path d="M-4,0h8M0,-4v8" fill="none" stroke="white" stroke-width="1.5" pointer-events="none"/>
                </g>
                <g id="zoomMin">
                        <use xlink:href="#rim" fill="#404040">
                                <set attributeName="fill" to="#808080" begin="zoomminus.mouseover" end="zoomminus.mouseout"/>
                        </use>
                        <path d="M-4,0h8" fill="none" stroke="white" stroke-width="1.5" pointer-events="none"/>
                </g>
                <g id="dirArrow">
                        <path fill="none" stroke="white" stroke-width="1.5" d="M0,-3.0v7 M-2.5,-0.5L0,-3.0L2.5,-0.5"/>
                </g>
               <g id="resetDef">
                       <use xlink:href="#rim2" fill="#404040">
                               <set attributeName="fill" to="#808080" begin="reset.mouseover" end="reset.mouseout"/>
                       </use>
               </g>
        </defs>

<script type="text/javascript">
var viewWidth = 2168;
var viewHeight = 492;
var sectionId = 'dynsection-13';
</script>
<script xlink:href="../../svgpan.js"/>
<svg id="graph" class="graph">
<g id="viewport">
<title>game_engine.gameRepresentation.stateRepresentation.gameElement.GameElementState.setNumericalAttribute</title>
<polygon fill="white" stroke="none" points="-4,4 -4,-488 2164,-488 2164,4 -4,4"/>
<!-- Node1 -->
<g id="node1" class="node"><title>Node1</title>
<polygon fill="#bfbfbf" stroke="black" points="0.5,-324.5 0.5,-365.5 231.5,-365.5 231.5,-324.5 0.5,-324.5"/>
<text text-anchor="start" x="8.5" y="-353.5" font-family="Helvetica,sans-Serif" font-size="10.00">game_engine.gameRepresentation.state</text>
<text text-anchor="start" x="8.5" y="-342.5" font-family="Helvetica,sans-Serif" font-size="10.00">Representation.gameElement.GameElement</text>
<text text-anchor="middle" x="116" y="-331.5" font-family="Helvetica,sans-Serif" font-size="10.00">State.setNumericalAttribute</text>
</g>
<!-- Node2 -->
<g id="node2" class="node"><title>Node2</title>
<g id="a_node2"><a xlink:href="../../db/dca/classgamemodel_1_1_game_element_state_factory.html#acf405e34a91de5c2e41557ac7dcc6a0f" target="_top" xlink:title="gamemodel.GameElementState\lFactory.addEssentials">
<polygon fill="white" stroke="black" points="297.5,-423 297.5,-453 470.5,-453 470.5,-423 297.5,-423"/>
<text text-anchor="start" x="305.5" y="-441" font-family="Helvetica,sans-Serif" font-size="10.00">gamemodel.GameElementState</text>
<text text-anchor="middle" x="384" y="-430" font-family="Helvetica,sans-Serif" font-size="10.00">Factory.addEssentials</text>
</a>
</g>
</g>
<!-- Node1&#45;&gt;Node2 -->
<g id="edge1" class="edge"><title>Node1&#45;&gt;Node2</title>
<path fill="none" stroke="midnightblue" d="M165.586,-370.013C194.69,-384.197 232.768,-401.379 268,-413 279.254,-416.712 291.312,-420.025 303.231,-422.93"/>
<polygon fill="midnightblue" stroke="midnightblue" points="166.985,-366.8 156.467,-365.523 163.893,-373.08 166.985,-366.8"/>
</g>
<!-- Node12 -->
<g id="node12" class="node"><title>Node12</title>
<g id="a_node12"><a xlink:href="../../d1/dcc/classapplication_1_1_shitty_main.html#ab7655063be70764ab009ff94f203cea5" target="_top" xlink:title="application.ShittyMain.create\lArcher">
<polygon fill="white" stroke="black" points="306.5,-374 306.5,-404 461.5,-404 461.5,-374 306.5,-374"/>
<text text-anchor="start" x="314.5" y="-392" font-family="Helvetica,sans-Serif" font-size="10.00">application.ShittyMain.create</text>
<text text-anchor="middle" x="384" y="-381" font-family="Helvetica,sans-Serif" font-size="10.00">Archer</text>
</a>
</g>
</g>
<!-- Node1&#45;&gt;Node12 -->
<g id="edge12" class="edge"><title>Node1&#45;&gt;Node12</title>
<path fill="none" stroke="midnightblue" d="M241.805,-365.644C263.78,-369.279 286.054,-372.964 306.216,-376.299"/>
<polygon fill="midnightblue" stroke="midnightblue" points="242.175,-362.158 231.738,-363.979 241.033,-369.064 242.175,-362.158"/>
</g>
<!-- Node13 -->
<g id="node13" class="node"><title>Node13</title>
<g id="a_node13"><a xlink:href="../../d1/dcc/classapplication_1_1_shitty_main.html#a2421ffa1f3b59fae50faa3fb14704767" target="_top" xlink:title="application.ShittyMain.hard\lCodeAGame">
<polygon fill="white" stroke="black" points="595,-339 595,-369 741,-369 741,-339 595,-339"/>
<text text-anchor="start" x="603" y="-357" font-family="Helvetica,sans-Serif" font-size="10.00">application.ShittyMain.hard</text>
<text text-anchor="middle" x="668" y="-346" font-family="Helvetica,sans-Serif" font-size="10.00">CodeAGame</text>
</a>
</g>
</g>
<!-- Node1&#45;&gt;Node13 -->
<g id="edge15" class="edge"><title>Node1&#45;&gt;Node13</title>
<path fill="none" stroke="midnightblue" d="M241.704,-347.041C350.742,-348.825 505.279,-351.354 594.932,-352.821"/>
<polygon fill="midnightblue" stroke="midnightblue" points="241.685,-343.54 231.629,-346.876 241.57,-350.539 241.685,-343.54"/>
</g>
<!-- Node15 -->
<g id="node15" class="node"><title>Node15</title>
<g id="a_node15"><a xlink:href="../../da/d2b/classtest_1_1conditions_1_1_condition_functionality_test.html#a5c7c72866ca379995ae98e661cafaefa" target="_top" xlink:title="test.conditions.Condition\lFunctionalityTest.initialize">
<polygon fill="white" stroke="black" points="1161,-295 1161,-325 1297,-325 1297,-295 1161,-295"/>
<text text-anchor="start" x="1169" y="-313" font-family="Helvetica,sans-Serif" font-size="10.00">test.conditions.Condition</text>
<text text-anchor="middle" x="1229" y="-302" font-family="Helvetica,sans-Serif" font-size="10.00">FunctionalityTest.initialize</text>
</a>
</g>
</g>
<!-- Node1&#45;&gt;Node15 -->
<g id="edge16" class="edge"><title>Node1&#45;&gt;Node15</title>
<path fill="none" stroke="midnightblue" d="M241.71,-339.888C325.027,-336.558 437.071,-332.247 536,-329 765.128,-321.48 1037,-314.618 1160.71,-311.608"/>
<polygon fill="midnightblue" stroke="midnightblue" points="241.546,-336.391 231.694,-340.289 241.826,-343.386 241.546,-336.391"/>
</g>
<!-- Node16 -->
<g id="node16" class="node"><title>Node16</title>
<g id="a_node16"><a xlink:href="../../d5/d2c/classgame__engine_1_1game_representation_1_1rendered_representation_1_1_game_element.html#a843e7eda7705838d19379d22e723f77a" target="_top" xlink:title="game_engine.gameRepresentation.rendered\lRepresentation.GameElement.setNumerical\lAttribute">
<polygon fill="white" stroke="black" points="268.5,-186.5 268.5,-227.5 499.5,-227.5 499.5,-186.5 268.5,-186.5"/>
<text text-anchor="start" x="276.5" y="-215.5" font-family="Helvetica,sans-Serif" font-size="10.00">game_engine.gameRepresentation.rendered</text>
<text text-anchor="start" x="276.5" y="-204.5" font-family="Helvetica,sans-Serif" font-size="10.00">Representation.GameElement.setNumerical</text>
<text text-anchor="middle" x="384" y="-193.5" font-family="Helvetica,sans-Serif" font-size="10.00">Attribute</text>
</a>
</g>
</g>
<!-- Node1&#45;&gt;Node16 -->
<g id="edge17" class="edge"><title>Node1&#45;&gt;Node16</title>
<path fill="none" stroke="midnightblue" d="M165.719,-319.725C216.73,-293.26 295.873,-252.201 343.247,-227.624"/>
<polygon fill="midnightblue" stroke="midnightblue" points="163.8,-316.777 156.536,-324.489 167.024,-322.991 163.8,-316.777"/>
</g>
<!-- Node3 -->
<g id="node3" class="node"><title>Node3</title>
<g id="a_node3"><a xlink:href="../../db/dca/classgamemodel_1_1_game_element_state_factory.html#a2cad37bd23d0a26fa40f0a1400e45797" target="_top" xlink:title="gamemodel.GameElementState\lFactory.createGameElementState">
<polygon fill="white" stroke="black" points="578.5,-453 578.5,-483 757.5,-483 757.5,-453 578.5,-453"/>
<text text-anchor="start" x="586.5" y="-471" font-family="Helvetica,sans-Serif" font-size="10.00">gamemodel.GameElementState</text>
<text text-anchor="middle" x="668" y="-460" font-family="Helvetica,sans-Serif" font-size="10.00">Factory.createGameElementState</text>
</a>
</g>
</g>
<!-- Node2&#45;&gt;Node3 -->
<g id="edge2" class="edge"><title>Node2&#45;&gt;Node3</title>
<path fill="none" stroke="midnightblue" d="M480.864,-448.198C512.383,-451.551 547.266,-455.262 578.235,-458.557"/>
<polygon fill="midnightblue" stroke="midnightblue" points="481.072,-444.701 470.758,-447.123 480.331,-451.661 481.072,-444.701"/>
</g>
<!-- Node5 -->
<g id="node5" class="node"><title>Node5</title>
<g id="a_node5"><a xlink:href="../../db/dca/classgamemodel_1_1_game_element_state_factory.html#a1db4caf21f42b50ff0cb9babe997bafb" target="_top" xlink:title="gamemodel.GameElementState\lFactory.createDrawableGameElementState">
<polygon fill="white" stroke="black" points="556.5,-404 556.5,-434 779.5,-434 779.5,-404 556.5,-404"/>
<text text-anchor="start" x="564.5" y="-422" font-family="Helvetica,sans-Serif" font-size="10.00">gamemodel.GameElementState</text>
<text text-anchor="middle" x="668" y="-411" font-family="Helvetica,sans-Serif" font-size="10.00">Factory.createDrawableGameElementState</text>
</a>
</g>
</g>
<!-- Node2&#45;&gt;Node5 -->
<g id="edge4" class="edge"><title>Node2&#45;&gt;Node5</title>
<path fill="none" stroke="midnightblue" d="M481.016,-431.531C505.257,-429.898 531.48,-428.131 556.376,-426.453"/>
<polygon fill="midnightblue" stroke="midnightblue" points="480.5,-428.058 470.758,-432.222 480.971,-435.042 480.5,-428.058"/>
</g>
<!-- Node4 -->
<g id="node4" class="node"><title>Node4</title>
<g id="a_node4"><a xlink:href="../../da/d8d/classgamemodel_1_1_main_model.html#ab4aa75f69ec7ec4822f7b7d285ea7a55" target="_top" xlink:title="gamemodel.MainModel.create\lGameElement">
<polygon fill="white" stroke="black" points="879,-453 879,-483 1041,-483 1041,-453 879,-453"/>
<text text-anchor="start" x="887" y="-471" font-family="Helvetica,sans-Serif" font-size="10.00">gamemodel.MainModel.create</text>
<text text-anchor="middle" x="960" y="-460" font-family="Helvetica,sans-Serif" font-size="10.00">GameElement</text>
</a>
</g>
</g>
<!-- Node3&#45;&gt;Node4 -->
<g id="edge3" class="edge"><title>Node3&#45;&gt;Node4</title>
<path fill="none" stroke="midnightblue" d="M767.68,-468C803.906,-468 844.442,-468 878.844,-468"/>
<polygon fill="midnightblue" stroke="midnightblue" points="767.585,-464.5 757.585,-468 767.585,-471.5 767.585,-464.5"/>
</g>
<!-- Node6 -->
<g id="node6" class="node"><title>Node6</title>
<g id="a_node6"><a xlink:href="../../da/d8d/classgamemodel_1_1_main_model.html#ab48b88224f859ea7929254b479cce14d" target="_top" xlink:title="gamemodel.MainModel.create\lDrawableGameElement">
<polygon fill="white" stroke="black" points="879,-404 879,-434 1041,-434 1041,-404 879,-404"/>
<text text-anchor="start" x="887" y="-422" font-family="Helvetica,sans-Serif" font-size="10.00">gamemodel.MainModel.create</text>
<text text-anchor="middle" x="960" y="-411" font-family="Helvetica,sans-Serif" font-size="10.00">DrawableGameElement</text>
</a>
</g>
</g>
<!-- Node5&#45;&gt;Node6 -->
<g id="edge5" class="edge"><title>Node5&#45;&gt;Node6</title>
<path fill="none" stroke="midnightblue" d="M789.983,-419C819.964,-419 851.353,-419 878.831,-419"/>
<polygon fill="midnightblue" stroke="midnightblue" points="789.878,-415.5 779.878,-419 789.878,-422.5 789.878,-415.5"/>
</g>
<!-- Node7 -->
<g id="node7" class="node"><title>Node7</title>
<g id="a_node7"><a xlink:href="../../d4/dcd/classeditor_1_1_element_accordion_controller.html#ad10a71c849382067fbb1f4140841ab0d" target="_top" xlink:title="editor.ElementAccordionController.open\lGameElementWizard">
<polygon fill="white" stroke="black" points="1126,-404 1126,-434 1332,-434 1332,-404 1126,-404"/>
<text text-anchor="start" x="1134" y="-422" font-family="Helvetica,sans-Serif" font-size="10.00">editor.ElementAccordionController.open</text>
<text text-anchor="middle" x="1229" y="-411" font-family="Helvetica,sans-Serif" font-size="10.00">GameElementWizard</text>
</a>
</g>
</g>
<!-- Node6&#45;&gt;Node7 -->
<g id="edge6" class="edge"><title>Node6&#45;&gt;Node7</title>
<path fill="none" stroke="midnightblue" d="M1051.22,-419C1075.14,-419 1101.14,-419 1125.65,-419"/>
<polygon fill="midnightblue" stroke="midnightblue" points="1051.11,-415.5 1041.11,-419 1051.11,-422.5 1051.11,-415.5"/>
</g>
<!-- Node8 -->
<g id="node8" class="node"><title>Node8</title>
<g id="a_node8"><a xlink:href="../../d4/dcd/classeditor_1_1_element_accordion_controller.html#a57a1b43f70896bbf2e27373594ba8810" target="_top" xlink:title="editor.ElementAccordionController.update\lItems">
<polygon fill="white" stroke="black" points="1374,-404 1374,-434 1590,-434 1590,-404 1374,-404"/>
<text text-anchor="start" x="1382" y="-422" font-family="Helvetica,sans-Serif" font-size="10.00">editor.ElementAccordionController.update</text>
<text text-anchor="middle" x="1482" y="-411" font-family="Helvetica,sans-Serif" font-size="10.00">Items</text>
</a>
</g>
</g>
<!-- Node7&#45;&gt;Node8 -->
<g id="edge7" class="edge"><title>Node7&#45;&gt;Node8</title>
<path fill="none" stroke="midnightblue" d="M1342.11,-419C1352.61,-419 1363.23,-419 1373.69,-419"/>
<polygon fill="midnightblue" stroke="midnightblue" points="1342.09,-415.5 1332.09,-419 1342.09,-422.5 1342.09,-415.5"/>
</g>
<!-- Node9 -->
<g id="node9" class="node"><title>Node9</title>
<g id="a_node9"><a xlink:href="../../dc/d5c/classeditor_1_1_editor_screen.html#a575ccd70c0dcc7565df86cc590de47ba" target="_top" xlink:title="editor.EditorScreen.update\lAccordion">
<polygon fill="white" stroke="black" points="1633.5,-404 1633.5,-434 1778.5,-434 1778.5,-404 1633.5,-404"/>
<text text-anchor="start" x="1641.5" y="-422" font-family="Helvetica,sans-Serif" font-size="10.00">editor.EditorScreen.update</text>
<text text-anchor="middle" x="1706" y="-411" font-family="Helvetica,sans-Serif" font-size="10.00">Accordion</text>
</a>
</g>
</g>
<!-- Node8&#45;&gt;Node9 -->
<g id="edge8" class="edge"><title>Node8&#45;&gt;Node9</title>
<path fill="none" stroke="midnightblue" d="M1600.39,-419C1611.59,-419 1622.69,-419 1633.26,-419"/>
<polygon fill="midnightblue" stroke="midnightblue" points="1600.1,-415.5 1590.1,-419 1600.1,-422.5 1600.1,-415.5"/>
</g>
<!-- Node10 -->
<g id="node10" class="node"><title>Node10</title>
<g id="a_node10"><a xlink:href="../../dc/d5c/classeditor_1_1_editor_screen.html#ae17f78235329632f2090fdfb7b358a66" target="_top" xlink:title="editor.EditorScreen.update">
<polygon fill="white" stroke="black" points="1826.5,-409.5 1826.5,-428.5 1971.5,-428.5 1971.5,-409.5 1826.5,-409.5"/>
<text text-anchor="middle" x="1899" y="-416.5" font-family="Helvetica,sans-Serif" font-size="10.00">editor.EditorScreen.update</text>
</a>
</g>
</g>
<!-- Node9&#45;&gt;Node10 -->
<g id="edge9" class="edge"><title>Node9&#45;&gt;Node10</title>
<path fill="none" stroke="midnightblue" d="M1788.99,-419C1801.38,-419 1814.09,-419 1826.25,-419"/>
<polygon fill="midnightblue" stroke="midnightblue" points="1788.66,-415.5 1778.66,-419 1788.66,-422.5 1788.66,-415.5"/>
</g>
<!-- Node11 -->
<g id="node11" class="node"><title>Node11</title>
<g id="a_node11"><a xlink:href="../../dc/d5c/classeditor_1_1_editor_screen.html#a13378a8f469be9b38ba16457a64b7e9a" target="_top" xlink:title="editor.EditorScreen.update\lTabViewControllers">
<polygon fill="white" stroke="black" points="2013.5,-404 2013.5,-434 2158.5,-434 2158.5,-404 2013.5,-404"/>
<text text-anchor="start" x="2021.5" y="-422" font-family="Helvetica,sans-Serif" font-size="10.00">editor.EditorScreen.update</text>
<text text-anchor="middle" x="2086" y="-411" font-family="Helvetica,sans-Serif" font-size="10.00">TabViewControllers</text>
</a>
</g>
</g>
<!-- Node10&#45;&gt;Node11 -->
<g id="edge10" class="edge"><title>Node10&#45;&gt;Node11</title>
<path fill="none" stroke="midnightblue" d="M1981.6,-412.292C1992.18,-412.21 2002.95,-412.248 2013.36,-412.405"/>
<polygon fill="midnightblue" stroke="midnightblue" points="1981.49,-408.793 1971.53,-412.407 1981.57,-415.792 1981.49,-408.793"/>
</g>
<!-- Node11&#45;&gt;Node10 -->
<g id="edge11" class="edge"><title>Node11&#45;&gt;Node10</title>
<path fill="none" stroke="midnightblue" d="M2003.29,-425.709C1992.7,-425.79 1981.93,-425.751 1971.53,-425.593"/>
<polygon fill="midnightblue" stroke="midnightblue" points="2003.4,-429.208 2013.36,-425.595 2003.32,-422.209 2003.4,-429.208"/>
</g>
<!-- Node12&#45;&gt;Node13 -->
<g id="edge13" class="edge"><title>Node12&#45;&gt;Node13</title>
<path fill="none" stroke="midnightblue" d="M471.809,-378.226C511.192,-373.338 557.227,-367.624 594.697,-362.974"/>
<polygon fill="midnightblue" stroke="midnightblue" points="471.178,-374.777 461.685,-379.482 472.04,-381.724 471.178,-374.777"/>
</g>
<!-- Node14 -->
<g id="node14" class="node"><title>Node14</title>
<g id="a_node14"><a xlink:href="../../d1/dcc/classapplication_1_1_shitty_main.html#af8b91a9a9eb3ba2c8a66baee2bed773b" target="_top" xlink:title="application.ShittyMain.start">
<polygon fill="white" stroke="black" points="2012.5,-325.5 2012.5,-344.5 2159.5,-344.5 2159.5,-325.5 2012.5,-325.5"/>
<text text-anchor="middle" x="2086" y="-332.5" font-family="Helvetica,sans-Serif" font-size="10.00">application.ShittyMain.start</text>
</a>
</g>
</g>
<!-- Node13&#45;&gt;Node14 -->
<g id="edge14" class="edge"><title>Node13&#45;&gt;Node14</title>
<path fill="none" stroke="midnightblue" d="M751.637,-354C860.725,-354 1058.77,-354 1228,-354 1228,-354 1228,-354 1707,-354 1813.28,-354 1936.16,-346.415 2012.24,-340.83"/>
<polygon fill="midnightblue" stroke="midnightblue" points="751.361,-350.5 741.361,-354 751.361,-357.5 751.361,-350.5"/>
</g>
<!-- Node17 -->
<g id="node17" class="node"><title>Node17</title>
<g id="a_node17"><a xlink:href="../../df/de2/classgame__engine_1_1game_representation_1_1rendered_representation_1_1_selectable_game_element.html#a83accf7dc9be7114569f6c916c6aed5a" target="_top" xlink:title="game_engine.gameRepresentation.rendered\lRepresentation.SelectableGameElement.move">
<polygon fill="white" stroke="black" points="547.5,-246 547.5,-276 788.5,-276 788.5,-246 547.5,-246"/>
<text text-anchor="start" x="555.5" y="-264" font-family="Helvetica,sans-Serif" font-size="10.00">game_engine.gameRepresentation.rendered</text>
<text text-anchor="middle" x="668" y="-253" font-family="Helvetica,sans-Serif" font-size="10.00">Representation.SelectableGameElement.move</text>
</a>
</g>
</g>
<!-- Node16&#45;&gt;Node17 -->
<g id="edge18" class="edge"><title>Node16&#45;&gt;Node17</title>
<path fill="none" stroke="midnightblue" d="M501.931,-229.471C513.442,-231.679 524.948,-233.884 536,-236 552.828,-239.222 570.873,-242.67 588.026,-245.944"/>
<polygon fill="midnightblue" stroke="midnightblue" points="502.305,-225.979 491.825,-227.532 500.987,-232.854 502.305,-225.979"/>
</g>
<!-- Node19 -->
<g id="node19" class="node"><title>Node19</title>
<g id="a_node19"><a xlink:href="../../df/de2/classgame__engine_1_1game_representation_1_1rendered_representation_1_1_selectable_game_element.html#a48be37d089084289c06e5f054debaaa5" target="_top" xlink:title="game_engine.gameRepresentation.rendered\lRepresentation.SelectableGameElement.Selectable\lGameElement">
<polygon fill="white" stroke="black" points="536,-186.5 536,-227.5 800,-227.5 800,-186.5 536,-186.5"/>
<text text-anchor="start" x="544" y="-215.5" font-family="Helvetica,sans-Serif" font-size="10.00">game_engine.gameRepresentation.rendered</text>
<text text-anchor="start" x="544" y="-204.5" font-family="Helvetica,sans-Serif" font-size="10.00">Representation.SelectableGameElement.Selectable</text>
<text text-anchor="middle" x="668" y="-193.5" font-family="Helvetica,sans-Serif" font-size="10.00">GameElement</text>
</a>
</g>
</g>
<!-- Node16&#45;&gt;Node19 -->
<g id="edge20" class="edge"><title>Node16&#45;&gt;Node19</title>
<path fill="none" stroke="midnightblue" d="M509.789,-207C518.423,-207 527.138,-207 535.804,-207"/>
<polygon fill="midnightblue" stroke="midnightblue" points="509.7,-203.5 499.7,-207 509.7,-210.5 509.7,-203.5"/>
</g>
<!-- Node20 -->
<g id="node20" class="node"><title>Node20</title>
<g id="a_node20"><a xlink:href="../../d5/d2c/classgame__engine_1_1game_representation_1_1rendered_representation_1_1_game_element.html#a4c729f788ee387452811a2eb10516a09" target="_top" xlink:title="game_engine.gameRepresentation.rendered\lRepresentation.GameElement.setPosition">
<polygon fill="white" stroke="black" points="552.5,-138 552.5,-168 783.5,-168 783.5,-138 552.5,-138"/>
<text text-anchor="start" x="560.5" y="-156" font-family="Helvetica,sans-Serif" font-size="10.00">game_engine.gameRepresentation.rendered</text>
<text text-anchor="middle" x="668" y="-145" font-family="Helvetica,sans-Serif" font-size="10.00">Representation.GameElement.setPosition</text>
</a>
</g>
</g>
<!-- Node16&#45;&gt;Node20 -->
<g id="edge21" class="edge"><title>Node16&#45;&gt;Node20</title>
<path fill="none" stroke="midnightblue" d="M497.261,-184.504C510.317,-181.944 523.448,-179.397 536,-177 551.444,-174.051 567.926,-170.976 583.805,-168.049"/>
<polygon fill="midnightblue" stroke="midnightblue" points="496.441,-181.098 487.303,-186.46 497.791,-187.966 496.441,-181.098"/>
</g>
<!-- Node36 -->
<g id="node36" class="node"><title>Node36</title>
<g id="a_node36"><a xlink:href="../../da/d2b/classtest_1_1conditions_1_1_condition_functionality_test.html#ab084e4bd4d13a933eeb78263e1745c73" target="_top" xlink:title="test.conditions.Condition\lFunctionalityTest.testCollisions">
<polygon fill="white" stroke="black" points="587.5,-89 587.5,-119 748.5,-119 748.5,-89 587.5,-89"/>
<text text-anchor="start" x="595.5" y="-107" font-family="Helvetica,sans-Serif" font-size="10.00">test.conditions.Condition</text>
<text text-anchor="middle" x="668" y="-96" font-family="Helvetica,sans-Serif" font-size="10.00">FunctionalityTest.testCollisions</text>
</a>
</g>
</g>
<!-- Node16&#45;&gt;Node36 -->
<g id="edge42" class="edge"><title>Node16&#45;&gt;Node36</title>
<path fill="none" stroke="midnightblue" d="M426.067,-181.181C455.607,-163.708 496.958,-141.443 536,-128 552.287,-122.392 570.189,-118.015 587.387,-114.629"/>
<polygon fill="midnightblue" stroke="midnightblue" points="424.076,-178.294 417.295,-186.434 427.672,-184.299 424.076,-178.294"/>
</g>
<!-- Node18 -->
<g id="node18" class="node"><title>Node18</title>
<g id="a_node18"><a xlink:href="../../df/de2/classgame__engine_1_1game_representation_1_1rendered_representation_1_1_selectable_game_element.html#a47272e0beb372831322a4074210eb7ea" target="_top" xlink:title="game_engine.gameRepresentation.rendered\lRepresentation.SelectableGameElement.update">
<polygon fill="white" stroke="black" points="836,-246 836,-276 1084,-276 1084,-246 836,-246"/>
<text text-anchor="start" x="844" y="-264" font-family="Helvetica,sans-Serif" font-size="10.00">game_engine.gameRepresentation.rendered</text>
<text text-anchor="middle" x="960" y="-253" font-family="Helvetica,sans-Serif" font-size="10.00">Representation.SelectableGameElement.update</text>
</a>
</g>
</g>
<!-- Node17&#45;&gt;Node18 -->
<g id="edge19" class="edge"><title>Node17&#45;&gt;Node18</title>
<path fill="none" stroke="midnightblue" d="M798.918,-261C811.217,-261 823.663,-261 835.896,-261"/>
<polygon fill="midnightblue" stroke="midnightblue" points="798.628,-257.5 788.628,-261 798.628,-264.5 798.628,-257.5"/>
</g>
<!-- Node21 -->
<g id="node21" class="node"><title>Node21</title>
<g id="a_node21"><a xlink:href="../../dd/d79/classgame__engine_1_1element_factories_1_1_game_element_factory.html#a18295092803293cea5a1ac21b4831146" target="_top" xlink:title="game_engine.elementFactories.\lGameElementFactory.createDrawable\lGameElement">
<polygon fill="white" stroke="black" points="861.5,-183.5 861.5,-224.5 1058.5,-224.5 1058.5,-183.5 861.5,-183.5"/>
<text text-anchor="start" x="869.5" y="-212.5" font-family="Helvetica,sans-Serif" font-size="10.00">game_engine.elementFactories.</text>
<text text-anchor="start" x="869.5" y="-201.5" font-family="Helvetica,sans-Serif" font-size="10.00">GameElementFactory.createDrawable</text>
<text text-anchor="middle" x="960" y="-190.5" font-family="Helvetica,sans-Serif" font-size="10.00">GameElement</text>
</a>
</g>
</g>
<!-- Node20&#45;&gt;Node21 -->
<g id="edge22" class="edge"><title>Node20&#45;&gt;Node21</title>
<path fill="none" stroke="midnightblue" d="M764.419,-169.781C795.551,-175.256 830.15,-181.34 861.438,-186.843"/>
<polygon fill="midnightblue" stroke="midnightblue" points="764.896,-166.311 754.441,-168.026 763.684,-173.205 764.896,-166.311"/>
</g>
<!-- Node30 -->
<g id="node30" class="node"><title>Node30</title>
<g id="a_node30"><a xlink:href="../../dd/d79/classgame__engine_1_1element_factories_1_1_game_element_factory.html#a1553b66e4a687862e6ebd7c20bfed46f" target="_top" xlink:title="game_engine.elementFactories.\lGameElementFactory.createGameElement">
<polygon fill="white" stroke="black" points="849.5,-133 849.5,-163 1070.5,-163 1070.5,-133 849.5,-133"/>
<text text-anchor="start" x="857.5" y="-151" font-family="Helvetica,sans-Serif" font-size="10.00">game_engine.elementFactories.</text>
<text text-anchor="middle" x="960" y="-140" font-family="Helvetica,sans-Serif" font-size="10.00">GameElementFactory.createGameElement</text>
</a>
</g>
</g>
<!-- Node20&#45;&gt;Node30 -->
<g id="edge33" class="edge"><title>Node20&#45;&gt;Node30</title>
<path fill="none" stroke="midnightblue" d="M793.845,-150.848C812.353,-150.528 831.309,-150.202 849.473,-149.888"/>
<polygon fill="midnightblue" stroke="midnightblue" points="793.554,-147.352 783.616,-151.024 793.675,-154.351 793.554,-147.352"/>
</g>
<!-- Node33 -->
<g id="node33" class="node"><title>Node33</title>
<g id="a_node33"><a xlink:href="../../dd/d79/classgame__engine_1_1element_factories_1_1_game_element_factory.html#af3fd57100033ec141413c167580c6bd8" target="_top" xlink:title="game_engine.elementFactories.\lGameElementFactory.createSelectable\lGameElement">
<polygon fill="white" stroke="black" points="858.5,-24.5 858.5,-65.5 1061.5,-65.5 1061.5,-24.5 858.5,-24.5"/>
<text text-anchor="start" x="866.5" y="-53.5" font-family="Helvetica,sans-Serif" font-size="10.00">game_engine.elementFactories.</text>
<text text-anchor="start" x="866.5" y="-42.5" font-family="Helvetica,sans-Serif" font-size="10.00">GameElementFactory.createSelectable</text>
<text text-anchor="middle" x="960" y="-31.5" font-family="Helvetica,sans-Serif" font-size="10.00">GameElement</text>
</a>
</g>
</g>
<!-- Node20&#45;&gt;Node33 -->
<g id="edge37" class="edge"><title>Node20&#45;&gt;Node33</title>
<path fill="none" stroke="midnightblue" d="M775.308,-135.467C783.743,-133.243 792.063,-130.762 800,-128 846.026,-111.986 895.2,-84.5325 926.472,-65.6111"/>
<polygon fill="midnightblue" stroke="midnightblue" points="774.217,-132.133 765.37,-137.963 775.921,-138.922 774.217,-132.133"/>
</g>
<!-- Node21&#45;&gt;Node15 -->
<g id="edge32" class="edge"><title>Node21&#45;&gt;Node15</title>
<path fill="none" stroke="midnightblue" d="M1068.21,-226.914C1073.72,-229.612 1079.03,-232.629 1084,-236 1106.37,-251.166 1097.43,-270.138 1120,-285 1132.14,-292.991 1146.51,-298.443 1160.74,-302.159"/>
<polygon fill="midnightblue" stroke="midnightblue" points="1069.32,-223.574 1058.76,-222.666 1066.45,-229.958 1069.32,-223.574"/>
</g>
<!-- Node22 -->
<g id="node22" class="node"><title>Node22</title>
<g id="a_node22"><a xlink:href="../../dd/de3/classgame__engine_1_1state_managing_1_1_game_element_manager.html#a6a2d12d1a0d3d1eea9eb2b79d7d2d6e4" target="_top" xlink:title="game_engine.stateManaging.\lGameElementManager.addDrawable\lGameElementToLevel">
<polygon fill="white" stroke="black" points="1133,-235.5 1133,-276.5 1325,-276.5 1325,-235.5 1133,-235.5"/>
<text text-anchor="start" x="1141" y="-264.5" font-family="Helvetica,sans-Serif" font-size="10.00">game_engine.stateManaging.</text>
<text text-anchor="start" x="1141" y="-253.5" font-family="Helvetica,sans-Serif" font-size="10.00">GameElementManager.addDrawable</text>
<text text-anchor="middle" x="1229" y="-242.5" font-family="Helvetica,sans-Serif" font-size="10.00">GameElementToLevel</text>
</a>
</g>
</g>
<!-- Node21&#45;&gt;Node22 -->
<g id="edge23" class="edge"><title>Node21&#45;&gt;Node22</title>
<path fill="none" stroke="midnightblue" d="M1068.57,-224.951C1089.88,-229.101 1112.11,-233.43 1132.97,-237.492"/>
<polygon fill="midnightblue" stroke="midnightblue" points="1069.01,-221.47 1058.53,-222.994 1067.67,-228.341 1069.01,-221.47"/>
</g>
<!-- Node23 -->
<g id="node23" class="node"><title>Node23</title>
<g id="a_node23"><a xlink:href="../../d6/dcb/classgame__engine_1_1element_factories_1_1_level_factory.html#a6fa3a71d393688c1877d43592e208bfd" target="_top" xlink:title="game_engine.elementFactories.\lLevelFactory.generateTerrainElements">
<polygon fill="white" stroke="black" points="1130.5,-187 1130.5,-217 1327.5,-217 1327.5,-187 1130.5,-187"/>
<text text-anchor="start" x="1138.5" y="-205" font-family="Helvetica,sans-Serif" font-size="10.00">game_engine.elementFactories.</text>
<text text-anchor="middle" x="1229" y="-194" font-family="Helvetica,sans-Serif" font-size="10.00">LevelFactory.generateTerrainElements</text>
</a>
</g>
</g>
<!-- Node21&#45;&gt;Node23 -->
<g id="edge24" class="edge"><title>Node21&#45;&gt;Node23</title>
<path fill="none" stroke="midnightblue" d="M1068.76,-203.193C1089.1,-203.04 1110.28,-202.882 1130.29,-202.732"/>
<polygon fill="midnightblue" stroke="midnightblue" points="1068.5,-199.695 1058.53,-203.269 1068.55,-206.694 1068.5,-199.695"/>
</g>
<!-- Node24 -->
<g id="node24" class="node"><title>Node24</title>
<g id="a_node24"><a xlink:href="../../d6/dcb/classgame__engine_1_1element_factories_1_1_level_factory.html#a7acb6c6aec6cc26a07124942af2efadc" target="_top" xlink:title="game_engine.elementFactories.\lLevelFactory.createLevel">
<polygon fill="white" stroke="black" points="1397,-79 1397,-109 1567,-109 1567,-79 1397,-79"/>
<text text-anchor="start" x="1405" y="-97" font-family="Helvetica,sans-Serif" font-size="10.00">game_engine.elementFactories.</text>
<text text-anchor="middle" x="1482" y="-86" font-family="Helvetica,sans-Serif" font-size="10.00">LevelFactory.createLevel</text>
</a>
</g>
</g>
<!-- Node23&#45;&gt;Node24 -->
<g id="edge25" class="edge"><title>Node23&#45;&gt;Node24</title>
<path fill="none" stroke="midnightblue" d="M1317.47,-184.128C1324.5,-181.976 1331.42,-179.604 1338,-177 1383.91,-158.839 1432.68,-127.614 1459.74,-109.078"/>
<polygon fill="midnightblue" stroke="midnightblue" points="1316.47,-180.774 1307.85,-186.929 1318.43,-187.495 1316.47,-180.774"/>
</g>
<!-- Node25 -->
<g id="node25" class="node"><title>Node25</title>
<g id="a_node25"><a xlink:href="../../dd/de3/classgame__engine_1_1state_managing_1_1_game_element_manager.html#a57d7eca6f7e470da027067ad2d4a249a" target="_top" xlink:title="game_engine.stateManaging.\lGameElementManager.main">
<polygon fill="white" stroke="black" points="1626.5,-18 1626.5,-48 1785.5,-48 1785.5,-18 1626.5,-18"/>
<text text-anchor="start" x="1634.5" y="-36" font-family="Helvetica,sans-Serif" font-size="10.00">game_engine.stateManaging.</text>
<text text-anchor="middle" x="1706" y="-25" font-family="Helvetica,sans-Serif" font-size="10.00">GameElementManager.main</text>
</a>
</g>
</g>
<!-- Node24&#45;&gt;Node25 -->
<g id="edge26" class="edge"><title>Node24&#45;&gt;Node25</title>
<path fill="none" stroke="midnightblue" d="M1547.47,-76.2842C1580.04,-67.3347 1619.14,-56.5922 1650.23,-48.0482"/>
<polygon fill="midnightblue" stroke="midnightblue" points="1546.31,-72.9751 1537.59,-78.9996 1548.16,-79.7249 1546.31,-72.9751"/>
</g>
<!-- Node26 -->
<g id="node26" class="node"><title>Node26</title>
<g id="a_node26"><a xlink:href="../../d1/d3a/classgame__engine_1_1_engine.html#a33096e19a0dd6c4541ade6bdfcf092c4" target="_top" xlink:title="game_engine.Engine.select\lLevel">
<polygon fill="white" stroke="black" points="1631.5,-128 1631.5,-158 1780.5,-158 1780.5,-128 1631.5,-128"/>
<text text-anchor="start" x="1639.5" y="-146" font-family="Helvetica,sans-Serif" font-size="10.00">game_engine.Engine.select</text>
<text text-anchor="middle" x="1706" y="-135" font-family="Helvetica,sans-Serif" font-size="10.00">Level</text>
</a>
</g>
</g>
<!-- Node24&#45;&gt;Node26 -->
<g id="edge27" class="edge"><title>Node24&#45;&gt;Node26</title>
<path fill="none" stroke="midnightblue" d="M1561.19,-111.258C1585.93,-116.718 1613.05,-122.705 1637.01,-127.994"/>
<polygon fill="midnightblue" stroke="midnightblue" points="1561.64,-107.772 1551.12,-109.035 1560.13,-114.608 1561.64,-107.772"/>
</g>
<!-- Node27 -->
<g id="node27" class="node"><title>Node27</title>
<g id="a_node27"><a xlink:href="../../d1/d3a/classgame__engine_1_1_engine.html#ae864f59e5ead7ef5b675a70ed813e75f" target="_top" xlink:title="game_engine.Engine.update\lGameLoop">
<polygon fill="white" stroke="black" points="1629,-79 1629,-109 1783,-109 1783,-79 1629,-79"/>
<text text-anchor="start" x="1637" y="-97" font-family="Helvetica,sans-Serif" font-size="10.00">game_engine.Engine.update</text>
<text text-anchor="middle" x="1706" y="-86" font-family="Helvetica,sans-Serif" font-size="10.00">GameLoop</text>
</a>
</g>
</g>
<!-- Node24&#45;&gt;Node27 -->
<g id="edge28" class="edge"><title>Node24&#45;&gt;Node27</title>
<path fill="none" stroke="midnightblue" d="M1577.3,-94C1594.49,-94 1612.24,-94 1628.83,-94"/>
<polygon fill="midnightblue" stroke="midnightblue" points="1577.25,-90.5001 1567.25,-94 1577.25,-97.5001 1577.25,-90.5001"/>
</g>
<!-- Node28 -->
<g id="node28" class="node"><title>Node28</title>
<g id="a_node28"><a xlink:href="../../d1/d3a/classgame__engine_1_1_engine.html#a66b9572272f4556e51893ee93c719196" target="_top" xlink:title="game_engine.Engine.play">
<polygon fill="white" stroke="black" points="1829,-214.5 1829,-233.5 1969,-233.5 1969,-214.5 1829,-214.5"/>
<text text-anchor="middle" x="1899" y="-221.5" font-family="Helvetica,sans-Serif" font-size="10.00">game_engine.Engine.play</text>
</a>
</g>
</g>
<!-- Node27&#45;&gt;Node28 -->
<g id="edge29" class="edge"><title>Node27&#45;&gt;Node28</title>
<path fill="none" stroke="midnightblue" d="M1776.62,-113.104C1779.85,-114.625 1783,-116.255 1786,-118 1831.83,-144.633 1873.77,-193.478 1890.42,-214.244"/>
<polygon fill="midnightblue" stroke="midnightblue" points="1777.91,-109.847 1767.34,-109.102 1775.14,-116.275 1777.91,-109.847"/>
</g>
<!-- Node29 -->
<g id="node29" class="node"><title>Node29</title>
<g id="a_node29"><a xlink:href="../../d1/d3a/classgame__engine_1_1_engine.html#aae1f63d0e4f4a2a5c36e886c658b6656" target="_top" xlink:title="game_engine.Engine.update">
<polygon fill="white" stroke="black" points="1822,-84.5 1822,-103.5 1976,-103.5 1976,-84.5 1822,-84.5"/>
<text text-anchor="middle" x="1899" y="-91.5" font-family="Helvetica,sans-Serif" font-size="10.00">game_engine.Engine.update</text>
</a>
</g>
</g>
<!-- Node27&#45;&gt;Node29 -->
<g id="edge31" class="edge"><title>Node27&#45;&gt;Node29</title>
<path fill="none" stroke="midnightblue" d="M1793.32,-94C1802.85,-94 1812.51,-94 1821.91,-94"/>
<polygon fill="midnightblue" stroke="midnightblue" points="1793.04,-90.5001 1783.04,-94 1793.04,-97.5001 1793.04,-90.5001"/>
</g>
<!-- Node28&#45;&gt;Node14 -->
<g id="edge30" class="edge"><title>Node28&#45;&gt;Node14</title>
<path fill="none" stroke="midnightblue" d="M1925.15,-239.088C1963.84,-262.305 2036.88,-306.129 2069.08,-325.445"/>
<polygon fill="midnightblue" stroke="midnightblue" points="1926.47,-235.8 1916.09,-233.656 1922.87,-241.803 1926.47,-235.8"/>
</g>
<!-- Node31 -->
<g id="node31" class="node"><title>Node31</title>
<g id="a_node31"><a xlink:href="../../dd/de3/classgame__engine_1_1state_managing_1_1_game_element_manager.html#a4c2c08ce8e03641f1e8f5489a321f213" target="_top" xlink:title="game_engine.stateManaging.\lGameElementManager.addGameElement\lToLevel">
<polygon fill="white" stroke="black" points="1120.5,-127.5 1120.5,-168.5 1337.5,-168.5 1337.5,-127.5 1120.5,-127.5"/>
<text text-anchor="start" x="1128.5" y="-156.5" font-family="Helvetica,sans-Serif" font-size="10.00">game_engine.stateManaging.</text>
<text text-anchor="start" x="1128.5" y="-145.5" font-family="Helvetica,sans-Serif" font-size="10.00">GameElementManager.addGameElement</text>
<text text-anchor="middle" x="1229" y="-134.5" font-family="Helvetica,sans-Serif" font-size="10.00">ToLevel</text>
</a>
</g>
</g>
<!-- Node30&#45;&gt;Node31 -->
<g id="edge34" class="edge"><title>Node30&#45;&gt;Node31</title>
<path fill="none" stroke="midnightblue" d="M1080.8,-148C1093.99,-148 1107.36,-148 1120.39,-148"/>
<polygon fill="midnightblue" stroke="midnightblue" points="1080.76,-144.5 1070.75,-148 1080.75,-151.5 1080.76,-144.5"/>
</g>
<!-- Node32 -->
<g id="node32" class="node"><title>Node32</title>
<g id="a_node32"><a xlink:href="../../d6/dcb/classgame__engine_1_1element_factories_1_1_level_factory.html#ae375271de9d32c5c834c69f01c9eea2f" target="_top" xlink:title="game_engine.elementFactories.\lLevelFactory.generateGoalElements">
<polygon fill="white" stroke="black" points="1135,-79 1135,-109 1323,-109 1323,-79 1135,-79"/>
<text text-anchor="start" x="1143" y="-97" font-family="Helvetica,sans-Serif" font-size="10.00">game_engine.elementFactories.</text>
<text text-anchor="middle" x="1229" y="-86" font-family="Helvetica,sans-Serif" font-size="10.00">LevelFactory.generateGoalElements</text>
</a>
</g>
</g>
<!-- Node30&#45;&gt;Node32 -->
<g id="edge35" class="edge"><title>Node30&#45;&gt;Node32</title>
<path fill="none" stroke="midnightblue" d="M1045.49,-130.913C1080.17,-123.897 1119.99,-115.845 1153.56,-109.055"/>
<polygon fill="midnightblue" stroke="midnightblue" points="1044.48,-127.545 1035.37,-132.958 1045.87,-134.406 1044.48,-127.545"/>
</g>
<!-- Node32&#45;&gt;Node24 -->
<g id="edge36" class="edge"><title>Node32&#45;&gt;Node24</title>
<path fill="none" stroke="midnightblue" d="M1333.38,-94C1354.47,-94 1376.42,-94 1396.75,-94"/>
<polygon fill="midnightblue" stroke="midnightblue" points="1333.11,-90.5001 1323.11,-94 1333.11,-97.5001 1333.11,-90.5001"/>
</g>
<!-- Node34 -->
<g id="node34" class="node"><title>Node34</title>
<g id="a_node34"><a xlink:href="../../dd/de3/classgame__engine_1_1state_managing_1_1_game_element_manager.html#afc8ebb6556a5ffce190b5b60f263778b" target="_top" xlink:title="game_engine.stateManaging.\lGameElementManager.addSelectable\lGameElementToLevel">
<polygon fill="white" stroke="black" points="1383,-0.5 1383,-41.5 1581,-41.5 1581,-0.5 1383,-0.5"/>
<text text-anchor="start" x="1391" y="-29.5" font-family="Helvetica,sans-Serif" font-size="10.00">game_engine.stateManaging.</text>
<text text-anchor="start" x="1391" y="-18.5" font-family="Helvetica,sans-Serif" font-size="10.00">GameElementManager.addSelectable</text>
<text text-anchor="middle" x="1482" y="-7.5" font-family="Helvetica,sans-Serif" font-size="10.00">GameElementToLevel</text>
</a>
</g>
</g>
<!-- Node33&#45;&gt;Node34 -->
<g id="edge38" class="edge"><title>Node33&#45;&gt;Node34</title>
<path fill="none" stroke="midnightblue" d="M1071.67,-25.3343C1087.83,-23.122 1104.31,-21.2258 1120,-20 1216.59,-12.4525 1241.11,-19.6612 1338,-20 1352.52,-20.0508 1367.88,-20.1306 1382.92,-20.2235"/>
<polygon fill="midnightblue" stroke="midnightblue" points="1071.07,-21.8845 1061.65,-26.7495 1072.05,-28.8156 1071.07,-21.8845"/>
</g>
<!-- Node35 -->
<g id="node35" class="node"><title>Node35</title>
<g id="a_node35"><a xlink:href="../../d6/dcb/classgame__engine_1_1element_factories_1_1_level_factory.html#a0a49888d8e6e5464af76b11af7b324d3" target="_top" xlink:title="game_engine.elementFactories.\lLevelFactory.generateUnitEelements">
<polygon fill="white" stroke="black" points="1133.5,-30 1133.5,-60 1324.5,-60 1324.5,-30 1133.5,-30"/>
<text text-anchor="start" x="1141.5" y="-48" font-family="Helvetica,sans-Serif" font-size="10.00">game_engine.elementFactories.</text>
<text text-anchor="middle" x="1229" y="-37" font-family="Helvetica,sans-Serif" font-size="10.00">LevelFactory.generateUnitEelements</text>
</a>
</g>
</g>
<!-- Node33&#45;&gt;Node35 -->
<g id="edge40" class="edge"><title>Node33&#45;&gt;Node35</title>
<path fill="none" stroke="midnightblue" d="M1071.83,-45C1092.24,-45 1113.38,-45 1133.26,-45"/>
<polygon fill="midnightblue" stroke="midnightblue" points="1071.56,-41.5001 1061.56,-45 1071.56,-48.5001 1071.56,-41.5001"/>
</g>
<!-- Node34&#45;&gt;Node25 -->
<g id="edge39" class="edge"><title>Node34&#45;&gt;Node25</title>
<path fill="none" stroke="midnightblue" d="M1591.04,-26.84C1603,-27.4863 1615,-28.1351 1626.49,-28.7563"/>
<polygon fill="midnightblue" stroke="midnightblue" points="1591.19,-23.3433 1581.02,-26.2983 1590.82,-30.3331 1591.19,-23.3433"/>
</g>
<!-- Node35&#45;&gt;Node24 -->
<g id="edge41" class="edge"><title>Node35&#45;&gt;Node24</title>
<path fill="none" stroke="midnightblue" d="M1316.91,-61.9674C1345.28,-67.5049 1376.56,-73.611 1404.13,-78.9938"/>
<polygon fill="midnightblue" stroke="midnightblue" points="1317.5,-58.5156 1307.01,-60.0346 1316.16,-65.3859 1317.5,-58.5156"/>
</g>
</g>
</svg>
        <g id="navigator" transform="translate(0 0)" fill="#404254">
                <rect fill="#f2f5e9" fill-opacity="0.5" stroke="#606060" stroke-width=".5" x="0" y="0" width="60" height="60"/>
                <use id="zoomplus" xlink:href="#zoomPlus" x="17" y="9" onmousedown="handleZoom(evt,'in')"/>
                <use id="zoomminus" xlink:href="#zoomMin" x="42" y="9" onmousedown="handleZoom(evt,'out')"/>
                <use id="reset" xlink:href="#resetDef" x="30" y="36" onmousedown="handleReset()"/>
                <g id="arrowUp" xlink:href="#dirArrow" transform="translate(30 24)" onmousedown="handlePan(0,-1)">
                  <use xlink:href="#rim" fill="#404040">
                        <set attributeName="fill" to="#808080" begin="arrowUp.mouseover" end="arrowUp.mouseout"/>
                  </use>
                  <path fill="none" stroke="white" stroke-width="1.5" d="M0,-3.0v7 M-2.5,-0.5L0,-3.0L2.5,-0.5"/>
                </g>
                <g id="arrowRight" xlink:href="#dirArrow" transform="rotate(90) translate(36 -43)" onmousedown="handlePan(1,0)">
                  <use xlink:href="#rim" fill="#404040">
                        <set attributeName="fill" to="#808080" begin="arrowRight.mouseover" end="arrowRight.mouseout"/>
                  </use>
                  <path fill="none" stroke="white" stroke-width="1.5" d="M0,-3.0v7 M-2.5,-0.5L0,-3.0L2.5,-0.5"/>
                </g>
                <g id="arrowDown" xlink:href="#dirArrow" transform="rotate(180) translate(-30 -48)" onmousedown="handlePan(0,1)">
                  <use xlink:href="#rim" fill="#404040">
                        <set attributeName="fill" to="#808080" begin="arrowDown.mouseover" end="arrowDown.mouseout"/>
                  </use>
                  <path fill="none" stroke="white" stroke-width="1.5" d="M0,-3.0v7 M-2.5,-0.5L0,-3.0L2.5,-0.5"/>
                </g>
                <g id="arrowLeft" xlink:href="#dirArrow" transform="rotate(270) translate(-36 17)" onmousedown="handlePan(-1,0)">
                  <use xlink:href="#rim" fill="#404040">
                        <set attributeName="fill" to="#808080" begin="arrowLeft.mouseover" end="arrowLeft.mouseout"/>
                  </use>
                  <path fill="none" stroke="white" stroke-width="1.5" d="M0,-3.0v7 M-2.5,-0.5L0,-3.0L2.5,-0.5"/>
                </g>
        </g>
        <svg viewBox="0 0 15 15" width="100%" height="30px" preserveAspectRatio="xMaxYMin meet">
         <g id="arrow_out" transform="scale(0.3 0.3)">
          <a xlink:href="classgame__engine_1_1game_representation_1_1state_representation_1_1game_element_1_1_game_element_state_af2c070dd27e2d8a3c515ef55a317aa38_icgraph_org.svg" target="_base">
           <rect id="button" ry="5" rx="5" y="6" x="6" height="38" width="38"
                fill="#f2f5e9" fill-opacity="0.5" stroke="#606060" stroke-width="1.0"/>
           <path id="arrow"
             d="M 11.500037,31.436501 C 11.940474,20.09759 22.043105,11.32322 32.158766,21.979434 L 37.068811,17.246167 C 37.068811,17.246167 37.088388,32 37.088388,32 L 22.160133,31.978069 C 22.160133,31.978069 26.997745,27.140456 26.997745,27.140456 C 18.528582,18.264221 13.291696,25.230495 11.500037,31.436501 z"
             style="fill:#404040;"/>
          </a>
         </g>
        </svg>
</svg>
