<?xml version="1.0" encoding="UTF-8" standalone="no"?>
<!DOCTYPE svg PUBLIC "-//W3C//DTD SVG 1.1//EN"
 "http://www.w3.org/Graphics/SVG/1.1/DTD/svg11.dtd">
<!-- Generated by graphviz version 2.36.0 (20140111.2315)
 -->
<!-- Title: view.editor.wizards.ActionWizard.dropdownsValid Pages: 1 -->
<svg width="332pt" height="38pt"
 viewBox="0.00 0.00 332.00 38.00" xmlns="http://www.w3.org/2000/svg" xmlns:xlink="http://www.w3.org/1999/xlink">
<g id="graph0" class="graph" transform="scale(1 1) rotate(0) translate(4 34)">
<title>view.editor.wizards.ActionWizard.dropdownsValid</title>
<polygon fill="white" stroke="none" points="-4,4 -4,-34 328,-34 328,4 -4,4"/>
<!-- Node1 -->
<g id="node1" class="node"><title>Node1</title>
<polygon fill="#bfbfbf" stroke="black" points="0.5,-0 0.5,-30 137.5,-30 137.5,-0 0.5,-0"/>
<text text-anchor="start" x="8.5" y="-18" font-family="Helvetica,sans-Serif" font-size="10.00">view.editor.wizards.Action</text>
<text text-anchor="middle" x="69" y="-7" font-family="Helvetica,sans-Serif" font-size="10.00">Wizard.dropdownsValid</text>
</g>
<!-- Node2 -->
<g id="node2" class="node"><title>Node2</title>
<g id="a_node2"><a xlink:href="../../d7/d40/classview_1_1editor_1_1wizards_1_1_wizard.html#a66e85758b9fdb366c5d2a931f4cc1598" target="_top" xlink:title="view.editor.wizards.Wizard.is\lNumber">
<polygon fill="white" stroke="black" points="174.5,-0 174.5,-30 323.5,-30 323.5,-0 174.5,-0"/>
<text text-anchor="start" x="182.5" y="-18" font-family="Helvetica,sans-Serif" font-size="10.00">view.editor.wizards.Wizard.is</text>
<text text-anchor="middle" x="249" y="-7" font-family="Helvetica,sans-Serif" font-size="10.00">Number</text>
</a>
</g>
</g>
<!-- Node1&#45;&gt;Node2 -->
<g id="edge1" class="edge"><title>Node1&#45;&gt;Node2</title>
<path fill="none" stroke="midnightblue" d="M137.548,-15C146.266,-15 155.275,-15 164.215,-15"/>
<polygon fill="midnightblue" stroke="midnightblue" points="164.258,-18.5001 174.258,-15 164.258,-11.5001 164.258,-18.5001"/>
</g>
</g>
</svg>
