<?xml version="1.0" encoding="UTF-8" standalone="no"?>
<!DOCTYPE svg PUBLIC "-//W3C//DTD SVG 1.1//EN"
 "http://www.w3.org/Graphics/SVG/1.1/DTD/svg11.dtd">
<!-- Generated by graphviz version 2.36.0 (20140111.2315)
 -->
<!-- Title: model.state.GameState.getCampaign Pages: 1 -->
<svg width="1590pt" height="325pt"
 viewBox="0.00 0.00 1590.00 325.00" xmlns="http://www.w3.org/2000/svg" xmlns:xlink="http://www.w3.org/1999/xlink">
<g id="graph0" class="graph" transform="scale(1 1) rotate(0) translate(4 321)">
<title>model.state.GameState.getCampaign</title>
<polygon fill="white" stroke="none" points="-4,4 -4,-321 1586,-321 1586,4 -4,4"/>
<!-- Node1 -->
<g id="node1" class="node"><title>Node1</title>
<polygon fill="#bfbfbf" stroke="black" points="0,-82 0,-112 152,-112 152,-82 0,-82"/>
<text text-anchor="start" x="8" y="-100" font-family="Helvetica,sans-Serif" font-size="10.00">model.state.GameState.get</text>
<text text-anchor="middle" x="76" y="-89" font-family="Helvetica,sans-Serif" font-size="10.00">Campaign</text>
</g>
<!-- Node2 -->
<g id="node2" class="node"><title>Node2</title>
<g id="a_node2"><a xlink:href="../../de/d21/classmodel_1_1_main_model.html#a679916cbd440cd8a600574b9b6b8957a" target="_top" xlink:title="model.MainModel.createLevel">
<polygon fill="white" stroke="black" points="192.5,-198.5 192.5,-217.5 351.5,-217.5 351.5,-198.5 192.5,-198.5"/>
<text text-anchor="middle" x="272" y="-205.5" font-family="Helvetica,sans-Serif" font-size="10.00">model.MainModel.createLevel</text>
</a>
</g>
</g>
<!-- Node1&#45;&gt;Node2 -->
<g id="edge1" class="edge"><title>Node1&#45;&gt;Node2</title>
<path fill="none" stroke="midnightblue" d="M112.364,-117.234C154.369,-141.268 222.7,-180.365 254.165,-198.367"/>
<polygon fill="midnightblue" stroke="midnightblue" points="113.986,-114.13 103.568,-112.201 110.51,-120.205 113.986,-114.13"/>
</g>
<!-- Node6 -->
<g id="node6" class="node"><title>Node6</title>
<g id="a_node6"><a xlink:href="../../de/d21/classmodel_1_1_main_model.html#a1d62bac35f70e49b8e2094c6f15fe477" target="_top" xlink:title="model.MainModel.getCampaign">
<polygon fill="white" stroke="black" points="188,-87.5 188,-106.5 356,-106.5 356,-87.5 188,-87.5"/>
<text text-anchor="middle" x="272" y="-94.5" font-family="Helvetica,sans-Serif" font-size="10.00">model.MainModel.getCampaign</text>
</a>
</g>
</g>
<!-- Node1&#45;&gt;Node6 -->
<g id="edge5" class="edge"><title>Node1&#45;&gt;Node6</title>
<path fill="none" stroke="midnightblue" d="M162.272,-97C170.753,-97 179.355,-97 187.814,-97"/>
<polygon fill="midnightblue" stroke="midnightblue" points="162.005,-93.5001 152.005,-97 162.005,-100.5 162.005,-93.5001"/>
</g>
<!-- Node21 -->
<g id="node21" class="node"><title>Node21</title>
<g id="a_node21"><a xlink:href="../../de/d21/classmodel_1_1_main_model.html#ab5c91715fd7b1a435838682ef5627496" target="_top" xlink:title="model.MainModel.getDescribable\lState">
<polygon fill="white" stroke="black" points="785,-0 785,-30 961,-30 961,-0 785,-0"/>
<text text-anchor="start" x="793" y="-18" font-family="Helvetica,sans-Serif" font-size="10.00">model.MainModel.getDescribable</text>
<text text-anchor="middle" x="873" y="-7" font-family="Helvetica,sans-Serif" font-size="10.00">State</text>
</a>
</g>
</g>
<!-- Node1&#45;&gt;Node21 -->
<g id="edge21" class="edge"><title>Node1&#45;&gt;Node21</title>
<path fill="none" stroke="midnightblue" d="M162.271,-81.7151C170.947,-80.3665 179.64,-79.0987 188,-78 401.711,-49.9106 654.622,-30.0802 784.84,-20.8491"/>
<polygon fill="midnightblue" stroke="midnightblue" points="161.439,-78.3032 152.113,-83.3301 162.538,-85.2164 161.439,-78.3032"/>
</g>
<!-- Node3 -->
<g id="node3" class="node"><title>Node3</title>
<g id="a_node3"><a xlink:href="../../dc/d0c/classview_1_1editor_1_1_editor_menu_bar_controller.html#a135d33b75dee7e5bb96b8ebd40cbe964" target="_top" xlink:title="view.editor.EditorMenuBar\lController.onNewLevelClick">
<polygon fill="white" stroke="black" points="392,-235 392,-265 536,-265 536,-235 392,-235"/>
<text text-anchor="start" x="400" y="-253" font-family="Helvetica,sans-Serif" font-size="10.00">view.editor.EditorMenuBar</text>
<text text-anchor="middle" x="464" y="-242" font-family="Helvetica,sans-Serif" font-size="10.00">Controller.onNewLevelClick</text>
</a>
</g>
</g>
<!-- Node2&#45;&gt;Node3 -->
<g id="edge2" class="edge"><title>Node2&#45;&gt;Node3</title>
<path fill="none" stroke="midnightblue" d="M325.994,-219.714C347.401,-224.446 372.371,-229.966 395.087,-234.988"/>
<polygon fill="midnightblue" stroke="midnightblue" points="326.634,-216.271 316.114,-217.53 325.123,-223.106 326.634,-216.271"/>
</g>
<!-- Node4 -->
<g id="node4" class="node"><title>Node4</title>
<g id="a_node4"><a xlink:href="../../dc/d0c/classview_1_1editor_1_1_editor_menu_bar_controller.html#a56696b0f0540d2e86c3e4fe4521717a2" target="_top" xlink:title="view.editor.EditorMenuBar\lController.initFileMenu">
<polygon fill="white" stroke="black" points="587,-287 587,-317 727,-317 727,-287 587,-287"/>
<text text-anchor="start" x="595" y="-305" font-family="Helvetica,sans-Serif" font-size="10.00">view.editor.EditorMenuBar</text>
<text text-anchor="middle" x="657" y="-294" font-family="Helvetica,sans-Serif" font-size="10.00">Controller.initFileMenu</text>
</a>
</g>
</g>
<!-- Node3&#45;&gt;Node4 -->
<g id="edge3" class="edge"><title>Node3&#45;&gt;Node4</title>
<path fill="none" stroke="midnightblue" d="M529.947,-267.682C553.005,-273.959 578.72,-280.96 600.879,-286.993"/>
<polygon fill="midnightblue" stroke="midnightblue" points="530.813,-264.29 520.245,-265.041 528.974,-271.045 530.813,-264.29"/>
</g>
<!-- Node5 -->
<g id="node5" class="node"><title>Node5</title>
<g id="a_node5"><a xlink:href="../../dc/d0c/classview_1_1editor_1_1_editor_menu_bar_controller.html#a5b101a400664af0200be8010673acb49" target="_top" xlink:title="view.editor.EditorMenuBar\lController.initMenuBar">
<polygon fill="white" stroke="black" points="803,-287 803,-317 943,-317 943,-287 803,-287"/>
<text text-anchor="start" x="811" y="-305" font-family="Helvetica,sans-Serif" font-size="10.00">view.editor.EditorMenuBar</text>
<text text-anchor="middle" x="873" y="-294" font-family="Helvetica,sans-Serif" font-size="10.00">Controller.initMenuBar</text>
</a>
</g>
</g>
<!-- Node4&#45;&gt;Node5 -->
<g id="edge4" class="edge"><title>Node4&#45;&gt;Node5</title>
<path fill="none" stroke="midnightblue" d="M737.252,-302C758.728,-302 781.806,-302 802.688,-302"/>
<polygon fill="midnightblue" stroke="midnightblue" points="737.184,-298.5 727.184,-302 737.184,-305.5 737.184,-298.5"/>
</g>
<!-- Node7 -->
<g id="node7" class="node"><title>Node7</title>
<g id="a_node7"><a xlink:href="../../de/d21/classmodel_1_1_main_model.html#a325b6fee358919fa4ae565752ecb9a7b" target="_top" xlink:title="model.MainModel.getLevel">
<polygon fill="white" stroke="black" points="392,-120.5 392,-139.5 536,-139.5 536,-120.5 392,-120.5"/>
<text text-anchor="middle" x="464" y="-127.5" font-family="Helvetica,sans-Serif" font-size="10.00">model.MainModel.getLevel</text>
</a>
</g>
</g>
<!-- Node6&#45;&gt;Node7 -->
<g id="edge6" class="edge"><title>Node6&#45;&gt;Node7</title>
<path fill="none" stroke="midnightblue" d="M337.664,-108.231C360.538,-112.204 386.034,-116.632 408.027,-120.452"/>
<polygon fill="midnightblue" stroke="midnightblue" points="338.152,-104.764 327.701,-106.501 336.955,-111.66 338.152,-104.764"/>
</g>
<!-- Node19 -->
<g id="node19" class="node"><title>Node19</title>
<g id="a_node19"><a xlink:href="../../de/d21/classmodel_1_1_main_model.html#a0ba78e476f26b1c1e44165e5245a4513" target="_top" xlink:title="model.MainModel.setLevel">
<polygon fill="white" stroke="black" points="585.5,-52.5 585.5,-71.5 728.5,-71.5 728.5,-52.5 585.5,-52.5"/>
<text text-anchor="middle" x="657" y="-59.5" font-family="Helvetica,sans-Serif" font-size="10.00">model.MainModel.setLevel</text>
</a>
</g>
</g>
<!-- Node6&#45;&gt;Node19 -->
<g id="edge20" class="edge"><title>Node6&#45;&gt;Node19</title>
<path fill="none" stroke="midnightblue" d="M366.318,-88.4722C433.823,-82.3034 523.64,-74.0955 585.267,-68.4638"/>
<polygon fill="midnightblue" stroke="midnightblue" points="365.745,-85.0099 356.105,-89.4055 366.382,-91.9809 365.745,-85.0099"/>
</g>
<!-- Node8 -->
<g id="node8" class="node"><title>Node8</title>
<g id="a_node8"><a xlink:href="../../d0/daf/classapplication_1_1_r_p_g.html#a57d0a7b674624b53b138a951b30f865d" target="_top" xlink:title="application.RPG.hardCode\lAGame">
<polygon fill="white" stroke="black" points="587,-91 587,-121 727,-121 727,-91 587,-91"/>
<text text-anchor="start" x="595" y="-109" font-family="Helvetica,sans-Serif" font-size="10.00">application.RPG.hardCode</text>
<text text-anchor="middle" x="657" y="-98" font-family="Helvetica,sans-Serif" font-size="10.00">AGame</text>
</a>
</g>
</g>
<!-- Node7&#45;&gt;Node8 -->
<g id="edge7" class="edge"><title>Node7&#45;&gt;Node8</title>
<path fill="none" stroke="midnightblue" d="M546.315,-119.782C559.767,-118.092 573.604,-116.353 586.724,-114.705"/>
<polygon fill="midnightblue" stroke="midnightblue" points="545.607,-116.344 536.121,-121.063 546.48,-123.289 545.607,-116.344"/>
</g>
<!-- Node10 -->
<g id="node10" class="node"><title>Node10</title>
<g id="a_node10"><a xlink:href="../../d6/d00/classapplication_1_1_pong.html#a0125f26aebd7e1cc9e3fae602e3997f8" target="_top" xlink:title="application.Pong.hardCode\lAGame">
<polygon fill="white" stroke="black" points="584.5,-238 584.5,-268 729.5,-268 729.5,-238 584.5,-238"/>
<text text-anchor="start" x="592.5" y="-256" font-family="Helvetica,sans-Serif" font-size="10.00">application.Pong.hardCode</text>
<text text-anchor="middle" x="657" y="-245" font-family="Helvetica,sans-Serif" font-size="10.00">AGame</text>
</a>
</g>
</g>
<!-- Node7&#45;&gt;Node10 -->
<g id="edge9" class="edge"><title>Node7&#45;&gt;Node10</title>
<path fill="none" stroke="midnightblue" d="M479.481,-147.439C498.535,-169.304 534.075,-206.517 572,-228 578.752,-231.825 586.147,-235.118 593.662,-237.939"/>
<polygon fill="midnightblue" stroke="midnightblue" points="481.955,-144.946 472.798,-139.616 476.633,-149.493 481.955,-144.946"/>
</g>
<!-- Node12 -->
<g id="node12" class="node"><title>Node12</title>
<g id="a_node12"><a xlink:href="../../d6/d9c/classview_1_1runner_1_1_runner_screen.html#a8c51b0b9ed278502aca7eb7703986123" target="_top" xlink:title="view.runner.RunnerScreen.play\lLevel">
<polygon fill="white" stroke="black" points="576,-189 576,-219 738,-219 738,-189 576,-189"/>
<text text-anchor="start" x="584" y="-207" font-family="Helvetica,sans-Serif" font-size="10.00">view.runner.RunnerScreen.play</text>
<text text-anchor="middle" x="657" y="-196" font-family="Helvetica,sans-Serif" font-size="10.00">Level</text>
</a>
</g>
</g>
<!-- Node7&#45;&gt;Node12 -->
<g id="edge11" class="edge"><title>Node7&#45;&gt;Node12</title>
<path fill="none" stroke="midnightblue" d="M493.113,-144.188C514.431,-154.623 544.633,-168.719 572,-179 581.401,-182.532 591.538,-185.904 601.406,-188.964"/>
<polygon fill="midnightblue" stroke="midnightblue" points="494.502,-140.971 483.986,-139.679 491.401,-147.246 494.502,-140.971"/>
</g>
<!-- Node14 -->
<g id="node14" class="node"><title>Node14</title>
<g id="a_node14"><a xlink:href="../../d4/d65/classview_1_1editor_1_1_tab_view_controller.html#a3e431a0733f1d2409d3f0a863e0279e8" target="_top" xlink:title="view.editor.TabViewController.set\lLevel">
<polygon fill="white" stroke="black" points="572,-140 572,-170 742,-170 742,-140 572,-140"/>
<text text-anchor="start" x="580" y="-158" font-family="Helvetica,sans-Serif" font-size="10.00">view.editor.TabViewController.set</text>
<text text-anchor="middle" x="657" y="-147" font-family="Helvetica,sans-Serif" font-size="10.00">Level</text>
</a>
</g>
</g>
<!-- Node7&#45;&gt;Node14 -->
<g id="edge13" class="edge"><title>Node7&#45;&gt;Node14</title>
<path fill="none" stroke="midnightblue" d="M546.072,-140.611C554.624,-141.731 563.335,-142.871 571.921,-143.995"/>
<polygon fill="midnightblue" stroke="midnightblue" points="546.491,-137.137 536.121,-139.309 545.583,-144.077 546.491,-137.137"/>
</g>
<!-- Node7&#45;&gt;Node19 -->
<g id="edge18" class="edge"><title>Node7&#45;&gt;Node19</title>
<path fill="none" stroke="midnightblue" d="M492.154,-115.663C513.41,-104.911 543.969,-90.4745 572,-81 582.765,-77.3614 594.542,-74.2087 605.78,-71.574"/>
<polygon fill="midnightblue" stroke="midnightblue" points="490.387,-112.635 483.085,-120.312 493.58,-118.864 490.387,-112.635"/>
</g>
<!-- Node9 -->
<g id="node9" class="node"><title>Node9</title>
<g id="a_node9"><a xlink:href="../../d0/daf/classapplication_1_1_r_p_g.html#a6b8f1624ae2607c67f4e8cda49b544e9" target="_top" xlink:title="application.RPG.start">
<polygon fill="white" stroke="black" points="815,-98.5 815,-117.5 931,-117.5 931,-98.5 815,-98.5"/>
<text text-anchor="middle" x="873" y="-105.5" font-family="Helvetica,sans-Serif" font-size="10.00">application.RPG.start</text>
</a>
</g>
</g>
<!-- Node8&#45;&gt;Node9 -->
<g id="edge8" class="edge"><title>Node8&#45;&gt;Node9</title>
<path fill="none" stroke="midnightblue" d="M737.296,-106.741C763.032,-106.982 791.063,-107.244 814.858,-107.466"/>
<polygon fill="midnightblue" stroke="midnightblue" points="737.216,-103.24 727.184,-106.647 737.151,-110.24 737.216,-103.24"/>
</g>
<!-- Node11 -->
<g id="node11" class="node"><title>Node11</title>
<g id="a_node11"><a xlink:href="../../d6/d00/classapplication_1_1_pong.html#aacfcba740564585303fb8097744d21a5" target="_top" xlink:title="application.Pong.start">
<polygon fill="white" stroke="black" points="812.5,-243.5 812.5,-262.5 933.5,-262.5 933.5,-243.5 812.5,-243.5"/>
<text text-anchor="middle" x="873" y="-250.5" font-family="Helvetica,sans-Serif" font-size="10.00">application.Pong.start</text>
</a>
</g>
</g>
<!-- Node10&#45;&gt;Node11 -->
<g id="edge10" class="edge"><title>Node10&#45;&gt;Node11</title>
<path fill="none" stroke="midnightblue" d="M739.768,-253C763.891,-253 789.828,-253 812.286,-253"/>
<polygon fill="midnightblue" stroke="midnightblue" points="739.556,-249.5 729.556,-253 739.556,-256.5 739.556,-249.5"/>
</g>
<!-- Node13 -->
<g id="node13" class="node"><title>Node13</title>
<g id="a_node13"><a xlink:href="../../d6/d9c/classview_1_1runner_1_1_runner_screen.html#af16493da3cec6d50fb47e41e96fac8ed" target="_top" xlink:title="view.runner.RunnerScreen.init">
<polygon fill="white" stroke="black" points="794.5,-194.5 794.5,-213.5 951.5,-213.5 951.5,-194.5 794.5,-194.5"/>
<text text-anchor="middle" x="873" y="-201.5" font-family="Helvetica,sans-Serif" font-size="10.00">view.runner.RunnerScreen.init</text>
</a>
</g>
</g>
<!-- Node12&#45;&gt;Node13 -->
<g id="edge12" class="edge"><title>Node12&#45;&gt;Node13</title>
<path fill="none" stroke="midnightblue" d="M748.299,-204C763.648,-204 779.466,-204 794.449,-204"/>
<polygon fill="midnightblue" stroke="midnightblue" points="748.295,-200.5 738.295,-204 748.295,-207.5 748.295,-200.5"/>
</g>
<!-- Node15 -->
<g id="node15" class="node"><title>Node15</title>
<g id="a_node15"><a xlink:href="../../d0/db5/classview_1_1editor_1_1_editor_screen.html#ac0c89f6996b8d53ff24c1093072716f8" target="_top" xlink:title="view.editor.EditorScreen.create\lNewTab">
<polygon fill="white" stroke="black" points="791,-138 791,-168 955,-168 955,-138 791,-138"/>
<text text-anchor="start" x="799" y="-156" font-family="Helvetica,sans-Serif" font-size="10.00">view.editor.EditorScreen.create</text>
<text text-anchor="middle" x="873" y="-145" font-family="Helvetica,sans-Serif" font-size="10.00">NewTab</text>
</a>
</g>
</g>
<!-- Node14&#45;&gt;Node15 -->
<g id="edge14" class="edge"><title>Node14&#45;&gt;Node15</title>
<path fill="none" stroke="midnightblue" d="M752.492,-154.117C765.32,-153.997 778.391,-153.875 790.953,-153.757"/>
<polygon fill="midnightblue" stroke="midnightblue" points="752.238,-150.619 742.271,-154.212 752.304,-157.619 752.238,-150.619"/>
</g>
<!-- Node16 -->
<g id="node16" class="node"><title>Node16</title>
<g id="a_node16"><a xlink:href="../../d0/db5/classview_1_1editor_1_1_editor_screen.html#ad3d33bc95534e6b677a83a2f01be9286" target="_top" xlink:title="view.editor.EditorScreen.launchTab">
<polygon fill="white" stroke="black" points="1010.5,-123.5 1010.5,-142.5 1191.5,-142.5 1191.5,-123.5 1010.5,-123.5"/>
<text text-anchor="middle" x="1101" y="-130.5" font-family="Helvetica,sans-Serif" font-size="10.00">view.editor.EditorScreen.launchTab</text>
</a>
</g>
</g>
<!-- Node15&#45;&gt;Node16 -->
<g id="edge15" class="edge"><title>Node15&#45;&gt;Node16</title>
<path fill="none" stroke="midnightblue" d="M965.417,-144.91C980.207,-143.601 995.511,-142.247 1010.26,-140.942"/>
<polygon fill="midnightblue" stroke="midnightblue" points="964.924,-141.44 955.272,-145.808 965.542,-148.413 964.924,-141.44"/>
</g>
<!-- Node17 -->
<g id="node17" class="node"><title>Node17</title>
<g id="a_node17"><a xlink:href="../../d0/db5/classview_1_1editor_1_1_editor_screen.html#aaad5f29799d14174213c2f06f6156890" target="_top" xlink:title="view.editor.EditorScreen.init\lProjectExplorer">
<polygon fill="white" stroke="black" points="1242,-98 1242,-128 1390,-128 1390,-98 1242,-98"/>
<text text-anchor="start" x="1250" y="-116" font-family="Helvetica,sans-Serif" font-size="10.00">view.editor.EditorScreen.init</text>
<text text-anchor="middle" x="1316" y="-105" font-family="Helvetica,sans-Serif" font-size="10.00">ProjectExplorer</text>
</a>
</g>
</g>
<!-- Node16&#45;&gt;Node17 -->
<g id="edge16" class="edge"><title>Node16&#45;&gt;Node17</title>
<path fill="none" stroke="midnightblue" d="M1201.95,-123.615C1215.4,-122.352 1228.98,-121.077 1241.85,-119.869"/>
<polygon fill="midnightblue" stroke="midnightblue" points="1201.34,-120.157 1191.71,-124.576 1202,-127.126 1201.34,-120.157"/>
</g>
<!-- Node18 -->
<g id="node18" class="node"><title>Node18</title>
<g id="a_node18"><a xlink:href="../../d0/db5/classview_1_1editor_1_1_editor_screen.html#aba6c32908c25fa4f755a312e92860c02" target="_top" xlink:title="view.editor.EditorScreen.init">
<polygon fill="white" stroke="black" points="1434,-54.5 1434,-73.5 1582,-73.5 1582,-54.5 1434,-54.5"/>
<text text-anchor="middle" x="1508" y="-61.5" font-family="Helvetica,sans-Serif" font-size="10.00">view.editor.EditorScreen.init</text>
</a>
</g>
</g>
<!-- Node17&#45;&gt;Node18 -->
<g id="edge17" class="edge"><title>Node17&#45;&gt;Node18</title>
<path fill="none" stroke="midnightblue" d="M1385.25,-95.3986C1413.86,-88.0211 1445.99,-79.7348 1470.05,-73.528"/>
<polygon fill="midnightblue" stroke="midnightblue" points="1384.11,-92.079 1375.3,-97.9654 1385.85,-98.8572 1384.11,-92.079"/>
</g>
<!-- Node20 -->
<g id="node20" class="node"><title>Node20</title>
<g id="a_node20"><a xlink:href="../../d4/d65/classview_1_1editor_1_1_tab_view_controller.html#afc715586579c317daebae4566fe18758" target="_top" xlink:title="view.editor.TabViewController.update\lModelToSave">
<polygon fill="white" stroke="black" points="778.5,-49 778.5,-79 967.5,-79 967.5,-49 778.5,-49"/>
<text text-anchor="start" x="786.5" y="-67" font-family="Helvetica,sans-Serif" font-size="10.00">view.editor.TabViewController.update</text>
<text text-anchor="middle" x="873" y="-56" font-family="Helvetica,sans-Serif" font-size="10.00">ModelToSave</text>
</a>
</g>
</g>
<!-- Node19&#45;&gt;Node20 -->
<g id="edge19" class="edge"><title>Node19&#45;&gt;Node20</title>
<path fill="none" stroke="midnightblue" d="M738.825,-62.7554C751.657,-62.8753 765.024,-63.0002 778.124,-63.1227"/>
<polygon fill="midnightblue" stroke="midnightblue" points="738.697,-59.2541 728.665,-62.6604 738.632,-66.2538 738.697,-59.2541"/>
</g>
<!-- Node22 -->
<g id="node22" class="node"><title>Node22</title>
<g id="a_node22"><a xlink:href="../../de/d21/classmodel_1_1_main_model.html#a7b4313b612f46386bde3a982728e69d5" target="_top" xlink:title="model.MainModel.updateDescribable\lState">
<polygon fill="white" stroke="black" points="1004,-0 1004,-30 1198,-30 1198,-0 1004,-0"/>
<text text-anchor="start" x="1012" y="-18" font-family="Helvetica,sans-Serif" font-size="10.00">model.MainModel.updateDescribable</text>
<text text-anchor="middle" x="1101" y="-7" font-family="Helvetica,sans-Serif" font-size="10.00">State</text>
</a>
</g>
</g>
<!-- Node21&#45;&gt;Node22 -->
<g id="edge22" class="edge"><title>Node21&#45;&gt;Node22</title>
<path fill="none" stroke="midnightblue" d="M971.35,-15C982.164,-15 993.173,-15 1003.97,-15"/>
<polygon fill="midnightblue" stroke="midnightblue" points="971.054,-11.5001 961.054,-15 971.054,-18.5001 971.054,-11.5001"/>
</g>
<!-- Node24 -->
<g id="node24" class="node"><title>Node24</title>
<g id="a_node24"><a xlink:href="../../d0/db5/classview_1_1editor_1_1_editor_screen.html#a5f5fb5168dd6e42923a567640bbab58f" target="_top" xlink:title="view.editor.EditorScreen.update\lInfoBox">
<polygon fill="white" stroke="black" points="1017.5,-49 1017.5,-79 1184.5,-79 1184.5,-49 1017.5,-49"/>
<text text-anchor="start" x="1025.5" y="-67" font-family="Helvetica,sans-Serif" font-size="10.00">view.editor.EditorScreen.update</text>
<text text-anchor="middle" x="1101" y="-56" font-family="Helvetica,sans-Serif" font-size="10.00">InfoBox</text>
</a>
</g>
</g>
<!-- Node21&#45;&gt;Node24 -->
<g id="edge25" class="edge"><title>Node21&#45;&gt;Node24</title>
<path fill="none" stroke="midnightblue" d="M953.263,-32.1854C978.535,-37.6647 1006.29,-43.6815 1030.79,-48.9938"/>
<polygon fill="midnightblue" stroke="midnightblue" points="953.858,-28.7331 943.343,-30.0346 952.375,-35.5741 953.858,-28.7331"/>
</g>
<!-- Node23 -->
<g id="node23" class="node"><title>Node23</title>
<g id="a_node23"><a xlink:href="../../d0/db5/classview_1_1editor_1_1_editor_screen.html#a47de3e6af78c842ca02d2ace8085c21a" target="_top" xlink:title="view.editor.EditorScreen.init\lInfoBox">
<polygon fill="white" stroke="black" points="1242,-0 1242,-30 1390,-30 1390,-0 1242,-0"/>
<text text-anchor="start" x="1250" y="-18" font-family="Helvetica,sans-Serif" font-size="10.00">view.editor.EditorScreen.init</text>
<text text-anchor="middle" x="1316" y="-7" font-family="Helvetica,sans-Serif" font-size="10.00">InfoBox</text>
</a>
</g>
</g>
<!-- Node22&#45;&gt;Node23 -->
<g id="edge23" class="edge"><title>Node22&#45;&gt;Node23</title>
<path fill="none" stroke="midnightblue" d="M1208.56,-15C1219.83,-15 1231.1,-15 1241.87,-15"/>
<polygon fill="midnightblue" stroke="midnightblue" points="1208.22,-11.5001 1198.22,-15 1208.22,-18.5001 1208.22,-11.5001"/>
</g>
<!-- Node23&#45;&gt;Node18 -->
<g id="edge24" class="edge"><title>Node23&#45;&gt;Node18</title>
<path fill="none" stroke="midnightblue" d="M1385.25,-32.6014C1413.86,-39.9789 1445.99,-48.2652 1470.05,-54.472"/>
<polygon fill="midnightblue" stroke="midnightblue" points="1385.85,-29.1428 1375.3,-30.0346 1384.11,-35.921 1385.85,-29.1428"/>
</g>
<!-- Node24&#45;&gt;Node17 -->
<g id="edge26" class="edge"><title>Node24&#45;&gt;Node17</title>
<path fill="none" stroke="midnightblue" d="M1177.34,-81.3309C1200.98,-86.7712 1226.88,-92.7285 1249.77,-97.9938"/>
<polygon fill="midnightblue" stroke="midnightblue" points="1177.88,-77.8657 1167.35,-79.0346 1176.32,-84.6875 1177.88,-77.8657"/>
</g>
<!-- Node25 -->
<g id="node25" class="node"><title>Node25</title>
<g id="a_node25"><a xlink:href="../../d0/db5/classview_1_1editor_1_1_editor_screen.html#a46b5e664f69da1947e605de4336f09cf" target="_top" xlink:title="view.editor.EditorScreen.model\lUpdate">
<polygon fill="white" stroke="black" points="1234,-49 1234,-79 1398,-79 1398,-49 1234,-49"/>
<text text-anchor="start" x="1242" y="-67" font-family="Helvetica,sans-Serif" font-size="10.00">view.editor.EditorScreen.model</text>
<text text-anchor="middle" x="1316" y="-56" font-family="Helvetica,sans-Serif" font-size="10.00">Update</text>
</a>
</g>
</g>
<!-- Node24&#45;&gt;Node25 -->
<g id="edge27" class="edge"><title>Node24&#45;&gt;Node25</title>
<path fill="none" stroke="midnightblue" d="M1194.96,-64C1207.89,-64 1221.1,-64 1233.79,-64"/>
<polygon fill="midnightblue" stroke="midnightblue" points="1194.66,-60.5001 1184.66,-64 1194.66,-67.5001 1194.66,-60.5001"/>
</g>
</g>
</svg>
