<?xml version="1.0" encoding="UTF-8" standalone="no"?>
<!DOCTYPE svg PUBLIC "-//W3C//DTD SVG 1.1//EN"
 "http://www.w3.org/Graphics/SVG/1.1/DTD/svg11.dtd">
<!-- Generated by graphviz version 2.36.0 (20140111.2315)
 -->
<!-- Title: model.state.GameState.getGameUniverse Pages: 1 -->
<!--zoomable 729 -->
<svg id="main" version="1.1" xmlns="http://www.w3.org/2000/svg" xmlns:xlink="http://www.w3.org/1999/xlink" xml:space="preserve" onload="init(evt)">
<style type="text/css"><![CDATA[
.edge:hover path { stroke: red; }
.edge:hover polygon { stroke: red; fill: red; }
]]></style>
<script type="text/javascript"><![CDATA[
var edges = document.getElementsByTagName('g');
if (edges && edges.length) {
  for (var i=0;i<edges.length;i++) {
    if (edges[i].id.substr(0,4)=='edge') {
      edges[i].setAttribute('class','edge');
    }
  }
}
]]></script>
        <defs>
                <circle id="rim" cx="0" cy="0" r="7"/>
                <circle id="rim2" cx="0" cy="0" r="3.5"/>
                <g id="zoomPlus">
                        <use xlink:href="#rim" fill="#404040">
                                <set attributeName="fill" to="#808080" begin="zoomplus.mouseover" end="zoomplus.mouseout"/>
                        </use>
                        <path d="M-4,0h8M0,-4v8" fill="none" stroke="white" stroke-width="1.5" pointer-events="none"/>
                </g>
                <g id="zoomMin">
                        <use xlink:href="#rim" fill="#404040">
                                <set attributeName="fill" to="#808080" begin="zoomminus.mouseover" end="zoomminus.mouseout"/>
                        </use>
                        <path d="M-4,0h8" fill="none" stroke="white" stroke-width="1.5" pointer-events="none"/>
                </g>
                <g id="dirArrow">
                        <path fill="none" stroke="white" stroke-width="1.5" d="M0,-3.0v7 M-2.5,-0.5L0,-3.0L2.5,-0.5"/>
                </g>
               <g id="resetDef">
                       <use xlink:href="#rim2" fill="#404040">
                               <set attributeName="fill" to="#808080" begin="reset.mouseover" end="reset.mouseout"/>
                       </use>
               </g>
        </defs>

<script type="text/javascript">
var viewWidth = 1242;
var viewHeight = 729;
var sectionId = 'dynsection-5';
</script>
<script xlink:href="../../svgpan.js"/>
<svg id="graph" class="graph">
<g id="viewport">
<title>model.state.GameState.getGameUniverse</title>
<polygon fill="white" stroke="none" points="-4,4 -4,-724.994 1238,-724.994 1238,4 -4,4"/>
<!-- Node1 -->
<g id="node1" class="node"><title>Node1</title>
<polygon fill="#bfbfbf" stroke="black" points="0,-366 0,-396 152,-396 152,-366 0,-366"/>
<text text-anchor="start" x="8" y="-384" font-family="Helvetica,sans-Serif" font-size="10.00">model.state.GameState.get</text>
<text text-anchor="middle" x="76" y="-373" font-family="Helvetica,sans-Serif" font-size="10.00">GameUniverse</text>
</g>
<!-- Node2 -->
<g id="node2" class="node"><title>Node2</title>
<g id="a_node2"><a xlink:href="../../de/d21/classmodel_1_1_main_model.html#ad0bb08a7d763bbd67aa5ac062dde5121" target="_top" xlink:title="model.MainModel.createDrawable\lGameElementState">
<polygon fill="white" stroke="black" points="194.5,-598 194.5,-628 373.5,-628 373.5,-598 194.5,-598"/>
<text text-anchor="start" x="202.5" y="-616" font-family="Helvetica,sans-Serif" font-size="10.00">model.MainModel.createDrawable</text>
<text text-anchor="middle" x="284" y="-605" font-family="Helvetica,sans-Serif" font-size="10.00">GameElementState</text>
</a>
</g>
</g>
<!-- Node1&#45;&gt;Node2 -->
<g id="edge1" class="edge"><title>Node1&#45;&gt;Node2</title>
<path fill="none" stroke="midnightblue" d="M93.4435,-404.758C114.178,-434.117 151.538,-485.08 188,-525 213.017,-552.389 245.251,-581.029 265.005,-597.929"/>
<polygon fill="midnightblue" stroke="midnightblue" points="96.171,-402.551 87.5619,-396.376 90.441,-406.572 96.171,-402.551"/>
</g>
<!-- Node5 -->
<g id="node5" class="node"><title>Node5</title>
<g id="a_node5"><a xlink:href="../../de/d21/classmodel_1_1_main_model.html#a5cd9871b7c458b6efd3599a41e2ff939" target="_top" xlink:title="model.MainModel.createGame\lElementState">
<polygon fill="white" stroke="black" points="202,-273 202,-303 366,-303 366,-273 202,-273"/>
<text text-anchor="start" x="210" y="-291" font-family="Helvetica,sans-Serif" font-size="10.00">model.MainModel.createGame</text>
<text text-anchor="middle" x="284" y="-280" font-family="Helvetica,sans-Serif" font-size="10.00">ElementState</text>
</a>
</g>
</g>
<!-- Node1&#45;&gt;Node5 -->
<g id="edge4" class="edge"><title>Node1&#45;&gt;Node5</title>
<path fill="none" stroke="midnightblue" d="M105.614,-359.757C127.27,-344.56 158.266,-324.635 188,-312 195.906,-308.64 204.39,-305.672 212.916,-303.072"/>
<polygon fill="midnightblue" stroke="midnightblue" points="103.335,-357.083 97.2228,-365.738 107.398,-362.784 103.335,-357.083"/>
</g>
<!-- Node6 -->
<g id="node6" class="node"><title>Node6</title>
<g id="a_node6"><a xlink:href="../../de/d21/classmodel_1_1_main_model.html#a68bd2e83a07b0563f2100087fc429b22" target="_top" xlink:title="model.MainModel.createSelectable\lGameElementState">
<polygon fill="white" stroke="black" points="191.5,-486 191.5,-516 376.5,-516 376.5,-486 191.5,-486"/>
<text text-anchor="start" x="199.5" y="-504" font-family="Helvetica,sans-Serif" font-size="10.00">model.MainModel.createSelectable</text>
<text text-anchor="middle" x="284" y="-493" font-family="Helvetica,sans-Serif" font-size="10.00">GameElementState</text>
</a>
</g>
</g>
<!-- Node1&#45;&gt;Node6 -->
<g id="edge5" class="edge"><title>Node1&#45;&gt;Node6</title>
<path fill="none" stroke="midnightblue" d="M111.947,-401.358C153.074,-425.315 220.4,-464.534 257.122,-485.925"/>
<polygon fill="midnightblue" stroke="midnightblue" points="113.493,-398.207 103.09,-396.198 109.969,-404.256 113.493,-398.207"/>
</g>
<!-- Node8 -->
<g id="node8" class="node"><title>Node8</title>
<g id="a_node8"><a xlink:href="../../de/d21/classmodel_1_1_main_model.html#aa9afa0072f15587d9ef2b6fd4eb564da" target="_top" xlink:title="model.MainModel.getGameUniverse">
<polygon fill="white" stroke="black" points="188.5,-371.5 188.5,-390.5 379.5,-390.5 379.5,-371.5 188.5,-371.5"/>
<text text-anchor="middle" x="284" y="-378.5" font-family="Helvetica,sans-Serif" font-size="10.00">model.MainModel.getGameUniverse</text>
</a>
</g>
</g>
<!-- Node1&#45;&gt;Node8 -->
<g id="edge8" class="edge"><title>Node1&#45;&gt;Node8</title>
<path fill="none" stroke="midnightblue" d="M162.525,-381C171.033,-381 179.705,-381 188.299,-381"/>
<polygon fill="midnightblue" stroke="midnightblue" points="162.245,-377.5 152.245,-381 162.245,-384.5 162.245,-377.5"/>
</g>
<!-- Node25 -->
<g id="node25" class="node"><title>Node25</title>
<g id="a_node25"><a xlink:href="../../de/d21/classmodel_1_1_main_model.html#a82c8d6e91e52b19dfe6a7f5a7f81d600" target="_top" xlink:title="model.MainModel.updateSprites\lAndMasks">
<polygon fill="white" stroke="black" points="198.5,-322 198.5,-352 369.5,-352 369.5,-322 198.5,-322"/>
<text text-anchor="start" x="206.5" y="-340" font-family="Helvetica,sans-Serif" font-size="10.00">model.MainModel.updateSprites</text>
<text text-anchor="middle" x="284" y="-329" font-family="Helvetica,sans-Serif" font-size="10.00">AndMasks</text>
</a>
</g>
</g>
<!-- Node1&#45;&gt;Node25 -->
<g id="edge34" class="edge"><title>Node1&#45;&gt;Node25</title>
<path fill="none" stroke="midnightblue" d="M157.34,-363.84C175.595,-359.941 194.848,-355.829 212.65,-352.026"/>
<polygon fill="midnightblue" stroke="midnightblue" points="156.366,-360.469 147.317,-365.981 157.828,-367.315 156.366,-360.469"/>
</g>
<!-- Node3 -->
<g id="node3" class="node"><title>Node3</title>
<g id="a_node3"><a xlink:href="../../d9/dfb/classview_1_1editor_1_1_element_accordion_controller.html#a71bb33e7588f335fc2ebc1346924ad2d" target="_top" xlink:title="view.editor.ElementAccordion\lController.openDrawableGameElement\lWizard">
<polygon fill="white" stroke="black" points="629.5,-627.5 629.5,-668.5 832.5,-668.5 832.5,-627.5 629.5,-627.5"/>
<text text-anchor="start" x="637.5" y="-656.5" font-family="Helvetica,sans-Serif" font-size="10.00">view.editor.ElementAccordion</text>
<text text-anchor="start" x="637.5" y="-645.5" font-family="Helvetica,sans-Serif" font-size="10.00">Controller.openDrawableGameElement</text>
<text text-anchor="middle" x="731" y="-634.5" font-family="Helvetica,sans-Serif" font-size="10.00">Wizard</text>
</a>
</g>
</g>
<!-- Node2&#45;&gt;Node3 -->
<g id="edge2" class="edge"><title>Node2&#45;&gt;Node3</title>
<path fill="none" stroke="midnightblue" d="M307.011,-635.299C331.256,-658.127 372.599,-692.161 416,-706 489.678,-729.494 514.153,-721.089 590,-706 626.124,-698.813 664.608,-682.141 692.066,-668.507"/>
<polygon fill="midnightblue" stroke="midnightblue" points="309.391,-632.732 299.759,-628.321 304.538,-637.776 309.391,-632.732"/>
</g>
<!-- Node4 -->
<g id="node4" class="node"><title>Node4</title>
<g id="a_node4"><a xlink:href="../../d9/dfb/classview_1_1editor_1_1_element_accordion_controller.html#af80453486ff349552dab988fb64397c0" target="_top" xlink:title="view.editor.ElementAccordion\lController.init">
<polygon fill="white" stroke="black" points="879,-470 879,-500 1035,-500 1035,-470 879,-470"/>
<text text-anchor="start" x="887" y="-488" font-family="Helvetica,sans-Serif" font-size="10.00">view.editor.ElementAccordion</text>
<text text-anchor="middle" x="957" y="-477" font-family="Helvetica,sans-Serif" font-size="10.00">Controller.init</text>
</a>
</g>
</g>
<!-- Node3&#45;&gt;Node4 -->
<g id="edge3" class="edge"><title>Node3&#45;&gt;Node4</title>
<path fill="none" stroke="midnightblue" d="M777.015,-622.153C795.648,-610.982 817.241,-597.413 836,-584 874.447,-556.51 916.406,-520.341 939.109,-500.205"/>
<polygon fill="midnightblue" stroke="midnightblue" points="775.215,-619.151 768.408,-627.27 778.793,-625.168 775.215,-619.151"/>
</g>
<!-- Node7 -->
<g id="node7" class="node"><title>Node7</title>
<g id="a_node7"><a xlink:href="../../d9/dfb/classview_1_1editor_1_1_element_accordion_controller.html#a8564fdf017fa6f25e3e663cf076e0c04" target="_top" xlink:title="view.editor.ElementAccordion\lController.openSelectableGameElement\lWizard">
<polygon fill="white" stroke="black" points="626.5,-534.5 626.5,-575.5 835.5,-575.5 835.5,-534.5 626.5,-534.5"/>
<text text-anchor="start" x="634.5" y="-563.5" font-family="Helvetica,sans-Serif" font-size="10.00">view.editor.ElementAccordion</text>
<text text-anchor="start" x="634.5" y="-552.5" font-family="Helvetica,sans-Serif" font-size="10.00">Controller.openSelectableGameElement</text>
<text text-anchor="middle" x="731" y="-541.5" font-family="Helvetica,sans-Serif" font-size="10.00">Wizard</text>
</a>
</g>
</g>
<!-- Node6&#45;&gt;Node7 -->
<g id="edge6" class="edge"><title>Node6&#45;&gt;Node7</title>
<path fill="none" stroke="midnightblue" d="M351.886,-518.335C372.341,-523.09 394.987,-527.809 416,-531 485.729,-541.589 564.915,-547.6 626.322,-550.959"/>
<polygon fill="midnightblue" stroke="midnightblue" points="352.574,-514.902 342.036,-516.005 350.962,-521.713 352.574,-514.902"/>
</g>
<!-- Node7&#45;&gt;Node4 -->
<g id="edge7" class="edge"><title>Node7&#45;&gt;Node4</title>
<path fill="none" stroke="midnightblue" d="M807.36,-531.45C840.518,-521.088 878.492,-509.221 907.758,-500.076"/>
<polygon fill="midnightblue" stroke="midnightblue" points="806.195,-528.147 797.694,-534.471 808.283,-534.829 806.195,-528.147"/>
</g>
<!-- Node8&#45;&gt;Node3 -->
<g id="edge27" class="edge"><title>Node8&#45;&gt;Node3</title>
<path fill="none" stroke="midnightblue" d="M307.097,-396.627C329.24,-413.549 362.482,-442.638 380,-476 421.176,-554.415 347.951,-615.311 416,-672 448.818,-699.339 558.549,-684.364 639.079,-668.544"/>
<polygon fill="midnightblue" stroke="midnightblue" points="309.04,-393.711 298.928,-390.55 304.862,-399.327 309.04,-393.711"/>
</g>
<!-- Node8&#45;&gt;Node4 -->
<g id="edge25" class="edge"><title>Node8&#45;&gt;Node4</title>
<path fill="none" stroke="midnightblue" d="M318.241,-394.32C344.451,-404.42 382.11,-418.044 416,-427 576.897,-469.519 772.619,-480.978 878.664,-483.995"/>
<polygon fill="midnightblue" stroke="midnightblue" points="319.376,-391.007 308.788,-390.64 316.836,-397.53 319.376,-391.007"/>
</g>
<!-- Node8&#45;&gt;Node7 -->
<g id="edge28" class="edge"><title>Node8&#45;&gt;Node7</title>
<path fill="none" stroke="midnightblue" d="M299.747,-398.298C322.163,-423.387 367.371,-469.44 416,-493 435.034,-502.222 542.489,-522.404 626.461,-537.248"/>
<polygon fill="midnightblue" stroke="midnightblue" points="302.271,-395.868 293.047,-390.657 297.008,-400.483 302.271,-395.868"/>
</g>
<!-- Node9 -->
<g id="node9" class="node"><title>Node9</title>
<g id="a_node9"><a xlink:href="../../d4/d65/classview_1_1editor_1_1_tab_view_controller.html#a626ca47a8ac963b8940a59944ee3bcb6" target="_top" xlink:title="view.editor.TabViewController.add\lNumberAttributes">
<polygon fill="white" stroke="black" points="416.5,-344 416.5,-374 589.5,-374 589.5,-344 416.5,-344"/>
<text text-anchor="start" x="424.5" y="-362" font-family="Helvetica,sans-Serif" font-size="10.00">view.editor.TabViewController.add</text>
<text text-anchor="middle" x="503" y="-351" font-family="Helvetica,sans-Serif" font-size="10.00">NumberAttributes</text>
</a>
</g>
</g>
<!-- Node8&#45;&gt;Node9 -->
<g id="edge9" class="edge"><title>Node8&#45;&gt;Node9</title>
<path fill="none" stroke="midnightblue" d="M388.909,-370.465C398.146,-369.529 407.426,-368.588 416.483,-367.67"/>
<polygon fill="midnightblue" stroke="midnightblue" points="388.513,-366.988 378.917,-371.478 389.219,-373.952 388.513,-366.988"/>
</g>
<!-- Node12 -->
<g id="node12" class="node"><title>Node12</title>
<g id="a_node12"><a xlink:href="../../d9/dfb/classview_1_1editor_1_1_element_accordion_controller.html#ad68baa151a28fe9c9b5dab069865a7e3" target="_top" xlink:title="view.editor.ElementAccordion\lController.addNumberAttributes">
<polygon fill="white" stroke="black" points="418,-633 418,-663 588,-663 588,-633 418,-633"/>
<text text-anchor="start" x="426" y="-651" font-family="Helvetica,sans-Serif" font-size="10.00">view.editor.ElementAccordion</text>
<text text-anchor="middle" x="503" y="-640" font-family="Helvetica,sans-Serif" font-size="10.00">Controller.addNumberAttributes</text>
</a>
</g>
</g>
<!-- Node8&#45;&gt;Node12 -->
<g id="edge12" class="edge"><title>Node8&#45;&gt;Node12</title>
<path fill="none" stroke="midnightblue" d="M306.701,-396.842C328.525,-413.938 361.513,-443.164 380,-476 413,-534.613 369.464,-574.432 416,-623 419.657,-626.817 423.86,-630.061 428.399,-632.817"/>
<polygon fill="midnightblue" stroke="midnightblue" points="308.731,-393.988 298.661,-390.696 304.479,-399.55 308.731,-393.988"/>
</g>
<!-- Node13 -->
<g id="node13" class="node"><title>Node13</title>
<g id="a_node13"><a xlink:href="../../d9/dfb/classview_1_1editor_1_1_element_accordion_controller.html#a3bf1b5eaf1b993a7dd608f3a9598a153" target="_top" xlink:title="view.editor.ElementAccordion\lController.addStringAttributes">
<polygon fill="white" stroke="black" points="423.5,-584 423.5,-614 582.5,-614 582.5,-584 423.5,-584"/>
<text text-anchor="start" x="431.5" y="-602" font-family="Helvetica,sans-Serif" font-size="10.00">view.editor.ElementAccordion</text>
<text text-anchor="middle" x="503" y="-591" font-family="Helvetica,sans-Serif" font-size="10.00">Controller.addStringAttributes</text>
</a>
</g>
</g>
<!-- Node8&#45;&gt;Node13 -->
<g id="edge15" class="edge"><title>Node8&#45;&gt;Node13</title>
<path fill="none" stroke="midnightblue" d="M303.511,-397.37C323.531,-415.544 355.821,-446.251 380,-476 398.427,-498.671 396.286,-509.438 416,-531 434.88,-551.65 460.434,-571.006 478.772,-583.746"/>
<polygon fill="midnightblue" stroke="midnightblue" points="305.765,-394.69 295.988,-390.607 301.085,-399.896 305.765,-394.69"/>
</g>
<!-- Node14 -->
<g id="node14" class="node"><title>Node14</title>
<g id="a_node14"><a xlink:href="../../de/d21/classmodel_1_1_main_model.html#a4b5658ed9c29f4b1147dfc9ece8b36d5" target="_top" xlink:title="model.MainModel.addTerrain\lToLevel">
<polygon fill="white" stroke="black" points="426.5,-295 426.5,-325 579.5,-325 579.5,-295 426.5,-295"/>
<text text-anchor="start" x="434.5" y="-313" font-family="Helvetica,sans-Serif" font-size="10.00">model.MainModel.addTerrain</text>
<text text-anchor="middle" x="503" y="-302" font-family="Helvetica,sans-Serif" font-size="10.00">ToLevel</text>
</a>
</g>
</g>
<!-- Node8&#45;&gt;Node14 -->
<g id="edge18" class="edge"><title>Node8&#45;&gt;Node14</title>
<path fill="none" stroke="midnightblue" d="M359.166,-368.711C366.345,-366.539 373.404,-363.989 380,-361 398.217,-352.744 398.06,-342.84 416,-334 422.813,-330.643 430.169,-327.692 437.61,-325.114"/>
<polygon fill="midnightblue" stroke="midnightblue" points="358.028,-365.395 349.332,-371.447 359.905,-372.139 358.028,-365.395"/>
</g>
<!-- Node15 -->
<g id="node15" class="node"><title>Node15</title>
<g id="a_node15"><a xlink:href="../../de/d21/classmodel_1_1_main_model.html#a515a2b3f5e066e6c7959f91cce64181b" target="_top" xlink:title="model.MainModel.addUnitTo\lLevel">
<polygon fill="white" stroke="black" points="427.5,-246 427.5,-276 578.5,-276 578.5,-246 427.5,-246"/>
<text text-anchor="start" x="435.5" y="-264" font-family="Helvetica,sans-Serif" font-size="10.00">model.MainModel.addUnitTo</text>
<text text-anchor="middle" x="503" y="-253" font-family="Helvetica,sans-Serif" font-size="10.00">Level</text>
</a>
</g>
</g>
<!-- Node8&#45;&gt;Node15 -->
<g id="edge19" class="edge"><title>Node8&#45;&gt;Node15</title>
<path fill="none" stroke="midnightblue" d="M371.1,-366.959C374.219,-365.186 377.203,-363.207 380,-361 409.343,-337.85 387.42,-309.086 416,-285 420.03,-281.604 424.507,-278.686 429.24,-276.18"/>
<polygon fill="midnightblue" stroke="midnightblue" points="369.424,-363.883 361.99,-371.432 372.509,-370.166 369.424,-363.883"/>
</g>
<!-- Node16 -->
<g id="node16" class="node"><title>Node16</title>
<g id="a_node16"><a xlink:href="../../dc/de2/classengine_1_1_engine.html#a707225a32896b370f131105ef1c644e2" target="_top" xlink:title="engine.Engine.Engine">
<polygon fill="white" stroke="black" points="443.5,-207.5 443.5,-226.5 562.5,-226.5 562.5,-207.5 443.5,-207.5"/>
<text text-anchor="middle" x="503" y="-214.5" font-family="Helvetica,sans-Serif" font-size="10.00">engine.Engine.Engine</text>
</a>
</g>
</g>
<!-- Node8&#45;&gt;Node16 -->
<g id="edge20" class="edge"><title>Node8&#45;&gt;Node16</title>
<path fill="none" stroke="midnightblue" d="M373.648,-366.12C375.876,-364.56 378.002,-362.858 380,-361 422.343,-321.637 373.853,-275.573 416,-236 423.58,-228.883 433.201,-224.206 443.244,-221.176"/>
<polygon fill="midnightblue" stroke="midnightblue" points="371.432,-363.363 364.592,-371.455 374.985,-369.395 371.432,-363.363"/>
</g>
<!-- Node17 -->
<g id="node17" class="node"><title>Node17</title>
<g id="a_node17"><a xlink:href="../../d6/d00/classapplication_1_1_pong.html#a0125f26aebd7e1cc9e3fae602e3997f8" target="_top" xlink:title="application.Pong.hardCode\lAGame">
<polygon fill="white" stroke="black" points="658.5,-148 658.5,-178 803.5,-178 803.5,-148 658.5,-148"/>
<text text-anchor="start" x="666.5" y="-166" font-family="Helvetica,sans-Serif" font-size="10.00">application.Pong.hardCode</text>
<text text-anchor="middle" x="731" y="-155" font-family="Helvetica,sans-Serif" font-size="10.00">AGame</text>
</a>
</g>
</g>
<!-- Node8&#45;&gt;Node17 -->
<g id="edge21" class="edge"><title>Node8&#45;&gt;Node17</title>
<path fill="none" stroke="midnightblue" d="M374.596,-365.691C376.49,-364.247 378.297,-362.686 380,-361 432.719,-308.799 360.825,-247.598 416,-198 450.521,-166.969 576.644,-161.671 658.158,-161.643"/>
<polygon fill="midnightblue" stroke="midnightblue" points="372.342,-362.976 365.786,-371.299 376.102,-368.881 372.342,-362.976"/>
</g>
<!-- Node19 -->
<g id="node19" class="node"><title>Node19</title>
<g id="a_node19"><a xlink:href="../../d0/daf/classapplication_1_1_r_p_g.html#a57d0a7b674624b53b138a951b30f865d" target="_top" xlink:title="application.RPG.hardCode\lAGame">
<polygon fill="white" stroke="black" points="661,-66 661,-96 801,-96 801,-66 661,-66"/>
<text text-anchor="start" x="669" y="-84" font-family="Helvetica,sans-Serif" font-size="10.00">application.RPG.hardCode</text>
<text text-anchor="middle" x="731" y="-73" font-family="Helvetica,sans-Serif" font-size="10.00">AGame</text>
</a>
</g>
</g>
<!-- Node8&#45;&gt;Node19 -->
<g id="edge23" class="edge"><title>Node8&#45;&gt;Node19</title>
<path fill="none" stroke="midnightblue" d="M374.688,-365.781C376.555,-364.311 378.331,-362.72 380,-361 443.195,-295.863 353.23,-225.547 416,-160 470.814,-102.761 513.2,-140.561 590,-121 620.008,-113.357 653.354,-103.87 679.972,-96.0529"/>
<polygon fill="midnightblue" stroke="midnightblue" points="372.424,-363.08 365.975,-371.485 376.258,-368.936 372.424,-363.08"/>
</g>
<!-- Node21 -->
<g id="node21" class="node"><title>Node21</title>
<g id="a_node21"><a xlink:href="../../d9/dfb/classview_1_1editor_1_1_element_accordion_controller.html#ad27bc03ea1e0ab8cbfb82ae3113a5e76" target="_top" xlink:title="view.editor.ElementAccordion\lController.modelUpdate">
<polygon fill="white" stroke="black" points="425,-82 425,-112 581,-112 581,-82 425,-82"/>
<text text-anchor="start" x="433" y="-100" font-family="Helvetica,sans-Serif" font-size="10.00">view.editor.ElementAccordion</text>
<text text-anchor="middle" x="503" y="-89" font-family="Helvetica,sans-Serif" font-size="10.00">Controller.modelUpdate</text>
</a>
</g>
</g>
<!-- Node8&#45;&gt;Node21 -->
<g id="edge26" class="edge"><title>Node8&#45;&gt;Node21</title>
<path fill="none" stroke="midnightblue" d="M374.903,-365.708C376.695,-364.257 378.4,-362.691 380,-361 452.336,-284.584 348.705,-207.891 416,-127 421.057,-120.922 427.418,-116.074 434.383,-112.207"/>
<polygon fill="midnightblue" stroke="midnightblue" points="372.865,-362.861 366.53,-371.354 376.778,-368.665 372.865,-362.861"/>
</g>
<!-- Node22 -->
<g id="node22" class="node"><title>Node22</title>
<g id="a_node22"><a xlink:href="../../de/d21/classmodel_1_1_main_model.html#a4c06208d5fc1ed5694a1cfc76a116599" target="_top" xlink:title="model.MainModel.removeDrawable\lGameElement">
<polygon fill="white" stroke="black" points="638.5,-426 638.5,-456 823.5,-456 823.5,-426 638.5,-426"/>
<text text-anchor="start" x="646.5" y="-444" font-family="Helvetica,sans-Serif" font-size="10.00">model.MainModel.removeDrawable</text>
<text text-anchor="middle" x="731" y="-433" font-family="Helvetica,sans-Serif" font-size="10.00">GameElement</text>
</a>
</g>
</g>
<!-- Node8&#45;&gt;Node22 -->
<g id="edge29" class="edge"><title>Node8&#45;&gt;Node22</title>
<path fill="none" stroke="midnightblue" d="M355.364,-392.071C374.978,-395.067 396.307,-398.243 416,-401 490.696,-411.458 575.554,-422.2 638.207,-429.915"/>
<polygon fill="midnightblue" stroke="midnightblue" points="355.696,-388.581 345.28,-390.523 354.634,-395.5 355.696,-388.581"/>
</g>
<!-- Node23 -->
<g id="node23" class="node"><title>Node23</title>
<g id="a_node23"><a xlink:href="../../de/d21/classmodel_1_1_main_model.html#a245e01adfaf1f234878f391818d392b1" target="_top" xlink:title="model.MainModel.removeSelectable\lGameElement">
<polygon fill="white" stroke="black" points="635.5,-377 635.5,-407 826.5,-407 826.5,-377 635.5,-377"/>
<text text-anchor="start" x="643.5" y="-395" font-family="Helvetica,sans-Serif" font-size="10.00">model.MainModel.removeSelectable</text>
<text text-anchor="middle" x="731" y="-384" font-family="Helvetica,sans-Serif" font-size="10.00">GameElement</text>
</a>
</g>
</g>
<!-- Node8&#45;&gt;Node23 -->
<g id="edge31" class="edge"><title>Node8&#45;&gt;Node23</title>
<path fill="none" stroke="midnightblue" d="M389.982,-383.595C464.435,-385.435 563.509,-387.884 635.495,-389.664"/>
<polygon fill="midnightblue" stroke="midnightblue" points="389.729,-380.088 379.645,-383.34 389.556,-387.086 389.729,-380.088"/>
</g>
<!-- Node24 -->
<g id="node24" class="node"><title>Node24</title>
<g id="a_node24"><a xlink:href="../../de/d21/classmodel_1_1_main_model.html#aeafec1c0a2c8d787f6ce596c544a9190" target="_top" xlink:title="model.MainModel.setTerrain">
<polygon fill="white" stroke="black" points="428,-43.5 428,-62.5 578,-62.5 578,-43.5 428,-43.5"/>
<text text-anchor="middle" x="503" y="-50.5" font-family="Helvetica,sans-Serif" font-size="10.00">model.MainModel.setTerrain</text>
</a>
</g>
</g>
<!-- Node8&#45;&gt;Node24 -->
<g id="edge33" class="edge"><title>Node8&#45;&gt;Node24</title>
<path fill="none" stroke="midnightblue" d="M374.969,-365.769C376.742,-364.3 378.424,-362.713 380,-361 467.623,-265.731 328.852,-167.704 416,-72 419.397,-68.2692 423.348,-65.1844 427.652,-62.6413"/>
<polygon fill="midnightblue" stroke="midnightblue" points="372.921,-362.929 366.666,-371.48 376.889,-368.697 372.921,-362.929"/>
</g>
<!-- Node10 -->
<g id="node10" class="node"><title>Node10</title>
<g id="a_node10"><a xlink:href="../../d4/d65/classview_1_1editor_1_1_tab_view_controller.html#ae2a5da639fc38047249eeb0a5728dee0" target="_top" xlink:title="view.editor.TabViewController.launch\lNestedWizard">
<polygon fill="white" stroke="black" points="637.5,-328 637.5,-358 824.5,-358 824.5,-328 637.5,-328"/>
<text text-anchor="start" x="645.5" y="-346" font-family="Helvetica,sans-Serif" font-size="10.00">view.editor.TabViewController.launch</text>
<text text-anchor="middle" x="731" y="-335" font-family="Helvetica,sans-Serif" font-size="10.00">NestedWizard</text>
</a>
</g>
</g>
<!-- Node9&#45;&gt;Node10 -->
<g id="edge10" class="edge"><title>Node9&#45;&gt;Node10</title>
<path fill="none" stroke="midnightblue" d="M600.015,-352.202C612.313,-351.332 624.886,-350.442 637.132,-349.575"/>
<polygon fill="midnightblue" stroke="midnightblue" points="599.491,-348.731 589.763,-352.928 599.985,-355.713 599.491,-348.731"/>
</g>
<!-- Node11 -->
<g id="node11" class="node"><title>Node11</title>
<g id="a_node11"><a xlink:href="../../d4/d65/classview_1_1editor_1_1_tab_view_controller.html#a82e1e1f1eb84d1c30bde3a246304473e" target="_top" xlink:title="view.editor.TabViewController.init">
<polygon fill="white" stroke="black" points="872,-333.5 872,-352.5 1042,-352.5 1042,-333.5 872,-333.5"/>
<text text-anchor="middle" x="957" y="-340.5" font-family="Helvetica,sans-Serif" font-size="10.00">view.editor.TabViewController.init</text>
</a>
</g>
</g>
<!-- Node10&#45;&gt;Node11 -->
<g id="edge11" class="edge"><title>Node10&#45;&gt;Node11</title>
<path fill="none" stroke="midnightblue" d="M835.055,-343C847.409,-343 859.908,-343 871.947,-343"/>
<polygon fill="midnightblue" stroke="midnightblue" points="834.726,-339.5 824.726,-343 834.726,-346.5 834.726,-339.5"/>
</g>
<!-- Node12&#45;&gt;Node3 -->
<g id="edge14" class="edge"><title>Node12&#45;&gt;Node3</title>
<path fill="none" stroke="midnightblue" d="M598.322,-648C608.572,-648 619.034,-648 629.356,-648"/>
<polygon fill="midnightblue" stroke="midnightblue" points="598.154,-644.5 588.154,-648 598.154,-651.5 598.154,-644.5"/>
</g>
<!-- Node12&#45;&gt;Node7 -->
<g id="edge13" class="edge"><title>Node12&#45;&gt;Node7</title>
<path fill="none" stroke="midnightblue" d="M570.578,-629.868C577.191,-627.703 583.761,-625.402 590,-623 625.555,-609.31 664.415,-590.072 692.152,-575.551"/>
<polygon fill="midnightblue" stroke="midnightblue" points="569.366,-626.581 560.891,-632.94 571.482,-633.253 569.366,-626.581"/>
</g>
<!-- Node13&#45;&gt;Node3 -->
<g id="edge17" class="edge"><title>Node13&#45;&gt;Node3</title>
<path fill="none" stroke="midnightblue" d="M583.141,-616.159C600.021,-619.819 618.012,-623.719 635.404,-627.49"/>
<polygon fill="midnightblue" stroke="midnightblue" points="583.858,-612.733 573.343,-614.035 582.375,-619.574 583.858,-612.733"/>
</g>
<!-- Node13&#45;&gt;Node7 -->
<g id="edge16" class="edge"><title>Node13&#45;&gt;Node7</title>
<path fill="none" stroke="midnightblue" d="M591.176,-582.028C602.718,-579.781 614.639,-577.46 626.423,-575.165"/>
<polygon fill="midnightblue" stroke="midnightblue" points="590.291,-578.634 581.144,-583.981 591.629,-585.505 590.291,-578.634"/>
</g>
<!-- Node18 -->
<g id="node18" class="node"><title>Node18</title>
<g id="a_node18"><a xlink:href="../../d6/d00/classapplication_1_1_pong.html#aacfcba740564585303fb8097744d21a5" target="_top" xlink:title="application.Pong.start">
<polygon fill="white" stroke="black" points="896.5,-153.5 896.5,-172.5 1017.5,-172.5 1017.5,-153.5 896.5,-153.5"/>
<text text-anchor="middle" x="957" y="-160.5" font-family="Helvetica,sans-Serif" font-size="10.00">application.Pong.start</text>
</a>
</g>
</g>
<!-- Node17&#45;&gt;Node18 -->
<g id="edge22" class="edge"><title>Node17&#45;&gt;Node18</title>
<path fill="none" stroke="midnightblue" d="M814.086,-163C841.29,-163 871.034,-163 896.232,-163"/>
<polygon fill="midnightblue" stroke="midnightblue" points="813.799,-159.5 803.799,-163 813.799,-166.5 813.799,-159.5"/>
</g>
<!-- Node20 -->
<g id="node20" class="node"><title>Node20</title>
<g id="a_node20"><a xlink:href="../../d0/daf/classapplication_1_1_r_p_g.html#a6b8f1624ae2607c67f4e8cda49b544e9" target="_top" xlink:title="application.RPG.start">
<polygon fill="white" stroke="black" points="899,-71.5 899,-90.5 1015,-90.5 1015,-71.5 899,-71.5"/>
<text text-anchor="middle" x="957" y="-78.5" font-family="Helvetica,sans-Serif" font-size="10.00">application.RPG.start</text>
</a>
</g>
</g>
<!-- Node19&#45;&gt;Node20 -->
<g id="edge24" class="edge"><title>Node19&#45;&gt;Node20</title>
<path fill="none" stroke="midnightblue" d="M811.122,-81C840.058,-81 872.207,-81 898.855,-81"/>
<polygon fill="midnightblue" stroke="midnightblue" points="811.035,-77.5001 801.035,-81 811.035,-84.5001 811.035,-77.5001"/>
</g>
<!-- Node22&#45;&gt;Node4 -->
<g id="edge30" class="edge"><title>Node22&#45;&gt;Node4</title>
<path fill="none" stroke="midnightblue" d="M818.534,-457.998C838.628,-461.945 859.877,-466.119 879.503,-469.974"/>
<polygon fill="midnightblue" stroke="midnightblue" points="818.949,-454.512 808.462,-456.019 817.599,-461.381 818.949,-454.512"/>
</g>
<!-- Node23&#45;&gt;Node4 -->
<g id="edge32" class="edge"><title>Node23&#45;&gt;Node4</title>
<path fill="none" stroke="midnightblue" d="M818.838,-409.984C824.705,-411.827 830.476,-413.83 836,-416 872.46,-430.323 911.139,-454.38 934.431,-469.968"/>
<polygon fill="midnightblue" stroke="midnightblue" points="819.479,-406.523 808.896,-407.03 817.485,-413.233 819.479,-406.523"/>
</g>
<!-- Node26 -->
<g id="node26" class="node"><title>Node26</title>
<g id="a_node26"><a xlink:href="../../de/d21/classmodel_1_1_main_model.html#a1a794fbf99be0146fb0a50681091ad7d" target="_top" xlink:title="model.MainModel.loadGame">
<polygon fill="white" stroke="black" points="426.5,-5.5 426.5,-24.5 579.5,-24.5 579.5,-5.5 426.5,-5.5"/>
<text text-anchor="middle" x="503" y="-12.5" font-family="Helvetica,sans-Serif" font-size="10.00">model.MainModel.loadGame</text>
</a>
</g>
</g>
<!-- Node25&#45;&gt;Node26 -->
<g id="edge35" class="edge"><title>Node25&#45;&gt;Node26</title>
<path fill="none" stroke="midnightblue" d="M376.688,-315.442C377.839,-314.347 378.944,-313.201 380,-312 462.256,-218.427 331.894,-125.914 416,-34 419.406,-30.2774 423.364,-27.1988 427.673,-24.6601"/>
<polygon fill="midnightblue" stroke="midnightblue" points="374.158,-312.981 368.494,-321.934 378.505,-318.467 374.158,-312.981"/>
</g>
<!-- Node26&#45;&gt;Node17 -->
<g id="edge36" class="edge"><title>Node26&#45;&gt;Node17</title>
<path fill="none" stroke="midnightblue" d="M582.658,-29.0738C585.219,-30.5622 587.678,-32.1995 590,-34 617.961,-55.6777 601.481,-79.4937 626,-105 644.124,-123.854 669.73,-138.237 690.999,-147.964"/>
<polygon fill="midnightblue" stroke="midnightblue" points="584.117,-25.8902 573.605,-24.5661 580.997,-32.1564 584.117,-25.8902"/>
</g>
<!-- Node26&#45;&gt;Node19 -->
<g id="edge37" class="edge"><title>Node26&#45;&gt;Node19</title>
<path fill="none" stroke="midnightblue" d="M561.414,-26.7927C571.002,-29.017 580.814,-31.4512 590,-34 623.723,-43.3572 661.286,-56.0981 689.007,-65.9541"/>
<polygon fill="midnightblue" stroke="midnightblue" points="562.064,-23.3515 551.538,-24.5548 560.517,-30.1784 562.064,-23.3515"/>
</g>
<!-- Node27 -->
<g id="node27" class="node"><title>Node27</title>
<g id="a_node27"><a xlink:href="../../d0/d3f/classview_1_1splash_1_1_splash_screen.html#a7e50ce5a292e35b972ae31ec4df4f5ca" target="_top" xlink:title="view.splash.SplashScreen.load\lGameAndSwitchScreen">
<polygon fill="white" stroke="black" points="650,-0 650,-30 812,-30 812,-0 650,-0"/>
<text text-anchor="start" x="658" y="-18" font-family="Helvetica,sans-Serif" font-size="10.00">view.splash.SplashScreen.load</text>
<text text-anchor="middle" x="731" y="-7" font-family="Helvetica,sans-Serif" font-size="10.00">GameAndSwitchScreen</text>
</a>
</g>
</g>
<!-- Node26&#45;&gt;Node27 -->
<g id="edge38" class="edge"><title>Node26&#45;&gt;Node27</title>
<path fill="none" stroke="midnightblue" d="M589.761,-15C609.482,-15 630.381,-15 649.854,-15"/>
<polygon fill="midnightblue" stroke="midnightblue" points="589.569,-11.5001 579.569,-15 589.569,-18.5001 589.569,-11.5001"/>
</g>
<!-- Node28 -->
<g id="node28" class="node"><title>Node28</title>
<g id="a_node28"><a xlink:href="../../d0/d3f/classview_1_1splash_1_1_splash_screen.html#a6425dffd80436213cce943fc3aa27563" target="_top" xlink:title="view.splash.SplashScreen.set\lUpButtons">
<polygon fill="white" stroke="black" points="878.5,-0 878.5,-30 1035.5,-30 1035.5,-0 878.5,-0"/>
<text text-anchor="start" x="886.5" y="-18" font-family="Helvetica,sans-Serif" font-size="10.00">view.splash.SplashScreen.set</text>
<text text-anchor="middle" x="957" y="-7" font-family="Helvetica,sans-Serif" font-size="10.00">UpButtons</text>
</a>
</g>
</g>
<!-- Node27&#45;&gt;Node28 -->
<g id="edge39" class="edge"><title>Node27&#45;&gt;Node28</title>
<path fill="none" stroke="midnightblue" d="M822.41,-15C840.897,-15 860.2,-15 878.2,-15"/>
<polygon fill="midnightblue" stroke="midnightblue" points="822.236,-11.5001 812.236,-15 822.236,-18.5001 822.236,-11.5001"/>
</g>
<!-- Node29 -->
<g id="node29" class="node"><title>Node29</title>
<g id="a_node29"><a xlink:href="../../d0/d3f/classview_1_1splash_1_1_splash_screen.html#af2da20a5479f92e4669ae93f0d6121de" target="_top" xlink:title="view.splash.SplashScreen.init">
<polygon fill="white" stroke="black" points="1078,-5.5 1078,-24.5 1234,-24.5 1234,-5.5 1078,-5.5"/>
<text text-anchor="middle" x="1156" y="-12.5" font-family="Helvetica,sans-Serif" font-size="10.00">view.splash.SplashScreen.init</text>
</a>
</g>
</g>
<!-- Node28&#45;&gt;Node29 -->
<g id="edge40" class="edge"><title>Node28&#45;&gt;Node29</title>
<path fill="none" stroke="midnightblue" d="M1045.75,-15C1056.44,-15 1067.3,-15 1077.82,-15"/>
<polygon fill="midnightblue" stroke="midnightblue" points="1045.58,-11.5001 1035.58,-15 1045.58,-18.5001 1045.58,-11.5001"/>
</g>
</g>
</svg>
        <g id="navigator" transform="translate(0 0)" fill="#404254">
                <rect fill="#f2f5e9" fill-opacity="0.5" stroke="#606060" stroke-width=".5" x="0" y="0" width="60" height="60"/>
                <use id="zoomplus" xlink:href="#zoomPlus" x="17" y="9" onmousedown="handleZoom(evt,'in')"/>
                <use id="zoomminus" xlink:href="#zoomMin" x="42" y="9" onmousedown="handleZoom(evt,'out')"/>
                <use id="reset" xlink:href="#resetDef" x="30" y="36" onmousedown="handleReset()"/>
                <g id="arrowUp" xlink:href="#dirArrow" transform="translate(30 24)" onmousedown="handlePan(0,-1)">
                  <use xlink:href="#rim" fill="#404040">
                        <set attributeName="fill" to="#808080" begin="arrowUp.mouseover" end="arrowUp.mouseout"/>
                  </use>
                  <path fill="none" stroke="white" stroke-width="1.5" d="M0,-3.0v7 M-2.5,-0.5L0,-3.0L2.5,-0.5"/>
                </g>
                <g id="arrowRight" xlink:href="#dirArrow" transform="rotate(90) translate(36 -43)" onmousedown="handlePan(1,0)">
                  <use xlink:href="#rim" fill="#404040">
                        <set attributeName="fill" to="#808080" begin="arrowRight.mouseover" end="arrowRight.mouseout"/>
                  </use>
                  <path fill="none" stroke="white" stroke-width="1.5" d="M0,-3.0v7 M-2.5,-0.5L0,-3.0L2.5,-0.5"/>
                </g>
                <g id="arrowDown" xlink:href="#dirArrow" transform="rotate(180) translate(-30 -48)" onmousedown="handlePan(0,1)">
                  <use xlink:href="#rim" fill="#404040">
                        <set attributeName="fill" to="#808080" begin="arrowDown.mouseover" end="arrowDown.mouseout"/>
                  </use>
                  <path fill="none" stroke="white" stroke-width="1.5" d="M0,-3.0v7 M-2.5,-0.5L0,-3.0L2.5,-0.5"/>
                </g>
                <g id="arrowLeft" xlink:href="#dirArrow" transform="rotate(270) translate(-36 17)" onmousedown="handlePan(-1,0)">
                  <use xlink:href="#rim" fill="#404040">
                        <set attributeName="fill" to="#808080" begin="arrowLeft.mouseover" end="arrowLeft.mouseout"/>
                  </use>
                  <path fill="none" stroke="white" stroke-width="1.5" d="M0,-3.0v7 M-2.5,-0.5L0,-3.0L2.5,-0.5"/>
                </g>
        </g>
        <svg viewBox="0 0 15 15" width="100%" height="30px" preserveAspectRatio="xMaxYMin meet">
         <g id="arrow_out" transform="scale(0.3 0.3)">
          <a xlink:href="classmodel_1_1state_1_1_game_state_ada7cc6194ba1f8235db868e033be6922_icgraph_org.svg" target="_base">
           <rect id="button" ry="5" rx="5" y="6" x="6" height="38" width="38"
                fill="#f2f5e9" fill-opacity="0.5" stroke="#606060" stroke-width="1.0"/>
           <path id="arrow"
             d="M 11.500037,31.436501 C 11.940474,20.09759 22.043105,11.32322 32.158766,21.979434 L 37.068811,17.246167 C 37.068811,17.246167 37.088388,32 37.088388,32 L 22.160133,31.978069 C 22.160133,31.978069 26.997745,27.140456 26.997745,27.140456 C 18.528582,18.264221 13.291696,25.230495 11.500037,31.436501 z"
             style="fill:#404040;"/>
          </a>
         </g>
        </svg>
</svg>
