<?xml version="1.0" encoding="UTF-8" standalone="no"?>
<!DOCTYPE svg PUBLIC "-//W3C//DTD SVG 1.1//EN"
 "http://www.w3.org/Graphics/SVG/1.1/DTD/svg11.dtd">
<!-- Generated by graphviz version 2.36.0 (20140111.2315)
 -->
<!-- Title: engine.visuals.elementVisuals.animations.Animator Pages: 1 -->
<svg width="1292pt" height="458pt"
 viewBox="0.00 0.00 1292.00 458.00" xmlns="http://www.w3.org/2000/svg" xmlns:xlink="http://www.w3.org/1999/xlink">
<g id="graph0" class="graph" transform="scale(1 1) rotate(0) translate(4 454)">
<title>engine.visuals.elementVisuals.animations.Animator</title>
<polygon fill="white" stroke="none" points="-4,4 -4,-454 1288,-454 1288,4 -4,4"/>
<!-- Node1 -->
<g id="node1" class="node"><title>Node1</title>
<polygon fill="#bfbfbf" stroke="black" points="1064,-189 1064,-219 1284,-219 1284,-189 1064,-189"/>
<text text-anchor="start" x="1072" y="-207" font-family="Helvetica,sans-Serif" font-size="10.00">engine.visuals.elementVisuals.animations.</text>
<text text-anchor="middle" x="1174" y="-196" font-family="Helvetica,sans-Serif" font-size="10.00">Animator</text>
</g>
<!-- Node2 -->
<g id="node2" class="node"><title>Node2</title>
<g id="a_node2"><a xlink:href="../../d3/dc9/interfacemodel_1_1state_1_1gameelement_1_1traits_1_1_updatable.html" target="_top" xlink:title="model.state.gameelement.traits.\lUpdatable">
<polygon fill="white" stroke="black" points="349,-331 349,-361 525,-361 525,-331 349,-331"/>
<text text-anchor="start" x="357" y="-349" font-family="Helvetica,sans-Serif" font-size="10.00">model.state.gameelement.traits.</text>
<text text-anchor="middle" x="437" y="-338" font-family="Helvetica,sans-Serif" font-size="10.00">Updatable</text>
</a>
</g>
</g>
<!-- Node2&#45;&gt;Node1 -->
<g id="edge1" class="edge"><title>Node2&#45;&gt;Node1</title>
<path fill="none" stroke="midnightblue" d="M535.33,-359.556C659.458,-372.547 878.12,-380.786 1046,-308 1094.11,-287.142 1138.67,-242.541 1159.93,-219.102"/>
<polygon fill="midnightblue" stroke="midnightblue" points="535.407,-356.044 525.089,-358.451 534.655,-363.004 535.407,-356.044"/>
</g>
<!-- Node14 -->
<g id="node14" class="node"><title>Node14</title>
<g id="a_node14"><a xlink:href="../../d2/d9b/classengine_1_1visuals_1_1element_visuals_1_1animations_1_1_animation_sequence.html" target="_top" xlink:title="engine.visuals.elementVisuals.animations.\lAnimationSequence">
<polygon fill="white" stroke="black" points="698,-286 698,-316 918,-316 918,-286 698,-286"/>
<text text-anchor="start" x="706" y="-304" font-family="Helvetica,sans-Serif" font-size="10.00">engine.visuals.elementVisuals.animations.</text>
<text text-anchor="middle" x="808" y="-293" font-family="Helvetica,sans-Serif" font-size="10.00">AnimationSequence</text>
</a>
</g>
</g>
<!-- Node2&#45;&gt;Node14 -->
<g id="edge17" class="edge"><title>Node2&#45;&gt;Node14</title>
<path fill="none" stroke="midnightblue" d="M535.59,-334.099C585.45,-328.018 646.287,-320.599 697.715,-314.327"/>
<polygon fill="midnightblue" stroke="midnightblue" points="534.951,-330.651 525.448,-335.336 535.798,-337.599 534.951,-330.651"/>
</g>
<!-- Node3 -->
<g id="node3" class="node"><title>Node3</title>
<g id="a_node3"><a xlink:href="../../da/dc5/classmodel_1_1state_1_1gameelement_1_1_attribute_container.html" target="_top" xlink:title="model.state.gameelement.\lAttributeContainer">
<polygon fill="white" stroke="black" points="363,-381 363,-411 511,-411 511,-381 363,-381"/>
<text text-anchor="start" x="371" y="-399" font-family="Helvetica,sans-Serif" font-size="10.00">model.state.gameelement.</text>
<text text-anchor="middle" x="437" y="-388" font-family="Helvetica,sans-Serif" font-size="10.00">AttributeContainer</text>
</a>
</g>
</g>
<!-- Node3&#45;&gt;Node1 -->
<g id="edge2" class="edge"><title>Node3&#45;&gt;Node1</title>
<path fill="none" stroke="#9a32cd" stroke-dasharray="5,2" d="M521.179,-409.584C644.999,-425.382 880.896,-438.064 1046,-340 1099.33,-308.325 1144.1,-247.663 1163.16,-219.311"/>
<polygon fill="#9a32cd" stroke="#9a32cd" points="521.377,-406.08 511.006,-408.247 520.465,-413.021 521.377,-406.08"/>
<text text-anchor="middle" x="808" y="-423" font-family="Helvetica,sans-Serif" font-size="10.00"> attributesOfInterest</text>
</g>
<!-- Node4 -->
<g id="node4" class="node"><title>Node4</title>
<polygon fill="white" stroke="#bfbfbf" points="52.5,-189.5 52.5,-208.5 123.5,-208.5 123.5,-189.5 52.5,-189.5"/>
<text text-anchor="middle" x="88" y="-196.5" font-family="Helvetica,sans-Serif" font-size="10.00">Serializable</text>
</g>
<!-- Node4&#45;&gt;Node3 -->
<g id="edge3" class="edge"><title>Node4&#45;&gt;Node3</title>
<path fill="none" stroke="midnightblue" d="M101.246,-216.952C119.076,-241.92 154.405,-287.19 194,-315 244.667,-350.587 312.134,-371.458 362.958,-383.076"/>
<polygon fill="midnightblue" stroke="midnightblue" points="104.098,-214.923 95.4929,-208.741 98.3648,-218.94 104.098,-214.923"/>
</g>
<!-- Node10 -->
<g id="node10" class="node"><title>Node10</title>
<g id="a_node10"><a xlink:href="../../d5/d66/classengine_1_1visuals_1_1element_visuals_1_1animations_1_1_animator_state.html" target="_top" xlink:title="engine.visuals.elementVisuals.animations.\lAnimatorState">
<polygon fill="white" stroke="black" points="698,-81 698,-111 918,-111 918,-81 698,-81"/>
<text text-anchor="start" x="706" y="-99" font-family="Helvetica,sans-Serif" font-size="10.00">engine.visuals.elementVisuals.animations.</text>
<text text-anchor="middle" x="808" y="-88" font-family="Helvetica,sans-Serif" font-size="10.00">AnimatorState</text>
</a>
</g>
</g>
<!-- Node4&#45;&gt;Node10 -->
<g id="edge12" class="edge"><title>Node4&#45;&gt;Node10</title>
<path fill="none" stroke="midnightblue" d="M119.598,-185.311C164.327,-166.044 250.664,-131.646 328,-117 453.132,-93.3026 599.788,-90.4299 697.543,-91.9545"/>
<polygon fill="midnightblue" stroke="midnightblue" points="117.958,-182.208 110.185,-189.408 120.751,-188.627 117.958,-182.208"/>
</g>
<!-- Node12 -->
<g id="node12" class="node"><title>Node12</title>
<g id="a_node12"><a xlink:href="../../d3/db1/classengine_1_1visuals_1_1_dimension.html" target="_top" xlink:title="engine.visuals.Dimension">
<polygon fill="white" stroke="black" points="368,-0.5 368,-19.5 506,-19.5 506,-0.5 368,-0.5"/>
<text text-anchor="middle" x="437" y="-7.5" font-family="Helvetica,sans-Serif" font-size="10.00">engine.visuals.Dimension</text>
</a>
</g>
</g>
<!-- Node4&#45;&gt;Node12 -->
<g id="edge14" class="edge"><title>Node4&#45;&gt;Node12</title>
<path fill="none" stroke="midnightblue" d="M101.517,-180.883C119.464,-156.071 154.706,-111.472 194,-84 246.03,-47.6237 316.426,-28.7359 367.877,-19.1834"/>
<polygon fill="midnightblue" stroke="midnightblue" points="98.4445,-179.165 95.5135,-189.346 104.154,-183.215 98.4445,-179.165"/>
</g>
<!-- Node4&#45;&gt;Node14 -->
<g id="edge18" class="edge"><title>Node4&#45;&gt;Node14</title>
<path fill="none" stroke="midnightblue" d="M121.948,-212.213C167.447,-229.789 252.467,-260.24 328,-274 453.373,-296.839 599.982,-302.022 697.66,-302.496"/>
<polygon fill="midnightblue" stroke="midnightblue" points="123.179,-208.936 112.591,-208.563 120.636,-215.458 123.179,-208.936"/>
</g>
<!-- Node5 -->
<g id="node5" class="node"><title>Node5</title>
<polygon fill="white" stroke="#bfbfbf" points="0,-420 0,-450 176,-450 176,-420 0,-420"/>
<text text-anchor="start" x="8" y="-438" font-family="Helvetica,sans-Serif" font-size="10.00">Set&lt; model.state.gameelement.</text>
<text text-anchor="middle" x="88" y="-427" font-family="Helvetica,sans-Serif" font-size="10.00">Attribute&lt; String &gt; &gt;</text>
</g>
<!-- Node5&#45;&gt;Node3 -->
<g id="edge4" class="edge"><title>Node5&#45;&gt;Node3</title>
<path fill="none" stroke="#9a32cd" stroke-dasharray="5,2" d="M186.063,-424.091C242.128,-417.79 311.502,-409.993 362.926,-404.213"/>
<polygon fill="#9a32cd" stroke="#9a32cd" points="185.661,-420.614 176.115,-425.209 186.443,-427.57 185.661,-420.614"/>
<text text-anchor="middle" x="252" y="-425" font-family="Helvetica,sans-Serif" font-size="10.00"> myTextualAttributes</text>
</g>
<!-- Node6 -->
<g id="node6" class="node"><title>Node6</title>
<polygon fill="white" stroke="#bfbfbf" points="0,-371 0,-401 176,-401 176,-371 0,-371"/>
<text text-anchor="start" x="8" y="-389" font-family="Helvetica,sans-Serif" font-size="10.00">Set&lt; model.state.gameelement.</text>
<text text-anchor="middle" x="88" y="-378" font-family="Helvetica,sans-Serif" font-size="10.00">Attribute&lt; Number &gt; &gt;</text>
</g>
<!-- Node6&#45;&gt;Node3 -->
<g id="edge5" class="edge"><title>Node6&#45;&gt;Node3</title>
<path fill="none" stroke="#9a32cd" stroke-dasharray="5,2" d="M186.411,-388.807C242.415,-390.421 311.609,-392.415 362.926,-393.894"/>
<polygon fill="#9a32cd" stroke="#9a32cd" points="186.212,-385.3 176.115,-388.511 186.01,-392.297 186.212,-385.3"/>
<text text-anchor="middle" x="252" y="-396" font-family="Helvetica,sans-Serif" font-size="10.00"> myNumericalAttributes</text>
</g>
<!-- Node7 -->
<g id="node7" class="node"><title>Node7</title>
<polygon fill="white" stroke="#bfbfbf" points="344.5,-235 344.5,-265 529.5,-265 529.5,-235 344.5,-235"/>
<text text-anchor="start" x="352.5" y="-253" font-family="Helvetica,sans-Serif" font-size="10.00">List&lt; engine.visuals.element</text>
<text text-anchor="middle" x="437" y="-242" font-family="Helvetica,sans-Serif" font-size="10.00">Visuals.animations.AnimationTag &gt;</text>
</g>
<!-- Node7&#45;&gt;Node1 -->
<g id="edge6" class="edge"><title>Node7&#45;&gt;Node1</title>
<path fill="none" stroke="#9a32cd" stroke-dasharray="5,2" d="M539.944,-247.476C660.877,-243.863 868.473,-235.716 1046,-219 1051.86,-218.448 1057.86,-217.85 1063.92,-217.221"/>
<polygon fill="#9a32cd" stroke="#9a32cd" points="539.487,-243.987 529.594,-247.78 539.692,-250.984 539.487,-243.987"/>
<text text-anchor="middle" x="808" y="-245" font-family="Helvetica,sans-Serif" font-size="10.00"> currentDirection</text>
</g>
<!-- Node7&#45;&gt;Node14 -->
<g id="edge19" class="edge"><title>Node7&#45;&gt;Node14</title>
<path fill="none" stroke="#9a32cd" stroke-dasharray="5,2" d="M539.589,-258.923C582.961,-263.247 634.072,-269.026 680,-276 698.329,-278.783 718.034,-282.369 736.325,-285.951"/>
<polygon fill="#9a32cd" stroke="#9a32cd" points="539.896,-255.436 529.601,-257.939 539.21,-262.402 539.896,-255.436"/>
<text text-anchor="middle" x="622" y="-279" font-family="Helvetica,sans-Serif" font-size="10.00"> myTags</text>
</g>
<!-- Node8 -->
<g id="node8" class="node"><title>Node8</title>
<g id="a_node8"><a xlink:href="../../d1/d5c/classmodel_1_1sprite_1_1_sprite_image_container.html" target="_top" xlink:title="model.sprite.SpriteImage\lContainer">
<polygon fill="white" stroke="black" points="739,-189 739,-219 877,-219 877,-189 739,-189"/>
<text text-anchor="start" x="747" y="-207" font-family="Helvetica,sans-Serif" font-size="10.00">model.sprite.SpriteImage</text>
<text text-anchor="middle" x="808" y="-196" font-family="Helvetica,sans-Serif" font-size="10.00">Container</text>
</a>
</g>
</g>
<!-- Node8&#45;&gt;Node1 -->
<g id="edge7" class="edge"><title>Node8&#45;&gt;Node1</title>
<path fill="none" stroke="#9a32cd" stroke-dasharray="5,2" d="M887.117,-204C938.662,-204 1006.92,-204 1063.81,-204"/>
<polygon fill="#9a32cd" stroke="#9a32cd" points="887.039,-200.5 877.039,-204 887.039,-207.5 887.039,-200.5"/>
<text text-anchor="middle" x="991" y="-207" font-family="Helvetica,sans-Serif" font-size="10.00"> myImages</text>
</g>
<!-- Node9 -->
<g id="node9" class="node"><title>Node9</title>
<polygon fill="white" stroke="#bfbfbf" points="403,-173.5 403,-192.5 471,-192.5 471,-173.5 403,-173.5"/>
<text text-anchor="middle" x="437" y="-180.5" font-family="Helvetica,sans-Serif" font-size="10.00">ImageView</text>
</g>
<!-- Node9&#45;&gt;Node1 -->
<g id="edge9" class="edge"><title>Node9&#45;&gt;Node1</title>
<path fill="none" stroke="#9a32cd" stroke-dasharray="5,2" d="M481.193,-176.467C565.376,-164.663 757.24,-142.309 918,-157 983.9,-163.022 1058.2,-177.626 1109.52,-188.969"/>
<polygon fill="#9a32cd" stroke="#9a32cd" points="480.638,-173.011 471.232,-177.886 481.625,-179.941 480.638,-173.011"/>
<text text-anchor="middle" x="808" y="-171" font-family="Helvetica,sans-Serif" font-size="10.00"> mySprite</text>
<text text-anchor="middle" x="808" y="-160" font-family="Helvetica,sans-Serif" font-size="10.00">mySpriteTeamOverlay</text>
</g>
<!-- Node9&#45;&gt;Node8 -->
<g id="edge8" class="edge"><title>Node9&#45;&gt;Node8</title>
<path fill="none" stroke="#9a32cd" stroke-dasharray="5,2" d="M481.123,-185.454C544.504,-189.061 663.434,-195.83 738.75,-200.116"/>
<polygon fill="#9a32cd" stroke="#9a32cd" points="481.254,-181.956 471.071,-184.882 480.856,-188.945 481.254,-181.956"/>
<text text-anchor="middle" x="622" y="-211" font-family="Helvetica,sans-Serif" font-size="10.00"> mySpritesheet</text>
<text text-anchor="middle" x="622" y="-200" font-family="Helvetica,sans-Serif" font-size="10.00">myColorMask</text>
</g>
<!-- Node10&#45;&gt;Node1 -->
<g id="edge10" class="edge"><title>Node10&#45;&gt;Node1</title>
<path fill="none" stroke="#9a32cd" stroke-dasharray="5,2" d="M928.299,-99.0103C966.712,-102.75 1008.91,-109.857 1046,-123 1088.64,-138.113 1131.65,-169.791 1155.05,-188.743"/>
<polygon fill="#9a32cd" stroke="#9a32cd" points="928.373,-95.5027 918.098,-98.0863 927.742,-102.474 928.373,-95.5027"/>
<text text-anchor="middle" x="991" y="-126" font-family="Helvetica,sans-Serif" font-size="10.00"> myState</text>
</g>
<!-- Node11 -->
<g id="node11" class="node"><title>Node11</title>
<g id="a_node11"><a xlink:href="../../df/d74/interfaceutil_1_1_j_s_o_nable.html" target="_top" xlink:title="util.JSONable">
<polygon fill="white" stroke="black" points="398,-126.5 398,-145.5 476,-145.5 476,-126.5 398,-126.5"/>
<text text-anchor="middle" x="437" y="-133.5" font-family="Helvetica,sans-Serif" font-size="10.00">util.JSONable</text>
</a>
</g>
</g>
<!-- Node11&#45;&gt;Node10 -->
<g id="edge11" class="edge"><title>Node11&#45;&gt;Node10</title>
<path fill="none" stroke="midnightblue" d="M486.308,-130.763C539.715,-124.974 627.479,-115.46 697.706,-107.848"/>
<polygon fill="midnightblue" stroke="midnightblue" points="485.664,-127.313 476.1,-131.87 486.419,-134.272 485.664,-127.313"/>
</g>
<!-- Node12&#45;&gt;Node10 -->
<g id="edge13" class="edge"><title>Node12&#45;&gt;Node10</title>
<path fill="none" stroke="#9a32cd" stroke-dasharray="5,2" d="M516.144,-7.23066C566.211,-8.85294 630.789,-17.5346 680,-47 691.439,-53.8495 686.821,-63.7335 698,-71 703.942,-74.862 710.405,-78.131 717.12,-80.8975"/>
<polygon fill="#9a32cd" stroke="#9a32cd" points="516.092,-3.72856 506.012,-6.9914 515.927,-10.7266 516.092,-3.72856"/>
<text text-anchor="middle" x="622" y="-50" font-family="Helvetica,sans-Serif" font-size="10.00"> myViewportSize</text>
</g>
<!-- Node13 -->
<g id="node13" class="node"><title>Node13</title>
<polygon fill="white" stroke="#bfbfbf" points="328,-39 328,-69 546,-69 546,-39 328,-39"/>
<text text-anchor="start" x="336" y="-57" font-family="Helvetica,sans-Serif" font-size="10.00">Set&lt; engine.visuals.element</text>
<text text-anchor="middle" x="437" y="-46" font-family="Helvetica,sans-Serif" font-size="10.00">Visuals.animations.AnimationSequence &gt;</text>
</g>
<!-- Node13&#45;&gt;Node10 -->
<g id="edge15" class="edge"><title>Node13&#45;&gt;Node10</title>
<path fill="none" stroke="#9a32cd" stroke-dasharray="5,2" d="M556.249,-60.8886C595.695,-63.8238 639.822,-67.7981 680,-73 696.555,-75.1434 714.23,-77.9872 730.972,-80.9422"/>
<polygon fill="#9a32cd" stroke="#9a32cd" points="556.288,-57.3822 546.06,-60.1456 555.779,-64.3637 556.288,-57.3822"/>
<text text-anchor="middle" x="622" y="-76" font-family="Helvetica,sans-Serif" font-size="10.00"> myAnimationSquences</text>
</g>
<!-- Node14&#45;&gt;Node1 -->
<g id="edge16" class="edge"><title>Node14&#45;&gt;Node1</title>
<path fill="none" stroke="#9a32cd" stroke-dasharray="5,2" d="M928.233,-293.606C966.462,-289.074 1008.57,-281.77 1046,-270 1084.4,-257.925 1125.06,-234.702 1149.74,-219.277"/>
<polygon fill="#9a32cd" stroke="#9a32cd" points="927.626,-290.152 918.084,-294.756 928.414,-297.108 927.626,-290.152"/>
<text text-anchor="middle" x="991" y="-296" font-family="Helvetica,sans-Serif" font-size="10.00"> myCurrentAnimation</text>
</g>
<!-- Node15 -->
<g id="node15" class="node"><title>Node15</title>
<polygon fill="white" stroke="#bfbfbf" points="785,-42.5 785,-61.5 831,-61.5 831,-42.5 785,-42.5"/>
<text text-anchor="middle" x="808" y="-49.5" font-family="Helvetica,sans-Serif" font-size="10.00">Group</text>
</g>
<!-- Node15&#45;&gt;Node1 -->
<g id="edge20" class="edge"><title>Node15&#45;&gt;Node1</title>
<path fill="none" stroke="#9a32cd" stroke-dasharray="5,2" d="M841.426,-50.6842C888.763,-50.0453 978.492,-53.7569 1046,-86 1097.06,-110.386 1141.62,-162.593 1161.69,-188.608"/>
<polygon fill="#9a32cd" stroke="#9a32cd" points="841.09,-47.1904 831.166,-50.9012 841.238,-54.1888 841.09,-47.1904"/>
<text text-anchor="middle" x="991" y="-89" font-family="Helvetica,sans-Serif" font-size="10.00"> mySpriteDisplay</text>
</g>
<!-- Node16 -->
<g id="node16" class="node"><title>Node16</title>
<polygon fill="white" stroke="#bfbfbf" points="769.5,-4.5 769.5,-23.5 846.5,-23.5 846.5,-4.5 769.5,-4.5"/>
<text text-anchor="middle" x="808" y="-11.5" font-family="Helvetica,sans-Serif" font-size="10.00">Rectangle2D</text>
</g>
<!-- Node16&#45;&gt;Node1 -->
<g id="edge21" class="edge"><title>Node16&#45;&gt;Node1</title>
<path fill="none" stroke="#9a32cd" stroke-dasharray="5,2" d="M856.877,-9.30263C907.222,-6.62196 987.15,-8.94561 1046,-42 1108.16,-76.9144 1150.57,-155.795 1166.26,-188.912"/>
<polygon fill="#9a32cd" stroke="#9a32cd" points="856.364,-5.82763 846.601,-9.94136 856.799,-12.8142 856.364,-5.82763"/>
<text text-anchor="middle" x="991" y="-45" font-family="Helvetica,sans-Serif" font-size="10.00"> mySpritesheetBounds</text>
</g>
</g>
</svg>
