<?xml version="1.0" encoding="UTF-8" standalone="no"?>
<!DOCTYPE svg PUBLIC "-//W3C//DTD SVG 1.1//EN"
 "http://www.w3.org/Graphics/SVG/1.1/DTD/svg11.dtd">
<!-- Generated by graphviz version 2.36.0 (20140111.2315)
 -->
<!-- Title: game_engine.visuals.SelectionBox.update Pages: 1 -->
<!--zoomable 293 -->
<svg id="main" version="1.1" xmlns="http://www.w3.org/2000/svg" xmlns:xlink="http://www.w3.org/1999/xlink" xml:space="preserve" onload="init(evt)">
<style type="text/css"><![CDATA[
.edge:hover path { stroke: red; }
.edge:hover polygon { stroke: red; fill: red; }
]]></style>
<script type="text/javascript"><![CDATA[
var edges = document.getElementsByTagName('g');
if (edges && edges.length) {
  for (var i=0;i<edges.length;i++) {
    if (edges[i].id.substr(0,4)=='edge') {
      edges[i].setAttribute('class','edge');
    }
  }
}
]]></script>
        <defs>
                <circle id="rim" cx="0" cy="0" r="7"/>
                <circle id="rim2" cx="0" cy="0" r="3.5"/>
                <g id="zoomPlus">
                        <use xlink:href="#rim" fill="#404040">
                                <set attributeName="fill" to="#808080" begin="zoomplus.mouseover" end="zoomplus.mouseout"/>
                        </use>
                        <path d="M-4,0h8M0,-4v8" fill="none" stroke="white" stroke-width="1.5" pointer-events="none"/>
                </g>
                <g id="zoomMin">
                        <use xlink:href="#rim" fill="#404040">
                                <set attributeName="fill" to="#808080" begin="zoomminus.mouseover" end="zoomminus.mouseout"/>
                        </use>
                        <path d="M-4,0h8" fill="none" stroke="white" stroke-width="1.5" pointer-events="none"/>
                </g>
                <g id="dirArrow">
                        <path fill="none" stroke="white" stroke-width="1.5" d="M0,-3.0v7 M-2.5,-0.5L0,-3.0L2.5,-0.5"/>
                </g>
               <g id="resetDef">
                       <use xlink:href="#rim2" fill="#404040">
                               <set attributeName="fill" to="#808080" begin="reset.mouseover" end="reset.mouseout"/>
                       </use>
               </g>
        </defs>

<script type="text/javascript">
var viewWidth = 824;
var viewHeight = 293;
var sectionId = 'dynsection-16';
</script>
<script xlink:href="../../svgpan.js"/>
<svg id="graph" class="graph">
<g id="viewport">
<title>game_engine.visuals.SelectionBox.update</title>
<polygon fill="white" stroke="none" points="-4,4 -4,-289.027 820,-289.027 820,4 -4,4"/>
<!-- Node1 -->
<g id="node1" class="node"><title>Node1</title>
<polygon fill="#bfbfbf" stroke="black" points="0,-123.237 0,-153.237 164,-153.237 164,-123.237 0,-123.237"/>
<text text-anchor="start" x="8" y="-141.237" font-family="Helvetica,sans-Serif" font-size="10.00">game_engine.visuals.Selection</text>
<text text-anchor="middle" x="82" y="-130.237" font-family="Helvetica,sans-Serif" font-size="10.00">Box.update</text>
</g>
<!-- Node2 -->
<g id="node2" class="node"><title>Node2</title>
<g id="a_node2"><a xlink:href="../../df/d1f/classgame__engine_1_1_u_i_1_1_mouse_manager.html#a44ae788495fd3e6b981d410aa104fa89" target="_top" xlink:title="game_engine.UI.MouseManager.get\lLastClick">
<polygon fill="white" stroke="black" points="426.5,-254.237 426.5,-284.237 615.5,-284.237 615.5,-254.237 426.5,-254.237"/>
<text text-anchor="start" x="434.5" y="-272.237" font-family="Helvetica,sans-Serif" font-size="10.00">game_engine.UI.MouseManager.get</text>
<text text-anchor="middle" x="521" y="-261.237" font-family="Helvetica,sans-Serif" font-size="10.00">LastClick</text>
</a>
</g>
</g>
<!-- Node1&#45;&gt;Node2 -->
<g id="edge1" class="edge"><title>Node1&#45;&gt;Node2</title>
<path fill="none" stroke="midnightblue" d="M92.6359,-153.591C110.217,-180.018 150.306,-233.369 200,-255.237 267.639,-285.002 351.285,-287.638 416.092,-283.289"/>
<polygon fill="midnightblue" stroke="midnightblue" points="416.611,-286.76 426.326,-282.534 416.096,-279.779 416.611,-286.76"/>
</g>
<!-- Node3 -->
<g id="node3" class="node"><title>Node3</title>
<g id="a_node3"><a xlink:href="../../df/d1f/classgame__engine_1_1_u_i_1_1_mouse_manager.html#a61b584cd1eb7455a6ef7d8a42817c839" target="_top" xlink:title="game_engine.UI.MouseManager.get\lMapLoc">
<polygon fill="white" stroke="black" points="200.5,-216.237 200.5,-246.237 389.5,-246.237 389.5,-216.237 200.5,-216.237"/>
<text text-anchor="start" x="208.5" y="-234.237" font-family="Helvetica,sans-Serif" font-size="10.00">game_engine.UI.MouseManager.get</text>
<text text-anchor="middle" x="295" y="-223.237" font-family="Helvetica,sans-Serif" font-size="10.00">MapLoc</text>
</a>
</g>
</g>
<!-- Node1&#45;&gt;Node3 -->
<g id="edge2" class="edge"><title>Node1&#45;&gt;Node3</title>
<path fill="none" stroke="midnightblue" d="M104.944,-153.392C127.793,-168.585 165.061,-191.744 200,-206.237 205.886,-208.678 212.079,-210.943 218.361,-213.031"/>
<polygon fill="midnightblue" stroke="midnightblue" points="217.684,-216.487 228.273,-216.164 219.794,-209.813 217.684,-216.487"/>
</g>
<!-- Node4 -->
<g id="node4" class="node"><title>Node4</title>
<g id="a_node4"><a xlink:href="../../dc/d95/classgame__engine_1_1visuals_1_1_selection_box.html#a57e83911264f7db94b6192643e3dabb6" target="_top" xlink:title="game_engine.visuals.Selection\lBox.reactToDrag">
<polygon fill="white" stroke="black" points="213,-167.237 213,-197.237 377,-197.237 377,-167.237 213,-167.237"/>
<text text-anchor="start" x="221" y="-185.237" font-family="Helvetica,sans-Serif" font-size="10.00">game_engine.visuals.Selection</text>
<text text-anchor="middle" x="295" y="-174.237" font-family="Helvetica,sans-Serif" font-size="10.00">Box.reactToDrag</text>
</a>
</g>
</g>
<!-- Node1&#45;&gt;Node4 -->
<g id="edge3" class="edge"><title>Node1&#45;&gt;Node4</title>
<path fill="none" stroke="midnightblue" d="M155.024,-153.256C173.341,-157.076 193.159,-161.209 211.935,-165.124"/>
<polygon fill="midnightblue" stroke="midnightblue" points="211.439,-168.596 221.943,-167.211 212.868,-161.743 211.439,-168.596"/>
</g>
<!-- Node6 -->
<g id="node6" class="node"><title>Node6</title>
<g id="a_node6"><a xlink:href="../../dc/d95/classgame__engine_1_1visuals_1_1_selection_box.html#a492fcf3d24fbdbdffe003cf329aa9956" target="_top" xlink:title="game_engine.visuals.Selection\lBox.setVisible">
<polygon fill="white" stroke="black" points="439,-123.237 439,-153.237 603,-153.237 603,-123.237 439,-123.237"/>
<text text-anchor="start" x="447" y="-141.237" font-family="Helvetica,sans-Serif" font-size="10.00">game_engine.visuals.Selection</text>
<text text-anchor="middle" x="521" y="-130.237" font-family="Helvetica,sans-Serif" font-size="10.00">Box.setVisible</text>
</a>
</g>
</g>
<!-- Node1&#45;&gt;Node6 -->
<g id="edge16" class="edge"><title>Node1&#45;&gt;Node6</title>
<path fill="none" stroke="midnightblue" d="M164.172,-138.237C239.173,-138.237 350.478,-138.237 428.58,-138.237"/>
<polygon fill="midnightblue" stroke="midnightblue" points="428.893,-141.737 438.893,-138.237 428.893,-134.737 428.893,-141.737"/>
</g>
<!-- Node9 -->
<g id="node9" class="node"><title>Node9</title>
<g id="a_node9"><a xlink:href="../../dc/d95/classgame__engine_1_1visuals_1_1_selection_box.html#a087a1af61a1ce54069a0866027e8362f" target="_top" xlink:title="game_engine.visuals.Selection\lBox.released">
<polygon fill="white" stroke="black" points="213,-79.2369 213,-109.237 377,-109.237 377,-79.2369 213,-79.2369"/>
<text text-anchor="start" x="221" y="-97.2369" font-family="Helvetica,sans-Serif" font-size="10.00">game_engine.visuals.Selection</text>
<text text-anchor="middle" x="295" y="-86.2369" font-family="Helvetica,sans-Serif" font-size="10.00">Box.released</text>
</a>
</g>
</g>
<!-- Node1&#45;&gt;Node9 -->
<g id="edge9" class="edge"><title>Node1&#45;&gt;Node9</title>
<path fill="none" stroke="midnightblue" d="M155.024,-123.218C173.341,-119.398 193.159,-115.265 211.935,-111.35"/>
<polygon fill="midnightblue" stroke="midnightblue" points="212.868,-114.731 221.943,-109.263 211.439,-107.878 212.868,-114.731"/>
</g>
<!-- Node10 -->
<g id="node10" class="node"><title>Node10</title>
<g id="a_node10"><a xlink:href="../../dc/d95/classgame__engine_1_1visuals_1_1_selection_box.html#a397ecadd9bfab3560020536c327c777a" target="_top" xlink:title="game_engine.visuals.Selection\lBox.resetBox">
<polygon fill="white" stroke="black" points="213,-30.2369 213,-60.2369 377,-60.2369 377,-30.2369 213,-30.2369"/>
<text text-anchor="start" x="221" y="-48.2369" font-family="Helvetica,sans-Serif" font-size="10.00">game_engine.visuals.Selection</text>
<text text-anchor="middle" x="295" y="-37.2369" font-family="Helvetica,sans-Serif" font-size="10.00">Box.resetBox</text>
</a>
</g>
</g>
<!-- Node1&#45;&gt;Node10 -->
<g id="edge10" class="edge"><title>Node1&#45;&gt;Node10</title>
<path fill="none" stroke="midnightblue" d="M104.456,-123.055C127.214,-107.571 164.687,-83.8109 200,-69.2369 205.06,-67.1486 210.35,-65.2038 215.731,-63.3996"/>
<polygon fill="midnightblue" stroke="midnightblue" points="217.011,-66.6654 225.483,-60.3033 214.892,-59.9936 217.011,-66.6654"/>
</g>
<!-- Node11 -->
<g id="node11" class="node"><title>Node11</title>
<g id="a_node11"><a xlink:href="../../dc/d95/classgame__engine_1_1visuals_1_1_selection_box.html#a557b88fbb1e37b7f2a22b3e83aebed1c" target="_top" xlink:title="game_engine.visuals.Selection\lBox.setLocation">
<polygon fill="white" stroke="black" points="439,-25.2369 439,-55.2369 603,-55.2369 603,-25.2369 439,-25.2369"/>
<text text-anchor="start" x="447" y="-43.2369" font-family="Helvetica,sans-Serif" font-size="10.00">game_engine.visuals.Selection</text>
<text text-anchor="middle" x="521" y="-32.2369" font-family="Helvetica,sans-Serif" font-size="10.00">Box.setLocation</text>
</a>
</g>
</g>
<!-- Node1&#45;&gt;Node11 -->
<g id="edge15" class="edge"><title>Node1&#45;&gt;Node11</title>
<path fill="none" stroke="midnightblue" d="M92.2312,-122.956C109.463,-96.1077 149.404,-41.3208 200,-20.2369 286.993,16.0138 398.886,-4.43312 464.693,-22.4384"/>
<polygon fill="midnightblue" stroke="midnightblue" points="463.879,-25.8453 474.453,-25.184 465.775,-19.1069 463.879,-25.8453"/>
</g>
<!-- Node4&#45;&gt;Node2 -->
<g id="edge4" class="edge"><title>Node4&#45;&gt;Node2</title>
<path fill="none" stroke="midnightblue" d="M367.94,-197.31C375.55,-199.87 383.042,-202.829 390,-206.237 408.203,-215.154 408.297,-224.364 426,-234.237 437.041,-240.394 449.378,-245.874 461.39,-250.565"/>
<polygon fill="midnightblue" stroke="midnightblue" points="460.33,-253.906 470.922,-254.156 462.798,-247.355 460.33,-253.906"/>
</g>
<!-- Node5 -->
<g id="node5" class="node"><title>Node5</title>
<g id="a_node5"><a xlink:href="../../dc/d95/classgame__engine_1_1visuals_1_1_selection_box.html#a53564ae96122a205192e9e1a6cdc10c8" target="_top" xlink:title="game_engine.visuals.Selection\lBox.setSize">
<polygon fill="white" stroke="black" points="439,-74.2369 439,-104.237 603,-104.237 603,-74.2369 439,-74.2369"/>
<text text-anchor="start" x="447" y="-92.2369" font-family="Helvetica,sans-Serif" font-size="10.00">game_engine.visuals.Selection</text>
<text text-anchor="middle" x="521" y="-81.2369" font-family="Helvetica,sans-Serif" font-size="10.00">Box.setSize</text>
</a>
</g>
</g>
<!-- Node4&#45;&gt;Node5 -->
<g id="edge5" class="edge"><title>Node4&#45;&gt;Node5</title>
<path fill="none" stroke="midnightblue" d="M320.095,-167.198C345.589,-151.831 387.392,-128.166 426,-113.237 431.485,-111.116 437.222,-109.127 443.041,-107.274"/>
<polygon fill="midnightblue" stroke="midnightblue" points="444.33,-110.54 452.88,-104.284 442.294,-103.843 444.33,-110.54"/>
</g>
<!-- Node4&#45;&gt;Node6 -->
<g id="edge6" class="edge"><title>Node4&#45;&gt;Node6</title>
<path fill="none" stroke="midnightblue" d="M372.462,-167.218C392.086,-163.363 413.334,-159.189 433.43,-155.242"/>
<polygon fill="midnightblue" stroke="midnightblue" points="434.365,-158.625 443.503,-153.263 433.016,-151.756 434.365,-158.625"/>
</g>
<!-- Node7 -->
<g id="node7" class="node"><title>Node7</title>
<g id="a_node7"><a xlink:href="../../dc/d95/classgame__engine_1_1visuals_1_1_selection_box.html#a0cbd7bdf1841a501812fb1de49b3c67e" target="_top" xlink:title="game_engine.visuals.Selection\lBox.setX">
<polygon fill="white" stroke="black" points="652,-172.237 652,-202.237 816,-202.237 816,-172.237 652,-172.237"/>
<text text-anchor="start" x="660" y="-190.237" font-family="Helvetica,sans-Serif" font-size="10.00">game_engine.visuals.Selection</text>
<text text-anchor="middle" x="734" y="-179.237" font-family="Helvetica,sans-Serif" font-size="10.00">Box.setX</text>
</a>
</g>
</g>
<!-- Node4&#45;&gt;Node7 -->
<g id="edge7" class="edge"><title>Node4&#45;&gt;Node7</title>
<path fill="none" stroke="midnightblue" d="M377.028,-192.32C393.223,-193.952 410.133,-195.385 426,-196.237 510.323,-200.764 531.618,-199.478 616,-196.237 624.34,-195.917 633.007,-195.468 641.683,-194.941"/>
<polygon fill="midnightblue" stroke="midnightblue" points="642.098,-198.422 651.853,-194.289 641.65,-191.436 642.098,-198.422"/>
</g>
<!-- Node8 -->
<g id="node8" class="node"><title>Node8</title>
<g id="a_node8"><a xlink:href="../../dc/d95/classgame__engine_1_1visuals_1_1_selection_box.html#a354cf30e0d225e5c905d29142c5afe7a" target="_top" xlink:title="game_engine.visuals.Selection\lBox.setY">
<polygon fill="white" stroke="black" points="652,-90.2369 652,-120.237 816,-120.237 816,-90.2369 652,-90.2369"/>
<text text-anchor="start" x="660" y="-108.237" font-family="Helvetica,sans-Serif" font-size="10.00">game_engine.visuals.Selection</text>
<text text-anchor="middle" x="734" y="-97.2369" font-family="Helvetica,sans-Serif" font-size="10.00">Box.setY</text>
</a>
</g>
</g>
<!-- Node4&#45;&gt;Node8 -->
<g id="edge8" class="edge"><title>Node4&#45;&gt;Node8</title>
<path fill="none" stroke="midnightblue" d="M377.272,-185.792C442.792,-186.614 536.745,-183.14 616,-162.237 645.955,-154.336 677.385,-138.548 700.117,-125.588"/>
<polygon fill="midnightblue" stroke="midnightblue" points="702.111,-128.477 708.991,-120.42 698.588,-122.428 702.111,-128.477"/>
</g>
<!-- Node10&#45;&gt;Node5 -->
<g id="edge14" class="edge"><title>Node10&#45;&gt;Node5</title>
<path fill="none" stroke="midnightblue" d="M372.462,-60.2562C392.086,-64.111 413.334,-68.2848 433.43,-72.232"/>
<polygon fill="midnightblue" stroke="midnightblue" points="433.016,-75.7175 443.503,-74.2107 434.365,-68.8488 433.016,-75.7175"/>
</g>
<!-- Node10&#45;&gt;Node11 -->
<g id="edge11" class="edge"><title>Node10&#45;&gt;Node11</title>
<path fill="none" stroke="midnightblue" d="M377.186,-43.4247C393.776,-43.0544 411.343,-42.6623 428.272,-42.2844"/>
<polygon fill="midnightblue" stroke="midnightblue" points="428.796,-45.7737 438.715,-42.0513 428.639,-38.7754 428.796,-45.7737"/>
</g>
<!-- Node11&#45;&gt;Node7 -->
<g id="edge12" class="edge"><title>Node11&#45;&gt;Node7</title>
<path fill="none" stroke="midnightblue" d="M601.702,-55.4108C606.773,-57.9203 611.601,-60.8401 616,-64.2369 642.139,-84.4188 630.037,-104.575 652,-129.237 664.885,-143.705 682.002,-156.617 697.181,-166.563"/>
<polygon fill="midnightblue" stroke="midnightblue" points="695.53,-169.661 705.848,-172.067 699.282,-163.752 695.53,-169.661"/>
</g>
<!-- Node11&#45;&gt;Node8 -->
<g id="edge13" class="edge"><title>Node11&#45;&gt;Node8</title>
<path fill="none" stroke="midnightblue" d="M584.152,-55.2905C594.82,-58.1066 605.762,-61.1425 616,-64.2369 638.322,-70.9836 662.705,-79.3631 683.408,-86.7851"/>
<polygon fill="midnightblue" stroke="midnightblue" points="682.35,-90.1241 692.944,-90.229 684.727,-83.5403 682.35,-90.1241"/>
</g>
</g>
</svg>
        <g id="navigator" transform="translate(0 0)" fill="#404254">
                <rect fill="#f2f5e9" fill-opacity="0.5" stroke="#606060" stroke-width=".5" x="0" y="0" width="60" height="60"/>
                <use id="zoomplus" xlink:href="#zoomPlus" x="17" y="9" onmousedown="handleZoom(evt,'in')"/>
                <use id="zoomminus" xlink:href="#zoomMin" x="42" y="9" onmousedown="handleZoom(evt,'out')"/>
                <use id="reset" xlink:href="#resetDef" x="30" y="36" onmousedown="handleReset()"/>
                <g id="arrowUp" xlink:href="#dirArrow" transform="translate(30 24)" onmousedown="handlePan(0,-1)">
                  <use xlink:href="#rim" fill="#404040">
                        <set attributeName="fill" to="#808080" begin="arrowUp.mouseover" end="arrowUp.mouseout"/>
                  </use>
                  <path fill="none" stroke="white" stroke-width="1.5" d="M0,-3.0v7 M-2.5,-0.5L0,-3.0L2.5,-0.5"/>
                </g>
                <g id="arrowRight" xlink:href="#dirArrow" transform="rotate(90) translate(36 -43)" onmousedown="handlePan(1,0)">
                  <use xlink:href="#rim" fill="#404040">
                        <set attributeName="fill" to="#808080" begin="arrowRight.mouseover" end="arrowRight.mouseout"/>
                  </use>
                  <path fill="none" stroke="white" stroke-width="1.5" d="M0,-3.0v7 M-2.5,-0.5L0,-3.0L2.5,-0.5"/>
                </g>
                <g id="arrowDown" xlink:href="#dirArrow" transform="rotate(180) translate(-30 -48)" onmousedown="handlePan(0,1)">
                  <use xlink:href="#rim" fill="#404040">
                        <set attributeName="fill" to="#808080" begin="arrowDown.mouseover" end="arrowDown.mouseout"/>
                  </use>
                  <path fill="none" stroke="white" stroke-width="1.5" d="M0,-3.0v7 M-2.5,-0.5L0,-3.0L2.5,-0.5"/>
                </g>
                <g id="arrowLeft" xlink:href="#dirArrow" transform="rotate(270) translate(-36 17)" onmousedown="handlePan(-1,0)">
                  <use xlink:href="#rim" fill="#404040">
                        <set attributeName="fill" to="#808080" begin="arrowLeft.mouseover" end="arrowLeft.mouseout"/>
                  </use>
                  <path fill="none" stroke="white" stroke-width="1.5" d="M0,-3.0v7 M-2.5,-0.5L0,-3.0L2.5,-0.5"/>
                </g>
        </g>
        <svg viewBox="0 0 15 15" width="100%" height="30px" preserveAspectRatio="xMaxYMin meet">
         <g id="arrow_out" transform="scale(0.3 0.3)">
          <a xlink:href="classgame__engine_1_1visuals_1_1_selection_box_ae79c9b0043661436e66328a1c1dc1f2a_cgraph_org.svg" target="_base">
           <rect id="button" ry="5" rx="5" y="6" x="6" height="38" width="38"
                fill="#f2f5e9" fill-opacity="0.5" stroke="#606060" stroke-width="1.0"/>
           <path id="arrow"
             d="M 11.500037,31.436501 C 11.940474,20.09759 22.043105,11.32322 32.158766,21.979434 L 37.068811,17.246167 C 37.068811,17.246167 37.088388,32 37.088388,32 L 22.160133,31.978069 C 22.160133,31.978069 26.997745,27.140456 26.997745,27.140456 C 18.528582,18.264221 13.291696,25.230495 11.500037,31.436501 z"
             style="fill:#404040;"/>
          </a>
         </g>
        </svg>
</svg>
