<?xml version="1.0" encoding="UTF-8" standalone="no"?>
<!DOCTYPE svg PUBLIC "-//W3C//DTD SVG 1.1//EN"
 "http://www.w3.org/Graphics/SVG/1.1/DTD/svg11.dtd">
<!-- Generated by graphviz version 2.36.0 (20140111.2315)
 -->
<!-- Title: editor.LevelTriggersViewController.updateTriggerList Pages: 1 -->
<svg width="564pt" height="38pt"
 viewBox="0.00 0.00 564.00 38.00" xmlns="http://www.w3.org/2000/svg" xmlns:xlink="http://www.w3.org/1999/xlink">
<g id="graph0" class="graph" transform="scale(1 1) rotate(0) translate(4 34)">
<title>editor.LevelTriggersViewController.updateTriggerList</title>
<polygon fill="white" stroke="none" points="-4,4 -4,-34 560,-34 560,4 -4,4"/>
<!-- Node1 -->
<g id="node1" class="node"><title>Node1</title>
<polygon fill="#bfbfbf" stroke="black" points="0.5,-0 0.5,-30 147.5,-30 147.5,-0 0.5,-0"/>
<text text-anchor="start" x="8.5" y="-18" font-family="Helvetica,sans-Serif" font-size="10.00">editor.LevelTriggersView</text>
<text text-anchor="middle" x="74" y="-7" font-family="Helvetica,sans-Serif" font-size="10.00">Controller.updateTriggerList</text>
</g>
<!-- Node2 -->
<g id="node2" class="node"><title>Node2</title>
<g id="a_node2"><a xlink:href="../../df/d32/classeditor_1_1_tab_view_controller.html#a5cee15e1caf0e725907b149c6cb96303" target="_top" xlink:title="editor.TabViewController.update\lLevelTriggersView">
<polygon fill="white" stroke="black" points="184.5,-0 184.5,-30 351.5,-30 351.5,-0 184.5,-0"/>
<text text-anchor="start" x="192.5" y="-18" font-family="Helvetica,sans-Serif" font-size="10.00">editor.TabViewController.update</text>
<text text-anchor="middle" x="268" y="-7" font-family="Helvetica,sans-Serif" font-size="10.00">LevelTriggersView</text>
</a>
</g>
</g>
<!-- Node1&#45;&gt;Node2 -->
<g id="edge1" class="edge"><title>Node1&#45;&gt;Node2</title>
<path fill="none" stroke="midnightblue" d="M157.817,-15C166.606,-15 175.545,-15 184.332,-15"/>
<polygon fill="midnightblue" stroke="midnightblue" points="157.587,-11.5001 147.587,-15 157.587,-18.5001 157.587,-11.5001"/>
</g>
<!-- Node3 -->
<g id="node3" class="node"><title>Node3</title>
<g id="a_node3"><a xlink:href="../../df/d32/classeditor_1_1_tab_view_controller.html#a6a1f4cf511d80ee7d63868ca650e7d0c" target="_top" xlink:title="editor.TabViewController.update">
<polygon fill="white" stroke="black" points="388.5,-5.5 388.5,-24.5 555.5,-24.5 555.5,-5.5 388.5,-5.5"/>
<text text-anchor="middle" x="472" y="-12.5" font-family="Helvetica,sans-Serif" font-size="10.00">editor.TabViewController.update</text>
</a>
</g>
</g>
<!-- Node2&#45;&gt;Node3 -->
<g id="edge2" class="edge"><title>Node2&#45;&gt;Node3</title>
<path fill="none" stroke="midnightblue" d="M362.018,-15C370.815,-15 379.694,-15 388.385,-15"/>
<polygon fill="midnightblue" stroke="midnightblue" points="361.744,-11.5001 351.744,-15 361.744,-18.5001 361.744,-11.5001"/>
</g>
</g>
</svg>
