<?xml version="1.0" encoding="UTF-8" standalone="no"?>
<!DOCTYPE svg PUBLIC "-//W3C//DTD SVG 1.1//EN"
 "http://www.w3.org/Graphics/SVG/1.1/DTD/svg11.dtd">
<!-- Generated by graphviz version 2.36.0 (20140111.2315)
 -->
<!-- Title: vooga.request.forwarder.DeliveryException.reason Pages: 1 -->
<svg width="372pt" height="38pt"
 viewBox="0.00 0.00 372.00 38.00" xmlns="http://www.w3.org/2000/svg" xmlns:xlink="http://www.w3.org/1999/xlink">
<g id="graph0" class="graph" transform="scale(1 1) rotate(0) translate(4 34)">
<title>vooga.request.forwarder.DeliveryException.reason</title>
<polygon fill="white" stroke="none" points="-4,4 -4,-34 368,-34 368,4 -4,4"/>
<!-- Node1 -->
<g id="node1" class="node"><title>Node1</title>
<polygon fill="#bfbfbf" stroke="black" points="0.5,-0 0.5,-30 137.5,-30 137.5,-0 0.5,-0"/>
<text text-anchor="start" x="8.5" y="-18" font-family="Helvetica,sans-Serif" font-size="10.00">vooga.request.forwarder.</text>
<text text-anchor="middle" x="69" y="-7" font-family="Helvetica,sans-Serif" font-size="10.00">DeliveryException.reason</text>
</g>
<!-- Node2 -->
<g id="node2" class="node"><title>Node2</title>
<g id="a_node2"><a xlink:href="../../df/d8d/classvooga_1_1request_1_1forwarder_1_1_delivery_exception.html#ab4f3c38e5b8c0048615ddc591a2a429b" target="_top" xlink:title="vooga.request.forwarder.\lDeliveryException.DeliveryException">
<polygon fill="white" stroke="black" points="174.5,-0 174.5,-30 363.5,-30 363.5,-0 174.5,-0"/>
<text text-anchor="start" x="182.5" y="-18" font-family="Helvetica,sans-Serif" font-size="10.00">vooga.request.forwarder.</text>
<text text-anchor="middle" x="269" y="-7" font-family="Helvetica,sans-Serif" font-size="10.00">DeliveryException.DeliveryException</text>
</a>
</g>
</g>
<!-- Node1&#45;&gt;Node2 -->
<g id="edge1" class="edge"><title>Node1&#45;&gt;Node2</title>
<path fill="none" stroke="midnightblue" d="M147.748,-15C156.511,-15 165.506,-15 174.443,-15"/>
<polygon fill="midnightblue" stroke="midnightblue" points="147.587,-11.5001 137.587,-15 147.587,-18.5001 147.587,-11.5001"/>
</g>
</g>
</svg>
