<?xml version="1.0" encoding="UTF-8" standalone="no"?>
<!DOCTYPE svg PUBLIC "-//W3C//DTD SVG 1.1//EN"
 "http://www.w3.org/Graphics/SVG/1.1/DTD/svg11.dtd">
<!-- Generated by graphviz version 2.36.0 (20140111.2315)
 -->
<!-- Title: view.runner.GameEndController Pages: 1 -->
<svg width="445pt" height="96pt"
 viewBox="0.00 0.00 445.00 96.00" xmlns="http://www.w3.org/2000/svg" xmlns:xlink="http://www.w3.org/1999/xlink">
<g id="graph0" class="graph" transform="scale(1 1) rotate(0) translate(4 92)">
<title>view.runner.GameEndController</title>
<polygon fill="white" stroke="none" points="-4,4 -4,-92 441,-92 441,4 -4,4"/>
<!-- Node1 -->
<g id="node1" class="node"><title>Node1</title>
<polygon fill="#bfbfbf" stroke="black" points="159.5,-0.5 159.5,-19.5 326.5,-19.5 326.5,-0.5 159.5,-0.5"/>
<text text-anchor="middle" x="243" y="-7.5" font-family="Helvetica,sans-Serif" font-size="10.00">view.runner.GameEndController</text>
</g>
<!-- Node2 -->
<g id="node2" class="node"><title>Node2</title>
<g id="a_node2"><a xlink:href="../../d5/d13/interfaceview_1_1gui_1_1_g_u_i_controller.html" target="_top" xlink:title="view.gui.GUIController">
<polygon fill="white" stroke="black" points="0,-68.5 0,-87.5 120,-87.5 120,-68.5 0,-68.5"/>
<text text-anchor="middle" x="60" y="-75.5" font-family="Helvetica,sans-Serif" font-size="10.00">view.gui.GUIController</text>
</a>
</g>
</g>
<!-- Node2&#45;&gt;Node1 -->
<g id="edge1" class="edge"><title>Node2&#45;&gt;Node1</title>
<path fill="none" stroke="midnightblue" d="M92.5177,-64.8898C113.468,-57.1237 141.307,-46.8713 166,-38 183.465,-31.7256 203.218,-24.8025 218.345,-19.5377"/>
<polygon fill="midnightblue" stroke="midnightblue" points="91.2794,-61.616 83.1222,-68.3771 93.7152,-68.1785 91.2794,-61.616"/>
</g>
<!-- Node3 -->
<g id="node3" class="node"><title>Node3</title>
<polygon fill="white" stroke="#bfbfbf" points="138.5,-68.5 138.5,-87.5 179.5,-87.5 179.5,-68.5 138.5,-68.5"/>
<text text-anchor="middle" x="159" y="-75.5" font-family="Helvetica,sans-Serif" font-size="10.00">VBox</text>
</g>
<!-- Node3&#45;&gt;Node1 -->
<g id="edge2" class="edge"><title>Node3&#45;&gt;Node1</title>
<path fill="none" stroke="#9a32cd" stroke-dasharray="5,2" d="M164.598,-58.9788C167.605,-51.6964 171.964,-43.6866 178,-38 186.894,-29.6209 198.758,-23.6681 209.914,-19.5246"/>
<polygon fill="#9a32cd" stroke="#9a32cd" points="161.275,-57.8762 161.212,-68.4709 167.868,-60.2281 161.275,-57.8762"/>
<text text-anchor="middle" x="208.5" y="-41.5" font-family="Helvetica,sans-Serif" font-size="10.00"> attributeList</text>
</g>
<!-- Node4 -->
<g id="node4" class="node"><title>Node4</title>
<polygon fill="white" stroke="#bfbfbf" points="218.5,-68.5 218.5,-87.5 267.5,-87.5 267.5,-68.5 218.5,-68.5"/>
<text text-anchor="middle" x="243" y="-75.5" font-family="Helvetica,sans-Serif" font-size="10.00">Button</text>
</g>
<!-- Node4&#45;&gt;Node1 -->
<g id="edge3" class="edge"><title>Node4&#45;&gt;Node1</title>
<path fill="none" stroke="#9a32cd" stroke-dasharray="5,2" d="M243,-58.0413C243,-45.4724 243,-29.5631 243,-19.8411"/>
<polygon fill="#9a32cd" stroke="#9a32cd" points="239.5,-58.3716 243,-68.3717 246.5,-58.3717 239.5,-58.3716"/>
<text text-anchor="middle" x="273" y="-41.5" font-family="Helvetica,sans-Serif" font-size="10.00"> doneButton</text>
</g>
<!-- Node5 -->
<g id="node5" class="node"><title>Node5</title>
<polygon fill="white" stroke="#bfbfbf" points="305,-68.5 305,-87.5 347,-87.5 347,-68.5 305,-68.5"/>
<text text-anchor="middle" x="326" y="-75.5" font-family="Helvetica,sans-Serif" font-size="10.00">Label</text>
</g>
<!-- Node5&#45;&gt;Node1 -->
<g id="edge4" class="edge"><title>Node5&#45;&gt;Node1</title>
<path fill="none" stroke="#9a32cd" stroke-dasharray="5,2" d="M318.874,-59.0213C315.285,-51.7554 310.332,-43.7467 304,-38 294.995,-29.8279 283.115,-23.8173 272.233,-19.5699"/>
<polygon fill="#9a32cd" stroke="#9a32cd" points="315.681,-60.455 322.925,-68.1865 322.083,-57.6251 315.681,-60.455"/>
<text text-anchor="middle" x="325" y="-41.5" font-family="Helvetica,sans-Serif" font-size="10.00"> title</text>
</g>
<!-- Node6 -->
<g id="node6" class="node"><title>Node6</title>
<polygon fill="white" stroke="#bfbfbf" points="365,-68.5 365,-87.5 437,-87.5 437,-68.5 365,-68.5"/>
<text text-anchor="middle" x="401" y="-75.5" font-family="Helvetica,sans-Serif" font-size="10.00">BorderPane</text>
</g>
<!-- Node6&#45;&gt;Node1 -->
<g id="edge5" class="edge"><title>Node6&#45;&gt;Node1</title>
<path fill="none" stroke="#9a32cd" stroke-dasharray="5,2" d="M381.471,-62.3895C369.899,-54.2868 354.67,-44.5541 340,-38 322.284,-30.0852 301.695,-23.9579 284.055,-19.556"/>
<polygon fill="#9a32cd" stroke="#9a32cd" points="379.726,-65.4457 389.887,-68.4465 383.815,-59.7642 379.726,-65.4457"/>
<text text-anchor="middle" x="373.5" y="-41.5" font-family="Helvetica,sans-Serif" font-size="10.00"> root</text>
</g>
</g>
</svg>
