<?xml version="1.0" encoding="UTF-8" standalone="no"?>
<!DOCTYPE svg PUBLIC "-//W3C//DTD SVG 1.1//EN"
 "http://www.w3.org/Graphics/SVG/1.1/DTD/svg11.dtd">
<!-- Generated by graphviz version 2.36.0 (20140111.2315)
 -->
<!-- Title: view.editor.wizards.Wizard.getWizardData Pages: 1 -->
<svg width="824pt" height="175pt"
 viewBox="0.00 0.00 824.00 175.00" xmlns="http://www.w3.org/2000/svg" xmlns:xlink="http://www.w3.org/1999/xlink">
<g id="graph0" class="graph" transform="scale(1 1) rotate(0) translate(4 171)">
<title>view.editor.wizards.Wizard.getWizardData</title>
<polygon fill="white" stroke="none" points="-4,4 -4,-171 820,-171 820,4 -4,4"/>
<!-- Node1 -->
<g id="node1" class="node"><title>Node1</title>
<polygon fill="#bfbfbf" stroke="black" points="0,-71 0,-101 158,-101 158,-71 0,-71"/>
<text text-anchor="start" x="8" y="-89" font-family="Helvetica,sans-Serif" font-size="10.00">view.editor.wizards.Wizard.get</text>
<text text-anchor="middle" x="79" y="-78" font-family="Helvetica,sans-Serif" font-size="10.00">WizardData</text>
</g>
<!-- Node2 -->
<g id="node2" class="node"><title>Node2</title>
<g id="a_node2"><a xlink:href="../../d7/d92/classview_1_1editor_1_1wizards_1_1_game_element_wizard.html#adb1e5f7288d7b0929d995f348c69d4bc" target="_top" xlink:title="view.editor.wizards.Game\lElementWizard.boundsAlreadyExist">
<polygon fill="white" stroke="black" points="212.5,-137 212.5,-167 397.5,-167 397.5,-137 212.5,-137"/>
<text text-anchor="start" x="220.5" y="-155" font-family="Helvetica,sans-Serif" font-size="10.00">view.editor.wizards.Game</text>
<text text-anchor="middle" x="305" y="-144" font-family="Helvetica,sans-Serif" font-size="10.00">ElementWizard.boundsAlreadyExist</text>
</a>
</g>
</g>
<!-- Node1&#45;&gt;Node2 -->
<g id="edge1" class="edge"><title>Node1&#45;&gt;Node2</title>
<path fill="none" stroke="midnightblue" d="M135.9,-104.138C154.352,-109.996 175.012,-116.415 194,-122 211.186,-127.055 229.968,-132.285 247.07,-136.935"/>
<polygon fill="midnightblue" stroke="midnightblue" points="136.778,-100.745 126.187,-101.043 134.652,-107.414 136.778,-100.745"/>
</g>
<!-- Node3 -->
<g id="node3" class="node"><title>Node3</title>
<g id="a_node3"><a xlink:href="../../d7/d92/classview_1_1editor_1_1wizards_1_1_game_element_wizard.html#af1a70ba89d682d331e46be6a564472cd" target="_top" xlink:title="view.editor.wizards.Game\lElementWizard.launchBoundsWizard">
<polygon fill="white" stroke="black" points="452,-93 452,-123 642,-123 642,-93 452,-93"/>
<text text-anchor="start" x="460" y="-111" font-family="Helvetica,sans-Serif" font-size="10.00">view.editor.wizards.Game</text>
<text text-anchor="middle" x="547" y="-100" font-family="Helvetica,sans-Serif" font-size="10.00">ElementWizard.launchBoundsWizard</text>
</a>
</g>
</g>
<!-- Node1&#45;&gt;Node3 -->
<g id="edge7" class="edge"><title>Node1&#45;&gt;Node3</title>
<path fill="none" stroke="midnightblue" d="M168.436,-90.1751C249.437,-93.9992 368.974,-99.6426 451.755,-103.551"/>
<polygon fill="midnightblue" stroke="midnightblue" points="168.415,-86.6703 158.261,-89.6947 168.084,-93.6625 168.415,-86.6703"/>
</g>
<!-- Node5 -->
<g id="node5" class="node"><title>Node5</title>
<g id="a_node5"><a xlink:href="../../d7/d92/classview_1_1editor_1_1wizards_1_1_game_element_wizard.html#a307d1b68df420edd610f0911f86a0f53" target="_top" xlink:title="view.editor.wizards.Game\lElementWizard.checkCanSave">
<polygon fill="white" stroke="black" points="224.5,-49 224.5,-79 385.5,-79 385.5,-49 224.5,-49"/>
<text text-anchor="start" x="232.5" y="-67" font-family="Helvetica,sans-Serif" font-size="10.00">view.editor.wizards.Game</text>
<text text-anchor="middle" x="305" y="-56" font-family="Helvetica,sans-Serif" font-size="10.00">ElementWizard.checkCanSave</text>
</a>
</g>
</g>
<!-- Node1&#45;&gt;Node5 -->
<g id="edge4" class="edge"><title>Node1&#45;&gt;Node5</title>
<path fill="none" stroke="midnightblue" d="M168.212,-77.3363C186.734,-75.5172 206.166,-73.6087 224.352,-71.8226"/>
<polygon fill="midnightblue" stroke="midnightblue" points="167.64,-73.8756 158.03,-78.3364 168.324,-80.8421 167.64,-73.8756"/>
</g>
<!-- Node6 -->
<g id="node6" class="node"><title>Node6</title>
<g id="a_node6"><a xlink:href="../../d7/d92/classview_1_1editor_1_1wizards_1_1_game_element_wizard.html#ad27c5e1a925add12e871ed6ba932d317" target="_top" xlink:title="view.editor.wizards.Game\lElementWizard.getBoundsFromWizardData">
<polygon fill="white" stroke="black" points="194.5,-0 194.5,-30 415.5,-30 415.5,-0 194.5,-0"/>
<text text-anchor="start" x="202.5" y="-18" font-family="Helvetica,sans-Serif" font-size="10.00">view.editor.wizards.Game</text>
<text text-anchor="middle" x="305" y="-7" font-family="Helvetica,sans-Serif" font-size="10.00">ElementWizard.getBoundsFromWizardData</text>
</a>
</g>
</g>
<!-- Node1&#45;&gt;Node6 -->
<g id="edge5" class="edge"><title>Node1&#45;&gt;Node6</title>
<path fill="none" stroke="midnightblue" d="M122.749,-66.8573C143.897,-57.8769 169.98,-47.5225 194,-40 205.587,-36.3711 218.014,-33.0336 230.194,-30.0592"/>
<polygon fill="midnightblue" stroke="midnightblue" points="121.211,-63.7084 113.405,-70.8716 123.974,-70.14 121.211,-63.7084"/>
</g>
<!-- Node2&#45;&gt;Node3 -->
<g id="edge2" class="edge"><title>Node2&#45;&gt;Node3</title>
<path fill="none" stroke="midnightblue" d="M397.831,-135.164C419.62,-131.17 442.723,-126.934 464.039,-123.026"/>
<polygon fill="midnightblue" stroke="midnightblue" points="397.128,-131.735 387.923,-136.981 398.39,-138.62 397.128,-131.735"/>
</g>
<!-- Node4 -->
<g id="node4" class="node"><title>Node4</title>
<g id="a_node4"><a xlink:href="../../d7/d92/classview_1_1editor_1_1wizards_1_1_game_element_wizard.html#a108e1aaa06ef6b80a4a1d33d460cde06" target="_top" xlink:title="view.editor.wizards.Game\lElementWizard.initialize">
<polygon fill="white" stroke="black" points="678.5,-93 678.5,-123 815.5,-123 815.5,-93 678.5,-93"/>
<text text-anchor="start" x="686.5" y="-111" font-family="Helvetica,sans-Serif" font-size="10.00">view.editor.wizards.Game</text>
<text text-anchor="middle" x="747" y="-100" font-family="Helvetica,sans-Serif" font-size="10.00">ElementWizard.initialize</text>
</a>
</g>
</g>
<!-- Node3&#45;&gt;Node4 -->
<g id="edge3" class="edge"><title>Node3&#45;&gt;Node4</title>
<path fill="none" stroke="midnightblue" d="M652.146,-108C661.062,-108 669.922,-108 678.437,-108"/>
<polygon fill="midnightblue" stroke="midnightblue" points="652.071,-104.5 642.071,-108 652.071,-111.5 652.071,-104.5"/>
</g>
<!-- Node6&#45;&gt;Node3 -->
<g id="edge6" class="edge"><title>Node6&#45;&gt;Node3</title>
<path fill="none" stroke="midnightblue" d="M393.655,-32.7449C401.287,-34.9439 408.828,-37.36 416,-40 454.722,-54.2537 496.495,-77.6982 521.952,-92.9936"/>
<polygon fill="midnightblue" stroke="midnightblue" points="394.531,-29.356 383.961,-30.075 392.673,-36.1047 394.531,-29.356"/>
</g>
</g>
</svg>
