<?xml version="1.0" encoding="UTF-8" standalone="no"?>
<!DOCTYPE svg PUBLIC "-//W3C//DTD SVG 1.1//EN"
 "http://www.w3.org/Graphics/SVG/1.1/DTD/svg11.dtd">
<!-- Generated by graphviz version 2.36.0 (20140111.2315)
 -->
<!-- Title: view.editor.wizards.Wizard.initialize Pages: 1 -->
<!--zoomable 232 -->
<svg id="main" version="1.1" xmlns="http://www.w3.org/2000/svg" xmlns:xlink="http://www.w3.org/1999/xlink" xml:space="preserve" onload="init(evt)">
<style type="text/css"><![CDATA[
.edge:hover path { stroke: red; }
.edge:hover polygon { stroke: red; fill: red; }
]]></style>
<script type="text/javascript"><![CDATA[
var edges = document.getElementsByTagName('g');
if (edges && edges.length) {
  for (var i=0;i<edges.length;i++) {
    if (edges[i].id.substr(0,4)=='edge') {
      edges[i].setAttribute('class','edge');
    }
  }
}
]]></script>
        <defs>
                <circle id="rim" cx="0" cy="0" r="7"/>
                <circle id="rim2" cx="0" cy="0" r="3.5"/>
                <g id="zoomPlus">
                        <use xlink:href="#rim" fill="#404040">
                                <set attributeName="fill" to="#808080" begin="zoomplus.mouseover" end="zoomplus.mouseout"/>
                        </use>
                        <path d="M-4,0h8M0,-4v8" fill="none" stroke="white" stroke-width="1.5" pointer-events="none"/>
                </g>
                <g id="zoomMin">
                        <use xlink:href="#rim" fill="#404040">
                                <set attributeName="fill" to="#808080" begin="zoomminus.mouseover" end="zoomminus.mouseout"/>
                        </use>
                        <path d="M-4,0h8" fill="none" stroke="white" stroke-width="1.5" pointer-events="none"/>
                </g>
                <g id="dirArrow">
                        <path fill="none" stroke="white" stroke-width="1.5" d="M0,-3.0v7 M-2.5,-0.5L0,-3.0L2.5,-0.5"/>
                </g>
               <g id="resetDef">
                       <use xlink:href="#rim2" fill="#404040">
                               <set attributeName="fill" to="#808080" begin="reset.mouseover" end="reset.mouseout"/>
                       </use>
               </g>
        </defs>

<script type="text/javascript">
var viewWidth = 1250;
var viewHeight = 232;
var sectionId = 'dynsection-15';
</script>
<script xlink:href="../../svgpan.js"/>
<svg id="graph" class="graph">
<g id="viewport">
<title>view.editor.wizards.Wizard.initialize</title>
<polygon fill="white" stroke="none" points="-4,4 -4,-228.001 1246,-228.001 1246,4 -4,4"/>
<!-- Node1 -->
<g id="node1" class="node"><title>Node1</title>
<polygon fill="#bfbfbf" stroke="black" points="0,-98.5 0,-117.5 180,-117.5 180,-98.5 0,-98.5"/>
<text text-anchor="middle" x="90" y="-105.5" font-family="Helvetica,sans-Serif" font-size="10.00">view.editor.wizards.Wizard.initialize</text>
</g>
<!-- Node2 -->
<g id="node2" class="node"><title>Node2</title>
<g id="a_node2"><a xlink:href="../../d7/d40/classview_1_1editor_1_1wizards_1_1_wizard.html#af075ebb2aa71a59555a7f4965eb02f48" target="_top" xlink:title="view.editor.wizards.Wizard.attach\lTextProperties">
<polygon fill="white" stroke="black" points="429.5,-161 429.5,-191 602.5,-191 602.5,-161 429.5,-161"/>
<text text-anchor="start" x="437.5" y="-179" font-family="Helvetica,sans-Serif" font-size="10.00">view.editor.wizards.Wizard.attach</text>
<text text-anchor="middle" x="516" y="-168" font-family="Helvetica,sans-Serif" font-size="10.00">TextProperties</text>
</a>
</g>
</g>
<!-- Node1&#45;&gt;Node2 -->
<g id="edge1" class="edge"><title>Node1&#45;&gt;Node2</title>
<path fill="none" stroke="midnightblue" d="M150.402,-117.527C220.156,-128.714 336.798,-147.42 419.346,-160.659"/>
<polygon fill="midnightblue" stroke="midnightblue" points="418.811,-164.118 429.239,-162.246 419.919,-157.206 418.811,-164.118"/>
</g>
<!-- Node8 -->
<g id="node8" class="node"><title>Node8</title>
<g id="a_node8"><a xlink:href="../../d7/d40/classview_1_1editor_1_1wizards_1_1_wizard.html#a966b3661aa9f376b9b5c4b65f2ad2690" target="_top" xlink:title="view.editor.wizards.Wizard.save">
<polygon fill="white" stroke="black" points="216,-64.5 216,-83.5 380,-83.5 380,-64.5 216,-64.5"/>
<text text-anchor="middle" x="298" y="-71.5" font-family="Helvetica,sans-Serif" font-size="10.00">view.editor.wizards.Wizard.save</text>
</a>
</g>
</g>
<!-- Node1&#45;&gt;Node8 -->
<g id="edge7" class="edge"><title>Node1&#45;&gt;Node8</title>
<path fill="none" stroke="midnightblue" d="M148.656,-98.4839C173.665,-94.3562 203.13,-89.4931 229.182,-85.1933"/>
<polygon fill="midnightblue" stroke="midnightblue" points="230.061,-88.5956 239.358,-83.5138 228.921,-81.6891 230.061,-88.5956"/>
</g>
<!-- Node3 -->
<g id="node3" class="node"><title>Node3</title>
<g id="a_node3"><a xlink:href="../../d7/d40/classview_1_1editor_1_1wizards_1_1_wizard.html#a52c0d50f4a78361541be6627971a9384" target="_top" xlink:title="view.editor.wizards.Wizard.display\lErrorMessage">
<polygon fill="white" stroke="black" points="653.5,-137 653.5,-167 828.5,-167 828.5,-137 653.5,-137"/>
<text text-anchor="start" x="661.5" y="-155" font-family="Helvetica,sans-Serif" font-size="10.00">view.editor.wizards.Wizard.display</text>
<text text-anchor="middle" x="741" y="-144" font-family="Helvetica,sans-Serif" font-size="10.00">ErrorMessage</text>
</a>
</g>
</g>
<!-- Node2&#45;&gt;Node3 -->
<g id="edge2" class="edge"><title>Node2&#45;&gt;Node3</title>
<path fill="none" stroke="midnightblue" d="M602.58,-166.79C615.793,-165.368 629.521,-163.89 642.963,-162.443"/>
<polygon fill="midnightblue" stroke="midnightblue" points="643.606,-165.895 653.174,-161.345 642.857,-158.935 643.606,-165.895"/>
</g>
<!-- Node4 -->
<g id="node4" class="node"><title>Node4</title>
<g id="a_node4"><a xlink:href="../../d4/d81/classutil_1_1multilanguage_1_1_multi_language_utility.html#a4434d82aa88c08ec97fb70994f38041c" target="_top" xlink:title="util.multilanguage.Multi\lLanguageUtility.getInstance">
<polygon fill="white" stroke="black" points="880.5,-49 880.5,-79 1029.5,-79 1029.5,-49 880.5,-49"/>
<text text-anchor="start" x="888.5" y="-67" font-family="Helvetica,sans-Serif" font-size="10.00">util.multilanguage.Multi</text>
<text text-anchor="middle" x="955" y="-56" font-family="Helvetica,sans-Serif" font-size="10.00">LanguageUtility.getInstance</text>
</a>
</g>
</g>
<!-- Node2&#45;&gt;Node4 -->
<g id="edge3" class="edge"><title>Node2&#45;&gt;Node4</title>
<path fill="none" stroke="midnightblue" d="M602.644,-186.345C682.355,-194.155 794.092,-199.896 830,-176 864.496,-153.044 835.146,-117.658 866,-90 868.224,-88.0062 870.595,-86.1651 873.078,-84.4648"/>
<polygon fill="midnightblue" stroke="midnightblue" points="875.104,-87.3318 881.908,-79.21 871.525,-81.3164 875.104,-87.3318"/>
</g>
<!-- Node6 -->
<g id="node6" class="node"><title>Node6</title>
<g id="a_node6"><a xlink:href="../../d4/d81/classutil_1_1multilanguage_1_1_multi_language_utility.html#a6adf3e1cb73a5cef3bc6d4a11cb1b091" target="_top" xlink:title="util.multilanguage.Multi\lLanguageUtility.getStringProperty">
<polygon fill="white" stroke="black" points="866.5,-100 866.5,-130 1043.5,-130 1043.5,-100 866.5,-100"/>
<text text-anchor="start" x="874.5" y="-118" font-family="Helvetica,sans-Serif" font-size="10.00">util.multilanguage.Multi</text>
<text text-anchor="middle" x="955" y="-107" font-family="Helvetica,sans-Serif" font-size="10.00">LanguageUtility.getStringProperty</text>
</a>
</g>
</g>
<!-- Node2&#45;&gt;Node6 -->
<g id="edge5" class="edge"><title>Node2&#45;&gt;Node6</title>
<path fill="none" stroke="midnightblue" d="M557.224,-191.056C617.983,-211.45 736.045,-241.854 830,-210 871.997,-195.762 910.933,-160.954 933.586,-137.663"/>
<polygon fill="midnightblue" stroke="midnightblue" points="936.275,-139.913 940.624,-130.252 931.2,-135.093 936.275,-139.913"/>
</g>
<!-- Node5 -->
<g id="node5" class="node"><title>Node5</title>
<g id="a_node5"><a xlink:href="../../d4/d81/classutil_1_1multilanguage_1_1_multi_language_utility.html#a39432790595e3fc9ef3e2842299739f7" target="_top" xlink:title="util.multilanguage.Multi\lLanguageUtility.MultiLanguage\lUtility">
<polygon fill="white" stroke="black" points="1080,-42.5 1080,-83.5 1242,-83.5 1242,-42.5 1080,-42.5"/>
<text text-anchor="start" x="1088" y="-71.5" font-family="Helvetica,sans-Serif" font-size="10.00">util.multilanguage.Multi</text>
<text text-anchor="start" x="1088" y="-60.5" font-family="Helvetica,sans-Serif" font-size="10.00">LanguageUtility.MultiLanguage</text>
<text text-anchor="middle" x="1161" y="-49.5" font-family="Helvetica,sans-Serif" font-size="10.00">Utility</text>
</a>
</g>
</g>
<!-- Node4&#45;&gt;Node5 -->
<g id="edge4" class="edge"><title>Node4&#45;&gt;Node5</title>
<path fill="none" stroke="midnightblue" d="M1029.65,-63.639C1042.65,-63.5752 1056.33,-63.5082 1069.73,-63.4425"/>
<polygon fill="midnightblue" stroke="midnightblue" points="1069.92,-66.9417 1079.9,-63.3926 1069.89,-59.9418 1069.92,-66.9417"/>
</g>
<!-- Node7 -->
<g id="node7" class="node"><title>Node7</title>
<g id="a_node7"><a xlink:href="../../d4/d81/classutil_1_1multilanguage_1_1_multi_language_utility.html#a596dd4d3069ea8571f1379d6d8a8471b" target="_top" xlink:title="util.multilanguage.Multi\lLanguageUtility.getProperty">
<polygon fill="white" stroke="black" points="1086.5,-102 1086.5,-132 1235.5,-132 1235.5,-102 1086.5,-102"/>
<text text-anchor="start" x="1094.5" y="-120" font-family="Helvetica,sans-Serif" font-size="10.00">util.multilanguage.Multi</text>
<text text-anchor="middle" x="1161" y="-109" font-family="Helvetica,sans-Serif" font-size="10.00">LanguageUtility.getProperty</text>
</a>
</g>
</g>
<!-- Node6&#45;&gt;Node7 -->
<g id="edge6" class="edge"><title>Node6&#45;&gt;Node7</title>
<path fill="none" stroke="midnightblue" d="M1043.7,-115.86C1054.5,-115.966 1065.52,-116.074 1076.26,-116.179"/>
<polygon fill="midnightblue" stroke="midnightblue" points="1076.43,-119.681 1086.46,-116.279 1076.49,-112.681 1076.43,-119.681"/>
</g>
<!-- Node9 -->
<g id="node9" class="node"><title>Node9</title>
<g id="a_node9"><a xlink:href="../../d7/d40/classview_1_1editor_1_1wizards_1_1_wizard.html#a741a19e649d936e35a9c3582dcc654aa" target="_top" xlink:title="view.editor.wizards.Wizard.check\lCanSave">
<polygon fill="white" stroke="black" points="431,-44 431,-74 601,-74 601,-44 431,-44"/>
<text text-anchor="start" x="439" y="-62" font-family="Helvetica,sans-Serif" font-size="10.00">view.editor.wizards.Wizard.check</text>
<text text-anchor="middle" x="516" y="-51" font-family="Helvetica,sans-Serif" font-size="10.00">CanSave</text>
</a>
</g>
</g>
<!-- Node8&#45;&gt;Node9 -->
<g id="edge8" class="edge"><title>Node8&#45;&gt;Node9</title>
<path fill="none" stroke="midnightblue" d="M380.045,-68.3719C393.305,-67.4511 407.143,-66.49 420.69,-65.5493"/>
<polygon fill="midnightblue" stroke="midnightblue" points="421.244,-69.0193 430.978,-64.8349 420.759,-62.0361 421.244,-69.0193"/>
</g>
<!-- Node10 -->
<g id="node10" class="node"><title>Node10</title>
<g id="a_node10"><a xlink:href="../../d7/d40/classview_1_1editor_1_1wizards_1_1_wizard.html#a9194d2ad7d6e2913dfeab16c3aafc9b1" target="_top" xlink:title="view.editor.wizards.Wizard.updateData">
<polygon fill="white" stroke="black" points="416.5,-5.5 416.5,-24.5 615.5,-24.5 615.5,-5.5 416.5,-5.5"/>
<text text-anchor="middle" x="516" y="-12.5" font-family="Helvetica,sans-Serif" font-size="10.00">view.editor.wizards.Wizard.updateData</text>
</a>
</g>
</g>
<!-- Node8&#45;&gt;Node10 -->
<g id="edge9" class="edge"><title>Node8&#45;&gt;Node10</title>
<path fill="none" stroke="midnightblue" d="M323.795,-64.3917C347.267,-55.5672 383.633,-42.5936 416,-34 426.296,-31.2664 437.292,-28.7586 448.074,-26.5238"/>
<polygon fill="midnightblue" stroke="midnightblue" points="448.776,-29.9528 457.889,-24.5495 447.395,-23.0903 448.776,-29.9528"/>
</g>
<!-- Node11 -->
<g id="node11" class="node"><title>Node11</title>
<g id="a_node11"><a xlink:href="../../d7/d40/classview_1_1editor_1_1wizards_1_1_wizard.html#a06533479d53be322f42c9dc6ffb1798d" target="_top" xlink:title="view.editor.wizards.Wizard.display\lWarning">
<polygon fill="white" stroke="black" points="428.5,-93 428.5,-123 603.5,-123 603.5,-93 428.5,-93"/>
<text text-anchor="start" x="436.5" y="-111" font-family="Helvetica,sans-Serif" font-size="10.00">view.editor.wizards.Wizard.display</text>
<text text-anchor="middle" x="516" y="-100" font-family="Helvetica,sans-Serif" font-size="10.00">Warning</text>
</a>
</g>
</g>
<!-- Node8&#45;&gt;Node11 -->
<g id="edge10" class="edge"><title>Node8&#45;&gt;Node11</title>
<path fill="none" stroke="midnightblue" d="M359.455,-83.5161C377.712,-86.3899 398.234,-89.6202 418.237,-92.7687"/>
<polygon fill="midnightblue" stroke="midnightblue" points="417.894,-96.2579 428.317,-94.3554 418.983,-89.343 417.894,-96.2579"/>
</g>
<!-- Node11&#45;&gt;Node3 -->
<g id="edge15" class="edge"><title>Node11&#45;&gt;Node3</title>
<path fill="none" stroke="midnightblue" d="M593.12,-123.019C612.657,-126.874 633.811,-131.048 653.816,-134.995"/>
<polygon fill="midnightblue" stroke="midnightblue" points="653.356,-138.472 663.844,-136.974 654.711,-131.604 653.356,-138.472"/>
</g>
<!-- Node11&#45;&gt;Node4 -->
<g id="edge16" class="edge"><title>Node11&#45;&gt;Node4</title>
<path fill="none" stroke="midnightblue" d="M596.216,-92.9684C603.158,-90.1901 609.866,-86.8989 616,-83 637.324,-69.4458 629.167,-49.8201 652,-39 723.49,-5.12223 751.28,-31.1436 830,-39 846.989,-40.6955 865.094,-43.6668 882.072,-46.9826"/>
<polygon fill="midnightblue" stroke="midnightblue" points="881.427,-50.4228 891.921,-48.9677 882.81,-43.5608 881.427,-50.4228"/>
</g>
<!-- Node11&#45;&gt;Node6 -->
<g id="edge17" class="edge"><title>Node11&#45;&gt;Node6</title>
<path fill="none" stroke="midnightblue" d="M603.598,-109.387C676.467,-110.554 780.614,-112.223 856.418,-113.437"/>
<polygon fill="midnightblue" stroke="midnightblue" points="856.397,-116.937 866.452,-113.598 856.509,-109.938 856.397,-116.937"/>
</g>
<!-- Node12 -->
<g id="node12" class="node"><title>Node12</title>
<g id="a_node12"><a xlink:href="../../d8/d1e/classview_1_1dialog_1_1_dialog_box_utility.html#a9b51f9af82adaed09caacee651b8f566" target="_top" xlink:title="view.dialog.DialogBoxUtility.create\lMessageDialog">
<polygon fill="white" stroke="black" points="652,-49 652,-79 830,-79 830,-49 652,-49"/>
<text text-anchor="start" x="660" y="-67" font-family="Helvetica,sans-Serif" font-size="10.00">view.dialog.DialogBoxUtility.create</text>
<text text-anchor="middle" x="741" y="-56" font-family="Helvetica,sans-Serif" font-size="10.00">MessageDialog</text>
</a>
</g>
</g>
<!-- Node11&#45;&gt;Node12 -->
<g id="edge11" class="edge"><title>Node11&#45;&gt;Node12</title>
<path fill="none" stroke="midnightblue" d="M593.12,-92.9808C612.657,-89.126 633.811,-84.9522 653.816,-81.0049"/>
<polygon fill="midnightblue" stroke="midnightblue" points="654.711,-84.3959 663.844,-79.0262 653.356,-77.5283 654.711,-84.3959"/>
</g>
<!-- Node12&#45;&gt;Node4 -->
<g id="edge13" class="edge"><title>Node12&#45;&gt;Node4</title>
<path fill="none" stroke="midnightblue" d="M830.065,-64C843.392,-64 857.107,-64 870.337,-64"/>
<polygon fill="midnightblue" stroke="midnightblue" points="870.344,-67.5001 880.344,-64 870.344,-60.5001 870.344,-67.5001"/>
</g>
<!-- Node12&#45;&gt;Node6 -->
<g id="edge14" class="edge"><title>Node12&#45;&gt;Node6</title>
<path fill="none" stroke="midnightblue" d="M804.46,-79.0258C828.721,-84.8621 856.665,-91.5844 881.782,-97.6268"/>
<polygon fill="midnightblue" stroke="midnightblue" points="881.079,-101.057 891.62,-99.9935 882.716,-94.2516 881.079,-101.057"/>
</g>
<!-- Node13 -->
<g id="node13" class="node"><title>Node13</title>
<g id="a_node13"><a xlink:href="../../d8/d1e/classview_1_1dialog_1_1_dialog_box_utility.html#ac719f60b2969771ed4bc5acd0dabe41e" target="_top" xlink:title="view.dialog.DialogBoxUtility.create\lDialogBox">
<polygon fill="white" stroke="black" points="866,-0 866,-30 1044,-30 1044,-0 866,-0"/>
<text text-anchor="start" x="874" y="-18" font-family="Helvetica,sans-Serif" font-size="10.00">view.dialog.DialogBoxUtility.create</text>
<text text-anchor="middle" x="955" y="-7" font-family="Helvetica,sans-Serif" font-size="10.00">DialogBox</text>
</a>
</g>
</g>
<!-- Node12&#45;&gt;Node13 -->
<g id="edge12" class="edge"><title>Node12&#45;&gt;Node13</title>
<path fill="none" stroke="midnightblue" d="M807.048,-48.9654C829.839,-43.6976 855.615,-37.7399 879.144,-32.3016"/>
<polygon fill="midnightblue" stroke="midnightblue" points="880.12,-35.6683 889.075,-30.0062 878.544,-28.8481 880.12,-35.6683"/>
</g>
</g>
</svg>
        <g id="navigator" transform="translate(0 0)" fill="#404254">
                <rect fill="#f2f5e9" fill-opacity="0.5" stroke="#606060" stroke-width=".5" x="0" y="0" width="60" height="60"/>
                <use id="zoomplus" xlink:href="#zoomPlus" x="17" y="9" onmousedown="handleZoom(evt,'in')"/>
                <use id="zoomminus" xlink:href="#zoomMin" x="42" y="9" onmousedown="handleZoom(evt,'out')"/>
                <use id="reset" xlink:href="#resetDef" x="30" y="36" onmousedown="handleReset()"/>
                <g id="arrowUp" xlink:href="#dirArrow" transform="translate(30 24)" onmousedown="handlePan(0,-1)">
                  <use xlink:href="#rim" fill="#404040">
                        <set attributeName="fill" to="#808080" begin="arrowUp.mouseover" end="arrowUp.mouseout"/>
                  </use>
                  <path fill="none" stroke="white" stroke-width="1.5" d="M0,-3.0v7 M-2.5,-0.5L0,-3.0L2.5,-0.5"/>
                </g>
                <g id="arrowRight" xlink:href="#dirArrow" transform="rotate(90) translate(36 -43)" onmousedown="handlePan(1,0)">
                  <use xlink:href="#rim" fill="#404040">
                        <set attributeName="fill" to="#808080" begin="arrowRight.mouseover" end="arrowRight.mouseout"/>
                  </use>
                  <path fill="none" stroke="white" stroke-width="1.5" d="M0,-3.0v7 M-2.5,-0.5L0,-3.0L2.5,-0.5"/>
                </g>
                <g id="arrowDown" xlink:href="#dirArrow" transform="rotate(180) translate(-30 -48)" onmousedown="handlePan(0,1)">
                  <use xlink:href="#rim" fill="#404040">
                        <set attributeName="fill" to="#808080" begin="arrowDown.mouseover" end="arrowDown.mouseout"/>
                  </use>
                  <path fill="none" stroke="white" stroke-width="1.5" d="M0,-3.0v7 M-2.5,-0.5L0,-3.0L2.5,-0.5"/>
                </g>
                <g id="arrowLeft" xlink:href="#dirArrow" transform="rotate(270) translate(-36 17)" onmousedown="handlePan(-1,0)">
                  <use xlink:href="#rim" fill="#404040">
                        <set attributeName="fill" to="#808080" begin="arrowLeft.mouseover" end="arrowLeft.mouseout"/>
                  </use>
                  <path fill="none" stroke="white" stroke-width="1.5" d="M0,-3.0v7 M-2.5,-0.5L0,-3.0L2.5,-0.5"/>
                </g>
        </g>
        <svg viewBox="0 0 15 15" width="100%" height="30px" preserveAspectRatio="xMaxYMin meet">
         <g id="arrow_out" transform="scale(0.3 0.3)">
          <a xlink:href="classview_1_1editor_1_1wizards_1_1_wizard_a2013455b3115aa457dd52c4bada2d654_cgraph_org.svg" target="_base">
           <rect id="button" ry="5" rx="5" y="6" x="6" height="38" width="38"
                fill="#f2f5e9" fill-opacity="0.5" stroke="#606060" stroke-width="1.0"/>
           <path id="arrow"
             d="M 11.500037,31.436501 C 11.940474,20.09759 22.043105,11.32322 32.158766,21.979434 L 37.068811,17.246167 C 37.068811,17.246167 37.088388,32 37.088388,32 L 22.160133,31.978069 C 22.160133,31.978069 26.997745,27.140456 26.997745,27.140456 C 18.528582,18.264221 13.291696,25.230495 11.500037,31.436501 z"
             style="fill:#404040;"/>
          </a>
         </g>
        </svg>
</svg>
