<?xml version="1.0" encoding="UTF-8" standalone="no"?>
<!DOCTYPE svg PUBLIC "-//W3C//DTD SVG 1.1//EN"
 "http://www.w3.org/Graphics/SVG/1.1/DTD/svg11.dtd">
<!-- Generated by graphviz version 2.36.0 (20140111.2315)
 -->
<!-- Title: view.editor.wizards.Wizard.loadGlobalValues Pages: 1 -->
<svg width="1814pt" height="180pt"
 viewBox="0.00 0.00 1814.00 180.00" xmlns="http://www.w3.org/2000/svg" xmlns:xlink="http://www.w3.org/1999/xlink">
<g id="graph0" class="graph" transform="scale(1 1) rotate(0) translate(4 176)">
<title>view.editor.wizards.Wizard.loadGlobalValues</title>
<polygon fill="white" stroke="none" points="-4,4 -4,-176 1810,-176 1810,4 -4,4"/>
<!-- Node1 -->
<g id="node1" class="node"><title>Node1</title>
<polygon fill="#bfbfbf" stroke="black" points="0,-71 0,-101 162,-101 162,-71 0,-71"/>
<text text-anchor="start" x="8" y="-89" font-family="Helvetica,sans-Serif" font-size="10.00">view.editor.wizards.Wizard.load</text>
<text text-anchor="middle" x="81" y="-78" font-family="Helvetica,sans-Serif" font-size="10.00">GlobalValues</text>
</g>
<!-- Node2 -->
<g id="node2" class="node"><title>Node2</title>
<g id="a_node2"><a xlink:href="../../d4/d65/classview_1_1editor_1_1_tab_view_controller.html#a626ca47a8ac963b8940a59944ee3bcb6" target="_top" xlink:title="view.editor.TabViewController.add\lNumberAttributes">
<polygon fill="white" stroke="black" points="219.5,-142 219.5,-172 392.5,-172 392.5,-142 219.5,-142"/>
<text text-anchor="start" x="227.5" y="-160" font-family="Helvetica,sans-Serif" font-size="10.00">view.editor.TabViewController.add</text>
<text text-anchor="middle" x="306" y="-149" font-family="Helvetica,sans-Serif" font-size="10.00">NumberAttributes</text>
</a>
</g>
</g>
<!-- Node1&#45;&gt;Node2 -->
<g id="edge1" class="edge"><title>Node1&#45;&gt;Node2</title>
<path fill="none" stroke="midnightblue" d="M125.259,-104.922C146.842,-113.906 173.508,-124.329 198,-132 209.56,-135.621 221.969,-138.983 234.093,-141.993"/>
<polygon fill="midnightblue" stroke="midnightblue" points="126.61,-101.693 116.035,-101.042 123.896,-108.146 126.61,-101.693"/>
</g>
<!-- Node5 -->
<g id="node5" class="node"><title>Node5</title>
<g id="a_node5"><a xlink:href="../../d2/daf/classview_1_1editor_1_1wizards_1_1_c_r_u_d_container.html#a0dd63694421d9fc87cd4046499d3d229" target="_top" xlink:title="view.editor.wizards.CRUDContainer.launch\lEditWizard">
<polygon fill="white" stroke="black" points="198.5,-93 198.5,-123 413.5,-123 413.5,-93 198.5,-93"/>
<text text-anchor="start" x="206.5" y="-111" font-family="Helvetica,sans-Serif" font-size="10.00">view.editor.wizards.CRUDContainer.launch</text>
<text text-anchor="middle" x="306" y="-100" font-family="Helvetica,sans-Serif" font-size="10.00">EditWizard</text>
</a>
</g>
</g>
<!-- Node1&#45;&gt;Node5 -->
<g id="edge4" class="edge"><title>Node1&#45;&gt;Node5</title>
<path fill="none" stroke="midnightblue" d="M172.203,-94.899C180.81,-95.7481 189.593,-96.6146 198.336,-97.4771"/>
<polygon fill="midnightblue" stroke="midnightblue" points="172.488,-91.4102 162.193,-93.9114 171.801,-98.3764 172.488,-91.4102"/>
</g>
<!-- Node13 -->
<g id="node13" class="node"><title>Node13</title>
<g id="a_node13"><a xlink:href="../../d2/daf/classview_1_1editor_1_1wizards_1_1_c_r_u_d_container.html#ae2023a0be85d2e08579ad62bf18a0bc5" target="_top" xlink:title="view.editor.wizards.CRUDContainer.launch\lNestedWizard">
<polygon fill="white" stroke="black" points="702.5,-49 702.5,-79 917.5,-79 917.5,-49 702.5,-49"/>
<text text-anchor="start" x="710.5" y="-67" font-family="Helvetica,sans-Serif" font-size="10.00">view.editor.wizards.CRUDContainer.launch</text>
<text text-anchor="middle" x="810" y="-56" font-family="Helvetica,sans-Serif" font-size="10.00">NestedWizard</text>
</a>
</g>
</g>
<!-- Node1&#45;&gt;Node13 -->
<g id="edge15" class="edge"><title>Node1&#45;&gt;Node13</title>
<path fill="none" stroke="midnightblue" d="M172.498,-83.2614C306.996,-79.1913 559.126,-71.5615 702.383,-67.2264"/>
<polygon fill="midnightblue" stroke="midnightblue" points="172.12,-79.7712 162.23,-83.5721 172.331,-86.768 172.12,-79.7712"/>
</g>
<!-- Node15 -->
<g id="node15" class="node"><title>Node15</title>
<g id="a_node15"><a xlink:href="../../dc/d0c/classview_1_1editor_1_1_editor_menu_bar_controller.html#a135d33b75dee7e5bb96b8ebd40cbe964" target="_top" xlink:title="view.editor.EditorMenuBar\lController.onNewLevelClick">
<polygon fill="white" stroke="black" points="234,-4 234,-34 378,-34 378,-4 234,-4"/>
<text text-anchor="start" x="242" y="-22" font-family="Helvetica,sans-Serif" font-size="10.00">view.editor.EditorMenuBar</text>
<text text-anchor="middle" x="306" y="-11" font-family="Helvetica,sans-Serif" font-size="10.00">Controller.onNewLevelClick</text>
</a>
</g>
</g>
<!-- Node1&#45;&gt;Node15 -->
<g id="edge16" class="edge"><title>Node1&#45;&gt;Node15</title>
<path fill="none" stroke="midnightblue" d="M139.196,-68.0141C157.914,-62.191 178.823,-55.7532 198,-50 215.691,-44.6926 235.073,-39.031 252.423,-34.018"/>
<polygon fill="midnightblue" stroke="midnightblue" points="138.133,-64.6791 129.628,-70.9963 140.216,-71.362 138.133,-64.6791"/>
</g>
<!-- Node3 -->
<g id="node3" class="node"><title>Node3</title>
<g id="a_node3"><a xlink:href="../../d4/d65/classview_1_1editor_1_1_tab_view_controller.html#ae2a5da639fc38047249eeb0a5728dee0" target="_top" xlink:title="view.editor.TabViewController.launch\lNestedWizard">
<polygon fill="white" stroke="black" points="464.5,-142 464.5,-172 651.5,-172 651.5,-142 464.5,-142"/>
<text text-anchor="start" x="472.5" y="-160" font-family="Helvetica,sans-Serif" font-size="10.00">view.editor.TabViewController.launch</text>
<text text-anchor="middle" x="558" y="-149" font-family="Helvetica,sans-Serif" font-size="10.00">NestedWizard</text>
</a>
</g>
</g>
<!-- Node2&#45;&gt;Node3 -->
<g id="edge2" class="edge"><title>Node2&#45;&gt;Node3</title>
<path fill="none" stroke="midnightblue" d="M402.789,-157C422.925,-157 444.133,-157 464.158,-157"/>
<polygon fill="midnightblue" stroke="midnightblue" points="402.686,-153.5 392.686,-157 402.686,-160.5 402.686,-153.5"/>
</g>
<!-- Node4 -->
<g id="node4" class="node"><title>Node4</title>
<g id="a_node4"><a xlink:href="../../d4/d65/classview_1_1editor_1_1_tab_view_controller.html#a82e1e1f1eb84d1c30bde3a246304473e" target="_top" xlink:title="view.editor.TabViewController.init">
<polygon fill="white" stroke="black" points="725,-147.5 725,-166.5 895,-166.5 895,-147.5 725,-147.5"/>
<text text-anchor="middle" x="810" y="-154.5" font-family="Helvetica,sans-Serif" font-size="10.00">view.editor.TabViewController.init</text>
</a>
</g>
</g>
<!-- Node3&#45;&gt;Node4 -->
<g id="edge3" class="edge"><title>Node3&#45;&gt;Node4</title>
<path fill="none" stroke="midnightblue" d="M661.908,-157C682.792,-157 704.524,-157 724.675,-157"/>
<polygon fill="midnightblue" stroke="midnightblue" points="661.736,-153.5 651.736,-157 661.735,-160.5 661.736,-153.5"/>
</g>
<!-- Node6 -->
<g id="node6" class="node"><title>Node6</title>
<g id="a_node6"><a xlink:href="../../d2/daf/classview_1_1editor_1_1wizards_1_1_c_r_u_d_container.html#a93585a010caa4cdf7201f854c10001d5" target="_top" xlink:title="view.editor.wizards.CRUDContainer.create\lVisualRepresentation">
<polygon fill="white" stroke="black" points="450.5,-93 450.5,-123 665.5,-123 665.5,-93 450.5,-93"/>
<text text-anchor="start" x="458.5" y="-111" font-family="Helvetica,sans-Serif" font-size="10.00">view.editor.wizards.CRUDContainer.create</text>
<text text-anchor="middle" x="558" y="-100" font-family="Helvetica,sans-Serif" font-size="10.00">VisualRepresentation</text>
</a>
</g>
</g>
<!-- Node5&#45;&gt;Node6 -->
<g id="edge5" class="edge"><title>Node5&#45;&gt;Node6</title>
<path fill="none" stroke="midnightblue" d="M423.982,-108C432.73,-108 441.531,-108 450.211,-108"/>
<polygon fill="midnightblue" stroke="midnightblue" points="423.748,-104.5 413.748,-108 423.748,-111.5 423.748,-104.5"/>
</g>
<!-- Node7 -->
<g id="node7" class="node"><title>Node7</title>
<g id="a_node7"><a xlink:href="../../d2/daf/classview_1_1editor_1_1wizards_1_1_c_r_u_d_container.html#afc90f248b63b655ded20ea49f90d01a3" target="_top" xlink:title="view.editor.wizards.CRUDContainer.add\lAndRenderWizardDatas">
<polygon fill="white" stroke="black" points="709,-98 709,-128 911,-128 911,-98 709,-98"/>
<text text-anchor="start" x="717" y="-116" font-family="Helvetica,sans-Serif" font-size="10.00">view.editor.wizards.CRUDContainer.add</text>
<text text-anchor="middle" x="810" y="-105" font-family="Helvetica,sans-Serif" font-size="10.00">AndRenderWizardDatas</text>
</a>
</g>
</g>
<!-- Node6&#45;&gt;Node7 -->
<g id="edge6" class="edge"><title>Node6&#45;&gt;Node7</title>
<path fill="none" stroke="midnightblue" d="M675.87,-110.337C686.928,-110.559 698.072,-110.781 708.953,-110.999"/>
<polygon fill="midnightblue" stroke="midnightblue" points="675.816,-106.836 665.748,-110.135 675.676,-113.834 675.816,-106.836"/>
</g>
<!-- Node6&#45;&gt;Node13 -->
<g id="edge13" class="edge"><title>Node6&#45;&gt;Node13</title>
<path fill="none" stroke="midnightblue" d="M654.35,-91.2183C677.137,-87.2078 701.319,-82.9518 723.624,-79.0262"/>
<polygon fill="midnightblue" stroke="midnightblue" points="653.579,-87.8003 644.337,-92.9808 654.792,-94.6943 653.579,-87.8003"/>
</g>
<!-- Node8 -->
<g id="node8" class="node"><title>Node8</title>
<g id="a_node8"><a xlink:href="../../d7/d92/classview_1_1editor_1_1wizards_1_1_game_element_wizard.html#a657ee6352e5119f1ec2fe9add8340899" target="_top" xlink:title="view.editor.wizards.Game\lElementWizard.addContainerData">
<polygon fill="white" stroke="black" points="975.5,-98 975.5,-128 1154.5,-128 1154.5,-98 975.5,-98"/>
<text text-anchor="start" x="983.5" y="-116" font-family="Helvetica,sans-Serif" font-size="10.00">view.editor.wizards.Game</text>
<text text-anchor="middle" x="1065" y="-105" font-family="Helvetica,sans-Serif" font-size="10.00">ElementWizard.addContainerData</text>
</a>
</g>
</g>
<!-- Node7&#45;&gt;Node8 -->
<g id="edge7" class="edge"><title>Node7&#45;&gt;Node8</title>
<path fill="none" stroke="midnightblue" d="M921.565,-113C939.512,-113 957.894,-113 975.235,-113"/>
<polygon fill="midnightblue" stroke="midnightblue" points="921.356,-109.5 911.356,-113 921.356,-116.5 921.356,-109.5"/>
</g>
<!-- Node9 -->
<g id="node9" class="node"><title>Node9</title>
<g id="a_node9"><a xlink:href="../../d7/d92/classview_1_1editor_1_1wizards_1_1_game_element_wizard.html#abe8ad6d8e7a4eec7b8184d12047755be" target="_top" xlink:title="view.editor.wizards.Game\lElementWizard.launchForEdit">
<polygon fill="white" stroke="black" points="1212.5,-98 1212.5,-128 1367.5,-128 1367.5,-98 1212.5,-98"/>
<text text-anchor="start" x="1220.5" y="-116" font-family="Helvetica,sans-Serif" font-size="10.00">view.editor.wizards.Game</text>
<text text-anchor="middle" x="1290" y="-105" font-family="Helvetica,sans-Serif" font-size="10.00">ElementWizard.launchForEdit</text>
</a>
</g>
</g>
<!-- Node8&#45;&gt;Node9 -->
<g id="edge8" class="edge"><title>Node8&#45;&gt;Node9</title>
<path fill="none" stroke="midnightblue" d="M1165.13,-113C1180.98,-113 1197.18,-113 1212.4,-113"/>
<polygon fill="midnightblue" stroke="midnightblue" points="1164.78,-109.5 1154.78,-113 1164.78,-116.5 1164.78,-109.5"/>
</g>
<!-- Node10 -->
<g id="node10" class="node"><title>Node10</title>
<g id="a_node10"><a xlink:href="../../d9/dfb/classview_1_1editor_1_1_element_accordion_controller.html#a71bb33e7588f335fc2ebc1346924ad2d" target="_top" xlink:title="view.editor.ElementAccordion\lController.openDrawableGameElement\lWizard">
<polygon fill="white" stroke="black" points="1407.5,-122.5 1407.5,-163.5 1610.5,-163.5 1610.5,-122.5 1407.5,-122.5"/>
<text text-anchor="start" x="1415.5" y="-151.5" font-family="Helvetica,sans-Serif" font-size="10.00">view.editor.ElementAccordion</text>
<text text-anchor="start" x="1415.5" y="-140.5" font-family="Helvetica,sans-Serif" font-size="10.00">Controller.openDrawableGameElement</text>
<text text-anchor="middle" x="1509" y="-129.5" font-family="Helvetica,sans-Serif" font-size="10.00">Wizard</text>
</a>
</g>
</g>
<!-- Node9&#45;&gt;Node10 -->
<g id="edge9" class="edge"><title>Node9&#45;&gt;Node10</title>
<path fill="none" stroke="midnightblue" d="M1377.63,-124.976C1387.44,-126.333 1397.51,-127.724 1407.48,-129.103"/>
<polygon fill="midnightblue" stroke="midnightblue" points="1377.89,-121.479 1367.51,-123.577 1376.93,-128.413 1377.89,-121.479"/>
</g>
<!-- Node12 -->
<g id="node12" class="node"><title>Node12</title>
<g id="a_node12"><a xlink:href="../../d9/dfb/classview_1_1editor_1_1_element_accordion_controller.html#a8564fdf017fa6f25e3e663cf076e0c04" target="_top" xlink:title="view.editor.ElementAccordion\lController.openSelectableGameElement\lWizard">
<polygon fill="white" stroke="black" points="1404.5,-62.5 1404.5,-103.5 1613.5,-103.5 1613.5,-62.5 1404.5,-62.5"/>
<text text-anchor="start" x="1412.5" y="-91.5" font-family="Helvetica,sans-Serif" font-size="10.00">view.editor.ElementAccordion</text>
<text text-anchor="start" x="1412.5" y="-80.5" font-family="Helvetica,sans-Serif" font-size="10.00">Controller.openSelectableGameElement</text>
<text text-anchor="middle" x="1509" y="-69.5" font-family="Helvetica,sans-Serif" font-size="10.00">Wizard</text>
</a>
</g>
</g>
<!-- Node9&#45;&gt;Node12 -->
<g id="edge11" class="edge"><title>Node9&#45;&gt;Node12</title>
<path fill="none" stroke="midnightblue" d="M1377.43,-101.051C1386.31,-99.8237 1395.39,-98.5677 1404.43,-97.318"/>
<polygon fill="midnightblue" stroke="midnightblue" points="1376.93,-97.5865 1367.51,-102.423 1377.89,-104.521 1376.93,-97.5865"/>
</g>
<!-- Node11 -->
<g id="node11" class="node"><title>Node11</title>
<g id="a_node11"><a xlink:href="../../d9/dfb/classview_1_1editor_1_1_element_accordion_controller.html#af80453486ff349552dab988fb64397c0" target="_top" xlink:title="view.editor.ElementAccordion\lController.init">
<polygon fill="white" stroke="black" points="1650,-98 1650,-128 1806,-128 1806,-98 1650,-98"/>
<text text-anchor="start" x="1658" y="-116" font-family="Helvetica,sans-Serif" font-size="10.00">view.editor.ElementAccordion</text>
<text text-anchor="middle" x="1728" y="-105" font-family="Helvetica,sans-Serif" font-size="10.00">Controller.init</text>
</a>
</g>
</g>
<!-- Node10&#45;&gt;Node11 -->
<g id="edge10" class="edge"><title>Node10&#45;&gt;Node11</title>
<path fill="none" stroke="midnightblue" d="M1620.47,-127.727C1630.39,-126.356 1640.28,-124.988 1649.82,-123.669"/>
<polygon fill="midnightblue" stroke="midnightblue" points="1619.99,-124.261 1610.56,-129.098 1620.94,-131.195 1619.99,-124.261"/>
</g>
<!-- Node12&#45;&gt;Node11 -->
<g id="edge12" class="edge"><title>Node12&#45;&gt;Node11</title>
<path fill="none" stroke="midnightblue" d="M1623.75,-98.7258C1632.62,-99.9515 1641.43,-101.171 1649.97,-102.351"/>
<polygon fill="midnightblue" stroke="midnightblue" points="1624.12,-95.2435 1613.73,-97.341 1623.16,-102.178 1624.12,-95.2435"/>
</g>
<!-- Node14 -->
<g id="node14" class="node"><title>Node14</title>
<g id="a_node14"><a xlink:href="../../d2/daf/classview_1_1editor_1_1wizards_1_1_c_r_u_d_container.html#ab64f7f353707925c8aa7b919886038c5" target="_top" xlink:title="view.editor.wizards.CRUDContainer.initialize">
<polygon fill="white" stroke="black" points="954,-54.5 954,-73.5 1176,-73.5 1176,-54.5 954,-54.5"/>
<text text-anchor="middle" x="1065" y="-61.5" font-family="Helvetica,sans-Serif" font-size="10.00">view.editor.wizards.CRUDContainer.initialize</text>
</a>
</g>
</g>
<!-- Node13&#45;&gt;Node14 -->
<g id="edge14" class="edge"><title>Node13&#45;&gt;Node14</title>
<path fill="none" stroke="midnightblue" d="M927.751,-64C936.464,-64 945.239,-64 953.909,-64"/>
<polygon fill="midnightblue" stroke="midnightblue" points="927.562,-60.5001 917.562,-64 927.561,-67.5001 927.562,-60.5001"/>
</g>
<!-- Node16 -->
<g id="node16" class="node"><title>Node16</title>
<g id="a_node16"><a xlink:href="../../dc/d0c/classview_1_1editor_1_1_editor_menu_bar_controller.html#a56696b0f0540d2e86c3e4fe4521717a2" target="_top" xlink:title="view.editor.EditorMenuBar\lController.initFileMenu">
<polygon fill="white" stroke="black" points="488,-3 488,-33 628,-33 628,-3 488,-3"/>
<text text-anchor="start" x="496" y="-21" font-family="Helvetica,sans-Serif" font-size="10.00">view.editor.EditorMenuBar</text>
<text text-anchor="middle" x="558" y="-10" font-family="Helvetica,sans-Serif" font-size="10.00">Controller.initFileMenu</text>
</a>
</g>
</g>
<!-- Node15&#45;&gt;Node16 -->
<g id="edge17" class="edge"><title>Node15&#45;&gt;Node16</title>
<path fill="none" stroke="midnightblue" d="M388.547,-18.6738C420.601,-18.5456 457.009,-18.4 487.757,-18.277"/>
<polygon fill="midnightblue" stroke="midnightblue" points="388.291,-15.1747 378.305,-18.7148 388.319,-22.1747 388.291,-15.1747"/>
</g>
<!-- Node17 -->
<g id="node17" class="node"><title>Node17</title>
<g id="a_node17"><a xlink:href="../../dc/d0c/classview_1_1editor_1_1_editor_menu_bar_controller.html#a5b101a400664af0200be8010673acb49" target="_top" xlink:title="view.editor.EditorMenuBar\lController.initMenuBar">
<polygon fill="white" stroke="black" points="740,-0 740,-30 880,-30 880,-0 740,-0"/>
<text text-anchor="start" x="748" y="-18" font-family="Helvetica,sans-Serif" font-size="10.00">view.editor.EditorMenuBar</text>
<text text-anchor="middle" x="810" y="-7" font-family="Helvetica,sans-Serif" font-size="10.00">Controller.initMenuBar</text>
</a>
</g>
</g>
<!-- Node16&#45;&gt;Node17 -->
<g id="edge18" class="edge"><title>Node16&#45;&gt;Node17</title>
<path fill="none" stroke="midnightblue" d="M638.704,-17.0436C671.281,-16.6526 708.605,-16.2047 739.992,-15.8281"/>
<polygon fill="midnightblue" stroke="midnightblue" points="638.264,-13.5485 628.307,-17.1683 638.348,-20.548 638.264,-13.5485"/>
</g>
</g>
</svg>
