<?xml version="1.0" encoding="UTF-8" standalone="no"?>
<!DOCTYPE svg PUBLIC "-//W3C//DTD SVG 1.1//EN"
 "http://www.w3.org/Graphics/SVG/1.1/DTD/svg11.dtd">
<!-- Generated by graphviz version 2.36.0 (20140111.2315)
 -->
<!-- Title: view.editor.wizards.Wizard.launchForEdit Pages: 1 -->
<svg width="1826pt" height="148pt"
 viewBox="0.00 0.00 1826.00 148.00" xmlns="http://www.w3.org/2000/svg" xmlns:xlink="http://www.w3.org/1999/xlink">
<g id="graph0" class="graph" transform="scale(1 1) rotate(0) translate(4 144)">
<title>view.editor.wizards.Wizard.launchForEdit</title>
<polygon fill="white" stroke="none" points="-4,4 -4,-144 1822,-144 1822,4 -4,4"/>
<!-- Node1 -->
<g id="node1" class="node"><title>Node1</title>
<polygon fill="#bfbfbf" stroke="black" points="0.5,-49 0.5,-79 173.5,-79 173.5,-49 0.5,-49"/>
<text text-anchor="start" x="8.5" y="-67" font-family="Helvetica,sans-Serif" font-size="10.00">view.editor.wizards.Wizard.launch</text>
<text text-anchor="middle" x="87" y="-56" font-family="Helvetica,sans-Serif" font-size="10.00">ForEdit</text>
</g>
<!-- Node2 -->
<g id="node2" class="node"><title>Node2</title>
<g id="a_node2"><a xlink:href="../../d7/d92/classview_1_1editor_1_1wizards_1_1_game_element_wizard.html#af1a70ba89d682d331e46be6a564472cd" target="_top" xlink:title="view.editor.wizards.Game\lElementWizard.launchBoundsWizard">
<polygon fill="white" stroke="black" points="223,-98 223,-128 413,-128 413,-98 223,-98"/>
<text text-anchor="start" x="231" y="-116" font-family="Helvetica,sans-Serif" font-size="10.00">view.editor.wizards.Game</text>
<text text-anchor="middle" x="318" y="-105" font-family="Helvetica,sans-Serif" font-size="10.00">ElementWizard.launchBoundsWizard</text>
</a>
</g>
</g>
<!-- Node1&#45;&gt;Node2 -->
<g id="edge1" class="edge"><title>Node1&#45;&gt;Node2</title>
<path fill="none" stroke="midnightblue" d="M168.315,-81.1854C193.923,-86.6647 222.042,-92.6815 246.869,-97.9938"/>
<polygon fill="midnightblue" stroke="midnightblue" points="168.775,-77.7045 158.264,-79.0346 167.31,-84.5496 168.775,-77.7045"/>
</g>
<!-- Node4 -->
<g id="node4" class="node"><title>Node4</title>
<g id="a_node4"><a xlink:href="../../d2/daf/classview_1_1editor_1_1wizards_1_1_c_r_u_d_container.html#a0dd63694421d9fc87cd4046499d3d229" target="_top" xlink:title="view.editor.wizards.CRUDContainer.launch\lEditWizard">
<polygon fill="white" stroke="black" points="210.5,-49 210.5,-79 425.5,-79 425.5,-49 210.5,-49"/>
<text text-anchor="start" x="218.5" y="-67" font-family="Helvetica,sans-Serif" font-size="10.00">view.editor.wizards.CRUDContainer.launch</text>
<text text-anchor="middle" x="318" y="-56" font-family="Helvetica,sans-Serif" font-size="10.00">EditWizard</text>
</a>
</g>
</g>
<!-- Node1&#45;&gt;Node4 -->
<g id="edge3" class="edge"><title>Node1&#45;&gt;Node4</title>
<path fill="none" stroke="midnightblue" d="M183.766,-64C192.499,-64 201.38,-64 210.201,-64"/>
<polygon fill="midnightblue" stroke="midnightblue" points="183.597,-60.5001 173.597,-64 183.597,-67.5001 183.597,-60.5001"/>
</g>
<!-- Node14 -->
<g id="node14" class="node"><title>Node14</title>
<g id="a_node14"><a xlink:href="../../d4/d65/classview_1_1editor_1_1_tab_view_controller.html#a1dc26904601bc736368a83e6ca0fc470" target="_top" xlink:title="view.editor.TabViewController.modify\lGoals">
<polygon fill="white" stroke="black" points="224,-0 224,-30 412,-30 412,-0 224,-0"/>
<text text-anchor="start" x="232" y="-18" font-family="Helvetica,sans-Serif" font-size="10.00">view.editor.TabViewController.modify</text>
<text text-anchor="middle" x="318" y="-7" font-family="Helvetica,sans-Serif" font-size="10.00">Goals</text>
</a>
</g>
</g>
<!-- Node1&#45;&gt;Node14 -->
<g id="edge14" class="edge"><title>Node1&#45;&gt;Node14</title>
<path fill="none" stroke="midnightblue" d="M168.315,-46.8146C193.923,-41.3353 222.042,-35.3185 246.869,-30.0062"/>
<polygon fill="midnightblue" stroke="midnightblue" points="167.31,-43.4504 158.264,-48.9654 168.775,-50.2955 167.31,-43.4504"/>
</g>
<!-- Node3 -->
<g id="node3" class="node"><title>Node3</title>
<g id="a_node3"><a xlink:href="../../d7/d92/classview_1_1editor_1_1wizards_1_1_game_element_wizard.html#a108e1aaa06ef6b80a4a1d33d460cde06" target="_top" xlink:title="view.editor.wizards.Game\lElementWizard.initialize">
<polygon fill="white" stroke="black" points="501.5,-98 501.5,-128 638.5,-128 638.5,-98 501.5,-98"/>
<text text-anchor="start" x="509.5" y="-116" font-family="Helvetica,sans-Serif" font-size="10.00">view.editor.wizards.Game</text>
<text text-anchor="middle" x="570" y="-105" font-family="Helvetica,sans-Serif" font-size="10.00">ElementWizard.initialize</text>
</a>
</g>
</g>
<!-- Node2&#45;&gt;Node3 -->
<g id="edge2" class="edge"><title>Node2&#45;&gt;Node3</title>
<path fill="none" stroke="midnightblue" d="M423.213,-113C449.638,-113 477.339,-113 501.411,-113"/>
<polygon fill="midnightblue" stroke="midnightblue" points="423.158,-109.5 413.158,-113 423.158,-116.5 423.158,-109.5"/>
</g>
<!-- Node5 -->
<g id="node5" class="node"><title>Node5</title>
<g id="a_node5"><a xlink:href="../../d2/daf/classview_1_1editor_1_1wizards_1_1_c_r_u_d_container.html#a93585a010caa4cdf7201f854c10001d5" target="_top" xlink:title="view.editor.wizards.CRUDContainer.create\lVisualRepresentation">
<polygon fill="white" stroke="black" points="462.5,-49 462.5,-79 677.5,-79 677.5,-49 462.5,-49"/>
<text text-anchor="start" x="470.5" y="-67" font-family="Helvetica,sans-Serif" font-size="10.00">view.editor.wizards.CRUDContainer.create</text>
<text text-anchor="middle" x="570" y="-56" font-family="Helvetica,sans-Serif" font-size="10.00">VisualRepresentation</text>
</a>
</g>
</g>
<!-- Node4&#45;&gt;Node5 -->
<g id="edge4" class="edge"><title>Node4&#45;&gt;Node5</title>
<path fill="none" stroke="midnightblue" d="M435.982,-64C444.73,-64 453.531,-64 462.211,-64"/>
<polygon fill="midnightblue" stroke="midnightblue" points="435.748,-60.5001 425.748,-64 435.748,-67.5001 435.748,-60.5001"/>
</g>
<!-- Node6 -->
<g id="node6" class="node"><title>Node6</title>
<g id="a_node6"><a xlink:href="../../d2/daf/classview_1_1editor_1_1wizards_1_1_c_r_u_d_container.html#afc90f248b63b655ded20ea49f90d01a3" target="_top" xlink:title="view.editor.wizards.CRUDContainer.add\lAndRenderWizardDatas">
<polygon fill="white" stroke="black" points="721,-74 721,-104 923,-104 923,-74 721,-74"/>
<text text-anchor="start" x="729" y="-92" font-family="Helvetica,sans-Serif" font-size="10.00">view.editor.wizards.CRUDContainer.add</text>
<text text-anchor="middle" x="822" y="-81" font-family="Helvetica,sans-Serif" font-size="10.00">AndRenderWizardDatas</text>
</a>
</g>
</g>
<!-- Node5&#45;&gt;Node6 -->
<g id="edge5" class="edge"><title>Node5&#45;&gt;Node6</title>
<path fill="none" stroke="midnightblue" d="M687.87,-75.687C698.928,-76.7928 710.072,-77.9072 720.953,-78.9953"/>
<polygon fill="midnightblue" stroke="midnightblue" points="688.046,-72.1873 677.748,-74.6748 687.35,-79.1525 688.046,-72.1873"/>
</g>
<!-- Node12 -->
<g id="node12" class="node"><title>Node12</title>
<g id="a_node12"><a xlink:href="../../d2/daf/classview_1_1editor_1_1wizards_1_1_c_r_u_d_container.html#ae2023a0be85d2e08579ad62bf18a0bc5" target="_top" xlink:title="view.editor.wizards.CRUDContainer.launch\lNestedWizard">
<polygon fill="white" stroke="black" points="714.5,-25 714.5,-55 929.5,-55 929.5,-25 714.5,-25"/>
<text text-anchor="start" x="722.5" y="-43" font-family="Helvetica,sans-Serif" font-size="10.00">view.editor.wizards.CRUDContainer.launch</text>
<text text-anchor="middle" x="822" y="-32" font-family="Helvetica,sans-Serif" font-size="10.00">NestedWizard</text>
</a>
</g>
</g>
<!-- Node5&#45;&gt;Node12 -->
<g id="edge12" class="edge"><title>Node5&#45;&gt;Node12</title>
<path fill="none" stroke="midnightblue" d="M687.982,-52.7697C696.73,-51.9299 705.531,-51.0851 714.211,-50.2517"/>
<polygon fill="midnightblue" stroke="midnightblue" points="687.367,-49.3125 677.748,-53.7522 688.036,-56.2805 687.367,-49.3125"/>
</g>
<!-- Node7 -->
<g id="node7" class="node"><title>Node7</title>
<g id="a_node7"><a xlink:href="../../d7/d92/classview_1_1editor_1_1wizards_1_1_game_element_wizard.html#a657ee6352e5119f1ec2fe9add8340899" target="_top" xlink:title="view.editor.wizards.Game\lElementWizard.addContainerData">
<polygon fill="white" stroke="black" points="987.5,-74 987.5,-104 1166.5,-104 1166.5,-74 987.5,-74"/>
<text text-anchor="start" x="995.5" y="-92" font-family="Helvetica,sans-Serif" font-size="10.00">view.editor.wizards.Game</text>
<text text-anchor="middle" x="1077" y="-81" font-family="Helvetica,sans-Serif" font-size="10.00">ElementWizard.addContainerData</text>
</a>
</g>
</g>
<!-- Node6&#45;&gt;Node7 -->
<g id="edge6" class="edge"><title>Node6&#45;&gt;Node7</title>
<path fill="none" stroke="midnightblue" d="M933.565,-89C951.512,-89 969.894,-89 987.235,-89"/>
<polygon fill="midnightblue" stroke="midnightblue" points="933.356,-85.5001 923.356,-89 933.356,-92.5001 933.356,-85.5001"/>
</g>
<!-- Node8 -->
<g id="node8" class="node"><title>Node8</title>
<g id="a_node8"><a xlink:href="../../d7/d92/classview_1_1editor_1_1wizards_1_1_game_element_wizard.html#abe8ad6d8e7a4eec7b8184d12047755be" target="_top" xlink:title="view.editor.wizards.Game\lElementWizard.launchForEdit">
<polygon fill="white" stroke="black" points="1224.5,-74 1224.5,-104 1379.5,-104 1379.5,-74 1224.5,-74"/>
<text text-anchor="start" x="1232.5" y="-92" font-family="Helvetica,sans-Serif" font-size="10.00">view.editor.wizards.Game</text>
<text text-anchor="middle" x="1302" y="-81" font-family="Helvetica,sans-Serif" font-size="10.00">ElementWizard.launchForEdit</text>
</a>
</g>
</g>
<!-- Node7&#45;&gt;Node8 -->
<g id="edge7" class="edge"><title>Node7&#45;&gt;Node8</title>
<path fill="none" stroke="midnightblue" d="M1177.13,-89C1192.98,-89 1209.18,-89 1224.4,-89"/>
<polygon fill="midnightblue" stroke="midnightblue" points="1176.78,-85.5001 1166.78,-89 1176.78,-92.5001 1176.78,-85.5001"/>
</g>
<!-- Node9 -->
<g id="node9" class="node"><title>Node9</title>
<g id="a_node9"><a xlink:href="../../d9/dfb/classview_1_1editor_1_1_element_accordion_controller.html#a71bb33e7588f335fc2ebc1346924ad2d" target="_top" xlink:title="view.editor.ElementAccordion\lController.openDrawableGameElement\lWizard">
<polygon fill="white" stroke="black" points="1419.5,-98.5 1419.5,-139.5 1622.5,-139.5 1622.5,-98.5 1419.5,-98.5"/>
<text text-anchor="start" x="1427.5" y="-127.5" font-family="Helvetica,sans-Serif" font-size="10.00">view.editor.ElementAccordion</text>
<text text-anchor="start" x="1427.5" y="-116.5" font-family="Helvetica,sans-Serif" font-size="10.00">Controller.openDrawableGameElement</text>
<text text-anchor="middle" x="1521" y="-105.5" font-family="Helvetica,sans-Serif" font-size="10.00">Wizard</text>
</a>
</g>
</g>
<!-- Node8&#45;&gt;Node9 -->
<g id="edge8" class="edge"><title>Node8&#45;&gt;Node9</title>
<path fill="none" stroke="midnightblue" d="M1389.63,-100.976C1399.44,-102.333 1409.51,-103.724 1419.48,-105.103"/>
<polygon fill="midnightblue" stroke="midnightblue" points="1389.89,-97.4794 1379.51,-99.5769 1388.93,-104.413 1389.89,-97.4794"/>
</g>
<!-- Node11 -->
<g id="node11" class="node"><title>Node11</title>
<g id="a_node11"><a xlink:href="../../d9/dfb/classview_1_1editor_1_1_element_accordion_controller.html#a8564fdf017fa6f25e3e663cf076e0c04" target="_top" xlink:title="view.editor.ElementAccordion\lController.openSelectableGameElement\lWizard">
<polygon fill="white" stroke="black" points="1416.5,-38.5 1416.5,-79.5 1625.5,-79.5 1625.5,-38.5 1416.5,-38.5"/>
<text text-anchor="start" x="1424.5" y="-67.5" font-family="Helvetica,sans-Serif" font-size="10.00">view.editor.ElementAccordion</text>
<text text-anchor="start" x="1424.5" y="-56.5" font-family="Helvetica,sans-Serif" font-size="10.00">Controller.openSelectableGameElement</text>
<text text-anchor="middle" x="1521" y="-45.5" font-family="Helvetica,sans-Serif" font-size="10.00">Wizard</text>
</a>
</g>
</g>
<!-- Node8&#45;&gt;Node11 -->
<g id="edge10" class="edge"><title>Node8&#45;&gt;Node11</title>
<path fill="none" stroke="midnightblue" d="M1389.43,-77.0512C1398.31,-75.8237 1407.39,-74.5677 1416.43,-73.318"/>
<polygon fill="midnightblue" stroke="midnightblue" points="1388.93,-73.5865 1379.51,-78.4231 1389.89,-80.5206 1388.93,-73.5865"/>
</g>
<!-- Node10 -->
<g id="node10" class="node"><title>Node10</title>
<g id="a_node10"><a xlink:href="../../d9/dfb/classview_1_1editor_1_1_element_accordion_controller.html#af80453486ff349552dab988fb64397c0" target="_top" xlink:title="view.editor.ElementAccordion\lController.init">
<polygon fill="white" stroke="black" points="1662,-74 1662,-104 1818,-104 1818,-74 1662,-74"/>
<text text-anchor="start" x="1670" y="-92" font-family="Helvetica,sans-Serif" font-size="10.00">view.editor.ElementAccordion</text>
<text text-anchor="middle" x="1740" y="-81" font-family="Helvetica,sans-Serif" font-size="10.00">Controller.init</text>
</a>
</g>
</g>
<!-- Node9&#45;&gt;Node10 -->
<g id="edge9" class="edge"><title>Node9&#45;&gt;Node10</title>
<path fill="none" stroke="midnightblue" d="M1632.47,-103.727C1642.39,-102.356 1652.28,-100.988 1661.82,-99.6694"/>
<polygon fill="midnightblue" stroke="midnightblue" points="1631.99,-100.261 1622.56,-105.098 1632.94,-107.195 1631.99,-100.261"/>
</g>
<!-- Node11&#45;&gt;Node10 -->
<g id="edge11" class="edge"><title>Node11&#45;&gt;Node10</title>
<path fill="none" stroke="midnightblue" d="M1635.75,-74.7258C1644.62,-75.9515 1653.43,-77.1707 1661.97,-78.3505"/>
<polygon fill="midnightblue" stroke="midnightblue" points="1636.12,-71.2435 1625.73,-73.341 1635.16,-78.1776 1636.12,-71.2435"/>
</g>
<!-- Node13 -->
<g id="node13" class="node"><title>Node13</title>
<g id="a_node13"><a xlink:href="../../d2/daf/classview_1_1editor_1_1wizards_1_1_c_r_u_d_container.html#ab64f7f353707925c8aa7b919886038c5" target="_top" xlink:title="view.editor.wizards.CRUDContainer.initialize">
<polygon fill="white" stroke="black" points="966,-30.5 966,-49.5 1188,-49.5 1188,-30.5 966,-30.5"/>
<text text-anchor="middle" x="1077" y="-37.5" font-family="Helvetica,sans-Serif" font-size="10.00">view.editor.wizards.CRUDContainer.initialize</text>
</a>
</g>
</g>
<!-- Node12&#45;&gt;Node13 -->
<g id="edge13" class="edge"><title>Node12&#45;&gt;Node13</title>
<path fill="none" stroke="midnightblue" d="M939.751,-40C948.464,-40 957.239,-40 965.909,-40"/>
<polygon fill="midnightblue" stroke="midnightblue" points="939.562,-36.5001 929.562,-40 939.561,-43.5001 939.562,-36.5001"/>
</g>
<!-- Node15 -->
<g id="node15" class="node"><title>Node15</title>
<g id="a_node15"><a xlink:href="../../d4/d65/classview_1_1editor_1_1_tab_view_controller.html#a82e1e1f1eb84d1c30bde3a246304473e" target="_top" xlink:title="view.editor.TabViewController.init">
<polygon fill="white" stroke="black" points="485,-5.5 485,-24.5 655,-24.5 655,-5.5 485,-5.5"/>
<text text-anchor="middle" x="570" y="-12.5" font-family="Helvetica,sans-Serif" font-size="10.00">view.editor.TabViewController.init</text>
</a>
</g>
</g>
<!-- Node14&#45;&gt;Node15 -->
<g id="edge15" class="edge"><title>Node14&#45;&gt;Node15</title>
<path fill="none" stroke="midnightblue" d="M422.252,-15C443.11,-15 464.801,-15 484.906,-15"/>
<polygon fill="midnightblue" stroke="midnightblue" points="422.091,-11.5001 412.091,-15 422.091,-18.5001 422.091,-11.5001"/>
</g>
</g>
</svg>
