<?xml version="1.0" encoding="UTF-8" standalone="no"?>
<!DOCTYPE svg PUBLIC "-//W3C//DTD SVG 1.1//EN"
 "http://www.w3.org/Graphics/SVG/1.1/DTD/svg11.dtd">
<!-- Generated by graphviz version 2.36.0 (20140111.2315)
 -->
<!-- Title: view.editor.wizards.Wizard.getRoot Pages: 1 -->
<svg width="2008pt" height="322pt"
 viewBox="0.00 0.00 2008.00 322.00" xmlns="http://www.w3.org/2000/svg" xmlns:xlink="http://www.w3.org/1999/xlink">
<g id="graph0" class="graph" transform="scale(1 1) rotate(0) translate(4 318)">
<title>view.editor.wizards.Wizard.getRoot</title>
<polygon fill="white" stroke="none" points="-4,4 -4,-318 2004,-318 2004,4 -4,4"/>
<!-- Node1 -->
<g id="node1" class="node"><title>Node1</title>
<polygon fill="#bfbfbf" stroke="black" points="0.5,-142.5 0.5,-161.5 179.5,-161.5 179.5,-142.5 0.5,-142.5"/>
<text text-anchor="middle" x="90" y="-149.5" font-family="Helvetica,sans-Serif" font-size="10.00">view.editor.wizards.Wizard.getRoot</text>
</g>
<!-- Node2 -->
<g id="node2" class="node"><title>Node2</title>
<g id="a_node2"><a xlink:href="../../d2/d33/classview_1_1editor_1_1wizards_1_1_wizard_utility.html#acece70a3dea98cde832a608d4aff204d" target="_top" xlink:title="view.editor.wizards.Wizard\lUtility.loadWizard">
<polygon fill="white" stroke="black" points="216.5,-137 216.5,-167 355.5,-167 355.5,-137 216.5,-137"/>
<text text-anchor="start" x="224.5" y="-155" font-family="Helvetica,sans-Serif" font-size="10.00">view.editor.wizards.Wizard</text>
<text text-anchor="middle" x="286" y="-144" font-family="Helvetica,sans-Serif" font-size="10.00">Utility.loadWizard</text>
</a>
</g>
</g>
<!-- Node1&#45;&gt;Node2 -->
<g id="edge1" class="edge"><title>Node1&#45;&gt;Node2</title>
<path fill="none" stroke="midnightblue" d="M189.858,-152C198.801,-152 207.724,-152 216.321,-152"/>
<polygon fill="midnightblue" stroke="midnightblue" points="189.768,-148.5 179.768,-152 189.768,-155.5 189.768,-148.5"/>
</g>
<!-- Node3 -->
<g id="node3" class="node"><title>Node3</title>
<g id="a_node3"><a xlink:href="../../dc/d0c/classview_1_1editor_1_1_editor_menu_bar_controller.html#a135d33b75dee7e5bb96b8ebd40cbe964" target="_top" xlink:title="view.editor.EditorMenuBar\lController.onNewLevelClick">
<polygon fill="white" stroke="black" points="428,-284 428,-314 572,-314 572,-284 428,-284"/>
<text text-anchor="start" x="436" y="-302" font-family="Helvetica,sans-Serif" font-size="10.00">view.editor.EditorMenuBar</text>
<text text-anchor="middle" x="500" y="-291" font-family="Helvetica,sans-Serif" font-size="10.00">Controller.onNewLevelClick</text>
</a>
</g>
</g>
<!-- Node2&#45;&gt;Node3 -->
<g id="edge2" class="edge"><title>Node2&#45;&gt;Node3</title>
<path fill="none" stroke="midnightblue" d="M300.893,-175.815C318.476,-203.763 351.419,-249.407 392,-274 402.849,-280.575 415.282,-285.421 427.744,-288.993"/>
<polygon fill="midnightblue" stroke="midnightblue" points="303.742,-173.765 295.53,-167.071 297.775,-177.425 303.742,-173.765"/>
</g>
<!-- Node6 -->
<g id="node6" class="node"><title>Node6</title>
<g id="a_node6"><a xlink:href="../../dc/d0c/classview_1_1editor_1_1_editor_menu_bar_controller.html#ace188ceb5aa48f608d66256760574071" target="_top" xlink:title="view.editor.EditorMenuBar\lController.onNewCampaignClick">
<polygon fill="white" stroke="black" points="416,-235 416,-265 584,-265 584,-235 416,-235"/>
<text text-anchor="start" x="424" y="-253" font-family="Helvetica,sans-Serif" font-size="10.00">view.editor.EditorMenuBar</text>
<text text-anchor="middle" x="500" y="-242" font-family="Helvetica,sans-Serif" font-size="10.00">Controller.onNewCampaignClick</text>
</a>
</g>
</g>
<!-- Node2&#45;&gt;Node6 -->
<g id="edge5" class="edge"><title>Node2&#45;&gt;Node6</title>
<path fill="none" stroke="midnightblue" d="M312.136,-173.589C332.438,-189.966 362.404,-211.835 392,-225 400.628,-228.838 409.92,-232.126 419.296,-234.934"/>
<polygon fill="midnightblue" stroke="midnightblue" points="314.271,-170.813 304.322,-167.17 309.828,-176.222 314.271,-170.813"/>
</g>
<!-- Node7 -->
<g id="node7" class="node"><title>Node7</title>
<g id="a_node7"><a xlink:href="../../d4/d65/classview_1_1editor_1_1_tab_view_controller.html#ae2a5da639fc38047249eeb0a5728dee0" target="_top" xlink:title="view.editor.TabViewController.launch\lNestedWizard">
<polygon fill="white" stroke="black" points="406.5,-186 406.5,-216 593.5,-216 593.5,-186 406.5,-186"/>
<text text-anchor="start" x="414.5" y="-204" font-family="Helvetica,sans-Serif" font-size="10.00">view.editor.TabViewController.launch</text>
<text text-anchor="middle" x="500" y="-193" font-family="Helvetica,sans-Serif" font-size="10.00">NestedWizard</text>
</a>
</g>
</g>
<!-- Node2&#45;&gt;Node7 -->
<g id="edge7" class="edge"><title>Node2&#45;&gt;Node7</title>
<path fill="none" stroke="midnightblue" d="M361.983,-169.331C385.52,-174.771 411.295,-180.729 434.075,-185.994"/>
<polygon fill="midnightblue" stroke="midnightblue" points="362.579,-165.877 352.048,-167.035 361.003,-172.697 362.579,-165.877"/>
</g>
<!-- Node9 -->
<g id="node9" class="node"><title>Node9</title>
<g id="a_node9"><a xlink:href="../../d4/d65/classview_1_1editor_1_1_tab_view_controller.html#a1dc26904601bc736368a83e6ca0fc470" target="_top" xlink:title="view.editor.TabViewController.modify\lGoals">
<polygon fill="white" stroke="black" points="406,-137 406,-167 594,-167 594,-137 406,-137"/>
<text text-anchor="start" x="414" y="-155" font-family="Helvetica,sans-Serif" font-size="10.00">view.editor.TabViewController.modify</text>
<text text-anchor="middle" x="500" y="-144" font-family="Helvetica,sans-Serif" font-size="10.00">Goals</text>
</a>
</g>
</g>
<!-- Node2&#45;&gt;Node9 -->
<g id="edge9" class="edge"><title>Node2&#45;&gt;Node9</title>
<path fill="none" stroke="midnightblue" d="M365.879,-152C378.952,-152 392.616,-152 405.999,-152"/>
<polygon fill="midnightblue" stroke="midnightblue" points="365.538,-148.5 355.538,-152 365.538,-155.5 365.538,-148.5"/>
</g>
<!-- Node10 -->
<g id="node10" class="node"><title>Node10</title>
<g id="a_node10"><a xlink:href="../../d2/daf/classview_1_1editor_1_1wizards_1_1_c_r_u_d_container.html#ae2023a0be85d2e08579ad62bf18a0bc5" target="_top" xlink:title="view.editor.wizards.CRUDContainer.launch\lNestedWizard">
<polygon fill="white" stroke="black" points="896.5,-93 896.5,-123 1111.5,-123 1111.5,-93 896.5,-93"/>
<text text-anchor="start" x="904.5" y="-111" font-family="Helvetica,sans-Serif" font-size="10.00">view.editor.wizards.CRUDContainer.launch</text>
<text text-anchor="middle" x="1004" y="-100" font-family="Helvetica,sans-Serif" font-size="10.00">NestedWizard</text>
</a>
</g>
</g>
<!-- Node2&#45;&gt;Node10 -->
<g id="edge11" class="edge"><title>Node2&#45;&gt;Node10</title>
<path fill="none" stroke="midnightblue" d="M350.963,-134.596C364.423,-131.547 378.604,-128.784 392,-127 567.55,-103.618 773.857,-102.646 896.229,-104.803"/>
<polygon fill="midnightblue" stroke="midnightblue" points="349.771,-131.28 340.834,-136.971 351.369,-138.095 349.771,-131.28"/>
</g>
<!-- Node12 -->
<g id="node12" class="node"><title>Node12</title>
<g id="a_node12"><a xlink:href="../../d2/daf/classview_1_1editor_1_1wizards_1_1_c_r_u_d_container.html#a0dd63694421d9fc87cd4046499d3d229" target="_top" xlink:title="view.editor.wizards.CRUDContainer.launch\lEditWizard">
<polygon fill="white" stroke="black" points="392.5,-49 392.5,-79 607.5,-79 607.5,-49 392.5,-49"/>
<text text-anchor="start" x="400.5" y="-67" font-family="Helvetica,sans-Serif" font-size="10.00">view.editor.wizards.CRUDContainer.launch</text>
<text text-anchor="middle" x="500" y="-56" font-family="Helvetica,sans-Serif" font-size="10.00">EditWizard</text>
</a>
</g>
</g>
<!-- Node2&#45;&gt;Node12 -->
<g id="edge13" class="edge"><title>Node2&#45;&gt;Node12</title>
<path fill="none" stroke="midnightblue" d="M319.625,-131.405C339.876,-119.28 366.768,-104.343 392,-94 405.924,-88.2926 421.296,-83.278 435.942,-79.0641"/>
<polygon fill="midnightblue" stroke="midnightblue" points="317.549,-128.57 310.817,-136.752 321.182,-134.554 317.549,-128.57"/>
</g>
<!-- Node20 -->
<g id="node20" class="node"><title>Node20</title>
<g id="a_node20"><a xlink:href="../../d7/d92/classview_1_1editor_1_1wizards_1_1_game_element_wizard.html#af1a70ba89d682d331e46be6a564472cd" target="_top" xlink:title="view.editor.wizards.Game\lElementWizard.launchBoundsWizard">
<polygon fill="white" stroke="black" points="405,-0 405,-30 595,-30 595,-0 405,-0"/>
<text text-anchor="start" x="413" y="-18" font-family="Helvetica,sans-Serif" font-size="10.00">view.editor.wizards.Game</text>
<text text-anchor="middle" x="500" y="-7" font-family="Helvetica,sans-Serif" font-size="10.00">ElementWizard.launchBoundsWizard</text>
</a>
</g>
</g>
<!-- Node2&#45;&gt;Node20 -->
<g id="edge23" class="edge"><title>Node2&#45;&gt;Node20</title>
<path fill="none" stroke="midnightblue" d="M302.389,-128.311C320.595,-102.27 353.362,-61.1924 392,-39 398.026,-35.539 404.508,-32.5771 411.195,-30.0423"/>
<polygon fill="midnightblue" stroke="midnightblue" points="299.315,-126.606 296.57,-136.839 305.097,-130.551 299.315,-126.606"/>
</g>
<!-- Node4 -->
<g id="node4" class="node"><title>Node4</title>
<g id="a_node4"><a xlink:href="../../dc/d0c/classview_1_1editor_1_1_editor_menu_bar_controller.html#a56696b0f0540d2e86c3e4fe4521717a2" target="_top" xlink:title="view.editor.EditorMenuBar\lController.initFileMenu">
<polygon fill="white" stroke="black" points="682,-259 682,-289 822,-289 822,-259 682,-259"/>
<text text-anchor="start" x="690" y="-277" font-family="Helvetica,sans-Serif" font-size="10.00">view.editor.EditorMenuBar</text>
<text text-anchor="middle" x="752" y="-266" font-family="Helvetica,sans-Serif" font-size="10.00">Controller.initFileMenu</text>
</a>
</g>
</g>
<!-- Node3&#45;&gt;Node4 -->
<g id="edge3" class="edge"><title>Node3&#45;&gt;Node4</title>
<path fill="none" stroke="midnightblue" d="M582.547,-290.845C614.601,-287.64 651.009,-283.999 681.757,-280.924"/>
<polygon fill="midnightblue" stroke="midnightblue" points="581.907,-287.392 572.305,-291.869 582.604,-294.357 581.907,-287.392"/>
</g>
<!-- Node5 -->
<g id="node5" class="node"><title>Node5</title>
<g id="a_node5"><a xlink:href="../../dc/d0c/classview_1_1editor_1_1_editor_menu_bar_controller.html#a5b101a400664af0200be8010673acb49" target="_top" xlink:title="view.editor.EditorMenuBar\lController.initMenuBar">
<polygon fill="white" stroke="black" points="934,-259 934,-289 1074,-289 1074,-259 934,-259"/>
<text text-anchor="start" x="942" y="-277" font-family="Helvetica,sans-Serif" font-size="10.00">view.editor.EditorMenuBar</text>
<text text-anchor="middle" x="1004" y="-266" font-family="Helvetica,sans-Serif" font-size="10.00">Controller.initMenuBar</text>
</a>
</g>
</g>
<!-- Node4&#45;&gt;Node5 -->
<g id="edge4" class="edge"><title>Node4&#45;&gt;Node5</title>
<path fill="none" stroke="midnightblue" d="M832.704,-274C865.281,-274 902.605,-274 933.992,-274"/>
<polygon fill="midnightblue" stroke="midnightblue" points="832.307,-270.5 822.307,-274 832.307,-277.5 832.307,-270.5"/>
</g>
<!-- Node6&#45;&gt;Node4 -->
<g id="edge6" class="edge"><title>Node6&#45;&gt;Node4</title>
<path fill="none" stroke="midnightblue" d="M594.392,-258.966C623.394,-261.75 654.826,-264.767 681.867,-267.363"/>
<polygon fill="midnightblue" stroke="midnightblue" points="594.535,-255.463 584.246,-257.992 593.866,-262.431 594.535,-255.463"/>
</g>
<!-- Node8 -->
<g id="node8" class="node"><title>Node8</title>
<g id="a_node8"><a xlink:href="../../d4/d65/classview_1_1editor_1_1_tab_view_controller.html#a82e1e1f1eb84d1c30bde3a246304473e" target="_top" xlink:title="view.editor.TabViewController.init">
<polygon fill="white" stroke="black" points="667,-166.5 667,-185.5 837,-185.5 837,-166.5 667,-166.5"/>
<text text-anchor="middle" x="752" y="-173.5" font-family="Helvetica,sans-Serif" font-size="10.00">view.editor.TabViewController.init</text>
</a>
</g>
</g>
<!-- Node7&#45;&gt;Node8 -->
<g id="edge8" class="edge"><title>Node7&#45;&gt;Node8</title>
<path fill="none" stroke="midnightblue" d="M603.908,-190.709C624.792,-188.621 646.524,-186.448 666.675,-184.433"/>
<polygon fill="midnightblue" stroke="midnightblue" points="603.338,-187.249 593.736,-191.726 604.034,-194.214 603.338,-187.249"/>
</g>
<!-- Node9&#45;&gt;Node8 -->
<g id="edge10" class="edge"><title>Node9&#45;&gt;Node8</title>
<path fill="none" stroke="midnightblue" d="M604.252,-161.912C625.11,-163.915 646.801,-165.997 666.906,-167.927"/>
<polygon fill="midnightblue" stroke="midnightblue" points="604.38,-158.408 594.091,-160.937 603.711,-165.376 604.38,-158.408"/>
</g>
<!-- Node11 -->
<g id="node11" class="node"><title>Node11</title>
<g id="a_node11"><a xlink:href="../../d2/daf/classview_1_1editor_1_1wizards_1_1_c_r_u_d_container.html#ab64f7f353707925c8aa7b919886038c5" target="_top" xlink:title="view.editor.wizards.CRUDContainer.initialize">
<polygon fill="white" stroke="black" points="1148,-98.5 1148,-117.5 1370,-117.5 1370,-98.5 1148,-98.5"/>
<text text-anchor="middle" x="1259" y="-105.5" font-family="Helvetica,sans-Serif" font-size="10.00">view.editor.wizards.CRUDContainer.initialize</text>
</a>
</g>
</g>
<!-- Node10&#45;&gt;Node11 -->
<g id="edge12" class="edge"><title>Node10&#45;&gt;Node11</title>
<path fill="none" stroke="midnightblue" d="M1121.75,-108C1130.46,-108 1139.24,-108 1147.91,-108"/>
<polygon fill="midnightblue" stroke="midnightblue" points="1121.56,-104.5 1111.56,-108 1121.56,-111.5 1121.56,-104.5"/>
</g>
<!-- Node13 -->
<g id="node13" class="node"><title>Node13</title>
<g id="a_node13"><a xlink:href="../../d2/daf/classview_1_1editor_1_1wizards_1_1_c_r_u_d_container.html#a93585a010caa4cdf7201f854c10001d5" target="_top" xlink:title="view.editor.wizards.CRUDContainer.create\lVisualRepresentation">
<polygon fill="white" stroke="black" points="644.5,-49 644.5,-79 859.5,-79 859.5,-49 644.5,-49"/>
<text text-anchor="start" x="652.5" y="-67" font-family="Helvetica,sans-Serif" font-size="10.00">view.editor.wizards.CRUDContainer.create</text>
<text text-anchor="middle" x="752" y="-56" font-family="Helvetica,sans-Serif" font-size="10.00">VisualRepresentation</text>
</a>
</g>
</g>
<!-- Node12&#45;&gt;Node13 -->
<g id="edge14" class="edge"><title>Node12&#45;&gt;Node13</title>
<path fill="none" stroke="midnightblue" d="M617.982,-64C626.73,-64 635.531,-64 644.211,-64"/>
<polygon fill="midnightblue" stroke="midnightblue" points="617.748,-60.5001 607.748,-64 617.748,-67.5001 617.748,-60.5001"/>
</g>
<!-- Node13&#45;&gt;Node10 -->
<g id="edge22" class="edge"><title>Node13&#45;&gt;Node10</title>
<path fill="none" stroke="midnightblue" d="M848.35,-80.7817C871.137,-84.7922 895.319,-89.0482 917.624,-92.9738"/>
<polygon fill="midnightblue" stroke="midnightblue" points="848.792,-77.3057 838.337,-79.0192 847.579,-84.1997 848.792,-77.3057"/>
</g>
<!-- Node14 -->
<g id="node14" class="node"><title>Node14</title>
<g id="a_node14"><a xlink:href="../../d2/daf/classview_1_1editor_1_1wizards_1_1_c_r_u_d_container.html#afc90f248b63b655ded20ea49f90d01a3" target="_top" xlink:title="view.editor.wizards.CRUDContainer.add\lAndRenderWizardDatas">
<polygon fill="white" stroke="black" points="903,-44 903,-74 1105,-74 1105,-44 903,-44"/>
<text text-anchor="start" x="911" y="-62" font-family="Helvetica,sans-Serif" font-size="10.00">view.editor.wizards.CRUDContainer.add</text>
<text text-anchor="middle" x="1004" y="-51" font-family="Helvetica,sans-Serif" font-size="10.00">AndRenderWizardDatas</text>
</a>
</g>
</g>
<!-- Node13&#45;&gt;Node14 -->
<g id="edge15" class="edge"><title>Node13&#45;&gt;Node14</title>
<path fill="none" stroke="midnightblue" d="M869.87,-61.6626C880.928,-61.4414 892.072,-61.2186 902.953,-61.0009"/>
<polygon fill="midnightblue" stroke="midnightblue" points="869.676,-58.1657 859.748,-61.865 869.816,-65.1643 869.676,-58.1657"/>
</g>
<!-- Node15 -->
<g id="node15" class="node"><title>Node15</title>
<g id="a_node15"><a xlink:href="../../d7/d92/classview_1_1editor_1_1wizards_1_1_game_element_wizard.html#a657ee6352e5119f1ec2fe9add8340899" target="_top" xlink:title="view.editor.wizards.Game\lElementWizard.addContainerData">
<polygon fill="white" stroke="black" points="1169.5,-44 1169.5,-74 1348.5,-74 1348.5,-44 1169.5,-44"/>
<text text-anchor="start" x="1177.5" y="-62" font-family="Helvetica,sans-Serif" font-size="10.00">view.editor.wizards.Game</text>
<text text-anchor="middle" x="1259" y="-51" font-family="Helvetica,sans-Serif" font-size="10.00">ElementWizard.addContainerData</text>
</a>
</g>
</g>
<!-- Node14&#45;&gt;Node15 -->
<g id="edge16" class="edge"><title>Node14&#45;&gt;Node15</title>
<path fill="none" stroke="midnightblue" d="M1115.57,-59C1133.51,-59 1151.89,-59 1169.23,-59"/>
<polygon fill="midnightblue" stroke="midnightblue" points="1115.36,-55.5001 1105.36,-59 1115.36,-62.5001 1115.36,-55.5001"/>
</g>
<!-- Node16 -->
<g id="node16" class="node"><title>Node16</title>
<g id="a_node16"><a xlink:href="../../d7/d92/classview_1_1editor_1_1wizards_1_1_game_element_wizard.html#abe8ad6d8e7a4eec7b8184d12047755be" target="_top" xlink:title="view.editor.wizards.Game\lElementWizard.launchForEdit">
<polygon fill="white" stroke="black" points="1406.5,-44 1406.5,-74 1561.5,-74 1561.5,-44 1406.5,-44"/>
<text text-anchor="start" x="1414.5" y="-62" font-family="Helvetica,sans-Serif" font-size="10.00">view.editor.wizards.Game</text>
<text text-anchor="middle" x="1484" y="-51" font-family="Helvetica,sans-Serif" font-size="10.00">ElementWizard.launchForEdit</text>
</a>
</g>
</g>
<!-- Node15&#45;&gt;Node16 -->
<g id="edge17" class="edge"><title>Node15&#45;&gt;Node16</title>
<path fill="none" stroke="midnightblue" d="M1359.13,-59C1374.98,-59 1391.18,-59 1406.4,-59"/>
<polygon fill="midnightblue" stroke="midnightblue" points="1358.78,-55.5001 1348.78,-59 1358.78,-62.5001 1358.78,-55.5001"/>
</g>
<!-- Node17 -->
<g id="node17" class="node"><title>Node17</title>
<g id="a_node17"><a xlink:href="../../d9/dfb/classview_1_1editor_1_1_element_accordion_controller.html#a71bb33e7588f335fc2ebc1346924ad2d" target="_top" xlink:title="view.editor.ElementAccordion\lController.openDrawableGameElement\lWizard">
<polygon fill="white" stroke="black" points="1601.5,-68.5 1601.5,-109.5 1804.5,-109.5 1804.5,-68.5 1601.5,-68.5"/>
<text text-anchor="start" x="1609.5" y="-97.5" font-family="Helvetica,sans-Serif" font-size="10.00">view.editor.ElementAccordion</text>
<text text-anchor="start" x="1609.5" y="-86.5" font-family="Helvetica,sans-Serif" font-size="10.00">Controller.openDrawableGameElement</text>
<text text-anchor="middle" x="1703" y="-75.5" font-family="Helvetica,sans-Serif" font-size="10.00">Wizard</text>
</a>
</g>
</g>
<!-- Node16&#45;&gt;Node17 -->
<g id="edge18" class="edge"><title>Node16&#45;&gt;Node17</title>
<path fill="none" stroke="midnightblue" d="M1571.63,-70.9763C1581.44,-72.333 1591.51,-73.7242 1601.48,-75.1029"/>
<polygon fill="midnightblue" stroke="midnightblue" points="1571.89,-67.4794 1561.51,-69.5769 1570.93,-74.4135 1571.89,-67.4794"/>
</g>
<!-- Node19 -->
<g id="node19" class="node"><title>Node19</title>
<g id="a_node19"><a xlink:href="../../d9/dfb/classview_1_1editor_1_1_element_accordion_controller.html#a8564fdf017fa6f25e3e663cf076e0c04" target="_top" xlink:title="view.editor.ElementAccordion\lController.openSelectableGameElement\lWizard">
<polygon fill="white" stroke="black" points="1598.5,-8.5 1598.5,-49.5 1807.5,-49.5 1807.5,-8.5 1598.5,-8.5"/>
<text text-anchor="start" x="1606.5" y="-37.5" font-family="Helvetica,sans-Serif" font-size="10.00">view.editor.ElementAccordion</text>
<text text-anchor="start" x="1606.5" y="-26.5" font-family="Helvetica,sans-Serif" font-size="10.00">Controller.openSelectableGameElement</text>
<text text-anchor="middle" x="1703" y="-15.5" font-family="Helvetica,sans-Serif" font-size="10.00">Wizard</text>
</a>
</g>
</g>
<!-- Node16&#45;&gt;Node19 -->
<g id="edge20" class="edge"><title>Node16&#45;&gt;Node19</title>
<path fill="none" stroke="midnightblue" d="M1571.43,-47.0512C1580.31,-45.8237 1589.39,-44.5677 1598.43,-43.318"/>
<polygon fill="midnightblue" stroke="midnightblue" points="1570.93,-43.5865 1561.51,-48.4231 1571.89,-50.5206 1570.93,-43.5865"/>
</g>
<!-- Node18 -->
<g id="node18" class="node"><title>Node18</title>
<g id="a_node18"><a xlink:href="../../d9/dfb/classview_1_1editor_1_1_element_accordion_controller.html#af80453486ff349552dab988fb64397c0" target="_top" xlink:title="view.editor.ElementAccordion\lController.init">
<polygon fill="white" stroke="black" points="1844,-44 1844,-74 2000,-74 2000,-44 1844,-44"/>
<text text-anchor="start" x="1852" y="-62" font-family="Helvetica,sans-Serif" font-size="10.00">view.editor.ElementAccordion</text>
<text text-anchor="middle" x="1922" y="-51" font-family="Helvetica,sans-Serif" font-size="10.00">Controller.init</text>
</a>
</g>
</g>
<!-- Node17&#45;&gt;Node18 -->
<g id="edge19" class="edge"><title>Node17&#45;&gt;Node18</title>
<path fill="none" stroke="midnightblue" d="M1814.47,-73.7274C1824.39,-72.3564 1834.28,-70.9885 1843.82,-69.6694"/>
<polygon fill="midnightblue" stroke="midnightblue" points="1813.99,-70.2612 1804.56,-75.0978 1814.94,-77.1952 1813.99,-70.2612"/>
</g>
<!-- Node19&#45;&gt;Node18 -->
<g id="edge21" class="edge"><title>Node19&#45;&gt;Node18</title>
<path fill="none" stroke="midnightblue" d="M1817.75,-44.7258C1826.62,-45.9515 1835.43,-47.1707 1843.97,-48.3505"/>
<polygon fill="midnightblue" stroke="midnightblue" points="1818.12,-41.2435 1807.73,-43.341 1817.16,-48.1776 1818.12,-41.2435"/>
</g>
<!-- Node21 -->
<g id="node21" class="node"><title>Node21</title>
<g id="a_node21"><a xlink:href="../../d7/d92/classview_1_1editor_1_1wizards_1_1_game_element_wizard.html#a108e1aaa06ef6b80a4a1d33d460cde06" target="_top" xlink:title="view.editor.wizards.Game\lElementWizard.initialize">
<polygon fill="white" stroke="black" points="683.5,-0 683.5,-30 820.5,-30 820.5,-0 683.5,-0"/>
<text text-anchor="start" x="691.5" y="-18" font-family="Helvetica,sans-Serif" font-size="10.00">view.editor.wizards.Game</text>
<text text-anchor="middle" x="752" y="-7" font-family="Helvetica,sans-Serif" font-size="10.00">ElementWizard.initialize</text>
</a>
</g>
</g>
<!-- Node20&#45;&gt;Node21 -->
<g id="edge24" class="edge"><title>Node20&#45;&gt;Node21</title>
<path fill="none" stroke="midnightblue" d="M605.213,-15C631.638,-15 659.339,-15 683.411,-15"/>
<polygon fill="midnightblue" stroke="midnightblue" points="605.158,-11.5001 595.158,-15 605.158,-18.5001 605.158,-11.5001"/>
</g>
</g>
</svg>
