<?xml version="1.0" encoding="UTF-8" standalone="no"?>
<!DOCTYPE svg PUBLIC "-//W3C//DTD SVG 1.1//EN"
 "http://www.w3.org/Graphics/SVG/1.1/DTD/svg11.dtd">
<!-- Generated by graphviz version 2.36.0 (20140111.2315)
 -->
<!-- Title: view.editor.wizards.Wizard.setWizardType Pages: 1 -->
<!--zoomable 479 -->
<svg id="main" version="1.1" xmlns="http://www.w3.org/2000/svg" xmlns:xlink="http://www.w3.org/1999/xlink" xml:space="preserve" onload="init(evt)">
<style type="text/css"><![CDATA[
.edge:hover path { stroke: red; }
.edge:hover polygon { stroke: red; fill: red; }
]]></style>
<script type="text/javascript"><![CDATA[
var edges = document.getElementsByTagName('g');
if (edges && edges.length) {
  for (var i=0;i<edges.length;i++) {
    if (edges[i].id.substr(0,4)=='edge') {
      edges[i].setAttribute('class','edge');
    }
  }
}
]]></script>
        <defs>
                <circle id="rim" cx="0" cy="0" r="7"/>
                <circle id="rim2" cx="0" cy="0" r="3.5"/>
                <g id="zoomPlus">
                        <use xlink:href="#rim" fill="#404040">
                                <set attributeName="fill" to="#808080" begin="zoomplus.mouseover" end="zoomplus.mouseout"/>
                        </use>
                        <path d="M-4,0h8M0,-4v8" fill="none" stroke="white" stroke-width="1.5" pointer-events="none"/>
                </g>
                <g id="zoomMin">
                        <use xlink:href="#rim" fill="#404040">
                                <set attributeName="fill" to="#808080" begin="zoomminus.mouseover" end="zoomminus.mouseout"/>
                        </use>
                        <path d="M-4,0h8" fill="none" stroke="white" stroke-width="1.5" pointer-events="none"/>
                </g>
                <g id="dirArrow">
                        <path fill="none" stroke="white" stroke-width="1.5" d="M0,-3.0v7 M-2.5,-0.5L0,-3.0L2.5,-0.5"/>
                </g>
               <g id="resetDef">
                       <use xlink:href="#rim2" fill="#404040">
                               <set attributeName="fill" to="#808080" begin="reset.mouseover" end="reset.mouseout"/>
                       </use>
               </g>
        </defs>

<script type="text/javascript">
var viewWidth = 358;
var viewHeight = 479;
var sectionId = 'dynsection-25';
</script>
<script xlink:href="../../svgpan.js"/>
<svg id="graph" class="graph">
<g id="viewport">
<title>view.editor.wizards.Wizard.setWizardType</title>
<polygon fill="white" stroke="none" points="-4,4 -4,-475 354,-475 354,4 -4,4"/>
<!-- Node1 -->
<g id="node1" class="node"><title>Node1</title>
<polygon fill="#bfbfbf" stroke="black" points="0.5,-220 0.5,-250 157.5,-250 157.5,-220 0.5,-220"/>
<text text-anchor="start" x="8.5" y="-238" font-family="Helvetica,sans-Serif" font-size="10.00">view.editor.wizards.Wizard.set</text>
<text text-anchor="middle" x="79" y="-227" font-family="Helvetica,sans-Serif" font-size="10.00">WizardType</text>
</g>
<!-- Node2 -->
<g id="node2" class="node"><title>Node2</title>
<g id="a_node2"><a xlink:href="../../de/dbd/classview_1_1editor_1_1wizards_1_1_number_attribute_wizard.html#a0692505fadd2673528b7ada50ca85521" target="_top" xlink:title="view.editor.wizards.Number\lAttributeWizard.updateData">
<polygon fill="white" stroke="black" points="197,-441 197,-471 347,-471 347,-441 197,-441"/>
<text text-anchor="start" x="205" y="-459" font-family="Helvetica,sans-Serif" font-size="10.00">view.editor.wizards.Number</text>
<text text-anchor="middle" x="272" y="-448" font-family="Helvetica,sans-Serif" font-size="10.00">AttributeWizard.updateData</text>
</a>
</g>
</g>
<!-- Node1&#45;&gt;Node2 -->
<g id="edge1" class="edge"><title>Node1&#45;&gt;Node2</title>
<path fill="none" stroke="midnightblue" d="M87.7574,-259.566C102.069,-300.962 136.529,-384.624 194,-431 198.813,-434.884 204.246,-438.171 209.944,-440.952"/>
<polygon fill="midnightblue" stroke="midnightblue" points="91.048,-258.37 84.5513,-250.001 84.4109,-260.595 91.048,-258.37"/>
</g>
<!-- Node3 -->
<g id="node3" class="node"><title>Node3</title>
<g id="a_node3"><a xlink:href="../../da/d29/classview_1_1editor_1_1wizards_1_1_campaign_wizard.html#a05a983996105f21612cd9663cec6cc46" target="_top" xlink:title="view.editor.wizards.Campaign\lWizard.updateData">
<polygon fill="white" stroke="black" points="194,-392 194,-422 350,-422 350,-392 194,-392"/>
<text text-anchor="start" x="202" y="-410" font-family="Helvetica,sans-Serif" font-size="10.00">view.editor.wizards.Campaign</text>
<text text-anchor="middle" x="272" y="-399" font-family="Helvetica,sans-Serif" font-size="10.00">Wizard.updateData</text>
</a>
</g>
</g>
<!-- Node1&#45;&gt;Node3 -->
<g id="edge2" class="edge"><title>Node1&#45;&gt;Node3</title>
<path fill="none" stroke="midnightblue" d="M92.6389,-259.204C110.815,-291.723 147.343,-349.213 194,-382 199.52,-385.879 205.677,-389.182 212.038,-391.989"/>
<polygon fill="midnightblue" stroke="midnightblue" points="95.6679,-257.448 87.8007,-250.352 89.5254,-260.805 95.6679,-257.448"/>
</g>
<!-- Node4 -->
<g id="node4" class="node"><title>Node4</title>
<g id="a_node4"><a xlink:href="../../d9/df7/classview_1_1editor_1_1wizards_1_1_position_wizard.html#a11240e3a5e5a611c1dc801869da1461a" target="_top" xlink:title="view.editor.wizards.Position\lWizard.updateData">
<polygon fill="white" stroke="black" points="199.5,-343 199.5,-373 344.5,-373 344.5,-343 199.5,-343"/>
<text text-anchor="start" x="207.5" y="-361" font-family="Helvetica,sans-Serif" font-size="10.00">view.editor.wizards.Position</text>
<text text-anchor="middle" x="272" y="-350" font-family="Helvetica,sans-Serif" font-size="10.00">Wizard.updateData</text>
</a>
</g>
</g>
<!-- Node1&#45;&gt;Node4 -->
<g id="edge3" class="edge"><title>Node1&#45;&gt;Node4</title>
<path fill="none" stroke="midnightblue" d="M100.664,-257.327C122.112,-279.324 157.568,-312.526 194,-333 200.739,-336.787 208.136,-340.101 215.598,-342.97"/>
<polygon fill="midnightblue" stroke="midnightblue" points="103.132,-254.844 93.6826,-250.052 98.0815,-259.691 103.132,-254.844"/>
</g>
<!-- Node5 -->
<g id="node5" class="node"><title>Node5</title>
<g id="a_node5"><a xlink:href="../../d1/d26/classview_1_1editor_1_1wizards_1_1_attribute_wizard.html#af85cdf1584590c5e7a85a88237e1a045" target="_top" xlink:title="view.editor.wizards.Attribute\lWizard.updateData">
<polygon fill="white" stroke="black" points="197.5,-294 197.5,-324 346.5,-324 346.5,-294 197.5,-294"/>
<text text-anchor="start" x="205.5" y="-312" font-family="Helvetica,sans-Serif" font-size="10.00">view.editor.wizards.Attribute</text>
<text text-anchor="middle" x="272" y="-301" font-family="Helvetica,sans-Serif" font-size="10.00">Wizard.updateData</text>
</a>
</g>
</g>
<!-- Node1&#45;&gt;Node5 -->
<g id="edge4" class="edge"><title>Node1&#45;&gt;Node5</title>
<path fill="none" stroke="midnightblue" d="M122.493,-254.368C143.774,-263.785 170.047,-274.985 194,-284 203.076,-287.416 212.854,-290.806 222.295,-293.937"/>
<polygon fill="midnightblue" stroke="midnightblue" points="123.652,-251.053 113.093,-250.182 120.804,-257.447 123.652,-251.053"/>
</g>
<!-- Node6 -->
<g id="node6" class="node"><title>Node6</title>
<g id="a_node6"><a xlink:href="../../d3/dcd/classview_1_1editor_1_1wizards_1_1_widget_wizard.html#ad34080a5b1af00d156068cd8a9d62ccc" target="_top" xlink:title="view.editor.wizards.Widget\lWizard.updateData">
<polygon fill="white" stroke="black" points="202,-245 202,-275 342,-275 342,-245 202,-245"/>
<text text-anchor="start" x="210" y="-263" font-family="Helvetica,sans-Serif" font-size="10.00">view.editor.wizards.Widget</text>
<text text-anchor="middle" x="272" y="-252" font-family="Helvetica,sans-Serif" font-size="10.00">Wizard.updateData</text>
</a>
</g>
</g>
<!-- Node1&#45;&gt;Node6 -->
<g id="edge5" class="edge"><title>Node1&#45;&gt;Node6</title>
<path fill="none" stroke="midnightblue" d="M167.728,-246.483C179.217,-247.987 190.857,-249.51 201.977,-250.966"/>
<polygon fill="midnightblue" stroke="midnightblue" points="168.057,-242.996 157.687,-245.168 167.148,-249.937 168.057,-242.996"/>
</g>
<!-- Node7 -->
<g id="node7" class="node"><title>Node7</title>
<g id="a_node7"><a xlink:href="../../d0/d6c/classview_1_1editor_1_1wizards_1_1_action_wizard.html#a64a1196af9550ddf0042b60415dff9b8" target="_top" xlink:title="view.editor.wizards.Action\lWizard.updateData">
<polygon fill="white" stroke="black" points="203.5,-196 203.5,-226 340.5,-226 340.5,-196 203.5,-196"/>
<text text-anchor="start" x="211.5" y="-214" font-family="Helvetica,sans-Serif" font-size="10.00">view.editor.wizards.Action</text>
<text text-anchor="middle" x="272" y="-203" font-family="Helvetica,sans-Serif" font-size="10.00">Wizard.updateData</text>
</a>
</g>
</g>
<!-- Node1&#45;&gt;Node7 -->
<g id="edge6" class="edge"><title>Node1&#45;&gt;Node7</title>
<path fill="none" stroke="midnightblue" d="M167.723,-223.977C179.737,-222.468 191.916,-220.937 203.493,-219.483"/>
<polygon fill="midnightblue" stroke="midnightblue" points="167.173,-220.519 157.687,-225.238 168.045,-227.464 167.173,-220.519"/>
</g>
<!-- Node8 -->
<g id="node8" class="node"><title>Node8</title>
<g id="a_node8"><a xlink:href="../../d0/db3/classview_1_1editor_1_1wizards_1_1_level_wizard.html#a4544f7222fcd615c9bbe92508eb7c9a1" target="_top" xlink:title="view.editor.wizards.Level\lWizard.updateData">
<polygon fill="white" stroke="black" points="206,-147 206,-177 338,-177 338,-147 206,-147"/>
<text text-anchor="start" x="214" y="-165" font-family="Helvetica,sans-Serif" font-size="10.00">view.editor.wizards.Level</text>
<text text-anchor="middle" x="272" y="-154" font-family="Helvetica,sans-Serif" font-size="10.00">Wizard.updateData</text>
</a>
</g>
</g>
<!-- Node1&#45;&gt;Node8 -->
<g id="edge7" class="edge"><title>Node1&#45;&gt;Node8</title>
<path fill="none" stroke="midnightblue" d="M122.996,-215.883C144.202,-206.714 170.264,-195.832 194,-187 203.089,-183.618 212.872,-180.243 222.315,-177.117"/>
<polygon fill="midnightblue" stroke="midnightblue" points="121.394,-212.763 113.62,-219.961 124.186,-219.182 121.394,-212.763"/>
</g>
<!-- Node9 -->
<g id="node9" class="node"><title>Node9</title>
<g id="a_node9"><a xlink:href="../../d0/d9a/classview_1_1editor_1_1wizards_1_1_bounds_wizard.html#a0bb9a10a19b5610f8f8ce4ba646b8ccb" target="_top" xlink:title="view.editor.wizards.Bounds\lWizard.updateData">
<polygon fill="white" stroke="black" points="200.5,-98 200.5,-128 343.5,-128 343.5,-98 200.5,-98"/>
<text text-anchor="start" x="208.5" y="-116" font-family="Helvetica,sans-Serif" font-size="10.00">view.editor.wizards.Bounds</text>
<text text-anchor="middle" x="272" y="-105" font-family="Helvetica,sans-Serif" font-size="10.00">Wizard.updateData</text>
</a>
</g>
</g>
<!-- Node1&#45;&gt;Node9 -->
<g id="edge8" class="edge"><title>Node1&#45;&gt;Node9</title>
<path fill="none" stroke="midnightblue" d="M101.07,-212.547C122.588,-190.782 157.877,-158.18 194,-138 200.749,-134.23 208.151,-130.926 215.616,-128.061"/>
<polygon fill="midnightblue" stroke="midnightblue" points="98.5204,-210.148 94.0538,-219.756 103.537,-215.031 98.5204,-210.148"/>
</g>
<!-- Node10 -->
<g id="node10" class="node"><title>Node10</title>
<g id="a_node10"><a xlink:href="../../d7/d92/classview_1_1editor_1_1wizards_1_1_game_element_wizard.html#a5aef02ce2b3e8f7470cd74aea63e4f6b" target="_top" xlink:title="view.editor.wizards.Game\lElementWizard.updateData">
<polygon fill="white" stroke="black" points="198,-49 198,-79 346,-79 346,-49 198,-49"/>
<text text-anchor="start" x="206" y="-67" font-family="Helvetica,sans-Serif" font-size="10.00">view.editor.wizards.Game</text>
<text text-anchor="middle" x="272" y="-56" font-family="Helvetica,sans-Serif" font-size="10.00">ElementWizard.updateData</text>
</a>
</g>
</g>
<!-- Node1&#45;&gt;Node10 -->
<g id="edge9" class="edge"><title>Node1&#45;&gt;Node10</title>
<path fill="none" stroke="midnightblue" d="M92.6805,-210.963C110.904,-178.667 147.487,-121.571 194,-89 199.526,-85.1302 205.687,-81.8327 212.05,-79.0289"/>
<polygon fill="midnightblue" stroke="midnightblue" points="89.5962,-209.308 87.8286,-219.754 95.7248,-212.69 89.5962,-209.308"/>
</g>
<!-- Node11 -->
<g id="node11" class="node"><title>Node11</title>
<g id="a_node11"><a xlink:href="../../d3/d91/classview_1_1editor_1_1wizards_1_1_animation_wizard.html#aeeb44d20073f7e3f503ca416c73ec32b" target="_top" xlink:title="view.editor.wizards.Animation\lWizard.updateData">
<polygon fill="white" stroke="black" points="194,-0 194,-30 350,-30 350,-0 194,-0"/>
<text text-anchor="start" x="202" y="-18" font-family="Helvetica,sans-Serif" font-size="10.00">view.editor.wizards.Animation</text>
<text text-anchor="middle" x="272" y="-7" font-family="Helvetica,sans-Serif" font-size="10.00">Wizard.updateData</text>
</a>
</g>
</g>
<!-- Node1&#45;&gt;Node11 -->
<g id="edge10" class="edge"><title>Node1&#45;&gt;Node11</title>
<path fill="none" stroke="midnightblue" d="M87.8996,-210.254C102.328,-168.964 136.837,-86.0227 194,-40 198.817,-36.1218 204.253,-32.8381 209.952,-30.0593"/>
<polygon fill="midnightblue" stroke="midnightblue" points="84.5573,-209.212 84.6623,-219.806 91.1869,-211.458 84.5573,-209.212"/>
</g>
</g>
</svg>
        <g id="navigator" transform="translate(0 0)" fill="#404254">
                <rect fill="#f2f5e9" fill-opacity="0.5" stroke="#606060" stroke-width=".5" x="0" y="0" width="60" height="60"/>
                <use id="zoomplus" xlink:href="#zoomPlus" x="17" y="9" onmousedown="handleZoom(evt,'in')"/>
                <use id="zoomminus" xlink:href="#zoomMin" x="42" y="9" onmousedown="handleZoom(evt,'out')"/>
                <use id="reset" xlink:href="#resetDef" x="30" y="36" onmousedown="handleReset()"/>
                <g id="arrowUp" xlink:href="#dirArrow" transform="translate(30 24)" onmousedown="handlePan(0,-1)">
                  <use xlink:href="#rim" fill="#404040">
                        <set attributeName="fill" to="#808080" begin="arrowUp.mouseover" end="arrowUp.mouseout"/>
                  </use>
                  <path fill="none" stroke="white" stroke-width="1.5" d="M0,-3.0v7 M-2.5,-0.5L0,-3.0L2.5,-0.5"/>
                </g>
                <g id="arrowRight" xlink:href="#dirArrow" transform="rotate(90) translate(36 -43)" onmousedown="handlePan(1,0)">
                  <use xlink:href="#rim" fill="#404040">
                        <set attributeName="fill" to="#808080" begin="arrowRight.mouseover" end="arrowRight.mouseout"/>
                  </use>
                  <path fill="none" stroke="white" stroke-width="1.5" d="M0,-3.0v7 M-2.5,-0.5L0,-3.0L2.5,-0.5"/>
                </g>
                <g id="arrowDown" xlink:href="#dirArrow" transform="rotate(180) translate(-30 -48)" onmousedown="handlePan(0,1)">
                  <use xlink:href="#rim" fill="#404040">
                        <set attributeName="fill" to="#808080" begin="arrowDown.mouseover" end="arrowDown.mouseout"/>
                  </use>
                  <path fill="none" stroke="white" stroke-width="1.5" d="M0,-3.0v7 M-2.5,-0.5L0,-3.0L2.5,-0.5"/>
                </g>
                <g id="arrowLeft" xlink:href="#dirArrow" transform="rotate(270) translate(-36 17)" onmousedown="handlePan(-1,0)">
                  <use xlink:href="#rim" fill="#404040">
                        <set attributeName="fill" to="#808080" begin="arrowLeft.mouseover" end="arrowLeft.mouseout"/>
                  </use>
                  <path fill="none" stroke="white" stroke-width="1.5" d="M0,-3.0v7 M-2.5,-0.5L0,-3.0L2.5,-0.5"/>
                </g>
        </g>
        <svg viewBox="0 0 15 15" width="100%" height="30px" preserveAspectRatio="xMaxYMin meet">
         <g id="arrow_out" transform="scale(0.3 0.3)">
          <a xlink:href="classview_1_1editor_1_1wizards_1_1_wizard_ad224bc849cb336f4afe785c1e53c92a0_icgraph_org.svg" target="_base">
           <rect id="button" ry="5" rx="5" y="6" x="6" height="38" width="38"
                fill="#f2f5e9" fill-opacity="0.5" stroke="#606060" stroke-width="1.0"/>
           <path id="arrow"
             d="M 11.500037,31.436501 C 11.940474,20.09759 22.043105,11.32322 32.158766,21.979434 L 37.068811,17.246167 C 37.068811,17.246167 37.088388,32 37.088388,32 L 22.160133,31.978069 C 22.160133,31.978069 26.997745,27.140456 26.997745,27.140456 C 18.528582,18.264221 13.291696,25.230495 11.500037,31.436501 z"
             style="fill:#404040;"/>
          </a>
         </g>
        </svg>
</svg>
