<?xml version="1.0" encoding="UTF-8" standalone="no"?>
<!DOCTYPE svg PUBLIC "-//W3C//DTD SVG 1.1//EN"
 "http://www.w3.org/Graphics/SVG/1.1/DTD/svg11.dtd">
<!-- Generated by graphviz version 2.36.0 (20140111.2315)
 -->
<!-- Title: game_engine.gameRepresentation.conditions.ElementInteractionCondition Pages: 1 -->
<svg width="246pt" height="108pt"
 viewBox="0.00 0.00 246.00 108.00" xmlns="http://www.w3.org/2000/svg" xmlns:xlink="http://www.w3.org/1999/xlink">
<g id="graph0" class="graph" transform="scale(1 1) rotate(0) translate(4 104)">
<title>game_engine.gameRepresentation.conditions.ElementInteractionCondition</title>
<polygon fill="white" stroke="none" points="-4,4 -4,-104 242,-104 242,4 -4,4"/>
<!-- Node1 -->
<g id="node1" class="node"><title>Node1</title>
<polygon fill="#bfbfbf" stroke="black" points="-0.5,-1 -0.5,-31 238.5,-31 238.5,-1 -0.5,-1"/>
<text text-anchor="start" x="7.5" y="-19" font-family="Helvetica,sans-Serif" font-size="10.00">game_engine.gameRepresentation.conditions.</text>
<text text-anchor="middle" x="119" y="-8" font-family="Helvetica,sans-Serif" font-size="10.00">ElementInteractionCondition</text>
</g>
<!-- Node2 -->
<g id="node2" class="node"><title>Node2</title>
<g id="a_node2"><a xlink:href="../../d1/d8f/classgame__engine_1_1game_representation_1_1conditions_1_1_condition.html" target="_top" xlink:title="game_engine.gameRepresentation.conditions.\lCondition">
<polygon fill="white" stroke="black" points="-0.5,-69 -0.5,-99 238.5,-99 238.5,-69 -0.5,-69"/>
<text text-anchor="start" x="7.5" y="-87" font-family="Helvetica,sans-Serif" font-size="10.00">game_engine.gameRepresentation.conditions.</text>
<text text-anchor="middle" x="119" y="-76" font-family="Helvetica,sans-Serif" font-size="10.00">Condition</text>
</a>
</g>
</g>
<!-- Node2&#45;&gt;Node1 -->
<g id="edge1" class="edge"><title>Node2&#45;&gt;Node1</title>
<path fill="none" stroke="midnightblue" d="M119,-58.5322C119,-49.3606 119,-39.2449 119,-31.2931"/>
<polygon fill="midnightblue" stroke="midnightblue" points="115.5,-58.6789 119,-68.679 122.5,-58.679 115.5,-58.6789"/>
</g>
</g>
</svg>
