<?xml version="1.0" encoding="UTF-8" standalone="no"?>
<!DOCTYPE svg PUBLIC "-//W3C//DTD SVG 1.1//EN"
 "http://www.w3.org/Graphics/SVG/1.1/DTD/svg11.dtd">
<!-- Generated by graphviz version 2.36.0 (20140111.2315)
 -->
<!-- Title: engine.gameRepresentation.evaluatables.evaluators.Evaluator.evaluate Pages: 1 -->
<!--zoomable 234 -->
<svg id="main" version="1.1" xmlns="http://www.w3.org/2000/svg" xmlns:xlink="http://www.w3.org/1999/xlink" xml:space="preserve" onload="init(evt)">
<style type="text/css"><![CDATA[
.edge:hover path { stroke: red; }
.edge:hover polygon { stroke: red; fill: red; }
]]></style>
<script type="text/javascript"><![CDATA[
var edges = document.getElementsByTagName('g');
if (edges && edges.length) {
  for (var i=0;i<edges.length;i++) {
    if (edges[i].id.substr(0,4)=='edge') {
      edges[i].setAttribute('class','edge');
    }
  }
}
]]></script>
        <defs>
                <circle id="rim" cx="0" cy="0" r="7"/>
                <circle id="rim2" cx="0" cy="0" r="3.5"/>
                <g id="zoomPlus">
                        <use xlink:href="#rim" fill="#404040">
                                <set attributeName="fill" to="#808080" begin="zoomplus.mouseover" end="zoomplus.mouseout"/>
                        </use>
                        <path d="M-4,0h8M0,-4v8" fill="none" stroke="white" stroke-width="1.5" pointer-events="none"/>
                </g>
                <g id="zoomMin">
                        <use xlink:href="#rim" fill="#404040">
                                <set attributeName="fill" to="#808080" begin="zoomminus.mouseover" end="zoomminus.mouseout"/>
                        </use>
                        <path d="M-4,0h8" fill="none" stroke="white" stroke-width="1.5" pointer-events="none"/>
                </g>
                <g id="dirArrow">
                        <path fill="none" stroke="white" stroke-width="1.5" d="M0,-3.0v7 M-2.5,-0.5L0,-3.0L2.5,-0.5"/>
                </g>
               <g id="resetDef">
                       <use xlink:href="#rim2" fill="#404040">
                               <set attributeName="fill" to="#808080" begin="reset.mouseover" end="reset.mouseout"/>
                       </use>
               </g>
        </defs>

<script type="text/javascript">
var viewWidth = 588;
var viewHeight = 234;
var sectionId = 'dynsection-3';
</script>
<script xlink:href="../../svgpan.js"/>
<svg id="graph" class="graph">
<g id="viewport">
<title>engine.gameRepresentation.evaluatables.evaluators.Evaluator.evaluate</title>
<polygon fill="white" stroke="none" points="-4,4 -4,-230 584,-230 584,4 -4,4"/>
<!-- Node1 -->
<g id="node1" class="node"><title>Node1</title>
<polygon fill="#bfbfbf" stroke="black" points="0,-98 0,-128 272,-128 272,-98 0,-98"/>
<text text-anchor="start" x="8" y="-116" font-family="Helvetica,sans-Serif" font-size="10.00">engine.gameRepresentation.evaluatables.evaluators.</text>
<text text-anchor="middle" x="136" y="-105" font-family="Helvetica,sans-Serif" font-size="10.00">Evaluator.evaluate</text>
</g>
<!-- Node2 -->
<g id="node2" class="node"><title>Node2</title>
<g id="a_node2"><a xlink:href="../../d8/d3a/classengine_1_1computers_1_1bounds_computers_1_1_collision_computer.html#a7849f7da8bebd1497f828b5edbb722a0" target="_top" xlink:title="engine.computers.boundsComputers.\lCollisionComputer.checkComputingCondition">
<polygon fill="white" stroke="black" points="328.5,-196 328.5,-226 559.5,-226 559.5,-196 328.5,-196"/>
<text text-anchor="start" x="336.5" y="-214" font-family="Helvetica,sans-Serif" font-size="10.00">engine.computers.boundsComputers.</text>
<text text-anchor="middle" x="444" y="-203" font-family="Helvetica,sans-Serif" font-size="10.00">CollisionComputer.checkComputingCondition</text>
</a>
</g>
</g>
<!-- Node1&#45;&gt;Node2 -->
<g id="edge1" class="edge"><title>Node1&#45;&gt;Node2</title>
<path fill="none" stroke="midnightblue" d="M175.967,-132.566C210.042,-148.959 261.254,-171.882 308,-186 320.55,-189.79 333.939,-193.106 347.226,-195.976"/>
<polygon fill="midnightblue" stroke="midnightblue" points="177.352,-129.348 166.828,-128.128 174.295,-135.645 177.352,-129.348"/>
</g>
<!-- Node3 -->
<g id="node3" class="node"><title>Node3</title>
<g id="a_node3"><a xlink:href="../../dc/d0e/classengine_1_1game_representation_1_1evaluatables_1_1evaluators_1_1_evaluator.html#ae064b18a704c5fc52c5228a3157418b9" target="_top" xlink:title="engine.gameRepresentation.evaluatables.evaluators.\lEvaluator\&lt; A, B, Number \&gt;::delegateEvaluator">
<polygon fill="white" stroke="black" points="308,-147 308,-177 580,-177 580,-147 308,-147"/>
<text text-anchor="start" x="316" y="-165" font-family="Helvetica,sans-Serif" font-size="10.00">engine.gameRepresentation.evaluatables.evaluators.</text>
<text text-anchor="middle" x="444" y="-154" font-family="Helvetica,sans-Serif" font-size="10.00">Evaluator&lt; A, B, Number &gt;::delegateEvaluator</text>
</a>
</g>
</g>
<!-- Node1&#45;&gt;Node3 -->
<g id="edge2" class="edge"><title>Node1&#45;&gt;Node3</title>
<path fill="none" stroke="midnightblue" d="M241.151,-129.678C276.207,-135.291 315.086,-141.517 349.288,-146.994"/>
<polygon fill="midnightblue" stroke="midnightblue" points="241.317,-126.16 230.89,-128.035 240.21,-133.072 241.317,-126.16"/>
</g>
<!-- Node4 -->
<g id="node4" class="node"><title>Node4</title>
<g id="a_node4"><a xlink:href="../../de/d41/classengine_1_1game_representation_1_1evaluatables_1_1evaluators_1_1_not_collision.html#a019e3e14763ea8e91d724a72d08b18a9" target="_top" xlink:title="engine.gameRepresentation.evaluatables.evaluators.\lNotCollision.evaluate">
<polygon fill="white" stroke="black" points="308,-98 308,-128 580,-128 580,-98 308,-98"/>
<text text-anchor="start" x="316" y="-116" font-family="Helvetica,sans-Serif" font-size="10.00">engine.gameRepresentation.evaluatables.evaluators.</text>
<text text-anchor="middle" x="444" y="-105" font-family="Helvetica,sans-Serif" font-size="10.00">NotCollision.evaluate</text>
</a>
</g>
</g>
<!-- Node1&#45;&gt;Node4 -->
<g id="edge3" class="edge"><title>Node1&#45;&gt;Node4</title>
<path fill="none" stroke="midnightblue" d="M282.131,-113C290.689,-113 299.28,-113 307.796,-113"/>
<polygon fill="midnightblue" stroke="midnightblue" points="282.107,-109.5 272.107,-113 282.107,-116.5 282.107,-109.5"/>
</g>
<!-- Node5 -->
<g id="node5" class="node"><title>Node5</title>
<g id="a_node5"><a xlink:href="../../df/d07/classengine_1_1game_representation_1_1evaluatables_1_1actions_1_1_check_attribute_create_object_action.html#a7748525bf0dd7b5ddc38f978020dd2aa" target="_top" xlink:title="engine.gameRepresentation.evaluatables.actions.\lCheckAttributeCreateObjectAction.evaluate">
<polygon fill="white" stroke="black" points="316,-49 316,-79 572,-79 572,-49 316,-49"/>
<text text-anchor="start" x="324" y="-67" font-family="Helvetica,sans-Serif" font-size="10.00">engine.gameRepresentation.evaluatables.actions.</text>
<text text-anchor="middle" x="444" y="-56" font-family="Helvetica,sans-Serif" font-size="10.00">CheckAttributeCreateObjectAction.evaluate</text>
</a>
</g>
</g>
<!-- Node1&#45;&gt;Node5 -->
<g id="edge4" class="edge"><title>Node1&#45;&gt;Node5</title>
<path fill="none" stroke="midnightblue" d="M241.151,-96.3222C276.207,-90.7087 315.086,-84.483 349.288,-79.0062"/>
<polygon fill="midnightblue" stroke="midnightblue" points="240.21,-92.9282 230.89,-97.9654 241.317,-99.8401 240.21,-92.9282"/>
</g>
<!-- Node6 -->
<g id="node6" class="node"><title>Node6</title>
<g id="a_node6"><a xlink:href="../../d8/d98/classengine_1_1game_representation_1_1evaluatables_1_1actions_1_1_mother_of_all_actions.html#a488e8c7f50249f5caabac492108d1ca0" target="_top" xlink:title="engine.gameRepresentation.evaluatables.actions.\lMotherOfAllActions.evaluate">
<polygon fill="white" stroke="black" points="316,-0 316,-30 572,-30 572,-0 316,-0"/>
<text text-anchor="start" x="324" y="-18" font-family="Helvetica,sans-Serif" font-size="10.00">engine.gameRepresentation.evaluatables.actions.</text>
<text text-anchor="middle" x="444" y="-7" font-family="Helvetica,sans-Serif" font-size="10.00">MotherOfAllActions.evaluate</text>
</a>
</g>
</g>
<!-- Node1&#45;&gt;Node6 -->
<g id="edge5" class="edge"><title>Node1&#45;&gt;Node6</title>
<path fill="none" stroke="midnightblue" d="M175.967,-93.4341C210.042,-77.0415 261.254,-54.1176 308,-40 320.55,-36.2099 333.939,-32.8943 347.226,-30.0245"/>
<polygon fill="midnightblue" stroke="midnightblue" points="174.295,-90.3552 166.828,-97.8717 177.352,-96.652 174.295,-90.3552"/>
</g>
</g>
</svg>
        <g id="navigator" transform="translate(0 0)" fill="#404254">
                <rect fill="#f2f5e9" fill-opacity="0.5" stroke="#606060" stroke-width=".5" x="0" y="0" width="60" height="60"/>
                <use id="zoomplus" xlink:href="#zoomPlus" x="17" y="9" onmousedown="handleZoom(evt,'in')"/>
                <use id="zoomminus" xlink:href="#zoomMin" x="42" y="9" onmousedown="handleZoom(evt,'out')"/>
                <use id="reset" xlink:href="#resetDef" x="30" y="36" onmousedown="handleReset()"/>
                <g id="arrowUp" xlink:href="#dirArrow" transform="translate(30 24)" onmousedown="handlePan(0,-1)">
                  <use xlink:href="#rim" fill="#404040">
                        <set attributeName="fill" to="#808080" begin="arrowUp.mouseover" end="arrowUp.mouseout"/>
                  </use>
                  <path fill="none" stroke="white" stroke-width="1.5" d="M0,-3.0v7 M-2.5,-0.5L0,-3.0L2.5,-0.5"/>
                </g>
                <g id="arrowRight" xlink:href="#dirArrow" transform="rotate(90) translate(36 -43)" onmousedown="handlePan(1,0)">
                  <use xlink:href="#rim" fill="#404040">
                        <set attributeName="fill" to="#808080" begin="arrowRight.mouseover" end="arrowRight.mouseout"/>
                  </use>
                  <path fill="none" stroke="white" stroke-width="1.5" d="M0,-3.0v7 M-2.5,-0.5L0,-3.0L2.5,-0.5"/>
                </g>
                <g id="arrowDown" xlink:href="#dirArrow" transform="rotate(180) translate(-30 -48)" onmousedown="handlePan(0,1)">
                  <use xlink:href="#rim" fill="#404040">
                        <set attributeName="fill" to="#808080" begin="arrowDown.mouseover" end="arrowDown.mouseout"/>
                  </use>
                  <path fill="none" stroke="white" stroke-width="1.5" d="M0,-3.0v7 M-2.5,-0.5L0,-3.0L2.5,-0.5"/>
                </g>
                <g id="arrowLeft" xlink:href="#dirArrow" transform="rotate(270) translate(-36 17)" onmousedown="handlePan(-1,0)">
                  <use xlink:href="#rim" fill="#404040">
                        <set attributeName="fill" to="#808080" begin="arrowLeft.mouseover" end="arrowLeft.mouseout"/>
                  </use>
                  <path fill="none" stroke="white" stroke-width="1.5" d="M0,-3.0v7 M-2.5,-0.5L0,-3.0L2.5,-0.5"/>
                </g>
        </g>
        <svg viewBox="0 0 15 15" width="100%" height="30px" preserveAspectRatio="xMaxYMin meet">
         <g id="arrow_out" transform="scale(0.3 0.3)">
          <a xlink:href="classengine_1_1game_representation_1_1evaluatables_1_1evaluators_1_1_evaluator_ae07c4224989cf8f4acc417b6486064ad_icgraph_org.svg" target="_base">
           <rect id="button" ry="5" rx="5" y="6" x="6" height="38" width="38"
                fill="#f2f5e9" fill-opacity="0.5" stroke="#606060" stroke-width="1.0"/>
           <path id="arrow"
             d="M 11.500037,31.436501 C 11.940474,20.09759 22.043105,11.32322 32.158766,21.979434 L 37.068811,17.246167 C 37.068811,17.246167 37.088388,32 37.088388,32 L 22.160133,31.978069 C 22.160133,31.978069 26.997745,27.140456 26.997745,27.140456 C 18.528582,18.264221 13.291696,25.230495 11.500037,31.436501 z"
             style="fill:#404040;"/>
          </a>
         </g>
        </svg>
</svg>
