<?xml version="1.0" encoding="UTF-8" standalone="no"?>
<!DOCTYPE svg PUBLIC "-//W3C//DTD SVG 1.1//EN"
 "http://www.w3.org/Graphics/SVG/1.1/DTD/svg11.dtd">
<!-- Generated by graphviz version 2.36.0 (20140111.2315)
 -->
<!-- Title: game_engine.computers.pathingComputers.PathingComputer.determineHeuristic Pages: 1 -->
<svg width="450pt" height="48pt"
 viewBox="0.00 0.00 450.00 48.00" xmlns="http://www.w3.org/2000/svg" xmlns:xlink="http://www.w3.org/1999/xlink">
<g id="graph0" class="graph" transform="scale(1 1) rotate(0) translate(4 44)">
<title>game_engine.computers.pathingComputers.PathingComputer.determineHeuristic</title>
<polygon fill="white" stroke="none" points="-4,4 -4,-44 446,-44 446,4 -4,4"/>
<!-- Node1 -->
<g id="node1" class="node"><title>Node1</title>
<polygon fill="#bfbfbf" stroke="black" points="0,0.5 0,-40.5 208,-40.5 208,0.5 0,0.5"/>
<text text-anchor="start" x="8" y="-28.5" font-family="Helvetica,sans-Serif" font-size="10.00">game_engine.computers.pathing</text>
<text text-anchor="start" x="8" y="-17.5" font-family="Helvetica,sans-Serif" font-size="10.00">Computers.PathingComputer.determine</text>
<text text-anchor="middle" x="104" y="-6.5" font-family="Helvetica,sans-Serif" font-size="10.00">Heuristic</text>
</g>
<!-- Node2 -->
<g id="node2" class="node"><title>Node2</title>
<g id="a_node2"><a xlink:href="../../d2/d64/classgame__engine_1_1computers_1_1pathing_computers_1_1_pathing_computer.html#afd3e942603d5387912c56ba638635a4f" target="_top" xlink:title="game_engine.computers.pathing\lComputers.PathingComputer.findPath">
<polygon fill="white" stroke="black" points="244.5,-5 244.5,-35 441.5,-35 441.5,-5 244.5,-5"/>
<text text-anchor="start" x="252.5" y="-23" font-family="Helvetica,sans-Serif" font-size="10.00">game_engine.computers.pathing</text>
<text text-anchor="middle" x="343" y="-12" font-family="Helvetica,sans-Serif" font-size="10.00">Computers.PathingComputer.findPath</text>
</a>
</g>
</g>
<!-- Node1&#45;&gt;Node2 -->
<g id="edge1" class="edge"><title>Node1&#45;&gt;Node2</title>
<path fill="none" stroke="midnightblue" d="M218.405,-20C227.069,-20 235.769,-20 244.32,-20"/>
<polygon fill="midnightblue" stroke="midnightblue" points="218.262,-16.5001 208.262,-20 218.262,-23.5001 218.262,-16.5001"/>
</g>
</g>
</svg>
