<?xml version="1.0" encoding="UTF-8" standalone="no"?>
<!DOCTYPE svg PUBLIC "-//W3C//DTD SVG 1.1//EN"
 "http://www.w3.org/Graphics/SVG/1.1/DTD/svg11.dtd">
<!-- Generated by graphviz version 2.36.0 (20140111.2315)
 -->
<!-- Title: engine.visuals.ScrollablePane.attachInputManager Pages: 1 -->
<svg width="1186pt" height="87pt"
 viewBox="0.00 0.00 1186.00 87.00" xmlns="http://www.w3.org/2000/svg" xmlns:xlink="http://www.w3.org/1999/xlink">
<g id="graph0" class="graph" transform="scale(1 1) rotate(0) translate(4 83)">
<title>engine.visuals.ScrollablePane.attachInputManager</title>
<polygon fill="white" stroke="none" points="-4,4 -4,-83 1182,-83 1182,4 -4,4"/>
<!-- Node1 -->
<g id="node1" class="node"><title>Node1</title>
<polygon fill="#bfbfbf" stroke="black" points="0,-24 0,-54 140,-54 140,-24 0,-24"/>
<text text-anchor="start" x="8" y="-42" font-family="Helvetica,sans-Serif" font-size="10.00">engine.visuals.Scrollable</text>
<text text-anchor="middle" x="70" y="-31" font-family="Helvetica,sans-Serif" font-size="10.00">Pane.attachInputManager</text>
</g>
<!-- Node2 -->
<g id="node2" class="node"><title>Node2</title>
<g id="a_node2"><a xlink:href="../../d3/d61/classengine_1_1visuals_1_1_visual_manager.html#ad6d4b11c7b259638d92c5dd294ae03a8" target="_top" xlink:title="engine.visuals.VisualManager.attach\lInputManager">
<polygon fill="white" stroke="black" points="176.5,-24 176.5,-54 367.5,-54 367.5,-24 176.5,-24"/>
<text text-anchor="start" x="184.5" y="-42" font-family="Helvetica,sans-Serif" font-size="10.00">engine.visuals.VisualManager.attach</text>
<text text-anchor="middle" x="272" y="-31" font-family="Helvetica,sans-Serif" font-size="10.00">InputManager</text>
</a>
</g>
</g>
<!-- Node1&#45;&gt;Node2 -->
<g id="edge1" class="edge"><title>Node1&#45;&gt;Node2</title>
<path fill="none" stroke="midnightblue" d="M150.149,-39C158.802,-39 167.673,-39 176.486,-39"/>
<polygon fill="midnightblue" stroke="midnightblue" points="150.109,-35.5001 140.109,-39 150.109,-42.5001 150.109,-35.5001"/>
</g>
<!-- Node3 -->
<g id="node3" class="node"><title>Node3</title>
<g id="a_node3"><a xlink:href="../../dc/de2/classengine_1_1_engine.html#a8c5992eb0d36b8c389af374c6115b4f1" target="_top" xlink:title="engine.Engine.setInputManager">
<polygon fill="white" stroke="black" points="404,-52.5 404,-71.5 572,-71.5 572,-52.5 404,-52.5"/>
<text text-anchor="middle" x="488" y="-59.5" font-family="Helvetica,sans-Serif" font-size="10.00">engine.Engine.setInputManager</text>
</a>
</g>
</g>
<!-- Node2&#45;&gt;Node3 -->
<g id="edge2" class="edge"><title>Node2&#45;&gt;Node3</title>
<path fill="none" stroke="midnightblue" d="M377.927,-50.2772C386.574,-51.2065 395.238,-52.1378 403.695,-53.0467"/>
<polygon fill="midnightblue" stroke="midnightblue" points="378.115,-46.7773 367.798,-49.1886 377.367,-53.7372 378.115,-46.7773"/>
</g>
<!-- Node7 -->
<g id="node7" class="node"><title>Node7</title>
<g id="a_node7"><a xlink:href="../../dc/de2/classengine_1_1_engine.html#a59df1204b83c43cbc3c5dd5a19fa3127" target="_top" xlink:title="engine.Engine.initialize\lVisualManager">
<polygon fill="white" stroke="black" points="425.5,-2 425.5,-32 550.5,-32 550.5,-2 425.5,-2"/>
<text text-anchor="start" x="433.5" y="-20" font-family="Helvetica,sans-Serif" font-size="10.00">engine.Engine.initialize</text>
<text text-anchor="middle" x="488" y="-9" font-family="Helvetica,sans-Serif" font-size="10.00">VisualManager</text>
</a>
</g>
</g>
<!-- Node2&#45;&gt;Node7 -->
<g id="edge6" class="edge"><title>Node2&#45;&gt;Node7</title>
<path fill="none" stroke="midnightblue" d="M377.922,-28.2137C394.215,-26.5386 410.574,-24.8569 425.484,-23.3241"/>
<polygon fill="midnightblue" stroke="midnightblue" points="377.388,-24.75 367.798,-29.2544 378.104,-31.7133 377.388,-24.75"/>
</g>
<!-- Node4 -->
<g id="node4" class="node"><title>Node4</title>
<g id="a_node4"><a xlink:href="../../d8/dd1/classview_1_1runner_1_1_game_runner_pane_controller.html#a056877358884449e42bff08934bde122" target="_top" xlink:title="view.runner.GameRunnerPane\lController.setInputManager">
<polygon fill="white" stroke="black" points="608,-49 608,-79 766,-79 766,-49 608,-49"/>
<text text-anchor="start" x="616" y="-67" font-family="Helvetica,sans-Serif" font-size="10.00">view.runner.GameRunnerPane</text>
<text text-anchor="middle" x="687" y="-56" font-family="Helvetica,sans-Serif" font-size="10.00">Controller.setInputManager</text>
</a>
</g>
</g>
<!-- Node3&#45;&gt;Node4 -->
<g id="edge3" class="edge"><title>Node3&#45;&gt;Node4</title>
<path fill="none" stroke="midnightblue" d="M582.517,-62.9494C590.96,-63.0351 599.451,-63.1213 607.742,-63.2055"/>
<polygon fill="midnightblue" stroke="midnightblue" points="582.295,-59.4471 572.26,-62.8453 582.224,-66.4467 582.295,-59.4471"/>
</g>
<!-- Node5 -->
<g id="node5" class="node"><title>Node5</title>
<g id="a_node5"><a xlink:href="../../d4/d65/classview_1_1editor_1_1_tab_view_controller.html#aa19ba9b7a9b0762bce74364ef219fabc" target="_top" xlink:title="view.editor.TabViewController.init\lToggle">
<polygon fill="white" stroke="black" points="802,-49 802,-79 972,-79 972,-49 802,-49"/>
<text text-anchor="start" x="810" y="-67" font-family="Helvetica,sans-Serif" font-size="10.00">view.editor.TabViewController.init</text>
<text text-anchor="middle" x="887" y="-56" font-family="Helvetica,sans-Serif" font-size="10.00">Toggle</text>
</a>
</g>
</g>
<!-- Node4&#45;&gt;Node5 -->
<g id="edge4" class="edge"><title>Node4&#45;&gt;Node5</title>
<path fill="none" stroke="midnightblue" d="M776.463,-64C784.887,-64 793.414,-64 801.797,-64"/>
<polygon fill="midnightblue" stroke="midnightblue" points="776.255,-60.5001 766.255,-64 776.255,-67.5001 776.255,-60.5001"/>
</g>
<!-- Node6 -->
<g id="node6" class="node"><title>Node6</title>
<g id="a_node6"><a xlink:href="../../d4/d65/classview_1_1editor_1_1_tab_view_controller.html#a82e1e1f1eb84d1c30bde3a246304473e" target="_top" xlink:title="view.editor.TabViewController.init">
<polygon fill="white" stroke="black" points="1008,-54.5 1008,-73.5 1178,-73.5 1178,-54.5 1008,-54.5"/>
<text text-anchor="middle" x="1093" y="-61.5" font-family="Helvetica,sans-Serif" font-size="10.00">view.editor.TabViewController.init</text>
</a>
</g>
</g>
<!-- Node5&#45;&gt;Node6 -->
<g id="edge5" class="edge"><title>Node5&#45;&gt;Node6</title>
<path fill="none" stroke="midnightblue" d="M982.402,-64C990.847,-64 999.361,-64 1007.71,-64"/>
<polygon fill="midnightblue" stroke="midnightblue" points="982.152,-60.5001 972.152,-64 982.152,-67.5001 982.152,-60.5001"/>
</g>
<!-- Node8 -->
<g id="node8" class="node"><title>Node8</title>
<g id="a_node8"><a xlink:href="../../dc/de2/classengine_1_1_engine.html#af201d1d894a31f20aa1e05f674d4584b" target="_top" xlink:title="engine.Engine.instantiate\lManagers">
<polygon fill="white" stroke="black" points="618,-0 618,-30 756,-30 756,-0 618,-0"/>
<text text-anchor="start" x="626" y="-18" font-family="Helvetica,sans-Serif" font-size="10.00">engine.Engine.instantiate</text>
<text text-anchor="middle" x="687" y="-7" font-family="Helvetica,sans-Serif" font-size="10.00">Managers</text>
</a>
</g>
</g>
<!-- Node7&#45;&gt;Node8 -->
<g id="edge7" class="edge"><title>Node7&#45;&gt;Node8</title>
<path fill="none" stroke="midnightblue" d="M560.703,-16.272C579.319,-16.0831 599.318,-15.88 617.751,-15.6929"/>
<polygon fill="midnightblue" stroke="midnightblue" points="560.486,-12.774 550.522,-16.3754 560.557,-19.7736 560.486,-12.774"/>
</g>
<!-- Node9 -->
<g id="node9" class="node"><title>Node9</title>
<g id="a_node9"><a xlink:href="../../dc/de2/classengine_1_1_engine.html#a707225a32896b370f131105ef1c644e2" target="_top" xlink:title="engine.Engine.Engine">
<polygon fill="white" stroke="black" points="827.5,-5.5 827.5,-24.5 946.5,-24.5 946.5,-5.5 827.5,-5.5"/>
<text text-anchor="middle" x="887" y="-12.5" font-family="Helvetica,sans-Serif" font-size="10.00">engine.Engine.Engine</text>
</a>
</g>
</g>
<!-- Node8&#45;&gt;Node9 -->
<g id="edge8" class="edge"><title>Node8&#45;&gt;Node9</title>
<path fill="none" stroke="midnightblue" d="M766.32,-15C786.644,-15 808.185,-15 827.307,-15"/>
<polygon fill="midnightblue" stroke="midnightblue" points="766.14,-11.5001 756.14,-15 766.14,-18.5001 766.14,-11.5001"/>
</g>
</g>
</svg>
