<?xml version="1.0" encoding="UTF-8" standalone="no"?>
<!DOCTYPE svg PUBLIC "-//W3C//DTD SVG 1.1//EN"
 "http://www.w3.org/Graphics/SVG/1.1/DTD/svg11.dtd">
<!-- Generated by graphviz version 2.36.0 (20140111.2315)
 -->
<!-- Title: engine.visuals.ScrollablePane.setScrollSpeed Pages: 1 -->
<svg width="334pt" height="87pt"
 viewBox="0.00 0.00 334.00 87.00" xmlns="http://www.w3.org/2000/svg" xmlns:xlink="http://www.w3.org/1999/xlink">
<g id="graph0" class="graph" transform="scale(1 1) rotate(0) translate(4 83)">
<title>engine.visuals.ScrollablePane.setScrollSpeed</title>
<polygon fill="white" stroke="none" points="-4,4 -4,-83 330,-83 330,4 -4,4"/>
<!-- Node1 -->
<g id="node1" class="node"><title>Node1</title>
<polygon fill="#bfbfbf" stroke="black" points="0,-24 0,-54 134,-54 134,-24 0,-24"/>
<text text-anchor="start" x="8" y="-42" font-family="Helvetica,sans-Serif" font-size="10.00">engine.visuals.Scrollable</text>
<text text-anchor="middle" x="67" y="-31" font-family="Helvetica,sans-Serif" font-size="10.00">Pane.setScrollSpeed</text>
</g>
<!-- Node2 -->
<g id="node2" class="node"><title>Node2</title>
<g id="a_node2"><a xlink:href="../../d2/dae/classengine_1_1visuals_1_1_scrollable_background.html#a14ea8fb797a5e13a9e425610f6c91655" target="_top" xlink:title="engine.visuals.Scrollable\lBackground.setXScrollSpeed">
<polygon fill="white" stroke="black" points="170.5,-49 170.5,-79 325.5,-79 325.5,-49 170.5,-49"/>
<text text-anchor="start" x="178.5" y="-67" font-family="Helvetica,sans-Serif" font-size="10.00">engine.visuals.Scrollable</text>
<text text-anchor="middle" x="248" y="-56" font-family="Helvetica,sans-Serif" font-size="10.00">Background.setXScrollSpeed</text>
</a>
</g>
</g>
<!-- Node1&#45;&gt;Node2 -->
<g id="edge1" class="edge"><title>Node1&#45;&gt;Node2</title>
<path fill="none" stroke="midnightblue" d="M134.144,-48.238C142.683,-49.4306 151.526,-50.6656 160.333,-51.8956"/>
<polygon fill="midnightblue" stroke="midnightblue" points="159.854,-55.3626 170.242,-53.2796 160.822,-48.4299 159.854,-55.3626"/>
</g>
<!-- Node3 -->
<g id="node3" class="node"><title>Node3</title>
<g id="a_node3"><a xlink:href="../../d2/dae/classengine_1_1visuals_1_1_scrollable_background.html#a0a95d45df6721fccc5ba417111c36cf4" target="_top" xlink:title="engine.visuals.Scrollable\lBackground.setYScrollSpeed">
<polygon fill="white" stroke="black" points="171,-0 171,-30 325,-30 325,-0 171,-0"/>
<text text-anchor="start" x="179" y="-18" font-family="Helvetica,sans-Serif" font-size="10.00">engine.visuals.Scrollable</text>
<text text-anchor="middle" x="248" y="-7" font-family="Helvetica,sans-Serif" font-size="10.00">Background.setYScrollSpeed</text>
</a>
</g>
</g>
<!-- Node1&#45;&gt;Node3 -->
<g id="edge2" class="edge"><title>Node1&#45;&gt;Node3</title>
<path fill="none" stroke="midnightblue" d="M134.144,-30.1315C142.827,-28.9673 151.826,-27.7608 160.78,-26.5602"/>
<polygon fill="midnightblue" stroke="midnightblue" points="161.407,-30.0076 170.853,-25.2097 160.476,-23.0697 161.407,-30.0076"/>
</g>
</g>
</svg>
