<?xml version="1.0" encoding="UTF-8" standalone="no"?>
<!DOCTYPE svg PUBLIC "-//W3C//DTD SVG 1.1//EN"
 "http://www.w3.org/Graphics/SVG/1.1/DTD/svg11.dtd">
<!-- Generated by graphviz version 2.36.0 (20140111.2315)
 -->
<!-- Title: engine.visuals.ScrollablePane.update Pages: 1 -->
<svg width="548pt" height="136pt"
 viewBox="0.00 0.00 548.00 136.00" xmlns="http://www.w3.org/2000/svg" xmlns:xlink="http://www.w3.org/1999/xlink">
<g id="graph0" class="graph" transform="scale(1 1) rotate(0) translate(4 132)">
<title>engine.visuals.ScrollablePane.update</title>
<polygon fill="white" stroke="none" points="-4,4 -4,-132 544,-132 544,4 -4,4"/>
<!-- Node1 -->
<g id="node1" class="node"><title>Node1</title>
<polygon fill="#bfbfbf" stroke="black" points="0,-49 0,-79 134,-79 134,-49 0,-49"/>
<text text-anchor="start" x="8" y="-67" font-family="Helvetica,sans-Serif" font-size="10.00">engine.visuals.Scrollable</text>
<text text-anchor="middle" x="67" y="-56" font-family="Helvetica,sans-Serif" font-size="10.00">Pane.update</text>
</g>
<!-- Node2 -->
<g id="node2" class="node"><title>Node2</title>
<g id="a_node2"><a xlink:href="../../d2/dae/classengine_1_1visuals_1_1_scrollable_background.html#a36b2cbd2dc8ebe546d522f114b0d9892" target="_top" xlink:title="engine.visuals.Scrollable\lBackground.update">
<polygon fill="white" stroke="black" points="170,-49 170,-79 304,-79 304,-49 170,-49"/>
<text text-anchor="start" x="178" y="-67" font-family="Helvetica,sans-Serif" font-size="10.00">engine.visuals.Scrollable</text>
<text text-anchor="middle" x="237" y="-56" font-family="Helvetica,sans-Serif" font-size="10.00">Background.update</text>
</a>
</g>
</g>
<!-- Node1&#45;&gt;Node2 -->
<g id="edge1" class="edge"><title>Node1&#45;&gt;Node2</title>
<path fill="none" stroke="midnightblue" d="M134.398,-64C142.679,-64 151.199,-64 159.616,-64"/>
<polygon fill="midnightblue" stroke="midnightblue" points="159.809,-67.5001 169.809,-64 159.809,-60.5001 159.809,-67.5001"/>
</g>
<!-- Node3 -->
<g id="node3" class="node"><title>Node3</title>
<g id="a_node3"><a xlink:href="../../d2/dae/classengine_1_1visuals_1_1_scrollable_background.html#a251a35e68afa105dc68cad8e4667faaa" target="_top" xlink:title="engine.visuals.Scrollable\lBackground.retractOutOfBoundsScroll">
<polygon fill="white" stroke="black" points="340.5,-98 340.5,-128 539.5,-128 539.5,-98 340.5,-98"/>
<text text-anchor="start" x="348.5" y="-116" font-family="Helvetica,sans-Serif" font-size="10.00">engine.visuals.Scrollable</text>
<text text-anchor="middle" x="440" y="-105" font-family="Helvetica,sans-Serif" font-size="10.00">Background.retractOutOfBoundsScroll</text>
</a>
</g>
</g>
<!-- Node2&#45;&gt;Node3 -->
<g id="edge2" class="edge"><title>Node2&#45;&gt;Node3</title>
<path fill="none" stroke="midnightblue" d="M299.673,-79.0346C321.088,-84.2554 345.284,-90.1537 367.43,-95.5526"/>
<polygon fill="midnightblue" stroke="midnightblue" points="366.9,-99.0257 377.444,-97.9938 368.558,-92.2249 366.9,-99.0257"/>
</g>
<!-- Node4 -->
<g id="node4" class="node"><title>Node4</title>
<g id="a_node4"><a xlink:href="../../d2/dae/classengine_1_1visuals_1_1_scrollable_background.html#a14ea8fb797a5e13a9e425610f6c91655" target="_top" xlink:title="engine.visuals.Scrollable\lBackground.setXScrollSpeed">
<polygon fill="white" stroke="black" points="362.5,-49 362.5,-79 517.5,-79 517.5,-49 362.5,-49"/>
<text text-anchor="start" x="370.5" y="-67" font-family="Helvetica,sans-Serif" font-size="10.00">engine.visuals.Scrollable</text>
<text text-anchor="middle" x="440" y="-56" font-family="Helvetica,sans-Serif" font-size="10.00">Background.setXScrollSpeed</text>
</a>
</g>
</g>
<!-- Node2&#45;&gt;Node4 -->
<g id="edge3" class="edge"><title>Node2&#45;&gt;Node4</title>
<path fill="none" stroke="midnightblue" d="M304.093,-64C319.538,-64 336.217,-64 352.404,-64"/>
<polygon fill="midnightblue" stroke="midnightblue" points="352.404,-67.5001 362.404,-64 352.404,-60.5001 352.404,-67.5001"/>
</g>
<!-- Node5 -->
<g id="node5" class="node"><title>Node5</title>
<g id="a_node5"><a xlink:href="../../d2/dae/classengine_1_1visuals_1_1_scrollable_background.html#a0a95d45df6721fccc5ba417111c36cf4" target="_top" xlink:title="engine.visuals.Scrollable\lBackground.setYScrollSpeed">
<polygon fill="white" stroke="black" points="363,-0 363,-30 517,-30 517,-0 363,-0"/>
<text text-anchor="start" x="371" y="-18" font-family="Helvetica,sans-Serif" font-size="10.00">engine.visuals.Scrollable</text>
<text text-anchor="middle" x="440" y="-7" font-family="Helvetica,sans-Serif" font-size="10.00">Background.setYScrollSpeed</text>
</a>
</g>
</g>
<!-- Node2&#45;&gt;Node5 -->
<g id="edge4" class="edge"><title>Node2&#45;&gt;Node5</title>
<path fill="none" stroke="midnightblue" d="M299.673,-48.9654C321.088,-43.7446 345.284,-37.8463 367.43,-32.4474"/>
<polygon fill="midnightblue" stroke="midnightblue" points="368.558,-35.7751 377.444,-30.0062 366.9,-28.9743 368.558,-35.7751"/>
</g>
</g>
</svg>
