<?xml version="1.0" encoding="UTF-8" standalone="no"?>
<!DOCTYPE svg PUBLIC "-//W3C//DTD SVG 1.1//EN"
 "http://www.w3.org/Graphics/SVG/1.1/DTD/svg11.dtd">
<!-- Generated by graphviz version 2.36.0 (20140111.2315)
 -->
<!-- Title: engine.visuals.ScrollablePane.ScrollablePane Pages: 1 -->
<!--zoomable 509 -->
<svg id="main" version="1.1" xmlns="http://www.w3.org/2000/svg" xmlns:xlink="http://www.w3.org/1999/xlink" xml:space="preserve" onload="init(evt)">
<style type="text/css"><![CDATA[
.edge:hover path { stroke: red; }
.edge:hover polygon { stroke: red; fill: red; }
]]></style>
<script type="text/javascript"><![CDATA[
var edges = document.getElementsByTagName('g');
if (edges && edges.length) {
  for (var i=0;i<edges.length;i++) {
    if (edges[i].id.substr(0,4)=='edge') {
      edges[i].setAttribute('class','edge');
    }
  }
}
]]></script>
        <defs>
                <circle id="rim" cx="0" cy="0" r="7"/>
                <circle id="rim2" cx="0" cy="0" r="3.5"/>
                <g id="zoomPlus">
                        <use xlink:href="#rim" fill="#404040">
                                <set attributeName="fill" to="#808080" begin="zoomplus.mouseover" end="zoomplus.mouseout"/>
                        </use>
                        <path d="M-4,0h8M0,-4v8" fill="none" stroke="white" stroke-width="1.5" pointer-events="none"/>
                </g>
                <g id="zoomMin">
                        <use xlink:href="#rim" fill="#404040">
                                <set attributeName="fill" to="#808080" begin="zoomminus.mouseover" end="zoomminus.mouseout"/>
                        </use>
                        <path d="M-4,0h8" fill="none" stroke="white" stroke-width="1.5" pointer-events="none"/>
                </g>
                <g id="dirArrow">
                        <path fill="none" stroke="white" stroke-width="1.5" d="M0,-3.0v7 M-2.5,-0.5L0,-3.0L2.5,-0.5"/>
                </g>
               <g id="resetDef">
                       <use xlink:href="#rim2" fill="#404040">
                               <set attributeName="fill" to="#808080" begin="reset.mouseover" end="reset.mouseout"/>
                       </use>
               </g>
        </defs>

<script type="text/javascript">
var viewWidth = 898;
var viewHeight = 509;
var sectionId = 'dynsection-2';
</script>
<script xlink:href="../../svgpan.js"/>
<svg id="graph" class="graph">
<g id="viewport">
<title>engine.visuals.ScrollablePane.ScrollablePane</title>
<polygon fill="white" stroke="none" points="-4,4 -4,-504.786 894,-504.786 894,4 -4,4"/>
<!-- Node1 -->
<g id="node1" class="node"><title>Node1</title>
<polygon fill="#bfbfbf" stroke="black" points="0,-259.786 0,-289.786 134,-289.786 134,-259.786 0,-259.786"/>
<text text-anchor="start" x="8" y="-277.786" font-family="Helvetica,sans-Serif" font-size="10.00">engine.visuals.Scrollable</text>
<text text-anchor="middle" x="67" y="-266.786" font-family="Helvetica,sans-Serif" font-size="10.00">Pane.ScrollablePane</text>
</g>
<!-- Node2 -->
<g id="node2" class="node"><title>Node2</title>
<g id="a_node2"><a xlink:href="../../d3/d64/classengine_1_1visuals_1_1_selection_box.html#a9c272b51a5b5a1b3eaa82956088de6f5" target="_top" xlink:title="engine.visuals.Selection\lBox.getBox">
<polygon fill="white" stroke="black" points="171.5,-284.786 171.5,-314.786 302.5,-314.786 302.5,-284.786 171.5,-284.786"/>
<text text-anchor="start" x="179.5" y="-302.786" font-family="Helvetica,sans-Serif" font-size="10.00">engine.visuals.Selection</text>
<text text-anchor="middle" x="237" y="-291.786" font-family="Helvetica,sans-Serif" font-size="10.00">Box.getBox</text>
</a>
</g>
</g>
<!-- Node1&#45;&gt;Node2 -->
<g id="edge1" class="edge"><title>Node1&#45;&gt;Node2</title>
<path fill="none" stroke="midnightblue" d="M134.398,-284.667C143.261,-285.986 152.397,-287.345 161.389,-288.683"/>
<polygon fill="midnightblue" stroke="midnightblue" points="161.05,-292.171 171.456,-290.181 162.08,-285.248 161.05,-292.171"/>
</g>
<!-- Node3 -->
<g id="node3" class="node"><title>Node3</title>
<g id="a_node3"><a xlink:href="../../de/d79/classengine_1_1visuals_1_1_scrollable_pane.html#a84c7589cc61d150a9b33e4603bbac25a" target="_top" xlink:title="engine.visuals.Scrollable\lPane.initializeHandlers">
<polygon fill="white" stroke="black" points="170,-235.786 170,-265.786 304,-265.786 304,-235.786 170,-235.786"/>
<text text-anchor="start" x="178" y="-253.786" font-family="Helvetica,sans-Serif" font-size="10.00">engine.visuals.Scrollable</text>
<text text-anchor="middle" x="237" y="-242.786" font-family="Helvetica,sans-Serif" font-size="10.00">Pane.initializeHandlers</text>
</a>
</g>
</g>
<!-- Node1&#45;&gt;Node3 -->
<g id="edge2" class="edge"><title>Node1&#45;&gt;Node3</title>
<path fill="none" stroke="midnightblue" d="M134.398,-265.301C142.77,-264.105 151.386,-262.874 159.894,-261.658"/>
<polygon fill="midnightblue" stroke="midnightblue" points="160.405,-265.121 169.809,-260.242 159.415,-258.191 160.405,-265.121"/>
</g>
<!-- Node4 -->
<g id="node4" class="node"><title>Node4</title>
<g id="a_node4"><a xlink:href="../../d1/d47/classengine_1_1_u_i_1_1_input_manager.html#a4f9d5b9e492262ccf1edfa7eeb37e716" target="_top" xlink:title="engine.UI.InputManager.key\lPressed">
<polygon fill="white" stroke="black" points="359.5,-470.786 359.5,-500.786 508.5,-500.786 508.5,-470.786 359.5,-470.786"/>
<text text-anchor="start" x="367.5" y="-488.786" font-family="Helvetica,sans-Serif" font-size="10.00">engine.UI.InputManager.key</text>
<text text-anchor="middle" x="434" y="-477.786" font-family="Helvetica,sans-Serif" font-size="10.00">Pressed</text>
</a>
</g>
</g>
<!-- Node3&#45;&gt;Node4 -->
<g id="edge3" class="edge"><title>Node3&#45;&gt;Node4</title>
<path fill="none" stroke="midnightblue" d="M293.813,-265.911C297.595,-268.427 301.062,-271.363 304,-274.786 357.412,-337.031 285.454,-394.533 340,-455.786 343.131,-459.302 346.676,-462.408 350.508,-465.152"/>
<polygon fill="midnightblue" stroke="midnightblue" points="348.963,-468.312 359.308,-470.599 352.647,-462.36 348.963,-468.312"/>
</g>
<!-- Node5 -->
<g id="node5" class="node"><title>Node5</title>
<g id="a_node5"><a xlink:href="../../d2/dae/classengine_1_1visuals_1_1_scrollable_background.html#a14ea8fb797a5e13a9e425610f6c91655" target="_top" xlink:title="engine.visuals.Scrollable\lBackground.setXScrollSpeed">
<polygon fill="white" stroke="black" points="734.5,-404.786 734.5,-434.786 889.5,-434.786 889.5,-404.786 734.5,-404.786"/>
<text text-anchor="start" x="742.5" y="-422.786" font-family="Helvetica,sans-Serif" font-size="10.00">engine.visuals.Scrollable</text>
<text text-anchor="middle" x="812" y="-411.786" font-family="Helvetica,sans-Serif" font-size="10.00">Background.setXScrollSpeed</text>
</a>
</g>
</g>
<!-- Node3&#45;&gt;Node5 -->
<g id="edge4" class="edge"><title>Node3&#45;&gt;Node5</title>
<path fill="none" stroke="midnightblue" d="M293.339,-265.853C297.277,-268.383 300.907,-271.337 304,-274.786 348.911,-324.86 287.082,-380.264 340,-421.786 397.509,-466.911 604.423,-448.03 724.004,-432.537"/>
<polygon fill="midnightblue" stroke="midnightblue" points="724.773,-435.966 734.231,-431.192 723.86,-429.025 724.773,-435.966"/>
</g>
<!-- Node6 -->
<g id="node6" class="node"><title>Node6</title>
<g id="a_node6"><a xlink:href="../../d2/dae/classengine_1_1visuals_1_1_scrollable_background.html#a0a95d45df6721fccc5ba417111c36cf4" target="_top" xlink:title="engine.visuals.Scrollable\lBackground.setYScrollSpeed">
<polygon fill="white" stroke="black" points="735,-175.786 735,-205.786 889,-205.786 889,-175.786 735,-175.786"/>
<text text-anchor="start" x="743" y="-193.786" font-family="Helvetica,sans-Serif" font-size="10.00">engine.visuals.Scrollable</text>
<text text-anchor="middle" x="812" y="-182.786" font-family="Helvetica,sans-Serif" font-size="10.00">Background.setYScrollSpeed</text>
</a>
</g>
</g>
<!-- Node3&#45;&gt;Node6 -->
<g id="edge5" class="edge"><title>Node3&#45;&gt;Node6</title>
<path fill="none" stroke="midnightblue" d="M239.567,-235.689C244.799,-194.004 265.785,-77.2716 340,-29.7861 493.848,68.6507 714.705,-105.193 787.059,-168.822"/>
<polygon fill="midnightblue" stroke="midnightblue" points="784.953,-171.634 794.75,-175.666 789.606,-166.404 784.953,-171.634"/>
</g>
<!-- Node7 -->
<g id="node7" class="node"><title>Node7</title>
<g id="a_node7"><a xlink:href="../../de/d79/classengine_1_1visuals_1_1_scrollable_pane.html#a32e24f7577c90d24424b51fedec69ebf" target="_top" xlink:title="engine.visuals.Scrollable\lPane.callCorrectMouseButtonAction">
<polygon fill="white" stroke="black" points="340,-333.786 340,-363.786 528,-363.786 528,-333.786 340,-333.786"/>
<text text-anchor="start" x="348" y="-351.786" font-family="Helvetica,sans-Serif" font-size="10.00">engine.visuals.Scrollable</text>
<text text-anchor="middle" x="434" y="-340.786" font-family="Helvetica,sans-Serif" font-size="10.00">Pane.callCorrectMouseButtonAction</text>
</a>
</g>
</g>
<!-- Node3&#45;&gt;Node7 -->
<g id="edge6" class="edge"><title>Node3&#45;&gt;Node7</title>
<path fill="none" stroke="midnightblue" d="M288.973,-265.786C294.287,-268.367 299.414,-271.35 304,-274.786 325.627,-290.989 317.695,-308.53 340,-323.786 342.917,-325.782 345.987,-327.618 349.164,-329.308"/>
<polygon fill="midnightblue" stroke="midnightblue" points="347.832,-332.55 358.365,-333.693 350.844,-326.231 347.832,-332.55"/>
</g>
<!-- Node8 -->
<g id="node8" class="node"><title>Node8</title>
<g id="a_node8"><a xlink:href="../../d1/d47/classengine_1_1_u_i_1_1_input_manager.html#ab79ae26c609002b404e4e47021373e3e" target="_top" xlink:title="engine.UI.InputManager.primary\lClickOccurred">
<polygon fill="white" stroke="black" points="349,-284.786 349,-314.786 519,-314.786 519,-284.786 349,-284.786"/>
<text text-anchor="start" x="357" y="-302.786" font-family="Helvetica,sans-Serif" font-size="10.00">engine.UI.InputManager.primary</text>
<text text-anchor="middle" x="434" y="-291.786" font-family="Helvetica,sans-Serif" font-size="10.00">ClickOccurred</text>
</a>
</g>
</g>
<!-- Node3&#45;&gt;Node8 -->
<g id="edge7" class="edge"><title>Node3&#45;&gt;Node8</title>
<path fill="none" stroke="midnightblue" d="M297.832,-265.821C318.608,-271.041 342.081,-276.94 363.567,-282.339"/>
<polygon fill="midnightblue" stroke="midnightblue" points="362.73,-285.737 373.282,-284.78 364.436,-278.948 362.73,-285.737"/>
</g>
<!-- Node9 -->
<g id="node9" class="node"><title>Node9</title>
<g id="a_node9"><a xlink:href="../../d1/d47/classengine_1_1_u_i_1_1_input_manager.html#a62e755c992f1a2555975347fd0480aa4" target="_top" xlink:title="engine.UI.InputManager.secondary\lClickOccurred">
<polygon fill="white" stroke="black" points="343,-235.786 343,-265.786 525,-265.786 525,-235.786 343,-235.786"/>
<text text-anchor="start" x="351" y="-253.786" font-family="Helvetica,sans-Serif" font-size="10.00">engine.UI.InputManager.secondary</text>
<text text-anchor="middle" x="434" y="-242.786" font-family="Helvetica,sans-Serif" font-size="10.00">ClickOccurred</text>
</a>
</g>
</g>
<!-- Node3&#45;&gt;Node9 -->
<g id="edge8" class="edge"><title>Node3&#45;&gt;Node9</title>
<path fill="none" stroke="midnightblue" d="M304.018,-250.786C313.285,-250.786 322.976,-250.786 332.705,-250.786"/>
<polygon fill="midnightblue" stroke="midnightblue" points="332.84,-254.286 342.84,-250.786 332.84,-247.286 332.84,-254.286"/>
</g>
<!-- Node10 -->
<g id="node10" class="node"><title>Node10</title>
<g id="a_node10"><a xlink:href="../../d1/d47/classengine_1_1_u_i_1_1_input_manager.html#ae62336a8262bb70ee51c1e5f1fa2c064" target="_top" xlink:title="engine.UI.InputManager.primary\lClickReleaseOccurred">
<polygon fill="white" stroke="black" points="349,-186.786 349,-216.786 519,-216.786 519,-186.786 349,-186.786"/>
<text text-anchor="start" x="357" y="-204.786" font-family="Helvetica,sans-Serif" font-size="10.00">engine.UI.InputManager.primary</text>
<text text-anchor="middle" x="434" y="-193.786" font-family="Helvetica,sans-Serif" font-size="10.00">ClickReleaseOccurred</text>
</a>
</g>
</g>
<!-- Node3&#45;&gt;Node10 -->
<g id="edge9" class="edge"><title>Node3&#45;&gt;Node10</title>
<path fill="none" stroke="midnightblue" d="M297.832,-235.752C318.608,-230.531 342.081,-224.632 363.567,-219.234"/>
<polygon fill="midnightblue" stroke="midnightblue" points="364.436,-222.624 373.282,-216.792 362.73,-215.835 364.436,-222.624"/>
</g>
<!-- Node11 -->
<g id="node11" class="node"><title>Node11</title>
<g id="a_node11"><a xlink:href="../../d1/d47/classengine_1_1_u_i_1_1_input_manager.html#a1045f4176d4a2d37b1c69295e5a95f70" target="_top" xlink:title="engine.UI.InputManager.secondary\lClickReleaseOccurred">
<polygon fill="white" stroke="black" points="343,-137.786 343,-167.786 525,-167.786 525,-137.786 343,-137.786"/>
<text text-anchor="start" x="351" y="-155.786" font-family="Helvetica,sans-Serif" font-size="10.00">engine.UI.InputManager.secondary</text>
<text text-anchor="middle" x="434" y="-144.786" font-family="Helvetica,sans-Serif" font-size="10.00">ClickReleaseOccurred</text>
</a>
</g>
</g>
<!-- Node3&#45;&gt;Node11 -->
<g id="edge10" class="edge"><title>Node3&#45;&gt;Node11</title>
<path fill="none" stroke="midnightblue" d="M254.773,-235.515C274.01,-218.78 307.143,-192.258 340,-176.786 344.299,-174.762 348.794,-172.89 353.388,-171.163"/>
<polygon fill="midnightblue" stroke="midnightblue" points="354.646,-174.431 362.924,-167.818 352.329,-167.826 354.646,-174.431"/>
</g>
<!-- Node12 -->
<g id="node12" class="node"><title>Node12</title>
<g id="a_node12"><a xlink:href="../../d1/d47/classengine_1_1_u_i_1_1_input_manager.html#a1446887e98df26419f1157d705e3ed5c" target="_top" xlink:title="engine.UI.InputManager.primary\lDragOccurred">
<polygon fill="white" stroke="black" points="349,-88.7861 349,-118.786 519,-118.786 519,-88.7861 349,-88.7861"/>
<text text-anchor="start" x="357" y="-106.786" font-family="Helvetica,sans-Serif" font-size="10.00">engine.UI.InputManager.primary</text>
<text text-anchor="middle" x="434" y="-95.7861" font-family="Helvetica,sans-Serif" font-size="10.00">DragOccurred</text>
</a>
</g>
</g>
<!-- Node3&#45;&gt;Node12 -->
<g id="edge11" class="edge"><title>Node3&#45;&gt;Node12</title>
<path fill="none" stroke="midnightblue" d="M246.206,-235.694C261.232,-209.534 295.731,-155.881 340,-127.786 342.591,-126.142 345.291,-124.609 348.07,-123.182"/>
<polygon fill="midnightblue" stroke="midnightblue" points="349.57,-126.344 357.178,-118.97 346.632,-119.991 349.57,-126.344"/>
</g>
<!-- Node13 -->
<g id="node13" class="node"><title>Node13</title>
<g id="a_node13"><a xlink:href="../../d1/d47/classengine_1_1_u_i_1_1_input_manager.html#a7c67af2a9a3c7897dfd48fc33d124e15" target="_top" xlink:title="engine.UI.InputManager.secondary\lDragOccurred">
<polygon fill="white" stroke="black" points="343,-39.7861 343,-69.7861 525,-69.7861 525,-39.7861 343,-39.7861"/>
<text text-anchor="start" x="351" y="-57.7861" font-family="Helvetica,sans-Serif" font-size="10.00">engine.UI.InputManager.secondary</text>
<text text-anchor="middle" x="434" y="-46.7861" font-family="Helvetica,sans-Serif" font-size="10.00">DragOccurred</text>
</a>
</g>
</g>
<!-- Node3&#45;&gt;Node13 -->
<g id="edge12" class="edge"><title>Node3&#45;&gt;Node13</title>
<path fill="none" stroke="midnightblue" d="M242.536,-235.68C253.452,-202.006 284.475,-120.476 340,-78.7861 341.842,-77.4032 343.756,-76.0997 345.728,-74.8709"/>
<polygon fill="midnightblue" stroke="midnightblue" points="347.625,-77.8227 354.714,-69.9488 344.262,-71.6835 347.625,-77.8227"/>
</g>
<!-- Node14 -->
<g id="node14" class="node"><title>Node14</title>
<g id="a_node14"><a xlink:href="../../de/d79/classengine_1_1visuals_1_1_scrollable_pane.html#a055e5e25ccdd27de96fdd1235281a622" target="_top" xlink:title="engine.visuals.Scrollable\lPane.mouseMoved">
<polygon fill="white" stroke="black" points="367,-382.786 367,-412.786 501,-412.786 501,-382.786 367,-382.786"/>
<text text-anchor="start" x="375" y="-400.786" font-family="Helvetica,sans-Serif" font-size="10.00">engine.visuals.Scrollable</text>
<text text-anchor="middle" x="434" y="-389.786" font-family="Helvetica,sans-Serif" font-size="10.00">Pane.mouseMoved</text>
</a>
</g>
</g>
<!-- Node3&#45;&gt;Node14 -->
<g id="edge13" class="edge"><title>Node3&#45;&gt;Node14</title>
<path fill="none" stroke="midnightblue" d="M292.292,-265.858C296.56,-268.39 300.546,-271.343 304,-274.786 336.864,-307.543 305.755,-341.475 340,-372.786 345.14,-377.486 351.069,-381.318 357.396,-384.44"/>
<polygon fill="midnightblue" stroke="midnightblue" points="356.333,-387.793 366.902,-388.526 359.097,-381.362 356.333,-387.793"/>
</g>
<!-- Node15 -->
<g id="node15" class="node"><title>Node15</title>
<g id="a_node15"><a xlink:href="../../de/d79/classengine_1_1visuals_1_1_scrollable_pane.html#af7dc0dac9cdc19cac041a7389dbd8ab0" target="_top" xlink:title="engine.visuals.Scrollable\lPane.setScrollSpeed">
<polygon fill="white" stroke="black" points="564,-382.786 564,-412.786 698,-412.786 698,-382.786 564,-382.786"/>
<text text-anchor="start" x="572" y="-400.786" font-family="Helvetica,sans-Serif" font-size="10.00">engine.visuals.Scrollable</text>
<text text-anchor="middle" x="631" y="-389.786" font-family="Helvetica,sans-Serif" font-size="10.00">Pane.setScrollSpeed</text>
</a>
</g>
</g>
<!-- Node14&#45;&gt;Node15 -->
<g id="edge14" class="edge"><title>Node14&#45;&gt;Node15</title>
<path fill="none" stroke="midnightblue" d="M501.018,-397.786C517.921,-397.786 536.237,-397.786 553.614,-397.786"/>
<polygon fill="midnightblue" stroke="midnightblue" points="553.718,-401.286 563.718,-397.786 553.718,-394.286 553.718,-401.286"/>
</g>
<!-- Node15&#45;&gt;Node5 -->
<g id="edge15" class="edge"><title>Node15&#45;&gt;Node5</title>
<path fill="none" stroke="midnightblue" d="M698.144,-405.916C706.591,-406.954 715.336,-408.029 724.049,-409.099"/>
<polygon fill="midnightblue" stroke="midnightblue" points="723.89,-412.606 734.242,-410.352 724.744,-405.658 723.89,-412.606"/>
</g>
<!-- Node15&#45;&gt;Node6 -->
<g id="edge16" class="edge"><title>Node15&#45;&gt;Node6</title>
<path fill="none" stroke="midnightblue" d="M645.162,-382.565C676.261,-346.602 754.424,-256.211 791.239,-213.638"/>
<polygon fill="midnightblue" stroke="midnightblue" points="793.925,-215.883 797.818,-206.03 788.63,-211.304 793.925,-215.883"/>
</g>
</g>
</svg>
        <g id="navigator" transform="translate(0 0)" fill="#404254">
                <rect fill="#f2f5e9" fill-opacity="0.5" stroke="#606060" stroke-width=".5" x="0" y="0" width="60" height="60"/>
                <use id="zoomplus" xlink:href="#zoomPlus" x="17" y="9" onmousedown="handleZoom(evt,'in')"/>
                <use id="zoomminus" xlink:href="#zoomMin" x="42" y="9" onmousedown="handleZoom(evt,'out')"/>
                <use id="reset" xlink:href="#resetDef" x="30" y="36" onmousedown="handleReset()"/>
                <g id="arrowUp" xlink:href="#dirArrow" transform="translate(30 24)" onmousedown="handlePan(0,-1)">
                  <use xlink:href="#rim" fill="#404040">
                        <set attributeName="fill" to="#808080" begin="arrowUp.mouseover" end="arrowUp.mouseout"/>
                  </use>
                  <path fill="none" stroke="white" stroke-width="1.5" d="M0,-3.0v7 M-2.5,-0.5L0,-3.0L2.5,-0.5"/>
                </g>
                <g id="arrowRight" xlink:href="#dirArrow" transform="rotate(90) translate(36 -43)" onmousedown="handlePan(1,0)">
                  <use xlink:href="#rim" fill="#404040">
                        <set attributeName="fill" to="#808080" begin="arrowRight.mouseover" end="arrowRight.mouseout"/>
                  </use>
                  <path fill="none" stroke="white" stroke-width="1.5" d="M0,-3.0v7 M-2.5,-0.5L0,-3.0L2.5,-0.5"/>
                </g>
                <g id="arrowDown" xlink:href="#dirArrow" transform="rotate(180) translate(-30 -48)" onmousedown="handlePan(0,1)">
                  <use xlink:href="#rim" fill="#404040">
                        <set attributeName="fill" to="#808080" begin="arrowDown.mouseover" end="arrowDown.mouseout"/>
                  </use>
                  <path fill="none" stroke="white" stroke-width="1.5" d="M0,-3.0v7 M-2.5,-0.5L0,-3.0L2.5,-0.5"/>
                </g>
                <g id="arrowLeft" xlink:href="#dirArrow" transform="rotate(270) translate(-36 17)" onmousedown="handlePan(-1,0)">
                  <use xlink:href="#rim" fill="#404040">
                        <set attributeName="fill" to="#808080" begin="arrowLeft.mouseover" end="arrowLeft.mouseout"/>
                  </use>
                  <path fill="none" stroke="white" stroke-width="1.5" d="M0,-3.0v7 M-2.5,-0.5L0,-3.0L2.5,-0.5"/>
                </g>
        </g>
        <svg viewBox="0 0 15 15" width="100%" height="30px" preserveAspectRatio="xMaxYMin meet">
         <g id="arrow_out" transform="scale(0.3 0.3)">
          <a xlink:href="classengine_1_1visuals_1_1_scrollable_pane_a160609c946e14e2b92b2a0fa98d8e488_cgraph_org.svg" target="_base">
           <rect id="button" ry="5" rx="5" y="6" x="6" height="38" width="38"
                fill="#f2f5e9" fill-opacity="0.5" stroke="#606060" stroke-width="1.0"/>
           <path id="arrow"
             d="M 11.500037,31.436501 C 11.940474,20.09759 22.043105,11.32322 32.158766,21.979434 L 37.068811,17.246167 C 37.068811,17.246167 37.088388,32 37.088388,32 L 22.160133,31.978069 C 22.160133,31.978069 26.997745,27.140456 26.997745,27.140456 C 18.528582,18.264221 13.291696,25.230495 11.500037,31.436501 z"
             style="fill:#404040;"/>
          </a>
         </g>
        </svg>
</svg>
