<?xml version="1.0" encoding="UTF-8" standalone="no"?>
<!DOCTYPE svg PUBLIC "-//W3C//DTD SVG 1.1//EN"
 "http://www.w3.org/Graphics/SVG/1.1/DTD/svg11.dtd">
<!-- Generated by graphviz version 2.36.0 (20140111.2315)
 -->
<!-- Title: view.editor.ProjectExplorerController.getSelectedHierarchy Pages: 1 -->
<svg width="562pt" height="136pt"
 viewBox="0.00 0.00 562.00 136.00" xmlns="http://www.w3.org/2000/svg" xmlns:xlink="http://www.w3.org/1999/xlink">
<g id="graph0" class="graph" transform="scale(1 1) rotate(0) translate(4 132)">
<title>view.editor.ProjectExplorerController.getSelectedHierarchy</title>
<polygon fill="white" stroke="none" points="-4,4 -4,-132 558,-132 558,4 -4,4"/>
<!-- Node1 -->
<g id="node1" class="node"><title>Node1</title>
<polygon fill="#bfbfbf" stroke="black" points="0.5,-49 0.5,-79 169.5,-79 169.5,-49 0.5,-49"/>
<text text-anchor="start" x="8.5" y="-67" font-family="Helvetica,sans-Serif" font-size="10.00">view.editor.ProjectExplorer</text>
<text text-anchor="middle" x="85" y="-56" font-family="Helvetica,sans-Serif" font-size="10.00">Controller.getSelectedHierarchy</text>
</g>
<!-- Node2 -->
<g id="node2" class="node"><title>Node2</title>
<g id="a_node2"><a xlink:href="../../d0/db5/classview_1_1editor_1_1_project_explorer_controller.html#a77a445d14f893114fd6edf72c207c907" target="_top" xlink:title="view.editor.ProjectExplorer\lController.initListeners">
<polygon fill="white" stroke="black" points="217.5,-98 217.5,-128 358.5,-128 358.5,-98 217.5,-98"/>
<text text-anchor="start" x="225.5" y="-116" font-family="Helvetica,sans-Serif" font-size="10.00">view.editor.ProjectExplorer</text>
<text text-anchor="middle" x="288" y="-105" font-family="Helvetica,sans-Serif" font-size="10.00">Controller.initListeners</text>
</a>
</g>
</g>
<!-- Node1&#45;&gt;Node2 -->
<g id="edge1" class="edge"><title>Node1&#45;&gt;Node2</title>
<path fill="none" stroke="midnightblue" d="M157.391,-81.4038C179.626,-86.8243 203.942,-92.752 225.444,-97.9938"/>
<polygon fill="midnightblue" stroke="midnightblue" points="158.217,-78.0027 147.673,-79.0346 156.559,-84.8036 158.217,-78.0027"/>
</g>
<!-- Node4 -->
<g id="node4" class="node"><title>Node4</title>
<g id="a_node4"><a xlink:href="../../d0/db5/classview_1_1editor_1_1_editor_screen.html#aaad5f29799d14174213c2f06f6156890" target="_top" xlink:title="view.editor.EditorScreen.init\lProjectExplorer">
<polygon fill="white" stroke="black" points="214,-49 214,-79 362,-79 362,-49 214,-49"/>
<text text-anchor="start" x="222" y="-67" font-family="Helvetica,sans-Serif" font-size="10.00">view.editor.EditorScreen.init</text>
<text text-anchor="middle" x="288" y="-56" font-family="Helvetica,sans-Serif" font-size="10.00">ProjectExplorer</text>
</a>
</g>
</g>
<!-- Node1&#45;&gt;Node4 -->
<g id="edge3" class="edge"><title>Node1&#45;&gt;Node4</title>
<path fill="none" stroke="midnightblue" d="M179.804,-64C191.254,-64 202.821,-64 213.906,-64"/>
<polygon fill="midnightblue" stroke="midnightblue" points="179.787,-60.5001 169.787,-64 179.787,-67.5001 179.787,-60.5001"/>
</g>
<!-- Node6 -->
<g id="node6" class="node"><title>Node6</title>
<g id="a_node6"><a xlink:href="../../d0/db5/classview_1_1editor_1_1_editor_screen.html#a46b5e664f69da1947e605de4336f09cf" target="_top" xlink:title="view.editor.EditorScreen.model\lUpdate">
<polygon fill="white" stroke="black" points="206,-0 206,-30 370,-30 370,-0 206,-0"/>
<text text-anchor="start" x="214" y="-18" font-family="Helvetica,sans-Serif" font-size="10.00">view.editor.EditorScreen.model</text>
<text text-anchor="middle" x="288" y="-7" font-family="Helvetica,sans-Serif" font-size="10.00">Update</text>
</a>
</g>
</g>
<!-- Node1&#45;&gt;Node6 -->
<g id="edge5" class="edge"><title>Node1&#45;&gt;Node6</title>
<path fill="none" stroke="midnightblue" d="M157.391,-46.5962C179.626,-41.1757 203.942,-35.248 225.444,-30.0062"/>
<polygon fill="midnightblue" stroke="midnightblue" points="156.559,-43.1964 147.673,-48.9654 158.217,-49.9973 156.559,-43.1964"/>
</g>
<!-- Node3 -->
<g id="node3" class="node"><title>Node3</title>
<g id="a_node3"><a xlink:href="../../d0/db5/classview_1_1editor_1_1_project_explorer_controller.html#af30d4adba2ead51c291a0cc82d27866e" target="_top" xlink:title="view.editor.ProjectExplorer\lController.initialize">
<polygon fill="white" stroke="black" points="409.5,-98 409.5,-128 550.5,-128 550.5,-98 409.5,-98"/>
<text text-anchor="start" x="417.5" y="-116" font-family="Helvetica,sans-Serif" font-size="10.00">view.editor.ProjectExplorer</text>
<text text-anchor="middle" x="480" y="-105" font-family="Helvetica,sans-Serif" font-size="10.00">Controller.initialize</text>
</a>
</g>
</g>
<!-- Node2&#45;&gt;Node3 -->
<g id="edge2" class="edge"><title>Node2&#45;&gt;Node3</title>
<path fill="none" stroke="midnightblue" d="M368.856,-113C382.307,-113 396.173,-113 409.338,-113"/>
<polygon fill="midnightblue" stroke="midnightblue" points="368.67,-109.5 358.67,-113 368.67,-116.5 368.67,-109.5"/>
</g>
<!-- Node5 -->
<g id="node5" class="node"><title>Node5</title>
<g id="a_node5"><a xlink:href="../../d0/db5/classview_1_1editor_1_1_editor_screen.html#aba6c32908c25fa4f755a312e92860c02" target="_top" xlink:title="view.editor.EditorScreen.init">
<polygon fill="white" stroke="black" points="406,-54.5 406,-73.5 554,-73.5 554,-54.5 406,-54.5"/>
<text text-anchor="middle" x="480" y="-61.5" font-family="Helvetica,sans-Serif" font-size="10.00">view.editor.EditorScreen.init</text>
</a>
</g>
</g>
<!-- Node4&#45;&gt;Node5 -->
<g id="edge4" class="edge"><title>Node4&#45;&gt;Node5</title>
<path fill="none" stroke="midnightblue" d="M372.354,-64C383.512,-64 394.886,-64 405.85,-64"/>
<polygon fill="midnightblue" stroke="midnightblue" points="372.187,-60.5001 362.187,-64 372.187,-67.5001 372.187,-60.5001"/>
</g>
</g>
</svg>
