<?xml version="1.0" encoding="UTF-8" standalone="no"?>
<!DOCTYPE svg PUBLIC "-//W3C//DTD SVG 1.1//EN"
 "http://www.w3.org/Graphics/SVG/1.1/DTD/svg11.dtd">
<!-- Generated by graphviz version 2.36.0 (20140111.2315)
 -->
<!-- Title: view.editor.EditorScreen.updateTabTexts Pages: 1 -->
<svg width="376pt" height="38pt"
 viewBox="0.00 0.00 376.00 38.00" xmlns="http://www.w3.org/2000/svg" xmlns:xlink="http://www.w3.org/1999/xlink">
<g id="graph0" class="graph" transform="scale(1 1) rotate(0) translate(4 34)">
<title>view.editor.EditorScreen.updateTabTexts</title>
<polygon fill="white" stroke="none" points="-4,4 -4,-34 372,-34 372,4 -4,4"/>
<!-- Node1 -->
<g id="node1" class="node"><title>Node1</title>
<polygon fill="#bfbfbf" stroke="black" points="0.5,-0 0.5,-30 167.5,-30 167.5,-0 0.5,-0"/>
<text text-anchor="start" x="8.5" y="-18" font-family="Helvetica,sans-Serif" font-size="10.00">view.editor.EditorScreen.update</text>
<text text-anchor="middle" x="84" y="-7" font-family="Helvetica,sans-Serif" font-size="10.00">TabTexts</text>
</g>
<!-- Node2 -->
<g id="node2" class="node"><title>Node2</title>
<g id="a_node2"><a xlink:href="../../d0/db5/classview_1_1editor_1_1_editor_screen.html#a46b5e664f69da1947e605de4336f09cf" target="_top" xlink:title="view.editor.EditorScreen.model\lUpdate">
<polygon fill="white" stroke="black" points="204,-0 204,-30 368,-30 368,-0 204,-0"/>
<text text-anchor="start" x="212" y="-18" font-family="Helvetica,sans-Serif" font-size="10.00">view.editor.EditorScreen.model</text>
<text text-anchor="middle" x="286" y="-7" font-family="Helvetica,sans-Serif" font-size="10.00">Update</text>
</a>
</g>
</g>
<!-- Node1&#45;&gt;Node2 -->
<g id="edge1" class="edge"><title>Node1&#45;&gt;Node2</title>
<path fill="none" stroke="midnightblue" d="M177.738,-15C186.5,-15 195.336,-15 203.977,-15"/>
<polygon fill="midnightblue" stroke="midnightblue" points="177.502,-11.5001 167.502,-15 177.502,-18.5001 177.502,-11.5001"/>
</g>
</g>
</svg>
