<?xml version="1.0" encoding="UTF-8" standalone="no"?>
<!DOCTYPE svg PUBLIC "-//W3C//DTD SVG 1.1//EN"
 "http://www.w3.org/Graphics/SVG/1.1/DTD/svg11.dtd">
<!-- Generated by graphviz version 2.36.0 (20140111.2315)
 -->
<!-- Title: model.state.gameelement.DrawableGameElementState.setVisionBounds Pages: 1 -->
<svg width="1326pt" height="109pt"
 viewBox="0.00 0.00 1326.00 109.00" xmlns="http://www.w3.org/2000/svg" xmlns:xlink="http://www.w3.org/1999/xlink">
<g id="graph0" class="graph" transform="scale(1 1) rotate(0) translate(4 105)">
<title>model.state.gameelement.DrawableGameElementState.setVisionBounds</title>
<polygon fill="white" stroke="none" points="-4,4 -4,-105 1322,-105 1322,4 -4,4"/>
<!-- Node1 -->
<g id="node1" class="node"><title>Node1</title>
<polygon fill="#bfbfbf" stroke="black" points="0,-32.5 0,-73.5 174,-73.5 174,-32.5 0,-32.5"/>
<text text-anchor="start" x="8" y="-61.5" font-family="Helvetica,sans-Serif" font-size="10.00">model.state.gameelement.</text>
<text text-anchor="start" x="8" y="-50.5" font-family="Helvetica,sans-Serif" font-size="10.00">DrawableGameElementState.set</text>
<text text-anchor="middle" x="87" y="-39.5" font-family="Helvetica,sans-Serif" font-size="10.00">VisionBounds</text>
</g>
<!-- Node2 -->
<g id="node2" class="node"><title>Node2</title>
<g id="a_node2"><a xlink:href="../../d1/d8e/classmodel_1_1_game_element_state_factory.html#aa01cfae3c582df2eb11c39dd076c5096" target="_top" xlink:title="model.GameElementStateFactory.add\lVisuals">
<polygon fill="white" stroke="black" points="210.5,-38 210.5,-68 409.5,-68 409.5,-38 210.5,-38"/>
<text text-anchor="start" x="218.5" y="-56" font-family="Helvetica,sans-Serif" font-size="10.00">model.GameElementStateFactory.add</text>
<text text-anchor="middle" x="310" y="-45" font-family="Helvetica,sans-Serif" font-size="10.00">Visuals</text>
</a>
</g>
</g>
<!-- Node1&#45;&gt;Node2 -->
<g id="edge1" class="edge"><title>Node1&#45;&gt;Node2</title>
<path fill="none" stroke="midnightblue" d="M184.18,-53C192.843,-53 201.627,-53 210.311,-53"/>
<polygon fill="midnightblue" stroke="midnightblue" points="184.077,-49.5001 174.077,-53 184.077,-56.5001 184.077,-49.5001"/>
</g>
<!-- Node3 -->
<g id="node3" class="node"><title>Node3</title>
<g id="a_node3"><a xlink:href="../../d1/d8e/classmodel_1_1_game_element_state_factory.html#a46a26fb8160e1cbef9933f6eb5779ccf" target="_top" xlink:title="model.GameElementStateFactory.create\lDrawableGameElementState">
<polygon fill="white" stroke="black" points="446,-64 446,-94 658,-94 658,-64 446,-64"/>
<text text-anchor="start" x="454" y="-82" font-family="Helvetica,sans-Serif" font-size="10.00">model.GameElementStateFactory.create</text>
<text text-anchor="middle" x="552" y="-71" font-family="Helvetica,sans-Serif" font-size="10.00">DrawableGameElementState</text>
</a>
</g>
</g>
<!-- Node2&#45;&gt;Node3 -->
<g id="edge2" class="edge"><title>Node2&#45;&gt;Node3</title>
<path fill="none" stroke="midnightblue" d="M419.75,-64.7812C428.388,-65.717 437.105,-66.6614 445.719,-67.5945"/>
<polygon fill="midnightblue" stroke="midnightblue" points="419.975,-61.2852 409.656,-63.6878 419.221,-68.2445 419.975,-61.2852"/>
</g>
<!-- Node7 -->
<g id="node7" class="node"><title>Node7</title>
<g id="a_node7"><a xlink:href="../../d1/d8e/classmodel_1_1_game_element_state_factory.html#a01ab3f8684cbf92bbf9443105065d472" target="_top" xlink:title="model.GameElementStateFactory.create\lSelectableGameElementState">
<polygon fill="white" stroke="black" points="446,-12 446,-42 658,-42 658,-12 446,-12"/>
<text text-anchor="start" x="454" y="-30" font-family="Helvetica,sans-Serif" font-size="10.00">model.GameElementStateFactory.create</text>
<text text-anchor="middle" x="552" y="-19" font-family="Helvetica,sans-Serif" font-size="10.00">SelectableGameElementState</text>
</a>
</g>
</g>
<!-- Node2&#45;&gt;Node7 -->
<g id="edge6" class="edge"><title>Node2&#45;&gt;Node7</title>
<path fill="none" stroke="midnightblue" d="M419.75,-41.2188C428.388,-40.283 437.105,-39.3386 445.719,-38.4055"/>
<polygon fill="midnightblue" stroke="midnightblue" points="419.221,-37.7555 409.656,-42.3122 419.975,-44.7148 419.221,-37.7555"/>
</g>
<!-- Node4 -->
<g id="node4" class="node"><title>Node4</title>
<g id="a_node4"><a xlink:href="../../de/d21/classmodel_1_1_main_model.html#ad0bb08a7d763bbd67aa5ac062dde5121" target="_top" xlink:title="model.MainModel.createDrawable\lGameElementState">
<polygon fill="white" stroke="black" points="697.5,-65 697.5,-95 876.5,-95 876.5,-65 697.5,-65"/>
<text text-anchor="start" x="705.5" y="-83" font-family="Helvetica,sans-Serif" font-size="10.00">model.MainModel.createDrawable</text>
<text text-anchor="middle" x="787" y="-72" font-family="Helvetica,sans-Serif" font-size="10.00">GameElementState</text>
</a>
</g>
</g>
<!-- Node3&#45;&gt;Node4 -->
<g id="edge3" class="edge"><title>Node3&#45;&gt;Node4</title>
<path fill="none" stroke="midnightblue" d="M668.353,-79.4951C678.059,-79.5367 687.777,-79.5784 697.235,-79.619"/>
<polygon fill="midnightblue" stroke="midnightblue" points="668.267,-75.9948 658.252,-79.4517 668.237,-82.9947 668.267,-75.9948"/>
</g>
<!-- Node5 -->
<g id="node5" class="node"><title>Node5</title>
<g id="a_node5"><a xlink:href="../../d9/dfb/classview_1_1editor_1_1_element_accordion_controller.html#a71bb33e7588f335fc2ebc1346924ad2d" target="_top" xlink:title="view.editor.ElementAccordion\lController.openDrawableGameElement\lWizard">
<polygon fill="white" stroke="black" points="919.5,-60.5 919.5,-101.5 1122.5,-101.5 1122.5,-60.5 919.5,-60.5"/>
<text text-anchor="start" x="927.5" y="-89.5" font-family="Helvetica,sans-Serif" font-size="10.00">view.editor.ElementAccordion</text>
<text text-anchor="start" x="927.5" y="-78.5" font-family="Helvetica,sans-Serif" font-size="10.00">Controller.openDrawableGameElement</text>
<text text-anchor="middle" x="1021" y="-67.5" font-family="Helvetica,sans-Serif" font-size="10.00">Wizard</text>
</a>
</g>
</g>
<!-- Node4&#45;&gt;Node5 -->
<g id="edge4" class="edge"><title>Node4&#45;&gt;Node5</title>
<path fill="none" stroke="midnightblue" d="M886.919,-80.4264C897.651,-80.4726 908.583,-80.5198 919.336,-80.5661"/>
<polygon fill="midnightblue" stroke="midnightblue" points="886.717,-76.9256 876.702,-80.3823 886.687,-83.9255 886.717,-76.9256"/>
</g>
<!-- Node6 -->
<g id="node6" class="node"><title>Node6</title>
<g id="a_node6"><a xlink:href="../../d9/dfb/classview_1_1editor_1_1_element_accordion_controller.html#af80453486ff349552dab988fb64397c0" target="_top" xlink:title="view.editor.ElementAccordion\lController.init">
<polygon fill="white" stroke="black" points="1162,-36 1162,-66 1318,-66 1318,-36 1162,-36"/>
<text text-anchor="start" x="1170" y="-54" font-family="Helvetica,sans-Serif" font-size="10.00">view.editor.ElementAccordion</text>
<text text-anchor="middle" x="1240" y="-43" font-family="Helvetica,sans-Serif" font-size="10.00">Controller.init</text>
</a>
</g>
</g>
<!-- Node5&#45;&gt;Node6 -->
<g id="edge5" class="edge"><title>Node5&#45;&gt;Node6</title>
<path fill="none" stroke="midnightblue" d="M1132.47,-65.7274C1142.39,-64.3564 1152.28,-62.9885 1161.82,-61.6694"/>
<polygon fill="midnightblue" stroke="midnightblue" points="1131.99,-62.2612 1122.56,-67.0978 1132.94,-69.1952 1131.99,-62.2612"/>
</g>
<!-- Node8 -->
<g id="node8" class="node"><title>Node8</title>
<g id="a_node8"><a xlink:href="../../de/d21/classmodel_1_1_main_model.html#a68bd2e83a07b0563f2100087fc429b22" target="_top" xlink:title="model.MainModel.createSelectable\lGameElementState">
<polygon fill="white" stroke="black" points="694.5,-7 694.5,-37 879.5,-37 879.5,-7 694.5,-7"/>
<text text-anchor="start" x="702.5" y="-25" font-family="Helvetica,sans-Serif" font-size="10.00">model.MainModel.createSelectable</text>
<text text-anchor="middle" x="787" y="-14" font-family="Helvetica,sans-Serif" font-size="10.00">GameElementState</text>
</a>
</g>
</g>
<!-- Node7&#45;&gt;Node8 -->
<g id="edge7" class="edge"><title>Node7&#45;&gt;Node8</title>
<path fill="none" stroke="midnightblue" d="M668.455,-24.5224C677.159,-24.3356 685.87,-24.1487 694.396,-23.9658"/>
<polygon fill="midnightblue" stroke="midnightblue" points="668.175,-21.0275 658.252,-24.7414 668.325,-28.0259 668.175,-21.0275"/>
</g>
<!-- Node9 -->
<g id="node9" class="node"><title>Node9</title>
<g id="a_node9"><a xlink:href="../../d9/dfb/classview_1_1editor_1_1_element_accordion_controller.html#a8564fdf017fa6f25e3e663cf076e0c04" target="_top" xlink:title="view.editor.ElementAccordion\lController.openSelectableGameElement\lWizard">
<polygon fill="white" stroke="black" points="916.5,-0.5 916.5,-41.5 1125.5,-41.5 1125.5,-0.5 916.5,-0.5"/>
<text text-anchor="start" x="924.5" y="-29.5" font-family="Helvetica,sans-Serif" font-size="10.00">view.editor.ElementAccordion</text>
<text text-anchor="start" x="924.5" y="-18.5" font-family="Helvetica,sans-Serif" font-size="10.00">Controller.openSelectableGameElement</text>
<text text-anchor="middle" x="1021" y="-7.5" font-family="Helvetica,sans-Serif" font-size="10.00">Wizard</text>
</a>
</g>
</g>
<!-- Node8&#45;&gt;Node9 -->
<g id="edge8" class="edge"><title>Node8&#45;&gt;Node9</title>
<path fill="none" stroke="midnightblue" d="M889.919,-21.5607C898.684,-21.5229 907.558,-21.4847 916.336,-21.4468"/>
<polygon fill="midnightblue" stroke="midnightblue" points="889.677,-18.0616 879.693,-21.6048 889.708,-25.0615 889.677,-18.0616"/>
</g>
<!-- Node9&#45;&gt;Node6 -->
<g id="edge9" class="edge"><title>Node9&#45;&gt;Node6</title>
<path fill="none" stroke="midnightblue" d="M1135.75,-36.7258C1144.62,-37.9515 1153.43,-39.1707 1161.97,-40.3505"/>
<polygon fill="midnightblue" stroke="midnightblue" points="1136.12,-33.2435 1125.73,-35.341 1135.16,-40.1776 1136.12,-33.2435"/>
</g>
</g>
</svg>
