<?xml version="1.0" encoding="UTF-8" standalone="no"?>
<!DOCTYPE svg PUBLIC "-//W3C//DTD SVG 1.1//EN"
 "http://www.w3.org/Graphics/SVG/1.1/DTD/svg11.dtd">
<!-- Generated by graphviz version 2.36.0 (20140111.2315)
 -->
<!-- Title: model.sprite.SpriteImageGenerator.loadSpriteImageContainers Pages: 1 -->
<svg width="1416pt" height="136pt"
 viewBox="0.00 0.00 1416.00 136.00" xmlns="http://www.w3.org/2000/svg" xmlns:xlink="http://www.w3.org/1999/xlink">
<g id="graph0" class="graph" transform="scale(1 1) rotate(0) translate(4 132)">
<title>model.sprite.SpriteImageGenerator.loadSpriteImageContainers</title>
<polygon fill="white" stroke="none" points="-4,4 -4,-132 1412,-132 1412,4 -4,4"/>
<!-- Node1 -->
<g id="node1" class="node"><title>Node1</title>
<polygon fill="#bfbfbf" stroke="black" points="0,-49 0,-79 198,-79 198,-49 0,-49"/>
<text text-anchor="start" x="8" y="-67" font-family="Helvetica,sans-Serif" font-size="10.00">model.sprite.SpriteImage</text>
<text text-anchor="middle" x="99" y="-56" font-family="Helvetica,sans-Serif" font-size="10.00">Generator.loadSpriteImageContainers</text>
</g>
<!-- Node2 -->
<g id="node2" class="node"><title>Node2</title>
<g id="a_node2"><a xlink:href="../../de/d33/classmodel_1_1_game_save_load_mediator.html#a826a98c89d42cfd8abb16dd31dfa919a" target="_top" xlink:title="model.GameSaveLoadMediator.load\lSpritesAndMasks">
<polygon fill="white" stroke="black" points="234.5,-49 234.5,-79 425.5,-79 425.5,-49 234.5,-49"/>
<text text-anchor="start" x="242.5" y="-67" font-family="Helvetica,sans-Serif" font-size="10.00">model.GameSaveLoadMediator.load</text>
<text text-anchor="middle" x="330" y="-56" font-family="Helvetica,sans-Serif" font-size="10.00">SpritesAndMasks</text>
</a>
</g>
</g>
<!-- Node1&#45;&gt;Node2 -->
<g id="edge1" class="edge"><title>Node1&#45;&gt;Node2</title>
<path fill="none" stroke="midnightblue" d="M208.3,-64C217.006,-64 225.761,-64 234.361,-64"/>
<polygon fill="midnightblue" stroke="midnightblue" points="208.113,-60.5001 198.113,-64 208.113,-67.5001 208.113,-60.5001"/>
</g>
<!-- Node3 -->
<g id="node3" class="node"><title>Node3</title>
<g id="a_node3"><a xlink:href="../../de/d21/classmodel_1_1_main_model.html#a82c8d6e91e52b19dfe6a7f5a7f81d600" target="_top" xlink:title="model.MainModel.updateSprites\lAndMasks">
<polygon fill="white" stroke="black" points="462.5,-49 462.5,-79 633.5,-79 633.5,-49 462.5,-49"/>
<text text-anchor="start" x="470.5" y="-67" font-family="Helvetica,sans-Serif" font-size="10.00">model.MainModel.updateSprites</text>
<text text-anchor="middle" x="548" y="-56" font-family="Helvetica,sans-Serif" font-size="10.00">AndMasks</text>
</a>
</g>
</g>
<!-- Node2&#45;&gt;Node3 -->
<g id="edge2" class="edge"><title>Node2&#45;&gt;Node3</title>
<path fill="none" stroke="midnightblue" d="M436.014,-64C444.788,-64 453.588,-64 462.182,-64"/>
<polygon fill="midnightblue" stroke="midnightblue" points="435.741,-60.5001 425.741,-64 435.741,-67.5001 435.741,-60.5001"/>
</g>
<!-- Node4 -->
<g id="node4" class="node"><title>Node4</title>
<g id="a_node4"><a xlink:href="../../de/d21/classmodel_1_1_main_model.html#a1a794fbf99be0146fb0a50681091ad7d" target="_top" xlink:title="model.MainModel.loadGame">
<polygon fill="white" stroke="black" points="670.5,-54.5 670.5,-73.5 823.5,-73.5 823.5,-54.5 670.5,-54.5"/>
<text text-anchor="middle" x="747" y="-61.5" font-family="Helvetica,sans-Serif" font-size="10.00">model.MainModel.loadGame</text>
</a>
</g>
</g>
<!-- Node3&#45;&gt;Node4 -->
<g id="edge3" class="edge"><title>Node3&#45;&gt;Node4</title>
<path fill="none" stroke="midnightblue" d="M643.747,-64C652.685,-64 661.664,-64 670.389,-64"/>
<polygon fill="midnightblue" stroke="midnightblue" points="643.689,-60.5001 633.689,-64 643.689,-67.5001 643.689,-60.5001"/>
</g>
<!-- Node5 -->
<g id="node5" class="node"><title>Node5</title>
<g id="a_node5"><a xlink:href="../../d0/daf/classapplication_1_1_r_p_g.html#a57d0a7b674624b53b138a951b30f865d" target="_top" xlink:title="application.RPG.hardCode\lAGame">
<polygon fill="white" stroke="black" points="871,-98 871,-128 1011,-128 1011,-98 871,-98"/>
<text text-anchor="start" x="879" y="-116" font-family="Helvetica,sans-Serif" font-size="10.00">application.RPG.hardCode</text>
<text text-anchor="middle" x="941" y="-105" font-family="Helvetica,sans-Serif" font-size="10.00">AGame</text>
</a>
</g>
</g>
<!-- Node4&#45;&gt;Node5 -->
<g id="edge4" class="edge"><title>Node4&#45;&gt;Node5</title>
<path fill="none" stroke="midnightblue" d="M795.419,-76.1018C821.305,-82.708 853.589,-90.9471 881.08,-97.963"/>
<polygon fill="midnightblue" stroke="midnightblue" points="796.03,-72.6456 785.475,-73.564 794.299,-79.4282 796.03,-72.6456"/>
</g>
<!-- Node7 -->
<g id="node7" class="node"><title>Node7</title>
<g id="a_node7"><a xlink:href="../../d6/d00/classapplication_1_1_pong.html#a0125f26aebd7e1cc9e3fae602e3997f8" target="_top" xlink:title="application.Pong.hardCode\lAGame">
<polygon fill="white" stroke="black" points="868.5,-49 868.5,-79 1013.5,-79 1013.5,-49 868.5,-49"/>
<text text-anchor="start" x="876.5" y="-67" font-family="Helvetica,sans-Serif" font-size="10.00">application.Pong.hardCode</text>
<text text-anchor="middle" x="941" y="-56" font-family="Helvetica,sans-Serif" font-size="10.00">AGame</text>
</a>
</g>
</g>
<!-- Node4&#45;&gt;Node7 -->
<g id="edge6" class="edge"><title>Node4&#45;&gt;Node7</title>
<path fill="none" stroke="midnightblue" d="M833.679,-64C845.218,-64 856.958,-64 868.223,-64"/>
<polygon fill="midnightblue" stroke="midnightblue" points="833.608,-60.5001 823.608,-64 833.608,-67.5001 833.608,-60.5001"/>
</g>
<!-- Node9 -->
<g id="node9" class="node"><title>Node9</title>
<g id="a_node9"><a xlink:href="../../d0/d3f/classview_1_1splash_1_1_splash_screen.html#a7e50ce5a292e35b972ae31ec4df4f5ca" target="_top" xlink:title="view.splash.SplashScreen.load\lGameAndSwitchScreen">
<polygon fill="white" stroke="black" points="860,-0 860,-30 1022,-30 1022,-0 860,-0"/>
<text text-anchor="start" x="868" y="-18" font-family="Helvetica,sans-Serif" font-size="10.00">view.splash.SplashScreen.load</text>
<text text-anchor="middle" x="941" y="-7" font-family="Helvetica,sans-Serif" font-size="10.00">GameAndSwitchScreen</text>
</a>
</g>
</g>
<!-- Node4&#45;&gt;Node9 -->
<g id="edge8" class="edge"><title>Node4&#45;&gt;Node9</title>
<path fill="none" stroke="midnightblue" d="M795.419,-51.8982C821.305,-45.292 853.589,-37.0529 881.08,-30.037"/>
<polygon fill="midnightblue" stroke="midnightblue" points="794.299,-48.5718 785.475,-54.436 796.03,-55.3544 794.299,-48.5718"/>
</g>
<!-- Node6 -->
<g id="node6" class="node"><title>Node6</title>
<g id="a_node6"><a xlink:href="../../d0/daf/classapplication_1_1_r_p_g.html#a6b8f1624ae2607c67f4e8cda49b544e9" target="_top" xlink:title="application.RPG.start">
<polygon fill="white" stroke="black" points="1079,-103.5 1079,-122.5 1195,-122.5 1195,-103.5 1079,-103.5"/>
<text text-anchor="middle" x="1137" y="-110.5" font-family="Helvetica,sans-Serif" font-size="10.00">application.RPG.start</text>
</a>
</g>
</g>
<!-- Node5&#45;&gt;Node6 -->
<g id="edge5" class="edge"><title>Node5&#45;&gt;Node6</title>
<path fill="none" stroke="midnightblue" d="M1021.23,-113C1040.57,-113 1060.88,-113 1078.96,-113"/>
<polygon fill="midnightblue" stroke="midnightblue" points="1021.22,-109.5 1011.22,-113 1021.22,-116.5 1021.22,-109.5"/>
</g>
<!-- Node8 -->
<g id="node8" class="node"><title>Node8</title>
<g id="a_node8"><a xlink:href="../../d6/d00/classapplication_1_1_pong.html#aacfcba740564585303fb8097744d21a5" target="_top" xlink:title="application.Pong.start">
<polygon fill="white" stroke="black" points="1076.5,-54.5 1076.5,-73.5 1197.5,-73.5 1197.5,-54.5 1076.5,-54.5"/>
<text text-anchor="middle" x="1137" y="-61.5" font-family="Helvetica,sans-Serif" font-size="10.00">application.Pong.start</text>
</a>
</g>
</g>
<!-- Node7&#45;&gt;Node8 -->
<g id="edge7" class="edge"><title>Node7&#45;&gt;Node8</title>
<path fill="none" stroke="midnightblue" d="M1023.95,-64C1041.54,-64 1059.81,-64 1076.36,-64"/>
<polygon fill="midnightblue" stroke="midnightblue" points="1023.69,-60.5001 1013.69,-64 1023.69,-67.5001 1023.69,-60.5001"/>
</g>
<!-- Node10 -->
<g id="node10" class="node"><title>Node10</title>
<g id="a_node10"><a xlink:href="../../d0/d3f/classview_1_1splash_1_1_splash_screen.html#a6425dffd80436213cce943fc3aa27563" target="_top" xlink:title="view.splash.SplashScreen.set\lUpButtons">
<polygon fill="white" stroke="black" points="1058.5,-0 1058.5,-30 1215.5,-30 1215.5,-0 1058.5,-0"/>
<text text-anchor="start" x="1066.5" y="-18" font-family="Helvetica,sans-Serif" font-size="10.00">view.splash.SplashScreen.set</text>
<text text-anchor="middle" x="1137" y="-7" font-family="Helvetica,sans-Serif" font-size="10.00">UpButtons</text>
</a>
</g>
</g>
<!-- Node9&#45;&gt;Node10 -->
<g id="edge9" class="edge"><title>Node9&#45;&gt;Node10</title>
<path fill="none" stroke="midnightblue" d="M1032.22,-15C1040.95,-15 1049.75,-15 1058.34,-15"/>
<polygon fill="midnightblue" stroke="midnightblue" points="1032.03,-11.5001 1022.03,-15 1032.03,-18.5001 1032.03,-11.5001"/>
</g>
<!-- Node11 -->
<g id="node11" class="node"><title>Node11</title>
<g id="a_node11"><a xlink:href="../../d0/d3f/classview_1_1splash_1_1_splash_screen.html#af2da20a5479f92e4669ae93f0d6121de" target="_top" xlink:title="view.splash.SplashScreen.init">
<polygon fill="white" stroke="black" points="1252,-5.5 1252,-24.5 1408,-24.5 1408,-5.5 1252,-5.5"/>
<text text-anchor="middle" x="1330" y="-12.5" font-family="Helvetica,sans-Serif" font-size="10.00">view.splash.SplashScreen.init</text>
</a>
</g>
</g>
<!-- Node10&#45;&gt;Node11 -->
<g id="edge10" class="edge"><title>Node10&#45;&gt;Node11</title>
<path fill="none" stroke="midnightblue" d="M1225.78,-15C1234.43,-15 1243.16,-15 1251.69,-15"/>
<polygon fill="midnightblue" stroke="midnightblue" points="1225.69,-11.5001 1215.69,-15 1225.69,-18.5001 1225.69,-11.5001"/>
</g>
</g>
</svg>
