<?xml version="1.0" encoding="UTF-8" standalone="no"?>
<!DOCTYPE svg PUBLIC "-//W3C//DTD SVG 1.1//EN"
 "http://www.w3.org/Graphics/SVG/1.1/DTD/svg11.dtd">
<!-- Generated by graphviz version 2.36.0 (20140111.2315)
 -->
<!-- Title: gamemodel.GameElementStateFactory.createDrawableGameElementState Pages: 1 -->
<!--zoomable 266 -->
<svg id="main" version="1.1" xmlns="http://www.w3.org/2000/svg" xmlns:xlink="http://www.w3.org/1999/xlink" xml:space="preserve" onload="init(evt)">
<style type="text/css"><![CDATA[
.edge:hover path { stroke: red; }
.edge:hover polygon { stroke: red; fill: red; }
]]></style>
<script type="text/javascript"><![CDATA[
var edges = document.getElementsByTagName('g');
if (edges && edges.length) {
  for (var i=0;i<edges.length;i++) {
    if (edges[i].id.substr(0,4)=='edge') {
      edges[i].setAttribute('class','edge');
    }
  }
}
]]></script>
        <defs>
                <circle id="rim" cx="0" cy="0" r="7"/>
                <circle id="rim2" cx="0" cy="0" r="3.5"/>
                <g id="zoomPlus">
                        <use xlink:href="#rim" fill="#404040">
                                <set attributeName="fill" to="#808080" begin="zoomplus.mouseover" end="zoomplus.mouseout"/>
                        </use>
                        <path d="M-4,0h8M0,-4v8" fill="none" stroke="white" stroke-width="1.5" pointer-events="none"/>
                </g>
                <g id="zoomMin">
                        <use xlink:href="#rim" fill="#404040">
                                <set attributeName="fill" to="#808080" begin="zoomminus.mouseover" end="zoomminus.mouseout"/>
                        </use>
                        <path d="M-4,0h8" fill="none" stroke="white" stroke-width="1.5" pointer-events="none"/>
                </g>
                <g id="dirArrow">
                        <path fill="none" stroke="white" stroke-width="1.5" d="M0,-3.0v7 M-2.5,-0.5L0,-3.0L2.5,-0.5"/>
                </g>
               <g id="resetDef">
                       <use xlink:href="#rim2" fill="#404040">
                               <set attributeName="fill" to="#808080" begin="reset.mouseover" end="reset.mouseout"/>
                       </use>
               </g>
        </defs>

<script type="text/javascript">
var viewWidth = 1040;
var viewHeight = 266;
var sectionId = 'dynsection-2';
</script>
<script xlink:href="../../svgpan.js"/>
<svg id="graph" class="graph">
<g id="viewport">
<title>gamemodel.GameElementStateFactory.createDrawableGameElementState</title>
<polygon fill="white" stroke="none" points="-4,4 -4,-262 1036,-262 1036,4 -4,4"/>
<!-- Node1 -->
<g id="node1" class="node"><title>Node1</title>
<polygon fill="#bfbfbf" stroke="black" points="0.5,-120 0.5,-150 223.5,-150 223.5,-120 0.5,-120"/>
<text text-anchor="start" x="8.5" y="-138" font-family="Helvetica,sans-Serif" font-size="10.00">gamemodel.GameElementState</text>
<text text-anchor="middle" x="112" y="-127" font-family="Helvetica,sans-Serif" font-size="10.00">Factory.createDrawableGameElementState</text>
</g>
<!-- Node2 -->
<g id="node2" class="node"><title>Node2</title>
<g id="a_node2"><a xlink:href="../../db/dca/classgamemodel_1_1_game_element_state_factory.html#acf405e34a91de5c2e41557ac7dcc6a0f" target="_top" xlink:title="gamemodel.GameElementState\lFactory.addEssentials">
<polygon fill="white" stroke="black" points="291.5,-147 291.5,-177 464.5,-177 464.5,-147 291.5,-147"/>
<text text-anchor="start" x="299.5" y="-165" font-family="Helvetica,sans-Serif" font-size="10.00">gamemodel.GameElementState</text>
<text text-anchor="middle" x="378" y="-154" font-family="Helvetica,sans-Serif" font-size="10.00">Factory.addEssentials</text>
</a>
</g>
</g>
<!-- Node1&#45;&gt;Node2 -->
<g id="edge1" class="edge"><title>Node1&#45;&gt;Node2</title>
<path fill="none" stroke="midnightblue" d="M223.812,-146.333C242.95,-148.29 262.697,-150.31 281.389,-152.222"/>
<polygon fill="midnightblue" stroke="midnightblue" points="281.051,-155.705 291.355,-153.241 281.763,-148.742 281.051,-155.705"/>
</g>
<!-- Node4 -->
<g id="node4" class="node"><title>Node4</title>
<g id="a_node4"><a xlink:href="../../dc/d23/classeditor_1_1wizards_1_1_wizard_data.html#a1844ff95a1b35b150c25bc4d74d33578" target="_top" xlink:title="editor.wizards.WizardData.get\lValueByKey">
<polygon fill="white" stroke="black" points="569,-228 569,-258 727,-258 727,-228 569,-228"/>
<text text-anchor="start" x="577" y="-246" font-family="Helvetica,sans-Serif" font-size="10.00">editor.wizards.WizardData.get</text>
<text text-anchor="middle" x="648" y="-235" font-family="Helvetica,sans-Serif" font-size="10.00">ValueByKey</text>
</a>
</g>
</g>
<!-- Node1&#45;&gt;Node4 -->
<g id="edge9" class="edge"><title>Node1&#45;&gt;Node4</title>
<path fill="none" stroke="midnightblue" d="M150.182,-150.079C179.557,-161.457 221.823,-176.654 260,-186 360.85,-210.689 479.27,-226.219 558.305,-234.724"/>
<polygon fill="midnightblue" stroke="midnightblue" points="558.394,-238.252 568.707,-235.827 559.132,-231.292 558.394,-238.252"/>
</g>
<!-- Node9 -->
<g id="node9" class="node"><title>Node9</title>
<g id="a_node9"><a xlink:href="../../db/d72/classgame__engine_1_1game_representation_1_1state_representation_1_1game_element_1_1_drawable_game_element_state.html#addb18d04c2877e12d84fbe9a9e08837e" target="_top" xlink:title="game_engine.gameRepresentation.state\lRepresentation.gameElement.DrawableGame\lElementState.setBounds">
<polygon fill="white" stroke="black" points="260,-87.5 260,-128.5 496,-128.5 496,-87.5 260,-87.5"/>
<text text-anchor="start" x="268" y="-116.5" font-family="Helvetica,sans-Serif" font-size="10.00">game_engine.gameRepresentation.state</text>
<text text-anchor="start" x="268" y="-105.5" font-family="Helvetica,sans-Serif" font-size="10.00">Representation.gameElement.DrawableGame</text>
<text text-anchor="middle" x="378" y="-94.5" font-family="Helvetica,sans-Serif" font-size="10.00">ElementState.setBounds</text>
</a>
</g>
</g>
<!-- Node1&#45;&gt;Node9 -->
<g id="edge10" class="edge"><title>Node1&#45;&gt;Node9</title>
<path fill="none" stroke="midnightblue" d="M223.812,-123.667C232.332,-122.796 240.972,-121.912 249.586,-121.031"/>
<polygon fill="midnightblue" stroke="midnightblue" points="250.085,-124.498 259.677,-119.999 249.373,-117.535 250.085,-124.498"/>
</g>
<!-- Node10 -->
<g id="node10" class="node"><title>Node10</title>
<g id="a_node10"><a xlink:href="../../db/d72/classgame__engine_1_1game_representation_1_1state_representation_1_1game_element_1_1_drawable_game_element_state.html#aee8bfec62e290495514e4a54b9072757" target="_top" xlink:title="game_engine.gameRepresentation.state\lRepresentation.gameElement.DrawableGame\lElementState.setSpritesheet">
<polygon fill="white" stroke="black" points="260,-27.5 260,-68.5 496,-68.5 496,-27.5 260,-27.5"/>
<text text-anchor="start" x="268" y="-56.5" font-family="Helvetica,sans-Serif" font-size="10.00">game_engine.gameRepresentation.state</text>
<text text-anchor="start" x="268" y="-45.5" font-family="Helvetica,sans-Serif" font-size="10.00">Representation.gameElement.DrawableGame</text>
<text text-anchor="middle" x="378" y="-34.5" font-family="Helvetica,sans-Serif" font-size="10.00">ElementState.setSpritesheet</text>
</a>
</g>
</g>
<!-- Node1&#45;&gt;Node10 -->
<g id="edge11" class="edge"><title>Node1&#45;&gt;Node10</title>
<path fill="none" stroke="midnightblue" d="M148.221,-119.981C177.739,-107.725 221.165,-90.4594 260,-78 267.23,-75.6803 274.756,-73.4166 282.349,-71.2395"/>
<polygon fill="midnightblue" stroke="midnightblue" points="283.306,-74.6062 291.986,-68.5304 281.412,-67.8675 283.306,-74.6062"/>
</g>
<!-- Node3 -->
<g id="node3" class="node"><title>Node3</title>
<g id="a_node3"><a xlink:href="../../dc/d2d/classgame__engine_1_1game_representation_1_1state_representation_1_1game_element_1_1_game_element_state.html#a28dcf503bb7ba9dbadf61dbec9ee5e57" target="_top" xlink:title="game_engine.gameRepresentation.state\lRepresentation.gameElement.GameElement\lState.addAction">
<polygon fill="white" stroke="black" points="532.5,-168.5 532.5,-209.5 763.5,-209.5 763.5,-168.5 532.5,-168.5"/>
<text text-anchor="start" x="540.5" y="-197.5" font-family="Helvetica,sans-Serif" font-size="10.00">game_engine.gameRepresentation.state</text>
<text text-anchor="start" x="540.5" y="-186.5" font-family="Helvetica,sans-Serif" font-size="10.00">Representation.gameElement.GameElement</text>
<text text-anchor="middle" x="648" y="-175.5" font-family="Helvetica,sans-Serif" font-size="10.00">State.addAction</text>
</a>
</g>
</g>
<!-- Node2&#45;&gt;Node3 -->
<g id="edge2" class="edge"><title>Node2&#45;&gt;Node3</title>
<path fill="none" stroke="midnightblue" d="M464.534,-170.617C482.927,-172.47 502.728,-174.465 522.266,-176.433"/>
<polygon fill="midnightblue" stroke="midnightblue" points="522.149,-179.939 532.45,-177.459 522.851,-172.975 522.149,-179.939"/>
</g>
<!-- Node2&#45;&gt;Node4 -->
<g id="edge3" class="edge"><title>Node2&#45;&gt;Node4</title>
<path fill="none" stroke="midnightblue" d="M415.63,-177.015C446.335,-189.21 491.524,-206.253 532,-218 541.345,-220.712 551.193,-223.28 561.033,-225.664"/>
<polygon fill="midnightblue" stroke="midnightblue" points="560.316,-229.091 570.852,-227.986 561.926,-222.279 560.316,-229.091"/>
</g>
<!-- Node5 -->
<g id="node5" class="node"><title>Node5</title>
<g id="a_node5"><a xlink:href="../../dc/d23/classeditor_1_1wizards_1_1_wizard_data.html#a5d032318071e955a952e4cc73bf35751" target="_top" xlink:title="editor.wizards.WizardData.get\lWizardDataByType">
<polygon fill="white" stroke="black" points="569,-120 569,-150 727,-150 727,-120 569,-120"/>
<text text-anchor="start" x="577" y="-138" font-family="Helvetica,sans-Serif" font-size="10.00">editor.wizards.WizardData.get</text>
<text text-anchor="middle" x="648" y="-127" font-family="Helvetica,sans-Serif" font-size="10.00">WizardDataByType</text>
</a>
</g>
</g>
<!-- Node2&#45;&gt;Node5 -->
<g id="edge4" class="edge"><title>Node2&#45;&gt;Node5</title>
<path fill="none" stroke="midnightblue" d="M464.534,-153.383C494.537,-150.36 528.287,-146.96 558.526,-143.913"/>
<polygon fill="midnightblue" stroke="midnightblue" points="559.037,-147.38 568.636,-142.895 558.336,-140.415 559.037,-147.38"/>
</g>
<!-- Node6 -->
<g id="node6" class="node"><title>Node6</title>
<g id="a_node6"><a xlink:href="../../dc/d2d/classgame__engine_1_1game_representation_1_1state_representation_1_1game_element_1_1_game_element_state.html#af2c070dd27e2d8a3c515ef55a317aa38" target="_top" xlink:title="game_engine.gameRepresentation.state\lRepresentation.gameElement.GameElement\lState.setNumericalAttribute">
<polygon fill="white" stroke="black" points="532.5,-60.5 532.5,-101.5 763.5,-101.5 763.5,-60.5 532.5,-60.5"/>
<text text-anchor="start" x="540.5" y="-89.5" font-family="Helvetica,sans-Serif" font-size="10.00">game_engine.gameRepresentation.state</text>
<text text-anchor="start" x="540.5" y="-78.5" font-family="Helvetica,sans-Serif" font-size="10.00">Representation.gameElement.GameElement</text>
<text text-anchor="middle" x="648" y="-67.5" font-family="Helvetica,sans-Serif" font-size="10.00">State.setNumericalAttribute</text>
</a>
</g>
</g>
<!-- Node2&#45;&gt;Node6 -->
<g id="edge5" class="edge"><title>Node2&#45;&gt;Node6</title>
<path fill="none" stroke="midnightblue" d="M464.75,-148.197C475.504,-145.161 486.169,-141.473 496,-137 514.204,-128.717 513.95,-118.614 532,-110 535.557,-108.303 539.225,-106.697 542.967,-105.179"/>
<polygon fill="midnightblue" stroke="midnightblue" points="544.304,-108.415 552.402,-101.583 541.811,-101.874 544.304,-108.415"/>
</g>
<!-- Node8 -->
<g id="node8" class="node"><title>Node8</title>
<g id="a_node8"><a xlink:href="../../dc/d2d/classgame__engine_1_1game_representation_1_1state_representation_1_1game_element_1_1_game_element_state.html#a6053376d69396e84a45bcfe2cd44ce1a" target="_top" xlink:title="game_engine.gameRepresentation.state\lRepresentation.gameElement.GameElement\lState.setTextualAttribute">
<polygon fill="white" stroke="black" points="532.5,-0.5 532.5,-41.5 763.5,-41.5 763.5,-0.5 532.5,-0.5"/>
<text text-anchor="start" x="540.5" y="-29.5" font-family="Helvetica,sans-Serif" font-size="10.00">game_engine.gameRepresentation.state</text>
<text text-anchor="start" x="540.5" y="-18.5" font-family="Helvetica,sans-Serif" font-size="10.00">Representation.gameElement.GameElement</text>
<text text-anchor="middle" x="648" y="-7.5" font-family="Helvetica,sans-Serif" font-size="10.00">State.setTextualAttribute</text>
</a>
</g>
</g>
<!-- Node2&#45;&gt;Node8 -->
<g id="edge7" class="edge"><title>Node2&#45;&gt;Node8</title>
<path fill="none" stroke="midnightblue" d="M464.662,-153.868C476.032,-149.99 486.887,-144.558 496,-137 527.893,-110.547 500.706,-78.1589 532,-51 533.519,-49.6814 535.09,-48.4197 536.705,-47.2126"/>
<polygon fill="midnightblue" stroke="midnightblue" points="538.734,-50.0668 545.129,-41.6197 534.862,-44.2351 538.734,-50.0668"/>
</g>
<!-- Node7 -->
<g id="node7" class="node"><title>Node7</title>
<g id="a_node7"><a xlink:href="../../dc/d2d/classgame__engine_1_1game_representation_1_1state_representation_1_1game_element_1_1_game_element_state.html#a1544cb353263227e008ae84f12deda9a" target="_top" xlink:title="game_engine.gameRepresentation.state\lRepresentation.gameElement.GameElement\lState.addAttribute">
<polygon fill="white" stroke="black" points="800.5,-30.5 800.5,-71.5 1031.5,-71.5 1031.5,-30.5 800.5,-30.5"/>
<text text-anchor="start" x="808.5" y="-59.5" font-family="Helvetica,sans-Serif" font-size="10.00">game_engine.gameRepresentation.state</text>
<text text-anchor="start" x="808.5" y="-48.5" font-family="Helvetica,sans-Serif" font-size="10.00">Representation.gameElement.GameElement</text>
<text text-anchor="middle" x="916" y="-37.5" font-family="Helvetica,sans-Serif" font-size="10.00">State.addAttribute</text>
</a>
</g>
</g>
<!-- Node6&#45;&gt;Node7 -->
<g id="edge6" class="edge"><title>Node6&#45;&gt;Node7</title>
<path fill="none" stroke="midnightblue" d="M763.738,-68.0596C772.524,-67.0687 781.418,-66.0656 790.264,-65.068"/>
<polygon fill="midnightblue" stroke="midnightblue" points="790.677,-68.5437 800.221,-63.945 789.892,-61.5878 790.677,-68.5437"/>
</g>
<!-- Node8&#45;&gt;Node7 -->
<g id="edge8" class="edge"><title>Node8&#45;&gt;Node7</title>
<path fill="none" stroke="midnightblue" d="M763.738,-33.9404C772.524,-34.9313 781.418,-35.9344 790.264,-36.932"/>
<polygon fill="midnightblue" stroke="midnightblue" points="789.892,-40.4122 800.221,-38.055 790.677,-33.4563 789.892,-40.4122"/>
</g>
</g>
</svg>
        <g id="navigator" transform="translate(0 0)" fill="#404254">
                <rect fill="#f2f5e9" fill-opacity="0.5" stroke="#606060" stroke-width=".5" x="0" y="0" width="60" height="60"/>
                <use id="zoomplus" xlink:href="#zoomPlus" x="17" y="9" onmousedown="handleZoom(evt,'in')"/>
                <use id="zoomminus" xlink:href="#zoomMin" x="42" y="9" onmousedown="handleZoom(evt,'out')"/>
                <use id="reset" xlink:href="#resetDef" x="30" y="36" onmousedown="handleReset()"/>
                <g id="arrowUp" xlink:href="#dirArrow" transform="translate(30 24)" onmousedown="handlePan(0,-1)">
                  <use xlink:href="#rim" fill="#404040">
                        <set attributeName="fill" to="#808080" begin="arrowUp.mouseover" end="arrowUp.mouseout"/>
                  </use>
                  <path fill="none" stroke="white" stroke-width="1.5" d="M0,-3.0v7 M-2.5,-0.5L0,-3.0L2.5,-0.5"/>
                </g>
                <g id="arrowRight" xlink:href="#dirArrow" transform="rotate(90) translate(36 -43)" onmousedown="handlePan(1,0)">
                  <use xlink:href="#rim" fill="#404040">
                        <set attributeName="fill" to="#808080" begin="arrowRight.mouseover" end="arrowRight.mouseout"/>
                  </use>
                  <path fill="none" stroke="white" stroke-width="1.5" d="M0,-3.0v7 M-2.5,-0.5L0,-3.0L2.5,-0.5"/>
                </g>
                <g id="arrowDown" xlink:href="#dirArrow" transform="rotate(180) translate(-30 -48)" onmousedown="handlePan(0,1)">
                  <use xlink:href="#rim" fill="#404040">
                        <set attributeName="fill" to="#808080" begin="arrowDown.mouseover" end="arrowDown.mouseout"/>
                  </use>
                  <path fill="none" stroke="white" stroke-width="1.5" d="M0,-3.0v7 M-2.5,-0.5L0,-3.0L2.5,-0.5"/>
                </g>
                <g id="arrowLeft" xlink:href="#dirArrow" transform="rotate(270) translate(-36 17)" onmousedown="handlePan(-1,0)">
                  <use xlink:href="#rim" fill="#404040">
                        <set attributeName="fill" to="#808080" begin="arrowLeft.mouseover" end="arrowLeft.mouseout"/>
                  </use>
                  <path fill="none" stroke="white" stroke-width="1.5" d="M0,-3.0v7 M-2.5,-0.5L0,-3.0L2.5,-0.5"/>
                </g>
        </g>
        <svg viewBox="0 0 15 15" width="100%" height="30px" preserveAspectRatio="xMaxYMin meet">
         <g id="arrow_out" transform="scale(0.3 0.3)">
          <a xlink:href="classgamemodel_1_1_game_element_state_factory_a1db4caf21f42b50ff0cb9babe997bafb_cgraph_org.svg" target="_base">
           <rect id="button" ry="5" rx="5" y="6" x="6" height="38" width="38"
                fill="#f2f5e9" fill-opacity="0.5" stroke="#606060" stroke-width="1.0"/>
           <path id="arrow"
             d="M 11.500037,31.436501 C 11.940474,20.09759 22.043105,11.32322 32.158766,21.979434 L 37.068811,17.246167 C 37.068811,17.246167 37.088388,32 37.088388,32 L 22.160133,31.978069 C 22.160133,31.978069 26.997745,27.140456 26.997745,27.140456 C 18.528582,18.264221 13.291696,25.230495 11.500037,31.436501 z"
             style="fill:#404040;"/>
          </a>
         </g>
        </svg>
</svg>
