<?xml version="1.0" encoding="UTF-8" standalone="no"?>
<!DOCTYPE svg PUBLIC "-//W3C//DTD SVG 1.1//EN"
 "http://www.w3.org/Graphics/SVG/1.1/DTD/svg11.dtd">
<!-- Generated by graphviz version 2.36.0 (20140111.2315)
 -->
<!-- Title: gamemodel.GameElementStateFactory.createGameElementState Pages: 1 -->
<svg width="934pt" height="266pt"
 viewBox="0.00 0.00 934.00 266.00" xmlns="http://www.w3.org/2000/svg" xmlns:xlink="http://www.w3.org/1999/xlink">
<g id="graph0" class="graph" transform="scale(1 1) rotate(0) translate(4 262)">
<title>gamemodel.GameElementStateFactory.createGameElementState</title>
<polygon fill="white" stroke="none" points="-4,4 -4,-262 930,-262 930,4 -4,4"/>
<!-- Node1 -->
<g id="node1" class="node"><title>Node1</title>
<polygon fill="#bfbfbf" stroke="black" points="0.5,-119 0.5,-149 179.5,-149 179.5,-119 0.5,-119"/>
<text text-anchor="start" x="8.5" y="-137" font-family="Helvetica,sans-Serif" font-size="10.00">gamemodel.GameElementState</text>
<text text-anchor="middle" x="90" y="-126" font-family="Helvetica,sans-Serif" font-size="10.00">Factory.createGameElementState</text>
</g>
<!-- Node2 -->
<g id="node2" class="node"><title>Node2</title>
<g id="a_node2"><a xlink:href="../../db/dca/classgamemodel_1_1_game_element_state_factory.html#acf405e34a91de5c2e41557ac7dcc6a0f" target="_top" xlink:title="gamemodel.GameElementState\lFactory.addEssentials">
<polygon fill="white" stroke="black" points="216.5,-119 216.5,-149 389.5,-149 389.5,-119 216.5,-119"/>
<text text-anchor="start" x="224.5" y="-137" font-family="Helvetica,sans-Serif" font-size="10.00">gamemodel.GameElementState</text>
<text text-anchor="middle" x="303" y="-126" font-family="Helvetica,sans-Serif" font-size="10.00">Factory.addEssentials</text>
</a>
</g>
</g>
<!-- Node1&#45;&gt;Node2 -->
<g id="edge1" class="edge"><title>Node1&#45;&gt;Node2</title>
<path fill="none" stroke="midnightblue" d="M179.566,-134C188.415,-134 197.428,-134 206.346,-134"/>
<polygon fill="midnightblue" stroke="midnightblue" points="206.361,-137.5 216.361,-134 206.361,-130.5 206.361,-137.5"/>
</g>
<!-- Node3 -->
<g id="node3" class="node"><title>Node3</title>
<g id="a_node3"><a xlink:href="../../dc/d2d/classgame__engine_1_1game_representation_1_1state_representation_1_1game_element_1_1_game_element_state.html#a28dcf503bb7ba9dbadf61dbec9ee5e57" target="_top" xlink:title="game_engine.gameRepresentation.state\lRepresentation.gameElement.GameElement\lState.addAction">
<polygon fill="white" stroke="black" points="426.5,-216.5 426.5,-257.5 657.5,-257.5 657.5,-216.5 426.5,-216.5"/>
<text text-anchor="start" x="434.5" y="-245.5" font-family="Helvetica,sans-Serif" font-size="10.00">game_engine.gameRepresentation.state</text>
<text text-anchor="start" x="434.5" y="-234.5" font-family="Helvetica,sans-Serif" font-size="10.00">Representation.gameElement.GameElement</text>
<text text-anchor="middle" x="542" y="-223.5" font-family="Helvetica,sans-Serif" font-size="10.00">State.addAction</text>
</a>
</g>
</g>
<!-- Node2&#45;&gt;Node3 -->
<g id="edge2" class="edge"><title>Node2&#45;&gt;Node3</title>
<path fill="none" stroke="midnightblue" d="M325.051,-149.143C348.619,-165.474 388.444,-191.246 426,-207 431.302,-209.224 436.813,-211.32 442.424,-213.288"/>
<polygon fill="midnightblue" stroke="midnightblue" points="441.348,-216.619 451.942,-216.481 443.574,-209.982 441.348,-216.619"/>
</g>
<!-- Node4 -->
<g id="node4" class="node"><title>Node4</title>
<g id="a_node4"><a xlink:href="../../dc/d23/classeditor_1_1wizards_1_1_wizard_data.html#a1844ff95a1b35b150c25bc4d74d33578" target="_top" xlink:title="editor.wizards.WizardData.get\lValueByKey">
<polygon fill="white" stroke="black" points="463,-168 463,-198 621,-198 621,-168 463,-168"/>
<text text-anchor="start" x="471" y="-186" font-family="Helvetica,sans-Serif" font-size="10.00">editor.wizards.WizardData.get</text>
<text text-anchor="middle" x="542" y="-175" font-family="Helvetica,sans-Serif" font-size="10.00">ValueByKey</text>
</a>
</g>
</g>
<!-- Node2&#45;&gt;Node4 -->
<g id="edge3" class="edge"><title>Node2&#45;&gt;Node4</title>
<path fill="none" stroke="midnightblue" d="M376.718,-149.035C402.539,-154.373 431.785,-160.42 458.372,-165.917"/>
<polygon fill="midnightblue" stroke="midnightblue" points="457.918,-169.397 468.419,-167.994 459.335,-162.542 457.918,-169.397"/>
</g>
<!-- Node5 -->
<g id="node5" class="node"><title>Node5</title>
<g id="a_node5"><a xlink:href="../../dc/d23/classeditor_1_1wizards_1_1_wizard_data.html#a5d032318071e955a952e4cc73bf35751" target="_top" xlink:title="editor.wizards.WizardData.get\lWizardDataByType">
<polygon fill="white" stroke="black" points="463,-119 463,-149 621,-149 621,-119 463,-119"/>
<text text-anchor="start" x="471" y="-137" font-family="Helvetica,sans-Serif" font-size="10.00">editor.wizards.WizardData.get</text>
<text text-anchor="middle" x="542" y="-126" font-family="Helvetica,sans-Serif" font-size="10.00">WizardDataByType</text>
</a>
</g>
</g>
<!-- Node2&#45;&gt;Node5 -->
<g id="edge4" class="edge"><title>Node2&#45;&gt;Node5</title>
<path fill="none" stroke="midnightblue" d="M389.562,-134C410.072,-134 432.012,-134 452.646,-134"/>
<polygon fill="midnightblue" stroke="midnightblue" points="452.658,-137.5 462.658,-134 452.658,-130.5 452.658,-137.5"/>
</g>
<!-- Node6 -->
<g id="node6" class="node"><title>Node6</title>
<g id="a_node6"><a xlink:href="../../dc/d2d/classgame__engine_1_1game_representation_1_1state_representation_1_1game_element_1_1_game_element_state.html#af2c070dd27e2d8a3c515ef55a317aa38" target="_top" xlink:title="game_engine.gameRepresentation.state\lRepresentation.gameElement.GameElement\lState.setNumericalAttribute">
<polygon fill="white" stroke="black" points="426.5,-59.5 426.5,-100.5 657.5,-100.5 657.5,-59.5 426.5,-59.5"/>
<text text-anchor="start" x="434.5" y="-88.5" font-family="Helvetica,sans-Serif" font-size="10.00">game_engine.gameRepresentation.state</text>
<text text-anchor="start" x="434.5" y="-77.5" font-family="Helvetica,sans-Serif" font-size="10.00">Representation.gameElement.GameElement</text>
<text text-anchor="middle" x="542" y="-66.5" font-family="Helvetica,sans-Serif" font-size="10.00">State.setNumericalAttribute</text>
</a>
</g>
</g>
<!-- Node2&#45;&gt;Node6 -->
<g id="edge5" class="edge"><title>Node2&#45;&gt;Node6</title>
<path fill="none" stroke="midnightblue" d="M370.018,-118.958C392.047,-113.939 417.109,-108.228 441.125,-102.756"/>
<polygon fill="midnightblue" stroke="midnightblue" points="442.008,-106.145 450.981,-100.511 440.453,-99.3198 442.008,-106.145"/>
</g>
<!-- Node8 -->
<g id="node8" class="node"><title>Node8</title>
<g id="a_node8"><a xlink:href="../../dc/d2d/classgame__engine_1_1game_representation_1_1state_representation_1_1game_element_1_1_game_element_state.html#a6053376d69396e84a45bcfe2cd44ce1a" target="_top" xlink:title="game_engine.gameRepresentation.state\lRepresentation.gameElement.GameElement\lState.setTextualAttribute">
<polygon fill="white" stroke="black" points="426.5,0.5 426.5,-40.5 657.5,-40.5 657.5,0.5 426.5,0.5"/>
<text text-anchor="start" x="434.5" y="-28.5" font-family="Helvetica,sans-Serif" font-size="10.00">game_engine.gameRepresentation.state</text>
<text text-anchor="start" x="434.5" y="-17.5" font-family="Helvetica,sans-Serif" font-size="10.00">Representation.gameElement.GameElement</text>
<text text-anchor="middle" x="542" y="-6.5" font-family="Helvetica,sans-Serif" font-size="10.00">State.setTextualAttribute</text>
</a>
</g>
</g>
<!-- Node2&#45;&gt;Node8 -->
<g id="edge7" class="edge"><title>Node2&#45;&gt;Node8</title>
<path fill="none" stroke="midnightblue" d="M321.794,-118.747C344.532,-99.995 385.779,-68.4016 426,-50 430.631,-47.8814 435.437,-45.8925 440.343,-44.028"/>
<polygon fill="midnightblue" stroke="midnightblue" points="441.656,-47.2753 449.879,-40.5942 439.284,-40.6893 441.656,-47.2753"/>
</g>
<!-- Node7 -->
<g id="node7" class="node"><title>Node7</title>
<g id="a_node7"><a xlink:href="../../dc/d2d/classgame__engine_1_1game_representation_1_1state_representation_1_1game_element_1_1_game_element_state.html#a1544cb353263227e008ae84f12deda9a" target="_top" xlink:title="game_engine.gameRepresentation.state\lRepresentation.gameElement.GameElement\lState.addAttribute">
<polygon fill="white" stroke="black" points="694.5,-29.5 694.5,-70.5 925.5,-70.5 925.5,-29.5 694.5,-29.5"/>
<text text-anchor="start" x="702.5" y="-58.5" font-family="Helvetica,sans-Serif" font-size="10.00">game_engine.gameRepresentation.state</text>
<text text-anchor="start" x="702.5" y="-47.5" font-family="Helvetica,sans-Serif" font-size="10.00">Representation.gameElement.GameElement</text>
<text text-anchor="middle" x="810" y="-36.5" font-family="Helvetica,sans-Serif" font-size="10.00">State.addAttribute</text>
</a>
</g>
</g>
<!-- Node6&#45;&gt;Node7 -->
<g id="edge6" class="edge"><title>Node6&#45;&gt;Node7</title>
<path fill="none" stroke="midnightblue" d="M657.738,-67.0596C666.524,-66.0687 675.418,-65.0656 684.264,-64.068"/>
<polygon fill="midnightblue" stroke="midnightblue" points="684.677,-67.5437 694.221,-62.945 683.892,-60.5878 684.677,-67.5437"/>
</g>
<!-- Node8&#45;&gt;Node7 -->
<g id="edge8" class="edge"><title>Node8&#45;&gt;Node7</title>
<path fill="none" stroke="midnightblue" d="M657.738,-32.9404C666.524,-33.9313 675.418,-34.9344 684.264,-35.932"/>
<polygon fill="midnightblue" stroke="midnightblue" points="683.892,-39.4122 694.221,-37.055 684.677,-32.4563 683.892,-39.4122"/>
</g>
</g>
</svg>
