<?xml version="1.0" encoding="UTF-8" standalone="no"?>
<!DOCTYPE svg PUBLIC "-//W3C//DTD SVG 1.1//EN"
 "http://www.w3.org/Graphics/SVG/1.1/DTD/svg11.dtd">
<!-- Generated by graphviz version 2.36.0 (20140111.2315)
 -->
<!-- Title: gamemodel.GameElementStateFactory.addEssentials Pages: 1 -->
<svg width="718pt" height="266pt"
 viewBox="0.00 0.00 718.00 266.00" xmlns="http://www.w3.org/2000/svg" xmlns:xlink="http://www.w3.org/1999/xlink">
<g id="graph0" class="graph" transform="scale(1 1) rotate(0) translate(4 262)">
<title>gamemodel.GameElementStateFactory.addEssentials</title>
<polygon fill="white" stroke="none" points="-4,4 -4,-262 714,-262 714,4 -4,4"/>
<!-- Node1 -->
<g id="node1" class="node"><title>Node1</title>
<polygon fill="#bfbfbf" stroke="black" points="0.5,-119 0.5,-149 173.5,-149 173.5,-119 0.5,-119"/>
<text text-anchor="start" x="8.5" y="-137" font-family="Helvetica,sans-Serif" font-size="10.00">gamemodel.GameElementState</text>
<text text-anchor="middle" x="87" y="-126" font-family="Helvetica,sans-Serif" font-size="10.00">Factory.addEssentials</text>
</g>
<!-- Node2 -->
<g id="node2" class="node"><title>Node2</title>
<g id="a_node2"><a xlink:href="../../dc/d2d/classgame__engine_1_1game_representation_1_1state_representation_1_1game_element_1_1_game_element_state.html#a28dcf503bb7ba9dbadf61dbec9ee5e57" target="_top" xlink:title="game_engine.gameRepresentation.state\lRepresentation.gameElement.GameElement\lState.addAction">
<polygon fill="white" stroke="black" points="210.5,-216.5 210.5,-257.5 441.5,-257.5 441.5,-216.5 210.5,-216.5"/>
<text text-anchor="start" x="218.5" y="-245.5" font-family="Helvetica,sans-Serif" font-size="10.00">game_engine.gameRepresentation.state</text>
<text text-anchor="start" x="218.5" y="-234.5" font-family="Helvetica,sans-Serif" font-size="10.00">Representation.gameElement.GameElement</text>
<text text-anchor="middle" x="326" y="-223.5" font-family="Helvetica,sans-Serif" font-size="10.00">State.addAction</text>
</a>
</g>
</g>
<!-- Node1&#45;&gt;Node2 -->
<g id="edge1" class="edge"><title>Node1&#45;&gt;Node2</title>
<path fill="none" stroke="midnightblue" d="M109.051,-149.143C132.619,-165.474 172.444,-191.246 210,-207 215.302,-209.224 220.813,-211.32 226.424,-213.288"/>
<polygon fill="midnightblue" stroke="midnightblue" points="225.348,-216.619 235.942,-216.481 227.574,-209.982 225.348,-216.619"/>
</g>
<!-- Node3 -->
<g id="node3" class="node"><title>Node3</title>
<g id="a_node3"><a xlink:href="../../dc/d23/classeditor_1_1wizards_1_1_wizard_data.html#a1844ff95a1b35b150c25bc4d74d33578" target="_top" xlink:title="editor.wizards.WizardData.get\lValueByKey">
<polygon fill="white" stroke="black" points="247,-168 247,-198 405,-198 405,-168 247,-168"/>
<text text-anchor="start" x="255" y="-186" font-family="Helvetica,sans-Serif" font-size="10.00">editor.wizards.WizardData.get</text>
<text text-anchor="middle" x="326" y="-175" font-family="Helvetica,sans-Serif" font-size="10.00">ValueByKey</text>
</a>
</g>
</g>
<!-- Node1&#45;&gt;Node3 -->
<g id="edge2" class="edge"><title>Node1&#45;&gt;Node3</title>
<path fill="none" stroke="midnightblue" d="M160.718,-149.035C186.539,-154.373 215.785,-160.42 242.372,-165.917"/>
<polygon fill="midnightblue" stroke="midnightblue" points="241.918,-169.397 252.419,-167.994 243.335,-162.542 241.918,-169.397"/>
</g>
<!-- Node4 -->
<g id="node4" class="node"><title>Node4</title>
<g id="a_node4"><a xlink:href="../../dc/d23/classeditor_1_1wizards_1_1_wizard_data.html#a5d032318071e955a952e4cc73bf35751" target="_top" xlink:title="editor.wizards.WizardData.get\lWizardDataByType">
<polygon fill="white" stroke="black" points="247,-119 247,-149 405,-149 405,-119 247,-119"/>
<text text-anchor="start" x="255" y="-137" font-family="Helvetica,sans-Serif" font-size="10.00">editor.wizards.WizardData.get</text>
<text text-anchor="middle" x="326" y="-126" font-family="Helvetica,sans-Serif" font-size="10.00">WizardDataByType</text>
</a>
</g>
</g>
<!-- Node1&#45;&gt;Node4 -->
<g id="edge3" class="edge"><title>Node1&#45;&gt;Node4</title>
<path fill="none" stroke="midnightblue" d="M173.562,-134C194.072,-134 216.012,-134 236.646,-134"/>
<polygon fill="midnightblue" stroke="midnightblue" points="236.658,-137.5 246.658,-134 236.658,-130.5 236.658,-137.5"/>
</g>
<!-- Node5 -->
<g id="node5" class="node"><title>Node5</title>
<g id="a_node5"><a xlink:href="../../dc/d2d/classgame__engine_1_1game_representation_1_1state_representation_1_1game_element_1_1_game_element_state.html#af2c070dd27e2d8a3c515ef55a317aa38" target="_top" xlink:title="game_engine.gameRepresentation.state\lRepresentation.gameElement.GameElement\lState.setNumericalAttribute">
<polygon fill="white" stroke="black" points="210.5,-59.5 210.5,-100.5 441.5,-100.5 441.5,-59.5 210.5,-59.5"/>
<text text-anchor="start" x="218.5" y="-88.5" font-family="Helvetica,sans-Serif" font-size="10.00">game_engine.gameRepresentation.state</text>
<text text-anchor="start" x="218.5" y="-77.5" font-family="Helvetica,sans-Serif" font-size="10.00">Representation.gameElement.GameElement</text>
<text text-anchor="middle" x="326" y="-66.5" font-family="Helvetica,sans-Serif" font-size="10.00">State.setNumericalAttribute</text>
</a>
</g>
</g>
<!-- Node1&#45;&gt;Node5 -->
<g id="edge4" class="edge"><title>Node1&#45;&gt;Node5</title>
<path fill="none" stroke="midnightblue" d="M154.018,-118.958C176.047,-113.939 201.109,-108.228 225.125,-102.756"/>
<polygon fill="midnightblue" stroke="midnightblue" points="226.008,-106.145 234.981,-100.511 224.453,-99.3198 226.008,-106.145"/>
</g>
<!-- Node7 -->
<g id="node7" class="node"><title>Node7</title>
<g id="a_node7"><a xlink:href="../../dc/d2d/classgame__engine_1_1game_representation_1_1state_representation_1_1game_element_1_1_game_element_state.html#a6053376d69396e84a45bcfe2cd44ce1a" target="_top" xlink:title="game_engine.gameRepresentation.state\lRepresentation.gameElement.GameElement\lState.setTextualAttribute">
<polygon fill="white" stroke="black" points="210.5,0.5 210.5,-40.5 441.5,-40.5 441.5,0.5 210.5,0.5"/>
<text text-anchor="start" x="218.5" y="-28.5" font-family="Helvetica,sans-Serif" font-size="10.00">game_engine.gameRepresentation.state</text>
<text text-anchor="start" x="218.5" y="-17.5" font-family="Helvetica,sans-Serif" font-size="10.00">Representation.gameElement.GameElement</text>
<text text-anchor="middle" x="326" y="-6.5" font-family="Helvetica,sans-Serif" font-size="10.00">State.setTextualAttribute</text>
</a>
</g>
</g>
<!-- Node1&#45;&gt;Node7 -->
<g id="edge6" class="edge"><title>Node1&#45;&gt;Node7</title>
<path fill="none" stroke="midnightblue" d="M105.794,-118.747C128.532,-99.995 169.779,-68.4016 210,-50 214.631,-47.8814 219.437,-45.8925 224.343,-44.028"/>
<polygon fill="midnightblue" stroke="midnightblue" points="225.656,-47.2753 233.879,-40.5942 223.284,-40.6893 225.656,-47.2753"/>
</g>
<!-- Node6 -->
<g id="node6" class="node"><title>Node6</title>
<g id="a_node6"><a xlink:href="../../dc/d2d/classgame__engine_1_1game_representation_1_1state_representation_1_1game_element_1_1_game_element_state.html#a1544cb353263227e008ae84f12deda9a" target="_top" xlink:title="game_engine.gameRepresentation.state\lRepresentation.gameElement.GameElement\lState.addAttribute">
<polygon fill="white" stroke="black" points="478.5,-29.5 478.5,-70.5 709.5,-70.5 709.5,-29.5 478.5,-29.5"/>
<text text-anchor="start" x="486.5" y="-58.5" font-family="Helvetica,sans-Serif" font-size="10.00">game_engine.gameRepresentation.state</text>
<text text-anchor="start" x="486.5" y="-47.5" font-family="Helvetica,sans-Serif" font-size="10.00">Representation.gameElement.GameElement</text>
<text text-anchor="middle" x="594" y="-36.5" font-family="Helvetica,sans-Serif" font-size="10.00">State.addAttribute</text>
</a>
</g>
</g>
<!-- Node5&#45;&gt;Node6 -->
<g id="edge5" class="edge"><title>Node5&#45;&gt;Node6</title>
<path fill="none" stroke="midnightblue" d="M441.738,-67.0596C450.524,-66.0687 459.418,-65.0656 468.264,-64.068"/>
<polygon fill="midnightblue" stroke="midnightblue" points="468.677,-67.5437 478.221,-62.945 467.892,-60.5878 468.677,-67.5437"/>
</g>
<!-- Node7&#45;&gt;Node6 -->
<g id="edge7" class="edge"><title>Node7&#45;&gt;Node6</title>
<path fill="none" stroke="midnightblue" d="M441.738,-32.9404C450.524,-33.9313 459.418,-34.9344 468.264,-35.932"/>
<polygon fill="midnightblue" stroke="midnightblue" points="467.892,-39.4122 478.221,-37.055 468.677,-32.4563 467.892,-39.4122"/>
</g>
</g>
</svg>
