<?xml version="1.0" encoding="UTF-8" standalone="no"?>
<!DOCTYPE svg PUBLIC "-//W3C//DTD SVG 1.1//EN"
 "http://www.w3.org/Graphics/SVG/1.1/DTD/svg11.dtd">
<!-- Generated by graphviz version 2.36.0 (20140111.2315)
 -->
<!-- Title: gamemodel.GameElementStateFactory.createGoal Pages: 1 -->
<svg width="774pt" height="38pt"
 viewBox="0.00 0.00 774.00 38.00" xmlns="http://www.w3.org/2000/svg" xmlns:xlink="http://www.w3.org/1999/xlink">
<g id="graph0" class="graph" transform="scale(1 1) rotate(0) translate(4 34)">
<title>gamemodel.GameElementStateFactory.createGoal</title>
<polygon fill="white" stroke="none" points="-4,4 -4,-34 770,-34 770,4 -4,4"/>
<!-- Node1 -->
<g id="node1" class="node"><title>Node1</title>
<polygon fill="#bfbfbf" stroke="black" points="0.5,-0 0.5,-30 173.5,-30 173.5,-0 0.5,-0"/>
<text text-anchor="start" x="8.5" y="-18" font-family="Helvetica,sans-Serif" font-size="10.00">gamemodel.GameElementState</text>
<text text-anchor="middle" x="87" y="-7" font-family="Helvetica,sans-Serif" font-size="10.00">Factory.createGoal</text>
</g>
<!-- Node2 -->
<g id="node2" class="node"><title>Node2</title>
<g id="a_node2"><a xlink:href="../../da/d8d/classgamemodel_1_1_main_model.html#a325818c8458f90d2ae1b21bd2133571b" target="_top" xlink:title="gamemodel.MainModel.addGoal">
<polygon fill="white" stroke="black" points="210.5,-5.5 210.5,-24.5 381.5,-24.5 381.5,-5.5 210.5,-5.5"/>
<text text-anchor="middle" x="296" y="-12.5" font-family="Helvetica,sans-Serif" font-size="10.00">gamemodel.MainModel.addGoal</text>
</a>
</g>
</g>
<!-- Node1&#45;&gt;Node2 -->
<g id="edge1" class="edge"><title>Node1&#45;&gt;Node2</title>
<path fill="none" stroke="midnightblue" d="M183.695,-15C192.6,-15 201.582,-15 210.375,-15"/>
<polygon fill="midnightblue" stroke="midnightblue" points="183.689,-11.5001 173.689,-15 183.689,-18.5001 183.689,-11.5001"/>
</g>
<!-- Node3 -->
<g id="node3" class="node"><title>Node3</title>
<g id="a_node3"><a xlink:href="../../df/d32/classeditor_1_1_tab_view_controller.html#a07885d5b594264a4359221e99b50c6cf" target="_top" xlink:title="editor.TabViewController.launch\lNestedWizard">
<polygon fill="white" stroke="black" points="418,-0 418,-30 582,-30 582,-0 418,-0"/>
<text text-anchor="start" x="426" y="-18" font-family="Helvetica,sans-Serif" font-size="10.00">editor.TabViewController.launch</text>
<text text-anchor="middle" x="500" y="-7" font-family="Helvetica,sans-Serif" font-size="10.00">NestedWizard</text>
</a>
</g>
</g>
<!-- Node2&#45;&gt;Node3 -->
<g id="edge2" class="edge"><title>Node2&#45;&gt;Node3</title>
<path fill="none" stroke="midnightblue" d="M391.959,-15C400.659,-15 409.42,-15 417.981,-15"/>
<polygon fill="midnightblue" stroke="midnightblue" points="391.788,-11.5001 381.788,-15 391.788,-18.5001 391.788,-11.5001"/>
</g>
<!-- Node4 -->
<g id="node4" class="node"><title>Node4</title>
<g id="a_node4"><a xlink:href="../../df/d32/classeditor_1_1_tab_view_controller.html#ab01a2a957a5ee640a54b8115be502388" target="_top" xlink:title="editor.TabViewController.init">
<polygon fill="white" stroke="black" points="618.5,-5.5 618.5,-24.5 765.5,-24.5 765.5,-5.5 618.5,-5.5"/>
<text text-anchor="middle" x="692" y="-12.5" font-family="Helvetica,sans-Serif" font-size="10.00">editor.TabViewController.init</text>
</a>
</g>
</g>
<!-- Node3&#45;&gt;Node4 -->
<g id="edge3" class="edge"><title>Node3&#45;&gt;Node4</title>
<path fill="none" stroke="midnightblue" d="M592.31,-15C601.014,-15 609.759,-15 618.253,-15"/>
<polygon fill="midnightblue" stroke="midnightblue" points="592.128,-11.5001 582.128,-15 592.128,-18.5001 592.128,-11.5001"/>
</g>
</g>
</svg>
