<?xml version="1.0" encoding="UTF-8" standalone="no"?>
<!DOCTYPE svg PUBLIC "-//W3C//DTD SVG 1.1//EN"
 "http://www.w3.org/Graphics/SVG/1.1/DTD/svg11.dtd">
<!-- Generated by graphviz version 2.36.0 (20140111.2315)
 -->
<!-- Title: game_engine.gameRepresentation.renderedRepresentation.DrawableGameElement Pages: 1 -->
<!--zoomable 619 -->
<svg id="main" version="1.1" xmlns="http://www.w3.org/2000/svg" xmlns:xlink="http://www.w3.org/1999/xlink" xml:space="preserve" onload="init(evt)">
<style type="text/css"><![CDATA[
.edge:hover path { stroke: red; }
.edge:hover polygon { stroke: red; fill: red; }
]]></style>
<script type="text/javascript"><![CDATA[
var edges = document.getElementsByTagName('g');
if (edges && edges.length) {
  for (var i=0;i<edges.length;i++) {
    if (edges[i].id.substr(0,4)=='edge') {
      edges[i].setAttribute('class','edge');
    }
  }
}
]]></script>
        <defs>
                <circle id="rim" cx="0" cy="0" r="7"/>
                <circle id="rim2" cx="0" cy="0" r="3.5"/>
                <g id="zoomPlus">
                        <use xlink:href="#rim" fill="#404040">
                                <set attributeName="fill" to="#808080" begin="zoomplus.mouseover" end="zoomplus.mouseout"/>
                        </use>
                        <path d="M-4,0h8M0,-4v8" fill="none" stroke="white" stroke-width="1.5" pointer-events="none"/>
                </g>
                <g id="zoomMin">
                        <use xlink:href="#rim" fill="#404040">
                                <set attributeName="fill" to="#808080" begin="zoomminus.mouseover" end="zoomminus.mouseout"/>
                        </use>
                        <path d="M-4,0h8" fill="none" stroke="white" stroke-width="1.5" pointer-events="none"/>
                </g>
                <g id="dirArrow">
                        <path fill="none" stroke="white" stroke-width="1.5" d="M0,-3.0v7 M-2.5,-0.5L0,-3.0L2.5,-0.5"/>
                </g>
               <g id="resetDef">
                       <use xlink:href="#rim2" fill="#404040">
                               <set attributeName="fill" to="#808080" begin="reset.mouseover" end="reset.mouseout"/>
                       </use>
               </g>
        </defs>

<script type="text/javascript">
var viewWidth = 1394;
var viewHeight = 619;
var sectionId = 'dynsection-1';
</script>
<script xlink:href="../../svgpan.js"/>
<svg id="graph" class="graph">
<g id="viewport">
<title>game_engine.gameRepresentation.renderedRepresentation.DrawableGameElement</title>
<polygon fill="white" stroke="none" points="-4,4 -4,-615.355 1390,-615.355 1390,4 -4,4"/>
<!-- Node1 -->
<g id="node1" class="node"><title>Node1</title>
<polygon fill="#bfbfbf" stroke="black" points="1154.5,-280.355 1154.5,-310.355 1385.5,-310.355 1385.5,-280.355 1154.5,-280.355"/>
<text text-anchor="start" x="1162.5" y="-298.355" font-family="Helvetica,sans-Serif" font-size="10.00">game_engine.gameRepresentation.rendered</text>
<text text-anchor="middle" x="1270" y="-287.355" font-family="Helvetica,sans-Serif" font-size="10.00">Representation.DrawableGameElement</text>
</g>
<!-- Node2 -->
<g id="node2" class="node"><title>Node2</title>
<g id="a_node2"><a xlink:href="../../d5/d2c/classgame__engine_1_1game_representation_1_1rendered_representation_1_1_game_element.html" target="_top" xlink:title="game_engine.gameRepresentation.rendered\lRepresentation.GameElement">
<polygon fill="white" stroke="black" points="792.5,-519.355 792.5,-549.355 1023.5,-549.355 1023.5,-519.355 792.5,-519.355"/>
<text text-anchor="start" x="800.5" y="-537.355" font-family="Helvetica,sans-Serif" font-size="10.00">game_engine.gameRepresentation.rendered</text>
<text text-anchor="middle" x="908" y="-526.355" font-family="Helvetica,sans-Serif" font-size="10.00">Representation.GameElement</text>
</a>
</g>
</g>
<!-- Node2&#45;&gt;Node1 -->
<g id="edge1" class="edge"><title>Node2&#45;&gt;Node1</title>
<path fill="none" stroke="midnightblue" d="M1022.42,-516.841C1060.81,-507.165 1102.42,-492.253 1136,-469.355 1198.83,-426.51 1244.66,-344.409 1261.71,-310.54"/>
<polygon fill="midnightblue" stroke="midnightblue" points="1021.11,-513.557 1012.21,-519.311 1022.75,-520.36 1021.11,-513.557"/>
</g>
<!-- Node3 -->
<g id="node3" class="node"><title>Node3</title>
<polygon fill="white" stroke="#bfbfbf" points="474.5,-591.855 474.5,-610.855 567.5,-610.855 567.5,-591.855 474.5,-591.855"/>
<text text-anchor="middle" x="521" y="-598.855" font-family="Helvetica,sans-Serif" font-size="10.00">ResourceBundle</text>
</g>
<!-- Node3&#45;&gt;Node2 -->
<g id="edge2" class="edge"><title>Node3&#45;&gt;Node2</title>
<path fill="none" stroke="#9a32cd" stroke-dasharray="5,2" d="M577.67,-592.75C600.141,-589.252 626.311,-585.148 650,-581.355 704.255,-572.669 717.941,-571.189 772,-561.355 792.224,-557.676 814.095,-553.422 834.224,-549.394"/>
<polygon fill="#9a32cd" stroke="#9a32cd" points="576.972,-589.316 567.628,-594.311 578.047,-596.233 576.972,-589.316"/>
<text text-anchor="middle" x="720" y="-580.355" font-family="Helvetica,sans-Serif" font-size="10.00"> actionTypes</text>
</g>
<!-- Node4 -->
<g id="node4" class="node"><title>Node4</title>
<polygon fill="white" stroke="#bfbfbf" points="394,-531.855 394,-572.855 648,-572.855 648,-531.855 394,-531.855"/>
<text text-anchor="start" x="402" y="-560.855" font-family="Helvetica,sans-Serif" font-size="10.00">Map&lt; String, List&lt;</text>
<text text-anchor="start" x="402" y="-549.855" font-family="Helvetica,sans-Serif" font-size="10.00"> game_engine.gameRepresentation.evaluatables.</text>
<text text-anchor="middle" x="521" y="-538.855" font-family="Helvetica,sans-Serif" font-size="10.00">Evaluatable&lt;?&gt; &gt; &gt;</text>
</g>
<!-- Node4&#45;&gt;Node2 -->
<g id="edge3" class="edge"><title>Node4&#45;&gt;Node2</title>
<path fill="none" stroke="#9a32cd" stroke-dasharray="5,2" d="M658.23,-545.986C702.09,-543.935 750.223,-541.685 792.367,-539.715"/>
<polygon fill="#9a32cd" stroke="#9a32cd" points="657.889,-542.498 648.063,-546.461 658.216,-549.49 657.889,-542.498"/>
<text text-anchor="middle" x="720" y="-549.355" font-family="Helvetica,sans-Serif" font-size="10.00"> myActionLists</text>
</g>
<!-- Node5 -->
<g id="node5" class="node"><title>Node5</title>
<g id="a_node5"><a xlink:href="../../dc/d2d/classgame__engine_1_1game_representation_1_1state_representation_1_1game_element_1_1_game_element_state.html" target="_top" xlink:title="game_engine.gameRepresentation.state\lRepresentation.gameElement.GameElementState">
<polygon fill="white" stroke="black" points="392.5,-483.355 392.5,-513.355 649.5,-513.355 649.5,-483.355 392.5,-483.355"/>
<text text-anchor="start" x="400.5" y="-501.355" font-family="Helvetica,sans-Serif" font-size="10.00">game_engine.gameRepresentation.state</text>
<text text-anchor="middle" x="521" y="-490.355" font-family="Helvetica,sans-Serif" font-size="10.00">Representation.gameElement.GameElementState</text>
</a>
</g>
</g>
<!-- Node5&#45;&gt;Node2 -->
<g id="edge4" class="edge"><title>Node5&#45;&gt;Node2</title>
<path fill="none" stroke="#9a32cd" stroke-dasharray="5,2" d="M659.737,-511.234C703.175,-515.296 750.671,-519.737 792.323,-523.632"/>
<polygon fill="#9a32cd" stroke="#9a32cd" points="659.947,-507.739 649.665,-510.293 659.295,-514.709 659.947,-507.739"/>
<text text-anchor="middle" x="720" y="-525.355" font-family="Helvetica,sans-Serif" font-size="10.00"> myState</text>
</g>
<!-- Node19 -->
<g id="node19" class="node"><title>Node19</title>
<g id="a_node19"><a xlink:href="../../db/d72/classgame__engine_1_1game_representation_1_1state_representation_1_1game_element_1_1_drawable_game_element_state.html" target="_top" xlink:title="game_engine.gameRepresentation.state\lRepresentation.gameElement.DrawableGame\lElementState">
<polygon fill="white" stroke="black" points="790,-385.855 790,-426.855 1026,-426.855 1026,-385.855 790,-385.855"/>
<text text-anchor="start" x="798" y="-414.855" font-family="Helvetica,sans-Serif" font-size="10.00">game_engine.gameRepresentation.state</text>
<text text-anchor="start" x="798" y="-403.855" font-family="Helvetica,sans-Serif" font-size="10.00">Representation.gameElement.DrawableGame</text>
<text text-anchor="middle" x="908" y="-392.855" font-family="Helvetica,sans-Serif" font-size="10.00">ElementState</text>
</a>
</g>
</g>
<!-- Node5&#45;&gt;Node19 -->
<g id="edge23" class="edge"><title>Node5&#45;&gt;Node19</title>
<path fill="none" stroke="midnightblue" d="M613.014,-481.302C625.468,-478.758 638.067,-476.073 650,-473.355 712.042,-459.224 781.876,-440.858 833.073,-426.93"/>
<polygon fill="midnightblue" stroke="midnightblue" points="612.183,-477.899 603.074,-483.31 613.569,-484.761 612.183,-477.899"/>
</g>
<!-- Node6 -->
<g id="node6" class="node"><title>Node6</title>
<g id="a_node6"><a xlink:href="../../df/d74/interfaceutil_1_1_j_s_o_nable.html" target="_top" xlink:title="util.JSONable">
<polygon fill="white" stroke="black" points="81,-381.855 81,-400.855 159,-400.855 159,-381.855 81,-381.855"/>
<text text-anchor="middle" x="120" y="-388.855" font-family="Helvetica,sans-Serif" font-size="10.00">util.JSONable</text>
</a>
</g>
</g>
<!-- Node6&#45;&gt;Node5 -->
<g id="edge5" class="edge"><title>Node6&#45;&gt;Node5</title>
<path fill="none" stroke="midnightblue" d="M169.187,-401.935C190.908,-406.898 216.83,-413.092 240,-419.355 300.123,-435.607 318.226,-432.638 374,-460.355 382.837,-464.747 382.946,-469.429 392,-473.355 400.932,-477.229 410.475,-480.506 420.172,-483.279"/>
<polygon fill="midnightblue" stroke="midnightblue" points="169.737,-398.471 159.211,-399.674 168.19,-405.297 169.737,-398.471"/>
</g>
<!-- Node21 -->
<g id="node21" class="node"><title>Node21</title>
<g id="a_node21"><a xlink:href="../../d7/d37/classgame__engine_1_1visuals_1_1_spritesheet.html" target="_top" xlink:title="game_engine.visuals.Spritesheet">
<polygon fill="white" stroke="black" points="433,-346.855 433,-365.855 609,-365.855 609,-346.855 433,-346.855"/>
<text text-anchor="middle" x="521" y="-353.855" font-family="Helvetica,sans-Serif" font-size="10.00">game_engine.visuals.Spritesheet</text>
</a>
</g>
</g>
<!-- Node6&#45;&gt;Node21 -->
<g id="edge27" class="edge"><title>Node6&#45;&gt;Node21</title>
<path fill="none" stroke="midnightblue" d="M169.272,-387.121C234.551,-381.395 352.096,-371.084 432.989,-363.988"/>
<polygon fill="midnightblue" stroke="midnightblue" points="168.914,-383.639 159.258,-387.999 169.525,-390.612 168.914,-383.639"/>
</g>
<!-- Node7 -->
<g id="node7" class="node"><title>Node7</title>
<polygon fill="white" stroke="#bfbfbf" points="0,-477.855 0,-518.855 240,-518.855 240,-477.855 0,-477.855"/>
<text text-anchor="start" x="8" y="-506.855" font-family="Helvetica,sans-Serif" font-size="10.00">Set&lt; game_engine.gameRepresentation.state</text>
<text text-anchor="start" x="8" y="-495.855" font-family="Helvetica,sans-Serif" font-size="10.00">Representation.gameElement.Attribute</text>
<text text-anchor="middle" x="120" y="-484.855" font-family="Helvetica,sans-Serif" font-size="10.00">&lt; Number &gt; &gt;</text>
</g>
<!-- Node7&#45;&gt;Node5 -->
<g id="edge6" class="edge"><title>Node7&#45;&gt;Node5</title>
<path fill="none" stroke="#9a32cd" stroke-dasharray="5,2" d="M250.402,-498.355C295.929,-498.355 347.037,-498.355 392.413,-498.355"/>
<polygon fill="#9a32cd" stroke="#9a32cd" points="250.173,-494.855 240.173,-498.355 250.173,-501.855 250.173,-494.855"/>
<text text-anchor="middle" x="316" y="-501.355" font-family="Helvetica,sans-Serif" font-size="10.00"> myNumericalAttributes</text>
</g>
<!-- Node8 -->
<g id="node8" class="node"><title>Node8</title>
<polygon fill="white" stroke="#bfbfbf" points="66.5,-429.355 66.5,-459.355 173.5,-459.355 173.5,-429.355 66.5,-429.355"/>
<text text-anchor="start" x="74.5" y="-447.355" font-family="Helvetica,sans-Serif" font-size="10.00">Map&lt; String, List&lt;</text>
<text text-anchor="middle" x="120" y="-436.355" font-family="Helvetica,sans-Serif" font-size="10.00"> String &gt; &gt;</text>
</g>
<!-- Node8&#45;&gt;Node5 -->
<g id="edge7" class="edge"><title>Node8&#45;&gt;Node5</title>
<path fill="none" stroke="#9a32cd" stroke-dasharray="5,2" d="M183.687,-452.839C243.881,-460.986 336.132,-473.471 408.801,-483.306"/>
<polygon fill="#9a32cd" stroke="#9a32cd" points="183.952,-449.343 173.573,-451.47 183.013,-456.28 183.952,-449.343"/>
<text text-anchor="middle" x="316" y="-481.355" font-family="Helvetica,sans-Serif" font-size="10.00"> myActions</text>
</g>
<!-- Node9 -->
<g id="node9" class="node"><title>Node9</title>
<polygon fill="white" stroke="#bfbfbf" points="0,-537.855 0,-578.855 240,-578.855 240,-537.855 0,-537.855"/>
<text text-anchor="start" x="8" y="-566.855" font-family="Helvetica,sans-Serif" font-size="10.00">Set&lt; game_engine.gameRepresentation.state</text>
<text text-anchor="start" x="8" y="-555.855" font-family="Helvetica,sans-Serif" font-size="10.00">Representation.gameElement.Attribute</text>
<text text-anchor="middle" x="120" y="-544.855" font-family="Helvetica,sans-Serif" font-size="10.00">&lt; String &gt; &gt;</text>
</g>
<!-- Node9&#45;&gt;Node5 -->
<g id="edge8" class="edge"><title>Node9&#45;&gt;Node5</title>
<path fill="none" stroke="#9a32cd" stroke-dasharray="5,2" d="M250.348,-538.904C305.378,-530.629 368.568,-521.127 419.939,-513.402"/>
<polygon fill="#9a32cd" stroke="#9a32cd" points="249.541,-535.486 240.173,-540.434 250.582,-542.408 249.541,-535.486"/>
<text text-anchor="middle" x="316" y="-540.355" font-family="Helvetica,sans-Serif" font-size="10.00"> myTextualAttributes</text>
</g>
<!-- Node10 -->
<g id="node10" class="node"><title>Node10</title>
<g id="a_node10"><a xlink:href="../../d1/de3/interfacegame__engine_1_1visuals_1_1_displayable.html" target="_top" xlink:title="game_engine.visuals.Displayable">
<polygon fill="white" stroke="black" points="433.5,-270.855 433.5,-289.855 608.5,-289.855 608.5,-270.855 433.5,-270.855"/>
<text text-anchor="middle" x="521" y="-277.855" font-family="Helvetica,sans-Serif" font-size="10.00">game_engine.visuals.Displayable</text>
</a>
</g>
</g>
<!-- Node10&#45;&gt;Node1 -->
<g id="edge9" class="edge"><title>Node10&#45;&gt;Node1</title>
<path fill="none" stroke="midnightblue" d="M618.89,-282.301C756.371,-285.061 1007.61,-290.106 1154.24,-293.051"/>
<polygon fill="midnightblue" stroke="midnightblue" points="618.854,-278.799 608.786,-282.098 618.714,-285.798 618.854,-278.799"/>
</g>
<!-- Node14 -->
<g id="node14" class="node"><title>Node14</title>
<g id="a_node14"><a xlink:href="../../d7/d49/classgame__engine_1_1visuals_1_1_animation_player.html" target="_top" xlink:title="game_engine.visuals.Animation\lPlayer">
<polygon fill="white" stroke="black" points="823.5,-207.355 823.5,-237.355 992.5,-237.355 992.5,-207.355 823.5,-207.355"/>
<text text-anchor="start" x="831.5" y="-225.355" font-family="Helvetica,sans-Serif" font-size="10.00">game_engine.visuals.Animation</text>
<text text-anchor="middle" x="908" y="-214.355" font-family="Helvetica,sans-Serif" font-size="10.00">Player</text>
</a>
</g>
</g>
<!-- Node10&#45;&gt;Node14 -->
<g id="edge15" class="edge"><title>Node10&#45;&gt;Node14</title>
<path fill="none" stroke="midnightblue" d="M595.314,-269.31C660.337,-259.515 755.273,-245.213 823.265,-234.97"/>
<polygon fill="midnightblue" stroke="midnightblue" points="594.511,-265.892 585.144,-270.843 595.554,-272.814 594.511,-265.892"/>
</g>
<!-- Node11 -->
<g id="node11" class="node"><title>Node11</title>
<g id="a_node11"><a xlink:href="../../d3/dfc/interfacegame__engine_1_1game_representation_1_1state_representation_1_1game_element_1_1traits_1_1_boundable.html" target="_top" xlink:title="game_engine.gameRepresentation.state\lRepresentation.gameElement.traits.Boundable">
<polygon fill="white" stroke="black" points="400.5,-434.355 400.5,-464.355 641.5,-464.355 641.5,-434.355 400.5,-434.355"/>
<text text-anchor="start" x="408.5" y="-452.355" font-family="Helvetica,sans-Serif" font-size="10.00">game_engine.gameRepresentation.state</text>
<text text-anchor="middle" x="521" y="-441.355" font-family="Helvetica,sans-Serif" font-size="10.00">Representation.gameElement.traits.Boundable</text>
</a>
</g>
</g>
<!-- Node11&#45;&gt;Node1 -->
<g id="edge10" class="edge"><title>Node11&#45;&gt;Node1</title>
<path fill="none" stroke="midnightblue" d="M629.146,-465.532C757.533,-479.611 975.404,-486.262 1136,-401.355 1183.51,-376.238 1230.69,-333.259 1253.99,-310.51"/>
<polygon fill="midnightblue" stroke="midnightblue" points="629.246,-462.021 618.915,-464.374 628.458,-468.977 629.246,-462.021"/>
</g>
<!-- Node11&#45;&gt;Node19 -->
<g id="edge24" class="edge"><title>Node11&#45;&gt;Node19</title>
<path fill="none" stroke="midnightblue" d="M651.743,-434.864C696.386,-429.878 746.084,-424.328 789.68,-419.458"/>
<polygon fill="midnightblue" stroke="midnightblue" points="651.256,-431.397 641.706,-435.985 652.033,-438.354 651.256,-431.397"/>
</g>
<!-- Node12 -->
<g id="node12" class="node"><title>Node12</title>
<polygon fill="white" stroke="#bfbfbf" points="887.5,-347.855 887.5,-366.855 928.5,-366.855 928.5,-347.855 887.5,-347.855"/>
<text text-anchor="middle" x="908" y="-354.855" font-family="Helvetica,sans-Serif" font-size="10.00">VBox</text>
</g>
<!-- Node12&#45;&gt;Node1 -->
<g id="edge11" class="edge"><title>Node12&#45;&gt;Node1</title>
<path fill="none" stroke="#9a32cd" stroke-dasharray="5,2" d="M938.783,-355.615C982.386,-352.721 1066.02,-345.852 1136,-332.355 1164.95,-326.773 1196.78,-318.013 1222.04,-310.418"/>
<polygon fill="#9a32cd" stroke="#9a32cd" points="938.349,-352.136 928.593,-356.267 938.796,-359.121 938.349,-352.136"/>
<text text-anchor="middle" x="1090" y="-349.355" font-family="Helvetica,sans-Serif" font-size="10.00"> myDisplayVBox</text>
</g>
<!-- Node13 -->
<g id="node13" class="node"><title>Node13</title>
<polygon fill="white" stroke="#bfbfbf" points="487,-308.855 487,-327.855 555,-327.855 555,-308.855 487,-308.855"/>
<text text-anchor="middle" x="521" y="-315.855" font-family="Helvetica,sans-Serif" font-size="10.00">ImageView</text>
</g>
<!-- Node13&#45;&gt;Node1 -->
<g id="edge12" class="edge"><title>Node13&#45;&gt;Node1</title>
<path fill="none" stroke="#9a32cd" stroke-dasharray="5,2" d="M565.362,-318.033C665.771,-317.142 922.019,-314.03 1136,-304.355 1142.01,-304.083 1148.17,-303.774 1154.39,-303.437"/>
<polygon fill="#9a32cd" stroke="#9a32cd" points="565.266,-314.534 555.296,-318.12 565.326,-321.533 565.266,-314.534"/>
<text text-anchor="middle" x="908" y="-318.355" font-family="Helvetica,sans-Serif" font-size="10.00"> mySelectedImageView</text>
</g>
<!-- Node13&#45;&gt;Node14 -->
<g id="edge16" class="edge"><title>Node13&#45;&gt;Node14</title>
<path fill="none" stroke="#9a32cd" stroke-dasharray="5,2" d="M565.308,-313.29C590.217,-310.037 622.024,-305.306 650,-299.355 726.766,-283.027 813.817,-254.835 864.357,-237.47"/>
<polygon fill="#9a32cd" stroke="#9a32cd" points="564.563,-309.856 555.086,-314.592 565.448,-316.8 564.563,-309.856"/>
<text text-anchor="middle" x="720" y="-298.355" font-family="Helvetica,sans-Serif" font-size="10.00"> myDisplay</text>
</g>
<!-- Node14&#45;&gt;Node1 -->
<g id="edge13" class="edge"><title>Node14&#45;&gt;Node1</title>
<path fill="none" stroke="#9a32cd" stroke-dasharray="5,2" d="M1002.6,-227.657C1043.88,-231.276 1092.74,-237.316 1136,-247.355 1170.31,-255.318 1207.95,-269.436 1234.4,-280.307"/>
<polygon fill="#9a32cd" stroke="#9a32cd" points="1002.8,-224.162 992.546,-226.81 1002.22,-231.138 1002.8,-224.162"/>
<text text-anchor="middle" x="1090" y="-250.355" font-family="Helvetica,sans-Serif" font-size="10.00"> myAnimation</text>
</g>
<!-- Node15 -->
<g id="node15" class="node"><title>Node15</title>
<g id="a_node15"><a xlink:href="../../d2/d20/interfacegame__engine_1_1game_representation_1_1state_representation_1_1game_element_1_1traits_1_1_updatable.html" target="_top" xlink:title="game_engine.gameRepresentation.state\lRepresentation.gameElement.traits.Updatable">
<polygon fill="white" stroke="black" points="0.5,-118.355 0.5,-148.355 239.5,-148.355 239.5,-118.355 0.5,-118.355"/>
<text text-anchor="start" x="8.5" y="-136.355" font-family="Helvetica,sans-Serif" font-size="10.00">game_engine.gameRepresentation.state</text>
<text text-anchor="middle" x="120" y="-125.355" font-family="Helvetica,sans-Serif" font-size="10.00">Representation.gameElement.traits.Updatable</text>
</a>
</g>
</g>
<!-- Node15&#45;&gt;Node14 -->
<g id="edge14" class="edge"><title>Node15&#45;&gt;Node14</title>
<path fill="none" stroke="midnightblue" d="M249.853,-137.549C381.807,-143.406 592.443,-157.092 772,-188.355 799.621,-193.164 829.929,-200.596 854.818,-207.286"/>
<polygon fill="midnightblue" stroke="midnightblue" points="249.845,-134.046 239.702,-137.107 249.541,-141.039 249.845,-134.046"/>
</g>
<!-- Node16 -->
<g id="node16" class="node"><title>Node16</title>
<g id="a_node16"><a xlink:href="../../d4/d58/classgame__engine_1_1visuals_1_1_animation_sequence.html" target="_top" xlink:title="game_engine.visuals.Animation\lSequence">
<polygon fill="white" stroke="black" points="436.5,-69.3551 436.5,-99.3551 605.5,-99.3551 605.5,-69.3551 436.5,-69.3551"/>
<text text-anchor="start" x="444.5" y="-87.3551" font-family="Helvetica,sans-Serif" font-size="10.00">game_engine.visuals.Animation</text>
<text text-anchor="middle" x="521" y="-76.3551" font-family="Helvetica,sans-Serif" font-size="10.00">Sequence</text>
</a>
</g>
</g>
<!-- Node15&#45;&gt;Node16 -->
<g id="edge18" class="edge"><title>Node15&#45;&gt;Node16</title>
<path fill="none" stroke="midnightblue" d="M249.749,-117.544C310.919,-110.032 382.283,-101.268 436.312,-94.6326"/>
<polygon fill="midnightblue" stroke="midnightblue" points="249.132,-114.093 239.633,-118.786 249.985,-121.041 249.132,-114.093"/>
</g>
<!-- Node16&#45;&gt;Node1 -->
<g id="edge29" class="edge"><title>Node16&#45;&gt;Node1</title>
<path fill="none" stroke="#9a32cd" stroke-dasharray="5,2" d="M615.804,-91.0144C662.967,-95.3343 720.831,-102.115 772,-112.355 938.626,-145.701 980.607,-160.586 1136,-229.355 1172.65,-245.576 1213.85,-266.443 1240.55,-280.326"/>
<polygon fill="#9a32cd" stroke="#9a32cd" points="615.874,-87.5067 605.602,-90.1028 615.251,-94.479 615.874,-87.5067"/>
<text text-anchor="middle" x="908" y="-185.355" font-family="Helvetica,sans-Serif" font-size="10.00"> myCurrentAnimation</text>
</g>
<!-- Node16&#45;&gt;Node14 -->
<g id="edge17" class="edge"><title>Node16&#45;&gt;Node14</title>
<path fill="none" stroke="#9a32cd" stroke-dasharray="5,2" d="M615.413,-100.447C680.161,-111.917 757.291,-126.329 772,-132.355 818.136,-151.257 865.01,-187.045 889.547,-207.333"/>
<polygon fill="#9a32cd" stroke="#9a32cd" points="616.006,-96.9979 605.55,-98.7057 614.789,-103.891 616.006,-96.9979"/>
<text text-anchor="middle" x="720" y="-135.355" font-family="Helvetica,sans-Serif" font-size="10.00"> myCurrentAnimation</text>
</g>
<!-- Node16&#45;&gt;Node16 -->
<g id="edge19" class="edge"><title>Node16&#45;&gt;Node16</title>
<path fill="none" stroke="#9a32cd" stroke-dasharray="5,2" d="M486.343,-109.953C491.078,-114.326 502.631,-117.355 521,-117.355 551.938,-117.355 563.539,-108.761 555.805,-99.6305"/>
<polygon fill="#9a32cd" stroke="#9a32cd" points="489.838,-109.58 486.195,-99.6305 482.838,-109.679 489.838,-109.58"/>
<text text-anchor="middle" x="521" y="-120.355" font-family="Helvetica,sans-Serif" font-size="10.00"> myNextAnimation</text>
</g>
<!-- Node17 -->
<g id="node17" class="node"><title>Node17</title>
<g id="a_node17"><a xlink:href="../../de/d86/classgame__engine_1_1visuals_1_1_dimension.html" target="_top" xlink:title="game_engine.visuals.Dimension">
<polygon fill="white" stroke="black" points="34.5,-268.855 34.5,-287.855 205.5,-287.855 205.5,-268.855 34.5,-268.855"/>
<text text-anchor="middle" x="120" y="-275.855" font-family="Helvetica,sans-Serif" font-size="10.00">game_engine.visuals.Dimension</text>
</a>
</g>
</g>
<!-- Node17&#45;&gt;Node14 -->
<g id="edge20" class="edge"><title>Node17&#45;&gt;Node14</title>
<path fill="none" stroke="#9a32cd" stroke-dasharray="5,2" d="M212.977,-267.73C265.385,-261.957 332.309,-255.059 392,-250.355 543.751,-238.397 721.062,-229.974 823.067,-225.663"/>
<polygon fill="#9a32cd" stroke="#9a32cd" points="212.585,-264.252 203.031,-268.831 213.356,-271.209 212.585,-264.252"/>
<text text-anchor="middle" x="521" y="-253.355" font-family="Helvetica,sans-Serif" font-size="10.00"> myTileSize</text>
</g>
<!-- Node17&#45;&gt;Node21 -->
<g id="edge28" class="edge"><title>Node17&#45;&gt;Node21</title>
<path fill="none" stroke="#9a32cd" stroke-dasharray="5,2" d="M170.811,-290.25C225.021,-302.948 314.352,-323.156 392,-337.355 410.784,-340.79 431.206,-344.039 450.107,-346.846"/>
<polygon fill="#9a32cd" stroke="#9a32cd" points="171.316,-286.773 160.78,-287.892 169.714,-293.587 171.316,-286.773"/>
<text text-anchor="middle" x="316" y="-336.355" font-family="Helvetica,sans-Serif" font-size="10.00"> frameDimensions</text>
</g>
<!-- Node18 -->
<g id="node18" class="node"><title>Node18</title>
<polygon fill="white" stroke="#bfbfbf" points="482.5,-185.855 482.5,-204.855 559.5,-204.855 559.5,-185.855 482.5,-185.855"/>
<text text-anchor="middle" x="521" y="-192.855" font-family="Helvetica,sans-Serif" font-size="10.00">Rectangle2D</text>
</g>
<!-- Node18&#45;&gt;Node14 -->
<g id="edge21" class="edge"><title>Node18&#45;&gt;Node14</title>
<path fill="none" stroke="#9a32cd" stroke-dasharray="5,2" d="M570.076,-193.252C620.507,-191.627 702.015,-190.647 772,-197.355 793.829,-199.447 817.404,-203.265 838.65,-207.297"/>
<polygon fill="#9a32cd" stroke="#9a32cd" points="569.675,-189.764 559.801,-193.606 569.916,-196.759 569.675,-189.764"/>
<text text-anchor="middle" x="720" y="-200.355" font-family="Helvetica,sans-Serif" font-size="10.00"> myImageBounds</text>
</g>
<!-- Node19&#45;&gt;Node1 -->
<g id="edge22" class="edge"><title>Node19&#45;&gt;Node1</title>
<path fill="none" stroke="#9a32cd" stroke-dasharray="5,2" d="M1036.19,-387.293C1069.16,-380.689 1104.29,-372.152 1136,-361.355 1175.04,-348.062 1217.23,-325.604 1243.39,-310.63"/>
<polygon fill="#9a32cd" stroke="#9a32cd" points="1035.18,-383.925 1026.04,-389.281 1036.53,-390.794 1035.18,-383.925"/>
<text text-anchor="middle" x="1090" y="-389.355" font-family="Helvetica,sans-Serif" font-size="10.00"> drawableState</text>
</g>
<!-- Node20 -->
<g id="node20" class="node"><title>Node20</title>
<polygon fill="white" stroke="#bfbfbf" points="428,-385.355 428,-415.355 614,-415.355 614,-385.355 428,-385.355"/>
<text text-anchor="start" x="436" y="-403.355" font-family="Helvetica,sans-Serif" font-size="10.00">Map&lt; String, game_engine.visuals.</text>
<text text-anchor="middle" x="521" y="-392.355" font-family="Helvetica,sans-Serif" font-size="10.00">AnimationSequence &gt;</text>
</g>
<!-- Node20&#45;&gt;Node19 -->
<g id="edge25" class="edge"><title>Node20&#45;&gt;Node19</title>
<path fill="none" stroke="#9a32cd" stroke-dasharray="5,2" d="M624.143,-401.345C669.439,-401.845 723.381,-402.523 772,-403.355 777.86,-403.455 783.863,-403.565 789.925,-403.68"/>
<polygon fill="#9a32cd" stroke="#9a32cd" points="624.058,-397.844 614.02,-401.235 623.982,-404.844 624.058,-397.844"/>
<text text-anchor="middle" x="720" y="-406.355" font-family="Helvetica,sans-Serif" font-size="10.00"> myAnimations</text>
</g>
<!-- Node21&#45;&gt;Node19 -->
<g id="edge26" class="edge"><title>Node21&#45;&gt;Node19</title>
<path fill="none" stroke="#9a32cd" stroke-dasharray="5,2" d="M611.409,-367.08C659.101,-372.892 718.772,-380.31 772,-387.355 777.866,-388.132 783.874,-388.938 789.94,-389.76"/>
<polygon fill="#9a32cd" stroke="#9a32cd" points="611.769,-363.598 601.42,-365.865 610.924,-370.547 611.769,-363.598"/>
<text text-anchor="middle" x="720" y="-390.355" font-family="Helvetica,sans-Serif" font-size="10.00"> mySpritesheet</text>
</g>
<!-- Node22 -->
<g id="node22" class="node"><title>Node22</title>
<polygon fill="white" stroke="#bfbfbf" points="884.5,-42.8551 884.5,-61.8551 931.5,-61.8551 931.5,-42.8551 884.5,-42.8551"/>
<text text-anchor="middle" x="908" y="-49.8551" font-family="Helvetica,sans-Serif" font-size="10.00">Image</text>
</g>
<!-- Node22&#45;&gt;Node1 -->
<g id="edge30" class="edge"><title>Node22&#45;&gt;Node1</title>
<path fill="none" stroke="#9a32cd" stroke-dasharray="5,2" d="M941.644,-46.7168C988.529,-40.4141 1075.89,-35.5343 1136,-73.3551 1215.1,-123.126 1253.46,-238.574 1265.07,-280.117"/>
<polygon fill="#9a32cd" stroke="#9a32cd" points="941.125,-43.2554 931.73,-48.1534 942.129,-50.183 941.125,-43.2554"/>
<text text-anchor="middle" x="1090" y="-76.3551" font-family="Helvetica,sans-Serif" font-size="10.00"> mySelectedImage</text>
</g>
<!-- Node23 -->
<g id="node23" class="node"><title>Node23</title>
<polygon fill="white" stroke="#bfbfbf" points="885,-4.85514 885,-23.8551 931,-23.8551 931,-4.85514 885,-4.85514"/>
<text text-anchor="middle" x="908" y="-11.8551" font-family="Helvetica,sans-Serif" font-size="10.00">Group</text>
</g>
<!-- Node23&#45;&gt;Node1 -->
<g id="edge31" class="edge"><title>Node23&#45;&gt;Node1</title>
<path fill="none" stroke="#9a32cd" stroke-dasharray="5,2" d="M941.214,-7.36812C988.29,0.94394 1076.71,9.17038 1136,-30.3551 1227.02,-91.0323 1258.57,-233.569 1266.67,-280.257"/>
<polygon fill="#9a32cd" stroke="#9a32cd" points="940.455,-3.94937 931.273,-9.2349 941.747,-10.8291 940.455,-3.94937"/>
<text text-anchor="middle" x="1090" y="-33.3551" font-family="Helvetica,sans-Serif" font-size="10.00"> myDisplay</text>
</g>
</g>
</svg>
        <g id="navigator" transform="translate(0 0)" fill="#404254">
                <rect fill="#f2f5e9" fill-opacity="0.5" stroke="#606060" stroke-width=".5" x="0" y="0" width="60" height="60"/>
                <use id="zoomplus" xlink:href="#zoomPlus" x="17" y="9" onmousedown="handleZoom(evt,'in')"/>
                <use id="zoomminus" xlink:href="#zoomMin" x="42" y="9" onmousedown="handleZoom(evt,'out')"/>
                <use id="reset" xlink:href="#resetDef" x="30" y="36" onmousedown="handleReset()"/>
                <g id="arrowUp" xlink:href="#dirArrow" transform="translate(30 24)" onmousedown="handlePan(0,-1)">
                  <use xlink:href="#rim" fill="#404040">
                        <set attributeName="fill" to="#808080" begin="arrowUp.mouseover" end="arrowUp.mouseout"/>
                  </use>
                  <path fill="none" stroke="white" stroke-width="1.5" d="M0,-3.0v7 M-2.5,-0.5L0,-3.0L2.5,-0.5"/>
                </g>
                <g id="arrowRight" xlink:href="#dirArrow" transform="rotate(90) translate(36 -43)" onmousedown="handlePan(1,0)">
                  <use xlink:href="#rim" fill="#404040">
                        <set attributeName="fill" to="#808080" begin="arrowRight.mouseover" end="arrowRight.mouseout"/>
                  </use>
                  <path fill="none" stroke="white" stroke-width="1.5" d="M0,-3.0v7 M-2.5,-0.5L0,-3.0L2.5,-0.5"/>
                </g>
                <g id="arrowDown" xlink:href="#dirArrow" transform="rotate(180) translate(-30 -48)" onmousedown="handlePan(0,1)">
                  <use xlink:href="#rim" fill="#404040">
                        <set attributeName="fill" to="#808080" begin="arrowDown.mouseover" end="arrowDown.mouseout"/>
                  </use>
                  <path fill="none" stroke="white" stroke-width="1.5" d="M0,-3.0v7 M-2.5,-0.5L0,-3.0L2.5,-0.5"/>
                </g>
                <g id="arrowLeft" xlink:href="#dirArrow" transform="rotate(270) translate(-36 17)" onmousedown="handlePan(-1,0)">
                  <use xlink:href="#rim" fill="#404040">
                        <set attributeName="fill" to="#808080" begin="arrowLeft.mouseover" end="arrowLeft.mouseout"/>
                  </use>
                  <path fill="none" stroke="white" stroke-width="1.5" d="M0,-3.0v7 M-2.5,-0.5L0,-3.0L2.5,-0.5"/>
                </g>
        </g>
        <svg viewBox="0 0 15 15" width="100%" height="30px" preserveAspectRatio="xMaxYMin meet">
         <g id="arrow_out" transform="scale(0.3 0.3)">
          <a xlink:href="classgame__engine_1_1game_representation_1_1rendered_representation_1_1_drawable_game_element__coll__graph_org.svg" target="_base">
           <rect id="button" ry="5" rx="5" y="6" x="6" height="38" width="38"
                fill="#f2f5e9" fill-opacity="0.5" stroke="#606060" stroke-width="1.0"/>
           <path id="arrow"
             d="M 11.500037,31.436501 C 11.940474,20.09759 22.043105,11.32322 32.158766,21.979434 L 37.068811,17.246167 C 37.068811,17.246167 37.088388,32 37.088388,32 L 22.160133,31.978069 C 22.160133,31.978069 26.997745,27.140456 26.997745,27.140456 C 18.528582,18.264221 13.291696,25.230495 11.500037,31.436501 z"
             style="fill:#404040;"/>
          </a>
         </g>
        </svg>
</svg>
