<?xml version="1.0" encoding="UTF-8" standalone="no"?>
<!DOCTYPE svg PUBLIC "-//W3C//DTD SVG 1.1//EN"
 "http://www.w3.org/Graphics/SVG/1.1/DTD/svg11.dtd">
<!-- Generated by graphviz version 2.36.0 (20140111.2315)
 -->
<!-- Title: engine.gameRepresentation.evaluatables.actions.Action.identifyParticipantsOfInterest Pages: 1 -->
<svg width="556pt" height="185pt"
 viewBox="0.00 0.00 556.00 185.00" xmlns="http://www.w3.org/2000/svg" xmlns:xlink="http://www.w3.org/1999/xlink">
<g id="graph0" class="graph" transform="scale(1 1) rotate(0) translate(4 181)">
<title>engine.gameRepresentation.evaluatables.actions.Action.identifyParticipantsOfInterest</title>
<polygon fill="white" stroke="none" points="-4,4 -4,-181 552,-181 552,4 -4,4"/>
<!-- Node1 -->
<g id="node1" class="node"><title>Node1</title>
<polygon fill="#bfbfbf" stroke="black" points="0,-73 0,-103 256,-103 256,-73 0,-73"/>
<text text-anchor="start" x="8" y="-91" font-family="Helvetica,sans-Serif" font-size="10.00">engine.gameRepresentation.evaluatables.actions.</text>
<text text-anchor="middle" x="128" y="-80" font-family="Helvetica,sans-Serif" font-size="10.00">Action.identifyParticipantsOfInterest</text>
</g>
<!-- Node2 -->
<g id="node2" class="node"><title>Node2</title>
<g id="a_node2"><a xlink:href="../../d5/d05/classengine_1_1game_representation_1_1evaluatables_1_1actions_1_1_player_stats_check_action.html#a12a9a90c445d8f155dcb1fc449b1a95e" target="_top" xlink:title="engine.gameRepresentation.evaluatables.actions.\lPlayerStatsCheckAction.initializeAction">
<polygon fill="white" stroke="black" points="292,-147 292,-177 548,-177 548,-147 292,-147"/>
<text text-anchor="start" x="300" y="-165" font-family="Helvetica,sans-Serif" font-size="10.00">engine.gameRepresentation.evaluatables.actions.</text>
<text text-anchor="middle" x="420" y="-154" font-family="Helvetica,sans-Serif" font-size="10.00">PlayerStatsCheckAction.initializeAction</text>
</a>
</g>
</g>
<!-- Node1&#45;&gt;Node2 -->
<g id="edge1" class="edge"><title>Node1&#45;&gt;Node2</title>
<path fill="none" stroke="midnightblue" d="M184.546,-106.167C215.89,-116.048 255.898,-128.043 292,-137 306.286,-140.544 321.575,-143.912 336.42,-146.96"/>
<polygon fill="midnightblue" stroke="midnightblue" points="185.279,-102.728 174.689,-103.04 183.163,-109.4 185.279,-102.728"/>
</g>
<!-- Node3 -->
<g id="node3" class="node"><title>Node3</title>
<g id="a_node3"><a xlink:href="../../da/d0b/classengine_1_1game_representation_1_1evaluatables_1_1actions_1_1_player_attribute_interaction_action.html#a8476d092a94ff45cd6ed633bdba42269" target="_top" xlink:title="engine.gameRepresentation.evaluatables.actions.\lPlayerAttributeInteractionAction.initializeAction">
<polygon fill="white" stroke="black" points="292,-98 292,-128 548,-128 548,-98 292,-98"/>
<text text-anchor="start" x="300" y="-116" font-family="Helvetica,sans-Serif" font-size="10.00">engine.gameRepresentation.evaluatables.actions.</text>
<text text-anchor="middle" x="420" y="-105" font-family="Helvetica,sans-Serif" font-size="10.00">PlayerAttributeInteractionAction.initializeAction</text>
</a>
</g>
</g>
<!-- Node1&#45;&gt;Node3 -->
<g id="edge2" class="edge"><title>Node1&#45;&gt;Node3</title>
<path fill="none" stroke="midnightblue" d="M266.245,-99.8315C274.824,-100.571 283.439,-101.314 291.97,-102.049"/>
<polygon fill="midnightblue" stroke="midnightblue" points="266.462,-96.3373 256.198,-98.9654 265.861,-103.311 266.462,-96.3373"/>
</g>
<!-- Node4 -->
<g id="node4" class="node"><title>Node4</title>
<g id="a_node4"><a xlink:href="../../d8/d35/classengine_1_1game_representation_1_1evaluatables_1_1actions_1_1_object_type_check_action.html#a3cdfa7f74847c6305fd220053318e848" target="_top" xlink:title="engine.gameRepresentation.evaluatables.actions.\lObjectTypeCheckAction.initializeAction">
<polygon fill="white" stroke="black" points="292,-49 292,-79 548,-79 548,-49 292,-49"/>
<text text-anchor="start" x="300" y="-67" font-family="Helvetica,sans-Serif" font-size="10.00">engine.gameRepresentation.evaluatables.actions.</text>
<text text-anchor="middle" x="420" y="-56" font-family="Helvetica,sans-Serif" font-size="10.00">ObjectTypeCheckAction.initializeAction</text>
</a>
</g>
</g>
<!-- Node1&#45;&gt;Node4 -->
<g id="edge3" class="edge"><title>Node1&#45;&gt;Node4</title>
<path fill="none" stroke="midnightblue" d="M266.245,-76.6418C274.824,-75.9318 283.439,-75.2188 291.97,-74.5128"/>
<polygon fill="midnightblue" stroke="midnightblue" points="265.875,-73.1603 256.198,-77.4733 266.453,-80.1365 265.875,-73.1603"/>
</g>
<!-- Node5 -->
<g id="node5" class="node"><title>Node5</title>
<g id="a_node5"><a xlink:href="../../d8/d98/classengine_1_1game_representation_1_1evaluatables_1_1actions_1_1_mother_of_all_actions.html#a6e86f80b215f12de071eeaf784820c79" target="_top" xlink:title="engine.gameRepresentation.evaluatables.actions.\lMotherOfAllActions.initializeAction">
<polygon fill="white" stroke="black" points="292,-0 292,-30 548,-30 548,-0 292,-0"/>
<text text-anchor="start" x="300" y="-18" font-family="Helvetica,sans-Serif" font-size="10.00">engine.gameRepresentation.evaluatables.actions.</text>
<text text-anchor="middle" x="420" y="-7" font-family="Helvetica,sans-Serif" font-size="10.00">MotherOfAllActions.initializeAction</text>
</a>
</g>
</g>
<!-- Node1&#45;&gt;Node5 -->
<g id="edge4" class="edge"><title>Node1&#45;&gt;Node5</title>
<path fill="none" stroke="midnightblue" d="M185.587,-69.9425C216.786,-60.3398 256.322,-48.7453 292,-40 306.405,-36.4692 321.824,-33.0972 336.776,-30.0369"/>
<polygon fill="midnightblue" stroke="midnightblue" points="184.283,-66.6823 175.766,-72.9842 186.354,-73.369 184.283,-66.6823"/>
</g>
</g>
</svg>
