<?xml version="1.0" encoding="UTF-8" standalone="no"?>
<!DOCTYPE svg PUBLIC "-//W3C//DTD SVG 1.1//EN"
 "http://www.w3.org/Graphics/SVG/1.1/DTD/svg11.dtd">
<!-- Generated by graphviz version 2.36.0 (20140111.2315)
 -->
<!-- Title: engine.gameRepresentation.evaluatables.actions.Action.makeObjectIdentifier Pages: 1 -->
<svg width="556pt" height="87pt"
 viewBox="0.00 0.00 556.00 87.00" xmlns="http://www.w3.org/2000/svg" xmlns:xlink="http://www.w3.org/1999/xlink">
<g id="graph0" class="graph" transform="scale(1 1) rotate(0) translate(4 83)">
<title>engine.gameRepresentation.evaluatables.actions.Action.makeObjectIdentifier</title>
<polygon fill="white" stroke="none" points="-4,4 -4,-83 552,-83 552,4 -4,4"/>
<!-- Node1 -->
<g id="node1" class="node"><title>Node1</title>
<polygon fill="#bfbfbf" stroke="black" points="0,-24 0,-54 256,-54 256,-24 0,-24"/>
<text text-anchor="start" x="8" y="-42" font-family="Helvetica,sans-Serif" font-size="10.00">engine.gameRepresentation.evaluatables.actions.</text>
<text text-anchor="middle" x="128" y="-31" font-family="Helvetica,sans-Serif" font-size="10.00">Action.makeObjectIdentifier</text>
</g>
<!-- Node2 -->
<g id="node2" class="node"><title>Node2</title>
<g id="a_node2"><a xlink:href="../../d2/d86/classengine_1_1game_representation_1_1evaluatables_1_1actions_1_1_check_attribute_set_attribute_action.html#a4da096fc617882eb498d7643218e8d14" target="_top" xlink:title="engine.gameRepresentation.evaluatables.actions.\lCheckAttributeSetAttributeAction.initializeAction">
<polygon fill="white" stroke="black" points="292,-49 292,-79 548,-79 548,-49 292,-49"/>
<text text-anchor="start" x="300" y="-67" font-family="Helvetica,sans-Serif" font-size="10.00">engine.gameRepresentation.evaluatables.actions.</text>
<text text-anchor="middle" x="420" y="-56" font-family="Helvetica,sans-Serif" font-size="10.00">CheckAttributeSetAttributeAction.initializeAction</text>
</a>
</g>
</g>
<!-- Node1&#45;&gt;Node2 -->
<g id="edge1" class="edge"><title>Node1&#45;&gt;Node2</title>
<path fill="none" stroke="midnightblue" d="M266.245,-50.8315C274.824,-51.571 283.439,-52.3137 291.97,-53.0491"/>
<polygon fill="midnightblue" stroke="midnightblue" points="266.462,-47.3373 256.198,-49.9654 265.861,-54.3114 266.462,-47.3373"/>
</g>
<!-- Node3 -->
<g id="node3" class="node"><title>Node3</title>
<g id="a_node3"><a xlink:href="../../d8/d98/classengine_1_1game_representation_1_1evaluatables_1_1actions_1_1_mother_of_all_actions.html#a6e86f80b215f12de071eeaf784820c79" target="_top" xlink:title="engine.gameRepresentation.evaluatables.actions.\lMotherOfAllActions.initializeAction">
<polygon fill="white" stroke="black" points="292,-0 292,-30 548,-30 548,-0 292,-0"/>
<text text-anchor="start" x="300" y="-18" font-family="Helvetica,sans-Serif" font-size="10.00">engine.gameRepresentation.evaluatables.actions.</text>
<text text-anchor="middle" x="420" y="-7" font-family="Helvetica,sans-Serif" font-size="10.00">MotherOfAllActions.initializeAction</text>
</a>
</g>
</g>
<!-- Node1&#45;&gt;Node3 -->
<g id="edge2" class="edge"><title>Node1&#45;&gt;Node3</title>
<path fill="none" stroke="midnightblue" d="M266.245,-27.6418C274.824,-26.9318 283.439,-26.2188 291.97,-25.5128"/>
<polygon fill="midnightblue" stroke="midnightblue" points="265.875,-24.1603 256.198,-28.4733 266.453,-31.1365 265.875,-24.1603"/>
</g>
</g>
</svg>
