<?xml version="1.0" encoding="UTF-8" standalone="no"?>
<!DOCTYPE svg PUBLIC "-//W3C//DTD SVG 1.1//EN"
 "http://www.w3.org/Graphics/SVG/1.1/DTD/svg11.dtd">
<!-- Generated by graphviz version 2.36.0 (20140111.2315)
 -->
<!-- Title: util.LoadSaveUtility.obtainFile Pages: 1 -->
<svg width="570pt" height="87pt"
 viewBox="0.00 0.00 570.00 87.00" xmlns="http://www.w3.org/2000/svg" xmlns:xlink="http://www.w3.org/1999/xlink">
<g id="graph0" class="graph" transform="scale(1 1) rotate(0) translate(4 83)">
<title>util.LoadSaveUtility.obtainFile</title>
<polygon fill="white" stroke="none" points="-4,4 -4,-83 566,-83 566,4 -4,4"/>
<!-- Node1 -->
<g id="node1" class="node"><title>Node1</title>
<polygon fill="#bfbfbf" stroke="black" points="0.5,-27.5 0.5,-46.5 155.5,-46.5 155.5,-27.5 0.5,-27.5"/>
<text text-anchor="middle" x="78" y="-34.5" font-family="Helvetica,sans-Serif" font-size="10.00">util.LoadSaveUtility.obtainFile</text>
</g>
<!-- Node2 -->
<g id="node2" class="node"><title>Node2</title>
<g id="a_node2"><a xlink:href="../../da/d1c/classutil_1_1_load_save_utility.html#a2966611cc63fcbcc53ed8913193f1c28" target="_top" xlink:title="util.LoadSaveUtility.save">
<polygon fill="white" stroke="black" points="192,-49.5 192,-68.5 324,-68.5 324,-49.5 192,-49.5"/>
<text text-anchor="middle" x="258" y="-56.5" font-family="Helvetica,sans-Serif" font-size="10.00">util.LoadSaveUtility.save</text>
</a>
</g>
</g>
<!-- Node1&#45;&gt;Node2 -->
<g id="edge1" class="edge"><title>Node1&#45;&gt;Node2</title>
<path fill="none" stroke="midnightblue" d="M165.466,-47.6868C174.304,-48.7791 183.175,-49.8755 191.73,-50.9329"/>
<polygon fill="midnightblue" stroke="midnightblue" points="165.875,-44.2108 155.521,-46.4577 165.016,-51.1579 165.875,-44.2108"/>
</g>
<!-- Node5 -->
<g id="node5" class="node"><title>Node5</title>
<g id="a_node5"><a xlink:href="../../da/d1c/classutil_1_1_load_save_utility.html#a88556209c043496c598f1d50e656bd6b" target="_top" xlink:title="util.LoadSaveUtility.save\lImage">
<polygon fill="white" stroke="black" points="192,-0 192,-30 324,-30 324,-0 192,-0"/>
<text text-anchor="start" x="200" y="-18" font-family="Helvetica,sans-Serif" font-size="10.00">util.LoadSaveUtility.save</text>
<text text-anchor="middle" x="258" y="-7" font-family="Helvetica,sans-Serif" font-size="10.00">Image</text>
</a>
</g>
</g>
<!-- Node1&#45;&gt;Node5 -->
<g id="edge4" class="edge"><title>Node1&#45;&gt;Node5</title>
<path fill="none" stroke="midnightblue" d="M165.466,-26.3132C174.304,-25.2209 183.175,-24.1245 191.73,-23.0671"/>
<polygon fill="midnightblue" stroke="midnightblue" points="165.016,-22.8421 155.521,-27.5423 165.875,-29.7892 165.016,-22.8421"/>
</g>
<!-- Node3 -->
<g id="node3" class="node"><title>Node3</title>
<g id="a_node3"><a xlink:href="../../d9/dd2/classresources_1_1processing_1_1_sprite_sheet_creation_utility.html#ae6cfdcbbcc6c6eb2f12aefded0c6337f" target="_top" xlink:title="resources.processing.Sprite\lSheetCreationUtility.createSpriteSheet">
<polygon fill="white" stroke="black" points="360,-49 360,-79 562,-79 562,-49 360,-49"/>
<text text-anchor="start" x="368" y="-67" font-family="Helvetica,sans-Serif" font-size="10.00">resources.processing.Sprite</text>
<text text-anchor="middle" x="461" y="-56" font-family="Helvetica,sans-Serif" font-size="10.00">SheetCreationUtility.createSpriteSheet</text>
</a>
</g>
</g>
<!-- Node2&#45;&gt;Node3 -->
<g id="edge2" class="edge"><title>Node2&#45;&gt;Node3</title>
<path fill="none" stroke="midnightblue" d="M334.53,-60.8788C342.753,-61.0834 351.214,-61.2939 359.674,-61.5043"/>
<polygon fill="midnightblue" stroke="midnightblue" points="334.343,-57.3732 324.259,-60.6234 334.169,-64.371 334.343,-57.3732"/>
</g>
<!-- Node4 -->
<g id="node4" class="node"><title>Node4</title>
<g id="a_node4"><a xlink:href="../../d0/d77/classtest_1_1util_1_1_test_load_save_utility.html#a87a3aa8513ac030caf7bf4c3c45d133c" target="_top" xlink:title="test.util.TestLoadSaveUtility.test\lLoadFunction">
<polygon fill="white" stroke="black" points="376.5,-0 376.5,-30 545.5,-30 545.5,-0 376.5,-0"/>
<text text-anchor="start" x="384.5" y="-18" font-family="Helvetica,sans-Serif" font-size="10.00">test.util.TestLoadSaveUtility.test</text>
<text text-anchor="middle" x="461" y="-7" font-family="Helvetica,sans-Serif" font-size="10.00">LoadFunction</text>
</a>
</g>
</g>
<!-- Node2&#45;&gt;Node4 -->
<g id="edge3" class="edge"><title>Node2&#45;&gt;Node4</title>
<path fill="none" stroke="midnightblue" d="M312.642,-47.2576C336.754,-41.9793 365.503,-35.686 391.179,-30.0654"/>
<polygon fill="midnightblue" stroke="midnightblue" points="311.634,-43.8951 302.614,-49.4527 313.131,-50.7332 311.634,-43.8951"/>
</g>
<!-- Node5&#45;&gt;Node4 -->
<g id="edge5" class="edge"><title>Node5&#45;&gt;Node4</title>
<path fill="none" stroke="midnightblue" d="M334.552,-15C348.202,-15 362.508,-15 376.374,-15"/>
<polygon fill="midnightblue" stroke="midnightblue" points="334.259,-11.5001 324.259,-15 334.259,-18.5001 334.259,-11.5001"/>
</g>
</g>
</svg>
