<?xml version="1.0" encoding="UTF-8" standalone="no"?>
<!DOCTYPE svg PUBLIC "-//W3C//DTD SVG 1.1//EN"
 "http://www.w3.org/Graphics/SVG/1.1/DTD/svg11.dtd">
<!-- Generated by graphviz version 2.36.0 (20140111.2315)
 -->
<!-- Title: view.editor.wizards.CRUDContainer Pages: 1 -->
<!--zoomable 346 -->
<svg id="main" version="1.1" xmlns="http://www.w3.org/2000/svg" xmlns:xlink="http://www.w3.org/1999/xlink" xml:space="preserve" onload="init(evt)">
<style type="text/css"><![CDATA[
.edge:hover path { stroke: red; }
.edge:hover polygon { stroke: red; fill: red; }
]]></style>
<script type="text/javascript"><![CDATA[
var edges = document.getElementsByTagName('g');
if (edges && edges.length) {
  for (var i=0;i<edges.length;i++) {
    if (edges[i].id.substr(0,4)=='edge') {
      edges[i].setAttribute('class','edge');
    }
  }
}
]]></script>
        <defs>
                <circle id="rim" cx="0" cy="0" r="7"/>
                <circle id="rim2" cx="0" cy="0" r="3.5"/>
                <g id="zoomPlus">
                        <use xlink:href="#rim" fill="#404040">
                                <set attributeName="fill" to="#808080" begin="zoomplus.mouseover" end="zoomplus.mouseout"/>
                        </use>
                        <path d="M-4,0h8M0,-4v8" fill="none" stroke="white" stroke-width="1.5" pointer-events="none"/>
                </g>
                <g id="zoomMin">
                        <use xlink:href="#rim" fill="#404040">
                                <set attributeName="fill" to="#808080" begin="zoomminus.mouseover" end="zoomminus.mouseout"/>
                        </use>
                        <path d="M-4,0h8" fill="none" stroke="white" stroke-width="1.5" pointer-events="none"/>
                </g>
                <g id="dirArrow">
                        <path fill="none" stroke="white" stroke-width="1.5" d="M0,-3.0v7 M-2.5,-0.5L0,-3.0L2.5,-0.5"/>
                </g>
               <g id="resetDef">
                       <use xlink:href="#rim2" fill="#404040">
                               <set attributeName="fill" to="#808080" begin="reset.mouseover" end="reset.mouseout"/>
                       </use>
               </g>
        </defs>

<script type="text/javascript">
var viewWidth = 510;
var viewHeight = 346;
var sectionId = 'dynsection-1';
</script>
<script xlink:href="../../svgpan.js"/>
<svg id="graph" class="graph">
<g id="viewport">
<title>view.editor.wizards.CRUDContainer</title>
<polygon fill="white" stroke="none" points="-4,4 -4,-342 506,-342 506,4 -4,4"/>
<!-- Node1 -->
<g id="node1" class="node"><title>Node1</title>
<polygon fill="#bfbfbf" stroke="black" points="320,-166.5 320,-185.5 502,-185.5 502,-166.5 320,-166.5"/>
<text text-anchor="middle" x="411" y="-173.5" font-family="Helvetica,sans-Serif" font-size="10.00">view.editor.wizards.CRUDContainer</text>
</g>
<!-- Node2 -->
<g id="node2" class="node"><title>Node2</title>
<g id="a_node2"><a xlink:href="../../d5/d13/interfaceview_1_1gui_1_1_g_u_i_controller.html" target="_top" xlink:title="view.gui.GUIController">
<polygon fill="white" stroke="black" points="24,-318.5 24,-337.5 144,-337.5 144,-318.5 24,-318.5"/>
<text text-anchor="middle" x="84" y="-325.5" font-family="Helvetica,sans-Serif" font-size="10.00">view.gui.GUIController</text>
</a>
</g>
</g>
<!-- Node2&#45;&gt;Node1 -->
<g id="edge1" class="edge"><title>Node2&#45;&gt;Node1</title>
<path fill="none" stroke="midnightblue" d="M154.382,-334.005C199.013,-334.83 256.883,-330.024 302,-306 355.352,-277.59 392.773,-210.725 405.355,-185.689"/>
<polygon fill="midnightblue" stroke="midnightblue" points="154.301,-330.501 144.206,-333.716 154.102,-337.499 154.301,-330.501"/>
</g>
<!-- Node3 -->
<g id="node3" class="node"><title>Node3</title>
<g id="a_node3"><a xlink:href="../../d8/d35/enumview_1_1gui_1_1_g_u_i_pane_path.html" target="_top" xlink:title="view.gui.GUIPanePath">
<polygon fill="white" stroke="black" points="25,-280.5 25,-299.5 143,-299.5 143,-280.5 25,-280.5"/>
<text text-anchor="middle" x="84" y="-287.5" font-family="Helvetica,sans-Serif" font-size="10.00">view.gui.GUIPanePath</text>
</a>
</g>
</g>
<!-- Node3&#45;&gt;Node1 -->
<g id="edge2" class="edge"><title>Node3&#45;&gt;Node1</title>
<path fill="none" stroke="#9a32cd" stroke-dasharray="5,2" d="M153.046,-291.948C197.128,-290.885 254.89,-285.028 302,-265 345.601,-246.464 385.442,-204.527 401.953,-185.594"/>
<polygon fill="#9a32cd" stroke="#9a32cd" points="152.946,-288.449 143.005,-292.114 153.061,-295.448 152.946,-288.449"/>
<text text-anchor="middle" x="244" y="-294" font-family="Helvetica,sans-Serif" font-size="10.00"> myPath</text>
</g>
<!-- Node4 -->
<g id="node4" class="node"><title>Node4</title>
<polygon fill="white" stroke="#bfbfbf" points="63.5,-241.5 63.5,-260.5 104.5,-260.5 104.5,-241.5 63.5,-241.5"/>
<text text-anchor="middle" x="84" y="-248.5" font-family="Helvetica,sans-Serif" font-size="10.00">VBox</text>
</g>
<!-- Node4&#45;&gt;Node1 -->
<g id="edge3" class="edge"><title>Node4&#45;&gt;Node1</title>
<path fill="none" stroke="#9a32cd" stroke-dasharray="5,2" d="M114.883,-248.298C157.103,-244.037 236.387,-234.393 302,-217 333.018,-208.778 367.451,-194.818 388.914,-185.504"/>
<polygon fill="#9a32cd" stroke="#9a32cd" points="114.345,-244.834 104.733,-249.291 115.026,-251.801 114.345,-244.834"/>
<text text-anchor="middle" x="244" y="-253" font-family="Helvetica,sans-Serif" font-size="10.00"> root</text>
<text text-anchor="middle" x="244" y="-242" font-family="Helvetica,sans-Serif" font-size="10.00">existing</text>
</g>
<!-- Node5 -->
<g id="node5" class="node"><title>Node5</title>
<polygon fill="white" stroke="#bfbfbf" points="0,-203.5 0,-222.5 168,-222.5 168,-203.5 0,-203.5"/>
<text text-anchor="middle" x="84" y="-210.5" font-family="Helvetica,sans-Serif" font-size="10.00">List&lt; model.data.WizardData &gt;</text>
</g>
<!-- Node5&#45;&gt;Node1 -->
<g id="edge4" class="edge"><title>Node5&#45;&gt;Node1</title>
<path fill="none" stroke="#9a32cd" stroke-dasharray="5,2" d="M178.341,-202.876C216.666,-198.667 261.473,-193.68 302,-189 311.568,-187.895 321.61,-186.714 331.557,-185.532"/>
<polygon fill="#9a32cd" stroke="#9a32cd" points="177.789,-199.415 168.23,-203.985 178.552,-206.374 177.789,-199.415"/>
<text text-anchor="middle" x="244" y="-205" font-family="Helvetica,sans-Serif" font-size="10.00"> myWizardDatas</text>
</g>
<!-- Node6 -->
<g id="node6" class="node"><title>Node6</title>
<polygon fill="white" stroke="#bfbfbf" points="42,-165.5 42,-184.5 126,-184.5 126,-165.5 42,-165.5"/>
<text text-anchor="middle" x="84" y="-172.5" font-family="Helvetica,sans-Serif" font-size="10.00">List&lt; String &gt;</text>
</g>
<!-- Node6&#45;&gt;Node1 -->
<g id="edge5" class="edge"><title>Node6&#45;&gt;Node1</title>
<path fill="none" stroke="#9a32cd" stroke-dasharray="5,2" d="M136.235,-175.158C185.371,-175.309 260.616,-175.54 319.795,-175.722"/>
<polygon fill="#9a32cd" stroke="#9a32cd" points="136.172,-171.658 126.161,-175.127 136.151,-178.658 136.172,-171.658"/>
<text text-anchor="middle" x="244" y="-179" font-family="Helvetica,sans-Serif" font-size="10.00"> myGlobals</text>
</g>
<!-- Node7 -->
<g id="node7" class="node"><title>Node7</title>
<polygon fill="white" stroke="#bfbfbf" points="59.5,-127.5 59.5,-146.5 108.5,-146.5 108.5,-127.5 59.5,-127.5"/>
<text text-anchor="middle" x="84" y="-134.5" font-family="Helvetica,sans-Serif" font-size="10.00">Button</text>
</g>
<!-- Node7&#45;&gt;Node1 -->
<g id="edge6" class="edge"><title>Node7&#45;&gt;Node1</title>
<path fill="none" stroke="#9a32cd" stroke-dasharray="5,2" d="M118.915,-140.456C161.65,-144.878 237.334,-152.935 302,-161 315.431,-162.675 329.784,-164.585 343.497,-166.467"/>
<polygon fill="#9a32cd" stroke="#9a32cd" points="119.093,-136.955 108.787,-139.412 118.375,-143.919 119.093,-136.955"/>
<text text-anchor="middle" x="244" y="-164" font-family="Helvetica,sans-Serif" font-size="10.00"> add</text>
</g>
<!-- Node8 -->
<g id="node8" class="node"><title>Node8</title>
<polygon fill="white" stroke="#bfbfbf" points="50,-88.5 50,-107.5 118,-107.5 118,-88.5 50,-88.5"/>
<text text-anchor="middle" x="84" y="-95.5" font-family="Helvetica,sans-Serif" font-size="10.00">Dimension</text>
</g>
<!-- Node8&#45;&gt;Node1 -->
<g id="edge7" class="edge"><title>Node8&#45;&gt;Node1</title>
<path fill="none" stroke="#9a32cd" stroke-dasharray="5,2" d="M128.219,-98.3258C172.656,-99.6855 243.439,-104.722 302,-122 337.186,-132.381 374.735,-153.804 394.973,-166.321"/>
<polygon fill="#9a32cd" stroke="#9a32cd" points="128.146,-94.8229 118.059,-98.0652 127.966,-101.821 128.146,-94.8229"/>
<text text-anchor="middle" x="244" y="-136" font-family="Helvetica,sans-Serif" font-size="10.00"> DEFAULT_WIZARD_SIZE</text>
<text text-anchor="middle" x="244" y="-125" font-family="Helvetica,sans-Serif" font-size="10.00">myDim</text>
</g>
<!-- Node9 -->
<g id="node9" class="node"><title>Node9</title>
<polygon fill="white" stroke="#bfbfbf" points="12.5,-39 12.5,-69 155.5,-69 155.5,-39 12.5,-39"/>
<text text-anchor="start" x="20.5" y="-57" font-family="Helvetica,sans-Serif" font-size="10.00">BiConsumer&lt; Button,</text>
<text text-anchor="middle" x="84" y="-46" font-family="Helvetica,sans-Serif" font-size="10.00"> model.data.WizardData &gt;</text>
</g>
<!-- Node9&#45;&gt;Node1 -->
<g id="edge8" class="edge"><title>Node9&#45;&gt;Node1</title>
<path fill="none" stroke="#9a32cd" stroke-dasharray="5,2" d="M165.78,-56.5789C207.895,-60.381 259.371,-68.9852 302,-88 344.852,-107.114 384.778,-147.795 401.605,-166.379"/>
<polygon fill="#9a32cd" stroke="#9a32cd" points="165.818,-53.0702 155.563,-55.7333 165.24,-60.0463 165.818,-53.0702"/>
<text text-anchor="middle" x="244" y="-91" font-family="Helvetica,sans-Serif" font-size="10.00"> myTextConsumer</text>
</g>
<!-- Node10 -->
<g id="node10" class="node"><title>Node10</title>
<polygon fill="white" stroke="#bfbfbf" points="36.5,-0.5 36.5,-19.5 131.5,-19.5 131.5,-0.5 36.5,-0.5"/>
<text text-anchor="middle" x="84" y="-7.5" font-family="Helvetica,sans-Serif" font-size="10.00">BooleanSupplier</text>
</g>
<!-- Node10&#45;&gt;Node1 -->
<g id="edge9" class="edge"><title>Node10&#45;&gt;Node1</title>
<path fill="none" stroke="#9a32cd" stroke-dasharray="5,2" d="M141.864,-8.06369C187.904,-8.93851 252.935,-15.8915 302,-44 354.926,-74.3206 392.607,-141.317 405.307,-166.331"/>
<polygon fill="#9a32cd" stroke="#9a32cd" points="141.794,-4.56292 131.76,-7.96298 141.724,-11.5626 141.794,-4.56292"/>
<text text-anchor="middle" x="244" y="-47" font-family="Helvetica,sans-Serif" font-size="10.00"> valid</text>
</g>
</g>
</svg>
        <g id="navigator" transform="translate(0 0)" fill="#404254">
                <rect fill="#f2f5e9" fill-opacity="0.5" stroke="#606060" stroke-width=".5" x="0" y="0" width="60" height="60"/>
                <use id="zoomplus" xlink:href="#zoomPlus" x="17" y="9" onmousedown="handleZoom(evt,'in')"/>
                <use id="zoomminus" xlink:href="#zoomMin" x="42" y="9" onmousedown="handleZoom(evt,'out')"/>
                <use id="reset" xlink:href="#resetDef" x="30" y="36" onmousedown="handleReset()"/>
                <g id="arrowUp" xlink:href="#dirArrow" transform="translate(30 24)" onmousedown="handlePan(0,-1)">
                  <use xlink:href="#rim" fill="#404040">
                        <set attributeName="fill" to="#808080" begin="arrowUp.mouseover" end="arrowUp.mouseout"/>
                  </use>
                  <path fill="none" stroke="white" stroke-width="1.5" d="M0,-3.0v7 M-2.5,-0.5L0,-3.0L2.5,-0.5"/>
                </g>
                <g id="arrowRight" xlink:href="#dirArrow" transform="rotate(90) translate(36 -43)" onmousedown="handlePan(1,0)">
                  <use xlink:href="#rim" fill="#404040">
                        <set attributeName="fill" to="#808080" begin="arrowRight.mouseover" end="arrowRight.mouseout"/>
                  </use>
                  <path fill="none" stroke="white" stroke-width="1.5" d="M0,-3.0v7 M-2.5,-0.5L0,-3.0L2.5,-0.5"/>
                </g>
                <g id="arrowDown" xlink:href="#dirArrow" transform="rotate(180) translate(-30 -48)" onmousedown="handlePan(0,1)">
                  <use xlink:href="#rim" fill="#404040">
                        <set attributeName="fill" to="#808080" begin="arrowDown.mouseover" end="arrowDown.mouseout"/>
                  </use>
                  <path fill="none" stroke="white" stroke-width="1.5" d="M0,-3.0v7 M-2.5,-0.5L0,-3.0L2.5,-0.5"/>
                </g>
                <g id="arrowLeft" xlink:href="#dirArrow" transform="rotate(270) translate(-36 17)" onmousedown="handlePan(-1,0)">
                  <use xlink:href="#rim" fill="#404040">
                        <set attributeName="fill" to="#808080" begin="arrowLeft.mouseover" end="arrowLeft.mouseout"/>
                  </use>
                  <path fill="none" stroke="white" stroke-width="1.5" d="M0,-3.0v7 M-2.5,-0.5L0,-3.0L2.5,-0.5"/>
                </g>
        </g>
        <svg viewBox="0 0 15 15" width="100%" height="30px" preserveAspectRatio="xMaxYMin meet">
         <g id="arrow_out" transform="scale(0.3 0.3)">
          <a xlink:href="classview_1_1editor_1_1wizards_1_1_c_r_u_d_container__coll__graph_org.svg" target="_base">
           <rect id="button" ry="5" rx="5" y="6" x="6" height="38" width="38"
                fill="#f2f5e9" fill-opacity="0.5" stroke="#606060" stroke-width="1.0"/>
           <path id="arrow"
             d="M 11.500037,31.436501 C 11.940474,20.09759 22.043105,11.32322 32.158766,21.979434 L 37.068811,17.246167 C 37.068811,17.246167 37.088388,32 37.088388,32 L 22.160133,31.978069 C 22.160133,31.978069 26.997745,27.140456 26.997745,27.140456 C 18.528582,18.264221 13.291696,25.230495 11.500037,31.436501 z"
             style="fill:#404040;"/>
          </a>
         </g>
        </svg>
</svg>
