<?xml version="1.0" encoding="UTF-8" standalone="no"?>
<!DOCTYPE svg PUBLIC "-//W3C//DTD SVG 1.1//EN"
 "http://www.w3.org/Graphics/SVG/1.1/DTD/svg11.dtd">
<!-- Generated by graphviz version 2.36.0 (20140111.2315)
 -->
<!-- Title: game_engine.gameRepresentation.conditions.ElementPair Pages: 1 -->
<!--zoomable 157 -->
<svg id="main" version="1.1" xmlns="http://www.w3.org/2000/svg" xmlns:xlink="http://www.w3.org/1999/xlink" xml:space="preserve" onload="init(evt)">
<style type="text/css"><![CDATA[
.edge:hover path { stroke: red; }
.edge:hover polygon { stroke: red; fill: red; }
]]></style>
<script type="text/javascript"><![CDATA[
var edges = document.getElementsByTagName('g');
if (edges && edges.length) {
  for (var i=0;i<edges.length;i++) {
    if (edges[i].id.substr(0,4)=='edge') {
      edges[i].setAttribute('class','edge');
    }
  }
}
]]></script>
        <defs>
                <circle id="rim" cx="0" cy="0" r="7"/>
                <circle id="rim2" cx="0" cy="0" r="3.5"/>
                <g id="zoomPlus">
                        <use xlink:href="#rim" fill="#404040">
                                <set attributeName="fill" to="#808080" begin="zoomplus.mouseover" end="zoomplus.mouseout"/>
                        </use>
                        <path d="M-4,0h8M0,-4v8" fill="none" stroke="white" stroke-width="1.5" pointer-events="none"/>
                </g>
                <g id="zoomMin">
                        <use xlink:href="#rim" fill="#404040">
                                <set attributeName="fill" to="#808080" begin="zoomminus.mouseover" end="zoomminus.mouseout"/>
                        </use>
                        <path d="M-4,0h8" fill="none" stroke="white" stroke-width="1.5" pointer-events="none"/>
                </g>
                <g id="dirArrow">
                        <path fill="none" stroke="white" stroke-width="1.5" d="M0,-3.0v7 M-2.5,-0.5L0,-3.0L2.5,-0.5"/>
                </g>
               <g id="resetDef">
                       <use xlink:href="#rim2" fill="#404040">
                               <set attributeName="fill" to="#808080" begin="reset.mouseover" end="reset.mouseout"/>
                       </use>
               </g>
        </defs>

<script type="text/javascript">
var viewWidth = 1080;
var viewHeight = 157;
var sectionId = 'dynsection-0';
</script>
<script xlink:href="../../svgpan.js"/>
<svg id="graph" class="graph">
<g id="viewport">
<title>game_engine.gameRepresentation.conditions.ElementPair</title>
<polygon fill="white" stroke="none" points="-4,4 -4,-153 1076,-153 1076,4 -4,4"/>
<!-- Node1 -->
<g id="node1" class="node"><title>Node1</title>
<polygon fill="#bfbfbf" stroke="black" points="832.5,-59 832.5,-89 1071.5,-89 1071.5,-59 832.5,-59"/>
<text text-anchor="start" x="840.5" y="-77" font-family="Helvetica,sans-Serif" font-size="10.00">game_engine.gameRepresentation.conditions.</text>
<text text-anchor="middle" x="952" y="-66" font-family="Helvetica,sans-Serif" font-size="10.00">ElementPair</text>
</g>
<!-- Node2 -->
<g id="node2" class="node"><title>Node2</title>
<g id="a_node2"><a xlink:href="../../dc/d2d/classgame__engine_1_1game_representation_1_1state_representation_1_1game_element_1_1_game_element_state.html" target="_top" xlink:title="game_engine.gameRepresentation.state\lRepresentation.gameElement.GameElementState">
<polygon fill="white" stroke="black" points="494.5,-59 494.5,-89 751.5,-89 751.5,-59 494.5,-59"/>
<text text-anchor="start" x="502.5" y="-77" font-family="Helvetica,sans-Serif" font-size="10.00">game_engine.gameRepresentation.state</text>
<text text-anchor="middle" x="623" y="-66" font-family="Helvetica,sans-Serif" font-size="10.00">Representation.gameElement.GameElementState</text>
</a>
</g>
</g>
<!-- Node2&#45;&gt;Node1 -->
<g id="edge1" class="edge"><title>Node2&#45;&gt;Node1</title>
<path fill="none" stroke="#9a32cd" stroke-dasharray="5,2" d="M762.143,-74C785.489,-74 809.542,-74 832.335,-74"/>
<polygon fill="#9a32cd" stroke="#9a32cd" points="761.832,-70.5001 751.832,-74 761.832,-77.5001 761.832,-70.5001"/>
<text text-anchor="middle" x="792" y="-88" font-family="Helvetica,sans-Serif" font-size="10.00"> myActor</text>
<text text-anchor="middle" x="792" y="-77" font-family="Helvetica,sans-Serif" font-size="10.00">myActee</text>
</g>
<!-- Node3 -->
<g id="node3" class="node"><title>Node3</title>
<polygon fill="white" stroke="#bfbfbf" points="44,-107.5 44,-148.5 284,-148.5 284,-107.5 44,-107.5"/>
<text text-anchor="start" x="52" y="-136.5" font-family="Helvetica,sans-Serif" font-size="10.00">Set&lt; game_engine.gameRepresentation.state</text>
<text text-anchor="start" x="52" y="-125.5" font-family="Helvetica,sans-Serif" font-size="10.00">Representation.gameElement.Attribute</text>
<text text-anchor="middle" x="164" y="-114.5" font-family="Helvetica,sans-Serif" font-size="10.00">&lt; Number &gt; &gt;</text>
</g>
<!-- Node3&#45;&gt;Node2 -->
<g id="edge2" class="edge"><title>Node3&#45;&gt;Node2</title>
<path fill="none" stroke="#9a32cd" stroke-dasharray="5,2" d="M294.141,-112.74C356.921,-105.322 432.127,-96.4358 494.665,-89.0461"/>
<polygon fill="#9a32cd" stroke="#9a32cd" points="293.696,-109.269 284.176,-113.918 294.518,-116.22 293.696,-109.269"/>
<text text-anchor="middle" x="411" y="-108" font-family="Helvetica,sans-Serif" font-size="10.00"> myNumericalAttributes</text>
</g>
<!-- Node4 -->
<g id="node4" class="node"><title>Node4</title>
<polygon fill="white" stroke="#bfbfbf" points="0,-59 0,-89 328,-89 328,-59 0,-59"/>
<text text-anchor="start" x="8" y="-77" font-family="Helvetica,sans-Serif" font-size="10.00">Map&lt; game_engine.gameRepresentation.conditions.</text>
<text text-anchor="middle" x="164" y="-66" font-family="Helvetica,sans-Serif" font-size="10.00">Evaluatable, game_engine.gameRepresentation.actions.Action &gt;</text>
</g>
<!-- Node4&#45;&gt;Node2 -->
<g id="edge3" class="edge"><title>Node4&#45;&gt;Node2</title>
<path fill="none" stroke="#9a32cd" stroke-dasharray="5,2" d="M338.35,-74C390.124,-74 445.915,-74 494.205,-74"/>
<polygon fill="#9a32cd" stroke="#9a32cd" points="338.052,-70.5001 328.052,-74 338.052,-77.5001 338.052,-70.5001"/>
<text text-anchor="middle" x="411" y="-77" font-family="Helvetica,sans-Serif" font-size="10.00"> myConditionActionPairings</text>
</g>
<!-- Node5 -->
<g id="node5" class="node"><title>Node5</title>
<polygon fill="white" stroke="#bfbfbf" points="44,0.5 44,-40.5 284,-40.5 284,0.5 44,0.5"/>
<text text-anchor="start" x="52" y="-28.5" font-family="Helvetica,sans-Serif" font-size="10.00">Set&lt; game_engine.gameRepresentation.state</text>
<text text-anchor="start" x="52" y="-17.5" font-family="Helvetica,sans-Serif" font-size="10.00">Representation.gameElement.Attribute</text>
<text text-anchor="middle" x="164" y="-6.5" font-family="Helvetica,sans-Serif" font-size="10.00">&lt; String &gt; &gt;</text>
</g>
<!-- Node5&#45;&gt;Node2 -->
<g id="edge4" class="edge"><title>Node5&#45;&gt;Node2</title>
<path fill="none" stroke="#9a32cd" stroke-dasharray="5,2" d="M294.141,-35.2596C356.921,-42.6778 432.127,-51.5642 494.665,-58.9539"/>
<polygon fill="#9a32cd" stroke="#9a32cd" points="294.518,-31.7798 284.176,-34.0821 293.696,-38.7315 294.518,-31.7798"/>
<text text-anchor="middle" x="411" y="-59" font-family="Helvetica,sans-Serif" font-size="10.00"> myTextualAttributes</text>
</g>
</g>
</svg>
        <g id="navigator" transform="translate(0 0)" fill="#404254">
                <rect fill="#f2f5e9" fill-opacity="0.5" stroke="#606060" stroke-width=".5" x="0" y="0" width="60" height="60"/>
                <use id="zoomplus" xlink:href="#zoomPlus" x="17" y="9" onmousedown="handleZoom(evt,'in')"/>
                <use id="zoomminus" xlink:href="#zoomMin" x="42" y="9" onmousedown="handleZoom(evt,'out')"/>
                <use id="reset" xlink:href="#resetDef" x="30" y="36" onmousedown="handleReset()"/>
                <g id="arrowUp" xlink:href="#dirArrow" transform="translate(30 24)" onmousedown="handlePan(0,-1)">
                  <use xlink:href="#rim" fill="#404040">
                        <set attributeName="fill" to="#808080" begin="arrowUp.mouseover" end="arrowUp.mouseout"/>
                  </use>
                  <path fill="none" stroke="white" stroke-width="1.5" d="M0,-3.0v7 M-2.5,-0.5L0,-3.0L2.5,-0.5"/>
                </g>
                <g id="arrowRight" xlink:href="#dirArrow" transform="rotate(90) translate(36 -43)" onmousedown="handlePan(1,0)">
                  <use xlink:href="#rim" fill="#404040">
                        <set attributeName="fill" to="#808080" begin="arrowRight.mouseover" end="arrowRight.mouseout"/>
                  </use>
                  <path fill="none" stroke="white" stroke-width="1.5" d="M0,-3.0v7 M-2.5,-0.5L0,-3.0L2.5,-0.5"/>
                </g>
                <g id="arrowDown" xlink:href="#dirArrow" transform="rotate(180) translate(-30 -48)" onmousedown="handlePan(0,1)">
                  <use xlink:href="#rim" fill="#404040">
                        <set attributeName="fill" to="#808080" begin="arrowDown.mouseover" end="arrowDown.mouseout"/>
                  </use>
                  <path fill="none" stroke="white" stroke-width="1.5" d="M0,-3.0v7 M-2.5,-0.5L0,-3.0L2.5,-0.5"/>
                </g>
                <g id="arrowLeft" xlink:href="#dirArrow" transform="rotate(270) translate(-36 17)" onmousedown="handlePan(-1,0)">
                  <use xlink:href="#rim" fill="#404040">
                        <set attributeName="fill" to="#808080" begin="arrowLeft.mouseover" end="arrowLeft.mouseout"/>
                  </use>
                  <path fill="none" stroke="white" stroke-width="1.5" d="M0,-3.0v7 M-2.5,-0.5L0,-3.0L2.5,-0.5"/>
                </g>
        </g>
        <svg viewBox="0 0 15 15" width="100%" height="30px" preserveAspectRatio="xMaxYMin meet">
         <g id="arrow_out" transform="scale(0.3 0.3)">
          <a xlink:href="classgame__engine_1_1game_representation_1_1conditions_1_1_element_pair__coll__graph_org.svg" target="_base">
           <rect id="button" ry="5" rx="5" y="6" x="6" height="38" width="38"
                fill="#f2f5e9" fill-opacity="0.5" stroke="#606060" stroke-width="1.0"/>
           <path id="arrow"
             d="M 11.500037,31.436501 C 11.940474,20.09759 22.043105,11.32322 32.158766,21.979434 L 37.068811,17.246167 C 37.068811,17.246167 37.088388,32 37.088388,32 L 22.160133,31.978069 C 22.160133,31.978069 26.997745,27.140456 26.997745,27.140456 C 18.528582,18.264221 13.291696,25.230495 11.500037,31.436501 z"
             style="fill:#404040;"/>
          </a>
         </g>
        </svg>
</svg>
