<?xml version="1.0" encoding="UTF-8" standalone="no"?>
<!DOCTYPE svg PUBLIC "-//W3C//DTD SVG 1.1//EN"
 "http://www.w3.org/Graphics/SVG/1.1/DTD/svg11.dtd">
<!-- Generated by graphviz version 2.36.0 (20140111.2315)
 -->
<!-- Title: game_engine.gameRepresentation.conditions.ElementPair Pages: 1 -->
<svg width="1080pt" height="157pt"
 viewBox="0.00 0.00 1080.00 157.00" xmlns="http://www.w3.org/2000/svg" xmlns:xlink="http://www.w3.org/1999/xlink">
<g id="graph0" class="graph" transform="scale(1 1) rotate(0) translate(4 153)">
<title>game_engine.gameRepresentation.conditions.ElementPair</title>
<polygon fill="white" stroke="none" points="-4,4 -4,-153 1076,-153 1076,4 -4,4"/>
<!-- Node1 -->
<g id="node1" class="node"><title>Node1</title>
<polygon fill="#bfbfbf" stroke="black" points="832.5,-59 832.5,-89 1071.5,-89 1071.5,-59 832.5,-59"/>
<text text-anchor="start" x="840.5" y="-77" font-family="Helvetica,sans-Serif" font-size="10.00">game_engine.gameRepresentation.conditions.</text>
<text text-anchor="middle" x="952" y="-66" font-family="Helvetica,sans-Serif" font-size="10.00">ElementPair</text>
</g>
<!-- Node2 -->
<g id="node2" class="node"><title>Node2</title>
<g id="a_node2"><a xlink:href="../../dc/d2d/classgame__engine_1_1game_representation_1_1state_representation_1_1game_element_1_1_game_element_state.html" target="_top" xlink:title="game_engine.gameRepresentation.state\lRepresentation.gameElement.GameElementState">
<polygon fill="white" stroke="black" points="494.5,-59 494.5,-89 751.5,-89 751.5,-59 494.5,-59"/>
<text text-anchor="start" x="502.5" y="-77" font-family="Helvetica,sans-Serif" font-size="10.00">game_engine.gameRepresentation.state</text>
<text text-anchor="middle" x="623" y="-66" font-family="Helvetica,sans-Serif" font-size="10.00">Representation.gameElement.GameElementState</text>
</a>
</g>
</g>
<!-- Node2&#45;&gt;Node1 -->
<g id="edge1" class="edge"><title>Node2&#45;&gt;Node1</title>
<path fill="none" stroke="#9a32cd" stroke-dasharray="5,2" d="M762.143,-74C785.489,-74 809.542,-74 832.335,-74"/>
<polygon fill="#9a32cd" stroke="#9a32cd" points="761.832,-70.5001 751.832,-74 761.832,-77.5001 761.832,-70.5001"/>
<text text-anchor="middle" x="792" y="-88" font-family="Helvetica,sans-Serif" font-size="10.00"> myActor</text>
<text text-anchor="middle" x="792" y="-77" font-family="Helvetica,sans-Serif" font-size="10.00">myActee</text>
</g>
<!-- Node3 -->
<g id="node3" class="node"><title>Node3</title>
<polygon fill="white" stroke="#bfbfbf" points="44,-107.5 44,-148.5 284,-148.5 284,-107.5 44,-107.5"/>
<text text-anchor="start" x="52" y="-136.5" font-family="Helvetica,sans-Serif" font-size="10.00">Set&lt; game_engine.gameRepresentation.state</text>
<text text-anchor="start" x="52" y="-125.5" font-family="Helvetica,sans-Serif" font-size="10.00">Representation.gameElement.Attribute</text>
<text text-anchor="middle" x="164" y="-114.5" font-family="Helvetica,sans-Serif" font-size="10.00">&lt; Number &gt; &gt;</text>
</g>
<!-- Node3&#45;&gt;Node2 -->
<g id="edge2" class="edge"><title>Node3&#45;&gt;Node2</title>
<path fill="none" stroke="#9a32cd" stroke-dasharray="5,2" d="M294.141,-112.74C356.921,-105.322 432.127,-96.4358 494.665,-89.0461"/>
<polygon fill="#9a32cd" stroke="#9a32cd" points="293.696,-109.269 284.176,-113.918 294.518,-116.22 293.696,-109.269"/>
<text text-anchor="middle" x="411" y="-108" font-family="Helvetica,sans-Serif" font-size="10.00"> myNumericalAttributes</text>
</g>
<!-- Node4 -->
<g id="node4" class="node"><title>Node4</title>
<polygon fill="white" stroke="#bfbfbf" points="0,-59 0,-89 328,-89 328,-59 0,-59"/>
<text text-anchor="start" x="8" y="-77" font-family="Helvetica,sans-Serif" font-size="10.00">Map&lt; game_engine.gameRepresentation.conditions.</text>
<text text-anchor="middle" x="164" y="-66" font-family="Helvetica,sans-Serif" font-size="10.00">Evaluatable, game_engine.gameRepresentation.actions.Action &gt;</text>
</g>
<!-- Node4&#45;&gt;Node2 -->
<g id="edge3" class="edge"><title>Node4&#45;&gt;Node2</title>
<path fill="none" stroke="#9a32cd" stroke-dasharray="5,2" d="M338.35,-74C390.124,-74 445.915,-74 494.205,-74"/>
<polygon fill="#9a32cd" stroke="#9a32cd" points="338.052,-70.5001 328.052,-74 338.052,-77.5001 338.052,-70.5001"/>
<text text-anchor="middle" x="411" y="-77" font-family="Helvetica,sans-Serif" font-size="10.00"> myConditionActionPairings</text>
</g>
<!-- Node5 -->
<g id="node5" class="node"><title>Node5</title>
<polygon fill="white" stroke="#bfbfbf" points="44,0.5 44,-40.5 284,-40.5 284,0.5 44,0.5"/>
<text text-anchor="start" x="52" y="-28.5" font-family="Helvetica,sans-Serif" font-size="10.00">Set&lt; game_engine.gameRepresentation.state</text>
<text text-anchor="start" x="52" y="-17.5" font-family="Helvetica,sans-Serif" font-size="10.00">Representation.gameElement.Attribute</text>
<text text-anchor="middle" x="164" y="-6.5" font-family="Helvetica,sans-Serif" font-size="10.00">&lt; String &gt; &gt;</text>
</g>
<!-- Node5&#45;&gt;Node2 -->
<g id="edge4" class="edge"><title>Node5&#45;&gt;Node2</title>
<path fill="none" stroke="#9a32cd" stroke-dasharray="5,2" d="M294.141,-35.2596C356.921,-42.6778 432.127,-51.5642 494.665,-58.9539"/>
<polygon fill="#9a32cd" stroke="#9a32cd" points="294.518,-31.7798 284.176,-34.0821 293.696,-38.7315 294.518,-31.7798"/>
<text text-anchor="middle" x="411" y="-59" font-family="Helvetica,sans-Serif" font-size="10.00"> myTextualAttributes</text>
</g>
</g>
</svg>
