<?xml version="1.0" encoding="UTF-8" standalone="no"?>
<!DOCTYPE svg PUBLIC "-//W3C//DTD SVG 1.1//EN"
 "http://www.w3.org/Graphics/SVG/1.1/DTD/svg11.dtd">
<!-- Generated by graphviz version 2.36.0 (20140111.2315)
 -->
<!-- Title: view.editor.wizards.Grid Pages: 1 -->
<svg width="372pt" height="140pt"
 viewBox="0.00 0.00 372.00 140.00" xmlns="http://www.w3.org/2000/svg" xmlns:xlink="http://www.w3.org/1999/xlink">
<g id="graph0" class="graph" transform="scale(1 1) rotate(0) translate(4 136)">
<title>view.editor.wizards.Grid</title>
<polygon fill="white" stroke="none" points="-4,4 -4,-136 368,-136 368,4 -4,4"/>
<!-- Node1 -->
<g id="node1" class="node"><title>Node1</title>
<polygon fill="#bfbfbf" stroke="black" points="119.5,-56.5 119.5,-75.5 246.5,-75.5 246.5,-56.5 119.5,-56.5"/>
<text text-anchor="middle" x="183" y="-63.5" font-family="Helvetica,sans-Serif" font-size="10.00">view.editor.wizards.Grid</text>
</g>
<!-- Node3 -->
<g id="node3" class="node"><title>Node3</title>
<g id="a_node3"><a xlink:href="../../de/dd2/classview_1_1editor_1_1wizards_1_1_animation_grid.html" target="_top" xlink:title="view.editor.wizards.AnimationGrid">
<polygon fill="white" stroke="black" points="0,-0.5 0,-19.5 176,-19.5 176,-0.5 0,-0.5"/>
<text text-anchor="middle" x="88" y="-7.5" font-family="Helvetica,sans-Serif" font-size="10.00">view.editor.wizards.AnimationGrid</text>
</a>
</g>
</g>
<!-- Node1&#45;&gt;Node3 -->
<g id="edge2" class="edge"><title>Node1&#45;&gt;Node3</title>
<path fill="none" stroke="midnightblue" d="M158.682,-51.1774C141.201,-41.2407 118.17,-28.1492 103.226,-19.6545"/>
<polygon fill="midnightblue" stroke="midnightblue" points="157.313,-54.425 167.737,-56.324 160.773,-48.3395 157.313,-54.425"/>
</g>
<!-- Node4 -->
<g id="node4" class="node"><title>Node4</title>
<g id="a_node4"><a xlink:href="../../d9/dd9/classview_1_1editor_1_1wizards_1_1_direction_grid.html" target="_top" xlink:title="view.editor.wizards.DirectionGrid">
<polygon fill="white" stroke="black" points="194,-0.5 194,-19.5 364,-19.5 364,-0.5 194,-0.5"/>
<text text-anchor="middle" x="279" y="-7.5" font-family="Helvetica,sans-Serif" font-size="10.00">view.editor.wizards.DirectionGrid</text>
</a>
</g>
</g>
<!-- Node1&#45;&gt;Node4 -->
<g id="edge3" class="edge"><title>Node1&#45;&gt;Node4</title>
<path fill="none" stroke="midnightblue" d="M207.574,-51.1774C225.239,-41.2407 248.513,-28.1492 263.614,-19.6545"/>
<polygon fill="midnightblue" stroke="midnightblue" points="205.424,-48.3708 198.424,-56.324 208.856,-54.4718 205.424,-48.3708"/>
</g>
<!-- Node2 -->
<g id="node2" class="node"><title>Node2</title>
<polygon fill="white" stroke="#bfbfbf" points="160,-112.5 160,-131.5 206,-131.5 206,-112.5 160,-112.5"/>
<text text-anchor="middle" x="183" y="-119.5" font-family="Helvetica,sans-Serif" font-size="10.00">Group</text>
</g>
<!-- Node2&#45;&gt;Node1 -->
<g id="edge1" class="edge"><title>Node2&#45;&gt;Node1</title>
<path fill="none" stroke="midnightblue" d="M183,-101.805C183,-92.9102 183,-82.7798 183,-75.7511"/>
<polygon fill="midnightblue" stroke="midnightblue" points="179.5,-102.083 183,-112.083 186.5,-102.083 179.5,-102.083"/>
</g>
</g>
</svg>
