<?xml version="1.0" encoding="UTF-8" standalone="no"?>
<!DOCTYPE svg PUBLIC "-//W3C//DTD SVG 1.1//EN"
 "http://www.w3.org/Graphics/SVG/1.1/DTD/svg11.dtd">
<!-- Generated by graphviz version 2.36.0 (20140111.2315)
 -->
<!-- Title: engine.visuals.elementVisuals.animations.AnimatorState.getImageTag Pages: 1 -->
<svg width="1160pt" height="123pt"
 viewBox="0.00 0.00 1160.00 123.00" xmlns="http://www.w3.org/2000/svg" xmlns:xlink="http://www.w3.org/1999/xlink">
<g id="graph0" class="graph" transform="scale(1 1) rotate(0) translate(4 119)">
<title>engine.visuals.elementVisuals.animations.AnimatorState.getImageTag</title>
<polygon fill="white" stroke="none" points="-4,4 -4,-119 1156,-119 1156,4 -4,4"/>
<!-- Node1 -->
<g id="node1" class="node"><title>Node1</title>
<polygon fill="#bfbfbf" stroke="black" points="0,-24 0,-54 220,-54 220,-24 0,-24"/>
<text text-anchor="start" x="8" y="-42" font-family="Helvetica,sans-Serif" font-size="10.00">engine.visuals.elementVisuals.animations.</text>
<text text-anchor="middle" x="110" y="-31" font-family="Helvetica,sans-Serif" font-size="10.00">AnimatorState.getImageTag</text>
</g>
<!-- Node2 -->
<g id="node2" class="node"><title>Node2</title>
<g id="a_node2"><a xlink:href="../../d6/d60/classengine_1_1element_factories_1_1_animator_factory.html#a5be2026cd3ce0d2ff94f034050248213" target="_top" xlink:title="engine.elementFactories.\lAnimatorFactory.createAnimator">
<polygon fill="white" stroke="black" points="268,-49 268,-79 440,-79 440,-49 268,-49"/>
<text text-anchor="start" x="276" y="-67" font-family="Helvetica,sans-Serif" font-size="10.00">engine.elementFactories.</text>
<text text-anchor="middle" x="354" y="-56" font-family="Helvetica,sans-Serif" font-size="10.00">AnimatorFactory.createAnimator</text>
</a>
</g>
</g>
<!-- Node1&#45;&gt;Node2 -->
<g id="edge1" class="edge"><title>Node1&#45;&gt;Node2</title>
<path fill="none" stroke="midnightblue" d="M230.41,-51.3358C243.014,-52.6378 255.641,-53.9422 267.743,-55.1925"/>
<polygon fill="midnightblue" stroke="midnightblue" points="230.625,-47.8394 220.318,-50.2932 229.905,-54.8023 230.625,-47.8394"/>
</g>
<!-- Node7 -->
<g id="node7" class="node"><title>Node7</title>
<g id="a_node7"><a xlink:href="../../d0/da0/classmodel_1_1data_1_1_wizard_data_factory.html#a0c0eb91e1b531f96b715e1a9c0c45db9" target="_top" xlink:title="model.data.WizardDataFactory.create\lWizardData">
<polygon fill="white" stroke="black" points="256,-0 256,-30 452,-30 452,-0 256,-0"/>
<text text-anchor="start" x="264" y="-18" font-family="Helvetica,sans-Serif" font-size="10.00">model.data.WizardDataFactory.create</text>
<text text-anchor="middle" x="354" y="-7" font-family="Helvetica,sans-Serif" font-size="10.00">WizardData</text>
</a>
</g>
</g>
<!-- Node1&#45;&gt;Node7 -->
<g id="edge6" class="edge"><title>Node1&#45;&gt;Node7</title>
<path fill="none" stroke="midnightblue" d="M230.278,-27.1708C238.775,-26.3281 247.284,-25.4843 255.636,-24.656"/>
<polygon fill="midnightblue" stroke="midnightblue" points="229.924,-23.6887 220.318,-28.1585 230.615,-30.6545 229.924,-23.6887"/>
</g>
<!-- Node3 -->
<g id="node3" class="node"><title>Node3</title>
<g id="a_node3"><a xlink:href="../../df/df0/classengine_1_1element_factories_1_1_visualizer_factory.html#ab3af310fd8c0f30f4ab30125576112f9" target="_top" xlink:title="engine.elementFactories.\lVisualizerFactory.createVisualizer">
<polygon fill="white" stroke="black" points="488.5,-49 488.5,-79 663.5,-79 663.5,-49 488.5,-49"/>
<text text-anchor="start" x="496.5" y="-67" font-family="Helvetica,sans-Serif" font-size="10.00">engine.elementFactories.</text>
<text text-anchor="middle" x="576" y="-56" font-family="Helvetica,sans-Serif" font-size="10.00">VisualizerFactory.createVisualizer</text>
</a>
</g>
</g>
<!-- Node2&#45;&gt;Node3 -->
<g id="edge2" class="edge"><title>Node2&#45;&gt;Node3</title>
<path fill="none" stroke="midnightblue" d="M450.165,-64C462.857,-64 475.817,-64 488.352,-64"/>
<polygon fill="midnightblue" stroke="midnightblue" points="450.058,-60.5001 440.058,-64 450.058,-67.5001 450.058,-60.5001"/>
</g>
<!-- Node4 -->
<g id="node4" class="node"><title>Node4</title>
<g id="a_node4"><a xlink:href="../../dc/d91/classengine_1_1element_factories_1_1_game_element_factory.html#ae53ef87192fe373614a7215f0e3d938c" target="_top" xlink:title="engine.elementFactories.\lGameElementFactory.generateVisualizer">
<polygon fill="white" stroke="black" points="700.5,-49 700.5,-79 911.5,-79 911.5,-49 700.5,-49"/>
<text text-anchor="start" x="708.5" y="-67" font-family="Helvetica,sans-Serif" font-size="10.00">engine.elementFactories.</text>
<text text-anchor="middle" x="806" y="-56" font-family="Helvetica,sans-Serif" font-size="10.00">GameElementFactory.generateVisualizer</text>
</a>
</g>
</g>
<!-- Node3&#45;&gt;Node4 -->
<g id="edge3" class="edge"><title>Node3&#45;&gt;Node4</title>
<path fill="none" stroke="midnightblue" d="M673.709,-64C682.452,-64 691.334,-64 700.143,-64"/>
<polygon fill="midnightblue" stroke="midnightblue" points="673.522,-60.5001 663.522,-64 673.522,-67.5001 673.522,-60.5001"/>
</g>
<!-- Node5 -->
<g id="node5" class="node"><title>Node5</title>
<g id="a_node5"><a xlink:href="../../dc/d91/classengine_1_1element_factories_1_1_game_element_factory.html#a8671651ea7c0bcf7fb0de5b5552832fe" target="_top" xlink:title="engine.elementFactories.\lGameElementFactory.createDrawable\lGameElement">
<polygon fill="white" stroke="black" points="951.5,-73.5 951.5,-114.5 1148.5,-114.5 1148.5,-73.5 951.5,-73.5"/>
<text text-anchor="start" x="959.5" y="-102.5" font-family="Helvetica,sans-Serif" font-size="10.00">engine.elementFactories.</text>
<text text-anchor="start" x="959.5" y="-91.5" font-family="Helvetica,sans-Serif" font-size="10.00">GameElementFactory.createDrawable</text>
<text text-anchor="middle" x="1050" y="-80.5" font-family="Helvetica,sans-Serif" font-size="10.00">GameElement</text>
</a>
</g>
</g>
<!-- Node4&#45;&gt;Node5 -->
<g id="edge4" class="edge"><title>Node4&#45;&gt;Node5</title>
<path fill="none" stroke="midnightblue" d="M921.955,-78.2506C931.788,-79.4696 941.676,-80.6953 951.355,-81.8953"/>
<polygon fill="midnightblue" stroke="midnightblue" points="922.092,-74.7409 911.737,-76.984 921.231,-81.6877 922.092,-74.7409"/>
</g>
<!-- Node6 -->
<g id="node6" class="node"><title>Node6</title>
<g id="a_node6"><a xlink:href="../../dc/d91/classengine_1_1element_factories_1_1_game_element_factory.html#a4e478634c65c4ee64c2163fdacd09669" target="_top" xlink:title="engine.elementFactories.\lGameElementFactory.createSelectable\lGameElement">
<polygon fill="white" stroke="black" points="948.5,-13.5 948.5,-54.5 1151.5,-54.5 1151.5,-13.5 948.5,-13.5"/>
<text text-anchor="start" x="956.5" y="-42.5" font-family="Helvetica,sans-Serif" font-size="10.00">engine.elementFactories.</text>
<text text-anchor="start" x="956.5" y="-31.5" font-family="Helvetica,sans-Serif" font-size="10.00">GameElementFactory.createSelectable</text>
<text text-anchor="middle" x="1050" y="-20.5" font-family="Helvetica,sans-Serif" font-size="10.00">GameElement</text>
</a>
</g>
</g>
<!-- Node4&#45;&gt;Node6 -->
<g id="edge5" class="edge"><title>Node4&#45;&gt;Node6</title>
<path fill="none" stroke="midnightblue" d="M921.732,-49.7771C930.61,-48.6765 939.533,-47.5703 948.31,-46.4822"/>
<polygon fill="midnightblue" stroke="midnightblue" points="921.231,-46.3123 911.737,-51.016 922.092,-53.2591 921.231,-46.3123"/>
</g>
<!-- Node8 -->
<g id="node8" class="node"><title>Node8</title>
<g id="a_node8"><a xlink:href="../../d9/dfb/classview_1_1editor_1_1_element_accordion_controller.html#ac52ea89f2e0af7497883a0fd53199296" target="_top" xlink:title="view.editor.ElementAccordion\lController.createWizardData">
<polygon fill="white" stroke="black" points="498,-0 498,-30 654,-30 654,-0 498,-0"/>
<text text-anchor="start" x="506" y="-18" font-family="Helvetica,sans-Serif" font-size="10.00">view.editor.ElementAccordion</text>
<text text-anchor="middle" x="576" y="-7" font-family="Helvetica,sans-Serif" font-size="10.00">Controller.createWizardData</text>
</a>
</g>
</g>
<!-- Node7&#45;&gt;Node8 -->
<g id="edge7" class="edge"><title>Node7&#45;&gt;Node8</title>
<path fill="none" stroke="midnightblue" d="M462.218,-15C474.248,-15 486.323,-15 497.866,-15"/>
<polygon fill="midnightblue" stroke="midnightblue" points="462.136,-11.5001 452.136,-15 462.136,-18.5001 462.136,-11.5001"/>
</g>
<!-- Node9 -->
<g id="node9" class="node"><title>Node9</title>
<g id="a_node9"><a xlink:href="../../d9/dfb/classview_1_1editor_1_1_element_accordion_controller.html#af80453486ff349552dab988fb64397c0" target="_top" xlink:title="view.editor.ElementAccordion\lController.init">
<polygon fill="white" stroke="black" points="728,-0 728,-30 884,-30 884,-0 728,-0"/>
<text text-anchor="start" x="736" y="-18" font-family="Helvetica,sans-Serif" font-size="10.00">view.editor.ElementAccordion</text>
<text text-anchor="middle" x="806" y="-7" font-family="Helvetica,sans-Serif" font-size="10.00">Controller.init</text>
</a>
</g>
</g>
<!-- Node8&#45;&gt;Node9 -->
<g id="edge8" class="edge"><title>Node8&#45;&gt;Node9</title>
<path fill="none" stroke="midnightblue" d="M664.347,-15C685.272,-15 707.466,-15 727.889,-15"/>
<polygon fill="midnightblue" stroke="midnightblue" points="664.19,-11.5001 654.19,-15 664.19,-18.5001 664.19,-11.5001"/>
</g>
</g>
</svg>
