<?xml version="1.0" encoding="UTF-8" standalone="no"?>
<!DOCTYPE svg PUBLIC "-//W3C//DTD SVG 1.1//EN"
 "http://www.w3.org/Graphics/SVG/1.1/DTD/svg11.dtd">
<!-- Generated by graphviz version 2.36.0 (20140111.2315)
 -->
<!-- Title: engine.visuals.elementVisuals.animations.AnimatorState.getViewportSize Pages: 1 -->
<svg width="1654pt" height="144pt"
 viewBox="0.00 0.00 1654.00 144.00" xmlns="http://www.w3.org/2000/svg" xmlns:xlink="http://www.w3.org/1999/xlink">
<g id="graph0" class="graph" transform="scale(1 1) rotate(0) translate(4 140)">
<title>engine.visuals.elementVisuals.animations.AnimatorState.getViewportSize</title>
<polygon fill="white" stroke="none" points="-4,4 -4,-140 1650,-140 1650,4 -4,4"/>
<!-- Node1 -->
<g id="node1" class="node"><title>Node1</title>
<polygon fill="#bfbfbf" stroke="black" points="0,-57 0,-87 220,-87 220,-57 0,-57"/>
<text text-anchor="start" x="8" y="-75" font-family="Helvetica,sans-Serif" font-size="10.00">engine.visuals.elementVisuals.animations.</text>
<text text-anchor="middle" x="110" y="-64" font-family="Helvetica,sans-Serif" font-size="10.00">AnimatorState.getViewportSize</text>
</g>
<!-- Node2 -->
<g id="node2" class="node"><title>Node2</title>
<g id="a_node2"><a xlink:href="../../d0/da0/classmodel_1_1data_1_1_wizard_data_factory.html#a0c0eb91e1b531f96b715e1a9c0c45db9" target="_top" xlink:title="model.data.WizardDataFactory.create\lWizardData">
<polygon fill="white" stroke="black" points="268,-106 268,-136 464,-136 464,-106 268,-106"/>
<text text-anchor="start" x="276" y="-124" font-family="Helvetica,sans-Serif" font-size="10.00">model.data.WizardDataFactory.create</text>
<text text-anchor="middle" x="366" y="-113" font-family="Helvetica,sans-Serif" font-size="10.00">WizardData</text>
</a>
</g>
</g>
<!-- Node1&#45;&gt;Node2 -->
<g id="edge1" class="edge"><title>Node1&#45;&gt;Node2</title>
<path fill="none" stroke="midnightblue" d="M198.954,-88.9674C227.658,-94.5049 259.31,-100.611 287.213,-105.994"/>
<polygon fill="midnightblue" stroke="midnightblue" points="199.417,-85.4923 188.935,-87.0346 198.091,-92.3655 199.417,-85.4923"/>
</g>
<!-- Node5 -->
<g id="node5" class="node"><title>Node5</title>
<g id="a_node5"><a xlink:href="../../d9/d50/classengine_1_1visuals_1_1element_visuals_1_1animations_1_1_animator.html#a98fe0d989e66bb4b49c862e3bd5969b7" target="_top" xlink:title="engine.visuals.elementVisuals.animations.\lAnimator.getViewport">
<polygon fill="white" stroke="black" points="256,-57 256,-87 476,-87 476,-57 256,-57"/>
<text text-anchor="start" x="264" y="-75" font-family="Helvetica,sans-Serif" font-size="10.00">engine.visuals.elementVisuals.animations.</text>
<text text-anchor="middle" x="366" y="-64" font-family="Helvetica,sans-Serif" font-size="10.00">Animator.getViewport</text>
</a>
</g>
</g>
<!-- Node1&#45;&gt;Node5 -->
<g id="edge4" class="edge"><title>Node1&#45;&gt;Node5</title>
<path fill="none" stroke="midnightblue" d="M230.217,-72C238.783,-72 247.396,-72 255.899,-72"/>
<polygon fill="midnightblue" stroke="midnightblue" points="230.193,-68.5001 220.193,-72 230.193,-75.5001 230.193,-68.5001"/>
</g>
<!-- Node13 -->
<g id="node13" class="node"><title>Node13</title>
<g id="a_node13"><a xlink:href="../../d9/d50/classengine_1_1visuals_1_1element_visuals_1_1animations_1_1_animator.html#afbf315da281653433c4d513a5735574a" target="_top" xlink:title="engine.visuals.elementVisuals.animations.\lAnimator.getViewportSize">
<polygon fill="white" stroke="black" points="512,-8 512,-38 732,-38 732,-8 512,-8"/>
<text text-anchor="start" x="520" y="-26" font-family="Helvetica,sans-Serif" font-size="10.00">engine.visuals.elementVisuals.animations.</text>
<text text-anchor="middle" x="622" y="-15" font-family="Helvetica,sans-Serif" font-size="10.00">Animator.getViewportSize</text>
</a>
</g>
</g>
<!-- Node1&#45;&gt;Node13 -->
<g id="edge12" class="edge"><title>Node1&#45;&gt;Node13</title>
<path fill="none" stroke="midnightblue" d="M199.043,-55.2972C217.79,-52.1684 237.508,-49.1959 256,-47 341.606,-36.8342 439.058,-30.7011 511.72,-27.1824"/>
<polygon fill="midnightblue" stroke="midnightblue" points="198.315,-51.8706 189.042,-56.9957 199.487,-58.7718 198.315,-51.8706"/>
</g>
<!-- Node3 -->
<g id="node3" class="node"><title>Node3</title>
<g id="a_node3"><a xlink:href="../../d9/dfb/classview_1_1editor_1_1_element_accordion_controller.html#ac52ea89f2e0af7497883a0fd53199296" target="_top" xlink:title="view.editor.ElementAccordion\lController.createWizardData">
<polygon fill="white" stroke="black" points="544,-106 544,-136 700,-136 700,-106 544,-106"/>
<text text-anchor="start" x="552" y="-124" font-family="Helvetica,sans-Serif" font-size="10.00">view.editor.ElementAccordion</text>
<text text-anchor="middle" x="622" y="-113" font-family="Helvetica,sans-Serif" font-size="10.00">Controller.createWizardData</text>
</a>
</g>
</g>
<!-- Node2&#45;&gt;Node3 -->
<g id="edge2" class="edge"><title>Node2&#45;&gt;Node3</title>
<path fill="none" stroke="midnightblue" d="M474.376,-121C497.648,-121 521.822,-121 543.668,-121"/>
<polygon fill="midnightblue" stroke="midnightblue" points="474.114,-117.5 464.114,-121 474.114,-124.5 474.114,-117.5"/>
</g>
<!-- Node4 -->
<g id="node4" class="node"><title>Node4</title>
<g id="a_node4"><a xlink:href="../../d9/dfb/classview_1_1editor_1_1_element_accordion_controller.html#af80453486ff349552dab988fb64397c0" target="_top" xlink:title="view.editor.ElementAccordion\lController.init">
<polygon fill="white" stroke="black" points="772,-106 772,-136 928,-136 928,-106 772,-106"/>
<text text-anchor="start" x="780" y="-124" font-family="Helvetica,sans-Serif" font-size="10.00">view.editor.ElementAccordion</text>
<text text-anchor="middle" x="850" y="-113" font-family="Helvetica,sans-Serif" font-size="10.00">Controller.init</text>
</a>
</g>
</g>
<!-- Node3&#45;&gt;Node4 -->
<g id="edge3" class="edge"><title>Node3&#45;&gt;Node4</title>
<path fill="none" stroke="midnightblue" d="M710.307,-121C730.58,-121 752.018,-121 771.82,-121"/>
<polygon fill="midnightblue" stroke="midnightblue" points="710.144,-117.5 700.144,-121 710.144,-124.5 710.144,-117.5"/>
</g>
<!-- Node6 -->
<g id="node6" class="node"><title>Node6</title>
<g id="a_node6"><a xlink:href="../../d9/d50/classengine_1_1visuals_1_1element_visuals_1_1animations_1_1_animator.html#ad526dc47f566d23d4069513fc0731b41" target="_top" xlink:title="engine.visuals.elementVisuals.animations.\lAnimator.update">
<polygon fill="white" stroke="black" points="512,-57 512,-87 732,-87 732,-57 512,-57"/>
<text text-anchor="start" x="520" y="-75" font-family="Helvetica,sans-Serif" font-size="10.00">engine.visuals.elementVisuals.animations.</text>
<text text-anchor="middle" x="622" y="-64" font-family="Helvetica,sans-Serif" font-size="10.00">Animator.update</text>
</a>
</g>
</g>
<!-- Node5&#45;&gt;Node6 -->
<g id="edge5" class="edge"><title>Node5&#45;&gt;Node6</title>
<path fill="none" stroke="midnightblue" d="M486.217,-72C494.783,-72 503.396,-72 511.899,-72"/>
<polygon fill="midnightblue" stroke="midnightblue" points="486.193,-68.5001 476.193,-72 486.193,-75.5001 486.193,-68.5001"/>
</g>
<!-- Node7 -->
<g id="node7" class="node"><title>Node7</title>
<g id="a_node7"><a xlink:href="../../d1/d3d/classengine_1_1visuals_1_1element_visuals_1_1_visualizer.html#a86b606b05e07c022484554409f533599" target="_top" xlink:title="engine.visuals.elementVisuals.\lVisualizer.initializeDisplay">
<polygon fill="white" stroke="black" points="768,-8 768,-38 932,-38 932,-8 768,-8"/>
<text text-anchor="start" x="776" y="-26" font-family="Helvetica,sans-Serif" font-size="10.00">engine.visuals.elementVisuals.</text>
<text text-anchor="middle" x="850" y="-15" font-family="Helvetica,sans-Serif" font-size="10.00">Visualizer.initializeDisplay</text>
</a>
</g>
</g>
<!-- Node6&#45;&gt;Node7 -->
<g id="edge6" class="edge"><title>Node6&#45;&gt;Node7</title>
<path fill="none" stroke="midnightblue" d="M702.263,-54.8146C727.535,-49.3353 755.286,-43.3185 779.788,-38.0062"/>
<polygon fill="midnightblue" stroke="midnightblue" points="701.375,-51.4259 692.343,-56.9654 702.858,-58.2669 701.375,-51.4259"/>
</g>
<!-- Node9 -->
<g id="node9" class="node"><title>Node9</title>
<g id="a_node9"><a xlink:href="../../d1/d3d/classengine_1_1visuals_1_1element_visuals_1_1_visualizer.html#a3a940cfc6093a46b3c1d53d77674ef15" target="_top" xlink:title="engine.visuals.elementVisuals.\lVisualizer.updateAnimator">
<polygon fill="white" stroke="black" points="768,-57 768,-87 932,-87 932,-57 768,-57"/>
<text text-anchor="start" x="776" y="-75" font-family="Helvetica,sans-Serif" font-size="10.00">engine.visuals.elementVisuals.</text>
<text text-anchor="middle" x="850" y="-64" font-family="Helvetica,sans-Serif" font-size="10.00">Visualizer.updateAnimator</text>
</a>
</g>
</g>
<!-- Node6&#45;&gt;Node9 -->
<g id="edge8" class="edge"><title>Node6&#45;&gt;Node9</title>
<path fill="none" stroke="midnightblue" d="M742.221,-72C750.895,-72 759.52,-72 767.89,-72"/>
<polygon fill="midnightblue" stroke="midnightblue" points="742.028,-68.5001 732.028,-72 742.028,-75.5001 742.028,-68.5001"/>
</g>
<!-- Node8 -->
<g id="node8" class="node"><title>Node8</title>
<g id="a_node8"><a xlink:href="../../d8/d2f/classengine_1_1game_representation_1_1rendered_representation_1_1_drawable_game_element.html#a4b23fded7a0bbd7154333b3f3353c686" target="_top" xlink:title="engine.gameRepresentation.rendered\lRepresentation.DrawableGameElement.\lDrawableGameElement">
<polygon fill="white" stroke="black" points="968,-0.5 968,-41.5 1176,-41.5 1176,-0.5 968,-0.5"/>
<text text-anchor="start" x="976" y="-29.5" font-family="Helvetica,sans-Serif" font-size="10.00">engine.gameRepresentation.rendered</text>
<text text-anchor="start" x="976" y="-18.5" font-family="Helvetica,sans-Serif" font-size="10.00">Representation.DrawableGameElement.</text>
<text text-anchor="middle" x="1072" y="-7.5" font-family="Helvetica,sans-Serif" font-size="10.00">DrawableGameElement</text>
</a>
</g>
</g>
<!-- Node7&#45;&gt;Node8 -->
<g id="edge7" class="edge"><title>Node7&#45;&gt;Node8</title>
<path fill="none" stroke="midnightblue" d="M942.48,-22.1684C950.902,-22.0918 959.474,-22.0139 967.989,-21.9365"/>
<polygon fill="midnightblue" stroke="midnightblue" points="942.263,-18.6701 932.295,-22.261 942.326,-25.6698 942.263,-18.6701"/>
</g>
<!-- Node10 -->
<g id="node10" class="node"><title>Node10</title>
<g id="a_node10"><a xlink:href="../../d1/d3d/classengine_1_1visuals_1_1element_visuals_1_1_visualizer.html#a466845b3211a0266cb7435d18772b372" target="_top" xlink:title="engine.visuals.elementVisuals.\lVisualizer.update">
<polygon fill="white" stroke="black" points="990,-60 990,-90 1154,-90 1154,-60 990,-60"/>
<text text-anchor="start" x="998" y="-78" font-family="Helvetica,sans-Serif" font-size="10.00">engine.visuals.elementVisuals.</text>
<text text-anchor="middle" x="1072" y="-67" font-family="Helvetica,sans-Serif" font-size="10.00">Visualizer.update</text>
</a>
</g>
</g>
<!-- Node9&#45;&gt;Node10 -->
<g id="edge9" class="edge"><title>Node9&#45;&gt;Node10</title>
<path fill="none" stroke="midnightblue" d="M942.492,-73.2476C958.143,-73.461 974.309,-73.6815 989.672,-73.891"/>
<polygon fill="midnightblue" stroke="midnightblue" points="942.342,-69.7453 932.295,-73.1086 942.246,-76.7447 942.342,-69.7453"/>
</g>
<!-- Node11 -->
<g id="node11" class="node"><title>Node11</title>
<g id="a_node11"><a xlink:href="../../d8/d2f/classengine_1_1game_representation_1_1rendered_representation_1_1_drawable_game_element.html#a2d69796817cdb4f32ada0982e19df9bc" target="_top" xlink:title="engine.gameRepresentation.rendered\lRepresentation.DrawableGameElement.update">
<polygon fill="white" stroke="black" points="1212,-60 1212,-90 1454,-90 1454,-60 1212,-60"/>
<text text-anchor="start" x="1220" y="-78" font-family="Helvetica,sans-Serif" font-size="10.00">engine.gameRepresentation.rendered</text>
<text text-anchor="middle" x="1333" y="-67" font-family="Helvetica,sans-Serif" font-size="10.00">Representation.DrawableGameElement.update</text>
</a>
</g>
</g>
<!-- Node10&#45;&gt;Node11 -->
<g id="edge10" class="edge"><title>Node10&#45;&gt;Node11</title>
<path fill="none" stroke="midnightblue" d="M1164.65,-75C1179.88,-75 1195.87,-75 1211.69,-75"/>
<polygon fill="midnightblue" stroke="midnightblue" points="1164.24,-71.5001 1154.24,-75 1164.24,-78.5001 1164.24,-71.5001"/>
</g>
<!-- Node12 -->
<g id="node12" class="node"><title>Node12</title>
<g id="a_node12"><a xlink:href="../../d2/d87/classengine_1_1state_managing_1_1_game_loop.html#a6b4981af45d656d6bfffa3a6ad9b0b9d" target="_top" xlink:title="engine.stateManaging.Game\lLoop.updateEditor">
<polygon fill="white" stroke="black" points="1490.5,-60 1490.5,-90 1645.5,-90 1645.5,-60 1490.5,-60"/>
<text text-anchor="start" x="1498.5" y="-78" font-family="Helvetica,sans-Serif" font-size="10.00">engine.stateManaging.Game</text>
<text text-anchor="middle" x="1568" y="-67" font-family="Helvetica,sans-Serif" font-size="10.00">Loop.updateEditor</text>
</a>
</g>
</g>
<!-- Node11&#45;&gt;Node12 -->
<g id="edge11" class="edge"><title>Node11&#45;&gt;Node12</title>
<path fill="none" stroke="midnightblue" d="M1464.27,-75C1473.11,-75 1481.85,-75 1490.27,-75"/>
<polygon fill="midnightblue" stroke="midnightblue" points="1464.25,-71.5001 1454.25,-75 1464.25,-78.5001 1464.25,-71.5001"/>
</g>
<!-- Node13&#45;&gt;Node7 -->
<g id="edge13" class="edge"><title>Node13&#45;&gt;Node7</title>
<path fill="none" stroke="midnightblue" d="M742.221,-23C750.895,-23 759.52,-23 767.89,-23"/>
<polygon fill="midnightblue" stroke="midnightblue" points="742.028,-19.5001 732.028,-23 742.028,-26.5001 742.028,-19.5001"/>
</g>
</g>
</svg>
