<?xml version="1.0" encoding="UTF-8" standalone="no"?>
<!DOCTYPE svg PUBLIC "-//W3C//DTD SVG 1.1//EN"
 "http://www.w3.org/Graphics/SVG/1.1/DTD/svg11.dtd">
<!-- Generated by graphviz version 2.36.0 (20140111.2315)
 -->
<!-- Title: view.GUIContainer Pages: 1 -->
<!--zoomable 611 -->
<svg id="main" version="1.1" xmlns="http://www.w3.org/2000/svg" xmlns:xlink="http://www.w3.org/1999/xlink" xml:space="preserve" onload="init(evt)">
<style type="text/css"><![CDATA[
.edge:hover path { stroke: red; }
.edge:hover polygon { stroke: red; fill: red; }
]]></style>
<script type="text/javascript"><![CDATA[
var edges = document.getElementsByTagName('g');
if (edges && edges.length) {
  for (var i=0;i<edges.length;i++) {
    if (edges[i].id.substr(0,4)=='edge') {
      edges[i].setAttribute('class','edge');
    }
  }
}
]]></script>
        <defs>
                <circle id="rim" cx="0" cy="0" r="7"/>
                <circle id="rim2" cx="0" cy="0" r="3.5"/>
                <g id="zoomPlus">
                        <use xlink:href="#rim" fill="#404040">
                                <set attributeName="fill" to="#808080" begin="zoomplus.mouseover" end="zoomplus.mouseout"/>
                        </use>
                        <path d="M-4,0h8M0,-4v8" fill="none" stroke="white" stroke-width="1.5" pointer-events="none"/>
                </g>
                <g id="zoomMin">
                        <use xlink:href="#rim" fill="#404040">
                                <set attributeName="fill" to="#808080" begin="zoomminus.mouseover" end="zoomminus.mouseout"/>
                        </use>
                        <path d="M-4,0h8" fill="none" stroke="white" stroke-width="1.5" pointer-events="none"/>
                </g>
                <g id="dirArrow">
                        <path fill="none" stroke="white" stroke-width="1.5" d="M0,-3.0v7 M-2.5,-0.5L0,-3.0L2.5,-0.5"/>
                </g>
               <g id="resetDef">
                       <use xlink:href="#rim2" fill="#404040">
                               <set attributeName="fill" to="#808080" begin="reset.mouseover" end="reset.mouseout"/>
                       </use>
               </g>
        </defs>

<script type="text/javascript">
var viewWidth = 1730;
var viewHeight = 611;
var sectionId = 'dynsection-1';
</script>
<script xlink:href="../../svgpan.js"/>
<svg id="graph" class="graph">
<g id="viewport">
<title>view.GUIContainer</title>
<polygon fill="white" stroke="none" points="-4,4 -4,-607 1726,-607 1726,4 -4,4"/>
<!-- Node1 -->
<g id="node1" class="node"><title>Node1</title>
<polygon fill="#bfbfbf" stroke="black" points="1618.5,-411.5 1618.5,-430.5 1721.5,-430.5 1721.5,-411.5 1618.5,-411.5"/>
<text text-anchor="middle" x="1670" y="-418.5" font-family="Helvetica,sans-Serif" font-size="10.00">view.GUIContainer</text>
</g>
<!-- Node2 -->
<g id="node2" class="node"><title>Node2</title>
<polygon fill="white" stroke="#bfbfbf" points="1387,-468.5 1387,-487.5 1447,-487.5 1447,-468.5 1387,-468.5"/>
<text text-anchor="middle" x="1417" y="-475.5" font-family="Helvetica,sans-Serif" font-size="10.00">Observer</text>
</g>
<!-- Node2&#45;&gt;Node1 -->
<g id="edge1" class="edge"><title>Node2&#45;&gt;Node1</title>
<path fill="none" stroke="midnightblue" d="M1457.18,-472.274C1494.27,-466.478 1551.36,-456.587 1600,-444 1614.42,-440.267 1630.21,-435.089 1643.04,-430.591"/>
<polygon fill="midnightblue" stroke="midnightblue" points="1456.62,-468.818 1447.27,-473.798 1457.69,-475.736 1456.62,-468.818"/>
</g>
<!-- Node3 -->
<g id="node3" class="node"><title>Node3</title>
<g id="a_node3"><a xlink:href="../../d7/d84/interfaceview_1_1_g_u_i_controller.html" target="_top" xlink:title="view.GUIController">
<polygon fill="white" stroke="black" points="1365.5,-430.5 1365.5,-449.5 1468.5,-449.5 1468.5,-430.5 1365.5,-430.5"/>
<text text-anchor="middle" x="1417" y="-437.5" font-family="Helvetica,sans-Serif" font-size="10.00">view.GUIController</text>
</a>
</g>
</g>
<!-- Node3&#45;&gt;Node1 -->
<g id="edge2" class="edge"><title>Node3&#45;&gt;Node1</title>
<path fill="none" stroke="midnightblue" d="M1478.79,-435.399C1521.5,-432.165 1577.99,-427.889 1618.28,-424.839"/>
<polygon fill="midnightblue" stroke="midnightblue" points="1478.5,-431.91 1468.79,-436.155 1479.03,-438.89 1478.5,-431.91"/>
</g>
<!-- Node4 -->
<g id="node4" class="node"><title>Node4</title>
<polygon fill="white" stroke="#bfbfbf" points="1346,-392.5 1346,-411.5 1488,-411.5 1488,-392.5 1346,-392.5"/>
<text text-anchor="middle" x="1417" y="-399.5" font-family="Helvetica,sans-Serif" font-size="10.00">List&lt; view.GUIContainer &gt;</text>
</g>
<!-- Node4&#45;&gt;Node1 -->
<g id="edge3" class="edge"><title>Node4&#45;&gt;Node1</title>
<path fill="none" stroke="#9a32cd" stroke-dasharray="5,2" d="M1498.21,-405.111C1529.95,-406.681 1566.73,-408.921 1600,-412 1605.89,-412.546 1612.06,-413.212 1618.18,-413.933"/>
<polygon fill="#9a32cd" stroke="#9a32cd" points="1498.25,-401.609 1488.09,-404.625 1497.92,-408.601 1498.25,-401.609"/>
<text text-anchor="middle" x="1553" y="-415" font-family="Helvetica,sans-Serif" font-size="10.00"> myChildContainers</text>
</g>
<!-- Node5 -->
<g id="node5" class="node"><title>Node5</title>
<g id="a_node5"><a xlink:href="../../da/d8d/classgamemodel_1_1_main_model.html" target="_top" xlink:title="gamemodel.MainModel">
<polygon fill="white" stroke="black" points="1353,-354.5 1353,-373.5 1481,-373.5 1481,-354.5 1353,-354.5"/>
<text text-anchor="middle" x="1417" y="-361.5" font-family="Helvetica,sans-Serif" font-size="10.00">gamemodel.MainModel</text>
</a>
</g>
</g>
<!-- Node5&#45;&gt;Node1 -->
<g id="edge4" class="edge"><title>Node5&#45;&gt;Node1</title>
<path fill="none" stroke="#9a32cd" stroke-dasharray="5,2" d="M1491.39,-370.439C1524.94,-374.511 1564.93,-380.965 1600,-391 1617.83,-396.103 1637.11,-404.775 1650.75,-411.487"/>
<polygon fill="#9a32cd" stroke="#9a32cd" points="1491.54,-366.932 1481.2,-369.25 1490.72,-373.885 1491.54,-366.932"/>
<text text-anchor="middle" x="1553" y="-394" font-family="Helvetica,sans-Serif" font-size="10.00"> myMainModel</text>
</g>
<!-- Node6 -->
<g id="node6" class="node"><title>Node6</title>
<polygon fill="white" stroke="#bfbfbf" points="1038.5,-472.5 1038.5,-491.5 1109.5,-491.5 1109.5,-472.5 1038.5,-472.5"/>
<text text-anchor="middle" x="1074" y="-479.5" font-family="Helvetica,sans-Serif" font-size="10.00">Observable</text>
</g>
<!-- Node6&#45;&gt;Node5 -->
<g id="edge5" class="edge"><title>Node6&#45;&gt;Node5</title>
<path fill="none" stroke="midnightblue" d="M1119.84,-488.332C1175.52,-493.538 1270.21,-493.296 1328,-443 1349,-424.723 1326.06,-402.425 1346,-383 1349.97,-379.134 1354.64,-376.036 1359.66,-373.556"/>
<polygon fill="midnightblue" stroke="midnightblue" points="1119.89,-484.818 1109.58,-487.27 1119.17,-491.781 1119.89,-484.818"/>
</g>
<!-- Node7 -->
<g id="node7" class="node"><title>Node7</title>
<g id="a_node7"><a xlink:href="../../dd/dec/classgame__engine_1_1game_representation_1_1state_representation_1_1_campaign_state.html" target="_top" xlink:title="game_engine.gameRepresentation.state\lRepresentation.CampaignState">
<polygon fill="white" stroke="black" points="968,-374 968,-404 1180,-404 1180,-374 968,-374"/>
<text text-anchor="start" x="976" y="-392" font-family="Helvetica,sans-Serif" font-size="10.00">game_engine.gameRepresentation.state</text>
<text text-anchor="middle" x="1074" y="-381" font-family="Helvetica,sans-Serif" font-size="10.00">Representation.CampaignState</text>
</a>
</g>
</g>
<!-- Node7&#45;&gt;Node5 -->
<g id="edge6" class="edge"><title>Node7&#45;&gt;Node5</title>
<path fill="none" stroke="#9a32cd" stroke-dasharray="5,2" d="M1190.15,-380.558C1244.54,-376.571 1307.36,-371.965 1352.91,-368.625"/>
<polygon fill="#9a32cd" stroke="#9a32cd" points="1189.81,-377.073 1180.09,-381.295 1190.32,-384.055 1189.81,-377.073"/>
<text text-anchor="middle" x="1263" y="-383" font-family="Helvetica,sans-Serif" font-size="10.00"> myCurrentCampaignState</text>
</g>
<!-- Node8 -->
<g id="node8" class="node"><title>Node8</title>
<g id="a_node8"><a xlink:href="../../da/d2f/classgame__engine_1_1game_representation_1_1state_representation_1_1_describable_state.html" target="_top" xlink:title="game_engine.gameRepresentation.state\lRepresentation.DescribableState">
<polygon fill="white" stroke="black" points="571,-377 571,-407 783,-407 783,-377 571,-377"/>
<text text-anchor="start" x="579" y="-395" font-family="Helvetica,sans-Serif" font-size="10.00">game_engine.gameRepresentation.state</text>
<text text-anchor="middle" x="677" y="-384" font-family="Helvetica,sans-Serif" font-size="10.00">Representation.DescribableState</text>
</a>
</g>
</g>
<!-- Node8&#45;&gt;Node7 -->
<g id="edge7" class="edge"><title>Node8&#45;&gt;Node7</title>
<path fill="none" stroke="midnightblue" d="M793.25,-391.125C848.424,-390.706 914.023,-390.207 967.827,-389.799"/>
<polygon fill="midnightblue" stroke="midnightblue" points="793.048,-387.626 783.075,-391.202 793.101,-394.626 793.048,-387.626"/>
</g>
<!-- Node11 -->
<g id="node11" class="node"><title>Node11</title>
<g id="a_node11"><a xlink:href="../../df/ddb/classgame__engine_1_1game_representation_1_1state_representation_1_1_game_state.html" target="_top" xlink:title="game_engine.gameRepresentation.state\lRepresentation.GameState">
<polygon fill="white" stroke="black" points="968,-423 968,-453 1180,-453 1180,-423 968,-423"/>
<text text-anchor="start" x="976" y="-441" font-family="Helvetica,sans-Serif" font-size="10.00">game_engine.gameRepresentation.state</text>
<text text-anchor="middle" x="1074" y="-430" font-family="Helvetica,sans-Serif" font-size="10.00">Representation.GameState</text>
</a>
</g>
</g>
<!-- Node8&#45;&gt;Node11 -->
<g id="edge11" class="edge"><title>Node8&#45;&gt;Node11</title>
<path fill="none" stroke="midnightblue" d="M793.25,-405.422C848.424,-411.847 914.023,-419.486 967.827,-425.752"/>
<polygon fill="midnightblue" stroke="midnightblue" points="793.412,-401.917 783.075,-404.237 792.603,-408.87 793.412,-401.917"/>
</g>
<!-- Node24 -->
<g id="node24" class="node"><title>Node24</title>
<g id="a_node24"><a xlink:href="../../d3/d7a/classgame__engine_1_1game_representation_1_1state_representation_1_1_level_state.html" target="_top" xlink:title="game_engine.gameRepresentation.state\lRepresentation.LevelState">
<polygon fill="white" stroke="black" points="968,-209 968,-239 1180,-239 1180,-209 968,-209"/>
<text text-anchor="start" x="976" y="-227" font-family="Helvetica,sans-Serif" font-size="10.00">game_engine.gameRepresentation.state</text>
<text text-anchor="middle" x="1074" y="-216" font-family="Helvetica,sans-Serif" font-size="10.00">Representation.LevelState</text>
</a>
</g>
</g>
<!-- Node8&#45;&gt;Node24 -->
<g id="edge28" class="edge"><title>Node8&#45;&gt;Node24</title>
<path fill="none" stroke="midnightblue" d="M793.467,-385.897C855.539,-380.68 924.463,-371.164 950,-354 963.223,-345.113 958.101,-335.484 968,-323 994.308,-289.823 1031.64,-257.305 1053.98,-239.035"/>
<polygon fill="midnightblue" stroke="midnightblue" points="792.858,-382.435 783.173,-386.729 793.422,-389.412 792.858,-382.435"/>
</g>
<!-- Node9 -->
<g id="node9" class="node"><title>Node9</title>
<g id="a_node9"><a xlink:href="../../df/d74/interfaceutil_1_1_j_s_o_nable.html" target="_top" xlink:title="util.JSONable">
<polygon fill="white" stroke="black" points="118,-105.5 118,-124.5 196,-124.5 196,-105.5 118,-105.5"/>
<text text-anchor="middle" x="157" y="-112.5" font-family="Helvetica,sans-Serif" font-size="10.00">util.JSONable</text>
</a>
</g>
</g>
<!-- Node9&#45;&gt;Node8 -->
<g id="edge8" class="edge"><title>Node9&#45;&gt;Node8</title>
<path fill="none" stroke="midnightblue" d="M206.55,-115.908C241.124,-119.191 286.212,-129.268 314,-158 337.831,-182.641 306.9,-209.652 332,-233 388.067,-285.153 447.72,-206.989 502,-261 535.873,-294.705 486.054,-333.368 520,-367 533.737,-380.61 551.739,-388.62 570.615,-393.082"/>
<polygon fill="midnightblue" stroke="midnightblue" points="206.432,-112.388 196.189,-115.094 205.884,-119.366 206.432,-112.388"/>
</g>
<!-- Node22 -->
<g id="node22" class="node"><title>Node22</title>
<g id="a_node22"><a xlink:href="../../dc/d2d/classgame__engine_1_1game_representation_1_1state_representation_1_1game_element_1_1_game_element_state.html" target="_top" xlink:title="game_engine.gameRepresentation.state\lRepresentation.gameElement.GameElementState">
<polygon fill="white" stroke="black" points="548.5,-0 548.5,-30 805.5,-30 805.5,-0 548.5,-0"/>
<text text-anchor="start" x="556.5" y="-18" font-family="Helvetica,sans-Serif" font-size="10.00">game_engine.gameRepresentation.state</text>
<text text-anchor="middle" x="677" y="-7" font-family="Helvetica,sans-Serif" font-size="10.00">Representation.gameElement.GameElementState</text>
</a>
</g>
</g>
<!-- Node9&#45;&gt;Node22 -->
<g id="edge23" class="edge"><title>Node9&#45;&gt;Node22</title>
<path fill="none" stroke="midnightblue" d="M206.338,-103.979C275.597,-88.3876 407.168,-59.5081 520,-39 537.12,-35.8884 555.345,-32.8437 573.073,-30.0243"/>
<polygon fill="midnightblue" stroke="midnightblue" points="205.16,-100.657 196.176,-106.272 206.701,-107.485 205.16,-100.657"/>
</g>
<!-- Node10 -->
<g id="node10" class="node"><title>Node10</title>
<polygon fill="white" stroke="#bfbfbf" points="557,-426 557,-456 797,-456 797,-426 557,-426"/>
<text text-anchor="start" x="565" y="-444" font-family="Helvetica,sans-Serif" font-size="10.00">List&lt; game_engine.gameRepresentation.state</text>
<text text-anchor="middle" x="677" y="-433" font-family="Helvetica,sans-Serif" font-size="10.00">Representation.LevelState &gt;</text>
</g>
<!-- Node10&#45;&gt;Node7 -->
<g id="edge9" class="edge"><title>Node10&#45;&gt;Node7</title>
<path fill="none" stroke="#9a32cd" stroke-dasharray="5,2" d="M802.178,-424.653C855.455,-417.639 917.029,-409.533 967.99,-402.824"/>
<polygon fill="#9a32cd" stroke="#9a32cd" points="801.443,-421.219 791.985,-425.994 802.357,-428.159 801.443,-421.219"/>
<text text-anchor="middle" x="901" y="-420" font-family="Helvetica,sans-Serif" font-size="10.00"> myLevels</text>
</g>
<!-- Node11&#45;&gt;Node5 -->
<g id="edge10" class="edge"><title>Node11&#45;&gt;Node5</title>
<path fill="none" stroke="#9a32cd" stroke-dasharray="5,2" d="M1190.08,-428.765C1234.32,-422.575 1284.6,-412.244 1328,-395 1336.94,-391.45 1337.25,-386.978 1346,-383 1354.25,-379.249 1363.4,-376.105 1372.29,-373.523"/>
<polygon fill="#9a32cd" stroke="#9a32cd" points="1189.59,-425.298 1180.15,-430.099 1190.52,-432.236 1189.59,-425.298"/>
<text text-anchor="middle" x="1263" y="-431" font-family="Helvetica,sans-Serif" font-size="10.00"> myGameState</text>
</g>
<!-- Node12 -->
<g id="node12" class="node"><title>Node12</title>
<g id="a_node12"><a xlink:href="../../d9/d7e/classgamemodel_1_1_game_universe.html" target="_top" xlink:title="gamemodel.GameUniverse">
<polygon fill="white" stroke="black" points="602.5,-524.5 602.5,-543.5 751.5,-543.5 751.5,-524.5 602.5,-524.5"/>
<text text-anchor="middle" x="677" y="-531.5" font-family="Helvetica,sans-Serif" font-size="10.00">gamemodel.GameUniverse</text>
</a>
</g>
</g>
<!-- Node12&#45;&gt;Node11 -->
<g id="edge12" class="edge"><title>Node12&#45;&gt;Node11</title>
<path fill="none" stroke="#9a32cd" stroke-dasharray="5,2" d="M761.72,-525.607C785.222,-522.618 810.713,-518.777 834,-514 886.508,-503.228 903.787,-508.156 950,-481 959.754,-475.268 958.124,-468.519 968,-463 974.952,-459.115 982.49,-455.831 990.227,-453.056"/>
<polygon fill="#9a32cd" stroke="#9a32cd" points="761.276,-522.136 751.781,-526.837 762.135,-529.083 761.276,-522.136"/>
<text text-anchor="middle" x="901" y="-514" font-family="Helvetica,sans-Serif" font-size="10.00"> myGameUniverse</text>
</g>
<!-- Node13 -->
<g id="node13" class="node"><title>Node13</title>
<polygon fill="white" stroke="#bfbfbf" points="0.5,-573 0.5,-603 313.5,-603 313.5,-573 0.5,-573"/>
<text text-anchor="start" x="8.5" y="-591" font-family="Helvetica,sans-Serif" font-size="10.00">Set&lt; game_engine.gameRepresentation.state</text>
<text text-anchor="middle" x="157" y="-580" font-family="Helvetica,sans-Serif" font-size="10.00">Representation.gameElement.DrawableGameElementState &gt;</text>
</g>
<!-- Node13&#45;&gt;Node12 -->
<g id="edge13" class="edge"><title>Node13&#45;&gt;Node12</title>
<path fill="none" stroke="#9a32cd" stroke-dasharray="5,2" d="M312.049,-571.941C408.035,-561.935 527.168,-549.515 602.414,-541.671"/>
<polygon fill="#9a32cd" stroke="#9a32cd" points="311.531,-568.476 301.948,-572.994 312.257,-575.438 311.531,-568.476"/>
<text text-anchor="middle" x="417" y="-571" font-family="Helvetica,sans-Serif" font-size="10.00"> myDrawableGameElementStates</text>
</g>
<!-- Node14 -->
<g id="node14" class="node"><title>Node14</title>
<polygon fill="white" stroke="#bfbfbf" points="37,-285.5 37,-326.5 277,-326.5 277,-285.5 37,-285.5"/>
<text text-anchor="start" x="45" y="-314.5" font-family="Helvetica,sans-Serif" font-size="10.00">Set&lt; game_engine.gameRepresentation.state</text>
<text text-anchor="start" x="45" y="-303.5" font-family="Helvetica,sans-Serif" font-size="10.00">Representation.gameElement.Attribute</text>
<text text-anchor="middle" x="157" y="-292.5" font-family="Helvetica,sans-Serif" font-size="10.00">&lt; Number &gt; &gt;</text>
</g>
<!-- Node14&#45;&gt;Node12 -->
<g id="edge14" class="edge"><title>Node14&#45;&gt;Node12</title>
<path fill="none" stroke="#9a32cd" stroke-dasharray="5,2" d="M229.439,-330.202C304.161,-358.269 421.555,-410.426 502,-485 513.125,-495.313 507.24,-505.796 520,-514 544.116,-529.505 574.693,-535.656 602.374,-537.517"/>
<polygon fill="#9a32cd" stroke="#9a32cd" points="230.233,-326.764 219.639,-326.568 227.798,-333.327 230.233,-326.764"/>
<text text-anchor="middle" x="417" y="-488" font-family="Helvetica,sans-Serif" font-size="10.00"> myNumericalAttributes</text>
</g>
<!-- Node14&#45;&gt;Node22 -->
<g id="edge24" class="edge"><title>Node14&#45;&gt;Node22</title>
<path fill="none" stroke="#9a32cd" stroke-dasharray="5,2" d="M230.387,-282.181C325.999,-250.067 484.416,-194.335 502,-172 538.898,-125.132 478.205,-81.5595 520,-39 528.16,-30.6908 537.91,-24.4791 548.497,-19.8974"/>
<polygon fill="#9a32cd" stroke="#9a32cd" points="229.137,-278.909 220.767,-285.404 231.361,-285.546 229.137,-278.909"/>
<text text-anchor="middle" x="417" y="-247" font-family="Helvetica,sans-Serif" font-size="10.00"> myNumericalAttributes</text>
</g>
<!-- Node14&#45;&gt;Node24 -->
<g id="edge30" class="edge"><title>Node14&#45;&gt;Node24</title>
<path fill="none" stroke="#9a32cd" stroke-dasharray="5,2" d="M287.043,-317.09C352.876,-318.698 433.334,-314.324 502,-292 511.144,-289.027 510.95,-283.247 520,-280 560.987,-265.295 819.092,-243.487 967.768,-231.902"/>
<polygon fill="#9a32cd" stroke="#9a32cd" points="287.122,-313.591 277.023,-316.797 286.917,-320.588 287.122,-313.591"/>
<text text-anchor="middle" x="677" y="-283" font-family="Helvetica,sans-Serif" font-size="10.00"> myNumericalAttributes</text>
</g>
<!-- Node15 -->
<g id="node15" class="node"><title>Node15</title>
<polygon fill="white" stroke="#bfbfbf" points="36,-513.5 36,-554.5 278,-554.5 278,-513.5 36,-513.5"/>
<text text-anchor="start" x="44" y="-542.5" font-family="Helvetica,sans-Serif" font-size="10.00">Set&lt; game_engine.gameRepresentation.state</text>
<text text-anchor="start" x="44" y="-531.5" font-family="Helvetica,sans-Serif" font-size="10.00">Representation.gameElement.SelectableGame</text>
<text text-anchor="middle" x="157" y="-520.5" font-family="Helvetica,sans-Serif" font-size="10.00">ElementState &gt;</text>
</g>
<!-- Node15&#45;&gt;Node12 -->
<g id="edge15" class="edge"><title>Node15&#45;&gt;Node12</title>
<path fill="none" stroke="#9a32cd" stroke-dasharray="5,2" d="M288.241,-534C387.462,-534 520.495,-534 602.127,-534"/>
<polygon fill="#9a32cd" stroke="#9a32cd" points="288.142,-530.5 278.142,-534 288.142,-537.5 288.142,-530.5"/>
<text text-anchor="middle" x="417" y="-537" font-family="Helvetica,sans-Serif" font-size="10.00"> mySelectableGameElementStates</text>
</g>
<!-- Node16 -->
<g id="node16" class="node"><title>Node16</title>
<polygon fill="white" stroke="#bfbfbf" points="22.5,-465 22.5,-495 291.5,-495 291.5,-465 22.5,-465"/>
<text text-anchor="start" x="30.5" y="-483" font-family="Helvetica,sans-Serif" font-size="10.00">Set&lt; game_engine.gameRepresentation.state</text>
<text text-anchor="middle" x="157" y="-472" font-family="Helvetica,sans-Serif" font-size="10.00">Representation.gameElement.GameElementState &gt;</text>
</g>
<!-- Node16&#45;&gt;Node12 -->
<g id="edge16" class="edge"><title>Node16&#45;&gt;Node12</title>
<path fill="none" stroke="#9a32cd" stroke-dasharray="5,2" d="M301.691,-494.979C399.304,-505.155 524.373,-518.193 602.354,-526.323"/>
<polygon fill="#9a32cd" stroke="#9a32cd" points="302.044,-491.497 291.735,-493.941 301.318,-498.46 302.044,-491.497"/>
<text text-anchor="middle" x="417" y="-518" font-family="Helvetica,sans-Serif" font-size="10.00"> myGameElementStates</text>
</g>
<!-- Node17 -->
<g id="node17" class="node"><title>Node17</title>
<polygon fill="white" stroke="#bfbfbf" points="37,-167.5 37,-208.5 277,-208.5 277,-167.5 37,-167.5"/>
<text text-anchor="start" x="45" y="-196.5" font-family="Helvetica,sans-Serif" font-size="10.00">Set&lt; game_engine.gameRepresentation.state</text>
<text text-anchor="start" x="45" y="-185.5" font-family="Helvetica,sans-Serif" font-size="10.00">Representation.gameElement.Attribute</text>
<text text-anchor="middle" x="157" y="-174.5" font-family="Helvetica,sans-Serif" font-size="10.00">&lt; String &gt; &gt;</text>
</g>
<!-- Node17&#45;&gt;Node12 -->
<g id="edge17" class="edge"><title>Node17&#45;&gt;Node12</title>
<path fill="none" stroke="#9a32cd" stroke-dasharray="5,2" d="M214.043,-212.659C306.824,-253.992 483.972,-335.259 502,-361 541.278,-417.082 471.838,-465.334 520,-514 541.128,-535.348 572.901,-542.043 602.271,-542.736"/>
<polygon fill="#9a32cd" stroke="#9a32cd" points="215.352,-209.411 204.792,-208.546 212.507,-215.807 215.352,-209.411"/>
<text text-anchor="middle" x="417" y="-364" font-family="Helvetica,sans-Serif" font-size="10.00"> myStringAttributes</text>
</g>
<!-- Node17&#45;&gt;Node22 -->
<g id="edge26" class="edge"><title>Node17&#45;&gt;Node22</title>
<path fill="none" stroke="#9a32cd" stroke-dasharray="5,2" d="M286.922,-169.656C357.084,-154.108 441.625,-125.674 502,-74 515.289,-62.626 505.807,-49.2235 520,-39 528.671,-32.754 538.321,-27.854 548.45,-24.035"/>
<polygon fill="#9a32cd" stroke="#9a32cd" points="286.161,-166.24 277.122,-171.766 287.634,-173.083 286.161,-166.24"/>
<text text-anchor="middle" x="417" y="-160" font-family="Helvetica,sans-Serif" font-size="10.00"> myTextualAttributes</text>
</g>
<!-- Node17&#45;&gt;Node24 -->
<g id="edge33" class="edge"><title>Node17&#45;&gt;Node24</title>
<path fill="none" stroke="#9a32cd" stroke-dasharray="5,2" d="M287.341,-193.089C469.832,-200.269 799.373,-213.234 967.759,-219.859"/>
<polygon fill="#9a32cd" stroke="#9a32cd" points="287.281,-189.584 277.151,-192.688 287.006,-196.578 287.281,-189.584"/>
<text text-anchor="middle" x="677" y="-218" font-family="Helvetica,sans-Serif" font-size="10.00"> myTextualAttributes</text>
</g>
<!-- Node18 -->
<g id="node18" class="node"><title>Node18</title>
<polygon fill="white" stroke="#bfbfbf" points="557,-475 557,-505 797,-505 797,-475 557,-475"/>
<text text-anchor="start" x="565" y="-493" font-family="Helvetica,sans-Serif" font-size="10.00">List&lt; game_engine.gameRepresentation.state</text>
<text text-anchor="middle" x="677" y="-482" font-family="Helvetica,sans-Serif" font-size="10.00">Representation.CampaignState &gt;</text>
</g>
<!-- Node18&#45;&gt;Node11 -->
<g id="edge18" class="edge"><title>Node18&#45;&gt;Node11</title>
<path fill="none" stroke="#9a32cd" stroke-dasharray="5,2" d="M802.178,-473.653C855.455,-466.639 917.029,-458.533 967.99,-451.824"/>
<polygon fill="#9a32cd" stroke="#9a32cd" points="801.443,-470.219 791.985,-474.994 802.357,-477.159 801.443,-470.219"/>
<text text-anchor="middle" x="901" y="-469" font-family="Helvetica,sans-Serif" font-size="10.00"> myCampaigns</text>
</g>
<!-- Node19 -->
<g id="node19" class="node"><title>Node19</title>
<g id="a_node19"><a xlink:href="../../d3/d14/classutil_1_1_save_load_utility.html" target="_top" xlink:title="util.SaveLoadUtility">
<polygon fill="white" stroke="black" points="1020,-332.5 1020,-351.5 1128,-351.5 1128,-332.5 1020,-332.5"/>
<text text-anchor="middle" x="1074" y="-339.5" font-family="Helvetica,sans-Serif" font-size="10.00">util.SaveLoadUtility</text>
</a>
</g>
</g>
<!-- Node19&#45;&gt;Node5 -->
<g id="edge19" class="edge"><title>Node19&#45;&gt;Node5</title>
<path fill="none" stroke="#9a32cd" stroke-dasharray="5,2" d="M1138.69,-341.795C1189.93,-342.164 1263.74,-343.897 1328,-350 1339.4,-351.082 1351.56,-352.709 1363.09,-354.474"/>
<polygon fill="#9a32cd" stroke="#9a32cd" points="1138.45,-338.294 1128.43,-341.737 1138.41,-345.294 1138.45,-338.294"/>
<text text-anchor="middle" x="1263" y="-353" font-family="Helvetica,sans-Serif" font-size="10.00"> mySLUtil</text>
</g>
<!-- Node20 -->
<g id="node20" class="node"><title>Node20</title>
<g id="a_node20"><a xlink:href="../../df/d88/classutil_1_1_default_resource.html" target="_top" xlink:title="util.DefaultResource">
<polygon fill="white" stroke="black" points="621,-338.5 621,-357.5 733,-357.5 733,-338.5 621,-338.5"/>
<text text-anchor="middle" x="677" y="-345.5" font-family="Helvetica,sans-Serif" font-size="10.00">util.DefaultResource</text>
</a>
</g>
</g>
<!-- Node20&#45;&gt;Node19 -->
<g id="edge20" class="edge"><title>Node20&#45;&gt;Node19</title>
<path fill="none" stroke="#9a32cd" stroke-dasharray="5,2" d="M743.459,-347.006C820.906,-345.829 948.342,-343.894 1019.93,-342.806"/>
<polygon fill="#9a32cd" stroke="#9a32cd" points="743.285,-343.508 733.339,-347.159 743.391,-350.507 743.285,-343.508"/>
<text text-anchor="middle" x="901" y="-349" font-family="Helvetica,sans-Serif" font-size="10.00"> myDefaultResource</text>
</g>
<!-- Node21 -->
<g id="node21" class="node"><title>Node21</title>
<polygon fill="white" stroke="#bfbfbf" points="656.5,-300.5 656.5,-319.5 697.5,-319.5 697.5,-300.5 656.5,-300.5"/>
<text text-anchor="middle" x="677" y="-307.5" font-family="Helvetica,sans-Serif" font-size="10.00">Gson</text>
</g>
<!-- Node21&#45;&gt;Node19 -->
<g id="edge21" class="edge"><title>Node21&#45;&gt;Node19</title>
<path fill="none" stroke="#9a32cd" stroke-dasharray="5,2" d="M707.95,-311.743C758.08,-314.738 862.135,-321.29 950,-329 972.888,-331.008 998.131,-333.609 1019.76,-335.956"/>
<polygon fill="#9a32cd" stroke="#9a32cd" points="708.003,-308.24 697.814,-311.142 707.589,-315.228 708.003,-308.24"/>
<text text-anchor="middle" x="901" y="-332" font-family="Helvetica,sans-Serif" font-size="10.00"> myGson</text>
</g>
<!-- Node22&#45;&gt;Node5 -->
<g id="edge22" class="edge"><title>Node22&#45;&gt;Node5</title>
<path fill="none" stroke="#9a32cd" stroke-dasharray="5,2" d="M806.136,-32.0858C815.625,-34.1518 824.999,-36.4491 834,-39 1067.92,-105.294 1136.15,-124.641 1328,-274 1360.93,-299.641 1393.71,-337.12 1408.23,-354.499"/>
<polygon fill="#9a32cd" stroke="#9a32cd" points="806.722,-28.6327 796.218,-30.0155 805.292,-35.485 806.722,-28.6327"/>
<text text-anchor="middle" x="1074" y="-171" font-family="Helvetica,sans-Serif" font-size="10.00"> myEditorSelectedElement</text>
</g>
<!-- Node23 -->
<g id="node23" class="node"><title>Node23</title>
<polygon fill="white" stroke="#bfbfbf" points="103.5,-0 103.5,-30 210.5,-30 210.5,-0 103.5,-0"/>
<text text-anchor="start" x="111.5" y="-18" font-family="Helvetica,sans-Serif" font-size="10.00">Map&lt; String, List&lt;</text>
<text text-anchor="middle" x="157" y="-7" font-family="Helvetica,sans-Serif" font-size="10.00"> String &gt; &gt;</text>
</g>
<!-- Node23&#45;&gt;Node22 -->
<g id="edge25" class="edge"><title>Node23&#45;&gt;Node22</title>
<path fill="none" stroke="#9a32cd" stroke-dasharray="5,2" d="M220.543,-15C301.374,-15 444.082,-15 548.268,-15"/>
<polygon fill="#9a32cd" stroke="#9a32cd" points="220.519,-11.5001 210.519,-15 220.519,-18.5001 220.519,-11.5001"/>
<text text-anchor="middle" x="417" y="-18" font-family="Helvetica,sans-Serif" font-size="10.00"> myActions</text>
</g>
<!-- Node24&#45;&gt;Node5 -->
<g id="edge27" class="edge"><title>Node24&#45;&gt;Node5</title>
<path fill="none" stroke="#9a32cd" stroke-dasharray="5,2" d="M1121.33,-243.023C1195.14,-273.326 1336.77,-331.471 1392.57,-354.382"/>
<polygon fill="#9a32cd" stroke="#9a32cd" points="1122.4,-239.676 1111.82,-239.115 1119.74,-246.151 1122.4,-239.676"/>
<text text-anchor="middle" x="1263" y="-330" font-family="Helvetica,sans-Serif" font-size="10.00"> myCurrentLevelState</text>
</g>
<!-- Node25 -->
<g id="node25" class="node"><title>Node25</title>
<polygon fill="white" stroke="#bfbfbf" points="556,-146.5 556,-187.5 798,-187.5 798,-146.5 556,-146.5"/>
<text text-anchor="start" x="564" y="-175.5" font-family="Helvetica,sans-Serif" font-size="10.00">List&lt; game_engine.gameRepresentation.state</text>
<text text-anchor="start" x="564" y="-164.5" font-family="Helvetica,sans-Serif" font-size="10.00">Representation.gameElement.SelectableGame</text>
<text text-anchor="middle" x="677" y="-153.5" font-family="Helvetica,sans-Serif" font-size="10.00">ElementState &gt;</text>
</g>
<!-- Node25&#45;&gt;Node24 -->
<g id="edge29" class="edge"><title>Node25&#45;&gt;Node24</title>
<path fill="none" stroke="#9a32cd" stroke-dasharray="5,2" d="M808.245,-180.088C853.261,-185.203 903.951,-191.625 950,-199 967.644,-201.826 986.604,-205.406 1004.23,-208.968"/>
<polygon fill="#9a32cd" stroke="#9a32cd" points="808.462,-176.59 798.133,-178.95 807.679,-183.546 808.462,-176.59"/>
<text text-anchor="middle" x="901" y="-202" font-family="Helvetica,sans-Serif" font-size="10.00"> myUnits</text>
</g>
<!-- Node26 -->
<g id="node26" class="node"><title>Node26</title>
<polygon fill="white" stroke="#bfbfbf" points="520.5,-98 520.5,-128 833.5,-128 833.5,-98 520.5,-98"/>
<text text-anchor="start" x="528.5" y="-116" font-family="Helvetica,sans-Serif" font-size="10.00">List&lt; game_engine.gameRepresentation.state</text>
<text text-anchor="middle" x="677" y="-105" font-family="Helvetica,sans-Serif" font-size="10.00">Representation.gameElement.DrawableGameElementState &gt;</text>
</g>
<!-- Node26&#45;&gt;Node24 -->
<g id="edge31" class="edge"><title>Node26&#45;&gt;Node24</title>
<path fill="none" stroke="#9a32cd" stroke-dasharray="5,2" d="M797.72,-129.762C810.015,-131.978 822.286,-134.394 834,-137 886.443,-148.666 899.459,-152.781 950,-171 981.499,-182.355 1016.48,-197.705 1041.06,-208.963"/>
<polygon fill="#9a32cd" stroke="#9a32cd" points="798.319,-126.314 787.864,-128.028 797.107,-133.208 798.319,-126.314"/>
<text text-anchor="middle" x="901" y="-174" font-family="Helvetica,sans-Serif" font-size="10.00"> myTerrains</text>
</g>
<!-- Node27 -->
<g id="node27" class="node"><title>Node27</title>
<polygon fill="white" stroke="#bfbfbf" points="542.5,-49 542.5,-79 811.5,-79 811.5,-49 542.5,-49"/>
<text text-anchor="start" x="550.5" y="-67" font-family="Helvetica,sans-Serif" font-size="10.00">List&lt; game_engine.gameRepresentation.state</text>
<text text-anchor="middle" x="677" y="-56" font-family="Helvetica,sans-Serif" font-size="10.00">Representation.gameElement.GameElementState &gt;</text>
</g>
<!-- Node27&#45;&gt;Node24 -->
<g id="edge32" class="edge"><title>Node27&#45;&gt;Node24</title>
<path fill="none" stroke="#9a32cd" stroke-dasharray="5,2" d="M815.668,-81.0471C860.369,-90.3892 908.98,-104.801 950,-127 992.573,-150.04 1035.41,-187.936 1057.56,-208.889"/>
<polygon fill="#9a32cd" stroke="#9a32cd" points="816.093,-77.5623 805.598,-79.0132 814.707,-84.4237 816.093,-77.5623"/>
<text text-anchor="middle" x="901" y="-130" font-family="Helvetica,sans-Serif" font-size="10.00"> myGoals</text>
</g>
</g>
</svg>
        <g id="navigator" transform="translate(0 0)" fill="#404254">
                <rect fill="#f2f5e9" fill-opacity="0.5" stroke="#606060" stroke-width=".5" x="0" y="0" width="60" height="60"/>
                <use id="zoomplus" xlink:href="#zoomPlus" x="17" y="9" onmousedown="handleZoom(evt,'in')"/>
                <use id="zoomminus" xlink:href="#zoomMin" x="42" y="9" onmousedown="handleZoom(evt,'out')"/>
                <use id="reset" xlink:href="#resetDef" x="30" y="36" onmousedown="handleReset()"/>
                <g id="arrowUp" xlink:href="#dirArrow" transform="translate(30 24)" onmousedown="handlePan(0,-1)">
                  <use xlink:href="#rim" fill="#404040">
                        <set attributeName="fill" to="#808080" begin="arrowUp.mouseover" end="arrowUp.mouseout"/>
                  </use>
                  <path fill="none" stroke="white" stroke-width="1.5" d="M0,-3.0v7 M-2.5,-0.5L0,-3.0L2.5,-0.5"/>
                </g>
                <g id="arrowRight" xlink:href="#dirArrow" transform="rotate(90) translate(36 -43)" onmousedown="handlePan(1,0)">
                  <use xlink:href="#rim" fill="#404040">
                        <set attributeName="fill" to="#808080" begin="arrowRight.mouseover" end="arrowRight.mouseout"/>
                  </use>
                  <path fill="none" stroke="white" stroke-width="1.5" d="M0,-3.0v7 M-2.5,-0.5L0,-3.0L2.5,-0.5"/>
                </g>
                <g id="arrowDown" xlink:href="#dirArrow" transform="rotate(180) translate(-30 -48)" onmousedown="handlePan(0,1)">
                  <use xlink:href="#rim" fill="#404040">
                        <set attributeName="fill" to="#808080" begin="arrowDown.mouseover" end="arrowDown.mouseout"/>
                  </use>
                  <path fill="none" stroke="white" stroke-width="1.5" d="M0,-3.0v7 M-2.5,-0.5L0,-3.0L2.5,-0.5"/>
                </g>
                <g id="arrowLeft" xlink:href="#dirArrow" transform="rotate(270) translate(-36 17)" onmousedown="handlePan(-1,0)">
                  <use xlink:href="#rim" fill="#404040">
                        <set attributeName="fill" to="#808080" begin="arrowLeft.mouseover" end="arrowLeft.mouseout"/>
                  </use>
                  <path fill="none" stroke="white" stroke-width="1.5" d="M0,-3.0v7 M-2.5,-0.5L0,-3.0L2.5,-0.5"/>
                </g>
        </g>
        <svg viewBox="0 0 15 15" width="100%" height="30px" preserveAspectRatio="xMaxYMin meet">
         <g id="arrow_out" transform="scale(0.3 0.3)">
          <a xlink:href="classview_1_1_g_u_i_container__coll__graph_org.svg" target="_base">
           <rect id="button" ry="5" rx="5" y="6" x="6" height="38" width="38"
                fill="#f2f5e9" fill-opacity="0.5" stroke="#606060" stroke-width="1.0"/>
           <path id="arrow"
             d="M 11.500037,31.436501 C 11.940474,20.09759 22.043105,11.32322 32.158766,21.979434 L 37.068811,17.246167 C 37.068811,17.246167 37.088388,32 37.088388,32 L 22.160133,31.978069 C 22.160133,31.978069 26.997745,27.140456 26.997745,27.140456 C 18.528582,18.264221 13.291696,25.230495 11.500037,31.436501 z"
             style="fill:#404040;"/>
          </a>
         </g>
        </svg>
</svg>
