<?xml version="1.0" encoding="UTF-8" standalone="no"?>
<!DOCTYPE svg PUBLIC "-//W3C//DTD SVG 1.1//EN"
 "http://www.w3.org/Graphics/SVG/1.1/DTD/svg11.dtd">
<!-- Generated by graphviz version 2.36.0 (20140111.2315)
 -->
<!-- Title: model.AnimatorStateFactory.createAnimationSequences Pages: 1 -->
<svg width="604pt" height="87pt"
 viewBox="0.00 0.00 604.00 87.00" xmlns="http://www.w3.org/2000/svg" xmlns:xlink="http://www.w3.org/1999/xlink">
<g id="graph0" class="graph" transform="scale(1 1) rotate(0) translate(4 83)">
<title>model.AnimatorStateFactory.createAnimationSequences</title>
<polygon fill="white" stroke="none" points="-4,4 -4,-83 600,-83 600,4 -4,4"/>
<!-- Node1 -->
<g id="node1" class="node"><title>Node1</title>
<polygon fill="#bfbfbf" stroke="black" points="0.5,-24 0.5,-54 187.5,-54 187.5,-24 0.5,-24"/>
<text text-anchor="start" x="8.5" y="-42" font-family="Helvetica,sans-Serif" font-size="10.00">model.AnimatorStateFactory.create</text>
<text text-anchor="middle" x="94" y="-31" font-family="Helvetica,sans-Serif" font-size="10.00">AnimationSequences</text>
</g>
<!-- Node2 -->
<g id="node2" class="node"><title>Node2</title>
<g id="a_node2"><a xlink:href="../../da/dbf/classmodel_1_1_animator_state_factory.html#acd50fcf1f0fd79408cad2e447dacf65f" target="_top" xlink:title="model.AnimatorStateFactory.create\lAnimationTags">
<polygon fill="white" stroke="black" points="224.5,-49 224.5,-79 411.5,-79 411.5,-49 224.5,-49"/>
<text text-anchor="start" x="232.5" y="-67" font-family="Helvetica,sans-Serif" font-size="10.00">model.AnimatorStateFactory.create</text>
<text text-anchor="middle" x="318" y="-56" font-family="Helvetica,sans-Serif" font-size="10.00">AnimationTags</text>
</a>
</g>
</g>
<!-- Node1&#45;&gt;Node2 -->
<g id="edge1" class="edge"><title>Node1&#45;&gt;Node2</title>
<path fill="none" stroke="midnightblue" d="M187.54,-49.4212C196.357,-50.4141 205.334,-51.425 214.24,-52.4279"/>
<polygon fill="midnightblue" stroke="midnightblue" points="213.924,-55.9143 224.253,-53.5555 214.707,-48.9583 213.924,-55.9143"/>
</g>
<!-- Node4 -->
<g id="node4" class="node"><title>Node4</title>
<g id="a_node4"><a xlink:href="../../dc/d48/classmodel_1_1data_1_1_wizard_data.html#ad9134aa0c85f67b8fd66ff84f7f79cbe" target="_top" xlink:title="model.data.WizardData.get\lWizardDataByType">
<polygon fill="white" stroke="black" points="244,-0 244,-30 392,-30 392,-0 244,-0"/>
<text text-anchor="start" x="252" y="-18" font-family="Helvetica,sans-Serif" font-size="10.00">model.data.WizardData.get</text>
<text text-anchor="middle" x="318" y="-7" font-family="Helvetica,sans-Serif" font-size="10.00">WizardDataByType</text>
</a>
</g>
</g>
<!-- Node1&#45;&gt;Node4 -->
<g id="edge3" class="edge"><title>Node1&#45;&gt;Node4</title>
<path fill="none" stroke="midnightblue" d="M187.54,-28.9956C202.814,-27.3445 218.567,-25.6415 233.598,-24.0164"/>
<polygon fill="midnightblue" stroke="midnightblue" points="234.309,-27.46 243.875,-22.9054 233.557,-20.5006 234.309,-27.46"/>
</g>
<!-- Node3 -->
<g id="node3" class="node"><title>Node3</title>
<g id="a_node3"><a xlink:href="../../dc/d48/classmodel_1_1data_1_1_wizard_data.html#ae19ca8de1e400fb399d702d78c861a81" target="_top" xlink:title="model.data.WizardData.get\lValueByKey">
<polygon fill="white" stroke="black" points="448,-49 448,-79 596,-79 596,-49 448,-49"/>
<text text-anchor="start" x="456" y="-67" font-family="Helvetica,sans-Serif" font-size="10.00">model.data.WizardData.get</text>
<text text-anchor="middle" x="522" y="-56" font-family="Helvetica,sans-Serif" font-size="10.00">ValueByKey</text>
</a>
</g>
</g>
<!-- Node2&#45;&gt;Node3 -->
<g id="edge2" class="edge"><title>Node2&#45;&gt;Node3</title>
<path fill="none" stroke="midnightblue" d="M411.723,-64C420.445,-64 429.25,-64 437.875,-64"/>
<polygon fill="midnightblue" stroke="midnightblue" points="437.902,-67.5001 447.902,-64 437.902,-60.5001 437.902,-67.5001"/>
</g>
</g>
</svg>
