<?xml version="1.0" encoding="UTF-8" standalone="no"?>
<!DOCTYPE svg PUBLIC "-//W3C//DTD SVG 1.1//EN"
 "http://www.w3.org/Graphics/SVG/1.1/DTD/svg11.dtd">
<!-- Generated by graphviz version 2.36.0 (20140111.2315)
 -->
<!-- Title: model.AnimatorStateFactory.createAnimatorState Pages: 1 -->
<svg width="828pt" height="109pt"
 viewBox="0.00 0.00 828.00 109.35" xmlns="http://www.w3.org/2000/svg" xmlns:xlink="http://www.w3.org/1999/xlink">
<g id="graph0" class="graph" transform="scale(1 1) rotate(0) translate(4 105.346)">
<title>model.AnimatorStateFactory.createAnimatorState</title>
<polygon fill="white" stroke="none" points="-4,4 -4,-105.346 824,-105.346 824,4 -4,4"/>
<!-- Node1 -->
<g id="node1" class="node"><title>Node1</title>
<polygon fill="#bfbfbf" stroke="black" points="0.5,-0.346437 0.5,-30.3464 187.5,-30.3464 187.5,-0.346437 0.5,-0.346437"/>
<text text-anchor="start" x="8.5" y="-18.3464" font-family="Helvetica,sans-Serif" font-size="10.00">model.AnimatorStateFactory.create</text>
<text text-anchor="middle" x="94" y="-7.34644" font-family="Helvetica,sans-Serif" font-size="10.00">AnimatorState</text>
</g>
<!-- Node2 -->
<g id="node2" class="node"><title>Node2</title>
<g id="a_node2"><a xlink:href="../../da/dbf/classmodel_1_1_animator_state_factory.html#a2ef84263b09d4839f9facf321402a9ec" target="_top" xlink:title="model.AnimatorStateFactory.create\lAnimationSequences">
<polygon fill="white" stroke="black" points="224.5,-22.3464 224.5,-52.3464 411.5,-52.3464 411.5,-22.3464 224.5,-22.3464"/>
<text text-anchor="start" x="232.5" y="-40.3464" font-family="Helvetica,sans-Serif" font-size="10.00">model.AnimatorStateFactory.create</text>
<text text-anchor="middle" x="318" y="-29.3464" font-family="Helvetica,sans-Serif" font-size="10.00">AnimationSequences</text>
</a>
</g>
</g>
<!-- Node1&#45;&gt;Node2 -->
<g id="edge1" class="edge"><title>Node1&#45;&gt;Node2</title>
<path fill="none" stroke="midnightblue" d="M187.54,-24.5171C196.357,-25.3909 205.334,-26.2805 214.24,-27.163"/>
<polygon fill="midnightblue" stroke="midnightblue" points="213.956,-30.6519 224.253,-28.1552 214.646,-23.6861 213.956,-30.6519"/>
</g>
<!-- Node4 -->
<g id="node4" class="node"><title>Node4</title>
<g id="a_node4"><a xlink:href="../../dc/d48/classmodel_1_1data_1_1_wizard_data.html#ae19ca8de1e400fb399d702d78c861a81" target="_top" xlink:title="model.data.WizardData.get\lValueByKey">
<polygon fill="white" stroke="black" points="672,-24.3464 672,-54.3464 820,-54.3464 820,-24.3464 672,-24.3464"/>
<text text-anchor="start" x="680" y="-42.3464" font-family="Helvetica,sans-Serif" font-size="10.00">model.data.WizardData.get</text>
<text text-anchor="middle" x="746" y="-31.3464" font-family="Helvetica,sans-Serif" font-size="10.00">ValueByKey</text>
</a>
</g>
</g>
<!-- Node1&#45;&gt;Node4 -->
<g id="edge5" class="edge"><title>Node1&#45;&gt;Node4</title>
<path fill="none" stroke="midnightblue" d="M187.788,-7.71972C295.874,-0.478291 479.601,6.73578 636,-12.3464 652.266,-14.3311 669.602,-17.9232 685.551,-21.8533"/>
<polygon fill="midnightblue" stroke="midnightblue" points="684.725,-25.2548 695.28,-24.3326 686.454,-18.4716 684.725,-25.2548"/>
</g>
<!-- Node3 -->
<g id="node3" class="node"><title>Node3</title>
<g id="a_node3"><a xlink:href="../../da/dbf/classmodel_1_1_animator_state_factory.html#acd50fcf1f0fd79408cad2e447dacf65f" target="_top" xlink:title="model.AnimatorStateFactory.create\lAnimationTags">
<polygon fill="white" stroke="black" points="448.5,-71.3464 448.5,-101.346 635.5,-101.346 635.5,-71.3464 448.5,-71.3464"/>
<text text-anchor="start" x="456.5" y="-89.3464" font-family="Helvetica,sans-Serif" font-size="10.00">model.AnimatorStateFactory.create</text>
<text text-anchor="middle" x="542" y="-78.3464" font-family="Helvetica,sans-Serif" font-size="10.00">AnimationTags</text>
</a>
</g>
</g>
<!-- Node2&#45;&gt;Node3 -->
<g id="edge2" class="edge"><title>Node2&#45;&gt;Node3</title>
<path fill="none" stroke="midnightblue" d="M387.116,-52.3811C411.089,-57.6724 438.215,-63.6597 462.943,-69.1177"/>
<polygon fill="midnightblue" stroke="midnightblue" points="462.493,-72.6026 473.013,-71.3403 464.002,-65.7671 462.493,-72.6026"/>
</g>
<!-- Node5 -->
<g id="node5" class="node"><title>Node5</title>
<g id="a_node5"><a xlink:href="../../dc/d48/classmodel_1_1data_1_1_wizard_data.html#ad9134aa0c85f67b8fd66ff84f7f79cbe" target="_top" xlink:title="model.data.WizardData.get\lWizardDataByType">
<polygon fill="white" stroke="black" points="468,-22.3464 468,-52.3464 616,-52.3464 616,-22.3464 468,-22.3464"/>
<text text-anchor="start" x="476" y="-40.3464" font-family="Helvetica,sans-Serif" font-size="10.00">model.data.WizardData.get</text>
<text text-anchor="middle" x="542" y="-29.3464" font-family="Helvetica,sans-Serif" font-size="10.00">WizardDataByType</text>
</a>
</g>
</g>
<!-- Node2&#45;&gt;Node5 -->
<g id="edge4" class="edge"><title>Node2&#45;&gt;Node5</title>
<path fill="none" stroke="midnightblue" d="M411.54,-37.3464C426.814,-37.3464 442.567,-37.3464 457.598,-37.3464"/>
<polygon fill="midnightblue" stroke="midnightblue" points="457.875,-40.8465 467.875,-37.3464 457.875,-33.8465 457.875,-40.8465"/>
</g>
<!-- Node3&#45;&gt;Node4 -->
<g id="edge3" class="edge"><title>Node3&#45;&gt;Node4</title>
<path fill="none" stroke="midnightblue" d="M607.469,-71.3461C627.513,-66.6825 649.775,-61.5028 670.447,-56.693"/>
<polygon fill="midnightblue" stroke="midnightblue" points="671.504,-60.0407 680.45,-54.3655 669.917,-53.2228 671.504,-60.0407"/>
</g>
</g>
</svg>
