<?xml version="1.0" encoding="UTF-8" standalone="no"?>
<!DOCTYPE svg PUBLIC "-//W3C//DTD SVG 1.1//EN"
 "http://www.w3.org/Graphics/SVG/1.1/DTD/svg11.dtd">
<!-- Generated by graphviz version 2.36.0 (20140111.2315)
 -->
<!-- Title: game_engine.computers.pathingComputers.MapGrid.registerObstaclePlacement Pages: 1 -->
<svg width="422pt" height="48pt"
 viewBox="0.00 0.00 422.00 48.00" xmlns="http://www.w3.org/2000/svg" xmlns:xlink="http://www.w3.org/1999/xlink">
<g id="graph0" class="graph" transform="scale(1 1) rotate(0) translate(4 44)">
<title>game_engine.computers.pathingComputers.MapGrid.registerObstaclePlacement</title>
<polygon fill="white" stroke="none" points="-4,4 -4,-44 418,-44 418,4 -4,4"/>
<!-- Node1 -->
<g id="node1" class="node"><title>Node1</title>
<polygon fill="#bfbfbf" stroke="black" points="0,0.5 0,-40.5 194,-40.5 194,0.5 0,0.5"/>
<text text-anchor="start" x="8" y="-28.5" font-family="Helvetica,sans-Serif" font-size="10.00">game_engine.computers.pathing</text>
<text text-anchor="start" x="8" y="-17.5" font-family="Helvetica,sans-Serif" font-size="10.00">Computers.MapGrid.registerObstacle</text>
<text text-anchor="middle" x="97" y="-6.5" font-family="Helvetica,sans-Serif" font-size="10.00">Placement</text>
</g>
<!-- Node2 -->
<g id="node2" class="node"><title>Node2</title>
<g id="a_node2"><a xlink:href="../../d1/d40/classgame__engine_1_1computers_1_1pathing_computers_1_1_map_grid.html#ae2891f9e24252b8a408986de19178a84" target="_top" xlink:title="game_engine.computers.pathing\lComputers.MapGrid.alterLocations\lInsideBounds">
<polygon fill="white" stroke="black" points="230.5,0.5 230.5,-40.5 413.5,-40.5 413.5,0.5 230.5,0.5"/>
<text text-anchor="start" x="238.5" y="-28.5" font-family="Helvetica,sans-Serif" font-size="10.00">game_engine.computers.pathing</text>
<text text-anchor="start" x="238.5" y="-17.5" font-family="Helvetica,sans-Serif" font-size="10.00">Computers.MapGrid.alterLocations</text>
<text text-anchor="middle" x="322" y="-6.5" font-family="Helvetica,sans-Serif" font-size="10.00">InsideBounds</text>
</a>
</g>
</g>
<!-- Node1&#45;&gt;Node2 -->
<g id="edge1" class="edge"><title>Node1&#45;&gt;Node2</title>
<path fill="none" stroke="midnightblue" d="M194.19,-20C202.832,-20 211.599,-20 220.279,-20"/>
<polygon fill="midnightblue" stroke="midnightblue" points="220.414,-23.5001 230.414,-20 220.414,-16.5001 220.414,-23.5001"/>
</g>
</g>
</svg>
