<?xml version="1.0" encoding="UTF-8" standalone="no"?>
<!DOCTYPE svg PUBLIC "-//W3C//DTD SVG 1.1//EN"
 "http://www.w3.org/Graphics/SVG/1.1/DTD/svg11.dtd">
<!-- Generated by graphviz version 2.36.0 (20140111.2315)
 -->
<!-- Title: game_engine.computers.pathingComputers.MapGrid.getNeighborsForXYCoordinate Pages: 1 -->
<svg width="708pt" height="66pt"
 viewBox="0.00 0.00 708.00 66.00" xmlns="http://www.w3.org/2000/svg" xmlns:xlink="http://www.w3.org/1999/xlink">
<g id="graph0" class="graph" transform="scale(1 1) rotate(0) translate(4 62)">
<title>game_engine.computers.pathingComputers.MapGrid.getNeighborsForXYCoordinate</title>
<polygon fill="white" stroke="none" points="-4,4 -4,-62 704,-62 704,4 -4,4"/>
<!-- Node1 -->
<g id="node1" class="node"><title>Node1</title>
<polygon fill="#bfbfbf" stroke="black" points="0.5,-16.5 0.5,-57.5 195.5,-57.5 195.5,-16.5 0.5,-16.5"/>
<text text-anchor="start" x="8.5" y="-45.5" font-family="Helvetica,sans-Serif" font-size="10.00">game_engine.computers.pathing</text>
<text text-anchor="start" x="8.5" y="-34.5" font-family="Helvetica,sans-Serif" font-size="10.00">Computers.MapGrid.getNeighborsFor</text>
<text text-anchor="middle" x="98" y="-23.5" font-family="Helvetica,sans-Serif" font-size="10.00">XYCoordinate</text>
</g>
<!-- Node2 -->
<g id="node2" class="node"><title>Node2</title>
<g id="a_node2"><a xlink:href="../../d2/d64/classgame__engine_1_1computers_1_1pathing_computers_1_1_pathing_computer.html#afd3e942603d5387912c56ba638635a4f" target="_top" xlink:title="game_engine.computers.pathing\lComputers.PathingComputer.findPath">
<polygon fill="white" stroke="black" points="502.5,-22 502.5,-52 699.5,-52 699.5,-22 502.5,-22"/>
<text text-anchor="start" x="510.5" y="-40" font-family="Helvetica,sans-Serif" font-size="10.00">game_engine.computers.pathing</text>
<text text-anchor="middle" x="601" y="-29" font-family="Helvetica,sans-Serif" font-size="10.00">Computers.PathingComputer.findPath</text>
</a>
</g>
</g>
<!-- Node1&#45;&gt;Node2 -->
<g id="edge1" class="edge"><title>Node1&#45;&gt;Node2</title>
<path fill="none" stroke="midnightblue" d="M205.67,-38.7453C214.577,-38.8481 223.443,-38.9357 232,-39 335.997,-39.7819 362.003,-39.7761 466,-39 477.749,-38.9123 490.077,-38.7814 502.299,-38.6277"/>
<polygon fill="midnightblue" stroke="midnightblue" points="205.653,-35.2449 195.612,-38.6232 205.568,-42.2444 205.653,-35.2449"/>
</g>
<!-- Node3 -->
<g id="node3" class="node"><title>Node3</title>
<g id="a_node3"><a xlink:href="../../d2/d64/classgame__engine_1_1computers_1_1pathing_computers_1_1_pathing_computer.html#a2c1e56ce0ec6988a9624785a70c1bbac" target="_top" xlink:title="game_engine.computers.pathing\lComputers.PathingComputer.reconstructPath">
<polygon fill="white" stroke="black" points="232,-0 232,-30 466,-30 466,-0 232,-0"/>
<text text-anchor="start" x="240" y="-18" font-family="Helvetica,sans-Serif" font-size="10.00">game_engine.computers.pathing</text>
<text text-anchor="middle" x="349" y="-7" font-family="Helvetica,sans-Serif" font-size="10.00">Computers.PathingComputer.reconstructPath</text>
</a>
</g>
</g>
<!-- Node1&#45;&gt;Node3 -->
<g id="edge2" class="edge"><title>Node1&#45;&gt;Node3</title>
<path fill="none" stroke="midnightblue" d="M205.736,-27.5695C214.402,-26.8038 223.186,-26.0278 231.914,-25.2566"/>
<polygon fill="midnightblue" stroke="midnightblue" points="205.279,-24.0961 195.626,-28.4627 205.896,-31.069 205.279,-24.0961"/>
</g>
<!-- Node3&#45;&gt;Node2 -->
<g id="edge3" class="edge"><title>Node3&#45;&gt;Node2</title>
<path fill="none" stroke="midnightblue" d="M476.454,-26.128C485.18,-26.8958 493.895,-27.6628 502.432,-28.414"/>
<polygon fill="midnightblue" stroke="midnightblue" points="476.486,-22.6173 466.217,-25.2271 475.872,-29.5904 476.486,-22.6173"/>
</g>
</g>
</svg>
