<?xml version="1.0" encoding="UTF-8" standalone="no"?>
<!DOCTYPE svg PUBLIC "-//W3C//DTD SVG 1.1//EN"
 "http://www.w3.org/Graphics/SVG/1.1/DTD/svg11.dtd">
<!-- Generated by graphviz version 2.36.0 (20140111.2315)
 -->
<!-- Title: view.editor.ElementAccordionController Pages: 1 -->
<!--zoomable 499 -->
<svg id="main" version="1.1" xmlns="http://www.w3.org/2000/svg" xmlns:xlink="http://www.w3.org/1999/xlink" xml:space="preserve" onload="init(evt)">
<style type="text/css"><![CDATA[
.edge:hover path { stroke: red; }
.edge:hover polygon { stroke: red; fill: red; }
]]></style>
<script type="text/javascript"><![CDATA[
var edges = document.getElementsByTagName('g');
if (edges && edges.length) {
  for (var i=0;i<edges.length;i++) {
    if (edges[i].id.substr(0,4)=='edge') {
      edges[i].setAttribute('class','edge');
    }
  }
}
]]></script>
        <defs>
                <circle id="rim" cx="0" cy="0" r="7"/>
                <circle id="rim2" cx="0" cy="0" r="3.5"/>
                <g id="zoomPlus">
                        <use xlink:href="#rim" fill="#404040">
                                <set attributeName="fill" to="#808080" begin="zoomplus.mouseover" end="zoomplus.mouseout"/>
                        </use>
                        <path d="M-4,0h8M0,-4v8" fill="none" stroke="white" stroke-width="1.5" pointer-events="none"/>
                </g>
                <g id="zoomMin">
                        <use xlink:href="#rim" fill="#404040">
                                <set attributeName="fill" to="#808080" begin="zoomminus.mouseover" end="zoomminus.mouseout"/>
                        </use>
                        <path d="M-4,0h8" fill="none" stroke="white" stroke-width="1.5" pointer-events="none"/>
                </g>
                <g id="dirArrow">
                        <path fill="none" stroke="white" stroke-width="1.5" d="M0,-3.0v7 M-2.5,-0.5L0,-3.0L2.5,-0.5"/>
                </g>
               <g id="resetDef">
                       <use xlink:href="#rim2" fill="#404040">
                               <set attributeName="fill" to="#808080" begin="reset.mouseover" end="reset.mouseout"/>
                       </use>
               </g>
        </defs>

<script type="text/javascript">
var viewWidth = 1872;
var viewHeight = 499;
var sectionId = 'dynsection-1';
</script>
<script xlink:href="../../svgpan.js"/>
<svg id="graph" class="graph">
<g id="viewport">
<title>view.editor.ElementAccordionController</title>
<polygon fill="white" stroke="none" points="-4,4 -4,-495 1868,-495 1868,4 -4,4"/>
<!-- Node1 -->
<g id="node1" class="node"><title>Node1</title>
<polygon fill="#bfbfbf" stroke="black" points="1708,-74 1708,-104 1864,-104 1864,-74 1708,-74"/>
<text text-anchor="start" x="1716" y="-92" font-family="Helvetica,sans-Serif" font-size="10.00">view.editor.ElementAccordion</text>
<text text-anchor="middle" x="1786" y="-81" font-family="Helvetica,sans-Serif" font-size="10.00">Controller</text>
</g>
<!-- Node2 -->
<g id="node2" class="node"><title>Node2</title>
<g id="a_node2"><a xlink:href="../../d0/d1c/classview_1_1gui_1_1_g_u_i_container.html" target="_top" xlink:title="view.gui.GUIContainer">
<polygon fill="white" stroke="black" points="1405,-340.5 1405,-359.5 1525,-359.5 1525,-340.5 1405,-340.5"/>
<text text-anchor="middle" x="1465" y="-347.5" font-family="Helvetica,sans-Serif" font-size="10.00">view.gui.GUIContainer</text>
</a>
</g>
</g>
<!-- Node2&#45;&gt;Node1 -->
<g id="edge1" class="edge"><title>Node2&#45;&gt;Node1</title>
<path fill="none" stroke="midnightblue" d="M1485.69,-333.891C1543.18,-286.856 1710.26,-150.148 1766.37,-104.239"/>
<polygon fill="midnightblue" stroke="midnightblue" points="1483.25,-331.36 1477.73,-340.401 1487.69,-336.778 1483.25,-331.36"/>
</g>
<!-- Node3 -->
<g id="node3" class="node"><title>Node3</title>
<polygon fill="white" stroke="#bfbfbf" points="752.5,-402.5 752.5,-421.5 823.5,-421.5 823.5,-402.5 752.5,-402.5"/>
<text text-anchor="middle" x="788" y="-409.5" font-family="Helvetica,sans-Serif" font-size="10.00">Observable</text>
</g>
<!-- Node3&#45;&gt;Node2 -->
<g id="edge2" class="edge"><title>Node3&#45;&gt;Node2</title>
<path fill="none" stroke="midnightblue" d="M833.652,-412.533C931.303,-412.994 1170.88,-410.284 1368,-377 1391.39,-373.051 1417.24,-365.596 1436.22,-359.519"/>
<polygon fill="midnightblue" stroke="midnightblue" points="833.573,-409.033 823.552,-412.471 833.531,-416.032 833.573,-409.033"/>
</g>
<!-- Node6 -->
<g id="node6" class="node"><title>Node6</title>
<g id="a_node6"><a xlink:href="../../de/d21/classmodel_1_1_main_model.html" target="_top" xlink:title="model.MainModel">
<polygon fill="white" stroke="black" points="1063.5,-357.5 1063.5,-376.5 1164.5,-376.5 1164.5,-357.5 1063.5,-357.5"/>
<text text-anchor="middle" x="1114" y="-364.5" font-family="Helvetica,sans-Serif" font-size="10.00">model.MainModel</text>
</a>
</g>
</g>
<!-- Node3&#45;&gt;Node6 -->
<g id="edge6" class="edge"><title>Node3&#45;&gt;Node6</title>
<path fill="none" stroke="midnightblue" d="M833.631,-405.801C893.807,-397.444 1000.62,-382.608 1063.3,-373.903"/>
<polygon fill="midnightblue" stroke="midnightblue" points="833.097,-402.342 823.674,-407.184 834.06,-409.275 833.097,-402.342"/>
</g>
<!-- Node4 -->
<g id="node4" class="node"><title>Node4</title>
<polygon fill="white" stroke="#bfbfbf" points="1084,-319.5 1084,-338.5 1144,-338.5 1144,-319.5 1084,-319.5"/>
<text text-anchor="middle" x="1114" y="-326.5" font-family="Helvetica,sans-Serif" font-size="10.00">Observer</text>
</g>
<!-- Node4&#45;&gt;Node2 -->
<g id="edge3" class="edge"><title>Node4&#45;&gt;Node2</title>
<path fill="none" stroke="midnightblue" d="M1154.15,-331.356C1215.16,-335.027 1333.3,-342.136 1404.77,-346.436"/>
<polygon fill="midnightblue" stroke="midnightblue" points="1154.35,-327.861 1144.16,-330.754 1153.93,-334.849 1154.35,-327.861"/>
</g>
<!-- Node5 -->
<g id="node5" class="node"><title>Node5</title>
<g id="a_node5"><a xlink:href="../../d5/d13/interfaceview_1_1gui_1_1_g_u_i_controller.html" target="_top" xlink:title="view.gui.GUIController">
<polygon fill="white" stroke="black" points="1054,-278.5 1054,-297.5 1174,-297.5 1174,-278.5 1054,-278.5"/>
<text text-anchor="middle" x="1114" y="-285.5" font-family="Helvetica,sans-Serif" font-size="10.00">view.gui.GUIController</text>
</a>
</g>
</g>
<!-- Node5&#45;&gt;Node2 -->
<g id="edge4" class="edge"><title>Node5&#45;&gt;Node2</title>
<path fill="none" stroke="midnightblue" d="M1181.23,-299.273C1232.29,-308.024 1304.66,-320.554 1368,-332 1382.85,-334.684 1398.98,-337.677 1413.7,-340.44"/>
<polygon fill="midnightblue" stroke="midnightblue" points="1181.76,-295.812 1171.31,-297.575 1180.58,-302.712 1181.76,-295.812"/>
</g>
<!-- Node28 -->
<g id="node28" class="node"><title>Node28</title>
<g id="a_node28"><a xlink:href="../../dc/d2d/classview_1_1editor_1_1_element_drop_down_controller.html" target="_top" xlink:title="view.editor.ElementDropDown\lController">
<polygon fill="white" stroke="black" points="1386,-142 1386,-172 1544,-172 1544,-142 1386,-142"/>
<text text-anchor="start" x="1394" y="-160" font-family="Helvetica,sans-Serif" font-size="10.00">view.editor.ElementDropDown</text>
<text text-anchor="middle" x="1465" y="-149" font-family="Helvetica,sans-Serif" font-size="10.00">Controller</text>
</a>
</g>
</g>
<!-- Node5&#45;&gt;Node28 -->
<g id="edge29" class="edge"><title>Node5&#45;&gt;Node28</title>
<path fill="none" stroke="midnightblue" d="M1184.15,-296.639C1237.27,-300.113 1310.96,-297.872 1368,-269 1410.73,-247.372 1442.26,-197.58 1456.15,-172.31"/>
<polygon fill="midnightblue" stroke="midnightblue" points="1184.37,-293.146 1174.14,-295.902 1183.86,-300.127 1184.37,-293.146"/>
</g>
<!-- Node6&#45;&gt;Node2 -->
<g id="edge5" class="edge"><title>Node6&#45;&gt;Node2</title>
<path fill="none" stroke="#9a32cd" stroke-dasharray="5,2" d="M1174.62,-364.096C1238.96,-360.962 1340.79,-356.002 1404.91,-352.878"/>
<polygon fill="#9a32cd" stroke="#9a32cd" points="1174.45,-360.6 1164.63,-364.582 1174.79,-367.592 1174.45,-360.6"/>
<text text-anchor="middle" x="1290" y="-365" font-family="Helvetica,sans-Serif" font-size="10.00"> myMainModel</text>
</g>
<!-- Node7 -->
<g id="node7" class="node"><title>Node7</title>
<g id="a_node7"><a xlink:href="../../d6/d8b/classmodel_1_1state_1_1_game_state.html" target="_top" xlink:title="model.state.GameState">
<polygon fill="white" stroke="black" points="721.5,-295.5 721.5,-314.5 854.5,-314.5 854.5,-295.5 721.5,-295.5"/>
<text text-anchor="middle" x="788" y="-302.5" font-family="Helvetica,sans-Serif" font-size="10.00">model.state.GameState</text>
</a>
</g>
</g>
<!-- Node7&#45;&gt;Node6 -->
<g id="edge7" class="edge"><title>Node7&#45;&gt;Node6</title>
<path fill="none" stroke="#9a32cd" stroke-dasharray="5,2" d="M855.076,-316.314C900.427,-324.232 961.952,-335.272 1016,-346 1033.91,-349.556 1053.62,-353.768 1070.57,-357.482"/>
<polygon fill="#9a32cd" stroke="#9a32cd" points="855.526,-312.84 845.074,-314.573 854.326,-319.736 855.526,-312.84"/>
<text text-anchor="middle" x="953" y="-349" font-family="Helvetica,sans-Serif" font-size="10.00"> myGameState</text>
</g>
<!-- Node8 -->
<g id="node8" class="node"><title>Node8</title>
<g id="a_node8"><a xlink:href="../../dc/d74/classmodel_1_1state_1_1_describable_state.html" target="_top" xlink:title="model.state.DescribableState">
<polygon fill="white" stroke="black" points="389,-306.5 389,-325.5 549,-325.5 549,-306.5 389,-306.5"/>
<text text-anchor="middle" x="469" y="-313.5" font-family="Helvetica,sans-Serif" font-size="10.00">model.state.DescribableState</text>
</a>
</g>
</g>
<!-- Node8&#45;&gt;Node7 -->
<g id="edge8" class="edge"><title>Node8&#45;&gt;Node7</title>
<path fill="none" stroke="midnightblue" d="M559.308,-312.901C610.826,-311.113 674.479,-308.905 721.374,-307.277"/>
<polygon fill="midnightblue" stroke="midnightblue" points="559.047,-309.408 549.175,-313.253 559.29,-316.404 559.047,-309.408"/>
</g>
<!-- Node9 -->
<g id="node9" class="node"><title>Node9</title>
<g id="a_node9"><a xlink:href="../../df/d74/interfaceutil_1_1_j_s_o_nable.html" target="_top" xlink:title="util.JSONable">
<polygon fill="white" stroke="black" points="49,-344.5 49,-363.5 127,-363.5 127,-344.5 49,-344.5"/>
<text text-anchor="middle" x="88" y="-351.5" font-family="Helvetica,sans-Serif" font-size="10.00">util.JSONable</text>
</a>
</g>
</g>
<!-- Node9&#45;&gt;Node8 -->
<g id="edge9" class="edge"><title>Node9&#45;&gt;Node8</title>
<path fill="none" stroke="midnightblue" d="M137.469,-350.459C192.46,-346.282 284.795,-338.782 364,-330 375.86,-328.685 388.46,-327.126 400.644,-325.535"/>
<polygon fill="midnightblue" stroke="midnightblue" points="137.024,-346.983 127.315,-351.225 137.55,-353.963 137.024,-346.983"/>
</g>
<!-- Node10 -->
<g id="node10" class="node"><title>Node10</title>
<polygon fill="white" stroke="#bfbfbf" points="52.5,-306.5 52.5,-325.5 123.5,-325.5 123.5,-306.5 52.5,-306.5"/>
<text text-anchor="middle" x="88" y="-313.5" font-family="Helvetica,sans-Serif" font-size="10.00">Serializable</text>
</g>
<!-- Node10&#45;&gt;Node8 -->
<g id="edge10" class="edge"><title>Node10&#45;&gt;Node8</title>
<path fill="none" stroke="midnightblue" d="M133.983,-316C196.696,-316 311.377,-316 388.642,-316"/>
<polygon fill="midnightblue" stroke="midnightblue" points="133.638,-312.5 123.638,-316 133.638,-319.5 133.638,-312.5"/>
</g>
<!-- Node11 -->
<g id="node11" class="node"><title>Node11</title>
<polygon fill="white" stroke="#bfbfbf" points="392,-257 392,-287 546,-287 546,-257 392,-257"/>
<text text-anchor="start" x="400" y="-275" font-family="Helvetica,sans-Serif" font-size="10.00">List&lt; model.state.Campaign</text>
<text text-anchor="middle" x="469" y="-264" font-family="Helvetica,sans-Serif" font-size="10.00">State &gt;</text>
</g>
<!-- Node11&#45;&gt;Node7 -->
<g id="edge11" class="edge"><title>Node11&#45;&gt;Node7</title>
<path fill="none" stroke="#9a32cd" stroke-dasharray="5,2" d="M556.369,-280.658C595.891,-284.655 643.325,-289.503 686,-294 697.402,-295.202 709.525,-296.502 721.268,-297.774"/>
<polygon fill="#9a32cd" stroke="#9a32cd" points="556.537,-277.157 546.236,-279.634 555.834,-284.121 556.537,-277.157"/>
<text text-anchor="middle" x="630" y="-297" font-family="Helvetica,sans-Serif" font-size="10.00"> myCampaigns</text>
</g>
<!-- Node12 -->
<g id="node12" class="node"><title>Node12</title>
<g id="a_node12"><a xlink:href="../../de/dda/classmodel_1_1_game_universe.html" target="_top" xlink:title="model.GameUniverse">
<polygon fill="white" stroke="black" points="408.5,-180.5 408.5,-199.5 529.5,-199.5 529.5,-180.5 408.5,-180.5"/>
<text text-anchor="middle" x="469" y="-187.5" font-family="Helvetica,sans-Serif" font-size="10.00">model.GameUniverse</text>
</a>
</g>
</g>
<!-- Node12&#45;&gt;Node7 -->
<g id="edge12" class="edge"><title>Node12&#45;&gt;Node7</title>
<path fill="none" stroke="#9a32cd" stroke-dasharray="5,2" d="M522.363,-201.993C568.007,-214.007 634.738,-235.434 686,-268 695.55,-274.067 694.1,-280.524 704,-286 710.985,-289.864 718.717,-292.943 726.569,-295.396"/>
<polygon fill="#9a32cd" stroke="#9a32cd" points="523.228,-198.602 512.671,-199.5 521.484,-205.381 523.228,-198.602"/>
<text text-anchor="middle" x="630" y="-271" font-family="Helvetica,sans-Serif" font-size="10.00"> myGameUniverse</text>
</g>
<!-- Node13 -->
<g id="node13" class="node"><title>Node13</title>
<polygon fill="white" stroke="#bfbfbf" points="0,-159 0,-189 176,-189 176,-159 0,-159"/>
<text text-anchor="start" x="8" y="-177" font-family="Helvetica,sans-Serif" font-size="10.00">Set&lt; model.state.gameelement.</text>
<text text-anchor="middle" x="88" y="-166" font-family="Helvetica,sans-Serif" font-size="10.00">GameElementState &gt;</text>
</g>
<!-- Node13&#45;&gt;Node12 -->
<g id="edge13" class="edge"><title>Node13&#45;&gt;Node12</title>
<path fill="none" stroke="#9a32cd" stroke-dasharray="5,2" d="M186.606,-178.121C256.741,-181.081 349.032,-184.978 408.447,-187.486"/>
<polygon fill="#9a32cd" stroke="#9a32cd" points="186.565,-174.616 176.426,-177.691 186.27,-181.61 186.565,-174.616"/>
<text text-anchor="middle" x="279" y="-189" font-family="Helvetica,sans-Serif" font-size="10.00"> myGameElementStates</text>
</g>
<!-- Node14 -->
<g id="node14" class="node"><title>Node14</title>
<polygon fill="white" stroke="#bfbfbf" points="48.5,-120.5 48.5,-139.5 127.5,-139.5 127.5,-120.5 48.5,-120.5"/>
<text text-anchor="middle" x="88" y="-127.5" font-family="Helvetica,sans-Serif" font-size="10.00">Set&lt; Long &gt;</text>
</g>
<!-- Node14&#45;&gt;Node12 -->
<g id="edge14" class="edge"><title>Node14&#45;&gt;Node12</title>
<path fill="none" stroke="#9a32cd" stroke-dasharray="5,2" d="M138.073,-132.396C193.608,-135.949 286.434,-144.446 364,-164 372.323,-166.098 373.785,-168.511 382,-171 393.707,-174.547 406.496,-177.732 418.546,-180.436"/>
<polygon fill="#9a32cd" stroke="#9a32cd" points="138.009,-128.885 127.814,-131.769 137.581,-135.872 138.009,-128.885"/>
<text text-anchor="middle" x="279" y="-167" font-family="Helvetica,sans-Serif" font-size="10.00"> myParticipantColors</text>
</g>
<!-- Node15 -->
<g id="node15" class="node"><title>Node15</title>
<polygon fill="white" stroke="#bfbfbf" points="0,-71 0,-101 176,-101 176,-71 0,-71"/>
<text text-anchor="start" x="8" y="-89" font-family="Helvetica,sans-Serif" font-size="10.00">Set&lt; model.state.gameelement.</text>
<text text-anchor="middle" x="88" y="-78" font-family="Helvetica,sans-Serif" font-size="10.00">Attribute&lt; String &gt; &gt;</text>
</g>
<!-- Node15&#45;&gt;Node12 -->
<g id="edge15" class="edge"><title>Node15&#45;&gt;Node12</title>
<path fill="none" stroke="#9a32cd" stroke-dasharray="5,2" d="M186.262,-75.1965C243.741,-74.0898 314.686,-82.5717 364,-122 382.121,-136.488 364.528,-155.735 382,-171 389.485,-177.539 398.713,-181.983 408.316,-184.973"/>
<polygon fill="#9a32cd" stroke="#9a32cd" points="185.955,-71.7039 176.062,-75.4949 186.16,-78.7009 185.955,-71.7039"/>
<text text-anchor="middle" x="279" y="-125" font-family="Helvetica,sans-Serif" font-size="10.00"> myTextualAttributes</text>
</g>
<!-- Node16 -->
<g id="node16" class="node"><title>Node16</title>
<polygon fill="white" stroke="#bfbfbf" points="0,-22 0,-52 176,-52 176,-22 0,-22"/>
<text text-anchor="start" x="8" y="-40" font-family="Helvetica,sans-Serif" font-size="10.00">Set&lt; model.state.gameelement.</text>
<text text-anchor="middle" x="88" y="-29" font-family="Helvetica,sans-Serif" font-size="10.00">SelectableGameElementState &gt;</text>
</g>
<!-- Node16&#45;&gt;Node12 -->
<g id="edge16" class="edge"><title>Node16&#45;&gt;Node12</title>
<path fill="none" stroke="#9a32cd" stroke-dasharray="5,2" d="M166.168,-20.5368C227.662,-12.278 311.827,-12.6078 364,-61 400.321,-94.6889 347.951,-135.017 382,-171 389.041,-178.441 398.288,-183.289 408.102,-186.391"/>
<polygon fill="#9a32cd" stroke="#9a32cd" points="165.514,-17.0947 156.118,-21.9891 166.516,-24.0228 165.514,-17.0947"/>
<text text-anchor="middle" x="279" y="-64" font-family="Helvetica,sans-Serif" font-size="10.00"> mySelectableGameElementStates</text>
</g>
<!-- Node17 -->
<g id="node17" class="node"><title>Node17</title>
<polygon fill="white" stroke="#bfbfbf" points="0,-257 0,-287 176,-287 176,-257 0,-257"/>
<text text-anchor="start" x="8" y="-275" font-family="Helvetica,sans-Serif" font-size="10.00">Set&lt; model.state.gameelement.</text>
<text text-anchor="middle" x="88" y="-264" font-family="Helvetica,sans-Serif" font-size="10.00">DrawableGameElementState &gt;</text>
</g>
<!-- Node17&#45;&gt;Node12 -->
<g id="edge17" class="edge"><title>Node17&#45;&gt;Node12</title>
<path fill="none" stroke="#9a32cd" stroke-dasharray="5,2" d="M186.162,-262.342C239.275,-255.773 305.892,-245.418 364,-230 393.543,-222.161 426.234,-208.762 446.935,-199.651"/>
<polygon fill="#9a32cd" stroke="#9a32cd" points="185.573,-258.888 176.067,-263.566 186.415,-265.837 185.573,-258.888"/>
<text text-anchor="middle" x="279" y="-265" font-family="Helvetica,sans-Serif" font-size="10.00"> myDrawableGameElementStates</text>
</g>
<!-- Node18 -->
<g id="node18" class="node"><title>Node18</title>
<polygon fill="white" stroke="#bfbfbf" points="0,-208 0,-238 176,-238 176,-208 0,-208"/>
<text text-anchor="start" x="8" y="-226" font-family="Helvetica,sans-Serif" font-size="10.00">Set&lt; model.state.gameelement.</text>
<text text-anchor="middle" x="88" y="-215" font-family="Helvetica,sans-Serif" font-size="10.00">Attribute&lt; Number &gt; &gt;</text>
</g>
<!-- Node18&#45;&gt;Node12 -->
<g id="edge18" class="edge"><title>Node18&#45;&gt;Node12</title>
<path fill="none" stroke="#9a32cd" stroke-dasharray="5,2" d="M186.066,-215.843C238.739,-211.806 304.972,-206.482 364,-201 378.372,-199.665 393.848,-198.099 408.355,-196.573"/>
<polygon fill="#9a32cd" stroke="#9a32cd" points="185.76,-212.356 176.056,-216.607 186.293,-219.335 185.76,-212.356"/>
<text text-anchor="middle" x="279" y="-218" font-family="Helvetica,sans-Serif" font-size="10.00"> myNumericalAttributes</text>
</g>
<!-- Node19 -->
<g id="node19" class="node"><title>Node19</title>
<polygon fill="white" stroke="#bfbfbf" points="386,-142.5 386,-161.5 552,-161.5 552,-142.5 386,-142.5"/>
<text text-anchor="middle" x="469" y="-149.5" font-family="Helvetica,sans-Serif" font-size="10.00">List&lt; model.state.HighScore &gt;</text>
</g>
<!-- Node19&#45;&gt;Node7 -->
<g id="edge19" class="edge"><title>Node19&#45;&gt;Node7</title>
<path fill="none" stroke="#9a32cd" stroke-dasharray="5,2" d="M562.216,-152.435C605.363,-157.523 654.143,-171.09 686,-204 711.951,-230.809 677.735,-259.498 704,-286 708.891,-290.935 714.783,-294.698 721.145,-297.553"/>
<polygon fill="#9a32cd" stroke="#9a32cd" points="562.555,-148.951 552.246,-151.395 561.829,-155.913 562.555,-148.951"/>
<text text-anchor="middle" x="630" y="-207" font-family="Helvetica,sans-Serif" font-size="10.00"> myHighScores</text>
</g>
<!-- Node20 -->
<g id="node20" class="node"><title>Node20</title>
<g id="a_node20"><a xlink:href="../../de/d33/classmodel_1_1_game_save_load_mediator.html" target="_top" xlink:title="model.GameSaveLoadMediator">
<polygon fill="white" stroke="black" points="704,-257.5 704,-276.5 872,-276.5 872,-257.5 704,-257.5"/>
<text text-anchor="middle" x="788" y="-264.5" font-family="Helvetica,sans-Serif" font-size="10.00">model.GameSaveLoadMediator</text>
</a>
</g>
</g>
<!-- Node20&#45;&gt;Node6 -->
<g id="edge20" class="edge"><title>Node20&#45;&gt;Node6</title>
<path fill="none" stroke="#9a32cd" stroke-dasharray="5,2" d="M882.188,-264.447C926.759,-267.734 978.449,-278.656 1016,-308 1031.36,-320.004 1018.99,-335.561 1034,-348 1042.36,-354.931 1052.84,-359.411 1063.41,-362.288"/>
<polygon fill="#9a32cd" stroke="#9a32cd" points="882.404,-260.954 872.207,-263.828 881.971,-267.941 882.404,-260.954"/>
<text text-anchor="middle" x="953" y="-311" font-family="Helvetica,sans-Serif" font-size="10.00"> mySaveLoadMediator</text>
</g>
<!-- Node21 -->
<g id="node21" class="node"><title>Node21</title>
<g id="a_node21"><a xlink:href="../../de/d01/classmodel_1_1sprite_1_1_sprite_image_generator.html" target="_top" xlink:title="model.sprite.SpriteImage\lGenerator">
<polygon fill="white" stroke="black" points="719,-353 719,-383 857,-383 857,-353 719,-353"/>
<text text-anchor="start" x="727" y="-371" font-family="Helvetica,sans-Serif" font-size="10.00">model.sprite.SpriteImage</text>
<text text-anchor="middle" x="788" y="-360" font-family="Helvetica,sans-Serif" font-size="10.00">Generator</text>
</a>
</g>
</g>
<!-- Node21&#45;&gt;Node6 -->
<g id="edge21" class="edge"><title>Node21&#45;&gt;Node6</title>
<path fill="none" stroke="#9a32cd" stroke-dasharray="5,2" d="M867.241,-362.892C874.928,-362.528 882.614,-362.219 890,-362 945.975,-360.339 960.019,-360.558 1016,-362 1031.34,-362.395 1048.03,-363.141 1063.17,-363.939"/>
<polygon fill="#9a32cd" stroke="#9a32cd" points="866.97,-359.401 857.158,-363.398 867.321,-366.392 866.97,-359.401"/>
<text text-anchor="middle" x="953" y="-365" font-family="Helvetica,sans-Serif" font-size="10.00"> mySpriteImageGenerator</text>
</g>
<!-- Node22 -->
<g id="node22" class="node"><title>Node22</title>
<polygon fill="white" stroke="#bfbfbf" points="422.5,-470.5 422.5,-489.5 515.5,-489.5 515.5,-470.5 422.5,-470.5"/>
<text text-anchor="middle" x="469" y="-477.5" font-family="Helvetica,sans-Serif" font-size="10.00">ResourceBundle</text>
</g>
<!-- Node22&#45;&gt;Node21 -->
<g id="edge22" class="edge"><title>Node22&#45;&gt;Node21</title>
<path fill="none" stroke="#9a32cd" stroke-dasharray="5,2" d="M525.913,-482.78C573.544,-482.183 641.2,-473.937 686,-437 702.302,-423.559 688.362,-407.208 704,-393 708.455,-388.952 713.545,-385.559 718.961,-382.714"/>
<polygon fill="#9a32cd" stroke="#9a32cd" points="525.763,-479.28 515.768,-482.796 525.774,-486.28 525.763,-479.28"/>
<text text-anchor="middle" x="630" y="-483" font-family="Helvetica,sans-Serif" font-size="10.00"> myBundle</text>
</g>
<!-- Node23 -->
<g id="node23" class="node"><title>Node23</title>
<polygon fill="white" stroke="#bfbfbf" points="396,-421 396,-451 542,-451 542,-421 396,-421"/>
<text text-anchor="start" x="404" y="-439" font-family="Helvetica,sans-Serif" font-size="10.00">Map&lt; String, model.sprite.</text>
<text text-anchor="middle" x="469" y="-428" font-family="Helvetica,sans-Serif" font-size="10.00">SpriteImageContainer &gt;</text>
</g>
<!-- Node23&#45;&gt;Node21 -->
<g id="edge23" class="edge"><title>Node23&#45;&gt;Node21</title>
<path fill="none" stroke="#9a32cd" stroke-dasharray="5,2" d="M552.194,-424.929C592.774,-418.702 642.284,-409.963 686,-399 694.179,-396.949 695.962,-395.55 704,-393 714.328,-389.724 725.412,-386.313 736.01,-383.102"/>
<polygon fill="#9a32cd" stroke="#9a32cd" points="551.443,-421.503 542.079,-426.458 552.489,-428.424 551.443,-421.503"/>
<text text-anchor="middle" x="630" y="-425" font-family="Helvetica,sans-Serif" font-size="10.00"> myCachedContainer</text>
</g>
<!-- Node24 -->
<g id="node24" class="node"><title>Node24</title>
<g id="a_node24"><a xlink:href="../../d9/d0f/classutil_1_1_resource_bundle_retriever.html" target="_top" xlink:title="util.ResourceBundleRetriever">
<polygon fill="white" stroke="black" points="393,-382.5 393,-401.5 545,-401.5 545,-382.5 393,-382.5"/>
<text text-anchor="middle" x="469" y="-389.5" font-family="Helvetica,sans-Serif" font-size="10.00">util.ResourceBundleRetriever</text>
</a>
</g>
</g>
<!-- Node24&#45;&gt;Node21 -->
<g id="edge24" class="edge"><title>Node24&#45;&gt;Node21</title>
<path fill="none" stroke="#9a32cd" stroke-dasharray="5,2" d="M555.204,-385.549C606.523,-381.664 670.988,-376.783 718.898,-373.156"/>
<polygon fill="#9a32cd" stroke="#9a32cd" points="554.832,-382.067 545.125,-386.312 555.36,-389.047 554.832,-382.067"/>
<text text-anchor="middle" x="630" y="-387" font-family="Helvetica,sans-Serif" font-size="10.00"> myBundleRetriever</text>
</g>
<!-- Node25 -->
<g id="node25" class="node"><title>Node25</title>
<g id="a_node25"><a xlink:href="../../d2/ddc/classmodel_1_1sprite_1_1_color_map_generator.html" target="_top" xlink:title="model.sprite.ColorMapGenerator">
<polygon fill="white" stroke="black" points="382.5,-344.5 382.5,-363.5 555.5,-363.5 555.5,-344.5 382.5,-344.5"/>
<text text-anchor="middle" x="469" y="-351.5" font-family="Helvetica,sans-Serif" font-size="10.00">model.sprite.ColorMapGenerator</text>
</a>
</g>
</g>
<!-- Node25&#45;&gt;Node21 -->
<g id="edge25" class="edge"><title>Node25&#45;&gt;Node21</title>
<path fill="none" stroke="#9a32cd" stroke-dasharray="5,2" d="M566.117,-354.872C603.554,-355.566 646.803,-356.802 686,-359 696.634,-359.596 707.882,-360.413 718.861,-361.314"/>
<polygon fill="#9a32cd" stroke="#9a32cd" points="565.779,-351.366 555.72,-354.69 565.657,-358.365 565.779,-351.366"/>
<text text-anchor="middle" x="630" y="-362" font-family="Helvetica,sans-Serif" font-size="10.00"> myColorMapGenerator</text>
</g>
<!-- Node26 -->
<g id="node26" class="node"><title>Node26</title>
<polygon fill="white" stroke="#bfbfbf" points="29.5,-382.5 29.5,-401.5 146.5,-401.5 146.5,-382.5 29.5,-382.5"/>
<text text-anchor="middle" x="88" y="-389.5" font-family="Helvetica,sans-Serif" font-size="10.00">Map&lt; String, Paint &gt;</text>
</g>
<!-- Node26&#45;&gt;Node25 -->
<g id="edge26" class="edge"><title>Node26&#45;&gt;Node25</title>
<path fill="none" stroke="#9a32cd" stroke-dasharray="5,2" d="M156.798,-385.202C219.884,-378.877 314.162,-369.424 382.41,-362.582"/>
<polygon fill="#9a32cd" stroke="#9a32cd" points="156.163,-381.748 146.562,-386.229 156.861,-388.713 156.163,-381.748"/>
<text text-anchor="middle" x="279" y="-384" font-family="Helvetica,sans-Serif" font-size="10.00"> myColorMap</text>
</g>
<!-- Node27 -->
<g id="node27" class="node"><title>Node27</title>
<polygon fill="white" stroke="#bfbfbf" points="1034.5,-440.5 1034.5,-459.5 1193.5,-459.5 1193.5,-440.5 1034.5,-440.5"/>
<text text-anchor="middle" x="1114" y="-447.5" font-family="Helvetica,sans-Serif" font-size="10.00">List&lt; view.gui.GUIContainer &gt;</text>
</g>
<!-- Node27&#45;&gt;Node2 -->
<g id="edge27" class="edge"><title>Node27&#45;&gt;Node2</title>
<path fill="none" stroke="#9a32cd" stroke-dasharray="5,2" d="M1203.65,-453.771C1253.57,-452.941 1316.1,-446.855 1368,-426 1405.48,-410.94 1440.2,-376.371 1455.62,-359.547"/>
<polygon fill="#9a32cd" stroke="#9a32cd" points="1203.49,-450.272 1193.52,-453.871 1203.56,-457.272 1203.49,-450.272"/>
<text text-anchor="middle" x="1290" y="-457" font-family="Helvetica,sans-Serif" font-size="10.00"> myChildContainers</text>
</g>
<!-- Node28&#45;&gt;Node1 -->
<g id="edge28" class="edge"><title>Node28&#45;&gt;Node1</title>
<path fill="none" stroke="#9a32cd" stroke-dasharray="5,2" d="M1546.22,-139.9C1598.01,-128.86 1664.75,-114.633 1714.5,-104.027"/>
<polygon fill="#9a32cd" stroke="#9a32cd" points="1545.45,-136.485 1536.4,-141.993 1546.91,-143.331 1545.45,-136.485"/>
<text text-anchor="middle" x="1626" y="-150" font-family="Helvetica,sans-Serif" font-size="10.00"> unitTitledPaneController</text>
<text text-anchor="middle" x="1626" y="-139" font-family="Helvetica,sans-Serif" font-size="10.00">terrainTitledPaneController</text>
</g>
<!-- Node29 -->
<g id="node29" class="node"><title>Node29</title>
<polygon fill="white" stroke="#bfbfbf" points="1089.5,-237.5 1089.5,-256.5 1138.5,-256.5 1138.5,-237.5 1089.5,-237.5"/>
<text text-anchor="middle" x="1114" y="-244.5" font-family="Helvetica,sans-Serif" font-size="10.00">Button</text>
</g>
<!-- Node29&#45;&gt;Node28 -->
<g id="edge30" class="edge"><title>Node29&#45;&gt;Node28</title>
<path fill="none" stroke="#9a32cd" stroke-dasharray="5,2" d="M1148.83,-245.717C1208.19,-243.127 1328.55,-236.26 1368,-222 1398.85,-210.848 1429.34,-187.545 1447.41,-172.087"/>
<polygon fill="#9a32cd" stroke="#9a32cd" points="1148.68,-242.221 1138.83,-246.139 1148.97,-249.215 1148.68,-242.221"/>
<text text-anchor="middle" x="1290" y="-257" font-family="Helvetica,sans-Serif" font-size="10.00"> newElementButton</text>
<text text-anchor="middle" x="1290" y="-246" font-family="Helvetica,sans-Serif" font-size="10.00">deleteElementButton</text>
</g>
<!-- Node30 -->
<g id="node30" class="node"><title>Node30</title>
<polygon fill="white" stroke="#bfbfbf" points="1055.5,-185.5 1055.5,-204.5 1172.5,-204.5 1172.5,-185.5 1055.5,-185.5"/>
<text text-anchor="middle" x="1114" y="-192.5" font-family="Helvetica,sans-Serif" font-size="10.00">Consumer&lt; String &gt;</text>
</g>
<!-- Node30&#45;&gt;Node28 -->
<g id="edge31" class="edge"><title>Node30&#45;&gt;Node28</title>
<path fill="none" stroke="#9a32cd" stroke-dasharray="5,2" d="M1182.8,-188.44C1233.77,-183.41 1305.31,-176.139 1368,-169 1373.84,-168.335 1379.88,-167.627 1385.95,-166.901"/>
<polygon fill="#9a32cd" stroke="#9a32cd" points="1182.17,-184.985 1172.56,-189.447 1182.86,-191.951 1182.17,-184.985"/>
<text text-anchor="middle" x="1290" y="-210" font-family="Helvetica,sans-Serif" font-size="10.00"> mySelectionChangedConsumer</text>
<text text-anchor="middle" x="1290" y="-199" font-family="Helvetica,sans-Serif" font-size="10.00">myDeletionConsumer</text>
<text text-anchor="middle" x="1290" y="-188" font-family="Helvetica,sans-Serif" font-size="10.00">myEditConsumer</text>
</g>
<!-- Node31 -->
<g id="node31" class="node"><title>Node31</title>
<polygon fill="white" stroke="#bfbfbf" points="1081.5,-59.5 1081.5,-78.5 1146.5,-78.5 1146.5,-59.5 1081.5,-59.5"/>
<text text-anchor="middle" x="1114" y="-66.5" font-family="Helvetica,sans-Serif" font-size="10.00">TitledPane</text>
</g>
<!-- Node31&#45;&gt;Node1 -->
<g id="edge36" class="edge"><title>Node31&#45;&gt;Node1</title>
<path fill="none" stroke="#9a32cd" stroke-dasharray="5,2" d="M1156.68,-70.1085C1206.83,-71.4526 1293.58,-73.8104 1368,-76 1486.55,-79.488 1624.06,-83.8328 1707.76,-86.5111"/>
<polygon fill="#9a32cd" stroke="#9a32cd" points="1156.65,-66.6064 1146.56,-69.8375 1156.46,-73.6039 1156.65,-66.6064"/>
<text text-anchor="middle" x="1465" y="-96" font-family="Helvetica,sans-Serif" font-size="10.00"> unitTitledPane</text>
<text text-anchor="middle" x="1465" y="-85" font-family="Helvetica,sans-Serif" font-size="10.00">terrainTitledPane</text>
</g>
<!-- Node31&#45;&gt;Node28 -->
<g id="edge32" class="edge"><title>Node31&#45;&gt;Node28</title>
<path fill="none" stroke="#9a32cd" stroke-dasharray="5,2" d="M1156.76,-72.6132C1207.59,-77.8003 1295.6,-89.3393 1368,-112 1392.24,-119.588 1418.24,-132.071 1437.06,-141.968"/>
<polygon fill="#9a32cd" stroke="#9a32cd" points="1157.1,-69.1295 1146.8,-71.63 1156.41,-76.0956 1157.1,-69.1295"/>
<text text-anchor="middle" x="1290" y="-115" font-family="Helvetica,sans-Serif" font-size="10.00"> elementDropDown</text>
</g>
<!-- Node32 -->
<g id="node32" class="node"><title>Node32</title>
<polygon fill="white" stroke="#bfbfbf" points="1061,-147.5 1061,-166.5 1167,-166.5 1167,-147.5 1061,-147.5"/>
<text text-anchor="middle" x="1114" y="-154.5" font-family="Helvetica,sans-Serif" font-size="10.00">ListView&lt; String &gt;</text>
</g>
<!-- Node32&#45;&gt;Node28 -->
<g id="edge33" class="edge"><title>Node32&#45;&gt;Node28</title>
<path fill="none" stroke="#9a32cd" stroke-dasharray="5,2" d="M1177.42,-157C1235.71,-157 1322.92,-157 1385.82,-157"/>
<polygon fill="#9a32cd" stroke="#9a32cd" points="1177.25,-153.5 1167.25,-157 1177.25,-160.5 1177.25,-153.5"/>
<text text-anchor="middle" x="1290" y="-160" font-family="Helvetica,sans-Serif" font-size="10.00"> elementListView</text>
</g>
<!-- Node33 -->
<g id="node33" class="node"><title>Node33</title>
<polygon fill="white" stroke="#bfbfbf" points="1042,-109.5 1042,-128.5 1186,-128.5 1186,-109.5 1042,-109.5"/>
<text text-anchor="middle" x="1114" y="-116.5" font-family="Helvetica,sans-Serif" font-size="10.00">HashMap&lt; String, Node &gt;</text>
</g>
<!-- Node33&#45;&gt;Node28 -->
<g id="edge34" class="edge"><title>Node33&#45;&gt;Node28</title>
<path fill="none" stroke="#9a32cd" stroke-dasharray="5,2" d="M1196.07,-125.035C1245.78,-129.066 1310.67,-134.922 1368,-142 1373.86,-142.723 1379.91,-143.529 1385.99,-144.382"/>
<polygon fill="#9a32cd" stroke="#9a32cd" points="1196.26,-121.539 1186.02,-124.228 1195.7,-128.517 1196.26,-121.539"/>
<text text-anchor="middle" x="1290" y="-145" font-family="Helvetica,sans-Serif" font-size="10.00"> myElementsMap</text>
</g>
<!-- Node34 -->
<g id="node34" class="node"><title>Node34</title>
<polygon fill="white" stroke="#bfbfbf" points="1433,-0.5 1433,-19.5 1497,-19.5 1497,-0.5 1433,-0.5"/>
<text text-anchor="middle" x="1465" y="-7.5" font-family="Helvetica,sans-Serif" font-size="10.00">Accordion</text>
</g>
<!-- Node34&#45;&gt;Node1 -->
<g id="edge35" class="edge"><title>Node34&#45;&gt;Node1</title>
<path fill="none" stroke="#9a32cd" stroke-dasharray="5,2" d="M1507.49,-8.37183C1553.34,-7.82369 1628.79,-10.661 1690,-31 1718.79,-40.5665 1748,-60.2137 1766.28,-73.9789"/>
<polygon fill="#9a32cd" stroke="#9a32cd" points="1507.27,-4.87511 1497.34,-8.55487 1507.4,-11.874 1507.27,-4.87511"/>
<text text-anchor="middle" x="1626" y="-34" font-family="Helvetica,sans-Serif" font-size="10.00"> elementAccordion</text>
</g>
</g>
</svg>
        <g id="navigator" transform="translate(0 0)" fill="#404254">
                <rect fill="#f2f5e9" fill-opacity="0.5" stroke="#606060" stroke-width=".5" x="0" y="0" width="60" height="60"/>
                <use id="zoomplus" xlink:href="#zoomPlus" x="17" y="9" onmousedown="handleZoom(evt,'in')"/>
                <use id="zoomminus" xlink:href="#zoomMin" x="42" y="9" onmousedown="handleZoom(evt,'out')"/>
                <use id="reset" xlink:href="#resetDef" x="30" y="36" onmousedown="handleReset()"/>
                <g id="arrowUp" xlink:href="#dirArrow" transform="translate(30 24)" onmousedown="handlePan(0,-1)">
                  <use xlink:href="#rim" fill="#404040">
                        <set attributeName="fill" to="#808080" begin="arrowUp.mouseover" end="arrowUp.mouseout"/>
                  </use>
                  <path fill="none" stroke="white" stroke-width="1.5" d="M0,-3.0v7 M-2.5,-0.5L0,-3.0L2.5,-0.5"/>
                </g>
                <g id="arrowRight" xlink:href="#dirArrow" transform="rotate(90) translate(36 -43)" onmousedown="handlePan(1,0)">
                  <use xlink:href="#rim" fill="#404040">
                        <set attributeName="fill" to="#808080" begin="arrowRight.mouseover" end="arrowRight.mouseout"/>
                  </use>
                  <path fill="none" stroke="white" stroke-width="1.5" d="M0,-3.0v7 M-2.5,-0.5L0,-3.0L2.5,-0.5"/>
                </g>
                <g id="arrowDown" xlink:href="#dirArrow" transform="rotate(180) translate(-30 -48)" onmousedown="handlePan(0,1)">
                  <use xlink:href="#rim" fill="#404040">
                        <set attributeName="fill" to="#808080" begin="arrowDown.mouseover" end="arrowDown.mouseout"/>
                  </use>
                  <path fill="none" stroke="white" stroke-width="1.5" d="M0,-3.0v7 M-2.5,-0.5L0,-3.0L2.5,-0.5"/>
                </g>
                <g id="arrowLeft" xlink:href="#dirArrow" transform="rotate(270) translate(-36 17)" onmousedown="handlePan(-1,0)">
                  <use xlink:href="#rim" fill="#404040">
                        <set attributeName="fill" to="#808080" begin="arrowLeft.mouseover" end="arrowLeft.mouseout"/>
                  </use>
                  <path fill="none" stroke="white" stroke-width="1.5" d="M0,-3.0v7 M-2.5,-0.5L0,-3.0L2.5,-0.5"/>
                </g>
        </g>
        <svg viewBox="0 0 15 15" width="100%" height="30px" preserveAspectRatio="xMaxYMin meet">
         <g id="arrow_out" transform="scale(0.3 0.3)">
          <a xlink:href="classview_1_1editor_1_1_element_accordion_controller__coll__graph_org.svg" target="_base">
           <rect id="button" ry="5" rx="5" y="6" x="6" height="38" width="38"
                fill="#f2f5e9" fill-opacity="0.5" stroke="#606060" stroke-width="1.0"/>
           <path id="arrow"
             d="M 11.500037,31.436501 C 11.940474,20.09759 22.043105,11.32322 32.158766,21.979434 L 37.068811,17.246167 C 37.068811,17.246167 37.088388,32 37.088388,32 L 22.160133,31.978069 C 22.160133,31.978069 26.997745,27.140456 26.997745,27.140456 C 18.528582,18.264221 13.291696,25.230495 11.500037,31.436501 z"
             style="fill:#404040;"/>
          </a>
         </g>
        </svg>
</svg>
