<?xml version="1.0" encoding="UTF-8" standalone="no"?>
<!DOCTYPE svg PUBLIC "-//W3C//DTD SVG 1.1//EN"
 "http://www.w3.org/Graphics/SVG/1.1/DTD/svg11.dtd">
<!-- Generated by graphviz version 2.36.0 (20140111.2315)
 -->
<!-- Title: view.editor.ElementAccordionController Pages: 1 -->
<!--zoomable 496 -->
<svg id="main" version="1.1" xmlns="http://www.w3.org/2000/svg" xmlns:xlink="http://www.w3.org/1999/xlink" xml:space="preserve" onload="init(evt)">
<style type="text/css"><![CDATA[
.edge:hover path { stroke: red; }
.edge:hover polygon { stroke: red; fill: red; }
]]></style>
<script type="text/javascript"><![CDATA[
var edges = document.getElementsByTagName('g');
if (edges && edges.length) {
  for (var i=0;i<edges.length;i++) {
    if (edges[i].id.substr(0,4)=='edge') {
      edges[i].setAttribute('class','edge');
    }
  }
}
]]></script>
        <defs>
                <circle id="rim" cx="0" cy="0" r="7"/>
                <circle id="rim2" cx="0" cy="0" r="3.5"/>
                <g id="zoomPlus">
                        <use xlink:href="#rim" fill="#404040">
                                <set attributeName="fill" to="#808080" begin="zoomplus.mouseover" end="zoomplus.mouseout"/>
                        </use>
                        <path d="M-4,0h8M0,-4v8" fill="none" stroke="white" stroke-width="1.5" pointer-events="none"/>
                </g>
                <g id="zoomMin">
                        <use xlink:href="#rim" fill="#404040">
                                <set attributeName="fill" to="#808080" begin="zoomminus.mouseover" end="zoomminus.mouseout"/>
                        </use>
                        <path d="M-4,0h8" fill="none" stroke="white" stroke-width="1.5" pointer-events="none"/>
                </g>
                <g id="dirArrow">
                        <path fill="none" stroke="white" stroke-width="1.5" d="M0,-3.0v7 M-2.5,-0.5L0,-3.0L2.5,-0.5"/>
                </g>
               <g id="resetDef">
                       <use xlink:href="#rim2" fill="#404040">
                               <set attributeName="fill" to="#808080" begin="reset.mouseover" end="reset.mouseout"/>
                       </use>
               </g>
        </defs>

<script type="text/javascript">
var viewWidth = 1872;
var viewHeight = 496;
var sectionId = 'dynsection-1';
</script>
<script xlink:href="../../svgpan.js"/>
<svg id="graph" class="graph">
<g id="viewport">
<title>view.editor.ElementAccordionController</title>
<polygon fill="white" stroke="none" points="-4,4 -4,-492 1868,-492 1868,4 -4,4"/>
<!-- Node1 -->
<g id="node1" class="node"><title>Node1</title>
<polygon fill="#bfbfbf" stroke="black" points="1708,-78 1708,-108 1864,-108 1864,-78 1708,-78"/>
<text text-anchor="start" x="1716" y="-96" font-family="Helvetica,sans-Serif" font-size="10.00">view.editor.ElementAccordion</text>
<text text-anchor="middle" x="1786" y="-85" font-family="Helvetica,sans-Serif" font-size="10.00">Controller</text>
</g>
<!-- Node2 -->
<g id="node2" class="node"><title>Node2</title>
<g id="a_node2"><a xlink:href="../../d0/d1c/classview_1_1gui_1_1_g_u_i_container.html" target="_top" xlink:title="view.gui.GUIContainer">
<polygon fill="white" stroke="black" points="1405,-379.5 1405,-398.5 1525,-398.5 1525,-379.5 1405,-379.5"/>
<text text-anchor="middle" x="1465" y="-386.5" font-family="Helvetica,sans-Serif" font-size="10.00">view.gui.GUIContainer</text>
</a>
</g>
</g>
<!-- Node2&#45;&gt;Node1 -->
<g id="edge1" class="edge"><title>Node2&#45;&gt;Node1</title>
<path fill="none" stroke="midnightblue" d="M1483.66,-372.615C1539.85,-320.476 1714,-158.877 1768.51,-108.297"/>
<polygon fill="midnightblue" stroke="midnightblue" points="1481.2,-370.119 1476.25,-379.487 1485.96,-375.251 1481.2,-370.119"/>
</g>
<!-- Node3 -->
<g id="node3" class="node"><title>Node3</title>
<polygon fill="white" stroke="#bfbfbf" points="752.5,-392.5 752.5,-411.5 823.5,-411.5 823.5,-392.5 752.5,-392.5"/>
<text text-anchor="middle" x="788" y="-399.5" font-family="Helvetica,sans-Serif" font-size="10.00">Observable</text>
</g>
<!-- Node3&#45;&gt;Node2 -->
<g id="edge2" class="edge"><title>Node3&#45;&gt;Node2</title>
<path fill="none" stroke="midnightblue" d="M834.021,-401.133C952.335,-398.854 1272.03,-392.697 1404.87,-390.139"/>
<polygon fill="midnightblue" stroke="midnightblue" points="833.8,-397.636 823.87,-401.328 833.935,-404.635 833.8,-397.636"/>
</g>
<!-- Node6 -->
<g id="node6" class="node"><title>Node6</title>
<g id="a_node6"><a xlink:href="../../de/d21/classmodel_1_1_main_model.html" target="_top" xlink:title="model.MainModel">
<polygon fill="white" stroke="black" points="1063.5,-347.5 1063.5,-366.5 1164.5,-366.5 1164.5,-347.5 1063.5,-347.5"/>
<text text-anchor="middle" x="1114" y="-354.5" font-family="Helvetica,sans-Serif" font-size="10.00">model.MainModel</text>
</a>
</g>
</g>
<!-- Node3&#45;&gt;Node6 -->
<g id="edge6" class="edge"><title>Node3&#45;&gt;Node6</title>
<path fill="none" stroke="midnightblue" d="M833.631,-395.801C893.807,-387.444 1000.62,-372.608 1063.3,-363.903"/>
<polygon fill="midnightblue" stroke="midnightblue" points="833.097,-392.342 823.674,-397.184 834.06,-399.275 833.097,-392.342"/>
</g>
<!-- Node4 -->
<g id="node4" class="node"><title>Node4</title>
<polygon fill="white" stroke="#bfbfbf" points="1084,-468.5 1084,-487.5 1144,-487.5 1144,-468.5 1084,-468.5"/>
<text text-anchor="middle" x="1114" y="-475.5" font-family="Helvetica,sans-Serif" font-size="10.00">Observer</text>
</g>
<!-- Node4&#45;&gt;Node2 -->
<g id="edge3" class="edge"><title>Node4&#45;&gt;Node2</title>
<path fill="none" stroke="midnightblue" d="M1154.22,-479.075C1205.02,-479.261 1295.61,-475.457 1368,-450 1401.72,-438.143 1435.75,-412.559 1452.79,-398.586"/>
<polygon fill="midnightblue" stroke="midnightblue" points="1154.04,-475.573 1144.01,-478.981 1153.98,-482.573 1154.04,-475.573"/>
</g>
<!-- Node5 -->
<g id="node5" class="node"><title>Node5</title>
<g id="a_node5"><a xlink:href="../../d5/d13/interfaceview_1_1gui_1_1_g_u_i_controller.html" target="_top" xlink:title="view.gui.GUIController">
<polygon fill="white" stroke="black" points="1054,-309.5 1054,-328.5 1174,-328.5 1174,-309.5 1054,-309.5"/>
<text text-anchor="middle" x="1114" y="-316.5" font-family="Helvetica,sans-Serif" font-size="10.00">view.gui.GUIController</text>
</a>
</g>
</g>
<!-- Node5&#45;&gt;Node2 -->
<g id="edge4" class="edge"><title>Node5&#45;&gt;Node2</title>
<path fill="none" stroke="midnightblue" d="M1184.12,-328.203C1235.22,-335.556 1306.34,-346.943 1368,-361 1390.51,-366.132 1415.54,-373.49 1434.4,-379.374"/>
<polygon fill="midnightblue" stroke="midnightblue" points="1184.57,-324.732 1174.18,-326.787 1183.58,-331.662 1184.57,-324.732"/>
</g>
<!-- Node28 -->
<g id="node28" class="node"><title>Node28</title>
<g id="a_node28"><a xlink:href="../../dc/d2d/classview_1_1editor_1_1_element_drop_down_controller.html" target="_top" xlink:title="view.editor.ElementDropDown\lController">
<polygon fill="white" stroke="black" points="1386,-159 1386,-189 1544,-189 1544,-159 1386,-159"/>
<text text-anchor="start" x="1394" y="-177" font-family="Helvetica,sans-Serif" font-size="10.00">view.editor.ElementDropDown</text>
<text text-anchor="middle" x="1465" y="-166" font-family="Helvetica,sans-Serif" font-size="10.00">Controller</text>
</a>
</g>
</g>
<!-- Node5&#45;&gt;Node28 -->
<g id="edge29" class="edge"><title>Node5&#45;&gt;Node28</title>
<path fill="none" stroke="midnightblue" d="M1184.07,-321.369C1247.91,-322.409 1337.39,-320.602 1368,-304 1415.6,-278.184 1445.99,-217.405 1458.07,-189.054"/>
<polygon fill="midnightblue" stroke="midnightblue" points="1184.12,-317.869 1174.05,-321.179 1183.98,-324.868 1184.12,-317.869"/>
</g>
<!-- Node6&#45;&gt;Node2 -->
<g id="edge5" class="edge"><title>Node6&#45;&gt;Node2</title>
<path fill="none" stroke="#9a32cd" stroke-dasharray="5,2" d="M1174.75,-360.954C1226.06,-364.534 1301.98,-370.267 1368,-377 1379.95,-378.218 1392.71,-379.692 1404.9,-381.184"/>
<polygon fill="#9a32cd" stroke="#9a32cd" points="1174.73,-357.444 1164.51,-360.245 1174.24,-364.427 1174.73,-357.444"/>
<text text-anchor="middle" x="1290" y="-380" font-family="Helvetica,sans-Serif" font-size="10.00"> myMainModel</text>
</g>
<!-- Node7 -->
<g id="node7" class="node"><title>Node7</title>
<g id="a_node7"><a xlink:href="../../d6/d8b/classmodel_1_1state_1_1_game_state.html" target="_top" xlink:title="model.state.GameState">
<polygon fill="white" stroke="black" points="721.5,-285.5 721.5,-304.5 854.5,-304.5 854.5,-285.5 721.5,-285.5"/>
<text text-anchor="middle" x="788" y="-292.5" font-family="Helvetica,sans-Serif" font-size="10.00">model.state.GameState</text>
</a>
</g>
</g>
<!-- Node7&#45;&gt;Node6 -->
<g id="edge7" class="edge"><title>Node7&#45;&gt;Node6</title>
<path fill="none" stroke="#9a32cd" stroke-dasharray="5,2" d="M855.076,-306.314C900.427,-314.232 961.952,-325.272 1016,-336 1033.91,-339.556 1053.62,-343.768 1070.57,-347.482"/>
<polygon fill="#9a32cd" stroke="#9a32cd" points="855.526,-302.84 845.074,-304.573 854.326,-309.736 855.526,-302.84"/>
<text text-anchor="middle" x="953" y="-339" font-family="Helvetica,sans-Serif" font-size="10.00"> myGameState</text>
</g>
<!-- Node8 -->
<g id="node8" class="node"><title>Node8</title>
<g id="a_node8"><a xlink:href="../../dc/d74/classmodel_1_1state_1_1_describable_state.html" target="_top" xlink:title="model.state.DescribableState">
<polygon fill="white" stroke="black" points="389,-296.5 389,-315.5 549,-315.5 549,-296.5 389,-296.5"/>
<text text-anchor="middle" x="469" y="-303.5" font-family="Helvetica,sans-Serif" font-size="10.00">model.state.DescribableState</text>
</a>
</g>
</g>
<!-- Node8&#45;&gt;Node7 -->
<g id="edge8" class="edge"><title>Node8&#45;&gt;Node7</title>
<path fill="none" stroke="midnightblue" d="M559.308,-302.901C610.826,-301.113 674.479,-298.905 721.374,-297.277"/>
<polygon fill="midnightblue" stroke="midnightblue" points="559.047,-299.408 549.175,-303.253 559.29,-306.404 559.047,-299.408"/>
</g>
<!-- Node9 -->
<g id="node9" class="node"><title>Node9</title>
<g id="a_node9"><a xlink:href="../../df/d74/interfaceutil_1_1_j_s_o_nable.html" target="_top" xlink:title="util.JSONable">
<polygon fill="white" stroke="black" points="49,-334.5 49,-353.5 127,-353.5 127,-334.5 49,-334.5"/>
<text text-anchor="middle" x="88" y="-341.5" font-family="Helvetica,sans-Serif" font-size="10.00">util.JSONable</text>
</a>
</g>
</g>
<!-- Node9&#45;&gt;Node8 -->
<g id="edge9" class="edge"><title>Node9&#45;&gt;Node8</title>
<path fill="none" stroke="midnightblue" d="M137.469,-340.459C192.46,-336.282 284.795,-328.782 364,-320 375.86,-318.685 388.46,-317.126 400.644,-315.535"/>
<polygon fill="midnightblue" stroke="midnightblue" points="137.024,-336.983 127.315,-341.225 137.55,-343.963 137.024,-336.983"/>
</g>
<!-- Node10 -->
<g id="node10" class="node"><title>Node10</title>
<polygon fill="white" stroke="#bfbfbf" points="52.5,-296.5 52.5,-315.5 123.5,-315.5 123.5,-296.5 52.5,-296.5"/>
<text text-anchor="middle" x="88" y="-303.5" font-family="Helvetica,sans-Serif" font-size="10.00">Serializable</text>
</g>
<!-- Node10&#45;&gt;Node8 -->
<g id="edge10" class="edge"><title>Node10&#45;&gt;Node8</title>
<path fill="none" stroke="midnightblue" d="M133.983,-306C196.696,-306 311.377,-306 388.642,-306"/>
<polygon fill="midnightblue" stroke="midnightblue" points="133.638,-302.5 123.638,-306 133.638,-309.5 133.638,-302.5"/>
</g>
<!-- Node11 -->
<g id="node11" class="node"><title>Node11</title>
<polygon fill="white" stroke="#bfbfbf" points="392,-247 392,-277 546,-277 546,-247 392,-247"/>
<text text-anchor="start" x="400" y="-265" font-family="Helvetica,sans-Serif" font-size="10.00">List&lt; model.state.Campaign</text>
<text text-anchor="middle" x="469" y="-254" font-family="Helvetica,sans-Serif" font-size="10.00">State &gt;</text>
</g>
<!-- Node11&#45;&gt;Node7 -->
<g id="edge11" class="edge"><title>Node11&#45;&gt;Node7</title>
<path fill="none" stroke="#9a32cd" stroke-dasharray="5,2" d="M556.369,-270.658C595.891,-274.655 643.325,-279.503 686,-284 697.402,-285.202 709.525,-286.502 721.268,-287.774"/>
<polygon fill="#9a32cd" stroke="#9a32cd" points="556.537,-267.157 546.236,-269.634 555.834,-274.121 556.537,-267.157"/>
<text text-anchor="middle" x="630" y="-287" font-family="Helvetica,sans-Serif" font-size="10.00"> myCampaigns</text>
</g>
<!-- Node12 -->
<g id="node12" class="node"><title>Node12</title>
<g id="a_node12"><a xlink:href="../../de/dda/classmodel_1_1_game_universe.html" target="_top" xlink:title="model.GameUniverse">
<polygon fill="white" stroke="black" points="408.5,-170.5 408.5,-189.5 529.5,-189.5 529.5,-170.5 408.5,-170.5"/>
<text text-anchor="middle" x="469" y="-177.5" font-family="Helvetica,sans-Serif" font-size="10.00">model.GameUniverse</text>
</a>
</g>
</g>
<!-- Node12&#45;&gt;Node7 -->
<g id="edge12" class="edge"><title>Node12&#45;&gt;Node7</title>
<path fill="none" stroke="#9a32cd" stroke-dasharray="5,2" d="M522.363,-191.993C568.007,-204.007 634.738,-225.434 686,-258 695.55,-264.067 694.1,-270.524 704,-276 710.985,-279.864 718.717,-282.943 726.569,-285.396"/>
<polygon fill="#9a32cd" stroke="#9a32cd" points="523.228,-188.602 512.671,-189.5 521.484,-195.381 523.228,-188.602"/>
<text text-anchor="middle" x="630" y="-261" font-family="Helvetica,sans-Serif" font-size="10.00"> myGameUniverse</text>
</g>
<!-- Node13 -->
<g id="node13" class="node"><title>Node13</title>
<polygon fill="white" stroke="#bfbfbf" points="0,-149 0,-179 176,-179 176,-149 0,-149"/>
<text text-anchor="start" x="8" y="-167" font-family="Helvetica,sans-Serif" font-size="10.00">Set&lt; model.state.gameelement.</text>
<text text-anchor="middle" x="88" y="-156" font-family="Helvetica,sans-Serif" font-size="10.00">GameElementState &gt;</text>
</g>
<!-- Node13&#45;&gt;Node12 -->
<g id="edge13" class="edge"><title>Node13&#45;&gt;Node12</title>
<path fill="none" stroke="#9a32cd" stroke-dasharray="5,2" d="M186.606,-168.121C256.741,-171.081 349.032,-174.978 408.447,-177.486"/>
<polygon fill="#9a32cd" stroke="#9a32cd" points="186.565,-164.616 176.426,-167.691 186.27,-171.61 186.565,-164.616"/>
<text text-anchor="middle" x="279" y="-179" font-family="Helvetica,sans-Serif" font-size="10.00"> myGameElementStates</text>
</g>
<!-- Node14 -->
<g id="node14" class="node"><title>Node14</title>
<polygon fill="white" stroke="#bfbfbf" points="48.5,-110.5 48.5,-129.5 127.5,-129.5 127.5,-110.5 48.5,-110.5"/>
<text text-anchor="middle" x="88" y="-117.5" font-family="Helvetica,sans-Serif" font-size="10.00">Set&lt; Long &gt;</text>
</g>
<!-- Node14&#45;&gt;Node12 -->
<g id="edge14" class="edge"><title>Node14&#45;&gt;Node12</title>
<path fill="none" stroke="#9a32cd" stroke-dasharray="5,2" d="M138.073,-122.396C193.608,-125.949 286.434,-134.446 364,-154 372.323,-156.098 373.785,-158.511 382,-161 393.707,-164.547 406.496,-167.732 418.546,-170.436"/>
<polygon fill="#9a32cd" stroke="#9a32cd" points="138.009,-118.885 127.814,-121.769 137.581,-125.872 138.009,-118.885"/>
<text text-anchor="middle" x="279" y="-157" font-family="Helvetica,sans-Serif" font-size="10.00"> myParticipantColors</text>
</g>
<!-- Node15 -->
<g id="node15" class="node"><title>Node15</title>
<polygon fill="white" stroke="#bfbfbf" points="0,-61 0,-91 176,-91 176,-61 0,-61"/>
<text text-anchor="start" x="8" y="-79" font-family="Helvetica,sans-Serif" font-size="10.00">Set&lt; model.state.gameelement.</text>
<text text-anchor="middle" x="88" y="-68" font-family="Helvetica,sans-Serif" font-size="10.00">Attribute&lt; String &gt; &gt;</text>
</g>
<!-- Node15&#45;&gt;Node12 -->
<g id="edge15" class="edge"><title>Node15&#45;&gt;Node12</title>
<path fill="none" stroke="#9a32cd" stroke-dasharray="5,2" d="M186.262,-65.1965C243.741,-64.0898 314.686,-72.5717 364,-112 382.121,-126.488 364.528,-145.735 382,-161 389.485,-167.539 398.713,-171.983 408.316,-174.973"/>
<polygon fill="#9a32cd" stroke="#9a32cd" points="185.955,-61.7039 176.062,-65.4949 186.16,-68.7009 185.955,-61.7039"/>
<text text-anchor="middle" x="279" y="-115" font-family="Helvetica,sans-Serif" font-size="10.00"> myTextualAttributes</text>
</g>
<!-- Node16 -->
<g id="node16" class="node"><title>Node16</title>
<polygon fill="white" stroke="#bfbfbf" points="0,-12 0,-42 176,-42 176,-12 0,-12"/>
<text text-anchor="start" x="8" y="-30" font-family="Helvetica,sans-Serif" font-size="10.00">Set&lt; model.state.gameelement.</text>
<text text-anchor="middle" x="88" y="-19" font-family="Helvetica,sans-Serif" font-size="10.00">SelectableGameElementState &gt;</text>
</g>
<!-- Node16&#45;&gt;Node12 -->
<g id="edge16" class="edge"><title>Node16&#45;&gt;Node12</title>
<path fill="none" stroke="#9a32cd" stroke-dasharray="5,2" d="M166.168,-10.5368C227.662,-2.27801 311.827,-2.60782 364,-51 400.321,-84.6889 347.951,-125.017 382,-161 389.041,-168.441 398.288,-173.289 408.102,-176.391"/>
<polygon fill="#9a32cd" stroke="#9a32cd" points="165.514,-7.09472 156.118,-11.9891 166.516,-14.0228 165.514,-7.09472"/>
<text text-anchor="middle" x="279" y="-54" font-family="Helvetica,sans-Serif" font-size="10.00"> mySelectableGameElementStates</text>
</g>
<!-- Node17 -->
<g id="node17" class="node"><title>Node17</title>
<polygon fill="white" stroke="#bfbfbf" points="0,-247 0,-277 176,-277 176,-247 0,-247"/>
<text text-anchor="start" x="8" y="-265" font-family="Helvetica,sans-Serif" font-size="10.00">Set&lt; model.state.gameelement.</text>
<text text-anchor="middle" x="88" y="-254" font-family="Helvetica,sans-Serif" font-size="10.00">DrawableGameElementState &gt;</text>
</g>
<!-- Node17&#45;&gt;Node12 -->
<g id="edge17" class="edge"><title>Node17&#45;&gt;Node12</title>
<path fill="none" stroke="#9a32cd" stroke-dasharray="5,2" d="M186.162,-252.342C239.275,-245.773 305.892,-235.418 364,-220 393.543,-212.161 426.234,-198.762 446.935,-189.651"/>
<polygon fill="#9a32cd" stroke="#9a32cd" points="185.573,-248.888 176.067,-253.566 186.415,-255.837 185.573,-248.888"/>
<text text-anchor="middle" x="279" y="-255" font-family="Helvetica,sans-Serif" font-size="10.00"> myDrawableGameElementStates</text>
</g>
<!-- Node18 -->
<g id="node18" class="node"><title>Node18</title>
<polygon fill="white" stroke="#bfbfbf" points="0,-198 0,-228 176,-228 176,-198 0,-198"/>
<text text-anchor="start" x="8" y="-216" font-family="Helvetica,sans-Serif" font-size="10.00">Set&lt; model.state.gameelement.</text>
<text text-anchor="middle" x="88" y="-205" font-family="Helvetica,sans-Serif" font-size="10.00">Attribute&lt; Number &gt; &gt;</text>
</g>
<!-- Node18&#45;&gt;Node12 -->
<g id="edge18" class="edge"><title>Node18&#45;&gt;Node12</title>
<path fill="none" stroke="#9a32cd" stroke-dasharray="5,2" d="M186.066,-205.843C238.739,-201.806 304.972,-196.482 364,-191 378.372,-189.665 393.848,-188.099 408.355,-186.573"/>
<polygon fill="#9a32cd" stroke="#9a32cd" points="185.76,-202.356 176.056,-206.607 186.293,-209.335 185.76,-202.356"/>
<text text-anchor="middle" x="279" y="-208" font-family="Helvetica,sans-Serif" font-size="10.00"> myNumericalAttributes</text>
</g>
<!-- Node19 -->
<g id="node19" class="node"><title>Node19</title>
<polygon fill="white" stroke="#bfbfbf" points="386,-132.5 386,-151.5 552,-151.5 552,-132.5 386,-132.5"/>
<text text-anchor="middle" x="469" y="-139.5" font-family="Helvetica,sans-Serif" font-size="10.00">List&lt; model.state.HighScore &gt;</text>
</g>
<!-- Node19&#45;&gt;Node7 -->
<g id="edge19" class="edge"><title>Node19&#45;&gt;Node7</title>
<path fill="none" stroke="#9a32cd" stroke-dasharray="5,2" d="M562.216,-142.435C605.363,-147.523 654.143,-161.09 686,-194 711.951,-220.809 677.735,-249.498 704,-276 708.891,-280.935 714.783,-284.698 721.145,-287.553"/>
<polygon fill="#9a32cd" stroke="#9a32cd" points="562.555,-138.951 552.246,-141.395 561.829,-145.913 562.555,-138.951"/>
<text text-anchor="middle" x="630" y="-197" font-family="Helvetica,sans-Serif" font-size="10.00"> myHighScores</text>
</g>
<!-- Node20 -->
<g id="node20" class="node"><title>Node20</title>
<g id="a_node20"><a xlink:href="../../de/d33/classmodel_1_1_game_save_load_mediator.html" target="_top" xlink:title="model.GameSaveLoadMediator">
<polygon fill="white" stroke="black" points="704,-247.5 704,-266.5 872,-266.5 872,-247.5 704,-247.5"/>
<text text-anchor="middle" x="788" y="-254.5" font-family="Helvetica,sans-Serif" font-size="10.00">model.GameSaveLoadMediator</text>
</a>
</g>
</g>
<!-- Node20&#45;&gt;Node6 -->
<g id="edge20" class="edge"><title>Node20&#45;&gt;Node6</title>
<path fill="none" stroke="#9a32cd" stroke-dasharray="5,2" d="M882.188,-254.447C926.759,-257.734 978.449,-268.656 1016,-298 1031.36,-310.004 1018.99,-325.561 1034,-338 1042.36,-344.931 1052.84,-349.411 1063.41,-352.288"/>
<polygon fill="#9a32cd" stroke="#9a32cd" points="882.404,-250.954 872.207,-253.828 881.971,-257.941 882.404,-250.954"/>
<text text-anchor="middle" x="953" y="-301" font-family="Helvetica,sans-Serif" font-size="10.00"> mySaveLoadMediator</text>
</g>
<!-- Node21 -->
<g id="node21" class="node"><title>Node21</title>
<g id="a_node21"><a xlink:href="../../de/d01/classmodel_1_1sprite_1_1_sprite_image_generator.html" target="_top" xlink:title="model.sprite.SpriteImage\lGenerator">
<polygon fill="white" stroke="black" points="719,-343 719,-373 857,-373 857,-343 719,-343"/>
<text text-anchor="start" x="727" y="-361" font-family="Helvetica,sans-Serif" font-size="10.00">model.sprite.SpriteImage</text>
<text text-anchor="middle" x="788" y="-350" font-family="Helvetica,sans-Serif" font-size="10.00">Generator</text>
</a>
</g>
</g>
<!-- Node21&#45;&gt;Node6 -->
<g id="edge21" class="edge"><title>Node21&#45;&gt;Node6</title>
<path fill="none" stroke="#9a32cd" stroke-dasharray="5,2" d="M867.241,-352.892C874.928,-352.528 882.614,-352.219 890,-352 945.975,-350.339 960.019,-350.558 1016,-352 1031.34,-352.395 1048.03,-353.141 1063.17,-353.939"/>
<polygon fill="#9a32cd" stroke="#9a32cd" points="866.97,-349.401 857.158,-353.398 867.321,-356.392 866.97,-349.401"/>
<text text-anchor="middle" x="953" y="-355" font-family="Helvetica,sans-Serif" font-size="10.00"> mySpriteImageGenerator</text>
</g>
<!-- Node22 -->
<g id="node22" class="node"><title>Node22</title>
<polygon fill="white" stroke="#bfbfbf" points="422.5,-460.5 422.5,-479.5 515.5,-479.5 515.5,-460.5 422.5,-460.5"/>
<text text-anchor="middle" x="469" y="-467.5" font-family="Helvetica,sans-Serif" font-size="10.00">ResourceBundle</text>
</g>
<!-- Node22&#45;&gt;Node21 -->
<g id="edge22" class="edge"><title>Node22&#45;&gt;Node21</title>
<path fill="none" stroke="#9a32cd" stroke-dasharray="5,2" d="M525.913,-472.78C573.544,-472.183 641.2,-463.937 686,-427 702.302,-413.559 688.362,-397.208 704,-383 708.455,-378.952 713.545,-375.559 718.961,-372.714"/>
<polygon fill="#9a32cd" stroke="#9a32cd" points="525.763,-469.28 515.768,-472.796 525.774,-476.28 525.763,-469.28"/>
<text text-anchor="middle" x="630" y="-473" font-family="Helvetica,sans-Serif" font-size="10.00"> myBundle</text>
</g>
<!-- Node23 -->
<g id="node23" class="node"><title>Node23</title>
<polygon fill="white" stroke="#bfbfbf" points="396,-411 396,-441 542,-441 542,-411 396,-411"/>
<text text-anchor="start" x="404" y="-429" font-family="Helvetica,sans-Serif" font-size="10.00">Map&lt; String, model.sprite.</text>
<text text-anchor="middle" x="469" y="-418" font-family="Helvetica,sans-Serif" font-size="10.00">SpriteImageContainer &gt;</text>
</g>
<!-- Node23&#45;&gt;Node21 -->
<g id="edge23" class="edge"><title>Node23&#45;&gt;Node21</title>
<path fill="none" stroke="#9a32cd" stroke-dasharray="5,2" d="M552.194,-414.929C592.774,-408.702 642.284,-399.963 686,-389 694.179,-386.949 695.962,-385.55 704,-383 714.328,-379.724 725.412,-376.313 736.01,-373.102"/>
<polygon fill="#9a32cd" stroke="#9a32cd" points="551.443,-411.503 542.079,-416.458 552.489,-418.424 551.443,-411.503"/>
<text text-anchor="middle" x="630" y="-415" font-family="Helvetica,sans-Serif" font-size="10.00"> myCachedContainer</text>
</g>
<!-- Node24 -->
<g id="node24" class="node"><title>Node24</title>
<g id="a_node24"><a xlink:href="../../d9/d0f/classutil_1_1_resource_bundle_retriever.html" target="_top" xlink:title="util.ResourceBundleRetriever">
<polygon fill="white" stroke="black" points="393,-372.5 393,-391.5 545,-391.5 545,-372.5 393,-372.5"/>
<text text-anchor="middle" x="469" y="-379.5" font-family="Helvetica,sans-Serif" font-size="10.00">util.ResourceBundleRetriever</text>
</a>
</g>
</g>
<!-- Node24&#45;&gt;Node21 -->
<g id="edge24" class="edge"><title>Node24&#45;&gt;Node21</title>
<path fill="none" stroke="#9a32cd" stroke-dasharray="5,2" d="M555.204,-375.549C606.523,-371.664 670.988,-366.783 718.898,-363.156"/>
<polygon fill="#9a32cd" stroke="#9a32cd" points="554.832,-372.067 545.125,-376.312 555.36,-379.047 554.832,-372.067"/>
<text text-anchor="middle" x="630" y="-377" font-family="Helvetica,sans-Serif" font-size="10.00"> myBundleRetriever</text>
</g>
<!-- Node25 -->
<g id="node25" class="node"><title>Node25</title>
<g id="a_node25"><a xlink:href="../../d2/ddc/classmodel_1_1sprite_1_1_color_map_generator.html" target="_top" xlink:title="model.sprite.ColorMapGenerator">
<polygon fill="white" stroke="black" points="382.5,-334.5 382.5,-353.5 555.5,-353.5 555.5,-334.5 382.5,-334.5"/>
<text text-anchor="middle" x="469" y="-341.5" font-family="Helvetica,sans-Serif" font-size="10.00">model.sprite.ColorMapGenerator</text>
</a>
</g>
</g>
<!-- Node25&#45;&gt;Node21 -->
<g id="edge25" class="edge"><title>Node25&#45;&gt;Node21</title>
<path fill="none" stroke="#9a32cd" stroke-dasharray="5,2" d="M566.117,-344.872C603.554,-345.566 646.803,-346.802 686,-349 696.634,-349.596 707.882,-350.413 718.861,-351.314"/>
<polygon fill="#9a32cd" stroke="#9a32cd" points="565.779,-341.366 555.72,-344.69 565.657,-348.365 565.779,-341.366"/>
<text text-anchor="middle" x="630" y="-352" font-family="Helvetica,sans-Serif" font-size="10.00"> myColorMapGenerator</text>
</g>
<!-- Node26 -->
<g id="node26" class="node"><title>Node26</title>
<polygon fill="white" stroke="#bfbfbf" points="29.5,-372.5 29.5,-391.5 146.5,-391.5 146.5,-372.5 29.5,-372.5"/>
<text text-anchor="middle" x="88" y="-379.5" font-family="Helvetica,sans-Serif" font-size="10.00">Map&lt; String, Paint &gt;</text>
</g>
<!-- Node26&#45;&gt;Node25 -->
<g id="edge26" class="edge"><title>Node26&#45;&gt;Node25</title>
<path fill="none" stroke="#9a32cd" stroke-dasharray="5,2" d="M156.798,-375.202C219.884,-368.877 314.162,-359.424 382.41,-352.582"/>
<polygon fill="#9a32cd" stroke="#9a32cd" points="156.163,-371.748 146.562,-376.229 156.861,-378.713 156.163,-371.748"/>
<text text-anchor="middle" x="279" y="-374" font-family="Helvetica,sans-Serif" font-size="10.00"> myColorMap</text>
</g>
<!-- Node27 -->
<g id="node27" class="node"><title>Node27</title>
<polygon fill="white" stroke="#bfbfbf" points="1034.5,-430.5 1034.5,-449.5 1193.5,-449.5 1193.5,-430.5 1034.5,-430.5"/>
<text text-anchor="middle" x="1114" y="-437.5" font-family="Helvetica,sans-Serif" font-size="10.00">List&lt; view.gui.GUIContainer &gt;</text>
</g>
<!-- Node27&#45;&gt;Node2 -->
<g id="edge27" class="edge"><title>Node27&#45;&gt;Node2</title>
<path fill="none" stroke="#9a32cd" stroke-dasharray="5,2" d="M1203.78,-435.491C1252.55,-432.035 1313.94,-426.081 1368,-416 1390.98,-411.715 1416.42,-404.441 1435.33,-398.522"/>
<polygon fill="#9a32cd" stroke="#9a32cd" points="1203.31,-432.015 1193.58,-436.191 1203.79,-438.998 1203.31,-432.015"/>
<text text-anchor="middle" x="1290" y="-438" font-family="Helvetica,sans-Serif" font-size="10.00"> myChildContainers</text>
</g>
<!-- Node28&#45;&gt;Node1 -->
<g id="edge28" class="edge"><title>Node28&#45;&gt;Node1</title>
<path fill="none" stroke="#9a32cd" stroke-dasharray="5,2" d="M1535.24,-156.418C1592.13,-141.974 1671.84,-121.733 1725.79,-108.034"/>
<polygon fill="#9a32cd" stroke="#9a32cd" points="1534.08,-153.101 1525.25,-158.954 1535.81,-159.886 1534.08,-153.101"/>
<text text-anchor="middle" x="1626" y="-162" font-family="Helvetica,sans-Serif" font-size="10.00"> unitTitledPaneController</text>
<text text-anchor="middle" x="1626" y="-151" font-family="Helvetica,sans-Serif" font-size="10.00">terrainTitledPaneController</text>
</g>
<!-- Node29 -->
<g id="node29" class="node"><title>Node29</title>
<polygon fill="white" stroke="#bfbfbf" points="1093.5,-107.5 1093.5,-126.5 1134.5,-126.5 1134.5,-107.5 1093.5,-107.5"/>
<text text-anchor="middle" x="1114" y="-114.5" font-family="Helvetica,sans-Serif" font-size="10.00">VBox</text>
</g>
<!-- Node29&#45;&gt;Node28 -->
<g id="edge30" class="edge"><title>Node29&#45;&gt;Node28</title>
<path fill="none" stroke="#9a32cd" stroke-dasharray="5,2" d="M1144.79,-118.038C1192.42,-120.149 1288.43,-126.258 1368,-143 1386.68,-146.931 1406.86,-153.134 1423.87,-158.962"/>
<polygon fill="#9a32cd" stroke="#9a32cd" points="1144.71,-114.532 1134.58,-117.615 1144.42,-121.526 1144.71,-114.532"/>
<text text-anchor="middle" x="1290" y="-146" font-family="Helvetica,sans-Serif" font-size="10.00"> vboxRoot</text>
</g>
<!-- Node30 -->
<g id="node30" class="node"><title>Node30</title>
<polygon fill="white" stroke="#bfbfbf" points="1089.5,-271.5 1089.5,-290.5 1138.5,-290.5 1138.5,-271.5 1089.5,-271.5"/>
<text text-anchor="middle" x="1114" y="-278.5" font-family="Helvetica,sans-Serif" font-size="10.00">Button</text>
</g>
<!-- Node30&#45;&gt;Node28 -->
<g id="edge31" class="edge"><title>Node30&#45;&gt;Node28</title>
<path fill="none" stroke="#9a32cd" stroke-dasharray="5,2" d="M1148.58,-280.672C1208.08,-279.666 1329.4,-275.58 1368,-259 1404,-243.537 1435.87,-209.16 1452.28,-189.184"/>
<polygon fill="#9a32cd" stroke="#9a32cd" points="1148.51,-277.173 1138.56,-280.822 1148.61,-284.172 1148.51,-277.173"/>
<text text-anchor="middle" x="1290" y="-293" font-family="Helvetica,sans-Serif" font-size="10.00"> newElementButton</text>
<text text-anchor="middle" x="1290" y="-282" font-family="Helvetica,sans-Serif" font-size="10.00">deleteElementButton</text>
</g>
<!-- Node31 -->
<g id="node31" class="node"><title>Node31</title>
<polygon fill="white" stroke="#bfbfbf" points="1055.5,-221.5 1055.5,-240.5 1172.5,-240.5 1172.5,-221.5 1055.5,-221.5"/>
<text text-anchor="middle" x="1114" y="-228.5" font-family="Helvetica,sans-Serif" font-size="10.00">Consumer&lt; String &gt;</text>
</g>
<!-- Node31&#45;&gt;Node28 -->
<g id="edge32" class="edge"><title>Node31&#45;&gt;Node28</title>
<path fill="none" stroke="#9a32cd" stroke-dasharray="5,2" d="M1183.03,-226.865C1234.26,-222.932 1306.03,-215.678 1368,-203 1385.23,-199.476 1403.8,-194.218 1419.98,-189.144"/>
<polygon fill="#9a32cd" stroke="#9a32cd" points="1182.45,-223.398 1172.74,-227.631 1182.97,-230.378 1182.45,-223.398"/>
<text text-anchor="middle" x="1290" y="-250" font-family="Helvetica,sans-Serif" font-size="10.00"> mySelectionChangedConsumer</text>
<text text-anchor="middle" x="1290" y="-239" font-family="Helvetica,sans-Serif" font-size="10.00">myDeletionConsumer</text>
<text text-anchor="middle" x="1290" y="-228" font-family="Helvetica,sans-Serif" font-size="10.00">myEditConsumer</text>
</g>
<!-- Node32 -->
<g id="node32" class="node"><title>Node32</title>
<polygon fill="white" stroke="#bfbfbf" points="1081.5,-58.5 1081.5,-77.5 1146.5,-77.5 1146.5,-58.5 1081.5,-58.5"/>
<text text-anchor="middle" x="1114" y="-65.5" font-family="Helvetica,sans-Serif" font-size="10.00">TitledPane</text>
</g>
<!-- Node32&#45;&gt;Node1 -->
<g id="edge37" class="edge"><title>Node32&#45;&gt;Node1</title>
<path fill="none" stroke="#9a32cd" stroke-dasharray="5,2" d="M1156.69,-67.7273C1206.85,-67.5385 1293.61,-67.6557 1368,-70 1486.67,-73.7396 1624.14,-82.1056 1707.81,-87.6494"/>
<polygon fill="#9a32cd" stroke="#9a32cd" points="1156.55,-64.2278 1146.56,-67.7716 1156.58,-71.2278 1156.55,-64.2278"/>
<text text-anchor="middle" x="1465" y="-92" font-family="Helvetica,sans-Serif" font-size="10.00"> unitTitledPane</text>
<text text-anchor="middle" x="1465" y="-81" font-family="Helvetica,sans-Serif" font-size="10.00">terrainTitledPane</text>
</g>
<!-- Node32&#45;&gt;Node28 -->
<g id="edge33" class="edge"><title>Node32&#45;&gt;Node28</title>
<path fill="none" stroke="#9a32cd" stroke-dasharray="5,2" d="M1156.61,-68.9742C1208,-71.4236 1297.28,-79.7926 1368,-108 1398.43,-120.14 1428.79,-143.345 1446.98,-158.749"/>
<polygon fill="#9a32cd" stroke="#9a32cd" points="1156.69,-65.4744 1146.55,-68.5477 1156.39,-72.4681 1156.69,-65.4744"/>
<text text-anchor="middle" x="1290" y="-111" font-family="Helvetica,sans-Serif" font-size="10.00"> elementDropDown</text>
</g>
<!-- Node33 -->
<g id="node33" class="node"><title>Node33</title>
<polygon fill="white" stroke="#bfbfbf" points="1061,-183.5 1061,-202.5 1167,-202.5 1167,-183.5 1061,-183.5"/>
<text text-anchor="middle" x="1114" y="-190.5" font-family="Helvetica,sans-Serif" font-size="10.00">ListView&lt; String &gt;</text>
</g>
<!-- Node33&#45;&gt;Node28 -->
<g id="edge34" class="edge"><title>Node33&#45;&gt;Node28</title>
<path fill="none" stroke="#9a32cd" stroke-dasharray="5,2" d="M1177.42,-189.602C1235.71,-186.428 1322.92,-181.681 1385.82,-178.256"/>
<polygon fill="#9a32cd" stroke="#9a32cd" points="1177.04,-186.117 1167.25,-190.156 1177.42,-193.107 1177.04,-186.117"/>
<text text-anchor="middle" x="1290" y="-191" font-family="Helvetica,sans-Serif" font-size="10.00"> elementListView</text>
</g>
<!-- Node34 -->
<g id="node34" class="node"><title>Node34</title>
<polygon fill="white" stroke="#bfbfbf" points="1042,-145.5 1042,-164.5 1186,-164.5 1186,-145.5 1042,-145.5"/>
<text text-anchor="middle" x="1114" y="-152.5" font-family="Helvetica,sans-Serif" font-size="10.00">HashMap&lt; String, Node &gt;</text>
</g>
<!-- Node34&#45;&gt;Node28 -->
<g id="edge35" class="edge"><title>Node34&#45;&gt;Node28</title>
<path fill="none" stroke="#9a32cd" stroke-dasharray="5,2" d="M1196.25,-157.097C1245.89,-158.655 1310.66,-161.181 1368,-165 1373.85,-165.389 1379.89,-165.84 1385.96,-166.329"/>
<polygon fill="#9a32cd" stroke="#9a32cd" points="1196.31,-153.597 1186.21,-156.788 1196.1,-160.594 1196.31,-153.597"/>
<text text-anchor="middle" x="1290" y="-168" font-family="Helvetica,sans-Serif" font-size="10.00"> myElementsMap</text>
</g>
<!-- Node35 -->
<g id="node35" class="node"><title>Node35</title>
<polygon fill="white" stroke="#bfbfbf" points="1433,-0.5 1433,-19.5 1497,-19.5 1497,-0.5 1433,-0.5"/>
<text text-anchor="middle" x="1465" y="-7.5" font-family="Helvetica,sans-Serif" font-size="10.00">Accordion</text>
</g>
<!-- Node35&#45;&gt;Node1 -->
<g id="edge36" class="edge"><title>Node35&#45;&gt;Node1</title>
<path fill="none" stroke="#9a32cd" stroke-dasharray="5,2" d="M1507.22,-8.03182C1553.14,-7.15712 1628.93,-9.68244 1690,-31 1719.75,-41.3853 1749.42,-63.0077 1767.49,-77.7641"/>
<polygon fill="#9a32cd" stroke="#9a32cd" points="1506.97,-4.53714 1497.06,-8.29085 1507.15,-11.5349 1506.97,-4.53714"/>
<text text-anchor="middle" x="1626" y="-34" font-family="Helvetica,sans-Serif" font-size="10.00"> elementAccordion</text>
</g>
</g>
</svg>
        <g id="navigator" transform="translate(0 0)" fill="#404254">
                <rect fill="#f2f5e9" fill-opacity="0.5" stroke="#606060" stroke-width=".5" x="0" y="0" width="60" height="60"/>
                <use id="zoomplus" xlink:href="#zoomPlus" x="17" y="9" onmousedown="handleZoom(evt,'in')"/>
                <use id="zoomminus" xlink:href="#zoomMin" x="42" y="9" onmousedown="handleZoom(evt,'out')"/>
                <use id="reset" xlink:href="#resetDef" x="30" y="36" onmousedown="handleReset()"/>
                <g id="arrowUp" xlink:href="#dirArrow" transform="translate(30 24)" onmousedown="handlePan(0,-1)">
                  <use xlink:href="#rim" fill="#404040">
                        <set attributeName="fill" to="#808080" begin="arrowUp.mouseover" end="arrowUp.mouseout"/>
                  </use>
                  <path fill="none" stroke="white" stroke-width="1.5" d="M0,-3.0v7 M-2.5,-0.5L0,-3.0L2.5,-0.5"/>
                </g>
                <g id="arrowRight" xlink:href="#dirArrow" transform="rotate(90) translate(36 -43)" onmousedown="handlePan(1,0)">
                  <use xlink:href="#rim" fill="#404040">
                        <set attributeName="fill" to="#808080" begin="arrowRight.mouseover" end="arrowRight.mouseout"/>
                  </use>
                  <path fill="none" stroke="white" stroke-width="1.5" d="M0,-3.0v7 M-2.5,-0.5L0,-3.0L2.5,-0.5"/>
                </g>
                <g id="arrowDown" xlink:href="#dirArrow" transform="rotate(180) translate(-30 -48)" onmousedown="handlePan(0,1)">
                  <use xlink:href="#rim" fill="#404040">
                        <set attributeName="fill" to="#808080" begin="arrowDown.mouseover" end="arrowDown.mouseout"/>
                  </use>
                  <path fill="none" stroke="white" stroke-width="1.5" d="M0,-3.0v7 M-2.5,-0.5L0,-3.0L2.5,-0.5"/>
                </g>
                <g id="arrowLeft" xlink:href="#dirArrow" transform="rotate(270) translate(-36 17)" onmousedown="handlePan(-1,0)">
                  <use xlink:href="#rim" fill="#404040">
                        <set attributeName="fill" to="#808080" begin="arrowLeft.mouseover" end="arrowLeft.mouseout"/>
                  </use>
                  <path fill="none" stroke="white" stroke-width="1.5" d="M0,-3.0v7 M-2.5,-0.5L0,-3.0L2.5,-0.5"/>
                </g>
        </g>
        <svg viewBox="0 0 15 15" width="100%" height="30px" preserveAspectRatio="xMaxYMin meet">
         <g id="arrow_out" transform="scale(0.3 0.3)">
          <a xlink:href="classview_1_1editor_1_1_element_accordion_controller__coll__graph_org.svg" target="_base">
           <rect id="button" ry="5" rx="5" y="6" x="6" height="38" width="38"
                fill="#f2f5e9" fill-opacity="0.5" stroke="#606060" stroke-width="1.0"/>
           <path id="arrow"
             d="M 11.500037,31.436501 C 11.940474,20.09759 22.043105,11.32322 32.158766,21.979434 L 37.068811,17.246167 C 37.068811,17.246167 37.088388,32 37.088388,32 L 22.160133,31.978069 C 22.160133,31.978069 26.997745,27.140456 26.997745,27.140456 C 18.528582,18.264221 13.291696,25.230495 11.500037,31.436501 z"
             style="fill:#404040;"/>
          </a>
         </g>
        </svg>
</svg>
