<?xml version="1.0" encoding="UTF-8" standalone="no"?>
<!DOCTYPE svg PUBLIC "-//W3C//DTD SVG 1.1//EN"
 "http://www.w3.org/Graphics/SVG/1.1/DTD/svg11.dtd">
<!-- Generated by graphviz version 2.36.0 (20140111.2315)
 -->
<!-- Title: gamemodel.GameUniverse Pages: 1 -->
<svg width="678pt" height="265pt"
 viewBox="0.00 0.00 678.00 265.00" xmlns="http://www.w3.org/2000/svg" xmlns:xlink="http://www.w3.org/1999/xlink">
<g id="graph0" class="graph" transform="scale(1 1) rotate(0) translate(4 261)">
<title>gamemodel.GameUniverse</title>
<polygon fill="white" stroke="none" points="-4,4 -4,-261 674,-261 674,4 -4,4"/>
<!-- Node1 -->
<g id="node1" class="node"><title>Node1</title>
<polygon fill="#bfbfbf" stroke="black" points="520.5,-118.5 520.5,-137.5 669.5,-137.5 669.5,-118.5 520.5,-118.5"/>
<text text-anchor="middle" x="595" y="-125.5" font-family="Helvetica,sans-Serif" font-size="10.00">gamemodel.GameUniverse</text>
</g>
<!-- Node2 -->
<g id="node2" class="node"><title>Node2</title>
<polygon fill="white" stroke="#bfbfbf" points="0.5,-227 0.5,-257 313.5,-257 313.5,-227 0.5,-227"/>
<text text-anchor="start" x="8.5" y="-245" font-family="Helvetica,sans-Serif" font-size="10.00">Set&lt; game_engine.gameRepresentation.state</text>
<text text-anchor="middle" x="157" y="-234" font-family="Helvetica,sans-Serif" font-size="10.00">Representation.gameElement.DrawableGameElementState &gt;</text>
</g>
<!-- Node2&#45;&gt;Node1 -->
<g id="edge1" class="edge"><title>Node2&#45;&gt;Node1</title>
<path fill="none" stroke="#9a32cd" stroke-dasharray="5,2" d="M320.617,-225.445C379.036,-216.32 444.629,-202.328 502,-181 531.891,-169.888 563.397,-149.59 580.684,-137.597"/>
<polygon fill="#9a32cd" stroke="#9a32cd" points="319.911,-222.013 310.553,-226.981 320.967,-228.933 319.911,-222.013"/>
<text text-anchor="middle" x="417" y="-225" font-family="Helvetica,sans-Serif" font-size="10.00"> myDrawableGameElementStates</text>
</g>
<!-- Node3 -->
<g id="node3" class="node"><title>Node3</title>
<polygon fill="white" stroke="#bfbfbf" points="37,-167.5 37,-208.5 277,-208.5 277,-167.5 37,-167.5"/>
<text text-anchor="start" x="45" y="-196.5" font-family="Helvetica,sans-Serif" font-size="10.00">Set&lt; game_engine.gameRepresentation.state</text>
<text text-anchor="start" x="45" y="-185.5" font-family="Helvetica,sans-Serif" font-size="10.00">Representation.gameElement.Attribute</text>
<text text-anchor="middle" x="157" y="-174.5" font-family="Helvetica,sans-Serif" font-size="10.00">&lt; Number &gt; &gt;</text>
</g>
<!-- Node3&#45;&gt;Node1 -->
<g id="edge2" class="edge"><title>Node3&#45;&gt;Node1</title>
<path fill="none" stroke="#9a32cd" stroke-dasharray="5,2" d="M287.363,-172.058C351.916,-163.853 431.152,-153.407 502,-143 513.368,-141.33 525.507,-139.433 537.115,-137.562"/>
<polygon fill="#9a32cd" stroke="#9a32cd" points="286.612,-168.625 277.132,-173.355 287.493,-175.569 286.612,-168.625"/>
<text text-anchor="middle" x="417" y="-169" font-family="Helvetica,sans-Serif" font-size="10.00"> myNumericalAttributes</text>
</g>
<!-- Node4 -->
<g id="node4" class="node"><title>Node4</title>
<polygon fill="white" stroke="#bfbfbf" points="36,-107.5 36,-148.5 278,-148.5 278,-107.5 36,-107.5"/>
<text text-anchor="start" x="44" y="-136.5" font-family="Helvetica,sans-Serif" font-size="10.00">Set&lt; game_engine.gameRepresentation.state</text>
<text text-anchor="start" x="44" y="-125.5" font-family="Helvetica,sans-Serif" font-size="10.00">Representation.gameElement.SelectableGame</text>
<text text-anchor="middle" x="157" y="-114.5" font-family="Helvetica,sans-Serif" font-size="10.00">ElementState &gt;</text>
</g>
<!-- Node4&#45;&gt;Node1 -->
<g id="edge3" class="edge"><title>Node4&#45;&gt;Node1</title>
<path fill="none" stroke="#9a32cd" stroke-dasharray="5,2" d="M288.124,-128C364.056,-128 457.071,-128 520.457,-128"/>
<polygon fill="#9a32cd" stroke="#9a32cd" points="288.004,-124.5 278.004,-128 288.004,-131.5 288.004,-124.5"/>
<text text-anchor="middle" x="417" y="-131" font-family="Helvetica,sans-Serif" font-size="10.00"> mySelectableGameElementStates</text>
</g>
<!-- Node5 -->
<g id="node5" class="node"><title>Node5</title>
<polygon fill="white" stroke="#bfbfbf" points="22.5,-59 22.5,-89 291.5,-89 291.5,-59 22.5,-59"/>
<text text-anchor="start" x="30.5" y="-77" font-family="Helvetica,sans-Serif" font-size="10.00">Set&lt; game_engine.gameRepresentation.state</text>
<text text-anchor="middle" x="157" y="-66" font-family="Helvetica,sans-Serif" font-size="10.00">Representation.gameElement.GameElementState &gt;</text>
</g>
<!-- Node5&#45;&gt;Node1 -->
<g id="edge4" class="edge"><title>Node5&#45;&gt;Node1</title>
<path fill="none" stroke="#9a32cd" stroke-dasharray="5,2" d="M301.934,-88.7372C363.625,-95.4626 436.435,-103.944 502,-113 513.703,-114.616 526.212,-116.531 538.116,-118.441"/>
<polygon fill="#9a32cd" stroke="#9a32cd" points="302.057,-85.2301 291.738,-87.6305 301.302,-92.1892 302.057,-85.2301"/>
<text text-anchor="middle" x="417" y="-116" font-family="Helvetica,sans-Serif" font-size="10.00"> myGameElementStates</text>
</g>
<!-- Node6 -->
<g id="node6" class="node"><title>Node6</title>
<polygon fill="white" stroke="#bfbfbf" points="37,0.5 37,-40.5 277,-40.5 277,0.5 37,0.5"/>
<text text-anchor="start" x="45" y="-28.5" font-family="Helvetica,sans-Serif" font-size="10.00">Set&lt; game_engine.gameRepresentation.state</text>
<text text-anchor="start" x="45" y="-17.5" font-family="Helvetica,sans-Serif" font-size="10.00">Representation.gameElement.Attribute</text>
<text text-anchor="middle" x="157" y="-6.5" font-family="Helvetica,sans-Serif" font-size="10.00">&lt; String &gt; &gt;</text>
</g>
<!-- Node6&#45;&gt;Node1 -->
<g id="edge5" class="edge"><title>Node6&#45;&gt;Node1</title>
<path fill="none" stroke="#9a32cd" stroke-dasharray="5,2" d="M287.103,-30.8221C352.778,-38.9551 433.078,-52.9922 502,-77 531.663,-87.3326 562.997,-106.803 580.366,-118.468"/>
<polygon fill="#9a32cd" stroke="#9a32cd" points="287.455,-27.3393 277.108,-29.6157 286.616,-34.2889 287.455,-27.3393"/>
<text text-anchor="middle" x="417" y="-80" font-family="Helvetica,sans-Serif" font-size="10.00"> myStringAttributes</text>
</g>
</g>
</svg>
