<?xml version="1.0" encoding="UTF-8" standalone="no"?>
<!DOCTYPE svg PUBLIC "-//W3C//DTD SVG 1.1//EN"
 "http://www.w3.org/Graphics/SVG/1.1/DTD/svg11.dtd">
<!-- Generated by graphviz version 2.36.0 (20140111.2315)
 -->
<!-- Title: model.GameUniverse.getStringAttributes Pages: 1 -->
<svg width="810pt" height="109pt"
 viewBox="0.00 0.00 810.00 109.00" xmlns="http://www.w3.org/2000/svg" xmlns:xlink="http://www.w3.org/1999/xlink">
<g id="graph0" class="graph" transform="scale(1 1) rotate(0) translate(4 105)">
<title>model.GameUniverse.getStringAttributes</title>
<polygon fill="white" stroke="none" points="-4,4 -4,-105 806,-105 806,4 -4,4"/>
<!-- Node1 -->
<g id="node1" class="node"><title>Node1</title>
<polygon fill="#bfbfbf" stroke="black" points="0,-35 0,-65 168,-65 168,-35 0,-35"/>
<text text-anchor="start" x="8" y="-53" font-family="Helvetica,sans-Serif" font-size="10.00">model.GameUniverse.getString</text>
<text text-anchor="middle" x="84" y="-42" font-family="Helvetica,sans-Serif" font-size="10.00">Attributes</text>
</g>
<!-- Node2 -->
<g id="node2" class="node"><title>Node2</title>
<g id="a_node2"><a xlink:href="../../d9/dfb/classview_1_1editor_1_1_element_accordion_controller.html#a3bf1b5eaf1b993a7dd608f3a9598a153" target="_top" xlink:title="view.editor.ElementAccordion\lController.addStringAttributes">
<polygon fill="white" stroke="black" points="204.5,-35 204.5,-65 363.5,-65 363.5,-35 204.5,-35"/>
<text text-anchor="start" x="212.5" y="-53" font-family="Helvetica,sans-Serif" font-size="10.00">view.editor.ElementAccordion</text>
<text text-anchor="middle" x="284" y="-42" font-family="Helvetica,sans-Serif" font-size="10.00">Controller.addStringAttributes</text>
</a>
</g>
</g>
<!-- Node1&#45;&gt;Node2 -->
<g id="edge1" class="edge"><title>Node1&#45;&gt;Node2</title>
<path fill="none" stroke="midnightblue" d="M178.259,-50C186.941,-50 195.683,-50 204.216,-50"/>
<polygon fill="midnightblue" stroke="midnightblue" points="178.109,-46.5001 168.109,-50 178.109,-53.5001 178.109,-46.5001"/>
</g>
<!-- Node3 -->
<g id="node3" class="node"><title>Node3</title>
<g id="a_node3"><a xlink:href="../../d9/dfb/classview_1_1editor_1_1_element_accordion_controller.html#a8564fdf017fa6f25e3e663cf076e0c04" target="_top" xlink:title="view.editor.ElementAccordion\lController.openSelectableGameElement\lWizard">
<polygon fill="white" stroke="black" points="400.5,-59.5 400.5,-100.5 609.5,-100.5 609.5,-59.5 400.5,-59.5"/>
<text text-anchor="start" x="408.5" y="-88.5" font-family="Helvetica,sans-Serif" font-size="10.00">view.editor.ElementAccordion</text>
<text text-anchor="start" x="408.5" y="-77.5" font-family="Helvetica,sans-Serif" font-size="10.00">Controller.openSelectableGameElement</text>
<text text-anchor="middle" x="505" y="-66.5" font-family="Helvetica,sans-Serif" font-size="10.00">Wizard</text>
</a>
</g>
</g>
<!-- Node2&#45;&gt;Node3 -->
<g id="edge2" class="edge"><title>Node2&#45;&gt;Node3</title>
<path fill="none" stroke="midnightblue" d="M373.902,-62.1783C382.629,-63.3738 391.537,-64.594 400.393,-65.8072"/>
<polygon fill="midnightblue" stroke="midnightblue" points="374.137,-58.678 363.755,-60.7883 373.187,-65.6132 374.137,-58.678"/>
</g>
<!-- Node5 -->
<g id="node5" class="node"><title>Node5</title>
<g id="a_node5"><a xlink:href="../../d9/dfb/classview_1_1editor_1_1_element_accordion_controller.html#a71bb33e7588f335fc2ebc1346924ad2d" target="_top" xlink:title="view.editor.ElementAccordion\lController.openDrawableGameElement\lWizard">
<polygon fill="white" stroke="black" points="403.5,0.5 403.5,-40.5 606.5,-40.5 606.5,0.5 403.5,0.5"/>
<text text-anchor="start" x="411.5" y="-28.5" font-family="Helvetica,sans-Serif" font-size="10.00">view.editor.ElementAccordion</text>
<text text-anchor="start" x="411.5" y="-17.5" font-family="Helvetica,sans-Serif" font-size="10.00">Controller.openDrawableGameElement</text>
<text text-anchor="middle" x="505" y="-6.5" font-family="Helvetica,sans-Serif" font-size="10.00">Wizard</text>
</a>
</g>
</g>
<!-- Node2&#45;&gt;Node5 -->
<g id="edge4" class="edge"><title>Node2&#45;&gt;Node5</title>
<path fill="none" stroke="midnightblue" d="M373.823,-37.8325C383.576,-36.4964 393.556,-35.1293 403.439,-33.7755"/>
<polygon fill="midnightblue" stroke="midnightblue" points="373.187,-34.3868 363.755,-39.2117 374.137,-41.322 373.187,-34.3868"/>
</g>
<!-- Node4 -->
<g id="node4" class="node"><title>Node4</title>
<g id="a_node4"><a xlink:href="../../d9/dfb/classview_1_1editor_1_1_element_accordion_controller.html#af80453486ff349552dab988fb64397c0" target="_top" xlink:title="view.editor.ElementAccordion\lController.init">
<polygon fill="white" stroke="black" points="646,-35 646,-65 802,-65 802,-35 646,-35"/>
<text text-anchor="start" x="654" y="-53" font-family="Helvetica,sans-Serif" font-size="10.00">view.editor.ElementAccordion</text>
<text text-anchor="middle" x="724" y="-42" font-family="Helvetica,sans-Serif" font-size="10.00">Controller.init</text>
</a>
</g>
</g>
<!-- Node3&#45;&gt;Node4 -->
<g id="edge3" class="edge"><title>Node3&#45;&gt;Node4</title>
<path fill="none" stroke="midnightblue" d="M619.75,-64.2742C628.616,-63.0485 637.434,-61.8293 645.969,-60.6495"/>
<polygon fill="midnightblue" stroke="midnightblue" points="619.16,-60.8224 609.733,-65.659 620.118,-67.7565 619.16,-60.8224"/>
</g>
<!-- Node5&#45;&gt;Node4 -->
<g id="edge5" class="edge"><title>Node5&#45;&gt;Node4</title>
<path fill="none" stroke="midnightblue" d="M616.472,-35.2726C626.389,-36.6436 636.283,-38.0115 645.825,-39.3306"/>
<polygon fill="midnightblue" stroke="midnightblue" points="616.945,-31.8048 606.56,-33.9022 615.986,-38.7388 616.945,-31.8048"/>
</g>
</g>
</svg>
