<?xml version="1.0" encoding="UTF-8" standalone="no"?>
<!DOCTYPE svg PUBLIC "-//W3C//DTD SVG 1.1//EN"
 "http://www.w3.org/Graphics/SVG/1.1/DTD/svg11.dtd">
<!-- Generated by graphviz version 2.36.0 (20140111.2315)
 -->
<!-- Title: engine.gameRepresentation.evaluatables.actions.DecrementIncrementAttributeAction Pages: 1 -->
<svg width="862pt" height="98pt"
 viewBox="0.00 0.00 862.00 98.00" xmlns="http://www.w3.org/2000/svg" xmlns:xlink="http://www.w3.org/1999/xlink">
<g id="graph0" class="graph" transform="scale(1 1) rotate(0) translate(4 94)">
<title>engine.gameRepresentation.evaluatables.actions.DecrementIncrementAttributeAction</title>
<polygon fill="white" stroke="none" points="-4,4 -4,-94 858,-94 858,4 -4,4"/>
<!-- Node1 -->
<g id="node1" class="node"><title>Node1</title>
<polygon fill="#bfbfbf" stroke="black" points="598,-27 598,-57 854,-57 854,-27 598,-27"/>
<text text-anchor="start" x="606" y="-45" font-family="Helvetica,sans-Serif" font-size="10.00">engine.gameRepresentation.evaluatables.actions.</text>
<text text-anchor="middle" x="726" y="-34" font-family="Helvetica,sans-Serif" font-size="10.00">DecrementIncrementAttributeAction</text>
</g>
<!-- Node2 -->
<g id="node2" class="node"><title>Node2</title>
<g id="a_node2"><a xlink:href="../../d5/dee/classengine_1_1game_representation_1_1evaluatables_1_1actions_1_1_action.html" target="_top" xlink:title="engine.gameRepresentation.evaluatables.actions.\lAction">
<polygon fill="white" stroke="black" points="304,-27 304,-57 560,-57 560,-27 304,-27"/>
<text text-anchor="start" x="312" y="-45" font-family="Helvetica,sans-Serif" font-size="10.00">engine.gameRepresentation.evaluatables.actions.</text>
<text text-anchor="middle" x="432" y="-34" font-family="Helvetica,sans-Serif" font-size="10.00">Action</text>
</a>
</g>
</g>
<!-- Node2&#45;&gt;Node1 -->
<g id="edge1" class="edge"><title>Node2&#45;&gt;Node1</title>
<path fill="none" stroke="midnightblue" d="M570.472,-42C579.57,-42 588.713,-42 597.757,-42"/>
<polygon fill="midnightblue" stroke="midnightblue" points="570.226,-38.5001 560.226,-42 570.226,-45.5001 570.226,-38.5001"/>
</g>
<!-- Node3 -->
<g id="node3" class="node"><title>Node3</title>
<g id="a_node3"><a xlink:href="../../dc/d45/classengine_1_1game_representation_1_1evaluatables_1_1_evaluatable.html" target="_top" xlink:title="engine::gameRepresentation\l::evaluatables::Evaluatable\l\&lt; Boolean \&gt;">
<polygon fill="white" stroke="black" points="31.5,-48.5 31.5,-89.5 186.5,-89.5 186.5,-48.5 31.5,-48.5"/>
<text text-anchor="start" x="39.5" y="-77.5" font-family="Helvetica,sans-Serif" font-size="10.00">engine::gameRepresentation</text>
<text text-anchor="start" x="39.5" y="-66.5" font-family="Helvetica,sans-Serif" font-size="10.00">::evaluatables::Evaluatable</text>
<text text-anchor="middle" x="109" y="-55.5" font-family="Helvetica,sans-Serif" font-size="10.00">&lt; Boolean &gt;</text>
</a>
</g>
</g>
<!-- Node3&#45;&gt;Node2 -->
<g id="edge2" class="edge"><title>Node3&#45;&gt;Node2</title>
<path fill="none" stroke="midnightblue" d="M196.933,-61.6879C229.875,-58.917 268.093,-55.7024 303.976,-52.6843"/>
<polygon fill="midnightblue" stroke="midnightblue" points="196.559,-58.2069 186.887,-62.5328 197.146,-65.1823 196.559,-58.2069"/>
</g>
<!-- Node4 -->
<g id="node4" class="node"><title>Node4</title>
<g id="a_node4"><a xlink:href="../../dc/d45/classengine_1_1game_representation_1_1evaluatables_1_1_evaluatable.html" target="_top" xlink:title="engine.gameRepresentation.evaluatables.\lEvaluatable\&lt;?\&gt;">
<polygon fill="white" stroke="black" points="0,-0 0,-30 218,-30 218,-0 0,-0"/>
<text text-anchor="start" x="8" y="-18" font-family="Helvetica,sans-Serif" font-size="10.00">engine.gameRepresentation.evaluatables.</text>
<text text-anchor="middle" x="109" y="-7" font-family="Helvetica,sans-Serif" font-size="10.00">Evaluatable&lt;?&gt;</text>
</a>
</g>
</g>
<!-- Node4&#45;&gt;Node2 -->
<g id="edge3" class="edge"><title>Node4&#45;&gt;Node2</title>
<path fill="none" stroke="#9a32cd" stroke-dasharray="5,2" d="M228.307,-24.9511C252.903,-27.0199 278.922,-29.2084 303.822,-31.3028"/>
<polygon fill="#9a32cd" stroke="#9a32cd" points="228.487,-21.4539 218.228,-24.1033 227.9,-28.4293 228.487,-21.4539"/>
<text text-anchor="middle" x="261" y="-32" font-family="Helvetica,sans-Serif" font-size="10.00"> myAction</text>
</g>
</g>
</svg>
