<?xml version="1.0" encoding="UTF-8" standalone="no"?>
<!DOCTYPE svg PUBLIC "-//W3C//DTD SVG 1.1//EN"
 "http://www.w3.org/Graphics/SVG/1.1/DTD/svg11.dtd">
<!-- Generated by graphviz version 2.36.0 (20140111.2315)
 -->
<!-- Title: game_requests.forwarding.DeliveryException.DeliveryException Pages: 1 -->
<svg width="382pt" height="87pt"
 viewBox="0.00 0.00 382.00 87.00" xmlns="http://www.w3.org/2000/svg" xmlns:xlink="http://www.w3.org/1999/xlink">
<g id="graph0" class="graph" transform="scale(1 1) rotate(0) translate(4 83)">
<title>game_requests.forwarding.DeliveryException.DeliveryException</title>
<polygon fill="white" stroke="none" points="-4,4 -4,-83 378,-83 378,4 -4,4"/>
<!-- Node1 -->
<g id="node1" class="node"><title>Node1</title>
<polygon fill="#bfbfbf" stroke="black" points="0.5,-24 0.5,-54 189.5,-54 189.5,-24 0.5,-24"/>
<text text-anchor="start" x="8.5" y="-42" font-family="Helvetica,sans-Serif" font-size="10.00">game_requests.forwarding.</text>
<text text-anchor="middle" x="95" y="-31" font-family="Helvetica,sans-Serif" font-size="10.00">DeliveryException.DeliveryException</text>
</g>
<!-- Node2 -->
<g id="node2" class="node"><title>Node2</title>
<g id="a_node2"><a xlink:href="../../d3/dbf/classgame__requests_1_1forwarding_1_1_delivery_exception.html#aa73d7020d713b92573d4ff9a4000fcdd" target="_top" xlink:title="game_requests.forwarding.\lDeliveryException.reason">
<polygon fill="white" stroke="black" points="226.5,-49 226.5,-79 373.5,-79 373.5,-49 226.5,-49"/>
<text text-anchor="start" x="234.5" y="-67" font-family="Helvetica,sans-Serif" font-size="10.00">game_requests.forwarding.</text>
<text text-anchor="middle" x="300" y="-56" font-family="Helvetica,sans-Serif" font-size="10.00">DeliveryException.reason</text>
</a>
</g>
</g>
<!-- Node1&#45;&gt;Node2 -->
<g id="edge1" class="edge"><title>Node1&#45;&gt;Node2</title>
<path fill="none" stroke="midnightblue" d="M189.775,-50.5487C198.586,-51.6337 207.475,-52.7284 216.174,-53.7998"/>
<polygon fill="midnightblue" stroke="midnightblue" points="215.931,-57.2961 226.283,-55.0448 216.786,-50.3486 215.931,-57.2961"/>
</g>
<!-- Node3 -->
<g id="node3" class="node"><title>Node3</title>
<g id="a_node3"><a xlink:href="../../d3/dbf/classgame__requests_1_1forwarding_1_1_delivery_exception.html#a6e0671e6ae2d85c81f5c31ce302115c4" target="_top" xlink:title="game_requests.forwarding.\lDeliveryException.request">
<polygon fill="white" stroke="black" points="226.5,-0 226.5,-30 373.5,-30 373.5,-0 226.5,-0"/>
<text text-anchor="start" x="234.5" y="-18" font-family="Helvetica,sans-Serif" font-size="10.00">game_requests.forwarding.</text>
<text text-anchor="middle" x="300" y="-7" font-family="Helvetica,sans-Serif" font-size="10.00">DeliveryException.request</text>
</a>
</g>
</g>
<!-- Node1&#45;&gt;Node3 -->
<g id="edge2" class="edge"><title>Node1&#45;&gt;Node3</title>
<path fill="none" stroke="midnightblue" d="M189.775,-27.9133C198.586,-26.8716 207.475,-25.8207 216.174,-24.7922"/>
<polygon fill="midnightblue" stroke="midnightblue" points="216.764,-28.247 226.283,-23.597 215.942,-21.2954 216.764,-28.247"/>
</g>
</g>
</svg>
