<?xml version="1.0" encoding="UTF-8" standalone="no"?>
<!DOCTYPE svg PUBLIC "-//W3C//DTD SVG 1.1//EN"
 "http://www.w3.org/Graphics/SVG/1.1/DTD/svg11.dtd">
<!-- Generated by graphviz version 2.36.0 (20140111.2315)
 -->
<!-- Title: game_engine.visuals.MiniMap.initializeGraphicsContext Pages: 1 -->
<svg width="538pt" height="87pt"
 viewBox="0.00 0.00 538.00 87.00" xmlns="http://www.w3.org/2000/svg" xmlns:xlink="http://www.w3.org/1999/xlink">
<g id="graph0" class="graph" transform="scale(1 1) rotate(0) translate(4 83)">
<title>game_engine.visuals.MiniMap.initializeGraphicsContext</title>
<polygon fill="white" stroke="none" points="-4,4 -4,-83 534,-83 534,4 -4,4"/>
<!-- Node1 -->
<g id="node1" class="node"><title>Node1</title>
<polygon fill="#bfbfbf" stroke="black" points="0,-24 0,-54 158,-54 158,-24 0,-24"/>
<text text-anchor="start" x="8" y="-42" font-family="Helvetica,sans-Serif" font-size="10.00">game_engine.visuals.Mini</text>
<text text-anchor="middle" x="79" y="-31" font-family="Helvetica,sans-Serif" font-size="10.00">Map.initializeGraphicsContext</text>
</g>
<!-- Node2 -->
<g id="node2" class="node"><title>Node2</title>
<g id="a_node2"><a xlink:href="../../db/da1/classgame__engine_1_1visuals_1_1_mini_map.html#a9694dc2188b1b108e5fef62bf27c25bc" target="_top" xlink:title="game_engine.visuals.Mini\lMap.MiniMap">
<polygon fill="white" stroke="black" points="194.5,-49 194.5,-79 333.5,-79 333.5,-49 194.5,-49"/>
<text text-anchor="start" x="202.5" y="-67" font-family="Helvetica,sans-Serif" font-size="10.00">game_engine.visuals.Mini</text>
<text text-anchor="middle" x="264" y="-56" font-family="Helvetica,sans-Serif" font-size="10.00">Map.MiniMap</text>
</a>
</g>
</g>
<!-- Node1&#45;&gt;Node2 -->
<g id="edge1" class="edge"><title>Node1&#45;&gt;Node2</title>
<path fill="none" stroke="midnightblue" d="M168.074,-51.032C176.905,-52.2384 185.779,-53.4507 194.365,-54.6237"/>
<polygon fill="midnightblue" stroke="midnightblue" points="168.521,-47.5606 158.139,-49.6748 167.573,-54.4962 168.521,-47.5606"/>
</g>
<!-- Node3 -->
<g id="node3" class="node"><title>Node3</title>
<g id="a_node3"><a xlink:href="../../db/da1/classgame__engine_1_1visuals_1_1_mini_map.html#a6a8b3482b26f3a240e180b027274a43b" target="_top" xlink:title="game_engine.visuals.Mini\lMap.updateMiniMap">
<polygon fill="white" stroke="black" points="194.5,-0 194.5,-30 333.5,-30 333.5,-0 194.5,-0"/>
<text text-anchor="start" x="202.5" y="-18" font-family="Helvetica,sans-Serif" font-size="10.00">game_engine.visuals.Mini</text>
<text text-anchor="middle" x="264" y="-7" font-family="Helvetica,sans-Serif" font-size="10.00">Map.updateMiniMap</text>
</a>
</g>
</g>
<!-- Node1&#45;&gt;Node3 -->
<g id="edge2" class="edge"><title>Node1&#45;&gt;Node3</title>
<path fill="none" stroke="midnightblue" d="M168.074,-27.4493C176.905,-26.2911 185.779,-25.1274 194.365,-24.0013"/>
<polygon fill="midnightblue" stroke="midnightblue" points="167.599,-23.9815 158.139,-28.7522 168.51,-30.9221 167.599,-23.9815"/>
</g>
<!-- Node4 -->
<g id="node4" class="node"><title>Node4</title>
<g id="a_node4"><a xlink:href="../../d7/daf/classgame__engine_1_1state_managing_1_1_game_loop.html#a89e88e780a439bea36f51d90d5cbca4a" target="_top" xlink:title="game_engine.stateManaging.\lGameLoop.update">
<polygon fill="white" stroke="black" points="370.5,-0 370.5,-30 529.5,-30 529.5,-0 370.5,-0"/>
<text text-anchor="start" x="378.5" y="-18" font-family="Helvetica,sans-Serif" font-size="10.00">game_engine.stateManaging.</text>
<text text-anchor="middle" x="450" y="-7" font-family="Helvetica,sans-Serif" font-size="10.00">GameLoop.update</text>
</a>
</g>
</g>
<!-- Node3&#45;&gt;Node4 -->
<g id="edge3" class="edge"><title>Node3&#45;&gt;Node4</title>
<path fill="none" stroke="midnightblue" d="M343.716,-15C352.488,-15 361.424,-15 370.196,-15"/>
<polygon fill="midnightblue" stroke="midnightblue" points="343.515,-11.5001 333.515,-15 343.515,-18.5001 343.515,-11.5001"/>
</g>
</g>
</svg>
