<?xml version="1.0" encoding="UTF-8" standalone="no"?>
<!DOCTYPE svg PUBLIC "-//W3C//DTD SVG 1.1//EN"
 "http://www.w3.org/Graphics/SVG/1.1/DTD/svg11.dtd">
<!-- Generated by graphviz version 2.36.0 (20140111.2315)
 -->
<!-- Title: view.editor.wizards.Grid.getFrameY Pages: 1 -->
<svg width="1398pt" height="158pt"
 viewBox="0.00 0.00 1398.00 158.00" xmlns="http://www.w3.org/2000/svg" xmlns:xlink="http://www.w3.org/1999/xlink">
<g id="graph0" class="graph" transform="scale(1 1) rotate(0) translate(4 154)">
<title>view.editor.wizards.Grid.getFrameY</title>
<polygon fill="white" stroke="none" points="-4,4 -4,-154 1394,-154 1394,4 -4,4"/>
<!-- Node1 -->
<g id="node1" class="node"><title>Node1</title>
<polygon fill="#bfbfbf" stroke="black" points="0,-28 0,-58 146,-58 146,-28 0,-28"/>
<text text-anchor="start" x="8" y="-46" font-family="Helvetica,sans-Serif" font-size="10.00">view.editor.wizards.Grid.get</text>
<text text-anchor="middle" x="73" y="-35" font-family="Helvetica,sans-Serif" font-size="10.00">FrameY</text>
</g>
<!-- Node2 -->
<g id="node2" class="node"><title>Node2</title>
<g id="a_node2"><a xlink:href="../../d7/d92/classview_1_1editor_1_1wizards_1_1_game_element_wizard.html#a9131233346b756980f0ffada6804fc93" target="_top" xlink:title="view.editor.wizards.Game\lElementWizard.createSliderListeners">
<polygon fill="white" stroke="black" points="182,-28 182,-58 374,-58 374,-28 182,-28"/>
<text text-anchor="start" x="190" y="-46" font-family="Helvetica,sans-Serif" font-size="10.00">view.editor.wizards.Game</text>
<text text-anchor="middle" x="278" y="-35" font-family="Helvetica,sans-Serif" font-size="10.00">ElementWizard.createSliderListeners</text>
</a>
</g>
</g>
<!-- Node1&#45;&gt;Node2 -->
<g id="edge1" class="edge"><title>Node1&#45;&gt;Node2</title>
<path fill="none" stroke="midnightblue" d="M156.245,-43C164.615,-43 173.166,-43 181.66,-43"/>
<polygon fill="midnightblue" stroke="midnightblue" points="156.142,-39.5001 146.142,-43 156.142,-46.5001 156.142,-39.5001"/>
</g>
<!-- Node3 -->
<g id="node3" class="node"><title>Node3</title>
<g id="a_node3"><a xlink:href="../../d7/d92/classview_1_1editor_1_1wizards_1_1_game_element_wizard.html#a9186bc2aecf42e0dc000cc684d20c685" target="_top" xlink:title="view.editor.wizards.Game\lElementWizard.initializeSliders">
<polygon fill="white" stroke="black" points="410.5,-28 410.5,-58 571.5,-58 571.5,-28 410.5,-28"/>
<text text-anchor="start" x="418.5" y="-46" font-family="Helvetica,sans-Serif" font-size="10.00">view.editor.wizards.Game</text>
<text text-anchor="middle" x="491" y="-35" font-family="Helvetica,sans-Serif" font-size="10.00">ElementWizard.initializeSliders</text>
</a>
</g>
</g>
<!-- Node2&#45;&gt;Node3 -->
<g id="edge2" class="edge"><title>Node2&#45;&gt;Node3</title>
<path fill="none" stroke="midnightblue" d="M384.281,-43C393.047,-43 401.814,-43 410.342,-43"/>
<polygon fill="midnightblue" stroke="midnightblue" points="384.007,-39.5001 374.007,-43 384.007,-46.5001 384.007,-39.5001"/>
</g>
<!-- Node4 -->
<g id="node4" class="node"><title>Node4</title>
<g id="a_node4"><a xlink:href="../../d7/d92/classview_1_1editor_1_1wizards_1_1_game_element_wizard.html#a0d98e58393e2435808900ae3a2643eee" target="_top" xlink:title="view.editor.wizards.Game\lElementWizard.renderImage">
<polygon fill="white" stroke="black" points="608,-28 608,-58 760,-58 760,-28 608,-28"/>
<text text-anchor="start" x="616" y="-46" font-family="Helvetica,sans-Serif" font-size="10.00">view.editor.wizards.Game</text>
<text text-anchor="middle" x="684" y="-35" font-family="Helvetica,sans-Serif" font-size="10.00">ElementWizard.renderImage</text>
</a>
</g>
</g>
<!-- Node3&#45;&gt;Node4 -->
<g id="edge3" class="edge"><title>Node3&#45;&gt;Node4</title>
<path fill="none" stroke="midnightblue" d="M581.787,-43C590.489,-43 599.254,-43 607.793,-43"/>
<polygon fill="midnightblue" stroke="midnightblue" points="581.618,-39.5001 571.618,-43 581.618,-46.5001 581.618,-39.5001"/>
</g>
<!-- Node5 -->
<g id="node5" class="node"><title>Node5</title>
<g id="a_node5"><a xlink:href="../../d7/d92/classview_1_1editor_1_1wizards_1_1_game_element_wizard.html#abe8ad6d8e7a4eec7b8184d12047755be" target="_top" xlink:title="view.editor.wizards.Game\lElementWizard.launchForEdit">
<polygon fill="white" stroke="black" points="796.5,-54 796.5,-84 951.5,-84 951.5,-54 796.5,-54"/>
<text text-anchor="start" x="804.5" y="-72" font-family="Helvetica,sans-Serif" font-size="10.00">view.editor.wizards.Game</text>
<text text-anchor="middle" x="874" y="-61" font-family="Helvetica,sans-Serif" font-size="10.00">ElementWizard.launchForEdit</text>
</a>
</g>
</g>
<!-- Node4&#45;&gt;Node5 -->
<g id="edge4" class="edge"><title>Node4&#45;&gt;Node5</title>
<path fill="none" stroke="midnightblue" d="M770.292,-54.7958C779.019,-56.0026 787.846,-57.2234 796.47,-58.4161"/>
<polygon fill="midnightblue" stroke="midnightblue" points="770.498,-51.291 760.113,-53.388 769.539,-58.225 770.498,-51.291"/>
</g>
<!-- Node9 -->
<g id="node9" class="node"><title>Node9</title>
<g id="a_node9"><a xlink:href="../../d7/d92/classview_1_1editor_1_1wizards_1_1_game_element_wizard.html#a1b56666ff43ed5d0ccbeacf0c7cda38f" target="_top" xlink:title="view.editor.wizards.Game\lElementWizard.loadImage">
<polygon fill="white" stroke="black" points="803.5,-3 803.5,-33 944.5,-33 944.5,-3 803.5,-3"/>
<text text-anchor="start" x="811.5" y="-21" font-family="Helvetica,sans-Serif" font-size="10.00">view.editor.wizards.Game</text>
<text text-anchor="middle" x="874" y="-10" font-family="Helvetica,sans-Serif" font-size="10.00">ElementWizard.loadImage</text>
</a>
</g>
</g>
<!-- Node4&#45;&gt;Node9 -->
<g id="edge9" class="edge"><title>Node4&#45;&gt;Node9</title>
<path fill="none" stroke="midnightblue" d="M770.263,-31.6618C781.386,-30.1827 792.673,-28.6818 803.494,-27.2428"/>
<polygon fill="midnightblue" stroke="midnightblue" points="769.564,-28.2238 760.113,-33.0116 770.487,-35.1627 769.564,-28.2238"/>
</g>
<!-- Node6 -->
<g id="node6" class="node"><title>Node6</title>
<g id="a_node6"><a xlink:href="../../d9/dfb/classview_1_1editor_1_1_element_accordion_controller.html#a71bb33e7588f335fc2ebc1346924ad2d" target="_top" xlink:title="view.editor.ElementAccordion\lController.openDrawableGameElement\lWizard">
<polygon fill="white" stroke="black" points="991.5,-108.5 991.5,-149.5 1194.5,-149.5 1194.5,-108.5 991.5,-108.5"/>
<text text-anchor="start" x="999.5" y="-137.5" font-family="Helvetica,sans-Serif" font-size="10.00">view.editor.ElementAccordion</text>
<text text-anchor="start" x="999.5" y="-126.5" font-family="Helvetica,sans-Serif" font-size="10.00">Controller.openDrawableGameElement</text>
<text text-anchor="middle" x="1093" y="-115.5" font-family="Helvetica,sans-Serif" font-size="10.00">Wizard</text>
</a>
</g>
</g>
<!-- Node5&#45;&gt;Node6 -->
<g id="edge5" class="edge"><title>Node5&#45;&gt;Node6</title>
<path fill="none" stroke="midnightblue" d="M939.434,-86.816C964.066,-93.6266 992.348,-101.446 1017.82,-108.489"/>
<polygon fill="midnightblue" stroke="midnightblue" points="940.049,-83.3547 929.478,-84.0631 938.184,-90.1016 940.049,-83.3547"/>
</g>
<!-- Node8 -->
<g id="node8" class="node"><title>Node8</title>
<g id="a_node8"><a xlink:href="../../d9/dfb/classview_1_1editor_1_1_element_accordion_controller.html#a8564fdf017fa6f25e3e663cf076e0c04" target="_top" xlink:title="view.editor.ElementAccordion\lController.openSelectableGameElement\lWizard">
<polygon fill="white" stroke="black" points="988.5,-48.5 988.5,-89.5 1197.5,-89.5 1197.5,-48.5 988.5,-48.5"/>
<text text-anchor="start" x="996.5" y="-77.5" font-family="Helvetica,sans-Serif" font-size="10.00">view.editor.ElementAccordion</text>
<text text-anchor="start" x="996.5" y="-66.5" font-family="Helvetica,sans-Serif" font-size="10.00">Controller.openSelectableGameElement</text>
<text text-anchor="middle" x="1093" y="-55.5" font-family="Helvetica,sans-Serif" font-size="10.00">Wizard</text>
</a>
</g>
</g>
<!-- Node5&#45;&gt;Node8 -->
<g id="edge7" class="edge"><title>Node5&#45;&gt;Node8</title>
<path fill="none" stroke="midnightblue" d="M961.716,-69C970.504,-69 979.491,-69 988.433,-69"/>
<polygon fill="midnightblue" stroke="midnightblue" points="961.506,-65.5001 951.506,-69 961.506,-72.5001 961.506,-65.5001"/>
</g>
<!-- Node7 -->
<g id="node7" class="node"><title>Node7</title>
<g id="a_node7"><a xlink:href="../../d9/dfb/classview_1_1editor_1_1_element_accordion_controller.html#af80453486ff349552dab988fb64397c0" target="_top" xlink:title="view.editor.ElementAccordion\lController.init">
<polygon fill="white" stroke="black" points="1234,-84 1234,-114 1390,-114 1390,-84 1234,-84"/>
<text text-anchor="start" x="1242" y="-102" font-family="Helvetica,sans-Serif" font-size="10.00">view.editor.ElementAccordion</text>
<text text-anchor="middle" x="1312" y="-91" font-family="Helvetica,sans-Serif" font-size="10.00">Controller.init</text>
</a>
</g>
</g>
<!-- Node6&#45;&gt;Node7 -->
<g id="edge6" class="edge"><title>Node6&#45;&gt;Node7</title>
<path fill="none" stroke="midnightblue" d="M1204.47,-113.727C1214.39,-112.356 1224.28,-110.988 1233.82,-109.669"/>
<polygon fill="midnightblue" stroke="midnightblue" points="1203.99,-110.261 1194.56,-115.098 1204.94,-117.195 1203.99,-110.261"/>
</g>
<!-- Node8&#45;&gt;Node7 -->
<g id="edge8" class="edge"><title>Node8&#45;&gt;Node7</title>
<path fill="none" stroke="midnightblue" d="M1207.75,-84.7258C1216.62,-85.9515 1225.43,-87.1707 1233.97,-88.3505"/>
<polygon fill="midnightblue" stroke="midnightblue" points="1208.12,-81.2435 1197.73,-83.341 1207.16,-88.1776 1208.12,-81.2435"/>
</g>
<!-- Node10 -->
<g id="node10" class="node"><title>Node10</title>
<g id="a_node10"><a xlink:href="../../d7/d92/classview_1_1editor_1_1wizards_1_1_game_element_wizard.html#a108e1aaa06ef6b80a4a1d33d460cde06" target="_top" xlink:title="view.editor.wizards.Game\lElementWizard.initialize">
<polygon fill="white" stroke="black" points="1024.5,-0 1024.5,-30 1161.5,-30 1161.5,-0 1024.5,-0"/>
<text text-anchor="start" x="1032.5" y="-18" font-family="Helvetica,sans-Serif" font-size="10.00">view.editor.wizards.Game</text>
<text text-anchor="middle" x="1093" y="-7" font-family="Helvetica,sans-Serif" font-size="10.00">ElementWizard.initialize</text>
</a>
</g>
</g>
<!-- Node9&#45;&gt;Node10 -->
<g id="edge10" class="edge"><title>Node9&#45;&gt;Node10</title>
<path fill="none" stroke="midnightblue" d="M954.582,-16.8998C977.475,-16.5833 1002.22,-16.2412 1024.32,-15.9357"/>
<polygon fill="midnightblue" stroke="midnightblue" points="954.506,-13.4004 944.556,-17.0384 954.603,-20.3997 954.506,-13.4004"/>
</g>
</g>
</svg>
