<?xml version="1.0" encoding="UTF-8" standalone="no"?>
<!DOCTYPE svg PUBLIC "-//W3C//DTD SVG 1.1//EN"
 "http://www.w3.org/Graphics/SVG/1.1/DTD/svg11.dtd">
<!-- Generated by graphviz version 2.36.0 (20140111.2315)
 -->
<!-- Title: view.editor.wizards.Grid.createColumns Pages: 1 -->
<!--zoomable 158 -->
<svg id="main" version="1.1" xmlns="http://www.w3.org/2000/svg" xmlns:xlink="http://www.w3.org/1999/xlink" xml:space="preserve" onload="init(evt)">
<style type="text/css"><![CDATA[
.edge:hover path { stroke: red; }
.edge:hover polygon { stroke: red; fill: red; }
]]></style>
<script type="text/javascript"><![CDATA[
var edges = document.getElementsByTagName('g');
if (edges && edges.length) {
  for (var i=0;i<edges.length;i++) {
    if (edges[i].id.substr(0,4)=='edge') {
      edges[i].setAttribute('class','edge');
    }
  }
}
]]></script>
        <defs>
                <circle id="rim" cx="0" cy="0" r="7"/>
                <circle id="rim2" cx="0" cy="0" r="3.5"/>
                <g id="zoomPlus">
                        <use xlink:href="#rim" fill="#404040">
                                <set attributeName="fill" to="#808080" begin="zoomplus.mouseover" end="zoomplus.mouseout"/>
                        </use>
                        <path d="M-4,0h8M0,-4v8" fill="none" stroke="white" stroke-width="1.5" pointer-events="none"/>
                </g>
                <g id="zoomMin">
                        <use xlink:href="#rim" fill="#404040">
                                <set attributeName="fill" to="#808080" begin="zoomminus.mouseover" end="zoomminus.mouseout"/>
                        </use>
                        <path d="M-4,0h8" fill="none" stroke="white" stroke-width="1.5" pointer-events="none"/>
                </g>
                <g id="dirArrow">
                        <path fill="none" stroke="white" stroke-width="1.5" d="M0,-3.0v7 M-2.5,-0.5L0,-3.0L2.5,-0.5"/>
                </g>
               <g id="resetDef">
                       <use xlink:href="#rim2" fill="#404040">
                               <set attributeName="fill" to="#808080" begin="reset.mouseover" end="reset.mouseout"/>
                       </use>
               </g>
        </defs>

<script type="text/javascript">
var viewWidth = 1822;
var viewHeight = 158;
var sectionId = 'dynsection-3';
</script>
<script xlink:href="../../svgpan.js"/>
<svg id="graph" class="graph">
<g id="viewport">
<title>view.editor.wizards.Grid.createColumns</title>
<polygon fill="white" stroke="none" points="-4,4 -4,-154 1818,-154 1818,4 -4,4"/>
<!-- Node1 -->
<g id="node1" class="node"><title>Node1</title>
<polygon fill="#bfbfbf" stroke="black" points="0.5,-30 0.5,-60 161.5,-60 161.5,-30 0.5,-30"/>
<text text-anchor="start" x="8.5" y="-48" font-family="Helvetica,sans-Serif" font-size="10.00">view.editor.wizards.Grid.create</text>
<text text-anchor="middle" x="81" y="-37" font-family="Helvetica,sans-Serif" font-size="10.00">Columns</text>
</g>
<!-- Node2 -->
<g id="node2" class="node"><title>Node2</title>
<g id="a_node2"><a xlink:href="../../de/dec/classview_1_1editor_1_1wizards_1_1_grid.html#ae5c3a9c2a2e322a67f22ea893395fe09" target="_top" xlink:title="view.editor.wizards.Grid.createGrid">
<polygon fill="white" stroke="black" points="198,-35.5 198,-54.5 378,-54.5 378,-35.5 198,-35.5"/>
<text text-anchor="middle" x="288" y="-42.5" font-family="Helvetica,sans-Serif" font-size="10.00">view.editor.wizards.Grid.createGrid</text>
</a>
</g>
</g>
<!-- Node1&#45;&gt;Node2 -->
<g id="edge1" class="edge"><title>Node1&#45;&gt;Node2</title>
<path fill="none" stroke="midnightblue" d="M171.706,-45C180.418,-45 189.255,-45 197.961,-45"/>
<polygon fill="midnightblue" stroke="midnightblue" points="171.552,-41.5001 161.552,-45 171.552,-48.5001 171.552,-41.5001"/>
</g>
<!-- Node3 -->
<g id="node3" class="node"><title>Node3</title>
<g id="a_node3"><a xlink:href="../../de/dd2/classview_1_1editor_1_1wizards_1_1_animation_grid.html#ae8b023d0c40b27c1f76cb457cf5a7c20" target="_top" xlink:title="view.editor.wizards.Animation\lGrid.changeSize">
<polygon fill="white" stroke="black" points="414,-52 414,-82 570,-82 570,-52 414,-52"/>
<text text-anchor="start" x="422" y="-70" font-family="Helvetica,sans-Serif" font-size="10.00">view.editor.wizards.Animation</text>
<text text-anchor="middle" x="492" y="-59" font-family="Helvetica,sans-Serif" font-size="10.00">Grid.changeSize</text>
</a>
</g>
</g>
<!-- Node2&#45;&gt;Node3 -->
<g id="edge2" class="edge"><title>Node2&#45;&gt;Node3</title>
<path fill="none" stroke="midnightblue" d="M386.412,-55.6092C395.642,-56.6145 404.913,-57.6242 413.915,-58.6046"/>
<polygon fill="midnightblue" stroke="midnightblue" points="386.745,-52.1249 376.425,-54.5216 385.988,-59.0838 386.745,-52.1249"/>
</g>
<!-- Node14 -->
<g id="node14" class="node"><title>Node14</title>
<g id="a_node14"><a xlink:href="../../de/dec/classview_1_1editor_1_1wizards_1_1_grid.html#a402a7cf0c1528ceeb9d3fed6fac791df" target="_top" xlink:title="view.editor.wizards.Grid.Grid">
<polygon fill="white" stroke="black" points="417.5,-13.5 417.5,-32.5 566.5,-32.5 566.5,-13.5 417.5,-13.5"/>
<text text-anchor="middle" x="492" y="-20.5" font-family="Helvetica,sans-Serif" font-size="10.00">view.editor.wizards.Grid.Grid</text>
</a>
</g>
</g>
<!-- Node2&#45;&gt;Node14 -->
<g id="edge14" class="edge"><title>Node2&#45;&gt;Node14</title>
<path fill="none" stroke="midnightblue" d="M386.386,-34.3936C396.807,-33.2586 407.28,-32.118 417.359,-31.0203"/>
<polygon fill="midnightblue" stroke="midnightblue" points="385.988,-30.9162 376.425,-35.4784 386.745,-37.8751 385.988,-30.9162"/>
</g>
<!-- Node4 -->
<g id="node4" class="node"><title>Node4</title>
<g id="a_node4"><a xlink:href="../../de/dd2/classview_1_1editor_1_1wizards_1_1_animation_grid.html#a64a2e48458f3dfa8601033d72adab277" target="_top" xlink:title="view.editor.wizards.Animation\lGrid.AnimationGrid">
<polygon fill="white" stroke="black" points="624,-77 624,-107 780,-107 780,-77 624,-77"/>
<text text-anchor="start" x="632" y="-95" font-family="Helvetica,sans-Serif" font-size="10.00">view.editor.wizards.Animation</text>
<text text-anchor="middle" x="702" y="-84" font-family="Helvetica,sans-Serif" font-size="10.00">Grid.AnimationGrid</text>
</a>
</g>
</g>
<!-- Node3&#45;&gt;Node4 -->
<g id="edge3" class="edge"><title>Node3&#45;&gt;Node4</title>
<path fill="none" stroke="midnightblue" d="M580.142,-77.4738C594.692,-79.2226 609.695,-81.0258 623.969,-82.7414"/>
<polygon fill="midnightblue" stroke="midnightblue" points="580.502,-73.992 570.156,-76.2736 579.667,-80.942 580.502,-73.992"/>
</g>
<!-- Node5 -->
<g id="node5" class="node"><title>Node5</title>
<g id="a_node5"><a xlink:href="../../d7/d92/classview_1_1editor_1_1wizards_1_1_game_element_wizard.html#a9131233346b756980f0ffada6804fc93" target="_top" xlink:title="view.editor.wizards.Game\lElementWizard.createSliderListeners">
<polygon fill="white" stroke="black" points="606,-28 606,-58 798,-58 798,-28 606,-28"/>
<text text-anchor="start" x="614" y="-46" font-family="Helvetica,sans-Serif" font-size="10.00">view.editor.wizards.Game</text>
<text text-anchor="middle" x="702" y="-35" font-family="Helvetica,sans-Serif" font-size="10.00">ElementWizard.createSliderListeners</text>
</a>
</g>
</g>
<!-- Node3&#45;&gt;Node5 -->
<g id="edge4" class="edge"><title>Node3&#45;&gt;Node5</title>
<path fill="none" stroke="midnightblue" d="M580.109,-56.9489C588.661,-55.9622 597.37,-54.9573 605.996,-53.9621"/>
<polygon fill="midnightblue" stroke="midnightblue" points="579.689,-53.4741 570.156,-58.0974 580.491,-60.428 579.689,-53.4741"/>
</g>
<!-- Node6 -->
<g id="node6" class="node"><title>Node6</title>
<g id="a_node6"><a xlink:href="../../d7/d92/classview_1_1editor_1_1wizards_1_1_game_element_wizard.html#a9186bc2aecf42e0dc000cc684d20c685" target="_top" xlink:title="view.editor.wizards.Game\lElementWizard.initializeSliders">
<polygon fill="white" stroke="black" points="834.5,-28 834.5,-58 995.5,-58 995.5,-28 834.5,-28"/>
<text text-anchor="start" x="842.5" y="-46" font-family="Helvetica,sans-Serif" font-size="10.00">view.editor.wizards.Game</text>
<text text-anchor="middle" x="915" y="-35" font-family="Helvetica,sans-Serif" font-size="10.00">ElementWizard.initializeSliders</text>
</a>
</g>
</g>
<!-- Node5&#45;&gt;Node6 -->
<g id="edge5" class="edge"><title>Node5&#45;&gt;Node6</title>
<path fill="none" stroke="midnightblue" d="M808.281,-43C817.047,-43 825.814,-43 834.342,-43"/>
<polygon fill="midnightblue" stroke="midnightblue" points="808.007,-39.5001 798.007,-43 808.007,-46.5001 808.007,-39.5001"/>
</g>
<!-- Node7 -->
<g id="node7" class="node"><title>Node7</title>
<g id="a_node7"><a xlink:href="../../d7/d92/classview_1_1editor_1_1wizards_1_1_game_element_wizard.html#a0d98e58393e2435808900ae3a2643eee" target="_top" xlink:title="view.editor.wizards.Game\lElementWizard.renderImage">
<polygon fill="white" stroke="black" points="1032,-28 1032,-58 1184,-58 1184,-28 1032,-28"/>
<text text-anchor="start" x="1040" y="-46" font-family="Helvetica,sans-Serif" font-size="10.00">view.editor.wizards.Game</text>
<text text-anchor="middle" x="1108" y="-35" font-family="Helvetica,sans-Serif" font-size="10.00">ElementWizard.renderImage</text>
</a>
</g>
</g>
<!-- Node6&#45;&gt;Node7 -->
<g id="edge6" class="edge"><title>Node6&#45;&gt;Node7</title>
<path fill="none" stroke="midnightblue" d="M1005.79,-43C1014.49,-43 1023.25,-43 1031.79,-43"/>
<polygon fill="midnightblue" stroke="midnightblue" points="1005.62,-39.5001 995.618,-43 1005.62,-46.5001 1005.62,-39.5001"/>
</g>
<!-- Node8 -->
<g id="node8" class="node"><title>Node8</title>
<g id="a_node8"><a xlink:href="../../d7/d92/classview_1_1editor_1_1wizards_1_1_game_element_wizard.html#abe8ad6d8e7a4eec7b8184d12047755be" target="_top" xlink:title="view.editor.wizards.Game\lElementWizard.launchForEdit">
<polygon fill="white" stroke="black" points="1220.5,-54 1220.5,-84 1375.5,-84 1375.5,-54 1220.5,-54"/>
<text text-anchor="start" x="1228.5" y="-72" font-family="Helvetica,sans-Serif" font-size="10.00">view.editor.wizards.Game</text>
<text text-anchor="middle" x="1298" y="-61" font-family="Helvetica,sans-Serif" font-size="10.00">ElementWizard.launchForEdit</text>
</a>
</g>
</g>
<!-- Node7&#45;&gt;Node8 -->
<g id="edge7" class="edge"><title>Node7&#45;&gt;Node8</title>
<path fill="none" stroke="midnightblue" d="M1194.29,-54.7958C1203.02,-56.0026 1211.85,-57.2234 1220.47,-58.4161"/>
<polygon fill="midnightblue" stroke="midnightblue" points="1194.5,-51.291 1184.11,-53.388 1193.54,-58.225 1194.5,-51.291"/>
</g>
<!-- Node12 -->
<g id="node12" class="node"><title>Node12</title>
<g id="a_node12"><a xlink:href="../../d7/d92/classview_1_1editor_1_1wizards_1_1_game_element_wizard.html#a1b56666ff43ed5d0ccbeacf0c7cda38f" target="_top" xlink:title="view.editor.wizards.Game\lElementWizard.loadImage">
<polygon fill="white" stroke="black" points="1227.5,-3 1227.5,-33 1368.5,-33 1368.5,-3 1227.5,-3"/>
<text text-anchor="start" x="1235.5" y="-21" font-family="Helvetica,sans-Serif" font-size="10.00">view.editor.wizards.Game</text>
<text text-anchor="middle" x="1298" y="-10" font-family="Helvetica,sans-Serif" font-size="10.00">ElementWizard.loadImage</text>
</a>
</g>
</g>
<!-- Node7&#45;&gt;Node12 -->
<g id="edge12" class="edge"><title>Node7&#45;&gt;Node12</title>
<path fill="none" stroke="midnightblue" d="M1194.26,-31.6618C1205.39,-30.1827 1216.67,-28.6818 1227.49,-27.2428"/>
<polygon fill="midnightblue" stroke="midnightblue" points="1193.56,-28.2238 1184.11,-33.0116 1194.49,-35.1627 1193.56,-28.2238"/>
</g>
<!-- Node9 -->
<g id="node9" class="node"><title>Node9</title>
<g id="a_node9"><a xlink:href="../../d9/dfb/classview_1_1editor_1_1_element_accordion_controller.html#a71bb33e7588f335fc2ebc1346924ad2d" target="_top" xlink:title="view.editor.ElementAccordion\lController.openDrawableGameElement\lWizard">
<polygon fill="white" stroke="black" points="1415.5,-108.5 1415.5,-149.5 1618.5,-149.5 1618.5,-108.5 1415.5,-108.5"/>
<text text-anchor="start" x="1423.5" y="-137.5" font-family="Helvetica,sans-Serif" font-size="10.00">view.editor.ElementAccordion</text>
<text text-anchor="start" x="1423.5" y="-126.5" font-family="Helvetica,sans-Serif" font-size="10.00">Controller.openDrawableGameElement</text>
<text text-anchor="middle" x="1517" y="-115.5" font-family="Helvetica,sans-Serif" font-size="10.00">Wizard</text>
</a>
</g>
</g>
<!-- Node8&#45;&gt;Node9 -->
<g id="edge8" class="edge"><title>Node8&#45;&gt;Node9</title>
<path fill="none" stroke="midnightblue" d="M1363.43,-86.816C1388.07,-93.6266 1416.35,-101.446 1441.82,-108.489"/>
<polygon fill="midnightblue" stroke="midnightblue" points="1364.05,-83.3547 1353.48,-84.0631 1362.18,-90.1016 1364.05,-83.3547"/>
</g>
<!-- Node11 -->
<g id="node11" class="node"><title>Node11</title>
<g id="a_node11"><a xlink:href="../../d9/dfb/classview_1_1editor_1_1_element_accordion_controller.html#a8564fdf017fa6f25e3e663cf076e0c04" target="_top" xlink:title="view.editor.ElementAccordion\lController.openSelectableGameElement\lWizard">
<polygon fill="white" stroke="black" points="1412.5,-48.5 1412.5,-89.5 1621.5,-89.5 1621.5,-48.5 1412.5,-48.5"/>
<text text-anchor="start" x="1420.5" y="-77.5" font-family="Helvetica,sans-Serif" font-size="10.00">view.editor.ElementAccordion</text>
<text text-anchor="start" x="1420.5" y="-66.5" font-family="Helvetica,sans-Serif" font-size="10.00">Controller.openSelectableGameElement</text>
<text text-anchor="middle" x="1517" y="-55.5" font-family="Helvetica,sans-Serif" font-size="10.00">Wizard</text>
</a>
</g>
</g>
<!-- Node8&#45;&gt;Node11 -->
<g id="edge10" class="edge"><title>Node8&#45;&gt;Node11</title>
<path fill="none" stroke="midnightblue" d="M1385.72,-69C1394.5,-69 1403.49,-69 1412.43,-69"/>
<polygon fill="midnightblue" stroke="midnightblue" points="1385.51,-65.5001 1375.51,-69 1385.51,-72.5001 1385.51,-65.5001"/>
</g>
<!-- Node10 -->
<g id="node10" class="node"><title>Node10</title>
<g id="a_node10"><a xlink:href="../../d9/dfb/classview_1_1editor_1_1_element_accordion_controller.html#af80453486ff349552dab988fb64397c0" target="_top" xlink:title="view.editor.ElementAccordion\lController.init">
<polygon fill="white" stroke="black" points="1658,-84 1658,-114 1814,-114 1814,-84 1658,-84"/>
<text text-anchor="start" x="1666" y="-102" font-family="Helvetica,sans-Serif" font-size="10.00">view.editor.ElementAccordion</text>
<text text-anchor="middle" x="1736" y="-91" font-family="Helvetica,sans-Serif" font-size="10.00">Controller.init</text>
</a>
</g>
</g>
<!-- Node9&#45;&gt;Node10 -->
<g id="edge9" class="edge"><title>Node9&#45;&gt;Node10</title>
<path fill="none" stroke="midnightblue" d="M1628.47,-113.727C1638.39,-112.356 1648.28,-110.988 1657.82,-109.669"/>
<polygon fill="midnightblue" stroke="midnightblue" points="1627.99,-110.261 1618.56,-115.098 1628.94,-117.195 1627.99,-110.261"/>
</g>
<!-- Node11&#45;&gt;Node10 -->
<g id="edge11" class="edge"><title>Node11&#45;&gt;Node10</title>
<path fill="none" stroke="midnightblue" d="M1631.75,-84.7258C1640.62,-85.9515 1649.43,-87.1707 1657.97,-88.3505"/>
<polygon fill="midnightblue" stroke="midnightblue" points="1632.12,-81.2435 1621.73,-83.341 1631.16,-88.1776 1632.12,-81.2435"/>
</g>
<!-- Node13 -->
<g id="node13" class="node"><title>Node13</title>
<g id="a_node13"><a xlink:href="../../d7/d92/classview_1_1editor_1_1wizards_1_1_game_element_wizard.html#a108e1aaa06ef6b80a4a1d33d460cde06" target="_top" xlink:title="view.editor.wizards.Game\lElementWizard.initialize">
<polygon fill="white" stroke="black" points="1448.5,-0 1448.5,-30 1585.5,-30 1585.5,-0 1448.5,-0"/>
<text text-anchor="start" x="1456.5" y="-18" font-family="Helvetica,sans-Serif" font-size="10.00">view.editor.wizards.Game</text>
<text text-anchor="middle" x="1517" y="-7" font-family="Helvetica,sans-Serif" font-size="10.00">ElementWizard.initialize</text>
</a>
</g>
</g>
<!-- Node12&#45;&gt;Node13 -->
<g id="edge13" class="edge"><title>Node12&#45;&gt;Node13</title>
<path fill="none" stroke="midnightblue" d="M1378.58,-16.8998C1401.47,-16.5833 1426.22,-16.2412 1448.32,-15.9357"/>
<polygon fill="midnightblue" stroke="midnightblue" points="1378.51,-13.4004 1368.56,-17.0384 1378.6,-20.3997 1378.51,-13.4004"/>
</g>
</g>
</svg>
        <g id="navigator" transform="translate(0 0)" fill="#404254">
                <rect fill="#f2f5e9" fill-opacity="0.5" stroke="#606060" stroke-width=".5" x="0" y="0" width="60" height="60"/>
                <use id="zoomplus" xlink:href="#zoomPlus" x="17" y="9" onmousedown="handleZoom(evt,'in')"/>
                <use id="zoomminus" xlink:href="#zoomMin" x="42" y="9" onmousedown="handleZoom(evt,'out')"/>
                <use id="reset" xlink:href="#resetDef" x="30" y="36" onmousedown="handleReset()"/>
                <g id="arrowUp" xlink:href="#dirArrow" transform="translate(30 24)" onmousedown="handlePan(0,-1)">
                  <use xlink:href="#rim" fill="#404040">
                        <set attributeName="fill" to="#808080" begin="arrowUp.mouseover" end="arrowUp.mouseout"/>
                  </use>
                  <path fill="none" stroke="white" stroke-width="1.5" d="M0,-3.0v7 M-2.5,-0.5L0,-3.0L2.5,-0.5"/>
                </g>
                <g id="arrowRight" xlink:href="#dirArrow" transform="rotate(90) translate(36 -43)" onmousedown="handlePan(1,0)">
                  <use xlink:href="#rim" fill="#404040">
                        <set attributeName="fill" to="#808080" begin="arrowRight.mouseover" end="arrowRight.mouseout"/>
                  </use>
                  <path fill="none" stroke="white" stroke-width="1.5" d="M0,-3.0v7 M-2.5,-0.5L0,-3.0L2.5,-0.5"/>
                </g>
                <g id="arrowDown" xlink:href="#dirArrow" transform="rotate(180) translate(-30 -48)" onmousedown="handlePan(0,1)">
                  <use xlink:href="#rim" fill="#404040">
                        <set attributeName="fill" to="#808080" begin="arrowDown.mouseover" end="arrowDown.mouseout"/>
                  </use>
                  <path fill="none" stroke="white" stroke-width="1.5" d="M0,-3.0v7 M-2.5,-0.5L0,-3.0L2.5,-0.5"/>
                </g>
                <g id="arrowLeft" xlink:href="#dirArrow" transform="rotate(270) translate(-36 17)" onmousedown="handlePan(-1,0)">
                  <use xlink:href="#rim" fill="#404040">
                        <set attributeName="fill" to="#808080" begin="arrowLeft.mouseover" end="arrowLeft.mouseout"/>
                  </use>
                  <path fill="none" stroke="white" stroke-width="1.5" d="M0,-3.0v7 M-2.5,-0.5L0,-3.0L2.5,-0.5"/>
                </g>
        </g>
        <svg viewBox="0 0 15 15" width="100%" height="30px" preserveAspectRatio="xMaxYMin meet">
         <g id="arrow_out" transform="scale(0.3 0.3)">
          <a xlink:href="classview_1_1editor_1_1wizards_1_1_grid_a7a745baf6411f65575eec276d04c7c08_icgraph_org.svg" target="_base">
           <rect id="button" ry="5" rx="5" y="6" x="6" height="38" width="38"
                fill="#f2f5e9" fill-opacity="0.5" stroke="#606060" stroke-width="1.0"/>
           <path id="arrow"
             d="M 11.500037,31.436501 C 11.940474,20.09759 22.043105,11.32322 32.158766,21.979434 L 37.068811,17.246167 C 37.068811,17.246167 37.088388,32 37.088388,32 L 22.160133,31.978069 C 22.160133,31.978069 26.997745,27.140456 26.997745,27.140456 C 18.528582,18.264221 13.291696,25.230495 11.500037,31.436501 z"
             style="fill:#404040;"/>
          </a>
         </g>
        </svg>
</svg>
