<?xml version="1.0" encoding="UTF-8" standalone="no"?>
<!DOCTYPE svg PUBLIC "-//W3C//DTD SVG 1.1//EN"
 "http://www.w3.org/Graphics/SVG/1.1/DTD/svg11.dtd">
<!-- Generated by graphviz version 2.36.0 (20140111.2315)
 -->
<!-- Title: view.editor.wizards.Grid.Grid Pages: 1 -->
<svg width="572pt" height="38pt"
 viewBox="0.00 0.00 572.00 38.00" xmlns="http://www.w3.org/2000/svg" xmlns:xlink="http://www.w3.org/1999/xlink">
<g id="graph0" class="graph" transform="scale(1 1) rotate(0) translate(4 34)">
<title>view.editor.wizards.Grid.Grid</title>
<polygon fill="white" stroke="none" points="-4,4 -4,-34 568,-34 568,4 -4,4"/>
<!-- Node1 -->
<g id="node1" class="node"><title>Node1</title>
<polygon fill="#bfbfbf" stroke="black" points="0.5,-5.5 0.5,-24.5 149.5,-24.5 149.5,-5.5 0.5,-5.5"/>
<text text-anchor="middle" x="75" y="-12.5" font-family="Helvetica,sans-Serif" font-size="10.00">view.editor.wizards.Grid.Grid</text>
</g>
<!-- Node2 -->
<g id="node2" class="node"><title>Node2</title>
<g id="a_node2"><a xlink:href="../../de/dec/classview_1_1editor_1_1wizards_1_1_grid.html#ae5c3a9c2a2e322a67f22ea893395fe09" target="_top" xlink:title="view.editor.wizards.Grid.createGrid">
<polygon fill="white" stroke="black" points="186,-5.5 186,-24.5 366,-24.5 366,-5.5 186,-5.5"/>
<text text-anchor="middle" x="276" y="-12.5" font-family="Helvetica,sans-Serif" font-size="10.00">view.editor.wizards.Grid.createGrid</text>
</a>
</g>
</g>
<!-- Node1&#45;&gt;Node2 -->
<g id="edge1" class="edge"><title>Node1&#45;&gt;Node2</title>
<path fill="none" stroke="midnightblue" d="M149.535,-15C158.142,-15 167.029,-15 175.91,-15"/>
<polygon fill="midnightblue" stroke="midnightblue" points="175.921,-18.5001 185.921,-15 175.921,-11.5001 175.921,-18.5001"/>
</g>
<!-- Node3 -->
<g id="node3" class="node"><title>Node3</title>
<g id="a_node3"><a xlink:href="../../de/dec/classview_1_1editor_1_1wizards_1_1_grid.html#a7a745baf6411f65575eec276d04c7c08" target="_top" xlink:title="view.editor.wizards.Grid.create\lColumns">
<polygon fill="white" stroke="black" points="402.5,-0 402.5,-30 563.5,-30 563.5,-0 402.5,-0"/>
<text text-anchor="start" x="410.5" y="-18" font-family="Helvetica,sans-Serif" font-size="10.00">view.editor.wizards.Grid.create</text>
<text text-anchor="middle" x="483" y="-7" font-family="Helvetica,sans-Serif" font-size="10.00">Columns</text>
</a>
</g>
</g>
<!-- Node2&#45;&gt;Node3 -->
<g id="edge2" class="edge"><title>Node2&#45;&gt;Node3</title>
<path fill="none" stroke="midnightblue" d="M366.022,-15C374.72,-15 383.55,-15 392.256,-15"/>
<polygon fill="midnightblue" stroke="midnightblue" points="392.402,-18.5001 402.402,-15 392.402,-11.5001 392.402,-18.5001"/>
</g>
</g>
</svg>
