<?xml version="1.0" encoding="UTF-8" standalone="no"?>
<!DOCTYPE svg PUBLIC "-//W3C//DTD SVG 1.1//EN"
 "http://www.w3.org/Graphics/SVG/1.1/DTD/svg11.dtd">
<!-- Generated by graphviz version 2.36.0 (20140111.2315)
 -->
<!-- Title: engine.elementFactories.GameElementFactory.createDrawableGameElement Pages: 1 -->
<svg width="1470pt" height="234pt"
 viewBox="0.00 0.00 1470.00 234.00" xmlns="http://www.w3.org/2000/svg" xmlns:xlink="http://www.w3.org/1999/xlink">
<g id="graph0" class="graph" transform="scale(1 1) rotate(0) translate(4 230)">
<title>engine.elementFactories.GameElementFactory.createDrawableGameElement</title>
<polygon fill="white" stroke="none" points="-4,4 -4,-230 1466,-230 1466,4 -4,4"/>
<!-- Node1 -->
<g id="node1" class="node"><title>Node1</title>
<polygon fill="#bfbfbf" stroke="black" points="0.5,-91.5 0.5,-132.5 197.5,-132.5 197.5,-91.5 0.5,-91.5"/>
<text text-anchor="start" x="8.5" y="-120.5" font-family="Helvetica,sans-Serif" font-size="10.00">engine.elementFactories.</text>
<text text-anchor="start" x="8.5" y="-109.5" font-family="Helvetica,sans-Serif" font-size="10.00">GameElementFactory.createDrawable</text>
<text text-anchor="middle" x="99" y="-98.5" font-family="Helvetica,sans-Serif" font-size="10.00">GameElement</text>
</g>
<!-- Node2 -->
<g id="node2" class="node"><title>Node2</title>
<g id="a_node2"><a xlink:href="../../dc/d91/classengine_1_1element_factories_1_1_game_element_factory.html#a3582bf2491a03176901da64dcdeccd97" target="_top" xlink:title="engine.elementFactories.\lGameElementFactory.generateActions">
<polygon fill="white" stroke="black" points="240,-134 240,-164 440,-164 440,-134 240,-134"/>
<text text-anchor="start" x="248" y="-152" font-family="Helvetica,sans-Serif" font-size="10.00">engine.elementFactories.</text>
<text text-anchor="middle" x="340" y="-141" font-family="Helvetica,sans-Serif" font-size="10.00">GameElementFactory.generateActions</text>
</a>
</g>
</g>
<!-- Node1&#45;&gt;Node2 -->
<g id="edge1" class="edge"><title>Node1&#45;&gt;Node2</title>
<path fill="none" stroke="midnightblue" d="M197.555,-127.103C208.836,-128.849 220.387,-130.637 231.787,-132.402"/>
<polygon fill="midnightblue" stroke="midnightblue" points="231.339,-135.874 241.757,-133.946 232.41,-128.957 231.339,-135.874"/>
</g>
<!-- Node6 -->
<g id="node6" class="node"><title>Node6</title>
<g id="a_node6"><a xlink:href="../../dc/d91/classengine_1_1element_factories_1_1_game_element_factory.html#ae53ef87192fe373614a7215f0e3d938c" target="_top" xlink:title="engine.elementFactories.\lGameElementFactory.generateVisualizer">
<polygon fill="white" stroke="black" points="234.5,-61 234.5,-91 445.5,-91 445.5,-61 234.5,-61"/>
<text text-anchor="start" x="242.5" y="-79" font-family="Helvetica,sans-Serif" font-size="10.00">engine.elementFactories.</text>
<text text-anchor="middle" x="340" y="-68" font-family="Helvetica,sans-Serif" font-size="10.00">GameElementFactory.generateVisualizer</text>
</a>
</g>
</g>
<!-- Node1&#45;&gt;Node6 -->
<g id="edge5" class="edge"><title>Node1&#45;&gt;Node6</title>
<path fill="none" stroke="midnightblue" d="M197.555,-97.3055C207.923,-95.7437 218.52,-94.1476 229.018,-92.5663"/>
<polygon fill="midnightblue" stroke="midnightblue" points="229.675,-96.0069 239.042,-91.0564 228.632,-89.085 229.675,-96.0069"/>
</g>
<!-- Node3 -->
<g id="node3" class="node"><title>Node3</title>
<g id="a_node3"><a xlink:href="../../d7/da9/classmodel_1_1state_1_1gameelement_1_1_game_element_state.html#a9aa5246a488d3fc64aeaad61e6d5fb55" target="_top" xlink:title="model.state.gameelement.\lGameElementState.getActions">
<polygon fill="white" stroke="black" points="527,-196 527,-226 693,-226 693,-196 527,-196"/>
<text text-anchor="start" x="535" y="-214" font-family="Helvetica,sans-Serif" font-size="10.00">model.state.gameelement.</text>
<text text-anchor="middle" x="610" y="-203" font-family="Helvetica,sans-Serif" font-size="10.00">GameElementState.getActions</text>
</a>
</g>
</g>
<!-- Node2&#45;&gt;Node3 -->
<g id="edge2" class="edge"><title>Node2&#45;&gt;Node3</title>
<path fill="none" stroke="midnightblue" d="M395.04,-164.023C421.207,-171.082 453.139,-179.379 482,-186 493.839,-188.716 506.34,-191.399 518.696,-193.943"/>
<polygon fill="midnightblue" stroke="midnightblue" points="518.061,-197.385 528.558,-195.951 519.457,-190.526 518.061,-197.385"/>
</g>
<!-- Node4 -->
<g id="node4" class="node"><title>Node4</title>
<g id="a_node4"><a xlink:href="../../d4/dbd/classengine_1_1game_representation_1_1evaluatables_1_1actions_1_1_action_factory.html#a6950834fbffde384fd69a1dfaa57baf3" target="_top" xlink:title="engine.gameRepresentation.evaluatables.actions.\lActionFactory.createAction">
<polygon fill="white" stroke="black" points="482,-147 482,-177 738,-177 738,-147 482,-147"/>
<text text-anchor="start" x="490" y="-165" font-family="Helvetica,sans-Serif" font-size="10.00">engine.gameRepresentation.evaluatables.actions.</text>
<text text-anchor="middle" x="610" y="-154" font-family="Helvetica,sans-Serif" font-size="10.00">ActionFactory.createAction</text>
</a>
</g>
</g>
<!-- Node2&#45;&gt;Node4 -->
<g id="edge3" class="edge"><title>Node2&#45;&gt;Node4</title>
<path fill="none" stroke="midnightblue" d="M440.032,-153.804C450.314,-154.303 460.892,-154.816 471.5,-155.33"/>
<polygon fill="midnightblue" stroke="midnightblue" points="471.512,-158.835 481.67,-155.824 471.851,-151.843 471.512,-158.835"/>
</g>
<!-- Node5 -->
<g id="node5" class="node"><title>Node5</title>
<g id="a_node5"><a xlink:href="../../d4/de2/classengine_1_1game_representation_1_1rendered_representation_1_1_game_element.html#a1b9361b9496199dd986432b392bb6cde" target="_top" xlink:title="engine.gameRepresentation.rendered\lRepresentation.GameElement.addAction">
<polygon fill="white" stroke="black" points="504,-98 504,-128 716,-128 716,-98 504,-98"/>
<text text-anchor="start" x="512" y="-116" font-family="Helvetica,sans-Serif" font-size="10.00">engine.gameRepresentation.rendered</text>
<text text-anchor="middle" x="610" y="-105" font-family="Helvetica,sans-Serif" font-size="10.00">Representation.GameElement.addAction</text>
</a>
</g>
</g>
<!-- Node2&#45;&gt;Node5 -->
<g id="edge4" class="edge"><title>Node2&#45;&gt;Node5</title>
<path fill="none" stroke="midnightblue" d="M440.032,-135.697C457.358,-133.37 475.522,-130.93 493.252,-128.548"/>
<polygon fill="midnightblue" stroke="midnightblue" points="494.186,-131.954 503.631,-127.154 493.254,-125.017 494.186,-131.954"/>
</g>
<!-- Node7 -->
<g id="node7" class="node"><title>Node7</title>
<g id="a_node7"><a xlink:href="../../df/df0/classengine_1_1element_factories_1_1_visualizer_factory.html#ab3af310fd8c0f30f4ab30125576112f9" target="_top" xlink:title="engine.elementFactories.\lVisualizerFactory.createVisualizer">
<polygon fill="white" stroke="black" points="522.5,-49 522.5,-79 697.5,-79 697.5,-49 522.5,-49"/>
<text text-anchor="start" x="530.5" y="-67" font-family="Helvetica,sans-Serif" font-size="10.00">engine.elementFactories.</text>
<text text-anchor="middle" x="610" y="-56" font-family="Helvetica,sans-Serif" font-size="10.00">VisualizerFactory.createVisualizer</text>
</a>
</g>
</g>
<!-- Node6&#45;&gt;Node7 -->
<g id="edge6" class="edge"><title>Node6&#45;&gt;Node7</title>
<path fill="none" stroke="midnightblue" d="M445.767,-71.3089C467.693,-70.3272 490.716,-69.2963 512.331,-68.3285"/>
<polygon fill="midnightblue" stroke="midnightblue" points="512.651,-71.8177 522.485,-67.8738 512.338,-64.8247 512.651,-71.8177"/>
</g>
<!-- Node8 -->
<g id="node8" class="node"><title>Node8</title>
<g id="a_node8"><a xlink:href="../../d6/d60/classengine_1_1element_factories_1_1_animator_factory.html#a18370178255ca1fd6c28dfc5158001f8" target="_top" xlink:title="engine.elementFactories.\lAnimatorFactory.createAnimator">
<polygon fill="white" stroke="black" points="785,-98 785,-128 957,-128 957,-98 785,-98"/>
<text text-anchor="start" x="793" y="-116" font-family="Helvetica,sans-Serif" font-size="10.00">engine.elementFactories.</text>
<text text-anchor="middle" x="871" y="-105" font-family="Helvetica,sans-Serif" font-size="10.00">AnimatorFactory.createAnimator</text>
</a>
</g>
</g>
<!-- Node7&#45;&gt;Node8 -->
<g id="edge7" class="edge"><title>Node7&#45;&gt;Node8</title>
<path fill="none" stroke="midnightblue" d="M690.469,-79.0346C719.059,-84.4435 751.493,-90.5797 780.853,-96.1343"/>
<polygon fill="midnightblue" stroke="midnightblue" points="780.205,-99.5738 790.682,-97.9938 781.507,-92.6958 780.205,-99.5738"/>
</g>
<!-- Node14 -->
<g id="node14" class="node"><title>Node14</title>
<g id="a_node14"><a xlink:href="../../d1/d3d/classengine_1_1visuals_1_1element_visuals_1_1_visualizer.html#a245f34adbf35324c4e56b3642dc074f1" target="_top" xlink:title="engine.visuals.elementVisuals.\lVisualizer.setAnimateEnableProperty">
<polygon fill="white" stroke="black" points="774.5,-49 774.5,-79 967.5,-79 967.5,-49 774.5,-49"/>
<text text-anchor="start" x="782.5" y="-67" font-family="Helvetica,sans-Serif" font-size="10.00">engine.visuals.elementVisuals.</text>
<text text-anchor="middle" x="871" y="-56" font-family="Helvetica,sans-Serif" font-size="10.00">Visualizer.setAnimateEnableProperty</text>
</a>
</g>
</g>
<!-- Node7&#45;&gt;Node14 -->
<g id="edge13" class="edge"><title>Node7&#45;&gt;Node14</title>
<path fill="none" stroke="midnightblue" d="M697.603,-64C718.9,-64 741.942,-64 764.038,-64"/>
<polygon fill="midnightblue" stroke="midnightblue" points="764.114,-67.5001 774.114,-64 764.114,-60.5001 764.114,-67.5001"/>
</g>
<!-- Node15 -->
<g id="node15" class="node"><title>Node15</title>
<g id="a_node15"><a xlink:href="../../d1/d3d/classengine_1_1visuals_1_1element_visuals_1_1_visualizer.html#a7846bbc3b79583d9271292e7ea9659c9" target="_top" xlink:title="engine.visuals.elementVisuals.\lVisualizer.addWidget">
<polygon fill="white" stroke="black" points="789,-0 789,-30 953,-30 953,-0 789,-0"/>
<text text-anchor="start" x="797" y="-18" font-family="Helvetica,sans-Serif" font-size="10.00">engine.visuals.elementVisuals.</text>
<text text-anchor="middle" x="871" y="-7" font-family="Helvetica,sans-Serif" font-size="10.00">Visualizer.addWidget</text>
</a>
</g>
</g>
<!-- Node7&#45;&gt;Node15 -->
<g id="edge14" class="edge"><title>Node7&#45;&gt;Node15</title>
<path fill="none" stroke="midnightblue" d="M690.469,-48.9654C719.059,-43.5565 751.493,-37.4203 780.853,-31.8657"/>
<polygon fill="midnightblue" stroke="midnightblue" points="781.507,-35.3042 790.682,-30.0062 780.205,-28.4262 781.507,-35.3042"/>
</g>
<!-- Node9 -->
<g id="node9" class="node"><title>Node9</title>
<g id="a_node9"><a xlink:href="../../de/d21/classmodel_1_1_main_model.html#ae2e58698b812253b1c8e87312897b97e" target="_top" xlink:title="model.MainModel.fetchImage\lContainer">
<polygon fill="white" stroke="black" points="1052,-122 1052,-152 1210,-152 1210,-122 1052,-122"/>
<text text-anchor="start" x="1060" y="-140" font-family="Helvetica,sans-Serif" font-size="10.00">model.MainModel.fetchImage</text>
<text text-anchor="middle" x="1131" y="-129" font-family="Helvetica,sans-Serif" font-size="10.00">Container</text>
</a>
</g>
</g>
<!-- Node8&#45;&gt;Node9 -->
<g id="edge8" class="edge"><title>Node8&#45;&gt;Node9</title>
<path fill="none" stroke="midnightblue" d="M957.194,-120.925C984.265,-123.443 1014.26,-126.233 1041.55,-128.772"/>
<polygon fill="midnightblue" stroke="midnightblue" points="1041.59,-132.291 1051.87,-129.732 1042.24,-125.321 1041.59,-132.291"/>
</g>
<!-- Node13 -->
<g id="node13" class="node"><title>Node13</title>
<g id="a_node13"><a xlink:href="../../d5/d66/classengine_1_1visuals_1_1element_visuals_1_1animations_1_1_animator_state.html#acaa50348e29aa983feacc3fbce6aefcc" target="_top" xlink:title="engine.visuals.elementVisuals.animations.\lAnimatorState.getImageTag">
<polygon fill="white" stroke="black" points="1021,-73 1021,-103 1241,-103 1241,-73 1021,-73"/>
<text text-anchor="start" x="1029" y="-91" font-family="Helvetica,sans-Serif" font-size="10.00">engine.visuals.elementVisuals.animations.</text>
<text text-anchor="middle" x="1131" y="-80" font-family="Helvetica,sans-Serif" font-size="10.00">AnimatorState.getImageTag</text>
</a>
</g>
</g>
<!-- Node8&#45;&gt;Node13 -->
<g id="edge12" class="edge"><title>Node8&#45;&gt;Node13</title>
<path fill="none" stroke="midnightblue" d="M957.194,-104.745C974.408,-103.077 992.803,-101.294 1010.93,-99.5373"/>
<polygon fill="midnightblue" stroke="midnightblue" points="1011.36,-103.013 1020.97,-98.5647 1010.68,-96.0456 1011.36,-103.013"/>
</g>
<!-- Node10 -->
<g id="node10" class="node"><title>Node10</title>
<g id="a_node10"><a xlink:href="../../de/d01/classmodel_1_1sprite_1_1_sprite_image_generator.html#acc5fd25511da23fdddf26107aea74d44" target="_top" xlink:title="model.sprite.SpriteImage\lGenerator.fetchImageContainer">
<polygon fill="white" stroke="black" points="1294,-171 1294,-201 1462,-201 1462,-171 1294,-171"/>
<text text-anchor="start" x="1302" y="-189" font-family="Helvetica,sans-Serif" font-size="10.00">model.sprite.SpriteImage</text>
<text text-anchor="middle" x="1378" y="-178" font-family="Helvetica,sans-Serif" font-size="10.00">Generator.fetchImageContainer</text>
</a>
</g>
</g>
<!-- Node9&#45;&gt;Node10 -->
<g id="edge9" class="edge"><title>Node9&#45;&gt;Node10</title>
<path fill="none" stroke="midnightblue" d="M1207.17,-152.035C1233.98,-157.396 1264.37,-163.473 1291.95,-168.989"/>
<polygon fill="midnightblue" stroke="midnightblue" points="1291.48,-172.465 1301.97,-170.994 1292.85,-165.601 1291.48,-172.465"/>
</g>
<!-- Node11 -->
<g id="node11" class="node"><title>Node11</title>
<g id="a_node11"><a xlink:href="../../d1/d5c/classmodel_1_1sprite_1_1_sprite_image_container.html#aeda9017d9625cc566d6cc9a640db43e1" target="_top" xlink:title="model.sprite.SpriteImage\lContainer.getSpritesheet">
<polygon fill="white" stroke="black" points="1309,-122 1309,-152 1447,-152 1447,-122 1309,-122"/>
<text text-anchor="start" x="1317" y="-140" font-family="Helvetica,sans-Serif" font-size="10.00">model.sprite.SpriteImage</text>
<text text-anchor="middle" x="1378" y="-129" font-family="Helvetica,sans-Serif" font-size="10.00">Container.getSpritesheet</text>
</a>
</g>
</g>
<!-- Node9&#45;&gt;Node11 -->
<g id="edge10" class="edge"><title>Node9&#45;&gt;Node11</title>
<path fill="none" stroke="midnightblue" d="M1210.19,-137C1238.38,-137 1270.19,-137 1298.41,-137"/>
<polygon fill="midnightblue" stroke="midnightblue" points="1298.63,-140.5 1308.63,-137 1298.63,-133.5 1298.63,-140.5"/>
</g>
<!-- Node12 -->
<g id="node12" class="node"><title>Node12</title>
<g id="a_node12"><a xlink:href="../../d1/d5c/classmodel_1_1sprite_1_1_sprite_image_container.html#af83a0e388cc4a15338ada9ef04ba5ace" target="_top" xlink:title="model.sprite.SpriteImage\lContainer.getColorMask">
<polygon fill="white" stroke="black" points="1309,-73 1309,-103 1447,-103 1447,-73 1309,-73"/>
<text text-anchor="start" x="1317" y="-91" font-family="Helvetica,sans-Serif" font-size="10.00">model.sprite.SpriteImage</text>
<text text-anchor="middle" x="1378" y="-80" font-family="Helvetica,sans-Serif" font-size="10.00">Container.getColorMask</text>
</a>
</g>
</g>
<!-- Node9&#45;&gt;Node12 -->
<g id="edge11" class="edge"><title>Node9&#45;&gt;Node12</title>
<path fill="none" stroke="midnightblue" d="M1207.96,-121.968C1224.46,-118.692 1241.82,-115.237 1258,-112 1271.22,-109.355 1285.27,-106.534 1298.9,-103.789"/>
<polygon fill="midnightblue" stroke="midnightblue" points="1299.62,-107.213 1308.73,-101.807 1298.24,-100.351 1299.62,-107.213"/>
</g>
<!-- Node16 -->
<g id="node16" class="node"><title>Node16</title>
<g id="a_node16"><a xlink:href="../../d7/df4/classengine_1_1visuals_1_1element_visuals_1_1widgets_1_1attribute_displays_1_1_attribute_displayer.html#aa97d810f3a518008dcc6e4b8b542e359" target="_top" xlink:title="engine.visuals.elementVisuals.widgets.attribute\lDisplays.AttributeDisplayer.registerAsComponent">
<polygon fill="white" stroke="black" points="1004.5,-0 1004.5,-30 1257.5,-30 1257.5,-0 1004.5,-0"/>
<text text-anchor="start" x="1012.5" y="-18" font-family="Helvetica,sans-Serif" font-size="10.00">engine.visuals.elementVisuals.widgets.attribute</text>
<text text-anchor="middle" x="1131" y="-7" font-family="Helvetica,sans-Serif" font-size="10.00">Displays.AttributeDisplayer.registerAsComponent</text>
</a>
</g>
</g>
<!-- Node15&#45;&gt;Node16 -->
<g id="edge15" class="edge"><title>Node15&#45;&gt;Node16</title>
<path fill="none" stroke="midnightblue" d="M953.279,-15C966.353,-15 980.188,-15 994.131,-15"/>
<polygon fill="midnightblue" stroke="midnightblue" points="994.293,-18.5001 1004.29,-15 994.293,-11.5001 994.293,-18.5001"/>
</g>
</g>
</svg>
