<?xml version="1.0" encoding="UTF-8" standalone="no"?>
<!DOCTYPE svg PUBLIC "-//W3C//DTD SVG 1.1//EN"
 "http://www.w3.org/Graphics/SVG/1.1/DTD/svg11.dtd">
<!-- Generated by graphviz version 2.36.0 (20140111.2315)
 -->
<!-- Title: engine.elementFactories.GameElementFactory.createDrawableGameElement Pages: 1 -->
<svg width="1178pt" height="110pt"
 viewBox="0.00 0.00 1178.00 110.00" xmlns="http://www.w3.org/2000/svg" xmlns:xlink="http://www.w3.org/1999/xlink">
<g id="graph0" class="graph" transform="scale(1 1) rotate(0) translate(4 106)">
<title>engine.elementFactories.GameElementFactory.createDrawableGameElement</title>
<polygon fill="white" stroke="none" points="-4,4 -4,-106 1174,-106 1174,4 -4,4"/>
<!-- Node1 -->
<g id="node1" class="node"><title>Node1</title>
<polygon fill="#bfbfbf" stroke="black" points="0.5,-30.5 0.5,-71.5 197.5,-71.5 197.5,-30.5 0.5,-30.5"/>
<text text-anchor="start" x="8.5" y="-59.5" font-family="Helvetica,sans-Serif" font-size="10.00">engine.elementFactories.</text>
<text text-anchor="start" x="8.5" y="-48.5" font-family="Helvetica,sans-Serif" font-size="10.00">GameElementFactory.createDrawable</text>
<text text-anchor="middle" x="99" y="-37.5" font-family="Helvetica,sans-Serif" font-size="10.00">GameElement</text>
</g>
<!-- Node2 -->
<g id="node2" class="node"><title>Node2</title>
<g id="a_node2"><a xlink:href="../../dd/dd8/classengine_1_1state_managing_1_1_game_element_manager.html#a940342710081366cbfc1da2dee734c07" target="_top" xlink:title="engine.stateManaging.Game\lElementManager.addDrawableGame\lElementToLevel">
<polygon fill="white" stroke="black" points="234,-60.5 234,-101.5 426,-101.5 426,-60.5 234,-60.5"/>
<text text-anchor="start" x="242" y="-89.5" font-family="Helvetica,sans-Serif" font-size="10.00">engine.stateManaging.Game</text>
<text text-anchor="start" x="242" y="-78.5" font-family="Helvetica,sans-Serif" font-size="10.00">ElementManager.addDrawableGame</text>
<text text-anchor="middle" x="330" y="-67.5" font-family="Helvetica,sans-Serif" font-size="10.00">ElementToLevel</text>
</a>
</g>
</g>
<!-- Node1&#45;&gt;Node2 -->
<g id="edge1" class="edge"><title>Node1&#45;&gt;Node2</title>
<path fill="none" stroke="midnightblue" d="M207.88,-65.1327C216.512,-66.2636 225.195,-67.401 233.731,-68.5193"/>
<polygon fill="midnightblue" stroke="midnightblue" points="208.151,-61.6384 197.781,-63.8097 207.241,-68.5791 208.151,-61.6384"/>
</g>
<!-- Node4 -->
<g id="node4" class="node"><title>Node4</title>
<g id="a_node4"><a xlink:href="../../d1/df7/classengine_1_1element_factories_1_1_level_factory.html#abed719c341b6c31bb85a5e79fc40ad76" target="_top" xlink:title="engine.elementFactories.\lLevelFactory.generateTerrain\lElements">
<polygon fill="white" stroke="black" points="254,-0.5 254,-41.5 406,-41.5 406,-0.5 254,-0.5"/>
<text text-anchor="start" x="262" y="-29.5" font-family="Helvetica,sans-Serif" font-size="10.00">engine.elementFactories.</text>
<text text-anchor="start" x="262" y="-18.5" font-family="Helvetica,sans-Serif" font-size="10.00">LevelFactory.generateTerrain</text>
<text text-anchor="middle" x="330" y="-7.5" font-family="Helvetica,sans-Serif" font-size="10.00">Elements</text>
</a>
</g>
</g>
<!-- Node1&#45;&gt;Node4 -->
<g id="edge3" class="edge"><title>Node1&#45;&gt;Node4</title>
<path fill="none" stroke="midnightblue" d="M207.92,-36.862C223.402,-34.8338 239.045,-32.7845 253.712,-30.863"/>
<polygon fill="midnightblue" stroke="midnightblue" points="207.241,-33.4209 197.781,-38.1903 208.151,-40.3616 207.241,-33.4209"/>
</g>
<!-- Node3 -->
<g id="node3" class="node"><title>Node3</title>
<g id="a_node3"><a xlink:href="../../d6/d14/classengine_1_1_u_i_1_1_editor_input_manager.html#a3bf1a3596ba0f8e5f8586a9522da7397" target="_top" xlink:title="engine.UI.EditorInputManager.primary\lClickOccurred">
<polygon fill="white" stroke="black" points="462.5,-66 462.5,-96 659.5,-96 659.5,-66 462.5,-66"/>
<text text-anchor="start" x="470.5" y="-84" font-family="Helvetica,sans-Serif" font-size="10.00">engine.UI.EditorInputManager.primary</text>
<text text-anchor="middle" x="561" y="-73" font-family="Helvetica,sans-Serif" font-size="10.00">ClickOccurred</text>
</a>
</g>
</g>
<!-- Node2&#45;&gt;Node3 -->
<g id="edge2" class="edge"><title>Node2&#45;&gt;Node3</title>
<path fill="none" stroke="midnightblue" d="M436.241,-81C444.895,-81 453.619,-81 462.215,-81"/>
<polygon fill="midnightblue" stroke="midnightblue" points="436.127,-77.5001 426.127,-81 436.127,-84.5001 436.127,-77.5001"/>
</g>
<!-- Node5 -->
<g id="node5" class="node"><title>Node5</title>
<g id="a_node5"><a xlink:href="../../d1/df7/classengine_1_1element_factories_1_1_level_factory.html#a0558c33c2ce1c757e3464d18c84db2e7" target="_top" xlink:title="engine.elementFactories.\lLevelFactory.createLevel">
<polygon fill="white" stroke="black" points="492.5,-6 492.5,-36 629.5,-36 629.5,-6 492.5,-6"/>
<text text-anchor="start" x="500.5" y="-24" font-family="Helvetica,sans-Serif" font-size="10.00">engine.elementFactories.</text>
<text text-anchor="middle" x="561" y="-13" font-family="Helvetica,sans-Serif" font-size="10.00">LevelFactory.createLevel</text>
</a>
</g>
</g>
<!-- Node4&#45;&gt;Node5 -->
<g id="edge4" class="edge"><title>Node4&#45;&gt;Node5</title>
<path fill="none" stroke="midnightblue" d="M416.528,-21C441.577,-21 468.607,-21 492.378,-21"/>
<polygon fill="midnightblue" stroke="midnightblue" points="416.3,-17.5001 406.3,-21 416.3,-24.5001 416.3,-17.5001"/>
</g>
<!-- Node6 -->
<g id="node6" class="node"><title>Node6</title>
<g id="a_node6"><a xlink:href="../../dc/de2/classengine_1_1_engine.html#a7a3f6d4d4586f3bc336cacbb58037eeb" target="_top" xlink:title="engine.Engine.createLevel">
<polygon fill="white" stroke="black" points="696.5,-11.5 696.5,-30.5 839.5,-30.5 839.5,-11.5 696.5,-11.5"/>
<text text-anchor="middle" x="768" y="-18.5" font-family="Helvetica,sans-Serif" font-size="10.00">engine.Engine.createLevel</text>
</a>
</g>
</g>
<!-- Node5&#45;&gt;Node6 -->
<g id="edge5" class="edge"><title>Node5&#45;&gt;Node6</title>
<path fill="none" stroke="midnightblue" d="M639.848,-21C658.368,-21 678.03,-21 696.214,-21"/>
<polygon fill="midnightblue" stroke="midnightblue" points="639.693,-17.5001 629.693,-21 639.693,-24.5001 639.693,-17.5001"/>
</g>
<!-- Node7 -->
<g id="node7" class="node"><title>Node7</title>
<g id="a_node7"><a xlink:href="../../dc/de2/classengine_1_1_engine.html#af201d1d894a31f20aa1e05f674d4584b" target="_top" xlink:title="engine.Engine.instantiate\lManagers">
<polygon fill="white" stroke="black" points="876,-6 876,-36 1014,-36 1014,-6 876,-6"/>
<text text-anchor="start" x="884" y="-24" font-family="Helvetica,sans-Serif" font-size="10.00">engine.Engine.instantiate</text>
<text text-anchor="middle" x="945" y="-13" font-family="Helvetica,sans-Serif" font-size="10.00">Managers</text>
</a>
</g>
</g>
<!-- Node6&#45;&gt;Node7 -->
<g id="edge6" class="edge"><title>Node6&#45;&gt;Node7</title>
<path fill="none" stroke="midnightblue" d="M849.842,-21C858.556,-21 867.358,-21 875.9,-21"/>
<polygon fill="midnightblue" stroke="midnightblue" points="849.675,-17.5001 839.675,-21 849.675,-24.5001 849.675,-17.5001"/>
</g>
<!-- Node8 -->
<g id="node8" class="node"><title>Node8</title>
<g id="a_node8"><a xlink:href="../../dc/de2/classengine_1_1_engine.html#a707225a32896b370f131105ef1c644e2" target="_top" xlink:title="engine.Engine.Engine">
<polygon fill="white" stroke="black" points="1050.5,-11.5 1050.5,-30.5 1169.5,-30.5 1169.5,-11.5 1050.5,-11.5"/>
<text text-anchor="middle" x="1110" y="-18.5" font-family="Helvetica,sans-Serif" font-size="10.00">engine.Engine.Engine</text>
</a>
</g>
</g>
<!-- Node7&#45;&gt;Node8 -->
<g id="edge7" class="edge"><title>Node7&#45;&gt;Node8</title>
<path fill="none" stroke="midnightblue" d="M1024.41,-21C1033.16,-21 1041.96,-21 1050.41,-21"/>
<polygon fill="midnightblue" stroke="midnightblue" points="1024.18,-17.5001 1014.18,-21 1024.18,-24.5001 1024.18,-17.5001"/>
</g>
</g>
</svg>
