<?xml version="1.0" encoding="UTF-8" standalone="no"?>
<!DOCTYPE svg PUBLIC "-//W3C//DTD SVG 1.1//EN"
 "http://www.w3.org/Graphics/SVG/1.1/DTD/svg11.dtd">
<!-- Generated by graphviz version 2.36.0 (20140111.2315)
 -->
<!-- Title: engine.visuals.elementVisuals.Visualizer.setAnimateEnableProperty Pages: 1 -->
<svg width="902pt" height="109pt"
 viewBox="0.00 0.00 902.00 109.00" xmlns="http://www.w3.org/2000/svg" xmlns:xlink="http://www.w3.org/1999/xlink">
<g id="graph0" class="graph" transform="scale(1 1) rotate(0) translate(4 105)">
<title>engine.visuals.elementVisuals.Visualizer.setAnimateEnableProperty</title>
<polygon fill="white" stroke="none" points="-4,4 -4,-105 898,-105 898,4 -4,4"/>
<!-- Node1 -->
<g id="node1" class="node"><title>Node1</title>
<polygon fill="#bfbfbf" stroke="black" points="0.5,-35 0.5,-65 193.5,-65 193.5,-35 0.5,-35"/>
<text text-anchor="start" x="8.5" y="-53" font-family="Helvetica,sans-Serif" font-size="10.00">engine.visuals.elementVisuals.</text>
<text text-anchor="middle" x="97" y="-42" font-family="Helvetica,sans-Serif" font-size="10.00">Visualizer.setAnimateEnableProperty</text>
</g>
<!-- Node2 -->
<g id="node2" class="node"><title>Node2</title>
<g id="a_node2"><a xlink:href="../../df/df0/classengine_1_1element_factories_1_1_visualizer_factory.html#ab3af310fd8c0f30f4ab30125576112f9" target="_top" xlink:title="engine.elementFactories.\lVisualizerFactory.createVisualizer">
<polygon fill="white" stroke="black" points="230.5,-35 230.5,-65 405.5,-65 405.5,-35 230.5,-35"/>
<text text-anchor="start" x="238.5" y="-53" font-family="Helvetica,sans-Serif" font-size="10.00">engine.elementFactories.</text>
<text text-anchor="middle" x="318" y="-42" font-family="Helvetica,sans-Serif" font-size="10.00">VisualizerFactory.createVisualizer</text>
</a>
</g>
</g>
<!-- Node1&#45;&gt;Node2 -->
<g id="edge1" class="edge"><title>Node1&#45;&gt;Node2</title>
<path fill="none" stroke="midnightblue" d="M203.785,-50C212.708,-50 221.664,-50 230.415,-50"/>
<polygon fill="midnightblue" stroke="midnightblue" points="203.738,-46.5001 193.738,-50 203.738,-53.5001 203.738,-46.5001"/>
</g>
<!-- Node3 -->
<g id="node3" class="node"><title>Node3</title>
<g id="a_node3"><a xlink:href="../../dc/d91/classengine_1_1element_factories_1_1_game_element_factory.html#ae53ef87192fe373614a7215f0e3d938c" target="_top" xlink:title="engine.elementFactories.\lGameElementFactory.generateVisualizer">
<polygon fill="white" stroke="black" points="442.5,-35 442.5,-65 653.5,-65 653.5,-35 442.5,-35"/>
<text text-anchor="start" x="450.5" y="-53" font-family="Helvetica,sans-Serif" font-size="10.00">engine.elementFactories.</text>
<text text-anchor="middle" x="548" y="-42" font-family="Helvetica,sans-Serif" font-size="10.00">GameElementFactory.generateVisualizer</text>
</a>
</g>
</g>
<!-- Node2&#45;&gt;Node3 -->
<g id="edge2" class="edge"><title>Node2&#45;&gt;Node3</title>
<path fill="none" stroke="midnightblue" d="M415.709,-50C424.452,-50 433.334,-50 442.143,-50"/>
<polygon fill="midnightblue" stroke="midnightblue" points="415.522,-46.5001 405.522,-50 415.522,-53.5001 415.522,-46.5001"/>
</g>
<!-- Node4 -->
<g id="node4" class="node"><title>Node4</title>
<g id="a_node4"><a xlink:href="../../dc/d91/classengine_1_1element_factories_1_1_game_element_factory.html#a8671651ea7c0bcf7fb0de5b5552832fe" target="_top" xlink:title="engine.elementFactories.\lGameElementFactory.createDrawable\lGameElement">
<polygon fill="white" stroke="black" points="693.5,-59.5 693.5,-100.5 890.5,-100.5 890.5,-59.5 693.5,-59.5"/>
<text text-anchor="start" x="701.5" y="-88.5" font-family="Helvetica,sans-Serif" font-size="10.00">engine.elementFactories.</text>
<text text-anchor="start" x="701.5" y="-77.5" font-family="Helvetica,sans-Serif" font-size="10.00">GameElementFactory.createDrawable</text>
<text text-anchor="middle" x="792" y="-66.5" font-family="Helvetica,sans-Serif" font-size="10.00">GameElement</text>
</a>
</g>
</g>
<!-- Node3&#45;&gt;Node4 -->
<g id="edge3" class="edge"><title>Node3&#45;&gt;Node4</title>
<path fill="none" stroke="midnightblue" d="M663.955,-64.2506C673.788,-65.4696 683.676,-66.6953 693.355,-67.8953"/>
<polygon fill="midnightblue" stroke="midnightblue" points="664.092,-60.7409 653.737,-62.984 663.231,-67.6877 664.092,-60.7409"/>
</g>
<!-- Node5 -->
<g id="node5" class="node"><title>Node5</title>
<g id="a_node5"><a xlink:href="../../dc/d91/classengine_1_1element_factories_1_1_game_element_factory.html#a4e478634c65c4ee64c2163fdacd09669" target="_top" xlink:title="engine.elementFactories.\lGameElementFactory.createSelectable\lGameElement">
<polygon fill="white" stroke="black" points="690.5,0.5 690.5,-40.5 893.5,-40.5 893.5,0.5 690.5,0.5"/>
<text text-anchor="start" x="698.5" y="-28.5" font-family="Helvetica,sans-Serif" font-size="10.00">engine.elementFactories.</text>
<text text-anchor="start" x="698.5" y="-17.5" font-family="Helvetica,sans-Serif" font-size="10.00">GameElementFactory.createSelectable</text>
<text text-anchor="middle" x="792" y="-6.5" font-family="Helvetica,sans-Serif" font-size="10.00">GameElement</text>
</a>
</g>
</g>
<!-- Node3&#45;&gt;Node5 -->
<g id="edge4" class="edge"><title>Node3&#45;&gt;Node5</title>
<path fill="none" stroke="midnightblue" d="M663.732,-35.7771C672.61,-34.6765 681.533,-33.5703 690.31,-32.4822"/>
<polygon fill="midnightblue" stroke="midnightblue" points="663.231,-32.3123 653.737,-37.016 664.092,-39.2591 663.231,-32.3123"/>
</g>
</g>
</svg>
