<?xml version="1.0" encoding="UTF-8" standalone="no"?>
<!DOCTYPE svg PUBLIC "-//W3C//DTD SVG 1.1//EN"
 "http://www.w3.org/Graphics/SVG/1.1/DTD/svg11.dtd">
<!-- Generated by graphviz version 2.36.0 (20140111.2315)
 -->
<!-- Title: engine.gameRepresentation.evaluatables.ElementPair.getActor Pages: 1 -->
<svg width="570pt" height="234pt"
 viewBox="0.00 0.00 570.00 234.00" xmlns="http://www.w3.org/2000/svg" xmlns:xlink="http://www.w3.org/1999/xlink">
<g id="graph0" class="graph" transform="scale(1 1) rotate(0) translate(4 230)">
<title>engine.gameRepresentation.evaluatables.ElementPair.getActor</title>
<polygon fill="white" stroke="none" points="-4,4 -4,-230 566,-230 566,4 -4,4"/>
<!-- Node1 -->
<g id="node1" class="node"><title>Node1</title>
<polygon fill="#bfbfbf" stroke="black" points="0,-98 0,-128 218,-128 218,-98 0,-98"/>
<text text-anchor="start" x="8" y="-116" font-family="Helvetica,sans-Serif" font-size="10.00">engine.gameRepresentation.evaluatables.</text>
<text text-anchor="middle" x="109" y="-105" font-family="Helvetica,sans-Serif" font-size="10.00">ElementPair.getActor</text>
</g>
<!-- Node2 -->
<g id="node2" class="node"><title>Node2</title>
<g id="a_node2"><a xlink:href="../../d8/dcd/classengine_1_1game_representation_1_1evaluatables_1_1actions_1_1_attribute_incrementer_action.html#a4718e7d85bdc5522781701e466d8f00c" target="_top" xlink:title="engine.gameRepresentation.evaluatables.actions.\lAttributeIncrementerAction.evaluate">
<polygon fill="white" stroke="black" points="280,-196 280,-226 536,-226 536,-196 280,-196"/>
<text text-anchor="start" x="288" y="-214" font-family="Helvetica,sans-Serif" font-size="10.00">engine.gameRepresentation.evaluatables.actions.</text>
<text text-anchor="middle" x="408" y="-203" font-family="Helvetica,sans-Serif" font-size="10.00">AttributeIncrementerAction.evaluate</text>
</a>
</g>
</g>
<!-- Node1&#45;&gt;Node2 -->
<g id="edge1" class="edge"><title>Node1&#45;&gt;Node2</title>
<path fill="none" stroke="midnightblue" d="M142.672,-133.241C171.071,-149.921 213.849,-172.891 254,-186 265.897,-189.884 278.521,-193.182 291.213,-195.979"/>
<polygon fill="midnightblue" stroke="midnightblue" points="144.361,-130.173 133.978,-128.067 140.781,-136.189 144.361,-130.173"/>
</g>
<!-- Node3 -->
<g id="node3" class="node"><title>Node3</title>
<g id="a_node3"><a xlink:href="../../df/d07/classengine_1_1game_representation_1_1evaluatables_1_1actions_1_1_check_attribute_create_object_action.html#a7748525bf0dd7b5ddc38f978020dd2aa" target="_top" xlink:title="engine.gameRepresentation.evaluatables.actions.\lCheckAttributeCreateObjectAction.evaluate">
<polygon fill="white" stroke="black" points="280,-147 280,-177 536,-177 536,-147 280,-147"/>
<text text-anchor="start" x="288" y="-165" font-family="Helvetica,sans-Serif" font-size="10.00">engine.gameRepresentation.evaluatables.actions.</text>
<text text-anchor="middle" x="408" y="-154" font-family="Helvetica,sans-Serif" font-size="10.00">CheckAttributeCreateObjectAction.evaluate</text>
</a>
</g>
</g>
<!-- Node1&#45;&gt;Node3 -->
<g id="edge2" class="edge"><title>Node1&#45;&gt;Node3</title>
<path fill="none" stroke="midnightblue" d="M210.02,-129.712C224.767,-132.164 239.777,-134.653 254,-137 273.651,-140.243 294.726,-143.7 314.759,-146.977"/>
<polygon fill="midnightblue" stroke="midnightblue" points="210.305,-126.212 199.866,-128.023 209.157,-133.117 210.305,-126.212"/>
</g>
<!-- Node4 -->
<g id="node4" class="node"><title>Node4</title>
<g id="a_node4"><a xlink:href="../../d8/d98/classengine_1_1game_representation_1_1evaluatables_1_1actions_1_1_mother_of_all_actions.html#a488e8c7f50249f5caabac492108d1ca0" target="_top" xlink:title="engine.gameRepresentation.evaluatables.actions.\lMotherOfAllActions.evaluate">
<polygon fill="white" stroke="black" points="280,-98 280,-128 536,-128 536,-98 280,-98"/>
<text text-anchor="start" x="288" y="-116" font-family="Helvetica,sans-Serif" font-size="10.00">engine.gameRepresentation.evaluatables.actions.</text>
<text text-anchor="middle" x="408" y="-105" font-family="Helvetica,sans-Serif" font-size="10.00">MotherOfAllActions.evaluate</text>
</a>
</g>
</g>
<!-- Node1&#45;&gt;Node4 -->
<g id="edge3" class="edge"><title>Node1&#45;&gt;Node4</title>
<path fill="none" stroke="midnightblue" d="M228.498,-113C245.382,-113 262.805,-113 279.845,-113"/>
<polygon fill="midnightblue" stroke="midnightblue" points="228.064,-109.5 218.064,-113 228.064,-116.5 228.064,-109.5"/>
</g>
<!-- Node5 -->
<g id="node5" class="node"><title>Node5</title>
<g id="a_node5"><a xlink:href="../../d7/df2/classengine_1_1game_representation_1_1evaluatables_1_1actions_1_1_decrement_increment_attribute_action.html#a2510a6f161e229de02e546ea79a62386" target="_top" xlink:title="engine.gameRepresentation.evaluatables.actions.\lDecrementIncrementAttributeAction.evaluate">
<polygon fill="white" stroke="black" points="280,-49 280,-79 536,-79 536,-49 280,-49"/>
<text text-anchor="start" x="288" y="-67" font-family="Helvetica,sans-Serif" font-size="10.00">engine.gameRepresentation.evaluatables.actions.</text>
<text text-anchor="middle" x="408" y="-56" font-family="Helvetica,sans-Serif" font-size="10.00">DecrementIncrementAttributeAction.evaluate</text>
</a>
</g>
</g>
<!-- Node1&#45;&gt;Node5 -->
<g id="edge4" class="edge"><title>Node1&#45;&gt;Node5</title>
<path fill="none" stroke="midnightblue" d="M210.02,-96.2877C224.767,-93.836 239.777,-91.3472 254,-89 273.651,-85.7569 294.726,-82.2998 314.759,-79.0234"/>
<polygon fill="midnightblue" stroke="midnightblue" points="209.157,-92.8833 199.866,-97.9769 210.305,-99.7884 209.157,-92.8833"/>
</g>
<!-- Node6 -->
<g id="node6" class="node"><title>Node6</title>
<g id="a_node6"><a xlink:href="../../d1/d7e/classengine_1_1game_representation_1_1evaluatables_1_1parameters_1_1object_identifiers_1_1_actor_object_identifier.html#adafeeda17494a0f1b0c3ba61210e4b16" target="_top" xlink:title="engine.gameRepresentation.evaluatables.parameters.object\lIdentifiers.ActorObjectIdentifier.getElementOfInterest">
<polygon fill="white" stroke="black" points="254.5,-0 254.5,-30 561.5,-30 561.5,-0 254.5,-0"/>
<text text-anchor="start" x="262.5" y="-18" font-family="Helvetica,sans-Serif" font-size="10.00">engine.gameRepresentation.evaluatables.parameters.object</text>
<text text-anchor="middle" x="408" y="-7" font-family="Helvetica,sans-Serif" font-size="10.00">Identifiers.ActorObjectIdentifier.getElementOfInterest</text>
</a>
</g>
</g>
<!-- Node1&#45;&gt;Node6 -->
<g id="edge5" class="edge"><title>Node1&#45;&gt;Node6</title>
<path fill="none" stroke="midnightblue" d="M142.672,-92.7591C171.071,-76.0792 213.849,-53.109 254,-40 265.897,-36.1157 278.521,-32.8176 291.213,-30.021"/>
<polygon fill="midnightblue" stroke="midnightblue" points="140.781,-89.8112 133.978,-97.9331 144.361,-95.8265 140.781,-89.8112"/>
</g>
</g>
</svg>
