<?xml version="1.0" encoding="UTF-8" standalone="no"?>
<!DOCTYPE svg PUBLIC "-//W3C//DTD SVG 1.1//EN"
 "http://www.w3.org/Graphics/SVG/1.1/DTD/svg11.dtd">
<!-- Generated by graphviz version 2.36.0 (20140111.2315)
 -->
<!-- Title: game_engine.visuals.LayeredAnimationPlayer.LayeredAnimationPlayer Pages: 1 -->
<svg width="418pt" height="136pt"
 viewBox="0.00 0.00 418.00 136.00" xmlns="http://www.w3.org/2000/svg" xmlns:xlink="http://www.w3.org/1999/xlink">
<g id="graph0" class="graph" transform="scale(1 1) rotate(0) translate(4 132)">
<title>game_engine.visuals.LayeredAnimationPlayer.LayeredAnimationPlayer</title>
<polygon fill="white" stroke="none" points="-4,4 -4,-132 414,-132 414,4 -4,4"/>
<!-- Node1 -->
<g id="node1" class="node"><title>Node1</title>
<polygon fill="#bfbfbf" stroke="black" points="0,-43.5 0,-84.5 184,-84.5 184,-43.5 0,-43.5"/>
<text text-anchor="start" x="8" y="-72.5" font-family="Helvetica,sans-Serif" font-size="10.00">game_engine.visuals.Layered</text>
<text text-anchor="start" x="8" y="-61.5" font-family="Helvetica,sans-Serif" font-size="10.00">AnimationPlayer.LayeredAnimation</text>
<text text-anchor="middle" x="92" y="-50.5" font-family="Helvetica,sans-Serif" font-size="10.00">Player</text>
</g>
<!-- Node2 -->
<g id="node2" class="node"><title>Node2</title>
<g id="a_node2"><a xlink:href="../../de/d86/classgame__engine_1_1visuals_1_1_dimension.html#a4d803b0b96a4432a77516cf17c413617" target="_top" xlink:title="game_engine.visuals.Dimension.get\lHeight">
<polygon fill="white" stroke="black" points="220,-98 220,-128 410,-128 410,-98 220,-98"/>
<text text-anchor="start" x="228" y="-116" font-family="Helvetica,sans-Serif" font-size="10.00">game_engine.visuals.Dimension.get</text>
<text text-anchor="middle" x="315" y="-105" font-family="Helvetica,sans-Serif" font-size="10.00">Height</text>
</a>
</g>
</g>
<!-- Node1&#45;&gt;Node2 -->
<g id="edge1" class="edge"><title>Node1&#45;&gt;Node2</title>
<path fill="none" stroke="midnightblue" d="M184.165,-84.2131C201.559,-88.0696 219.612,-92.0724 236.529,-95.8231"/>
<polygon fill="midnightblue" stroke="midnightblue" points="235.823,-99.2516 246.344,-97.9993 237.338,-92.4176 235.823,-99.2516"/>
</g>
<!-- Node3 -->
<g id="node3" class="node"><title>Node3</title>
<g id="a_node3"><a xlink:href="../../d2/d97/classgame__engine_1_1visuals_1_1_layered_animation_player.html#a267eeddfd8c9533d64a42cb5cd3278fc" target="_top" xlink:title="game_engine.visuals.Layered\lAnimationPlayer.getImageBounds">
<polygon fill="white" stroke="black" points="225.5,-49 225.5,-79 404.5,-79 404.5,-49 225.5,-49"/>
<text text-anchor="start" x="233.5" y="-67" font-family="Helvetica,sans-Serif" font-size="10.00">game_engine.visuals.Layered</text>
<text text-anchor="middle" x="315" y="-56" font-family="Helvetica,sans-Serif" font-size="10.00">AnimationPlayer.getImageBounds</text>
</a>
</g>
</g>
<!-- Node1&#45;&gt;Node3 -->
<g id="edge2" class="edge"><title>Node1&#45;&gt;Node3</title>
<path fill="none" stroke="midnightblue" d="M184.165,-64C194.331,-64 204.722,-64 214.98,-64"/>
<polygon fill="midnightblue" stroke="midnightblue" points="215.181,-67.5001 225.18,-64 215.18,-60.5001 215.181,-67.5001"/>
</g>
<!-- Node4 -->
<g id="node4" class="node"><title>Node4</title>
<g id="a_node4"><a xlink:href="../../de/d86/classgame__engine_1_1visuals_1_1_dimension.html#a30a627da15298901fc10675636958c8e" target="_top" xlink:title="game_engine.visuals.Dimension.get\lWidth">
<polygon fill="white" stroke="black" points="220,-0 220,-30 410,-30 410,-0 220,-0"/>
<text text-anchor="start" x="228" y="-18" font-family="Helvetica,sans-Serif" font-size="10.00">game_engine.visuals.Dimension.get</text>
<text text-anchor="middle" x="315" y="-7" font-family="Helvetica,sans-Serif" font-size="10.00">Width</text>
</a>
</g>
</g>
<!-- Node1&#45;&gt;Node4 -->
<g id="edge3" class="edge"><title>Node1&#45;&gt;Node4</title>
<path fill="none" stroke="midnightblue" d="M184.165,-43.7869C201.559,-39.9304 219.612,-35.9276 236.529,-32.1769"/>
<polygon fill="midnightblue" stroke="midnightblue" points="237.338,-35.5824 246.344,-30.0007 235.823,-28.7484 237.338,-35.5824"/>
</g>
</g>
</svg>
