<?xml version="1.0" encoding="UTF-8" standalone="no"?>
<!DOCTYPE svg PUBLIC "-//W3C//DTD SVG 1.1//EN"
 "http://www.w3.org/Graphics/SVG/1.1/DTD/svg11.dtd">
<!-- Generated by graphviz version 2.36.0 (20140111.2315)
 -->
<!-- Title: engine.gameRepresentation.renderedRepresentation.Level.getGrid Pages: 1 -->
<svg width="908pt" height="38pt"
 viewBox="0.00 0.00 908.00 38.00" xmlns="http://www.w3.org/2000/svg" xmlns:xlink="http://www.w3.org/1999/xlink">
<g id="graph0" class="graph" transform="scale(1 1) rotate(0) translate(4 34)">
<title>engine.gameRepresentation.renderedRepresentation.Level.getGrid</title>
<polygon fill="white" stroke="none" points="-4,4 -4,-34 904,-34 904,4 -4,4"/>
<!-- Node1 -->
<g id="node1" class="node"><title>Node1</title>
<polygon fill="#bfbfbf" stroke="black" points="0,-0 0,-30 198,-30 198,-0 0,-0"/>
<text text-anchor="start" x="8" y="-18" font-family="Helvetica,sans-Serif" font-size="10.00">engine.gameRepresentation.rendered</text>
<text text-anchor="middle" x="99" y="-7" font-family="Helvetica,sans-Serif" font-size="10.00">Representation.Level.getGrid</text>
</g>
<!-- Node2 -->
<g id="node2" class="node"><title>Node2</title>
<g id="a_node2"><a xlink:href="../../dd/dd8/classengine_1_1state_managing_1_1_game_element_manager.html#a056cc907590b732eaeec8eedb00837d3" target="_top" xlink:title="engine.stateManaging.Game\lElementManager.setLevel">
<polygon fill="white" stroke="black" points="234.5,-0 234.5,-30 389.5,-30 389.5,-0 234.5,-0"/>
<text text-anchor="start" x="242.5" y="-18" font-family="Helvetica,sans-Serif" font-size="10.00">engine.stateManaging.Game</text>
<text text-anchor="middle" x="312" y="-7" font-family="Helvetica,sans-Serif" font-size="10.00">ElementManager.setLevel</text>
</a>
</g>
</g>
<!-- Node1&#45;&gt;Node2 -->
<g id="edge1" class="edge"><title>Node1&#45;&gt;Node2</title>
<path fill="none" stroke="midnightblue" d="M208.365,-15C217.122,-15 225.853,-15 234.316,-15"/>
<polygon fill="midnightblue" stroke="midnightblue" points="208.087,-11.5001 198.087,-15 208.087,-18.5001 208.087,-11.5001"/>
</g>
<!-- Node3 -->
<g id="node3" class="node"><title>Node3</title>
<g id="a_node3"><a xlink:href="../../dc/de2/classengine_1_1_engine.html#a7a3f6d4d4586f3bc336cacbb58037eeb" target="_top" xlink:title="engine.Engine.createLevel">
<polygon fill="white" stroke="black" points="426.5,-5.5 426.5,-24.5 569.5,-24.5 569.5,-5.5 426.5,-5.5"/>
<text text-anchor="middle" x="498" y="-12.5" font-family="Helvetica,sans-Serif" font-size="10.00">engine.Engine.createLevel</text>
</a>
</g>
</g>
<!-- Node2&#45;&gt;Node3 -->
<g id="edge2" class="edge"><title>Node2&#45;&gt;Node3</title>
<path fill="none" stroke="midnightblue" d="M399.714,-15C408.623,-15 417.6,-15 426.306,-15"/>
<polygon fill="midnightblue" stroke="midnightblue" points="399.7,-11.5001 389.7,-15 399.7,-18.5001 399.7,-11.5001"/>
</g>
<!-- Node4 -->
<g id="node4" class="node"><title>Node4</title>
<g id="a_node4"><a xlink:href="../../dc/de2/classengine_1_1_engine.html#af201d1d894a31f20aa1e05f674d4584b" target="_top" xlink:title="engine.Engine.instantiate\lManagers">
<polygon fill="white" stroke="black" points="606,-0 606,-30 744,-30 744,-0 606,-0"/>
<text text-anchor="start" x="614" y="-18" font-family="Helvetica,sans-Serif" font-size="10.00">engine.Engine.instantiate</text>
<text text-anchor="middle" x="675" y="-7" font-family="Helvetica,sans-Serif" font-size="10.00">Managers</text>
</a>
</g>
</g>
<!-- Node3&#45;&gt;Node4 -->
<g id="edge3" class="edge"><title>Node3&#45;&gt;Node4</title>
<path fill="none" stroke="midnightblue" d="M579.842,-15C588.556,-15 597.358,-15 605.9,-15"/>
<polygon fill="midnightblue" stroke="midnightblue" points="579.675,-11.5001 569.675,-15 579.675,-18.5001 579.675,-11.5001"/>
</g>
<!-- Node5 -->
<g id="node5" class="node"><title>Node5</title>
<g id="a_node5"><a xlink:href="../../dc/de2/classengine_1_1_engine.html#a707225a32896b370f131105ef1c644e2" target="_top" xlink:title="engine.Engine.Engine">
<polygon fill="white" stroke="black" points="780.5,-5.5 780.5,-24.5 899.5,-24.5 899.5,-5.5 780.5,-5.5"/>
<text text-anchor="middle" x="840" y="-12.5" font-family="Helvetica,sans-Serif" font-size="10.00">engine.Engine.Engine</text>
</a>
</g>
</g>
<!-- Node4&#45;&gt;Node5 -->
<g id="edge4" class="edge"><title>Node4&#45;&gt;Node5</title>
<path fill="none" stroke="midnightblue" d="M754.41,-15C763.163,-15 771.962,-15 780.405,-15"/>
<polygon fill="midnightblue" stroke="midnightblue" points="754.182,-11.5001 744.182,-15 754.182,-18.5001 754.182,-11.5001"/>
</g>
</g>
</svg>
