<?xml version="1.0" encoding="UTF-8" standalone="no"?>
<!DOCTYPE svg PUBLIC "-//W3C//DTD SVG 1.1//EN"
 "http://www.w3.org/Graphics/SVG/1.1/DTD/svg11.dtd">
<!-- Generated by graphviz version 2.36.0 (20140111.2315)
 -->
<!-- Title: engine.gameRepresentation.renderedRepresentation.Level.addElement Pages: 1 -->
<svg width="924pt" height="324pt"
 viewBox="0.00 0.00 924.00 324.00" xmlns="http://www.w3.org/2000/svg" xmlns:xlink="http://www.w3.org/1999/xlink">
<g id="graph0" class="graph" transform="scale(1 1) rotate(0) translate(4 320)">
<title>engine.gameRepresentation.renderedRepresentation.Level.addElement</title>
<polygon fill="white" stroke="none" points="-4,4 -4,-320 920,-320 920,4 -4,4"/>
<!-- Node1 -->
<g id="node1" class="node"><title>Node1</title>
<polygon fill="#bfbfbf" stroke="black" points="0,-171 0,-201 198,-201 198,-171 0,-171"/>
<text text-anchor="start" x="8" y="-189" font-family="Helvetica,sans-Serif" font-size="10.00">engine.gameRepresentation.rendered</text>
<text text-anchor="middle" x="99" y="-178" font-family="Helvetica,sans-Serif" font-size="10.00">Representation.Level.addElement</text>
</g>
<!-- Node2 -->
<g id="node2" class="node"><title>Node2</title>
<g id="a_node2"><a xlink:href="../../d2/de7/classmodel_1_1state_1_1_level_state.html#ae1bef388c57fd60107e68c71b5528a5f" target="_top" xlink:title="model.state.LevelState.addUnit">
<polygon fill="white" stroke="black" points="279.5,-296.5 279.5,-315.5 448.5,-315.5 448.5,-296.5 279.5,-296.5"/>
<text text-anchor="middle" x="364" y="-303.5" font-family="Helvetica,sans-Serif" font-size="10.00">model.state.LevelState.addUnit</text>
</a>
</g>
</g>
<!-- Node1&#45;&gt;Node2 -->
<g id="edge1" class="edge"><title>Node1&#45;&gt;Node2</title>
<path fill="none" stroke="midnightblue" d="M114.906,-201.11C138.11,-223.634 185.288,-265.55 234,-286 245.212,-290.707 257.392,-294.319 269.64,-297.089"/>
<polygon fill="midnightblue" stroke="midnightblue" points="268.957,-300.522 279.46,-299.135 270.384,-293.669 268.957,-300.522"/>
</g>
<!-- Node3 -->
<g id="node3" class="node"><title>Node3</title>
<g id="a_node3"><a xlink:href="../../d8/d2f/classengine_1_1game_representation_1_1rendered_representation_1_1_drawable_game_element.html#af628d35e0c4ffc7eb103f5b04694fcc1" target="_top" xlink:title="engine.gameRepresentation.rendered\lRepresentation.DrawableGameElement.getBounds">
<polygon fill="white" stroke="black" points="234,-247 234,-277 494,-277 494,-247 234,-247"/>
<text text-anchor="start" x="242" y="-265" font-family="Helvetica,sans-Serif" font-size="10.00">engine.gameRepresentation.rendered</text>
<text text-anchor="middle" x="364" y="-254" font-family="Helvetica,sans-Serif" font-size="10.00">Representation.DrawableGameElement.getBounds</text>
</a>
</g>
</g>
<!-- Node1&#45;&gt;Node3 -->
<g id="edge2" class="edge"><title>Node1&#45;&gt;Node3</title>
<path fill="none" stroke="midnightblue" d="M134.708,-201.104C161.438,-212.27 199.527,-227.179 234,-237 243.892,-239.818 254.302,-242.419 264.74,-244.792"/>
<polygon fill="midnightblue" stroke="midnightblue" points="264.221,-248.262 274.74,-246.997 265.728,-241.426 264.221,-248.262"/>
</g>
<!-- Node5 -->
<g id="node5" class="node"><title>Node5</title>
<g id="a_node5"><a xlink:href="../../d8/d2f/classengine_1_1game_representation_1_1rendered_representation_1_1_drawable_game_element.html#acf33d4d5a42cecd5f88230b73a644268" target="_top" xlink:title="engine.gameRepresentation.rendered\lRepresentation.DrawableGameElement.getNode">
<polygon fill="white" stroke="black" points="239.5,-198 239.5,-228 488.5,-228 488.5,-198 239.5,-198"/>
<text text-anchor="start" x="247.5" y="-216" font-family="Helvetica,sans-Serif" font-size="10.00">engine.gameRepresentation.rendered</text>
<text text-anchor="middle" x="364" y="-205" font-family="Helvetica,sans-Serif" font-size="10.00">Representation.DrawableGameElement.getNode</text>
</a>
</g>
</g>
<!-- Node1&#45;&gt;Node5 -->
<g id="edge4" class="edge"><title>Node1&#45;&gt;Node5</title>
<path fill="none" stroke="midnightblue" d="M198.305,-196.092C208.478,-197.136 218.933,-198.21 229.406,-199.285"/>
<polygon fill="midnightblue" stroke="midnightblue" points="229.139,-202.776 239.445,-200.316 229.854,-195.813 229.139,-202.776"/>
</g>
<!-- Node7 -->
<g id="node7" class="node"><title>Node7</title>
<g id="a_node7"><a xlink:href="../../d4/de2/classengine_1_1game_representation_1_1rendered_representation_1_1_game_element.html#a0e5df2ee82fed90f049282832babf477" target="_top" xlink:title="engine.gameRepresentation.rendered\lRepresentation.GameElement.getNumerical\lAttribute">
<polygon fill="white" stroke="black" points="250,-138.5 250,-179.5 478,-179.5 478,-138.5 250,-138.5"/>
<text text-anchor="start" x="258" y="-167.5" font-family="Helvetica,sans-Serif" font-size="10.00">engine.gameRepresentation.rendered</text>
<text text-anchor="start" x="258" y="-156.5" font-family="Helvetica,sans-Serif" font-size="10.00">Representation.GameElement.getNumerical</text>
<text text-anchor="middle" x="364" y="-145.5" font-family="Helvetica,sans-Serif" font-size="10.00">Attribute</text>
</a>
</g>
</g>
<!-- Node1&#45;&gt;Node7 -->
<g id="edge6" class="edge"><title>Node1&#45;&gt;Node7</title>
<path fill="none" stroke="midnightblue" d="M198.305,-175.908C211.807,-174.522 225.808,-173.084 239.687,-171.659"/>
<polygon fill="midnightblue" stroke="midnightblue" points="240.172,-175.128 249.763,-170.625 239.458,-168.165 240.172,-175.128"/>
</g>
<!-- Node10 -->
<g id="node10" class="node"><title>Node10</title>
<g id="a_node10"><a xlink:href="../../d4/d68/classengine_1_1game_representation_1_1rendered_representation_1_1_selectable_game_element.html#ab89aff915c3c633f7df1991d5fcca0e4" target="_top" xlink:title="engine.gameRepresentation.rendered\lRepresentation.SelectableGameElement.register\lAsSelectableChild">
<polygon fill="white" stroke="black" points="238.5,-78.5 238.5,-119.5 489.5,-119.5 489.5,-78.5 238.5,-78.5"/>
<text text-anchor="start" x="246.5" y="-107.5" font-family="Helvetica,sans-Serif" font-size="10.00">engine.gameRepresentation.rendered</text>
<text text-anchor="start" x="246.5" y="-96.5" font-family="Helvetica,sans-Serif" font-size="10.00">Representation.SelectableGameElement.register</text>
<text text-anchor="middle" x="364" y="-85.5" font-family="Helvetica,sans-Serif" font-size="10.00">AsSelectableChild</text>
</a>
</g>
</g>
<!-- Node1&#45;&gt;Node10 -->
<g id="edge9" class="edge"><title>Node1&#45;&gt;Node10</title>
<path fill="none" stroke="midnightblue" d="M131.086,-170.95C157.874,-158.426 197.828,-140.8 234,-129 241.301,-126.618 248.892,-124.347 256.574,-122.199"/>
<polygon fill="midnightblue" stroke="midnightblue" points="257.607,-125.545 266.338,-119.544 255.77,-118.791 257.607,-125.545"/>
</g>
<!-- Node11 -->
<g id="node11" class="node"><title>Node11</title>
<g id="a_node11"><a xlink:href="../../d5/d97/classengine_1_1computers_1_1pathing_computers_1_1_map_grid.html#a2b43b6338e07c3ebb172bbceb5143651" target="_top" xlink:title="engine.computers.pathing\lComputers.MapGrid.registerObstacle\lPlacement">
<polygon fill="white" stroke="black" points="267,-18.5 267,-59.5 461,-59.5 461,-18.5 267,-18.5"/>
<text text-anchor="start" x="275" y="-47.5" font-family="Helvetica,sans-Serif" font-size="10.00">engine.computers.pathing</text>
<text text-anchor="start" x="275" y="-36.5" font-family="Helvetica,sans-Serif" font-size="10.00">Computers.MapGrid.registerObstacle</text>
<text text-anchor="middle" x="364" y="-25.5" font-family="Helvetica,sans-Serif" font-size="10.00">Placement</text>
</a>
</g>
</g>
<!-- Node1&#45;&gt;Node11 -->
<g id="edge10" class="edge"><title>Node1&#45;&gt;Node11</title>
<path fill="none" stroke="midnightblue" d="M112.753,-170.818C134.787,-145.616 182.592,-95.3166 234,-69 241.356,-65.2346 249.188,-61.9352 257.219,-59.0451"/>
<polygon fill="midnightblue" stroke="midnightblue" points="258.365,-62.3521 266.72,-55.8371 256.126,-55.7199 258.365,-62.3521"/>
</g>
<!-- Node4 -->
<g id="node4" class="node"><title>Node4</title>
<g id="a_node4"><a xlink:href="../../dd/ded/classmodel_1_1state_1_1gameelement_1_1_drawable_game_element_state.html#a4a377c1077a61314a824494efe4cc7a7" target="_top" xlink:title="model.state.gameelement.\lDrawableGameElementState.get\lBounds">
<polygon fill="white" stroke="black" points="534.5,-246.5 534.5,-287.5 709.5,-287.5 709.5,-246.5 534.5,-246.5"/>
<text text-anchor="start" x="542.5" y="-275.5" font-family="Helvetica,sans-Serif" font-size="10.00">model.state.gameelement.</text>
<text text-anchor="start" x="542.5" y="-264.5" font-family="Helvetica,sans-Serif" font-size="10.00">DrawableGameElementState.get</text>
<text text-anchor="middle" x="622" y="-253.5" font-family="Helvetica,sans-Serif" font-size="10.00">Bounds</text>
</a>
</g>
</g>
<!-- Node3&#45;&gt;Node4 -->
<g id="edge3" class="edge"><title>Node3&#45;&gt;Node4</title>
<path fill="none" stroke="midnightblue" d="M494.125,-264.522C504.27,-264.72 514.405,-264.918 524.277,-265.111"/>
<polygon fill="midnightblue" stroke="midnightblue" points="524.391,-268.614 534.457,-265.31 524.527,-261.615 524.391,-268.614"/>
</g>
<!-- Node6 -->
<g id="node6" class="node"><title>Node6</title>
<g id="a_node6"><a xlink:href="../../d1/d3d/classengine_1_1visuals_1_1element_visuals_1_1_visualizer.html#ad3584be6f6368589ed27e26357d8ddf8" target="_top" xlink:title="engine.visuals.elementVisuals.\lVisualizer.getNode">
<polygon fill="white" stroke="black" points="540,-198 540,-228 704,-228 704,-198 540,-198"/>
<text text-anchor="start" x="548" y="-216" font-family="Helvetica,sans-Serif" font-size="10.00">engine.visuals.elementVisuals.</text>
<text text-anchor="middle" x="622" y="-205" font-family="Helvetica,sans-Serif" font-size="10.00">Visualizer.getNode</text>
</a>
</g>
</g>
<!-- Node5&#45;&gt;Node6 -->
<g id="edge5" class="edge"><title>Node5&#45;&gt;Node6</title>
<path fill="none" stroke="midnightblue" d="M488.501,-213C502.358,-213 516.285,-213 529.632,-213"/>
<polygon fill="midnightblue" stroke="midnightblue" points="529.714,-216.5 539.714,-213 529.714,-209.5 529.714,-216.5"/>
</g>
<!-- Node8 -->
<g id="node8" class="node"><title>Node8</title>
<g id="a_node8"><a xlink:href="../../da/dc5/classmodel_1_1state_1_1gameelement_1_1_attribute_container.html#a5f0e6026d1877c9e4f04fe389163970c" target="_top" xlink:title="model.state.gameelement.\lAttributeContainer.getNumerical\lAttribute">
<polygon fill="white" stroke="black" points="536,-138.5 536,-179.5 708,-179.5 708,-138.5 536,-138.5"/>
<text text-anchor="start" x="544" y="-167.5" font-family="Helvetica,sans-Serif" font-size="10.00">model.state.gameelement.</text>
<text text-anchor="start" x="544" y="-156.5" font-family="Helvetica,sans-Serif" font-size="10.00">AttributeContainer.getNumerical</text>
<text text-anchor="middle" x="622" y="-145.5" font-family="Helvetica,sans-Serif" font-size="10.00">Attribute</text>
</a>
</g>
</g>
<!-- Node7&#45;&gt;Node8 -->
<g id="edge7" class="edge"><title>Node7&#45;&gt;Node8</title>
<path fill="none" stroke="midnightblue" d="M478.031,-159C493.962,-159 510.208,-159 525.762,-159"/>
<polygon fill="midnightblue" stroke="midnightblue" points="525.872,-162.5 535.872,-159 525.872,-155.5 525.872,-162.5"/>
</g>
<!-- Node9 -->
<g id="node9" class="node"><title>Node9</title>
<g id="a_node9"><a xlink:href="../../da/dc5/classmodel_1_1state_1_1gameelement_1_1_attribute_container.html#a59a08ce23cf989feca0a78b2642364d4" target="_top" xlink:title="model.state.gameelement.\lAttributeContainer.getAttribute">
<polygon fill="white" stroke="black" points="750.5,-144 750.5,-174 915.5,-174 915.5,-144 750.5,-144"/>
<text text-anchor="start" x="758.5" y="-162" font-family="Helvetica,sans-Serif" font-size="10.00">model.state.gameelement.</text>
<text text-anchor="middle" x="833" y="-151" font-family="Helvetica,sans-Serif" font-size="10.00">AttributeContainer.getAttribute</text>
</a>
</g>
</g>
<!-- Node8&#45;&gt;Node9 -->
<g id="edge8" class="edge"><title>Node8&#45;&gt;Node9</title>
<path fill="none" stroke="midnightblue" d="M708.008,-159C718.628,-159 729.526,-159 740.243,-159"/>
<polygon fill="midnightblue" stroke="midnightblue" points="740.447,-162.5 750.447,-159 740.447,-155.5 740.447,-162.5"/>
</g>
<!-- Node12 -->
<g id="node12" class="node"><title>Node12</title>
<g id="a_node12"><a xlink:href="../../d5/d97/classengine_1_1computers_1_1pathing_computers_1_1_map_grid.html#a0d21a23c6051e0958892bae655eb9dca" target="_top" xlink:title="engine.computers.pathing\lComputers.MapGrid.alterLocations\lInsideBounds">
<polygon fill="white" stroke="black" points="530.5,-18.5 530.5,-59.5 713.5,-59.5 713.5,-18.5 530.5,-18.5"/>
<text text-anchor="start" x="538.5" y="-47.5" font-family="Helvetica,sans-Serif" font-size="10.00">engine.computers.pathing</text>
<text text-anchor="start" x="538.5" y="-36.5" font-family="Helvetica,sans-Serif" font-size="10.00">Computers.MapGrid.alterLocations</text>
<text text-anchor="middle" x="622" y="-25.5" font-family="Helvetica,sans-Serif" font-size="10.00">InsideBounds</text>
</a>
</g>
</g>
<!-- Node11&#45;&gt;Node12 -->
<g id="edge11" class="edge"><title>Node11&#45;&gt;Node12</title>
<path fill="none" stroke="midnightblue" d="M461.053,-39C480.384,-39 500.753,-39 520.239,-39"/>
<polygon fill="midnightblue" stroke="midnightblue" points="520.339,-42.5001 530.339,-39 520.339,-35.5001 520.339,-42.5001"/>
</g>
<!-- Node13 -->
<g id="node13" class="node"><title>Node13</title>
<g id="a_node13"><a xlink:href="../../d1/d19/classengine_1_1computers_1_1pathing_computers_1_1_location.html#a6b17f88aada14c904238ef52e51cf5e9" target="_top" xlink:title="engine.computers.pathing\lComputers.Location.getX">
<polygon fill="white" stroke="black" points="761.5,-49 761.5,-79 904.5,-79 904.5,-49 761.5,-49"/>
<text text-anchor="start" x="769.5" y="-67" font-family="Helvetica,sans-Serif" font-size="10.00">engine.computers.pathing</text>
<text text-anchor="middle" x="833" y="-56" font-family="Helvetica,sans-Serif" font-size="10.00">Computers.Location.getX</text>
</a>
</g>
</g>
<!-- Node12&#45;&gt;Node13 -->
<g id="edge12" class="edge"><title>Node12&#45;&gt;Node13</title>
<path fill="none" stroke="midnightblue" d="M713.759,-49.8563C726.238,-51.349 738.983,-52.8736 751.266,-54.3428"/>
<polygon fill="midnightblue" stroke="midnightblue" points="751.114,-57.8495 761.459,-55.5621 751.945,-50.8991 751.114,-57.8495"/>
</g>
<!-- Node14 -->
<g id="node14" class="node"><title>Node14</title>
<g id="a_node14"><a xlink:href="../../d1/d19/classengine_1_1computers_1_1pathing_computers_1_1_location.html#ac4dc59386dde16b5784bfdaa27dbcbf4" target="_top" xlink:title="engine.computers.pathing\lComputers.Location.getY">
<polygon fill="white" stroke="black" points="761.5,-0 761.5,-30 904.5,-30 904.5,-0 761.5,-0"/>
<text text-anchor="start" x="769.5" y="-18" font-family="Helvetica,sans-Serif" font-size="10.00">engine.computers.pathing</text>
<text text-anchor="middle" x="833" y="-7" font-family="Helvetica,sans-Serif" font-size="10.00">Computers.Location.getY</text>
</a>
</g>
</g>
<!-- Node12&#45;&gt;Node14 -->
<g id="edge13" class="edge"><title>Node12&#45;&gt;Node14</title>
<path fill="none" stroke="midnightblue" d="M713.759,-28.578C726.238,-27.1449 738.983,-25.6813 751.266,-24.2709"/>
<polygon fill="midnightblue" stroke="midnightblue" points="751.924,-27.7185 761.459,-23.1004 751.125,-20.7642 751.924,-27.7185"/>
</g>
</g>
</svg>
