<?xml version="1.0" encoding="UTF-8" standalone="no"?>
<!DOCTYPE svg PUBLIC "-//W3C//DTD SVG 1.1//EN"
 "http://www.w3.org/Graphics/SVG/1.1/DTD/svg11.dtd">
<!-- Generated by graphviz version 2.36.0 (20140111.2315)
 -->
<!-- Title: engine.gameRepresentation.renderedRepresentation.Level.addElement Pages: 1 -->
<svg width="442pt" height="87pt"
 viewBox="0.00 0.00 442.00 87.00" xmlns="http://www.w3.org/2000/svg" xmlns:xlink="http://www.w3.org/1999/xlink">
<g id="graph0" class="graph" transform="scale(1 1) rotate(0) translate(4 83)">
<title>engine.gameRepresentation.renderedRepresentation.Level.addElement</title>
<polygon fill="white" stroke="none" points="-4,4 -4,-83 438,-83 438,4 -4,4"/>
<!-- Node1 -->
<g id="node1" class="node"><title>Node1</title>
<polygon fill="#bfbfbf" stroke="black" points="0,-29 0,-59 198,-59 198,-29 0,-29"/>
<text text-anchor="start" x="8" y="-47" font-family="Helvetica,sans-Serif" font-size="10.00">engine.gameRepresentation.rendered</text>
<text text-anchor="middle" x="99" y="-36" font-family="Helvetica,sans-Serif" font-size="10.00">Representation.Level.addElement</text>
</g>
<!-- Node2 -->
<g id="node2" class="node"><title>Node2</title>
<g id="a_node2"><a xlink:href="../../d2/de7/classmodel_1_1state_1_1_level_state.html#a7e393da870d4eeaa9a00c0eadf82279f" target="_top" xlink:title="model.state.LevelState.addGoal">
<polygon fill="white" stroke="black" points="248.5,-59.5 248.5,-78.5 419.5,-78.5 419.5,-59.5 248.5,-59.5"/>
<text text-anchor="middle" x="334" y="-66.5" font-family="Helvetica,sans-Serif" font-size="10.00">model.state.LevelState.addGoal</text>
</a>
</g>
</g>
<!-- Node1&#45;&gt;Node2 -->
<g id="edge1" class="edge"><title>Node1&#45;&gt;Node2</title>
<path fill="none" stroke="midnightblue" d="M198.138,-54.5298C211.418,-55.9547 225.025,-57.4147 238.245,-58.8331"/>
<polygon fill="midnightblue" stroke="midnightblue" points="237.95,-62.3215 248.266,-59.9084 238.697,-55.3615 237.95,-62.3215"/>
</g>
<!-- Node3 -->
<g id="node3" class="node"><title>Node3</title>
<g id="a_node3"><a xlink:href="../../d4/de2/classengine_1_1game_representation_1_1rendered_representation_1_1_game_element.html#ad35ba4ef33132a56c60cb3864163d810" target="_top" xlink:title="engine.gameRepresentation.rendered\lRepresentation.GameElement.register\lAsChild">
<polygon fill="white" stroke="black" points="234,0.5 234,-40.5 434,-40.5 434,0.5 234,0.5"/>
<text text-anchor="start" x="242" y="-28.5" font-family="Helvetica,sans-Serif" font-size="10.00">engine.gameRepresentation.rendered</text>
<text text-anchor="start" x="242" y="-17.5" font-family="Helvetica,sans-Serif" font-size="10.00">Representation.GameElement.register</text>
<text text-anchor="middle" x="334" y="-6.5" font-family="Helvetica,sans-Serif" font-size="10.00">AsChild</text>
</a>
</g>
</g>
<!-- Node1&#45;&gt;Node3 -->
<g id="edge2" class="edge"><title>Node1&#45;&gt;Node3</title>
<path fill="none" stroke="midnightblue" d="M198.138,-33.8914C206.63,-33.0167 215.255,-32.1282 223.828,-31.2452"/>
<polygon fill="midnightblue" stroke="midnightblue" points="224.267,-34.7186 233.856,-30.2123 223.55,-27.7554 224.267,-34.7186"/>
</g>
</g>
</svg>
