<?xml version="1.0" encoding="UTF-8" standalone="no"?>
<!DOCTYPE svg PUBLIC "-//W3C//DTD SVG 1.1//EN"
 "http://www.w3.org/Graphics/SVG/1.1/DTD/svg11.dtd">
<!-- Generated by graphviz version 2.36.0 (20140111.2315)
 -->
<!-- Title: engine.gameRepresentation.evaluatables.actions.ObjectTypeCheckAction.initializeAction Pages: 1 -->
<svg width="790pt" height="101pt"
 viewBox="0.00 0.00 790.00 101.00" xmlns="http://www.w3.org/2000/svg" xmlns:xlink="http://www.w3.org/1999/xlink">
<g id="graph0" class="graph" transform="scale(1 1) rotate(0) translate(4 97)">
<title>engine.gameRepresentation.evaluatables.actions.ObjectTypeCheckAction.initializeAction</title>
<polygon fill="white" stroke="none" points="-4,4 -4,-97 786,-97 786,4 -4,4"/>
<!-- Node1 -->
<g id="node1" class="node"><title>Node1</title>
<polygon fill="#bfbfbf" stroke="black" points="0,-24 0,-54 256,-54 256,-24 0,-24"/>
<text text-anchor="start" x="8" y="-42" font-family="Helvetica,sans-Serif" font-size="10.00">engine.gameRepresentation.evaluatables.actions.</text>
<text text-anchor="middle" x="128" y="-31" font-family="Helvetica,sans-Serif" font-size="10.00">ObjectTypeCheckAction.initializeAction</text>
</g>
<!-- Node2 -->
<g id="node2" class="node"><title>Node2</title>
<g id="a_node2"><a xlink:href="../../d5/dee/classengine_1_1game_representation_1_1evaluatables_1_1actions_1_1_action.html#a71ecd5fff5af935d618db86d47785e2e" target="_top" xlink:title="engine.gameRepresentation.evaluatables.actions.\lAction.identifyParticipantsOfInterest">
<polygon fill="white" stroke="black" points="292,-49 292,-79 548,-79 548,-49 292,-49"/>
<text text-anchor="start" x="300" y="-67" font-family="Helvetica,sans-Serif" font-size="10.00">engine.gameRepresentation.evaluatables.actions.</text>
<text text-anchor="middle" x="420" y="-56" font-family="Helvetica,sans-Serif" font-size="10.00">Action.identifyParticipantsOfInterest</text>
</a>
</g>
</g>
<!-- Node1&#45;&gt;Node2 -->
<g id="edge1" class="edge"><title>Node1&#45;&gt;Node2</title>
<path fill="none" stroke="midnightblue" d="M256.198,-49.9654C264.73,-50.7009 273.346,-51.4436 281.924,-52.1831"/>
<polygon fill="midnightblue" stroke="midnightblue" points="281.706,-55.6772 291.97,-53.0491 282.307,-48.7031 281.706,-55.6772"/>
</g>
<!-- Node5 -->
<g id="node5" class="node"><title>Node5</title>
<g id="a_node5"><a xlink:href="../../d5/dee/classengine_1_1game_representation_1_1evaluatables_1_1actions_1_1_action.html#aa3edc5fa6d19aa8e2fd3c54698b651ee" target="_top" xlink:title="engine.gameRepresentation.evaluatables.actions.\lAction.makeObjectIdentifier">
<polygon fill="white" stroke="black" points="292,-0 292,-30 548,-30 548,-0 292,-0"/>
<text text-anchor="start" x="300" y="-18" font-family="Helvetica,sans-Serif" font-size="10.00">engine.gameRepresentation.evaluatables.actions.</text>
<text text-anchor="middle" x="420" y="-7" font-family="Helvetica,sans-Serif" font-size="10.00">Action.makeObjectIdentifier</text>
</a>
</g>
</g>
<!-- Node1&#45;&gt;Node5 -->
<g id="edge4" class="edge"><title>Node1&#45;&gt;Node5</title>
<path fill="none" stroke="midnightblue" d="M256.198,-28.4733C264.73,-27.7672 273.346,-27.0542 281.924,-26.3442"/>
<polygon fill="midnightblue" stroke="midnightblue" points="282.293,-29.8258 291.97,-25.5128 281.715,-22.8496 282.293,-29.8258"/>
</g>
<!-- Node3 -->
<g id="node3" class="node"><title>Node3</title>
<g id="a_node3"><a xlink:href="../../de/d96/classengine_1_1_u_i_1_1_participant_manager.html#a84cef493ada18e1808bcc8bcb795ad97" target="_top" xlink:title="engine.UI.ParticipantManager.getAI">
<polygon fill="white" stroke="black" points="591,-73.5 591,-92.5 775,-92.5 775,-73.5 591,-73.5"/>
<text text-anchor="middle" x="683" y="-80.5" font-family="Helvetica,sans-Serif" font-size="10.00">engine.UI.ParticipantManager.getAI</text>
</a>
</g>
</g>
<!-- Node2&#45;&gt;Node3 -->
<g id="edge2" class="edge"><title>Node2&#45;&gt;Node3</title>
<path fill="none" stroke="midnightblue" d="M548.059,-73.2495C558.965,-74.0434 569.902,-74.8396 580.566,-75.6159"/>
<polygon fill="midnightblue" stroke="midnightblue" points="580.469,-79.118 590.697,-76.3534 580.978,-72.1365 580.469,-79.118"/>
</g>
<!-- Node4 -->
<g id="node4" class="node"><title>Node4</title>
<g id="a_node4"><a xlink:href="../../de/d96/classengine_1_1_u_i_1_1_participant_manager.html#ab448ea7d5f1b3e22a28f2be3f47b397c" target="_top" xlink:title="engine.UI.ParticipantManager.getUser">
<polygon fill="white" stroke="black" points="584.5,-35.5 584.5,-54.5 781.5,-54.5 781.5,-35.5 584.5,-35.5"/>
<text text-anchor="middle" x="683" y="-42.5" font-family="Helvetica,sans-Serif" font-size="10.00">engine.UI.ParticipantManager.getUser</text>
</a>
</g>
</g>
<!-- Node2&#45;&gt;Node4 -->
<g id="edge3" class="edge"><title>Node2&#45;&gt;Node4</title>
<path fill="none" stroke="midnightblue" d="M548.059,-54.7505C556.818,-54.1128 565.598,-53.4737 574.24,-52.8446"/>
<polygon fill="midnightblue" stroke="midnightblue" points="574.594,-56.3282 584.313,-52.1113 574.085,-49.3467 574.594,-56.3282"/>
</g>
</g>
</svg>
