<?xml version="1.0" encoding="UTF-8" standalone="no"?>
<!DOCTYPE svg PUBLIC "-//W3C//DTD SVG 1.1//EN"
 "http://www.w3.org/Graphics/SVG/1.1/DTD/svg11.dtd">
<!-- Generated by graphviz version 2.36.0 (20140111.2315)
 -->
<!-- Title: view.gui.GUIPanePath.getFilePath Pages: 1 -->
<!--zoomable 371 -->
<svg id="main" version="1.1" xmlns="http://www.w3.org/2000/svg" xmlns:xlink="http://www.w3.org/1999/xlink" xml:space="preserve" onload="init(evt)">
<style type="text/css"><![CDATA[
.edge:hover path { stroke: red; }
.edge:hover polygon { stroke: red; fill: red; }
]]></style>
<script type="text/javascript"><![CDATA[
var edges = document.getElementsByTagName('g');
if (edges && edges.length) {
  for (var i=0;i<edges.length;i++) {
    if (edges[i].id.substr(0,4)=='edge') {
      edges[i].setAttribute('class','edge');
    }
  }
}
]]></script>
        <defs>
                <circle id="rim" cx="0" cy="0" r="7"/>
                <circle id="rim2" cx="0" cy="0" r="3.5"/>
                <g id="zoomPlus">
                        <use xlink:href="#rim" fill="#404040">
                                <set attributeName="fill" to="#808080" begin="zoomplus.mouseover" end="zoomplus.mouseout"/>
                        </use>
                        <path d="M-4,0h8M0,-4v8" fill="none" stroke="white" stroke-width="1.5" pointer-events="none"/>
                </g>
                <g id="zoomMin">
                        <use xlink:href="#rim" fill="#404040">
                                <set attributeName="fill" to="#808080" begin="zoomminus.mouseover" end="zoomminus.mouseout"/>
                        </use>
                        <path d="M-4,0h8" fill="none" stroke="white" stroke-width="1.5" pointer-events="none"/>
                </g>
                <g id="dirArrow">
                        <path fill="none" stroke="white" stroke-width="1.5" d="M0,-3.0v7 M-2.5,-0.5L0,-3.0L2.5,-0.5"/>
                </g>
               <g id="resetDef">
                       <use xlink:href="#rim2" fill="#404040">
                               <set attributeName="fill" to="#808080" begin="reset.mouseover" end="reset.mouseout"/>
                       </use>
               </g>
        </defs>

<script type="text/javascript">
var viewWidth = 1966;
var viewHeight = 371;
var sectionId = 'dynsection-0';
</script>
<script xlink:href="../../svgpan.js"/>
<svg id="graph" class="graph">
<g id="viewport">
<title>view.gui.GUIPanePath.getFilePath</title>
<polygon fill="white" stroke="none" points="-4,4 -4,-367 1962,-367 1962,4 -4,4"/>
<!-- Node1 -->
<g id="node1" class="node"><title>Node1</title>
<polygon fill="#bfbfbf" stroke="black" points="0.5,-171 0.5,-201 137.5,-201 137.5,-171 0.5,-171"/>
<text text-anchor="start" x="8.5" y="-189" font-family="Helvetica,sans-Serif" font-size="10.00">view.gui.GUIPanePath.get</text>
<text text-anchor="middle" x="69" y="-178" font-family="Helvetica,sans-Serif" font-size="10.00">FilePath</text>
</g>
<!-- Node2 -->
<g id="node2" class="node"><title>Node2</title>
<g id="a_node2"><a xlink:href="../../d2/d33/classview_1_1editor_1_1wizards_1_1_wizard_utility.html#acece70a3dea98cde832a608d4aff204d" target="_top" xlink:title="view.editor.wizards.Wizard\lUtility.loadWizard">
<polygon fill="white" stroke="black" points="174.5,-171 174.5,-201 313.5,-201 313.5,-171 174.5,-171"/>
<text text-anchor="start" x="182.5" y="-189" font-family="Helvetica,sans-Serif" font-size="10.00">view.editor.wizards.Wizard</text>
<text text-anchor="middle" x="244" y="-178" font-family="Helvetica,sans-Serif" font-size="10.00">Utility.loadWizard</text>
</a>
</g>
</g>
<!-- Node1&#45;&gt;Node2 -->
<g id="edge1" class="edge"><title>Node1&#45;&gt;Node2</title>
<path fill="none" stroke="midnightblue" d="M148.119,-186C156.907,-186 165.812,-186 174.466,-186"/>
<polygon fill="midnightblue" stroke="midnightblue" points="147.878,-182.5 137.878,-186 147.878,-189.5 147.878,-182.5"/>
</g>
<!-- Node3 -->
<g id="node3" class="node"><title>Node3</title>
<g id="a_node3"><a xlink:href="../../d7/d92/classview_1_1editor_1_1wizards_1_1_game_element_wizard.html#af1a70ba89d682d331e46be6a564472cd" target="_top" xlink:title="view.editor.wizards.Game\lElementWizard.launchBoundsWizard">
<polygon fill="white" stroke="black" points="363,-333 363,-363 553,-363 553,-333 363,-333"/>
<text text-anchor="start" x="371" y="-351" font-family="Helvetica,sans-Serif" font-size="10.00">view.editor.wizards.Game</text>
<text text-anchor="middle" x="458" y="-340" font-family="Helvetica,sans-Serif" font-size="10.00">ElementWizard.launchBoundsWizard</text>
</a>
</g>
</g>
<!-- Node2&#45;&gt;Node3 -->
<g id="edge2" class="edge"><title>Node2&#45;&gt;Node3</title>
<path fill="none" stroke="midnightblue" d="M256.89,-210.378C273.37,-241.501 306.153,-294.697 350,-323 356.01,-326.88 362.556,-330.159 369.351,-332.931"/>
<polygon fill="midnightblue" stroke="midnightblue" points="259.807,-208.398 252.119,-201.109 253.583,-211.602 259.807,-208.398"/>
</g>
<!-- Node5 -->
<g id="node5" class="node"><title>Node5</title>
<g id="a_node5"><a xlink:href="../../d2/daf/classview_1_1editor_1_1wizards_1_1_c_r_u_d_container.html#a0dd63694421d9fc87cd4046499d3d229" target="_top" xlink:title="view.editor.wizards.CRUDContainer.launch\lEditWizard">
<polygon fill="white" stroke="black" points="350.5,-284 350.5,-314 565.5,-314 565.5,-284 350.5,-284"/>
<text text-anchor="start" x="358.5" y="-302" font-family="Helvetica,sans-Serif" font-size="10.00">view.editor.wizards.CRUDContainer.launch</text>
<text text-anchor="middle" x="458" y="-291" font-family="Helvetica,sans-Serif" font-size="10.00">EditWizard</text>
</a>
</g>
</g>
<!-- Node2&#45;&gt;Node5 -->
<g id="edge4" class="edge"><title>Node2&#45;&gt;Node5</title>
<path fill="none" stroke="midnightblue" d="M267.387,-208.085C287.476,-226.768 318.561,-252.985 350,-269 361.776,-274.998 374.911,-279.935 387.834,-283.948"/>
<polygon fill="midnightblue" stroke="midnightblue" points="269.661,-205.418 259.993,-201.085 264.849,-210.502 269.661,-205.418"/>
</g>
<!-- Node13 -->
<g id="node13" class="node"><title>Node13</title>
<g id="a_node13"><a xlink:href="../../d2/daf/classview_1_1editor_1_1wizards_1_1_c_r_u_d_container.html#ae2023a0be85d2e08579ad62bf18a0bc5" target="_top" xlink:title="view.editor.wizards.CRUDContainer.launch\lNestedWizard">
<polygon fill="white" stroke="black" points="854.5,-240 854.5,-270 1069.5,-270 1069.5,-240 854.5,-240"/>
<text text-anchor="start" x="862.5" y="-258" font-family="Helvetica,sans-Serif" font-size="10.00">view.editor.wizards.CRUDContainer.launch</text>
<text text-anchor="middle" x="962" y="-247" font-family="Helvetica,sans-Serif" font-size="10.00">NestedWizard</text>
</a>
</g>
</g>
<!-- Node2&#45;&gt;Node13 -->
<g id="edge17" class="edge"><title>Node2&#45;&gt;Node13</title>
<path fill="none" stroke="midnightblue" d="M278.827,-206.069C298.803,-216.808 325.003,-229.024 350,-235 522.9,-276.337 731.116,-272.143 854.414,-264.303"/>
<polygon fill="midnightblue" stroke="midnightblue" points="280.281,-202.873 269.835,-201.108 276.9,-209.003 280.281,-202.873"/>
</g>
<!-- Node15 -->
<g id="node15" class="node"><title>Node15</title>
<g id="a_node15"><a xlink:href="../../d4/d65/classview_1_1editor_1_1_tab_view_controller.html#ae2a5da639fc38047249eeb0a5728dee0" target="_top" xlink:title="view.editor.TabViewController.launch\lNestedWizard">
<polygon fill="white" stroke="black" points="364.5,-196 364.5,-226 551.5,-226 551.5,-196 364.5,-196"/>
<text text-anchor="start" x="372.5" y="-214" font-family="Helvetica,sans-Serif" font-size="10.00">view.editor.TabViewController.launch</text>
<text text-anchor="middle" x="458" y="-203" font-family="Helvetica,sans-Serif" font-size="10.00">NestedWizard</text>
</a>
</g>
</g>
<!-- Node2&#45;&gt;Node15 -->
<g id="edge15" class="edge"><title>Node2&#45;&gt;Node15</title>
<path fill="none" stroke="midnightblue" d="M323.567,-195.265C336.859,-196.832 350.77,-198.473 364.381,-200.078"/>
<polygon fill="midnightblue" stroke="midnightblue" points="323.879,-191.778 313.538,-194.082 323.059,-198.729 323.879,-191.778"/>
</g>
<!-- Node17 -->
<g id="node17" class="node"><title>Node17</title>
<g id="a_node17"><a xlink:href="../../d0/db3/classview_1_1editor_1_1wizards_1_1_level_wizard.html#a95b194942a6dbe0aac6e5d2d36885225" target="_top" xlink:title="view.editor.wizards.Level\lWizard.launchParticipantEditor">
<polygon fill="white" stroke="black" points="377.5,-98 377.5,-128 538.5,-128 538.5,-98 377.5,-98"/>
<text text-anchor="start" x="385.5" y="-116" font-family="Helvetica,sans-Serif" font-size="10.00">view.editor.wizards.Level</text>
<text text-anchor="middle" x="458" y="-105" font-family="Helvetica,sans-Serif" font-size="10.00">Wizard.launchParticipantEditor</text>
</a>
</g>
</g>
<!-- Node2&#45;&gt;Node17 -->
<g id="edge18" class="edge"><title>Node2&#45;&gt;Node17</title>
<path fill="none" stroke="midnightblue" d="M281.812,-166.431C301.596,-156.531 326.66,-144.959 350,-137 359.73,-133.682 370.117,-130.696 380.449,-128.049"/>
<polygon fill="midnightblue" stroke="midnightblue" points="280.169,-163.34 272.837,-170.988 283.338,-169.582 280.169,-163.34"/>
</g>
<!-- Node19 -->
<g id="node19" class="node"><title>Node19</title>
<g id="a_node19"><a xlink:href="../../d4/d65/classview_1_1editor_1_1_tab_view_controller.html#a1dc26904601bc736368a83e6ca0fc470" target="_top" xlink:title="view.editor.TabViewController.modify\lGoals">
<polygon fill="white" stroke="black" points="364,-147 364,-177 552,-177 552,-147 364,-147"/>
<text text-anchor="start" x="372" y="-165" font-family="Helvetica,sans-Serif" font-size="10.00">view.editor.TabViewController.modify</text>
<text text-anchor="middle" x="458" y="-154" font-family="Helvetica,sans-Serif" font-size="10.00">Goals</text>
</a>
</g>
</g>
<!-- Node2&#45;&gt;Node19 -->
<g id="edge20" class="edge"><title>Node2&#45;&gt;Node19</title>
<path fill="none" stroke="midnightblue" d="M323.491,-177.114C336.682,-175.621 350.483,-174.058 363.999,-172.528"/>
<polygon fill="midnightblue" stroke="midnightblue" points="323.08,-173.638 313.538,-178.241 323.868,-180.594 323.08,-173.638"/>
</g>
<!-- Node20 -->
<g id="node20" class="node"><title>Node20</title>
<g id="a_node20"><a xlink:href="../../dc/d0c/classview_1_1editor_1_1_editor_menu_bar_controller.html#ace188ceb5aa48f608d66256760574071" target="_top" xlink:title="view.editor.EditorMenuBar\lController.onNewCampaignClick">
<polygon fill="white" stroke="black" points="374,-49 374,-79 542,-79 542,-49 374,-49"/>
<text text-anchor="start" x="382" y="-67" font-family="Helvetica,sans-Serif" font-size="10.00">view.editor.EditorMenuBar</text>
<text text-anchor="middle" x="458" y="-56" font-family="Helvetica,sans-Serif" font-size="10.00">Controller.onNewCampaignClick</text>
</a>
</g>
</g>
<!-- Node2&#45;&gt;Node20 -->
<g id="edge22" class="edge"><title>Node2&#45;&gt;Node20</title>
<path fill="none" stroke="midnightblue" d="M263.226,-162.983C282.398,-140.384 314.65,-106.664 350,-88 357.492,-84.0444 365.612,-80.7389 373.916,-77.9768"/>
<polygon fill="midnightblue" stroke="midnightblue" points="260.467,-160.828 256.773,-170.758 265.853,-165.298 260.467,-160.828"/>
</g>
<!-- Node23 -->
<g id="node23" class="node"><title>Node23</title>
<g id="a_node23"><a xlink:href="../../dc/d0c/classview_1_1editor_1_1_editor_menu_bar_controller.html#a135d33b75dee7e5bb96b8ebd40cbe964" target="_top" xlink:title="view.editor.EditorMenuBar\lController.onNewLevelClick">
<polygon fill="white" stroke="black" points="386,-0 386,-30 530,-30 530,-0 386,-0"/>
<text text-anchor="start" x="394" y="-18" font-family="Helvetica,sans-Serif" font-size="10.00">view.editor.EditorMenuBar</text>
<text text-anchor="middle" x="458" y="-7" font-family="Helvetica,sans-Serif" font-size="10.00">Controller.onNewLevelClick</text>
</a>
</g>
</g>
<!-- Node2&#45;&gt;Node23 -->
<g id="edge25" class="edge"><title>Node2&#45;&gt;Node23</title>
<path fill="none" stroke="midnightblue" d="M255.684,-161.25C271.356,-128.022 303.811,-69.6325 350,-39 360.709,-31.8975 373.21,-26.8719 385.813,-23.3218"/>
<polygon fill="midnightblue" stroke="midnightblue" points="252.34,-160.146 251.362,-170.696 258.706,-163.059 252.34,-160.146"/>
</g>
<!-- Node4 -->
<g id="node4" class="node"><title>Node4</title>
<g id="a_node4"><a xlink:href="../../d7/d92/classview_1_1editor_1_1wizards_1_1_game_element_wizard.html#a108e1aaa06ef6b80a4a1d33d460cde06" target="_top" xlink:title="view.editor.wizards.Game\lElementWizard.initialize">
<polygon fill="white" stroke="black" points="641.5,-333 641.5,-363 778.5,-363 778.5,-333 641.5,-333"/>
<text text-anchor="start" x="649.5" y="-351" font-family="Helvetica,sans-Serif" font-size="10.00">view.editor.wizards.Game</text>
<text text-anchor="middle" x="710" y="-340" font-family="Helvetica,sans-Serif" font-size="10.00">ElementWizard.initialize</text>
</a>
</g>
</g>
<!-- Node3&#45;&gt;Node4 -->
<g id="edge3" class="edge"><title>Node3&#45;&gt;Node4</title>
<path fill="none" stroke="midnightblue" d="M563.213,-348C589.638,-348 617.339,-348 641.411,-348"/>
<polygon fill="midnightblue" stroke="midnightblue" points="563.158,-344.5 553.158,-348 563.158,-351.5 563.158,-344.5"/>
</g>
<!-- Node6 -->
<g id="node6" class="node"><title>Node6</title>
<g id="a_node6"><a xlink:href="../../d2/daf/classview_1_1editor_1_1wizards_1_1_c_r_u_d_container.html#a93585a010caa4cdf7201f854c10001d5" target="_top" xlink:title="view.editor.wizards.CRUDContainer.create\lVisualRepresentation">
<polygon fill="white" stroke="black" points="602.5,-284 602.5,-314 817.5,-314 817.5,-284 602.5,-284"/>
<text text-anchor="start" x="610.5" y="-302" font-family="Helvetica,sans-Serif" font-size="10.00">view.editor.wizards.CRUDContainer.create</text>
<text text-anchor="middle" x="710" y="-291" font-family="Helvetica,sans-Serif" font-size="10.00">VisualRepresentation</text>
</a>
</g>
</g>
<!-- Node5&#45;&gt;Node6 -->
<g id="edge5" class="edge"><title>Node5&#45;&gt;Node6</title>
<path fill="none" stroke="midnightblue" d="M575.982,-299C584.73,-299 593.531,-299 602.211,-299"/>
<polygon fill="midnightblue" stroke="midnightblue" points="575.748,-295.5 565.748,-299 575.748,-302.5 575.748,-295.5"/>
</g>
<!-- Node7 -->
<g id="node7" class="node"><title>Node7</title>
<g id="a_node7"><a xlink:href="../../d2/daf/classview_1_1editor_1_1wizards_1_1_c_r_u_d_container.html#afc90f248b63b655ded20ea49f90d01a3" target="_top" xlink:title="view.editor.wizards.CRUDContainer.add\lAndRenderWizardDatas">
<polygon fill="white" stroke="black" points="861,-289 861,-319 1063,-319 1063,-289 861,-289"/>
<text text-anchor="start" x="869" y="-307" font-family="Helvetica,sans-Serif" font-size="10.00">view.editor.wizards.CRUDContainer.add</text>
<text text-anchor="middle" x="962" y="-296" font-family="Helvetica,sans-Serif" font-size="10.00">AndRenderWizardDatas</text>
</a>
</g>
</g>
<!-- Node6&#45;&gt;Node7 -->
<g id="edge6" class="edge"><title>Node6&#45;&gt;Node7</title>
<path fill="none" stroke="midnightblue" d="M827.87,-301.337C838.928,-301.559 850.072,-301.781 860.953,-301.999"/>
<polygon fill="midnightblue" stroke="midnightblue" points="827.816,-297.836 817.748,-301.135 827.676,-304.834 827.816,-297.836"/>
</g>
<!-- Node6&#45;&gt;Node13 -->
<g id="edge13" class="edge"><title>Node6&#45;&gt;Node13</title>
<path fill="none" stroke="midnightblue" d="M806.35,-282.218C829.137,-278.208 853.319,-273.952 875.624,-270.026"/>
<polygon fill="midnightblue" stroke="midnightblue" points="805.579,-278.8 796.337,-283.981 806.792,-285.694 805.579,-278.8"/>
</g>
<!-- Node8 -->
<g id="node8" class="node"><title>Node8</title>
<g id="a_node8"><a xlink:href="../../d7/d92/classview_1_1editor_1_1wizards_1_1_game_element_wizard.html#a657ee6352e5119f1ec2fe9add8340899" target="_top" xlink:title="view.editor.wizards.Game\lElementWizard.addContainerData">
<polygon fill="white" stroke="black" points="1127.5,-289 1127.5,-319 1306.5,-319 1306.5,-289 1127.5,-289"/>
<text text-anchor="start" x="1135.5" y="-307" font-family="Helvetica,sans-Serif" font-size="10.00">view.editor.wizards.Game</text>
<text text-anchor="middle" x="1217" y="-296" font-family="Helvetica,sans-Serif" font-size="10.00">ElementWizard.addContainerData</text>
</a>
</g>
</g>
<!-- Node7&#45;&gt;Node8 -->
<g id="edge7" class="edge"><title>Node7&#45;&gt;Node8</title>
<path fill="none" stroke="midnightblue" d="M1073.57,-304C1091.51,-304 1109.89,-304 1127.23,-304"/>
<polygon fill="midnightblue" stroke="midnightblue" points="1073.36,-300.5 1063.36,-304 1073.36,-307.5 1073.36,-300.5"/>
</g>
<!-- Node9 -->
<g id="node9" class="node"><title>Node9</title>
<g id="a_node9"><a xlink:href="../../d7/d92/classview_1_1editor_1_1wizards_1_1_game_element_wizard.html#abe8ad6d8e7a4eec7b8184d12047755be" target="_top" xlink:title="view.editor.wizards.Game\lElementWizard.launchForEdit">
<polygon fill="white" stroke="black" points="1364.5,-289 1364.5,-319 1519.5,-319 1519.5,-289 1364.5,-289"/>
<text text-anchor="start" x="1372.5" y="-307" font-family="Helvetica,sans-Serif" font-size="10.00">view.editor.wizards.Game</text>
<text text-anchor="middle" x="1442" y="-296" font-family="Helvetica,sans-Serif" font-size="10.00">ElementWizard.launchForEdit</text>
</a>
</g>
</g>
<!-- Node8&#45;&gt;Node9 -->
<g id="edge8" class="edge"><title>Node8&#45;&gt;Node9</title>
<path fill="none" stroke="midnightblue" d="M1317.13,-304C1332.98,-304 1349.18,-304 1364.4,-304"/>
<polygon fill="midnightblue" stroke="midnightblue" points="1316.78,-300.5 1306.78,-304 1316.78,-307.5 1316.78,-300.5"/>
</g>
<!-- Node10 -->
<g id="node10" class="node"><title>Node10</title>
<g id="a_node10"><a xlink:href="../../d9/dfb/classview_1_1editor_1_1_element_accordion_controller.html#a71bb33e7588f335fc2ebc1346924ad2d" target="_top" xlink:title="view.editor.ElementAccordion\lController.openDrawableGameElement\lWizard">
<polygon fill="white" stroke="black" points="1559.5,-313.5 1559.5,-354.5 1762.5,-354.5 1762.5,-313.5 1559.5,-313.5"/>
<text text-anchor="start" x="1567.5" y="-342.5" font-family="Helvetica,sans-Serif" font-size="10.00">view.editor.ElementAccordion</text>
<text text-anchor="start" x="1567.5" y="-331.5" font-family="Helvetica,sans-Serif" font-size="10.00">Controller.openDrawableGameElement</text>
<text text-anchor="middle" x="1661" y="-320.5" font-family="Helvetica,sans-Serif" font-size="10.00">Wizard</text>
</a>
</g>
</g>
<!-- Node9&#45;&gt;Node10 -->
<g id="edge9" class="edge"><title>Node9&#45;&gt;Node10</title>
<path fill="none" stroke="midnightblue" d="M1529.63,-315.976C1539.44,-317.333 1549.51,-318.724 1559.48,-320.103"/>
<polygon fill="midnightblue" stroke="midnightblue" points="1529.89,-312.479 1519.51,-314.577 1528.93,-319.413 1529.89,-312.479"/>
</g>
<!-- Node12 -->
<g id="node12" class="node"><title>Node12</title>
<g id="a_node12"><a xlink:href="../../d9/dfb/classview_1_1editor_1_1_element_accordion_controller.html#a8564fdf017fa6f25e3e663cf076e0c04" target="_top" xlink:title="view.editor.ElementAccordion\lController.openSelectableGameElement\lWizard">
<polygon fill="white" stroke="black" points="1556.5,-253.5 1556.5,-294.5 1765.5,-294.5 1765.5,-253.5 1556.5,-253.5"/>
<text text-anchor="start" x="1564.5" y="-282.5" font-family="Helvetica,sans-Serif" font-size="10.00">view.editor.ElementAccordion</text>
<text text-anchor="start" x="1564.5" y="-271.5" font-family="Helvetica,sans-Serif" font-size="10.00">Controller.openSelectableGameElement</text>
<text text-anchor="middle" x="1661" y="-260.5" font-family="Helvetica,sans-Serif" font-size="10.00">Wizard</text>
</a>
</g>
</g>
<!-- Node9&#45;&gt;Node12 -->
<g id="edge11" class="edge"><title>Node9&#45;&gt;Node12</title>
<path fill="none" stroke="midnightblue" d="M1529.43,-292.051C1538.31,-290.824 1547.39,-289.568 1556.43,-288.318"/>
<polygon fill="midnightblue" stroke="midnightblue" points="1528.93,-288.587 1519.51,-293.423 1529.89,-295.521 1528.93,-288.587"/>
</g>
<!-- Node11 -->
<g id="node11" class="node"><title>Node11</title>
<g id="a_node11"><a xlink:href="../../d9/dfb/classview_1_1editor_1_1_element_accordion_controller.html#af80453486ff349552dab988fb64397c0" target="_top" xlink:title="view.editor.ElementAccordion\lController.init">
<polygon fill="white" stroke="black" points="1802,-289 1802,-319 1958,-319 1958,-289 1802,-289"/>
<text text-anchor="start" x="1810" y="-307" font-family="Helvetica,sans-Serif" font-size="10.00">view.editor.ElementAccordion</text>
<text text-anchor="middle" x="1880" y="-296" font-family="Helvetica,sans-Serif" font-size="10.00">Controller.init</text>
</a>
</g>
</g>
<!-- Node10&#45;&gt;Node11 -->
<g id="edge10" class="edge"><title>Node10&#45;&gt;Node11</title>
<path fill="none" stroke="midnightblue" d="M1772.47,-318.727C1782.39,-317.356 1792.28,-315.988 1801.82,-314.669"/>
<polygon fill="midnightblue" stroke="midnightblue" points="1771.99,-315.261 1762.56,-320.098 1772.94,-322.195 1771.99,-315.261"/>
</g>
<!-- Node12&#45;&gt;Node11 -->
<g id="edge12" class="edge"><title>Node12&#45;&gt;Node11</title>
<path fill="none" stroke="midnightblue" d="M1775.75,-289.726C1784.62,-290.951 1793.43,-292.171 1801.97,-293.351"/>
<polygon fill="midnightblue" stroke="midnightblue" points="1776.12,-286.244 1765.73,-288.341 1775.16,-293.178 1776.12,-286.244"/>
</g>
<!-- Node14 -->
<g id="node14" class="node"><title>Node14</title>
<g id="a_node14"><a xlink:href="../../d2/daf/classview_1_1editor_1_1wizards_1_1_c_r_u_d_container.html#ab64f7f353707925c8aa7b919886038c5" target="_top" xlink:title="view.editor.wizards.CRUDContainer.initialize">
<polygon fill="white" stroke="black" points="1106,-245.5 1106,-264.5 1328,-264.5 1328,-245.5 1106,-245.5"/>
<text text-anchor="middle" x="1217" y="-252.5" font-family="Helvetica,sans-Serif" font-size="10.00">view.editor.wizards.CRUDContainer.initialize</text>
</a>
</g>
</g>
<!-- Node13&#45;&gt;Node14 -->
<g id="edge14" class="edge"><title>Node13&#45;&gt;Node14</title>
<path fill="none" stroke="midnightblue" d="M1079.75,-255C1088.46,-255 1097.24,-255 1105.91,-255"/>
<polygon fill="midnightblue" stroke="midnightblue" points="1079.56,-251.5 1069.56,-255 1079.56,-258.5 1079.56,-251.5"/>
</g>
<!-- Node16 -->
<g id="node16" class="node"><title>Node16</title>
<g id="a_node16"><a xlink:href="../../d4/d65/classview_1_1editor_1_1_tab_view_controller.html#a82e1e1f1eb84d1c30bde3a246304473e" target="_top" xlink:title="view.editor.TabViewController.init">
<polygon fill="white" stroke="black" points="625,-176.5 625,-195.5 795,-195.5 795,-176.5 625,-176.5"/>
<text text-anchor="middle" x="710" y="-183.5" font-family="Helvetica,sans-Serif" font-size="10.00">view.editor.TabViewController.init</text>
</a>
</g>
</g>
<!-- Node15&#45;&gt;Node16 -->
<g id="edge16" class="edge"><title>Node15&#45;&gt;Node16</title>
<path fill="none" stroke="midnightblue" d="M561.908,-200.709C582.792,-198.621 604.524,-196.448 624.675,-194.433"/>
<polygon fill="midnightblue" stroke="midnightblue" points="561.338,-197.249 551.736,-201.726 562.034,-204.214 561.338,-197.249"/>
</g>
<!-- Node18 -->
<g id="node18" class="node"><title>Node18</title>
<g id="a_node18"><a xlink:href="../../d0/db3/classview_1_1editor_1_1wizards_1_1_level_wizard.html#a49a623594171d2cdfb71e5d15e587272" target="_top" xlink:title="view.editor.wizards.Level\lWizard.initialize">
<polygon fill="white" stroke="black" points="644,-98 644,-128 776,-128 776,-98 644,-98"/>
<text text-anchor="start" x="652" y="-116" font-family="Helvetica,sans-Serif" font-size="10.00">view.editor.wizards.Level</text>
<text text-anchor="middle" x="710" y="-105" font-family="Helvetica,sans-Serif" font-size="10.00">Wizard.initialize</text>
</a>
</g>
</g>
<!-- Node17&#45;&gt;Node18 -->
<g id="edge19" class="edge"><title>Node17&#45;&gt;Node18</title>
<path fill="none" stroke="midnightblue" d="M548.846,-113C580.204,-113 614.776,-113 643.748,-113"/>
<polygon fill="midnightblue" stroke="midnightblue" points="548.789,-109.5 538.789,-113 548.789,-116.5 548.789,-109.5"/>
</g>
<!-- Node19&#45;&gt;Node16 -->
<g id="edge21" class="edge"><title>Node19&#45;&gt;Node16</title>
<path fill="none" stroke="midnightblue" d="M562.252,-171.912C583.11,-173.915 604.801,-175.997 624.906,-177.927"/>
<polygon fill="midnightblue" stroke="midnightblue" points="562.38,-168.408 552.091,-170.937 561.711,-175.376 562.38,-168.408"/>
</g>
<!-- Node21 -->
<g id="node21" class="node"><title>Node21</title>
<g id="a_node21"><a xlink:href="../../dc/d0c/classview_1_1editor_1_1_editor_menu_bar_controller.html#a56696b0f0540d2e86c3e4fe4521717a2" target="_top" xlink:title="view.editor.EditorMenuBar\lController.initFileMenu">
<polygon fill="white" stroke="black" points="640,-25 640,-55 780,-55 780,-25 640,-25"/>
<text text-anchor="start" x="648" y="-43" font-family="Helvetica,sans-Serif" font-size="10.00">view.editor.EditorMenuBar</text>
<text text-anchor="middle" x="710" y="-32" font-family="Helvetica,sans-Serif" font-size="10.00">Controller.initFileMenu</text>
</a>
</g>
</g>
<!-- Node20&#45;&gt;Node21 -->
<g id="edge23" class="edge"><title>Node20&#45;&gt;Node21</title>
<path fill="none" stroke="midnightblue" d="M552.392,-55.0343C581.394,-52.2501 612.826,-49.2327 639.867,-46.6368"/>
<polygon fill="midnightblue" stroke="midnightblue" points="551.866,-51.5687 542.246,-56.0083 552.535,-58.5366 551.866,-51.5687"/>
</g>
<!-- Node22 -->
<g id="node22" class="node"><title>Node22</title>
<g id="a_node22"><a xlink:href="../../dc/d0c/classview_1_1editor_1_1_editor_menu_bar_controller.html#a5b101a400664af0200be8010673acb49" target="_top" xlink:title="view.editor.EditorMenuBar\lController.initMenuBar">
<polygon fill="white" stroke="black" points="892,-25 892,-55 1032,-55 1032,-25 892,-25"/>
<text text-anchor="start" x="900" y="-43" font-family="Helvetica,sans-Serif" font-size="10.00">view.editor.EditorMenuBar</text>
<text text-anchor="middle" x="962" y="-32" font-family="Helvetica,sans-Serif" font-size="10.00">Controller.initMenuBar</text>
</a>
</g>
</g>
<!-- Node21&#45;&gt;Node22 -->
<g id="edge24" class="edge"><title>Node21&#45;&gt;Node22</title>
<path fill="none" stroke="midnightblue" d="M790.704,-40C823.281,-40 860.605,-40 891.992,-40"/>
<polygon fill="midnightblue" stroke="midnightblue" points="790.307,-36.5001 780.307,-40 790.307,-43.5001 790.307,-36.5001"/>
</g>
<!-- Node23&#45;&gt;Node21 -->
<g id="edge26" class="edge"><title>Node23&#45;&gt;Node21</title>
<path fill="none" stroke="midnightblue" d="M540.547,-23.1547C572.601,-26.3601 609.009,-30.0009 639.757,-33.0757"/>
<polygon fill="midnightblue" stroke="midnightblue" points="540.604,-19.643 530.305,-22.1305 539.907,-26.6083 540.604,-19.643"/>
</g>
</g>
</svg>
        <g id="navigator" transform="translate(0 0)" fill="#404254">
                <rect fill="#f2f5e9" fill-opacity="0.5" stroke="#606060" stroke-width=".5" x="0" y="0" width="60" height="60"/>
                <use id="zoomplus" xlink:href="#zoomPlus" x="17" y="9" onmousedown="handleZoom(evt,'in')"/>
                <use id="zoomminus" xlink:href="#zoomMin" x="42" y="9" onmousedown="handleZoom(evt,'out')"/>
                <use id="reset" xlink:href="#resetDef" x="30" y="36" onmousedown="handleReset()"/>
                <g id="arrowUp" xlink:href="#dirArrow" transform="translate(30 24)" onmousedown="handlePan(0,-1)">
                  <use xlink:href="#rim" fill="#404040">
                        <set attributeName="fill" to="#808080" begin="arrowUp.mouseover" end="arrowUp.mouseout"/>
                  </use>
                  <path fill="none" stroke="white" stroke-width="1.5" d="M0,-3.0v7 M-2.5,-0.5L0,-3.0L2.5,-0.5"/>
                </g>
                <g id="arrowRight" xlink:href="#dirArrow" transform="rotate(90) translate(36 -43)" onmousedown="handlePan(1,0)">
                  <use xlink:href="#rim" fill="#404040">
                        <set attributeName="fill" to="#808080" begin="arrowRight.mouseover" end="arrowRight.mouseout"/>
                  </use>
                  <path fill="none" stroke="white" stroke-width="1.5" d="M0,-3.0v7 M-2.5,-0.5L0,-3.0L2.5,-0.5"/>
                </g>
                <g id="arrowDown" xlink:href="#dirArrow" transform="rotate(180) translate(-30 -48)" onmousedown="handlePan(0,1)">
                  <use xlink:href="#rim" fill="#404040">
                        <set attributeName="fill" to="#808080" begin="arrowDown.mouseover" end="arrowDown.mouseout"/>
                  </use>
                  <path fill="none" stroke="white" stroke-width="1.5" d="M0,-3.0v7 M-2.5,-0.5L0,-3.0L2.5,-0.5"/>
                </g>
                <g id="arrowLeft" xlink:href="#dirArrow" transform="rotate(270) translate(-36 17)" onmousedown="handlePan(-1,0)">
                  <use xlink:href="#rim" fill="#404040">
                        <set attributeName="fill" to="#808080" begin="arrowLeft.mouseover" end="arrowLeft.mouseout"/>
                  </use>
                  <path fill="none" stroke="white" stroke-width="1.5" d="M0,-3.0v7 M-2.5,-0.5L0,-3.0L2.5,-0.5"/>
                </g>
        </g>
        <svg viewBox="0 0 15 15" width="100%" height="30px" preserveAspectRatio="xMaxYMin meet">
         <g id="arrow_out" transform="scale(0.3 0.3)">
          <a xlink:href="enumview_1_1gui_1_1_g_u_i_pane_path_a21483b76823df7d547e7c451c9877b65_icgraph_org.svg" target="_base">
           <rect id="button" ry="5" rx="5" y="6" x="6" height="38" width="38"
                fill="#f2f5e9" fill-opacity="0.5" stroke="#606060" stroke-width="1.0"/>
           <path id="arrow"
             d="M 11.500037,31.436501 C 11.940474,20.09759 22.043105,11.32322 32.158766,21.979434 L 37.068811,17.246167 C 37.068811,17.246167 37.088388,32 37.088388,32 L 22.160133,31.978069 C 22.160133,31.978069 26.997745,27.140456 26.997745,27.140456 C 18.528582,18.264221 13.291696,25.230495 11.500037,31.436501 z"
             style="fill:#404040;"/>
          </a>
         </g>
        </svg>
</svg>
