<?xml version="1.0" encoding="UTF-8" standalone="no"?>
<!DOCTYPE svg PUBLIC "-//W3C//DTD SVG 1.1//EN"
 "http://www.w3.org/Graphics/SVG/1.1/DTD/svg11.dtd">
<!-- Generated by graphviz version 2.36.0 (20140111.2315)
 -->
<!-- Title: view.editor.wizards.WizardUtility.loadWizard Pages: 1 -->
<!--zoomable 273 -->
<svg id="main" version="1.1" xmlns="http://www.w3.org/2000/svg" xmlns:xlink="http://www.w3.org/1999/xlink" xml:space="preserve" onload="init(evt)">
<style type="text/css"><![CDATA[
.edge:hover path { stroke: red; }
.edge:hover polygon { stroke: red; fill: red; }
]]></style>
<script type="text/javascript"><![CDATA[
var edges = document.getElementsByTagName('g');
if (edges && edges.length) {
  for (var i=0;i<edges.length;i++) {
    if (edges[i].id.substr(0,4)=='edge') {
      edges[i].setAttribute('class','edge');
    }
  }
}
]]></script>
        <defs>
                <circle id="rim" cx="0" cy="0" r="7"/>
                <circle id="rim2" cx="0" cy="0" r="3.5"/>
                <g id="zoomPlus">
                        <use xlink:href="#rim" fill="#404040">
                                <set attributeName="fill" to="#808080" begin="zoomplus.mouseover" end="zoomplus.mouseout"/>
                        </use>
                        <path d="M-4,0h8M0,-4v8" fill="none" stroke="white" stroke-width="1.5" pointer-events="none"/>
                </g>
                <g id="zoomMin">
                        <use xlink:href="#rim" fill="#404040">
                                <set attributeName="fill" to="#808080" begin="zoomminus.mouseover" end="zoomminus.mouseout"/>
                        </use>
                        <path d="M-4,0h8" fill="none" stroke="white" stroke-width="1.5" pointer-events="none"/>
                </g>
                <g id="dirArrow">
                        <path fill="none" stroke="white" stroke-width="1.5" d="M0,-3.0v7 M-2.5,-0.5L0,-3.0L2.5,-0.5"/>
                </g>
               <g id="resetDef">
                       <use xlink:href="#rim2" fill="#404040">
                               <set attributeName="fill" to="#808080" begin="reset.mouseover" end="reset.mouseout"/>
                       </use>
               </g>
        </defs>

<script type="text/javascript">
var viewWidth = 564;
var viewHeight = 273;
var sectionId = 'dynsection-0';
</script>
<script xlink:href="../../svgpan.js"/>
<svg id="graph" class="graph">
<g id="viewport">
<title>view.editor.wizards.WizardUtility.loadWizard</title>
<polygon fill="white" stroke="none" points="-4,4 -4,-269 560,-269 560,4 -4,4"/>
<!-- Node1 -->
<g id="node1" class="node"><title>Node1</title>
<polygon fill="#bfbfbf" stroke="black" points="0.5,-112 0.5,-142 139.5,-142 139.5,-112 0.5,-112"/>
<text text-anchor="start" x="8.5" y="-130" font-family="Helvetica,sans-Serif" font-size="10.00">view.editor.wizards.Wizard</text>
<text text-anchor="middle" x="70" y="-119" font-family="Helvetica,sans-Serif" font-size="10.00">Utility.loadWizard</text>
</g>
<!-- Node2 -->
<g id="node2" class="node"><title>Node2</title>
<g id="a_node2"><a xlink:href="../../de/d50/classview_1_1_g_u_i_load_style_utility.html#ad8a679308f5305b82d32661a86f96690" target="_top" xlink:title="view.GUILoadStyleUtility.add\lScene">
<polygon fill="white" stroke="black" points="191,-235 191,-265 341,-265 341,-235 191,-235"/>
<text text-anchor="start" x="199" y="-253" font-family="Helvetica,sans-Serif" font-size="10.00">view.GUILoadStyleUtility.add</text>
<text text-anchor="middle" x="266" y="-242" font-family="Helvetica,sans-Serif" font-size="10.00">Scene</text>
</a>
</g>
</g>
<!-- Node1&#45;&gt;Node2 -->
<g id="edge1" class="edge"><title>Node1&#45;&gt;Node2</title>
<path fill="none" stroke="midnightblue" d="M83.225,-142.325C101.263,-163.924 137.098,-203.118 176,-225 179.963,-227.229 184.138,-229.271 188.431,-231.139"/>
<polygon fill="midnightblue" stroke="midnightblue" points="187.394,-234.494 197.978,-234.96 189.994,-227.995 187.394,-234.494"/>
</g>
<!-- Node4 -->
<g id="node4" class="node"><title>Node4</title>
<g id="a_node4"><a xlink:href="../../de/d50/classview_1_1_g_u_i_load_style_utility.html#a3f0bdbc7239563c54aa365afd86f620d" target="_top" xlink:title="view.GUILoadStyleUtility.generate\lGUIPane">
<polygon fill="white" stroke="black" points="178,-186 178,-216 354,-216 354,-186 178,-186"/>
<text text-anchor="start" x="186" y="-204" font-family="Helvetica,sans-Serif" font-size="10.00">view.GUILoadStyleUtility.generate</text>
<text text-anchor="middle" x="266" y="-193" font-family="Helvetica,sans-Serif" font-size="10.00">GUIPane</text>
</a>
</g>
</g>
<!-- Node1&#45;&gt;Node4 -->
<g id="edge3" class="edge"><title>Node1&#45;&gt;Node4</title>
<path fill="none" stroke="midnightblue" d="M99.8744,-142.031C120.668,-152.468 149.595,-166.205 176,-176 182.47,-178.4 189.278,-180.7 196.127,-182.864"/>
<polygon fill="midnightblue" stroke="midnightblue" points="195.571,-186.354 206.157,-185.935 197.62,-179.661 195.571,-186.354"/>
</g>
<!-- Node5 -->
<g id="node5" class="node"><title>Node5</title>
<g id="a_node5"><a xlink:href="../../d8/d35/enumview_1_1gui_1_1_g_u_i_pane_path.html#a21483b76823df7d547e7c451c9877b65" target="_top" xlink:title="view.gui.GUIPanePath.get\lFilePath">
<polygon fill="white" stroke="black" points="197.5,-137 197.5,-167 334.5,-167 334.5,-137 197.5,-137"/>
<text text-anchor="start" x="205.5" y="-155" font-family="Helvetica,sans-Serif" font-size="10.00">view.gui.GUIPanePath.get</text>
<text text-anchor="middle" x="266" y="-144" font-family="Helvetica,sans-Serif" font-size="10.00">FilePath</text>
</a>
</g>
</g>
<!-- Node1&#45;&gt;Node5 -->
<g id="edge4" class="edge"><title>Node1&#45;&gt;Node5</title>
<path fill="none" stroke="midnightblue" d="M139.67,-135.849C155.049,-137.831 171.47,-139.947 187.19,-141.973"/>
<polygon fill="midnightblue" stroke="midnightblue" points="187.036,-145.482 197.401,-143.289 187.931,-138.539 187.036,-145.482"/>
</g>
<!-- Node6 -->
<g id="node6" class="node"><title>Node6</title>
<g id="a_node6"><a xlink:href="../../de/d50/classview_1_1_g_u_i_load_style_utility.html#ad5c2539d920db1e4cec593d49cbf28bc" target="_top" xlink:title="view.GUILoadStyleUtility.get\lInstance">
<polygon fill="white" stroke="black" points="192,-88 192,-118 340,-118 340,-88 192,-88"/>
<text text-anchor="start" x="200" y="-106" font-family="Helvetica,sans-Serif" font-size="10.00">view.GUILoadStyleUtility.get</text>
<text text-anchor="middle" x="266" y="-95" font-family="Helvetica,sans-Serif" font-size="10.00">Instance</text>
</a>
</g>
</g>
<!-- Node1&#45;&gt;Node6 -->
<g id="edge5" class="edge"><title>Node1&#45;&gt;Node6</title>
<path fill="none" stroke="midnightblue" d="M139.67,-118.505C153.265,-116.823 167.674,-115.04 181.694,-113.306"/>
<polygon fill="midnightblue" stroke="midnightblue" points="182.322,-116.755 191.816,-112.054 181.462,-109.808 182.322,-116.755"/>
</g>
<!-- Node8 -->
<g id="node8" class="node"><title>Node8</title>
<g id="a_node8"><a xlink:href="../../d7/d40/classview_1_1editor_1_1wizards_1_1_wizard.html#acf4e507283b52e3f07d0178de8a95900" target="_top" xlink:title="view.editor.wizards.Wizard.getRoot">
<polygon fill="white" stroke="black" points="176.5,-49.5 176.5,-68.5 355.5,-68.5 355.5,-49.5 176.5,-49.5"/>
<text text-anchor="middle" x="266" y="-56.5" font-family="Helvetica,sans-Serif" font-size="10.00">view.editor.wizards.Wizard.getRoot</text>
</a>
</g>
</g>
<!-- Node1&#45;&gt;Node8 -->
<g id="edge7" class="edge"><title>Node1&#45;&gt;Node8</title>
<path fill="none" stroke="midnightblue" d="M99.7585,-111.883C120.498,-101.473 149.407,-87.9578 176,-79 185.022,-75.9608 194.715,-73.246 204.266,-70.871"/>
<polygon fill="midnightblue" stroke="midnightblue" points="205.218,-74.2424 214.134,-68.5196 203.595,-67.433 205.218,-74.2424"/>
</g>
<!-- Node9 -->
<g id="node9" class="node"><title>Node9</title>
<g id="a_node9"><a xlink:href="../../d7/d40/classview_1_1editor_1_1wizards_1_1_wizard.html#abb231f895d1f01a0406555641eebedc5" target="_top" xlink:title="view.editor.wizards.Wizard.set\lStage">
<polygon fill="white" stroke="black" points="187.5,-0 187.5,-30 344.5,-30 344.5,-0 187.5,-0"/>
<text text-anchor="start" x="195.5" y="-18" font-family="Helvetica,sans-Serif" font-size="10.00">view.editor.wizards.Wizard.set</text>
<text text-anchor="middle" x="266" y="-7" font-family="Helvetica,sans-Serif" font-size="10.00">Stage</text>
</a>
</g>
</g>
<!-- Node1&#45;&gt;Node9 -->
<g id="edge8" class="edge"><title>Node1&#45;&gt;Node9</title>
<path fill="none" stroke="midnightblue" d="M85.1884,-111.827C104.121,-92.445 139.518,-59.1268 176,-40 180.304,-37.7434 184.836,-35.6708 189.48,-33.7703"/>
<polygon fill="midnightblue" stroke="midnightblue" points="191.027,-36.9268 199.135,-30.1072 188.544,-30.382 191.027,-36.9268"/>
</g>
<!-- Node3 -->
<g id="node3" class="node"><title>Node3</title>
<g id="a_node3"><a xlink:href="../../de/d50/classview_1_1_g_u_i_load_style_utility.html#a9540b620f62a09da8127367e897d5129" target="_top" xlink:title="view.GUILoadStyleUtility.attach\lStyles">
<polygon fill="white" stroke="black" points="392.5,-235 392.5,-265 555.5,-265 555.5,-235 392.5,-235"/>
<text text-anchor="start" x="400.5" y="-253" font-family="Helvetica,sans-Serif" font-size="10.00">view.GUILoadStyleUtility.attach</text>
<text text-anchor="middle" x="474" y="-242" font-family="Helvetica,sans-Serif" font-size="10.00">Styles</text>
</a>
</g>
</g>
<!-- Node2&#45;&gt;Node3 -->
<g id="edge2" class="edge"><title>Node2&#45;&gt;Node3</title>
<path fill="none" stroke="midnightblue" d="M341.08,-250C354.316,-250 368.245,-250 381.893,-250"/>
<polygon fill="midnightblue" stroke="midnightblue" points="382.258,-253.5 392.258,-250 382.258,-246.5 382.258,-253.5"/>
</g>
<!-- Node7 -->
<g id="node7" class="node"><title>Node7</title>
<g id="a_node7"><a xlink:href="../../de/d50/classview_1_1_g_u_i_load_style_utility.html#aec297413dba8a98a536fdd9792d27860" target="_top" xlink:title="view.GUILoadStyleUtility.\lGUILoadStyleUtility">
<polygon fill="white" stroke="black" points="408,-88 408,-118 540,-118 540,-88 408,-88"/>
<text text-anchor="start" x="416" y="-106" font-family="Helvetica,sans-Serif" font-size="10.00">view.GUILoadStyleUtility.</text>
<text text-anchor="middle" x="474" y="-95" font-family="Helvetica,sans-Serif" font-size="10.00">GUILoadStyleUtility</text>
</a>
</g>
</g>
<!-- Node6&#45;&gt;Node7 -->
<g id="edge6" class="edge"><title>Node6&#45;&gt;Node7</title>
<path fill="none" stroke="midnightblue" d="M340.208,-103C358.845,-103 378.906,-103 397.647,-103"/>
<polygon fill="midnightblue" stroke="midnightblue" points="397.907,-106.5 407.906,-103 397.906,-99.5001 397.907,-106.5"/>
</g>
</g>
</svg>
        <g id="navigator" transform="translate(0 0)" fill="#404254">
                <rect fill="#f2f5e9" fill-opacity="0.5" stroke="#606060" stroke-width=".5" x="0" y="0" width="60" height="60"/>
                <use id="zoomplus" xlink:href="#zoomPlus" x="17" y="9" onmousedown="handleZoom(evt,'in')"/>
                <use id="zoomminus" xlink:href="#zoomMin" x="42" y="9" onmousedown="handleZoom(evt,'out')"/>
                <use id="reset" xlink:href="#resetDef" x="30" y="36" onmousedown="handleReset()"/>
                <g id="arrowUp" xlink:href="#dirArrow" transform="translate(30 24)" onmousedown="handlePan(0,-1)">
                  <use xlink:href="#rim" fill="#404040">
                        <set attributeName="fill" to="#808080" begin="arrowUp.mouseover" end="arrowUp.mouseout"/>
                  </use>
                  <path fill="none" stroke="white" stroke-width="1.5" d="M0,-3.0v7 M-2.5,-0.5L0,-3.0L2.5,-0.5"/>
                </g>
                <g id="arrowRight" xlink:href="#dirArrow" transform="rotate(90) translate(36 -43)" onmousedown="handlePan(1,0)">
                  <use xlink:href="#rim" fill="#404040">
                        <set attributeName="fill" to="#808080" begin="arrowRight.mouseover" end="arrowRight.mouseout"/>
                  </use>
                  <path fill="none" stroke="white" stroke-width="1.5" d="M0,-3.0v7 M-2.5,-0.5L0,-3.0L2.5,-0.5"/>
                </g>
                <g id="arrowDown" xlink:href="#dirArrow" transform="rotate(180) translate(-30 -48)" onmousedown="handlePan(0,1)">
                  <use xlink:href="#rim" fill="#404040">
                        <set attributeName="fill" to="#808080" begin="arrowDown.mouseover" end="arrowDown.mouseout"/>
                  </use>
                  <path fill="none" stroke="white" stroke-width="1.5" d="M0,-3.0v7 M-2.5,-0.5L0,-3.0L2.5,-0.5"/>
                </g>
                <g id="arrowLeft" xlink:href="#dirArrow" transform="rotate(270) translate(-36 17)" onmousedown="handlePan(-1,0)">
                  <use xlink:href="#rim" fill="#404040">
                        <set attributeName="fill" to="#808080" begin="arrowLeft.mouseover" end="arrowLeft.mouseout"/>
                  </use>
                  <path fill="none" stroke="white" stroke-width="1.5" d="M0,-3.0v7 M-2.5,-0.5L0,-3.0L2.5,-0.5"/>
                </g>
        </g>
        <svg viewBox="0 0 15 15" width="100%" height="30px" preserveAspectRatio="xMaxYMin meet">
         <g id="arrow_out" transform="scale(0.3 0.3)">
          <a xlink:href="classview_1_1editor_1_1wizards_1_1_wizard_utility_acece70a3dea98cde832a608d4aff204d_cgraph_org.svg" target="_base">
           <rect id="button" ry="5" rx="5" y="6" x="6" height="38" width="38"
                fill="#f2f5e9" fill-opacity="0.5" stroke="#606060" stroke-width="1.0"/>
           <path id="arrow"
             d="M 11.500037,31.436501 C 11.940474,20.09759 22.043105,11.32322 32.158766,21.979434 L 37.068811,17.246167 C 37.068811,17.246167 37.088388,32 37.088388,32 L 22.160133,31.978069 C 22.160133,31.978069 26.997745,27.140456 26.997745,27.140456 C 18.528582,18.264221 13.291696,25.230495 11.500037,31.436501 z"
             style="fill:#404040;"/>
          </a>
         </g>
        </svg>
</svg>
