<?xml version="1.0" encoding="UTF-8" standalone="no"?>
<!DOCTYPE svg PUBLIC "-//W3C//DTD SVG 1.1//EN"
 "http://www.w3.org/Graphics/SVG/1.1/DTD/svg11.dtd">
<!-- Generated by graphviz version 2.36.0 (20140111.2315)
 -->
<!-- Title: game_requests.Request.Request Pages: 1 -->
<svg width="398pt" height="104pt"
 viewBox="0.00 0.00 398.00 104.00" xmlns="http://www.w3.org/2000/svg" xmlns:xlink="http://www.w3.org/1999/xlink">
<g id="graph0" class="graph" transform="scale(1 1) rotate(0) translate(4 100)">
<title>game_requests.Request.Request</title>
<polygon fill="white" stroke="none" points="-4,4 -4,-100 394,-100 394,4 -4,4"/>
<!-- Node1 -->
<g id="node1" class="node"><title>Node1</title>
<polygon fill="#bfbfbf" stroke="black" points="0,-38.5 0,-57.5 174,-57.5 174,-38.5 0,-38.5"/>
<text text-anchor="middle" x="87" y="-45.5" font-family="Helvetica,sans-Serif" font-size="10.00">game_requests.Request.Request</text>
</g>
<!-- Node2 -->
<g id="node2" class="node"><title>Node2</title>
<g id="a_node2"><a xlink:href="../../d4/d84/classgame__requests_1_1_request.html#ad34024eb18d5c4bda547beb0b29d01ab" target="_top" xlink:title="game_requests.Request.message">
<polygon fill="white" stroke="black" points="210,-76.5 210,-95.5 390,-95.5 390,-76.5 210,-76.5"/>
<text text-anchor="middle" x="300" y="-83.5" font-family="Helvetica,sans-Serif" font-size="10.00">game_requests.Request.message</text>
</a>
</g>
</g>
<!-- Node1&#45;&gt;Node2 -->
<g id="edge1" class="edge"><title>Node1&#45;&gt;Node2</title>
<path fill="none" stroke="midnightblue" d="M140.972,-57.54C169.817,-62.7348 205.695,-69.1963 235.972,-74.6489"/>
<polygon fill="midnightblue" stroke="midnightblue" points="235.544,-78.1282 246.006,-76.4561 236.785,-71.239 235.544,-78.1282"/>
</g>
<!-- Node3 -->
<g id="node3" class="node"><title>Node3</title>
<g id="a_node3"><a xlink:href="../../d4/d84/classgame__requests_1_1_request.html#a682d8c953ca4310c0cbd4374ba355101" target="_top" xlink:title="game_requests.Request.receiver">
<polygon fill="white" stroke="black" points="213,-38.5 213,-57.5 387,-57.5 387,-38.5 213,-38.5"/>
<text text-anchor="middle" x="300" y="-45.5" font-family="Helvetica,sans-Serif" font-size="10.00">game_requests.Request.receiver</text>
</a>
</g>
</g>
<!-- Node1&#45;&gt;Node3 -->
<g id="edge2" class="edge"><title>Node1&#45;&gt;Node3</title>
<path fill="none" stroke="midnightblue" d="M174.126,-48C183.499,-48 193.083,-48 202.568,-48"/>
<polygon fill="midnightblue" stroke="midnightblue" points="202.807,-51.5001 212.807,-48 202.807,-44.5001 202.807,-51.5001"/>
</g>
<!-- Node4 -->
<g id="node4" class="node"><title>Node4</title>
<g id="a_node4"><a xlink:href="../../d4/d84/classgame__requests_1_1_request.html#af618a155f76b47dc8ec9c61574a019ae" target="_top" xlink:title="game_requests.Request.sender">
<polygon fill="white" stroke="black" points="215.5,-0.5 215.5,-19.5 384.5,-19.5 384.5,-0.5 215.5,-0.5"/>
<text text-anchor="middle" x="300" y="-7.5" font-family="Helvetica,sans-Serif" font-size="10.00">game_requests.Request.sender</text>
</a>
</g>
</g>
<!-- Node1&#45;&gt;Node4 -->
<g id="edge3" class="edge"><title>Node1&#45;&gt;Node4</title>
<path fill="none" stroke="midnightblue" d="M140.972,-38.46C169.817,-33.2652 205.695,-26.8037 235.972,-21.3511"/>
<polygon fill="midnightblue" stroke="midnightblue" points="236.785,-24.761 246.006,-19.5439 235.544,-17.8718 236.785,-24.761"/>
</g>
</g>
</svg>
