<?xml version="1.0" encoding="UTF-8" standalone="no"?>
<!DOCTYPE svg PUBLIC "-//W3C//DTD SVG 1.1//EN"
 "http://www.w3.org/Graphics/SVG/1.1/DTD/svg11.dtd">
<!-- Generated by graphviz version 2.36.0 (20140111.2315)
 -->
<!-- Title: view.runner.RunnerScreen.updateLevelChooser Pages: 1 -->
<svg width="580pt" height="126pt"
 viewBox="0.00 0.00 580.00 126.00" xmlns="http://www.w3.org/2000/svg" xmlns:xlink="http://www.w3.org/1999/xlink">
<g id="graph0" class="graph" transform="scale(1 1) rotate(0) translate(4 122)">
<title>view.runner.RunnerScreen.updateLevelChooser</title>
<polygon fill="white" stroke="none" points="-4,4 -4,-122 576,-122 576,4 -4,4"/>
<!-- Node1 -->
<g id="node1" class="node"><title>Node1</title>
<polygon fill="#bfbfbf" stroke="black" points="0,-44 0,-74 176,-74 176,-44 0,-44"/>
<text text-anchor="start" x="8" y="-62" font-family="Helvetica,sans-Serif" font-size="10.00">view.runner.RunnerScreen.update</text>
<text text-anchor="middle" x="88" y="-51" font-family="Helvetica,sans-Serif" font-size="10.00">LevelChooser</text>
</g>
<!-- Node2 -->
<g id="node2" class="node"><title>Node2</title>
<g id="a_node2"><a xlink:href="../../d6/d8b/classmodel_1_1state_1_1_game_state.html#a2924c42e7974279aab98cac167879520" target="_top" xlink:title="model.state.GameState.get\lCampaigns">
<polygon fill="white" stroke="black" points="229,-88 229,-118 381,-118 381,-88 229,-88"/>
<text text-anchor="start" x="237" y="-106" font-family="Helvetica,sans-Serif" font-size="10.00">model.state.GameState.get</text>
<text text-anchor="middle" x="305" y="-95" font-family="Helvetica,sans-Serif" font-size="10.00">Campaigns</text>
</a>
</g>
</g>
<!-- Node1&#45;&gt;Node2 -->
<g id="edge1" class="edge"><title>Node1&#45;&gt;Node2</title>
<path fill="none" stroke="midnightblue" d="M162.389,-74.0192C181.139,-77.8564 201.434,-82.0097 220.644,-85.9411"/>
<polygon fill="midnightblue" stroke="midnightblue" points="220.078,-89.3977 230.576,-87.9738 221.481,-82.5398 220.078,-89.3977"/>
</g>
<!-- Node3 -->
<g id="node3" class="node"><title>Node3</title>
<g id="a_node3"><a xlink:href="../../de/d21/classmodel_1_1_main_model.html#afd2d3b70172d1f06ef47225fe09c0888" target="_top" xlink:title="model.MainModel.getCurrentGame">
<polygon fill="white" stroke="black" points="212.5,-49.5 212.5,-68.5 397.5,-68.5 397.5,-49.5 212.5,-49.5"/>
<text text-anchor="middle" x="305" y="-56.5" font-family="Helvetica,sans-Serif" font-size="10.00">model.MainModel.getCurrentGame</text>
</a>
</g>
</g>
<!-- Node1&#45;&gt;Node3 -->
<g id="edge2" class="edge"><title>Node1&#45;&gt;Node3</title>
<path fill="none" stroke="midnightblue" d="M176.139,-59C184.672,-59 193.384,-59 202.047,-59"/>
<polygon fill="midnightblue" stroke="midnightblue" points="202.181,-62.5001 212.181,-59 202.181,-55.5001 202.181,-62.5001"/>
</g>
<!-- Node4 -->
<g id="node4" class="node"><title>Node4</title>
<g id="a_node4"><a xlink:href="../../d2/df7/classview_1_1runner_1_1_level_chooser_controller.html#afaeb9f3bcf20a59b97577a8ba3c60c05" target="_top" xlink:title="view.runner.LevelChooser\lController.updateDropDowns">
<polygon fill="white" stroke="black" points="228,-0 228,-30 382,-30 382,-0 228,-0"/>
<text text-anchor="start" x="236" y="-18" font-family="Helvetica,sans-Serif" font-size="10.00">view.runner.LevelChooser</text>
<text text-anchor="middle" x="305" y="-7" font-family="Helvetica,sans-Serif" font-size="10.00">Controller.updateDropDowns</text>
</a>
</g>
</g>
<!-- Node1&#45;&gt;Node4 -->
<g id="edge3" class="edge"><title>Node1&#45;&gt;Node4</title>
<path fill="none" stroke="midnightblue" d="M162.389,-43.9808C181.139,-40.1436 201.434,-35.9903 220.644,-32.0589"/>
<polygon fill="midnightblue" stroke="midnightblue" points="221.481,-35.4602 230.576,-30.0262 220.078,-28.6023 221.481,-35.4602"/>
</g>
<!-- Node5 -->
<g id="node5" class="node"><title>Node5</title>
<g id="a_node5"><a xlink:href="../../d2/df7/classview_1_1runner_1_1_level_chooser_controller.html#a5cc21157c025a3c2eb93b46ece498207" target="_top" xlink:title="view.runner.LevelChooser\lController.initDropDowns">
<polygon fill="white" stroke="black" points="434.5,-0 434.5,-30 571.5,-30 571.5,-0 434.5,-0"/>
<text text-anchor="start" x="442.5" y="-18" font-family="Helvetica,sans-Serif" font-size="10.00">view.runner.LevelChooser</text>
<text text-anchor="middle" x="503" y="-7" font-family="Helvetica,sans-Serif" font-size="10.00">Controller.initDropDowns</text>
</a>
</g>
</g>
<!-- Node4&#45;&gt;Node5 -->
<g id="edge4" class="edge"><title>Node4&#45;&gt;Node5</title>
<path fill="none" stroke="midnightblue" d="M382.059,-15C395.914,-15 410.384,-15 424.286,-15"/>
<polygon fill="midnightblue" stroke="midnightblue" points="424.291,-18.5001 434.291,-15 424.291,-11.5001 424.291,-18.5001"/>
</g>
</g>
</svg>
