<?xml version="1.0" encoding="UTF-8" standalone="no"?>
<!DOCTYPE svg PUBLIC "-//W3C//DTD SVG 1.1//EN"
 "http://www.w3.org/Graphics/SVG/1.1/DTD/svg11.dtd">
<!-- Generated by graphviz version 2.36.0 (20140111.2315)
 -->
<!-- Title: view.GUIScreen Pages: 1 -->
<!--zoomable 612 -->
<svg id="main" version="1.1" xmlns="http://www.w3.org/2000/svg" xmlns:xlink="http://www.w3.org/1999/xlink" xml:space="preserve" onload="init(evt)">
<style type="text/css"><![CDATA[
.edge:hover path { stroke: red; }
.edge:hover polygon { stroke: red; fill: red; }
]]></style>
<script type="text/javascript"><![CDATA[
var edges = document.getElementsByTagName('g');
if (edges && edges.length) {
  for (var i=0;i<edges.length;i++) {
    if (edges[i].id.substr(0,4)=='edge') {
      edges[i].setAttribute('class','edge');
    }
  }
}
]]></script>
        <defs>
                <circle id="rim" cx="0" cy="0" r="7"/>
                <circle id="rim2" cx="0" cy="0" r="3.5"/>
                <g id="zoomPlus">
                        <use xlink:href="#rim" fill="#404040">
                                <set attributeName="fill" to="#808080" begin="zoomplus.mouseover" end="zoomplus.mouseout"/>
                        </use>
                        <path d="M-4,0h8M0,-4v8" fill="none" stroke="white" stroke-width="1.5" pointer-events="none"/>
                </g>
                <g id="zoomMin">
                        <use xlink:href="#rim" fill="#404040">
                                <set attributeName="fill" to="#808080" begin="zoomminus.mouseover" end="zoomminus.mouseout"/>
                        </use>
                        <path d="M-4,0h8" fill="none" stroke="white" stroke-width="1.5" pointer-events="none"/>
                </g>
                <g id="dirArrow">
                        <path fill="none" stroke="white" stroke-width="1.5" d="M0,-3.0v7 M-2.5,-0.5L0,-3.0L2.5,-0.5"/>
                </g>
               <g id="resetDef">
                       <use xlink:href="#rim2" fill="#404040">
                               <set attributeName="fill" to="#808080" begin="reset.mouseover" end="reset.mouseout"/>
                       </use>
               </g>
        </defs>

<script type="text/javascript">
var viewWidth = 2192;
var viewHeight = 612;
var sectionId = 'dynsection-1';
</script>
<script xlink:href="../../svgpan.js"/>
<svg id="graph" class="graph">
<g id="viewport">
<title>view.GUIScreen</title>
<polygon fill="white" stroke="none" points="-4,4 -4,-608 2188,-608 2188,4 -4,4"/>
<!-- Node1 -->
<g id="node1" class="node"><title>Node1</title>
<polygon fill="#bfbfbf" stroke="black" points="1849,-407.5 1849,-426.5 1939,-426.5 1939,-407.5 1849,-407.5"/>
<text text-anchor="middle" x="1894" y="-414.5" font-family="Helvetica,sans-Serif" font-size="10.00">view.GUIScreen</text>
</g>
<!-- Node29 -->
<g id="node29" class="node"><title>Node29</title>
<g id="a_node29"><a xlink:href="../../d1/d75/classview_1_1_main_view.html" target="_top" xlink:title="view.MainView">
<polygon fill="white" stroke="black" points="2100.5,-325.5 2100.5,-344.5 2183.5,-344.5 2183.5,-325.5 2100.5,-325.5"/>
<text text-anchor="middle" x="2142" y="-332.5" font-family="Helvetica,sans-Serif" font-size="10.00">view.MainView</text>
</a>
</g>
</g>
<!-- Node1&#45;&gt;Node29 -->
<g id="edge37" class="edge"><title>Node1&#45;&gt;Node29</title>
<path fill="none" stroke="#9a32cd" stroke-dasharray="5,2" d="M1927.06,-403.673C1942.3,-397.688 1960.89,-390.888 1978,-386 2023.34,-373.043 2037.46,-380.495 2082,-365 2097.19,-359.714 2113.42,-351.237 2125,-344.641"/>
<polygon fill="#9a32cd" stroke="#9a32cd" points="1925.56,-400.502 1917.57,-407.461 1928.16,-407.002 1925.56,-400.502"/>
<text text-anchor="middle" x="2030" y="-389" font-family="Helvetica,sans-Serif" font-size="10.00"> myCurrentController</text>
</g>
<!-- Node2 -->
<g id="node2" class="node"><title>Node2</title>
<g id="a_node2"><a xlink:href="../../d1/d44/classview_1_1_g_u_i_container.html" target="_top" xlink:title="view.GUIContainer">
<polygon fill="white" stroke="black" points="1618.5,-407.5 1618.5,-426.5 1721.5,-426.5 1721.5,-407.5 1618.5,-407.5"/>
<text text-anchor="middle" x="1670" y="-414.5" font-family="Helvetica,sans-Serif" font-size="10.00">view.GUIContainer</text>
</a>
</g>
</g>
<!-- Node2&#45;&gt;Node1 -->
<g id="edge1" class="edge"><title>Node2&#45;&gt;Node1</title>
<path fill="none" stroke="midnightblue" d="M1731.84,-417C1768.91,-417 1815.42,-417 1848.94,-417"/>
<polygon fill="midnightblue" stroke="midnightblue" points="1731.65,-413.5 1721.65,-417 1731.65,-420.5 1731.65,-413.5"/>
</g>
<!-- Node3 -->
<g id="node3" class="node"><title>Node3</title>
<polygon fill="white" stroke="#bfbfbf" points="1387,-482.5 1387,-501.5 1447,-501.5 1447,-482.5 1387,-482.5"/>
<text text-anchor="middle" x="1417" y="-489.5" font-family="Helvetica,sans-Serif" font-size="10.00">Observer</text>
</g>
<!-- Node3&#45;&gt;Node2 -->
<g id="edge2" class="edge"><title>Node3&#45;&gt;Node2</title>
<path fill="none" stroke="midnightblue" d="M1457.03,-486.757C1494.47,-481.006 1552.21,-470.229 1600,-453 1619.32,-446.035 1640.02,-434.65 1653.66,-426.548"/>
<polygon fill="midnightblue" stroke="midnightblue" points="1456.41,-483.311 1447.04,-488.247 1457.44,-490.234 1456.41,-483.311"/>
</g>
<!-- Node3&#45;&gt;Node29 -->
<g id="edge36" class="edge"><title>Node3&#45;&gt;Node29</title>
<path fill="none" stroke="midnightblue" d="M1457.06,-500.408C1566.01,-521.595 1878.63,-566.69 2082,-437 2116.32,-415.111 2132.94,-365.618 2138.63,-344.663"/>
<polygon fill="midnightblue" stroke="midnightblue" points="1457.65,-496.958 1447.16,-498.439 1456.28,-503.823 1457.65,-496.958"/>
</g>
<!-- Node4 -->
<g id="node4" class="node"><title>Node4</title>
<g id="a_node4"><a xlink:href="../../d7/d84/interfaceview_1_1_g_u_i_controller.html" target="_top" xlink:title="view.GUIController">
<polygon fill="white" stroke="black" points="1365.5,-400.5 1365.5,-419.5 1468.5,-419.5 1468.5,-400.5 1365.5,-400.5"/>
<text text-anchor="middle" x="1417" y="-407.5" font-family="Helvetica,sans-Serif" font-size="10.00">view.GUIController</text>
</a>
</g>
</g>
<!-- Node4&#45;&gt;Node2 -->
<g id="edge3" class="edge"><title>Node4&#45;&gt;Node2</title>
<path fill="none" stroke="midnightblue" d="M1479.06,-411.703C1521.74,-412.893 1578.07,-414.464 1618.28,-415.586"/>
<polygon fill="midnightblue" stroke="midnightblue" points="1478.89,-408.197 1468.79,-411.417 1478.69,-415.194 1478.89,-408.197"/>
</g>
<!-- Node5 -->
<g id="node5" class="node"><title>Node5</title>
<polygon fill="white" stroke="#bfbfbf" points="1346,-438.5 1346,-457.5 1488,-457.5 1488,-438.5 1346,-438.5"/>
<text text-anchor="middle" x="1417" y="-445.5" font-family="Helvetica,sans-Serif" font-size="10.00">List&lt; view.GUIContainer &gt;</text>
</g>
<!-- Node5&#45;&gt;Node2 -->
<g id="edge4" class="edge"><title>Node5&#45;&gt;Node2</title>
<path fill="none" stroke="#9a32cd" stroke-dasharray="5,2" d="M1498.36,-438.075C1537.71,-433.215 1583.9,-427.51 1618.29,-423.263"/>
<polygon fill="#9a32cd" stroke="#9a32cd" points="1497.75,-434.624 1488.25,-439.324 1498.6,-441.571 1497.75,-434.624"/>
<text text-anchor="middle" x="1553" y="-441" font-family="Helvetica,sans-Serif" font-size="10.00"> myChildContainers</text>
</g>
<!-- Node6 -->
<g id="node6" class="node"><title>Node6</title>
<g id="a_node6"><a xlink:href="../../da/d8d/classgamemodel_1_1_main_model.html" target="_top" xlink:title="gamemodel.MainModel">
<polygon fill="white" stroke="black" points="1353,-354.5 1353,-373.5 1481,-373.5 1481,-354.5 1353,-354.5"/>
<text text-anchor="middle" x="1417" y="-361.5" font-family="Helvetica,sans-Serif" font-size="10.00">gamemodel.MainModel</text>
</a>
</g>
</g>
<!-- Node6&#45;&gt;Node2 -->
<g id="edge5" class="edge"><title>Node6&#45;&gt;Node2</title>
<path fill="none" stroke="#9a32cd" stroke-dasharray="5,2" d="M1485.97,-375.299C1520.3,-381.36 1562.51,-389.353 1600,-398 1611.99,-400.765 1625.02,-404.233 1636.5,-407.446"/>
<polygon fill="#9a32cd" stroke="#9a32cd" points="1486.5,-371.839 1476.04,-373.562 1485.29,-378.734 1486.5,-371.839"/>
<text text-anchor="middle" x="1553" y="-401" font-family="Helvetica,sans-Serif" font-size="10.00"> myMainModel</text>
</g>
<!-- Node6&#45;&gt;Node29 -->
<g id="edge44" class="edge"><title>Node6&#45;&gt;Node29</title>
<path fill="none" stroke="#9a32cd" stroke-dasharray="5,2" d="M1491.23,-362.512C1613.64,-359.764 1867.53,-352.956 2082,-340 2087.95,-339.64 2094.23,-339.187 2100.39,-338.701"/>
<polygon fill="#9a32cd" stroke="#9a32cd" points="1491.14,-359.013 1481.22,-362.734 1491.3,-366.011 1491.14,-359.013"/>
<text text-anchor="middle" x="1775" y="-359" font-family="Helvetica,sans-Serif" font-size="10.00"> myMainModel</text>
</g>
<!-- Node7 -->
<g id="node7" class="node"><title>Node7</title>
<polygon fill="white" stroke="#bfbfbf" points="1038.5,-472.5 1038.5,-491.5 1109.5,-491.5 1109.5,-472.5 1038.5,-472.5"/>
<text text-anchor="middle" x="1074" y="-479.5" font-family="Helvetica,sans-Serif" font-size="10.00">Observable</text>
</g>
<!-- Node7&#45;&gt;Node6 -->
<g id="edge6" class="edge"><title>Node7&#45;&gt;Node6</title>
<path fill="none" stroke="midnightblue" d="M1119.71,-486.089C1174.86,-488.646 1268.57,-484.563 1328,-436 1344.68,-422.371 1330.67,-406.137 1346,-391 1353.88,-383.22 1364.24,-377.629 1374.57,-373.633"/>
<polygon fill="midnightblue" stroke="midnightblue" points="1119.73,-482.584 1109.55,-485.522 1119.34,-489.574 1119.73,-482.584"/>
</g>
<!-- Node8 -->
<g id="node8" class="node"><title>Node8</title>
<g id="a_node8"><a xlink:href="../../dd/dec/classgame__engine_1_1game_representation_1_1state_representation_1_1_campaign_state.html" target="_top" xlink:title="game_engine.gameRepresentation.state\lRepresentation.CampaignState">
<polygon fill="white" stroke="black" points="968,-374 968,-404 1180,-404 1180,-374 968,-374"/>
<text text-anchor="start" x="976" y="-392" font-family="Helvetica,sans-Serif" font-size="10.00">game_engine.gameRepresentation.state</text>
<text text-anchor="middle" x="1074" y="-381" font-family="Helvetica,sans-Serif" font-size="10.00">Representation.CampaignState</text>
</a>
</g>
</g>
<!-- Node8&#45;&gt;Node6 -->
<g id="edge7" class="edge"><title>Node8&#45;&gt;Node6</title>
<path fill="none" stroke="#9a32cd" stroke-dasharray="5,2" d="M1190.15,-380.558C1244.54,-376.571 1307.36,-371.965 1352.91,-368.625"/>
<polygon fill="#9a32cd" stroke="#9a32cd" points="1189.81,-377.073 1180.09,-381.295 1190.32,-384.055 1189.81,-377.073"/>
<text text-anchor="middle" x="1263" y="-383" font-family="Helvetica,sans-Serif" font-size="10.00"> myCurrentCampaignState</text>
</g>
<!-- Node9 -->
<g id="node9" class="node"><title>Node9</title>
<g id="a_node9"><a xlink:href="../../da/d2f/classgame__engine_1_1game_representation_1_1state_representation_1_1_describable_state.html" target="_top" xlink:title="game_engine.gameRepresentation.state\lRepresentation.DescribableState">
<polygon fill="white" stroke="black" points="571,-377 571,-407 783,-407 783,-377 571,-377"/>
<text text-anchor="start" x="579" y="-395" font-family="Helvetica,sans-Serif" font-size="10.00">game_engine.gameRepresentation.state</text>
<text text-anchor="middle" x="677" y="-384" font-family="Helvetica,sans-Serif" font-size="10.00">Representation.DescribableState</text>
</a>
</g>
</g>
<!-- Node9&#45;&gt;Node8 -->
<g id="edge8" class="edge"><title>Node9&#45;&gt;Node8</title>
<path fill="none" stroke="midnightblue" d="M793.25,-391.125C848.424,-390.706 914.023,-390.207 967.827,-389.799"/>
<polygon fill="midnightblue" stroke="midnightblue" points="793.048,-387.626 783.075,-391.202 793.101,-394.626 793.048,-387.626"/>
</g>
<!-- Node12 -->
<g id="node12" class="node"><title>Node12</title>
<g id="a_node12"><a xlink:href="../../df/ddb/classgame__engine_1_1game_representation_1_1state_representation_1_1_game_state.html" target="_top" xlink:title="game_engine.gameRepresentation.state\lRepresentation.GameState">
<polygon fill="white" stroke="black" points="968,-423 968,-453 1180,-453 1180,-423 968,-423"/>
<text text-anchor="start" x="976" y="-441" font-family="Helvetica,sans-Serif" font-size="10.00">game_engine.gameRepresentation.state</text>
<text text-anchor="middle" x="1074" y="-430" font-family="Helvetica,sans-Serif" font-size="10.00">Representation.GameState</text>
</a>
</g>
</g>
<!-- Node9&#45;&gt;Node12 -->
<g id="edge12" class="edge"><title>Node9&#45;&gt;Node12</title>
<path fill="none" stroke="midnightblue" d="M793.25,-405.422C848.424,-411.847 914.023,-419.486 967.827,-425.752"/>
<polygon fill="midnightblue" stroke="midnightblue" points="793.412,-401.917 783.075,-404.237 792.603,-408.87 793.412,-401.917"/>
</g>
<!-- Node25 -->
<g id="node25" class="node"><title>Node25</title>
<g id="a_node25"><a xlink:href="../../d3/d7a/classgame__engine_1_1game_representation_1_1state_representation_1_1_level_state.html" target="_top" xlink:title="game_engine.gameRepresentation.state\lRepresentation.LevelState">
<polygon fill="white" stroke="black" points="968,-209 968,-239 1180,-239 1180,-209 968,-209"/>
<text text-anchor="start" x="976" y="-227" font-family="Helvetica,sans-Serif" font-size="10.00">game_engine.gameRepresentation.state</text>
<text text-anchor="middle" x="1074" y="-216" font-family="Helvetica,sans-Serif" font-size="10.00">Representation.LevelState</text>
</a>
</g>
</g>
<!-- Node9&#45;&gt;Node25 -->
<g id="edge29" class="edge"><title>Node9&#45;&gt;Node25</title>
<path fill="none" stroke="midnightblue" d="M793.467,-385.897C855.539,-380.68 924.463,-371.164 950,-354 963.223,-345.113 958.101,-335.484 968,-323 994.308,-289.823 1031.64,-257.305 1053.98,-239.035"/>
<polygon fill="midnightblue" stroke="midnightblue" points="792.858,-382.435 783.173,-386.729 793.422,-389.412 792.858,-382.435"/>
</g>
<!-- Node10 -->
<g id="node10" class="node"><title>Node10</title>
<g id="a_node10"><a xlink:href="../../df/d74/interfaceutil_1_1_j_s_o_nable.html" target="_top" xlink:title="util.JSONable">
<polygon fill="white" stroke="black" points="118,-105.5 118,-124.5 196,-124.5 196,-105.5 118,-105.5"/>
<text text-anchor="middle" x="157" y="-112.5" font-family="Helvetica,sans-Serif" font-size="10.00">util.JSONable</text>
</a>
</g>
</g>
<!-- Node10&#45;&gt;Node9 -->
<g id="edge9" class="edge"><title>Node10&#45;&gt;Node9</title>
<path fill="none" stroke="midnightblue" d="M206.55,-115.908C241.124,-119.191 286.212,-129.268 314,-158 337.831,-182.641 306.9,-209.652 332,-233 388.067,-285.153 447.72,-206.989 502,-261 535.873,-294.705 486.054,-333.368 520,-367 533.737,-380.61 551.739,-388.62 570.615,-393.082"/>
<polygon fill="midnightblue" stroke="midnightblue" points="206.432,-112.388 196.189,-115.094 205.884,-119.366 206.432,-112.388"/>
</g>
<!-- Node23 -->
<g id="node23" class="node"><title>Node23</title>
<g id="a_node23"><a xlink:href="../../dc/d2d/classgame__engine_1_1game_representation_1_1state_representation_1_1game_element_1_1_game_element_state.html" target="_top" xlink:title="game_engine.gameRepresentation.state\lRepresentation.gameElement.GameElementState">
<polygon fill="white" stroke="black" points="548.5,-0 548.5,-30 805.5,-30 805.5,-0 548.5,-0"/>
<text text-anchor="start" x="556.5" y="-18" font-family="Helvetica,sans-Serif" font-size="10.00">game_engine.gameRepresentation.state</text>
<text text-anchor="middle" x="677" y="-7" font-family="Helvetica,sans-Serif" font-size="10.00">Representation.gameElement.GameElementState</text>
</a>
</g>
</g>
<!-- Node10&#45;&gt;Node23 -->
<g id="edge24" class="edge"><title>Node10&#45;&gt;Node23</title>
<path fill="none" stroke="midnightblue" d="M206.338,-103.979C275.597,-88.3876 407.168,-59.5081 520,-39 537.12,-35.8884 555.345,-32.8437 573.073,-30.0243"/>
<polygon fill="midnightblue" stroke="midnightblue" points="205.16,-100.657 196.176,-106.272 206.701,-107.485 205.16,-100.657"/>
</g>
<!-- Node11 -->
<g id="node11" class="node"><title>Node11</title>
<polygon fill="white" stroke="#bfbfbf" points="557,-426 557,-456 797,-456 797,-426 557,-426"/>
<text text-anchor="start" x="565" y="-444" font-family="Helvetica,sans-Serif" font-size="10.00">List&lt; game_engine.gameRepresentation.state</text>
<text text-anchor="middle" x="677" y="-433" font-family="Helvetica,sans-Serif" font-size="10.00">Representation.LevelState &gt;</text>
</g>
<!-- Node11&#45;&gt;Node8 -->
<g id="edge10" class="edge"><title>Node11&#45;&gt;Node8</title>
<path fill="none" stroke="#9a32cd" stroke-dasharray="5,2" d="M802.178,-424.653C855.455,-417.639 917.029,-409.533 967.99,-402.824"/>
<polygon fill="#9a32cd" stroke="#9a32cd" points="801.443,-421.219 791.985,-425.994 802.357,-428.159 801.443,-421.219"/>
<text text-anchor="middle" x="901" y="-420" font-family="Helvetica,sans-Serif" font-size="10.00"> myLevels</text>
</g>
<!-- Node12&#45;&gt;Node6 -->
<g id="edge11" class="edge"><title>Node12&#45;&gt;Node6</title>
<path fill="none" stroke="#9a32cd" stroke-dasharray="5,2" d="M1190.22,-422.657C1233.74,-415.757 1283.49,-406.534 1328,-395 1350.27,-389.231 1374.91,-380.324 1392.44,-373.535"/>
<polygon fill="#9a32cd" stroke="#9a32cd" points="1189.51,-419.226 1180.17,-424.228 1190.59,-426.142 1189.51,-419.226"/>
<text text-anchor="middle" x="1263" y="-424" font-family="Helvetica,sans-Serif" font-size="10.00"> myGameState</text>
</g>
<!-- Node13 -->
<g id="node13" class="node"><title>Node13</title>
<g id="a_node13"><a xlink:href="../../d9/d7e/classgamemodel_1_1_game_universe.html" target="_top" xlink:title="gamemodel.GameUniverse">
<polygon fill="white" stroke="black" points="602.5,-524.5 602.5,-543.5 751.5,-543.5 751.5,-524.5 602.5,-524.5"/>
<text text-anchor="middle" x="677" y="-531.5" font-family="Helvetica,sans-Serif" font-size="10.00">gamemodel.GameUniverse</text>
</a>
</g>
</g>
<!-- Node13&#45;&gt;Node12 -->
<g id="edge13" class="edge"><title>Node13&#45;&gt;Node12</title>
<path fill="none" stroke="#9a32cd" stroke-dasharray="5,2" d="M761.72,-525.607C785.222,-522.618 810.713,-518.777 834,-514 886.508,-503.228 903.787,-508.156 950,-481 959.754,-475.268 958.124,-468.519 968,-463 974.952,-459.115 982.49,-455.831 990.227,-453.056"/>
<polygon fill="#9a32cd" stroke="#9a32cd" points="761.276,-522.136 751.781,-526.837 762.135,-529.083 761.276,-522.136"/>
<text text-anchor="middle" x="901" y="-514" font-family="Helvetica,sans-Serif" font-size="10.00"> myGameUniverse</text>
</g>
<!-- Node14 -->
<g id="node14" class="node"><title>Node14</title>
<polygon fill="white" stroke="#bfbfbf" points="0.5,-573 0.5,-603 313.5,-603 313.5,-573 0.5,-573"/>
<text text-anchor="start" x="8.5" y="-591" font-family="Helvetica,sans-Serif" font-size="10.00">Set&lt; game_engine.gameRepresentation.state</text>
<text text-anchor="middle" x="157" y="-580" font-family="Helvetica,sans-Serif" font-size="10.00">Representation.gameElement.DrawableGameElementState &gt;</text>
</g>
<!-- Node14&#45;&gt;Node13 -->
<g id="edge14" class="edge"><title>Node14&#45;&gt;Node13</title>
<path fill="none" stroke="#9a32cd" stroke-dasharray="5,2" d="M312.049,-571.941C408.035,-561.935 527.168,-549.515 602.414,-541.671"/>
<polygon fill="#9a32cd" stroke="#9a32cd" points="311.531,-568.476 301.948,-572.994 312.257,-575.438 311.531,-568.476"/>
<text text-anchor="middle" x="417" y="-572" font-family="Helvetica,sans-Serif" font-size="10.00"> myDrawableGameElementStates</text>
</g>
<!-- Node15 -->
<g id="node15" class="node"><title>Node15</title>
<polygon fill="white" stroke="#bfbfbf" points="37,-285.5 37,-326.5 277,-326.5 277,-285.5 37,-285.5"/>
<text text-anchor="start" x="45" y="-314.5" font-family="Helvetica,sans-Serif" font-size="10.00">Set&lt; game_engine.gameRepresentation.state</text>
<text text-anchor="start" x="45" y="-303.5" font-family="Helvetica,sans-Serif" font-size="10.00">Representation.gameElement.Attribute</text>
<text text-anchor="middle" x="157" y="-292.5" font-family="Helvetica,sans-Serif" font-size="10.00">&lt; Number &gt; &gt;</text>
</g>
<!-- Node15&#45;&gt;Node13 -->
<g id="edge15" class="edge"><title>Node15&#45;&gt;Node13</title>
<path fill="none" stroke="#9a32cd" stroke-dasharray="5,2" d="M229.439,-330.202C304.161,-358.269 421.555,-410.426 502,-485 513.125,-495.313 507.24,-505.796 520,-514 544.116,-529.505 574.693,-535.656 602.374,-537.517"/>
<polygon fill="#9a32cd" stroke="#9a32cd" points="230.233,-326.764 219.639,-326.568 227.798,-333.327 230.233,-326.764"/>
<text text-anchor="middle" x="417" y="-488" font-family="Helvetica,sans-Serif" font-size="10.00"> myNumericalAttributes</text>
</g>
<!-- Node15&#45;&gt;Node23 -->
<g id="edge25" class="edge"><title>Node15&#45;&gt;Node23</title>
<path fill="none" stroke="#9a32cd" stroke-dasharray="5,2" d="M230.387,-282.181C325.999,-250.067 484.416,-194.335 502,-172 538.898,-125.132 478.205,-81.5595 520,-39 528.16,-30.6908 537.91,-24.4791 548.497,-19.8974"/>
<polygon fill="#9a32cd" stroke="#9a32cd" points="229.137,-278.909 220.767,-285.404 231.361,-285.546 229.137,-278.909"/>
<text text-anchor="middle" x="417" y="-247" font-family="Helvetica,sans-Serif" font-size="10.00"> myNumericalAttributes</text>
</g>
<!-- Node15&#45;&gt;Node25 -->
<g id="edge31" class="edge"><title>Node15&#45;&gt;Node25</title>
<path fill="none" stroke="#9a32cd" stroke-dasharray="5,2" d="M287.043,-317.09C352.876,-318.698 433.334,-314.324 502,-292 511.144,-289.027 510.95,-283.247 520,-280 560.987,-265.295 819.092,-243.487 967.768,-231.902"/>
<polygon fill="#9a32cd" stroke="#9a32cd" points="287.122,-313.591 277.023,-316.797 286.917,-320.588 287.122,-313.591"/>
<text text-anchor="middle" x="677" y="-283" font-family="Helvetica,sans-Serif" font-size="10.00"> myNumericalAttributes</text>
</g>
<!-- Node16 -->
<g id="node16" class="node"><title>Node16</title>
<polygon fill="white" stroke="#bfbfbf" points="36,-513.5 36,-554.5 278,-554.5 278,-513.5 36,-513.5"/>
<text text-anchor="start" x="44" y="-542.5" font-family="Helvetica,sans-Serif" font-size="10.00">Set&lt; game_engine.gameRepresentation.state</text>
<text text-anchor="start" x="44" y="-531.5" font-family="Helvetica,sans-Serif" font-size="10.00">Representation.gameElement.SelectableGame</text>
<text text-anchor="middle" x="157" y="-520.5" font-family="Helvetica,sans-Serif" font-size="10.00">ElementState &gt;</text>
</g>
<!-- Node16&#45;&gt;Node13 -->
<g id="edge16" class="edge"><title>Node16&#45;&gt;Node13</title>
<path fill="none" stroke="#9a32cd" stroke-dasharray="5,2" d="M288.241,-534C387.462,-534 520.495,-534 602.127,-534"/>
<polygon fill="#9a32cd" stroke="#9a32cd" points="288.142,-530.5 278.142,-534 288.142,-537.5 288.142,-530.5"/>
<text text-anchor="middle" x="417" y="-537" font-family="Helvetica,sans-Serif" font-size="10.00"> mySelectableGameElementStates</text>
</g>
<!-- Node17 -->
<g id="node17" class="node"><title>Node17</title>
<polygon fill="white" stroke="#bfbfbf" points="22.5,-465 22.5,-495 291.5,-495 291.5,-465 22.5,-465"/>
<text text-anchor="start" x="30.5" y="-483" font-family="Helvetica,sans-Serif" font-size="10.00">Set&lt; game_engine.gameRepresentation.state</text>
<text text-anchor="middle" x="157" y="-472" font-family="Helvetica,sans-Serif" font-size="10.00">Representation.gameElement.GameElementState &gt;</text>
</g>
<!-- Node17&#45;&gt;Node13 -->
<g id="edge17" class="edge"><title>Node17&#45;&gt;Node13</title>
<path fill="none" stroke="#9a32cd" stroke-dasharray="5,2" d="M301.691,-494.979C399.304,-505.155 524.373,-518.193 602.354,-526.323"/>
<polygon fill="#9a32cd" stroke="#9a32cd" points="302.044,-491.497 291.735,-493.941 301.318,-498.46 302.044,-491.497"/>
<text text-anchor="middle" x="417" y="-518" font-family="Helvetica,sans-Serif" font-size="10.00"> myGameElementStates</text>
</g>
<!-- Node18 -->
<g id="node18" class="node"><title>Node18</title>
<polygon fill="white" stroke="#bfbfbf" points="37,-167.5 37,-208.5 277,-208.5 277,-167.5 37,-167.5"/>
<text text-anchor="start" x="45" y="-196.5" font-family="Helvetica,sans-Serif" font-size="10.00">Set&lt; game_engine.gameRepresentation.state</text>
<text text-anchor="start" x="45" y="-185.5" font-family="Helvetica,sans-Serif" font-size="10.00">Representation.gameElement.Attribute</text>
<text text-anchor="middle" x="157" y="-174.5" font-family="Helvetica,sans-Serif" font-size="10.00">&lt; String &gt; &gt;</text>
</g>
<!-- Node18&#45;&gt;Node13 -->
<g id="edge18" class="edge"><title>Node18&#45;&gt;Node13</title>
<path fill="none" stroke="#9a32cd" stroke-dasharray="5,2" d="M214.043,-212.659C306.824,-253.992 483.972,-335.259 502,-361 541.278,-417.082 471.838,-465.334 520,-514 541.128,-535.348 572.901,-542.043 602.271,-542.736"/>
<polygon fill="#9a32cd" stroke="#9a32cd" points="215.352,-209.411 204.792,-208.546 212.507,-215.807 215.352,-209.411"/>
<text text-anchor="middle" x="417" y="-364" font-family="Helvetica,sans-Serif" font-size="10.00"> myStringAttributes</text>
</g>
<!-- Node18&#45;&gt;Node23 -->
<g id="edge27" class="edge"><title>Node18&#45;&gt;Node23</title>
<path fill="none" stroke="#9a32cd" stroke-dasharray="5,2" d="M286.922,-169.656C357.084,-154.108 441.625,-125.674 502,-74 515.289,-62.626 505.807,-49.2235 520,-39 528.671,-32.754 538.321,-27.854 548.45,-24.035"/>
<polygon fill="#9a32cd" stroke="#9a32cd" points="286.161,-166.24 277.122,-171.766 287.634,-173.083 286.161,-166.24"/>
<text text-anchor="middle" x="417" y="-160" font-family="Helvetica,sans-Serif" font-size="10.00"> myTextualAttributes</text>
</g>
<!-- Node18&#45;&gt;Node25 -->
<g id="edge34" class="edge"><title>Node18&#45;&gt;Node25</title>
<path fill="none" stroke="#9a32cd" stroke-dasharray="5,2" d="M287.341,-193.089C469.832,-200.269 799.373,-213.234 967.759,-219.859"/>
<polygon fill="#9a32cd" stroke="#9a32cd" points="287.281,-189.584 277.151,-192.688 287.006,-196.578 287.281,-189.584"/>
<text text-anchor="middle" x="677" y="-218" font-family="Helvetica,sans-Serif" font-size="10.00"> myTextualAttributes</text>
</g>
<!-- Node19 -->
<g id="node19" class="node"><title>Node19</title>
<polygon fill="white" stroke="#bfbfbf" points="557,-475 557,-505 797,-505 797,-475 557,-475"/>
<text text-anchor="start" x="565" y="-493" font-family="Helvetica,sans-Serif" font-size="10.00">List&lt; game_engine.gameRepresentation.state</text>
<text text-anchor="middle" x="677" y="-482" font-family="Helvetica,sans-Serif" font-size="10.00">Representation.CampaignState &gt;</text>
</g>
<!-- Node19&#45;&gt;Node12 -->
<g id="edge19" class="edge"><title>Node19&#45;&gt;Node12</title>
<path fill="none" stroke="#9a32cd" stroke-dasharray="5,2" d="M802.178,-473.653C855.455,-466.639 917.029,-458.533 967.99,-451.824"/>
<polygon fill="#9a32cd" stroke="#9a32cd" points="801.443,-470.219 791.985,-474.994 802.357,-477.159 801.443,-470.219"/>
<text text-anchor="middle" x="901" y="-469" font-family="Helvetica,sans-Serif" font-size="10.00"> myCampaigns</text>
</g>
<!-- Node20 -->
<g id="node20" class="node"><title>Node20</title>
<g id="a_node20"><a xlink:href="../../d3/d14/classutil_1_1_save_load_utility.html" target="_top" xlink:title="util.SaveLoadUtility">
<polygon fill="white" stroke="black" points="1020,-332.5 1020,-351.5 1128,-351.5 1128,-332.5 1020,-332.5"/>
<text text-anchor="middle" x="1074" y="-339.5" font-family="Helvetica,sans-Serif" font-size="10.00">util.SaveLoadUtility</text>
</a>
</g>
</g>
<!-- Node20&#45;&gt;Node6 -->
<g id="edge20" class="edge"><title>Node20&#45;&gt;Node6</title>
<path fill="none" stroke="#9a32cd" stroke-dasharray="5,2" d="M1138.67,-342.31C1189.91,-343.03 1263.71,-345.126 1328,-351 1337.69,-351.885 1347.94,-353.122 1357.89,-354.484"/>
<polygon fill="#9a32cd" stroke="#9a32cd" points="1138.46,-338.807 1128.41,-342.18 1138.37,-345.807 1138.46,-338.807"/>
<text text-anchor="middle" x="1263" y="-354" font-family="Helvetica,sans-Serif" font-size="10.00"> mySLUtil</text>
</g>
<!-- Node21 -->
<g id="node21" class="node"><title>Node21</title>
<g id="a_node21"><a xlink:href="../../df/d88/classutil_1_1_default_resource.html" target="_top" xlink:title="util.DefaultResource">
<polygon fill="white" stroke="black" points="621,-338.5 621,-357.5 733,-357.5 733,-338.5 621,-338.5"/>
<text text-anchor="middle" x="677" y="-345.5" font-family="Helvetica,sans-Serif" font-size="10.00">util.DefaultResource</text>
</a>
</g>
</g>
<!-- Node21&#45;&gt;Node20 -->
<g id="edge21" class="edge"><title>Node21&#45;&gt;Node20</title>
<path fill="none" stroke="#9a32cd" stroke-dasharray="5,2" d="M743.459,-347.006C820.906,-345.829 948.342,-343.894 1019.93,-342.806"/>
<polygon fill="#9a32cd" stroke="#9a32cd" points="743.285,-343.508 733.339,-347.159 743.391,-350.507 743.285,-343.508"/>
<text text-anchor="middle" x="901" y="-349" font-family="Helvetica,sans-Serif" font-size="10.00"> myDefaultResource</text>
</g>
<!-- Node22 -->
<g id="node22" class="node"><title>Node22</title>
<polygon fill="white" stroke="#bfbfbf" points="656.5,-300.5 656.5,-319.5 697.5,-319.5 697.5,-300.5 656.5,-300.5"/>
<text text-anchor="middle" x="677" y="-307.5" font-family="Helvetica,sans-Serif" font-size="10.00">Gson</text>
</g>
<!-- Node22&#45;&gt;Node20 -->
<g id="edge22" class="edge"><title>Node22&#45;&gt;Node20</title>
<path fill="none" stroke="#9a32cd" stroke-dasharray="5,2" d="M707.95,-311.743C758.08,-314.738 862.135,-321.29 950,-329 972.888,-331.008 998.131,-333.609 1019.76,-335.956"/>
<polygon fill="#9a32cd" stroke="#9a32cd" points="708.003,-308.24 697.814,-311.142 707.589,-315.228 708.003,-308.24"/>
<text text-anchor="middle" x="901" y="-332" font-family="Helvetica,sans-Serif" font-size="10.00"> myGson</text>
</g>
<!-- Node23&#45;&gt;Node6 -->
<g id="edge23" class="edge"><title>Node23&#45;&gt;Node6</title>
<path fill="none" stroke="#9a32cd" stroke-dasharray="5,2" d="M806.136,-32.0858C815.625,-34.1518 824.999,-36.4491 834,-39 1067.92,-105.294 1136.15,-124.641 1328,-274 1360.93,-299.641 1393.71,-337.12 1408.23,-354.499"/>
<polygon fill="#9a32cd" stroke="#9a32cd" points="806.722,-28.6327 796.218,-30.0155 805.292,-35.485 806.722,-28.6327"/>
<text text-anchor="middle" x="1074" y="-171" font-family="Helvetica,sans-Serif" font-size="10.00"> myEditorSelectedElement</text>
</g>
<!-- Node24 -->
<g id="node24" class="node"><title>Node24</title>
<polygon fill="white" stroke="#bfbfbf" points="103.5,-0 103.5,-30 210.5,-30 210.5,-0 103.5,-0"/>
<text text-anchor="start" x="111.5" y="-18" font-family="Helvetica,sans-Serif" font-size="10.00">Map&lt; String, List&lt;</text>
<text text-anchor="middle" x="157" y="-7" font-family="Helvetica,sans-Serif" font-size="10.00"> String &gt; &gt;</text>
</g>
<!-- Node24&#45;&gt;Node23 -->
<g id="edge26" class="edge"><title>Node24&#45;&gt;Node23</title>
<path fill="none" stroke="#9a32cd" stroke-dasharray="5,2" d="M220.543,-15C301.374,-15 444.082,-15 548.268,-15"/>
<polygon fill="#9a32cd" stroke="#9a32cd" points="220.519,-11.5001 210.519,-15 220.519,-18.5001 220.519,-11.5001"/>
<text text-anchor="middle" x="417" y="-18" font-family="Helvetica,sans-Serif" font-size="10.00"> myActions</text>
</g>
<!-- Node25&#45;&gt;Node6 -->
<g id="edge28" class="edge"><title>Node25&#45;&gt;Node6</title>
<path fill="none" stroke="#9a32cd" stroke-dasharray="5,2" d="M1121.33,-243.023C1195.14,-273.326 1336.77,-331.471 1392.57,-354.382"/>
<polygon fill="#9a32cd" stroke="#9a32cd" points="1122.4,-239.676 1111.82,-239.115 1119.74,-246.151 1122.4,-239.676"/>
<text text-anchor="middle" x="1263" y="-330" font-family="Helvetica,sans-Serif" font-size="10.00"> myCurrentLevelState</text>
</g>
<!-- Node26 -->
<g id="node26" class="node"><title>Node26</title>
<polygon fill="white" stroke="#bfbfbf" points="556,-146.5 556,-187.5 798,-187.5 798,-146.5 556,-146.5"/>
<text text-anchor="start" x="564" y="-175.5" font-family="Helvetica,sans-Serif" font-size="10.00">List&lt; game_engine.gameRepresentation.state</text>
<text text-anchor="start" x="564" y="-164.5" font-family="Helvetica,sans-Serif" font-size="10.00">Representation.gameElement.SelectableGame</text>
<text text-anchor="middle" x="677" y="-153.5" font-family="Helvetica,sans-Serif" font-size="10.00">ElementState &gt;</text>
</g>
<!-- Node26&#45;&gt;Node25 -->
<g id="edge30" class="edge"><title>Node26&#45;&gt;Node25</title>
<path fill="none" stroke="#9a32cd" stroke-dasharray="5,2" d="M808.245,-180.088C853.261,-185.203 903.951,-191.625 950,-199 967.644,-201.826 986.604,-205.406 1004.23,-208.968"/>
<polygon fill="#9a32cd" stroke="#9a32cd" points="808.462,-176.59 798.133,-178.95 807.679,-183.546 808.462,-176.59"/>
<text text-anchor="middle" x="901" y="-202" font-family="Helvetica,sans-Serif" font-size="10.00"> myUnits</text>
</g>
<!-- Node27 -->
<g id="node27" class="node"><title>Node27</title>
<polygon fill="white" stroke="#bfbfbf" points="520.5,-98 520.5,-128 833.5,-128 833.5,-98 520.5,-98"/>
<text text-anchor="start" x="528.5" y="-116" font-family="Helvetica,sans-Serif" font-size="10.00">List&lt; game_engine.gameRepresentation.state</text>
<text text-anchor="middle" x="677" y="-105" font-family="Helvetica,sans-Serif" font-size="10.00">Representation.gameElement.DrawableGameElementState &gt;</text>
</g>
<!-- Node27&#45;&gt;Node25 -->
<g id="edge32" class="edge"><title>Node27&#45;&gt;Node25</title>
<path fill="none" stroke="#9a32cd" stroke-dasharray="5,2" d="M797.72,-129.762C810.015,-131.978 822.286,-134.394 834,-137 886.443,-148.666 899.459,-152.781 950,-171 981.499,-182.355 1016.48,-197.705 1041.06,-208.963"/>
<polygon fill="#9a32cd" stroke="#9a32cd" points="798.319,-126.314 787.864,-128.028 797.107,-133.208 798.319,-126.314"/>
<text text-anchor="middle" x="901" y="-174" font-family="Helvetica,sans-Serif" font-size="10.00"> myTerrains</text>
</g>
<!-- Node28 -->
<g id="node28" class="node"><title>Node28</title>
<polygon fill="white" stroke="#bfbfbf" points="542.5,-49 542.5,-79 811.5,-79 811.5,-49 542.5,-49"/>
<text text-anchor="start" x="550.5" y="-67" font-family="Helvetica,sans-Serif" font-size="10.00">List&lt; game_engine.gameRepresentation.state</text>
<text text-anchor="middle" x="677" y="-56" font-family="Helvetica,sans-Serif" font-size="10.00">Representation.gameElement.GameElementState &gt;</text>
</g>
<!-- Node28&#45;&gt;Node25 -->
<g id="edge33" class="edge"><title>Node28&#45;&gt;Node25</title>
<path fill="none" stroke="#9a32cd" stroke-dasharray="5,2" d="M815.668,-81.0471C860.369,-90.3892 908.98,-104.801 950,-127 992.573,-150.04 1035.41,-187.936 1057.56,-208.889"/>
<polygon fill="#9a32cd" stroke="#9a32cd" points="816.093,-77.5623 805.598,-79.0132 814.707,-84.4237 816.093,-77.5623"/>
<text text-anchor="middle" x="901" y="-130" font-family="Helvetica,sans-Serif" font-size="10.00"> myGoals</text>
</g>
<!-- Node29&#45;&gt;Node1 -->
<g id="edge35" class="edge"><title>Node29&#45;&gt;Node1</title>
<path fill="none" stroke="#9a32cd" stroke-dasharray="5,2" d="M2129.62,-353.429C2119.23,-368.483 2102.4,-388.868 2082,-399 2037.16,-421.271 1978.86,-423.305 1939.36,-421.365"/>
<polygon fill="#9a32cd" stroke="#9a32cd" points="2132.67,-355.164 2135.24,-344.884 2126.82,-351.32 2132.67,-355.164"/>
<text text-anchor="middle" x="2030" y="-425" font-family="Helvetica,sans-Serif" font-size="10.00"> myMainView</text>
</g>
<!-- Node30 -->
<g id="node30" class="node"><title>Node30</title>
<polygon fill="white" stroke="#bfbfbf" points="1871.5,-306.5 1871.5,-325.5 1916.5,-325.5 1916.5,-306.5 1871.5,-306.5"/>
<text text-anchor="middle" x="1894" y="-313.5" font-family="Helvetica,sans-Serif" font-size="10.00">Stage</text>
</g>
<!-- Node30&#45;&gt;Node29 -->
<g id="edge38" class="edge"><title>Node30&#45;&gt;Node29</title>
<path fill="none" stroke="#9a32cd" stroke-dasharray="5,2" d="M1926.84,-317.903C1964.07,-320.2 2027.55,-324.34 2082,-329 2087.95,-329.509 2094.23,-330.096 2100.39,-330.698"/>
<polygon fill="#9a32cd" stroke="#9a32cd" points="1926.81,-314.394 1916.61,-317.278 1926.38,-321.381 1926.81,-314.394"/>
<text text-anchor="middle" x="2030" y="-332" font-family="Helvetica,sans-Serif" font-size="10.00"> myStage</text>
</g>
<!-- Node31 -->
<g id="node31" class="node"><title>Node31</title>
<g id="a_node31"><a xlink:href="../../de/d50/classview_1_1_g_u_i_load_style_utility.html" target="_top" xlink:title="view.GUILoadStyleUtility">
<polygon fill="white" stroke="black" points="1828.5,-192.5 1828.5,-211.5 1959.5,-211.5 1959.5,-192.5 1828.5,-192.5"/>
<text text-anchor="middle" x="1894" y="-199.5" font-family="Helvetica,sans-Serif" font-size="10.00">view.GUILoadStyleUtility</text>
</a>
</g>
</g>
<!-- Node31&#45;&gt;Node29 -->
<g id="edge39" class="edge"><title>Node31&#45;&gt;Node29</title>
<path fill="none" stroke="#9a32cd" stroke-dasharray="5,2" d="M1969.86,-209.984C2006.23,-216.72 2049.08,-229.133 2082,-252 2109.73,-271.263 2128.93,-307.984 2136.88,-325.39"/>
<polygon fill="#9a32cd" stroke="#9a32cd" points="1970.24,-206.497 1959.79,-208.231 1969.04,-213.394 1970.24,-206.497"/>
<text text-anchor="middle" x="2030" y="-255" font-family="Helvetica,sans-Serif" font-size="10.00"> myLoadStyleUtility</text>
</g>
<!-- Node31&#45;&gt;Node31 -->
<g id="edge40" class="edge"><title>Node31&#45;&gt;Node31</title>
<path fill="none" stroke="#9a32cd" stroke-dasharray="5,2" d="M1872.05,-221.029C1873.25,-226.128 1880.56,-230 1894,-230 1914.97,-230 1921.04,-220.565 1912.19,-211.757"/>
<polygon fill="#9a32cd" stroke="#9a32cd" points="1875.3,-222.339 1875.81,-211.757 1868.81,-219.707 1875.3,-222.339"/>
<text text-anchor="middle" x="1894" y="-233" font-family="Helvetica,sans-Serif" font-size="10.00"> myOnlyInstance</text>
</g>
<!-- Node32 -->
<g id="node32" class="node"><title>Node32</title>
<polygon fill="white" stroke="#bfbfbf" points="1646.5,-242.5 1646.5,-261.5 1693.5,-261.5 1693.5,-242.5 1646.5,-242.5"/>
<text text-anchor="middle" x="1670" y="-249.5" font-family="Helvetica,sans-Serif" font-size="10.00">Scene</text>
</g>
<!-- Node32&#45;&gt;Node29 -->
<g id="edge42" class="edge"><title>Node32&#45;&gt;Node29</title>
<path fill="none" stroke="#9a32cd" stroke-dasharray="5,2" d="M1703.62,-254.347C1757.39,-258.548 1867.85,-268.583 1960,-286 2015.08,-296.411 2027.95,-303.128 2082,-318 2090.53,-320.347 2099.73,-322.96 2108.27,-325.418"/>
<polygon fill="#9a32cd" stroke="#9a32cd" points="1703.88,-250.857 1693.65,-253.584 1703.35,-257.836 1703.88,-250.857"/>
<text text-anchor="middle" x="1894" y="-289" font-family="Helvetica,sans-Serif" font-size="10.00"> myScene</text>
</g>
<!-- Node32&#45;&gt;Node31 -->
<g id="edge41" class="edge"><title>Node32&#45;&gt;Node31</title>
<path fill="none" stroke="#9a32cd" stroke-dasharray="5,2" d="M1703.28,-244.73C1742.23,-235.957 1807.84,-221.18 1850.78,-211.509"/>
<polygon fill="#9a32cd" stroke="#9a32cd" points="1702.49,-241.319 1693.51,-246.931 1704.03,-248.148 1702.49,-241.319"/>
<text text-anchor="middle" x="1775" y="-239" font-family="Helvetica,sans-Serif" font-size="10.00"> myScene</text>
</g>
<!-- Node33 -->
<g id="node33" class="node"><title>Node33</title>
<polygon fill="white" stroke="#bfbfbf" points="1860,-154.5 1860,-173.5 1928,-173.5 1928,-154.5 1860,-154.5"/>
<text text-anchor="middle" x="1894" y="-161.5" font-family="Helvetica,sans-Serif" font-size="10.00">Dimension</text>
</g>
<!-- Node33&#45;&gt;Node29 -->
<g id="edge43" class="edge"><title>Node33&#45;&gt;Node29</title>
<path fill="none" stroke="#9a32cd" stroke-dasharray="5,2" d="M1938.21,-160.865C1979.45,-160.192 2041.17,-165.522 2082,-198 2123.75,-231.211 2136.51,-299.684 2139.9,-325.164"/>
<polygon fill="#9a32cd" stroke="#9a32cd" points="1938.09,-157.367 1928.2,-161.152 1938.29,-164.364 1938.09,-157.367"/>
<text text-anchor="middle" x="2030" y="-201" font-family="Helvetica,sans-Serif" font-size="10.00"> SCENE_DIMENSIONS</text>
</g>
</g>
</svg>
        <g id="navigator" transform="translate(0 0)" fill="#404254">
                <rect fill="#f2f5e9" fill-opacity="0.5" stroke="#606060" stroke-width=".5" x="0" y="0" width="60" height="60"/>
                <use id="zoomplus" xlink:href="#zoomPlus" x="17" y="9" onmousedown="handleZoom(evt,'in')"/>
                <use id="zoomminus" xlink:href="#zoomMin" x="42" y="9" onmousedown="handleZoom(evt,'out')"/>
                <use id="reset" xlink:href="#resetDef" x="30" y="36" onmousedown="handleReset()"/>
                <g id="arrowUp" xlink:href="#dirArrow" transform="translate(30 24)" onmousedown="handlePan(0,-1)">
                  <use xlink:href="#rim" fill="#404040">
                        <set attributeName="fill" to="#808080" begin="arrowUp.mouseover" end="arrowUp.mouseout"/>
                  </use>
                  <path fill="none" stroke="white" stroke-width="1.5" d="M0,-3.0v7 M-2.5,-0.5L0,-3.0L2.5,-0.5"/>
                </g>
                <g id="arrowRight" xlink:href="#dirArrow" transform="rotate(90) translate(36 -43)" onmousedown="handlePan(1,0)">
                  <use xlink:href="#rim" fill="#404040">
                        <set attributeName="fill" to="#808080" begin="arrowRight.mouseover" end="arrowRight.mouseout"/>
                  </use>
                  <path fill="none" stroke="white" stroke-width="1.5" d="M0,-3.0v7 M-2.5,-0.5L0,-3.0L2.5,-0.5"/>
                </g>
                <g id="arrowDown" xlink:href="#dirArrow" transform="rotate(180) translate(-30 -48)" onmousedown="handlePan(0,1)">
                  <use xlink:href="#rim" fill="#404040">
                        <set attributeName="fill" to="#808080" begin="arrowDown.mouseover" end="arrowDown.mouseout"/>
                  </use>
                  <path fill="none" stroke="white" stroke-width="1.5" d="M0,-3.0v7 M-2.5,-0.5L0,-3.0L2.5,-0.5"/>
                </g>
                <g id="arrowLeft" xlink:href="#dirArrow" transform="rotate(270) translate(-36 17)" onmousedown="handlePan(-1,0)">
                  <use xlink:href="#rim" fill="#404040">
                        <set attributeName="fill" to="#808080" begin="arrowLeft.mouseover" end="arrowLeft.mouseout"/>
                  </use>
                  <path fill="none" stroke="white" stroke-width="1.5" d="M0,-3.0v7 M-2.5,-0.5L0,-3.0L2.5,-0.5"/>
                </g>
        </g>
        <svg viewBox="0 0 15 15" width="100%" height="30px" preserveAspectRatio="xMaxYMin meet">
         <g id="arrow_out" transform="scale(0.3 0.3)">
          <a xlink:href="classview_1_1_g_u_i_screen__coll__graph_org.svg" target="_base">
           <rect id="button" ry="5" rx="5" y="6" x="6" height="38" width="38"
                fill="#f2f5e9" fill-opacity="0.5" stroke="#606060" stroke-width="1.0"/>
           <path id="arrow"
             d="M 11.500037,31.436501 C 11.940474,20.09759 22.043105,11.32322 32.158766,21.979434 L 37.068811,17.246167 C 37.068811,17.246167 37.088388,32 37.088388,32 L 22.160133,31.978069 C 22.160133,31.978069 26.997745,27.140456 26.997745,27.140456 C 18.528582,18.264221 13.291696,25.230495 11.500037,31.436501 z"
             style="fill:#404040;"/>
          </a>
         </g>
        </svg>
</svg>
