<?xml version="1.0" encoding="UTF-8" standalone="no"?>
<!DOCTYPE svg PUBLIC "-//W3C//DTD SVG 1.1//EN"
 "http://www.w3.org/Graphics/SVG/1.1/DTD/svg11.dtd">
<!-- Generated by graphviz version 2.36.0 (20140111.2315)
 -->
<!-- Title: engine.computers.pathingComputers.PathingComputer Pages: 1 -->
<svg width="972pt" height="293pt"
 viewBox="0.00 0.00 972.00 293.00" xmlns="http://www.w3.org/2000/svg" xmlns:xlink="http://www.w3.org/1999/xlink">
<g id="graph0" class="graph" transform="scale(1 1) rotate(0) translate(4 289)">
<title>engine.computers.pathingComputers.PathingComputer</title>
<polygon fill="white" stroke="none" points="-4,4 -4,-289 968,-289 968,4 -4,4"/>
<!-- Node1 -->
<g id="node1" class="node"><title>Node1</title>
<polygon fill="#bfbfbf" stroke="black" points="808,-130 808,-160 964,-160 964,-130 808,-130"/>
<text text-anchor="start" x="816" y="-148" font-family="Helvetica,sans-Serif" font-size="10.00">engine.computers.pathing</text>
<text text-anchor="middle" x="886" y="-137" font-family="Helvetica,sans-Serif" font-size="10.00">Computers.PathingComputer</text>
</g>
<!-- Node2 -->
<g id="node2" class="node"><title>Node2</title>
<polygon fill="white" stroke="#bfbfbf" points="436.5,-243.5 436.5,-284.5 681.5,-284.5 681.5,-243.5 436.5,-243.5"/>
<text text-anchor="start" x="444.5" y="-272.5" font-family="Helvetica,sans-Serif" font-size="10.00">HashMap&lt; engine.computers.pathing</text>
<text text-anchor="start" x="444.5" y="-261.5" font-family="Helvetica,sans-Serif" font-size="10.00">Computers.Location, engine.computers.pathing</text>
<text text-anchor="middle" x="559" y="-250.5" font-family="Helvetica,sans-Serif" font-size="10.00">Computers.Location &gt;</text>
</g>
<!-- Node2&#45;&gt;Node1 -->
<g id="edge1" class="edge"><title>Node2&#45;&gt;Node1</title>
<path fill="none" stroke="#9a32cd" stroke-dasharray="5,2" d="M691.654,-241.884C724.555,-233.992 759.22,-223.573 790,-210 819.256,-197.099 849.052,-174.933 867.284,-160.124"/>
<polygon fill="#9a32cd" stroke="#9a32cd" points="690.449,-238.572 681.506,-244.253 692.04,-245.388 690.449,-238.572"/>
<text text-anchor="middle" x="745" y="-241" font-family="Helvetica,sans-Serif" font-size="10.00"> previousLocations</text>
</g>
<!-- Node3 -->
<g id="node3" class="node"><title>Node3</title>
<polygon fill="white" stroke="#bfbfbf" points="459.5,-195 459.5,-225 658.5,-225 658.5,-195 459.5,-195"/>
<text text-anchor="start" x="467.5" y="-213" font-family="Helvetica,sans-Serif" font-size="10.00">HashMap&lt; engine.computers.pathing</text>
<text text-anchor="middle" x="559" y="-202" font-family="Helvetica,sans-Serif" font-size="10.00">Computers.Location, Double &gt;</text>
</g>
<!-- Node3&#45;&gt;Node1 -->
<g id="edge2" class="edge"><title>Node3&#45;&gt;Node1</title>
<path fill="none" stroke="#9a32cd" stroke-dasharray="5,2" d="M668.986,-200.056C707.543,-195.292 751.009,-188.494 790,-179 809.744,-174.193 831.1,-166.761 848.554,-160.071"/>
<polygon fill="#9a32cd" stroke="#9a32cd" points="668.284,-196.615 658.774,-201.285 669.12,-203.565 668.284,-196.615"/>
<text text-anchor="middle" x="745" y="-198" font-family="Helvetica,sans-Serif" font-size="10.00"> minimumCosts</text>
</g>
<!-- Node4 -->
<g id="node4" class="node"><title>Node4</title>
<g id="a_node4"><a xlink:href="../../d5/d97/classengine_1_1computers_1_1pathing_computers_1_1_map_grid.html" target="_top" xlink:title="engine.computers.pathing\lComputers.MapGrid">
<polygon fill="white" stroke="black" points="487.5,-98 487.5,-128 630.5,-128 630.5,-98 487.5,-98"/>
<text text-anchor="start" x="495.5" y="-116" font-family="Helvetica,sans-Serif" font-size="10.00">engine.computers.pathing</text>
<text text-anchor="middle" x="559" y="-105" font-family="Helvetica,sans-Serif" font-size="10.00">Computers.MapGrid</text>
</a>
</g>
</g>
<!-- Node4&#45;&gt;Node1 -->
<g id="edge3" class="edge"><title>Node4&#45;&gt;Node1</title>
<path fill="none" stroke="#9a32cd" stroke-dasharray="5,2" d="M640.534,-120.93C691.626,-125.96 757.363,-132.433 807.799,-137.399"/>
<polygon fill="#9a32cd" stroke="#9a32cd" points="640.815,-117.44 630.52,-119.944 640.129,-124.407 640.815,-117.44"/>
<text text-anchor="middle" x="745" y="-139" font-family="Helvetica,sans-Serif" font-size="10.00"> myGrid</text>
</g>
<!-- Node5 -->
<g id="node5" class="node"><title>Node5</title>
<g id="a_node5"><a xlink:href="../../d1/d19/classengine_1_1computers_1_1pathing_computers_1_1_location.html" target="_top" xlink:title="engine.computers.pathing\lComputers.Location">
<polygon fill="white" stroke="black" points="176.5,-130 176.5,-160 319.5,-160 319.5,-130 176.5,-130"/>
<text text-anchor="start" x="184.5" y="-148" font-family="Helvetica,sans-Serif" font-size="10.00">engine.computers.pathing</text>
<text text-anchor="middle" x="248" y="-137" font-family="Helvetica,sans-Serif" font-size="10.00">Computers.Location</text>
</a>
</g>
</g>
<!-- Node5&#45;&gt;Node1 -->
<g id="edge8" class="edge"><title>Node5&#45;&gt;Node1</title>
<path fill="none" stroke="#9a32cd" stroke-dasharray="5,2" d="M330.173,-150.7C332.813,-150.813 335.427,-150.913 338,-151 538.775,-157.76 589.211,-157.334 790,-151 795.781,-150.818 801.757,-150.573 807.767,-150.286"/>
<polygon fill="#9a32cd" stroke="#9a32cd" points="330.059,-147.191 319.904,-150.212 329.727,-154.183 330.059,-147.191"/>
<text text-anchor="middle" x="559" y="-159" font-family="Helvetica,sans-Serif" font-size="10.00"> origin</text>
</g>
<!-- Node5&#45;&gt;Node4 -->
<g id="edge4" class="edge"><title>Node5&#45;&gt;Node4</title>
<path fill="none" stroke="#9a32cd" stroke-dasharray="5,2" d="M329.726,-136.64C378.59,-131.58 440.322,-125.187 487.265,-120.325"/>
<polygon fill="#9a32cd" stroke="#9a32cd" points="329.09,-133.187 319.504,-137.699 329.811,-140.15 329.09,-133.187"/>
<text text-anchor="middle" x="378" y="-139" font-family="Helvetica,sans-Serif" font-size="10.00"> myLocationGrid</text>
</g>
<!-- Node6 -->
<g id="node6" class="node"><title>Node6</title>
<polygon fill="white" stroke="#bfbfbf" points="0,-135.5 0,-154.5 138,-154.5 138,-135.5 0,-135.5"/>
<text text-anchor="middle" x="69" y="-142.5" font-family="Helvetica,sans-Serif" font-size="10.00">Comparable&lt; Location &gt;</text>
</g>
<!-- Node6&#45;&gt;Node5 -->
<g id="edge5" class="edge"><title>Node6&#45;&gt;Node5</title>
<path fill="none" stroke="midnightblue" d="M148.213,-145C157.534,-145 167.01,-145 176.218,-145"/>
<polygon fill="midnightblue" stroke="midnightblue" points="148.18,-141.5 138.18,-145 148.18,-148.5 148.18,-141.5"/>
</g>
<!-- Node7 -->
<g id="node7" class="node"><title>Node7</title>
<polygon fill="white" stroke="#bfbfbf" points="450,-49 450,-79 668,-79 668,-49 450,-49"/>
<text text-anchor="start" x="458" y="-67" font-family="Helvetica,sans-Serif" font-size="10.00">PriorityQueue&lt; engine.computers.pathing</text>
<text text-anchor="middle" x="559" y="-56" font-family="Helvetica,sans-Serif" font-size="10.00">Computers.Location &gt;</text>
</g>
<!-- Node7&#45;&gt;Node1 -->
<g id="edge6" class="edge"><title>Node7&#45;&gt;Node1</title>
<path fill="none" stroke="#9a32cd" stroke-dasharray="5,2" d="M653.377,-80.9713C695.443,-89.3637 745.545,-100.4 790,-113 807.581,-117.983 826.722,-124.262 843.185,-129.935"/>
<polygon fill="#9a32cd" stroke="#9a32cd" points="653.91,-77.5091 643.421,-79.0044 652.553,-84.3764 653.91,-77.5091"/>
<text text-anchor="middle" x="745" y="-116" font-family="Helvetica,sans-Serif" font-size="10.00"> frontierLocations</text>
</g>
<!-- Node8 -->
<g id="node8" class="node"><title>Node8</title>
<polygon fill="white" stroke="#bfbfbf" points="474,-0 474,-30 644,-30 644,-0 474,-0"/>
<text text-anchor="start" x="482" y="-18" font-family="Helvetica,sans-Serif" font-size="10.00">List&lt; engine.computers.pathing</text>
<text text-anchor="middle" x="559" y="-7" font-family="Helvetica,sans-Serif" font-size="10.00">Computers.Location &gt;</text>
</g>
<!-- Node8&#45;&gt;Node1 -->
<g id="edge7" class="edge"><title>Node8&#45;&gt;Node1</title>
<path fill="none" stroke="#9a32cd" stroke-dasharray="5,2" d="M654.02,-30.7179C697.078,-40.2962 747.796,-55.0398 790,-77 818.788,-91.9797 848.701,-114.797 867.087,-129.804"/>
<polygon fill="#9a32cd" stroke="#9a32cd" points="654.619,-27.2666 644.105,-28.5726 653.138,-34.1083 654.619,-27.2666"/>
<text text-anchor="middle" x="745" y="-80" font-family="Helvetica,sans-Serif" font-size="10.00"> goals</text>
</g>
</g>
</svg>
